<?xml version="1.0" encoding="UTF-8"?>
<svg width="174px" height="174px" viewBox="0 0 174 174" version="1.1" xmlns="http://www.w3.org/2000/svg" xmlns:xlink="http://www.w3.org/1999/xlink">
    <!-- Generator: Sketch 62 (91390) - https://sketch.com -->
    <title>Group 20</title>
    <desc>Created with Sketch.</desc>
    <defs>
        <polygon id="path-1" points="0 0.000949706859 174 0.000949706859 174 173.998875 0 173.998875"></polygon>
        <path d="M30.6941143,4.67089925 L25.2424286,15.5930659 C24.1356,17.8063408 22.0012286,19.3424664 19.5275143,19.6935808 L19.5275143,19.6935808 L7.33337143,21.449153 C1.10785714,22.3426138 -1.37537143,29.9041138 3.12805714,34.2460199 L3.12805714,34.2460199 L11.9541429,42.7417351 C13.7396571,44.4690927 14.5547143,46.9519733 14.1329143,49.3846947 L14.1329143,49.3846947 L12.0524571,61.3884192 C10.9900286,67.5172469 17.4914571,72.1945927 23.0604857,69.2978986 L23.0604857,69.2978986 L33.9670286,63.6299086 C36.1806857,62.4825168 38.8193143,62.4825168 41.0329714,63.6299086 L41.0329714,63.6299086 L51.9363429,69.2978986 C57.5053714,72.1945927 64.0131429,67.5172469 62.9475429,61.3884192 L62.9475429,61.3884192 L60.8670857,49.3846947 C60.4452857,46.9519733 61.2603429,44.4690927 63.0490286,42.7417351 L63.0490286,42.7417351 L71.8719429,34.2460199 C76.3753714,29.9041138 73.8889714,22.3426138 67.6666286,21.449153 L67.6666286,21.449153 L55.4756571,19.6935808 C52.9987714,19.3424664 50.8612286,17.8063408 49.7575714,15.5930659 L49.7575714,15.5930659 L44.3058857,4.67089925 C42.9136286,1.88392848 40.2052286,0.488875622 37.5,0.488875622 L37.5,0.488875622 C34.7947714,0.488875622 32.0863714,1.88392848 30.6941143,4.67089925 L30.6941143,4.67089925 Z" id="path-3"></path>
    </defs>
    <g id="Page-1-Copy" stroke="none" stroke-width="1" fill="none" fill-rule="evenodd">
        <g id="Group-20">
            <g id="Group-16">
                <g id="Group-3">
                    <mask id="mask-2" fill="white">
                        <use xlink:href="#path-1"></use>
                    </mask>
                    <g id="Clip-2"></g>
                    <path d="M11.5880836,158.271665 C20.3007382,168.496538 31.6613564,171.859484 47.4953564,172.599775 C84.0511745,174.311302 87.9487745,174.355593 123.25812,173.257811 C136.779502,172.827556 149.544775,171.590575 162.022156,160.679193 C169.092884,154.497447 172.791175,141.184865 173.199284,126.018393 C174.27492,86.21352 174.211647,83.1321382 173.341647,46.2789382 C173.272047,43.37472 172.88292,37.7054836 171.762993,31.7420291 C170.51652,25.0920655 168.362084,18.0782836 164.689102,14.1205745 C151.82892,0.285992727 140.174084,-0.0113890909 132.217538,0.000949706859 C129.17412,0.00442909091 115.162375,0.000949706859 115.162375,0.000949706859 L98.7051382,0.36192 L39.9184473,1.56726545 C39.9184473,1.56726545 14.6315018,-0.115789091 5.30193818,22.9850836 C3.36895636,27.7653382 2.10666545,33.5801018 1.90735636,40.7235927 C1.67324727,49.1989745 -0.000319908126,106.957484 -0.000319908126,114.740029 C-0.00348,135.888938 2.10982909,147.151484 11.5880836,158.271665" id="Fill-1" fill="#FF9BD6" mask="url(#mask-2)"></path>
                </g>
                <path d="M141.297175,88.1110691 C141.297175,88.1110691 141.474338,79.6926327 136.972484,80.6607055 C132.476956,81.6256145 132.382047,85.9155055 132.382047,85.9155055 C132.382047,85.9155055 127.351865,85.47576 126.064265,91.8378327 L124.776665,98.1999055 L124.586847,114.891251 L138.706156,98.5162691 C138.706156,98.5162691 141.072556,96.6149236 141.297175,88.1110691" id="Fill-4" fill="#000000"></path>
                <path d="M39.1386109,88.1110691 C39.1386109,88.1110691 38.9614473,79.6926327 43.4633018,80.6607055 C47.9619927,81.6256145 48.0537382,85.9155055 48.0537382,85.9155055 C48.0537382,85.9155055 53.08392,85.47576 54.37152,91.8378327 L55.65912,98.1999055 L55.8489382,114.891251 L41.7296291,98.5162691 C41.7296291,98.5162691 39.3632291,96.6149236 39.1386109,88.1110691" id="Fill-6" fill="#000000"></path>
                <path d="M145.227044,75.6295745 C139.254098,76.5501927 139.244607,94.6715018 139.244607,94.6715018 C135.986062,99.6225927 130.427553,105.801175 130.427553,105.801175 C133.021735,87.8222291 121.044207,91.1915018 118.731589,97.7592109 C116.415807,104.330084 115.969735,113.624847 115.969735,113.624847 C105.131116,118.683502 104.292753,133.248884 104.292753,133.248884 L104.295916,133.248884 L103.748607,143.900847 C103.615735,146.472884 105.668935,148.630484 108.247298,148.630484 L126.01428,148.630484 C128.86788,148.630484 131.000171,146.01732 130.424389,143.220665 L128.374353,133.248884 L128.374353,133.248884 C140.136753,124.007902 150.083225,108.550375 151.740971,93.7635382 C153.40188,78.9830291 152.541371,74.50332 145.227044,75.6295745" id="Fill-8" fill="#B35125"></path>
                <path d="M76.1427164,133.248567 C76.1427164,133.248567 75.3075164,118.683185 64.4657345,113.624531 C64.4657345,113.624531 64.0196618,104.329767 61.7070436,97.7588945 C59.3912618,91.1911855 47.4137345,87.8219127 50.0079164,105.800858 C50.0079164,105.800858 44.4494073,99.62544 41.1908618,94.6711855 C41.1908618,94.6711855 41.1813709,76.5498764 35.2084255,75.6292582 C27.8940982,74.5030036 27.0335891,78.9827127 28.6944982,93.7663855 C30.3522436,108.550058 40.30188,124.007585 52.0611164,133.248567 L52.0611164,133.248567 L50.01108,143.220349 C49.4384618,146.017004 51.5675891,148.630167 54.4211891,148.630167 L72.1881709,148.630167 C74.7665345,148.630167 76.8197345,146.472567 76.6868618,143.900531 L76.1427164,133.248567 Z" id="Fill-10" fill="#B35125"></path>
                <path d="M47.3950691,109.756036 C46.6705964,106.756909 45.9397964,103.697673 45.9176509,100.594145 C45.8986691,98.2878545 49.4893964,98.2846909 49.5052145,100.594145 C49.5241964,103.381309 50.2075418,106.102036 50.8560873,108.797455 C51.3970691,111.043636 47.9360509,112.002218 47.3950691,109.756036" id="Fill-12" fill="#000000"></path>
                <path d="M133.0404,109.756036 C133.764873,106.756909 134.495673,103.697673 134.517818,100.594145 C134.5368,98.2878545 130.949236,98.2846909 130.930255,100.594145 C130.911273,103.381309 130.231091,106.102036 129.579382,108.797455 C129.0384,111.043636 132.499418,112.002218 133.0404,109.756036" id="Fill-14" fill="#000000"></path>
            </g>
            <g id="Group-19" transform="translate(51.000000, 22.000000)">
                <mask id="mask-4" fill="white">
                    <use xlink:href="#path-3"></use>
                </mask>
                <g id="Clip-18"></g>
                <polygon id="Fill-17" fill="#FFD51C" mask="url(#mask-4)" points="-9.4752 80.3611381 84.4752 80.3611381 84.4752 -9.69344279 -9.4752 -9.69344279"></polygon>
            </g>
        </g>
    </g>
</svg>