<?xml version="1.0" encoding="UTF-8"?>
<svg width="174px" height="174px" viewBox="0 0 174 174" version="1.1" xmlns="http://www.w3.org/2000/svg" xmlns:xlink="http://www.w3.org/1999/xlink">
    <!-- Generator: Sketch 62 (91390) - https://sketch.com -->
    <title>Group 46 Copy</title>
    <desc>Created with Sketch.</desc>
    <defs>
        <polygon id="path-1" points="0 0 173.999748 0 173.999748 174 0 174"></polygon>
    </defs>
    <g id="Page-1-Copy" stroke="none" stroke-width="1" fill="none" fill-rule="evenodd">
        <g id="Group-46-Copy">
            <g id="Group-3">
                <mask id="mask-2" fill="white">
                    <use xlink:href="#path-1"></use>
                </mask>
                <g id="Clip-2"></g>
                <path d="M11.5874509,158.272931 C20.3001055,168.497804 31.6607236,171.857585 47.4947236,172.60104 C84.0505418,174.312567 87.9481418,174.356858 123.257487,173.259076 C136.778869,172.828822 149.544142,171.59184 162.024687,160.677295 C169.092251,154.498713 172.790542,141.186131 173.198651,126.019658 C174.274287,86.2147855 174.211015,83.1334036 173.341015,46.27704 C173.271415,43.3759855 172.882287,37.7067491 171.765524,31.7432945 C170.519051,25.0901673 168.361451,18.0763855 164.688469,14.12184 C151.831451,0.284094545 140.176615,-0.0132872727 132.216905,-0.000948463474 C129.176651,0.00569454545 115.161742,-0.000948463474 115.161742,-0.000948463474 L98.7045055,0.363185455 L39.9178145,1.56536727 C39.9178145,1.56536727 14.6340327,-0.117687273 5.30130545,22.9831855 C3.36832364,27.7666036 2.10603273,33.5813673 1.90672364,40.7216945 C1.67261455,49.20024 -0.000952635399,106.955585 -0.000952635399,114.738131 C-0.00411272727,135.890204 2.10919636,147.152749 11.5874509,158.272931" id="Fill-1" fill="#AFE46C" mask="url(#mask-2)"></path>
            </g>
            <polygon id="Fill-4" fill="#000000" points="116 37.0566483 99.2784702 37 98 44.9433517 114.718457 45"></polygon>
            <path d="M143.338051,55.2676942 L136.122021,47.7535894 C135.078855,46.6687309 133.177549,46.767075 131.872794,47.9717904 L128,51.555204 L138.98993,63 L142.865914,59.4165864 C144.167479,58.2118711 144.381217,56.3525527 143.338051,55.2676942" id="Fill-6" fill="#00A913"></path>
            <path d="M125.274109,38 L87.5237823,37.8775843 C85.8787428,37.8714638 84.7662017,36.5555532 85.0419598,34.9397373 L86.240081,27.9195069 C86.515839,26.3006308 88.0752984,24.9939009 89.7235075,25 L127.473835,25.1224317 C129.122044,25.1285522 130.231415,26.4444629 129.958827,28.0602788 L128.757536,35.0805091 C128.481778,36.696325 126.922319,38.0030549 125.274109,38" id="Fill-8" fill="#00A913"></path>
            <path d="M148.281109,94.6687784 C143.598137,123.112726 117.288232,146.092073 89.5180789,146 C61.747926,145.907372 43.0351251,122.775169 47.7180974,94.3312215 C52.4010697,65.8904583 78.7109751,42.9079269 106.481128,43 C134.251281,43.0926278 152.967263,66.2248307 148.281109,94.6687784" id="Fill-10" fill="#004656"></path>
            <path d="M135.45818,94.6255701 C131.920632,115.887727 112.060322,133.068856 91.0978923,133 C70.1354632,132.930729 56.0074383,115.636587 59.5418198,94.3744299 C63.0762013,73.1091336 82.9365115,55.931144 103.902108,56 C124.864537,56.0692711 138.992562,73.363413 135.45818,94.6255701" id="Fill-12" fill="#33BDDD"></path>
            <path d="M100.848092,61.1425552 C100.603538,62.5277981 100.358984,63.9160921 100.114429,65.301335 C99.9840002,65.691888 99.9644358,66.0824411 100.058997,66.4699429 C100.078561,66.860496 100.202469,67.2235883 100.43072,67.5592198 C100.629624,67.9009537 100.897003,68.1755613 101.239379,68.3830426 C101.539366,68.6423943 101.894785,68.8163124 102.302376,68.9047971 C103.104514,69.075664 104.004475,69.0390497 104.715313,68.6088311 C104.92726,68.4562713 105.135946,68.3037115 105.347894,68.1511517 C105.73592,67.7880595 106.00656,67.3547897 106.153293,66.860496 C106.397847,65.4722019 106.642402,64.0869591 106.886956,62.698665 C107.017385,62.3111632 107.033689,61.9206101 106.942388,61.5300571 C106.922824,61.1425552 106.798916,60.7794629 106.570666,60.4438314 C106.375022,60.1020975 106.104382,59.8274899 105.765266,59.6200086 C105.462019,59.3606569 105.1066,59.1867388 104.699009,59.0952029 C103.900132,58.924336 103.000171,58.9609503 102.286072,59.3911689 C102.074125,59.5437287 101.865439,59.6962885 101.653492,59.8488483 C101.265465,60.2149917 100.998086,60.6452103 100.848092,61.1425552" id="Fill-14" fill="#004656"></path>
            <path d="M129.04746,91.0124954 C127.682719,91.0093769 126.317978,91.00314 124.950163,91 C124.197097,90.996903 123.397924,91.3336989 122.866166,91.8731961 C122.577235,92.1476224 122.374368,92.4657075 122.254492,92.8368067 C122.070067,93.195432 121.984003,93.5790052 122.002445,93.9937631 C122.033183,94.7671464 122.285229,95.568596 122.866166,96.1080932 C123.44403,96.6475904 124.15099,96.9843863 124.950163,96.9875048 C126.317978,96.9906233 127.682719,96.9937418 129.04746,97 C129.803601,97.0030972 130.5997,96.6631828 131.134531,96.1236856 C131.420389,95.8523778 131.62633,95.5311742 131.743132,95.160075 C131.927556,94.8014497 132.013621,94.4178765 131.998252,94.0062371 C131.964441,93.2297353 131.712394,92.4282857 131.134531,91.8887885 C130.556667,91.3492913 129.846633,91.0124954 129.04746,91.0124954" id="Fill-16" fill="#004656"></path>
            <path d="M127.65787,78.187185 C126.696931,78.5989921 125.732746,79.0107991 124.768561,79.425486 C124.43418,79.5665947 124.148496,79.9409647 124.051104,80.2491001 C123.950465,80.5802736 123.995914,81.0208783 124.210178,81.3146148 C124.424441,81.6112311 124.74259,81.8704104 125.141899,81.9510439 C125.278248,81.9654428 125.417844,81.9827214 125.554193,82 C125.836631,82 126.099591,81.9366451 126.343072,81.8099352 C127.304011,81.3981281 128.268196,80.9863211 129.232381,80.574514 C129.566762,80.4305256 129.852446,80.0561555 129.946592,79.7480202 C130.050477,79.4168467 130.005027,78.9762419 129.790764,78.6825054 C129.576501,78.3887689 129.255106,78.1267099 128.859043,78.0489561 C128.722694,78.0316775 128.583098,78.0143988 128.443502,78 C128.16431,78 127.901351,78.0633549 127.65787,78.187185" id="Fill-18" fill="#B2E6F2"></path>
            <path d="M119.434243,66.4044313 C118.770414,67.1544267 118.106584,67.904422 117.439623,68.6544173 C117.292454,68.7775081 117.189122,68.9234996 117.129628,69.0952542 C117.035689,69.2584212 116.991852,69.435901 117.001245,69.6248311 C117.001245,69.9626152 117.164072,70.3633761 117.439623,70.5952449 C117.7277,70.8357014 118.103453,71.0160438 118.504256,70.9988683 C118.876877,70.9845554 119.318386,70.8757775 119.565757,70.5952449 C120.229586,69.8481121 120.896547,69.0981168 121.560377,68.3481215 C121.707546,68.2221681 121.810878,68.0761766 121.870372,67.904422 C121.964311,67.7412551 122.008148,67.5637753 121.998755,67.3748451 C121.998755,67.0399236 121.835928,66.6363001 121.560377,66.4044313 C121.2723,66.1639748 120.896547,65.986495 120.495744,66.0008079 C120.123123,66.0179834 119.681614,66.1267613 119.434243,66.4044313" id="Fill-20" fill="#B2E6F2"></path>
            <path d="M103.922551,95.0177759 C103.417641,98.3318877 100.579391,101.009664 97.5857848,101 C94.5891905,100.987053 92.5725393,98.2931261 93.077449,94.9790143 C93.5823587,91.6649025 96.4176209,88.987126 99.4142152,89 C102.41081,89.0097369 104.427461,91.7036641 103.922551,95.0177759" id="Fill-22" fill="#006880"></path>
            <polygon id="Fill-24" fill="#006880" points="115 83.7758856 111.138759 79 96 92.2271798 99.8612409 97"></polygon>
            <path d="M120.374253,74.0065354 L120.374253,74.0065354 C119.2933,72.6702079 117.184199,72.6639924 115.662167,73.9909967 L96,91.1612513 L99.9169024,96 L119.579069,78.8297454 C121.101101,77.5027411 121.455206,75.3428629 120.374253,74.0065354" id="Fill-26" fill="#006880"></path>
            <path d="M98,98 C101.996835,98 102.003164,92 98,92 C94.0031652,92 93.9968361,98 98,98" id="Fill-28" fill="#004656"></path>
            <g id="Group-33" transform="translate(34.000000, 74.000000)">
                <line x1="0.0425990396" y1="2.1041" x2="49.9122269" y2="2.1041" id="Fill-30" fill="#FFFFFF"></line>
                <line x1="0.0425990396" y1="2.1041" x2="49.9122269" y2="2.1041" id="Stroke-32" stroke="#000000" stroke-width="1.531" stroke-linecap="round"></line>
            </g>
            <g id="Group-37" transform="translate(19.000000, 95.000000)">
                <line x1="0.0789954545" y1="2.1108" x2="44.7695864" y2="2.1108" id="Fill-34" fill="#FFFFFF"></line>
                <line x1="0.0789954545" y1="2.1108" x2="44.7695864" y2="2.1108" id="Stroke-36" stroke="#000000" stroke-width="1.531" stroke-linecap="round"></line>
            </g>
            <g id="Group-41" transform="translate(42.000000, 114.000000)">
                <line x1="0.418311429" y1="2.4567" x2="35.5989686" y2="2.4567" id="Fill-38" fill="#FFFFFF"></line>
                <line x1="0.418311429" y1="2.4567" x2="35.5989686" y2="2.4567" id="Stroke-40" stroke="#000000" stroke-width="1.531" stroke-linecap="round"></line>
            </g>
            <g id="Group-45" transform="translate(24.000000, 114.000000)">
                <line x1="0.6268" y1="2.4567" x2="5.8978" y2="2.4567" id="Fill-42" fill="#FFFFFF"></line>
                <line x1="0.6268" y1="2.4567" x2="5.8978" y2="2.4567" id="Stroke-44" stroke="#000000" stroke-width="1.531" stroke-linecap="round"></line>
            </g>
        </g>
    </g>
</svg>