<?xml version="1.0" encoding="UTF-8"?>
<svg width="174px" height="174px" viewBox="0 0 174 174" version="1.1" xmlns="http://www.w3.org/2000/svg" xmlns:xlink="http://www.w3.org/1999/xlink">
    <!-- Generator: Sketch 62 (91390) - https://sketch.com -->
    <title>Group 20</title>
    <desc>Created with Sketch.</desc>
    <defs>
        <polygon id="path-1" points="0 0.000251873277 173.999824 0.000251873277 173.999824 174 0 174"></polygon>
    </defs>
    <g id="Page-1-Copy" stroke="none" stroke-width="1" fill="none" fill-rule="evenodd">
        <g id="Group-20">
            <g id="Group-3">
                <mask id="mask-2" fill="white">
                    <use xlink:href="#path-1"></use>
                </mask>
                <g id="Clip-2"></g>
                <path d="M173.25876,50.7425127 C172.825342,37.2211309 171.591524,24.4558582 160.676978,11.9784764 C154.495233,4.90774909 141.185815,1.20945818 126.019342,0.801349091 C86.2144691,-0.274287273 83.1330873,-0.211014545 46.2767236,0.658985455 C40.1361055,0.804512727 21.6225055,2.34520364 14.1215236,9.31469455 C0.283778182,22.1717127 -0.0136036364,33.8265491 -0.00126482711,41.7799309 C0.00537818182,44.8233491 -0.00126482711,58.8382582 -0.00126482711,58.8382582 L1.27399636,116.558804 L1.56505091,134.082185 C1.56505091,134.082185 -0.118003636,159.365967 22.9828691,168.698695 C27.7662873,170.631676 33.5810509,171.893967 40.7213782,172.090113 C49.1999236,172.327385 68.0805055,173.026549 86.1701782,173.510585 C96.6955964,173.792149 106.955269,173.997785 114.737815,174.000949 C135.889887,174.000949 147.152433,171.88764 158.272615,162.412549 C168.497487,153.696731 171.860433,142.339276 172.600724,126.505276 C174.312251,89.9494582 174.356542,86.0518582 173.25876,50.7425127" id="Fill-1" fill="#FF9BD6" mask="url(#mask-2)"></path>
            </g>
            <path d="M52.7613307,112.898001 C52.7613307,112.898001 26.4067597,103.799638 28.0760812,68.411844 C29.7454028,33.0240503 57.7661575,25.2728902 79.4485109,27.2968569 C101.134002,29.3176612 124.818286,47.4890877 120.481815,84.575116 C116.145345,121.661144 74.5001648,116.942772 74.5001648,116.942772 C74.5001648,116.942772 65.1274891,127.644496 52.3753785,127.99869 C49.9718065,128.068264 48.4217222,125.351721 49.7176429,123.305617 C51.3430349,120.734547 52.9276353,117.113544 52.7613307,112.898001" id="Fill-4" fill="#00D000"></path>
            <path d="M114.284132,57.5861205 C118.263762,66.5667976 118.13621,76.9409178 114.382985,85.9599466 C113.885531,87.1552396 114.918705,88.5966223 116.05392,88.9098274 C117.431484,89.2869519 118.496545,88.4336278 118.997188,87.2351388 C123.270188,76.9632896 122.900287,65.2884094 118.413636,55.1667708 C117.887483,53.9842617 116.168717,53.7062123 115.141921,54.3070547 C113.923797,55.0197562 113.75479,56.3972194 114.284132,57.5861205" id="Fill-6" fill="#000000"></path>
            <path d="M90,115.098454 C85.1861042,115.902016 80.8817204,116.034368 78,115.993402 L87.18445,89 L90,115.098454 Z" id="Fill-8" fill="#000000"></path>
            <path d="M130.010499,131.807929 L141.940177,131.807929 C146.390036,131.807929 150,128.178337 150,123.706502 L150,89.0982486 C150,84.6264135 146.390036,81 141.940177,81 L94.0598227,81 C89.6067944,81 86,84.6264135 86,89.0982486 L86,123.706502 C86,128.178337 89.6067944,131.807929 94.0598227,131.807929 L110.020997,131.807929 C110.020997,131.807929 113.713366,145.198008 129.747437,144.997777 C131.798049,144.975529 133.084831,142.734844 132.045263,140.961365 C130.577824,138.466418 129.183281,135.024345 130.010499,131.807929" id="Fill-10" fill="#008AAA"></path>
            <path d="M62,74 C62,77.8678394 58.8670886,81 55,81 C51.1329114,81 48,77.8678394 48,74 C48,70.1321606 51.1329114,67 55,67 C58.8670886,67 62,70.1321606 62,74" id="Fill-12" fill="#FFFFFF"></path>
            <path d="M84,74 C84,77.8678394 80.8663803,81 77.0015826,81 C73.1336197,81 70,77.8678394 70,74 C70,70.1321606 73.1336197,67 77.0015826,67 C80.8663803,67 84,70.1321606 84,74" id="Fill-14" fill="#FFFFFF"></path>
            <path d="M105,74 C105,77.8678394 101.867089,81 98,81 C94.1329114,81 91,77.8678394 91,74 C91,70.1321606 94.1329114,67 98,67 C101.867089,67 105,70.1321606 105,74" id="Fill-16" fill="#FFFFFF"></path>
            <path d="M68.4453579,116.449971 C74.0296698,117.03667 79.7475622,117.524488 85.2080679,115.863271 C86.4721945,115.477632 87.2704188,114.129542 86.9152905,112.821004 C86.5699363,111.555315 85.1787454,110.708227 83.9081026,111.093866 C78.9493379,112.603464 73.6549931,112.053021 68.4453579,111.505874 C67.168199,111.370736 65.9464272,112.738602 66.0018141,113.977923 C66.0669753,115.431487 67.0802314,116.30824 68.4453579,116.449971" id="Fill-18" fill="#000000"></path>
        </g>
    </g>
</svg>