<?xml version="1.0" encoding="UTF-8"?>
<svg width="177px" height="174px" viewBox="0 0 177 174" version="1.1" xmlns="http://www.w3.org/2000/svg" xmlns:xlink="http://www.w3.org/1999/xlink">
    <!-- Generator: Sketch 62 (91390) - https://sketch.com -->
    <title>Group 24</title>
    <desc>Created with Sketch.</desc>
    <defs>
        <polygon id="path-1" points="0 0.0067207717 176.216713 0.0067207717 176.216713 173.999539 0 173.999539"></polygon>
    </defs>
    <g id="Page-1-Copy" stroke="none" stroke-width="1" fill="none" fill-rule="evenodd">
        <g id="Group-24">
            <g id="Group-3">
                <mask id="mask-2" fill="white">
                    <use xlink:href="#path-1"></use>
                </mask>
                <g id="Clip-2"></g>
                <path d="M15.5202515,9.46949147 C5.18762223,18.1832098 1.79076262,29.5410058 1.04036546,45.3776715 C-0.688944889,81.9314265 0.0182195197,87.9485563 1.12683097,123.257494 C1.56842272,136.777503 2.81290856,149.546916 13.8465262,162.022884 C20.0905717,169.090232 33.5390477,172.790705 48.8681487,173.198437 C89.0931425,174.273365 92.2059012,174.211588 129.450923,173.340525 C132.381486,173.27257 138.112915,172.883371 144.137708,171.76211 C150.857314,170.517293 157.947487,168.361257 161.943429,164.685495 C175.926138,151.829595 176.228768,140.172178 176.216713,132.218323 C176.210239,129.17578 176.216713,115.16464 176.216713,115.16464 L175.848937,98.7071104 L174.629155,39.922717 C174.629155,39.922717 176.330673,14.6402694 152.988072,5.30877591 C148.158355,3.37513972 142.2787,2.11178956 135.065005,1.91410152 C126.495655,1.67934696 68.1283427,0.00505540163 60.2661567,0.00505540163 C38.8906456,0.00208745816 26.7576807,-0.0102680446 15.5202515,9.46949147" id="Fill-1" fill="#B478B7" mask="url(#mask-2)"></path>
            </g>
            <path d="M108,119.204247 L124.600235,112.482128 C127.389882,111.354199 130.647529,112.26052 132.311529,114.624342 L134,117.02794 L117.145882,123 L108,119.204247 Z" id="Fill-4" fill="#000000"></path>
            <path d="M62,128 L62,99.0357686 C62,99.0357686 78.7624888,86.9846927 99.22615,104.531639 L117.119812,102.156433 C121.330633,101.595076 125.233801,104.407899 125.901939,108.485285 C126.563861,112.529473 123.807404,116.356361 119.668058,117.135018 L62,128 Z" id="Fill-6" fill="#F8A9AF"></path>
            <path d="M62,107 L119.120415,120.169475 L145.77805,113.628626 C149.712915,112.666113 153.709553,114.975538 154.750408,118.816509 C155.760378,122.548516 153.619984,126.401594 149.870434,127.594141 L109.292516,140.509368 C101.969465,142.836954 94.0256073,142.42834 86.9959726,139.356169 L62,128.43861 L62,107 Z" id="Fill-8" fill="#F8A9AF"></path>
            <path d="M96.8645107,124.948743 C104.48976,123.811361 112.124203,122.735856 119.767841,121.725177 C121.407514,121.510076 122.302439,119.488717 121.907078,118.100874 C121.419774,116.400694 119.783165,115.826109 118.137361,116.044157 C110.493724,117.054836 102.85928,118.13034 95.2340315,119.267723 C93.5974226,119.51229 92.6933034,121.483557 93.0947936,122.892025 C93.5729041,124.57158 95.2217722,125.19331 96.8645107,124.948743" id="Fill-10" fill="#000000"></path>
            <path d="M62,99.5318637 L37.97343,95.0716332 C35.3846881,94.5884416 33,96.6110322 33,99.2902679 L33,131.707471 C33,134.538478 35.6466079,136.592043 38.3297627,135.845574 L62,129.257442 L62,99.5318637 Z" id="Fill-12" fill="#F8A9AF"></path>
            <path d="M134.617531,41.0645726 C133.673933,37.9295091 132.17655,35.3879016 129.831475,33.1197189 C124.630854,28.0986459 115.931184,24.6994789 109.211524,28.881635 C105.174159,31.3921715 102.027799,35.6706477 99.5837238,39.9304813 C98.0306532,37.5597642 96.1403621,35.4065442 93.9932884,33.5640341 C91.6605887,31.5630619 88.9659185,29.4098419 85.8566835,28.9095989 C80.3590611,28.0271826 74.050872,30.2642943 69.8681002,33.8312447 C64.1075077,38.7466763 64.3983217,47.5770535 65.9977988,54.3318881 C67.9314026,62.4973459 72.3276443,70.1905246 77.7046098,76.563186 C83.5796716,83.5293033 91.5554007,88.2862729 98.7267506,93.7423398 C99.2000968,94.1027634 100.072539,94.0685853 100.552073,93.7423398 C108.428801,88.3794859 115.160836,81.7551494 121.998059,75.1525627 C125.48164,71.793788 128.566125,67.9782697 131.044231,63.8116491 C133.237712,60.1235218 135.449754,55.702119 135.904538,51.367715 C136.257227,47.9809764 135.588974,44.3021704 134.617531,41.0645726" id="Fill-14" fill="#F10096"></path>
            <path d="M123.400143,79.1405111 C121.585737,78.2780014 119.624713,77.9537732 118.58311,75.976926 C118.161582,75.1710774 117.846963,74.2865327 117.529289,73.4303187 C117.352125,72.9518461 117.174961,72.4670778 117.019178,71.9791617 C116.958087,71.7871431 116.896996,71.5982723 116.845069,71.4031059 C116.811469,71.277192 116.753432,70.7987195 116.787032,71.2394179 C116.783978,71.1984959 116.762596,71.1670174 116.756487,71.1292433 C116.741214,71.0033295 116.707614,70.8931548 116.658741,70.7861281 C116.646523,70.7515018 116.634305,70.7105798 116.615977,70.6791013 C116.542668,70.543744 116.447977,70.4304215 116.334958,70.3359861 C116.331904,70.3296904 116.325795,70.3233947 116.319685,70.317099 C115.885939,69.9582446 115.253646,69.8826963 114.804627,70.2006287 C114.560262,70.3485775 114.389207,70.5909616 114.33728,70.9277812 C113.540041,74.443925 111.469053,78.2307837 107.886061,79.2506857 C106.642857,79.6032445 106.768094,81.3125248 107.886061,81.7217448 C109.795157,82.4205666 111.640108,83.4845385 112.693929,85.3354719 C113.506441,86.7708896 113.759969,88.4518393 113.973788,90.07298 C114.114297,91.1275084 115.843175,91.3541533 116.246376,90.378321 C116.933651,88.7257019 116.887833,86.8432901 117.69729,85.2158537 C118.179909,84.2431694 118.916057,83.6136002 119.786605,83.0186573 C120.791553,82.3324269 121.894247,81.6713792 123.103851,81.4825085 C124.13629,81.3219684 124.331782,79.5843574 123.400143,79.1405111" id="Fill-16" fill="#FFC31C"></path>
            <path d="M119.835506,39.0017576 C120.988034,39.1133546 122.097875,39.6558397 122.817849,40.3781199 C123.025588,40.5827142 123.219099,40.8028082 123.404073,41.0322019 C123.421147,41.0539013 123.765482,41.5095888 123.537823,41.1902976 C123.623195,41.3080943 123.70003,41.4320909 123.779711,41.5529876 C124.118355,42.0830731 124.417158,42.6410578 124.696042,43.2114421 C124.755802,43.3385386 124.815563,43.4656351 124.875324,43.5927316 C124.886707,43.617531 125.083063,44.1135173 124.980616,43.8252253 C125.094446,44.1507163 125.176973,44.491707 125.239579,44.8326976 C125.330643,45.3100845 125.307877,45.1736882 125.333489,45.7254731 C125.350563,46.1470615 125.347717,46.56555 125.327797,46.9871385 C125.259499,48.4564981 124.946467,49.9351576 124.459845,51.4696154 C124.138275,52.4894875 124.829792,53.6550555 125.743276,53.927848 C126.75067,54.2285397 127.672692,53.5558582 127.999953,52.5328863 C129.180938,48.8067885 129.553731,44.6095037 127.789368,41.0446016 C127.09216,39.6403401 126.224207,38.2732776 125.088755,37.2472058 C123.563434,35.8646437 121.799072,35.1919622 119.835506,35.0059673 C118.845187,34.9098699 118,35.9917402 118,37.0023125 C118,38.1616807 118.842341,38.9087602 119.835506,39.0017576" id="Fill-18" fill="#FFFFFF"></path>
            <path d="M123.5,61 C125.498671,61 125.501329,58 123.5,58 C121.501329,58 121.498671,61 123.5,61" id="Fill-20" fill="#FFFFFF"></path>
            <path d="M79.7723314,33.9243746 C79.1867172,33.9821089 78.0902481,33.3257602 77.4361046,32.9641607 C76.383245,32.3746622 75.3303855,31.7213521 74.4270445,30.9252254 C72.7293863,29.4362861 71.1999365,26.4340983 71.3619149,24.1885348 C71.4210993,23.3924081 70.8105654,22.9973834 70.1751117,23.000422 C69.5303131,22.9852288 68.8605948,23.3802535 68.8263301,24.1885348 C68.8450199,23.7752782 68.8045253,24.2401919 68.7578008,24.3586993 C68.6955014,24.5227865 68.6425469,24.6868737 68.5771326,24.8509608 C68.3777746,25.3675316 68.134807,25.8658705 67.8887244,26.3611707 C67.2376959,27.6586749 66.5087931,28.9349086 65.6397168,30.1078281 C64.9045841,31.1045059 63.9856682,31.9370964 63.0324877,32.7332231 C62.1104569,33.5080793 61.0513674,34.434868 59.8925989,34.8602793 C58.5562772,35.3495022 58.7618651,37.190925 60.2321305,37.2912005 C62.5434375,37.4461718 64.7862153,39.564112 66.119422,41.2839888 C67.4619737,43.0190588 68.1939914,45.1035738 68.9135493,47.1364318 C69.3589898,48.3944335 71.458479,48.2728875 71.4024095,46.8052187 C71.3183054,44.456341 72.4178894,41.9342602 73.8352004,40.0685281 C75.3553053,38.0751727 77.697762,36.9691035 80.108748,36.3552958 C81.4512997,36.0119282 81.2270219,33.7815579 79.7723314,33.9243746" id="Fill-22" fill="#FFC31C"></path>
        </g>
    </g>
</svg>