<?xml version="1.0" encoding="UTF-8"?>
<svg width="176px" height="176px" viewBox="0 0 176 176" version="1.1" xmlns="http://www.w3.org/2000/svg" xmlns:xlink="http://www.w3.org/1999/xlink">
    <!-- Generator: Sketch 62 (91390) - https://sketch.com -->
    <title>Group 33 Copy</title>
    <desc>Created with Sketch.</desc>
    <defs>
        <polygon id="path-1" points="0 0.000894768372 176 0.000894768372 176 175.998404 0 175.998404"></polygon>
        <path d="M0.781246154,31.8514338 C0.781246154,31.8514338 5.93395385,40.6950091 18.5291077,37.8103267 L18.5291077,37.8103267 L28.5829385,55.1890926 C30.3058154,58.1637205 34.0286308,59.2848276 37.0826769,57.7396915 L37.0826769,57.7396915 C47.7161077,52.368657 57.8145231,46.3326679 64.3875692,36.4193829 L64.3875692,36.4193829 C65.8556769,34.2125045 65.5977231,31.2635753 63.7188,29.3972051 L63.7188,29.3972051 L34.3884923,0.264482759 L0.781246154,31.8514338 Z" id="path-3"></path>
        <path d="M64.1258065,6.85124242 C57.6806452,14.3704242 21.3225806,51.2951515 3.20322581,70.7561818 L3.20322581,70.7561818 C0.158064516,74.0245455 -0.00967741935,79.5301818 2.81935484,82.9866061 L2.81935484,82.9866061 C9.91290323,91.6536061 21.7935484,100.735636 32.5322581,106.202364 L32.5322581,106.202364 C34.983871,107.450697 37.9774194,106.649818 39.5354839,104.370394 L39.5354839,104.370394 L54.5193548,82.4451212 C68.4516129,82.2505758 91.2,68.5934848 97.183871,57.0861212 L97.183871,57.0861212 C103.164516,45.5755152 94.5741935,36.143303 94.5741935,36.143303 L94.5741935,36.143303 C95.6225806,27.2525758 89.1,23.6048485 89.1,23.6048485 L89.1,23.6048485 C90.1516129,13.9164848 82.0677419,9.98018182 82.0677419,9.98018182 L82.0677419,9.98018182 C82.0677419,4.387 78.8483871,0.972727273 74.5129032,0.972727273 L74.5129032,0.972727273 C71.3677419,0.972727273 67.6354839,2.77551515 64.1258065,6.85124242 L64.1258065,6.85124242 Z" id="path-5"></path>
        <path d="M22.6584767,7.9293 C22.6584767,7.9293 16.4587757,5.72238 13.9508885,11.32554 L13.9508885,11.32554 C11.4398186,16.93506 13.2093431,20.32176 13.2093431,20.32176 L13.2093431,20.32176 C13.2093431,20.32176 6.86324265,19.43772 5.97848039,24.45576 L5.97848039,24.45576 C5.09371814,29.47062 6.57044363,32.8605 6.57044363,32.8605 L6.57044363,32.8605 C6.57044363,32.8605 0.813123775,30.7935 0.520324755,37.28706 L0.520324755,37.28706 C0.221160539,43.77426 4.06255637,49.82262 8.33996814,50.70984 L8.33996814,50.70984 C12.6205625,51.5907 15.2748493,46.7253 13.5053248,41.85672 L13.5053248,41.85672 C13.5053248,41.85672 17.6395196,47.31678 22.5120772,45.69498 L22.5120772,45.69498 C27.3814522,44.07 25.9047267,36.6924 25.9047267,36.6924 L25.9047267,36.6924 C25.9047267,36.6924 31.3119608,41.12214 35.6180159,37.72272 L35.6180159,37.72272 C39.9304363,34.33602 35.6180159,26.60544 35.6180159,26.60544 L35.6180159,26.60544 C35.6180159,26.60544 41.2607623,34.92432 46.7221005,31.23552 L46.7221005,31.23552 C52.1834387,27.55308 45.8341556,18.4074 45.8341556,18.4074 L45.8341556,18.4074 C45.8341556,18.4074 40.9074939,9.408 35.6180159,3.65856 L35.6180159,3.65856 C33.5620576,1.41348 31.3851605,0.33864 29.3992194,0.33864 L29.3992194,0.33864 C26.2898211,0.33864 23.6482647,2.98122 22.6584767,7.9293 L22.6584767,7.9293 Z" id="path-7"></path>
        <path d="M0.84992,2.73413534 C2.46101333,9.0793985 7.42058667,14.4652632 12.0661333,18.9446617 L12.0661333,18.9446617 C14.0868267,20.8932331 17.2202667,17.8661654 15.19616,15.9142857 L15.19616,15.9142857 C11.0762667,11.9443609 6.54677333,7.22345865 5.11658667,1.59278195 L5.11658667,1.59278195 C4.84352,0.527518797 4.00384,0.0643609023 3.13685333,0.0643609023 L3.13685333,0.0643609023 C1.82272,0.0643609023 0.44032,1.11969925 0.84992,2.73413534 L0.84992,2.73413534 Z" id="path-9"></path>
        <path d="M0.649364583,2.6822 C2.1600625,9.2327 8.03126042,15.6875 13.687125,19.2317 L13.687125,19.2317 C16.0625208,20.7134 18.2528646,17.0174 15.8942917,15.539 L15.8942917,15.539 C11.1367708,12.5624 6.12017708,7.0382 4.85172917,1.5437 L4.85172917,1.5437 C4.60611458,0.4745 3.78852083,0.0125 2.93391667,0.0125 L2.93391667,0.0125 C1.64528125,0.0125 0.27253125,1.0652 0.649364583,2.6822 L0.649364583,2.6822 Z" id="path-11"></path>
        <path d="M13.178125,0.93125 C6.365625,1.915625 2.14375,9.1875 0.69375,14.39375 L0.69375,14.39375 C-0.721875,19.45 5.071875,26.078125 9.5125,22.040625 L9.5125,22.040625 C9.634375,21.921875 9.7875,21.8 9.9125,21.64375 L9.9125,21.64375 C16.565625,14.428125 21.68125,8.85 23.625,6.603125 L23.625,6.603125 C23.65625,6.571875 23.65625,6.571875 23.684375,6.5375 L23.684375,6.5375 C22.209375,4.55625 18.853125,0.84375 14.3625,0.84375 L14.3625,0.84375 C13.975,0.846875 13.578125,0.871875 13.178125,0.93125 L13.178125,0.93125 Z" id="path-13"></path>
    </defs>
    <g id="Page-1-Copy" stroke="none" stroke-width="1" fill="none" fill-rule="evenodd">
        <g id="Group-33-Copy">
            <g id="Group-3">
                <mask id="mask-2" fill="white">
                    <use xlink:href="#path-1"></use>
                </mask>
                <g id="Clip-2"></g>
                <path d="M175.25088,51.3264 C174.81248,37.6496 173.56448,24.7376 162.52448,12.1136 C156.27168,4.9648 142.80928,1.224 127.46528,0.8112 C87.20288,-0.2768 84.08928,-0.2128 46.80928,0.6672 C40.59808,0.8144 21.86848,2.3728 14.28448,9.4192 C0.28768,22.424 -0.01312,34.2128 -0.000639365353,42.2608 C0.00608,45.3392 -0.000639365353,59.5152 -0.000639365353,59.5152 L1.28928,117.8992 L1.58368,135.624 C1.58368,135.624 -0.11872,161.1984 23.25088,170.6384 C28.08288,172.5904 33.96768,173.8704 41.19008,174.0688 C49.76608,174.3088 68.86368,175.0128 87.15808,175.5024 C97.80768,175.7872 108.18528,175.998404 116.05728,175.998404 C137.45248,176.0016 148.84448,173.864 160.09248,164.28 C170.43488,155.464 173.83328,143.976 174.58528,127.9568 C176.31648,90.984 176.36128,87.0416 175.25088,51.3264" id="Fill-1" fill="#31CEE7" mask="url(#mask-2)"></path>
            </g>
            <g id="Group-6" transform="translate(86.000000, 78.000000)">
                <mask id="mask-4" fill="white">
                    <use xlink:href="#path-3"></use>
                </mask>
                <g id="Clip-5"></g>
                <polygon id="Fill-4" fill="#DC7B6B" mask="url(#mask-4)" points="-11.6769692 76.1656806 77.7916154 76.1656806 77.7916154 -12.302196 -11.6769692 -12.302196"></polygon>
            </g>
            <g id="Group-9" transform="translate(25.000000, 31.000000)">
                <mask id="mask-6" fill="white">
                    <use xlink:href="#path-5"></use>
                </mask>
                <g id="Clip-8"></g>
                <polygon id="Fill-7" fill="#F8A9AF" mask="url(#mask-6)" points="-16.383871 124.901424 111.919355 124.901424 111.919355 -11.7116364 -16.383871 -11.7116364"></polygon>
            </g>
            <g id="Group-12" transform="translate(34.000000, 43.000000)">
                <mask id="mask-8" fill="white">
                    <use xlink:href="#path-7"></use>
                </mask>
                <g id="Clip-11"></g>
                <polygon id="Fill-10" fill="#DC7B6B" mask="url(#mask-8)" points="-11.9490944 63.25176 61.3875123 63.25176 61.3875123 -12.1047 -11.9490944 -12.1047"></polygon>
            </g>
            <g id="Group-15" transform="translate(54.000000, 51.000000)">
                <mask id="mask-10" fill="white">
                    <use xlink:href="#path-9"></use>
                </mask>
                <g id="Clip-14"></g>
                <polygon id="Fill-13" fill="#000000" mask="url(#mask-10)" points="-12.5781333 32.515188 29.2010667 32.515188 29.2010667 -12.877594 -12.5781333 -12.877594"></polygon>
            </g>
            <g id="Group-18" transform="translate(44.000000, 62.000000)">
                <mask id="mask-12" fill="white">
                    <use xlink:href="#path-11"></use>
                </mask>
                <g id="Clip-17"></g>
                <polygon id="Fill-16" fill="#000000" mask="url(#mask-12)" points="-12.5768125 32.4845 30.0692812 32.4845 30.0692812 -12.9004 -12.5768125 -12.9004"></polygon>
            </g>
            <g id="Group-21" transform="translate(65.000000, 32.000000)">
                <mask id="mask-14" fill="white">
                    <use xlink:href="#path-13"></use>
                </mask>
                <g id="Clip-20"></g>
                <polygon id="Fill-19" fill="#DC7B6B" mask="url(#mask-14)" points="-11.75 35.515625 35.909375 35.515625 35.909375 -11.38125 -11.75 -11.38125"></polygon>
            </g>
            <g id="Group-32" transform="translate(38.000000, 40.000000)" fill="#000000">
                <path d="M0.460718519,37.239837 C2.10500152,40.4742799 4.45808224,43.4149728 7.03465774,45.9565489 C7.80731111,46.7228533 9.20894264,46.786712 9.97201766,45.9565489 C10.7255143,45.1327717 10.7957556,43.8364402 9.97201766,43.0222418 C8.94074891,42.0068886 7.97652858,40.9276766 7.06977835,39.8037636 C6.95164539,39.6568886 6.82074131,39.4078397 6.66748775,39.2992799 C6.84628357,39.5259783 6.88778974,39.5802582 6.79200627,39.4557337 C6.75050009,39.4046467 6.7121867,39.3503668 6.67068053,39.296087 C6.6036321,39.2066848 6.53658367,39.1172826 6.46953523,39.0278804 C6.18218481,38.6383424 5.90441273,38.2424185 5.63621899,37.8433016 C5.05193979,36.9748234 4.51874511,36.0776087 4.0462133,35.1452717 C3.551332,34.1746196 2.11138708,33.8170109 1.20463685,34.398125 C0.214874264,35.0399049 -0.0660905983,36.2021332 0.460718519,37.239837" id="Fill-22"></path>
                <path d="M26.8075599,3.19006114 C25.6294232,7.7304144 28.2283481,12.8806182 33.074992,13.6884307 C35.5877119,14.1098981 37.7172978,13.3531726 39.7032085,11.8269497 C41.7561677,10.2432541 43.7261145,8.56377038 45.613049,6.78530571 C46.4304013,6.01900136 46.3888952,4.62688179 45.613049,3.85099864 C44.7988895,3.03680027 43.4962342,3.08150136 42.6788819,3.85099864 C41.2006236,5.24311821 39.6712807,6.58095788 38.0876606,7.85493886 C37.3692845,8.42966712 36.7530775,8.93415082 35.9261468,9.38116168 C35.4695789,9.6302106 34.9651193,9.70684103 34.2850566,9.67810462 C34.2275865,9.67491168 33.7710186,9.62382473 34.0679474,9.66852582 C33.8891516,9.64298234 33.707163,9.59508832 33.5283671,9.55038723 C33.0047508,9.40670516 33.1228838,9.45459918 32.6950509,9.22151495 C32.12035,8.9054144 31.7308306,8.56377038 31.4115523,8.07205842 C30.9996834,7.4366644 30.8176948,6.98965353 30.6740196,6.14033288 C30.7187185,6.40534647 30.6644412,5.98068614 30.6580557,5.8944769 C30.6484773,5.70609375 30.6420917,5.51451766 30.6484773,5.32294158 C30.6484773,5.33252038 30.7027546,4.66838995 30.6612484,4.96533288 C30.6931763,4.73544158 30.7506463,4.51512908 30.8081164,4.29481658 C31.0890813,3.20921875 30.4537176,2.04060462 29.3585932,1.74046875 C28.289011,1.44671875 27.0885248,2.10127038 26.8075599,3.19006114" id="Fill-24"></path>
                <path d="M65.8208082,1.19319973 C63.8540541,3.15366168 61.8873001,5.11731658 59.9205461,7.07777853 C59.1510855,7.84727582 59.0936154,9.25536005 59.9205461,10.0152785 C60.7506695,10.775197 62.0341681,10.8358628 62.8547132,10.0152785 C64.8214672,8.05162364 66.7882213,6.09116168 68.7549753,4.12750679 C69.5244359,3.36120245 69.581906,1.94992527 68.7549753,1.19319973 C67.9280446,0.430088315 66.6413533,0.372615489 65.8208082,1.19319973" id="Fill-26"></path>
                <path d="M72.9812615,14.0022962 C71.1358332,15.6338859 69.2935977,17.2654755 67.4513622,18.8970652 C67.0650355,19.2355163 66.8415407,19.8645245 66.8415407,20.3658152 C66.8415407,20.8734918 67.0682283,21.4801495 67.4513622,21.8313723 C68.3197991,22.629606 69.5138997,22.6008696 70.3855293,21.8313723 C72.2277649,20.1997826 74.0731932,18.5681929 75.9154287,16.9366033 C76.3017554,16.5981522 76.5252501,15.969144 76.5252501,15.4710462 C76.5252501,14.9601766 76.2985626,14.353519 75.9154287,14.0022962 C75.0469918,13.2040625 73.8496984,13.2327989 72.9812615,14.0022962" id="Fill-28"></path>
                <path d="M78.4393233,25.6996128 C76.9802217,27.5802514 75.2912397,29.2725068 73.4138836,30.7348709 C73.5511732,30.6263111 73.6916557,30.5177514 73.8321381,30.4091916 L73.6884629,30.5209443 C73.2382805,30.8657813 72.8902672,31.1946535 72.7338209,31.759803 C72.5965312,32.2579008 72.6571941,32.9188383 72.9413518,33.3594633 C73.2287022,33.8032813 73.6533423,34.1960122 74.1833442,34.3141508 C74.6878038,34.4290965 75.3519026,34.4354823 75.7829282,34.1066101 C77.871008,32.5037568 79.7611352,30.7157133 81.3734904,28.6339198 C81.7278893,28.1773302 81.9833119,27.7686345 81.9833119,27.1651698 C81.9833119,26.6574932 81.7566243,26.0476427 81.3734904,25.6996128 C80.9775854,25.3356182 80.4603546,25.0674117 79.9080032,25.0929552 C79.397158,25.1121128 78.7681799,25.2749524 78.4393233,25.6996128" id="Fill-30"></path>
            </g>
        </g>
    </g>
</svg>