<?xml version="1.0" encoding="UTF-8"?>
<svg width="177px" height="177px" viewBox="0 0 177 177" version="1.1" xmlns="http://www.w3.org/2000/svg" xmlns:xlink="http://www.w3.org/1999/xlink">
    <!-- Generator: Sketch 62 (91390) - https://sketch.com -->
    <title>Group 28</title>
    <desc>Created with Sketch.</desc>
    <defs>
        <polygon id="path-1" points="0.000411391285 0.000695309939 177 0.000695309939 177 177 0.000411391285 177"></polygon>
    </defs>
    <g id="Page-1-Copy" stroke="none" stroke-width="1" fill="none" fill-rule="evenodd">
        <g id="Group-28">
            <g id="Group-3">
                <mask id="mask-2" fill="white">
                    <use xlink:href="#path-1"></use>
                </mask>
                <g id="Clip-2"></g>
                <path d="M136.214695,176.065762 C140.855313,175.988525 157.76364,175.090653 167.955622,162.703871 C178.147604,150.317089 176.921476,129.337762 176.976185,119.525525 C177.137095,90.6938345 176.425876,71.6228891 176.889295,42.7590164 C177.027676,34.0248709 174.675185,24.2061982 169.204276,16.3570527 C164.563658,9.68898 154.349149,4.58494364 149.087422,3.24296182 C137.051422,0.169598182 125.179549,0.491416364 110.437058,0.230743636 C77.3927673,-0.351747273 75.5809309,0.269361818 42.64284,1.00954364 C37.8863673,1.11896182 25.1681127,2.66368909 20.4695673,4.63321636 C10.1488582,8.96488909 4.96436727,17.4383618 2.73094909,24.4539982 C0.722803636,30.7745073 0.841876364,38.7974345 0.841876364,45.9546709 C0.838658182,78.4743982 -1.33361455,103.846544 1.31494909,136.06698 C2.02294909,144.691707 5.25400364,155.485489 10.5575673,161.069035 C24.3796582,175.621653 37.1365309,176.477689 47.4186218,176.838125 C62.6921127,177.372344 113.047004,176.445507 136.214695,176.065762" id="Fill-1" fill="#B478B7" mask="url(#mask-2)"></path>
            </g>
            <path d="M116.962074,151 L44.5838145,151 C39.8429226,151 36,147.153867 36,142.409014 L36,39.5942072 C36,34.8461332 39.8429226,31 44.5838145,31 L124.412967,31 C129.157077,31 133,34.8461332 133,39.5942072 L133,133.083591 L116.962074,151 Z" id="Fill-4" fill="#FFC41C"></path>
            <line x1="71" y1="61.5" x2="119" y2="61.5" id="Stroke-6" stroke="#FFFFFF" stroke-width="3" stroke-linecap="round"></line>
            <line x1="71" y1="85.5" x2="119" y2="85.5" id="Stroke-8" stroke="#FFFFFF" stroke-width="3" stroke-linecap="round"></line>
            <line x1="71" y1="109.5" x2="119" y2="109.5" id="Stroke-10" stroke="#FFFFFF" stroke-width="3" stroke-linecap="round"></line>
            <path d="M56,60 C56,62.760998 53.7617329,65 51.001641,65 C48.2382671,65 46,62.760998 46,60 C46,57.239002 48.2382671,55 51.001641,55 C53.7617329,55 56,57.239002 56,60" id="Fill-12" fill="#FFFFFF"></path>
            <path d="M56,85 C56,87.760998 53.7617329,90 51.001641,90 C48.2382671,90 46,87.760998 46,85 C46,82.239002 48.2382671,80 51.001641,80 C53.7617329,80 56,82.239002 56,85" id="Fill-14" fill="#FFFFFF"></path>
            <path d="M56,108.001641 C56,110.761733 53.7617329,113 51.001641,113 C48.2382671,113 46,110.761733 46,108.001641 C46,105.238267 48.2382671,103 51.001641,103 C53.7617329,103 56,105.238267 56,108.001641" id="Fill-16" fill="#FFFFFF"></path>
            <path d="M117,150 L133,133 L119.841662,133 C118.271523,133 117,134.210356 117,135.704962 L117,150 Z" id="Fill-18" fill="#FB9400"></path>
            <polygon id="Fill-20" fill="#000000" points="100 88 132.84886 108 133 88.7917437"></polygon>
            <path d="M156.80275,44.4939897 C155.369652,40.3728724 153.484851,36.3359256 150.657651,32.855799 C145.019499,25.9052579 136.511901,20.5863296 127.055403,19.5439103 C117.598905,18.5047283 110.296929,18.0450279 97.9677363,26.9509145 C91.5594156,32.3669627 87.5233434,38.9775844 85.5832991,46.0090587 C82.9348298,55.6303946 83.461274,66.1452328 88.2870125,75.0478821 C93.112751,83.9472941 102.514004,90.9787684 113.338607,92.4873628 C117.888125,93.1218789 139.511333,95.3977198 150.901375,80.7164417 C162.291418,66.0351637 159.009266,50.842388 156.80275,44.4939897" id="Fill-22" fill="#00AA13"></path>
            <path d="M122,75 L144.962224,58.2598552 C146.221796,57.3459372 146.357095,55.5341915 145.245708,54.4432824 L141.731148,51 L122,75 Z" id="Fill-24" fill="#000000"></path>
            <path d="M102.556214,52.9709197 L100.391099,55.0843823 C98.4962253,56.9340641 98.543915,60.0029276 100.492837,61.7947064 L114.634442,74.7875153 C116.465729,76.4699216 119.30486,76.3927175 121.040768,74.6105892 L145.686839,49.3326758 C147.355981,47.621318 147.445002,44.919174 145.890315,43.1016605 L142.049699,38.6109546 C140.177081,36.4202879 136.775211,36.4717573 134.966179,38.7171103 L116.618337,61.4987573 L109.204168,53.1993152 C107.455543,51.2402608 104.432012,51.137322 102.556214,52.9709197" id="Fill-26" fill="#FFFFFF"></path>
        </g>
    </g>
</svg>