<?xml version="1.0" encoding="UTF-8"?>
<svg width="171px" height="174px" viewBox="0 0 171 174" version="1.1" xmlns="http://www.w3.org/2000/svg" xmlns:xlink="http://www.w3.org/1999/xlink">
    <!-- Generator: Sketch 62 (91390) - https://sketch.com -->
    <title>Group 30 Copy</title>
    <desc>Created with Sketch.</desc>
    <defs>
        <polygon id="path-1" points="0.000756460254 0.874924448 170.929379 0.874924448 170.929379 173.99999 0.000756460254 173.99999"></polygon>
    </defs>
    <g id="Page-1-Copy" stroke="none" stroke-width="1" fill="none" fill-rule="evenodd">
        <g id="Group-30-Copy">
            <g id="Group-3">
                <mask id="mask-2" fill="white">
                    <use xlink:href="#path-1"></use>
                </mask>
                <g id="Clip-2"></g>
                <path d="M161.633545,16.1216966 C153.073269,5.97027288 141.915476,2.63298475 126.357683,1.89878136 C90.4476138,0.199798305 84.5364414,0.891527119 49.849269,1.98373051 C36.5673379,2.41454407 24.0227862,3.63720508 11.7665103,14.4773237 C4.82361379,20.6118661 1.18830345,33.8275271 0.787751724,48.8877983 C-0.268248276,88.4043237 -0.207558621,91.4624932 0.648165517,128.054341 C0.714924138,130.936544 1.09726897,136.564425 2.19878621,142.486595 C3.42168276,149.088358 5.53975172,156.051154 9.15078621,159.977019 C21.7803034,173.71451 33.2324414,174.011832 41.0432,173.99999 C44.0352,173.993629 57.7996138,173.99999 57.7996138,173.99999 L73.9673379,173.638663 L131.716579,172.443307 C131.716579,172.443307 156.553821,174.114985 165.720993,151.178714 C167.620579,146.433697 168.861683,140.657154 169.05589,133.569968 C169.28651,125.1509 170.931316,67.810222 170.931316,60.0828831 C170.934234,39.0852729 170.943338,27.1650864 161.633545,16.1216966" id="Fill-1" fill="#FFD400" mask="url(#mask-2)"></path>
            </g>
            <path d="M39.1583513,142.449486 C37.9061998,142.388889 36.9420735,141.322381 37.0027104,140.074083 L40.4953945,68 L139,72.7689846 L135.504284,144.843068 C135.443647,146.094396 134.382502,147.057888 133.13035,146.997291 L39.1583513,142.449486 Z" id="Fill-4" fill="#006900"></path>
            <polygon id="Fill-6" fill="#FFAE00" points="76.096875 122 75 144.015328 95.903125 145 97 122.984672"></polygon>
            <polygon id="Fill-8" fill="#C0007A" points="78.3751455 79 75 144.025017 96.6280874 145 100 79.9780014"></polygon>
            <path d="M37,51.6459768 L48.3317674,40.3648505 C49.3884274,39.4244928 50.7487253,38.9368999 52.1363506,39.006556 L129.102492,42.8946343 C130.493154,42.9642905 131.801833,43.5880294 132.764366,44.6328713 L143,57 L37,51.6459768 Z" id="Fill-10" fill="#00D000"></path>
            <polygon id="Fill-12" fill="#E547AA" points="80 53.0290456 83.1614591 41 99.0692181 41.7342093 101 54"></polygon>
            <path d="M140.137055,80.9968586 L38.6284972,76.1658981 C37.1053995,76.0945046 35.9305249,74.8213204 36.0031976,73.3250315 L36.9751943,53.6531461 C37.0236428,52.6952832 37.8502942,51.9545756 38.825319,52.0021713 L142.317235,56.9283231 C143.292259,56.9729441 144.046238,57.7880199 143.99779,58.7458828 L143.028821,78.420743 C142.95312,79.9140571 141.660153,81.0682521 140.137055,80.9968586" id="Fill-14" fill="#00AD00"></path>
            <polygon id="Fill-16" fill="#E547AA" points="80.2208416 54 79 78.9978653 99.7791584 80 101 54.9990512"></polygon>
            <path d="M92,45 L53.4782305,43.3361755 C50.3206091,43.2020944 47.8690585,40.5143778 48.0054241,37.3390937 L48.3296712,29.7421806 C48.6902825,21.3468755 58.4540601,16.9922872 64.8844562,22.3585784 L92,45 Z" id="Fill-18" fill="#E547AA"></path>
            <path d="M92,45.3112605 L130.676742,46.994482 C133.847067,47.133209 136.527543,44.639205 136.664457,41.4269032 L136.990009,33.7414247 C137.349028,25.2482466 127.956713,20.007447 121.062322,24.856728 L92,45.3112605 Z" id="Fill-20" fill="#E547AA"></path>
            <path d="M121.036656,38.021342 L98.3521294,41.4896521 C97.2798566,41.6524141 96.2075838,41.8181354 95.1323325,41.9808974 C93.1486278,42.2827469 93.9915533,45.2805269 95.9633439,44.9786773 C103.525846,43.8215875 111.085369,42.6644977 118.647871,41.5103673 C119.720143,41.3476053 120.792416,41.181884 121.867668,41.019122 C123.851372,40.7143131 123.008447,37.7194925 121.036656,38.021342" id="Fill-22" fill="#C0007A"></path>
            <path d="M64.1118889,38.1220917 C71.3847114,40.1099352 78.6605232,42.0977788 85.9333457,44.0856223 C86.9736015,44.3696 88.0138572,44.6565986 89.054113,44.9375553 C91.0060871,45.4722791 91.8400853,42.4119668 89.8881111,41.880264 C82.6152886,39.8924204 75.3394768,37.9045769 68.0666543,35.9167333 C67.0263985,35.6327557 65.9861428,35.348778 64.945887,35.0617793 C62.9939129,34.5300765 62.1599147,37.5903888 64.1118889,38.1220917" id="Fill-24" fill="#C0007A"></path>
            <path d="M96.703003,45 L84,44.483659 L84.2824959,38.2934351 C84.3414786,36.9703114 85.5211318,35.9464307 86.921194,36.0021721 L94.8621231,36.3248852 C96.0945503,36.374759 97.0506903,37.3605008 96.9979163,38.522268 L96.703003,45 Z" id="Fill-26" fill="#E547AA"></path>
            <polygon id="Fill-28" fill="#000000" points="137.714338 89 39 84.1414327 39.3342849 77 138 81.9530307"></polygon>
        </g>
    </g>
</svg>