<?xml version="1.0" encoding="UTF-8"?>
<svg width="174px" height="174px" viewBox="0 0 174 174" version="1.1" xmlns="http://www.w3.org/2000/svg" xmlns:xlink="http://www.w3.org/1999/xlink">
    <!-- Generator: Sketch 62 (91390) - https://sketch.com -->
    <title>Group 12</title>
    <desc>Created with Sketch.</desc>
    <defs>
        <polygon id="path-1" points="0.000404418551 0 174 0 174 174 0.000404418551 174"></polygon>
    </defs>
    <g id="Page-1-Copy" stroke="none" stroke-width="1" fill="none" fill-rule="evenodd">
        <g id="Group-12">
            <g id="Group-3">
                <mask id="mask-2" fill="white">
                    <use xlink:href="#path-1"></use>
                </mask>
                <g id="Clip-2"></g>
                <path d="M133.905971,173.080331 C138.467935,173.007567 155.08968,172.121749 165.108916,159.944913 C175.128153,147.768076 173.922807,127.144331 173.976589,117.501567 C174.134771,89.1553855 173.435607,70.4076764 173.891171,42.0361855 C174.027207,33.4469127 171.714589,23.7978218 166.336407,16.0785491 C161.774444,9.52665818 151.733062,4.50596727 146.560516,3.18673091 C134.728516,0.168621818 123.057862,0.481821818 108.565244,0.225567273 C76.0810255,-0.347050909 74.2998982,0.263530909 41.92008,0.991167273 C37.2442255,1.09873091 24.7415345,2.62044 20.1226255,4.55658545 C9.97684364,8.81484 4.88022545,17.1415309 2.68466182,24.0382582 C0.710552727,30.25164 0.827607273,38.1417491 0.827607273,45.1745127 C0.824443636,77.1462218 -1.31101091,102.088331 1.29266182,133.759495 C1.98866182,142.23804 5.16495273,152.848876 10.3786255,158.337785 C23.9664436,172.643749 36.5070982,173.485276 46.6149164,173.839604 C61.6295345,174.367931 111.130953,173.45364 133.905971,173.080331" id="Fill-1" fill="#FFD400" mask="url(#mask-2)"></path>
            </g>
            <path d="M109.787319,145.633108 C109.787319,145.633108 128.954594,151.620946 134.104532,150.838822 C139.257639,150.053532 131.889266,128.673373 131.889266,128.673373 C131.889266,128.673373 150.492425,98.1990476 122.781007,71.8506619 C95.06642,45.5022761 25.860766,38.7259818 26,105.424984 C26.0952862,150.699496 87.6822017,162.596009 109.787319,145.633108" id="Fill-4" fill="#FFC41C"></path>
            <path d="M108.303643,137.267707 C108.303643,137.267707 127.627023,150.473859 133.524769,150.993166 C139.425692,151.512474 137.636667,122.261288 137.636667,122.261288 C137.636667,122.261288 167.112686,89.1105741 144.408271,47.6037271 C121.700678,6.10002744 46.1389874,5.95210344 27.9913438,61.7572221 C9.84687791,117.562341 78.9706199,152.274125 108.303643,137.267707" id="Fill-6" fill="#008AAA"></path>
            <path d="M90.7833458,91.9986935 L90.7833458,91.9986935 C95.5994649,91.9195695 99.5554478,88.2798686 99.9098111,83.6083916 L101.958675,56.5986458 C102.644851,47.5247132 94.6877849,40.0744036 85.3938024,41.0935199 L85.2746075,41.1061797 C75.7873359,42.1442857 69.7245023,51.4524252 72.8106844,60.2415117 L81.8115118,85.8681711 C83.1194344,89.5901609 86.7436044,92.0651576 90.7833458,91.9986935" id="Fill-8" fill="#FFFFFF"></path>
            <path d="M102.911636,109.251765 C102.221298,114.173388 97.671343,117.602361 92.7479779,116.911496 C87.8277507,116.220631 84.3980261,111.672963 85.088364,106.748171 C85.778702,101.829717 90.328657,98.397574 95.2520221,99.0884393 C100.172249,99.7793046 103.601974,104.330142 102.911636,109.251765" id="Fill-10" fill="#FFFFFF"></path>
        </g>
    </g>
</svg>