<?xml version="1.0" encoding="UTF-8"?>
<svg width="174px" height="174px" viewBox="0 0 174 174" version="1.1" xmlns="http://www.w3.org/2000/svg" xmlns:xlink="http://www.w3.org/1999/xlink">
    <!-- Generator: Sketch 62 (91390) - https://sketch.com -->
    <title>Group 16</title>
    <desc>Created with Sketch.</desc>
    <defs>
        <polygon id="path-1" points="0 0.000251873277 173.999191 0.000251873277 173.999191 174 0 174"></polygon>
    </defs>
    <g id="Page-1-Copy" stroke="none" stroke-width="1" fill="none" fill-rule="evenodd">
        <g id="Group-16">
            <g id="Group-3">
                <mask id="mask-2" fill="white">
                    <use xlink:href="#path-1"></use>
                </mask>
                <g id="Clip-2"></g>
                <path d="M173.258127,50.7425127 C172.827873,37.2211309 171.590891,24.4558582 160.676345,11.9784764 C154.497764,4.90774909 141.185182,1.20945818 126.018709,0.801349091 C86.2138364,-0.274287273 83.1324545,-0.211014545 46.2760909,0.658985455 C40.1386364,0.804512727 21.6218727,2.34520364 14.1208909,9.31469455 C0.283145455,22.1717127 -0.0142363636,33.8265491 -0.00189755438,41.7799309 C0.00474545455,44.8233491 -0.00189755438,58.8382582 -0.00189755438,58.8382582 L1.27652727,116.558804 L1.56441818,134.082185 C1.56441818,134.082185 -0.118636364,159.365967 22.9854,168.698695 C27.7656545,170.631676 33.5804182,171.893967 40.7207455,172.090113 C49.2024545,172.327385 68.0798727,173.026549 86.1695455,173.510585 C96.6949636,173.792149 106.9578,173.997785 114.737182,174.000949 C135.889255,174.000949 147.1518,171.88764 158.271982,162.412549 C168.496855,153.696731 171.8598,142.339276 172.600091,126.505276 C174.311618,89.9494582 174.355909,86.0518582 173.258127,50.7425127" id="Fill-1" fill="#31CEE7" mask="url(#mask-2)"></path>
            </g>
            <path d="M101.071375,103.93462 L101.071375,103.93462 C95.9862558,108.435715 95.6108655,116.373436 100.24804,121.357806 L123.620028,146.459703 C132.86283,155.130233 142.130869,156.05888 147.004634,150.60071 C151.878399,145.145699 150.887873,136.462534 143.421076,129.674567 L116.803066,104.24101 C112.405637,100.039988 105.620221,99.9073245 101.071375,103.93462" id="Fill-4" fill="#004656"></path>
            <path d="M104.316971,127 C104.316971,127 109.471018,126.093592 115.311227,120.901216 C121.151436,115.70884 123,111.678285 123,111.678285 L117.018799,106 L99,121.290567 L104.316971,127 Z" id="Fill-6" fill="#000000"></path>
            <path d="M94.9841293,105.154044 C82.6516304,113.317315 56.8214569,110.625813 48.0889712,97.7389409 C40.2177023,86.12649 35.0060738,59.01175 51.511675,45.6239858 C69.7555411,30.8223114 94.1577411,36.9344614 103.327168,53.8633415 C110.695005,67.4698497 109.013732,95.8685216 94.9841293,105.154044 M118.005849,45.9853889 C103.697618,16.521529 69.7333774,13.3259651 44.9480626,30.2897175 C21.5970538,45.6525177 18.2503397,81.8847594 32.5047454,104.944811 C47.6330328,129.415602 79.8115145,132.753825 103.143526,118.763722 C127.890846,103.924006 129.768425,70.2120746 118.005849,45.9853889" id="Fill-8" fill="#006880"></path>
            <path d="M48.4445444,98.0359807 C57.1798198,110.823211 83.0214123,113.497706 95.3546837,105.395561 C109.388768,96.1795667 111.070578,67.9935398 103.700387,54.4889151 C94.5280315,37.6867959 70.1180359,31.6204128 51.8683416,46.3112545 C35.3574675,59.5987731 40.5707609,86.5073356 48.4445444,98.0359807" id="Fill-10" fill="#B2E6F2"></path>
            <path d="M67.1507254,60.9028476 C65.0493893,65.2412147 63.349361,69.727271 62.1359579,74.388708 C60.9288746,79.0162997 68.1239759,80.9916413 69.3278993,76.3609728 C70.3833072,72.3179838 71.770505,68.4165303 73.5937696,64.6504583 C75.6666666,60.3643977 69.236262,56.595249 67.1507254,60.9028476" id="Fill-12" fill="#FFFFFF"></path>
            <path d="M81.3331041,66.8990108 C79.0028257,71.5997734 76.9810114,76.4508602 75.2371203,81.4209536 C73.6367718,85.9933143 80.6031742,87.9663193 82.1913062,83.4315396 C83.7214104,79.0658747 85.5141671,74.8411387 87.5604142,70.713487 C89.6952302,66.4010619 83.4740283,62.5771904 81.3331041,66.8990108" id="Fill-14" fill="#FFFFFF"></path>
        </g>
    </g>
</svg>