<?xml version="1.0" encoding="UTF-8"?>
<svg width="177px" height="177px" viewBox="0 0 177 177" version="1.1" xmlns="http://www.w3.org/2000/svg" xmlns:xlink="http://www.w3.org/1999/xlink">
    <!-- Generator: Sketch 62 (91390) - https://sketch.com -->
    <title>Group 24</title>
    <desc>Created with Sketch.</desc>
    <defs>
        <polygon id="path-1" points="0 0.00113137408 177 0.00113137408 177 176.999177 0 176.999177"></polygon>
    </defs>
    <g id="Page-1-Copy" stroke="none" stroke-width="1" fill="none" fill-rule="evenodd">
        <g id="Group-24">
            <g id="Group-3">
                <mask id="mask-2" fill="white">
                    <use xlink:href="#path-1"></use>
                </mask>
                <g id="Clip-2"></g>
                <path d="M11.7878782,161.000809 C20.6507509,171.401973 32.2072418,174.8229 48.3142418,175.575955 C85.5003327,177.316991 89.4651327,177.362045 125.38326,176.245336 C139.137769,175.807664 152.123133,174.549355 164.815642,163.449845 C172.008278,157.161518 175.770333,143.619409 176.185478,128.191445 C177.27966,87.7002818 177.215296,84.5657727 176.330296,47.0771727 C176.259496,44.1228818 175.86366,38.3559 174.724424,32.2896273 C173.45646,25.5250091 171.264878,18.3903 167.528569,14.3643545 C154.44666,0.291245455 142.590878,-0.0144818182 134.497151,0.00113137408 C131.40126,0.00482727273 117.147933,0.00113137408 117.147933,0.00113137408 L100.406951,0.368481818 L40.6066964,1.59460909 C40.6066964,1.59460909 14.8837691,-0.117463636 5.39335091,23.3817 C3.42704182,28.2443727 2.14298727,34.1593909 1.94024182,41.4228273 C1.70209636,50.0475545 -0.000325423783,108.8019 -0.000325423783,116.715409 C-0.00354,138.232173 2.14620545,149.6889 11.7878782,161.000809" id="Fill-1" fill="#AFE46C" mask="url(#mask-2)"></path>
            </g>
            <path d="M82,70.9151279 C80.4174023,70.2263256 77.9678436,69.3926817 74.7269861,69 L67,88 L82,70.9151279 Z" id="Fill-4" fill="#000000"></path>
            <path d="M84,72.2281572 C84,72.2281572 83.2564145,71.7442463 81.885127,71.1531606 L66.5659783,88.3953256 L74.4589291,69.2240128 C70.8118193,68.7855701 66.215109,68.9024881 60.8168715,70.3769547 C54.555946,72.0917528 46.7595649,78.999661 43.2894993,82.3090915 C42.6746732,82.9001772 43.1060171,83.9459442 43.9558291,83.9134669 C46.3250019,83.819283 50.2811342,83.8485125 55.3703492,84.5662594 C64.4446673,85.8458625 70.4867018,91 70.4867018,91 L84,72.2281572 Z" id="Fill-6" fill="#006880"></path>
            <path d="M51.3522961,133.984759 L49.4553943,142.954861 C49.4553943,142.954861 58.2772869,144.170495 65.7706986,133.984759 C73.2673585,123.799024 66.6249541,112.215309 56.948806,111.092447 C47.272658,109.972783 32.2825864,118.939686 32,142.580573 C32,142.580573 45.0899217,133.05064 51.3522961,133.984759" id="Fill-8" fill="#EF6400"></path>
            <path d="M110.084872,99 C110.773674,100.58575 111.607318,103.035309 112,106.273014 L93,114 L110.084872,99 Z" id="Fill-10" fill="#000000"></path>
            <path d="M108.773164,97 C108.773164,97 109.253861,97.7435596 109.844989,99.1147992 L92.6048577,114.433414 L111.77752,106.540738 C112.212746,110.187721 112.099067,114.78749 110.621249,120.18232 C108.909578,126.443027 102.001184,134.239136 98.6915204,137.709081 C98.100393,138.327104 97.0545524,137.892557 97.0870319,137.042774 C97.1812225,134.673684 97.148743,130.71769 96.4341935,125.628652 C95.1545003,116.554651 90,110.512827 90,110.512827 L108.773164,97 Z" id="Fill-12" fill="#006880"></path>
            <path d="M78.1083959,127.286555 C77.2760692,128.820763 75.4049224,129.427385 73.8387504,128.682749 C70.9510213,127.305813 66.2302673,124.551942 61.2903128,119.560952 C56.4170715,114.637365 53.6977139,109.928823 52.3157973,107.001632 C51.5501838,105.367925 52.2236696,103.419674 53.8279635,102.620474 L61.0997036,99 L82,120.11943 L78.1083959,127.286555 Z" id="Fill-14" fill="#000000"></path>
            <path d="M149.991929,35.6799103 C150.133048,33.5984679 148.404337,31.8698123 146.319619,32.0077199 C136.816516,32.6491505 111.60106,36.0134543 94.0349119,53.5758254 C69.3037514,78.306184 62.004034,98.9057292 62.004034,98.9057292 C62.004034,98.9057292 61.5614325,103.65873 69.9484101,112.048643 C78.3418023,120.438556 83.0949575,119.995969 83.0949575,119.995969 C83.0949575,119.995969 103.691963,112.696488 128.423124,87.9661296 C145.989272,70.4005513 149.350477,45.1859125 149.991929,35.6799103" id="Fill-16" fill="#00AED6"></path>
            <path d="M129.485717,68.4857172 C124.800007,73.1714276 117.202439,73.1714276 112.516728,68.4857172 C107.827757,63.8000068 107.827757,56.2024388 112.516728,51.5167284 C117.202439,46.8277572 124.800007,46.8277572 129.485717,51.5167284 C134.171428,56.2024388 134.171428,63.8000068 129.485717,68.4857172" id="Fill-18" fill="#A3E7F3"></path>
            <path d="M129.485717,68.4857172 C124.800007,73.1714276 117.202439,73.1714276 112.516728,68.4857172 C107.827757,63.8000068 107.827757,56.2024388 112.516728,51.5167284 C117.202439,46.8277572 124.800007,46.8277572 129.485717,51.5167284 C134.171428,56.2024388 134.171428,63.8000068 129.485717,68.4857172 Z" id="Stroke-20" stroke="#006880" stroke-width="1.5"></path>
            <path d="M66.9752472,113.024753 L66.9752472,113.024753 C65.6749176,111.724423 65.6749176,109.614211 66.9752472,108.313881 L95.3114614,79.9776672 C96.611791,78.6741109 98.7220033,78.6741109 100.022333,79.9776672 C101.325889,81.2779967 101.325889,83.388209 100.022333,84.6885386 L71.6861186,113.024753 C70.385789,114.325082 68.2755768,114.325082 66.9752472,113.024753" id="Fill-22" fill="#006880"></path>
        </g>
    </g>
</svg>