<svg xmlns="http://www.w3.org/2000/svg" xmlns:xlink="http://www.w3.org/1999/xlink" viewBox="0 0 550 550"><defs><style>.cls-1{fill:none;}.cls-2{clip-path:url(#clip-path);}.cls-3{clip-path:url(#clip-path-2);}.cls-4{fill:#018aab;}.cls-5{fill:#95d14e;}.cls-6{clip-path:url(#clip-path-3);}.cls-7{fill:#96c951;}.cls-8{fill:#13984a;}.cls-9{fill:#dd263a;}.cls-10{fill:#073654;}.cls-11{fill:#e8e7e7;}.cls-12{fill:#1b5229;}.cls-13{fill:#006c83;}.cls-14{fill:#b4e2ee;}.cls-15{fill:#ed8722;}.cls-16{fill:#024656;}.cls-17{fill:#a3a4a4;}.cls-18{fill:#ffc41e;}.cls-19{fill:#fbb11e;}.cls-20{fill:#ed6723;}.cls-21{fill:#ee9a21;}.cls-22{fill:#fddb47;}.cls-23{fill:#126634;}.cls-24{fill:#911e5f;}.cls-25{clip-path:url(#clip-path-4);}.cls-26{fill:#828282;}.cls-27{fill:#a3a3a3;}.cls-28{fill:#0dab4c;}.cls-29{fill:#f4a9ae;}.cls-30{fill:#1c5229;}.cls-31,.cls-44{fill:#fff;}.cls-32{fill:#094756;}.cls-33{clip-path:url(#clip-path-5);}.cls-34{fill:#f8a9af;}.cls-35{fill:#34badb;}.cls-36{fill:#b1dfec;}.cls-37{clip-path:url(#clip-path-6);}.cls-38{fill:#ff2c59;}.cls-39{fill:#2b2b2b;}.cls-40{fill:#f9e876;}.cls-41{opacity:0.71;}.cls-42{fill:#696969;}.cls-43{fill:#575757;}.cls-44{fill-rule:evenodd;}</style><clipPath id="clip-path"><rect class="cls-1" x="-179" y="-793" width="850" height="486"/></clipPath><clipPath id="clip-path-2"><rect class="cls-1" x="-64.02" y="-698.81" width="973.13" height="915.52" transform="translate(636.92 195.63) rotate(-86.44)"/></clipPath><clipPath id="clip-path-3"><rect class="cls-1" x="-64.02" y="-698.81" width="973.13" height="915.52" transform="translate(636.93 195.64) rotate(-86.44)"/></clipPath><clipPath id="clip-path-4"><circle class="cls-1" cx="275" cy="275" r="266"/></clipPath><clipPath id="clip-path-5"><polygon class="cls-1" points="337.69 236.07 283.67 229.84 276.47 282.82 303.37 296.08 319.79 287.29 337.69 236.07"/></clipPath><clipPath id="clip-path-6"><rect class="cls-1" x="381.47" y="233.6" width="26.69" height="15.79" transform="translate(-67.63 222.83) rotate(-29.14)"/></clipPath></defs><g id="Layer_17" data-name="Layer 17"><g class="cls-2"><g id="Artwork_125" data-name="Artwork 125"><g class="cls-3"><path class="cls-4" d="M367-631.59c213.61-19.13,402.28,138.52,421.42,352.13S649.9,122.83,436.29,142,34,3.44,14.87-210.17,153.39-612.45,367-631.59"/><path class="cls-5" d="M304,79.23c-.15,2.18-.66,4.44-1,6.7-.76,5.08,1.06,7.22,7.75,8.18,5,.71,8.88,2.42,11.71,5.2,1.08,1.07,2.83,2.17.54,4.17-1.31,2.63-2.73,5.29-3.94,8-1.12,2.48-.14,4.1,3.12,4.32,6.61.45,11.17,3.23,15.64,6.23,4.66,3.14,15.34,2.32,21-1.74a47.77,47.77,0,0,0,12.6-13.8,32.48,32.48,0,0,1,2.65-3.81,7,7,0,0,1,6.93-2.41c3,.52,6.19.84,9.32,1.22,5.05.62,8.78-.82,11.14-4.51a92,92,0,0,1,12.73-15.24,11.15,11.15,0,0,1,4.9-2.6,7.58,7.58,0,0,1,5.35,0c1.92.87.56,2.09.07,3.07-1.62,3.21-.53,6.32-.2,9.46.49,4.56-.62,9.13-2.38,13.74-2.19,5.77.28,10.92,2.43,16.22,1.23,3,3.85,3.1,7.18.72a25.64,25.64,0,0,0,3.91-3.46,15,15,0,0,1,14.77-3.76c4,1.09,5.44,3.84,3.64,6.85-4.36,7.25-3.71,8.06,6.62,8.22,1.89,0,3.76.31,5.64.47,1.93-1.51,4.06-.9,6.19-.35a33.65,33.65,0,0,1,9.14-4.47c3.91-1.42,6.7-3.47,8.07-6.63,2.67-6.16,7.05-11.52,11.52-16.69,5-5.81,11.24-10,21.92-9.59a4.82,4.82,0,0,0,4.28-1.79c2.06-2.84,3.95-5.78,3-9.07-1.51-5.08-3.1-10-6.8-14.52-1-1.24-.84-2.07.63-2.86l4.82-2.61c1.35-.74,2.74-1.56,2.19-2.84s-2.44-1.45-4.08-1.69c-4.46-.68-8.44-1.94-11.24-4.23-5.37-4.4-13-6.15-20.62-7.52a19.85,19.85,0,0,1-8.82-3.48,20.63,20.63,0,0,0-8.38-4c-3.61-.79-4.68-2.8-4.78-4.65-.27-4.69-.45-9.31,3.39-13.57,3.32-3.67-2.56-8.41-7.74-9.19-2.57-.39-5.17-.68-7.84-.82-9.22-.51-10.36-1.12-11.86-6.09a4.45,4.45,0,0,1-.23-.79C448.51.4,446-1.42,442-2.63c-3.05-.92-4.7-2.44-5-4.38-.64-3.91.29-7.6,5.34-11,2.77-1.85,4.25-3.88,4.38-6.08a6.49,6.49,0,0,1,1.86-3.85,3.92,3.92,0,0,1,3.4-1.74c0,.09.13.13.31.12l.15.06c1.28.17,1.69.81,2.56,1.2a3.29,3.29,0,0,0,2.07.52c-.7-2.35.15-4.62,1.35-6.95.94-1.83,1.3-3.84.05-5.52s-4.35-3-6.81-4.33a2.26,2.26,0,0,0-2.7.37c-.28.26-.35.55-.6.81-1.8,1.89-3.69,2.24-6.95,1.27a6.17,6.17,0,0,1-1.19-.5,4,4,0,0,0-3.3,0,3.91,3.91,0,0,1-4.48-.07,4.21,4.21,0,0,0-3.77-.37,2.51,2.51,0,0,1-2.38-.31,4.51,4.51,0,0,0-3.28-.89,33.78,33.78,0,0,1-4.56-.14,13.86,13.86,0,0,0-4.53,2c-3.8,2.34-10.1,3-14,1.48a6.07,6.07,0,0,0-4.54.12,44.71,44.71,0,0,1-5.8,1.83c-2.64.57-3.59,1.62-4.17,2.81-1,2,1.31,2.91,3.86,3.76l1.68.48a18.11,18.11,0,0,0,11.3-.78c1.82-.69,3.75-1.28,5.59-1.94a5.16,5.16,0,0,1,3.2-.16c1.6.44,3.49.72,3.72,1.91.09.44.92.79,1.45,1.16,3.25,2.24,8.69,3.36,12.09,5.68,1.08.74,3,.6,4.69-.07,1.17-.46,2.28-1,3.42-1.46a3.84,3.84,0,0,1,2.07-.58c.95.15.62.72.63,1.13a10.74,10.74,0,0,1-.72,4c-.91,2.56-3.42,5.07-3.63,7.77-.1,1.4-1.33,2.75-2.29,4.13-1.8,2.59-4.65,5.33-3.68,8,1.14,3.1.68,6.48,2.36,9.62.74,1.38-.07,2.63-2.41,3.73-3.07,1.45-6.49,2.55-9.81,3.77-.66.24-1.63.64-1.89,0-.62-1.62-3.21-2.2-4.77-3.29-2.15-1.5-5.12-1.81-8.63-.9-3.22.84-6.39,1.82-9.58,2.76-4.12,1.21-7.73,1.55-11.09,0-3.19-1.45-6-.79-8.9,1.63-.53.46-1,.92-1.55,1.38-3.06,2.5-1.11,4.21.6,6,.11,0,.16.05.14.12a6.14,6.14,0,0,1,.81.36,6.14,6.14,0,0,0-.81-.36c.65.65.33,1.7,1.79,2l.27.48a13.93,13.93,0,0,1,3.29,2.32,13.93,13.93,0,0,0-3.29-2.32c1,2,4.27,3.5,2.27,6.31l-.7.67-.6.58-1,1c-.63.13-.92.41-1,.78l-.17.1c-1,.28-1.53.72-1.53,1.35A3.26,3.26,0,0,1,371,36.47a2,2,0,0,0-1.49,1.7l-.9.84c-.61.2-.94.47-.83.87l-.14.15h0a3.89,3.89,0,0,0-1.78,2.08,4,4,0,0,0-2.53,2.15l-.16.11c-.47.1-.84.25-.89.59a1.56,1.56,0,0,0,.61-.2,1.56,1.56,0,0,1-.61.2l-1.35.92h0l-1.81,1c-1.18.49-2.88.52-3.31,1.7-3.79,1.33-7.91,2-11.6,3.63l-1.25.36h0a17.24,17.24,0,0,0-7.69,2.82.62.62,0,0,1-.44.19,1.63,1.63,0,0,1-1,.58,1.63,1.63,0,0,0,1-.58,1.48,1.48,0,0,0-1.47.55l-1.39.56a4.55,4.55,0,0,0-3.29,1.46,3.56,3.56,0,0,1-1.93.91h0a1.59,1.59,0,0,0-1.34.6l-.64.38c-1.82,1.34-3.94,2.72-6.34,2.64a7.85,7.85,0,0,0-6.7,2.86,4.57,4.57,0,0,1-2.06,1.3,3.15,3.15,0,0,1-.48,1.08c-3.3,3.68-5,7.43-5.26,11.31m70.35-56.88a1,1,0,0,0-.17-.1,1,1,0,0,1,.17.1m.61.72a1.22,1.22,0,0,1,.07.38,1.22,1.22,0,0,0-.07-.38m-.44-.58.11.09-.11-.09M367.3,41.2a2.55,2.55,0,0,1-.93.71,2.55,2.55,0,0,0,.93-.71m-1.4.91a2.17,2.17,0,0,1-.42.88,2.17,2.17,0,0,0,.42-.88m-8.5,6-.29.1.29-.1m-1.53.44h0a19.35,19.35,0,0,1-4.81,2.12,19.35,19.35,0,0,0,4.81-2.12m-25.26,9.08-.25.09.25-.09m-4.31,1.91a1,1,0,0,1-.36.12,1,1,0,0,0,.36-.12"/><path class="cls-5" d="M376.22,31.86l.6-.58c-.43.12-.62.32-.6.58"/><path class="cls-5" d="M144.15-1c-1.34-.35-2.76-.75-3.81-.32-.72.29-.16,2.53-.16,3.89,1.56,3.28,3.09,3.57,4.64,3.42.14-.64.67-.41,1-.61,1-.57.47-2.57.2-4.13A3,3,0,0,0,144.15-1"/><path class="cls-5" d="M119.33.14l.09,1.74c.06.66.13,1.32.19,2v0c1.1,1.9,1.71,1,2.49,1l.17-.15c0-.15,0-.3,0-.44.1-1.58.46-3.61-.61-5.11s-1.73.16-2.35,1"/><path class="cls-5" d="M147.34-1.45c-.89,1-.37,3.73,1,5.52l1.36-.74c.2,0,.22-.06,0-.35,0-.37,0-.74-.05-1.12-.86-3.57-1.42-4.34-2.38-3.31"/><path class="cls-5" d="M151.62-2.88c-.92.18-1,1.35-.79,2.9a4.32,4.32,0,0,0,1,2.67c1.58,1.57,3.91.34,3.76-2-.21-3.07-.39-3.32-2.42-3.41a7.07,7.07,0,0,0-1.56-.14"/><path class="cls-5" d="M129.38-2.94a1.78,1.78,0,0,0-2.18.82c-.58.83-.34,3.73.33,4.68a2.29,2.29,0,0,0,4.2-1.48c-.2-2.61-.71-3.47-2.35-4"/><g class="cls-6"><polygon class="cls-7" points="364.25 130.88 379.28 132.98 381.67 112.16 368.87 109.59 364.25 130.88"/><polygon class="cls-8" points="341.87 102.38 331.44 145.44 358.34 151.69 359.97 143.24 363.67 144.11 370.07 110.2 341.87 102.38"/><path class="cls-9" d="M362,165.21s-8.61,3.18-16.53-1.15-10.49-15.46-23-17.62a56.85,56.85,0,0,0-21,.26,2,2,0,0,0-1.41,1.19l-12.92,31.9a.66.66,0,0,0,.68.91c4.05-.41,18.45-1.36,27.47,4.71,10.57,7.12,9.65,8.36,15.29,13.14,6.9,5.85,18.77,2.45,18.77,2.45Z"/><path class="cls-10" d="M291.77,168.2l3.14-7.76c12.4-4,18.44-2.86,39,13,9.49,7.35,18.75,6.55,23.22,5.51l-2.9,8.19c-19,4.12-27.06-7.44-42.44-14.63-9.14-4.28-16-4.68-20-4.35"/><path class="cls-11" d="M288.87,175.34l2.9-7.14c4-.32,10.84.08,20,4.35,15.38,7.19,23.44,18.75,42.43,14.63l-2.26,6.37c-2.55.94-13.59,4.15-25.06-5.3-12-9.87-25-15.56-38-12.91"/><path class="cls-11" d="M294.91,160.44l2.92-7.21c4.21-1,12.58-1.91,22.84,2.7,13.44,6,15.69,20.06,38.81,16.34L357.09,179c-4.47,1-13.73,1.85-23.22-5.51-20.52-15.9-26.56-17.08-39-13"/><path class="cls-8" d="M388.85,113c-14-2.72-28-5.21-41.6-9.42-3.83-1.19-7.62-2.52-11.34-4-.67-.28-1,.82-.3,1.09,13.13,5.32,27,8.35,40.87,11.09q6,1.2,12.07,2.36c.71.14,1-.95.3-1.09"/><path class="cls-12" d="M441.2,142.64l-.11,12.54s-.65,4.95-4.42,6.13-4.08,6.77-4.08,6.77l-5.43-.16-.49-41.74,7.59-.31Z"/><path class="cls-8" d="M341.3,81.16a26.18,26.18,0,0,0-5-3,124.24,124.24,0,0,0-12.79.5,27.08,27.08,0,0,1,6.19,2.9s10.5-.46,11.64-.35"/><polygon class="cls-8" points="416.93 141.35 425.14 141.36 425.18 112.34 416.91 112.08 416.93 141.35"/><path d="M382.58,111.12l-33.11,92.26c-.22.66-1.43.09-1.25-.43l31.31-92.7Z"/><path d="M451.05,143.67s-12.36,1.21-19,1.05l-.82-17-7.57,0-.3-13-4.85-.22.21-5.51s19.66.73,25.57.55Z"/><path class="cls-12" d="M418.74,109l-.44,47.13-5.5.21.16,5.31-3.54-.46-.12,7.69,3.06-.49.14,5.37-3.84-.05.14,3.86,6.45.47L413.56,207l-6.39-.76,0,5-5.27-.41-.43,7.94,3.11,1.19-.08,6.93-6.52-.47-.52,5-28.7-2.11,3.92-64.44,4.06.07,0-6.07,3.26.31,0-5.56-4.14-.37.66-7.19,4.87.15.5-5.7-6.19-.53,3.37-35.61s23.21,4.83,39.65,4.7"/><path class="cls-13" d="M365.59,102c1.09.39,2.2.71,3.31,1,3.15.92,6.34,1.72,9.54,2.44,5,1.13,10.06,2.06,15.13,2.83q10.2,1.55,20.5,2.27,12.35.89,24.75.65l3.32-.08a1.6,1.6,0,0,0,1.57-1.57,1.58,1.58,0,0,0-1.57-1.56c-8.39.24-16.79.13-25.17-.38q-5.46-.33-10.92-.88c-3.27-.34-6.57-.74-9.57-1.17q-7.92-1.12-15.74-2.81c-3.42-.74-6.82-1.57-10.19-2.53-1.37-.39-2.71-.87-4.07-1.25l-.06,0a1.57,1.57,0,0,0-.83,3"/><path d="M421.09,102a17.89,17.89,0,0,1,.28-4.9c.07-.36-.48-.51-.55-.15a18.59,18.59,0,0,0-.3,5c0,.36.59.36.57,0"/><path d="M426.16,94.62a44.1,44.1,0,0,1,.6-5.85c.06-.36-.48-.51-.54-.15a44.7,44.7,0,0,0-.62,6,.28.28,0,0,0,.56,0"/><path d="M421.51,91.44a12.39,12.39,0,0,1,4.67-1.77c.35-.06.2-.6-.16-.54a13,13,0,0,0-4.8,1.82.28.28,0,0,0,.29.49"/><path d="M413.92,91.87q.13-1.87.39-3.75a.3.3,0,0,0-.19-.35.28.28,0,0,0-.35.2c-.18,1.3-.32,2.6-.41,3.9,0,.36.53.36.56,0"/><path d="M408.1,92.44a12.11,12.11,0,0,1,5.64-2.29c.36-.05.21-.6-.15-.55A12.65,12.65,0,0,0,407.81,92c-.28.22,0,.71.29.49"/><path d="M416.15,99.23a11.68,11.68,0,0,1,4.22-1.15c.36,0,.36-.59,0-.56a12.17,12.17,0,0,0-4.5,1.23c-.33.16,0,.64.28.48"/><path d="M411.72,100.38c.2-.92.35-1.84.46-2.78a.28.28,0,0,0-.28-.28.29.29,0,0,0-.28.28c-.11.89-.26,1.76-.45,2.63a.29.29,0,0,0,.2.34.28.28,0,0,0,.35-.19"/><path d="M407.31,99.94a6.67,6.67,0,0,1,4.1-1.41c.35,0,.36-.6,0-.56a7.23,7.23,0,0,0-4.49,1.57c-.27.25.13.65.39.4"/><path d="M406.53,105.28a24.51,24.51,0,0,0,.93-3.61c.06-.35-.48-.51-.55-.15a22.51,22.51,0,0,1-.93,3.61c-.11.35.43.5.55.15"/><path d="M402.81,103.68a5.12,5.12,0,0,1,3.58-.73c.35.06.51-.48.15-.55a5.75,5.75,0,0,0-4,.79c-.31.19,0,.68.28.49"/><path d="M396.4,104c.3-.89.57-1.78.81-2.69a.28.28,0,0,0-.54-.15c-.25.91-.51,1.81-.81,2.69-.12.35.43.5.54.15"/><path d="M392,103.56a12.35,12.35,0,0,1,4.67-1.48c.36-.06.21-.6-.15-.54a12.68,12.68,0,0,0-4.81,1.53c-.3.2,0,.68.29.49"/><path d="M401.52,82.33c1.46-2,4.05-2.34,6.33-2.28.36,0,.36-.56,0-.57-2.51-.06-5.22.44-6.82,2.57-.22.29.27.57.49.28"/><path d="M408.22,82.83c.32-1.52.56-3.07.73-4.62,0-.36-.53-.35-.57,0a44.7,44.7,0,0,1-.71,4.47c-.07.36.47.51.55.15"/><path d="M400.63,91.52a21.49,21.49,0,0,0,1.13-5.13c0-.36-.53-.36-.56,0a21.24,21.24,0,0,1-1.11,5c-.12.34.42.49.54.15"/><path d="M396.73,89.79a4.79,4.79,0,0,1,4.23-2c.37,0,.36-.54,0-.56a5.36,5.36,0,0,0-4.72,2.25c-.21.3.28.58.49.29"/><path d="M389.79,90.69c.29-1.51.53-3,.71-4.55,0-.36-.52-.36-.56,0-.18,1.47-.41,2.94-.7,4.4-.07.36.48.51.55.15"/><path d="M385.35,89.94a2.23,2.23,0,0,1,.9-1,7.05,7.05,0,0,1,1.24-.67,12.45,12.45,0,0,1,2.69-.73c.36-.06.21-.6-.15-.54a11.89,11.89,0,0,0-3,.85,4,4,0,0,0-2.23,1.89c-.13.35.42.49.54.15"/><path d="M403.29,97.59a25.87,25.87,0,0,0,1-4.6.28.28,0,0,0-.28-.28.29.29,0,0,0-.28.28,26,26,0,0,1-1,4.45c-.11.35.44.49.55.15"/><path d="M399,96.39a13.08,13.08,0,0,1,4.54-1.91c.36-.08.21-.63-.15-.55a13.59,13.59,0,0,0-4.67,2c-.3.2,0,.69.28.48"/><path d="M388.08,96.21c1.22-1.52,3.19-1.95,5-2.17.36-.05.36-.61,0-.57-2,.24-4.11.7-5.43,2.34-.22.28.18.69.4.4"/><path d="M393.2,96.53c.14-.63.27-1.26.41-1.89s.22-1.26.41-1.85c.12-.35-.43-.5-.54-.15a16.52,16.52,0,0,0-.42,1.85c-.13.63-.27,1.26-.4,1.89-.08.36.47.51.54.15"/><path d="M386,99.33c.3-1.28.56-2.56.78-3.86.06-.35-.48-.51-.54-.15-.23,1.3-.49,2.58-.78,3.86-.09.35.46.5.54.15"/><path d="M380.87,98.14c1.38-1.58,3.6-1.62,5.54-1.51.36,0,.36-.54,0-.56-2.08-.13-4.46,0-5.94,1.67-.24.27.16.67.4.4"/><path d="M371.16,97.79c1.17-1.39,3-1.75,4.72-2.05.35-.07.2-.61-.15-.55-1.79.33-3.74.73-5,2.21-.23.27.17.67.4.39"/><path d="M376.09,97.51a17.43,17.43,0,0,0,.79-3.28.29.29,0,0,0-.2-.34.27.27,0,0,0-.34.19,18.24,18.24,0,0,1-.79,3.28c-.12.35.42.5.54.15"/><path d="M379.32,91.69c.3-1.32.61-2.64.91-4,.09-.36-.46-.51-.54-.15-.31,1.31-.61,2.63-.92,4-.08.35.47.5.55.15"/><path d="M374.19,90.5a5.41,5.41,0,0,1,2.27-1.5,7.92,7.92,0,0,1,3,.1c.37,0,.37-.54,0-.56a8,8,0,0,0-3.19-.06,6.15,6.15,0,0,0-2.43,1.62c-.25.26.15.67.4.4"/><path d="M364.69,91c1-2.08,3.44-2.48,5.48-2.7.36,0,.36-.6,0-.56-2.23.23-4.91.71-6,3-.15.32.34.61.49.28"/><path d="M370.3,90.21c.24-1.21.48-2.42.71-3.63.07-.36-.48-.51-.54-.15q-.35,1.81-.72,3.63c-.07.35.47.5.55.15"/><path d="M357.7,89a22.7,22.7,0,0,0,1.47-4.61c.07-.36-.47-.51-.54-.15a22.87,22.87,0,0,1-1.42,4.48c-.15.32.34.61.49.28"/><path d="M353.38,86.6a9.49,9.49,0,0,1,4.9-.74c.37,0,.36-.52,0-.56a10.06,10.06,0,0,0-5.19.81c-.33.15,0,.63.29.49"/><path d="M345.17,87.41A3.75,3.75,0,0,1,347.43,86a14.69,14.69,0,0,1,1.47-.29,4.31,4.31,0,0,1,1.64,0c.35.08.5-.46.15-.55a4.58,4.58,0,0,0-1.73,0,15.11,15.11,0,0,0-1.78.34,4.23,4.23,0,0,0-2.49,1.67c-.2.3.29.59.48.28"/><path d="M350.14,87.15c.5-1.08,1-2.17,1.36-3.29a.26.26,0,0,0-.19-.34.28.28,0,0,0-.35.19c-.39,1.07-.82,2.12-1.31,3.15a.28.28,0,1,0,.49.29"/><path d="M340.75,80.68c.4-1.4.74-2.82,1-4.25.07-.35-.48-.51-.54-.15-.27,1.43-.6,2.85-1,4.25a.28.28,0,0,0,.54.15"/><path d="M336.6,79a5.92,5.92,0,0,1,3.92-.85.29.29,0,0,0,.15-.55,6.5,6.5,0,0,0-4.35.92c-.33.15,0,.64.28.48"/><path d="M327.38,79.14a7.22,7.22,0,0,1,5.34-2c.36,0,.36-.55,0-.57A7.84,7.84,0,0,0,327,78.74c-.27.25.13.65.4.4"/><path d="M332.4,79.12a30.36,30.36,0,0,0,1.76-3.63.29.29,0,0,0-.2-.34.29.29,0,0,0-.35.19,26.9,26.9,0,0,1-1.7,3.5.28.28,0,0,0,.49.28"/><path d="M431.32,101.79a32.17,32.17,0,0,1,.13-5.89c.05-.36-.52-.36-.56,0a31.31,31.31,0,0,0-.13,5.89c0,.36.59.36.56,0"/><path d="M428.1,99.89a2.56,2.56,0,0,1,.56-.67c.24-.21.48-.42.74-.61a12.52,12.52,0,0,1,1.56-1,.28.28,0,0,0-.28-.49A13.77,13.77,0,0,0,429,98.21a4.69,4.69,0,0,0-1.38,1.39c-.18.32.31.61.48.29"/><path d="M439.6,99.63A34.05,34.05,0,0,0,441.07,94c.06-.36-.48-.51-.54-.15a36.17,36.17,0,0,1-1.47,5.61c-.12.34.42.49.54.15"/><path class="cls-8" d="M439.8,102.82s-6.4.13-9.36.59a59.44,59.44,0,0,0-6.38-3.32A74.24,74.24,0,0,1,440,98Z"/><path class="cls-8" d="M417.1,87.1s-7.93-.16-11.05.26c0,0-5.47-4.54-7.59-4.89,0,0,10.86-1.5,13.82-1.29Z"/><polygon class="cls-14" points="541.13 101.64 528.71 71.31 568.64 54.95 581.06 85.26 541.13 101.64"/><rect class="cls-15" x="542.88" y="65.34" width="4.63" height="19.41" transform="translate(12.25 212.29) rotate(-22.28)"/><polygon class="cls-15" points="546.9 83.92 551.1 89.44 550.26 82.55 546.9 83.92"/><rect class="cls-15" x="534.89" y="67.27" width="4.63" height="20.7" transform="translate(10.66 209.41) rotate(-22.27)"/><polygon class="cls-15" points="539.16 87.09 543.35 92.62 542.51 85.72 539.16 87.09"/><rect class="cls-11" x="526.74" y="69.95" width="2.85" height="35.54" transform="translate(6.16 206.72) rotate(-22.27)"/><rect class="cls-11" x="533.94" y="67.96" width="3.74" height="34.45" transform="translate(7.69 209.44) rotate(-22.27)"/><rect class="cls-11" x="541.84" y="65.72" width="3.74" height="33.49" transform="translate(9.31 212.23) rotate(-22.27)"/><rect class="cls-11" x="549.71" y="63.26" width="3.74" height="32.75" transform="translate(10.97 215.01) rotate(-22.27)"/><rect class="cls-15" x="550.61" y="62.17" width="4.63" height="19.41" transform="translate(14.02 214.94) rotate(-22.27)"/><polygon class="cls-11" points="547.99 63.41 542.76 65.55 544.81 69.51 549.31 67.67 547.99 63.41"/><polygon class="cls-11" points="539.98 65.9 534.75 68.04 536.84 72.09 541.33 70.25 539.98 65.9"/><polygon class="cls-11" points="531.9 68.17 526.67 70.31 528.8 74.48 533.3 72.64 531.9 68.17"/><polygon class="cls-11" points="523.43 70.46 519.44 72.09 521.54 76.44 524.97 75.03 523.43 70.46"/><path class="cls-16" d="M617.94,69.1,588.36,81.21,559,93.24l-16.65,6.82c-.7.29-.39,1.44.32,1.15l29.58-12.12,29.35-12,16.66-6.82c.69-.29.39-1.44-.32-1.15"/><path class="cls-11" d="M532.46,105.17l10,6.84,7.87,8.84a2.18,2.18,0,0,0,2.45.56l10-4.07-8.63-21Z"/><polygon class="cls-8" points="563.92 101.82 542.51 110.59 535.03 105.49 561.06 94.83 563.92 101.82"/><polygon class="cls-9" points="563.92 101.82 544.93 109.6 537.45 104.5 561.06 94.83 563.92 101.82"/><path class="cls-8" d="M571.79,112.36,555,119.24a4,4,0,0,1-4.59-1.12l-6.19-7.3,23.07-9.45Z"/><path class="cls-9" d="M570.77,109.87l-15.61,6.34a3.54,3.54,0,0,1-4-1l-4.55-5.37,20.7-8.48Z"/><path class="cls-11" d="M549.21,119.17a6.38,6.38,0,0,0,.54,5.86s-.51,3.68,2.65,5.37c0,0-2.23-2-.87-4s2.67-4.63,17.73-10.82l-.59-1.43-17.35,7.1-.92-2.25Z"/><polygon class="cls-11" points="551.05 92.75 545.82 94.9 547.87 98.85 552.36 97.01 551.05 92.75"/><polygon class="cls-11" points="543.33 95.92 538.1 98.06 540.15 102.01 544.65 100.17 543.33 95.92"/><polygon class="cls-11" points="535.27 99.22 531.28 100.85 533.25 104.84 536.67 103.44 535.27 99.22"/><path class="cls-13" d="M512.51,73.81a6,6,0,0,0,1.58.12,29.79,29.79,0,0,0,4.79-.55c3.06-.54,6.09-1.3,9.08-2.13,5.1-1.42,10.12-3.08,15.11-4.82,7.59-2.66,15.09-5.56,22.55-8.57l3.44-1.4a1.62,1.62,0,0,0,1.09-1.93,1.58,1.58,0,0,0-1.93-1.09c-7.77,3.18-15.59,6.25-23.5,9.09-5.27,1.88-10.57,3.68-16,5.23-3.22.93-6.47,1.79-9.76,2.42-.54.11-1.08.2-1.63.29l-.72.11-.31,0h.06c-.65.08-1.31.14-2,.17a9.91,9.91,0,0,1-1.09,0,2.85,2.85,0,0,0-.29,0c.13,0,.57.08.29,0h0c-2-.5-2.78,2.52-.83,3"/><path class="cls-17" d="M549.28,92.25l-2.43,1a.63.63,0,0,0-.35.27.58.58,0,0,0-.06.46.59.59,0,0,0,.73.41l2.43-1a.66.66,0,0,0,.36-.28.64.64,0,0,0,.06-.45.61.61,0,0,0-.74-.42"/><path class="cls-17" d="M541.57,95.41l-2.43,1a.69.69,0,0,0-.36.27.62.62,0,0,0-.06.46.6.6,0,0,0,.73.42l2.43-1a.69.69,0,0,0,.36-.27.62.62,0,0,0,.06-.46.6.6,0,0,0-.73-.42"/><path class="cls-17" d="M533.84,98.58l-1.94.79a.61.61,0,0,0-.35.28.6.6,0,0,0,.21.81.57.57,0,0,0,.46.06l1.94-.8a.69.69,0,0,0,.36-.27.67.67,0,0,0,.06-.46.61.61,0,0,0-.28-.35.57.57,0,0,0-.46-.06"/><path class="cls-18" d="M400.39,55.37l66.68-10.78L533.75,33.8c3.33-2.57,4.49-8.51,4.89-12.72a2.92,2.92,0,0,0-3.91-3A388.18,388.18,0,0,1,465.84,37a388.12,388.12,0,0,1-71.35,3.74,2.92,2.92,0,0,0-2.75,4.13c1.7,3.87,4.68,9.15,8.65,10.53"/><path class="cls-19" d="M401.14,60l66.68-10.79L534.5,38.43c3.33-2.54,4.51-8.4,4.92-12.55.2-2.13-4.47-5.07-3.91-3,.43,1.56-68.48,20.39-68.91,18.84a393.77,393.77,0,0,1-71.33,3.84,2.9,2.9,0,0,0-2.75,4.08c1.69,3.81,4.65,9,8.62,10.36"/><path class="cls-20" d="M534.93,41.08s-2,10-8.21,11l-56.94,9.21-2-12.12L534.5,38.43Z"/><path class="cls-20" d="M401.56,62.65s5,8.9,11.28,7.89l56.94-9.21-2-12.12L401.14,60Z"/><path class="cls-21" d="M494.28,195.86a4.51,4.51,0,0,1,3.05,4.17c.06,3.26.12,19.47-.24,21s-1,1-4-7.79a124.63,124.63,0,0,1-3.93-13c-.49-1.88,1.18-3.69,1.18-3.69Z"/><path class="cls-20" d="M499.45,188.92s0,7.46-6.79,8.46a7.77,7.77,0,0,1-9.14-6.35Z"/><path class="cls-19" d="M503,168.16s3.86,8.64,2.06,14.71-8.46,9.52-15.62,9.94a14,14,0,0,1-14.21-8.87,21.92,21.92,0,0,1-1-9.79l2.76-3.83Z"/><path class="cls-18" d="M425,88.1c15.9-.83,18.06-.63,18.06-.63s-5.35,11.29-4.51,20.39,6.33,26.45,8.63,32.4,8.66,7.13,16,6.88,11.18-1.18,14.55,7a8.9,8.9,0,0,0-1.57,5.46s-.52-3.71-2.19-3.28-.88,3.3-.49,6.24-.74,7.15-1.6,10.13,3.49,4.49,4-.17a18.61,18.61,0,0,1,.87,5.85c0,3.71,5.93,8.36,10.55,4.7s6.8.05,9.9-.79,6.9-5.14,4.26-13.65c0,0,1.44,3.46,3.74,2.07s-2.61-5.35-3.84-10.28-1.85-8.31-3.57-8.19-1.33,3-1.33,3-1.19-3.44-3.09-3.92c0,0-.09-3.54,1.33-5.5s5.14-3.36,13.84-6.19,11.26-7,10-19S517.53,97.3,515,92.42s-16.2-13.26-16.2-13.26,17.9-4.55,28-8.71,7.58-17.57,3.1-19.92-18.69,1.09-18.69,1.09-2.63-2.54-10.35,0a222.22,222.22,0,0,1-24.53,6c-6.37,1.18-19.17,4-31.63,5.58s-30.44,2.24-33.36,7.61S409.11,88.93,425,88.1m71,2.15s5.39,5.72,6.61,6.69l.93,22.51a5.88,5.88,0,0,0-2.77-2.74,16.88,16.88,0,0,0-3.09-8.32,22.86,22.86,0,0,1-.19-4.13c.09-2.44-2.39-8.24-2.39-8.24Z"/><path class="cls-19" d="M438.55,107.86c-.84-9.1,4.51-20.39,4.51-20.39l7.27-.35a39.65,39.65,0,0,0-3.21,4.1,5.75,5.75,0,0,0-.4.76c-.54,1.4,3.78,7.07,9.34,6.17,0,0,3.93-6.89,5.82-8.84s2.43-1.93,4.2-.46,4.08.11.68-3.95c0,0,7-1.68,10-2,0,0,1,1.93,4.54.91S488.24,82,488.24,82s4.68,5,7.78,8.28l-.9,5.77s2.48,5.8,2.39,8.24a22.86,22.86,0,0,0,.19,4.13,16.88,16.88,0,0,1,3.09,8.32,5.88,5.88,0,0,1,2.77,2.74l.43,2.67s-13.51,1.65-30.09,26.33c-2.63-1.92-5.91-1.47-10.68-1.31-7.38.25-13.74-.94-16-6.88s-7.8-23.3-8.63-32.4"/><path class="cls-19" d="M411.31,70.81c2.92-5.37,20.89-6.06,33.36-7.61,8.46-1,17.09-2.7,23.75-4a26.46,26.46,0,0,1,2.88,9.25l2.48.24s17.48-7.29,22.87-8.7,5-3.79,9.43-5.35,5.18-1.45,5.1-3c0,0,14.2-3.44,18.69-1.09s7,15.77-3.1,19.92-28,8.71-28,8.71-6-4.84-11.87-4.11-8.76,1.1-12.3,2.2-4.77,1.41-4.77,1.41a18.38,18.38,0,0,0-10.34,2.53c-5.35,3.1-9.2,5.93-9.2,5.93l-7.27.35s-2.16-.2-18.06.63-16.61-11.92-13.69-17.29"/><path class="cls-20" d="M493.26,150.29c-5.19-2.37-11.58-.85-15.65,3-.53.5.27,1.3.8.8,3.67-3.44,9.57-4.94,14.28-2.78.66.3,1.23-.68.57-1"/><path class="cls-20" d="M507,126.72a17.54,17.54,0,0,0-2.66-5.2.57.57,0,1,0-1,.57A16.4,16.4,0,0,1,505.9,127c.22.69,1.31.4,1.09-.3"/><path class="cls-15" d="M475.84,137.27c1.46-4.26,2.94-8.57,5.4-12.37a38.62,38.62,0,0,1,4.34-5.37,49.55,49.55,0,0,1,5-4.76,45.08,45.08,0,0,1,6.7-4.2c.64-.35.07-1.33-.57-1a50.76,50.76,0,0,0-6.14,3.77,42.81,42.81,0,0,0-5.15,4.74,47.58,47.58,0,0,0-4.59,5.43,35.26,35.26,0,0,0-3.32,6.13c-1,2.39-1.87,4.85-2.72,7.31-.23.69.86,1,1.09.3"/><path class="cls-15" d="M476.27,122.8c1.52-4,2.75-8.07,4.77-11.82a27.7,27.7,0,0,1,12.75-12.06c.65-.31.08-1.29-.57-1a29,29,0,0,0-9.28,6.92,34.69,34.69,0,0,0-6.17,10.62c-.9,2.33-1.7,4.69-2.59,7-.26.68.83,1,1.09.3"/><path class="cls-15" d="M458.17,133.69c-.38-1-.76-2-1.13-3a.59.59,0,0,0-.7-.39.56.56,0,0,0-.39.69c.37,1,.75,2,1.13,3a.57.57,0,0,0,1.09-.3"/><path class="cls-15" d="M455.86,135.43c.25-1.85,1.13-3.57,1-5.48s-.59-4.13-.9-6.16l-1.92-12.34L453,104.36c-.11-.72-1.2-.41-1.09.3,1.27,8.14,2.64,16.26,3.8,24.42a7.91,7.91,0,0,1-.23,3.35,25.6,25.6,0,0,0-.7,3c-.1.72,1,.71,1.13,0"/><path class="cls-15" d="M454.36,99.3a37.59,37.59,0,0,1-2.18,4.74c-.33.64.64,1.21,1,.57a39.73,39.73,0,0,0,2.29-5,.57.57,0,0,0-1.09-.3"/><path class="cls-15" d="M470.33,68.61c-5.22,2-10.45,4.06-15.65,6.13a74.28,74.28,0,0,0-7.18,3.19c-2.12,1.11-4.16,2.38-6.28,3.5a20.66,20.66,0,0,1-7.67,2.6c-.72.07-.73,1.2,0,1.13,4.85-.45,8.95-3.17,13.1-5.49,4.75-2.64,9.9-4.46,14.94-6.44l9-3.54c.66-.26.37-1.35-.3-1.08"/><path class="cls-15" d="M475.9,75.31a9.84,9.84,0,0,1-1.83-6.14c0-.73-1.09-.73-1.13,0a10.86,10.86,0,0,0,2,6.71.59.59,0,0,0,.78.21.58.58,0,0,0,.2-.78"/><path class="cls-15" d="M520.81,68.36q-11.49,2.44-23.08,4.47c-2.18.38-4.38.75-6.57,1.11-.71.11-.41,1.2.3,1.08q11.61-1.89,23.13-4.22,3.27-.66,6.52-1.36c.71-.15.41-1.24-.3-1.08"/><path class="cls-19" d="M482.73,79.12a25.27,25.27,0,0,0-3.62,1.12c-1,.43-2.39,1-2.46,2.28,0,.73,1.09.73,1.13,0,0-.34.47-.58.73-.72a8.64,8.64,0,0,1,1.41-.67,27.76,27.76,0,0,1,3.11-.92.57.57,0,0,0-.3-1.09"/><path class="cls-19" d="M480.11,79.69l-6.67,1.19-1.58.28-.85.15a2.62,2.62,0,0,1-.82.14c-.36-.1-.42-.57-.35-.88a1.08,1.08,0,0,1,.64-.77c.65-.32.08-1.29-.57-1a2.22,2.22,0,0,0-1.18,2.41,1.74,1.74,0,0,0,.88,1.21,3,3,0,0,0,1.81-.06l9-1.6c.71-.12.41-1.21-.3-1.09"/><path class="cls-19" d="M465.27,85.18l.17,0-.15,0a2.09,2.09,0,0,1,.5,0l-.15,0a1.78,1.78,0,0,1,.5.14l-.14-.06a2.37,2.37,0,0,1,.35.19.54.54,0,0,0,.43.06.57.57,0,0,0,.4-.69.68.68,0,0,0-.26-.34,2.45,2.45,0,0,0-1.95-.36.57.57,0,0,0,.3,1.09"/><path class="cls-19" d="M500.3,167.51c.3.78.6,1.55.89,2.33a.68.68,0,0,0,.26.34.57.57,0,0,0,.44,0,.56.56,0,0,0,.39-.69c-.3-.78-.59-1.56-.89-2.33a.68.68,0,0,0-.26-.34.61.61,0,0,0-.44-.06.57.57,0,0,0-.39.7"/><path class="cls-19" d="M475.69,171.82a17.88,17.88,0,0,0-.37,2.17.54.54,0,0,0,.16.4.6.6,0,0,0,.4.17.59.59,0,0,0,.4-.17.66.66,0,0,0,.17-.4c0-.13,0-.26,0-.39a.77.77,0,0,1,0,.15c.08-.55.18-1.09.31-1.63a.57.57,0,0,0-1.09-.3"/><path class="cls-21" d="M472.41,48.47,463.23,50s1.5,4.5,5.83,3.8c4.09-.66,3.35-5.29,3.35-5.29"/><path class="cls-21" d="M479.63,47.3l-7.22,1.17s2.17,4.44,5.58,3.89c3.22-.52,1.64-5.06,1.64-5.06"/><path class="cls-21" d="M487.6,46l-8,1.28s2.27,4.43,6,3.82c3.54-.57,1.94-5.1,1.94-5.1"/><path class="cls-21" d="M495.85,44.68,487.61,46s2.35,4.59,6.24,4c3.67-.59,2-5.29,2-5.29"/><path class="cls-21" d="M504.11,43.34l-8.25,1.34s2.35,4.58,6.24,4c3.67-.59,2-5.29,2-5.29"/><path class="cls-21" d="M512.36,42l-8.24,1.33s2.47,5,6.36,4.41c3.67-.59,1.88-5.74,1.88-5.74"/><path class="cls-21" d="M519.15,40.91,512.37,42s2.46,5.69,5.66,5.17c3-.48,1.12-6.27,1.12-6.27"/><path class="cls-21" d="M525.37,39.91l-6.21,1s2.49,6.09,5.42,5.62c2.76-.45.79-6.62.79-6.62"/><path class="cls-21" d="M532.23,38.8l-6.85,1.11s2.89,7.22,6.12,6.7c3-.49.73-7.81.73-7.81"/><path class="cls-21" d="M539.09,37.69l-6.85,1.11s3.34,8.88,6.57,8.35c3.05-.49.28-9.46.28-9.46"/><path class="cls-20" d="M472.41,48.47,463.23,50s0-4.75,4.34-5.45c4.09-.66,4.84,4,4.84,4"/><path class="cls-20" d="M479.63,47.3l-7.22,1.17s.66-4.9,4.07-5.45c3.22-.52,3.15,4.28,3.15,4.28"/><path class="cls-20" d="M487.6,46l-8,1.28s.76-4.91,4.51-5.52c3.54-.57,3.45,4.24,3.45,4.24"/><path class="cls-20" d="M495.85,44.68,487.61,46s.78-5.09,4.67-5.72c3.67-.59,3.57,4.39,3.57,4.39"/><path class="cls-20" d="M504.11,43.34l-8.25,1.34s.79-5.09,4.67-5.72c3.68-.59,3.58,4.38,3.58,4.38"/><path class="cls-20" d="M512.36,42l-8.24,1.33s.76-5.55,4.64-6.18c3.68-.6,3.6,4.85,3.6,4.85"/><path class="cls-20" d="M519.15,40.91,512.37,42s.54-6.18,3.74-6.7c3-.48,3,5.6,3,5.6"/><path class="cls-20" d="M525.37,39.91l-6.21,1s.45-6.56,3.37-7,2.84,6,2.84,6"/><path class="cls-20" d="M532.23,38.8l-6.85,1.11s.46-7.78,3.69-8.3c3-.49,3.16,7.19,3.16,7.19"/><path class="cls-20" d="M539.09,37.69l-6.85,1.11s.37-9.49,3.6-10c3-.49,3.25,8.9,3.25,8.9"/><path class="cls-21" d="M456,51.13,463.23,50s-.67,4.9-4.07,5.45c-3.22.52-3.16-4.28-3.16-4.28"/><path class="cls-21" d="M448,52.41l8-1.28s-.75,4.91-4.51,5.52c-3.54.57-3.45-4.24-3.45-4.24"/><path class="cls-21" d="M439.78,53.75,448,52.42s-.78,5.09-4.67,5.72c-3.67.59-3.57-4.39-3.57-4.39"/><path class="cls-21" d="M431.53,55.08l8.24-1.33s-.78,5.09-4.67,5.72c-3.67.59-3.57-4.39-3.57-4.39"/><path class="cls-21" d="M423.27,56.42l8.25-1.33s-.76,5.55-4.65,6.18c-3.67.6-3.6-4.85-3.6-4.85"/><path class="cls-21" d="M416.48,57.52l6.78-1.1s-.54,6.18-3.73,6.7c-3,.48-3-5.6-3-5.6"/><path class="cls-21" d="M410.27,58.52l6.2-1s-.44,6.56-3.37,7c-2.76.44-2.83-6-2.83-6"/><path class="cls-21" d="M403.41,59.63l6.85-1.11s-.47,7.77-3.7,8.3c-3.05.49-3.15-7.19-3.15-7.19"/><path class="cls-21" d="M396.55,60.74l6.85-1.11s-.37,9.49-3.61,10c-3.05.49-3.24-8.9-3.24-8.9"/><path class="cls-20" d="M456,51.13,463.23,50s-2.18-4.44-5.58-3.89c-3.22.52-1.65,5.06-1.65,5.06"/><path class="cls-20" d="M448,52.41l8-1.28s-2.26-4.43-6-3.82c-3.54.57-1.94,5.1-1.94,5.1"/><path class="cls-20" d="M439.78,53.75,448,52.42s-2.34-4.59-6.23-4c-3.67.59-2,5.29-2,5.29"/><path class="cls-20" d="M431.53,55.08l8.24-1.33s-2.35-4.58-6.23-4c-3.68.59-2,5.28-2,5.28"/><path class="cls-20" d="M423.27,56.42l8.25-1.33s-2.48-5-6.36-4.41c-3.67.59-1.89,5.74-1.89,5.74"/><path class="cls-20" d="M416.48,57.52l6.78-1.1s-2.46-5.69-5.65-5.17c-3,.48-1.13,6.27-1.13,6.27"/><path class="cls-20" d="M410.27,58.52l6.2-1s-2.49-6.09-5.41-5.62c-2.77.45-.79,6.62-.79,6.62"/><path class="cls-20" d="M403.41,59.63l6.85-1.11s-2.89-7.22-6.12-6.7c-3.05.49-.73,7.81-.73,7.81"/><path class="cls-20" d="M396.55,60.74l6.85-1.11s-3.34-8.88-6.57-8.35c-3.06.49-.28,9.46-.28,9.46"/><path class="cls-13" d="M543.33,11.9c-.93.56-1.9,1.06-2.87,1.56-2.85,1.47-5.77,2.8-8.72,4.05l-.34.15c.31-.13.11-.05-.07,0l-.8.34-1.6.65c-1.15.47-2.31.92-3.47,1.36q-4.05,1.54-8.14,2.92c-6.86,2.32-13.82,4.34-20.84,6.13-9,2.28-18.08,4.17-27.23,5.74-1.28.22-2.55.44-3.83.64a1.57,1.57,0,0,0,.83,3c9.44-1.53,18.83-3.38,28.12-5.65C501.66,31.05,508.9,29,516,26.68c5.23-1.72,10.42-3.6,15.51-5.72,3.29-1.36,6.56-2.81,9.74-4.41,1.2-.6,2.45-1.2,3.59-1.92l0,0c1.73-1,.15-3.75-1.58-2.7"/><path class="cls-13" d="M383.65,40.65c1.07.24,2.16.41,3.24.58,3.3.51,6.62.88,9.95,1.15,5.26.43,10.54.62,15.81.65,7.27,0,14.55-.24,21.8-.77,9.37-.68,18.7-1.77,28-3.18,1.28-.19,2.55-.39,3.82-.6a1.58,1.58,0,0,0,1.1-1.92,1.62,1.62,0,0,0-1.93-1.1c-9.3,1.51-18.66,2.68-28.06,3.45-7.45.6-14.93,1-22.41,1-5.5,0-11-.13-16.5-.53q-3-.21-5.92-.53l-2.37-.28-.52-.07c-.27,0-.1,0,.11,0l-.3,0-.94-.13c-1.33-.2-2.66-.44-4-.69h0a1.57,1.57,0,1,0-.83,3"/><path class="cls-22" d="M512.4,136.21a7.75,7.75,0,0,0,3.19-3.37,11.11,11.11,0,0,0,.8-2.59,8.93,8.93,0,0,0,.29-2.86.58.58,0,0,0-.57-.56.55.55,0,0,0-.56.56,8,8,0,0,1-.23,2.48,9.48,9.48,0,0,1-.71,2.4,6.63,6.63,0,0,1-2.78,3,.57.57,0,0,0,.57,1"/><path class="cls-22" d="M458.21,89.41a37,37,0,0,0-3.71,5.71c-.33.64.64,1.22,1,.57A35.05,35.05,0,0,1,459,90.21a.59.59,0,0,0,0-.8.57.57,0,0,0-.8,0"/><path class="cls-22" d="M498.37,180.36a5.16,5.16,0,0,0,2.14-4.64.57.57,0,1,0-1.13,0,5.25,5.25,0,0,1,0,.56,2.46,2.46,0,0,1,0,.28c0,.05,0,.09,0,.13s0,0,0,.07-.08.36-.13.55a2,2,0,0,1-.09.26,1.67,1.67,0,0,1-.07.19,4,4,0,0,1-1.28,1.63.56.56,0,0,0,.57,1"/><path class="cls-15" d="M449,86.86a51.39,51.39,0,0,1-5.94.31.57.57,0,0,0,0,1.13A51.39,51.39,0,0,0,449,88a.58.58,0,0,0,.56-.57.57.57,0,0,0-.56-.56"/><path class="cls-15" d="M472,113.93a48.19,48.19,0,0,1,2.62-11.36,29.2,29.2,0,0,1,2.28-5,18.1,18.1,0,0,1,3.42-4.09,49.63,49.63,0,0,1,4.77-3.64c.6-.42,0-1.39-.57-1-3,2.1-6,4.26-8.09,7.34a34.73,34.73,0,0,0-4.39,11,49.88,49.88,0,0,0-1.17,6.75c-.07.73,1.06.72,1.13,0"/><path class="cls-16" d="M529.18,143.18a7.6,7.6,0,0,1-3.56,3.71.57.57,0,0,0-.2.77.58.58,0,0,0,.77.21,8.65,8.65,0,0,0,4-4.12.58.58,0,0,0-.2-.77.56.56,0,0,0-.77.2"/><path class="cls-16" d="M525.25,147.39a8,8,0,0,1-1.7,4.8.57.57,0,0,0,.21.77.58.58,0,0,0,.77-.2,9.06,9.06,0,0,0,1.85-5.37.57.57,0,0,0-1.13,0"/><path class="cls-16" d="M554.79,146.89c-1.47,1.32-3.11,2.8-5.18,2.94a.58.58,0,0,0-.56.57.57.57,0,0,0,.56.56c2.41-.16,4.26-1.73,6-3.27.54-.49-.26-1.29-.8-.8"/><path class="cls-16" d="M548.94,150.4a6.61,6.61,0,0,1-2.84,4.69.58.58,0,0,0-.2.77.57.57,0,0,0,.77.2,7.81,7.81,0,0,0,3.4-5.66.56.56,0,0,0-.56-.56.58.58,0,0,0-.57.56"/><path d="M339.15,58.43l-4.71-2.08S324.33,79.4,315.67,89c0,0,9.6-2.46,23.48-30.53"/><path class="cls-5" d="M317,87.46a73.07,73.07,0,0,0-1.21-13.3l-.65,1.75s-.95-10.1-6-13.22a37.65,37.65,0,0,0,1.64,13.61l-1.37-1.53A33.3,33.3,0,0,0,315.67,89Z"/><path class="cls-5" d="M315.67,89A26.92,26.92,0,0,1,306,83.21l2.47-.4a67.05,67.05,0,0,1-7.36-6.35c-3.17-3.29-3-4-3-4a34,34,0,0,1,10.46,6.28A40.82,40.82,0,0,1,315.67,89"/><path class="cls-5" d="M319.6,87.55a26.81,26.81,0,0,0-11.24-1.06l1.76,1.77a67.11,67.11,0,0,0-9.69.81c-4.49.79-4.83,1.49-4.83,1.49a34,34,0,0,0,12.15,1.08,40.94,40.94,0,0,0,11.85-4.09"/><path class="cls-5" d="M314.08,87.7s-1.68,4.71,2.07,10.43,7.47,7.13,7.47,7.13-3.16-9.72-5.49-12.09l2.24,1.12s-1.87-4.93-4.9-6.6Z"/><path class="cls-5" d="M315.2,88.47s4.47,3.82,9.13,4.23a25.1,25.1,0,0,0,9.06-1.1,11.76,11.76,0,0,0-9.83-3.36l1.16-1.31s-6.37-1-9.52,1.54"/><path d="M340.63,90,338,89.54s-2.08,12.86-5.17,18.77c0,0,4.48-2.48,7.8-18.34"/><path d="M333.34,107.56a20.37,20.37,0,0,0-1.59-4.82l-.19.75s-1.22-3.65-3.95-4.06a10.64,10.64,0,0,0,1.83,4.87l-.79-.37a10,10,0,0,0,4.17,4.38Z"/><path d="M332.83,108.31a13.8,13.8,0,0,1-5.61-1.62l1.18-.52a35,35,0,0,1-4.51-2.23c-2-1.24-2-1.64-2-1.64a17.66,17.66,0,0,1,6,1.79,21.28,21.28,0,0,1,4.93,4.22"/><path d="M334.61,107.1a13.82,13.82,0,0,0-5.77.92l1.11.66a34.34,34.34,0,0,0-4.75,1.66c-2.15,1-2.22,1.37-2.22,1.37a17.5,17.5,0,0,0,6.22-1,21.39,21.39,0,0,0,5.41-3.58"/><path d="M331.65,107.5a6.49,6.49,0,0,0,1.25,5.36,9.39,9.39,0,0,0,4,3.56s-1.8-5-3.05-6.17l1.18.54s-1-2.51-2.65-3.32Z"/><path d="M332.53,108.13a9,9,0,0,0,4.65,1.13,10.07,10.07,0,0,0,3.89-1.5,5.31,5.31,0,0,0-4.85-.63l.34-.77s-3,.18-4,1.77"/><path class="cls-8" d="M421.37,102.4a33.58,33.58,0,0,0-5.63-3.81L405.66,99.8a68.69,68.69,0,0,1,6,3.52s7.57-1,9.71-.92"/><path class="cls-9" d="M358.66,89.8A34.22,34.22,0,0,0,353,86s-8.4,1-10.08,1.22c0,0,4.45,2.35,6,3.51,0,0,7.58-1,9.71-.92"/><path class="cls-18" d="M381.11,92.78a39.11,39.11,0,0,0-6.73-3.64l-12.32,1.58s5.34,2.21,7.19,3.33c0,0,9.26-1.27,11.86-1.27"/><path class="cls-18" d="M426.16,95.13a25.56,25.56,0,0,0-5.12-3.9s-11.82.32-14.71.91c0,0,4.79,2.71,6.07,3.68Z"/><path class="cls-8" d="M403.86,98.5a26.54,26.54,0,0,0-5-3A124.24,124.24,0,0,0,386,96a26.54,26.54,0,0,1,6.19,2.9s10.5-.46,11.64-.35"/><path class="cls-9" d="M407.23,105.92a24.84,24.84,0,0,0-4.71-2.85,114.55,114.55,0,0,0-12,.47,25.15,25.15,0,0,1,5.8,2.71s9.82-.43,10.88-.33"/><path class="cls-8" d="M386.7,100.12a26.18,26.18,0,0,0-5-3.05,122.22,122.22,0,0,0-12.79.51,26.66,26.66,0,0,1,6.2,2.89s10.49-.46,11.63-.35"/><path class="cls-9" d="M401.38,92.36a26.18,26.18,0,0,0-5-3,124.32,124.32,0,0,0-12.79.5,26.49,26.49,0,0,1,6.2,2.9s10.49-.46,11.63-.35"/><path class="cls-23" d="M417,115.64q-14.16-1.9-28.38-3.47l-8.07-.86c-.72-.07-.72,1.06,0,1.13q14.22,1.47,28.4,3.28,4,.51,8,1c.72.1.71-1,0-1.13"/><path class="cls-23" d="M416.63,122.15q-14-1.73-27.95-3-4-.37-8-.7c-.73-.06-.72,1.07,0,1.13q14,1.15,28,2.75,4,.45,8,1c.72.08.71-1,0-1.13"/><path class="cls-23" d="M416.55,128.18q-14.21-1.44-28.41-2.8l-8-.76c-.72-.07-.72,1.06,0,1.13q14.22,1.34,28.42,2.76l8,.8c.72.07.72-1.06,0-1.13"/><path class="cls-23" d="M416.12,135q-14.44-1.5-28.85-3.22c-2.73-.32-5.47-.65-8.2-1-.72-.09-.71,1,0,1.13q14.4,1.77,28.83,3.34,4.11.45,8.22.87c.72.07.71-1.05,0-1.13"/><path class="cls-23" d="M415.11,141.58q-12.24-1.59-24.57-2.26-3.53-.19-7.05-.31a.57.57,0,0,0,0,1.13q12.33.42,24.62,1.73c2.33.26,4.67.54,7,.84.72.09.71-1,0-1.13"/><path class="cls-23" d="M415.36,147.2c-4.15-.29-8.26-.86-12.38-1.34a104.7,104.7,0,0,0-12.27-.76,38.11,38.11,0,0,1-7-.42c-.71-.13-1,1-.3,1.09,4.07.73,8.24.34,12.35.56s8.33.8,12.49,1.29c2.36.29,4.73.54,7.11.71.72,0,.72-1.08,0-1.13"/><path class="cls-23" d="M411.48,155.21a96.32,96.32,0,0,0-11.61-1.29c-3.9-.19-7.81,0-11.71-.14a48.18,48.18,0,0,1-6.68-.58c-.71-.11-1,1-.3,1.09a67.76,67.76,0,0,0,11.56.64c3.92,0,7.83.08,11.73.46q3.38.33,6.71.9c.71.13,1-1,.3-1.08"/><path class="cls-23" d="M407.78,160.59A181.11,181.11,0,0,0,380.84,159a.56.56,0,0,0,0,1.12,179.76,179.76,0,0,1,26.64,1.58c.71.1,1-1,.3-1.09"/><path class="cls-23" d="M408.34,166.79a236.67,236.67,0,0,0-23.77-2c-2.27-.07-4.54-.12-6.81-.13a.57.57,0,0,0,0,1.13,234.43,234.43,0,0,1,23.55,1.32q3.38.36,6.73.82c.71.1,1-1,.3-1.09"/><path class="cls-23" d="M407.3,173.09c-8.72-1-17.46-1.72-26.2-2.44l-7.42-.61c-.72-.06-.72,1.07,0,1.13,8.75.71,17.49,1.42,26.23,2.28,2.46.25,4.93.5,7.39.77.72.08.72-1.05,0-1.13"/><path class="cls-23" d="M408.22,178.29c-4.57-.62-9.18-1-13.79-1.23s-9.21-.09-13.82-.17a71.17,71.17,0,0,1-7.86-.49c-.72-.1-.71,1,0,1.12a107.42,107.42,0,0,0,13.78.52c4.62,0,9.23.14,13.83.52,2.62.22,5.25.51,7.86.86.72.09.71-1,0-1.13"/><path class="cls-23" d="M412.73,185.65q-15-1.78-30.08-2.18-4.27-.1-8.57-.11a.57.57,0,0,0,0,1.13q15.09,0,30.13,1.38,4.28.4,8.52.91c.72.08.72-1.05,0-1.13"/><path class="cls-23" d="M412.62,192.74c-5.1-.33-10.18-1-15.26-1.47s-10.18-.73-15.29-.86c-2.88-.07-5.76-.18-8.63-.5-.72-.08-.71,1.05,0,1.13,5.08.56,10.19.46,15.28.69s10.19.83,15.27,1.37c2.88.3,5.75.58,8.63.77.73,0,.72-1.08,0-1.13"/><path class="cls-23" d="M412.23,199.6q-15-1.48-30.15-2.07-4.29-.17-8.58-.26a.57.57,0,0,0,0,1.13q15.11.33,30.18,1.56,4.27.34,8.55.77c.72.07.72-1.06,0-1.13"/><path class="cls-23" d="M405.41,205.72q-12.53-1.59-25.12-2.43c-2.39-.15-4.77-.29-7.15-.4-.73,0-.73,1.09,0,1.13q12.6.6,25.16,2c2.37.26,4.74.55,7.11.85.72.09.71-1,0-1.13"/><path class="cls-23" d="M400.1,210.46q-14.39-.72-28.76-1.72c-.72-.05-.72,1.08,0,1.13q14.37,1,28.76,1.72c.73,0,.73-1.1,0-1.13"/><path class="cls-23" d="M399.79,217.45q-14-1.41-28.09-2.5c-.72,0-.72,1.07,0,1.13q14.06,1.09,28.09,2.5c.72.07.71-1.06,0-1.13"/><path class="cls-23" d="M397.5,225.44q-12.9-1.31-25.76-2.94c-.72-.09-.71,1,0,1.13q12.87,1.63,25.76,2.94c.73.07.72-1.06,0-1.13"/><polygon class="cls-23" points="396 132.95 396.26 126.73 389.34 126.06 389.14 132.25 396 132.95"/><polygon class="cls-23" points="402.43 121.08 403.01 114.33 409.45 115.56 408.94 121.8 402.43 121.08"/><polygon class="cls-23" points="409.34 147.19 408.74 155.03 402.83 154.68 403.28 146.46 409.34 147.19"/><polygon class="cls-23" points="389.39 165.32 389.58 159.88 384.37 159.84 384.21 165.3 389.39 165.32"/><polygon class="cls-23" points="390.18 191.24 390.49 184.33 386.93 184.17 386.57 191.37 390.18 191.24"/><polygon class="cls-23" points="403.22 192.71 402.99 199.04 406.69 199.65 407.14 192.86 403.22 192.71"/><polygon class="cls-23" points="379.5 198 379.24 203.47 374.15 203.29 374.31 197.85 379.5 198"/><polygon class="cls-23" points="392.58 225.33 392.94 217.34 387.61 216.85 387.06 224.89 392.58 225.33"/><path d="M440.39,152l-12.87-.53c-.73,0-.73,1.1,0,1.13l12.87.53c.72,0,.72-1.1,0-1.13"/><path class="cls-12" d="M367.2,118.91q-14.49.09-28.95,1.07c-.72,0-.72,1.17,0,1.12q14.46-1,28.95-1.06a.57.57,0,0,0,0-1.13"/><path class="cls-12" d="M366.23,124.9q-14.69.22-29.33,1.2c-.72,0-.73,1.17,0,1.12q14.64-1,29.33-1.19a.57.57,0,0,0,0-1.13"/><path class="cls-12" d="M365.55,129.83q-14.67.61-29.36,1c-.72,0-.73,1.15,0,1.13q14.69-.35,29.36-1c.72,0,.72-1.16,0-1.13"/><path class="cls-12" d="M363.74,135.26q-14.36.13-28.7,1c-.72,0-.73,1.17,0,1.13q14.34-.81,28.7-1a.57.57,0,0,0,0-1.13"/><path d="M348.38,205.4a1.3,1.3,0,0,1-1.31-1.31,1.28,1.28,0,1,1,2.55-.06,1.3,1.3,0,0,1-1.24,1.37"/><path class="cls-13" d="M596.64,1.39a158.92,158.92,0,0,1-35.75,15.39q-5.28,1.54-10.64,2.72a1.57,1.57,0,1,0,.83,3A163.24,163.24,0,0,0,588.36,9.41q5-2.49,9.87-5.31a1.57,1.57,0,0,0-1.59-2.71"/></g></g></g></g></g><g id="Layer_19" data-name="Layer 19"><circle class="cls-24" cx="275" cy="275" r="266"/><g class="cls-25"><path class="cls-26" d="M283,518.22c-1.58-19.28-3.14-38.87-.12-58.12s11.32-38.46,25.31-48.92c13.58-10.15,30.22-10.71,45.93-10.95,19-.3,40.55.7,52.53,17.88,7.24,10.38,9.34,24.66,10.32,38.38a334.35,334.35,0,0,1-4.5,82.92q-53.33-1.2-106.46-5.55c-5.05-.42-10.24-.89-14.75-3.49S283.35,522.51,283,518.22Z"/><path class="cls-26" d="M257.42,403.29a11.79,11.79,0,0,1,5.13-6.62,35,35,0,0,1,7.78-3.52L284.84,388c.64,1.85-1.16,3.63-2.9,4.54-3.34,1.75-7.12,2.44-10.72,3.59S264,399,262,402.2a9.35,9.35,0,0,1-1.38,2,2,2,0,0,1-2.2.48C257.68,404.26,257.56,403,257.42,403.29Z"/><path class="cls-27" d="M281.75,407.7a56.72,56.72,0,0,1,36-12.33c5.88.09,9.93.35,14.41,4.14,5.08,4.3,2.47,12,3.64,18.55,1.28,7.21-.28,13.71-.48,21-.09,3,0,6.64,2.45,8.39,1.88,1.32,11.59,3.59,13.85,3.2,4.73-.82,11.55-3.62,14.59-7.34,2.86-3.5,3.12-8.42,2.8-12.93-.4-5.59-1.48-11.14-1.61-16.74s.79-11.46,4-16.06c5.73-8.26,17.2-10.6,23.72-18.25,1.53-1.79,2.57-4.89.61-6.21a4.81,4.81,0,0,0-2.87-.48c-14.67.65-34.11,12.79-44,1.95-13.38-14.63-27.93,1.26-41.17,5.46a79.68,79.68,0,0,0-31.58,19c-1.47,1.61-1.08,4.33.37,5.95A9.74,9.74,0,0,0,281.75,407.7Z"/><path d="M285,399.51a4.25,4.25,0,0,0-3.1-3.63,6,6,0,0,0-4.93.76,6,6,0,0,0-2.69,6.09c.61,3.36,4.51,6,8.08,5.45s6-4.39,4.73-7.62S281.21,395.58,285,399.51Z"/><path class="cls-28" d="M300.2,287.68,319,276.31c20.07,17.59,50.88,24.31,77.71,16.95-1.14,6.93,0,14-.21,21s-2.09,14.48-7.86,19.14c-3.62,2.93-8.39,4.4-13.14,5.24-26.12,4.64-52.47-8.27-71-25.51-5-4.64-9.85-10.17-10-16.69S301.39,283.06,300.2,287.68Z"/><path class="cls-29" d="M346.14,208.34c3.81,15.15,10.63,30,22.05,40.16s28,15,42,9.35a18.37,18.37,0,0,0,17.68-2.63,20.08,20.08,0,0,0,7.45-16.89c-.35-5.13-2.62-9.88-5-14.41a274.18,274.18,0,0,0-13.93-23.81c-4.57-7-9.75-14-17.11-17.57-9.68-4.68-21.42-2.31-30.59,3.36S352.43,200.13,346.14,208.34Z"/><path class="cls-29" d="M281.28,379.58a99.43,99.43,0,0,0-22.81,9.16,18.26,18.26,0,0,0-6.31,5c-1.57,2.2-2.15,5.31-.74,7.62s5.15,3,6.89.95c1.08-1.28,1.13-3.14,1.9-4.63,1.65-3.2,5.92-3.85,9.52-3.66a44.37,44.37,0,0,1,12.23,2.4c2.27.79,4.84,2.28,4.87,4.68,0,1.75-1.42,3.42-.93,5.1s2.88,2.31,4.5,1.51a8.06,8.06,0,0,0,3.34-4.12,35.2,35.2,0,0,0,2.8-9.69,7.22,7.22,0,0,0-.06-3.07,7.71,7.71,0,0,0-3.05-3.65A65.32,65.32,0,0,0,281.28,379.58Z"/><path d="M386.33,192.62c5.08,5.09,16.31,11.18,22.45,11.3q-4.38-7.33-8.79-14.64a2.6,2.6,0,0,0-.62-.77,1.56,1.56,0,0,0-.89-.24,14.15,14.15,0,0,0-6.34,1.65c-1.88.85-4.21,1.44-5.81,2.7"/><path d="M441.33,227.19c-1.94.81-1.83,3.88-.25,5.27s3.86,1.55,6,1.57c-.37,2.86.49,6.08,2.88,7.69s6.34.72,7.13-2.05a6.58,6.58,0,0,0,12.32.8,1.21,1.21,0,0,1,.43-.62,1.15,1.15,0,0,1,.95.09,11.55,11.55,0,0,0,9.62-.83c2.81-1.6,3.56-6.05,3.22-9.07a9.82,9.82,0,0,0-3.9-6.9c-.59-.42-1.45-.74-2-.26s-.63,1.7-.84,2.36a10.49,10.49,0,0,1-1.14,2.56,9.23,9.23,0,0,1-3.53,2.87c-.76.45-2.49,2.28-3.44,1.7-.52-.32-.88-.87-1.41-1.23a5.55,5.55,0,0,0-3.76-.89,6.22,6.22,0,0,0-2.62,1,17.29,17.29,0,0,0-2,1.95,8.71,8.71,0,0,0-2.52-3.8,7.28,7.28,0,0,0-2.08-1.14c-.17-.06-2.15-.54-2.17-.36.41-3.64-3.44-6.92-7.06-6.35s-6.23,4.37-5.94,8a4.69,4.69,0,0,0,1.95,3.09"/><path class="cls-28" d="M371.77,254.19c-31.62-19.34-44.17-63.36-13-89.38,13.88-11.6,34.14-14.63,51.14-8.45s30.37,21,35.64,38.34c3.95,13,3.07,28.38-6,38.43-9.77,10.79-22.18,8.2-29.07-5-3.59-6.89-5.15-13.12-6.19-20.69-.74-5.42-.73-16.37-7.94-17.11-4-.4-8.41,1.48-12.09,2.71-9.42,3.15-18.69,7.41-27.73,11.52a7.52,7.52,0,0,0-3.15,2.28c-1.13,1.57-1.11,3.67-.93,5.6a50.59,50.59,0,0,0,.8,5.48c.89,4.43,2.13,8.93,4.72,12.65,2.13,3.07,4.42,6,6.69,9,4.19,5.45,8.84,10.74,12.51,16.56C376.29,255.46,372.94,254.9,371.77,254.19Z"/><path class="cls-30" d="M348.08,208.68a20,20,0,0,0-4.83,3.08,1.7,1.7,0,0,0-.62.86,1.76,1.76,0,0,0,.14.84c2.85,8.29,6.23,16.78,11.72,23.79,4.83,6.16,13.32,16.05,21.33,17.86-1.56-.35-6.5-6.39-7.6-7.84-2.09-2.73-4.1-5.52-5.92-8.44A82.17,82.17,0,0,1,355,223.6c-1.78-4.82-2.82-10.31-6-14.46"/><path d="M360.38,202.48c.22,6.19-2.61,16.87-6.25,20.85q-2.1-7-4.18-14.08a2,2,0,0,1-.12-.84,1.3,1.3,0,0,1,.38-.71,12.93,12.93,0,0,1,4.9-3.09c1.68-.7,3.48-1.84,5.27-2.13"/><path d="M394.56,261.08a34.41,34.41,0,0,1-18.36-5.6c-5.95-3.82-11.18-9.47-15.53-16.8-3.54-6-8.87-19.13-12.58-28.53a1.69,1.69,0,0,1,3.14-1.24c2.11,5.35,8.54,21.64,12.34,28,4.08,6.88,8.95,12.16,14.45,15.69,6.43,4.12,13.94,5.85,20.62,4.73,7.37-1.24,13.38-6.08,14.94-12a1.69,1.69,0,0,1,3.27.85c-1.89,7.23-9,13.06-17.65,14.52A28.57,28.57,0,0,1,394.56,261.08Z"/><path d="M381.54,209.25a2.14,2.14,0,0,1-1.1-.31,2.11,2.11,0,0,1-.7-2.9,15.11,15.11,0,0,1,14.41-7,2.11,2.11,0,1,1-.5,4.2,10.9,10.9,0,0,0-10.31,5A2.1,2.1,0,0,1,381.54,209.25Z"/><path d="M358.48,222.86a2,2,0,0,1-.86-.19,2.11,2.11,0,0,1-1.06-2.79,14.86,14.86,0,0,1,14.2-8.6,2.11,2.11,0,1,1-.25,4.21,10.73,10.73,0,0,0-10.1,6.12A2.12,2.12,0,0,1,358.48,222.86Z"/><path class="cls-31" d="M397.2,208.71c-3.61-.37-11.34,3.52-10.33,7.81a1.34,1.34,0,0,0,.73.92C391.45,219.16,404.16,211.13,397.2,208.71Z"/><path class="cls-31" d="M374.31,221.37c-3.72-.38-11.71,3.65-10.6,8.07a1.33,1.33,0,0,0,.7.87C368.3,232.17,381.48,223.86,374.31,221.37Z"/><ellipse cx="370.76" cy="225.96" rx="2.24" ry="2.34"/><path class="cls-26" d="M334.09,372c5.35,3.4,3.28,12.61,8.15,16.66,2.5,2.09,6.07,2.13,9.33,2a35.46,35.46,0,0,0,9.63-1.31,12.93,12.93,0,0,0,7.55-5.79c2.26-4.19,1.12-9.52-1.4-13.55a22.51,22.51,0,0,0-28.8-8.39,10.78,10.78,0,0,0-5.39,4.8C332.12,368.64,332.72,371.12,334.09,372Z"/><ellipse cx="393.05" cy="213.16" rx="2.18" ry="2.27"/><path d="M531.21,473.49a209.16,209.16,0,0,1,72.57,13.75c5.47,2.08,12,6.16,11.31,12.29-.57,5.38-6.28,7.93-11.18,9.2a156,156,0,0,1-87.14-2.84c-1.55-.51-3.24-1.16-4-2.68-.92-1.77-.24-3.94.53-5.75A61.5,61.5,0,0,1,531.21,473.49Z"/><path class="cls-32" d="M376.45,459.74a99.68,99.68,0,0,0-94.32,77.56c-.79,3.47-1.34,7.32.44,10.39,3.44,5.95,12.25,4.72,18.82,2.7L371,529c4.4-1.35,9-2.81,12.27-6,6.7-6.57,5.53-17.48,3.72-26.69C384.7,484.51,382.14,472.79,376.45,459.74Z"/><path class="cls-32" d="M537.72,458.32c3.23,20.14-8.09,40.13-21.14,46.94s-27.3,4.22-41.09,3.16c-32.44-2.5-65.17,4-96.05,19.12-4.3,2.1-9,4.37-13.23,2.07-7.33-4-8.74-19.92-4.53-29.74s11.89-14.82,19.19-18.9c40.84-22.79,84.52-34.07,128.09-33.05C519.74,448.17,531.45,449.73,537.72,458.32Z"/><path d="M384.89,237.41a3.15,3.15,0,0,1-2-.74,6.06,6.06,0,0,1-1.55-2.16,15.94,15.94,0,0,1-1.14-9.71.85.85,0,0,1,1.66.33,14.17,14.17,0,0,0,1,8.67,4.49,4.49,0,0,0,1.07,1.56,1.35,1.35,0,0,0,1.27.3,1.57,1.57,0,0,0,.78-1.06,6,6,0,0,0,.08-1.86.84.84,0,0,1,1.63-.35,1.85,1.85,0,0,0,1.19,1.07,1.76,1.76,0,0,0,1.55-.18,2,2,0,0,0,.77-1.48,2,2,0,0,0-.51-1.56.83.83,0,0,1,0-1.19.84.84,0,0,1,1.19,0,3.83,3.83,0,0,1-.46,5.65,3.42,3.42,0,0,1-3,.4,3.6,3.6,0,0,1-.7-.3,1.31,1.31,0,0,1-.06.27,3.18,3.18,0,0,1-1.77,2.18A2.52,2.52,0,0,1,384.89,237.41Z"/><path class="cls-28" d="M283.7,379.75a3.77,3.77,0,0,1-.23-5.7l63.87-60.24c23.15-21.82,46.39-43.73,72.38-62.07,6.86-4.84,14.78-9.64,23.08-8.36,9,1.38,15.28,9.34,20.43,16.83A531.79,531.79,0,0,1,548.3,467c-19.59,10.27-40.23,20.8-62.35,20.52-10.63-.14-21.19-2.81-31.8-2-14.3,1-27.31,8.14-40.59,13.56s-28.55,9.15-41.69,3.44c10-17.33,8.91-38.76,6.34-58.63s-7.36-43.76-1.54-62.92A116.06,116.06,0,0,0,380.89,364c1.2-7,3.3-15-2.16-19.47L297.6,391.1C292.93,387.24,288.25,383.39,283.7,379.75Z"/><path d="M421.86,245.25c.83,2.16,3,3.47,5,4.55-1.81,2.62-2.6,6.2-1.08,9s5.84,3.92,8,1.61a7.25,7.25,0,0,0,11.66,7,1.33,1.33,0,0,1,.73-.38c.36,0,.64.29.88.56a12.46,12.46,0,0,0,20.95-4.12,1.07,1.07,0,0,0,.09-.7.94.94,0,0,0-.39-.47c-1.44-1.05-3.28-.37-4.75.24-.56.23-1.27.77-1.89.71s-1.53-1-2.07-1.38a13.62,13.62,0,0,0-4.55-2.43,8.53,8.53,0,0,0-4.23.13c-.63.14-.9.21-1.27-.39s-.42-1.31-.76-1.92a6.09,6.09,0,0,0-3.23-2.78,6.79,6.79,0,0,0-3.07-.35,20.08,20.08,0,0,0-2.91.91,9.71,9.71,0,0,0-.55-5,7.91,7.91,0,0,0-1.46-2.16c-.14-.15-1.83-1.62-1.94-1.45,2.25-3.36,1.8-9.88-1.87-8.21-9.29,4.22-10.15-.47-11.71,3.26a5.22,5.22,0,0,0,.35,4"/><path d="M357.77,304.74a219.53,219.53,0,0,1,77.62-61.57c-7.63,22,6.06,48.73-6.84,68.18-4.91,7.42-12.9,12.25-20.62,16.83-19.79,11.75-30.89,17.32-50.68,29.06C356.45,336.17,346.63,318.78,357.77,304.74Z"/><path d="M448,484.7a1.26,1.26,0,0,1-1.26-1.27c0-12.07-1.36-21.64-4.28-30.1-5.82-16.89-8.51-34.83-11.12-52.18-1.08-7.23-2.2-14.69-3.53-22a346.77,346.77,0,0,0-15.9-58,1.27,1.27,0,0,1,2.38-.87,349.48,349.48,0,0,1,16,58.39c1.34,7.32,2.46,14.81,3.55,22,2.58,17.24,5.26,35.07,11,51.73,3,8.74,4.42,18.57,4.42,30.93A1.27,1.27,0,0,1,448,484.7Z"/><g id="thumb_up_front" data-name="thumb up front"><g class="cls-33"><path class="cls-34" d="M281.19,267.81a7.76,7.76,0,0,1-1.9-5.75,4.6,4.6,0,0,1,3.52-4h0a6.2,6.2,0,0,1-.85-2h0a.17.17,0,0,0,0-.07c0-.07,0-.14,0-.22l0-.15c0-.09,0-.18-.05-.27s0-.08,0-.13,0-.22,0-.34v-.08c0-.14,0-.28,0-.43h0a11.47,11.47,0,0,1,.14-2.11c0-.24.08-.48.12-.7v-.06c0-.2.08-.38.12-.56l0-.11.15-.55,0-.09c0-.14.09-.27.14-.41s0,0,0-.06h0c1.27-3.32,3.89-3.11,8.83-2.51,6,.71,12.43,4.42,13.65,3.66s-.05-6.44,3.08-11,9.35-4.42,10-1.07-3.67,6.78-3.18,12.07,3.68,8.18,1.21,28.45l1,7.35-14.95,11.42-5.76-8.48S283,286.26,282.26,280c0-.22,12.2,2,12,2a3.16,3.16,0,0,1-3.05,2.55c-3.62.27-9.18-1.57-10.31-4.11s.74-3.59.74-3.59a6.66,6.66,0,0,1-2.75-5.16c-.1-3.47,2.32-3.91,2.32-3.91m3.53-8h0v0l-.12-.07a.69.69,0,0,0,.13.11Z"/><path d="M293.05,255.4l-.12-.14c.05.06,0,.05,0,0l-.23-.21q-.27-.22-.54-.42a4.93,4.93,0,0,0-.43-.26,5,5,0,0,0-.57-.27l-.6-.22h0l-.19,0-.3-.06c-.5-.1-1-.16-1.51-.28a.91.91,0,0,1-.75-1,.88.88,0,0,1,1-.75,19.28,19.28,0,0,1,3.17.77,7.53,7.53,0,0,1,2.56,1.85.89.89,0,0,1-.17,1.23.91.91,0,0,1-1.24-.16"/><path d="M299.86,262.56c-1,1.16-2.29,2.33-3.91,2.35a13.31,13.31,0,0,1-2.36-.16,11.72,11.72,0,0,1-2.37-.77,29.49,29.49,0,0,1-4.49-2.08c-1.45-.9-2.79-2-4.16-3-.91-.68.17-2.07,1.09-1.39,1.23.9,2.44,1.85,3.7,2.71a21.11,21.11,0,0,0,3.86,1.86c.65.27,1.29.56,2,.77a7.69,7.69,0,0,0,2.08.3,2.65,2.65,0,0,0,1.73-.33,8.14,8.14,0,0,0,1.48-1.33c.74-.86,2.14.23,1.39,1.08"/><path d="M297.28,264.25c1.6,2.78,1.63,7.44-2,8.53a9.33,9.33,0,0,1-4,.12c-.64-.08-1.26-.2-1.89-.3a12.67,12.67,0,0,1-2.44-.47,23.81,23.81,0,0,1-2.92-1.52l-3.18-1.73a.91.91,0,0,1-.47-1.16.9.9,0,0,1,1.16-.46l4.86,2.64a6.76,6.76,0,0,0,2.39.84c.54.07,1.07.15,1.61.24,1.81.3,4.81,1,5.88-1,.82-1.54.26-3.6-.55-5a.89.89,0,0,1,.48-1.15.9.9,0,0,1,1.15.48"/><path d="M294.9,272.26a5.93,5.93,0,0,1,0,4.88,3.57,3.57,0,0,1-3,2.07,15.12,15.12,0,0,1-10-1.65.91.91,0,0,1-.47-1.16.9.9,0,0,1,1.16-.47,13.23,13.23,0,0,0,8.42,1.63c.83-.12,1.66-.15,2.09-.87a4.1,4.1,0,0,0,.09-3.75c-.47-1,1.16-1.71,1.63-.68"/><path d="M300.11,271.13a31.59,31.59,0,0,1-1.3-5.84,17,17,0,0,1-.17-2.94,11.5,11.5,0,0,1,.67-2.94.89.89,0,0,1,1.16-.46.9.9,0,0,1,.46,1.16,9.44,9.44,0,0,0-.55,2.57,16.75,16.75,0,0,0,.2,2.55,29.85,29.85,0,0,0,1.16,5.22.91.91,0,0,1-.47,1.16.9.9,0,0,1-1.16-.48"/><path d="M299.22,259.59c.25-2.15.1-4.7-1.62-6.26a3.46,3.46,0,0,0-2.5-1,2.74,2.74,0,0,0-2.23,1.25.88.88,0,0,1-1.39-1.09c1.53-2.38,5-2.4,7-.72,2.38,2,2.82,5.16,2.47,8.06a.88.88,0,0,1-1.74-.24"/><path d="M293.28,282v0h0c0-.07,0-.15,0-.22s0-.3-.07-.45l-.06-.23c0-.11.06.18,0,.07a.65.65,0,0,0,0-.13c-.05-.15-.1-.31-.16-.46s-.12-.28-.19-.42a1.51,1.51,0,0,0-.11-.22l-.06-.12s-.08-.13,0,0,0,0,0,0a.41.41,0,0,1-.05-.09l-.13-.19-.27-.37a.87.87,0,0,1,.17-1.23.89.89,0,0,1,1.23.17A7,7,0,0,1,294.6,280a5.74,5.74,0,0,1,.42,2.31.87.87,0,0,1-1,.75.89.89,0,0,1-.75-1"/></g></g><path d="M283.53,376.13a1.29,1.29,0,0,1-.89-.37,1.26,1.26,0,0,1,0-1.79,1200.51,1200.51,0,0,1,89.08-80.71,1.27,1.27,0,1,1,1.61,2,1195.57,1195.57,0,0,0-88.9,80.54A1.3,1.3,0,0,1,283.53,376.13Z"/><path d="M390.67,469.07A94.39,94.39,0,0,1,409,445.28a4.76,4.76,0,0,1,2.53-1.51c1-.12,2.14.67,2,1.66L391,473.49C389.53,471.5,390.26,468.26,390.67,469.07Z"/><path d="M284.39,373.35c-2.43.21-3.65,3.37-2.82,5.66s2.94,3.83,5,5.18q4.93,3.3,10.06,6.32c.93.54,2,1.1,3,.73s7.5-4.43,7.18-5.61a5.66,5.66,0,0,0-2-3c-5.77-4.29-10-7.67-15.67-11.94C288.47,371.53,284.45,373.2,284.39,373.35Z"/><path d="M373,501.37c13.19,3.49,27.2-.29,39.89-5.32s25.1-11.38,38.62-13.28c20.55-2.88,42.38,4.72,61.79-2.61,11.66-4.41,23.22-11.18,33.93-15.23,1-.37,1.57,1.26.74,1.91a99.25,99.25,0,0,1-57.82,20.73c-14.57.39-29.31-2.46-43.63.24-13.19,2.49-25,9.49-37.56,14.3s-27.21,7.26-39,.81C370.81,502.08,371.72,501.05,373,501.37Z"/><path d="M375.5,502.23l-7-.91c10.64-27.5,4.18-58.4,3.11-88-.92-25.24,2.85-51.95,10-76.12-2.4.34-5.39,2-7.8,2.34,3.65-1.22,6.72-3.76,10.36-5,4.81,13.36-.28,29.52-3.53,43.37-4.87,20.75-2.59,42-.08,63.23S384.24,484.82,375.5,502.23Z"/><path d="M292.91,295.84a5.43,5.43,0,0,1,.43-4.54,10.76,10.76,0,0,1,3.23-3.25c1.79-1.26,3.62-2.38,5.5-3.48l7-4.11a46.54,46.54,0,0,1,6.67-3.67c4.85-1.88,8.3,1.82,11.12,5.33-10.3,6-20.94,13.45-31.24,19.41-1.2-1-1.84-3-2.33-4.46C293.16,296.66,293,296.25,292.91,295.84Z"/><path class="cls-35" d="M408.67,175a7.23,7.23,0,0,0-1.23.56c-4.56-2.12-37.42-16.88-58.63-15.81,0,0-27,19.41-17.72,51.49,0,0,51.28-19.52,73.21-25.23a8.61,8.61,0,0,0,10.47,4.59,7.88,7.88,0,0,0,4.61-10.47A8.63,8.63,0,0,0,408.67,175"/><path class="cls-36" d="M335.94,199.12a35.52,35.52,0,0,1,3.77-18.92c3.35-6.38,9-10.95,14.75-15.1.85-.63,1.73.86.88,1.48-5.5,4-10.92,8.38-14.14,14.49a33.87,33.87,0,0,0-3.57,18.1c.07,1.09-1.62,1-1.69,0"/><path d="M376.51,396.39c7.75,3.9,14.82,6.3,21.74,9.13l31.81,13c1.53.62,4.61,1.6,5.69,2.84,2.51,2.88,1.05,8.3,2.53,11.82a305.44,305.44,0,0,1-43.49-15.85c-6.37-2.82-11.37-5.25-18.8-8.84-.74-.36-1.7-.29-2.22-.93a3.26,3.26,0,0,1-.37-2.41c.19-1.76-.08-8.75,2-9.65.51-.23,1.25.4.89.84"/><g id="Artwork_61" data-name="Artwork 61"><g class="cls-37"><g class="cls-37"><path d="M397.57,232.14a7,7,0,0,0,1.61,1.93,6.25,6.25,0,0,0,2.27,1.25,3.51,3.51,0,0,0,2.72-.43l.47-.32a1.6,1.6,0,0,0,.75-.85,1.09,1.09,0,0,0-2-.84,1.06,1.06,0,0,0,.16,1.28h0a1.09,1.09,0,0,0,1.5,0,1.07,1.07,0,0,0,0-1.5h0c.06.43.11.85.16,1.28l0,0-.4.39,0,0h-1l-.52-.93v0l.15-.51c.29-.26.37-.35.23-.25l-.09.07-.17.12-.37.24-.21.11s-.23.12-.08.05-.06,0-.09,0l-.23.06c-.25.05.21,0,0,0h-.18s-.16,0-.17,0l.1,0-.1,0-.37-.11s-.13,0-.16-.07l.09,0-.1,0a6.52,6.52,0,0,1-.72-.43l-.15-.11c-.18-.13,0,0,0,0s-.32-.27-.35-.3a6.2,6.2,0,0,1-.55-.6c-.1-.12-.08-.07,0,0a.85.85,0,0,1-.14-.19l-.24-.39a1.06,1.06,0,0,0-1.44-.41,1.08,1.08,0,0,0-.41,1.44"/><path d="M384.31,244.42s2.75,7.17,9.69,6,10.33-9.36,8.63-16c0,0-1.34-1.75-2.86,1.17s-7.46,9.46-15.46,8.89"/><path class="cls-31" d="M398.62,235.63c.86,3.8-2.31,8.81-6.2,10.31-2.71,1.05-4.55-.64-5.6-2.22,5.82-1,10.14-5.43,11.8-8.09"/><path class="cls-38" d="M403,239.72c-.53,4.21-2.81,8.15-6.5,9.88a10,10,0,0,1,1.79-6.44,7.46,7.46,0,0,1,4.71-3.44"/><path d="M382,245.24a15.73,15.73,0,0,0,8.85-1.14,24.81,24.81,0,0,0,7.86-5.61,9.94,9.94,0,0,0,2.73-4.09,1.06,1.06,0,0,0-2-.58,7.17,7.17,0,0,1-1.91,2.9,31.14,31.14,0,0,1-3.31,3,17.34,17.34,0,0,1-7.37,3.44,12.33,12.33,0,0,1-4.24.07,1.08,1.08,0,0,0-1.3.72,1.06,1.06,0,0,0,.73,1.31"/></g></g></g><path class="cls-30" d="M396.08,190.12c1.88-.66,5-2,7-2.05-.84,0,3.89,17.48,4.41,18.87,2.8,7.57,6.25,17.27,12.25,22.85,4.28,4,10.71,7.22,16.89,5.91-3.2,3.09-8.54,5.34-13.51,4.22a15.78,15.78,0,0,1-7.73-4.36,43.79,43.79,0,0,1-7-9.3,89.75,89.75,0,0,1-4.41-10c-2.63-7-4.62-14.26-6.6-21.49-.42-1.53-.84-3.07-1.27-4.6"/><path d="M394.71,191.24c.53,5.71,2.61,11,4.61,16.38a125.52,125.52,0,0,0,6.58,15.16A67.81,67.81,0,0,0,413,233.43a23.32,23.32,0,0,0,8.62,7.09c4.6,2,9.41,1,13.54-1.62,1.38-.87.11-3.06-1.27-2.19-3.31,2.09-7.06,3.09-10.84,1.68-3.21-1.21-5.79-3.77-7.94-6.36-5.79-7-9.58-15.28-12.78-23.68-2.1-5.52-4.5-11.18-5.05-17.11-.15-1.61-2.68-1.63-2.53,0Z"/><path class="cls-29" d="M183.75,390.26C175.85,404.8,160.93,416,152,420.64c-14,7.24-15.31,9.52-26.09,20.56C120.3,447,69.88,514.63,62,517.15c-5,1.58-11-9.93-16.19-10.91C28,502.88-2.5,502.16-19.27,493.13-8,481.76,58.6,411.59,62,396.21c2.16-9.62-1.26-19.72,0-29.56,7.54-59,2.08-47.36.53-72.89-.2-3.37,2.39-10.1,4.93-12.41,4.09-3.71,11.35-1.28,15.15,2.91s5.64,9.64,9.23,14c6,7.27,13.05,6.86,22.15,7.26,5.45.24,8.26-1.28,13.21-3.09s10-2.7,14.72-4.71c5.67-2.39,10.63-6.16,15.52-9.89,7.33-5.59,14.69-11.21,21.18-17.76s9.91-15.36,15.85-22.41a36.48,36.48,0,0,1,8.38-7.75,16.82,16.82,0,0,1,10.9-2.74,11,11,0,0,1,8.84,6.44c1.7,4.3,0,9.14-2.06,13.3a92.69,92.69,0,0,1-9.35,15.21c-3.71,4.91-8.59,13-12.39,17.78-8.13,10.11-15.25,16.68-21.75,27.91"/><path class="cls-29" d="M176.05,394.86a8.62,8.62,0,0,0,3.81-1.38l9.91-5.52a62,62,0,0,0,10.33-6.71,20.47,20.47,0,0,0,6.77-10.09,10.28,10.28,0,0,0-.76-7.78c-1.37-2.29-4.26-3.77-6.82-3a55.85,55.85,0,0,0,12.82-20.53,18.2,18.2,0,0,0,1.27-6.85,8,8,0,0,0-3-6.09,5.18,5.18,0,0,0-6.45.21,24.4,24.4,0,0,0,7-16.76c0-3.9-1.3-8.33-4.87-9.9a9.62,9.62,0,0,0-4.55-.61,25.42,25.42,0,0,0-14.2,6.1c-11.34,9.35-22.09,28.25-18.07,43.31"/><path class="cls-39" d="M77.27,365.67l2.17-145.85c.11-8.38,6.63-15.33,14.56-15.53l72.55-.45c11.14.38,15.81,10.81,15.7,19.18l-2.9,142.54c-.15,11.4-4.75,20.18-15.54,20.46l-67.27-.21C85.75,386.09,77.12,377.07,77.27,365.67Z"/><polygon class="cls-40" points="87.56 360.25 88.4 226.38 170.41 225.99 168.66 359.17 87.56 360.25"/><g class="cls-41"><path class="cls-42" d="M123.22,215h0a1.45,1.45,0,0,1,1.36-1.45l17-.43a1.32,1.32,0,0,1,1.32,1.38h0a1.45,1.45,0,0,1-1.36,1.45l-17,.43A1.32,1.32,0,0,1,123.22,215Z"/></g><path class="cls-42" d="M118.61,215.21V215a1.32,1.32,0,0,1,1.24-1.33h0a1.2,1.2,0,0,1,1.21,1.27v.23a1.33,1.33,0,0,1-1.25,1.33h0A1.21,1.21,0,0,1,118.61,215.21Z"/><path class="cls-43" d="M114.43,372.21h0a5.38,5.38,0,0,1,5.08-5.35l17.61-.33a4.9,4.9,0,0,1,4.88,5.16h0a5.37,5.37,0,0,1-5.08,5.35l-17.62.33A4.89,4.89,0,0,1,114.43,372.21Z"/><path class="cls-29" d="M182.78,338.54c5-5.51,10.26-11.21,16.54-13.5s13.82.17,15.52,7.29c1.83,7.64-3.61,16.12-9.43,21.27a48.13,48.13,0,0,1-16.55,9.71c-4.3,1.42-9.33,1.86-12.09-1.75-2.29-3-2.21-8-.76-12.11A32.41,32.41,0,0,1,182.78,338.54Z"/><path class="cls-29" d="M179.65,369.2c4.66-5.14,9.58-10.47,15.46-12.61s12.91.15,14.5,6.81c1.7,7.13-3.37,15.06-8.82,19.87a44.93,44.93,0,0,1-15.46,9.07c-4,1.33-8.72,1.75-11.3-1.63-2.13-2.8-2.06-7.44-.7-11.32A30.21,30.21,0,0,1,179.65,369.2Z"/><path class="cls-29" d="M181.41,309.13c4.4-4.38,9-8.9,14.77-10.78s12.95-.19,15.59,5.42c3,6.42-1.12,14.24-6.08,19.35A51.9,51.9,0,0,1,188.23,335c-3.82,1.57-8.34,2.58-11.77.33-3.86-2.54-4.68-8.42-3.08-13A33.46,33.46,0,0,1,181.41,309.13Z"/><path class="cls-29" d="M66.91,304.37c-.42-6.2-4.55-11.9-2.19-17.47,1.83-4.33,6.84-9.26,12-8.57,19.17,2.55,16.53,36.38,13.75,49.19-.61,2.82-1.39,5.67-1.17,8.55.33,4.52,3,8.46,5.47,12.3,5,7.82,9,16.52,10.39,25.75,1.1,7.52.93,20.16-6.16,25a18.71,18.71,0,0,1-6.15,2.34,26,26,0,0,1-8.09,1.13c-5.88-.45-10.84-5-13.3-10.35s-2.85-11.4-2.86-17.29c0-12,1.33-24,1.09-36.07-.13-6.05-.38-12.55-2-18.4C66.18,315.24,67.29,310,66.91,304.37Z"/><path d="M110.91,433.85a28.64,28.64,0,0,1-7.26-2.88,1.67,1.67,0,0,1-.65-2.29,1.69,1.69,0,0,1,2.29-.65c12.85,7.2,29.75,2.6,51.66-14.06a284.34,284.34,0,0,0,27.37-23.18,1.68,1.68,0,0,1,2.38,0,1.7,1.7,0,0,1,0,2.39A285.65,285.65,0,0,1,159,416.65C139.68,431.34,123.85,437,110.91,433.85Z"/><path d="M76.37,281.32c6.55,2.43,10.93,8.74,13.15,15.11,2.57,7.41,2.38,15.46,1.47,23.16-.47,4-1.17,8-1.93,12s.06,7.45,1.48,11.16a47.88,47.88,0,0,0,2.32,5.65c1,1.87,2.24,3.61,3.32,5.43a62.87,62.87,0,0,1,5.3,11.11c3.18,9,4,19.16.43,28.17a2,2,0,0,0,.73,2.58,1.91,1.91,0,0,0,2.58-.73A43.15,43.15,0,0,0,106.4,368a60.34,60.34,0,0,0-4.8-12.23q-1.48-2.88-3.2-5.62a30.51,30.51,0,0,1-3.16-5.66c-1.26-3.45-3.12-7-2.7-10.82.21-2,.73-4,1.07-5.93s.69-4.24,1-6.36c1-8.27,1.46-16.91-1.06-25s-8-15.71-16.22-18.78A1.9,1.9,0,0,0,75,279a1.93,1.93,0,0,0,1.38,2.29Z"/><path d="M62.46,388.08A18.2,18.2,0,0,0,68.75,400c4,3.53,9,5.49,14.09,7,2.33.72,3.23-3,.9-3.68C76.35,401.05,67,396.81,66.25,388c-.21-2.42-4-2.33-3.79.11Z"/><path d="M100.75,410.11a54.77,54.77,0,0,1,31.27-14c2.41-.24,2.33-4-.11-3.79A59,59,0,0,0,98,407.47c-1.8,1.65.93,4.28,2.72,2.64Z"/><path d="M180.57,313.81a146.38,146.38,0,0,1,16.21-13.51,2,2,0,0,0,.64-2.61,1.91,1.91,0,0,0-2.6-.64,154.94,154.94,0,0,0-17,14.13c-1.76,1.69,1,4.33,2.73,2.63Z"/><path d="M202.64,321.66c-5.84,7.11-14.33,11.1-22.59,14.68a2,2,0,0,0-1.28,2.36,1.91,1.91,0,0,0,2.36,1.28c8.84-3.84,18-8.07,24.23-15.68a1.94,1.94,0,0,0,0-2.68,1.91,1.91,0,0,0-2.68,0Z"/><path d="M204.13,352c-6.62,6.41-15.13,10.49-23.88,13.14-2.33.71-1.26,4.35,1.08,3.64,9.37-2.84,18.44-7.28,25.53-14.15,1.75-1.7-1-4.33-2.73-2.63Z"/><path d="M171.14,383.45c-.73,3.58,1.38,6.85,4.52,8.47a15.79,15.79,0,0,0,9.9,1.28c6.9-1.18,12.29-6.06,16.68-11.21,1.58-1.85-1.14-4.5-2.72-2.64-3.53,4.15-7.62,8.2-13,9.75a13.39,13.39,0,0,1-7.58.09c-2.07-.62-4.64-2.33-4.13-4.84s-3.2-3.3-3.68-.9Z"/><path d="M130,282.91l17.59-14.09a2,2,0,0,0,.09-3.06l-2.88-2.63Z"/><path class="cls-35" d="M114.54,266.24,112.88,268a3.68,3.68,0,0,0,.3,5.35l11.73,9.91a3.68,3.68,0,0,0,5.12-.35l18.89-21a3.69,3.69,0,0,0,0-5l-3.21-3.46a3.7,3.7,0,0,0-5.67.32l-13.93,18.78-6.21-6.38a3.68,3.68,0,0,0-5.32,0"/><path class="cls-35" d="M109.87,294.29l-.18,6.81a.68.68,0,0,0,.7.65.69.69,0,0,0,.66-.7l.18-6.81a.69.69,0,0,0-.7-.66.7.7,0,0,0-.66.71Z"/><path class="cls-35" d="M111.09,294.88l.29-.09h.45l.16,0,.29.07.06,0-.06,0,.14.07.26.14s0,0,.06,0l0,0,.12.1a2.09,2.09,0,0,1,.2.22c0,.05,0-.05,0-.05s0,0,0,.05a1,1,0,0,1,.08.14s.06.08.05.09,0-.13,0-.05l0,.08s0-.11,0-.11,0,0,0,0,.05-.1,0,0l-.09.17-.09.15s-.11.14,0,.07,0,0-.06.06a.64.64,0,0,1-.13.15l-.21.22-.11.1-.06,0s.12-.09,0,0a3.55,3.55,0,0,1-.62.38s-.09,0,0,0,0,0,0,0l-.16.06-.39.11a.69.69,0,0,0-.45.85.7.7,0,0,0,.85.45,4.44,4.44,0,0,0,2.7-2,1.49,1.49,0,0,0,.21-1.18,2.2,2.2,0,0,0-.52-.83,3,3,0,0,0-1.39-.85,2.94,2.94,0,0,0-1.83.06.69.69,0,0,0-.45.85.68.68,0,0,0,.84.45Z"/><path class="cls-35" d="M116.11,301.58c.16-1.21.3-2.43.48-3.64a6.34,6.34,0,0,1,1-3.06l-1,0c1.92,1.55,1.8,4.23,1.7,6.46a.69.69,0,0,0,.7.66.69.69,0,0,0,.66-.7c.12-2.59.09-5.62-2.12-7.4a.69.69,0,0,0-1,0,7.31,7.31,0,0,0-1.3,3.43c-.2,1.29-.34,2.6-.51,3.89a.7.7,0,0,0,.5.82.68.68,0,0,0,.82-.5Z"/><path class="cls-35" d="M116,300.22l2.84-1.22a.77.77,0,0,0,.39-.32.66.66,0,0,0,.06-.53.69.69,0,0,0-.85-.45l-2.83,1.22a.74.74,0,0,0-.4.32.7.7,0,0,0,0,.53.69.69,0,0,0,.84.45Z"/><path class="cls-35" d="M121.24,294.51a28.85,28.85,0,0,1,.16,6.76.68.68,0,0,0,.7.66.7.7,0,0,0,.65-.71,28.24,28.24,0,0,0-.15-6.75.69.69,0,0,0-.7-.66.69.69,0,0,0-.66.7Z"/><path class="cls-35" d="M125,294.27q.17,3.48.14,7c0,.87,1.35.83,1.35-.05,0-2.32,0-4.63-.13-6.95a.68.68,0,0,0-1.36,0Z"/><path class="cls-35" d="M125.81,295a2.65,2.65,0,0,1,2.31.37,2.49,2.49,0,0,1,.51,2.06c-.14,1.15-.77,3.73-2.45,3.11a.67.67,0,0,0-.82.5.69.69,0,0,0,.5.82,2.69,2.69,0,0,0,2.91-1,6.42,6.42,0,0,0,1.2-3.27,3.89,3.89,0,0,0-.84-3.15,3.69,3.69,0,0,0-3.37-.83.71.71,0,0,0-.66.7.7.7,0,0,0,.71.66Z"/><path class="cls-35" d="M134.88,294.87a50.86,50.86,0,0,1,2.57,6.31.69.69,0,0,0,1.31,0q.83-3.27,1.46-6.58c.16-.86-1.16-1.18-1.33-.32-.41,2.21-.9,4.4-1.45,6.58l1.31,0a52.24,52.24,0,0,0-2.71-6.62.68.68,0,0,0-.93-.23.7.7,0,0,0-.23.94Z"/><path class="cls-35" d="M141.57,294.58c0,2.21-.12,4.43-.24,6.64a.67.67,0,0,0,.7.65.69.69,0,0,0,.65-.7q.19-3.32.25-6.64c0-.87-1.34-.83-1.36.05Z"/><path class="cls-35" d="M146,301.14a34,34,0,0,1,.47-3.63c.12-.61.25-1.22.39-1.82,0-.18.09-.37.14-.55a1.32,1.32,0,0,0,.11-.41c-.1-.59.06,0,0-.09-.31,0-.38.06-.2.12l.13.08c.62.45.74,1.44.86,2.15.22,1.26.44,2.53.65,3.79a.68.68,0,1,0,1.3-.39c-.25-1.45-.44-2.93-.76-4.37-.22-1-.76-2.32-1.93-2.61-.74-.18-1.2.35-1.39,1s-.38,1.48-.53,2.22a38.74,38.74,0,0,0-.62,4.56.68.68,0,0,0,.7.65.69.69,0,0,0,.66-.7Z"/><path class="cls-35" d="M146.29,299.26l2-.66a.7.7,0,0,0,.4-.32.67.67,0,0,0,0-.52.7.7,0,0,0-.85-.46l-2,.66a.68.68,0,0,0,.39,1.3Z"/><path class="cls-40" d="M220.15,181.81v8.13a2.77,2.77,0,0,1-2.76,2.76h-7.15a2.75,2.75,0,0,0-2.76,2.76v6.17a2.76,2.76,0,0,1-2.76,2.76h-8.13a2.76,2.76,0,0,1-2.76-2.76v-6.17a2.75,2.75,0,0,0-2.75-2.76H184.9a2.76,2.76,0,0,1-2.76-2.76v-8.13a2.76,2.76,0,0,1,2.76-2.76h6.18a2.75,2.75,0,0,0,2.75-2.75v-7.16a2.77,2.77,0,0,1,2.76-2.76h8.13a2.77,2.77,0,0,1,2.76,2.76v7.16a2.75,2.75,0,0,0,2.76,2.75h7.15A2.77,2.77,0,0,1,220.15,181.81Z"/><path class="cls-40" d="M249,143.58v4.34a1.47,1.47,0,0,1-1.47,1.47h-3.81a1.47,1.47,0,0,0-1.47,1.47v3.29a1.48,1.48,0,0,1-1.48,1.48H236.4a1.47,1.47,0,0,1-1.47-1.48v-3.29a1.47,1.47,0,0,0-1.47-1.47h-3.3a1.47,1.47,0,0,1-1.47-1.47v-4.34a1.47,1.47,0,0,1,1.47-1.47h3.3a1.47,1.47,0,0,0,1.47-1.47v-3.82a1.47,1.47,0,0,1,1.47-1.47h4.33a1.47,1.47,0,0,1,1.48,1.47v3.82a1.47,1.47,0,0,0,1.47,1.47h3.81A1.47,1.47,0,0,1,249,143.58Z"/><path class="cls-40" d="M211.28,118.09v4.33a1.47,1.47,0,0,1-1.47,1.48H206a1.47,1.47,0,0,0-1.47,1.47v3.29a1.47,1.47,0,0,1-1.47,1.47h-4.34a1.47,1.47,0,0,1-1.47-1.47v-3.29a1.47,1.47,0,0,0-1.47-1.47h-3.29a1.48,1.48,0,0,1-1.48-1.48v-4.33a1.47,1.47,0,0,1,1.48-1.47h3.29a1.47,1.47,0,0,0,1.47-1.47v-3.82a1.47,1.47,0,0,1,1.47-1.47h4.34a1.47,1.47,0,0,1,1.47,1.47v3.82a1.47,1.47,0,0,0,1.47,1.47h3.82A1.47,1.47,0,0,1,211.28,118.09Z"/><circle class="cls-35" cx="105.9" cy="312.31" r="6.46"/><path class="cls-44" d="M109.66,312.11a1.51,1.51,0,0,0-1.57-1.42H104a.27.27,0,1,1,0-.53h4.14a1.29,1.29,0,0,0-1-1.19,10.59,10.59,0,0,0-3.64,0,1.72,1.72,0,0,0-1.29,1.44,12.87,12.87,0,0,0,0,3.82,1.82,1.82,0,0,0,1.47,1.44,18.9,18.9,0,0,0,4.51,0,1.59,1.59,0,0,0,1.25-1.36A10.33,10.33,0,0,0,109.66,312.11Zm-1.34.9v.24a.27.27,0,0,1-.54,0V313a.4.4,0,1,1,.54,0Z"/><path class="cls-35" d="M116,316.72l1.43-1.19a2.77,2.77,0,0,0,2.42,1.17,1.78,1.78,0,0,0,2-1.69v-.52h0a3.05,3.05,0,0,1-2.32.87,3.76,3.76,0,1,1-.06-7.51,3.25,3.25,0,0,1,2.38.84h0V308h1.93v7c0,2-1.6,3.45-3.88,3.45A4.65,4.65,0,0,1,116,316.72Zm5.72-4.71v-.84a1.84,1.84,0,0,0-2-1.56,2,2,0,0,0-2.17,2,1.9,1.9,0,0,0,2.09,2A1.84,1.84,0,0,0,121.75,312Z"/><path class="cls-35" d="M124.75,311.58a4.06,4.06,0,1,1,4.05,3.8A3.83,3.83,0,0,1,124.75,311.58Zm6.1,0a2.05,2.05,0,1,0-2,2A1.95,1.95,0,0,0,130.85,311.58Z"/><path class="cls-35" d="M133.94,308h1.93v.64h0a3.16,3.16,0,0,1,2.31-.84,3.8,3.8,0,0,1,0,7.6,3.45,3.45,0,0,1-2.25-.76h0v3.6h-2Zm6,3.6a1.93,1.93,0,0,0-2-2,1.81,1.81,0,0,0-2,1.56V312a1.8,1.8,0,0,0,2,1.58A1.93,1.93,0,0,0,139.94,311.58Z"/><path class="cls-35" d="M142.57,313.23c0-1.33.87-2,3.16-2.34,1.34-.19,1.71-.38,1.71-.74s-.51-.75-1.28-.75a1.71,1.71,0,0,0-1.79,1.28l-1.9-.39a3.45,3.45,0,0,1,3.64-2.51c2.1,0,3.4,1.07,3.4,2.82v4.57h-1.8v-.78h0a3,3,0,0,1-2.43,1C143.65,315.38,142.57,314.51,142.57,313.23Zm5-.73v-.85h0c-.17.25-.55.4-1.53.58-1.18.22-1.6.45-1.6.87s.35.62,1.11.62C146.72,313.72,147.6,313.19,147.6,312.5Z"/><path class="cls-35" d="M153.15,314.78l-3.33-6.8H152l2.19,4.7h0l2.16-4.7h2.22l-5,10.24h-2.21Z"/></g></g></svg>