<svg xmlns="http://www.w3.org/2000/svg" xmlns:xlink="http://www.w3.org/1999/xlink" viewBox="0 0 550 550"><defs><style>.cls-1{fill:none;}.cls-2{fill:#185228;}.cls-3{fill:#8c8c8c;}.cls-4{fill:#f4a9ae;}.cls-5{clip-path:url(#clip-path);}.cls-6{fill:#f8a9af;}.cls-7{fill:#0dab4c;}.cls-8{fill:#fff;}.cls-9{fill:#1c5229;}.cls-10{clip-path:url(#clip-path-3);}.cls-11{fill:#34badb;}.cls-12{fill:#b1dfec;}.cls-13{clip-path:url(#clip-path-5);}.cls-14{fill:#efd13f;}.cls-15{fill:#f9e876;}.cls-16{fill:#606060;}.cls-17{fill:#d28170;}.cls-18{fill:#7b8086;}.cls-19{clip-path:url(#clip-path-6);}.cls-20{fill:#6b6a6a;}.cls-21{fill:#a9552f;}.cls-22{fill:#14b8dd;}.cls-23{fill:#ec445d;}</style><clipPath id="clip-path"><rect class="cls-1" x="369.96" y="143.2" width="47.27" height="37.45" transform="matrix(0.07, -1, 1, 0.07, 202.67, 542.3)"/></clipPath><clipPath id="clip-path-3"><rect class="cls-1" x="465.5" y="155.97" width="8.85" height="16.75" transform="translate(234.62 603.07) rotate(-81.07)"/></clipPath><clipPath id="clip-path-5"><circle class="cls-1" cx="295" cy="275" r="240"/></clipPath><clipPath id="clip-path-6"><rect class="cls-1" x="185.11" y="142.87" width="47.27" height="37.45" transform="translate(7.32 332.23) rotate(-78.01)"/></clipPath></defs><g id="Layer_19" data-name="Layer 19"><circle class="cls-2" cx="295" cy="275" r="240"/><path d="M437.19,509.06c-3.37,4.85-10.6,4.2-16.13,6.28a15.92,15.92,0,0,0-7.7,6.2,3.53,3.53,0,0,0-.66,1.62c-.17,2,2.46,3,4.49,3.21a226.67,226.67,0,0,0,25.12,1.49c3.75,0,7.79-.15,10.79-2.42,2.65-2,4-5.36,4.3-8.67a35.86,35.86,0,0,0-.92-9.88,38,38,0,0,0-10.12-.95C443,506.23,438.78,506.77,437.19,509.06Z"/><path d="M495.29,503.89c.85,2.53,1.7,5.27.88,7.8-1.09,3.37-4.64,5.14-7.66,7a40.2,40.2,0,0,0-8.88,7.35,6.45,6.45,0,0,0-1.81,3.07c-.36,2.11,1.36,4.13,3.38,4.84a12.75,12.75,0,0,0,6.35.06,105.51,105.51,0,0,0,15.24-3.82c3.4-1.13,6.93-2.57,9.08-5.44,3.1-4.12,2.44-9.87,1.41-14.92a8.42,8.42,0,0,0-1.47-3.82,6.9,6.9,0,0,0-3.1-2A21.6,21.6,0,0,0,495.29,503.89Z"/><path class="cls-3" d="M433.86,315.24c-4.83,14.51-4.76,30.14-4.64,45.43l1,128.16c.07,8.85,1.11,19.42,8.92,23.6,4.68,2.51,10.36,1.78,15.62,1,2.76-.42,5.75-1,7.65-3,2.15-2.33,2.21-5.83,2.18-9-.52-58.78,2.48-95.78.48-146.78,4,62,14.81,97.66,23.83,146,.38,2.05.84,4.24,2.33,5.69a10,10,0,0,0,4.24,2.1c8.11,2.49,18.73,3.73,23.42-3.34,2.46-3.71,2.28-8.51,2-12.95L510.6,320.34c-.18-3-.42-6.16-2.13-8.63-2.38-3.44-6.89-4.53-11-5.37-11.11-2.28-22.38-4.56-33.71-3.9S437.25,305,433.86,315.24Z"/><path class="cls-4" d="M515.51,326.93c-.54,2.19-2,3.35-3.34,5-1.55,1.91-2.61,4-4.5,5.67a6.23,6.23,0,0,0-1.44,1.55,1.73,1.73,0,0,0,.11,2,2.25,2.25,0,0,0,1.07.53c1.64.45,5.72-.5,5.52,2.39a3.29,3.29,0,0,1-1.28,2.22c-.67.56-1.45,1-2.17,1.48-3,2.11-5.21,5.89-2.21,9,2.13,2.18,6.06,1.76,8.64.73a24.32,24.32,0,0,0,10.65-8.7c3.65-5.22,5.5-11.51,6.43-17.81a8,8,0,0,0-.3-4.64c-1.09-2.25-2.56-1.33-4.33-1.54-2.64-.33-4.77-1.76-7.59-1.49S516,325.13,515.51,326.93Z"/><g id="front_palm" data-name="front palm"><g class="cls-5"><g class="cls-5"><path class="cls-6" d="M395.9,185.8l-.11-7.48s3.53-2.1,4.5-5,5.94-5,8.76-5.41,4.55-4.55,1.6-5.61-6.08.13-7.92,1.09-3.54-.1-3.55-2.21.27-11.44.37-15-1.06-5.05-3.17-4.95-2.14,3.8-2.44,8.92,0,7.67-.63,7.62-.46-3.15-.34-9.3.16-9.93-1.83-10.42-3.84.56-3.83,6.12.28,12-.53,12.61-1.47-5.17-1.48-9.47-.61-5.36-2-5.55-3.41,1.68-3.33,7.34a2.33,2.33,0,0,0-2.17-1.43c-1.68,0-2.59,3-2.21,9.28s1.84,6.88,1.83,10.33,1.39,8.46,6,10.4l-.79,7.08Z"/><path d="M390.78,171a7,7,0,0,1,2.34-3.67,5.71,5.71,0,0,1,4.2-1.56.66.66,0,0,0,.1-1.31c-3.71-.29-7.22,2.93-7.95,6.44a.66.66,0,0,0,.61.7.68.68,0,0,0,.7-.6"/><path d="M384.79,164.68a17.74,17.74,0,0,1,7.45-.8c.84.09.94-1.22.1-1.31a18.74,18.74,0,0,0-7.8.83.68.68,0,0,0-.52.77.65.65,0,0,0,.77.51"/><path d="M392.12,179.25a8.64,8.64,0,0,0,5.13-1.26.69.69,0,0,0,.31-.88.67.67,0,0,0-.88-.3,7.52,7.52,0,0,1-4.46,1.14.65.65,0,0,0-.1,1.3"/><path d="M379.23,149.67a17.31,17.31,0,0,0,1.31,8.15.66.66,0,0,0,1.18-.57,15.78,15.78,0,0,1-1.18-7.48c0-.84-1.28-.94-1.31-.1"/></g></g></g><path class="cls-7" d="M415.56,223.55c1.56-11.13,3.95-9.25,8.32-21.33,3.4-9.4,10.55-13.93,18.57-19.9,10.07-7.5,23.56-7.92,36.12-8,6.51-.06,13.17-.09,19.31,2.08a37.2,37.2,0,0,1,10.22,5.79c9.57,7.38,16.47,17.77,21.31,28.84s7.72,22.88,10.44,34.66c1.71,7.46,3.37,15,3.88,22.61,1.09,16.53-3.25,32.89-7.55,48.89-.88,3.29-2,6.89-4.87,8.71a13.73,13.73,0,0,1-6,1.58l-6.19.65a5.84,5.84,0,0,1-6.38-6.66c2.57-17.49,6.81-44.44.9-70.86,4.09,48.08,3,50.69.11,61.79a4.47,4.47,0,0,1-1.34,2.54,4.66,4.66,0,0,1-2.32.72c-11.88,1.45-27.8,2.9-39.77,2.9A148.34,148.34,0,0,1,449.22,317c-3.57-.52-6.64.37-10.17-.38-2.83-.6-6-1.62-7.95-4.26a13.11,13.11,0,0,1-2-5c-2.56-11.41-2-23.21.35-34.51.54-2.58,1.64-5.45,1.64-8.08,0-2.11.61-4.19.67-6.35.15-5.37.35-10.75.88-16.1-1.76,7.2-5.61,17.72-10.28,23.48s-13,9.28-19.7,6.14c-4.69-2.19-7.54-7-9.94-11.56a129.2,129.2,0,0,1-9.35-22.09,190,190,0,0,1-5.7-24.24c-1.21-7.27-3.47-16.44-1.91-23.75a7.66,7.66,0,0,1,.22-.86,5.9,5.9,0,0,1,1.18-2,3.69,3.69,0,0,1,1.56-1.29c.67-.2,1.37-.18,2.08-.39a49.07,49.07,0,0,1,13.84-2.12c1,0,2.37-.33,3.23.13a6,6,0,0,1,2.29,2.72c1.84,3.79,2.84,8.19,4.41,12.13,3.33,8.35,7.14,16.52,11.08,24.6"/><path d="M376.11,191.91c6.43-2.06,13.2-2.44,19.89-2.8l5.05-.27a11.18,11.18,0,0,0-1.39-5.64,3.8,3.8,0,0,0-1.27-1.47,3.89,3.89,0,0,0-1.84-.39,58.89,58.89,0,0,0-15.87,1.49,7.32,7.32,0,0,0-2.25.81c-2.23,1.37-2.84,4.55-3,7.35C375.41,191.53,375.62,192.07,376.11,191.91Z"/><path d="M535.85,317.24c-5.73,2.51-11.89,3.36-18,4.19l-4.6.62a12,12,0,0,0,1.7,5.53,3.74,3.74,0,0,0,1.27,1.37,3.39,3.39,0,0,0,1.72.26,49.67,49.67,0,0,0,14.4-2.59,11.16,11.16,0,0,0,2.69-1c1.94-1.52,1.56-4.7,1.48-7.51C536.52,317.58,536.29,317.05,535.85,317.24Z"/><path d="M458.61,163.47a4.17,4.17,0,0,1,.8,7.77,5,5,0,0,1-3.85,7.83,3.78,3.78,0,0,1-1.34,6.71,2.78,2.78,0,1,1-2.56-.91,4.28,4.28,0,0,1,.43-7.35,4.22,4.22,0,0,1,2.18-7.58,4.2,4.2,0,0,1-.43-6.26C455.62,162.06,458.86,162.58,458.61,163.47Z"/><path d="M452.48,190.53A7.33,7.33,0,0,1,453,198a7.07,7.07,0,0,1-6.52,3.73,3.75,3.75,0,0,1-1.56.07,1.29,1.29,0,0,1-1-1c-.06-.68.58-1.18,1.06-1.67,2-2.05,1.48-5.37,2.36-8.07a4.59,4.59,0,0,1,1.44-2.25,2.53,2.53,0,0,1,2.55-.41A2.33,2.33,0,0,1,452.48,190.53Z"/><path class="cls-4" d="M487.65,171.57c.61,5-.14,10.34-3.85,13.54-3.3,2.84-8.6,3.44-13.19,1.77a18.1,18.1,0,0,1-10.21-9.64,17.07,17.07,0,0,1-.21-12.92l27.64,6.18c-.13.52-.27,1-.4,1.55C487.41,172.08,487.4,172.11,487.65,171.57Z"/><path class="cls-4" d="M483,172.86a23.13,23.13,0,0,1-13,2.79,17.94,17.94,0,0,1-11.79-5.93,21.4,21.4,0,0,1-4.57-11.59c-.46-4.19-1.12-9.92-.75-14.11a102.8,102.8,0,0,1,2.69-17.16c.44-1.94.43-4.14,1.83-5.56,1.75-1.8,4.61-1.75,7.11-1.52,4.92.45,9.82,1.14,14.67,2,5.61,1.05,11.48,2.56,15.5,6.61,3.49,3.52,5.12,8.59,5.17,13.54a37.32,37.32,0,0,1-3.26,14.39C493.83,163,489.48,169.4,483,172.86Z"/><path d="M493.64,172.43a3.44,3.44,0,0,1,.86,4.7,4.16,4.16,0,0,0-.66,1c-.31.82.23,1.67.52,2.5a4.68,4.68,0,0,1-3.3,5.9,4.94,4.94,0,0,1,1.94,3.32,3.16,3.16,0,0,1-2.44,3c1.25,0,1.77,1.87,1,2.88a4,4,0,0,1-3.4,1.2,4.81,4.81,0,0,1-2.65-.75,2.34,2.34,0,0,1-1-2.42,1.58,1.58,0,0,1,2.19-1,3.35,3.35,0,0,1,.37-6.58,3.44,3.44,0,0,1,.71-6.75,4.73,4.73,0,0,1-.43-6.68C489.1,170.89,492.05,171.38,493.64,172.43Z"/><path d="M488.89,195.54a3.12,3.12,0,0,1,2.53,1.07,5.57,5.57,0,0,1,1.24,2.53,9.48,9.48,0,0,1-10.75,11.55,1.71,1.71,0,0,1-1.13-.54,1.34,1.34,0,0,1,.16-1.51,10.24,10.24,0,0,1,1.17-1.11,6.39,6.39,0,0,0,1.62-3.77c.18-1.38.15-2.78.38-4.15A5.7,5.7,0,0,1,486,196a3,3,0,0,1,3.82,0C490,196,489.73,196.26,488.89,195.54Z"/><path d="M459.86,134.79a1.48,1.48,0,0,1-.94-.33,1.5,1.5,0,0,1-.23-2.11,6.25,6.25,0,0,1,8.14-1.56,1.5,1.5,0,0,1-1.6,2.54,3.31,3.31,0,0,0-4.21.9A1.48,1.48,0,0,1,459.86,134.79Z"/><path d="M481.63,139.21a1.5,1.5,0,0,1-1.45-1.13,3.19,3.19,0,0,0-3.77-2.1,1.49,1.49,0,0,1-1.87-1,1.51,1.51,0,0,1,1-1.88,6,6,0,0,1,4.63.57,5.94,5.94,0,0,1,2.91,3.65,1.5,1.5,0,0,1-1.07,1.83A1.65,1.65,0,0,1,481.63,139.21Z"/><path class="cls-8" d="M481.52,143.73c-.14,2.91-5.11,2.89-7.87.5C471.08,139.58,481.27,140.46,481.52,143.73Z"/><path class="cls-8" d="M466.22,141.22c-.13,2.91-5.11,2.89-7.87.5C455.78,137.08,466,138,466.22,141.22Z"/><path d="M467.79,158.24a2.29,2.29,0,0,1-1.63-.7,2,2,0,0,1-.29-.36,2.14,2.14,0,0,1-.53.2,2.29,2.29,0,0,1-2.4-.87,4.29,4.29,0,0,1-.44-3.31,15.65,15.65,0,0,1,3.26-7.18,1,1,0,1,1,1.55,1.27,13.59,13.59,0,0,0-2.84,6.25c-.2,1.18,0,1.63.09,1.79a.27.27,0,0,0,.3.11,1.11,1.11,0,0,0,.62-.6,1,1,0,0,1,1.9.56.89.89,0,0,0,.21.74.29.29,0,0,0,.22.1,1.47,1.47,0,0,0,.89-1.32,1,1,0,0,1,1-1h0a1,1,0,0,1,1,1,3.39,3.39,0,0,1-2.67,3.35Z"/><path d="M519.13,330.14a7.25,7.25,0,0,1-3.13-.63c-3.54-1.68-4.62-6-3.19-12.91a165,165,0,0,0-11.26-101.12,1,1,0,1,1,1.82-.83A167.13,167.13,0,0,1,514.77,317c-1.22,5.87-.52,9.46,2.08,10.69a7.81,7.81,0,0,0,4.37.26,42.07,42.07,0,0,0,12.71-4,1,1,0,1,1,.89,1.79,43.94,43.94,0,0,1-13.32,4.16A17,17,0,0,1,519.13,330.14Z"/><path d="M450.22,318.51a1,1,0,0,1-.3-.05,18.45,18.45,0,0,0-6.08-.45c-2.61.1-5.3.19-7.85-1-8.05-3.68-10.36-16.25-9.94-23.79a98.79,98.79,0,0,1,1.45-11.12c.31-1.87.64-3.8.9-5.7.94-6.81,1.26-13.78,1.58-20.53.19-4.22.39-8.59.74-12.89a246.69,246.69,0,0,1,5.57-35.69,1,1,0,0,1,1.94.45,245.55,245.55,0,0,0-5.51,35.41c-.35,4.26-.55,8.61-.75,12.81-.31,6.79-.64,13.82-1.59,20.71-.26,1.93-.59,3.88-.91,5.76a99.05,99.05,0,0,0-1.43,10.9c-.38,7,1.64,18.6,8.78,21.86,2.11,1,4.46.88,6.94.8a19.85,19.85,0,0,1,6.76.53,1,1,0,0,1-.3,2Z"/><path d="M465.05,318.37a.75.75,0,0,1-.75-.72c-.25-7.29-.59-14.83-.92-22.11-1.67-36.45-3.38-74.13,4.94-109.09a.75.75,0,0,1,.9-.56.74.74,0,0,1,.56.9c-8.28,34.76-6.56,72.34-4.9,108.68.33,7.29.67,14.83.92,22.12a.75.75,0,0,1-.72.78Z"/><path d="M511.81,344.52a.78.78,0,0,1-.26,0c-4.75-1.28-9-5.11-11.67-10.5-2.35-4.74-3.3-10-4.2-15a1,1,0,0,1,.8-1.16,1,1,0,0,1,1.16.81c.89,4.9,1.8,10,4,14.45,2.42,4.88,6.21,8.33,10.4,9.46a1,1,0,0,1-.26,2Z"/><circle cx="475.1" cy="143.46" r="1.5"/><circle cx="459.74" cy="140.98" r="1.5"/><path d="M487.78,144.67a17.91,17.91,0,0,1-3.16-13.44l6.57,1.84a.9.9,0,0,1,.45.24.83.83,0,0,1,.11.52,22.29,22.29,0,0,1-1,7.77,22.34,22.34,0,0,1-2,3.77l-.73-.6"/><path d="M453.8,132.09A18,18,0,0,0,464.17,123l-6.43-2.3a.8.8,0,0,0-.5-.07.78.78,0,0,0-.39.35,22.25,22.25,0,0,0-3.71,6.91,22.37,22.37,0,0,0-.54,4.24l.94-.07"/><path class="cls-7" d="M491.05,180.62c16.72,2.36,29.13-14.88,32.67-29.17,4.16-16.83-1.73-35.75-17.77-43.79-13.36-6.7-28.53-7.93-41.05,1.32a43.78,43.78,0,0,0-17.15,33.22,33.19,33.19,0,0,0,6.6,21.58c-.88-25.19.62-35.95,5.7-40.16,1.31-1.09,5.26-.57,6.76.24.36.2.36-.65,1.77.22,1.55.39,3,1.37,3.33.57a1.25,1.25,0,0,1,2.2-.67c1.12,1.4,7.2,6.77,7.23,2-.54-1,1.63-3.38,3.67-1.68.39.73.86,6.35,2,2.61-.44-2.56,2.41-2,3.89-1.53,2.36.74,5.71,13.09,4.81,15.38-6,15.17.6,8.39-4.16,15.85-2.06,4.7-7,14.23-5.25,20.23C487.1,179.46,488.29,180.23,491.05,180.62Z"/><path class="cls-7" d="M490.91,180.52c-13.49-2.51-7.09-25.91-4-34.32,5.59-11.72,3.77-12.86-8.89-17.58-9.08-3.59-11.75-4-19-6-14.54,4.94-.15,50-6,41-10-16-2.9-54.86,24.33-46.83,16.6,2.07,24.6,6.92,23.95,25C499.91,154.52,502.13,171.72,490.91,180.52Z"/><path class="cls-9" d="M458.84,122.36a5.57,5.57,0,0,0-3.52-1.72,1.26,1.26,0,0,0-.81.14,1.73,1.73,0,0,0-.54.88,85.52,85.52,0,0,0-4.32,15.94,54,54,0,0,0,.48,17.07,20.71,20.71,0,0,0,2.24,6.9c.81,1.41,2.07,2.51,2.68,4.05-1.27-9-1.68-19.19.66-27.89,1.33-4.95,3-9.85,3.51-15"/><path d="M471.41,177.6a16.11,16.11,0,0,1-7.55-1.9,21.71,21.71,0,0,1-9.74-11.62c-1.56-4-2.33-8.67-2.43-14.67-.16-9.71,2.56-18,5.43-26.76a1.5,1.5,0,0,1,2.85.94c-2.79,8.52-5.43,16.56-5.28,25.77.1,5.63.8,10,2.23,13.64a18.78,18.78,0,0,0,8.34,10.05c4,2.11,8.87,2,12.2-.18a1.5,1.5,0,1,1,1.66,2.49A13.86,13.86,0,0,1,471.41,177.6Z"/><path class="cls-9" d="M490.84,134.36c.78.36,3.56,2.71,4.35,3.07a1,1,0,0,1,.65,1.53c-1.73,5.39-3.75,10.68-5.24,16.13s-2.65,11.65-2,17.41a12.39,12.39,0,0,0,2.69,6.72c2,2.31,3.19,1.53,6.21,1.13-5.25.69-10.34.33-13-4.93-2.32-4.6-3.14-10.66-1.28-15.32,3.8-9.48,4.6-17.49,7.57-26"/><path d="M501.71,213.82a323.83,323.83,0,0,1,2.63-34.22c4.92,1.88,8.72,5.84,12,9.92a108.61,108.61,0,0,1,23.06,51.91,10.07,10.07,0,0,1,.06,4,10.7,10.7,0,0,1-3,4.46L517.43,269.8c.57-6.64-1.68-8.77-2.41-14.56-.32-2.51-1.32-9.67-2.53-11.89C507.67,234.54,501.44,225.22,501.71,213.82Z"/><path d="M438.05,206.62c.45-11.59,3.59-23.87,14-29-6,1-18,7.59-24,17-7,11-14,26-13.05,32.58a41,41,0,0,0,2.95,9.41c2.59,6.41,6,12.93,12.23,16.48C432.36,238.05,437.47,221.59,438.05,206.62Z"/><path d="M506.63,355.4a33.34,33.34,0,0,0,7.93-5c.49-.42-.22-1.12-.7-.71a32.67,32.67,0,0,1-7.74,4.87c-.58.26-.08,1.13.51.86Z"/><path d="M510.1,358.31a33.1,33.1,0,0,0,6-3.87,14.66,14.66,0,0,0,4.37-4.57c.31-.56-.55-1.07-.86-.5a14.23,14.23,0,0,1-4.27,4.4,33,33,0,0,1-5.75,3.68c-.59.26-.08,1.12.5.86Z"/><path d="M513.93,347a3.4,3.4,0,0,0,2.47,1.76,4.14,4.14,0,0,0,1.71-.18c.7-.18,1.22.39,1.8.68a4.5,4.5,0,0,0,6-2c.29-.57-.57-1.08-.87-.51a3.53,3.53,0,0,1-2.1,1.8,3.7,3.7,0,0,1-3.11-.56,2.67,2.67,0,0,0-1.27-.51,10.83,10.83,0,0,0-1.47.27,2.41,2.41,0,0,1-2.27-1.31c-.3-.57-1.16-.06-.86.51Z"/><path d="M523.7,349.12a32.65,32.65,0,0,1-3.79,5.26c-.42.49.28,1.2.71.71a34.89,34.89,0,0,0,4-5.47.5.5,0,0,0-.87-.5Z"/><g id="Artwork_46" data-name="Artwork 46"><g class="cls-10"><g class="cls-10"><path d="M462,162.12c1.22,1.64,3.25,2.37,5.06,2.87a10.35,10.35,0,0,0,5.63.11,9.08,9.08,0,0,0,2.88-1.41.93.93,0,0,0,.18-1.18.7.7,0,0,0-1-.16,7.6,7.6,0,0,1-4.35,1.41,11.89,11.89,0,0,1-5-1.18,5.09,5.09,0,0,1-2.08-1.48.73.73,0,0,0-1.06-.17,1,1,0,0,0-.18,1.19"/><path d="M473.77,161.56a3.72,3.72,0,0,0,1.18,2.51,3.13,3.13,0,0,0,1.23.69,5.72,5.72,0,0,0,1.38.15.83.83,0,0,0,.87-.72c.05-.42-.19-.94-.61-1a5.91,5.91,0,0,1-1.26-.11c-.07,0-.11-.07,0,0l-.09,0-.23-.11-.11-.06c-.13-.08,0,0,0,0s-.18-.13-.2-.16a1.29,1.29,0,0,1-.17-.16s-.08-.06-.09-.1.09.12,0,0l-.15-.22a.88.88,0,0,0-.12-.21c.09.09.05.11,0,0a1.12,1.12,0,0,0,0-.13,2,2,0,0,1-.08-.26s0-.08,0-.1,0,.11,0,0a2.91,2.91,0,0,1,0-.31.75.75,0,0,0-.82-.72.88.88,0,0,0-.68.94"/><path d="M464.6,167.42a5.6,5.6,0,0,0,2.94,1,7.72,7.72,0,0,0,3.1-.15.89.89,0,0,0,.68-.95c0-.41-.42-.84-.82-.72a6.54,6.54,0,0,1-2.6.16,4.51,4.51,0,0,1-2.32-.69.73.73,0,0,0-1.07.14.92.92,0,0,0,.09,1.19"/></g></g></g><path d="M459.24,177.89c2.08,3.48,4.74,6.92,8.52,8.64a17.71,17.71,0,0,0,11.47.81,18.62,18.62,0,0,0,6.33-2.79c.78-.56,0-1.86-.76-1.29a18.2,18.2,0,0,1-10.53,3.17,13.85,13.85,0,0,1-9.79-4,26.71,26.71,0,0,1-4-5.26.75.75,0,0,0-1.29.76Z"/><path d="M453.3,182.62c.11,2.34,1.46,4.52,2.85,6.33a18.31,18.31,0,0,0,5.41,4.85,26.5,26.5,0,0,0,16.78,2.92,30.44,30.44,0,0,0,9.31-2.93c.87-.43.11-1.72-.75-1.29a28.3,28.3,0,0,1-15.56,2.87,23.34,23.34,0,0,1-7.75-2.2,16.85,16.85,0,0,1-5.46-4.16c-1.49-1.72-3.21-4-3.33-6.39-.05-1-1.55-1-1.5,0Z"/><path class="cls-11" d="M505.69,130.62a5.06,5.06,0,0,0-1-.22c-1.48-3.55-12.8-30-25.58-39.38,0,0-20.81-3.68-35.89,23.27,0,0,38.33,14.61,54,21.37-1.06,3.45.45,6.94,3.54,8s7-1,8.3-4.57-.16-7.36-3.39-8.43"/><path class="cls-12" d="M450.83,111.57a33.46,33.46,0,0,1,12.38-10.45c5.38-2.52,11.1-2.79,16.64-2.74.82,0,.52,1.39-.3,1.38-5.31,0-10.8.22-15.95,2.64a31.71,31.71,0,0,0-11.82,10c-.55.74-1.49-.1-.95-.84"/><path d="M463.55,338.12c.42,14.33,1.25,28.65,2.58,42.92s3.14,28.38,5.52,42.45,5.31,28.15,9,42c1.75,6.66,3.78,13.25,5.41,19.95.81,3.34,1.52,6.71,2.05,10.1.27,1.76.49,3.53.65,5.3a16.89,16.89,0,0,0,.74,4.75c1,2.67,3.76,4,6.3,4.95a24.1,24.1,0,0,0,7,1.33,22.21,22.21,0,0,0,14.21-4,18.92,18.92,0,0,0,2.75-2.54c.84-1-.57-2.39-1.42-1.42a18.4,18.4,0,0,1-12.91,5.92,23.23,23.23,0,0,1-7-.6c-2.25-.55-5.05-1.44-6.53-3.33-1-1.3-1-3-1.14-4.6s-.32-3.26-.55-4.89c-.47-3.35-1.13-6.68-1.9-10-1.51-6.5-3.45-12.89-5.2-19.33-3.64-13.41-6.53-27.05-8.94-40.73s-4.28-27.53-5.66-41.39-2.29-27.79-2.79-41.72c-.06-1.71-.12-3.43-.17-5.14,0-1.28-2-1.29-2,0Z"/><path d="M489.72,134.69a8.72,8.72,0,0,1-.44,4.08c-.39,1.37-.84,2.72-1.3,4.07-.91,2.66-1.9,5.3-2.82,8a56.49,56.49,0,0,0-3.24,14c-.34,4.43.18,9.19,2.71,13,2.43,3.61,6.91,4.5,11,4.17a24.72,24.72,0,0,0,7.62-1.8,23.56,23.56,0,0,0,6.83-4.46c.72-.65-.35-1.71-1.06-1.06a22.33,22.33,0,0,1-12.36,5.72c-3.67.47-8.31.16-10.63-3.17-2.46-3.56-2.93-8-2.62-12.25a53.83,53.83,0,0,1,3.08-13.35c1-2.89,2.07-5.75,3.05-8.64.92-2.69,2.2-5.72,1.63-8.61-.19-.94-1.64-.54-1.45.4Z"/><g class="cls-13"><rect class="cls-14" x="138.71" y="411.29" width="149" height="101.07" rx="3.58"/><path class="cls-15" d="M189.92,512.36V411.29h93.14a4.73,4.73,0,0,1,4.65,4.81v91.45a4.73,4.73,0,0,1-4.65,4.81Z"/><rect class="cls-14" x="166.71" y="339.59" width="134" height="71.7" rx="3.58"/><path class="cls-15" d="M212.77,411.29v-71.7h83.76c2.31,0,4.18,1.52,4.18,3.41v64.88c0,1.88-1.87,3.41-4.18,3.41Z"/><rect class="cls-14" x="203.71" y="305.62" width="75" height="33.97" rx="3.58"/><path class="cls-15" d="M230.71,339.59v-34h45.72c1.26,0,2.28.72,2.28,1.62V338c0,.89-1,1.62-2.28,1.62Z"/><path d="M213.07,411.38h0a1,1,0,0,1-1-1c0-11.56-.06-22.54-.13-34.16-.07-11-.14-22.36-.14-34.42a1,1,0,0,1,0-.26,2,2,0,0,1,.34-1.64c.9-1.19,3-1.16,6.05-1.11l1.9,0c6.86,0,13.81,0,20.8-.05,15.59-.05,31.7-.1,47.19.1a1,1,0,0,1,1,1,1,1,0,0,1-1,1h0c-15.47-.2-31.58-.15-47.15-.1-7,0-14,.05-20.81.05l-1.93,0c-1.68,0-4-.06-4.41.31,0,0,0,.07,0,.16a1.15,1.15,0,0,1,0,.7c0,12,.07,23.31.14,34.24.07,11.63.14,22.61.13,34.19A1,1,0,0,1,213.07,411.38Zm-1.17-69.57v0Z"/><path d="M230.43,340.71h0a1,1,0,0,1-1-1c0-5.58,0-10.88-.08-16.49,0-5.34-.09-10.78-.09-16.6,0,0,0-.07,0-.11a1.36,1.36,0,0,1,.24-1c.6-.86,1.88-.84,4-.82h1.15l12.54,0c9.43,0,19.17-.05,28.53.05a1,1,0,0,1,0,2h0c-9.34-.1-19.08-.07-28.5-.05l-12.55,0h-1.17a19.19,19.19,0,0,0-2.24.05s0,.05,0,.07c0,5.75.05,11.14.09,16.43,0,5.62.09,10.92.08,16.51A1,1,0,0,1,230.43,340.71Z"/><path d="M189.62,508.45h0a1,1,0,0,1-1-1c0-15.62-.07-30.44-.16-46.13-.08-14.81-.16-30.11-.16-46.35a1.06,1.06,0,0,1,0-.34,2.52,2.52,0,0,1,.43-2.13c1.06-1.34,3.45-1.3,6.74-1.24l2.19,0c7.87,0,15.86,0,23.88-.06,17.9-.07,36.4-.13,54.18.14a1,1,0,0,1,0,2h0c-17.76-.28-36.25-.21-54.14-.14-8,0-16,.06-23.89.06l-2.22,0c-2.2,0-4.69-.09-5.15.49-.11.13,0,.48,0,.63a1.25,1.25,0,0,1,0,.72c0,16.18.08,31.45.16,46.21.09,15.69.17,30.52.16,46.14A1,1,0,0,1,189.62,508.45Z"/></g><path class="cls-16" d="M36.1,304.86h0c.34-1.81-.44-3.49,2.68-2.9L71.13,308c1.81.35,1.3,1.85,1,3.66h0c-.35,1.81-.1,3.72-1.91,3.38l-32.64-6.79C35.73,307.92,35.76,306.67,36.1,304.86Z"/><path class="cls-17" d="M50.56,296.49a51.78,51.78,0,0,0-4.08,15.05c-.19,1.68-.19,3.63,1.08,4.75,1.44,1.27,3.87.65,5.1-.83a4,4,0,0,0,5.9.33,3.65,3.65,0,0,0,5.23-.87,2.41,2.41,0,0,0,3.8-.49l-1.06-1.87c-.69-1.22-1.32-2.92-.29-3.87s2.56-.32,3.68-.95a13.08,13.08,0,0,0-.11-5.64A9.66,9.66,0,0,0,64,296.2a19.09,19.09,0,0,0-8.47-.95A11.3,11.3,0,0,0,50.56,296.49Z"/><path class="cls-17" d="M123.39,470.56c-.7.05-1.18,1.33-1.24,2.55a23,23,0,0,0,.31,3.61c.45,3.88-.18,7.86-.36,11.81-.07,1.34,0,3,.65,3.66a1.41,1.41,0,0,0,1.36.32l9.54-1.25a2.16,2.16,0,0,0,1.36-.53c.93-.94,1.07-3.17,1.1-5.06q.1-8.91,0-17.81a6.55,6.55,0,0,0-.54-3.15,2,2,0,0,0-1.32-.85,69.75,69.75,0,0,0-7.31-1.51,3.32,3.32,0,0,0-2.85.47c-1.06.89-1.71,2.89-1.92,4.93S122.08,471.87,123.39,470.56Z"/><path class="cls-18" d="M73.3,287.34c-6.88,45.14-4.25,100.41-4.25,138.28-3,2-1.77,2.67-3,5s-.39,2.65-.42,5.29c0,2.14-1,5.14.42,6.71,1.24,1.33,4.26,1.09,6.07,1.32,9.61,1.23,14,1.16,23.66.11,3.21-.34,6,.69,6.14-2.55.13-4.88.13-9.88.27-16.19a110.94,110.94,0,0,1,1.94-16.05c4.58-21.52,9.62-43.64,9.92-65.64.11-8.29,1.89-19.71,2-28-8,19-4.11,44.78-2,65.54,1.71,17,4,34.15,1.49,51-2,13.55-7.24,26.91-5.72,40.52a7.76,7.76,0,0,0,1.54,4.44,8.07,8.07,0,0,0,4.56,2.12,55.15,55.15,0,0,0,22.67-.08c1.83-.39,3.79-1,4.86-2.51a8.18,8.18,0,0,0,1-4.06l3.77-50.8c1.06-14.23,2.11-28.46,2.16-42.73.07-23-2.5-45.93-5.06-68.8L143.6,294.7c-.4-3.59-.89-7.41-3.21-10.19-3.15-3.77-8.61-4.45-13.52-4.73a324.28,324.28,0,0,0-41.94.25c-2.83.2-5.77.46-8.25,1.83S72.25,286,73.3,287.34Z"/><path class="cls-7" d="M50.74,297.19A3.07,3.07,0,0,1,48,294.38c-3.22-40.19-8.19-126.62,37.77-139.2,16.9-4,36.9-3.51,52.64,4,14.72,14.87,22.86,35.62,32.38,54.06,12.08-9.71,14.16-19.45,22.28-32.35a4.93,4.93,0,0,1,4.66-2.29c5.82.59,14.3,2.38,18,4.94.86,1.44,0,3.26-.9,4.69q-10.72,17.55-21.43,35.1c-6.63,10.9-20.72,33.89-35,21.53a53.34,53.34,0,0,1-13.83-23.34.6.6,0,0,0-1.18.19c.69,14.85,2.78,29.61,3.2,44.48.14,5.13.41,10.76-1.2,15.71-2.48,7.65-8.69,9.19-16.4,8.32-5.2-.59-10.26-2.17-15.49-2.4a66.69,66.69,0,0,0-10.82.78c-7.75.94-15.54,1.58-23.34,1.78-2.2.06-4.52.06-6.47-1-5.22-2.79-3-15.62-2.94-20.57q.17-9.19,1-18.37c.87-9.76,2.16-19.47,2.28-29.28a.68.68,0,0,0-1.31-.23A67.68,67.68,0,0,0,68.64,238c-2.14,21.72-1.39,37.37.22,57.62a2.62,2.62,0,0,1-3,2.81C60.83,297.66,55.82,297.75,50.74,297.19Z"/><path class="cls-17" d="M138.09,103.61c0,.56,2,3.42,2,4-.4,8.24-.13,13.79-1,22-.44,4.2-3.35,8.8-4.93,12.71-3,7.43-9.74,13.24-17.45,14.52.38,3.84-4,6.51-7.82,6.79A15.91,15.91,0,0,1,95,157.16c-1.63-2.3-1.44-4.39-2.31-6.86s-3-4.59-4.31-7c-2.16-4.06-2.31-8.85-2.36-13.45s0-9.22,1.85-13.35c1.7-3.77,4.8-6.73,8-9.35a85,85,0,0,1,15.61-10.1c5-2.51,10.59-4.57,16.15-3.78C133.67,94.18,137.63,98.17,138.09,103.61Z"/><rect class="cls-16" x="48.68" y="193.1" width="51.91" height="9.22" rx="3.2" transform="translate(38.12 -10.44) rotate(10.73)"/><rect class="cls-16" x="43.22" y="196.32" width="2.91" height="134.87" transform="matrix(0.98, 0.19, -0.19, 0.98, 49.9, -3.71)"/><rect class="cls-16" x="36.63" y="327.6" width="2.91" height="27.65" transform="translate(-145.17 50.84) rotate(-25.87)"/><polygon class="cls-16" points="43.76 355.16 67.59 336.65 65.98 334.52 42.16 353.03 43.76 355.16"/><rect class="cls-16" x="77.33" y="202.78" width="2.91" height="134.87" transform="translate(51.7 -9.95) rotate(10.73)"/><rect class="cls-16" x="30.2" y="350.86" width="3.62" height="131.81" transform="translate(78.17 1.33) rotate(10.73)"/><path class="cls-16" d="M17.92,481.87c-7.58,8.73-15.81,27.85-3.44,30.75a8.13,8.13,0,0,0,9.44-5.45c2.92-8.16,1.52-18.61-3-25.19A1.88,1.88,0,0,0,17.92,481.87Z"/><path class="cls-7" d="M46.05,262.63c-1.5-18.57,1.14-51.47,5.94-65.2,1.12-3.2,1.61-6.59,2.73-9.79A59.44,59.44,0,0,1,69.1,165a122.8,122.8,0,0,1,20.7,27L82,204.9c-2.46,4.11-4.93,8.21-7.25,12.4A47.29,47.29,0,0,0,70,228.19a53.46,53.46,0,0,0-1.25,8.94c-.37,4.48-.81,24.73-1.18,29.21-3-3.28-5.41,1.59-9.31-.51C54.92,264,49.87,264.88,46.05,262.63Z"/><path d="M95.49,153.42a11.3,11.3,0,0,0,.31-1.58,15.42,15.42,0,0,1-9.24.41c-3.9,2.13-8.66,1.48-13,.77-1.34,4.1,5.77,3.1,8.19,3A14.09,14.09,0,0,1,71,158.44c.39,6.54,10.75,3.28,14.28,1-.36,3.24-5,3.14-6.47,5.59a11.39,11.39,0,0,0,8-1.26,17.78,17.78,0,0,0,3.46-2.39c1-.89,1.85-2,2.85-2.86.49-.44,1-.84,1.46-1.3,1.51-1.47,1.61-3.37,1.88-5.37a31.37,31.37,0,0,0,.31-6.57,18.33,18.33,0,0,0-.94-4.7,10.91,10.91,0,0,0-.93-2.13c-.14-.22-1.29-1.52-1.19-1.69a2.39,2.39,0,0,1-2.55,1.17,4,4,0,0,1-2.34-2.07,17.36,17.36,0,0,1-2-9.09,8.26,8.26,0,0,1,1-4.44,4.92,4.92,0,0,1,3.83-2.21A4,4,0,0,1,96,124.16a6.1,6.1,0,0,0,2.78-.15,14.49,14.49,0,0,1,1.88-14.14c3.39-4.37,9-6.37,14.3-7.82S126,99.39,130.3,96c1.13-.89,6.76,10.62,7.12,11.72,1.51,4.68,2.07,9.66,2.77,14.51a66.5,66.5,0,0,0,2.79-13.6c.39-3.91.38-8.08-1.58-11.48-1.26-2.21-4.24-7.09-6.35-8.51-6.49-4.39-13.37-7.32-21.21-7.56a68.38,68.38,0,0,0-23.09,3.73C84.05,87,77.06,94.35,74,100.68c-1.71,3.49-2,7.49-2,11.38a65.4,65.4,0,0,0,1,11.94A54.57,54.57,0,0,0,88.3,152.86"/><path d="M135.5,115.53a1.51,1.51,0,0,1-1.33-.79,4.94,4.94,0,0,0-5.2-2.39,1.51,1.51,0,0,1-1.79-1.15,1.48,1.48,0,0,1,1.14-1.78,8,8,0,0,1,8.5,3.9,1.51,1.51,0,0,1-1.32,2.21Z"/><path class="cls-7" d="M85,151.8c-9.4-3.89-14.73-14.43-17-23.8-2.85-11.94-1.38-25.1,5.11-35.64C85.11,73,114.27,66.62,133.25,79.59c14.33,9.8,19.19,28.77,14.92,45.05a46.48,46.48,0,0,1-17.39,25.54c4.1-9.38,8.45-19,10.82-29a29.66,29.66,0,0,0,1-8.44,18.71,18.71,0,0,0-.41-3.74c-1.1-2.2-11.55-1.54-14.12-1.6q-7.65-.18-15.32-.16c-4,0-9.23-.54-12.6,1.41-1.6.94-2.08,1-2.55,2.8-.38,1.41.2,3.14.07,4.6a14.11,14.11,0,0,1-1.23,5.44c-1.24,2.35-1.27,3.41-.71,6.29.21,5.63,1.42,17.35-2.81,22.75C91,153,87.86,153,85,151.8Z"/><path class="cls-7" d="M86.72,152.5c14.78,2.89,15.25-23.35,15.47-33.19-1-14.21-1.21-15.54,13.6-15.25,10.72,0,16,.87,24.15,1.77,12.84,10.9-16.35,49.92-6.76,43.14,17-15.53,24.1-53.21-6.92-56-17.77-4.59-27.89-2.87-34.51,15.8C88,122.34,78.83,139,86.72,152.5Z"/><path class="cls-9" d="M140.71,106.23a3.88,3.88,0,0,1,4.4.16c1.51,1,1.5,4,1.64,5.79.94,12.43-3.17,26.07-11.44,35.39a11.15,11.15,0,0,1-5.51,2.89c2.67-7.28,6.55-14.56,9.22-21.84,1.22-3.3,1.08-6.38,1.3-9.89.23-4,2.08-7.42.6-11.81"/><path class="cls-9" d="M102.19,105.33a45,45,0,0,0-5.31,1.3,2.36,2.36,0,0,0-1.2.47,2,2,0,0,0-.41,1.11c-1.12,7.71-.7,15.58-1.89,23.28s-2.7,16-9.14,20.36c.17-.11,3.06.9,3.47.94a11.14,11.14,0,0,0,3.36-.18c3.72-.78,5-3.38,6.88-6.54,4.5-7.7,4-16.79,4.23-25.37a44,44,0,0,1,3.34-16"/><path class="cls-11" d="M88,99.33a6.66,6.66,0,0,1,1.09.16c3-2.57,25.29-21.61,41.79-25.32,0,0,21.9,4.11,25.11,32.93,0,0-43.67-.76-61.88-.4A6.54,6.54,0,1,1,88,99.33"/><path class="cls-12" d="M149.7,102a29,29,0,0,0-7.63-13.47c-4.16-4.1-9.65-6.34-15.07-8.25-.81-.29-1.11,1-.3,1.31,5.2,1.83,10.45,4,14.45,7.92a27.71,27.71,0,0,1,7.27,12.89c.22.84,1.5.44,1.28-.4"/><path d="M118.51,157.72c-3.17,0-6.89-1-11.13-3.72a1.5,1.5,0,1,1,1.63-2.53c6.14,4,11.66,4.31,16.4,1,10.93-7.52,15.22-31.93,12.67-44.08a1.5,1.5,0,1,1,2.94-.62c2.77,13.23-1.84,38.87-13.9,47.17A15,15,0,0,1,118.51,157.72Z"/><path d="M108.67,117.16A1.53,1.53,0,0,1,108,117a1.5,1.5,0,0,1-.61-2,9.13,9.13,0,0,1,8.26-4.72,1.5,1.5,0,1,1-.13,3,6.18,6.18,0,0,0-5.49,3.14A1.5,1.5,0,0,1,108.67,117.16Z"/><path class="cls-8" d="M117.82,119.38a2.13,2.13,0,0,0-.75-.15c-4.55-.37-8.47,2.34-5.37,5C115.48,126.34,123.9,122.2,117.82,119.38Z"/><path class="cls-8" d="M135.07,118.94a2.07,2.07,0,0,0-.71-.28c-4.4-1.24-8.76.67-6.24,3.89C131.44,125.33,140.49,122.87,135.07,118.94Z"/><circle cx="118.26" cy="122.01" r="1.7"/><circle cx="135.06" cy="121.52" r="1.7"/><path d="M122.39,137a3,3,0,0,1-2-.82,3.62,3.62,0,0,1-.8-4,1,1,0,0,1,1.89.67,1.63,1.63,0,0,0,.27,1.86.86.86,0,0,0,.87.24c.26-.11.42-.5.44-1.05v-.28a1,1,0,0,1,1-1,1,1,0,0,1,1,1v.25c0,.42.17.71.42.79a.64.64,0,0,0,.73-.32c1.49-2-.41-6.43-1.43-8.8l-.07-.17a1,1,0,0,1,1.84-.79l.07.17c1.26,2.94,3.38,7.87,1.21,10.76a2.63,2.63,0,0,1-3,1.05,2.7,2.7,0,0,1-.65-.34,2.7,2.7,0,0,1-.76.53A2.45,2.45,0,0,1,122.39,137Z"/><path d="M123.75,147.08a12,12,0,0,1-11.4-8.24,1,1,0,1,1,1.9-.62A10,10,0,0,0,125,145a1,1,0,0,1,.26,2A11.38,11.38,0,0,1,123.75,147.08Z"/><path d="M112.28,139.05a6.65,6.65,0,0,1-1-.09,3.43,3.43,0,0,1-3-2.23,1,1,0,0,1,1.93-.53c.1.35.64.65,1.38.78a2.82,2.82,0,0,0,1.19,0,1.57,1.57,0,0,0,1.11-1.3,1,1,0,0,1,1.09-.9,1,1,0,0,1,.9,1.1,3.56,3.56,0,0,1-2.6,3A4,4,0,0,1,112.28,139.05Z"/><path d="M115.11,147.46a1,1,0,0,1-.54-.15,8.2,8.2,0,0,1-3.52-5,1,1,0,0,1,2-.47,6.15,6.15,0,0,0,2.65,3.74,1,1,0,0,1-.54,1.84Z"/><path d="M121.64,490.87A32.46,32.46,0,0,0,119.33,501a10.28,10.28,0,0,0,.94,5.68c1.63,2.92,5.36,4.45,8.82,5.77,6.54,2.48,13.13,5,20.12,6.4,4.77,1,10,1.38,14.48-.39s7.8-6.36,6.13-10.3c-1.11-2.6-4-4.27-6.68-5.78-5.43-3-10.9-6.08-16.95-8.09-2.73-.91-5.66-1.65-7.75-3.4a7.42,7.42,0,0,0-1.74-1.29,6.13,6.13,0,0,0-3.3-.12C128.9,490.23,124.49,491.41,121.64,490.87Z"/><path d="M120.7,157.52a12.73,12.73,0,0,1-8.87,9.62,18.89,18.89,0,0,1-8,.54A22.88,22.88,0,0,1,97,165.76a12.55,12.55,0,0,1-5.72-5.08c-.47-.85-1.76-.09-1.29.75,2.57,4.57,7.7,6.76,12.66,7.58,5.45.9,11.27.11,15.44-3.79a13.55,13.55,0,0,0,4.08-7.3c.17-.94-1.27-1.35-1.45-.4Z"/><path d="M103.83,106.92c-1.68,6.58-2,13.38-2.56,20.12-.27,3.37-.58,6.75-1.07,10.09a26.86,26.86,0,0,1-2.53,8.65,15,15,0,0,1-6.25,6.46c-.86.45-.1,1.75.75,1.3,5.32-2.79,8.06-8.39,9.15-14.07.63-3.3.93-6.69,1.25-10,.33-3.5.53-7,.85-10.51a74.71,74.71,0,0,1,1.85-11.6.75.75,0,0,0-1.44-.4Z"/><path d="M83.05,157.62c4.59,6.44,5,13,5,24,0,4.48,0,10.63-1,15s-6.18,12-8.69,15.74c-5.88,8.74-4.58,8.41-8.31,18.26-.25.65-.27,18.83-.9,19.11a2.59,2.59,0,0,1-1.33.09c-6-.6-21.77-7.2-22.77-8.2,0-1,1.91-19,2-20a163,163,0,0,1,3.83-20.87,121.69,121.69,0,0,1,3.92-13.53C58.17,177.84,63.13,168,71.6,162a29.1,29.1,0,0,1,6.45-3.42"/><path class="cls-8" d="M70.83,159.55c1,2.35,3.67,3.32,6.06,3.27a18.68,18.68,0,0,0,8.3-2.21l-1-1a14.52,14.52,0,0,1-5.22,4.93.75.75,0,0,0-.27,1,2.15,2.15,0,0,0,2.37.82,24.15,24.15,0,0,0,3.65-.85,8.93,8.93,0,0,0,5.18-3.81.75.75,0,0,0-1.29-.76,7.07,7.07,0,0,1-3.86,3,19.78,19.78,0,0,1-2.74.74c-.34.07-1.77.57-2,.14l-.27,1a16.07,16.07,0,0,0,5.77-5.46c.41-.65-.4-1.37-1-1a17.35,17.35,0,0,1-7.07,2c-2.06.13-4.35-.44-5.23-2.51-.38-.88-1.67-.12-1.3.76Z"/><path d="M109.54,163.62c3.3,7,3.68,14.89,4.37,22.47.75,8.25,2.33,16.39,3.24,24.62.46,4.21.79,8.44.84,12.67,0,2.13,0,4.26-.14,6.38A32.43,32.43,0,0,0,118,236c.25,2,.66,4.06,1,6.09s.57,4.21.75,6.32a96,96,0,0,1,.3,12.69c-.39,8.16-2.17,16.14-3.87,24.11-.22,1-.44,2-.65,3s1.25,1.34,1.45.4c1.68-8,3.61-16,4.34-24.23A97.67,97.67,0,0,0,119.93,239a40.07,40.07,0,0,1-.72-6.18c0-2.16.23-4.31.27-6.47a114.33,114.33,0,0,0-.55-12.82c-.39-4.25-1-8.48-1.58-12.7s-1.29-8.23-1.72-12.38c-.79-7.68-.94-15.63-3.69-22.94-.33-.89-.7-1.76-1.1-2.61s-1.7-.12-1.3.75Z"/><path d="M127.83,156.87a64.7,64.7,0,0,1,10,21.84c2.27,8.52,3.24,17.31,4,26.08.76,9.09,1.43,18.19,2.14,27.29s1.46,18.2,2.12,27.3a123.75,123.75,0,0,1,.39,13.34,59.63,59.63,0,0,1-.58,6.67c-.27,1.87-.54,4.17-2.12,5.44a2.77,2.77,0,0,1-2.29.63c-.94-.2-1.34,1.24-.4,1.45a4.57,4.57,0,0,0,4.6-2c1.24-1.69,1.49-3.9,1.76-5.91A79,79,0,0,0,148,265.3c-.19-4.65-.61-9.29-1-13.93l-1.1-14.15q-1.09-14.07-2.2-28.14c-.72-9.2-1.51-18.44-3.56-27.46a70.58,70.58,0,0,0-9.25-23c-.56-.86-1.14-1.69-1.75-2.52s-1.86,0-1.29.76Z"/><path d="M127.05,154.62a19.85,19.85,0,0,1,13,6c3.47,3.55,8,8.67,10.46,12.95l8,13.56c3,5.12,9,19.26,11.32,24.74a6,6,0,0,1,.61,2.28,6.14,6.14,0,0,1-.71,2.42c-3.34,7.4-.71,22.79-4.12,30.15a3.19,3.19,0,0,1-.92,1.32c-1.25.89-2.88-.38-3.84-1.58-1.74-2.18-14.67-16.84-16.25-21.34-.54-1.54-.26-4.33-.63-5.91a17.65,17.65,0,0,1-.32-3.91,163,163,0,0,0-2.92-28.57,37.11,37.11,0,0,0-2.44-8.48c-.52-1.13-1.14-2.22-1.56-3.39-.63-1.75-.81-3.64-1.35-5.43-1.63-5.34-5.28-9.81-9.28-13.81"/><g id="front_palm-2" data-name="front palm"><g class="cls-19"><g class="cls-19"><path class="cls-17" d="M199.84,183.87l2.21-7.15s-2.8-3-2.93-6-4.31-6.42-6.89-7.65-3.1-5.64,0-5.84,5.8,1.84,7.3,3.27,3.42.9,4-1.12,2.95-11.06,3.85-14.48,2.42-4.56,4.43-3.87,1,4.25-.16,9.24-2.14,7.37-1.53,7.5,1.33-2.9,2.93-8.83,2.64-9.58,4.68-9.49,3.53,1.61,2,7-3.63,11.43-3,12.24,2.86-4.55,4.08-8.67,2.09-5,3.5-4.76,2.81,2.58,1.14,8a2.34,2.34,0,0,1,2.49-.76c1.62.43,1.63,3.61-.48,9.52s-3.7,6.09-4.66,9.41-3.7,7.72-8.64,8.31l-1.23,7Z"/><path d="M208.91,171.11a7,7,0,0,0-1.22-4.18,5.74,5.74,0,0,0-3.6-2.68.65.65,0,0,1,.27-1.28c3.64.76,6.11,4.83,5.83,8.41a.66.66,0,0,1-.78.5.66.66,0,0,1-.5-.77"/><path d="M216.43,166.72a17.7,17.7,0,0,0-6.93-2.87c-.83-.15-.55-1.43.27-1.28a18.75,18.75,0,0,1,7.26,3,.68.68,0,0,1,.28.89.66.66,0,0,1-.88.28"/><path d="M205.31,178.64a8.64,8.64,0,0,1-4.58-2.65.68.68,0,0,1,0-.92.66.66,0,0,1,.92,0,7.51,7.51,0,0,0,4,2.34.67.67,0,0,1,.5.78.66.66,0,0,1-.77.5"/><path d="M226,153.86a17.25,17.25,0,0,1-3.54,7.46.66.66,0,0,1-1-.88,15.89,15.89,0,0,0,3.23-6.85c.21-.81,1.49-.55,1.28.27"/></g></g></g><path d="M47.28,290.47c1.77.15,2.43.13,3.77.15l13.11.15a16.17,16.17,0,0,1,3.74.32,1.25,1.25,0,0,1,.63.28,1,1,0,0,1,.22.56,19.36,19.36,0,0,1,.3,3.4v1.29c0,1-.18,1.78-1,2a23.46,23.46,0,0,1-6.26.5,66.66,66.66,0,0,1-6.77-.41c-1.66-.19-3.3-.5-4.94-.81-.92-.16-1.92-.12-2.24-1.17a16.12,16.12,0,0,1-.66-6.24"/><path d="M192.49,180.75a6.63,6.63,0,0,1,2.86-2.74,8.26,8.26,0,0,1,4.68-.2,56,56,0,0,1,14,4.24,3.74,3.74,0,0,1,2,1.55,3.26,3.26,0,0,1,.06,2.16c-.63,2.54-2.27,4.69-3.87,6.76a1.39,1.39,0,0,1-.86.65,1.27,1.27,0,0,1-.7-.21c-1.23-.62-2.42-1.32-3.62-2a59.48,59.48,0,0,0-8-3.82,38,38,0,0,0-4.28-1.37c-.61-.15-1.23-.23-1.85-.32a14.82,14.82,0,0,1-1.86-.34.82.82,0,0,1-.51-.29.49.49,0,0,1-.08-.23c0-.13.1-.27.16-.38l.24-.46c.17-.3.33-.61.49-.92.33-.61.66-1.22,1-1.82C192.37,180.93,192.43,180.84,192.49,180.75Z"/><path d="M46.93,315.94c1,1.6,3,1.65,4.6,1.19.43-.11.84-.27,1.27-.37a2.94,2.94,0,0,1,1.5.12,10.88,10.88,0,0,0,2.9.25c1-.05,1.89-.37,2.86-.46s1.8.3,2.72.3a6.35,6.35,0,0,0,4.63-2c.66-.71-.4-1.77-1.06-1.06a4.94,4.94,0,0,1-4,1.59,13.32,13.32,0,0,0-2.44-.28c-.85.09-1.67.37-2.53.44a9.53,9.53,0,0,1-2.5-.14,5.39,5.39,0,0,0-2.52-.17c-1.2.3-3.28,1.29-4.17-.12-.52-.82-1.82-.07-1.3.75Z"/><path d="M67.69,313.33c-1-.73-.75-2.32-.44-3.35a2.16,2.16,0,0,1,.34-.72,2.54,2.54,0,0,1,.66-.51,2.5,2.5,0,0,1,1.72-.49.78.78,0,0,0,.93-.52.76.76,0,0,0-.53-.92,3.86,3.86,0,0,0-2.78.58,3.53,3.53,0,0,0-1.75,2.08c-.58,1.79-.59,4,1.1,5.14a.74.74,0,0,0,1-.27.75.75,0,0,0-.27-1Z"/><path d="M117.86,307q-.72,11.25-1.9,22.47c-.39,3.7-.81,7.39-1.39,11.06s-1.23,7.18-1.8,10.77-1,7.05-1.29,10.61a51.59,51.59,0,0,0,.44,10c.9,6.86,2.47,13.59,3,20.51.53,7.48.4,15,.37,22.47,0,3.6,0,7.18-.24,10.77-.23,3.38-.6,6.75-1.08,10.1-.9,6.33-2.15,12.6-3.19,18.91a110.47,110.47,0,0,0-1.87,18.77,6.59,6.59,0,0,0,.86,3.59,4,4,0,0,0,2.46,1.53,48.92,48.92,0,0,0,7.31,1.32,69.52,69.52,0,0,0,15.86,0l4.69-.49c.95-.1,1-1.6,0-1.5-5.34.55-10.69,1.24-16.07.92a68.6,68.6,0,0,1-8.33-1,30.57,30.57,0,0,1-3.15-.72,2.49,2.49,0,0,1-2-2.14,18.61,18.61,0,0,1,0-4.35c.06-1.55.17-3.1.31-4.64.28-3.13.69-6.24,1.18-9.34,1-6.15,2.19-12.25,3.13-18.4a131.67,131.67,0,0,0,1.68-19.92c0-7.38.17-14.77-.16-22.14-.15-3.43-.4-6.85-.89-10.25s-1.12-6.68-1.67-10a74.38,74.38,0,0,1-1.13-10.08,63.17,63.17,0,0,1,.75-10.37c1-7,2.44-13.88,3.25-20.88q1.27-11,2.09-22.12c.13-1.82.26-3.63.37-5.45.07-1-1.43-1-1.5,0Z"/><path d="M91.94,424.27l-10.9.18-5.44.09a40.77,40.77,0,0,0-4.69.18,5.74,5.74,0,0,0-3.71,1.79,7,7,0,0,0-1.47,3.54,35,35,0,0,0-.26,4.34l-.14,5.33c0,1.31-.36,3.2.89,4.09a3.71,3.71,0,0,0,1.88.51l3,.28q5.32.47,10.66.67t10.91.14c2.49,0,5.29,0,7.48-1.39a5.18,5.18,0,0,0,2.37-3.48,25.57,25.57,0,0,0,0-5.6L102,422.83c0-1-1.55-1-1.5,0l.42,9.88.21,4.94a6.63,6.63,0,0,1-.66,4.05c-1.24,1.82-3.89,2.09-5.89,2.18-3.2.13-6.41.06-9.61,0s-6.61-.23-9.92-.46c-1.65-.11-3.3-.25-4.94-.4-.8-.07-1.62-.1-2.41-.23s-.87-.52-.88-1.21c0-1.61.08-3.22.12-4.82s0-3.13.12-4.69c.11-2.4.62-5,3.29-5.71a21.24,21.24,0,0,1,4.78-.3l5.7-.09,11.14-.19a.75.75,0,0,0,0-1.5Z"/><path d="M386.16,214.49c-17-3.3-27.05-1.76-36.45,15.63a36.34,36.34,0,0,0-3.81,12.19c-.77,5.38-4.95,3.58-6.91,9.57-1.15,6.2,4.85,5.12,7.79,7.73,2.07,3.6-3.43,6.18-3.79,9.46-.29,2.51,2.56,4.93,5,3.77,3.69-1.71,4.19,1.63,4,4.55,6,12,17.48-7.54,25.89-3.74,13.57,8.17,8.4,1.58,18.83-1.7,13,4.48,4-3.26,10.69-4.06,3.75.67,6.06-1.85,6.16-5.62.5-1.8-1.1-2.49-2.46-3.25-4.85-4.93,5.46-15.86-3.37-19.5-4.66-.52-6.72-2-5.6-7C403.18,223.47,394.31,215.32,386.16,214.49Z"/><path class="cls-20" d="M290.38,378.18c-1-2.53,1.39-12,3.2-14a14,14,0,0,1,6.17-3.45c5.24-1.63,10.77-1.95,16-2.05,5.41-.11,10.89,0,16.19.12l14.78.31-.06,3-14.78-.31c-5.27-.11-10.72-.23-16.07-.12-5,.1-10.25.4-15.13,1.92a10.78,10.78,0,0,0-4.87,2.64c-1.18,1.24-3.12,9.29-2.61,10.77Z"/><path class="cls-21" d="M279.78,342c3.79-2.78,7.92-5.35,12.6-5a14.33,14.33,0,0,1,5,1.17c1.54.72,3.62,3.32,5.12,4.1a16.77,16.77,0,0,0,10,1.36,69.25,69.25,0,0,0,9.9-2.48c.74-.21,1.8-.25,2,.49a1.46,1.46,0,0,1,0,.51l-.73,8.09a1.78,1.78,0,0,1-.28,1,1.7,1.7,0,0,1-.87.5,33.36,33.36,0,0,1-18.6.73c-4.64-1.16-9.42-3.34-14-2-1,.31-2.21.77-3.13.2a2.18,2.18,0,0,1-.84-2.2,4.38,4.38,0,0,1,2.48-3.08,16.67,16.67,0,0,1,3.18-1,1.07,1.07,0,0,0,.68-1.69l-.76-.76c-.32-.54.05-.13-.55-.27-1.69-.41-3.61.44-5.09,1.35a8.36,8.36,0,0,1-4.53,1.69,2,2,0,0,1-1-.24,1.84,1.84,0,0,1-.06-2.76C281,340.92,283.24,340.23,279.78,342Z"/><rect class="cls-20" x="360.25" y="283.77" width="59.14" height="140.4"/><path class="cls-22" d="M363.05,284.1c-7.34,2.42-12.13,9.61-14.62,16.93s-3.24,15.14-5.67,22.48-7.09,8.09-14.37,10.68c-2,.7-4.22,1.14-5.49,2.8a8.22,8.22,0,0,0-1.29,3.51c-.86,4.18-1.57,15.49,1.1,18.82,2.16,2.7,6,3.52,9.41,3.26,2.37-.18,4.74-.79,7.09-.41s6.65-2.38,6.61,0c0,1.12-2.45,6.93-1.76,7.8a2.9,2.9,0,0,0,1.8.82c11.27,2.24,22.52,4.65,33.56,7.84,7.29,2.11,14.68,4.59,22.27,4.25,1.9-.09,4-.49,5.09-2.07,1.59-2.37-.2-5.9,1.34-8.31,1.1-1.71,3.37-2.1,5.29-2.74,6.1-2,10.29-7.93,11.84-14.16s3.35-12,2.29-18.36c-1.85-11-4.77-21.83-7.69-32.62A40.16,40.16,0,0,0,416,294.26c-2.88-4.78-10.36-9-15.84-10.07a39.87,39.87,0,0,0-10.3-.17C380.8,284.65,371.74,285.28,363.05,284.1Z"/><path class="cls-21" d="M355.64,234.17c-1.12,6.76-2.25,13.6-1.66,20.43s3.09,13.75,8.17,18.34c2,1.79,4.45,3.38,5.19,5.94.65,2.22-2.64,5.06-3.12,7.32-1,4.64-2,3.09,0,7.39.64,1.37,18.68,1.69,28.34-9.54,1.28-1.5,3.76-6.16,2.37-7.55-3.51-3.52-3.9-8.24-5.2-11.42-1.18-2.87-1.05-6.09-1.09-9.2a76.59,76.59,0,0,0-2.8-19.39,22.16,22.16,0,0,0-3.87-8.36c-3.56-4.28-9.82-5.82-15.18-4.34S356.45,229.29,355.64,234.17Z"/><path d="M356.17,241.16a1.5,1.5,0,0,1-1-2.6,7.3,7.3,0,0,1,7.33-1.44,1.5,1.5,0,1,1-1.05,2.81,4.3,4.3,0,0,0-4.25.83A1.45,1.45,0,0,1,356.17,241.16Z"/><path d="M368.77,265.92a9.09,9.09,0,0,1-4.87-1.29,1,1,0,0,1-.31-1.38,1,1,0,0,1,1.38-.31,8.67,8.67,0,0,0,6.33.7c1.44-.31,3.32-1,4.09-2.49a1,1,0,1,1,1.78.92c-.89,1.73-2.78,2.95-5.45,3.52A13.78,13.78,0,0,1,368.77,265.92Z"/><rect class="cls-20" x="316.39" y="412.17" width="103" height="12"/><path d="M366.61,282.37a6.85,6.85,0,0,0,2.09,7,10.54,10.54,0,0,0,7.18,2.46,14.41,14.41,0,0,0,4.82-.87c5-1.82,8.57-6.23,11.21-10.83,1-1.71,2.27-3.71,4.24-3.67s3.31,2.45,3.43,4.53c.27,4.63-2.56,12.94-6,16a16,16,0,0,1-8.61,4.26c-3.24.34-6.77-5-8.39-7.82-2.57,2.06-5.36,4.14-8.53,5s-7,.25-9-2.36a8.82,8.82,0,0,1-1.32-6.52c.65-5.13,5-10.12,10.2-9.77C367.81,279.84,367.49,279.75,366.61,282.37Z"/><path d="M279.65,379c-26,0-47,33.36-47,74.5s21.07,74.5,47,74.5,47.05-33.35,47.05-74.5S305.64,379,279.65,379Zm0,144.22c-23.78,0-43.06-31.21-43.06-69.72s19.28-69.72,43.06-69.72,43.07,31.22,43.07,69.72S303.44,523.2,279.65,523.2Z"/><path d="M279.65,529c-26.49,0-48-33.87-48-75.5s21.56-75.5,48-75.5,48.05,33.87,48.05,75.5S306.15,529,279.65,529Zm0-149c-25.39,0-46,33-46,73.5s20.66,73.5,46,73.5,46.05-33,46.05-73.5S305,380,279.65,380Zm0,144.22c-24.29,0-44.06-31.72-44.06-70.72s19.77-70.72,44.06-70.72,44.07,31.73,44.07,70.72S304,524.2,279.65,524.2Zm0-139.44c-23.19,0-42.06,30.83-42.06,68.72s18.87,68.72,42.06,68.72,42.07-30.83,42.07-68.72S302.85,384.76,279.65,384.76Z"/><path d="M282.4,525.51l-15-2.31,12-68.25-22.7,59.41-9.51-11.21,31.75-49-38.47,35.19-3.54-14.15.18-.09,41.27-21.59L235.05,464.2l-.13-12.26h.26l43.36.78L236.07,439.4,237.9,425l.33.21L279,451.77l-35-41.61.09-.15,7.83-13,.2.4,27,52.17-18.86-61L270.77,384l9.2,63.79,1.1-65.19h.5l-1.13,66.62,14.86-62.73,9.93,7.59-.08.18L281.68,449.1,312,403.68l6.24,12.59-.14.13L282.4,449.93l39.18-22,2.56,14.38-41.47,8.52,42.5,6L323.24,474l-.33-.16L282,452.57l37.32,34.61-.06.16-5.91,14.21-32-47.47,23.94,59.18-11.45,9.25L280.37,455Zm-14.46-2.72,13.94,2.13-2-70.07Zm12.61-69.41,13.67,68.22,10.52-8.5-24.16-59.7Zm-32.8,49.73,8.72,10.29,22.1-57.84Zm33.71-49.82,31.82,47.21,5.48-13.19-37.49-34.77-.23.12.29.42.67.21Zm-44,22.17,3.24,13,37.42-34.22Zm44.71-23.39,40.66,21.12,1.8-15.87-43.22-6.13-.23.37,1,.5.08,0Zm-46.73.38.11,11.11,41.93-10.35Zm45.31-.24.11.17.19-.05-.23-.21Zm-44.12-13.16L279,452.34l-40.67-26.47Zm43.84,12.74.1.16,0,0Zm-35.87-41.68,35.07,41.67L251.87,398Zm36.24,41.27.22.12.34-.31-.18,0Zm40.38-22.63-38.56,21.61L323.56,442ZM260.83,388.9l19,61.4-9.46-65.62Zm34.78-1.58L280.78,450l23.83-55.74Zm16.29,17.36-30.06,45.08,35.74-33.6Z"/><ellipse cx="280.04" cy="452.4" rx="3.39" ry="5.72"/><path d="M373.5,277.16a17.62,17.62,0,0,1-9.44-2.72c-5.22-3.41-8.87-9.53-10.28-17.22a80.26,80.26,0,0,1-.83-15.14c0-1.55,0-3.1,0-4.65a1,1,0,0,1,1-1h0a1,1,0,0,1,1,1c0,1.56,0,3.13,0,4.69a78.38,78.38,0,0,0,.8,14.76c.75,4.14,3,11.71,9.4,15.91C370,276,378,276.41,382.31,271.6a1,1,0,1,1,1.48,1.35A13.61,13.61,0,0,1,373.5,277.16Z"/><rect class="cls-20" x="343.85" y="384.79" width="7" height="135.39" transform="translate(-105.13 799.83) rotate(-90)"/><rect class="cls-20" x="317.33" y="420.98" width="7" height="91.01"/><path d="M377.82,239.63a1.5,1.5,0,0,1-1.18-.57c-1-1.28-3.73-.89-5.33-.19a1.5,1.5,0,0,1-1.19-2.76c2.88-1.24,6.88-1.43,8.87,1.09a1.5,1.5,0,0,1-.25,2.1A1.46,1.46,0,0,1,377.82,239.63Z"/><path d="M366.28,258.09a3.13,3.13,0,0,1-2.72-1.93,6,6,0,0,1-.21-3.29,22.61,22.61,0,0,1,1.33-5.13,1,1,0,0,1,1.86.75,20.14,20.14,0,0,0-1.21,4.67,4.1,4.1,0,0,0,.07,2.21c.2.46.69.8,1,.7s.7-.76.94-1.36a1,1,0,0,1,1.93.37.74.74,0,0,0,.3.55.74.74,0,0,0,.6.2.85.85,0,0,0,.59-1,1,1,0,0,1,.61-1.28,1,1,0,0,1,1.27.61,2.69,2.69,0,0,1-.25,2.3,2.66,2.66,0,0,1-4.1.72l0,0A2.78,2.78,0,0,1,367,258,2.56,2.56,0,0,1,366.28,258.09Z"/><ellipse class="cls-8" cx="359.77" cy="244.96" rx="3.95" ry="2.12" transform="translate(-16.78 26.68) rotate(-4.15)"/><path d="M379,263.31a3.67,3.67,0,0,1-2.75-6.12,1,1,0,1,1,1.49,1.34,1.74,1.74,0,0,0-.24,1.9,1.79,1.79,0,0,0,1.71.87,1,1,0,0,1,1.13.85,1,1,0,0,1-.86,1.13A3.87,3.87,0,0,1,379,263.31Z"/><rect class="cls-20" x="411.54" y="420.57" width="7" height="35.41"/><path class="cls-23" d="M272,483.4c-4.26-33.56-8.94-62,2.24-94,1.83-5.21,2.68-8.54,9.18-12.83,2.8-1.85,6.4-2.25,9.71-2.79,39.18-6.45,65.3-2.66,96.94,3.73,3,.61,6.19,1.26,8.74,3,6.8,4.68,6.65,14.7,4.94,22.78-.47,2.18-1.07,4.5-2.74,6a10.1,10.1,0,0,1-4.73,2c-9.23,2-18.8,1.45-28.22.8-15.28-1.07-37.31,2.19-51.69,0-1.84,25.88-2.66,46.33-10.22,71.15a3.56,3.56,0,0,1-4.78,3.18C291.25,485.24,281.1,484,272,483.4Z"/><path d="M368.84,373h-.07a1,1,0,0,1-.93-1.07l5.94-77.82a1,1,0,0,1,1.07-.92,1,1,0,0,1,.92,1.08L369.84,372A1,1,0,0,1,368.84,373Z"/><path d="M354.56,235.59c2.09-3.65,6.68-4.72,10.76-4.86s8.41.23,12-1.78a16.35,16.35,0,0,0,1.66-1.09,1.25,1.25,0,0,1,1.95.89,21.21,21.21,0,0,0,1.36,4.82c.86,2.07,2,4,3,6a33.5,33.5,0,0,1,3.32,13.2c.14,3.38-.21,10,.46,13.3s.64,6.61,3.79,7.44c2.42-5.65,5.14-15.2,4.62-21.37a72.73,72.73,0,0,0-4.19-18c-1.7-4.86-4-10-8.46-12.31a18.86,18.86,0,0,0-6-1.67c-7.16-1.07-14.73-1.35-21.07,3.4a13.41,13.41,0,0,0-5,8,4.77,4.77,0,0,0,0,2.57A2.21,2.21,0,0,0,354.56,235.59Z"/><path class="cls-20" d="M356.28,420.77c-.86-6.38,1.46-34,3-38.87a22.08,22.08,0,0,1,5.92-10.07c5.41-5.2,11.12-6.22,16.49-6.55a128.22,128.22,0,0,1,16.32.37l14.78,1-.19,3-14.78-1a128.33,128.33,0,0,0-15.94-.37c-5.55.35-10.15,1.45-14.61,5.73a19,19,0,0,0-5.12,8.78c-1.4,4.59-3.65,31.62-2.85,37.59Z"/><circle cx="357.88" cy="243.85" r="1.37"/><ellipse class="cls-8" cx="373.36" cy="243.98" rx="2.12" ry="4.18" transform="translate(114.9 607.46) rotate(-87.75)"/><path class="cls-21" d="M385.47,244.35a7.43,7.43,0,0,1,2.34-3.35,3.73,3.73,0,0,1,3.89-.47c2,1.07,2.07,3.92,1.6,6.14a28.72,28.72,0,0,1-1.05,3.65,6.69,6.69,0,0,1-1.9,3.08,2.73,2.73,0,0,1-3.38.19,3.79,3.79,0,0,1-1-2.25C385.5,249.14,384.54,246.7,385.47,244.35Z"/><path d="M350.72,345.37a.83.83,0,0,1-.22,0,1,1,0,0,1-.76-1.2,119.14,119.14,0,0,0,1.89-11.87c.84-6.77,1.71-13.76,4.56-20.13A1,1,0,0,1,358,313c-2.72,6.09-3.57,12.94-4.4,19.56a116.89,116.89,0,0,1-1.92,12.07A1,1,0,0,1,350.72,345.37Z"/><path d="M340.73,363.16a53,53,0,0,1-6.31-.38,1,1,0,0,1-.87-1.12,1,1,0,0,1,1.12-.87,51.77,51.77,0,0,0,6.47.37,3.31,3.31,0,0,0,1.47-.22,1,1,0,1,1,.91,1.78,5,5,0,0,1-2.36.44Z"/><path d="M331.41,363.2c-5.54,0-9.77-4.83-11.11-9.67s-.46-10.13.56-15.06a1,1,0,0,1,2,.41c-1,4.88-1.82,9.64-.59,14.12,1.1,4,4.69,8.2,9.19,8.2h.18a3.61,3.61,0,0,0,2.75-1.13,4.93,4.93,0,0,0,.59-2.44,1,1,0,1,1,2,.16,6.73,6.73,0,0,1-1,3.43,5.32,5.32,0,0,1-4.33,2Z"/><circle cx="371.46" cy="242.96" r="1.37"/><path class="cls-8" d="M321,345.1c-2-2.27-1.44-5.65-.67-8.52a120.75,120.75,0,0,1,6.07-17.27,8,8,0,0,1,2.7-3.8c1.54-1,3.54-.91,5.39-.8L355.93,316a20.92,20.92,0,0,1,4.53.6,16.36,16.36,0,0,1,6.75,4.32c6.84,6.64,10.8,15.45,14.53,24.07a4,4,0,0,1,.42,3.19c-.52,1.14-2,1.57-3.21,1.84-7.78,1.65-15.82,1.72-23.78,1.8a6.22,6.22,0,0,1-1.67-.14c-2.24-.61-2.89-3.3-3.14-5.53-2.38-.45-4.82.07-7.22.4a95.44,95.44,0,0,1-16.74.35C324.34,346.8,322.28,346.59,321,345.1Z"/><path class="cls-21" d="M378.75,341.48l-7.2-4.52c-1.07-.67-2.55-1.32-3.49-.47-1.2,1.09,0,3,1.25,4.11a9.27,9.27,0,0,0-3.9-2,2.44,2.44,0,0,0-1.58,0,1.89,1.89,0,0,0-.63,2.51,5.62,5.62,0,0,0,2.05,2,4.74,4.74,0,0,0-2.32-.27,1.66,1.66,0,0,0-1.41,1.62c.14,1.46,2.45,1.55,3.15,2.83-.86-.75-2.24.56-2,1.67s1.4,1.76,2.43,2.26a25.05,25.05,0,0,0,7.92,2.54,27,27,0,0,1,4.22.48c2.1.55,3.84,2,5.6,3.25a52.7,52.7,0,0,0,12.45,6.76c1.83-3.71,3.69-8.08,1.9-11.81-1.45-3-4.83-4.54-8-5.62a8.63,8.63,0,0,1-3-1.42c-1.57-1.35-1.89-3.67-3.09-5.37a6.07,6.07,0,0,0-4.83-2.52,49.3,49.3,0,0,0,2.13,5.57C379.58,342.48,378.75,341.79,378.75,341.48Z"/><path d="M283.38,338.75Q278,335,272.9,331l1.13-.81c3.91,2.81,7.82,5.63,11.62,8.53l.75.49-2.44.48A1.31,1.31,0,0,0,283.38,338.75Z"/><path class="cls-21" d="M288.41,337.49a59.07,59.07,0,0,0-8.79,1.19,7.76,7.76,0,0,0-3.35,1.34,1,1,0,0,0-.38.48.91.91,0,0,0,.7,1.07,10.62,10.62,0,0,0,6.58-.49C285.37,340.28,287.49,339,288.41,337.49Z"/><path d="M415,379c-26,0-47.05,33.36-47.05,74.5S389.06,528,415,528s47-33.35,47-74.5S441,379,415,379Zm0,144.22C391.26,523.2,372,492,372,453.48s19.28-69.72,43.06-69.72S458.1,415,458.1,453.48,438.82,523.2,415,523.2Z"/><path d="M415,529c-26.49,0-48.05-33.87-48.05-75.5S388.55,378,415,378s48,33.87,48,75.5S441.54,529,415,529Zm0-149c-25.39,0-46.05,33-46.05,73.5S389.65,527,415,527s46-33,46-73.5S440.43,380,415,380Zm0,144.22c-24.29,0-44.06-31.72-44.06-70.72s19.77-70.72,44.06-70.72,44.06,31.73,44.06,70.72S439.34,524.2,415,524.2Zm0-139.44c-23.19,0-42.06,30.83-42.06,68.72S391.85,522.2,415,522.2s42.06-30.83,42.06-68.72S438.23,384.76,415,384.76Z"/><path d="M417.79,525.51l-15-2.31,12-68.25L392,514.36l-9.51-11.21,31.75-49L375.8,489.35l-3.54-14.15.17-.09,41.28-21.59L370.43,464.2l-.12-12.26h.26l43.36.78L371.46,439.4,373.29,425l.33.21,40.76,26.54-35-41.61.09-.15,7.83-13,.2.4,27,52.17-18.86-61L406.16,384l9.19,63.79,1.11-65.19h.5l-1.13,66.62,14.86-62.73,9.93,7.59-.08.18L417.07,449.1l30.28-45.42,6.23,12.59-.13.13-35.67,33.53L457,428l2.55,14.38-41.46,8.52,42.5,6L458.62,474l-.32-.16-40.88-21.23,37.32,34.61-.07.16-5.9,14.21-32-47.47,23.94,59.18-11.45,9.25L415.76,455Zm-14.46-2.72,13.94,2.13-2-70.07Zm12.61-69.41,13.67,68.22,10.51-8.5L416,453.4Zm-32.8,49.73,8.72,10.29L414,455.56Zm33.71-49.82,31.82,47.21,5.48-13.19-37.5-34.77-.22.12.28.42.68.21Zm-44,22.17,3.24,13,37.42-34.22Zm44.71-23.39,40.66,21.12,1.8-15.87-43.22-6.13-.23.37,1,.5.08,0Zm-46.73.38.11,11.11,41.93-10.35Zm45.31-.24.11.17.19-.05-.24-.21ZM372,439.05l42.33,13.29-40.66-26.47Zm43.84,12.74.1.16,0,0ZM380,410.11,415,451.78,387.25,398Zm36.23,41.27.23.12.34-.31-.18,0Zm40.39-22.63L418,450.36,459,442ZM396.22,388.9l19,61.4-9.46-65.62ZM431,387.32,416.16,450,440,394.21Zm16.29,17.36-30.06,45.08L453,416.16Z"/><ellipse cx="415.42" cy="452.4" rx="3.39" ry="5.72"/><rect class="cls-20" x="240.05" y="501.99" width="80.78" height="10"/><path d="M284.25,484.11c-1,3.75-4,6.65-7.25,8.75s-6.88,3.61-10.07,5.81a3.2,3.2,0,0,0-1.71,2.35c0,1.66,2.17,2.26,3.83,2.36q12.29.69,24.6.64c3.89,0,8.44-.44,10.52-3.73,2.89-4.56-1.29-10.28-1.53-15.67C296.2,483,289.39,482.71,284.25,484.11Z"/><path d="M272,484.11c-1,3.75-4,6.65-7.24,8.75s-6.89,3.61-10.08,5.81a3.2,3.2,0,0,0-1.71,2.35c0,1.66,2.17,2.26,3.83,2.36q12.28.69,24.6.64c3.89,0,8.44-.44,10.53-3.73,2.88-4.56-1.3-10.28-1.53-15.67C283.9,483,277.1,482.71,272,484.11Z"/><path d="M415.37,283.6c-1.06-3.13.55-6.67,3.06-8.8s5.77-3.16,8.95-4a31.08,31.08,0,0,1,9-1.45c1.68,0,3.7.62,4.1,2.25.35,1.39-.77,2.78-2.1,3.32a11.73,11.73,0,0,1-4.23.46,26,26,0,0,0-7.27,1.16,12.33,12.33,0,0,0-4.79,2.52,6.16,6.16,0,0,0-2.12,4.84.9.9,0,0,1-.1.67.86.86,0,0,1-.6.21A4.91,4.91,0,0,1,415.37,283.6Z"/><path class="cls-22" d="M396.2,348.34a15.5,15.5,0,0,1-.82,14.53,38.74,38.74,0,0,0-2.57,4.08,4.86,4.86,0,0,0,0,4.61c1.5,2.3,4.95,2.08,7.69,1.57,4.6-.86,9.24-1.79,13.47-3.74s8-5.07,9.88-9.24a8.54,8.54,0,0,0,.23-7.22c-1.23-2.43-3.92-3.81-6.53-4.75a40.06,40.06,0,0,0-17.2-2.19,6.26,6.26,0,0,0-2.88.79C396.64,347.32,396.07,348.37,396.2,348.34Z"/><path d="M398.7,374.1a11.93,11.93,0,0,1-4-.7,5.51,5.51,0,0,1-2.58-1.69c-1.09-1.4-1.2-3.48-.3-5.71a24.58,24.58,0,0,1,2.11-3.85,25,25,0,0,0,1.86-3.32,11.89,11.89,0,0,0-1.2-11.31h0a1.66,1.66,0,0,1-.13-1.62,6,6,0,0,1,3.86-3.24c2-.53,4.35-.08,6.86,1.35a8.51,8.51,0,0,1,3.76,3.72,9.85,9.85,0,0,1,.62,4.37,67.3,67.3,0,0,1-2.39,16.08,8.25,8.25,0,0,1-1.63,3.48,6.68,6.68,0,0,1-2.73,1.72A11.82,11.82,0,0,1,398.7,374.1Zm-2.38-27.55a13.9,13.9,0,0,1,1.29,13.06,25.07,25.07,0,0,1-2,3.6,22.89,22.89,0,0,0-2,3.54c-.23.57-.91,2.53,0,3.72a3.67,3.67,0,0,0,1.69,1,9.94,9.94,0,0,0,6.74,0,4.72,4.72,0,0,0,1.93-1.18,6.56,6.56,0,0,0,1.2-2.67A65.81,65.81,0,0,0,407.54,352a8.22,8.22,0,0,0-.44-3.49,6.63,6.63,0,0,0-2.93-2.8c-1.4-.8-3.47-1.65-5.36-1.15A4.14,4.14,0,0,0,396.32,346.55Z"/><path d="M402.48,345.23a1,1,0,0,1-.72-1.7,10.4,10.4,0,0,1,4.55-2.74c.19-.06.37-.11.56-.15a3.82,3.82,0,0,0,1.69-.72c.66-.66.52-2,.3-3.17a134.6,134.6,0,0,0-6.61-23.28,1,1,0,0,1,1.86-.72,135.59,135.59,0,0,1,6.71,23.64c.33,1.7.47,3.63-.85,4.94a5.32,5.32,0,0,1-2.59,1.24l-.51.14a8.36,8.36,0,0,0-3.67,2.21A1,1,0,0,1,402.48,345.23Z"/><path d="M282.82,482.63a1,1,0,0,1-1-.81,181.62,181.62,0,0,1,.59-70.12c1.34-6.49,3.28-14,7.44-20.18,5.56-8.3,15.22-14.48,27.2-17.39,10.24-2.48,21-2.49,31.4-2.47h1a1,1,0,0,1,0,2h-1c-10.27,0-20.92,0-30.93,2.42-11.49,2.79-20.73,8.67-26,16.56-4,5.92-5.84,13.16-7.14,19.46a179.62,179.62,0,0,0-.59,69.35,1,1,0,0,1-.79,1.16A.65.65,0,0,1,282.82,482.63Z"/><path d="M304.73,486a1,1,0,0,1-.55-.17,1,1,0,0,1-.29-1.38C310.75,474,311.4,461,312,448.31c.18-3.79.38-7.71.74-11.5.19-2,.42-4,.66-6,1.26-10.82,2.56-22-2.91-31a1,1,0,1,1,1.7-1c5.83,9.53,4.49,21.07,3.19,32.23-.23,2-.46,4-.65,6-.35,3.74-.55,7.64-.74,11.41-.64,12.92-1.31,26.27-8.47,37.13A1,1,0,0,1,304.73,486Z"/><path class="cls-8" d="M259,503.66h-.12a1,1,0,0,1-.87-1.12c.62-5,5.88-7.49,8.12-8.31,1.17-.43,2.37-.78,3.54-1.12a24.25,24.25,0,0,0,6.66-2.67,11.45,11.45,0,0,0,4.58-6.08,1,1,0,0,1,1.26-.66,1,1,0,0,1,.65,1.26,13.42,13.42,0,0,1-5.39,7.15,25.89,25.89,0,0,1-7.2,2.92c-1.14.33-2.31.67-3.41,1.07-1.48.54-6.33,2.63-6.83,6.69A1,1,0,0,1,259,503.66Z"/><path d="M323.75,316.49A48.69,48.69,0,0,0,319.51,328c-.47,2.12-.74,4.26-1.14,6.39-.35,1.81-.81,3.62-1,5.47a5.85,5.85,0,0,0,4.3,6.74,24.13,24.13,0,0,0,4.68.95c1.62.21,3.24.35,4.86.4s3.48-.08,5.22-.17l7.78-.44,4-.23a27.16,27.16,0,0,0,3.6-.29c2.18-.43,3.24-2.3,3.68-4.32.5-2.31.75-4.69,1.21-7s1-4.9,1.66-7.32,1.34-4.8,2.12-7.17c.18-.56.36-1.13.57-1.68a2.2,2.2,0,0,1,.61-1c.29-.17.6.06.86.22.44.26.87.54,1.29.83,6.56,4.48,11,11.75,13,19.36.26,1,.47,2,.65,3a1,1,0,0,0,1.23.69,1,1,0,0,0,.7-1.23,37,37,0,0,0-11.27-21,27.46,27.46,0,0,0-4.65-3.45,2.6,2.6,0,0,0-3,0,5,5,0,0,0-1.46,2.44,113.84,113.84,0,0,0-3.93,14.31c-.5,2.42-.91,4.86-1.29,7.31a10.16,10.16,0,0,1-.69,2.72,2.44,2.44,0,0,1-2,1.46c-1.19.17-2.43.16-3.62.22l-3.83.22-7.79.44a48.12,48.12,0,0,1-9.67-.29,19.35,19.35,0,0,1-4.38-1,4,4,0,0,1-2.26-2.33,9.19,9.19,0,0,1,.18-4.26c.39-2.05.78-4.09,1.12-6.15a46.45,46.45,0,0,1,3.21-11.2q.69-1.53,1.44-3c.58-1.15-1.15-2.16-1.72-1Z"/></g></svg>