<svg xmlns="http://www.w3.org/2000/svg" xmlns:xlink="http://www.w3.org/1999/xlink" viewBox="0 0 550 550"><defs><style>.cls-1{fill:none;}.cls-2{fill:#66276d;}.cls-3{clip-path:url(#clip-path);}.cls-4{fill:#5e5d5d;}.cls-5{fill:#0dab4c;}.cls-6{fill:#f4a9ae;}.cls-7{fill:#2b2b2b;}.cls-8{opacity:0.71;}.cls-9{fill:#696969;}.cls-10{fill:#575757;}.cls-11{fill:#b3d570;}.cls-12{fill:#0f0f0f;}.cls-13{fill:#fff;}.cls-14{fill:#999393;}.cls-15{opacity:0.12;}.cls-16{fill:#f9e876;}</style><clipPath id="clip-path"><ellipse class="cls-1" cx="273.5" cy="276.97" rx="265.5" ry="264.03"/></clipPath></defs><g id="Layer_19" data-name="Layer 19"><ellipse class="cls-2" cx="273.5" cy="276.97" rx="265.5" ry="264.03"/><g class="cls-3"><path class="cls-4" d="M198,350.77H330.11a16,16,0,0,1,16,16V527.3a16,16,0,0,1-16,16H198a0,0,0,0,1,0,0V350.77A0,0,0,0,1,198,350.77Z"/><rect class="cls-5" x="210.7" y="383.58" width="121.21" height="159.71"/><path class="cls-6" d="M203.79,394.87c-19.45-14.66-44.45,17.9-13.18,30.76C211.41,439.21,226.66,406.32,203.79,394.87Z"/><path class="cls-6" d="M200.08,428.23c-23.49-15.19-53.68,18.53-15.92,31.86C209.27,474.15,227.69,440.09,200.08,428.23Z"/><path class="cls-6" d="M196.09,462.75c-23.37-11.3-44.07,26.59-8.44,33.84C212.25,506.54,222.52,470.14,196.09,462.75Z"/><path class="cls-6" d="M196.21,498.83c-19.72-5-28.85,27.77-.52,27.68C216.12,530.3,217.58,500.33,196.21,498.83Z"/><path class="cls-6" d="M351.37,543.34a32,32,0,0,0,6.45-.28c4.54-.43,10.07.84,13.69-2.69a13.17,13.17,0,0,0,2.79-4.81c7.75-19.84,8-42.31,1.46-62.52-2.77-8.59-7.16-20.88-14.18-27-5.09-4.44-15.95-9.53-22.47-5.53s-9.65,13.52-7.89,20.63c3.47,14.07,15.5,24.17,15.3,39.53a106.81,106.81,0,0,1-1.31,11.79,170.79,170.79,0,0,0-1,18c-.06,3-.08,6.19,1.28,8.89A7,7,0,0,0,351.37,543.34Z"/><rect x="261.19" y="364.4" width="28.38" height="3.85" rx="1.75"/><rect x="254.54" y="364.4" width="3.55" height="3.85" rx="1.6"/><path d="M184,426.19a63.67,63.67,0,0,0,19.48,6.28c1.71.26,3.65-.42,4.08-2.3.36-1.57-.48-3.79-2.32-4.06a62.22,62.22,0,0,1-9.43-2.16,51,51,0,0,1-8.46-3.46,3.38,3.38,0,0,0-4.54,1.18,3.34,3.34,0,0,0,1.19,4.52Z"/><path d="M180,462.49a43.25,43.25,0,0,0,18.91,4.82,3.33,3.33,0,0,0,3.32-3.3,3.37,3.37,0,0,0-3.32-3.3c-.72,0-1.44,0-2.16-.1l-1.23-.11c-.15,0-1-.13-.35,0a38.43,38.43,0,0,1-4.25-.83,39.56,39.56,0,0,1-4.13-1.3c-.29-.1-.58-.22-.86-.33l-.07,0-.56-.25c-.66-.29-1.31-.61-1.95-.94a3.39,3.39,0,0,0-4.54,1.18,3.33,3.33,0,0,0,1.19,4.52Z"/><path d="M181.56,500.08a57,57,0,0,0,17.7,3,3.3,3.3,0,1,0,0-6.6c-1.37,0-2.75-.07-4.12-.19-.74-.06-1.47-.14-2.21-.24l-.37,0-1.1-.18a54.62,54.62,0,0,1-8.14-2.09,3.34,3.34,0,0,0-4.08,2.31,3.38,3.38,0,0,0,2.32,4.06Z"/><path d="M378.29,536.94c1.65-14,2.74-28.1,2-42.18a142.15,142.15,0,0,0-2.65-21,69.12,69.12,0,0,0-6-18.13c-5.57-10.72-17.18-19.8-29.93-17.22a20.77,20.77,0,0,0-13.49,9.48c-3.33,5.66-2.58,12.25-.19,18.11,2.73,6.69,7.1,12.4,10.83,18.54,3.47,5.72,6.65,12.58,5.2,19.42a3.32,3.32,0,0,0,6.4,1.75c1.39-6.53-.11-12.92-2.86-18.89-2.52-5.48-6.15-10.32-9.32-15.43-3-4.75-6-10.2-5.71-16a10.68,10.68,0,0,1,2.17-5.42,14.47,14.47,0,0,1,11.65-5.44,17.72,17.72,0,0,1,6.84,1.6A26.29,26.29,0,0,1,364.73,457a55.22,55.22,0,0,1,5.92,16,125.92,125.92,0,0,1,2.8,19.12c1.07,14.95,0,30-1.8,44.81-.21,1.77,1.68,3.3,3.32,3.3a3.39,3.39,0,0,0,3.32-3.3Z"/><path class="cls-6" d="M498.26,310.79q0,.45.12.9c3.4,25.08,12.16,50.64,21.19,74.18q6.9,17.94,15.42,35.2c1.46,2.95,16.56,33.34,18.21,32.73L487,478.35l-35-70.09q-8.85-17.72-17.7-35.43c-2.21-4.43-3.06-8.5-6.76-12.05-3-2.91-6.7-5.15-9.19-8.6-2.29-3.15-3.32-7-4.17-10.8-4.11-18.39-5-37.73-.35-56S428.73,250,444,238.87c2.84-2.06,6-4,9.49-4.28a19.77,19.77,0,0,1,8.86,1.74,65.09,65.09,0,0,1,25.86,18.5,28.48,28.48,0,0,1,5.22,8.34,36.34,36.34,0,0,1,1.64,9.4C496.18,285.25,496.61,298.18,498.26,310.79Z"/><path class="cls-6" d="M352.31,210.22a32.68,32.68,0,0,0-18.46-17.09c-4.48-1.62-9.72-2.17-13.82.25-4.54,2.68-6.52,8.58-5.51,13.74s4.53,9.56,8.76,12.71,21.19,10.34,26.06,12.38C352.27,225.06,346,214,352.31,210.22Z"/><path class="cls-7" d="M491,316,432.56,176.45c-3.3-7.87-12.14-12-19.76-9.15L342,193.5c-7.61,2.81-11.11,11.48-7.81,19.35L392.68,352.4c4.49,10.72,16.53,16.29,26.89,12.46l60.84-22.51C490.77,338.51,495.53,326.72,491,316Z"/><polygon class="cls-5" points="480.65 314.46 427.05 186.55 346.55 216.34 400.15 344.25 480.65 314.46"/><g class="cls-8"><path class="cls-9" d="M389.13,188.47h0a1.49,1.49,0,0,0-1.85-.85l-16.27,6a1.34,1.34,0,0,0-.73,1.81h0a1.48,1.48,0,0,0,1.84.85l16.28-6A1.35,1.35,0,0,0,389.13,188.47Z"/></g><path class="cls-9" d="M393.59,187l-.09-.22a1.36,1.36,0,0,0-1.69-.79h0a1.23,1.23,0,0,0-.67,1.66l.09.22a1.36,1.36,0,0,0,1.69.78h0A1.22,1.22,0,0,0,393.59,187Z"/><path class="cls-10" d="M457.46,333.77h0a5.52,5.52,0,0,0-6.85-3.17l-16.9,6.26a5,5,0,0,0-2.7,6.7h0a5.49,5.49,0,0,0,6.84,3.17l16.9-6.25A5,5,0,0,0,457.46,333.77Z"/><path class="cls-6" d="M471,231.31c-4.57-2.22-9.23-4.43-14.2-5.29s-10.38-.23-14.41,2.83-6.24,8.87-4.32,13.69c2.09,5.22,7.86,7.61,13,9.45,7.21,2.56,14.42,5.12,23.68,8.8,1.7,21.54.27,47.86,23.16,61.67,7.6-15.6,9.94-37.34,4.34-54S484.35,237.79,471,231.31Z"/><path class="cls-6" d="M355.64,243.13c-5.17-3-10.33-6.17-16.41-3.15A13.53,13.53,0,0,0,332,254.74c1.59,7,8.61,11.49,15.57,13.28,6.35,1.63,14.3,1,17.81-4.47,2.63-4.12,1.73-9.78-1.14-13.73C362.05,246.78,358.86,245,355.64,243.13Z"/><path class="cls-6" d="M362.64,271.37c-3.84-1.9-7.81-3.83-12.09-4s-9,1.76-10.58,5.7c-1.31,3.22-.28,7,1.86,9.76a22.72,22.72,0,0,0,8.39,6c4.09,1.94,8.62,3.43,13.09,2.72s8.74-4.25,8.95-8.74c.15-3.12-1.63-6.08-4-8.12A22.64,22.64,0,0,0,362.64,271.37Z"/><path class="cls-6" d="M369.39,292c-3.11-1.39-6.32-2.8-9.61-2.72s-6.67,2.07-7.51,5.54a9.71,9.71,0,0,0,2.37,8.24,18.48,18.48,0,0,0,7,4.66c3.31,1.41,6.91,2.41,10.25,1.53a8,8,0,0,0,6-8A9.84,9.84,0,0,0,374,294.5,17.88,17.88,0,0,0,369.39,292Z"/><path class="cls-5" d="M450.5,473.57l-23.36-72.81c-1.48-4.61-2.94-9.66-1-14.13,2.39-5.62,9.12-8.27,15.18-10.34L500.56,356c7.28-2.49,15.37-5,22.56-2.28,6.68,2.51,10.68,8.81,14.09,14.74a617.45,617.45,0,0,1,49.23,108.76C540.34,483,493.51,483.68,450.5,473.57Z"/><path d="M426.94,404.53c.33,1.32.6,2.51.77,3.5.22,1.31.58,2.8,1.78,3.41s2.35.15,3.48-.24q53.65-18.85,107.54-37.06a123.67,123.67,0,0,0-14.63-22.8,9.9,9.9,0,0,0-2.94-2.72c-2.46-1.28-5.47-.43-8.11.46q-25.26,8.48-50.2,17.81c-9.29,3.42-18.87,6-28,9.89-3.43,1.47-9.46,3.42-11.56,6.78C422.31,388,425.28,397.88,426.94,404.53Z"/><path class="cls-11" d="M349.07,328.23v4.58a1.56,1.56,0,0,1-1.56,1.56h-4.06a1.55,1.55,0,0,0-1.56,1.55v3.49a1.56,1.56,0,0,1-1.57,1.55h-4.61a1.55,1.55,0,0,1-1.56-1.55v-3.49a1.55,1.55,0,0,0-1.56-1.55h-3.51a1.56,1.56,0,0,1-1.56-1.56v-4.58a1.56,1.56,0,0,1,1.56-1.56h3.51a1.56,1.56,0,0,0,1.56-1.55v-4a1.55,1.55,0,0,1,1.56-1.55h4.61a1.56,1.56,0,0,1,1.57,1.55v4a1.56,1.56,0,0,0,1.56,1.55h4.06A1.56,1.56,0,0,1,349.07,328.23Z"/><path class="cls-11" d="M120.84,191.05v6.32a2.15,2.15,0,0,1-2.16,2.14h-5.59a2.15,2.15,0,0,0-2.16,2.14v4.81a2.14,2.14,0,0,1-2.15,2.14h-6.35a2.15,2.15,0,0,1-2.16-2.14v-4.81a2.15,2.15,0,0,0-2.16-2.14H93.29a2.15,2.15,0,0,1-2.16-2.14v-6.32a2.15,2.15,0,0,1,2.16-2.15h4.82a2.15,2.15,0,0,0,2.16-2.14V181.2a2.15,2.15,0,0,1,2.16-2.14h6.35a2.14,2.14,0,0,1,2.15,2.14v5.56a2.15,2.15,0,0,0,2.16,2.14h5.59A2.16,2.16,0,0,1,120.84,191.05Z"/><path class="cls-11" d="M492.45,174.11v9a3,3,0,0,1-3.06,3h-8a3.06,3.06,0,0,0-3.06,3.05V196a3.05,3.05,0,0,1-3.07,3h-9a3.05,3.05,0,0,1-3.07-3v-6.83a3.06,3.06,0,0,0-3.06-3.05h-6.87a3.05,3.05,0,0,1-3.07-3v-9a3.06,3.06,0,0,1,3.07-3.05h6.87A3.05,3.05,0,0,0,463.2,168V160.1a3.05,3.05,0,0,1,3.07-3h9a3.05,3.05,0,0,1,3.07,3V168a3.05,3.05,0,0,0,3.06,3.05h8A3.06,3.06,0,0,1,492.45,174.11Z"/><path d="M448.72,222.29c-8.12,1.14-15.12,9.72-13.92,17.9s9.76,13.3,17,15.84c3.6,1.26,7.74,2.23,10.46,5.08,2.42,2.53,3.45,6.18,4.63,9.49a137,137,0,0,1,4.26,13.58c1.11,4.56,1.72,9.21,2.71,13.8,2,9.15,6.14,18.95,15.11,23.27a3.42,3.42,0,0,0,4.54-1.19,3.32,3.32,0,0,0-1.19-4.51c-6.61-3.19-9.78-10.07-11.48-16.86-1.08-4.28-1.7-8.65-2.56-13a102.06,102.06,0,0,0-3.62-13c-2.53-7.43-4.74-15.74-12.26-19.66-6.53-3.41-14.5-4.1-19.3-10.16a7,7,0,0,1-.71-8.49,10.73,10.73,0,0,1,8.1-5.79c1.78-.25,2.75-2.5,2.32-4.06-.53-1.9-2.3-2.55-4.08-2.31Z"/><path d="M344.6,269.9a74.24,74.24,0,0,0,15.07,1.87,3.3,3.3,0,1,0,0-6.6c-2.34-.05-4.68-.21-7-.49l-.41-.05.2,0-1-.14c-.54-.08-1.09-.17-1.63-.27-1.17-.21-2.34-.45-3.5-.72a3.31,3.31,0,1,0-1.77,6.37Z"/><path d="M353.55,293.89a53.1,53.1,0,0,0,16.44,1,3.4,3.4,0,0,0,3.32-3.3c-.08-1.64-1.47-3.49-3.32-3.3a50.37,50.37,0,0,1-7.67.18c-.59,0-1.18-.07-1.77-.13l-1-.1c-.15,0-1.21-.15-.44-.05-1.27-.17-2.53-.4-3.78-.67a3.3,3.3,0,1,0-1.76,6.36Z"/><path class="cls-12" d="M128.35,296l-32-46.49a8.57,8.57,0,0,1,5.25-11L223.9,195.08c4.49-1.6,8.57-.2,11,5.17l32,46.49a8.57,8.57,0,0,1-5.24,11L139.4,301.19A8.64,8.64,0,0,1,128.35,296Z"/><path class="cls-12" d="M96,247.55c.6,7.54,3.79,14.58,7.23,21.25a95.75,95.75,0,0,0,10.67,17A41.14,41.14,0,0,0,129.38,298a29.09,29.09,0,0,0,8.78,2.18c-1.62-4.53-3.27-9.14-6.08-13-2.06-2.82-4.67-5.14-7-7.76-9.12-10.42-12.89-25.1-22.6-34.93-.86-.88-1.92-1.77-3.13-1.67A3.08,3.08,0,0,0,97,244.68,29.32,29.32,0,0,1,96,247.55Z"/><path class="cls-13" d="M126.2,296.26a.57.57,0,0,1-.43-.2A208.82,208.82,0,0,1,96.43,249.5a.55.55,0,0,1,1-.45,207.46,207.46,0,0,0,29.18,46.3.54.54,0,0,1-.07.78A.58.58,0,0,1,126.2,296.26Z"/><polygon class="cls-5" points="139.63 288.8 106.26 240.61 219.61 200.32 252.97 248.51 139.63 288.8"/><path class="cls-13" d="M148.47,293a.54.54,0,0,1-.52-.35.55.55,0,0,1,.32-.71l4.41-1.65q56.82-21.22,113.65-42.5a.55.55,0,1,1,.39,1q-56.82,21.28-113.65,42.5L148.66,293A.63.63,0,0,1,148.47,293Z"/><path class="cls-6" d="M82.81,289.45c2-.91,4-1.65,5.54-3.2A49,49,0,0,0,93,280.8c2.87-3.78,5.57-7.79,9.36-10.75,5.91-4.62,13.63-6.06,20.66-8.72,9.18-3.49,17.32-9.17,25.83-14.08,4.37-2.52,9.08-4.9,14.13-4.9,7.08,0,8.81,7.9,6.06,13.35-1.75,3.48-4.85,6.08-8,8.38-4.21,3.09-8.69,5.85-12.61,9.31a20.9,20.9,0,0,0-3.49,3.79,11.31,11.31,0,0,0-2,7.09c.73,8.88,11.81,8.69,18.46,8a75.87,75.87,0,0,0,16.54-3.06c3.51-1.17,6.86-2.8,10.24-4.3,6.2-2.74,12.58-5.05,19-7.37l10.21-3.71c5-1.82,10.06-3.65,15.33-4.44,1.89-.28,3.93-.41,5.6.5,2.72,1.48,3.44,5.17,2.69,8.17-1.14,4.56-4.82,8.13-8.91,10.49s-8.66,3.73-13,5.55c-5.74,2.4-11.11,5.58-16.67,8.33A97.56,97.56,0,0,1,187.21,308a235.88,235.88,0,0,1-29.84,6.65c-19.29,3.24-38.87,4.83-58.06,8.59q-2.49.48-5,1.06c-5.66-13.61-8.56-20.39-11-34.77A1.12,1.12,0,0,1,82.81,289.45Z"/><path class="cls-6" d="M201.87,294.76c1.32,5-1.93,9.5-6.56,11.05-1.2.41-2.62.67-3.3,1.73a5.15,5.15,0,0,0-.56,1.87c-1.18,6.44-6.68,12.12-12.51,14.78a13.79,13.79,0,0,0-3.13,1.66c-1.75,1.44-2.41,3.82-3.89,5.53-2.47,2.86-6.65,3.34-10.41,3.77a5.63,5.63,0,0,0-3.1,1,8.88,8.88,0,0,0-1.59,2.43C154,343.3,147,344.2,142,344.84c-7.14.91-14.24-1.24-21.18-2.63a123,123,0,0,0-23.06-2.27c.49-4.29-2.13-8.27-4.63-11.8l-5-7c-1-1.42-3.38-4.25-2.16-6,1.06-1.52,5.2-2.39,6.86-3a131.91,131.91,0,0,1,16.47-5,251.76,251.76,0,0,1,33.78-5.22C162.77,299.93,182.57,299,201.87,294.76Z"/><path class="cls-5" d="M-29.1,386.55s-.43.77.7,1.44L81.81,350c6.07-2.09,12.89-4.89,14.67-10.53,1-3.09.15-6.37-.66-9.5L83.93,284.66c-.79-3-1.77-6.31-4.55-8.15-3.51-2.3-8.37-1.39-12.56-.37Q27.06,285.92-11.93,298c-4.69,1.46-9.59,3.08-12.85,6.45-4.42,4.58-4.76,11.2-4.81,17.27C-29.77,343.42-29.21,365.08-29.1,386.55Z"/><path d="M55,279.1C65,302,68.11,310.42,76.6,351.92c7.71-3.13,21.3-7.17,22.8-12.79s-.07-11.51-1.65-17.11l-9.51-33.85c-1.17-4.18-2.48-8.57-5.83-11.59s-12-1.39-21.25,1C58.85,278.32,57.31,278.32,55,279.1Z"/><path class="cls-14" d="M237.63,215.38h0a1.56,1.56,0,0,1,2.15.41l7.76,11.37a1.52,1.52,0,0,1-.41,2.13h0a1.54,1.54,0,0,1-2.14-.4l-7.77-11.38A1.53,1.53,0,0,1,237.63,215.38Z"/><path class="cls-14" d="M234.81,211.25h0a1.54,1.54,0,0,1,2.14.4h0a1.52,1.52,0,0,1-.41,2.13h0a1.54,1.54,0,0,1-2.14-.4h0A1.52,1.52,0,0,1,234.81,211.25Z"/><path d="M174.65,313.6q9.78-2.1,19.64-3.86a3.31,3.31,0,0,0,2.32-4.06,3.4,3.4,0,0,0-4.08-2.3q-9.85,1.75-19.65,3.85a3.33,3.33,0,0,0-2.31,4.06,3.4,3.4,0,0,0,4.08,2.31Z"/><path d="M162.34,328.46a37.94,37.94,0,0,0,15.59-1.63,3.3,3.3,0,1,0-1.76-6.37,34.67,34.67,0,0,1-3.46.94c-.63.14-1.27.26-1.9.36-.11,0-1,.17-.21,0-.32.06-.64.08-1,.11a34.92,34.92,0,0,1-7.3,0,3.32,3.32,0,0,0-3.32,3.3,3.42,3.42,0,0,0,3.32,3.31Z"/><path d="M147,337.28a38,38,0,0,0,13.18-.83,3.33,3.33,0,0,0,2.32-4.06,3.39,3.39,0,0,0-4.08-2.3c-1,.23-2,.42-3,.58-.75.11.64-.07,0,0l-.81.09c-.5.05-1,.09-1.52.12a35.06,35.06,0,0,1-6.06-.2,3.31,3.31,0,0,0-3.32,3.3,3.33,3.33,0,0,0,1,2.33,3.92,3.92,0,0,0,2.35,1Z"/><path class="cls-11" d="M70.42,230.17v3.77a1.28,1.28,0,0,1-1.28,1.28H65.8a1.28,1.28,0,0,0-1.29,1.28v2.87a1.28,1.28,0,0,1-1.29,1.28h-3.8a1.28,1.28,0,0,1-1.28-1.28V236.5a1.29,1.29,0,0,0-1.29-1.28H54a1.28,1.28,0,0,1-1.28-1.28v-3.77A1.28,1.28,0,0,1,54,228.89h2.89a1.29,1.29,0,0,0,1.29-1.28v-3.33A1.28,1.28,0,0,1,59.42,223h3.8a1.29,1.29,0,0,1,1.29,1.28v3.33a1.28,1.28,0,0,0,1.29,1.28h3.34A1.28,1.28,0,0,1,70.42,230.17Z"/><path class="cls-11" d="M132.72,405.42v9.13a3.11,3.11,0,0,1-3.12,3.1h-8.08a3.11,3.11,0,0,0-3.12,3.1v6.95a3.11,3.11,0,0,1-3.12,3.1H106.1a3.11,3.11,0,0,1-3.12-3.1v-6.95a3.11,3.11,0,0,0-3.12-3.1h-7a3.11,3.11,0,0,1-3.12-3.1v-9.13a3.11,3.11,0,0,1,3.12-3.1h7a3.11,3.11,0,0,0,3.12-3.1v-8a3.11,3.11,0,0,1,3.12-3.1h9.18a3.11,3.11,0,0,1,3.12,3.1v8a3.11,3.11,0,0,0,3.12,3.1h8.08A3.11,3.11,0,0,1,132.72,405.42Z"/></g><g class="cls-15"><rect x="110.72" y="19.36" width="72.74" height="125.08" rx="11.07"/><rect x="192.77" y="19.36" width="72.74" height="125.08" rx="11.07"/><rect x="273.79" y="19.36" width="72.74" height="125.08" rx="11.07"/><rect x="354.31" y="19.36" width="72.74" height="125.08" rx="11.07"/><rect x="433.49" y="19.36" width="72.74" height="125.08" rx="11.07"/><rect x="30.12" y="19.36" width="72.74" height="125.08" rx="11.07"/></g><path class="cls-16" d="M115.26,127.52V24.06A10.29,10.29,0,0,1,125.57,13.8h52a10.29,10.29,0,0,1,10.32,10.26V127.52a10.29,10.29,0,0,1-10.32,10.26h-52A10.28,10.28,0,0,1,115.26,127.52Z"/><path class="cls-16" d="M197.23,127.52V24.06A10.29,10.29,0,0,1,207.54,13.8h52A10.29,10.29,0,0,1,269.9,24.06V127.52a10.29,10.29,0,0,1-10.31,10.26h-52A10.29,10.29,0,0,1,197.23,127.52Z"/><path class="cls-16" d="M278.18,127.52V24.06A10.29,10.29,0,0,1,288.5,13.8h52a10.29,10.29,0,0,1,10.32,10.26V127.52a10.29,10.29,0,0,1-10.32,10.26h-52A10.29,10.29,0,0,1,278.18,127.52Z"/><path class="cls-16" d="M358.63,127.52V24.06A10.29,10.29,0,0,1,369,13.8h52A10.29,10.29,0,0,1,431.3,24.06V127.52A10.29,10.29,0,0,1,421,137.78H369A10.29,10.29,0,0,1,358.63,127.52Z"/><path class="cls-16" d="M437.74,127.52V24.06A10.29,10.29,0,0,1,448.06,13.8h52a10.29,10.29,0,0,1,10.31,10.26V127.52a10.29,10.29,0,0,1-10.31,10.26h-52A10.29,10.29,0,0,1,437.74,127.52Z"/><path class="cls-16" d="M34.73,127.52V24.06A10.29,10.29,0,0,1,45,13.8H97.09A10.29,10.29,0,0,1,107.4,24.06V127.52a10.29,10.29,0,0,1-10.31,10.26H45A10.29,10.29,0,0,1,34.73,127.52Z"/><path d="M105.73,128.55h0a.92.92,0,0,1-.9-1l1.9-76.33c-.11-2.78,0-5.78.07-9,.17-5.72.34-11.63-.66-16.74a13,13,0,0,0-10.2-10.24c-9.52-2-23.07-1-35-.22-6.12.41-11.9.8-16.12.71A.93.93,0,1,1,44.81,14c4.14.1,9.87-.29,15.94-.7,12.08-.82,25.77-1.76,35.54.25a14.89,14.89,0,0,1,11.65,11.71c1,5.31.86,11.32.69,17.14-.09,3.15-.17,6.11-.07,8.88l-1.9,76.4A.93.93,0,0,1,105.73,128.55Z"/><path d="M66.56,139.76c-3.49,0-6.39-.23-9.65-.48-2.55-.2-5.44-.42-9.11-.58l-1.25,0c-2.6-.07-5.3-.14-7.48-1.76-5.48-3.12-5.43-18.25-4.73-40.94.32-10.38.65-21.11-.14-28.69a.94.94,0,0,1,.83-1,.93.93,0,0,1,1,.83c.81,7.7.48,18.5.15,28.94-.52,17.14-1.12,36.57,3.84,39.3l.11.07c1.71,1.29,4,1.35,6.45,1.41l1.28,0c3.7.16,6.61.39,9.18.58a99.48,99.48,0,0,0,11.78.44,1,1,0,0,1,1,.9.94.94,0,0,1-.91,1Z"/><path d="M187,129.1h0a.91.91,0,0,1-.91-.94L188,50.83c-.15-4-.23-8.51-.3-12.91s-.15-9.1-.31-13.25a9.11,9.11,0,0,0-9.52-9.06H169.7c-14.83,0-30.16,0-40.39-.23a.93.93,0,0,1,0-1.85h0c10.2.25,25.52.24,40.34.23h8.16A11,11,0,0,1,189.24,24.6c.16,4.17.24,8.81.31,13.29s.15,8.92.3,12.93L188,128.2A.93.93,0,0,1,187,129.1Z"/><path d="M146.45,139.76c-3.49,0-6.38-.23-9.65-.48-2.55-.2-5.44-.42-9.11-.58l-1.25,0c-2.6-.07-5.29-.14-7.47-1.76-5.48-3.12-5.44-18.25-4.74-40.94.33-10.38.66-21.11-.14-28.69a.93.93,0,0,1,1.86-.19c.8,7.7.47,18.5.15,28.94-.53,17.14-1.13,36.57,3.83,39.3a.41.41,0,0,1,.11.07c1.71,1.29,4,1.35,6.45,1.41l1.28,0c3.7.16,6.61.39,9.18.58a99.48,99.48,0,0,0,11.78.44,1,1,0,0,1,1,.9.94.94,0,0,1-.91,1Z"/><path d="M268.54,128.5h0a.93.93,0,0,1-.91-1l1.9-77.32c-.15-4-.22-8.52-.3-12.92s-.15-9.09-.3-13.24A9.13,9.13,0,0,0,259.38,15H251.3c-14.86,0-30.22,0-40.46-.23a.93.93,0,0,1,0-1.85h0c10.22.24,25.57.23,40.42.22h8.08A11,11,0,0,1,270.77,24c.15,4.17.23,8.8.31,13.28s.15,8.93.29,12.94l-1.9,77.38A.92.92,0,0,1,268.54,128.5Z"/><path d="M228,139.15c-3.49,0-6.38-.22-9.64-.47-2.55-.2-5.45-.42-9.11-.58l-1.26,0c-2.6-.07-5.29-.14-7.47-1.75-5.48-3.13-5.43-18.25-4.73-40.94.32-10.38.65-21.11-.14-28.69a.93.93,0,0,1,1.85-.19c.81,7.7.47,18.5.15,28.94-.53,17.14-1.13,36.56,3.83,39.29l.12.08c1.7,1.29,4,1.35,6.44,1.41l1.29,0c3.7.16,6.61.38,9.17.58a101.74,101.74,0,0,0,11.78.44.94.94,0,0,1,1,.9.92.92,0,0,1-.9,1Z"/><path d="M349.48,129.1h0a.92.92,0,0,1-.91-.94l1.9-77.33c-.15-4-.22-8.53-.3-12.93s-.15-9.08-.3-13.23a9.12,9.12,0,0,0-9.53-9.06h-8.15c-14.84,0-30.17,0-40.4-.23a.93.93,0,0,1,0-1.85h0c10.2.25,25.53.24,40.35.23h8.15A11,11,0,0,1,351.71,24.6c.15,4.17.23,8.79.3,13.27s.15,8.94.3,13l-1.9,77.38A.93.93,0,0,1,349.48,129.1Z"/><path d="M308.91,139.76c-3.48,0-6.38-.23-9.64-.48-2.55-.2-5.45-.42-9.11-.58l-1.25,0c-2.61-.07-5.3-.14-7.48-1.76C276,133.79,276,118.66,276.7,96c.32-10.38.65-21.11-.14-28.69a.92.92,0,0,1,.83-1,1,1,0,0,1,1,.83c.81,7.7.47,18.5.15,28.94-.53,17.14-1.13,36.57,3.83,39.3l.12.07c1.7,1.29,4,1.35,6.44,1.41l1.29,0c3.7.16,6.61.39,9.17.58a99.48,99.48,0,0,0,11.78.44.93.93,0,0,1,.06,1.86Z"/><path d="M430.54,129.1h0a.91.91,0,0,1-.91-.94l1.9-77.33c-.15-4-.23-8.53-.3-12.93s-.15-9.08-.31-13.23a9.11,9.11,0,0,0-9.52-9.06h-8.16c-14.83,0-30.16,0-40.39-.23a.93.93,0,1,1,0-1.85h0c10.2.25,25.52.24,40.34.23h8.16A11,11,0,0,1,432.76,24.6c.16,4.17.24,8.79.31,13.27s.15,8.94.3,13l-1.9,77.38A.93.93,0,0,1,430.54,129.1Z"/><path d="M390,139.76c-3.49,0-6.38-.23-9.65-.48-2.55-.2-5.44-.42-9.11-.58l-1.25,0c-2.6-.07-5.29-.14-7.47-1.76-5.48-3.12-5.44-18.25-4.73-40.94.32-10.38.65-21.11-.15-28.69a.94.94,0,0,1,.83-1,1,1,0,0,1,1,.83c.8,7.7.47,18.5.15,28.94-.53,17.14-1.13,36.57,3.83,39.3a.41.41,0,0,1,.11.07c1.71,1.29,4,1.35,6.45,1.41l1.28,0c3.7.16,6.61.39,9.18.58a99.48,99.48,0,0,0,11.78.44,1,1,0,0,1,1,.9.94.94,0,0,1-.91,1Z"/><path d="M508.51,127.57h0a.92.92,0,0,1-.91-.95l1.9-77.32c-.15-4-.22-8.51-.3-12.91s-.15-9.1-.3-13.25a9.12,9.12,0,0,0-9.53-9.06h-8.08c-14.86,0-30.22,0-40.46-.23a.93.93,0,0,1,0-1.85h0c10.22.25,25.57.23,40.42.23h8.08a11,11,0,0,1,11.39,10.85c.15,4.17.23,8.81.31,13.29s.15,8.92.29,12.93l-1.9,77.38A.92.92,0,0,1,508.51,127.57Z"/><path d="M467.94,138.23c-3.49,0-6.38-.23-9.64-.48-2.55-.2-5.45-.42-9.11-.58l-1.26,0c-2.6-.06-5.29-.13-7.47-1.75-5.48-3.12-5.43-18.25-4.73-40.94.32-10.38.65-21.11-.14-28.69a.93.93,0,0,1,.83-1,.94.94,0,0,1,1,.83c.81,7.7.47,18.5.15,28.94-.53,17.14-1.13,36.57,3.83,39.3l.12.07c1.7,1.29,4,1.35,6.44,1.41l1.29,0c3.7.16,6.61.39,9.17.58a99.56,99.56,0,0,0,11.78.44.92.92,0,0,1,1,.9.94.94,0,0,1-.9,1Z"/><path class="cls-5" d="M64.68,60.24,51.74,67.79V56.31l13.64-7.93H75.75v51.76H64.68Z"/><path class="cls-5" d="M129.56,75.36c0-16.79,9.3-27,22.77-27S175,58.57,175,75.36s-9.37,27-22.69,27S129.56,92.15,129.56,75.36Zm34.39,0c0-11.4-4.42-17-11.62-17s-11.69,5.62-11.69,17,4.41,17,11.69,17S164,86.76,164,75.36Z"/><path class="cls-5" d="M211.43,75.36c0-16.79,9.29-27,22.76-27s22.7,10.24,22.7,27-9.37,27-22.7,27S211.43,92.15,211.43,75.36Zm34.38,0c0-11.4-4.41-17-11.62-17S222.5,64,222.5,75.36s4.41,17,11.69,17S245.81,86.76,245.81,75.36Z"/><path class="cls-5" d="M292.18,75.36c0-16.79,9.29-27,22.77-27s22.69,10.24,22.69,27-9.37,27-22.69,27S292.18,92.15,292.18,75.36Zm34.39,0c0-11.4-4.42-17-11.62-17s-11.69,5.62-11.69,17,4.41,17,11.69,17S326.57,86.76,326.57,75.36Z"/><path class="cls-5" d="M371.83,75.36c0-16.79,9.29-27,22.77-27s22.69,10.24,22.69,27-9.37,27-22.69,27S371.83,92.15,371.83,75.36Zm34.39,0c0-11.4-4.42-17-11.62-17s-11.69,5.62-11.69,17,4.41,17,11.69,17S406.22,86.76,406.22,75.36Z"/><path class="cls-5" d="M451.48,75.36c0-16.79,9.29-27,22.77-27s22.69,10.24,22.69,27-9.37,27-22.69,27S451.48,92.15,451.48,75.36Zm34.39,0c0-11.4-4.42-17-11.62-17s-11.69,5.62-11.69,17,4.41,17,11.69,17S485.87,86.76,485.87,75.36Z"/><path d="M177.74,244.46l19.82,5.33a2.14,2.14,0,0,0,2.56-1.52l.8-3.45Z"/><path class="cls-13" d="M184.13,224.62l-2.23-.28a3.9,3.9,0,0,0-4.25,3L175,241a2.93,2.93,0,0,0,2.7,3.51l26.09,2.69a3.93,3.93,0,0,0,4.06-2.63l1.32-4.12a3,3,0,0,0-2.92-3.91l-21.95-.26,2.32-7.79a2.93,2.93,0,0,0-2.53-3.82"/><path d="M269.26,488.59l23-18.45a2.62,2.62,0,0,0,.12-4l-3.77-3.45Z"/><path class="cls-13" d="M249,466.78l-2.17,2.3a4.82,4.82,0,0,0,.39,7l15.35,13a4.82,4.82,0,0,0,6.7-.46L294,461.14a4.83,4.83,0,0,0-.06-6.52l-4.21-4.53a4.83,4.83,0,0,0-7.41.41l-18.23,24.58L256,466.73a4.82,4.82,0,0,0-7,0"/><path d="M415.53,277.33l10-17.69a1.81,1.81,0,0,0-.94-2.59l-3.29-1.25Z"/><path class="cls-13" d="M397,268.52l-.81,2a3.33,3.33,0,0,0,2,4.39l13.14,4.39a3.33,3.33,0,0,0,4.18-2l8.83-23.9a3.32,3.32,0,0,0-1.7-4.16l-3.85-1.82a3.32,3.32,0,0,0-4.64,2.15L408.76,270l-7.33-3.28a3.32,3.32,0,0,0-4.45,1.8"/></g></svg>