<svg xmlns="http://www.w3.org/2000/svg" xmlns:xlink="http://www.w3.org/1999/xlink" viewBox="0 0 550 550"><defs><style>.cls-1,.cls-24,.cls-33,.cls-8{fill:none;}.cls-2{fill:#401240;}.cls-3{fill:#78a6cc;}.cls-10,.cls-4{fill:#f4a9ae;}.cls-13,.cls-14,.cls-15,.cls-16,.cls-17,.cls-18,.cls-19,.cls-20,.cls-21,.cls-22,.cls-23,.cls-25,.cls-26,.cls-27,.cls-28,.cls-29,.cls-30,.cls-31,.cls-34,.cls-35,.cls-36,.cls-37,.cls-38,.cls-4,.cls-45{fill-rule:evenodd;}.cls-5{clip-path:url(#clip-path);}.cls-6{fill:#fff;}.cls-7{fill:#ff2c59;}.cls-33,.cls-8{stroke:#000;stroke-linecap:round;stroke-linejoin:round;}.cls-8{stroke-width:2px;}.cls-9{fill:#ef7284;}.cls-11,.cls-29{fill:#3c9e32;}.cls-12{fill:#018aab;}.cls-13{opacity:0.33;}.cls-14{fill:#dae8ed;}.cls-15{fill:#332928;}.cls-16{fill:#e24733;}.cls-17{fill:#c9271b;}.cls-18{fill:#a31f1c;}.cls-19{fill:#becfd3;}.cls-20{fill:#f9e876;}.cls-21{fill:#809b9e;}.cls-22{fill:#9eb6ba;}.cls-23{fill:#f2f8fb;}.cls-24{stroke:#606060;stroke-width:1.1px;}.cls-25{fill:#6dba3f;}.cls-26{fill:#f79520;}.cls-27{fill:#629fdd;}.cls-28{fill:#2bc1ab;}.cls-30{fill:#f4c222;}.cls-31{fill:#4182b7;}.cls-32,.cls-45{fill:#d28170;}.cls-34{fill:#f8a9af;}.cls-35{fill:#7b8086;}.cls-37{fill:#454c54;}.cls-38{fill:#383f44;}.cls-39{fill:#0dab4c;}.cls-40{fill:#006880;}.cls-41{fill:#1c5229;}.cls-42{fill:#34badb;}.cls-43{fill:#b1dfec;}.cls-44{clip-path:url(#clip-path-3);}.cls-46{clip-path:url(#clip-path-5);}.cls-47{fill:#dfa69a;}</style><clipPath id="clip-path"><rect class="cls-1" x="164.12" y="131.36" width="12.74" height="7.54" transform="translate(-31 53.09) rotate(-16.25)"/></clipPath><clipPath id="clip-path-3"><rect class="cls-1" x="440.16" y="270.36" width="12.74" height="7.54" transform="translate(-58.86 135.87) rotate(-16.25)"/></clipPath><clipPath id="clip-path-5"><rect class="cls-1" x="110.42" y="325.73" width="6.93" height="12.02" transform="translate(-231.84 390.85) rotate(-80.75)"/></clipPath></defs><g id="Layer_19" data-name="Layer 19"><circle class="cls-2" cx="275" cy="275" r="267"/><path class="cls-3" d="M164.83,243.48c7.88,29,16,58.49,32.24,83.77-.14,2.59,3.72,2.94,6.21,2.21a102.67,102.67,0,0,0,22.13-9.52c2.75-1.59,5.61-3.55,6.57-6.57a13.29,13.29,0,0,0,0-5.92c-3.65-24.09-13.51-46.74-23.27-69.07-1.2-2.75-2.56-5.68-5.15-7.19-2.3-1.34-5.14-1.29-7.8-1.05a71.7,71.7,0,0,0-26.3,7.6C166.65,239.2,163.48,242.3,164.83,243.48Z"/><path d="M154.6,103.48c-3.28.93-4.87,4.63-5.55,8a37.82,37.82,0,0,0,28.57,44.46l-3.53-7a24.59,24.59,0,0,0,18.46,5.94,8.68,8.68,0,0,1-3.35-7.28c5.22,3.74,12,4.92,18.35,4.14a43.33,43.33,0,0,0,13.85-4.39,4.52,4.52,0,0,0,1.48-7c-2-2.35-4.7-4.3-7-6.36-10.41-9.16-15.41-23-24.63-33.37a27.35,27.35,0,0,0-6.73-5.74,21.23,21.23,0,0,0-8-2.55C166,91.13,154.81,97.64,154.6,103.48Z"/><path class="cls-4" d="M155.69,110.61c-3.81,12.8-.54,30.85,14.12,34.47,1.64.15,1.25,1.67,1.63,3.28,4.69,7.69,19.44,2.22,12.83-8.62,4.1-12.87-4-12.09-.34-15.47a7.12,7.12,0,0,0,1.58-5.25c-.32-2.44-3.28-5.65-4.88-1.84-.92-2.48,1.55-10.31-2.47-10.08C171.56,108.49,160.81,106.73,155.69,110.61Z"/><g id="Artwork_61" data-name="Artwork 61"><g class="cls-5"><g class="cls-5"><path d="M172.76,131.07a3.4,3.4,0,0,0,.55,1.07,2.9,2.9,0,0,0,.92.82,1.66,1.66,0,0,0,1.31.09l.25-.1a.71.71,0,0,0,.44-.31.52.52,0,1,0-.9,0h0a.51.51,0,1,0,.86-.53h0l-.06.62h0l-.23.14h0l-.49-.12h0l-.14-.49v0l.13-.22c.16-.09.2-.12.13-.09l-.05,0-.09,0-.2.07-.11,0h-.2c-.12,0,.1,0,0,0l-.08,0-.08,0c.06,0,.08,0,0,0l0,0-.16-.09a.18.18,0,0,1-.07-.05l0,0,0,0a2.57,2.57,0,0,1-.29-.28l-.06-.06c-.07-.09,0,0,0,0a1.18,1.18,0,0,0-.13-.18,2.27,2.27,0,0,1-.19-.34c0-.06,0,0,0,0a1.17,1.17,0,0,1,0-.11l-.07-.21a.5.5,0,0,0-.62-.34.52.52,0,0,0-.35.63"/><path d="M165.29,135.37s.51,3.63,3.87,3.8,5.8-3.25,5.72-6.53c0,0-.44-1-1.45.24s-4.48,3.61-8.14,2.49"/><path class="cls-6" d="M172.88,132.81c0,1.85-2,3.85-4,4.13a2.15,2.15,0,0,1-2.37-1.63,8.92,8.92,0,0,0,6.35-2.5"/><path class="cls-7" d="M174.46,135.17a5.93,5.93,0,0,1-4.08,3.9,4.74,4.74,0,0,1,1.52-2.8,3.6,3.6,0,0,1,2.56-1.1"/><path d="M164.11,135.5a7.5,7.5,0,0,0,4.24.42,11.85,11.85,0,0,0,4.26-1.78,4.77,4.77,0,0,0,1.7-1.61.5.5,0,0,0-.88-.49,3.57,3.57,0,0,1-1.2,1.15,15.38,15.38,0,0,1-1.86,1,8.23,8.23,0,0,1-3.79.82,6,6,0,0,1-2-.42.52.52,0,0,0-.69.2.5.5,0,0,0,.2.68"/></g></g></g><path d="M155.22,105.86A13.89,13.89,0,0,0,151,116.1a2.57,2.57,0,0,0,.12.83,1.18,1.18,0,0,0,1.81.35,6.44,6.44,0,0,0,1.33-1.83c1.95-3.18,5.44-4.52,8.76-5s6.71-.17,10-1,6.54-3.18,7.54-6.92c-2,.17-3.91-.55-5.84-1.06-6.85-1.81-14.48-.72-20,4.31C154.12,106.29,153.56,107.08,155.22,105.86Z"/><path d="M183.75,124.72a7.32,7.32,0,0,0-2.52,4.67,15.14,15.14,0,0,0,.34,5.31,8.76,8.76,0,0,0,1.81,4.21,4.57,4.57,0,0,0,4.53,1.46,3.85,3.85,0,0,0,2.45-3.38c.31-3.06-1.75-5.94-3.71-8.53l-2.53-3.35A2,2,0,0,0,183.75,124.72Z"/><path d="M176,107.44a14.75,14.75,0,0,0,2.54,11.72.42.42,0,0,0,.24.2c.19.06.36-.13.47-.29a22.47,22.47,0,0,0,2.93-5.32,9.4,9.4,0,0,0,.25-6,4,4,0,0,0-1.81-2.41,3,3,0,0,0-2.77.1A3.55,3.55,0,0,0,176,107.44Z"/><path class="cls-8" d="M154.4,115.44c-.51,6.34-.09,13,2.76,18.65s8.54,10.27,14.9,10.38a9.28,9.28,0,0,0,5.24-1.32"/><path class="cls-9" d="M101.55,160.06c1.91-1.72,3.88-3.38,5.91-5a2.39,2.39,0,0,1,3.75,1.17c23.55,73.57,22.68-5.11,61.06-7.93,4.95,3.89,11.53,1.48,15-3,18.28-4.71,31.92,11.32,39.81,25.94,5.46,11.69,2.93,25.37.25,38-.47,5.86-5.08,5-9.55,4.68a2.7,2.7,0,0,1-2.47-3.2c2.36-13-.13-27-8.88-39.93a.44.44,0,0,0-.76.43c5.92,12.55,9.81,26.63,7.75,39.73-22.9,2.37-16.55,10.09-22.7,25.25-7.16,7.89-21.19,3.73-30.07,9.73-3.19,2.55-10.37,2.37-8.37-3.21,1.48-5.26-.65-8,.83-13.23,1-3.73,1-5,1.64-11.37-1.19-10.68-.13-21.22,1.33-31.86a.82.82,0,0,0-1.48-.57c-5.92,8.42-13.15,15.77-22.44,20.28-4.91,2.86-14.14.23-16.79-5.46A114.83,114.83,0,0,1,100.32,164,4.08,4.08,0,0,1,101.55,160.06Z"/><path class="cls-10" d="M90.23,134.72c-1.06-1.64.48-3.1,2.12-2a11.93,11.93,0,0,1,2,1.6c2.53,2.53,4,5.14,3.34,5.82s-3.29-.81-5.82-3.35A12,12,0,0,1,90.23,134.72Z"/><path class="cls-10" d="M101.55,160.24a20,20,0,0,1-6.33-16.61s0,0,0,0a6.59,6.59,0,0,1,4.57-2.74,5.12,5.12,0,0,1,4.79,2.1c.88,1.35.89,3,1.06,4.61.29,2.6,1.1,5.26.37,7.78A8,8,0,0,1,101.55,160.24Z"/><path class="cls-11" d="M87.64,165c-18.82,14.44-45.92-3.87-44.46-26.78-1.3-23,27.33-41.17,49.46-26.61,11,5.65,14,19.48,14.38,30.77,0,9.08-11.16,10.89-11.84.83,3.27-24.45-23.36-32.33-36.63-15.11-10.09,16.56,5.05,37.16,23.6,28.77C87.35,155.69,91.89,161.52,87.64,165Z"/><circle class="cls-11" cx="75.88" cy="139.02" r="11"/><path class="cls-10" d="M108.15,154.68a27.62,27.62,0,0,0,.95-10.06,16,16,0,0,0-4-9.15,2.84,2.84,0,0,0-1.22-.87c-1.34-.4-2.61,1.16-2.48,2.56a6.28,6.28,0,0,0,2.12,3.54,7.14,7.14,0,0,1,2.28,3.46,5.85,5.85,0,0,1-1.45,4.31,16,16,0,0,0-2.58,3.88A5.63,5.63,0,0,0,102.9,158a1.64,1.64,0,0,0,2.15.44A5.52,5.52,0,0,0,108.15,154.68Z"/><ellipse class="cls-10" cx="96" cy="148.36" rx="1.75" ry="2.81" transform="translate(-79.48 169.18) rotate(-63.86)"/><ellipse class="cls-10" cx="95.52" cy="144.9" rx="1.75" ry="2.81" transform="translate(-76.64 166.81) rotate(-63.86)"/><ellipse class="cls-10" cx="95.52" cy="141.27" rx="1.75" ry="2.81" transform="translate(-71.2 177.16) rotate(-68.08)"/><path class="cls-12" d="M245.35,201.59A197.07,197.07,0,0,1,254,180.83a39.11,39.11,0,0,1,5.52-9,22,22,0,0,1,9.46-5.91,59.5,59.5,0,0,1,16.85-2.83A140.62,140.62,0,0,1,317,165c6.79,1.18,13.76,3,19.44,8.29a51.54,51.54,0,0,1,6.52,7.9A225.38,225.38,0,0,1,358.68,207c-4.44,5.45-10.81,6.45-16.73,6.56-10.09.19-20.13-1.49-30.18-2.69-21.78-2.62-43.67-3.06-65.53-3.36-1.13,0-2.6-.42-2.75-2C243.29,203.44,245.73,202.46,245.35,201.59Z"/><path id="Fill-9" class="cls-13" d="M396.38,501.08c0,5.19-53.32,9.39-119.09,9.39s-119.09-4.2-119.09-9.39,53.32-9.38,119.09-9.38,119.09,4.2,119.09,9.38"/><polygon id="Fill-11" class="cls-14" points="282.72 306.73 290.1 306.73 290.1 306.35 282.72 306.35 282.72 306.73"/><path id="Fill-25" class="cls-15" d="M447.48,363.87s-18.93,31.92-24.75,57-4.5,60.31-4.5,60.31,8.89,2.38,11.86.79c0,0,.58-36.48,14.34-58.77s28.78-30.77,28.78-30.77Z"/><path id="Fill-31" class="cls-16" d="M356.59,357.65s26.05-8.87,38.19-2c0,0-4.73,2.66-5,7.11s7.32,11.15-.19,21.43-37.21,5.78-37.21,5.78Z"/><path id="Fill-32" class="cls-16" d="M198.08,348.32s-25.54-18-41.71-15.82,6.11,6.07,7.19,12-9.7,14.53-4.31,26.24-5.75,14.72,8.26,27.6,34.06-5.15,34.06-5.15Z"/><path id="Fill-33" class="cls-17" d="M352.35,389.92s7.59-5.81,16.14-11.56,13.29,4.79,21.07,5.78,16.9,3.42,24,22-65,19.61-65,19.61Z"/><path id="Fill-34" class="cls-18" d="M357,402.08s6.08-1.4,10-5.3,25-3,27.82,2-42.43,22.05-42.43,22.05Z"/><path id="Fill-35" class="cls-19" d="M368.44,227.61,355.88,418.79l-1,15.46-.53,8.08-2.81,42.9a16.73,16.73,0,0,1-16.71,15.66H215.41a16.77,16.77,0,0,1-16.74-16l-2.16-49.29-9.12-208.41a20.59,20.59,0,0,1,20.54-21.49h140a20.55,20.55,0,0,1,20.51,21.93"/><polygon id="Fill-36" class="cls-20" points="198.09 234.56 209.71 466.86 343.98 466.86 357.76 234.56 198.09 234.56"/><path id="Fill-39" class="cls-14" d="M203,397.77s8.18-6,13.71,6.24,16.2,7.43,29.37,16.68,2.75,18.3,19.75,23,44.53,20.37,52,19.32-1.27-10.55,3.67-19.32,9.86-12,12.61-19.45S347,415.39,347,415.39l-1.12,18.93L342,482.51l-129.32,2.05Z"/><polygon id="Fill-40" class="cls-21" points="357.63 236.62 200 236.62 208.13 398.37 206.26 397.91 198.09 234.56 357.76 234.56 357.63 236.62"/><polygon id="Fill-56" class="cls-21" points="357.76 234.56 356.1 234.56 344.04 427.98 346.61 422.39 357.76 234.56"/><path id="Fill-57" class="cls-16" d="M420.36,434.25s-24.83-7-35.74-5.08c-9.75,1.67-18.14-.09-26,3.51a27.23,27.23,0,0,0-3.78,1.57l-.53,8.08-2.81,42.9a16.73,16.73,0,0,1-16.71,15.66H215.41a16.77,16.77,0,0,1-16.74-16l-1.23-28.25-.93-21a25,25,0,0,1,9-2.35c8.08-.61,15.19,3.07,21.81,7.45,9.89,6.52,18.65,14.65,27.78,12.51a36.83,36.83,0,0,1,6.18-.89c15.16-1,28.84,6.6,28.84,6.6s16.24,8.3,26.77,10.54,10-1.5,8.38-7.51.29-17.33,8.18-21.84,3-14.35,16.56-19.22c2.24-.8,4.16-1.48,5.87-2.07,8.61-3,11.49-4.13,19.33-10.74,9.41-7.89,23.7-12.42,33.12-7.89s12,34.08,12,34.08"/><path id="Fill-58" class="cls-17" d="M268.7,485.64h-6.56s.71-7.49,1.12-11.87,10.08-8.36,10.08-8.36Z"/><path id="Fill-59" class="cls-18" d="M275.38,455.35,264,459.83a63.11,63.11,0,0,1-22.26,0c-11.44-2.22-24.05-3-28.57-.93s-9.07-5-14-2.88a9.51,9.51,0,0,1-1.71.6l-.93-21a25,25,0,0,1,9-2.35l21.8,7.45,34,11.62,1.12.38Z"/><path id="Fill-60" class="cls-19" d="M267.74,455.08l1.44,45.81h18.5l2.45-42s-8.69-6.64-22.39-3.83"/><path id="Fill-61" class="cls-22" d="M290.13,458.91a25,25,0,0,0-6.42,12.3,34.81,34.81,0,0,0,0,14.43h-15L268.12,470s4.78-14,22-11.12"/><path id="Fill-62" class="cls-23" d="M267.74,455.08s-13,1.12-21.63,16.28l17.3,6.28s8.74-20.11,26.72-18.73c0,0-10.62-6.88-22.39-3.83"/><path id="Fill-63" class="cls-17" d="M290,458.82a28.15,28.15,0,0,0-8.45-2.69l0,0c-10.61-1.91-24.27-.59-31.12-.59-9,0-18.51-6-24.15-8.28s-7.89,3.77-11.53,4.89-22.33-20.72-34-18.46-21.82,25.61-24.08,25.23c-1.84-.32-5.95-10.88-4.53-28.44a105,105,0,0,1,1.88-13c5.29-25.23,40.22-34.67,40.22-34.67l.47,10.52c16.22-3.45,15,13.61,20,20.77s19.82,3.38,27.58,13.18,3.53,21.85,19.24,22.59c14.74.71,27,8,28.46,8.95"/><path id="Fill-64" class="cls-17" d="M354.87,434.25s-4.38,3-5.56,6.68-14.49,4.29-17.75,10.65-2.22,11.4-2.22,11.4,1.33-7,8.14-9.47,16.08.79,16.08.79Z"/><path id="Fill-65" class="cls-23" d="M281.35,222.56H241.77a2.28,2.28,0,0,1-2.28-2.27v-.69a2.28,2.28,0,0,1,2.28-2.28h39.58a2.28,2.28,0,0,1,2.28,2.28v.69a2.28,2.28,0,0,1-2.28,2.27"/><path id="Fill-66" class="cls-23" d="M293.66,219.94a2.62,2.62,0,1,1-2.62-2.62,2.62,2.62,0,0,1,2.62,2.62"/><path id="Fill-67" class="cls-23" d="M303.68,219.94a2.62,2.62,0,1,1-2.62-2.62,2.62,2.62,0,0,1,2.62,2.62"/><path id="Fill-79" class="cls-15" d="M116.77,311.72c-4,1.84-14.23,0-14.23,0s-1.55,1.71-1.55,3,.13,6.71-.87,7.14-1.94-1.38-1.94-1.38c-1-2.69-5.37-2.69-5.71,1.38a5.79,5.79,0,0,0,3,5.67l-2.68,8.29A13.91,13.91,0,0,1,89,333.35c-2.18-1.84.17-4.7-4-13.42s2.18-12.08,2.18-12.08c.66-7.39,12.73-9.57,18.42-9.72s10.57-4.87,10.91-2.35-1.69,7-1.35,7.88,3.7.84,4.86,1.33.85,4.87-3.19,6.73"/><line id="Stroke-82" class="cls-24" x1="98.81" y1="347.41" x2="98.79" y2="347.41"/><path id="Fill-85" class="cls-25" d="M74.55,238.59c-.36-1.79-9.06-1.89-15.46,4.86-4,4.24-7,12.94-4.87,13.6s1.56-5.79,7-11.42c6.69-6.88,13.66-5.15,13.29-7"/><path id="Fill-86" class="cls-25" d="M55.25,262.74A1.76,1.76,0,1,1,53.5,261a1.75,1.75,0,0,1,1.75,1.76"/><path id="Fill-87" class="cls-25" d="M75.24,231.54c.88-2.07-5.14-3.92-10.36-3s-7.87,3.64-7.51,4.71,3.51-1.93,9.51-2.08c4.22-.1,7.58,2.22,8.36.36"/><path id="Fill-88" class="cls-25" d="M55,235.59a1.5,1.5,0,1,1-1.49-1.5,1.5,1.5,0,0,1,1.49,1.5"/><path id="Fill-89" class="cls-25" d="M80.26,243.88c-.59-2.31-6.19,2.65-7.51,8.55-1.1,4.95-.64,14.14,1.68,14.2s-.47-5.39,1.45-13.37c1.58-6.59,4.92-7.32,4.38-9.38"/><path id="Fill-90" class="cls-25" d="M77.62,271.52a1.76,1.76,0,1,1-2.15-1.27,1.76,1.76,0,0,1,2.15,1.27"/><path id="Fill-91" class="cls-25" d="M94.11,230.13c-1.27-1.31,3.63-8.5,12.83-9.89,5.78-.87,14.63,1.65,13.93,3.79s-5.64-2-13.38-.77c-9.48,1.55-12,8.27-13.38,6.87"/><path id="Fill-92" class="cls-25" d="M124.94,228.14a1.75,1.75,0,1,0-.44-2.44,1.75,1.75,0,0,0,.44,2.44"/><path id="Fill-93" class="cls-25" d="M87.94,226.67c-2.2-.47-.27-6.46,3.48-10.22s7.49-4.37,8.16-3.46-3.59,1.77-7.15,6.61c-2.5,3.41-2.52,7.49-4.49,7.07"/><path id="Fill-94" class="cls-25" d="M102.85,212.38a1.5,1.5,0,1,0-.37-2.09,1.51,1.51,0,0,0,.37,2.09"/><path id="Fill-95" class="cls-25" d="M95.07,236.89c-1.58-1.78,5.65-3.69,11.28-1.51,4.73,1.83,12.1,7.32,10.87,9.28s-4.22-3.38-11.91-6.21c-6.36-2.34-8.82,0-10.24-1.56"/><path id="Fill-96" class="cls-25" d="M119.51,250a1.76,1.76,0,1,0,.14-2.49,1.75,1.75,0,0,0-.14,2.49"/><path id="Fill-97" class="cls-25" d="M94.33,271.37a1.76,1.76,0,1,0,.14-2.49,1.76,1.76,0,0,0-.14,2.49"/><path id="Fill-98" class="cls-25" d="M80.52,226.22c1.49.45-.57-9.19-1.85-10.3s-1.49,9.28,1.85,10.3"/><path id="Fill-99" class="cls-25" d="M79.37,211.93a1.56,1.56,0,1,1-1.56-1.56,1.56,1.56,0,0,1,1.56,1.56"/><path id="Fill-100" class="cls-25" d="M87.59,242.79c-1.38,1.26,4.45,4.85,5.86,10.94,1.47,6.38-1,11.35,1.4,11.7s3.52-6.21,2.37-12.54-8.23-11.38-9.63-10.1"/><path id="Fill-85-2" data-name="Fill-85" class="cls-20" d="M352.6,104.5c-.38-2.32,10.06-6.32,20.8-1,6.75,3.32,14.25,12.46,12,14.22s-4.47-6.28-13.59-10.62c-11.14-5.31-18.77-.1-19.16-2.55"/><path id="Fill-86-2" data-name="Fill-86" class="cls-20" d="M386.65,125a2.25,2.25,0,1,0,1.32-2.9,2.25,2.25,0,0,0-1.32,2.9"/><path id="Fill-87-2" data-name="Fill-87" class="cls-20" d="M348.61,96.32c-2-2.11,4.44-7,11.16-8.24s11.1.87,11.15,2.32-5.09-.76-12.39,1.75c-5.13,1.76-8.14,6.06-9.92,4.17"/><path id="Fill-88-2" data-name="Fill-88" class="cls-20" d="M374.83,92.15A1.93,1.93,0,1,0,376,89.67a1.92,1.92,0,0,0-1.13,2.48"/><path id="Fill-89-2" data-name="Fill-89" class="cls-20" d="M348.07,113.43c-.32-3.05,8.65.43,12.87,6.95,3.54,5.47,7.09,16.76,4.32,17.87s-1.84-6.72-7.72-15.47c-4.85-7.23-9.19-6.62-9.47-9.35"/><path id="Fill-90-2" data-name="Fill-90" class="cls-20" d="M363.6,145.56a2.26,2.26,0,1,0,2-2.48,2.26,2.26,0,0,0-2,2.48"/><path id="Fill-91-2" data-name="Fill-91" class="cls-20" d="M325.24,103c.94-2.15-8.18-8.63-19.89-6.19-7.36,1.53-16.89,8.52-15.1,10.79s5.89-5,15.8-6.9c12.1-2.37,18.21,4.57,19.19,2.3"/><path id="Fill-92-2" data-name="Fill-92" class="cls-20" d="M287.19,114.41a2.25,2.25,0,1,1-.57-3.14,2.26,2.26,0,0,1,.57,3.14"/><path id="Fill-93-2" data-name="Fill-93" class="cls-20" d="M331.13,96.11c2.44-1.55-2.56-7.91-8.77-10.76s-11-1.92-11.37-.53,5.11.53,11.56,4.78c4.54,3,6.39,7.9,8.58,6.51"/><path id="Fill-94-2" data-name="Fill-94" class="cls-20" d="M306.77,85.54a1.93,1.93,0,1,1-.49-2.68,1.92,1.92,0,0,1,.49,2.68"/><path id="Fill-95-2" data-name="Fill-95" class="cls-20" d="M327.09,111.61c1.12-2.85-8.45-1.91-14.27,3.23-4.87,4.32-11.31,14.23-8.95,16s3.58-6,11.59-12.81c6.61-5.66,10.63-3.9,11.63-6.46"/><path id="Fill-96-2" data-name="Fill-96" class="cls-25" d="M303.51,138.37a2.26,2.26,0,1,1-1.28-2.93,2.25,2.25,0,0,1,1.28,2.93"/><path id="Fill-97-2" data-name="Fill-97" class="cls-20" d="M343.39,152.85a2.26,2.26,0,1,1-1.28-2.94,2.25,2.25,0,0,1,1.28,2.94"/><path id="Fill-98-2" data-name="Fill-98" class="cls-20" d="M339.87,92.26c-1.6,1.21-3.41-11.34-2.37-13.25s5.93,10.52,2.37,13.25"/><path id="Fill-99-2" data-name="Fill-99" class="cls-20" d="M334.88,74.51a2,2,0,1,0,1.18-2.58,2,2,0,0,0-1.18,2.58"/><path id="Fill-100-2" data-name="Fill-100" class="cls-20" d="M338.75,115.39c2.22.91-3.2,7.83-2.18,15.8,1.08,8.35,6.24,13.26,3.54,14.73s-7-5.91-8.46-14.06,4.85-17.39,7.1-16.47"/><path id="Fill-101" class="cls-26" d="M473.49,191.1c.33-1.62,8.21-1.71,14,4.41,3.65,3.84,6.37,11.73,4.42,12.32s-1.42-5.24-6.38-10.35c-6.07-6.23-12.39-4.66-12.05-6.38"/><path id="Fill-102" class="cls-26" d="M491,213a1.59,1.59,0,1,0,1.59-1.59A1.59,1.59,0,0,0,491,213"/><path id="Fill-103" class="cls-26" d="M472.86,184.72c-.79-1.88,4.66-3.56,9.39-2.72s7.13,3.3,6.81,4.27-3.18-1.75-8.62-1.88c-3.82-.09-6.87,2-7.58.33"/><path id="Fill-104" class="cls-26" d="M491.21,188.39a1.36,1.36,0,1,0,1.36-1.36,1.36,1.36,0,0,0-1.36,1.36"/><path id="Fill-105" class="cls-26" d="M468.31,195.9c.54-2.1,5.62,2.4,6.81,7.75,1,4.48.58,12.81-1.52,12.86s.42-4.88-1.32-12.11c-1.43-6-4.45-6.63-4-8.5"/><path id="Fill-106" class="cls-26" d="M470.71,220.94a1.6,1.6,0,1,0,1.94-1.15,1.6,1.6,0,0,0-1.94,1.15"/><path id="Fill-107" class="cls-26" d="M455.77,183.44c1.14-1.19-3.3-7.71-11.64-9-5.23-.79-13.25,1.5-12.62,3.44s5.11-1.84,12.13-.7c8.58,1.41,10.92,7.49,12.13,6.23"/><path id="Fill-108" class="cls-26" d="M427.83,181.63a1.59,1.59,0,1,1,.39-2.21,1.59,1.59,0,0,1-.39,2.21"/><path id="Fill-109" class="cls-26" d="M461.36,180.3c2-.43.24-5.86-3.16-9.26s-6.78-4-7.39-3.13,3.25,1.6,6.47,6c2.27,3.08,2.29,6.78,4.08,6.4"/><path id="Fill-110" class="cls-26" d="M447.84,167.34a1.35,1.35,0,1,1,.34-1.89,1.36,1.36,0,0,1-.34,1.89"/><path id="Fill-111" class="cls-26" d="M454.89,189.56c1.44-1.61-5.12-3.34-10.22-1.36-4.28,1.65-11,6.63-9.85,8.41s3.83-3.07,10.8-5.63c5.75-2.13,8,0,9.27-1.42"/><path id="Fill-112" class="cls-26" d="M432.75,201.47a1.6,1.6,0,1,1-.13-2.25,1.6,1.6,0,0,1,.13,2.25"/><path id="Fill-113" class="cls-26" d="M455.57,220.81a1.6,1.6,0,0,1-2.38-2.13,1.59,1.59,0,0,1,2.25-.13,1.61,1.61,0,0,1,.13,2.26"/><path id="Fill-114" class="cls-26" d="M468.08,179.89c-1.35.42.52-8.33,1.68-9.33s1.34,8.41-1.68,9.33"/><path id="Fill-115" class="cls-26" d="M469.12,166.94a1.42,1.42,0,1,0,1.42-1.42,1.42,1.42,0,0,0-1.42,1.42"/><path id="Fill-116" class="cls-26" d="M461.67,194.91c1.25,1.14-4,4.39-5.31,9.91-1.33,5.79.88,10.29-1.27,10.61s-3.18-5.63-2.15-11.37,7.47-10.31,8.73-9.15"/><path id="Fill-121" class="cls-19" d="M147.79,497.49c.17,3.17-4,3-8.67,3.41s-27,0-30.18,0c-1.44,0-1.48-1.72-.61-5.55a1.11,1.11,0,0,1,0-.13s18.87,1.59,28.59,1.17a54.61,54.61,0,0,0,8.95-1.08c1.14.86,1.86,1.61,1.88,2.18"/><path id="Fill-122" class="cls-19" d="M28.55,499.62c-1.53.83-10.07.7-12-.84s-6.73-8.4-7-9.8,4.18-28.38,6.34-27.28c.49.23,1.82.76,3.76,1.44-1.22,5.2-5.22,22.45-4.94,24.38.31,2.24,5.47,7.68,8.22,7.7,1.84,0,5.23,0,7.23,0a.82.82,0,0,1,.22.34,4.12,4.12,0,0,1-1.82,4.06"/><path id="Fill-123" class="cls-27" d="M486.81,286a2.12,2.12,0,0,0,2-.67c1-1.18,3-3,5.59-3.13,3.74-.13,7.62.17,10.11-3s0-7,3-9.14a8.49,8.49,0,0,1,3.36-1,2.46,2.46,0,0,0,2-3.16h0a2.45,2.45,0,0,0-3-1.64c-2,.56-4.78,1.69-6.36,3.89-2.64,3.69-.24,8.5-3.43,10s-5.07.62-9.6,1.17a7.31,7.31,0,0,0-5,3.43,2.11,2.11,0,0,0,1.31,3.26Z"/><path id="Fill-124" class="cls-28" d="M159.74,277.18a2.19,2.19,0,0,0-1.89-1.18c-1.62,0-4.47-.42-6.25-2.43-2.6-2.93-4.94-6.26-9.14-6.17s-5.58,4.66-9.39,3.66a9.08,9.08,0,0,1-3.08-2,2.58,2.58,0,0,0-3.89.49h0a2.59,2.59,0,0,0,.71,3.54c1.78,1.23,4.54,2.7,7.35,2.51,4.74-.33,7-5.48,10.36-3.9s3.88,3.67,7.34,7a7.66,7.66,0,0,0,6.14,1.77,2.21,2.21,0,0,0,1.74-3.23Z"/><path id="Fill-124-2" data-name="Fill-124" class="cls-28" d="M194.24,76.43a2.19,2.19,0,0,0-.72-2.11c-1.24-1-3.2-3.14-3.32-5.82-.17-3.92.11-8-3.21-10.56s-7.28.11-9.6-3.07a9.12,9.12,0,0,1-1.12-3.52A2.56,2.56,0,0,0,173,49.29h0a2.57,2.57,0,0,0-1.68,3.19c.61,2.08,1.82,5,4.12,6.58,3.89,2.73,8.91.17,10.51,3.5s.7,5.3,1.3,10a7.71,7.71,0,0,0,3.65,5.24,2.21,2.21,0,0,0,3.39-1.41Z"/><path id="Fill-125" class="cls-29" d="M237.63,151.13s5.18-.34,7.93-4.16-1.66-9.57-.66-12.87,7.93-3.27,9.74-5.86c1.34-1.92.13-5.34.15-7.81a2.68,2.68,0,0,0-2.26-2.63h0a2.73,2.73,0,0,0-3.11,3.39,8,8,0,0,0,.28.87c.89,2.17,1.72,4.18-.82,5.95s-6.69,3.5-8.46,7.33,2.39,9,.89,10.76a5.26,5.26,0,0,1-2.68,1.36,2.17,2.17,0,0,0-1,3.63l0,0"/><path id="Fill-126" class="cls-30" d="M411.69,457.5s-.29-5.18-4.09-8-9.58,1.58-12.87.55-3.2-8-5.78-9.79c-1.91-1.36-5.33-.18-7.8-.22a2.69,2.69,0,0,0-2.66,2.23h0a2.74,2.74,0,0,0,3.37,3.14,7.25,7.25,0,0,0,.87-.27c2.17-.87,4.2-1.68,5.95.88s3.43,6.72,7.24,8.52,9-2.31,10.77-.8.41,5.24,1.75,6.07c.85.53,1.83-.88,3.25-2.34"/><path id="Fill-127" class="cls-26" d="M428,385.14s-5.11-.87-7.46-4.95,2.63-9.36,2-12.74-7.56-4.07-9.09-6.83c-1.14-2.05.41-5.33.64-7.8a2.7,2.7,0,0,1,2.52-2.39h0a2.74,2.74,0,0,1,2.74,3.7,6.79,6.79,0,0,1-.37.83c-1.1,2.07-2.13,4,.22,6s6.29,4.16,7.66,8.14-3.29,8.75-2,10.63a5.27,5.27,0,0,0,2.52,1.63,2.16,2.16,0,0,1,.67,3.72l0,0"/><path id="Fill-127-2" data-name="Fill-127" class="cls-26" d="M399.26,128.75s-.38-5.17,3-8.42,9.71.34,12.85-1.1,2.15-8.3,4.48-10.45c1.72-1.59,5.27-.86,7.72-1.22a2.69,2.69,0,0,1,2.92,1.88h0a2.73,2.73,0,0,1-2.94,3.54,7.08,7.08,0,0,1-.9-.16c-2.27-.58-4.38-1.12-5.79,1.63s-2.55,7.1-6.1,9.37-9.28-1.12-10.79.6a5.24,5.24,0,0,0-1,2.83,2.17,2.17,0,0,1-3.46,1.54l0,0"/><path id="Fill-128" class="cls-28" d="M422.28,283.15s-2.89-6.17-7.8-7.32a5.56,5.56,0,0,0-7,6.33,15.08,15.08,0,0,1,0,5.59,2.5,2.5,0,0,0,1.28,2.82l.19.1a2.55,2.55,0,0,0,3.67-1.88c.32-2.13.54-4.93-.11-6.63-1.16-3.06,3.56-4.55,5-2a14.22,14.22,0,0,1,1.13,2.65,2,2,0,0,0,3.65.37l0-.06"/><path id="Fill-129" class="cls-31" d="M83.79,297.83s-2.89-6.17-7.8-7.33a5.56,5.56,0,0,0-7,6.33,15.3,15.3,0,0,1,0,5.59,2.52,2.52,0,0,0,1.27,2.83l.2.1a2.54,2.54,0,0,0,3.66-1.88c.32-2.14.54-4.93-.1-6.64-1.16-3.05,3.56-4.55,5-2a14.59,14.59,0,0,1,1.14,2.65,2,2,0,0,0,3.65.38l0-.06"/><path id="Fill-130" class="cls-16" d="M67.06,335.21c-.91-1.35-.14-7.38-2-7.38s-.9,6.1-1.81,7.44-6.77.16-6.77,1.93,6.06.86,7,2.21-.24,7.16,1.61,7.16,1.09-6,2-7.36,6.59-.24,6.59-2-5.68-.64-6.59-2"/><path id="Fill-131" class="cls-30" d="M355.53,171.46c-.91-1.34-.15-7.38-2-7.38s-.9,6.1-1.81,7.45-6.78.16-6.78,1.92,6.06.86,7,2.21-.23,7.17,1.62,7.17,1.09-6,2-7.36,6.59-.25,6.59-2-5.69-.64-6.59-2"/><path id="Fill-132" class="cls-26" d="M394.23,299.22c-.91-1.34-.14-7.38-2-7.38s-.9,6.1-1.81,7.45-6.78.16-6.78,1.92,6.06.86,7,2.21-.23,7.17,1.62,7.17,1.08-6,2-7.36,6.6-.24,6.6-2-5.69-.64-6.6-2"/><path id="Fill-133" class="cls-30" d="M238.56,193.72c-.41-.6-.06-3.28-.89-3.28s-.4,2.71-.81,3.31-3,.07-3,.86,2.7.38,3.11,1-.11,3.2.72,3.2.48-2.68.89-3.28,2.94-.11,2.94-.9-2.54-.29-2.94-.89"/><path id="Fill-134" class="cls-30" d="M159,193.43c-.77-1.15-.12-6.28-1.69-6.28s-.77,5.19-1.55,6.34-5.77.13-5.77,1.64,5.16.73,5.94,1.88-.2,6.1,1.38,6.1.92-5.12,1.69-6.27,5.62-.2,5.62-1.71-4.84-.55-5.62-1.7"/><path id="Fill-135" class="cls-16" d="M262,162.07c-.4-.6-.06-3.28-.89-3.28s-.4,2.71-.8,3.31-3,.08-3,.86,2.7.38,3.1,1-.1,3.19.72,3.19.49-2.68.89-3.28,2.94-.11,2.94-.9-2.53-.28-2.94-.89"/><path id="Fill-136" class="cls-30" d="M369.39,199.52c-.41-.6-.07-3.29-.89-3.29s-.4,2.72-.81,3.32-3,.07-3,.86,2.7.38,3.11,1-.11,3.19.72,3.19.48-2.68.89-3.28,2.93-.1,2.93-.89-2.53-.29-2.93-.89"/><path id="Fill-137" class="cls-30" d="M148,407.3c-.41-.6-.06-3.28-.89-3.28s-.4,2.71-.81,3.31-3,.07-3,.86,2.7.38,3.11,1-.11,3.2.72,3.2.48-2.68.89-3.28,2.94-.11,2.94-.9-2.53-.29-2.94-.89"/><path id="Fill-138" class="cls-30" d="M208.38,153.87c-.4-.61-.06-3.29-.89-3.29s-.4,2.71-.8,3.32-3,.07-3,.85,2.7.38,3.1,1-.1,3.19.72,3.19.49-2.68.89-3.28,2.94-.11,2.94-.9-2.53-.28-2.94-.88"/><path id="Fill-139" class="cls-30" d="M384.54,234.56c-.41-.6-.06-3.29-.89-3.29s-.4,2.71-.81,3.32-3,.07-3,.85,2.7.38,3.1,1-.1,3.19.72,3.19.48-2.68.89-3.28,2.94-.11,2.94-.9-2.54-.28-2.94-.88"/><path id="Fill-140" class="cls-30" d="M130.91,300.33c-.41-.6-.07-3.29-.89-3.29s-.41,2.71-.81,3.32-3,.07-3,.85,2.7.39,3.11,1-.11,3.19.72,3.19.48-2.68.89-3.28,2.93-.11,2.93-.9-2.53-.28-2.93-.88"/><path id="Fill-141" class="cls-28" d="M405.54,163.73c-.41-.6-.06-3.29-.89-3.29s-.4,2.72-.81,3.32-3,.07-3,.86,2.7.38,3.1,1-.11,3.19.72,3.19.48-2.67.89-3.28,2.94-.1,2.94-.89-2.53-.29-2.94-.89"/><path id="Fill-142" class="cls-31" d="M164.87,234c-.41-.6-.07-3.29-.89-3.29s-.4,2.72-.81,3.32-3,.07-3,.86,2.7.38,3.11,1-.11,3.19.72,3.19.48-2.67.89-3.27,2.94-.11,2.94-.9-2.54-.29-2.94-.89"/><path id="Fill-143" class="cls-31" d="M384.54,267c-.41-.6-.06-3.29-.89-3.29s-.4,2.71-.81,3.32-3,.07-3,.85,2.7.39,3.1,1-.1,3.19.72,3.19.48-2.68.89-3.28,2.94-.11,2.94-.9-2.54-.28-2.94-.88"/><path id="Fill-144" class="cls-26" d="M185.88,204.2c-.41-.6-.06-3.29-.89-3.29s-.4,2.71-.81,3.32-3,.07-3,.85,2.7.38,3.1,1-.1,3.19.72,3.19.48-2.68.89-3.28,2.94-.11,2.94-.9-2.54-.28-2.94-.88"/><path id="Fill-145" class="cls-26" d="M134.73,359.86c-.4-.6-.06-3.29-.89-3.29s-.4,2.72-.81,3.32-3,.07-3,.86,2.7.38,3.1,1-.1,3.19.72,3.19.49-2.67.89-3.27,2.94-.11,2.94-.9-2.53-.29-2.94-.89"/><path id="Fill-146" class="cls-17" d="M207.59,464.3s-.78,19.84,2.07,23.92,34.82,3.35,39.1,3.31,2-1.07-6.31-1.68-26.68-2.44-29.74-5.29-3.92-15.18-4.19-19.22-.87-3.14-.93-1"/><path id="Fill-147" class="cls-17" d="M339.42,464.3s.79,19.84-2.06,23.92-34.83,3.35-39.11,3.31-2-1.07,6.32-1.68,26.68-2.44,29.73-5.29,3.93-15.18,4.19-19.22.87-3.14.93-1"/><path id="Fill-148" class="cls-18" d="M194.67,393.33s-9,2.3-15.07,7.87-5.69-.87,1.06-6.86A32.27,32.27,0,0,1,194.19,387Z"/><path id="Fill-149" class="cls-16" d="M281.49,456.11c-10.61-1.91-24.27-.59-31.12-.59-9,0-18.51-6-24.15-8.28s-7.89,3.77-11.53,4.89-22.33-20.72-34-18.46-21.82,25.61-24.08,25.23c-1.84-.31-5.95-10.88-4.53-28.44a4.92,4.92,0,0,1,.24-.45c3.17-5.12,3.17,16.49,7.86,9.42s18.48-20.42,29.35-18.56,21.53,15.05,27.2,13.38,13.91-6.35,19.19-1S249,451.71,261.28,452.3a68.8,68.8,0,0,1,20.21,3.81"/><g id="Fill-164"><path class="cls-22" d="M269,496.6s7.89,3.62,18.89,0l-.25,4.29h-18.5Z"/></g><path class="cls-32" d="M215,222.39l-4.43,4.37c-.68.67-1.37,1.81-.68,2.46a1.48,1.48,0,0,0,.89.31c1.45.09,2.76-.81,3.93-1.67.87,2.94-.7,6.1-2.84,8.29a8.16,8.16,0,0,0-1.58,1.9,2.1,2.1,0,0,0,.18,2.32,2.45,2.45,0,0,0,2.14.48,6.06,6.06,0,0,0,3.73-2.22c-.23.67.45,1.37,1.15,1.43a3.11,3.11,0,0,0,1.94-.72,16.61,16.61,0,0,0,6.72-16.24,5,5,0,0,0-.87-2.25,4.21,4.21,0,0,0-1.81-1.23,7.72,7.72,0,0,0-6.66.55C215.71,220.85,214.71,221.94,215,222.39Z"/><path class="cls-33" d="M212,240.25c1.48.12,2.7-1.09,3.65-2.24,1.17-1.42,2.28-2.9,3.32-4.42"/><path class="cls-33" d="M217,239.37a14.48,14.48,0,0,0,4.77-5.39"/><path class="cls-9" d="M216,205.37c.21,2.62-.63,5.21-.67,7.84,0,2.21-.51,3.88,0,6a4.6,4.6,0,0,0,.75,1.56c.27.25.66.84,1,.91,2,.35,4.89-.05,7-.18.34,0,1.2.2,1.49,0,.5-.3.4-2.21.52-2.78.82-3.84.88-7.17,1.7-11,.33-1.58.87-4.42-.13-5.68-.51-.65-1,.5-1.82.25A9.11,9.11,0,0,0,216,205.37Z"/><g id="Fill-21"><path class="cls-34" d="M433.62,499.85s-27.7,4-32.79,2.08-4.28-5.12-1-5.4c1.76-.15,7.11-2.35,11.74-4.38h0c4.1-1.82,7.63-3.47,7.63-3.47v-7.22l11.87.81,1.29,9v0Z"/></g><g id="Fill-29"><path class="cls-35" d="M514.61,484.85s-20.48-45.13-27.94-56.75-21.53-37.23-30-47-8.19-17-8.19-17c13.28,28.79,37.49,6.9,37.49,6.9,3.89,9.39,9,3.84,9,3.84-.55,14.9,4.56,40.4,12.3,59.76s16.61,45.7,17.73,46.8-10.37,3.39-10.37,3.39"/></g><g id="Fill-26"><path class="cls-35" d="M465.28,399.51c-3.15,3.11-32.64,48.34-27.58,89.36,0,0,.47.58-6.67.31a54.23,54.23,0,0,1-13.7-2c-1.53-.46-3.29-.58-4.62-1.26,0,0,3.16-76.38,35.74-121.68l.06-.09L465.89,399a8,8,0,0,0-.61.55"/></g><g id="Fill-30"><path class="cls-29" d="M495.18,379s-1,.14-12.86.14c0,0-58,11.7-53.23-6.9,0,0-1.29-7.24,1.08-18.35,0,0,6.28-22,6.92-30.5s9.56-37.26,9.56-37.26l15.16-8.78s20.52,10.15,25,42.9c4.33,31.88,8.81,37.28,8.17,52"/></g><g id="Fill-20"><path class="cls-4" d="M494.57,506.79c-.46-1.64.45-5.69,3.4-6.91.61-.27,1.45-.63,2.37-1.08,3.52-1.67,10-6.94,10-6.94l1.95-7.33L522.54,483l1.07,14.16-.1,6.77s-10.33,4.82-16.76,5.27-11.69-.79-12.18-2.42"/></g><g id="Fill-23"><path class="cls-4" d="M439.3,253.34a36.86,36.86,0,0,1-7.68,19.86c-5.12-6.61-9.81-13.3-13.89-19.5-9.47-14.35-15.71-26.26-16.62-29.27-1.78-5.8-2.9-9-5.8-10.92s-5-7.34-5.79-9.25-6.11-6.56-4.57-10.82,5.25-8.12,7-7.78,4,4.91,4,4.91a8.14,8.14,0,0,1-.09-5.25c.75-2.21,3.33-.21,3.89,3.79s2.39,11.11,3.75,10.16,2.7-4.45,4.8-5.61,2.15,1.16.42,8.89,2,17.31,9.94,28.85c2.75,4,8.42,10,14.68,16.19,1.94,1.92,3.95,3.85,5.94,5.75"/></g><g id="Fill-75"><path class="cls-4" d="M438.19,324.5c-3.3,1.35-6.68,2.6-10,3.77-10.64,3.64-20.74,6.22-26.22,7.81-7.57,2.22-11.84,9.4-14.61,12.21s-9.37,2.18-10.49,1.4,0-3.75,0-3.75c-2.84,2-10.72.47-5.73-1.12s9.34-10.71,9.66-13.21-.95-3.43-3.93-4.85-4.63-4.65-2.77-5.6,15.88,9.52,30.72,2.66c6.83-3.15,13.88-8.06,20.2-13.1,0,0,7-.25,11.52,9.4a28.55,28.55,0,0,1,1.65,4.38"/></g><g id="Fill-22"><path class="cls-29" d="M461.32,289.92l-16.69,13.21L421.33,268,396.87,220c1.33-1.23,3.94-1.92,5-3.23,7.4-9.36,9.8-5.35,9.8-5.35,4.36,4.16,11.24,21.31,20.93,33.48,13,16.28,27.23,40.9,27.23,40.9"/></g><path class="cls-36" d="M442.23,273.25c-1.1-.24-2.37-.43-3.26.25a2.71,2.71,0,0,0-.78,1.05,4.28,4.28,0,0,0-.2,3.16c-1.25-1-3.25.07-3.79,1.56s-.07,3.13.43,4.63a3.06,3.06,0,0,0-4.34.31,3.92,3.92,0,0,0-.15,4.55,2.29,2.29,0,0,0-3.59,2.44c.1.37.3.77.13,1.12s-.78.43-1.22.61c-1.07.42-1.3,1.79-1.48,2.92s-.75,2.5-1.9,2.53a4,4,0,0,0,6.36-3.16,1.27,1.27,0,0,1,.19-.84,1.38,1.38,0,0,1,.66-.27,2.87,2.87,0,0,0,2-3.51,3.39,3.39,0,0,0,3.17-1.71,9,9,0,0,0,1.08-3.59,3.43,3.43,0,0,0,3.76-.44,3.37,3.37,0,0,0,.88-3.66c1.58,1,3.65-.56,4.28-2.3a4.87,4.87,0,0,0,0-3.64A3.86,3.86,0,0,0,442.23,273.25Z"/><g id="Fill-72"><path class="cls-4" d="M447.1,280.09a11.06,11.06,0,0,1,1.49,8.54s10-1.94,14.74-8l-2.23-8.69-2-3.13Z"/></g><path class="cls-36" d="M459.51,276.49c-.63.94-1.3,2-1,3.12a2.69,2.69,0,0,0,.67,1.12A4.27,4.27,0,0,0,462,282.1c-1.37.79-1.16,3,0,4.1a7.09,7.09,0,0,0,4.45,1.34,3.07,3.07,0,0,0-1.35,4.14,3.92,3.92,0,0,0,4.16,1.86,2.38,2.38,0,0,0-1.07,2.45,2.33,2.33,0,0,0,2,1.79c.39.05.83,0,1.09.3s.11.89.11,1.36c0,1.15,1.17,1.88,2.15,2.48s2,1.63,1.62,2.71a4,4,0,0,0-.52-7.09c-.27-.11-.59-.22-.71-.49a1.23,1.23,0,0,1,0-.71,2.89,2.89,0,0,0-2.51-3.16,3.41,3.41,0,0,0-.38-3.58,9.11,9.11,0,0,0-2.93-2.36,3.4,3.4,0,0,0,1-3.64,3.36,3.36,0,0,0-3.06-2.2c1.5-1.09.85-3.59-.52-4.83a4.91,4.91,0,0,0-3.37-1.35A3.9,3.9,0,0,0,459.51,276.49Z"/><path class="cls-4" d="M453.05,281.76a19.94,19.94,0,0,1-5.45,1.85,6.33,6.33,0,0,1-2.49.07,7.08,7.08,0,0,1-2.82-1.56,27.76,27.76,0,0,1-6.75-7.18c-1.24-2-3.11-4.47-3.73-6.76a78,78,0,0,1-2-12.36l-.39-3.76c-.12-1.15.83-2.25,1.61-3.1a3.23,3.23,0,0,1,1.85-.87c1.94-.32,3.9.21,5.83.56a32.88,32.88,0,0,0,14.76-.71.87.87,0,0,1,.55,0,.79.79,0,0,1,.34.36c3.19,5.28,2.52,12,4,18,.76,3,2.07,6.16.9,9C458.62,277,457.77,279.34,453.05,281.76Z"/><g id="Fill-74"><path class="cls-25" d="M460.49,310.72l-.12.19c-5.44,7.47-46.24,25.68-58.63,31.09a3.28,3.28,0,0,1-4.46-2.12v0c-2.4-8.09-4.36-12.11-5.6-14.06-.71-1.11-.49-2.84.75-3.3,30.36-11.16,42.19-26.83,45.77-30.34A20.44,20.44,0,0,1,454,286.25c12.71-3.21,15.88,13,6.53,24.47"/></g><g id="Fill-119"><path class="cls-37" d="M433.62,499.85s-27.7,4-32.79,2.08-4.28-5.12-1-5.4c1.76-.15,7.11-2.35,11.74-4.38h0c.32.23,3.58,2.41,4.36,3.72,0,0,14.76.66,16.43-4.55Z"/></g><g id="Fill-120"><path class="cls-38" d="M494.57,506.79c-.46-1.64.45-5.69,3.4-6.91.61-.27,1.45-.63,2.37-1.08l.34,0s7.59-1.5,10.49,3.08c0,0,7.38-1.47,9.92-2.76a9.57,9.57,0,0,0,2.52-2l-.1,6.77s-10.33,4.82-16.76,5.27-11.69-.79-12.18-2.42"/></g><g id="Fill-151"><path class="cls-35" d="M531.66,482.76a26.38,26.38,0,0,1-3.25,2.52c-.51.34-1,.68-1.57,1-3.23,1.91-5.79,4-9.32,5-1.16.32-2.07.88-3.21,1.12s-1,.19-1.95.37c-3.36.68-9.24-1.72-10.85-4.74-5.53-10.41-17.62-29.92-23.92-47.18-6.91-15-20.38-52.79-21.48-57.28,7,1.85,12.72-.62,19.36,2.26a79.56,79.56,0,0,1,14.79,8c4.87,3.49,6.68,1.43,6.62,7.75-.08,6.89,7.26,23.61,9.5,30a183,183,0,0,0,9,21.54"/></g><path class="cls-36" d="M431.06,258.16c.44-2.56,2.63-4.47,3.55-6.9a.43.43,0,0,0,0-.25c0-.14-.21-.19-.36-.21a9.9,9.9,0,0,0-3.72.08,7.48,7.48,0,0,0,0,2.71,4,4,0,0,1,.11.84,4.67,4.67,0,0,1-.09.74,6.16,6.16,0,0,0,.46,3.49C431,258.38,431,258.11,431.06,258.16Z"/><path class="cls-36" d="M395.79,321.45c-1.88.36-4.13,1.06-4.53,2.94-.34,1.59.9,3,1.77,4.39,2.17,3.36,2.44,7.6,4.15,11.21a4.32,4.32,0,0,0,1.26,1.71c1.54,1.11,3.67.2,5.33-.73C401.37,334.38,398.74,327.86,395.79,321.45Z"/><path class="cls-36" d="M396.84,220.08A2.06,2.06,0,0,1,397,218a5.84,5.84,0,0,1,1.69-1.51,80.87,80.87,0,0,1,9.6-5.23,4.29,4.29,0,0,1,2-.61c1.58.07,2.51,1.68,3.13,3.07a1.6,1.6,0,0,1,.2,1,1.41,1.41,0,0,1-.41.62,13.29,13.29,0,0,1-3.93,2.5,115.34,115.34,0,0,1-10.78,4.47,1.2,1.2,0,0,1-.64.1,1,1,0,0,1-.56-.53C396.92,221.12,396.61,220.34,396.84,220.08Z"/><path d="M454.3,257.67a18,18,0,0,1-5.72-9c1.93.55,4,.32,6,.36a.57.57,0,0,1,.34.08.59.59,0,0,1,.14.41l.68,9.07a6.4,6.4,0,0,1-.62-.2,2.42,2.42,0,0,1-.7-.48"/><path d="M442.39,270.4h0a1.62,1.62,0,0,1-1.4-1,3.26,3.26,0,0,1-.25-1.42,7.73,7.73,0,0,1,1.15-4.33.51.51,0,0,1,.71-.15.52.52,0,0,1,.15.71,6.75,6.75,0,0,0-1,3.77,2.25,2.25,0,0,0,.15,1,.62.62,0,0,0,.49.39h0c.32,0,.61-.44.81-.8a.5.5,0,0,1,.5-.28.51.51,0,0,1,.44.38.73.73,0,0,0,1.43-.28.52.52,0,0,1,.45-.57.53.53,0,0,1,.57.45,1.81,1.81,0,0,1-1.41,1.92,1.76,1.76,0,0,1-1.53-.46A1.62,1.62,0,0,1,442.39,270.4Z"/><path d="M400.67,342.53a.5.5,0,0,1-.48-.33.52.52,0,0,1,.3-.66c8.18-3,16.05-7.17,23.67-11.16,4.5-2.36,9.16-4.8,13.84-7,.93-.44,1.86-.87,2.8-1.29,2.34-1.08,4.75-2.19,7.06-3.41a68.54,68.54,0,0,0,11.66-7.8c2.12-1.75,4.2-3.71,5-6.1a18.93,18.93,0,0,0,1.66-12.27.51.51,0,1,1,1-.21,19.87,19.87,0,0,1-1.72,12.87c-.89,2.57-3.09,4.65-5.32,6.5a69.92,69.92,0,0,1-11.83,7.91c-2.33,1.24-4.76,2.36-7.12,3.44l-2.79,1.28c-4.66,2.19-9.3,4.63-13.79,7-7.65,4-15.55,8.15-23.79,11.22Z"/><path d="M420.39,309.21a.51.51,0,0,1-.32-.91h0c4.06-3.12,8.25-6.35,12.18-9.76l2.3-2a71.5,71.5,0,0,1,9.12-7.25c3.38-2.13,8.6-4.53,14.21-3.86a.51.51,0,0,1,.44.57.5.5,0,0,1-.56.45c-5.33-.63-10.3,1.67-13.54,3.71a69,69,0,0,0-9,7.15l-2.31,2c-3.95,3.42-8.16,6.66-12.23,9.79A.45.45,0,0,1,420.39,309.21Z"/><path d="M439.08,293.15a.5.5,0,0,1-.34-.13c-.49-.43-.9-.76-1.27-1a11.16,11.16,0,0,1-2.5-2.54l-1.14-1.52c-.87-1.15-1.76-2.33-2.56-3.58-1.57-2.49-3.11-4.84-4.59-7.11C423.25,272,420,267,417.29,261.94c-7.18-13.41-14.61-27.27-20.63-41.54a.51.51,0,1,1,.94-.4c6,14.23,13.42,28.07,20.59,41.46,2.71,5.05,5.93,10,9.34,15.21,1.49,2.28,3,4.63,4.61,7.12.77,1.22,1.65,2.38,2.5,3.51.39.51.77,1,1.15,1.54a10,10,0,0,0,2.31,2.33c.38.3.8.63,1.31,1.08a.5.5,0,0,1,0,.72A.49.49,0,0,1,439.08,293.15Z"/><path d="M510.64,493.24a8.93,8.93,0,0,1-3.16-.56c-2.9-1.09-4.87-3.66-6.64-6.2-21.16-30.33-32.52-66.1-43.5-100.69a.51.51,0,1,1,1-.31c11,34.52,22.3,70.21,43.37,100.42,1.68,2.4,3.54,4.84,6.16,5.82,3.72,1.4,7.82-.43,11.69-2.42l8.69-4.49a.51.51,0,0,1,.47.91L520,490.2C517,491.77,513.77,493.24,510.64,493.24Z"/><path d="M463.1,280.69c-2.34,0-4.31-2.12-5.36-4.14-2.38-4.54-2.74-9.73-3.08-14.75a52.65,52.65,0,0,0-1.47-10.64.51.51,0,0,1,1-.28,53,53,0,0,1,1.51,10.85c.35,5.14.69,10,3,14.34,1.11,2.12,3.13,4,5.16,3.51a.51.51,0,1,1,.25,1A3.93,3.93,0,0,1,463.1,280.69Z"/><path d="M465.83,381.74a.51.51,0,0,1-.5-.45c-.81-6.71,0-13.58.73-20.23.94-8.35,1.92-17-.31-25.09-.51-1.86-1.2-3.71-1.87-5.5a59.73,59.73,0,0,1-2.08-6.31c-1.13-4.51-1.19-9.2-1.26-13.73a.51.51,0,0,1,.51-.52h0a.51.51,0,0,1,.51.5c.06,4.48.12,9.11,1.22,13.5a59.2,59.2,0,0,0,2,6.2c.67,1.81,1.37,3.68,1.89,5.59,2.29,8.3,1.3,17,.34,25.47-.74,6.6-1.52,13.41-.73,20a.51.51,0,0,1-.45.56Z"/><path d="M439.32,323.45c-2.45,9.6-4.22,19.34-6,29.07-1.67,9.18-3.32,18.71-.6,27.68a6.12,6.12,0,0,1-3.53-3.72,16.18,16.18,0,0,1-.72-5,100.22,100.22,0,0,1,0-10.4c.44-6.38,2.12-12.62,3.79-18.82l4.17-15.5C436.85,325.1,437.83,323.09,439.32,323.45Z"/><path class="cls-39" d="M466,279.88c6.09-2.52,9.54-9.36,11-15.43a30.78,30.78,0,0,0-3.31-23.1c-7.73-12.57-26.63-16.68-38.94-8.27-9.28,6.35-12.43,18.64-9.66,29.19a30.1,30.1,0,0,0,11.26,16.56c-2.65-6.08-5.47-12.3-7-18.78a19.11,19.11,0,0,1-.66-5.47,13.1,13.1,0,0,1,.26-2.43c.72-1.43,7.49-1,9.16-1q5-.12,9.93-.11c2.59,0,6-.35,8.16.92,1,.6,1.35.65,1.66,1.81.24.92-.14,2-.05,3a9.46,9.46,0,0,0,.79,3.53,4.88,4.88,0,0,1,.47,4.07c-.14,3.65-.92,11.25,1.82,14.75C462.12,280.63,464.18,280.64,466,279.88Z"/><path class="cls-39" d="M464.92,280.34c-9.58,1.87-9.88-15.14-10-21.52.63-9.21.78-10.07-8.82-9.88a117.36,117.36,0,0,0-15.65,1.14c-8.32,7.07,10.6,32.36,4.38,28-11-10.06-15.62-34.48,4.49-36.3,11.51-3,18.07-1.86,22.36,10.24C464.07,260.79,470,271.58,464.92,280.34Z"/><path class="cls-40" d="M460.23,277.29a4.06,4.06,0,0,1-1.57-.56c-.43-.26-.12,0-.65-.51a11,11,0,0,1-3.44,4,13.08,13.08,0,0,1-5.19,2.43c3.38.89,7.09-1.19,9.62-3.26.2-.17,2-1.89,1.23-2.08"/><path class="cls-41" d="M429.93,250.35a2.51,2.51,0,0,0-2.85.1c-1,.68-1,2.56-1.06,3.75a31.86,31.86,0,0,0,7.42,22.93A7.08,7.08,0,0,0,437,279c-1.73-4.72-4.24-9.44-6-14.16-.79-2.14-.7-4.13-.84-6.4-.16-2.58-1.35-4.81-.4-7.66"/><path d="M447.06,284.26c-.42,0-.85,0-1.28-.07a15.45,15.45,0,0,1-9.46-5.13c-3.05-3.3-4.63-8.48-6-13.49a45.63,45.63,0,0,1-1.56-14.85,1,1,0,0,1,1.09-.95,1,1,0,0,1,.95,1.08A43.45,43.45,0,0,0,432.3,265c1,3.76,2.56,9.44,5.53,12.65a13.39,13.39,0,0,0,8.17,4.47,8.75,8.75,0,0,0,8.06-3.33,1,1,0,1,1,1.68,1.16A10.52,10.52,0,0,1,447.06,284.26Z"/><path class="cls-41" d="M454.9,249.76a28.6,28.6,0,0,1,3.44.84,1.63,1.63,0,0,1,.78.31,1.29,1.29,0,0,1,.26.72c.73,5,.46,10.1,1.23,15.09s1.75,10.36,5.92,13.19c-.11-.07-2,.59-2.25.61a7.19,7.19,0,0,1-2.17-.12c-2.41-.5-3.27-2.19-4.47-4.23-2.91-5-2.59-10.89-2.74-16.45a28.53,28.53,0,0,0-2.16-10.36"/><path class="cls-42" d="M464.1,245.87a5.37,5.37,0,0,0-.7.11c-1.92-1.67-16.4-14-27.09-16.42,0,0-14.19,2.67-16.28,21.35,0,0,28.31-.5,40.11-.26a4.24,4.24,0,1,0,4-4.78"/><path class="cls-43" d="M424.1,247.63a18.89,18.89,0,0,1,4.95-8.73c2.7-2.66,6.25-4.11,9.77-5.35.52-.18.71.67.19.85-3.37,1.19-6.77,2.59-9.37,5.13a18.08,18.08,0,0,0-4.71,8.36c-.14.54-1,.28-.83-.26"/><path d="M449.9,262a.51.51,0,0,1-.45-.27,3.37,3.37,0,0,0-1.44-1.52,1.63,1.63,0,0,0-1.74.17.51.51,0,0,1-.69-.75,2.61,2.61,0,0,1,2.86-.35,4.25,4.25,0,0,1,1.91,2,.51.51,0,0,1-.21.69A.53.53,0,0,1,449.9,262Z"/><path d="M433.84,258.12a1.06,1.06,0,0,1-.34-.06,1,1,0,0,1-.62-1.3,4.62,4.62,0,0,1,4-3,1,1,0,1,1,.15,2,2.59,2.59,0,0,0-2.18,1.67A1,1,0,0,1,433.84,258.12Z"/><path d="M434.25,262.79a.48.48,0,0,1-.26-.07.51.51,0,0,1-.19-.69,5.28,5.28,0,0,1,2-2.14,2.62,2.62,0,0,1,3.07.34.51.51,0,0,1-.74.71,1.62,1.62,0,0,0-1.86-.15,4.39,4.39,0,0,0-1.56,1.74A.5.5,0,0,1,434.25,262.79Z"/><path d="M449.72,256.7a1,1,0,0,1-.78-.37,2.52,2.52,0,0,0-2.24-.82,1,1,0,1,1-.33-2A4.54,4.54,0,0,1,450.5,255a1,1,0,0,1-.12,1.44A1,1,0,0,1,449.72,256.7Z"/><g id="Artwork_61-2" data-name="Artwork 61"><g class="cls-44"><g class="cls-44"><path d="M448.81,270.06a3.37,3.37,0,0,0,.54,1.07,3,3,0,0,0,.93.83,1.7,1.7,0,0,0,1.31.09l.25-.1a.78.78,0,0,0,.44-.31.52.52,0,0,0-.1-.64.52.52,0,0,0-.74,0,.51.51,0,0,0-.06.61h0a.51.51,0,0,0,.86-.53h0l-.06.61h0l-.23.14h0l-.48-.12h0l-.15-.49v0l.12-.22c.17-.09.21-.12.14-.09l-.05,0-.09,0-.2.07-.11,0h0c.07,0,0,0-.05,0H451c-.12,0,.1,0,0,0l-.08,0s-.07,0-.07,0l0,0,0,0-.15-.09a.18.18,0,0,1-.07-.05l0,0,0,0a3.83,3.83,0,0,1-.29-.28l-.06-.07c-.07-.08,0,0,0,0a.89.89,0,0,0-.13-.18,3.54,3.54,0,0,1-.19-.33c0-.07,0,0,0,0a.3.3,0,0,1,0-.1l-.07-.21a.51.51,0,0,0-.62-.34.51.51,0,0,0-.35.62"/><path d="M441.33,274.36s.52,3.64,3.87,3.81,5.81-3.25,5.73-6.53c0,0-.44-1-1.46.24s-4.47,3.6-8.14,2.48"/><path class="cls-6" d="M448.93,271.8c0,1.86-2,3.85-4,4.14a2.17,2.17,0,0,1-2.37-1.63,8.9,8.9,0,0,0,6.36-2.51"/><path class="cls-7" d="M450.5,274.17a5.89,5.89,0,0,1-4.07,3.9,4.74,4.74,0,0,1,1.52-2.8,3.49,3.49,0,0,1,2.55-1.1"/><path d="M440.16,274.5a7.5,7.5,0,0,0,4.24.41,11.78,11.78,0,0,0,4.25-1.77,4.72,4.72,0,0,0,1.71-1.61.51.51,0,0,0-.89-.49,3.29,3.29,0,0,1-1.2,1.14,14.6,14.6,0,0,1-1.85,1,8.38,8.38,0,0,1-3.8.82,5.75,5.75,0,0,1-2-.43.53.53,0,0,0-.69.2.52.52,0,0,0,.2.69"/></g></g></g><path d="M376.36,346.75a.49.49,0,0,1-.42-.23.51.51,0,0,1,.15-.71,15.32,15.32,0,0,0,4.46-4.47.5.5,0,0,1,.7-.15.5.5,0,0,1,.16.7,16.22,16.22,0,0,1-4.77,4.78A.46.46,0,0,1,376.36,346.75Z"/><path d="M381.61,350.68a.53.53,0,0,1-.45-.27.52.52,0,0,1,.21-.69,11.93,11.93,0,0,0,4.5-4.39.51.51,0,1,1,.88.51,12.83,12.83,0,0,1-4.89,4.78A.54.54,0,0,1,381.61,350.68Z"/><path d="M377.24,349.75a.51.51,0,0,1-.17-1,12.18,12.18,0,0,0,5.69-4.32.51.51,0,0,1,.71-.12.5.5,0,0,1,.12.71,13.19,13.19,0,0,1-6.18,4.69A.47.47,0,0,1,377.24,349.75Z"/><path id="Fill-13" class="cls-45" d="M190.45,291c-.76,1.17-3.79-.5-4.06-.65.29.23,2.94,2.56,2,5-1,2.61-2.2,4.51-4.93,4.92s-6.53-2.46-9.14-1.78-4.35-.13-7.63,4.1c-2.28,3-9.64,16.4-29.71,32.13-6.74-3.39-7.5-11.28-7.46-15.05a71.57,71.57,0,0,0,11.27-6.58c12.41-9,20.72-20.32,23.6-26.73s7.48-9.29,9-11.75,3.28-1.35,2.33,2.33-2,4.09-2.33,5.46,7.91,2.18,11.06,3.26,6.81,4.11,6,5.33"/><path id="Fill-14" class="cls-29" d="M170.67,301.45C148.93,334.91,122,352.64,109,360.68c0,0-11.69-7.48-9.7-12.58s15.3-17.32,15.3-17.32,27.46-19.21,44.94-39.39a1.2,1.2,0,0,1,1.55-.22,20.27,20.27,0,0,1,6.09,5.45"/><path id="Fill-15" class="cls-31" d="M29.57,499.92c-1.52.82-10.06.7-12-.85s-6.73-8.4-7-9.8S14.75,460.89,16.9,462c.49.23,1.82.76,3.77,1.44,2.18.76,5.18,1.71,8.65,2.69a15.6,15.6,0,0,0,.25,14.6s-4.74,7.7-4.19,9.1,4.82,4.4,5.8,5.69a.89.89,0,0,1,.21.34,4.13,4.13,0,0,1-1.82,4.07"/><path id="Fill-17" class="cls-31" d="M148.81,497.78c.17,3.18-4,3-8.67,3.41s-27,0-30.17,0c-1.44,0-1.48-1.72-.62-5.55a.36.36,0,0,1,.05-.12c.69-3,3.53-6.92,5.09-12.78,6.26,4.61,13.3.25,13.3.25-.25,2.39,13.94,8.67,19.14,12.61,1.14.87,1.86,1.61,1.88,2.18"/><path id="Fill-16" class="cls-37" d="M100.92,474.94c-15.11,25.29-74.39,9.84-74.39,9.84-4.71-7.8-1-21.48-1-21.48,8.21,2.2,18.21,4.52,27.61,5.12,17.64,1.12,28.79-5.17,23.08-18.64a192.17,192.17,0,0,1-9.08-28.41h36.27s12.67,28.28-2.47,53.57"/><path id="Fill-18" class="cls-37" d="M131.88,486.83s-12.71,3.48-19-1.33c.78-3.08,2.26-6.44,2.55-10.44,1.62-22,4.56-34.87,1.11-37.5-7-5.3-30.95,19.56-51.18-15.67,0,0,17.67-23.57,41.53-17.52,0,0,28.2-2.9,35.07,17.52s-9.82,61.92-10.12,64.94"/><path id="Fill-19" class="cls-45" d="M110.66,341.63s-5.35,2.66-7.51,6.58a6.94,6.94,0,0,0-.37,2.66c-.57.25-9.74,4.18-14.24-12.09,1.06-1.47,1.73-2.28,1.73-2.28L100,321.8Z"/><path id="Fill-80" class="cls-45" d="M119.86,337.5c-2.39,7.05-12.73,7.28-19.65-.34-5.45-6-10.75-12.37-10.75-12.37s-5.13-2-4.61-6.88S92,313,93.56,316.25c0,0,1.45,2.18,3,1.66s1.33-7.12,1.33-8.64,2.35-3.59,2.35-3.59,17.29.93,21.71,0a42.39,42.39,0,0,1-.9,31.82"/><path id="Fill-81" class="cls-29" d="M112.71,404.34s-15.68.21-25.29,5.12c-6.79,3.48-12.33,12.81-16.63,18.11a3.32,3.32,0,0,1-5.85-1.44c-1.8-9.26-4.68-29.34-.76-48.65,4.33-21.38,21.12-37,27.21-42.08,2.26,14.69,12.66,12.44,13.3,12.3-2,9.95-.93,47.62,8,56.64"/><path id="Fill-84" class="cls-45" d="M188.44,388.65c-3.39,1.44-11.89-2.88-14-5.54s-13.3,4.08-43.09,3.38c-1.68,0-3.3-.12-4.89-.23-5.83-11.92,2.31-18.31,2.31-18.31,9.24,4,21.55,6.71,38.35,5.29,0,0,2.21-.5,3.64-3.6a23.29,23.29,0,0,1,5.54-7.49c2.27-2,3.39-1,3.39,1.23s-2.16,4-2.56,5.55,2.66,3.59,6.45,4.21,7.59-.28,8.52.48.21,2.19-5.54,2.71c0,0,3.85,3,5.88,3.28s-.66,7.6-4,9"/><path id="Fill-83" class="cls-25" d="M169.72,384.55c-70.57,13.29-85.13-12.74-86.38-22.86-.88-7.26,2.77-10.86,5.86-12.32,3.53-1.67,9.28-2.1,17.72,4.21,4.51,3.38,20.63,19.48,58.88,18.71a2.42,2.42,0,0,1,1.62.59,10.19,10.19,0,0,1,3.33,10.64"/><path d="M163.61,372.44a10.19,10.19,0,0,1,2.4-.18,3.49,3.49,0,0,1,2.18.91,4.41,4.41,0,0,1,.61.81c1.57,2.42,3,5.1,3,8a3.62,3.62,0,0,1-1,2.68,4.23,4.23,0,0,1-2.18.85,22.88,22.88,0,0,1-2.49.31C164.86,381.4,164.94,376.67,163.61,372.44Z"/><path class="cls-39" d="M96,343.73c-6.13-.87-10.87-6.28-13.61-11.47A28.89,28.89,0,0,1,80,310.47c4.09-13.25,20.33-21.42,33.5-16.65,9.93,3.61,15.68,14.06,15.63,24.31a28.3,28.3,0,0,1-6.38,17.7c1-6.15,2.1-12.47,2-18.73A18.13,18.13,0,0,0,124,312a12.35,12.35,0,0,0-.81-2.15c-1-1.13-7,.85-8.57,1.2-3,.7-6.06,1.45-9.07,2.23-2.35.61-5.52,1.08-7.21,2.75-.8.79-1.07.91-1.08,2a17,17,0,0,0,.74,2.7,8.6,8.6,0,0,1,.1,3.39,4.62,4.62,0,0,0,.53,3.82c1,3.29,3.48,10,1.8,13.84C99.71,343.5,97.84,344,96,343.73Z"/><path class="cls-39" d="M97.1,343.89c9.15-.54,5.44-16.09,4.08-21.93-2.73-8.23-3.07-9,5.71-11a110.21,110.21,0,0,1,14.51-2.63c9.23,4.49-2.07,31.93,2.56,26.47,7.65-11.73,6.14-35-12.58-32-11.18,0-16.89,2.54-18,14.56C93.3,325.9,90.39,337.12,97.1,343.89Z"/><path class="cls-40" d="M100.65,340a3.7,3.7,0,0,0,1.3-.88c.33-.34.11,0,.47-.62a10.39,10.39,0,0,0,4.06,2.82,12,12,0,0,0,5.3,1c-2.88,1.61-6.74.58-9.53-.71-.21-.1-2.25-1.25-1.6-1.6"/><path class="cls-41" d="M121.92,308.41a2.35,2.35,0,0,1,2.61-.58c1,.39,1.49,2.11,1.85,3.17A30,30,0,0,1,125,333.6a6.64,6.64,0,0,1-2.81,2.54c.47-4.7,1.65-9.58,2.13-14.28a19.92,19.92,0,0,0-.74-6c-.46-2.38.1-4.7-1.44-7.06"/><path d="M111.58,343.68a9.5,9.5,0,0,1-6.25-2.22,1,1,0,0,1-.11-1.44,1,1,0,0,1,1.45-.1,8.17,8.17,0,0,0,8,1.14,12.54,12.54,0,0,0,6.35-6c1.94-3.61,2-9.12,2.06-12.78a40.69,40.69,0,0,0-2-13.23,1,1,0,1,1,2-.63,42.76,42.76,0,0,1,2.06,13.89c-.07,4.89-.29,10-2.3,13.72a14.62,14.62,0,0,1-7.44,6.9A10.84,10.84,0,0,1,111.58,343.68Z"/><path class="cls-41" d="M99.06,313.72a25.5,25.5,0,0,0-2.93,1.57c-.24.13-.51.22-.64.46a1.24,1.24,0,0,0-.08.72c.51,4.71,2,9.29,2.42,14s.84,9.84-2.3,13.4c.08-.09,1.94.07,2.19,0a6.94,6.94,0,0,0,2-.62c2.08-1,2.47-2.76,3.07-4.9,1.48-5.23-.18-10.51-1.35-15.61a26.57,26.57,0,0,1-.46-9.93"/><path d="M97,344.21a9.68,9.68,0,0,1-2.7-.42,14,14,0,0,1-6.57-4.19.51.51,0,0,1,0-.72.52.52,0,0,1,.72.05,13.17,13.17,0,0,0,6.1,3.88,6.29,6.29,0,0,0,4.94-.26,6.55,6.55,0,0,0,2.55-4.22c.94-4.1.1-8.21-.78-12.56-.77-3.76-1.56-7.66-1.07-11.52a.5.5,0,0,1,.57-.44.51.51,0,0,1,.44.57c-.46,3.69.31,7.5,1.06,11.19.87,4.26,1.77,8.67.78,13a7.32,7.32,0,0,1-3,4.86A5.76,5.76,0,0,1,97,344.21Z"/><path class="cls-42" d="M89.77,312.33a5.26,5.26,0,0,1,.67-.07c1.35-2,11.64-16.58,20.81-21.27,0,0,13.53-.9,19.8,15.61,0,0-25.87,6.17-36.56,9.15a4,4,0,1,1-4.72-3.42"/><path class="cls-43" d="M126.58,304.57a17.7,17.7,0,0,0-6.54-6.79c-3.08-1.78-6.65-2.27-10.14-2.58-.52,0-.5.77,0,.82,3.34.29,6.77.77,9.72,2.48a16.9,16.9,0,0,1,6.25,6.5c.25.46,1,0,.69-.43"/><path d="M146.31,372.09h-.11a89,89,0,0,1-29.94-11.9c-1.82-1.14-3.63-2.37-5.38-3.56-4.33-2.93-8.81-6-13.71-7.87-2.78-1.08-4.83-1.16-6.28-.24a.54.54,0,0,1-.76-.17.55.55,0,0,1,.17-.77c1.76-1.12,4.14-1.08,7.27.14,5,2,9.55,5,13.93,8,1.74,1.18,3.55,2.41,5.35,3.53A87.82,87.82,0,0,0,146.41,371a.56.56,0,0,1,.44.66A.55.55,0,0,1,146.31,372.09Z"/><path class="cls-33" d="M113.44,357.62a188.12,188.12,0,0,0,56.84-56.39"/><path class="cls-33" d="M109.79,322.75a3,3,0,0,1,.69-1.81,1.94,1.94,0,0,1,1.77-.65"/><path class="cls-33" d="M117.83,319.18a2.24,2.24,0,0,1,1.65,0,2.2,2.2,0,0,1,1.2,1.12"/><path class="cls-33" d="M117.52,321.51a5,5,0,0,1,1.64,4.05.88.88,0,0,1-.26.64,1,1,0,0,1-.61.11c-.22,0-.49-.05-.59-.25.12.14,0,.35-.1.48a1.33,1.33,0,0,1-1.21.44,1,1,0,0,1-.76-1"/><path class="cls-8" d="M110.32,315.47a3,3,0,0,0-2.47,1.55,4.22,4.22,0,0,0-.45,3"/><path class="cls-8" d="M117.4,313.65a2.94,2.94,0,0,1,2.7,1,3.73,3.73,0,0,1,1,2.73"/><path d="M157.09,294.34A97.58,97.58,0,0,1,168.44,304c.1-.89,2.56-2.91,2.43-3.8a1.9,1.9,0,0,0-.37-.72c-2.52-3.52-5.21-7.19-9.14-9a1.14,1.14,0,0,0-.47-.13,1.07,1.07,0,0,0-.51.2A10.81,10.81,0,0,0,157.09,294.34Z"/><g id="Artwork_46" data-name="Artwork 46"><g class="cls-46"><g class="cls-46"><path d="M119.79,331.93a6.25,6.25,0,0,1-4.12,1,6.83,6.83,0,0,1-3.85-1.24,6.38,6.38,0,0,1-1.63-1.72.79.79,0,0,1,.15-.93.48.48,0,0,1,.75.13,5.4,5.4,0,0,0,2.64,2.07,7.89,7.89,0,0,0,3.69.29,3.51,3.51,0,0,0,1.76-.61.49.49,0,0,1,.76.12.8.8,0,0,1-.15.93"/><path d="M111.93,328.77a3,3,0,0,1-1.4,1.59,2.18,2.18,0,0,1-1,.23,3.68,3.68,0,0,1-1-.22.62.62,0,0,1-.43-.74c.07-.32.35-.65.64-.56a4.51,4.51,0,0,0,.88.21c.06,0,.1,0,0,0h.08l.18,0,.09,0c.11,0,0,0,0,0s.15-.06.18-.07l.15-.08s.07,0,.08-.05-.09.06,0,0l.15-.12a.8.8,0,0,1,.13-.13c-.08,0-.05.06,0,0l.07-.09.12-.17s0-.06,0-.07,0,.08,0,0a1.47,1.47,0,0,0,.1-.22.54.54,0,0,1,.73-.35.71.71,0,0,1,.24.87"/><path d="M116.79,335.27a3.73,3.73,0,0,1-2.24.08,5.12,5.12,0,0,1-2.07-.84.7.7,0,0,1-.24-.86c.12-.3.48-.53.73-.35a4.29,4.29,0,0,0,1.72.73,3,3,0,0,0,1.74,0,.5.5,0,0,1,.7.35.76.76,0,0,1-.34.86"/></g></g></g><path d="M105.87,383.9a41.89,41.89,0,0,0,6.81,20.57l-4.15.16a51.24,51.24,0,0,1-5.46-21.57A2.63,2.63,0,0,1,105.87,383.9Z"/><path d="M139.86,388.93c-1.7,0-3.32,0-4.49-.15l-5.25-.48c-5.24-.47-10.66-.95-15.93-2-8.17-1.57-14.65-4.17-19.82-8-6.29-4.61-10.44-11.1-11.39-17.82a.55.55,0,0,1,.47-.63.56.56,0,0,1,.63.47c.91,6.43,4.9,12.65,11,17.09,5,3.69,11.36,6.22,19.36,7.75,5.22,1,10.62,1.48,15.83,1.95,1.76.16,3.51.31,5.26.49s4.72.15,7.31.12c1.25,0,2.4,0,3.28,0,6.06.08,9.6-.72,15.46-2.05l8-1.82a.56.56,0,0,1,.25,1.09l-8,1.81c-5.74,1.31-9.53,2.16-15.72,2.08-.88,0-2,0-3.26,0Z"/><path class="cls-39" d="M262.82,379.32a17.81,17.81,0,0,1-8-2c-19.45-9.15-31-27.69-29-49.52A49.51,49.51,0,0,1,242,295.28c8.9-7.83,18.22-13.67,30.2-15,29.26-3.34,57,17.6,60.24,47.12a50.73,50.73,0,0,1-4,26c-3.75,8.55-12.9,16.25-19.89,22.41-5.86,5.17-19.67,5.29-18.07-5.87a10.57,10.57,0,0,1,3.91-6.39c4.46-3.73,8.68-5.54,12.29-10.41a33.38,33.38,0,0,0,6.3-14.42c2.12-13.15-5.6-26.9-17.33-33.22a35.62,35.62,0,0,0-33.66.05,33.43,33.43,0,0,0-16.92,28.87c.15,11.71,7.46,23.12,18.17,27.84,3.48,1.54,7.1,4.47,7.67,8.46.63,4.36-2.57,7.9-6.8,8.54A9.81,9.81,0,0,1,262.82,379.32Z"/><circle class="cls-39" cx="279.53" cy="334.84" r="17.8"/><path class="cls-47" d="M242.26,278.79c-.95,1.62,2.38,9.75,2.67,11.59.94,6,2,12.28,5.83,17.3a6.55,6.55,0,0,0,3.71,2.73c1.58.31,3.5-.7,3.41-2.18,1.55,1.34,4.54.53,5-1.35a3.34,3.34,0,0,0,3.2.17,2.71,2.71,0,0,0,1.49-2.57c.17.78,1.35.84,2.2.7,1.26-.21,2.7-.58,3.18-1.66.65-1.47-.92-2.93-2.19-4-5.19-4.54-7.6-11-10.79-16.91-.19-.36-1.19-2.57-1.59-2.74s-1.19-.86-1.54-.83C251.93,279.34,244,275.88,242.26,278.79Z"/><path class="cls-47" d="M256,278.73a24.62,24.62,0,0,0,5.45-.72,10.81,10.81,0,0,1,5.45.06,2.29,2.29,0,0,1,1.47,1.13,1.94,1.94,0,0,1-.93,2.24,6.6,6.6,0,0,1-2.52.72,22.6,22.6,0,0,0-5.38,1.64,1.1,1.1,0,0,1-.82.15,1,1,0,0,1-.4-.3A9,9,0,0,1,256,278.73Z"/><path class="cls-12" d="M256.39,175.87l-21.55,48.46c-2,4.49-4,9.11-4.37,14.09-.3,4.35.71,8.66,1.74,12.86,2.18,8.91,4.47,17.83,7.88,26.24a13,13,0,0,0,3.25,5.28c3.87,3.23,9.38.63,13.63-2a3,3,0,0,0,1.47-1.53,3.45,3.45,0,0,0-.19-2l-4.4-14.42a48.39,48.39,0,0,1-2.56-12c-.35-8.24,3.4-16,7.56-22.89s8.91-13.57,11-21.5a35.42,35.42,0,0,0-1.4-22.29,16,16,0,0,0-4.4-6.49A9.63,9.63,0,0,0,256.39,175.87Z"/><ellipse cx="300.98" cy="143.84" rx="21.52" ry="16.88"/><path d="M280,142.51a50.49,50.49,0,0,0,.9,19.25c.54,2.24,1.32,4.54,2.94,6a2.06,2.06,0,0,0,.8.48,2.49,2.49,0,0,0,1.15,0c4.88-.79,9.85,1.86,14.7.91,2.3-.45,4.42-1.69,6.65-2.45s4.82-1,6.78.43a4.22,4.22,0,0,0,1.19.76c1.38.43,2.49-1.26,3.1-2.71,3.12-7.43,5.51-15.72,4-23.76-.55-3-1.85-6.11-4.36-7.35"/><path class="cls-32" d="M283.74,158.85a3.2,3.2,0,0,0-.62-1.57,1.55,1.55,0,0,0-2.32.1,2.42,2.42,0,0,0-.31.74,7.65,7.65,0,0,0,0,4,3.72,3.72,0,0,0,.38.92,4.76,4.76,0,0,0,1.16,1.12,1.87,1.87,0,0,0,.73.4,1.26,1.26,0,0,0,1.26-.59,2.89,2.89,0,0,0,.41-1.41C284.56,161.27,284,160.07,283.74,158.85Z"/><path class="cls-32" d="M317.31,160.22a3.71,3.71,0,0,1,.94-1.51,1.9,1.9,0,0,1,1.65-.48,2,2,0,0,1,1.34,1.71,4.35,4.35,0,0,1-.5,2.22,11.41,11.41,0,0,1-1.54,2.4c-.57.68-1.49,1.33-2.28.92a1.68,1.68,0,0,1-.74-1.11C315.81,162.91,316.8,161.58,317.31,160.22Z"/><path class="cls-32" d="M282.66,155.49c-.55,5.52-.64,11.26,2,16.36A17.38,17.38,0,0,0,314.78,173c2.8-4.39,3.4-9.45,3.54-14.38l.12-1.59a10.75,10.75,0,0,1-6.53-3.43,1.84,1.84,0,0,0-1.08-.78,2.24,2.24,0,0,0-1,.16c-2.19.74-4.61,1.38-6.89.86s-4.3-2.27-6.74-2.16c-1.6.07-2.94.92-4.33,1.54a15.61,15.61,0,0,1-6.6,1.32C283.9,154.51,282,154.58,282.66,155.49Z"/><path class="cls-8" d="M282.46,155.17c-1.7,14,6.65,28.82,21.63,25.17"/><path class="cls-8" d="M306,156.42a7.62,7.62,0,0,1,6.55.85"/><path class="cls-33" d="M300.26,163.45a12,12,0,0,0-1.34,3.46,3.82,3.82,0,0,0,.11,2.48,1.63,1.63,0,0,0,.55.64,1.34,1.34,0,0,0,1.29.06,1.6,1.6,0,0,0,.82-1,1.6,1.6,0,1,0,3.18-.31"/><path class="cls-33" d="M296.14,172.35a6.26,6.26,0,0,0,3.29,2.35,8.49,8.49,0,0,0,4.07.16,4,4,0,0,0,2.91-1.79"/><path class="cls-8" d="M290.25,155.93a8.81,8.81,0,0,1,7.2,0"/><path class="cls-6" d="M312.21,161.39a12,12,0,0,0-5.31-.61,2.46,2.46,0,0,0-2.2,1.23,1.75,1.75,0,0,0,.55,1.81,3.87,3.87,0,0,0,1.81.81c.79.16,1.6.22,2.4.33a11.28,11.28,0,0,0,2.09.18,2.83,2.83,0,0,0,1.91-.75,1.66,1.66,0,0,0,.36-1.92A2.79,2.79,0,0,0,312.21,161.39Z"/><circle cx="308.85" cy="163.82" r="1.22"/><path class="cls-6" d="M291.15,159.92a12.08,12.08,0,0,1,5.35.07c.86.2,1.82.63,2,1.5a1.73,1.73,0,0,1-.78,1.72,3.68,3.68,0,0,1-1.9.57c-.8.06-1.6,0-2.41,0a11.33,11.33,0,0,1-2.1-.09,2.84,2.84,0,0,1-1.8-1,1.67,1.67,0,0,1-.11-2A2.81,2.81,0,0,1,291.15,159.92Z"/><circle cx="293.85" cy="162.93" r="1.22"/><path class="cls-8" d="M168.83,114.94a2.31,2.31,0,0,1,2-.9,2.36,2.36,0,0,1,1.83,1.26"/><path class="cls-8" d="M157.5,118.68a3.36,3.36,0,0,1,1.16-2.36,2.17,2.17,0,0,1,2.51-.19"/><path class="cls-33" d="M169,120.35a2.45,2.45,0,0,1,3.35.7"/><path class="cls-33" d="M94.09,142.52a15.21,15.21,0,0,0,2.78,1"/><path class="cls-33" d="M94,146.1a13.23,13.23,0,0,0,3.25,1"/><path class="cls-33" d="M94.47,149.34a5.1,5.1,0,0,0,3,1,1.18,1.18,0,0,0,1-.32"/><path class="cls-33" d="M103.73,154.56a8.25,8.25,0,0,1,.31-4.09,25.1,25.1,0,0,1,1.63-3.81"/><path class="cls-33" d="M103.59,134.74a2.15,2.15,0,0,0-2,2.3,6.27,6.27,0,0,0,1.27,3.12l1.59,2.48a6.38,6.38,0,0,1,1.38,3.59"/><path class="cls-33" d="M97.78,152.62a3.65,3.65,0,0,1,4.14.17"/><path class="cls-33" d="M159.5,123.73a3,3,0,0,1,3.06-2"/><path class="cls-33" d="M165.43,125.83a9.51,9.51,0,0,0-.31,3.27c0,.51.19,1.1.66,1.28a.92.92,0,0,0,.91-.19,1.83,1.83,0,0,0,.52-.81,1.38,1.38,0,0,0,1.48.74,1.11,1.11,0,0,0,.8-1.37"/><path class="cls-33" d="M181.47,118.28a1.26,1.26,0,0,1,1.13-.73,1.71,1.71,0,0,1,1.53,1.42,5.13,5.13,0,0,1-.18,2.23,1.32,1.32,0,0,0-.59-1.16.76.76,0,0,0-1.09.41"/><path class="cls-33" d="M100.76,164.83c-.78-2.3,1.4-4.45,3.35-5.91l4.15-3.13a1.75,1.75,0,0,1,1.25-.5,1.6,1.6,0,0,1,1.12,1c4.11,9.27,6.83,16.79,10.54,25.17a13.54,13.54,0,0,0,3.4,5.08,5.48,5.48,0,0,0,5.73,1"/><path class="cls-33" d="M187.75,145.6a12.44,12.44,0,0,1-7.6,4.77,13.83,13.83,0,0,1-9.38-1.76,2.87,2.87,0,0,0-1.82,2.68c.19,1.23,1.55,1.88,2.75,2.23a20.62,20.62,0,0,0,10.71.45C185.92,153.1,189.18,151,187.75,145.6Z"/><path class="cls-33" d="M177.85,150.69c-1.29,1.2-1.08,3.26-.78,5Q179,166.77,180,178c1.07,12.28,1.3,24.62,1.55,36.95.16,8,.33,16.11,2.15,23.92"/><path class="cls-33" d="M154.54,185.67a42.24,42.24,0,0,0,4.1-8.14"/><path class="cls-33" d="M198.13,161.75c4.5,4.15,9,8.47,11.88,13.86,2,3.77,3.25,8.07,6.15,11.22"/><path class="cls-33" d="M213.14,182.84c1.76,7.42,3.24,15.08,2.94,22.81-.16,4.24-.86,8.43-.79,12.66a5.13,5.13,0,0,0,.28,1.89,3.1,3.1,0,0,0,2.34,1.67,12.65,12.65,0,0,0,7.35-.44"/><path d="M69.06,430.67a23.64,23.64,0,0,0,12.84,9.5c6.1,2,12.7,1.7,18.91.36,1.67-.36,3.32-.8,5-1.3a33,33,0,0,1,4.68-1.25c2.69-.41,6.14.31,7,3.28a17.21,17.21,0,0,1,.31,5c0,1.74,0,3.49-.1,5.24-.11,3.45-.34,6.9-.66,10.34a172.28,172.28,0,0,1-3.87,23.33c-.16.69.91,1,1.07.29a172.46,172.46,0,0,0,3.62-20.81,150.83,150.83,0,0,0,1-21.14,7.32,7.32,0,0,0-1.1-4.11,6.15,6.15,0,0,0-2.86-2.11c-2.91-1.11-6-.17-8.84.71-6.55,2-13.55,3.28-20.38,2-6.22-1.15-12.22-4.46-15.68-9.88-.38-.6-1.35,0-1,.56Z"/></g></svg>