<svg xmlns="http://www.w3.org/2000/svg" xmlns:xlink="http://www.w3.org/1999/xlink" viewBox="0 0 550 550"><defs><style>.cls-1,.cls-8,.cls-9{fill:none;}.cls-2{fill:#094756;}.cls-3{fill:#f9e876;}.cls-4{fill:#93d14c;}.cls-5{fill:#07ac02;}.cls-25,.cls-6{fill:#006a00;}.cls-6{stroke:#006a00;stroke-width:3px;}.cls-6,.cls-8,.cls-9{stroke-miterlimit:10;}.cls-7{fill:#0fad4b;}.cls-10,.cls-22,.cls-23,.cls-24,.cls-7,.cls-8{fill-rule:evenodd;}.cls-8,.cls-9{stroke:#000;stroke-linecap:round;stroke-width:2px;}.cls-10,.cls-17{fill:#fff;}.cls-11{clip-path:url(#clip-path);}.cls-12{fill:#fd9ea8;}.cls-13{fill:#e66504;}.cls-14{fill:#f8bb21;}.cls-15{fill:#aadeea;}.cls-16{fill:#ad222e;}.cls-18{fill:#fd405a;}.cls-19{fill:#fda300;}.cls-20{fill:#ade26a;}.cls-21{fill:#b93a14;}.cls-22{fill:#fed401;}.cls-23{fill:#ee7600;}.cls-26{fill:#ef0295;}.cls-27{fill:#bf007b;}.cls-28{fill:#fa747f;}.cls-29{fill:#fd9fa9;}.cls-30{fill:#e5e4e4;}.cls-31{fill:#f4a9ae;}.cls-32{fill:#117e3f;}.cls-33{fill:#006880;}.cls-34{fill:#1c5229;}.cls-35{fill:#34badb;}.cls-36{fill:#b1dfec;}.cls-37{clip-path:url(#clip-path-3);}.cls-38{fill:#ff2c59;}.cls-39{clip-path:url(#clip-path-5);}.cls-40{fill:#f07600;}.cls-41{fill:#7b8086;}.cls-42{fill:#b45227;}.cls-43{fill:#00aa13;}.cls-44{fill:#cd4b27;}.cls-45{fill:#ae2077;}.cls-46{fill:#007a0e;}.cls-47{fill:#a4a5a5;}</style><clipPath id="clip-path"><rect class="cls-1" x="55.33" y="150.47" width="188.9" height="309.74"/></clipPath><clipPath id="clip-path-3"><rect class="cls-1" x="363.27" y="299.72" width="15.04" height="8.9" transform="translate(-33.5 46.2) rotate(-6.82)"/></clipPath><clipPath id="clip-path-5"><rect class="cls-1" x="401.19" y="172.37" width="138.81" height="270.62"/></clipPath></defs><g id="Layer_19" data-name="Layer 19"><circle class="cls-2" cx="274.71" cy="275" r="256.26"/><path class="cls-3" d="M482,140.31c-.25-9.15-1.06-17.8-8.53-26.29-4.24-4.81-13.4-7.36-23.86-7.69-27.43-.88-29.56-.85-55-.39-4.23.07-17,1-22.2,5.73-9.59,8.66-9.83,16.55-9.85,21.93,0,2.06-.06,11.55-.06,11.55l.66,39.08.14,11.87s-1.25,17.11,14.64,23.51A35.4,35.4,0,0,0,390.14,222c5.84.19,18.85.74,31.32,1.13,7.26.23,14.33.41,19.69.44,14.59.08,22.36-1.31,30.06-7.68,7.08-5.86,9.44-13.54,10-24.26,1.31-24.74,1.36-27.38.73-51.29"/><path class="cls-4" d="M462.6,139.11a.56.56,0,0,0,0-1.12h-6.81q0-7.69-.15-15.38h7a.56.56,0,0,0,0-1.12h-7c0-1.19,0-2.38,0-3.57a.68.68,0,0,0-1.36,0c0,1.19,0,2.38,0,3.57H438.87v-3.57a.68.68,0,0,0-1.36,0v3.57H422.27v-3.57a.68.68,0,0,0-1.36,0v3.57H405.84c0-1.19,0-2.38,0-3.57a.68.68,0,0,0-1.36,0c0,1.19,0,2.38,0,3.57H389.07v-3.57a.68.68,0,0,0-1.36,0v3.57h-9.79a.56.56,0,0,0,0,1.12h9.79V138h-9.79a.56.56,0,0,0,0,1.12h9.79v15.38h-9.79a.56.56,0,0,0,0,1.12h9.79V171h-9.79a.56.56,0,0,0,0,1.12h9.79v15.38h-9.79a.57.57,0,0,0,0,1.13h9.79V204h-9.79a.56.56,0,0,0,0,1.12h9.79v3.56a.68.68,0,0,0,1.36,0v-3.56H404c0,1.18,0,2.37-.07,3.56a.68.68,0,0,0,1.36,0l.06-3.56h15.54v3.56a.68.68,0,0,0,1.36,0v-3.56h15.24v3.56a.68.68,0,0,0,1.36,0v-3.56h14.94c0,1.18,0,2.37-.07,3.56a.68.68,0,0,0,1.36,0c0-1.19,0-2.38.07-3.56h7.43a.56.56,0,0,0,0-1.12h-7.41q.15-7.69.28-15.38h7.13a.57.57,0,0,0,0-1.13h-7.11c.08-5.12.13-10.25.18-15.38h6.93a.56.56,0,0,0,0-1.12h-6.92q.07-7.68.1-15.38h6.82a.56.56,0,0,0,0-1.12h-6.81c0-5.13,0-10.25,0-15.38Zm-73.53-16.5h15.42q.11,7.68.14,15.38H389.07ZM404,204h-15V188.62h15.25Q404.2,196.3,404,204m.3-16.51H389.07V172.11h15.45c0,5.13-.1,10.26-.18,15.38m.19-16.5H389.07V155.61h15.56q0,7.69-.1,15.38m.1-16.5H389.07V139.11h15.58c0,5.13,0,10.25,0,15.38m16.28,35V204H405.39q.17-7.69.29-15.38h15.23Zm0-2H405.7c.08-5.12.13-10.25.18-15.38h15Zm0-16.5h-15q.08-7.68.1-15.38h14.92Zm0-16.5H406c0-5.13,0-10.25,0-15.38h14.91Zm0-16.5H406q0-7.69-.14-15.38h15.06Zm16.6,66H422.27V188.62h15.24Zm0-16.51H422.27V172.11h15.24Zm0-16.5H422.27V155.61h15.24Zm0-16.5H422.27V139.11h15.24Zm0-16.5H422.27V122.61h15.24Zm1.36-15.38h15.42q.09,7.68.14,15.38H438.87Zm15,81.39h-15V188.62h15.24q-.12,7.68-.28,15.38m.3-16.51H438.87V172.11h15.44c-.05,5.13-.1,10.26-.18,15.38m.2-16.5H438.87V155.61h15.56q0,7.69-.1,15.38m.1-16.5H438.87V139.11h15.57c0,5.13,0,10.25,0,15.38"/><path d="M393.06,117.25c.28-.41,1-.48,1.46-.47a1.55,1.55,0,0,1,1.43.83c.54,1.35-1.64,2-2.56,2.09s-.95,1.48,0,1.45a5.27,5.27,0,0,1,3.32.76,1.06,1.06,0,0,1,.48,1,1.53,1.53,0,0,1-.28.64,1.9,1.9,0,0,1-.39.43,4.23,4.23,0,0,1-2.21.48,10.07,10.07,0,0,1-1.14-.06,3.58,3.58,0,0,1-.53-.11l-.19,0c-.13,0,.11.06-.07,0-.82-.44-1.56.81-.73,1.25a5.16,5.16,0,0,0,2.16.44,7.39,7.39,0,0,0,2.65-.3,3.24,3.24,0,0,0,2.07-2.07,2.58,2.58,0,0,0-1.24-3,6.94,6.94,0,0,0-3.9-.86v1.45a5.2,5.2,0,0,0,3.3-1.36,2.54,2.54,0,0,0,.52-2.91,3.36,3.36,0,0,0-5.41-.36.74.74,0,0,0,.26,1,.75.75,0,0,0,1-.26"/><path d="M409.56,115.6l-4.13,0a.76.76,0,0,0-.73.56,16.78,16.78,0,0,0-.28,2.23,3.12,3.12,0,0,0,.24,2,1.72,1.72,0,0,0,1.71.52,10.11,10.11,0,0,1,2.13,0,3.14,3.14,0,0,1,.76.18.83.83,0,0,1,.32.25.55.55,0,0,1,.09.13s.1.19.06.1a1.43,1.43,0,0,1,.09.27,1.23,1.23,0,0,1,0,.21,1.92,1.92,0,0,1-.14,1,1.65,1.65,0,0,1-.5.63,4,4,0,0,1-1.67.46,8.28,8.28,0,0,1-2.22-.11.77.77,0,0,0-.93.53.76.76,0,0,0,.53.93c2.22.37,5.54.42,6.32-2.24a3.18,3.18,0,0,0-.38-2.7c-.77-1.08-2.18-1.21-3.41-1.21-.44,0-.88,0-1.33.07h-.19c-.29,0-.06,0-.11,0s.06.06.08,0a2.76,2.76,0,0,0,0-.29,13.61,13.61,0,0,1,.26-2.62l-.74.56,4.13,0a.76.76,0,0,0,0-1.52"/><path d="M414.18,120.45a48.13,48.13,0,0,1,5.37,5.41.8.8,0,0,0,1.13,0,.82.82,0,0,0,0-1.13,49,49,0,0,0-5.37-5.41.82.82,0,0,0-1.13,0,.8.8,0,0,0,0,1.13"/><path d="M419.55,119.32a48.13,48.13,0,0,0-5.37,5.41.82.82,0,0,0,0,1.13.81.81,0,0,0,1.13,0,47.3,47.3,0,0,1,5.37-5.41.82.82,0,0,0,0-1.13.81.81,0,0,0-1.13,0"/><path d="M401.43,126.14a.73.73,0,0,0,0-1.45.73.73,0,0,0,0,1.45"/><path class="cls-5" d="M387.92,118.08l-5.18-3.9c-1.06-.84-1.56-.8-2.66,0l-5.14,4.06c-.52.4-.27,1.27.85,1.26h1.71v6.93a1.48,1.48,0,0,0,1.48,1.48h4.94a1.48,1.48,0,0,0,1.48-1.48v-7h1.82c1.12,0,1.22-1,.7-1.37"/><path class="cls-6" d="M111.32,369.39,191,284.24a1.32,1.32,0,0,1,2.07.1l15.14,18.51a1.32,1.32,0,0,0,2.14,0l61.54-73.62a1.3,1.3,0,0,1,2-.15l53,49.83a1.3,1.3,0,0,0,2-.14l99.69-115.9a2.34,2.34,0,0,0,0-2.82l-11.5-10.57c-.89-1.13-.41-3.05.82-3.33l35.58-10.62c1.16-.26,2.12,1.16,1.73,2.58l-2.75,39c-.37,1.39-2.82,2.64-3.62,1.59l-11.94-10a1.32,1.32,0,0,0-2.16-.06L328.8,290.86a1.31,1.31,0,0,1-1.9.21l-52.25-43.25a1.31,1.31,0,0,0-1.93.25l-61.8,77.42a1.32,1.32,0,0,1-2.06.14l-15.39-15.7a1.31,1.31,0,0,0-2,.06L113.33,400.9c-1,1.12-2.57.22-2.57-1.48V370.9A2.23,2.23,0,0,1,111.32,369.39Z"/><path id="Fill-173" class="cls-7" d="M275.49,135.51a25.62,25.62,0,0,0-3.17.06c-1-.15-2.06-.3-3.14-.35-72.74-3.25-134.59,53.3-137.82,126a131.42,131.42,0,0,0,78,126.5,24.91,24.91,0,0,0,20.34-45.48A82.27,82.27,0,0,1,267,185a23.8,23.8,0,0,0,3.17-.08,29.08,29.08,0,0,0,3.13.37,82.27,82.27,0,0,1,23.09,160,24.9,24.9,0,0,0,7,48.43,24.59,24.59,0,0,0,9.22-1.32,131.4,131.4,0,0,0,89-119c3.25-72.76-53.3-134.57-126-137.82"/><path id="Fill-175" class="cls-7" d="M317,270.71a50.42,50.42,0,1,0-53.52,47.12A50.42,50.42,0,0,0,317,270.71"/><path class="cls-8" d="M229,193.12S183.62,209.07,181.63,271c0,0-.54,40.21,32.85,62.46"/><path class="cls-8" d="M335.58,221.45c9.7,12.43,18.76,32.36,15.17,61.9,0,0-5.27,37.42-40.56,53.5"/><path class="cls-9" d="M389.69,208.67c-37.27-72.61-119.88-72.61-119.88-72.61s-53.72-5.7-98.45,36.3c0,0-24.43,27-26.2,35.09"/><path class="cls-9" d="M239,309.55s-40.7-27.73-13.14-71.56c0,0,27.54-41.88,76.88-5.87"/><path id="Fill-168" class="cls-10" d="M135.88,258.77H132.5a2.12,2.12,0,0,0-1.46.61,2,2,0,0,0-.6,1.46,2.11,2.11,0,0,0,.6,1.46,2.16,2.16,0,0,0,1.46.6h3.38a2.07,2.07,0,0,0,2.07-2.06,2.08,2.08,0,0,0-.61-1.46,2.15,2.15,0,0,0-1.46-.61"/><path id="Fill-170" class="cls-10" d="M122.65,258.77h-3.38a2.06,2.06,0,0,0-1.46,3.53,2.14,2.14,0,0,0,1.46.6h3.38a2.16,2.16,0,0,0,1.46-.6,2.08,2.08,0,0,0,0-2.92,2.17,2.17,0,0,0-1.46-.61"/><path id="Fill-172" class="cls-10" d="M125.43,251.88v3.36a2.15,2.15,0,0,0,.61,1.46,2.06,2.06,0,0,0,3.52-1.46v-3.36a2.16,2.16,0,0,0-.6-1.46,2.07,2.07,0,0,0-1.46-.6,2.09,2.09,0,0,0-1.46.6,2.17,2.17,0,0,0-.61,1.46"/><path id="Fill-174" class="cls-10" d="M125.43,265.67V269a2.15,2.15,0,0,0,.61,1.46,2.06,2.06,0,0,0,3.52-1.46v-3.36a2.07,2.07,0,0,0-2.06-2.07,2.1,2.1,0,0,0-1.46.61,2.15,2.15,0,0,0-.61,1.46"/><path id="Fill-168-2" data-name="Fill-168" class="cls-10" d="M379.21,176.11h-3.38a2.06,2.06,0,0,0-1.46,3.53,2.14,2.14,0,0,0,1.46.6h3.38a2.16,2.16,0,0,0,1.46-.6,2.08,2.08,0,0,0,0-2.92,2.15,2.15,0,0,0-1.46-.61"/><path id="Fill-170-2" data-name="Fill-170" class="cls-10" d="M366,176.11h-3.38a2.07,2.07,0,0,0-2.06,2.07,2.11,2.11,0,0,0,.6,1.46,2.16,2.16,0,0,0,1.46.6H366a2.07,2.07,0,0,0,2.07-2.06,2,2,0,0,0-.61-1.46,2.15,2.15,0,0,0-1.46-.61"/><path id="Fill-172-2" data-name="Fill-172" class="cls-10" d="M368.76,169.22v3.36a2.07,2.07,0,1,0,4.13,0v-3.36a2.14,2.14,0,0,0-.6-1.46,2.09,2.09,0,0,0-2.93,0,2.18,2.18,0,0,0-.6,1.46"/><path id="Fill-174-2" data-name="Fill-174" class="cls-10" d="M368.76,183v3.36a2.07,2.07,0,1,0,4.13,0V183a2.06,2.06,0,0,0-3.53-1.46,2.18,2.18,0,0,0-.6,1.46"/><path id="Fill-168-3" data-name="Fill-168" class="cls-10" d="M446.74,362.39h-3.39a2.07,2.07,0,0,0-2.06,2.06,2.08,2.08,0,0,0,2.06,2.07h3.39a2.07,2.07,0,0,0,0-4.13"/><path id="Fill-170-3" data-name="Fill-170" class="cls-10" d="M433.5,362.39h-3.38a2.14,2.14,0,0,0-1.46.6,2.07,2.07,0,0,0-.6,1.46,2,2,0,0,0,.6,1.46,2.1,2.1,0,0,0,1.46.61h3.38A2.06,2.06,0,0,0,435,363a2.14,2.14,0,0,0-1.46-.6"/><path id="Fill-172-3" data-name="Fill-172" class="cls-10" d="M436.29,355.5v3.36a2.07,2.07,0,0,0,2.06,2.07,2.08,2.08,0,0,0,1.46-.61,2.15,2.15,0,0,0,.61-1.46V355.5a2.06,2.06,0,0,0-3.53-1.46,2.14,2.14,0,0,0-.6,1.46"/><path id="Fill-174-3" data-name="Fill-174" class="cls-10" d="M436.29,369.29v3.36a2.16,2.16,0,0,0,.6,1.46,2.08,2.08,0,0,0,2.92,0,2.15,2.15,0,0,0,.61-1.46v-3.36a2.06,2.06,0,0,0-3.53-1.46,2.14,2.14,0,0,0-.6,1.46"/><path id="Fill-168-4" data-name="Fill-168" class="cls-10" d="M244.16,342.6h-3.38a2.07,2.07,0,0,0-2.07,2.06,2.08,2.08,0,0,0,.61,1.46,2.15,2.15,0,0,0,1.46.61h3.38a2.12,2.12,0,0,0,1.46-.61,2,2,0,0,0,.6-1.46,2.09,2.09,0,0,0-.6-1.46,2.16,2.16,0,0,0-1.46-.6"/><path id="Fill-170-4" data-name="Fill-170" class="cls-10" d="M230.92,342.6h-3.38a2.16,2.16,0,0,0-1.46.6,2.08,2.08,0,0,0,0,2.92,2.17,2.17,0,0,0,1.46.61h3.38a2.06,2.06,0,0,0,1.46-3.53,2.14,2.14,0,0,0-1.46-.6"/><path id="Fill-172-4" data-name="Fill-172" class="cls-10" d="M233.71,335.71v3.36a2.16,2.16,0,0,0,.6,1.46,2.07,2.07,0,0,0,1.46.6,2,2,0,0,0,1.46-.6,2.15,2.15,0,0,0,.61-1.46v-3.36a2.06,2.06,0,0,0-3.53-1.46,2.14,2.14,0,0,0-.6,1.46"/><path id="Fill-174-4" data-name="Fill-174" class="cls-10" d="M233.71,349.49v3.37a2.16,2.16,0,0,0,.6,1.46,2.08,2.08,0,0,0,2.92,0,2.17,2.17,0,0,0,.61-1.46v-3.37a2.07,2.07,0,0,0-2.07-2.06,2.11,2.11,0,0,0-1.46.6,2.17,2.17,0,0,0-.6,1.46"/><path id="Fill-168-5" data-name="Fill-168" class="cls-10" d="M103.28,379.85H99.9a2.07,2.07,0,0,0-2.06,2.07,2.09,2.09,0,0,0,.6,1.46,2.16,2.16,0,0,0,1.46.6h3.38a2.07,2.07,0,0,0,2.07-2.06,2,2,0,0,0-.61-1.46,2.15,2.15,0,0,0-1.46-.61"/><path id="Fill-170-5" data-name="Fill-170" class="cls-10" d="M90.05,379.85H86.67a2.06,2.06,0,0,0-1.46,3.53,2.14,2.14,0,0,0,1.46.6h3.38a2.16,2.16,0,0,0,1.46-.6,2.08,2.08,0,0,0,0-2.92,2.15,2.15,0,0,0-1.46-.61"/><path id="Fill-172-5" data-name="Fill-172" class="cls-10" d="M92.84,373v3.36a2.07,2.07,0,0,0,2.06,2.07,2.06,2.06,0,0,0,1.46-.61,2.14,2.14,0,0,0,.6-1.46V373a2.16,2.16,0,0,0-.6-1.46,2.08,2.08,0,0,0-2.92,0,2.16,2.16,0,0,0-.6,1.46"/><path id="Fill-174-5" data-name="Fill-174" class="cls-10" d="M92.84,386.75v3.36a2.07,2.07,0,0,0,2.06,2.07,2.1,2.1,0,0,0,1.46-.61,2.14,2.14,0,0,0,.6-1.46v-3.36a2.16,2.16,0,0,0-.6-1.46,2.07,2.07,0,0,0-1.46-.6,2.09,2.09,0,0,0-1.46.6,2.16,2.16,0,0,0-.6,1.46"/><g id="Artwork_128" data-name="Artwork 128"><g class="cls-11"><g class="cls-11"><path class="cls-12" d="M101,361.31l-27.78-4s-2.5-3.13-4.9-4.07a43.27,43.27,0,0,0-4.14-1.3,1.2,1.2,0,0,0-1.18.34,9,9,0,0,0-2.16,4.43,25.35,25.35,0,0,0-.4,5.48A50.75,50.75,0,0,0,56,371.8c-1.23,4.24-.81,7.87,1.23,8.81,2.75,1.27,13.89-10.15,13.89-10.15a53.86,53.86,0,0,1,13.49,5.35c2.62,1.39,12.56,5.74,12.56,5.74Z"/><path class="cls-13" d="M155.64,237.41a36.37,36.37,0,0,1,10.93,7.51c6.2,6,10,12.51,9.48,12.46l11.57,20.4.08,12.86-22.18,12.58L157,255Z"/><path class="cls-12" d="M111.45,405.2l-.8,28.26a47.42,47.42,0,0,0-1.55,6.84,27.92,27.92,0,0,0,.12,4.34,1.37,1.37,0,0,0,.87,1.14,14.09,14.09,0,0,0,4,.82,13.71,13.71,0,0,0,4.65-.35s6.1,3.05,10.46,3.75,7.24.81,7.93-1.33c.92-2.89-12.67-16.11-12.67-16.11s2-8.16,2.68-10.73c.81-2.86,4.23-14.49,4.23-14.49Z"/><polygon points="131.42 407.34 130.39 411.08 111.25 412.46 111.41 403.58 131.42 407.34"/><path d="M79.8,330.73s2.88,6.17,6.17,14.39,5.62,13.15,5.62,13.15l-1.59,0c-.23,0-1.4-.09-1.4.5a87.94,87.94,0,0,0,.62,11.66,114.14,114.14,0,0,0,2.12,11.77,1.52,1.52,0,0,0,.65.88c2.13,1.37,10.69,6.71,16.22,7.63v16.11A1.24,1.24,0,0,0,109,408a46.81,46.81,0,0,0,12.45,3,28.58,28.58,0,0,0,11.87-.92,1.78,1.78,0,0,0,1.1-1.09c1.49-4.31,8.81-25.47,12.6-37.31,4.23-13.22,10.4-29.62,11.81-39.85s.18-24.33.18-24.33L82.46,308Z"/><polygon points="156.53 313.89 133.28 323.7 134.21 314.42 156.53 313.89"/><path class="cls-13" d="M83.47,235.7s11-9,43.53-6.08c33.08,3,29.73,9.94,29.73,9.94a177.51,177.51,0,0,1,8.63,26.33c3.32,13.46,2.79,45.56,2.55,53.72s-1.33,17.4-6.42,17.84-5.38-3.05-5.38-6.83V314.05a62.29,62.29,0,0,1-19.9,3.35s-2.36,14.07-4.07,18.3a14.51,14.51,0,0,1-7.71,8.24,4.45,4.45,0,0,1-1.87.35c-3.31-.07-16-.74-25.81-3-8.81-2-18.08-6.82-21.77-8.85a3.81,3.81,0,0,1-1.94-3,42,42,0,0,1,1.21-13.61c1.18-4.91,5-12.82,5.73-16.56,2.61-13.88.3-61.17,3.49-63.61"/><path class="cls-14" d="M148.91,241.12c-.07,2.67-.28,5.33-.61,8a.79.79,0,0,0,1.57,0c.34-2.65.54-5.31.62-8a.79.79,0,0,0-1.58,0"/><path class="cls-14" d="M149.57,250a6.37,6.37,0,0,1,4.53,2.6c1.16,1.74,1.08,4.41,1.06,6.41,0,4.22-.3,8.44-.47,12.65,0,1,1.53,1,1.57,0q.15-3.69.28-7.4a68.6,68.6,0,0,0,.13-7.45c-.14-2.12-.43-4.34-1.95-5.93a8.28,8.28,0,0,0-5.15-2.45c-1-.1-1,1.48,0,1.57"/><path class="cls-15" d="M138.2,237.22l-26.54-8.17-1.59,0c2.31,3,11.38,15.12,16.72,27.67,6.17,14.46,7.59,18,9.36,31,1.27,9.31.56,22.78.06,29.59a62.29,62.29,0,0,0,19.9-3.35s0-26.5-2-37.76c-4.35-23.66-15.87-39.07-15.87-39.07"/><path d="M155.92,213.4s3.62,4.17,4.31,12.63-1,17.16-11.23,14.62c0,0,10.15-6.09,6.92-27.25"/><path class="cls-12" d="M141.19,241.89s-9.94,3.14-18.58-.41c-8-3.26-10.76-7.83-10.76-7.83s12.56-5.94,10-12.21c0,0-3.85,2-6-4.06s1-11.5,4.53-11.91,6.68,3.92,5.13,7.29c0,0,2.94-2,3-7.33l.07-5.36,6.07-2.1,11.52-1.14,9.39,8.34-.31,5.64s3.09,11.34.24,20-9.82,12.2-14.39,11"/><path d="M160,206.18a8.69,8.69,0,0,1-4.1,7.22l-.75-2.13c-.37,1.27-.78.63-3.29.15s-4.73-1-4.73-1a27,27,0,0,0,.68-5.31,14.26,14.26,0,0,0-1.38-7.14c1.24,2.64.3,8-.6,10.17s-2.52,1.06-5.89.61c-2.13-.3-4.72-.57-6.34-.73a1,1,0,0,1-.83-1.48,23.23,23.23,0,0,0,1.65-6.24,8.48,8.48,0,0,1-4.83,6.43c-.43,2.86-3,5.17-3.79,5.82l-.13.1,0,0,0,0,0,0c1.55-3.37-1.64-7.69-5.13-7.29s-6.63,5.86-4.53,11.91c1.94,5.56,5.35,4.33,5.89,4.08a3.54,3.54,0,0,1,.19.31h0c2.22,6.12-.39,9.28-2.55,11.16-6.63,5.77-18.48-1.16-18.51-11.35s3-17.51,10.57-26.4,17.38-12.7,31.27-9.05,17.52,14.8,17.23,20"/><path class="cls-16" d="M116.38,208.71a9.84,9.84,0,0,0-.68,1.62c-1.65.68-.36,2-2.17,2.42-2,.48-1.46-3.06,2.85-4"/><path class="cls-16" d="M132.82,211.93s-2.31-.66-5.53-1.22c-.42-.08-.86-.15-1.32-.22a5.48,5.48,0,0,0-.27-1.25l2.13.34c3,.5,4.61.91,4.61.91Z"/><path class="cls-17" d="M137.46,212c-2.31.19-1.54,2.24-.11,2.43a8.47,8.47,0,0,1,3,.94,1.47,1.47,0,0,0,2.13-.33c.64-1.13-2.07-3.29-5-3"/><path class="cls-17" d="M150.42,215.55c-1.53.39-1.63,2.17.06,2.32a7.57,7.57,0,0,1,3.15.9c.61.32,1.25,0,1.4-.94.21-1.19-2.36-2.85-4.61-2.28"/><path d="M138,242a12.07,12.07,0,0,0,12.63-1.52c6-4.69,7.45-12.9,7.15-20.07a53.39,53.39,0,0,0-1.61-10.74c-.32-1.32-2.36-.76-2,.56,1.47,5.86,2.21,12.22,1,18.2s-5.21,12.63-12,12.6a10.68,10.68,0,0,1-3-.44c-.32-.1-.63-.21-.94-.33l-.16-.08c-1.21-.61-2.28,1.21-1.07,1.82"/><path class="cls-16" d="M157.6,212.55c-4.29,0-8.2,3.07-8.2,3.07-1.18-1.42-3.28-.7-3.28-.7-3.44-3.94-10.22-6.55-12.88-6.79s-1.81,4.68,2.29,8.72,7.94,1.58,7.94,1.58c1.18,1,2.09-1.58,2.09-1.58a3,3,0,0,1,3.59.65,4.33,4.33,0,0,0,.39,1.59,3.37,3.37,0,0,0,5.23,1.48c2.75-1.9,7.13-8,2.83-8m-14.08,4.76c-1.61.89-4.76.56-6.75-1.15s-5-7.12.18-5.59a16.36,16.36,0,0,1,7.78,5s.4.89-1.21,1.79m13.86-1.57c-.54,2.47-4.42,5.94-6.33,3.85a3.12,3.12,0,0,1-1.18-2c-.09-1.19.95-1.84,3.25-2.81s4.81-1.52,4.26,1"/><path d="M144.8,223.65a1.84,1.84,0,0,0,2.61,1.33,1.41,1.41,0,0,0,.66-1,.61.61,0,0,0-.42-.73.59.59,0,0,0-.73.41c0,.08,0,.15-.07.22s0,0,0-.06,0,0,0,.06a.1.1,0,0,1,0,.05l.05-.06,0,0,0,0-.06,0q.12,0,.06,0l-.25.06.15,0h-.34l.16,0-.2,0-.08,0c-.07,0,.12.07,0,0s-.16-.07-.17-.11.11.1,0,0l-.07-.07,0-.06c-.08-.09.07.12,0,0l-.09-.16c0-.09,0,0,0,.05s0-.08,0-.09a1.62,1.62,0,0,1,0-.19.59.59,0,0,0-.28-.36.61.61,0,0,0-.46-.06.63.63,0,0,0-.35.27.68.68,0,0,0-.06.46"/><path d="M146.89,223.84a1.6,1.6,0,0,0,.57,1.15,1.78,1.78,0,0,0,1.29.41,1.81,1.81,0,0,0,1.17-.57,1.85,1.85,0,0,0,.48-1.18.6.6,0,0,0-.59-.6.62.62,0,0,0-.6.6v0c0,.05,0,0,0-.07s0,.06,0,.08a1.09,1.09,0,0,1,0,.17c0,.07.06-.12,0,0l0,.09-.05.07c0,.06.09-.1,0,0a.5.5,0,0,0-.13.12l.06,0,0,0-.08.05s-.07,0-.08,0,.13-.05,0,0l-.09,0h0a1.21,1.21,0,0,0-.19,0s-.14,0,0,0,0,0,0,0l-.11,0h0c-.05,0-.05,0,0,0s.05,0,0,0l0,0-.08,0c-.07-.05.09.08,0,0l-.08-.08c-.07-.07.06.09,0,0a.35.35,0,0,1-.05-.08.73.73,0,0,1,0-.09s0,.12,0,0l0-.1c0-.11,0,.14,0,0a.62.62,0,0,0-.6-.6.61.61,0,0,0-.6.6"/><path d="M150.43,223.62q-.26-3.31-.71-6.6a.6.6,0,1,0-1.15.32c.29,2.08.51,4.18.67,6.28a.6.6,0,0,0,1.19,0"/><path d="M136.52,210a4.06,4.06,0,0,1,3.4-.3,8.48,8.48,0,0,1,2.93,2.17,1.05,1.05,0,0,0,1.49-1.49,10.23,10.23,0,0,0-4-2.75,6.14,6.14,0,0,0-4.9.55,1.05,1.05,0,0,0,1.06,1.82"/><path d="M150,213.09a7.14,7.14,0,0,1,.56-.54c.06-.05.1-.09,0,0l.2-.14.33-.2.17-.09c.14-.08-.13,0,0,0l.38-.13.2,0c.16,0-.13,0,0,0a3.38,3.38,0,0,1,.45,0c.09,0,.13,0,0,0l.2.05.17,0c.1,0,.09,0,0,0l.32.17.15.1c.08.05.09.06,0,0a6.74,6.74,0,0,1,1.09,1.11,1.06,1.06,0,0,0,1.49,0,1.08,1.08,0,0,0,0-1.49,5.07,5.07,0,0,0-3.45-2.1,5,5,0,0,0-3.85,1.8,1.05,1.05,0,0,0,1.49,1.49"/><path d="M138.05,214.87a1.18,1.18,0,0,0,0-2.36,1.18,1.18,0,0,0,0,2.36"/><path d="M151.23,218a1,1,0,0,0,0-1.89.95.95,0,0,0,0,1.89"/><path d="M130.91,224.29a4.12,4.12,0,0,0,4.67-2.35.62.62,0,0,0-.22-.82.59.59,0,0,0-.81.21c-.08.17-.16.33-.25.49s-.09.14-.14.2,0,0,0,0a.39.39,0,0,1-.08.1,2.58,2.58,0,0,1-.77.64,3,3,0,0,1-2.05.33.61.61,0,0,0-.73.42.6.6,0,0,0,.42.73"/><path d="M134.07,222.77a20.92,20.92,0,0,0,10.42,6s-1.29,5.25-6.68,4-5.19-8.86-5.19-8.86Z"/><path class="cls-17" d="M142,228c-.84,2-2.63,1.58-4.59,0a7.79,7.79,0,0,1-2.36-4.22A21.59,21.59,0,0,0,142,228"/><path class="cls-18" d="M138.25,232.92l-.44-.08c-3.68-.83-4.76-4.65-5.06-7a8.23,8.23,0,0,1,3.74,2.52,9.27,9.27,0,0,1,1.76,4.55"/><path d="M141.71,235.08a6.79,6.79,0,0,1-4,.27.6.6,0,0,0-.31,1.16,8,8,0,0,0,4.59-.28.62.62,0,0,0,.42-.74.6.6,0,0,0-.74-.41"/><path d="M122.21,221c.11-.14,0,0,0,0l-.11.11-.06.05,0,0-.09.06a1.35,1.35,0,0,1-.26.15l-.07,0c.08,0,.09,0,0,0l-.12,0-.31.08-.18,0c-.12,0,.12,0,0,0a5.08,5.08,0,0,1-.68,0,.61.61,0,0,0-.6.6.6.6,0,0,0,.6.59,4.37,4.37,0,0,0,1.6-.22,2.71,2.71,0,0,0,1.32-1,.66.66,0,0,0,.06-.46.63.63,0,0,0-.28-.36.61.61,0,0,0-.46-.05.69.69,0,0,0-.36.27"/><path d="M120,210a1.92,1.92,0,0,1,1.88,1.39,4.08,4.08,0,0,1,.11,2.11,3.66,3.66,0,0,1-.6,1.66,3,3,0,0,1-1.78,1.06.6.6,0,0,0,.32,1.15,4.27,4.27,0,0,0,2.45-1.54,4.85,4.85,0,0,0,.8-2.34,4.76,4.76,0,0,0-.38-3,3,3,0,0,0-2.8-1.74c-.77,0-.77,1.23,0,1.2"/><path d="M134.16,223.59a16.08,16.08,0,0,0,5.05,3.91,19.13,19.13,0,0,0,6.1,2.06c.75.11,1.07-1,.32-1.15A17.37,17.37,0,0,1,135,222.75c-.49-.6-1.33.25-.84.84"/><path class="cls-12" d="M135.75,302.21c-3.09-1.5-5.49-2.85-5.49-2.85s1.23,1.66-.07,2.89-4.55.43-4.55.43.75,1.1-.33,2.86-4.71.61-4.71.61a3.36,3.36,0,0,1-3.62,1.63c-2.66-.39-10.13-4.77-10.23-8.46l-16.69-3.45c5.15-4.45,7.06-11.6,12.33-16.45l10,5a12.61,12.61,0,0,1,9.4.59s3.46,1,6.37-3.11c2.44-3.43,5.54.58,3.91,4a7.66,7.66,0,0,1-4.85,4.11s8.2,6.46,10.93,8.23.69,5.5-2.39,4"/><path d="M124.26,296c1.79,1.18,3.61,2.32,5.46,3.4a.61.61,0,0,0,.62-1.06c-1.85-1.08-3.68-2.22-5.47-3.4-.66-.43-1.27.63-.61,1.06"/><path d="M121.12,300.73a42.9,42.9,0,0,1,3.93,2.3.63.63,0,0,0,.84-.22.64.64,0,0,0-.22-.84,42.8,42.8,0,0,0-3.93-2.29.61.61,0,1,0-.62,1.05"/><path d="M118.22,305.51l1.93,1.05a.64.64,0,0,0,.84-.22.62.62,0,0,0-.22-.84l-1.93-1.05a.62.62,0,0,0-.84.22.63.63,0,0,0,.22.84"/><path d="M124.64,432c.32-1.31,1.13-4.66,1.8-7.32-5.67,1.78-11.82.45-15.52-.74l-.27,9.51a47.42,47.42,0,0,0-1.55,6.84,28.42,28.42,0,0,0,.14,4.55,1,1,0,0,0,.64.84,15.85,15.85,0,0,0,8.91.56s6.1,3.05,10.46,3.75,7.24.81,7.93-1.33c.82-2.59-10-13.48-12.26-15.71a1,1,0,0,1-.28-.95"/><path d="M81.76,358.53,73.28,357a16.81,16.81,0,0,0-4.94-3.74,43.27,43.27,0,0,0-4.14-1.3,1.21,1.21,0,0,0-1.19.36,9,9,0,0,0-2.15,4.41,25.35,25.35,0,0,0-.4,5.48A50.75,50.75,0,0,0,56,371.8c-1.23,4.24-.81,7.87,1.23,8.81,2.37,1.09,11-7.26,13.36-9.58a1.54,1.54,0,0,1,1.36-.28c1.45.18,4,1.28,8,2.78-.63-5,.7-11,1.78-15"/><path class="cls-14" d="M101.77,233.35c-.88,5-1.34,10.1,2.51,14a26,26,0,0,0,6.29,4.2c2.66,1.45,5.34,2.87,8,4.33.89.49,1.68-.87.79-1.36-2.37-1.3-4.76-2.58-7.14-3.87a32.75,32.75,0,0,1-6.12-3.76,9.34,9.34,0,0,1-3.33-5.94,24.16,24.16,0,0,1,.52-7.14c.18-1-1.34-1.41-1.51-.42"/><path class="cls-14" d="M118.25,254.8a19.34,19.34,0,0,0-.18,6.74,10.29,10.29,0,0,0,3.61,5.53,97.57,97.57,0,0,1,10.68,11.12c.63.79,1.74-.33,1.11-1.11a87.33,87.33,0,0,0-9.62-10.18c-1.6-1.44-3.38-2.83-4.06-5s-.35-4.53,0-6.73c.14-1-1.37-1.41-1.51-.41"/><path class="cls-17" d="M91.38,359.08a89.69,89.69,0,0,0,7,13.78c.53.86,1.89.07,1.35-.79a90,90,0,0,1-6.85-13.4c-.37-.93-1.89-.53-1.51.41"/><path d="M113.87,443.85a17.81,17.81,0,0,0,4.84,2.55.6.6,0,0,0,.32-1.15,17.1,17.1,0,0,1-4.56-2.43.61.61,0,0,0-.82.22.61.61,0,0,0,.22.81"/><path d="M63.07,356.9a23.14,23.14,0,0,0-1.49,2.17c-.44.76-.83,1.55-1.21,2.34a.6.6,0,0,0,1,.6c.39-.79.77-1.58,1.21-2.34a23.14,23.14,0,0,1,1.49-2.17.6.6,0,0,0-.21-.82.61.61,0,0,0-.82.22"/><path class="cls-13" d="M81.38,236.64c-.61.4-17.6,10.5-16.9,30.42.67,19,10.43,24.32,21.06,27.55a108.39,108.39,0,0,0,16.17,3.93l6.7-17.78S92.47,273.6,92.24,269.9,96.12,256,92,245.35c-3.81-9.87-6.44-10.95-6.44-10.95s-3,1.47-4.21,2.24"/><path d="M158.4,250.46a33.21,33.21,0,0,1,4.4,10,84.25,84.25,0,0,1,2.61,12.07,210.53,210.53,0,0,1,1.64,25,.6.6,0,0,0,1.19,0c-.34-13.06-.77-26.25-4.74-38.81a30.81,30.81,0,0,0-4.07-8.85c-.44-.62-1.48,0-1,.6"/><path d="M80.53,294.1A157.36,157.36,0,0,0,106.35,300c.75.11,1.08-1,.32-1.15A157.36,157.36,0,0,1,80.85,293c-.73-.24-1,.91-.32,1.15"/><path d="M112.29,283.46c-2.71-1.57-5.36-3.27-8-5a90.56,90.56,0,0,1-8.76-6.2,5.13,5.13,0,0,1-2.07-2.85c-.74-2.8.06-5.8.23-8.63a48.39,48.39,0,0,0-.61-13.27c-1-4.43-3.22-8.88-6.92-11.64-.61-.46-1.21.58-.6,1,7.37,5.49,7.54,16.37,6.88,24.59-.21,2.72-.85,5.53-.13,8.24a5.48,5.48,0,0,0,1.9,3,71.3,71.3,0,0,0,8.25,6c3,2,6.09,4,9.23,5.79a.6.6,0,0,0,.6-1"/><path d="M129.83,410.66q-3.72,10.48-6.53,21.27a.6.6,0,0,0,1.15.32Q127.27,421.47,131,411c.25-.72-.9-1-1.16-.31"/><path d="M130.1,351c.14-.41,9.06-9.06,9.06-9.06l-9.3,2.29Z"/><path class="cls-17" d="M130.1,344.88c1.57-.53,3.14-1.05,4.75-1.45a37.71,37.71,0,0,1,4.83-.8.81.81,0,0,0,.79-.78.8.8,0,0,0-.79-.79,40.26,40.26,0,0,0-5.11.82c-1.66.4-3.28.94-4.89,1.49-1,.32-.55,1.84.42,1.51"/><path class="cls-17" d="M128.77,344.27q.76,12.89.67,25.81c-.05,7,.69,17.52-7.68,20.12a24.17,24.17,0,0,1-13.51-.25.79.79,0,0,0-.41,1.52,27.42,27.42,0,0,0,12.41.7,11.55,11.55,0,0,0,8.66-6.19c1.85-3.65,2-7.8,2.05-11.8q.12-7.08,0-14.15-.15-7.87-.62-15.76c-.06-1-1.63-1-1.57,0"/><path d="M168.05,299.13l-12.11-10.87s-3.07,21.47,12,29.23c.09-4.08.18-10.86.08-18.36"/><path class="cls-12" d="M187.54,226.76s-5.59-3.23-3.9-9.38,8-2.4,8.69-.73,1.15,10.11-1.33,11.25a2.43,2.43,0,0,1-3.46-1.14"/><path class="cls-19" d="M207.3,220.85c.22-5.84,5.42-15.63,6.94-17.48s2.85-2.59,2.78-4.79c-.14-4.65-9.33-4-13-3a18.15,18.15,0,0,0-6.35,3.43s-5.57-4-11.2-3.4-9.27,4.37-8.55,5.9a32.7,32.7,0,0,0,4.41,5.46c2.83,3,6.31,10.09,6.5,12.26,2.61,29.11,17.69,22.07,18.45,1.59"/><path d="M199,199.86s4.7-3.73,10.41-3.66c3.19,0,4.54.76,4.38,2.17s-4,3.82-9.08,3.39-5.71-1.9-5.71-1.9"/><path d="M213,197.64c.39,1.49-1.46,2.75-2.66,3.14a13.31,13.31,0,0,1-4.06.6,15.21,15.21,0,0,1-4.45-.54,17.41,17.41,0,0,1-4.46-2.38c-.36-.24-.69.34-.33.58a16.78,16.78,0,0,0,5.08,2.57,16.49,16.49,0,0,0,5.38.38,9.48,9.48,0,0,0,4.18-1.09c1.14-.7,2.35-2,2-3.44a.34.34,0,0,0-.65.18"/><path class="cls-20" d="M210.92,182.07h-3.51v-3.5a.63.63,0,0,0-.63-.63H203.2a.63.63,0,0,0-.62.63v3.5h-3.51a.63.63,0,0,0-.63.63v3.58a.63.63,0,0,0,.63.63h3.51v3.51a.63.63,0,0,0,.62.63h3.58a.63.63,0,0,0,.63-.63v-3.51h3.51a.63.63,0,0,0,.63-.63V182.7a.63.63,0,0,0-.63-.63"/><path class="cls-15" d="M224.16,169.62h-2.41v-2.41a.44.44,0,0,0-.43-.44h-2.46a.44.44,0,0,0-.44.44v2.41H216a.43.43,0,0,0-.43.43v2.47a.43.43,0,0,0,.43.43h2.41v2.41a.44.44,0,0,0,.44.44h2.46a.44.44,0,0,0,.43-.44V173h2.41a.44.44,0,0,0,.44-.43v-2.47a.44.44,0,0,0-.44-.43"/><path class="cls-20" d="M213.77,157.85H212v-1.73a.31.31,0,0,0-.31-.31H210a.31.31,0,0,0-.31.31v1.73h-1.73a.31.31,0,0,0-.31.31v1.77a.31.31,0,0,0,.31.31h1.73V162a.31.31,0,0,0,.31.31h1.77A.31.31,0,0,0,212,162v-1.74h1.74a.31.31,0,0,0,.31-.31v-1.77a.31.31,0,0,0-.31-.31"/><path class="cls-19" d="M189.5,222.56c-2.15,4.59-1.71,9.47-9.86,18-8,8.34-28.44,27.86-26,46.63s9.86,33.37,47,35.07,45.41-28.15,43.23-42.65c-3.79-25.22-30.23-38.89-34.13-49.86-4.17-11.75-9.47-30.33-20.28-7.2"/><path d="M212.55,258.48a15.42,15.42,0,0,0-9.1-5.47,18.88,18.88,0,0,0-11.87,2.19,11,11,0,0,0-2.7,17.22c5.05,5.84,13.11,6.43,19.35,10.34,2.2,1.37,4.6,3.56,4.22,6.42-.42,3.11-3.35,5.31-6.21,6.05a20.51,20.51,0,0,1-10.35-.1,25.16,25.16,0,0,1-4.71-1.81,10.44,10.44,0,0,1-3.35-2.3,1.72,1.72,0,0,0-2.27-.6,1.68,1.68,0,0,0-.6,2.27c1.81,2.35,4.64,3.67,7.34,4.73a24,24,0,0,0,8.91,1.68c3.48,0,7.16-.51,10-2.59s4.87-5.18,4.49-8.7c-.78-7.28-9.54-9.8-15.22-12-5.46-2.12-13.79-6.65-10.76-13.86,1.58-3.76,5.84-5.4,9.65-5.77a11.67,11.67,0,0,1,6.41,1,15.11,15.11,0,0,1,4.37,3.63c1.41,1.6,3.75-.75,2.35-2.35"/><path d="M199,250.36a147.28,147.28,0,0,1,1,41c-.45,3.87-1.07,7.73-1.83,11.55-.42,2.09,2.77,3,3.19.88a150.1,150.1,0,0,0,2.38-42.25c-.35-4-.87-8.08-1.54-12.09a1.66,1.66,0,0,0-3.2.88"/><path d="M166.56,298.59a3.21,3.21,0,0,0,5.3,3,.61.61,0,0,0,0-.84.6.6,0,0,0-.84,0l-.08.06-.16.1-.16.09-.09,0-.33.11-.24,0a2,2,0,0,1-1.25-.24,2,2,0,0,1-.81-.9s-.06-.13,0,0l-.06-.18a1.9,1.9,0,0,1-.09-.36c0-.17,0,.1,0-.08a1.09,1.09,0,0,1,0-.18V299s0-.22,0-.12a.61.61,0,0,0-.42-.73.6.6,0,0,0-.73.42"/><path d="M169.11,304.15a4,4,0,0,0,6.68.9l-1-.26a5.43,5.43,0,0,0,2.11,3.1,2.5,2.5,0,0,0,3.08-.35c.51-.57-.33-1.42-.84-.84a1.39,1.39,0,0,1-1.86,0,5,5,0,0,1-1.34-2.26c-.14-.38-.68-.64-1-.26a2.83,2.83,0,0,1-4.81-.67c-.32-.69-1.34-.09-1,.61"/><path d="M225.45,269l.15,0c-.08,0,0,0,0,0a1.57,1.57,0,0,1,.25.14.57.57,0,0,1,.13.08l.07.05.06.05.12.11.18.19.11.12c-.06-.06,0,0,0,0a2.62,2.62,0,0,1,.3.51.67.67,0,0,1,.06.12c0-.12,0,0,0,.05s.05.17.08.25l.06.29c0,.05,0,.11,0,0s0,.11,0,.16a2.82,2.82,0,0,1,0,.58c0-.09,0,0,0,0l0,.13a2.8,2.8,0,0,1-.09.31.6.6,0,0,0,.42.73.6.6,0,0,0,.73-.41,3.86,3.86,0,0,0-2.35-4.76.6.6,0,1,0-.32,1.16"/><path d="M228.45,299a2.78,2.78,0,0,1,.07,2.84,2.83,2.83,0,0,1-2.34,1.39.6.6,0,0,0,0,1.19,3.94,3.94,0,0,0,3.3-6,.6.6,0,0,0-1,.6"/><path d="M228.43,298.62c1.41.69,2.91-.51,3.65-1.65a4.89,4.89,0,0,0,.65-3.78.6.6,0,0,0-1.15.32,3.7,3.7,0,0,1-1.28,3.68,2.54,2.54,0,0,1-.64.37.82.82,0,0,1-.63,0,.6.6,0,0,0-.6,1"/><path class="cls-21" d="M188.9,228.1a26,26,0,0,0,20.07-.57c1.54-.66,1.79-4.35.9-5.71a3.23,3.23,0,0,0-4.38-1.06c-.33.16-.35.18-.05,0l-.54.23c-.28.12-.55.23-.83.33q-1,.34-2,.6c-.38.1-.76.17-1.15.26-.75.15.37,0-.32.05s-1.47.15-2.21.17a20.44,20.44,0,0,1-2.07-.06l-.44,0c.36,0,.35,0,0,0l-1-.17a19.67,19.67,0,0,1-2-.5l-1-.32-.55-.21c.3.12.29.11-.06,0a2.55,2.55,0,0,0-3.7,1.31c-.7,1.45-.89,4.71.74,5.43Z"/><path class="cls-12" d="M210.15,219.27s1.42-2.56.17-4.46-5.73-.59-7.48.31-4.87,2.76-4.05,5.2c.55,1.66,2.7,1.4,2.7,1.4a3.61,3.61,0,0,0-2.38,1.69c-1,2.12.74,3.23,2.18,3.36a6.5,6.5,0,0,0,3-.5s-2.2,1.29-1.9,2.8c.32,1.68,3.28,2.37,4.72,1.43,0,0-2.23.75-1,3.18.92,1.79,6.56.69,7-1.37a2.43,2.43,0,0,0-1.45-2.8,3,3,0,0,0,1-3c-.53-1.87-1.58-1.87-1.58-1.87a3.27,3.27,0,0,0,1.25-3.37c-.46-2.24-2.23-1.95-2.23-1.95"/><path class="cls-12" d="M186.78,214.14c1.38-.35,4.57.51,5.28,2.73s-.62,3.63-2.75,3.55-3.86-.28-4.34-2.57a3.16,3.16,0,0,1,1.81-3.71"/><path d="M186.13,220.1a6.08,6.08,0,0,0,3,.81,4,4,0,0,0,3.35-1.09,3.42,3.42,0,0,0,.46-3.47,4.67,4.67,0,0,0-2.68-2.53,9.73,9.73,0,0,0-3.81-.75c-.78,0-.79,1.25,0,1.23a8.41,8.41,0,0,1,2.77.44,4,4,0,0,1,2.25,1.46,2.46,2.46,0,0,1,.25,2.59,2.51,2.51,0,0,1-2.32.91,6.49,6.49,0,0,1-1.58-.23,3,3,0,0,1-1.06-.43c-.65-.44-1.26.62-.61,1.06"/><path d="M200.2,222.57a13.6,13.6,0,0,1,9-2.76c.79,0,.78-1.19,0-1.23a14.75,14.75,0,0,0-9.61,2.93c-.62.47,0,1.53.62,1.06"/><path d="M203.29,227.23a13.19,13.19,0,0,1,6.5-2.06c.79,0,.79-1.26,0-1.23a14.62,14.62,0,0,0-7.12,2.23c-.67.42,0,1.48.62,1.06"/><path d="M206.16,231.77a17.13,17.13,0,0,1,4.41-1.55.62.62,0,0,0,.43-.75.64.64,0,0,0-.76-.43,18.23,18.23,0,0,0-4.69,1.67.61.61,0,0,0,.61,1.06"/></g></g></g><path id="Fill-79" class="cls-22" d="M233,361.23V441c0,4.57-12.27,8.27-27.41,8.27s-27.4-3.7-27.4-8.27V361.23Z"/><path id="Fill-81" class="cls-23" d="M231.78,434.65c-15.85,6-36.63,5.55-52.36-.39-2.12-.8-1.2-4.24,1-3.43,15.1,5.7,35.23,6.15,50.46.39,2.15-.81,3.07,2.63.95,3.43"/><path id="Fill-83" class="cls-23" d="M231.78,422c-15.85,6-36.63,5.55-52.36-.38-2.12-.81-1.2-4.25,1-3.44,15.1,5.7,35.23,6.15,50.46.39,2.15-.81,3.07,2.63.95,3.43"/><path id="Fill-85" class="cls-23" d="M231.78,409.16c-15.85,6-36.63,5.54-52.36-.39-2.12-.8-1.2-4.25,1-3.43,15.1,5.69,35.23,6.14,50.46.38,2.15-.81,3.07,2.64.95,3.44"/><path id="Fill-87" class="cls-23" d="M231.78,396.55c-15.85,6-36.63,5.54-52.36-.39-2.12-.8-1.2-4.24,1-3.43,15.1,5.69,35.23,6.15,50.46.39,2.15-.82,3.07,2.63.95,3.43"/><path id="Fill-89" class="cls-23" d="M231.78,383.66c-15.85,6-36.63,5.55-52.36-.38-2.12-.81-1.2-4.25,1-3.44,15.1,5.7,35.23,6.15,50.46.39,2.15-.81,3.07,2.63.95,3.43"/><path id="Fill-91" class="cls-23" d="M231.78,371.05c-15.85,6-36.63,5.55-52.36-.39-2.12-.8-1.2-4.24,1-3.43,15.1,5.7,35.23,6.15,50.46.39,2.15-.81,3.07,2.63.95,3.43"/><path id="Fill-93" class="cls-22" d="M178.2,361.23c0,4.57,12.27,8.27,27.4,8.27S233,365.8,233,361.23,220.74,353,205.6,353s-27.4,3.7-27.4,8.27"/><path id="Fill-95" class="cls-22" d="M193.33,422v26.54c0,4.57-12.27,8.28-27.4,8.28s-27.41-3.71-27.41-8.28V422Z"/><path id="Fill-97" class="cls-22" d="M138.52,422c0,4.57,12.27,8.27,27.41,8.27s27.4-3.7,27.4-8.27-12.27-8.28-27.4-8.28-27.41,3.71-27.41,8.28"/><path id="Fill-99" class="cls-23" d="M192.14,441c-15.84,6-36.62,5.54-52.35-.39-2.12-.8-1.2-4.25,1-3.43,15.1,5.69,35.23,6.15,50.46.39,2.14-.82,3.07,2.63.94,3.43"/><path id="Fill-101" class="cls-23" d="M192.14,428.35c-15.84,6-36.62,5.54-52.35-.39-2.12-.8-1.2-4.24,1-3.43,15.1,5.69,35.23,6.15,50.46.39,2.14-.82,3.07,2.63.94,3.43"/><path id="Fill-103" class="cls-24" d="M193.39,447.29V423.16c0-2.85,4.43-2.86,4.43,0v24.13c0,2.85-4.43,2.85-4.43,0"/><g id="Artwork_117" data-name="Artwork 117"><path class="cls-25" d="M396.68,314.06s-42.26-6.19-49.23-7.69a111.94,111.94,0,0,1-15.72-5.24,1.55,1.55,0,0,0-2.08,1.07l-6.38,25.5a1.57,1.57,0,0,0,.89,1.8l22,9.5a102.46,102.46,0,0,0-3.5,15.94c-.85,5.86-4.12,33.81-4.12,33.81l70.71-6.85s6.49-60.87-12.54-67.84"/><path d="M403.73,372.27l6.56-12.21c0,3.37-.1,6.56-.22,9.4Z"/><path d="M433.4,380.85s-5.39-2.16-14.56-.72S371,390.37,371,390.37s-30.19-8.27-41.15-10.78-16-7.37-25.88-4.31,4.13,24.44,4.13,24.44l58.05,18.87,50.49-12.94Z"/><path class="cls-26" d="M395.62,421.87s11.76,4.79,14.15,10.72c4.81,11.9-18.52,23.33-25.27,15.16-4-4.86-8.89-20.62-8.89-20.62Z"/><path class="cls-27" d="M391,444.68c4.21-.45,11.52-4.9,14-8.93,1.6-2.66,1.2-6,.68-8.09a13.3,13.3,0,0,1,4.11,4.93c4.81,11.9-18.52,23.33-25.27,15.16a22.41,22.41,0,0,1-2.35-3.8,22.18,22.18,0,0,0,8.88.73"/><path d="M400.55,424.29l-21.4,12.88c-1.23-3.13-2.27-6.14-2.89-8l22.44-5.83c.57.29,1.2.62,1.85,1"/><path class="cls-25" d="M396.73,317.19S384.28,324,376.16,343c-.89,2.08-7.21,1.27-13.27,0-4-.82-7.77-1.29-8.28-3.23-.57-2.17,6.07-16.82,18.45-26l-8.58-.64s-10.33,9.25-18.35,25.83c-5.66,11.71-9.32,52.47-9.32,52.47l31.78,20.42,27.55-13.44s1.12-8.92,4.65-12.32,10-4.48,10-4.48l.2-5.39a1.22,1.22,0,0,0-1.38-1.25c-3,.39-11,1.31-14.76-1.14-5.72-3.75-1.93-32.62,2.28-42.87,1.3-3.17,8.22-12.47,8.22-12.47Z"/><path class="cls-28" d="M320.4,349.93a2.39,2.39,0,0,1-.12-3.1c2.09-2.35,8.43-.14,10.51,8.19a18.58,18.58,0,0,1,5-.44,6.56,6.56,0,0,1,4.71,2.25,11.53,11.53,0,0,1-2,2.63c-.22.05-6.58-1.15-6.58-1.15L319.53,351Z"/><path class="cls-29" d="M342.31,368.92s24.38,20.16,36.76,18.74c9.72-1.12,21.42-19.53,21.42-19.53l-19.32-9.65s-3.08,8.83-5.75,9-25.66-8-25.66-8-.69-2.75-2.65-3.77-3.16-4.88-3-7.16c.16-2.52-.41-4.56-3.17-3.74-2.35.69-3.1,3.66-2.53,5.94.4,1.57,1.79,5.12,0,5.61s-5.86,0-8.94-2.77c-4.15-3.74-7.89-6.18-11.39-5.69s-4.15,3.5-3.34,4.8,3.18,1.79,5.78,2.52c3.84,1.08,5.53,3,8.3,5.29,1.74,1.43,2.84,3.06,7.15,5.61a58.76,58.76,0,0,0,6.35,2.76"/><path class="cls-25" d="M404.53,318.64s9.83,5.4,11.76,15.24c2,10,0,15-2.31,20.44l-9.29,17.3a1.26,1.26,0,0,1-1.61.56l-23.61-10.31a1.21,1.21,0,0,1-.67-1.48c1.52-4.57,7.78-22.88,11.41-28.91,6.06-10.06,14.32-12.84,14.32-12.84"/><path class="cls-30" d="M378.81,360.39c.41-1.24,1.15-3.47,2.09-6.19,6.41,2.66,21.4,8.89,27.13,11.2l-3.34,6.22a1.26,1.26,0,0,1-1.61.56l-23.61-10.31a1.2,1.2,0,0,1-.66-1.48"/><path d="M379.11,315.23a50.64,50.64,0,0,1-12.39-1.32c-3.34-.8-6.67-2.17-9-4.79-1.17-1.31.76-3.25,1.93-1.93,2.11,2.37,5.09,3.46,8.11,4.15a48.13,48.13,0,0,0,11.35,1.15,1.37,1.37,0,0,1,0,2.74"/><path d="M331,386.16c-9.16-5.11-18.77-14-28.14-10.44-9,3.41-10,12.15-9.59,16.41s1.49,9.39,11.72,14.72S347.6,427.1,347.6,427.1l7.68,4.69L373,410.47s-4.91-2.13-13-6.61-29-17.7-29-17.7"/><path class="cls-26" d="M367.72,430.77S357,436.43,354,438.25s-11.53,8.08-19.61,8.49-11.12-6.47-12.33-10.31-.7-11.35,6.87-13.55,31.94-6.47,31.94-6.47Z"/><path class="cls-29" d="M365.51,430.35s-6.29,2.74-7.49,3c-.84.19-3.21.51-4.52.68a.27.27,0,0,1-.21-.48l2.45-2.08a2.22,2.22,0,0,0,.64-2.49l-2-5.16a2.21,2.21,0,0,0-1.9-1.42l-3.32-.25a.27.27,0,0,1-.1-.51l3.24-1.7a8.83,8.83,0,0,1,2.74-.9l6.16-.94Z"/><path d="M357,415.48s63.28-35.55,74.81-35.16,16,10.74,13.87,17.58-7,11.33-16.41,15.63-60.52,21.28-60.52,21.28-4.33-2.14-9.22-10c-2.4-3.85-2.53-9.37-2.53-9.37"/><path class="cls-27" d="M328.91,422.88l.69-.19a7.81,7.81,0,0,0-2,2.94c-1,3.26-1.86,9.66,3.7,14.93a15.13,15.13,0,0,0,11.52,4,25.42,25.42,0,0,1-8.5,2.19c-8.09.4-11.12-6.47-12.33-10.31s-.7-11.35,6.87-13.55"/><path class="cls-29" d="M334.44,304.23l-3.75-1.67L301.5,282.17a11,11,0,0,0,.43-6.94c-1.07-3.37-1.86-4.19-1.5-5.15,1.38-3.75,4.05-4.24,4.05-6.32a3.11,3.11,0,0,0-4.05-3.06c-4.94,1.09-5.14,7.41-5.14,7.41s-5.24-5.34-9.68-4.45c-3.3.66-5.63,3.76-4.15,7.9A2.62,2.62,0,0,0,278.4,273c-.89,2,.2,4.84.2,4.84a2.37,2.37,0,0,0-2.18,1.48,4.28,4.28,0,0,0,.79,4.15,1.87,1.87,0,0,0-1.48,1.88c-.1,1.68,2.35,6.94,4.84,6,2.67-1,1.09-3.75,1.09-3.75a10,10,0,0,0,3.46-.3,5.4,5.4,0,0,0,4.09,2.24c3.59.29,4.07-.33,4.07-.33s19,21.29,22.05,23.76,15.94,10,15.94,10Z"/><path d="M288.37,270.92a4,4,0,0,1,4.31-.33,3.49,3.49,0,0,1,1.4,4.37A6.22,6.22,0,0,1,290,278.4a6,6,0,0,1-5.13-1.32,12.55,12.55,0,0,1-3.83-5c-.37-.86.89-1.61,1.27-.74,1.22,2.79,4.5,7,8,5.33,1.37-.66,2.88-2,2.48-3.69a1.83,1.83,0,0,0-1.61-1.39,2.31,2.31,0,0,0-1.8.34c-.7.63-1.75-.41-1-1"/><path d="M287.27,268.28a10.6,10.6,0,0,1,2,2.58.76.76,0,0,1-.27,1,.74.74,0,0,1-1-.26c-.12-.23-.25-.44-.39-.66a5.35,5.35,0,0,0-.44-.62l0,.05-.05-.07-.12-.15-.25-.28c-.18-.2-.36-.38-.55-.56a.74.74,0,1,1,1-1"/><path d="M291.46,277.84c0,3.08-3.57,4.78-6.23,4.7a8.56,8.56,0,0,1-6.94-4.47.74.74,0,0,1,1.27-.74,7.19,7.19,0,0,0,5.31,3.72,5.64,5.64,0,0,0,3.13-.59,3.22,3.22,0,0,0,2-2.62.74.74,0,0,1,1.47,0"/><path d="M287.6,282.17a3.94,3.94,0,0,1-.37,4,4.71,4.71,0,0,1-3.34,1.77c-2.95.31-5.55-2-7.14-4.22-.55-.78.72-1.51,1.27-.75,1.21,1.7,3.13,3.48,5.34,3.52,1.85,0,3.85-1.56,3-3.56a.76.76,0,0,1,.27-1,.75.75,0,0,1,1,.26"/><path d="M292,277.73a5.6,5.6,0,0,0,1.39,5.8c.69.66-.35,1.7-1,1.05a7.1,7.1,0,0,1-1.77-7.24.74.74,0,0,1,1.42.39"/><path d="M369.92,409.19Q366,411,362.16,413c-1.19.63-2.43,1.23-3.56,2a1.72,1.72,0,0,0-.87,1.12,6.52,6.52,0,0,0,.08,2c.14.93-1.28,1.33-1.42.39-.18-1.28-.42-2.77.45-3.87s2.36-1.66,3.54-2.29q4.32-2.32,8.79-4.37c.86-.39,1.61.88.75,1.27"/><path class="cls-30" d="M323.27,327.7l6.38-25.5a1.55,1.55,0,0,1,2.08-1.07c1.41.57,3.58,1.43,6,2.31l-6.7,29-6.9-3a1.57,1.57,0,0,1-.89-1.8"/></g><path class="cls-31" d="M388,308.71c1.38,4,1.71,8.51-.77,11.79-2.2,2.91-6.63,2.63-10.7,2.08s-7.63-1.24-9.89-4.4a14.3,14.3,0,0,1-2.45-10.56l23.77.18c0,.45,0,.89-.06,1.35C387.87,309.17,387.86,309.2,388,308.71Z"/><path d="M363.62,307.84a3.42,3.42,0,0,1,1.69,6.18,4.1,4.1,0,0,1-2.07,6.85,3.09,3.09,0,0,1-.19,5.6,2.28,2.28,0,1,1-2.19-.39,3.52,3.52,0,0,1-.64-6,3.47,3.47,0,0,1,.76-6.43,3.43,3.43,0,0,1-1.19-5C361,307.1,363.7,307.09,363.62,307.84Z"/><path d="M362.28,330.55a6,6,0,0,1,1.4,6,5.82,5.82,0,0,1-4.78,3.89,3.19,3.19,0,0,1-1.25.27,1.06,1.06,0,0,1-1-.71c-.14-.54.31-1,.63-1.49,1.32-1.92.48-4.54.83-6.85a3.88,3.88,0,0,1,.87-2,2.09,2.09,0,0,1,2-.67A1.91,1.91,0,0,1,362.28,330.55Z"/><path class="cls-31" d="M384.41,310.59a19.42,19.42,0,0,1-10.19,4.59,15,15,0,0,1-10.72-2.78,17.89,17.89,0,0,1-5.8-8.7c-1.12-3.35-2.68-7.93-3.11-11.44a86.19,86.19,0,0,1-.83-14.55c0-1.67-.38-3.47.51-4.89,1.13-1.78,3.48-2.25,5.57-2.5q6.18-.75,12.4-.92c4.79-.14,9.87.07,13.88,2.68a16.31,16.31,0,0,1,6.63,10.19,30.92,30.92,0,0,1-.13,12.38C391.54,300.61,389.1,306.61,384.41,310.59Z"/><path d="M394.16,314.47a2.9,2.9,0,0,1,.06,4,3.5,3.5,0,0,0-.68.71c-.37.64,0,1.42.09,2.14a3.93,3.93,0,0,1-3.54,4.44,4.16,4.16,0,0,1,1.15,3,2.66,2.66,0,0,1-2.43,2.14c1,.21,1.2,1.8.44,2.52a3.32,3.32,0,0,1-3,.54,4.15,4.15,0,0,1-2.09-1,2,2,0,0,1-.5-2.14,1.33,1.33,0,0,1,1.95-.54,2.81,2.81,0,0,1,1.22-5.4,2.88,2.88,0,0,1,1.51-5.49,4,4,0,0,1,.56-5.58C390.61,312.58,393,313.38,394.16,314.47Z"/><path d="M387.05,333a2.68,2.68,0,0,1,1.95,1.23,4.73,4.73,0,0,1,.67,2.27,7.94,7.94,0,0,1-10.48,8.08,1.38,1.38,0,0,1-.86-.6,1.1,1.1,0,0,1,.34-1.22,7.93,7.93,0,0,1,1.12-.77,5.24,5.24,0,0,0,1.85-2.89c.35-1.11.51-2.28.89-3.38a4.77,4.77,0,0,1,2.06-2.74,2.5,2.5,0,0,1,3.16.52C387.86,333.5,387.64,333.67,387.05,333Z"/><path d="M358,282.52a1.15,1.15,0,0,1-.56-.28,1.07,1.07,0,0,1,0-1.5A5,5,0,0,1,364,280a1.06,1.06,0,0,1-1.27,1.69,2.93,2.93,0,0,0-3.85.47A1.06,1.06,0,0,1,358,282.52Z"/><path d="M371.66,282.05a1.13,1.13,0,0,1-.62-.34,1.06,1.06,0,0,1,.09-1.5,5,5,0,0,1,6.94.57,1.06,1.06,0,1,1-1.64,1.34,2.86,2.86,0,0,0-3.9-.32A1.05,1.05,0,0,1,371.66,282.05Z"/><path class="cls-17" d="M378,287c.4,2.41-3.68,3.27-6.37,1.8C368.72,285.4,377.24,284.32,378,287Z"/><path class="cls-17" d="M365,287.61c.41,2.41-3.68,3.27-6.37,1.8C355.73,286.05,364.25,285,365,287.61Z"/><path d="M365.76,300.08a1.68,1.68,0,0,1-.86-.41,3.4,3.4,0,0,1-.88-2.49,12.94,12.94,0,0,1,1.39-6.37.63.63,0,0,1,.85-.27.62.62,0,0,1,.27.85,11.77,11.77,0,0,0-1.24,5.73c0,1,.27,1.44.46,1.6a.42.42,0,0,0,.49.07,1.09,1.09,0,0,0,.51-.74.66.66,0,0,1,.67-.49.64.64,0,0,1,.59.59,1,1,0,0,0,.39.72.45.45,0,0,0,.37.06,1.4,1.4,0,0,0,.64-1.48.63.63,0,1,1,1.23-.29,2.61,2.61,0,0,1-1.46,3,1.7,1.7,0,0,1-1.48-.21,1.93,1.93,0,0,1-.4-.35,2.38,2.38,0,0,1-.5.35A1.73,1.73,0,0,1,365.76,300.08Z"/><circle cx="375.26" cy="287.57" r="1.26"/><circle cx="362.59" cy="288.28" r="1.26"/><path d="M352.75,283.1a21.33,21.33,0,0,0,8.4-9.38c-2.37.27-4.72-.39-7.07-.74a.63.63,0,0,0-.41,0,.68.68,0,0,0-.25.45l-2.54,10.43a6.33,6.33,0,0,0,.76-.12,2.7,2.7,0,0,0,.91-.42"/><path class="cls-32" d="M393.6,315.16c7.58-1.76,12.92-9.05,15.78-15.83,3.65-8.66,4.19-18.77.61-27.54-6.57-16.13-27.78-24.57-43.73-17.15-12,5.59-18.08,19.3-16.9,32.11a35.54,35.54,0,0,0,9.92,21.46c-1.92-7.59-4-15.38-4.53-23.22a22.83,22.83,0,0,1,.29-6.5,14.6,14.6,0,0,1,.78-2.77c1.11-1.53,8.91.29,10.86.56,3.86.55,7.73,1.15,11.58,1.8,3,.51,7,.74,9.33,2.64,1.09.91,1.44,1,1.58,2.43.1,1.12-.55,2.35-.64,3.47a10.86,10.86,0,0,0,.25,4.25c.64,1.93.53,2.74-.25,4.84-.86,4.22-3.25,12.91-.73,17.52C388.92,315.28,391.32,315.69,393.6,315.16Z"/><path class="cls-33" d="M387.36,311a4.88,4.88,0,0,1-1.72-1c-.45-.39-.14,0-.66-.72a13,13,0,0,1-4.76,4,15.31,15.31,0,0,1-6.52,1.82c3.77,1.7,8.49,0,11.83-1.93.27-.15,2.68-1.82,1.83-2.18"/><path class="cls-34" d="M357.3,273.8a3,3,0,0,0-3.34-.43c-1.27.6-1.63,2.8-2,4.17-2.26,9.25-.87,20.06,4.21,28.13a8.43,8.43,0,0,0,3.79,2.87c-1.11-5.83-3.12-11.81-4.22-17.64-.51-2.64,0-4.94.26-7.62.32-3-.64-5.86,1-9"/><path d="M370.74,316.24c-.48-.08-1-.19-1.44-.32a17.9,17.9,0,0,1-9.81-7.64c-2.87-4.37-3.71-10.65-4.31-16.72a53.1,53.1,0,0,1,1-17.46.85.85,0,0,1,1-.63.83.83,0,0,1,.63,1,52,52,0,0,0-1,16.91c.46,4.61,1.16,11.57,4,16a16.27,16.27,0,0,0,8.86,6.94,10.72,10.72,0,0,0,10.38-2.42.85.85,0,0,1,1.22,1.17A12.1,12.1,0,0,1,370.74,316.24Z"/><path d="M384.25,287a21.29,21.29,0,0,1-4.92-11.59c2.15,1,4.59,1.15,6.93,1.58a.63.63,0,0,1,.37.17.66.66,0,0,1,.1.5l-1,10.69c-.22-.12-.47-.22-.69-.36a2.78,2.78,0,0,1-.72-.69"/><path class="cls-34" d="M386.48,278a33.25,33.25,0,0,1,3.84,1.64,1.89,1.89,0,0,1,.85.51,1.57,1.57,0,0,1,.17.89c-.12,5.95-1.43,11.84-1.5,17.8s0,12.4,4.35,16.51c-.11-.11-2.42.3-2.73.27A8.31,8.31,0,0,1,389,315c-2.71-1.05-3.39-3.18-4.38-5.79-2.43-6.38-.92-13.17,0-19.67a33.85,33.85,0,0,0-.52-12.49"/><path class="cls-35" d="M397.94,275.2a5.89,5.89,0,0,0-.84,0c-1.91-2.31-16.38-19.47-28.36-24.34,0,0-17,.36-23.08,21.7,0,0,33,4.9,46.75,7.46a5,5,0,1,0,5.53-4.8"/><path class="cls-36" d="M351,269.51a22.3,22.3,0,0,1,7.44-9.21c3.66-2.56,8.07-3.57,12.41-4.33.64-.12.7.91.06,1-4.15.73-8.39,1.71-11.9,4.17A21.19,21.19,0,0,0,352,270c-.26.6-1.18.14-.91-.47"/><g id="Artwork_61" data-name="Artwork 61"><g class="cls-37"><g class="cls-37"><path d="M374.23,299.88a3.94,3.94,0,0,0,.42,1.35,3.64,3.64,0,0,0,.92,1.14,1.94,1.94,0,0,0,1.51.35,1.7,1.7,0,0,0,.31-.06.91.91,0,0,0,.58-.28.63.63,0,0,0,0-.76.62.62,0,0,0-.86-.11.59.59,0,0,0-.19.7h0a.59.59,0,1,0,1.1-.45h0c-.06.24-.13.47-.19.7h0l-.29.12h0l-.55-.23h0l-.07-.6v0l.19-.23c.21-.08.26-.1.17-.08l-.06,0-.11,0-.25.05h-.13s-.15,0-.05,0,0,0-.06,0l-.13,0c-.14,0,.11,0,0,0l-.09,0s-.09,0-.09,0l.05,0-.05,0-.17-.13-.07-.07,0,0,0-.05a2.57,2.57,0,0,1-.28-.37l-.06-.09c-.07-.11,0,0,0,0a1.71,1.71,0,0,0-.12-.23c-.06-.14-.11-.29-.16-.43s0-.06,0,0l0-.12c0-.09,0-.17,0-.26a.59.59,0,0,0-.66-.52.6.6,0,0,0-.52.66"/><path d="M364.69,303.44s-.1,4.33,3.77,5.18,7.39-2.66,7.93-6.5c0,0-.33-1.2-1.74,0s-5.91,3.33-10,1.32"/><path class="cls-17" d="M374,301.93c-.37,2.16-3.09,4.09-5.44,4a2.55,2.55,0,0,1-2.44-2.35,10.54,10.54,0,0,0,7.88-1.69"/><path class="cls-38" d="M375.41,305a7,7,0,0,1-5.5,3.76,5.58,5.58,0,0,1,2.31-3,4.26,4.26,0,0,1,3.19-.79"/><path d="M363.3,303.37a8.75,8.75,0,0,0,4.86,1.3,13.88,13.88,0,0,0,5.29-1.24,5.59,5.59,0,0,0,2.3-1.55.6.6,0,0,0-.94-.74,4,4,0,0,1-1.62,1.11,17.4,17.4,0,0,1-2.36.84,9.83,9.83,0,0,1-4.57.22,6.9,6.9,0,0,1-2.22-.87.59.59,0,1,0-.74.93"/></g></g></g><path id="Fill-79-2" data-name="Fill-79" class="cls-22" d="M232.83,353.62v85.05c0,4.87,13.08,8.81,29.21,8.81s29.2-3.94,29.2-8.81V353.62Z"/><path id="Fill-81-2" data-name="Fill-81" class="cls-23" d="M234.14,431.86c16.89,6.39,39,5.91,55.79-.41,2.26-.86,1.28-4.52-1-3.66-16.09,6.07-37.54,6.55-53.77.41-2.29-.86-3.28,2.81-1,3.66"/><path id="Fill-83-2" data-name="Fill-83" class="cls-23" d="M234.14,418.42c16.89,6.39,39,5.91,55.79-.41,2.26-.85,1.28-4.52-1-3.66-16.09,6.07-37.54,6.55-53.77.42-2.29-.87-3.28,2.8-1,3.65"/><path id="Fill-85-2" data-name="Fill-85" class="cls-23" d="M234.14,404.69c16.89,6.39,39,5.91,55.79-.41,2.26-.85,1.28-4.53-1-3.66-16.09,6.07-37.54,6.55-53.77.41-2.29-.86-3.28,2.81-1,3.66"/><path id="Fill-87-2" data-name="Fill-87" class="cls-23" d="M234.14,391.26c16.89,6.38,39,5.9,55.79-.42,2.26-.85,1.28-4.52-1-3.66-16.09,6.07-37.54,6.55-53.77.42-2.29-.87-3.28,2.8-1,3.66"/><path id="Fill-89-2" data-name="Fill-89" class="cls-23" d="M234.14,377.52c16.89,6.39,39,5.91,55.79-.41,2.26-.85,1.28-4.53-1-3.66-16.09,6.07-37.54,6.55-53.77.41-2.29-.86-3.28,2.81-1,3.66"/><path id="Fill-91-2" data-name="Fill-91" class="cls-23" d="M234.14,364.09c16.89,6.38,39,5.9,55.79-.42,2.26-.85,1.28-4.52-1-3.66-16.09,6.07-37.54,6.55-53.77.42-2.29-.87-3.28,2.8-1,3.66"/><path id="Fill-93-2" data-name="Fill-93" class="cls-22" d="M291.24,353.62c0,4.87-13.08,8.81-29.21,8.81s-29.2-3.94-29.2-8.81,13.07-8.82,29.2-8.82,29.21,3.95,29.21,8.82"/><g id="Artwork_98" data-name="Artwork 98"><g class="cls-39"><polygon class="cls-40" points="501.22 292.68 506.23 303.3 498.78 305.1 497.49 295.79 501.22 292.68"/><g class="cls-39"><path class="cls-41" d="M443.38,295.26s-4.43,26.56.88,69.36,11,63.06,11,63.06-1.16,5.93-6.79,5.93-14.87,1-15.45,9.38h34.8s-.43-8.37-2-12.71-.86-13.57-.86-13.57l9.38-.72s.15-7.66-2.31-12.28-1.73-7.8,0-11-1.3-7.66-1.73-11.56,1.15-56.61,1.15-56.61L508.66,428.7a19.09,19.09,0,0,1,1.3,7.22V443h30s-1.3-9.24-8.09-9.24-11.26-.72-12.71-6.21S516,413.68,516,413.68l9.53-2.6a23.67,23.67,0,0,0-3.76-10.29c-3.32-4.88-.28-8.78-2-13.25A138.51,138.51,0,0,1,514,369.05c-2.17-8.81-15.23-73.79-15.23-73.79Z"/><path class="cls-40" d="M497.49,295.79l-1.19,12.42s-7,5.9-29.06,3.72-28.7-7.83-28.7-7.83l4.84-8.84Z"/><polygon class="cls-42" points="501.87 281.55 509.09 274.33 501.11 265.2 499.36 266.22 498.28 267.87 501.87 281.55"/><path class="cls-42" d="M418.81,232.46l-2.44-4.57a4.55,4.55,0,0,0,2.4-2.59c1-2.21.69-3.29.69-3.29a14.93,14.93,0,0,0,2.44-4.81c.51-2.28-.65-3.95-2.76-3.87,0,0-.18-.85-2.31-2.75s-3.21-2.87-4.76-2.79-6,1.71-6.55,3.22-.15,1.74-.85,2.24-2,1.75-2,2.75a3.84,3.84,0,0,1-.66,2.4,6.75,6.75,0,0,0-.23,6c1.24,2.55,2.67,5.69,5.19,6.69l1.85,4Z"/><path d="M404.66,223.62a2.9,2.9,0,0,0,.51,0H405a3,3,0,0,0,.71-.19l-.12.05,0,0a.56.56,0,0,1,.38,0,.48.48,0,0,1,.29.23.48.48,0,0,1,.05.37.47.47,0,0,1-.22.29,3.23,3.23,0,0,1-.74.25,3.94,3.94,0,0,1-.77.06.52.52,0,0,1-.34-.14.53.53,0,0,1-.15-.35.5.5,0,0,1,.49-.49"/><path d="M406.43,223.56s0,.06,0,0a.56.56,0,0,1,.05.08l.1.18.06.07s.06.08,0,.05l.05.06.06.08.55.65c.37.43.75.85,1.15,1.26a.51.51,0,0,1,0,.69.5.5,0,0,1-.7,0c-.41-.43-.82-.88-1.21-1.33a5.34,5.34,0,0,1-1.08-1.55.49.49,0,0,1,.34-.6.5.5,0,0,1,.6.34"/><path d="M407.15,225.7a.94.94,0,0,0-.67,1.36c.34.65,1,.66,1.67.52,1.17-.26,3.46-.91,2.92-2.59a5.4,5.4,0,0,0-1.29-1.82c-.49-.54-.83-1.2-1.34-1.72a3.53,3.53,0,0,0-1.46-1,6.32,6.32,0,0,0-1.78-.24c-.63,0-.63-1,0-1a5.51,5.51,0,0,1,3.55,1.14,10.93,10.93,0,0,1,1.43,1.75,15.94,15.94,0,0,1,1.51,1.88,2.53,2.53,0,0,1,.3,2.14,3.15,3.15,0,0,1-1.4,1.61,7.65,7.65,0,0,1-2.26.77,2.51,2.51,0,0,1-2.07-.29,2,2,0,0,1-.84-2,1.94,1.94,0,0,1,1.47-1.52c.61-.13.87.81.26.94"/><path d="M411.82,225.34c1.51.31,2.15-1.56,1.94-2.75a4.24,4.24,0,0,0-1.21-1.86c-.46-.53-.89-1.09-1.3-1.66a7.43,7.43,0,0,0-2.46-2.7,3.71,3.71,0,0,0-2-.45c-.63.05-.63-.92,0-1a4.72,4.72,0,0,1,2.78.74c1.43.87,2.14,2.43,3.14,3.7a16.35,16.35,0,0,1,1.67,2.06,3.46,3.46,0,0,1,.34,2.3c-.27,1.59-1.43,2.9-3.15,2.55-.62-.13-.35-1.07.26-.95"/><path d="M413.39,220.24a1.94,1.94,0,0,0,1.93-2.15,4.24,4.24,0,0,0-.86-1.4c-.25-.34-.48-.7-.72-1.05a11.68,11.68,0,0,0-1.41-1.88A4.38,4.38,0,0,0,410,212.6c-.62-.12-.36-1.06.26-.94a5.31,5.31,0,0,1,2.91,1.56,20.33,20.33,0,0,1,1.8,2.5c.71,1,1.74,2.07,1.21,3.43a2.84,2.84,0,0,1-3.05,2c-.62-.1-.36-1.05.26-.94"/><path d="M415.4,215.72a7.65,7.65,0,0,1-1.51-.23.5.5,0,0,1-.35-.6.52.52,0,0,1,.61-.35,5.82,5.82,0,0,0,.83.17l-.13,0a5.11,5.11,0,0,0,.55.05.51.51,0,0,1,.35.15.44.44,0,0,1,.14.34.48.48,0,0,1-.49.49"/><path d="M416.07,217.62c.34.11.64-.34.84-.56s.63-.72.93-1.1.53-.71.77-1.08.43-.67.29-1a.51.51,0,0,1,.18-.67.49.49,0,0,1,.67.18c.52,1.2-.48,2.31-1.17,3.2-.36.46-.74.91-1.14,1.34a1.58,1.58,0,0,1-1.63.63.5.5,0,0,1-.34-.6.48.48,0,0,1,.6-.34"/><path d="M419.37,222.7a5.14,5.14,0,0,1-2.31.9,2.31,2.31,0,0,1-1.88-.72,2.72,2.72,0,0,1-.35-2.39,9.85,9.85,0,0,1,.94-2.37.48.48,0,0,1,.66-.17.5.5,0,0,1,.18.67,10.23,10.23,0,0,0-.77,1.84c-.14.51-.32,1.3.05,1.75a1.4,1.4,0,0,0,1.2.41,4.46,4.46,0,0,0,1.79-.77c.54-.33,1,.52.49.85"/><path class="cls-43" d="M457.34,222.83s-8.7,2.37-14.81,7-13.23,17.23-13.23,17.23L421,229.41l-16.69,7.41s5.2,16.41,11.35,25.71a15.53,15.53,0,0,0,25.85,0s-.08,12.17,1.19,16.55-3.24,8.34-1.87,14.77,8.08,8.68,29.68,9.4,32.41-6,32-12.41-3.15-14.5-3.15-21.88,1.09-17.78,1.09-17.78l7,6-8,9,11.45,12.86s19-13.81,20.51-23.93-16-20.87-23.54-26.16-9.95-6.35-9.95-6.35L493.44,220Z"/><path class="cls-40" d="M486,208.08s7.6-.16,10.5,4.72a12.89,12.89,0,0,1,1.29,9.84,9.65,9.65,0,0,0-7.57.75c-3.75,2.15-20.77,15.13-22.14,15-3-.29-6.88-6.74-10.23-10.49s-5.08-5.95-3.93-8.41l28.8-12.23Z"/><path d="M477,188.16s-24.28,2.94-25.42-1.18c-.84-3,1.58-17.72,24.81-12.68A17.32,17.32,0,0,1,490.13,191c.19,6.11-1.41,14.17-4.68,19-3.7,5.49-6.13,4.91-6.13,4.91Z"/><path class="cls-42" d="M460.69,220.19l2.79.83.92,5.29a21.83,21.83,0,0,0,5.23.48,20.23,20.23,0,0,0,6-.84l5.7-5.66.09-6.51-20.64,4.15Z"/><path class="cls-42" d="M481.11,215.2c.34-1.22.91-5.31.91-5.31a6.53,6.53,0,0,0,4.57-1.31c1.89-1.49,4.59-6.37,1.94-9-1.56-1.58-3.3-2.34-5.29,0-2.24,2.6-4.29,2.36-4.17-.93s2-11-1.2-12.74-6.48-.12-12.58-.84a31.74,31.74,0,0,1-6.75-1.68c-2.52-.82-5.44,1.64-6.1,4.86-.37,1.76-1.15,15.53-.79,18.63.32,2.82,3,13.62,13.86,13.59,5.53,0,15.6-5.21,15.6-5.21"/><path d="M453.3,184.3c-.26,2.49-.62,5-.85,7.47a74,74,0,0,0-.24,11.53A33.94,33.94,0,0,0,453,209a20.52,20.52,0,0,0,.67,2.23c.05.15.11.29.16.43s-.08-.17,0,.08c0,.09.08.18.13.27a15.38,15.38,0,0,0,4,5.49A12,12,0,0,0,468,220a1,1,0,0,1,1.17.66,1,1,0,0,1-.66,1.17,14.09,14.09,0,0,1-10.46-2,16.64,16.64,0,0,1-5.27-6,23.46,23.46,0,0,1-2.29-8.24,62.64,62.64,0,0,1-.12-12.17c.23-3.06.67-6.1,1-9.15a1,1,0,0,1,.95-1,1,1,0,0,1,1,1"/><path d="M460.82,191.29a4.18,4.18,0,0,0-1.25-1.06,2.2,2.2,0,0,0-.67-.29l-.39-.1-.12,0c.08,0-.18,0-.18,0h-.4c-.06,0-.36,0-.25,0l-.45.1-.19.07-.13,0a3.47,3.47,0,0,0-1.31,1,1,1,0,0,1-1.34-1.35,5.14,5.14,0,0,1,4.07-1.75,5.73,5.73,0,0,1,4,2.06,1,1,0,1,1-1.35,1.34"/><path d="M466.63,191.51a5.41,5.41,0,0,1,4.45-1.61,5.29,5.29,0,0,1,3.74,2.46,1,1,0,0,1-1.65,1,4,4,0,0,0-1-1,2.88,2.88,0,0,0-.38-.22l-.18-.09c-.15-.07.11,0,0,0l-.42-.13-.19,0-.16,0a3.24,3.24,0,0,0-1.5.2l-.26.11a4.49,4.49,0,0,0-.42.24,3.32,3.32,0,0,0-.67.53c-.87.86-2.22-.48-1.34-1.34"/><path d="M467.17,202.74a2.18,2.18,0,0,1-1.91,1.89,1.76,1.76,0,0,1-1.74-1.93.56.56,0,0,1,.55-.55.55.55,0,0,1,.54.55,1.85,1.85,0,0,0,0,.24c0,.12,0-.1,0,0l0,.13s.05.14,0,.06,0,0,0,.06l.06.1,0,0,0,0,.08.08,0,0s0,0,0,0,.08.05.09.06l0,0s0,0,0,0a.79.79,0,0,0,.22.06h0a.47.47,0,0,0,.12,0c-.07,0-.09,0-.05,0h.06l.12,0,.05,0s0,0,0,0l.1-.06.11-.07,0,0,0,0c.06-.05.11-.11.16-.16s-.05.07,0,0a.86.86,0,0,0,.07-.1.84.84,0,0,0,.11-.21c0,.07,0,.07,0,0s0,0,0-.06,0-.08,0-.12l.06-.26a.55.55,0,0,1,.67-.38.57.57,0,0,1,.38.67"/><path d="M464.64,202.87a1.91,1.91,0,0,1-3.56.3,1.93,1.93,0,0,1-.08-1.47.64.64,0,0,1,.25-.33.52.52,0,0,1,.42-.05.54.54,0,0,1,.38.67,1.55,1.55,0,0,0-.07.23s0,0,0-.05v.08a.37.37,0,0,0,0,.11s0,.1,0,.12,0-.1,0,0v0a.71.71,0,0,0,.06.22c0-.07,0-.08,0,0l0,.05.06.1c.07.12-.06,0,0,0l.08.09.09.08,0,0,.05,0,.1,0,.07,0,0,0a2.27,2.27,0,0,0,.25.06c.11,0-.11,0,0,0H463a.92.92,0,0,0,.26-.07s0,0,0,0l.06,0s.11-.05.13-.08l0,0a.12.12,0,0,0,.05-.05l.09-.09,0,0,0-.05s.06-.08.06-.11,0,.07,0,0v0a.75.75,0,0,0,0-.16.55.55,0,0,1,.67-.38.57.57,0,0,1,.38.67"/><path d="M461,201.79c.48-1.93,1.34-3.73,1.91-5.63a.55.55,0,0,1,1.05.29c-.57,1.9-1.43,3.7-1.91,5.63a.55.55,0,0,1-1-.29"/><path d="M473.21,204.37a5.25,5.25,0,0,0,.17,2.3,2.64,2.64,0,0,0,.43.7,1.18,1.18,0,0,0,.67.42.53.53,0,0,1,.38.66.54.54,0,0,1-.67.38,2.73,2.73,0,0,1-1.79-1.7,5.75,5.75,0,0,1-.28-2.76.56.56,0,0,1,.55-.55.55.55,0,0,1,.54.55"/><path d="M464.44,211.07a6.45,6.45,0,0,0,4.27,0,.54.54,0,1,1,.29,1.05,7.53,7.53,0,0,1-4.85,0,.56.56,0,0,1-.38-.67.54.54,0,0,1,.67-.38"/><path class="cls-17" d="M461.63,195a2.94,2.94,0,0,0-1.5-1.94,4.92,4.92,0,0,0-2.95-.8c-2.69.1-3,1-3.14,1.63a1.74,1.74,0,0,0,.76,1.89,24.2,24.2,0,0,0,2.66.14c1.43.13,3,.8,3.42.7s.93-.62.75-1.62"/><path d="M458.84,196a1.19,1.19,0,0,1,0-2.38,1.19,1.19,0,0,1,0,2.38"/><path class="cls-17" d="M474.48,196.89a3,3,0,0,0-1.45-2,6.84,6.84,0,0,0-3.35-.74c-2.42.08-3,1.19-3.16,1.8a1.55,1.55,0,0,0,.77,1.75c.42.16,1.21,0,2.79.08s3.12.7,3.59.6a1.21,1.21,0,0,0,.81-1.53"/><path d="M471,197.72a1.15,1.15,0,0,1,0-2.3,1.15,1.15,0,0,1,0,2.3"/><path d="M473,207.53c-3.57,1.9-7.95,2.51-11.55.35a.54.54,0,0,1,.55-.94c3.26,2,7.23,1.36,10.45-.35.62-.33,1.17.61.55.94"/><path class="cls-44" d="M464.46,175.75a38.18,38.18,0,0,0-3.91-1.44c3.51-1.88,8.19-2.7,14.39-1,19.33,5.21,15.13,23.56,15.13,23.56a50,50,0,0,0-8.89-7.07c-3.14-4.11-9-10.67-16.72-14"/><path class="cls-40" d="M460.55,174.31a38.18,38.18,0,0,1,3.91,1.44c7.69,3.34,13.58,9.9,16.72,14a28.74,28.74,0,0,0-9.28-3.88c-11.73-2.32-19.42.51-20.69,1l-.15-.07a10.45,10.45,0,0,1-5.75-7.67c-1.36-6.3,5.26-7.93,15.24-4.86"/><path d="M486.67,202.21c-.89-.3-1.61.51-1.88,1.29s-.61,2.19.28,2.64a.54.54,0,0,1-.55.94c-1.41-.72-1.2-2.7-.75-4a3.33,3.33,0,0,1,1.25-1.68,2.26,2.26,0,0,1,1.94-.29.54.54,0,1,1-.29,1.05"/><path class="cls-45" d="M468.12,233.68s-3.28-4.55-3.72-7.36a26.67,26.67,0,0,0,6.38.43c4-.14,5.49-1.46,5.49-1.46a108.22,108.22,0,0,1-8.15,8.39"/><path class="cls-42" d="M501.26,272.29s2-2.64.83-4.75-5.5-.6-10,3-.9,6.25,2,5.27a35.92,35.92,0,0,0,5.05-2.18,50.09,50.09,0,0,0-5.95,5.12c-2.34,2.49,0,4.82,2.11,3.84a2.26,2.26,0,0,0-.38,3,2.09,2.09,0,0,0,2.64.82,1.84,1.84,0,0,0,.9,2.64c1.88,1,5.5-.68,6.4-3.31s-1-3.24-1-3.24a4.43,4.43,0,0,0,.91-3.09c-.23-1.73-2.34-1.47-2.34-1.47s2-1.92,1.36-4.26-2.49-1.43-2.49-1.43"/><path d="M495.61,281.69a17.16,17.16,0,0,0,5.8-4c.49-.51,1.26.26.78.77a18.4,18.4,0,0,1-6.28,4.29.55.55,0,0,1-.68-.38.56.56,0,0,1,.38-.67"/><path d="M497.68,285.92A16.48,16.48,0,0,0,503,282c.47-.52,1.24.25.77.77a17.27,17.27,0,0,1-5.54,4.11.56.56,0,0,1-.74-.2.55.55,0,0,1,.19-.75"/><path d="M500.73,272.63a13.12,13.12,0,0,1-9.36,4.14.55.55,0,0,1,0-1.09,12.06,12.06,0,0,0,8.59-3.82c.48-.52,1.25.25.77.77"/><path class="cls-46" d="M440.89,260.46c-.19-10.57-.33-21.46,3.45-31.5.37-1,2-.56,1.59.43-3.74,9.92-3.59,20.64-3.39,31.07a.83.83,0,0,1-1.65,0"/><path class="cls-46" d="M504.4,227.65c-7,5.26-5.21,15.3-3.63,22.65.22,1-1.36,1.47-1.59.43-1-4.71-2-9.55-1.29-14.37a15.25,15.25,0,0,1,5.68-10.13c.85-.64,1.67.79.83,1.42"/><path d="M446.4,443h21.4s-.44-8.37-2-12.7a17,17,0,0,1-.77-3.61H455c.17.67.26,1,.26,1s-1.16,5.92-6.79,5.92c-.86,0-1.8,0-2.79.09a15.46,15.46,0,0,1,.82,3.48,24.64,24.64,0,0,1-.07,5.82"/><path class="cls-42" d="M465,426.67H455c-.4-1.53-1.22-4.83-2.31-10H464.9a61.07,61.07,0,0,0,.11,10"/><path d="M509.07,429.86a20.29,20.29,0,0,1,.89,6.05V443h16.58a38.94,38.94,0,0,1,2.27-9.32c-4.85-.27-8.12-1.43-9.44-5.59Z"/><path class="cls-42" d="M519.37,428.09l-10.29,1.76a10.25,10.25,0,0,0-.42-1.15l-4.5-12.59L516,413.67s1.73,8.38,3.18,13.87c0,.19.1.37.16.55"/><path d="M464.38,317.08a28.57,28.57,0,0,0,13.56,7.78.82.82,0,0,1-.43,1.59,30.29,30.29,0,0,1-14.3-8.21c-.74-.75.43-1.92,1.17-1.16"/><path d="M500.15,271.8l.11-.08s0,0,0,0l0,0a2.09,2.09,0,0,0,.22-.2c.12-.12.26-.28.35-.39a4.52,4.52,0,0,0,.55-.94,4.23,4.23,0,0,0,.19-.57c0-.1.05-.2.07-.3l0-.15s0-.1,0,0a3,3,0,0,0,0-.6.49.49,0,0,0,0-.12c0-.18,0,.05,0-.06s0-.2-.07-.31a.55.55,0,0,1,1.06-.29,4.9,4.9,0,0,1-2,5,.55.55,0,0,1-.55-.95"/><path d="M499.85,272.1a3.66,3.66,0,0,1,3-.33,2.71,2.71,0,0,1,1.27,2.38,4.7,4.7,0,0,1-2,4.39c-.6.38-1.15-.57-.56-1a3.53,3.53,0,0,0,1.51-3.12c0-.5-.09-1.4-.58-1.68a1.46,1.46,0,0,0-.9-.09,3.55,3.55,0,0,0-1.15.34c-.63.32-1.19-.63-.55-.94"/><path d="M501.82,277.43a2.6,2.6,0,0,1,2.08.14,2.48,2.48,0,0,1,1.17,1.69,4.1,4.1,0,0,1-1.72,3.89.54.54,0,0,1-.75-.2.55.55,0,0,1,.19-.75,3,3,0,0,0,1.22-2.63,1.37,1.37,0,0,0-.61-1,1.4,1.4,0,0,0-1.29-.06.55.55,0,0,1-.29-1.06"/><path class="cls-47" d="M526.54,443H540s-1.3-9.25-8.09-9.25c-1.1,0-2.13,0-3.1-.07a38.94,38.94,0,0,0-2.27,9.32"/><path class="cls-47" d="M433,443H446.4a24.64,24.64,0,0,0,.07-5.82,15.46,15.46,0,0,0-.82-3.48c-5.46.39-12.17,2.21-12.66,9.3"/></g></g></g></g></svg>