<svg xmlns="http://www.w3.org/2000/svg" xmlns:xlink="http://www.w3.org/1999/xlink" viewBox="0 0 550 550"><defs><style>.cls-1,.cls-34{fill:none;}.cls-2{clip-path:url(#clip-path);}.cls-3{clip-path:url(#clip-path-2);}.cls-4{fill:#018aab;}.cls-5{clip-path:url(#clip-path-3);}.cls-6{fill:#094756;}.cls-7{clip-path:url(#clip-path-4);}.cls-8{fill:#b24527;}.cls-9{fill:#c7c7c7;}.cls-10{fill:#333;}.cls-11{opacity:0.6;}.cls-12{fill:#ec445d;}.cls-13{fill:#fff;}.cls-14{fill:#297f94;}.cls-15{fill:#9a4b9c;}.cls-16{fill:#f4a9ae;}.cls-17{fill:#8c8c8c;}.cls-18{fill:#c72a41;}.cls-19{clip-path:url(#clip-path-5);}.cls-20{fill:#88218a;}.cls-21{fill:#d28170;}.cls-22{fill:#c42028;}.cls-23{fill:#34badb;}.cls-24{opacity:0.68;}.cls-25{fill:#1290b0;}.cls-26{fill:#0f6b82;}.cls-27{fill:#a9552f;}.cls-28{fill:#595959;}.cls-29{fill:#0dab4c;}.cls-30{fill:#1c5229;}.cls-31{fill:#b1dfec;}.cls-32{clip-path:url(#clip-path-7);}.cls-33{fill:#f9e876;}.cls-34{stroke:#000;stroke-linecap:round;stroke-linejoin:round;stroke-width:4px;}</style><clipPath id="clip-path"><rect class="cls-1" x="-850" y="-793" width="850" height="486"/></clipPath><clipPath id="clip-path-2"><rect class="cls-1" x="-735.02" y="-698.81" width="973.13" height="915.52" transform="translate(7.55 -474.07) rotate(-86.44)"/></clipPath><clipPath id="clip-path-3"><rect class="cls-1" x="-735.02" y="-698.81" width="973.13" height="915.52" transform="translate(7.55 -474.07) rotate(-86.44)"/></clipPath><clipPath id="clip-path-4"><circle class="cls-1" cx="275" cy="275" r="265"/></clipPath><clipPath id="clip-path-5"><rect class="cls-1" x="104.36" y="255.62" width="3.9" height="6.29" transform="translate(-117.47 90.89) rotate(-30.79)"/></clipPath><clipPath id="clip-path-7"><rect class="cls-1" x="406.56" y="346.87" width="19.78" height="31.47"/></clipPath></defs><g id="Layer_17" data-name="Layer 17"><g class="cls-2"><g id="Artwork_125" data-name="Artwork 125"><g class="cls-3"><path class="cls-4" d="M-304-631.59C-90.39-650.72,98.28-493.07,117.42-279.46S-21.1,122.83-234.71,142-637,3.44-656.13-210.17-517.61-612.45-304-631.59"/></g></g></g></g><g id="Layer_19" data-name="Layer 19"><circle class="cls-6" cx="275" cy="275" r="265"/><g class="cls-7"><path class="cls-8" d="M180.76,402.12a54.52,54.52,0,0,0-5.82,9.52c-1.07,2.26-2,4.73-1.65,7.2s2.46,4.85,5,4.68c2-.13,3.54-1.74,4.81-3.28a34.75,34.75,0,0,0,5.22-7.89,15.79,15.79,0,0,0,1.36-9.24,19.92,19.92,0,0,0-1.33-4.11,2.58,2.58,0,0,0-.61-1,2.3,2.3,0,0,0-1.36-.41,6.29,6.29,0,0,0-4.07,1A3.54,3.54,0,0,0,180.76,402.12Z"/><path class="cls-8" d="M209.8,400.78a53.92,53.92,0,0,1,5.82,9.52c1.08,2.26,2,4.73,1.65,7.2s-2.46,4.85-5,4.68c-2-.13-3.54-1.74-4.82-3.28a34.75,34.75,0,0,1-5.22-7.89,15.79,15.79,0,0,1-1.36-9.24,19.37,19.37,0,0,1,1.34-4.11,2.44,2.44,0,0,1,.6-1,2.3,2.3,0,0,1,1.36-.41,6.34,6.34,0,0,1,4.07,1A3.54,3.54,0,0,1,209.8,400.78Z"/><rect class="cls-9" x="14.73" y="95.7" width="368.36" height="249.45" rx="15.99"/><path d="M368.79,345.82H29a15,15,0,0,1-15-15V110A15,15,0,0,1,29,95H368.79a15,15,0,0,1,15,15V330.84A15,15,0,0,1,368.79,345.82ZM29,96.37A13.64,13.64,0,0,0,15.4,110V330.84A13.64,13.64,0,0,0,29,344.47H368.79a13.65,13.65,0,0,0,13.63-13.63V110a13.65,13.65,0,0,0-13.63-13.63Z"/><rect class="cls-10" x="33.84" y="115.59" width="328.13" height="212.79"/><rect class="cls-9" x="-14.04" y="337.1" width="422.9" height="16.09" rx="4.58"/><path d="M404.76,353.86H-9.94a4.78,4.78,0,0,1-4.77-4.77V341.2a4.78,4.78,0,0,1,4.77-4.77h414.7a4.78,4.78,0,0,1,4.77,4.77v7.89A4.78,4.78,0,0,1,404.76,353.86ZM-9.94,337.77a3.44,3.44,0,0,0-3.43,3.43v7.89a3.44,3.44,0,0,0,3.43,3.43h414.7a3.44,3.44,0,0,0,3.43-3.43V341.2a3.44,3.44,0,0,0-3.43-3.43Z"/><g class="cls-11"><rect class="cls-12" x="42.72" y="126.87" width="13.86" height="4.47" rx="2.02"/><rect class="cls-13" x="42.72" y="150.34" width="13.86" height="4.47" rx="2.02"/><rect class="cls-13" x="42.72" y="161.07" width="13.86" height="4.47" rx="2.02"/><rect class="cls-14" x="42.72" y="171.8" width="13.86" height="4.47" rx="2.02"/><rect class="cls-13" x="42.72" y="212.2" width="13.86" height="4.47" rx="2.02"/><rect class="cls-13" x="42.72" y="227.45" width="13.86" height="4.47" rx="2.02"/><rect class="cls-13" x="42.72" y="240.45" width="13.86" height="4.47" rx="2.02"/><rect class="cls-13" x="42.72" y="266.44" width="13.86" height="4.47" rx="2.02"/><rect class="cls-12" x="42.72" y="253.44" width="13.86" height="4.47" rx="2.02"/><rect class="cls-15" x="68.65" y="126.43" width="40.01" height="4.47" rx="2.02"/><rect class="cls-14" x="78.71" y="138.05" width="40.01" height="4.47" rx="2.02"/><rect class="cls-13" x="102.4" y="149.67" width="40.01" height="4.47" rx="2.02"/><rect class="cls-14" x="128.78" y="138.05" width="108.95" height="4.47" rx="2.02"/><rect class="cls-13" x="152.47" y="148.78" width="108.95" height="4.47" rx="2.02"/><rect class="cls-13" x="102.4" y="161.07" width="40.01" height="4.47" rx="2.02"/><rect class="cls-14" x="152.47" y="172.47" width="40.01" height="4.47" rx="2.02"/><rect class="cls-14" x="201.63" y="172.47" width="92" height="4.47" rx="2.02"/><rect class="cls-13" x="152.47" y="161.07" width="108.95" height="4.47" rx="2.02"/><rect class="cls-13" x="78.71" y="186.16" width="39.67" height="4.47" rx="2.02"/><rect class="cls-13" x="128.35" y="186.16" width="108.03" height="4.47" rx="2.02"/><rect class="cls-12" x="67.98" y="197.92" width="39.67" height="4.47" rx="2.02"/><rect class="cls-13" x="117.62" y="197.92" width="108.03" height="4.47" rx="2.02"/><rect class="cls-13" x="78.71" y="212.2" width="39.67" height="4.47" rx="2.02"/><rect class="cls-13" x="88.82" y="227.45" width="53.59" height="4.47" rx="2.02"/><rect class="cls-12" x="128.35" y="212.2" width="108.03" height="4.47" rx="2.02"/><rect class="cls-13" x="153.29" y="227.45" width="108.03" height="4.47" rx="2.02"/><rect class="cls-15" x="109.48" y="241.56" width="53.59" height="4.47" rx="2.02"/><rect class="cls-13" x="83.18" y="253.44" width="50.96" height="4.47" rx="2.02"/><rect class="cls-13" x="144.55" y="253.44" width="113.7" height="4.47" rx="2.02"/><rect class="cls-13" x="141.96" y="267.76" width="113.7" height="4.47" rx="2.02"/><rect class="cls-13" x="113.19" y="281.01" width="113.7" height="4.47" rx="2.02"/><rect class="cls-13" x="113.19" y="295.79" width="113.7" height="4.47" rx="2.02"/><rect class="cls-13" x="144.78" y="306.8" width="133.91" height="4.47" rx="2.02"/><rect class="cls-15" x="173.94" y="241.56" width="162.37" height="4.47" rx="2.02"/><rect class="cls-15" x="118.72" y="126.43" width="114.44" height="4.47" rx="2.02"/></g><path d="M78.58,391.34c-.38,2.89,1.71,5.64,1.48,8.55a12,12,0,0,1-1.13,3.6,60.64,60.64,0,0,0-3.66,12.16,3.94,3.94,0,0,0,.24,3c1.77,2.66,6.76,0,8.25-1.67a20.19,20.19,0,0,0,3.12-5.21,31.57,31.57,0,0,0,2.64-7c1-4.71-.29-9.59-1.89-14.12a6.75,6.75,0,0,0-1.2-2.32c-1.49-1.64-3.93-1-5.59-.09A6.92,6.92,0,0,0,78.42,390C77.83,390.87,77.67,392.1,78.58,391.34Z"/><path d="M97.94,387.55c1.38,7.68-.6,15.5-2,23.18a12.49,12.49,0,0,0-.18,4.83,4.49,4.49,0,0,0,3,3.48,4.41,4.41,0,0,0,4.29-1.8c3.5-4.47,5.47-13,5-18.59a38.55,38.55,0,0,0-.83-4.64l-1.74-7.92C104.73,386.32,98.06,388.2,97.94,387.55Z"/><path class="cls-8" d="M82,322.6c-7.14,3-15,6.73-17.7,14-2,5.52-.49,11.64,1.07,17.31l8.49,30.87c.85,3.07,2.06,6.55,5,7.65,2.47.91,5.33-.3,7-2.3a15.06,15.06,0,0,0,2.9-7.22,44.51,44.51,0,0,0-1.19-20.64C85.92,356.51,83,350.8,83.6,344.8c.56-5.3,4-10,8.21-13.22s9.27-5.23,14.53-7.08c-.75-2.9-4-4.41-6.91-5C93.11,318.31,86.81,320.59,82,322.6Z"/><path class="cls-8" d="M101.6,325c-8.88,7.18-12.7,19.2-12.6,30.62s3.6,22.51,7.07,33.39c3.19,3.35,8.33.91,10.63-2.15,8.77-11.65-3.71-26.16,1.49-38.6,2-4.68,4.41-6,8.69-7.76s6.75-3.79,10.3-6.79,5.39-10.13,2.37-13.65c-2.31-2.68-6.35-2.94-9.86-2.51A37.17,37.17,0,0,0,101.6,325Z"/><path class="cls-12" d="M65.93,324.24,77.48,283.5c1.13-4,2.34-8.12,5-11.25C87.18,266.87,95,265.74,102,265c9.18-1,19.83-1.51,26.13,5.23,3.59,3.85,4.89,9.23,6.05,14.36,2.07,9.16,4,19.45-1,27.41-2.75,4.39-7.26,7.4-12,9.59-13.06,6.11-29.06,6.64-41.64-.38a91.84,91.84,0,0,0,9-35.78c-2.73,9.55-4.9,17.15-6.94,26.77-.68,3.16-6.09,6.48-7.93,9.15S68.24,325.71,65.93,324.24Z"/><path class="cls-12" d="M107.67,326.47l15.52-.08a9.43,9.43,0,0,0,4.72-.85,6.37,6.37,0,0,0,2.82-4.69,18.74,18.74,0,0,0-.36-5.63c-.27-1.62-.83-3.57-2.42-4A4.28,4.28,0,0,0,125,312l-17.52,9.25a8.44,8.44,0,0,0-2.89,2.1,2.88,2.88,0,0,0-.31,3.34A2.14,2.14,0,0,0,107.67,326.47Z"/><path d="M80.94,269.73a68.06,68.06,0,0,0,.21-21.88c-.47-3.07-1.15-6.21-.55-9.26s2.87-6.05,6-6.29c-.38-3,1.84-5.76,4.42-7.34,6.58-4.05,15.61-2.47,21.59,2.43s9.25,12.46,10.57,20.08c1.46,8.44-1.38,16.38-.67,23.35.13,1.27-1.66,3.27-2.79,1.8a5.58,5.58,0,0,1-.21-5.58c-.89,1.79-.35,2-.52,3.13-.21,1.44.21,3-.7,4.27a2.24,2.24,0,0,1-1.86.95,4,4,0,0,1-2.3-2.55c-2.36-11.13-3.29-15.65-.59-23.28a15.46,15.46,0,0,0,1.1-4,4.26,4.26,0,0,0-1.45-3.75,3.23,3.23,0,0,0-4.89,2.49l-3.34-6.14c-4.39,5.61-10.57,8.12-17.39,6a24.17,24.17,0,0,0,9.65,19.54c-1,3-3.76,6.28-5.57,8.87-.9,1.29-2.22,2.66-3.84,2.13a2.62,2.62,0,0,1-1.57-1.57c-.59-1.49-.15-3,.28-4.48a8.21,8.21,0,0,1-2.11,2.28,3,3,0,0,1-1.59.33,2.12,2.12,0,0,1-2-1.4C80.69,269.65,80.71,269.55,80.94,269.73Z"/><path d="M92.16,269.67a1.59,1.59,0,0,0,0,2.15,2.61,2.61,0,0,0,2.17.77,7.72,7.72,0,0,0,2.29-.67l5.53-2.26a5.7,5.7,0,0,0,1.87-1.07,3.69,3.69,0,0,0,.52-4,8.79,8.79,0,0,0-2.84-3.22c-1.19-.93-2.61-1.8-4.1-1.59s-2.79,1.68-3.72,3.05a15,15,0,0,0-2,3.64C91.4,267.74,91.3,269.22,92.16,269.67Z"/><path class="cls-16" d="M86.37,243.91c0,5.22,1.21,10.54,4.39,14.69a21.77,21.77,0,0,0,13.07,8l-.25,2.79c1.59,2.12,5.07,1.59,7-.28,3.19-3.19,2.15-4.82,2.08-7.46,0-1.71-.25-3.42-.24-5.13,0-.91-.18-3.19.5-3.86.33-.34.79-.53,1.15-.84a3.91,3.91,0,0,0,1.1-2.64,8.1,8.1,0,0,0-.81-5.05,4.05,4.05,0,0,0-4.4-2c-.49.15-1,.54-.91,1a8.54,8.54,0,0,1-2.64-4.44c-.12-.53-.26-1.16-.75-1.38a1.68,1.68,0,0,0-.67-.09h-4.66a32.57,32.57,0,0,1-6-.36,12.9,12.9,0,0,1-3.12-1c-.68-.32-1.72-1.43-2.4-1.5s-1.09.47-1.37.92C86,237.62,86.37,241.43,86.37,243.91Z"/><path d="M101.16,267a12.41,12.41,0,0,1-4.9-1.15,23,23,0,0,1-13.36-23,.89.89,0,0,1,1.77.21A21.17,21.17,0,0,0,97,264.24a10.3,10.3,0,0,0,4.52,1,5,5,0,0,0,3.74-1.79.89.89,0,1,1,1.43,1.07,6.72,6.72,0,0,1-5.09,2.5Z"/><path d="M87.52,297.85a.44.44,0,0,1-.44-.44,55.12,55.12,0,0,1,2.08-15.64A.45.45,0,0,1,90,282l-.19.92a.52.52,0,0,1-.12.22A54.56,54.56,0,0,0,88,297.4a.44.44,0,0,1-.44.45Z"/><path d="M102.28,243.68a6.63,6.63,0,0,1-4.9-2.19.89.89,0,1,1,1.34-1.18,4.78,4.78,0,0,0,4.34,1.51.89.89,0,0,1,.32,1.76A6.82,6.82,0,0,1,102.28,243.68Z"/><path d="M87.57,246.47a.89.89,0,0,1-.26-1.75,5.44,5.44,0,0,0,3.47-3.2.89.89,0,0,1,1.67.64,7.25,7.25,0,0,1-4.63,4.27A.73.73,0,0,1,87.57,246.47Z"/><path class="cls-17" d="M95.78,319.43c7.89.29,15.78.58,23.58,1a1.92,1.92,0,0,1,.86,3.58A120.58,120.58,0,0,1,102,332.64L85.56,331C88.67,327.34,91.78,323.7,95.78,319.43Z"/><path class="cls-18" d="M103.85,267.76c-.65-.61-1.5.07-2.14.68a2.08,2.08,0,0,0-.27,2.51,3.23,3.23,0,0,0,2.45,1.16,18.07,18.07,0,0,0,4.47,0,7.62,7.62,0,0,0,2.88-.85,4,4,0,0,0,1.92-2.36,1.81,1.81,0,0,0-.31-2c-.25-.22-.67-.36-.92-.11s-.63,1-.84,1.32a4.17,4.17,0,0,1-2.62,1.55,10.39,10.39,0,0,1-3,0,2.6,2.6,0,0,1-1.31-.41C103.73,268.9,103.3,268.08,103.85,267.76Z"/><path class="cls-16" d="M104.66,320.1a7.66,7.66,0,0,0-8.58,7.18,1.22,1.22,0,0,0,.24,1,1.09,1.09,0,0,0,.58.25,5.86,5.86,0,0,0,3.31-.89,32.58,32.58,0,0,1,4.67-1.79c1.3-.38,2.77-.8,3.38-2a2.83,2.83,0,0,0-1.16-3.53C105.93,319.57,104.4,319.68,104.66,320.1Z"/><path class="cls-12" d="M107.14,318.77c9.76-5.66,14.83-13.92,15.54-25.18a5.71,5.71,0,0,1,.76-3.15c1.12-1.51,3.6-1.35,5-.12a9,9,0,0,1,2.47,5c1.38,6,1.34,12.67-2,17.82-3.5,5.4-9.86,8.08-15.83,10.46a10.75,10.75,0,0,1-4.81,1.1c-1.66-.15-3.35-3.73-3.48-5.39C105.36,319,107.48,318.58,107.14,318.77Z"/><path d="M104.81,319.88a.45.45,0,0,1-.19-.86c7.94-3.67,16.33-8.67,18.26-17.94.89-4.28-.72-10.28-2-15.1-.3-1.1-.58-2.14-.81-3.1a.45.45,0,1,1,.87-.21c.23.95.51,2,.8,3.08,1.32,4.91,3,11,2,15.51-2,9.66-10.61,14.81-18.75,18.58A.72.72,0,0,1,104.81,319.88Z"/><path class="cls-13" d="M88.63,248.74c.93-2.1,7.27-3.23,5.29.35C92.66,250.37,88.13,251.75,88.63,248.74Z"/><path class="cls-17" d="M59.57,330.16l-7.79-26.57a5,5,0,0,1,4.66-6.51H91.26a4.88,4.88,0,0,1,4.65,3.57l7.79,26.57a5,5,0,0,1-4.65,6.51H64.22A4.88,4.88,0,0,1,59.57,330.16Z"/><path class="cls-13" d="M98.18,246.34c2-1.46,8.46.85,4.73,3.11C101.06,250,96.13,248.86,98.18,246.34Z"/><circle cx="91.51" cy="249.24" r="1.07"/><circle cx="99.69" cy="248.11" r="1.07"/><path d="M96.45,256.51a1.24,1.24,0,0,1-.54-.11c-.61-.28-.94-1-1-2a15.13,15.13,0,0,1,.58-4.69.45.45,0,0,1,.56-.3.44.44,0,0,1,.3.55,13.94,13.94,0,0,0-.54,4.41c0,.68.18,1.12.45,1.25a.57.57,0,0,0,.55-.11,1.36,1.36,0,0,0,.4-.71.42.42,0,0,1,.31-.32.41.41,0,0,1,.43.11,1.16,1.16,0,0,0,1.16.26.73.73,0,0,0,.45-.4.41.41,0,0,0,0-.42.46.46,0,0,1,0-.64.47.47,0,0,1,.64,0,1.31,1.31,0,0,1,.29,1.44,1.66,1.66,0,0,1-1,.9,2.06,2.06,0,0,1-1.56-.09,2.12,2.12,0,0,1-.49.61A1.52,1.52,0,0,1,96.45,256.51Z"/><path d="M108.12,242.61a7.83,7.83,0,0,0,.12,5.06.52.52,0,0,0,.22.31c.39.23.8-.27.85-.65.1-.81,0-1.62.08-2.43a2.74,2.74,0,0,1,1.3-2.13,3.63,3.63,0,0,1,3.83.5,4,4,0,0,1,1.29,3.15c0,1.13-.28,2.25-.35,3.38,0,.29.1.67.45.65a.61.61,0,0,0,.34-.14c1.71-1.19,2.13-3.17,2.3-5a4.45,4.45,0,0,0-.17-2.14,6,6,0,0,0-1.95-2.15,6.17,6.17,0,0,0-3.93-1.79,4.14,4.14,0,0,0-2.78,1.29A6.61,6.61,0,0,0,108.12,242.61Z"/><path d="M111.45,252.74c-.93,3.27-.1,7.64,0,11a16.56,16.56,0,0,0,3.06,9.56c.38.5,1.14,1,1.56.52a1.14,1.14,0,0,0,.19-.47,12.31,12.31,0,0,0,0-3.43l-1.06-13.15a5.31,5.31,0,0,0-.46-2.09C114.44,254.09,115,251.84,111.45,252.74Z"/><path d="M112,250.09h-.09a.45.45,0,0,1-.35-.53l.32-1.6a5,5,0,0,0,.13-2.17,1.24,1.24,0,0,0-.53-.82.54.54,0,0,0-.65.07.44.44,0,1,1-.72-.51,1.4,1.4,0,0,1,1.81-.34,2.09,2.09,0,0,1,1,1.39,6.08,6.08,0,0,1-.12,2.56l-.33,1.6A.45.45,0,0,1,112,250.09Z"/><g id="Artwork_65" data-name="Artwork 65"><g class="cls-19"><g class="cls-19"><path d="M103.84,257.76a3.3,3.3,0,0,0,1.1,2.21,1.55,1.55,0,0,0,1.2.45,2,2,0,0,0,1.23-.62,2,2,0,0,0,.19-2.42,3.24,3.24,0,0,0-.94-1,2.32,2.32,0,0,0-1.09-.46,1.51,1.51,0,0,0-1.24.48,1.73,1.73,0,0,0-.46,1.27.36.36,0,0,0,.39.36c.2,0,.45-.21.43-.42a1.92,1.92,0,0,1,0-.24s0-.12,0-.05l0-.11a.64.64,0,0,1,0-.07s.06-.12,0-.05a2.39,2.39,0,0,1,.13-.21c0,.07,0-.05.07-.07s.11-.07,0,0l.08-.05s.1-.05,0,0h0s.12,0,0,0h.29l.11,0c.11,0-.06,0,0,0a2.32,2.32,0,0,1,.41.22l.06,0,.07.05.23.18a3.16,3.16,0,0,1,.35.39,1.77,1.77,0,0,1,.36.86c0-.06,0,.07,0,.07v.12s0,.07,0,.1,0,.1,0,.05a.89.89,0,0,1-.17.41s-.08.11,0,0l-.09.1a.39.39,0,0,1-.1.08h0a1.27,1.27,0,0,1-.22.13l-.06,0-.11,0h-.19c.07,0-.07,0-.06,0s-.13,0-.07,0a1,1,0,0,1-.38-.23,3,3,0,0,1-.65-.85.16.16,0,0,0,0-.07l0-.08s0,0,0,0a2,2,0,0,1-.08-.26,4.31,4.31,0,0,1-.1-.61c0-.21-.29-.31-.49-.25a.45.45,0,0,0-.31.5"/><path d="M104.24,257.63a2.85,2.85,0,0,0,.84,1.89,1.28,1.28,0,0,0,2.21-.24,1.59,1.59,0,0,0,0-1.47,2.79,2.79,0,0,0-.92-1.1,1.58,1.58,0,0,0-1.35-.38,1.27,1.27,0,0,0-.79,1.3"/><path d="M108.25,259.74a1.93,1.93,0,0,1,0,.24s0,.09,0,0,0,0,0,0l0,.11a.61.61,0,0,1,0,.12s0-.09,0,0l0,.06-.06.1,0,.06s0,.07,0,0,0,0,0,0l0,0-.09.1-.1.08c.07-.08,0,0,0,0l0,0a.41.41,0,0,1-.11.07l-.05,0s-.08,0,0,0l-.25.08a.44.44,0,0,0-.32.49.38.38,0,0,0,.49.24,2,2,0,0,0,1.56-1.93.37.37,0,0,0-.11-.27.39.39,0,0,0-.28-.09c-.2,0-.45.2-.43.41"/></g></g></g><path d="M201.47,338.84c2.46,2.36,5,4.78,6.54,7.81a20.57,20.57,0,0,1,2,6.7c1.68,12.82-5.31,25-8.5,37.51-.45,1.78-.81,3.74,0,5.38a6.89,6.89,0,0,0,2.32,2.42c2.43,1.69,5.65,2.8,8.33,1.54a11,11,0,0,0,3.85-3.75,65.85,65.85,0,0,0,5.9-9,66.32,66.32,0,0,0,3.31-8.27l3.94-11.28c2.07-5.91,4.16-12.15,3.06-18.31a20.77,20.77,0,0,0-11.76-14.69,26.87,26.87,0,0,0-19.08-1c-.92.29-2,.75-2.18,1.68C198.88,336.92,200.47,337.88,201.47,338.84Z"/><path d="M173.66,332c-5.79,4.05-12.09,8.88-13.1,15.87a23.94,23.94,0,0,0,.33,7.06,146.94,146.94,0,0,0,13.18,41.89c.81,1.67,1.75,3.42,3.38,4.32,2.9,1.61,6.45-.16,9.28-1.89a5.12,5.12,0,0,0,2-1.76,5,5,0,0,0,.14-3.17q-2.64-15.16-6.64-30a39.68,39.68,0,0,1-1.71-8.73,12.57,12.57,0,0,1,2.36-8.39,18.6,18.6,0,0,1,5.34-4.11l11.88-7C191.56,330.87,179.57,327.89,173.66,332Z"/><path class="cls-17" d="M171,340.78l-2.28-5.89c-.19-.49,0-1.12.41-1.12h57.61c.36,0,.59.58.43,1.07l-1.9,5.89c-.08.26-.24.41-.42.41H171.39A.47.47,0,0,1,171,340.78Z"/><path class="cls-15" d="M176.71,275.53a67.38,67.38,0,0,0-18.77,21.63c-1.75,3.21-3.27,6.69-3.27,10.35,0,5,2.81,9.57,5.54,13.8l6.33,9.83a16.76,16.76,0,0,0,4.51,5.23c1.95,1.26,4.71,1.59,6.51.12,2.76-2.25,1.6-6.64.19-9.92l-6.63-15.48a6.59,6.59,0,0,1-.7-2.47,6.3,6.3,0,0,1,.86-2.86,46.58,46.58,0,0,1,6.39-9.51,167.83,167.83,0,0,0-1.8,34.1c.07,1.51.3,3.29,1.64,4a4.45,4.45,0,0,0,2.24.3c11.42-.45,26.2-.9,37.62-1.35a3.17,3.17,0,0,0,1.75-.43c.71-.55.63-1.6.8-2.48,2-10.49.64-18.05-1.11-32.91,1.1-.65,2.07,3.26,3.34,5.51,2.73,4.86,2.6,7.36.86,12.66s-4.14,10.58-3.93,16.15a3,3,0,0,0,.49,1.81c1.12,1.41,3.37.21,4.63-1.09a56.53,56.53,0,0,0,12.17-18.9,15,15,0,0,0,1.33-6.49c-.19-2.5-1.45-4.77-2.68-7L227.62,287c-2-3.62-4.28-7.45-8-9.32a19.37,19.37,0,0,0-6.51-1.63A177.61,177.61,0,0,0,176.71,275.53Z"/><path class="cls-20" d="M192.25,284.13c-1.38-2.52-4.12-3.5-6.68-3.82s-5.2-.18-7.58-1.28a3.18,3.18,0,0,1-1.83-1.75c-.47-1.38.39-2.88,1.36-3.84,2.64-2.63,6.21-3.52,9.63-4.23,9.11-1.9,17.63-3.57,26.24.4,1.9.88,3.3,2.45,4.92,4.07,1.87,1.87,4.61,3.86,2.64,6.21s-7,1.71-9.64,2.34-4.57,3-6.93,4.39C200.2,289.09,194.47,288.22,192.25,284.13Z"/><path class="cls-20" d="M185.49,278.39c2.14.16,3.78,1.92,5,3.68s2.36,3.73,4.25,4.73a15.71,15.71,0,0,1,1.48.74c.49.31,1.24.53,1.57,1,1.26,1.82,1.11,4.38,1.23,6.59a276.27,276.27,0,0,1-.17,34.53,14,14,0,0,0,.39,5.66l3.1-.11a51.72,51.72,0,0,0,.42-8.62c-.09-2.48-.36-5-.51-7.43s-.18-4.93-.21-7.39l-.27-20.64a6.38,6.38,0,0,1,1.61-3.49c4.27-2.55,4.65-5.1,4.65-5.1s.55-1.86,3.9-3.4c.33-.15.17-.72,0-1.07-.34-.93-1.7-.82-2.74-.66,0,0,0,0,0-.17-3.79.49-7.61-.39-11.43-.49A48.64,48.64,0,0,0,185.49,278.39Z"/><path d="M184.06,271.17c-1.57,1.18-3.6,2-5.48,1.47s-3.22-3-2.14-4.6c-3.15-.11-6.59-.35-8.87-2.52s-2-7,1.12-7.6c-2.23-2.19-4.4-4.8-4.61-7.92s2.58-6.53,5.61-5.77a7.46,7.46,0,0,1,8.5-12.17,14,14,0,0,1,11.35-5.21c-.86-2.23.78-4.72,2.81-6a10,10,0,0,1,15,6.64,10.16,10.16,0,0,1,14,12.6c2.62-.8,5.35,1.8,5.54,4.53s-1.42,5.28-3.33,7.24c3.26,1.07,4.55,5.38,3.32,8.58s-4.26,5.37-7.38,6.8c.93,2.24-.66,4.89-2.83,6s-4.72,1-7.15,1a11.61,11.61,0,0,1-15.83-.67c-2.05.92-4.19,1.85-6.43,1.7S182.77,273.49,184.06,271.17Z"/><path class="cls-21" d="M181.31,244.16a58.89,58.89,0,0,0-.83,11.17c-7.31-11.48-8.56,12.51,1.55,8.9a18,18,0,0,0,9.83,9.93c-.82,7.2,5.73,5.83,10.33,5.19,3.31-.88,3.62-3.85,3.05-6.19,4.63-3.08,5.4-3.24,7.08-9.89,8.58,2.25,7.44-18-.26-8.85.36-3.75-.44-12.08-2.3-15.09C201.44,238.14,187,237.43,181.31,244.16Z"/><path d="M179.76,244.85c.22,2.71,3.72,4.11,6.29,3.24s4.37-3.16,6-5.33a5.93,5.93,0,0,0,6.57,2.41,9.59,9.59,0,0,0,5.61-4.71,6.07,6.07,0,0,0,3.43,4.19,4.41,4.41,0,0,0,5.07-1.25c1.5-2,.54-5.09-1.43-6.63s-4.61-1.91-7.11-2a42.41,42.41,0,0,0-14.07,1.93C185.62,238.13,179.42,240.64,179.76,244.85Z"/><path d="M200.13,247.4a3.89,3.89,0,0,0,2.35,2.64,5.85,5.85,0,0,0,4.14,0,.91.91,0,0,0,.63-1.1.9.9,0,0,0-1.1-.62,8.19,8.19,0,0,1-.81.23,3,3,0,0,1-.69.09h-.77a5.67,5.67,0,0,1-.71-.2c-.13,0,.11.06,0,0l-.14-.07a3.07,3.07,0,0,1-.31-.17l-.13-.09h0l-.26-.24-.1-.12s-.11-.13,0-.05l-.07-.1-.07-.13c0-.06-.13-.3-.08-.13,0-.13-.08-.25-.11-.37a.9.9,0,0,0-1.1-.63.92.92,0,0,0-.62,1.1Z"/><path d="M185.61,250.58a4.14,4.14,0,0,0,2.17.33,9.38,9.38,0,0,0,2.14-.56c1.14-.43,2.47-1,3-2.17a.92.92,0,0,0-.32-1.22.89.89,0,0,0-1.22.32,2.85,2.85,0,0,1-.16.3c0,.06-.06.1,0,0l-.12.12a2.61,2.61,0,0,1-.24.23c.07-.06,0,0,0,0l-.15.1a6.19,6.19,0,0,1-.63.32s-.12.05,0,0l-.16.06-.4.15a9.37,9.37,0,0,1-1.64.49,2.66,2.66,0,0,1-1.29-.07.91.91,0,0,0-1.22.32.89.89,0,0,0,.32,1.22Z"/><path class="cls-13" d="M186.77,254.1l-.28.19a1.69,1.69,0,0,0-.51,2.21,2.14,2.14,0,0,0,1.86.63c1-.05,2.07-.3,3.12-.28a9.71,9.71,0,0,0,2.69,0,1.11,1.11,0,0,0,.72-.58,2,2,0,0,0,.22-1,2.14,2.14,0,0,0-.83-1.61,4.33,4.33,0,0,0-3.24-.38l-1.67.24A5.6,5.6,0,0,0,186.77,254.1Z"/><path d="M210.5,245.75a39.83,39.83,0,0,1,.78,10.22,46.5,46.5,0,0,1-1,9.78c-1.68,6.45-9.32,8.61-15.24,8-1.15-.11-1.14,1.68,0,1.79,6.29.61,14.28-1.77,16.63-8.27,1.18-3.25,1.18-7.07,1.34-10.49a42.46,42.46,0,0,0-.81-11.53c-.25-1.13-2-.65-1.72.47Z"/><path d="M215.61,255.56a2.52,2.52,0,0,0-1.75,1.5,5.83,5.83,0,0,0-.27,2.87.45.45,0,0,0,.44.45.45.45,0,0,0,.45-.45,5.5,5.5,0,0,1,.15-2.42,1.7,1.7,0,0,1,1.21-1.09.45.45,0,1,0-.23-.86Z"/><path d="M177.18,257a2.94,2.94,0,0,1,1.75,3.13.45.45,0,1,0,.86.23,3.82,3.82,0,0,0-2.37-4.22.44.44,0,0,0-.55.31.45.45,0,0,0,.31.55Z"/><path d="M197.42,255.86c.81,1.2,1.59,2.44,2.3,3.71.17.31.7,1.31,0,1.46a1.47,1.47,0,0,1-.76-.18,4.08,4.08,0,0,0-.85-.22c-.28,0-.51.32-.43.57.29.85-1.6,1.76-1.85.71-.13-.56-1-.32-.86.24a1.6,1.6,0,0,0,2.17,1c.84-.32,1.73-1.22,1.4-2.19l-.43.56c.71.1,1.32.63,2,.3a1.49,1.49,0,0,0,.7-1.78,9.56,9.56,0,0,0-1.2-2.28c-.48-.8-1-1.58-1.51-2.35-.32-.48-1.1,0-.77.45Z"/><path d="M188.61,262.5a2.75,2.75,0,0,1,.27,2.46,2.49,2.49,0,0,1-1.66,1.42c-.56.13-.33,1,.23.86a3.35,3.35,0,0,0,2.23-1.89,3.64,3.64,0,0,0-.3-3.3c-.28-.5-1-.05-.77.45Z"/><path d="M188.73,265.69c2.61,2.21,6.1,2.55,9.38,2.15.56-.07.57-1,0-.89-3,.37-6.33.16-8.75-1.89-.44-.37-1.07.26-.63.63Z"/><path class="cls-22" d="M198.17,267.21a2.14,2.14,0,0,0,.08-2,1.26,1.26,0,0,0-.9-.54,1.63,1.63,0,0,0-1.4.72,3.73,3.73,0,0,0-.57,1.53.42.42,0,0,0,0,.27c.07.15.28.17.45.17a14.42,14.42,0,0,0,2.17-.25"/><path d="M198.55,267.43a2.81,2.81,0,0,0,.27-2.12,1.69,1.69,0,0,0-1.75-1.13,2.28,2.28,0,0,0-1.73,1.3,5,5,0,0,0-.35,1.08,1.57,1.57,0,0,0-.06.61.71.71,0,0,0,.49.53,1.94,1.94,0,0,0,.59.05l.67-.05a14.43,14.43,0,0,0,1.45-.2.45.45,0,0,0,.31-.55.47.47,0,0,0-.55-.32,12.14,12.14,0,0,1-1.91.22h-.29c.09,0,0,0,0,0s0,0,0,0a.38.38,0,0,1,.11.14s0,.07,0,0,0-.08,0-.12a5.77,5.77,0,0,1,.23-.84l.06-.12.1-.19a1.06,1.06,0,0,1,.22-.29,1.44,1.44,0,0,1,.53-.35l.09,0s.11,0,0,0h.27l.09,0,.05,0a.56.56,0,0,1,.17.09s.08.06.05,0l0,0,.08.08h0a.72.72,0,0,1,.11.19s0,.07,0,0a.56.56,0,0,1,0,.12s0,.06,0,.09,0-.06,0,.05a1.61,1.61,0,0,1,0,.22v.09s0,.14,0,.06a2.13,2.13,0,0,1-.1.42,1.87,1.87,0,0,1-.07.22l0,.1,0,.06a.45.45,0,0,0,.16.61.44.44,0,0,0,.61-.16Z"/><path d="M192.17,255.82c.14.15.87,1,.54,1.16a.42.42,0,0,1-.19,0h-3.17c-.25,0-.07-.55,0-.69a1.55,1.55,0,0,1,.46-.67,1.69,1.69,0,0,1,1.56-.33A2.2,2.2,0,0,1,192.17,255.82Z"/><path class="cls-13" d="M208,253.68a2.27,2.27,0,0,1,.25.18,1.52,1.52,0,0,1,.46,2,2,2,0,0,1-1.69.57c-.94,0-1.88-.28-2.83-.25a9.14,9.14,0,0,1-2.45,0,1,1,0,0,1-.65-.53,1.82,1.82,0,0,1-.2-.92,1.9,1.9,0,0,1,.75-1.46,3.92,3.92,0,0,1,2.95-.36l1.52.22A5.48,5.48,0,0,1,208,253.68Z"/><path d="M203.06,255.25c-.13.13-.79.9-.49,1.05a.47.47,0,0,0,.17,0h2.88c.23,0,.06-.49,0-.62a1.37,1.37,0,0,0-.42-.61,1.5,1.5,0,0,0-1.41-.3A1.85,1.85,0,0,0,203.06,255.25Z"/><path class="cls-17" d="M172.6,341.14,170,309.63a1.45,1.45,0,0,1,1.44-1.57h54.28a1.45,1.45,0,0,1,1.44,1.62l-3.64,31.46Z"/><path class="cls-23" d="M295.63,385.29a4.64,4.64,0,0,0-.51-.11,1.14,1.14,0,0,0-.58,0,1.22,1.22,0,0,0-.44.34,14.41,14.41,0,0,0-2.6,5.26c-1.82,5.42-1,10.28.75,15.61,1.11,3.3,2.72,7,6.08,7.92a2.37,2.37,0,0,0,1.87-.15,2.9,2.9,0,0,0,1-2.16,27.71,27.71,0,0,0,0-7.61c-.35-2.71-1.11-5.36-1.37-8.08a11.94,11.94,0,0,1,1.56-7.88c0-.33-2.79-1.84-3.17-2.06A10.52,10.52,0,0,0,295.63,385.29Z"/><path class="cls-23" d="M312.74,386.06c-1.65.11-3.19.55-3.86,1.67a18.76,18.76,0,0,0-1.68,5,19.67,19.67,0,0,0-.44,5.41c.29,5.14,2.49,11.19,6.56,14.52a4.67,4.67,0,0,0,2.12,1.11,3.45,3.45,0,0,0,3.38-2.22,5.74,5.74,0,0,0,.1-2.41c-.36-2.92-1.4-5.69-2.07-8.54a12.37,12.37,0,0,1,.35-7.61,24.06,24.06,0,0,0,1.12-5.38,1.26,1.26,0,0,0-.19-1,1.24,1.24,0,0,0-.73-.31A22,22,0,0,0,312.74,386.06Z"/><path class="cls-17" d="M315.61,347.16c.61.45-1.55,8.95-1.74,10-.6,3.43-.9,7.11-1.82,10.47-1.63,6-3.17,11.83-3.44,18.16a4,4,0,0,0,.14,1.51,3.41,3.41,0,0,0,1.11,1.42,9.47,9.47,0,0,0,6.43,2.19,2.47,2.47,0,0,0,1.39-.38c.79-.6,1.57-3.74,2.06-4.74.93-1.92,1.84-3.85,2.71-5.79q2.64-5.82,4.94-11.77a225.46,225.46,0,0,0,7.72-23.76c1.06-4,2-8.39.2-12.17-2.87-6.11-11.13-7.86-18.24-8.7-2.83-.33-6.16-.49-8.07,1.48a6.66,6.66,0,0,0-1.57,3.85C306.52,335.76,309.85,342.89,315.61,347.16Z"/><path class="cls-17" d="M268.94,329.45c.11,3.62,2.65,6.85,5.83,8.59a21.75,21.75,0,0,0,10.52,2.19c2.29,0,4.68-.17,6.8.71,13.31,5.47,2.52,27.94.09,36.61a21.24,21.24,0,0,0-1,5.21,7.2,7.2,0,0,0,1.58,4.95,9.23,9.23,0,0,0,4,2.33c2.3.8,4.35,1.17,5.71-.92,1.2-1.86,1.88-4.38,2.76-6.42,1.88-4.39,3.76-8.78,5.54-13.21a181.83,181.83,0,0,0,9-27.34c1.09-4.84-.66-9.29-3.61-13.27-2.77-3.72-7.85-4.7-12.45-5.28-10.15-1.28-20.75-1.9-30.35,1.65C271.57,325.91,267.7,328.59,268.94,329.45Z"/><g class="cls-24"><path class="cls-25" d="M278.41,259.13c-4.36.47-8.21,2.91-11.89,5.28-2.43,1.56-3.55,3.16-5.39,5.37a29.59,29.59,0,0,0-6.23,13.42q-1.18,6.87-2.15,13.77a17.33,17.33,0,0,0-.24,4.37c.44,3.73,3.15,6.73,5.73,9.46a1.86,1.86,0,0,0,1.24.75,2,2,0,0,0,1-.47,30.39,30.39,0,0,1,11-4.87c-1.4-3.25-5-5.64-5-9.18a10.06,10.06,0,0,1,1.56-4.71l3.1-5.84a1.64,1.64,0,0,1,.57-.7,1.09,1.09,0,0,1,1.41.6,3.25,3.25,0,0,1,.16,1.7l-2.07,22.63c-.36,3.92-.74,7.9-2.24,11.54-.77,1.89-1.83,4.09-.74,5.8,1.33,2.09,4.45,1.51,6.83.83a59.35,59.35,0,0,1,20.79-2.18,52.74,52.74,0,0,0,8.6.37c4.16-.38,8.06-2.17,11.85-3.93a7.26,7.26,0,0,0,2.52-1.63,6.93,6.93,0,0,0,1.26-3c3.43-14.59,1.81-26.55-2.41-40.93-.59-2-3.48-5.74-4.65-7.52a15.86,15.86,0,0,0-5.29-4.81,43.82,43.82,0,0,0-21.58-6.65A50.71,50.71,0,0,0,278.41,259.13Z"/></g><path d="M307.2,280.62a57,57,0,0,1,2.47,12.14c.08.85,1.42.86,1.34,0a58.48,58.48,0,0,0-2.52-12.5c-.26-.82-1.55-.47-1.29.36Z"/><path d="M315.26,329.31a10,10,0,0,1,5.74,9.15c0,4.39-2.27,8.7-3.8,12.72-3.18,8.35-6.31,16.72-9.74,25-2,4.71-4,9.39-6.23,14-.37.77.79,1.46,1.16.68,4.1-8.52,7.66-17.29,11.07-26.1,1.72-4.45,3.41-8.92,5.11-13.38,1.62-4.27,3.95-8.82,3.76-13.5a11.33,11.33,0,0,0-6.39-9.69c-.78-.36-1.46.79-.68,1.16Z"/><path class="cls-26" d="M293.27,322.16a.73.73,0,0,0-.25.12c-.41.32-.3,1.24-.94,1.66a5,5,0,0,1-1.9.6,80.24,80.24,0,0,1-15.08,1.1,2.22,2.22,0,0,0-1.18.2c-.63.39-.67,1.27-.64,2a2,2,0,0,0,.5,1.53,2,2,0,0,0,1.25.31c20.13.51,40.19-.26,60.34-.62.8,0,9.57-.14,9.57-.17,0-1.82-1.88-3.42-4.11-4.22a25.52,25.52,0,0,0-7.22-1.09c-7.31-.4-14.63-.69-21.95-.92q-5.52-.18-11-.31l-5.53-.14A7,7,0,0,0,293.27,322.16Z"/><path class="cls-27" d="M302.11,321.55c-3.09-3-7.78-3.43-11.49-5.59s-5.72-3.41-9.27-5.32c-3-1.62-5.85-3.57-9.15-4.49s-9.05-.22-11.76,1.88c-5.4,4.18,3.27,7.27,6.29,8.22a81.34,81.34,0,0,1,11.53,4.62c3,1.46,5.91,3.12,9.18,3.62a14.64,14.64,0,0,1,2.55.45,2.91,2.91,0,0,1,1.89,1.63c.2.57.15,1.2.35,1.77s.87,1.05,1.38.74a1.38,1.38,0,0,0,.46-1.17c0-.29.22.46.5.52a4.69,4.69,0,0,1,.8.34,1.5,1.5,0,0,0,1.86-.79,1.15,1.15,0,0,0,2.1-.68c.55.43,1.26.88,1.9.59s.77-1,.85-1.71a14,14,0,0,0-.08-4.75,5.51,5.51,0,0,0-2.75-3.73c-1.48-.7-3.21-.46-4.85-.39s-3.49-.13-4.53-1.39"/><path class="cls-27" d="M259.35,312.08h0"/><path class="cls-26" d="M286.82,256.33c-1.42-1.19-3.55-.53-5.14.2s-3,1.41-3.7,2.75a6.1,6.1,0,0,0-.28,3.77,29.69,29.69,0,0,0,9.42,16.84,4.24,4.24,0,0,0,1.51,1,3.43,3.43,0,0,0,1.88,0c3.56-.85,5.81-4,6.59-7.28a9,9,0,0,0,.13-4.09c-.56-2.5-2.49-4.64-4.35-6.66A67.7,67.7,0,0,0,286.82,256.33Z"/><path class="cls-27" d="M314.35,236c1.43,5.35.54,11.1-1.35,16.31a25.35,25.35,0,0,1-5.43,9.24A13.81,13.81,0,0,1,298,266a6.13,6.13,0,0,0-2.6.28c-2.44,1.13-1.92,5.5-4.46,6.42a3.8,3.8,0,0,1-2.26-.06,10.43,10.43,0,0,1-7-12.54,4.28,4.28,0,0,0,.32-1.85,4.56,4.56,0,0,0-1.33-2.07,10,10,0,0,1-1.59-9.08,20,20,0,0,1,5-8.06c4-4.25,9.18-7.7,15-8.59S313,230.82,314.35,236Z"/><path d="M283.38,241.3a3,3,0,0,1,3.09,1c1,1.36,1.27,3.26,2.49,4.54,2.23,2.35,3-1.5,3.35-3.18s.79-2.43,2.3-2.78c1.29-.29,2.39,0,3.31-1.23a15.93,15.93,0,0,0,2.31-5c1.08-.26,1.59,1.34,1.59,2.49l0,6.07a.38.38,0,0,0,.51.35,6.57,6.57,0,0,0,2.34-1.81,8.63,8.63,0,0,0,.9-1.25,2.67,2.67,0,0,0,.24-.61c.1-.3.27-.6.4-.89s.18-.39.29-.58a2.36,2.36,0,0,1,.28-.42.62.62,0,0,1,.18-.18.42.42,0,0,1,.48.2,1.1,1.1,0,0,1,.12.54,2,2,0,0,1,0,.55c-.24,1.29-.26,2.62-.57,3.92a9.33,9.33,0,0,0-.24,1.17c-.15,1.18,2-.49,2.24-.74a8.5,8.5,0,0,0,1.32-2.64c0-.09.42-1,.42-1a3.24,3.24,0,0,1,.82,2.67c-.07,1-.35,1.9-.35,2.86.67.31,1.62,1.1,2.12.5a8.15,8.15,0,0,0,.78-2.58,33,33,0,0,0,1.2-5.71c.22-3.6-2.08-7.74-4.56-10.29a14.79,14.79,0,0,0-5.38-3.27,26.6,26.6,0,0,0-19.75,0,22.18,22.18,0,0,0-12.92,15c-1.43,6.13.25,16.89,7.5,18.48a4.07,4.07,0,0,0,1.59.09,3,3,0,0,0,2.24-2.32c.78-3.22-2.91-3.62-3.33-6.72a13.51,13.51,0,0,1,.6-5.11,3,3,0,0,1,1.17-1.66A2.65,2.65,0,0,1,283.38,241.3Z"/><path d="M280.69,229.49a5.7,5.7,0,0,1-6.5-3.15,7.57,7.57,0,0,1,1-7.44,11.39,11.39,0,0,1,6.54-4.09A10,10,0,0,1,290,216c2.31,1.71,3.38,5.19,1.83,7.61a8.8,8.8,0,0,1-3.64,2.8A48.8,48.8,0,0,1,280.69,229.49Z"/><path class="cls-26" d="M263,314a2.53,2.53,0,0,0,1.54-1,15.27,15.27,0,0,1,6.59-5.5,4,4,0,0,0,1.24-1.2c.5-.83,0-2-.49-2.85a4.07,4.07,0,0,0-1.68-1.57c-1.1-.53-2.53.23-3.61.78-2.78,1.43-5.61,3.15-7.41,6.13a9.26,9.26,0,0,0-.9,2.12,3.46,3.46,0,0,0,.81,2.19c.45.67,1.33.45,1.92.91C261.34,314.27,262.28,314.07,263,314Z"/><path class="cls-26" d="M301.44,325.43l8-31.27a2.65,2.65,0,0,1,2.66-2l38.7,1.35a2.63,2.63,0,0,1,2.47,3.27l-8,31.26a2.64,2.64,0,0,1-2.65,2L303.9,328.7A2.62,2.62,0,0,1,301.44,325.43Z"/><path d="M296.93,245.29a3.94,3.94,0,0,1,2.21-.48l.35,0s.28,0,.16,0c.23,0,.46.08.69.13.46.11.91.25,1.35.4a.89.89,0,0,0,1.1-.62.91.91,0,0,0-.62-1.1,7.41,7.41,0,0,0-6.15.1.89.89,0,1,0,.91,1.54Z"/><path d="M307.73,247.87a4,4,0,0,1,.59.17l.14.06c-.25-.1-.08,0,0,0l.28.14a5,5,0,0,1,.49.31s.18.14.06,0,0,0,.05,0l.22.21a3.35,3.35,0,0,1,.41.43l.09.11c-.17-.2,0-.06,0,0l.17.25c.11.18.2.36.29.54s0,.21,0,0l0,.12a2.83,2.83,0,0,1,.11.31.89.89,0,1,0,1.72-.47,5.77,5.77,0,0,0-4.14-4,.9.9,0,0,0-.47,1.73Z"/><path d="M283.65,243.93a4.72,4.72,0,0,1,.92,5.13.46.46,0,0,0,.16.61.44.44,0,0,0,.61-.16,5.64,5.64,0,0,0-1.06-6.21c-.4-.41-1,.22-.63.63Z"/><path d="M302.85,251.68a10.13,10.13,0,0,1-.27,3.8,3.72,3.72,0,0,1-.35.76c-.09.16-.25.49-.45.55-.49.14-.65-.78-.72-1.06a.45.45,0,0,0-.86,0c-.07.45-.73.47-1.08.39a.93.93,0,0,1-.76-1,.47.47,0,0,0-.32-.55.45.45,0,0,0-.55.31,1.83,1.83,0,0,0,1.39,2.08c.79.2,2-.05,2.18-1h-.86c.15.71.43,1.47,1.2,1.68s1.36-.48,1.7-1.12a9.09,9.09,0,0,0,.64-4.84c0-.58-.93-.58-.89,0Z"/><path d="M290.35,256.08l.09,0a.88.88,0,0,1,.21.12,1.94,1.94,0,0,1,.32.32,2.59,2.59,0,0,1,.45,2.51.45.45,0,0,0,.31.55.45.45,0,0,0,.55-.31,3.45,3.45,0,0,0-.11-2.47c-.34-.81-1.08-1.74-2.06-1.6a.45.45,0,0,0-.31.55.47.47,0,0,0,.55.31Z"/><path d="M292,257.43a6.48,6.48,0,0,1,3.85.13,2.75,2.75,0,0,1,1.73,2.34.45.45,0,0,0,.9,0,3.59,3.59,0,0,0-2.1-3.07,7.2,7.2,0,0,0-4.61-.26c-.57.11-.33,1,.23.86Z"/><path d="M294.43,259.19h.21a.7.7,0,0,0,.14,0l.15,0,.06,0h0l.14.07.12.09c.07,0-.05-.05,0,0l.06.05a.94.94,0,0,1,.1.1l.05.06s-.06-.09,0,0a1.28,1.28,0,0,1,.15.25s.05.09,0,0,0,0,0,0,0,.11.05.16a.59.59,0,0,1,0,.13c0,.09,0-.11,0,0s0,.05,0,.08a.45.45,0,0,0,.89,0,2,2,0,0,0-2.12-2,.45.45,0,0,0-.45.45.45.45,0,0,0,.45.44Z"/><path class="cls-13" d="M299.81,248.11a4,4,0,0,1,.31.27,2.21,2.21,0,0,1,.41,2.88.91.91,0,0,1-.29.26,1.4,1.4,0,0,1-.92-.05c-.74-.21-1.5-.41-2.25-.6s-1.22-.28-1.81-.49a1.57,1.57,0,0,1-1.07-1.12,1.48,1.48,0,0,1,.74-1.57,3.66,3.66,0,0,1,1.95-.47A5,5,0,0,1,299.81,248.11Z"/><path class="cls-13" d="M309.93,252.07a2.44,2.44,0,0,1,.08,3.19.71.71,0,0,1-.3.21,1.11,1.11,0,0,1-.82-.17c-.63-.32-1.28-.61-1.92-.91s-1.05-.45-1.54-.73a1.47,1.47,0,0,1-.77-1.25,1.59,1.59,0,0,1,.95-1.44,3.14,3.14,0,0,1,1.85-.18A4.12,4.12,0,0,1,309.93,252.07Z"/><circle cx="299.2" cy="250.95" r="0.89"/><circle cx="309.04" cy="254.53" r="0.89"/><path d="M273.08,286c1.59-2.24,2.54-4.84,4-7.16.46-.73-.7-1.41-1.16-.67-1.44,2.31-2.39,4.92-4,7.15a.68.68,0,0,0,.24.92.7.7,0,0,0,.92-.24Z"/><rect class="cls-28" x="102.4" y="172.47" width="40.01" height="4.47" rx="2.02"/><circle cx="200.08" cy="104.04" r="3.58"/><path d="M297.7,266.65a13,13,0,0,1-1.95-.15,12.56,12.56,0,0,1-8.35-5.33.9.9,0,1,1,1.45-1.05,10.68,10.68,0,0,0,7.17,4.61,12.73,12.73,0,0,0,9.23-2.36,17.78,17.78,0,0,0,5-6.64c2.72-5.5,3.13-11.49,3.35-17.65a.89.89,0,0,1,1.78.06c-.22,6.37-.65,12.56-3.53,18.38a19.47,19.47,0,0,1-5.54,7.28A14.88,14.88,0,0,1,297.7,266.65Z"/><path d="M106.6,256.88a2.79,2.79,0,0,0-1.52-.85,6.23,6.23,0,0,0-1.83,0,1,1,0,0,0-.64.26.94.94,0,0,0-.26.64.92.92,0,0,0,.26.63.9.9,0,0,0,.64.26,5.86,5.86,0,0,1,1.45,0l-.24,0a3.15,3.15,0,0,1,.62.17l-.21-.09a2,2,0,0,1,.4.24l-.18-.14a1.79,1.79,0,0,1,.25.23.9.9,0,0,0,1.26,0,.91.91,0,0,0,0-1.26Z"/><path d="M394.47,369.3a10.47,10.47,0,0,0-1.75,18.6c-6.14,2.76-8,12.48-3.23,17.35-3.57,2.62-7.32,5.52-8.84,9.77s.42,10.11,4.73,10.76c-3.68,2.14-6.77,7.33-4.07,10.66.63.77,1.49,1.3,2.11,2.08,1.75,2.14,1.21,5.43.07,8s-2.81,5-3.13,7.77a3.43,3.43,0,0,0,.23,2,3.52,3.52,0,0,0,2.39,1.58,12.1,12.1,0,0,0,12.24-4.3,13.28,13.28,0,0,0,1.47-13.4c1.5-2.48,3-5.1,3.22-8s-1.54-6.17-4.32-6.54a11.78,11.78,0,0,0,8.43-8.05A12.25,12.25,0,0,0,401.39,406a12.59,12.59,0,0,0,8.7-6.44c1.65-3.42,1.11-8-1.74-10.42A14.87,14.87,0,0,0,416.41,377c.23-5.15-3.05-10.4-7.83-11.72C402.75,363.63,397.25,368.26,394.47,369.3Z"/><path class="cls-29" d="M357.88,381.61c11.61-.25,20.21,3.41,31,7.79,1.88.77-35.54,86.24-48.68,89.36.29-19.52,12.63-36.62,25.32-51.45a48.46,48.46,0,0,1,5.8-6,44.17,44.17,0,0,1,8.16-5.07C399.63,406,422,401,444.48,399.42c18.8-1.32,41-2,57.2,9.18,16.65,11.47,29,28.53,33.77,48.3a106.9,106.9,0,0,1,2.42,15.51c2.15,24.35-1.46,48.8-5,73-1.14,7.62-5,7-11.27,7.66-7.92.81-15.82,1.75-23.74,2.58-16.18,1.68-32.39,3.17-48.63,4.15-32.32,2-64.89,1.87-97-2.77,0-25.4.83-25.94,8.81-47.4a80.82,80.82,0,0,1-38.43,26.54c-12.66,4-29.33,3.37-35.83-8.22-4.25-7.57-2.47-17-.16-25.36A272.59,272.59,0,0,1,357.88,381.61Z"/><path class="cls-16" d="M391.93,284.88c-10.35,17.56-10.22,39.5-6,59.44,2.44,11.45,6.25,22.86,13.25,32.24A45.22,45.22,0,0,0,417,391a35.59,35.59,0,0,0,5.31,1.87c1.18.32,4.69.32,5.46,1.28,1.23,1.53.2,5.32,1.14,7.33a11.15,11.15,0,0,0,6.28,5.44c3.9,1.4,8.19,1.05,12.3.59,4.6-.51,12.45-1.55,13.36-7.36.32-2-.95-4.36-.76-6.58a31.88,31.88,0,0,1,1.76-7.19,230.29,230.29,0,0,0,10.8-57.32c.46-7.68.52-15.46-1.11-23s-5.08-14.82-10.76-20c-6.27-5.73-14.75-8.45-23.14-9.76a85.85,85.85,0,0,0-34.52,1.69C398.55,279.24,394,281.3,391.93,284.88Z"/><path d="M464.18,378.43a10.47,10.47,0,0,0-1.74,18.6c-6.14,2.76-7.95,12.48-3.23,17.35-3.57,2.62-7.32,5.52-8.84,9.77s.42,10.11,4.73,10.76c-3.68,2.14-6.77,7.33-4.07,10.66.63.77,4.75,3.11,5.38,3.88,1.74,2.15-2.06,3.63-3.2,6.19s-2.81,5-3.13,7.78c-.08.66-2.42,1.14-2.12,1.73.45.9,3.8,1.56,4.74,1.8a12.1,12.1,0,0,0,12.24-4.3c2.86-3.68,4.75-8.37-2.5-13.2,1.51-2.48,7-5.3,7.19-8.22s-1.54-6.17-4.33-6.54a11.75,11.75,0,0,0,8.43-8.05,12.22,12.22,0,0,0-2.62-11.52,12.59,12.59,0,0,0,8.7-6.44c1.65-3.42,1.11-8-1.75-10.41a14.91,14.91,0,0,0,8.07-12.18c.23-5.15-3.05-10.4-7.83-11.72C472.47,372.76,467,377.39,464.18,378.43Z"/><path d="M393.14,304.05a14.21,14.21,0,0,1-3.6-.45,2.33,2.33,0,1,1,1.17-4.51,10.61,10.61,0,0,0,11.42-4.71,2.33,2.33,0,0,1,4,2.38A15.27,15.27,0,0,1,393.14,304.05Z"/><path d="M382,309.93c7-6.55,14.26-13.4,17.9-22.29.17-.42.32-.94,0-1.27a1.17,1.17,0,0,0-.77-.3,21,21,0,0,0-3.27,0c-3.24.17-6.77.44-9.18,2.62-3.07,2.77-3.17,7.44-3.34,11.56a87,87,0,0,1-1,10.31"/><path d="M451.19,328.12c-6.13-10.42-12.39-21.26-13.42-32.9,0-.54,0-1.2.47-1.45a1.63,1.63,0,0,1,1.07,0,29,29,0,0,1,4,1.37c3.94,1.56,8.19,3.36,10.32,6.86,2.71,4.44,1,9.79-.38,14.55a94.66,94.66,0,0,0-2.72,12.14"/><path d="M441,311.6l-.39,0a17.7,17.7,0,0,1-14.27-14.36,2.33,2.33,0,0,1,4.61-.72A13.12,13.12,0,0,0,441.34,307a2.33,2.33,0,0,1-.37,4.62Z"/><path class="cls-29" d="M385.12,293.42c-.29-8.31,32.6-3.82,43.8-.94,19.27,5,25.8,19.91,21.16,37.79-1.77,16-4.95,39.15,12.29,47.65,26.92,13.28,51.15-6.09,59.72-31.41,8-23.76,9.84-51.8-1.38-74.88-11.67-24-38-39.33-64.16-41.13a76,76,0,0,0-17.95.88c-55.44,9.44-76,68.8-61.63,117.9,2.75,9.35,9.3,20.16,20.18,20-14.86-22.56-18.77-52-9.61-77.42C387.54,291.93,386.31,291.16,385.12,293.42Z"/><path class="cls-30" d="M390.71,289.69c-4.14.9-8,1.42-12.15,2.32a2.36,2.36,0,0,0-1.24.53,2.4,2.4,0,0,0-.49,1.56c-.93,13.15-2.76,28.44.62,41.19.66,2.48,2.28,8.78,3,11.24,1.47,4.94,6.34,14.55,7.46,19.57-2.1-11.91-7-34.27-7.35-46.36-.17-5.41.55-8,1.76-13.28a44.67,44.67,0,0,1,8.38-16.77"/><path d="M427.07,394.69a30.77,30.77,0,0,1-9.78-1.6c-11.54-3.86-19.51-13.37-24.17-20.66a79.51,79.51,0,0,1-8.25-17.22c-5.89-17.42-6.11-40.65-.62-63.73a2.33,2.33,0,0,1,4.54,1.08c-5.3,22.26-5.12,44.55.5,61.16a74.26,74.26,0,0,0,7.76,16.2c4.25,6.66,11.47,15.33,21.72,18.75,9.45,3.17,20.14.52,25.41-6.3a2.33,2.33,0,1,1,3.69,2.85C443.16,391.3,435.35,394.69,427.07,394.69Z"/><path class="cls-13" d="M402.89,310.52a12.62,12.62,0,0,0-12.24.71C377.7,321.9,415.34,324,402.89,310.52Z"/><path class="cls-13" d="M434.06,315.43c-5-2.9-16.44-.76-12.14,6.72,4.53,3.9,20.3,5,16.23-4.47-1.32-1.43-3.37-1.92-5.06-2.81C432.71,314.69,432.05,314.68,434.06,315.43Z"/><circle cx="391.46" cy="314.19" r="3.56"/><circle cx="424.53" cy="318.17" r="3.56"/><path d="M414.52,344.13a5,5,0,0,1-4.32-2.4,5.55,5.55,0,0,1-1.25.9,3.82,3.82,0,0,1-1.65.47c-2.44.07-4-2.24-4.34-4.46a14.62,14.62,0,0,1,1-7.66,40.91,40.91,0,0,1,3.42-6.46,1.4,1.4,0,0,1,2.39,1.45,38.63,38.63,0,0,0-3.2,6,11.82,11.82,0,0,0-.85,6.19c.17,1.05.81,2.18,1.46,2.13a1.22,1.22,0,0,0,.48-.16,6,6,0,0,0,2.07-2.5,1.4,1.4,0,0,1,2.58,1,2.28,2.28,0,0,0,.69,2.13,2.34,2.34,0,0,0,2.2.45c.5-.17.84-.64.79-.84a1.4,1.4,0,0,1,2.72-.67,3.69,3.69,0,0,1-2.62,4.16A5,5,0,0,1,414.52,344.13Z"/><path class="cls-16" d="M367.06,381c3.5-6.74,4.12-15,9.15-20.73,4.5-5.09,11.61-7,18.38-7.58a4.73,4.73,0,0,1,2.48.25c.53.25,1,.69,1.48,1,2.2,1.2,5.25-.71,7.33.7,1.75,1.18,1.06,4.47-1,4.86a3.34,3.34,0,0,1,4.2,1.55,2.74,2.74,0,0,1-2,3.72,1.71,1.71,0,0,1,2.21,1.51,2.91,2.91,0,0,1-1.59,2.54,10.81,10.81,0,0,1-3,1,26.43,26.43,0,0,0-18.54,16.8,2.6,2.6,0,0,1-1,1.53,2.49,2.49,0,0,1-2-.09l-17.26-5.8A2.92,2.92,0,0,1,367.06,381Z"/><path d="M387.86,388.4l-.26,0a1.38,1.38,0,0,1-1.11-1.63,23.75,23.75,0,0,1,22.14-19.33,1.4,1.4,0,0,1,.14,2.79,21,21,0,0,0-19.54,17.06A1.39,1.39,0,0,1,387.86,388.4Z"/><path d="M392.4,371.3a1.4,1.4,0,0,1-1.17-2.17,8.76,8.76,0,0,1,4.22-3.16,25.75,25.75,0,0,1,4.77-1.23l6.36-1.21a1.39,1.39,0,1,1,.52,2.74l-6.36,1.22a23.63,23.63,0,0,0-4.27,1.08,6.23,6.23,0,0,0-2.91,2.1A1.37,1.37,0,0,1,392.4,371.3Z"/><path d="M389.43,366.3a1.48,1.48,0,0,1-.53-.11,1.4,1.4,0,0,1-.76-1.82c1-2.37,3.45-3.28,5.74-3.85,3.51-.88,7.1-1.61,10.68-2.16a1.4,1.4,0,1,1,.43,2.76c-3.49.54-7,1.25-10.43,2.11-1.62.4-3.33,1-3.83,2.2A1.42,1.42,0,0,1,389.43,366.3Z"/><path d="M384.49,363.87a1.39,1.39,0,0,1-1.29-1.93,8.9,8.9,0,0,1,4-4.24,20.45,20.45,0,0,1,5-1.83c2.55-.66,5.15-1.23,7.72-1.68a1.4,1.4,0,1,1,.49,2.75c-2.51.44-5,1-7.51,1.63a18.1,18.1,0,0,0-4.35,1.57,6.13,6.13,0,0,0-2.78,2.87A1.39,1.39,0,0,1,384.49,363.87Z"/><path d="M357.44,381.39c3.44-.22,6.84.63,10.19,1.46l21.4,5.36a1.55,1.55,0,0,1,1.39,2.25A47.74,47.74,0,0,1,386,402.72a2.79,2.79,0,0,1-1.26,1.42,2.91,2.91,0,0,1-1.86-.09c-13.3-3.64-26.85-7.21-40.64-6.86a54.58,54.58,0,0,1,15.4-15.88"/><path class="cls-23" d="M469.5,288.86a9.58,9.58,0,0,0-1.82-.29c-3.51-6.5-29.17-52.65-53.89-68.77,0,0-58.49,10.25-56.63,63.37,0,0,72.69-1.87,101.58,14.91,5.79,3.36,0,14.39,5.65,15.91,5.9,1.6,11.83-2.73,13.24-9.67s-2.23-13.86-8.13-15.46"/><path class="cls-31" d="M369.06,259.93c4.52-8.81,11-16.4,18.77-21.27,8.67-5.45,18.57-6.67,28.2-7.29,1.44-.09,1.29,2.55-.15,2.64-9.24.6-18.72,1.8-27.05,7-7.42,4.64-13.59,11.94-17.91,20.38-.75,1.46-2.61,0-1.86-1.47"/><path d="M388.16,389.28c-3.39,13.47-10.31,25.62-15.32,38.49s-9.32,25.9-14.88,38.5A158.52,158.52,0,0,1,347.1,487c-1,1.53,1.46,2.93,2.42,1.41,7.46-11.85,12.87-24.84,17.8-37.91,2.45-6.47,4.79-13,7.24-19.44s5.3-12.7,8.12-19A134.85,134.85,0,0,0,390.85,390c.44-1.75-2.25-2.49-2.69-.75Z"/><path d="M427.85,400.15c-3.31.49-7.32,1.61-8.39,5.23-1.26,4.29,2.71,8.07,6.05,10A26.25,26.25,0,0,0,438,418.41a85.12,85.12,0,0,0,13.8-1.17c4.35-.64,8.76-1.85,12-4.95,1.31-1.24-.67-3.21-2-2-2.49,2.37-5.85,3.37-9.16,4-1.72.31-3.43.5-5.17.7-2.19.25-4.38.48-6.58.59a28.78,28.78,0,0,1-11.61-1.5,15.87,15.87,0,0,1-4.53-2.61,7.12,7.12,0,0,1-2.69-4,3.5,3.5,0,0,1,0-1,2.39,2.39,0,0,1,.38-1,3.5,3.5,0,0,1,1.38-1.28,13.83,13.83,0,0,1,4.76-1.35,1.42,1.42,0,0,0,1-1.72,1.44,1.44,0,0,0-1.72-1Z"/><path d="M438.09,406.8a16.9,16.9,0,0,0-2.84,8.24,16.68,16.68,0,0,0,.26,4.35c.3,1.58,1,3,2.74,3.22a1.4,1.4,0,0,0,0-2.8c.33,0,.43.31.25,0a4.36,4.36,0,0,1-.16-.48,10.94,10.94,0,0,1-.26-1.5,14.49,14.49,0,0,1,0-3.42,14.2,14.2,0,0,1,2.39-6.17,1.4,1.4,0,1,0-2.41-1.41Z"/><path d="M437.15,421.44Q435.88,436,435,450.56t-1.29,29.17q-.25,8.22-.37,16.45a1.4,1.4,0,0,0,2.8,0q.21-14.6.83-29.19t1.65-29.15q.58-8.2,1.3-16.4a1.4,1.4,0,1,0-2.79,0Z"/><path d="M386.2,450.64q-2,19-4.87,37.88-.81,5.37-1.68,10.73a1.44,1.44,0,0,0,1,1.72,1.42,1.42,0,0,0,1.72-1q3.11-19.22,5.42-38.56.64-5.4,1.23-10.79a1.41,1.41,0,0,0-1.4-1.4,1.43,1.43,0,0,0-1.4,1.4Z"/><g id="Artwork_66" data-name="Artwork 66"><g class="cls-32"><g class="cls-32"><path d="M423,367.87l-.16-5.2L421,360.24l.48-.15s-6.89-8.33-9.34,3.64l-1.4,1,1,1.13c-.07.54-.14,1.1-.2,1.69a11.14,11.14,0,0,1,.74-1.1l4.71,5.14Z"/><path d="M408.49,356.36a15.39,15.39,0,0,1,9,2.63c2.19,1.48,3.9,3.79,3.84,6.31a4,4,0,0,1,0,.49c0,.59.1-.3,0,.27-.08.32-.16.63-.26.95s-.06.16,0,.08c-.08.18-.18.35-.27.52l-.26.4h0a3.58,3.58,0,0,1-.26.29,2.82,2.82,0,0,1-.36.33c-.25.22.35-.18-.15.11l-.42.25c-.07,0-.44.2-.16.08a5.84,5.84,0,0,1-.93.27c-.56.14.32,0-.26,0a3.75,3.75,0,0,1-.58,0,5.83,5.83,0,0,1-.59,0c.3,0,0,0-.07,0-.32-.08-.63-.16-.95-.26a4.76,4.76,0,0,1-1.39-.9,5.49,5.49,0,0,1-1.59-3.28c.05.29,0-.05,0-.09,0-.27,0-.53,0-.8s0-.27,0-.4,0-.27,0-.09c0-.14.05-.27.08-.4a8.33,8.33,0,0,1,.34-1.18s.14-.33,0-.11c.11-.25.24-.49.37-.73a8.12,8.12,0,0,1,3.09-3,1.92,1.92,0,1,0-1.94-3.32,11.13,11.13,0,0,0-5.84,9.54c.07,3.91,2.56,7.74,6.49,8.67a8.41,8.41,0,0,0,5.75-.65,7.62,7.62,0,0,0,3.66-4.51c1.23-3.83-.43-7.89-3.27-10.54a18.83,18.83,0,0,0-13-4.79,1.93,1.93,0,1,0,0,3.85"/></g></g></g><path class="cls-30" d="M438.24,296.21a94.92,94.92,0,0,1,15.05,5.11,5,5,0,0,1,2.27,1.86,5.25,5.25,0,0,1,.42,2.58c-.09,14.28-1.33,34.08.9,48.23,2,12.95,6.56,21.35,19.1,27.85-4,0-11.63-1.18-14.93-3.35-7-4.58-11.43-13.05-12.43-21.31s.06-16.61.14-24.92c.11-11.4,1.6-24.87-7.72-34.18"/></g><ellipse cx="413.78" cy="78.36" rx="67.92" ry="68.46"/><ellipse class="cls-33" cx="413.78" cy="78.36" rx="59.16" ry="59.63"/><path class="cls-34" d="M413.91,26.27a53.86,53.86,0,0,0-.05,9.07l-.2-.45"/><path class="cls-34" d="M440.42,36.07a62.63,62.63,0,0,0-5.61,7.69l.1-.47"/><path class="cls-34" d="M457.39,54.13a77.72,77.72,0,0,0-9.08,4.68l.34-.38"/><path class="cls-34" d="M387.12,36.07a62.63,62.63,0,0,1,5.61,7.69l-.1-.47"/><path class="cls-34" d="M369.41,54.13a77.86,77.86,0,0,1,9.09,4.68l-.35-.38"/><path class="cls-34" d="M440.45,124.06a62.84,62.84,0,0,0-5.67-7.66l.45.28"/><path class="cls-34" d="M457.35,104a80.39,80.39,0,0,0-9.12-4.63l.55.08"/><path class="cls-34" d="M387.09,122.17a62.84,62.84,0,0,1,5.67-7.66l-.45.28"/><path class="cls-34" d="M369.39,104a80.39,80.39,0,0,1,9.12-4.63l-.55.08"/><path class="cls-34" d="M413.91,122.61a53.87,53.87,0,0,0-.05,9.07l-.2-.44"/><path class="cls-34" d="M463.39,78.36a87.17,87.17,0,0,0-10.6.11l.52-.18"/><path class="cls-34" d="M371.75,78.47a87.34,87.34,0,0,0-10.61.11l.52-.18"/><ellipse class="cls-34" cx="413.66" cy="78.97" rx="2.73" ry="2.33"/><path class="cls-34" d="M414.22,50.47v-.32c-.35,9.72-.67,19.45-1.49,29.65q5.17,7.32,10.39,14.61"/></g></svg>