<svg xmlns="http://www.w3.org/2000/svg" xmlns:xlink="http://www.w3.org/1999/xlink" viewBox="0 0 550 550"><defs><style>.cls-1,.cls-15,.cls-2,.cls-35,.cls-42{fill:none;}.cls-2{clip-rule:evenodd;}.cls-3{fill:#911e5f;}.cls-4{clip-path:url(#clip-path);}.cls-5{fill:#118cad;}.cls-6{fill:#95d14e;}.cls-7{clip-path:url(#clip-path-2);}.cls-8{fill:#9b3f02;}.cls-9{fill:#006982;}.cls-10{fill:#ffc200;}.cls-11{fill:#ffb000;}.cls-12{fill:#3a3a3a;}.cls-13{fill:#e7e7e7;}.cls-14{fill:#a3a4a4;}.cls-15,.cls-35,.cls-42{stroke:#006c83;stroke-linecap:round;stroke-linejoin:round;}.cls-15{stroke-width:1.53px;}.cls-16{fill:#ffc41e;}.cls-17{fill:#ed2938;}.cls-18{fill:#2d2d2d;}.cls-19{fill:#024656;}.cls-20{fill:#006c83;}.cls-21{fill:#1b5229;}.cls-22{fill:#b5202d;}.cls-23{fill:#e8e7e7;}.cls-24{fill:#6e111e;}.cls-25{fill:#fbb11e;}.cls-26{fill:#ed7722;}.cls-27{fill:#f664ab;}.cls-28{fill:#fa008b;}.cls-29{fill:#f998c5;}.cls-30{fill:#f32d98;}.cls-31{fill:#cd007e;}.cls-32{fill:#00bbe0;}.cls-33{fill:#98dfec;}.cls-34{fill:#00c7e2;}.cls-35{stroke-width:1.81px;}.cls-36,.cls-58{fill:#fff;}.cls-37{fill:#a1a2a2;}.cls-38{fill:#e6e6e6;}.cls-39{fill:#a2a3a3;}.cls-40{fill:#005d72;}.cls-41{fill:#00afdd;}.cls-42{stroke-width:1.88px;}.cls-43{fill:#00badd;}.cls-44{fill:#007a0d;}.cls-45{fill:#03aa14;}.cls-46{fill:#0dab4c;}.cls-47{fill:#9fa0a0;}.cls-48{fill:#185228;}.cls-49{fill:#f4a9ae;}.cls-50{fill:#006880;}.cls-51{fill:#1c5229;}.cls-52{fill:#34badb;}.cls-53{fill:#b1dfec;}.cls-54{clip-path:url(#clip-path-3);}.cls-55{fill:#ffa3ac;}.cls-55,.cls-56,.cls-58,.cls-59,.cls-60,.cls-61,.cls-62,.cls-63,.cls-64,.cls-65,.cls-66,.cls-67,.cls-68,.cls-69,.cls-70,.cls-71,.cls-72{fill-rule:evenodd;}.cls-56{fill:#2d2e2d;}.cls-57{clip-path:url(#clip-path-5);}.cls-59{fill:#4182b7;}.cls-60{fill:#6dba3f;}.cls-61{fill:#f79520;}.cls-62{fill:#f4c222;}.cls-63{fill:#e24733;}.cls-64{fill:#629fdd;}.cls-65{fill:#2bc1ab;}.cls-66{fill:#809b9e;}.cls-67{fill:#3c9e32;}.cls-68{fill:#bc8468;}.cls-69{fill:#c9271b;}.cls-70{fill:#1ca089;}.cls-71{fill:#a3a3a3;}</style><clipPath id="clip-path"><circle class="cls-1" cx="275" cy="280.28" r="267"/></clipPath><clipPath id="clip-path-2"><rect class="cls-1" x="-177.09" y="162.11" width="767.94" height="816.27" transform="translate(-19.9 7.62) rotate(-2.01)"/></clipPath><clipPath id="clip-path-3"><rect class="cls-1" x="409.63" y="285.11" width="31.72" height="14.9" transform="translate(-61.83 121.81) rotate(-15.2)"/></clipPath><clipPath id="clip-path-5"><path class="cls-2" d="M323.59,472.78a6.59,6.59,0,0,1-7.39-4.61L279,343.58a6.58,6.58,0,0,1,4.75-8.29l84.45-20.62a6.58,6.58,0,0,1,8.09,5.51l18.3,134.35a6.6,6.6,0,0,1-5.45,7.39l-65.5,10.86"/></clipPath></defs><g id="Layer_19" data-name="Layer 19"><circle class="cls-3" cx="275" cy="274.72" r="267"/><g class="cls-4"><path class="cls-5" d="M128.71,248.73c176.77-33.36,347.12,82.9,380.48,259.67S426.3,855.52,249.53,888.89-97.6,806-131,629.22-48.07,282.1,128.71,248.73"/><path class="cls-6" d="M253.68,330.57l.14-.13-.13.14Z"/><path class="cls-6" d="M187.5,415.3l-.67-.13c-3.35-.82-3.75-5.22-.45-7.2,1-.59,1.08-1-.15-1.15-.32-.05-.57-.13-.92-.16-2.85-.21-4.23-.84-3.26-2.13a55,55,0,0,0,6.24-2.78,43,43,0,0,1,18.22-4.17,7.93,7.93,0,0,0,3.09-.43c1.08-.5.22-.77-.25-1-1.18-.61-2.72-1.11-3.18-1.95s.14-1.77,2.88-2.77a38.32,38.32,0,0,0,5.93-2.56,23.92,23.92,0,0,1,7.53-2.57,66.63,66.63,0,0,0,15.91-5.37c2.59-1.22,3.54-2.3,2.64-3.29a2.52,2.52,0,0,1,0-3.69c3.54-4.28-.29-6.76-5.69-8.95-.92-.93-.15-2,1.82-3.25,3.2-2,4.8-4.09,6.79-6.17s.69-3.13-3.38-3.43c-1.24-.1-2.53-.15-3.84-.2-8.22-.26-8.24-.46-.25-3.79,2.79-1.16,2.9-1.56.71-2.07a20,20,0,0,0-6-.24,35.94,35.94,0,0,1-8.56-.13c-2-.48-4.65-.57-5.57-1.61-2.88-3.22-9-4.88-17.9-5.19a12.63,12.63,0,0,0-4.81-1.21c-1.57-1.24-5.52-1.16-7.75-2.06,0,0,.09-.1.06-.13a1.32,1.32,0,0,0-.26-.18c.1-.26-.19-.34-.72-.32.06-.07,0-.11-.14-.11.17-.44-.16-.66-1.22-.56v0a88.17,88.17,0,0,0-18.66-4.87,14.24,14.24,0,0,0-2.4-.08c-7.56.25-13.77-1.06-21-1.34-3.38-.13-5.12-1.07-4.7-2.79s2.38-3.2,6.33-4.13c2-.46,4-.85,6-1.31,4.8-1.14,7.82-2.83,8.71-5.18a8.16,8.16,0,0,1,1-2.36c1.1-1.45-.14-2-2.68-2.16-5.61-.3-9.38-1.69-11.81-3.93a15.41,15.41,0,0,0-1.77-1.26c-3.19-2.17-5.93-2.27-11.82-.44-4,1.25-7.41,2.88-11.12,4.3-1.86.71-3.94,1.65-6,1.43-6-.6-12.24-1-17.28-2.64a3.12,3.12,0,0,1-2.25-2.26c-.57-1.62-.88-3.31-1.48-5-1.28-3.6-2.35-3.78-9.16-1.66l-2.92-.12c-2.59-1.56-6.2-2.51-10.21-3.18-4.24-.7-5.79-2.29-6.15-4.36-.11-.63.31-1.31-.47-1.86.27-.07.41-.18.41-.32.77-.13,1-.36.75-.71,3.17-4,6.2-5,14.87-4.78,1.18,0,2.4,0,3.52.17a27.36,27.36,0,0,0,15.49-2.27,24.49,24.49,0,0,1,10.74-2.34c4.51,0,9.06-1,12.1-3.48a17,17,0,0,1,9.9-3.55c6.52-.42,10.72-2.58,13.78-5.67.74-.76,1.5-1.52,2.36-2.26a23.27,23.27,0,0,1,22.51-4.11c4.17,1.55,8,1.43,13.26-.17,8.62-2.62,16.39-1.92,23.8-1,2.94.35,3.28,1.94,2.38,3.46-3.77,6.39,1.45,9.15,10.17,10.6,4.55.76,8.82,1.71,13.28,2.45a33.14,33.14,0,0,0,11.4.16l3.22.81c-4.31,4.18-10.06,8-15,11.86-2.22,1.75-6.11,2.64-9.53,3.25-9.51,1.69-13.89,5.16-16.22,9.25A9.86,9.86,0,0,1,204,303.9C200.57,306,197.23,308,194,310c-2.54,1.58-2.46,3.11-2.37,4.54.14,2.29-.63,4.46-4.34,6.74-1.86,1.14-1.07,2.05.08,2.83,4,2.67,9.94,4.05,17.22,4.61,4.66.36,7,1.61,6.8,3.89-.12,1.61,1.77,2.61,4.3,3.27,6.78,1.75,14.39,2.87,21.64,4.12,4.26.74,9.32.83,13.37,1.62a35.77,35.77,0,0,1,8.48,2.45,41,41,0,0,0,13.79,4.07c1.05.12,2.05.34,1.94.92-.58,3.31,3.62,5.1,6.26,7.3.77.64,1.67,1.23,2.42,1.88s.62,1.69,0,2.75c-1.51,2.7-2.3,5.2.62,6.89,1.3.75-.26,2-1.39,3.15a10.11,10.11,0,0,0-2.58,4.27c-1.18,3.25-6.1,6.4-13.66,9.28s-15.47,5.47-22.48,8.39a48.54,48.54,0,0,1-12.54,3.18c-5,.62-5.8.92-7.2,2.78-1.59,2.1-4.83,4.09-9.27,6a128.25,128.25,0,0,1-12.24,4.78,20.55,20.55,0,0,0-4.16,1.86,49.16,49.16,0,0,1-5.82,2.7,11.57,11.57,0,0,1-5.35,1"/><path class="cls-6" d="M65.67,288.11c.29.34,0,.58-.75.71l.75-.71"/><path class="cls-6" d="M185.57,334.89c-1,.06-1.43-.1-1.22-.56,1.06-.1,1.39.12,1.22.56"/><path class="cls-6" d="M186.43,335.32l-.72-.32c.53,0,.82.06.72.32"/><path class="cls-6" d="M355.26,543.27h0a2.39,2.39,0,0,0,1.58,1.05h0a.59.59,0,0,0,.74.4c.55.69,1-.07,1.3-.46.41-.61-.25-.6-.5-.78a1,1,0,0,0-.87-.18c0-.41,0-.93-.36-1.08a2.72,2.72,0,0,0-1.85.19.54.54,0,0,0-.16.1.45.45,0,0,0,.12.76h0"/><path class="cls-6" d="M347.69,550.93a.4.4,0,0,0,0,.24c.06.09.16.11.3.08a4.15,4.15,0,0,1-.16,1.47,1.56,1.56,0,0,0-.09.46v.08s0,0,0,.06a.64.64,0,0,0,0,.07.3.3,0,0,0,.11.14.46.46,0,0,0,.33.06h.06v.07c0,.38.16.55.36.62a1.85,1.85,0,0,0,.42.06.57.57,0,0,0,.55-.4c.23-.53-.19-.69-.37-.92a2.17,2.17,0,0,1-.37-1.78,1.58,1.58,0,0,0,0-.48.43.43,0,0,0-.47-.4c0-.15,0-.29,0-.44s0-.29,0-.44c0-.49-.28-.66-.66-.53a1,1,0,0,0-.5.78,2.07,2.07,0,0,0,0,.43h0a1.57,1.57,0,0,0,0,.24l0,.08a.31.31,0,0,0,0,.08.86.86,0,0,0,.11.19h0l.18.17"/><path class="cls-6" d="M335,508.43l.05-.1.06-.13a2.3,2.3,0,0,0,.15-1.86c-.11-.25-.14-.69-.56-.37a.7.7,0,0,0-.14.18,3.66,3.66,0,0,0-.22,2.4h0c.23.3.42.21.57,0l.09-.14"/><path class="cls-6" d="M438.19,667.52c.34-2.26.75-4.49,1.1-6.74.48-3.07,1.65-5.86,2.32-8.85a2.9,2.9,0,0,0,0-2.24c-.57-1-1.43-2-.39-3.26.08-.1,0-.39,0-.59s-.16-.79.32-.86.51.33.59.7c.13.55.44.83,1,.79a.76.76,0,0,0,.74-.85,2,2,0,0,1,1.07-1.67,74.55,74.55,0,0,0,6.79-4.68c1.16-1,2.47-2,2.54-3.73.09-2.69,1.47-5,.87-8-.41-2-.64-4.19-.85-6.3a4.48,4.48,0,0,0-2.91-4,4.91,4.91,0,0,1-2.16-1.41c-1-1-1.74-2.56-3.46-2.45-.66,0-.57-.53-.29-1a2.44,2.44,0,0,0,0-2.55,9.25,9.25,0,0,1-.72-2.57,16.65,16.65,0,0,1,.43-6,19.61,19.61,0,0,1,.62-2.73,57.39,57.39,0,0,1,2.79-6.37,6.3,6.3,0,0,1,2-2.36c1.51-1.17,3.24-2.07,4.05-4.14a3.13,3.13,0,0,0,.22-2.22,22.53,22.53,0,0,0-1.92-3.56l.15-.21a1,1,0,0,1,.6.43l.07.09c1,1.34,2.45,1,3.09-.64l.38-1h0a2.35,2.35,0,0,1,.7,1.58,3.9,3.9,0,0,1-1.22,2.36c-.41.47-.65,1.09-.14,1.55s1.06.1,1.48-.43c1.74-2.2,3.27-4.59,4.91-6.88.95-1.31,1.41-3.11,2.48-4.48a.89.89,0,0,0-.1-1.27c-.46-.36-.95-.1-1.25.33-.57.79-1.48,1.31-1.57,2.49a1.53,1.53,0,0,1-1,1.22,2.33,2.33,0,0,0-1.33,1.35,2.74,2.74,0,0,1-2.81,1.92h0a9.9,9.9,0,0,1,3.45-5.56,16.78,16.78,0,0,1,5-2.77,6.93,6.93,0,0,0,2.26-1.52,1.32,1.32,0,0,0,.19-2,3.36,3.36,0,0,1-.79-1.72,8.22,8.22,0,0,0-2.26-4.9,4.82,4.82,0,0,0-2.31-1.51,10.16,10.16,0,0,1-3.33-1.23c1.17-.13,1.95-2.15,3.36-.91.08.07.34-.09.52-.15a3.26,3.26,0,0,0,2.23-2.67,20.64,20.64,0,0,1,.75-3.52c.19-.46.23-.75.1-.92a.5.5,0,0,0-.14-.1.9.9,0,0,0-.33-.07,2.76,2.76,0,0,0-.5,0l-1.7-1.29a.77.77,0,0,0-.14-.47.31.31,0,0,0-.19-.09.57.57,0,0,0-.27,0c-.36.14-.3.49-.28.79.06,1,.08,1.9-.88,2.54a4.07,4.07,0,0,0,.37-3.39c-.62-1.42-2-.61-3.23-.84.91-.46,1.62,0,2.24-.5s.25-1.47,1.09-1.8c.43.65,0,1.65.65,2.17,1,.75,1.93,1.47,2.91,2.2a.6.6,0,0,0,1-.23c.49-1.19,1.52-2,2.12-3,1.56-2.82,2.14-7.1-1-8.46-1.42-.62-1.52-1.66-1.92-2.73a4.12,4.12,0,0,0-.69-1.57.68.68,0,0,1-.1-.74,20.68,20.68,0,0,0,.89-3c.07-.43.39-.52.73-.58s.6,0,.66.37c.15.83.66,1.06,1.41.92.39-.07.57.24.79.45,1.33,1.22,2.88,1.07,4.1-.41l2.59-3.16a1.65,1.65,0,0,0,.48-1.77l.4-.18a1.79,1.79,0,0,0,2.08.11l.29-.16a8.94,8.94,0,0,0,1.1-1c1.46-1.26,1.62-2.31.51-3.73a1.64,1.64,0,0,1-.43-1.54A13.06,13.06,0,0,0,483,520a1,1,0,0,0,1.38.25c.95-.69,2-1.31,2.4-2.6a19.54,19.54,0,0,1,2.19-5.06,1.7,1.7,0,0,0,.34-1.73c-.17-.31.07-.45.33-.62a3.06,3.06,0,0,0,1.59-3.37c-.05-.36-.24-.72,0-1.1a26.21,26.21,0,0,0,2-4.51c1.07-2.46.78-2.08-1.05-2.78-1.37-.53-1.48-1-.54-2.43.76.75,1.55.77,1.76,0a9.31,9.31,0,0,0,.66-3.69c-.35-2.84-1.53-5.4-1.71-8.26a2,2,0,0,0-.42-.86,31.34,31.34,0,0,0-4-5.25c-1.65-1.7-3.2-3.51-5-5a43.67,43.67,0,0,1-7.85-8.17c-.24-.35-.53-.55-.05-1.07s.28-1-.4-1c-1.62-.18-2.83-1.42-4.61-1.13-.11,0-.22-.13-.34-.19a3.66,3.66,0,0,0-2.64-.73c-.4.06-.88,0-.71-.55.5-1.57-.35-2.77-.37-4.19a2.7,2.7,0,0,0-.47-1.41c-.79-1.24-1.38-2.53,0-4.18a2.9,2.9,0,0,0,.39-.92c.27-.8.45-1.62-.33-2s-1.49,0-2.19.63c-1.07,1-2.16,2-3.28,2.92a1.88,1.88,0,0,1-2.63.26,1.66,1.66,0,0,0-.8-.3,5.42,5.42,0,0,1-3.15-1.22,1.76,1.76,0,0,0-1.44-.38,1.35,1.35,0,0,1-1.6-.76,6.28,6.28,0,0,0-1.62-2,16.25,16.25,0,0,1-2.85-2.89c-.44-.67-1-.38-1.59.17-.15.14-.21.48-.41.47-1.16,0-1.24,1-1.72,1.73-.78,1.17-1,2.84-2.72,3.2-.3.07-.47.44-.64.72a6.06,6.06,0,0,1-.8.88c-.92.92-1.64.09-2.6.34a4.62,4.62,0,0,1,1.15-.87,9.84,9.84,0,0,0,4.5-4c.62-1.08.44-1.69-.65-1.81a6.75,6.75,0,0,0-2.9.65,1.51,1.51,0,0,1-1.44-.09c-.13-.08-.28-.31-.16-.35a3.56,3.56,0,0,0,2-1.46c1,.5,2.3-.07,3.4.33.91.33,2.06-.37,3-1,.32-.19.24-.55.31-.85.24-1,.67-2,.15-3-.15-.29.07-.92-.42-1.23s-.49-.68.27-1.1,1.54-.36,2.27-.95a10.5,10.5,0,0,1-.89,1.62c-.27.41-.58.86-.45,1.27.37,1.19.24,2.56,1,3.67.41.62,1.07.86,1.4,1.42.86,1.44,2.3,2.18,3.58,3.11a1.38,1.38,0,0,0,.87.34c2-.07,3.89.14,5.89-.07.87-.09,1.63-1.2,2.57-.76.39-.68,1.24-.88,1.61-1.45a2.61,2.61,0,0,1,3.05-1.14c1.33.23,1.85,0,2.31-1.43a8.49,8.49,0,0,1,2.86-4.19.54.54,0,0,0,.14-.84c-.5-.56,0-1.4.27-1.62.81-.66.49-1.21.45-1.82s-.07-1.37-1-1.42a1.57,1.57,0,0,0,.55-1.67,11.94,11.94,0,0,0-4.85-7.59c-1.91-1.33-3.89-2.57-5.89-3.74-1-.57-1.82-1.31-2.75-1.93a1.15,1.15,0,0,1-.44-.79,11,11,0,0,0-.47-1.94c-.35-.81-.41-1.92-1.61-2-.21,0-.12-.24-.09-.4s0-.15,0-.21a1.56,1.56,0,0,0,0-.53c-.11-.62-.63-.9-1.3-1.05h0a.1.1,0,0,0-.05,0h0l-.07,0c-.32-1.1-.41-2.43-1.7-2.57a2.69,2.69,0,0,0-.63,0s0,0-.06-.05c-.95-1-2.21-.89-3.6-.14-.2.11-.26,0-.39-.07-.81-.49-1.87-.19-2.81-.26a.72.72,0,0,0-.59.4c-.25.46-.4.48-.67.14s-.87-.4-1.41.15c-.23.22-.45.49-.86.44a.85.85,0,0,0-.2-1.25,1.31,1.31,0,0,1-.53-1.21.79.79,0,0,0-1.07-.85,1.09,1.09,0,0,1-1.07-.25,1.39,1.39,0,0,0-2.1.2.76.76,0,0,1-.54.25,20.6,20.6,0,0,0-5.54,1.29,4.12,4.12,0,0,1-2.95.06c-1-.46-1.9-1.18-3.35-1a17.41,17.41,0,0,1-4.32-.43c-.43-.05-.88,0-.54-.81.16-.37-.2-.51-.54-.42a.73.73,0,0,1-.81-.29.91.91,0,0,0-.71-.38,29.49,29.49,0,0,1-5.13-.62,3.61,3.61,0,0,1-2.37-.79,2.42,2.42,0,0,0-2.34-.64c-.35.06-.68,0-1,0s-.68-.1-.74-.56l0-.17c0-.05,0-.1,0-.15a.87.87,0,0,0-.15-.27.53.53,0,0,0-.58-.07.26.26,0,0,0-.11-.1.22.22,0,0,0-.17,0h0c-.56-.65-1.55-.41-2.37.61-.35.44-.64.88-1.19.87-2.82,0-5.7.37-8.46.29-1.57,0-3.12-.17-4.69-.16-4.66,0-9.33.34-13.74-.15a1.7,1.7,0,0,0-.79.09l-4,1.41c-5.75,2-11.36,4.71-16.93,7a1.4,1.4,0,0,0-.82.89c-1.17,2.85-2.31,5.72-3.56,8.54a26.83,26.83,0,0,1-2.4,5.2,2.78,2.78,0,0,0-.41,1.83c0,.44.22.72.64.63a3.18,3.18,0,0,0,1.44-.58c1.7-1.45,3.36-3,5-4.52,2.47-2.28,4.7-5,7-7.53.48-.53.83-.65,1.22-.29a6.18,6.18,0,0,1,.87.74,23.51,23.51,0,0,0,2.81,3.08,14.21,14.21,0,0,1,2.89,3.6,1.4,1.4,0,0,0,.93.68c1.29.36,2.5-.32,3.59-1.46,2.63-2.73,5.25-5.49,8-8.05a28.27,28.27,0,0,0,2.64-2.92c1.64-2,1-1.7,2.84-1.11l.14.05c.46.11.55.37.19.92-.52.78-1,1.58-1.5,2.37s-.5,1.32.18,1.7,1.35.68,2,1c.33.16.73.24.33.89s-.66.47-1,.26c-.68-.45-1.36-.9-2.06-1.3s-1.35-.22-1.95.81l-.37.6c-.68,1.12-.65,1.41.18,2a15.33,15.33,0,0,1,2.37,1.63c.12.11.36.22.17.49s-.37.12-.53.06a2.08,2.08,0,0,1-.47-.24c-1.09-.65-2.19-1.27-3.25-1.94-.41-.26-.75-.18-1.19.26-1,1-1,1.14-.39,2.13.39.62-.34,1.07-.53,1.59a.43.43,0,0,1-.7.24c-.27-.18-.54-.18-.8.19a.76.76,0,0,0,0,.93c.16.22.34.42,0,.75-1,1-1,2.13-1.21,3.26a1.39,1.39,0,0,1-1,1.32,1.27,1.27,0,0,0-.62,2c.67.68,1.44,1.23,2.15,1.86,1.11,1,1.21,1.06,2.25-.56s1.88-3,3.64-3.22c.43-.06.79-.14,1.06.2a1.28,1.28,0,0,1-1,1.49c-.43.17-1,.18-1.27.65-.51.76-1.07,1.48-1.56,2.25-.16.26-.32.52-.46.8a.64.64,0,0,0-.08.14.53.53,0,0,0-.05.2.41.41,0,0,0,.05.21.57.57,0,0,1,0,.13.3.3,0,0,1-.23.23c-.19-.24-.34,0-.47.18a.39.39,0,0,0,0,.5c.15.17.36.27.44.53.38,1.1.43,1.09,1.6.53,1.37-.65,2.76-1.27,4.14-1.89.26-.11.67-.33.72,0s-.37.48-.65.61l-.25.1c-1.3.44-2.5,1.34-3.78,1.84a1,1,0,0,0-.64,1.35c.33,1.25.63,2.52.87,3.82.14.82.58,1,1.29.8s1.18-.4,1.77-.58a.91.91,0,0,1,1.29.64,1.18,1.18,0,0,1-.57,1.46,2.9,2.9,0,0,0-.46.52c-.74.81-.48,2.28-1.74,2.77,0,0-.06.12-.06.17a10.55,10.55,0,0,0,.29,2.9c.18.63.86,0,1.29,0l.16,0a9.49,9.49,0,0,1,2,1.18.56.56,0,0,1,.15.72,3.28,3.28,0,0,0-.23,2,1.6,1.6,0,0,1-.3,1.11c-.44.64-.87,1.29-1.25,2a20.75,20.75,0,0,0-1.69,4.09c-.23.79.1,1.27.69,1.15a3.23,3.23,0,0,0,1.9-2.2c0-.33.18-.6.41-.53.76.24,1.6-.28,2.37-.16a30.46,30.46,0,0,1,7,2.1c.11.05.17.14.1.32-.3.24-.55.05-.81,0a21.53,21.53,0,0,1-4.66-1.43c-1.26-.54-2.48-.1-3.71.85a.9.9,0,0,0-.41,1.16,1.74,1.74,0,0,1,.17,1.07c0,.2-.09.43-.31.44s-.21-.21-.19-.4.08-.65.09-1-.09-.45-.41-.39a2.42,2.42,0,0,0-2.07,2.35c-.11.9-.31,1.81-.42,2.7-.19,1.56-.74,3.31.67,4.29.34.24,0,.57-.33.66-.59.16-.84.65-1,1.21A5.94,5.94,0,0,0,380,477c.08,1.24.44,2.36.62,3.55s.47,1.23,1.39.56a24.26,24.26,0,0,0,3.92-3.29c.83-.92,1.58-1.91,1-3.17a.34.34,0,0,1,.15-.49c.21-.09.33.06.33.27a4.35,4.35,0,0,1-.54,2.94,13.31,13.31,0,0,1-2.58,2.51,19.3,19.3,0,0,0-3.54,4.1c-1.07,1.57-1.1,1.59-2.55,1.06-.63-.24-.9,0-1.17.73-.68,1.74-1.41,3.45-2.11,5.18-.9,2.22-.89,2.19-2.65,1.47-.62-.25-.62-.61-.34-1.3.86-2.16,1.68-4.34,2.51-6.51.36-.92.09-2.95-.47-3.2a11.54,11.54,0,0,0-1.84-.57c-.44-.12-.66.24-.85.69-1.67,4.1-3.34,8.2-5,12.28-.32.77-.18,1.15.39,1.41,1.43.68,2.82,1.44,4.28,2.07.71.3.77.71.4,1.51a34.83,34.83,0,0,1-1.77,4c-1.06,1.69-.81,3.56-1.49,5.3-.18.46-.65,1-.56,1.33.21.86-.33,1.18-.77,1.63a1.93,1.93,0,0,0-.56,1,7.67,7.67,0,0,1-.59,1.58,13.84,13.84,0,0,1-1.33,2.35c-.52.86-.43,1.22.36,1.4.55.12,1.08.22.82,1.22a1.83,1.83,0,0,0,0,.66,2.66,2.66,0,0,0,.08.33.77.77,0,0,0,.07.16,1,1,0,0,0,.07.15h-.12a1.38,1.38,0,0,1-.36,0c-.3-.09-.64-.61-.89,0-.18.49-.35,1.2.3,1.41.08.33.2.46.34.46l.11,0a.92.92,0,0,0,.19-.13,2.3,2.3,0,0,0,.2-.22,1,1,0,0,0,.13-.18,2.11,2.11,0,0,0,.11-1.31,1.17,1.17,0,0,1,.4.62,1.36,1.36,0,0,1-.08.83,3.83,3.83,0,0,1-.35.65,2.58,2.58,0,0,0-.54,2.66.9.9,0,0,1,0,.58,6,6,0,0,0,.51,5.13c1.24,1.8,2.51,3.55,2.45,6.25a4.38,4.38,0,0,1-1.18,3.14,7.89,7.89,0,0,0-1.41,2c-.2.32-.3.66-.06.91s.54.12.81-.07.32-.32.49-.48.34-.46.59-.22,0,.56-.16.76c-.7,1-1.41,2-2.16,2.9-.27.33-.4.56-.17.94s.43.57.83.21a.89.89,0,0,1,.47-.26,25.13,25.13,0,0,0,4.39-.83,1.44,1.44,0,0,0,1-.47c.16-.19.36-.35.54-.16s0,.45-.06.67a4.54,4.54,0,0,1-1.29,1.88c-1.1.87-1.24,3.79-.4,4.9,1.31,1.75,2.67,3.47,4,5.21a1.43,1.43,0,0,0,2.08.3,4.55,4.55,0,0,0,1.16-1.08c2-2.47,2.2-5.51,2.61-8.48.06-.45-.19-.93-.59-.77-.92.37-1.49-.29-2.18-.59-.27-.12-.9-.24-.65-.64s.59-1.33,1.27-1.07a1.86,1.86,0,0,0,1.62-.41c.91-.54,1.1-.51,1.23.58a9.74,9.74,0,0,1,.06,1.53c0,1.21-.11,2.42,0,3.62.06.91.43,1.19,1.22,1.08,1-.14-2.12,3.09-4.19,6.42a5.53,5.53,0,0,0-.76,1.59c-.19.85.64.78,1,1.16.68.74,1,1.84,1.8,2.48a3,3,0,0,1,1.3,2.37.83.83,0,0,0,.4.63c1.18,1,1.81,2.68,3.11,3.58.24.16.31.64.48,1,1,1.75,1.29,3.92,2.24,5.7a14,14,0,0,1,1.62,5,2.59,2.59,0,0,0,.24.79,24.52,24.52,0,0,1,2.37,6.15c.68,2.87,1.91,5.48,2.54,8.42a31.89,31.89,0,0,0,1.73,4.65,43.06,43.06,0,0,1,2.05,5.26c.73,2.87,1.23,5.84,2.69,8.38a6.45,6.45,0,0,1,.79,2.49c.23,1.83,1.1,3.43,1.44,5.26a9,9,0,0,1,.24,3,1.46,1.46,0,0,0,0,1,9.7,9.7,0,0,1,.76,4c0,.53,0,1-.52,1.05s-1,.83-1.5.09c-.17-.26-.33-.52-.62-.33s-.16.6-.07.91c.26.82.83,1.58.31,2.56a.49.49,0,0,0,.32.62c.77.22.63.86.47,1.46-.4,1.55-.79,3.11-1.25,4.63a7.91,7.91,0,0,0,1,7.2c.26.37.43.65.94.63.73,0,1.07.91.76,1.74-.24.64-.15,1.27.56,1.19.53-.06.64.19.72.65a34,34,0,0,1,.77,6.9c0,1.07.28,1.19,1,1.12,1.68-.17,1.68-.14,1.94,1.91a.49.49,0,0,1,0,.12c.25,1.73.24,1.75-1.31,1.46-.1,0-.2-.08-.3-.09-.41,0-.84-.05-.83.67s.09,1.21.83,1.15c1.67-.15,3.35-.28,5-.42.32,0,.63-.11.6-.6-.12-2-.25-4-.4-6,0-.35-.3-.72,0-1s.56,0,.85.08c2.43,1.09,4.86,2.26,7.35,3.25,5.37,2.15,10.84,4.23,16.37,6.41.77.3,1.13.15,1.28-.78"/><path class="cls-6" d="M360.05,461.24c.47-1.19.93-2.37,1.41-3.55.14-.34.2-.82.65-.81s.81.15.85.66a2,2,0,0,0,.54,1.08c-.88.19-1.12.86-1.37,1.57a29,29,0,0,1-2,4.9c-.63,1.1-.56,1.83.23,2.47.62.51,1.31.89,2,1.34.38.27.59.71,1.22.33a1.7,1.7,0,0,0,.82-1.55c0-.72.29-.61.66-.56s.46.41.42.79c-.07.63-.19,1.27-.28,1.9a9.08,9.08,0,0,0,.21,4.32,2.51,2.51,0,0,0,2.55,1.95c.47,0,.73-.27,1.09-.66a5.21,5.21,0,0,0,1.08-4.19,3.75,3.75,0,0,1,.75-2.59c.35-.52.68-1.07,1-1.58a4.53,4.53,0,0,1,1.67-1.53A4.17,4.17,0,0,0,375.8,463a17.71,17.71,0,0,0,.73-3.25c.06-.44,0-.77-.44-.74s-.57-.33-.5-.84c.18-1.17.54-2.32.61-3.5s.33-2.39-.77-3.13-.95-.84-1.72.55a2.66,2.66,0,0,1-2,1.62c-1.41.21-2.44,1.39-3,3.14-.05.15-.07.32-.25.38-.35.11-1.06-.86-.85-1.25a4.51,4.51,0,0,1,1.29-1.94A14.56,14.56,0,0,0,371.8,451c.39-.45.45-.9-.11-1.06s-.68-.51-1-.86c-.55-.68-1.15-1.28-2.19-1-.81.22-1.18-.08-1.08-1,.06-.53-.13-.69-.5-.76-1.54-.27-1.77-1.18-.71-2.77l.16-.25c.24-.42.45-.44.72-.2.66.59,1.36,1.15,2,1.72.47.4.95.88,1.61.79a2.67,2.67,0,0,1,2.15.69,7.63,7.63,0,0,0,1,.64c.49.26.87,0,.86-.7s-.1-1.45-.14-2.17a10.44,10.44,0,0,0-2.66-6.85c-2.71-2.91-5.4-5.79-8-8.75-.92-1.05-2.21-.92-3.43-1.05a2.3,2.3,0,0,0-1.6.73c-2.56,2.19-4.56,5.08-6.93,7.49a31.7,31.7,0,0,0-5.23,7.83c-1,1.94-1.35,3.91,0,5.24a14.55,14.55,0,0,0,4.16,3,3.25,3.25,0,0,0,3.1-.33,12.73,12.73,0,0,0,4.9-5.61c.33-.7.74-1.37,1.13-2.05.12-.22.27-.57.48-.55a2.43,2.43,0,0,1,1.56,1c.3.32-.21.72-.36,1.08s-.79.89-.64,1.44-.13,1.28,0,1.87c.09.35-.2.48-.45.57a4.24,4.24,0,0,0-1.51.58c-1.4,1.24-3,1.93-4.4,3.05-.86.69-1,.9-.57,1.79.63,1.44,1.21,2.93,1.92,4.32A13.44,13.44,0,0,0,358,462c.86.91,1.42.71,2-.8"/><path class="cls-6" d="M345.2,504.49a7.5,7.5,0,0,0,1.22-1.41c.22-.31.42-.64.62-1,.46-.77.49-1.79,1-2.39a22.08,22.08,0,0,0,2.58-4.53c.84-1.58.18-2.83-1.27-2.59a7,7,0,0,0-2.57,1.48,2,2,0,0,0-.79,1.54,7.86,7.86,0,0,1-.21,2.19,4.54,4.54,0,0,1-.06-2.64c.31-1,.23-1.2-.61-1.35a5.78,5.78,0,0,0-.6-.11c-.81-.07-1.37.48-1.37,1.47,0,1.23-.09,2.48-.15,3.73a1.53,1.53,0,0,0,.09.61,1.13,1.13,0,0,0,.13.27,1.73,1.73,0,0,0,.36.44,1.19,1.19,0,0,0,1.39.19l0,0c0,.85-.57,1.2-1.07,1.57a1.56,1.56,0,0,0-.2.16,1.71,1.71,0,0,0-.8,1.31c0,.79-.08,1.57-.1,2.35,0,.57.19.77.7.46a3.51,3.51,0,0,0,1.64-1.82"/><path class="cls-6" d="M360.65,541.31a3.29,3.29,0,0,0,.1-2.73,2.87,2.87,0,0,1-.16-2.67c.36-1.25.75-2.57,0-3.65a.59.59,0,0,1-.05-.64c.68-1.29.9-2.75,1.49-4.09.48-1.08,1.6-2.28.5-3.48-.08-.1,0-.44.06-.67s.22-.51.16-.66a4.85,4.85,0,0,1,.21-3.34.83.83,0,0,0-.39-1.1c-.42-.14-.77.25-.9.64-.48,1.38-1,2.74-1.59,4.06v0s0,0,0,.05l-.25.13a.29.29,0,0,0-.11.11l-.54.93a23.47,23.47,0,0,0-2.2,4.11c-.36.57-.93,1-.87,1.82a.84.84,0,0,0-.62.65A23.13,23.13,0,0,1,354,534c-.07.12,0,.31,0,.47a5.19,5.19,0,0,0-1.5,2.56c-.13.35.14.48.39.56a2.68,2.68,0,0,1,1.92,2.52c.11.91.58,1.24,1.26,1a3,3,0,0,1,2.72.45,1.4,1.4,0,0,0,1.88-.18"/><path class="cls-6" d="M334,499.64c.12-.24.29-.62.53-.56.49.11.8-.33,1.13-.64s.87-.8,1.42-.68c.22,0,.51-.23.41-.44-.4-.84.18-.88.63-1.06s.91-.33.85-.89-.62-.22-1-.17a.38.38,0,0,0-.23.08c-.95.94-1.88.54-2.82.58a7.1,7.1,0,0,0-3.74,1.53c-.35.25-.69.75,0,.93.09.23.19.45.29.67s.14.32.22.47a3.9,3.9,0,0,0,.19.35c.73,1.26,1.38,1.34,2.13-.17"/><path class="cls-6" d="M317.85,490.86a12.22,12.22,0,0,0-.13-1.72,4.33,4.33,0,0,1,.2-2.1,5.22,5.22,0,0,0,.21-.82c0-.06,0-.12,0-.18a1.28,1.28,0,0,0-.82-1.33l-.13-.11,0,0c-.13-.57-.5-.46-.59,0a2.71,2.71,0,0,1-1.1,1.68,4.44,4.44,0,0,0-1.82,3.59c0,1.51,0,1.74,1.27,1.42.61-.15,1.27-.44,1.58.46.12.37.54.34.9.12a1,1,0,0,0,.43-1"/><path class="cls-6" d="M361.58,533.12c-.16,1.31-.44,2.59-.68,3.88a3.55,3.55,0,0,0,1.09,2.65c.14.06.28.1.4,0,.42-.49,1-.94,1.21-1.51a6.75,6.75,0,0,1,1.3-2.23c1.39-1.83,1.23-3.4-.42-4.4a3.17,3.17,0,0,0-.66-1c-.15-.16-.33-.32-.5-.47a.52.52,0,0,0-.89.34c-.22,1-.73,1.87-.85,2.78"/><path class="cls-6" d="M333.16,522a4.57,4.57,0,0,1,1.38-2.12c.93-.81,1.38-2.13,2.2-3.07a1,1,0,0,0,.14-1c-.16-.35-.49-.23-.77-.14a6,6,0,0,0-2.05,1.3,3.11,3.11,0,0,0-.31.32,1.3,1.3,0,0,0-.32,1,.36.36,0,0,0-.28.29.48.48,0,0,0,0,.17c-.1.05-.25.08-.29.16a14.86,14.86,0,0,0-1.23,3.77.49.49,0,0,0,.27.57c.26.13.51,0,.74-.23a2.6,2.6,0,0,0,.52-1"/><path class="cls-6" d="M330.81,476.09a1.41,1.41,0,0,1,.07.76,8.54,8.54,0,0,0-.16,3c.06.87-.05,1.93.73,2.36.43.54.83,0,1-.45a7.85,7.85,0,0,1,2.23-2.65,1.79,1.79,0,0,0,.72-1.06c.08-1,.52-2.07.61-3.1a2.53,2.53,0,0,0-.1-1.38,13.81,13.81,0,0,1-1.21-3.43c-.1-.38-.22-.79-.62-.78-.69,0-1.05-.47-1.42-1-.07-.09-.12-.19-.19-.28a.5.5,0,0,0-.45-.26l-.15-.13c-.08-.31-.26-.44-.55-.3a.78.78,0,0,0-.4.68c-.39,2.73-.89,5.49-.14,8"/><path class="cls-6" d="M346.34,487.27c.13.62.45,1,1,.82a1.72,1.72,0,0,0,1.27-1.45c.08-.6.11-1.19.16-1.82,0-.17-.08-.36-.12-.56a9,9,0,0,0-1.24-2.27c-.39-.74-.94-.67-1.54.13a3.56,3.56,0,0,0-.21,4.05,2.43,2.43,0,0,1,.65,1.1"/><path class="cls-6" d="M342.93,490.51c.45-1,.88-2,1.3-3a.93.93,0,0,0,0-.88c-.18-.25-.43,0-.65.1l-1,.34a.74.74,0,0,0-.57.89.79.79,0,0,0-.23.16l0,0a.62.62,0,0,0-.11.17,1,1,0,0,0,0,.49,18,18,0,0,0,.33,1.81c.05.26.13.53.41.5a.89.89,0,0,0,.65-.59"/><path class="cls-6" d="M380.83,456.35c-.32.47-.52,1.06.16,1.21,0,.24.12.36.23.39h.07a1.46,1.46,0,0,0,.61-.29c.79-.49,1-1.42,1.42-2.14a1.6,1.6,0,0,0,.29-1.53.59.59,0,0,0-.83-.32,1.69,1.69,0,0,0-1.19,1.17,5.05,5.05,0,0,1-.76,1.5"/><path class="cls-6" d="M343.53,551.07a13.73,13.73,0,0,1,.67-2,3.51,3.51,0,0,0,.2-1.11,1.89,1.89,0,0,0-.06-.47.76.76,0,0,0,.5-1c-.11-.44-.37-.69-.74-.66a.74.74,0,0,0-.36.12.69.69,0,0,0-.16.18h0a.92.92,0,0,0-.08.47v0h0s0,0,0,0h0a1.23,1.23,0,0,0-.46.3,1.53,1.53,0,0,0-.39.89l-.15.22v0h0l-.16.24v0l-.15.23a2.78,2.78,0,0,0-.56.41,4.76,4.76,0,0,0-.43.46l-.08.1a9.4,9.4,0,0,0-.78,1.22c-.49.27-.57.76-.12.85s1.2.33,1.77-.33c.31-.36.6-.47.93-.16s.63.23.69-.14"/><path class="cls-6" d="M322.82,482.43c.46-.17.64,0,.48.59a.52.52,0,0,0,0,.11c0,.27,0,.51.29.52h0c.26.55.58.42.94-.13h0l.14-.22a1.23,1.23,0,0,0,.35-.93,9.76,9.76,0,0,1,.23-2.21c.19-1.52,0-1.79-1.27-1.45-.3.08-.66.22-.71-.23a7.32,7.32,0,0,1-.31-2c.08-.59-.26-.8-.61-.32a4.74,4.74,0,0,1-1.75,1.26c-.28.17-.62.31-.63.77a.67.67,0,0,0,.05.26.53.53,0,0,0,.53.26h0a1.61,1.61,0,0,0,.56,1.12l.38.37c0,.31.2.53.18.88-.08,1.44-.07,1.44,1,1.34a.78.78,0,0,0,.14,0"/><path class="cls-6" d="M344.89,493.1c.79.39,3.14-.39,3.8-1.31a.75.75,0,0,0,.14-.26.13.13,0,0,0,0-.12,0,0,0,0,0,0,0h0c-.06-.07-.2-.08-.38,0l0,0a.07.07,0,0,1,0-.05l-.18-.23c0-.6,0-1.25-.64-1.27s-1.29-.19-1.78.62a11.83,11.83,0,0,1-1,1.48,2.63,2.63,0,0,0-.3.44.35.35,0,0,0,0,.26c0,.09.13.17.33.22s.06.24.13.28"/><path class="cls-6" d="M348.26,542.47l.06-.13a.14.14,0,0,0,0-.07.49.49,0,0,0,0-.21l.15-.23h0l.16-.34.22-.33.23-.26a.35.35,0,0,0,.24-.5.28.28,0,0,0-.4-.17l-.1,0a.94.94,0,0,0-.46.65V541h-.06c-.06.12-.11.23-.16.35h0l-.16.23h0c0,.11-.11.23-.16.35V542h0l0,0h0l-.1,0a.52.52,0,0,0-.38.42.51.51,0,0,0,0,.13.33.33,0,0,0,.25.39c.27.07.46-.12.64-.37,0,0,.05-.08.07-.13"/><path class="cls-6" d="M381.66,445.55a1.62,1.62,0,0,0,.89-1.31c.59-.28.54-.67.28-1s-.51-.2-.84-.1a15.21,15.21,0,0,0-2.29,1.39c-.6.31-.34,1.09-.42,1.66,0,.32,0,.62.34.69l.11,0a2.64,2.64,0,0,0,1.93-1.33Z"/><path class="cls-6" d="M458.8,399.78a1,1,0,0,1,0-.17l-.14.12.1,0"/><polygon class="cls-6" points="459.19 399.31 459.19 399.26 459.14 399.29 459.19 399.31"/><path class="cls-6" d="M76,532c.83,1.56,1.43,3.59,3.54,3.11a1.49,1.49,0,0,0,1.3-1.52c0-1.13-1.15-1.18-1.61-1.59-1.1-1-1.44-3.54-3.18-2.54-.79.45-.55,1.61-.05,2.54"/><path class="cls-6" d="M41,502.34c-2.37-1.7-3.49-1-3.22,2.2.17,2.1.73,4.32.54,6.27-.46,4.84,1,8.69,4.29,12.34,1.18,1.33,3,3,2.73,5.05-.84,6.18.61,13-1.27,18.78s.7,11.78,4.57,17.38c1.19,1.72,3,3.45,4.67,2.86s2.61-2.2,2.19-4.7c-.78-4.68-.13-8.89.31-13.21a7.34,7.34,0,0,0-.63-4.36,15.35,15.35,0,0,1-1.61-7.54c0-1.44.06-3.08-.91-4.43-2.45-3.38-3.55-5.84-3.16-11.12s-3-6.87-4.42-11.25c-.82-2.42-2-6.79-4.08-8.27"/><path class="cls-6" d="M48.43,482.31c1.17,6.67,6.14,11.75,9.44,17.56s8.46,6.08,12.84,7a5.92,5.92,0,0,1,4.8,3.5c1.91,3.5,5,10.63,7.56,8.45s-.35-13.11-6.29-15.23A5.18,5.18,0,0,1,73,499.39C69.72,487.47,56.67,475,53.61,474.52s-6.35,1.13-5.18,7.79"/><path class="cls-6" d="M65.62,552.47c-1.53,2-2.89,4.07-4.28,6.11-.84,1.22-1.82,2.48-1.35,4.39,1.29,5.2,2.54,10.41,5.14,15.46a3.41,3.41,0,0,0,2.66,2.15c1.27.15,1.61-.72,1.69-2a21.18,21.18,0,0,0,.34-3.75c-.52-5.18,1.82-8.17,4.88-10.5,1.83-1.39,2.36-3.23,1.93-6-.28-3.56-1.37-7-4.78-8.88s-4.71,1-6.23,2.93"/><path class="cls-6" d="M42.2,493.86a17.12,17.12,0,0,1-.37-2.71c-.12-4.63-2-8-3.78-11.49-.68-1.35-1.62-2.73-3.06-2.27-1.28.41-1.71,1.73-2,3.27-.8,4.85,1.44,11.83,5.27,15.73,1.13,1.14,2.35,3.33,3.89,2.38s.48-3.13,0-4.91"/><path class="cls-6" d="M22.31,453c1.46,5.2,3,10.38,4.54,15.53.86,2.82,2.26,2.12,3.12.63a15.51,15.51,0,0,0,1.56-9c-.89-4.5-2.72-8.06-5.64-10.6-1-.9-2.12-1.87-3.25-.8s-.75,2.78-.33,4.24"/><g class="cls-7"><polygon class="cls-8" points="26.98 474.44 28.88 531.75 -2.14 535.59 -4.22 472.8 26.98 474.44"/><path class="cls-9" d="M-.07,456.64,3,549.7a.61.61,0,0,1-1.09.38L-19.34,521.7l-1.13-34.24,19.28-31.11a.61.61,0,0,1,1.12.29"/><polygon class="cls-10" points="3.83 462.27 7.43 545.07 2.92 547.17 0.06 460.84 3.83 462.27"/><polygon class="cls-11" points="29.05 536.83 29.16 540.2 7.31 542.41 7.12 538 29.05 536.83"/><polygon class="cls-11" points="27.89 469.84 28.16 466.53 3.97 465.69 4.17 470.14 27.89 469.84"/><polygon points="7.35 473.41 7.98 534.34 6.97 534.46 4.3 473.25 7.35 473.41"/><polygon class="cls-12" points="27.8 499.07 28.14 509.59 15.53 511.06 14.7 498.98 27.8 499.07"/><path d="M23.41,452.4,23.7,448s-21.41-1.37-31.58-5.51c0,0,4.77,7,31.29,9.89"/><path class="cls-6" d="M-6.31,443.1A62.62,62.62,0,0,0,4,438.25l-1.58,0s7.81-3.71,8.83-8.67A32,32,0,0,0,.8,434.84l.83-1.54a28.31,28.31,0,0,0-9.51,9.21Z"/><path class="cls-6" d="M-7.88,442.51a22.75,22.75,0,0,1,1.77-9.45l1,1.86a56.27,56.27,0,0,1,2.94-7.75c1.7-3.5,2.36-3.61,2.36-3.61a29,29,0,0,1-2,10.21,35,35,0,0,1-6.13,8.74"/><path class="cls-13" d="M7.33,547.51,9.86,547a.67.67,0,0,1,.5.08l4.17,2.34a.72.72,0,0,1,.37.56l4.61,50.45-8,1.68L6.76,548.28a.73.73,0,0,1,.57-.77"/><path class="cls-14" d="M10.29,547l5.07,54.26,4.15-.87-4.57-50.6a.46.46,0,0,0-.25-.38Z"/><path class="cls-15" d="M80.08,717a323.93,323.93,0,0,1-16-37.19C61,671.35,19.57,565.69,28.79,463.18"/><path class="cls-16" d="M93.71,375,79.32,364.34s9.89-7.84,15.62-5S98,373.59,98,373.59Z"/><path class="cls-17" d="M268,315.66,288,325.58l-24.06,3.57s3.73-9,4.12-13.49"/><path class="cls-17" d="M118.36,342.81l-17.55,8S110.75,334,111,333.41s7.34,9.4,7.34,9.4"/><path class="cls-17" d="M278,190.83s11.64-5.74,21.09-1.53,21.35,7.87,34.55-.51l-4.12,38.4s-16.4,11.85-30,6.86-19.48-6.82-30.26-3.67Z"/><path class="cls-12" d="M250.71,299.29s6.23-21.44,7-24.47c0,0-1,0-.6-1.47s.33-5.73,5.42-6.07,6.11,2.69,7.36,4.83,2.32,4.29,3.78,3.6,2.72-1.89,4.54-.84,2.8-.13,4.11,3.23a6.46,6.46,0,0,1-.59,5.93l-.25,9.31-3,14.15Z"/><path class="cls-18" d="M259.62,292.87c.26,2.33-.51,6.64-.94,8.77l-8-2.35s3.89-13.4,5.93-20.51c.54.22,1,1.28.83,4.68-.42,6.65,1.79,6.24,2.15,9.41"/><path class="cls-19" d="M245,298.78q11.52,2.89,22.83,6.54c2.16.7,4.3,1.41,6.44,2.14a1.14,1.14,0,0,0,1.37-.83,1.16,1.16,0,0,0-.84-1.37q-11.24-3.84-22.71-7-3.27-.89-6.57-1.72a1.14,1.14,0,0,0-.52,2.21"/><path class="cls-18" d="M263.9,303a1.29,1.29,0,0,1,0,.19l-2.75-.82a39.13,39.13,0,0,1,1.66-5.13c1.73-4.44,1.79,2,1.13,5.76"/><path class="cls-18" d="M277.52,300.1l-3.29,6.13-5.91-1.75c.54-2.25,1.58-6.43,2.73-10.27,1.66-5.59,3.66-10.89,3.42-2.86s.55,4.19,1.51,2.26c.84-1.71,2.2,1.49,1.54,6.49"/><path class="cls-18" d="M222.64,237.49s14.17,4.89,16.11,11,3.24,4.3,4.7,6.65a6.27,6.27,0,0,1,.28,5.71c-.37,1.18,3.06,3.56,3.55,5.83s.88,44.63.88,44.63l-16.24-3-14.43-72.59Z"/><path d="M247.75,280.58c.25,13.13.41,30.77.41,30.77l-10.76-2c.12-1.93.27-4.16.46-6.72.94-13.11,3.24-17,3.29-12.81s1.61,14.17,2.54,2c.71-9.26,2.65-13.24,4.06-11.29"/><path class="cls-20" d="M254.51,310.74a98.56,98.56,0,0,0-19.11-2.86,1.14,1.14,0,0,0-1.09,1.17,1.16,1.16,0,0,0,1.17,1.09A94.86,94.86,0,0,1,254,313a1.14,1.14,0,0,0,.52-2.21"/><path class="cls-21" d="M247.54,271.47c-.43-.65-.86-1.2-1.62-1.26-2-.13.8,2.17-7,.9s-9.16-6.44-10.55-8.57c-1.06-1.62-4.1-.24-5.49.5l-5.42-27.27,5.15,1.72s14.17,4.89,16.11,11,3.24,4.3,4.71,6.65a6.3,6.3,0,0,1,.27,5.71c-.37,1.17,3.05,3.56,3.55,5.83.09.41.17,2.17.26,4.75"/><path class="cls-21" d="M281.78,284s-1.57.26-2.88.41,0-2.64-2.28-3.4-5.2,1.65-7.19,2.28-2.61.56-4.5-2.16-4.29-3-5.57-4a4.64,4.64,0,0,1-1.6-2.3s-1,0-.6-1.47.34-5.73,5.42-6.07,6.11,2.7,7.36,4.83,2.32,4.29,3.78,3.6,2.72-1.89,4.54-.84,2.8-.13,4.11,3.23a6.44,6.44,0,0,1-.59,5.92"/><path class="cls-22" d="M59.11,348.86l1-.68s-7.83-11.25-10.41-18.46,9.15-13.27,16-11.5,12.64,20.22,12.64,20.22l1.14-.3.57-7.68L69.71,304.05l-31.4,11.86.57,5.7,18.06,27.06Z"/><polygon class="cls-16" points="39.46 322.26 70.86 310.24 67.41 304.92 38.31 315.91 39.46 322.26"/><polygon class="cls-23" points="39.43 319.56 51.51 341.1 40.4 346.74 28.27 325.1 39.43 319.56"/><path class="cls-24" d="M20.67,310.83l6,10.66s30.84-12.13,42.89-16.22l-2.87-6.54Z"/><polygon class="cls-24" points="25.63 297.99 29.63 306.79 68.2 298.32 64.04 290.46 59.65 289.76 25.63 297.99"/><polygon class="cls-24" points="37.01 285.95 40.24 293.53 60.91 289.51 70.73 289.36 67.26 279.59 61.15 279.6 37.01 285.95"/><path class="cls-14" d="M62.43,278.2s-21.75,6-27,6l-1.23-2.39a1.17,1.17,0,0,0-1.34-.6l-2,.52a1.18,1.18,0,0,0-.77,1.62l1.54,3.41a1.18,1.18,0,0,0,1.25.68c4-.62,21-3.32,29.83-6.45Z"/><path class="cls-14" d="M59.86,287.81s-26.3,7.24-32.6,7.26l-1.48-2.89a1.42,1.42,0,0,0-1.62-.72l-2.39.62a1.42,1.42,0,0,0-.93,2l1.87,4.13a1.41,1.41,0,0,0,1.51.81c4.89-.74,25.45-4,36.07-7.79Z"/><path class="cls-14" d="M66.43,296.77s-37.59,10.61-44.86,10.64l-1.72-3.34a1.64,1.64,0,0,0-1.87-.84l-2.75.72a1.65,1.65,0,0,0-1.08,2.27L16.31,311a1.63,1.63,0,0,0,1.74.94c5.65-.86,36.61-6.87,48.87-11.24Z"/><path class="cls-22" d="M88,264.5l-1.58-2.73a.86.86,0,0,1,.53-1.26l1.58-.42,1,4Z"/><path class="cls-24" d="M95.38,331.25l1.38-.76s-7-12.61-7.6-17.45-1.32-9.73,9.85-13.2l-2.2-8.36L81,294.26l-1.82,3.83,12.54,32.3Z"/><polygon class="cls-16" points="81.6 301.18 98.17 296.65 96.64 290.84 80.6 295.2 81.6 301.18"/><polygon class="cls-23" points="70.86 310.24 79.08 330.7 90.54 325.74 83.76 307.21 70.86 310.24"/><path class="cls-14" d="M85.23,269s-2.19-4.16,4.13-5.83l1.25,4.78Z"/><polygon class="cls-22" points="69.37 272.44 71.49 278.32 86.92 277.05 92.47 274.96 90.83 268.74 69.37 272.44"/><path class="cls-22" d="M62.22,290.71l4.18,10.1s22-7.69,30.41-9.33l-1.38-5.25Z"/><path class="cls-23" d="M95.43,286.23s-22,7-34.43,5.26a.88.88,0,0,1-.64-.45L59.2,289a.88.88,0,0,1,.88-1.3c4.14.53,15.53,1.09,34.49-4.68Z"/><path class="cls-23" d="M93.08,277.32S75.87,283.1,62.78,281a.82.82,0,0,1-.63-.51l-.82-2.13a.82.82,0,0,1,.88-1.11c3.41.5,13.1,1.17,30-3.19Z"/><path class="cls-23" d="M91.09,269.73S77.43,274.32,67,272.68a.8.8,0,0,1-.63-.51l-.53-1.36a.82.82,0,0,1,.87-1.1c2.93.39,10.6.8,23.69-2.58Z"/><path class="cls-14" d="M85.71,307.39l-16.08,4.23L65,301.18l1.42-.37s7.56-2.64,15.51-5.15Z"/><path class="cls-22" d="M93.09,277.32,94.57,283a109.09,109.09,0,0,1-25.35,4.89l-2.12-6.44c12.25.51,26-4.1,26-4.1"/><path class="cls-14" d="M79.42,338.14l-3-5.55a1.11,1.11,0,0,1,.54-1.53l14.77-6.3a1.11,1.11,0,0,1,1.48.64l2.12,5.85Z"/><path d="M92.62,297.48l-1.07-4.06a.56.56,0,0,0-.71-.37.58.58,0,0,0-.37.71c.36,1.35.72,2.71,1.07,4.06a.57.57,0,0,0,1.08-.34"/><path class="cls-14" d="M23.8,321.49l14.8-6.95a1.15,1.15,0,0,1,1.58.67l1.22,3.6a1.15,1.15,0,0,1-.59,1.41l-13.74,6.61a1.16,1.16,0,0,1-1.44-.38l-2.29-3.26a1.15,1.15,0,0,1,.46-1.7"/><path class="cls-14" d="M51.72,340.12l-12.16,6.49a1.57,1.57,0,0,0-.7,2l4.31,9.59,15.94-9.37-5.34-8.21a1.57,1.57,0,0,0-2.05-.53"/><path d="M58.46,310c.34,1.28.67,2.57,1,3.86a.57.57,0,0,0,1.08-.34c-.34-1.29-.67-2.58-1-3.86a.57.57,0,1,0-1.08.34"/><path d="M48.12,314a25,25,0,0,0,1.78,3.4.57.57,0,0,0,1-.61c-.32-.51-.63-1-.91-1.57-.14-.26-.27-.52-.4-.79l-.06-.11c0-.07,0-.08,0,0l-.08-.16c-.07-.15-.13-.3-.2-.46a.57.57,0,1,0-1.08.34"/><path d="M20.12,308.11l1.26-.33a.57.57,0,0,0,.37-.71.58.58,0,0,0-.71-.37l-1.26.33a.57.57,0,0,0,.34,1.08"/><path d="M25.86,295.7l1.08-.25a.61.61,0,0,0,.33-.28.54.54,0,0,0,0-.43.56.56,0,0,0-.27-.33.61.61,0,0,0-.44,0l-1.07.25a.53.53,0,0,0-.33.27.56.56,0,0,0,0,.44.55.55,0,0,0,.27.33.58.58,0,0,0,.43,0"/><path d="M34.3,284.83c.22-.06.45-.11.67-.15l-.15,0,.45-.06a.53.53,0,0,0,.39-.18.55.55,0,0,0,.16-.4.64.64,0,0,0-.18-.4.61.61,0,0,0-.41-.15,7.58,7.58,0,0,0-1.26.24.56.56,0,0,0-.33.27.62.62,0,0,0,0,.44.57.57,0,0,0,.71.37"/><path d="M66.37,281.92q1,2.65,2.09,5.31a.58.58,0,0,0,.71.37.56.56,0,0,0,.37-.71c-.69-1.77-1.39-3.53-2.09-5.3a.56.56,0,0,0-1.08.33"/><path d="M61.56,292.25q.87,2.31,1.84,4.57a.58.58,0,0,0,.71.37.57.57,0,0,0,.37-.71q-1-2.26-1.84-4.57a.57.57,0,1,0-1.08.34"/><path class="cls-22" d="M157.86,322.88l-1.17-.11s1.28-13.66,0-21.2-14.49-7.05-19.57-2.15-1,23.83-1,23.83l-1.14.3-4.28-6.41-4-28.05L159.75,284l2.32,5.25-2.41,32.44Z"/><polygon class="cls-16" points="161.88 290.06 128.63 295.04 129.02 288.71 159.75 283.96 161.88 290.06"/><polygon class="cls-23" points="160.58 287.69 160.66 312.38 173.11 311.83 173.02 287.02 160.58 287.69"/><path class="cls-24" d="M172.62,270.86l0,12.23s-32.81,4.61-45.31,7l-.72-7.11Z"/><polygon class="cls-24" points="161.99 262.13 162.83 271.75 125.09 283.36 124.84 274.47 128.31 271.69 161.99 262.13"/><polygon class="cls-24" points="146.16 257.24 147.07 265.43 127.09 272.1 118.47 276.8 116.68 266.59 122.02 263.59 146.16 257.24"/><path class="cls-14" d="M120.21,263s21.88-5.49,26.43-8l-.11-2.68a1.18,1.18,0,0,1,.87-1.19l2-.51a1.17,1.17,0,0,1,1.47,1l.33,3.73a1.17,1.17,0,0,1-.75,1.2c-3.82,1.45-20,7.47-29.14,9.07Z"/><path class="cls-14" d="M127.17,270.1s26.46-6.64,32-9.71l-.13-3.25a1.43,1.43,0,0,1,1.06-1.43l2.38-.63a1.43,1.43,0,0,1,1.78,1.25l.4,4.51a1.43,1.43,0,0,1-.91,1.45c-4.62,1.76-24.13,9-35.24,11Z"/><path class="cls-14" d="M125.86,281.14s38-9.27,44.29-12.82l-.15-3.75a1.64,1.64,0,0,1,1.22-1.65l2.75-.72a1.64,1.64,0,0,1,2.05,1.44l.47,5.2a1.65,1.65,0,0,1-1.05,1.68c-5.34,2-35.26,12-48.09,14.26Z"/><path class="cls-22" d="M91.19,263.67l0-3.15a.87.87,0,0,0-1.08-.85l-1.59.42,1,4Z"/><path class="cls-24" d="M117.63,325.4h-1.58s-.14-14.4-2-18.92-3.63-9.12-15.06-6.65l-2.2-8.36,15.09-5.34,3.48,2.44,5,34.29Z"/><polygon class="cls-16" points="114.83 292.44 98.17 296.65 96.64 290.84 112.75 286.74 114.83 292.44"/><polygon class="cls-23" points="128.63 295.04 131.54 316.89 119.13 318.22 115.91 298.75 128.63 295.04"/><path class="cls-14" d="M95.82,266.19s-.15-4.71-6.46-3l1.25,4.77Z"/><polygon class="cls-22" points="111.33 261.41 112.38 267.56 98.32 274.05 92.47 274.96 90.83 268.73 111.33 261.41"/><path class="cls-22" d="M126.54,273.79l1.34,10.85s-22.95,4.14-31.07,6.84l-1.38-5.25Z"/><path class="cls-23" d="M95.43,286.23S118,281.55,128,273.87a.92.92,0,0,0,.34-.71l0-2.39a.88.88,0,0,0-1.41-.7c-3.34,2.5-13,8.59-32.33,12.9Z"/><path class="cls-23" d="M93.08,277.32s17.84-3.44,28.2-11.7a.82.82,0,0,0,.29-.76l-.33-2.26a.82.82,0,0,0-1.31-.53c-2.72,2.11-10.83,7.46-27.7,12Z"/><path class="cls-23" d="M91.09,269.73s14.14-2.73,22.41-9.28a.81.81,0,0,0,.3-.75l-.21-1.45a.81.81,0,0,0-1.29-.53c-2.37,1.78-8.84,5.91-21.89,9.41Z"/><path class="cls-14" d="M114.3,299.87l16.08-4.23-1.08-11.37-1.42.37s-7.89,1.42-16,3.15Z"/><path class="cls-22" d="M93.08,277.32,94.57,283a109,109,0,0,0,24.48-8.22l-1.32-6.65c-10.42,6.48-24.65,9.22-24.65,9.22"/><path class="cls-14" d="M134.91,323.55l-.16-6.29a1.12,1.12,0,0,0-1.23-1.07l-16,1.79a1.11,1.11,0,0,0-1,1.28l1,6.14Z"/><path d="M104.5,294.36c-.35-1.36-.71-2.71-1.07-4.07a.57.57,0,0,0-.71-.37.59.59,0,0,0-.37.71l1.07,4.07a.57.57,0,0,0,1.08-.34"/><path class="cls-14" d="M175.14,281.68l-16.31,1.23a1.16,1.16,0,0,0-1,1.37l.7,3.73a1.15,1.15,0,0,0,1.21.93l15.21-1a1.15,1.15,0,0,0,1.07-1l.39-4a1.14,1.14,0,0,0-1.23-1.26"/><path class="cls-14" d="M160,311.64l13.78-.34a1.57,1.57,0,0,1,1.6,1.43l1,10.46-18.49-.31.61-9.77a1.57,1.57,0,0,1,1.53-1.47"/><path d="M138.21,289c.34,1.28.67,2.57,1,3.86a.58.58,0,0,0,.71.37.57.57,0,0,0,.37-.71l-1-3.86a.57.57,0,1,0-1.08.34"/><path d="M149.17,287.29a23.79,23.79,0,0,1,.11,3.68.56.56,0,0,0,.58.55.59.59,0,0,0,.55-.59,22.6,22.6,0,0,0-.11-3.68.57.57,0,1,0-1.13,0"/><path d="M171.47,267.13l-1.26.33a.57.57,0,1,0,.34,1.08l1.26-.33a.57.57,0,0,0-.34-1.08"/><path d="M160.36,259.15l-1.06.31a.63.63,0,0,0-.33.27.56.56,0,0,0,0,.44.63.63,0,0,0,.27.33.67.67,0,0,0,.44,0l1.06-.31A.59.59,0,0,0,161,260a.56.56,0,0,0,0-.44.63.63,0,0,0-.27-.33.67.67,0,0,0-.44,0"/><path d="M147.67,253.84a6,6,0,0,0-1.08.37.5.5,0,0,0-.19.1.58.58,0,0,0-.14.17.61.61,0,0,0,0,.44.57.57,0,0,0,.27.32.53.53,0,0,0,.44,0,6,6,0,0,1,1.08-.37.58.58,0,0,0,.33-.27.57.57,0,0,0-.24-.77.7.7,0,0,0-.43,0"/><path d="M117.49,268.32l.79,5.65a.59.59,0,0,0,.58.55.57.57,0,0,0,.55-.59l-.79-5.65a.58.58,0,0,0-.59-.54.56.56,0,0,0-.54.58"/><path d="M126.76,275c.25,1.62.47,3.24.64,4.88a.59.59,0,0,0,.59.54.56.56,0,0,0,.54-.58c-.17-1.63-.39-3.26-.64-4.88a.59.59,0,0,0-.59-.55.57.57,0,0,0-.54.59"/><path class="cls-20" d="M35.26,366.4l.7-.64.87-.75.51-.44.31-.26.22-.18c2.59-2.15,5.28-4.19,8-6.15A185.71,185.71,0,0,1,76,340.52a190.53,190.53,0,0,1,47-14.66,179.51,179.51,0,0,1,41.6-2.51,120.81,120.81,0,0,1,18.12,2.36l.23.06a1.13,1.13,0,0,0,.52-2.2,93.53,93.53,0,0,0-15.18-2.21,175.25,175.25,0,0,0-39.64,1.33A192.34,192.34,0,0,0,79.93,336.3a190.27,190.27,0,0,0-32.69,18c-3.16,2.18-6.25,4.45-9.24,6.85-1.43,1.15-2.91,2.3-4.23,3.58l-.17.15c-1.06,1,.6,2.54,1.66,1.55"/><path class="cls-22" d="M238.32,312.3s-28.29.12-41.84.78l1.59,32.57s29.11-1.45,48.32,1.53l-5.09-9.43Z"/><path class="cls-25" d="M169.59,176s-.72-1.89-.13-2.75L172,177Z"/><path class="cls-25" d="M209.89,174s.53-1.95-.14-2.75l-2.12,4.07Z"/><path class="cls-25" d="M166.13,189.78s-.86-2.28-.16-3.31l3,4.63Z"/><path class="cls-25" d="M214.68,187.41s.63-2.35-.17-3.31L212,189Z"/><path class="cls-25" d="M162.52,206s-1-2.69-.2-3.91l3.57,5.46Z"/><path class="cls-25" d="M219.86,203.23s.75-2.77-.19-3.9l-3,5.77Z"/><path class="cls-25" d="M159,224.18s-1.17-3.1-.22-4.5L162.9,226Z"/><path class="cls-25" d="M225.17,221s.87-3.2-.22-4.5l-3.48,6.66Z"/><path class="cls-25" d="M150.84,246s-1.5-4-.28-5.75l5.26,8Z"/><path class="cls-25" d="M235.36,241.83s1.11-4.08-.28-5.74l-4.44,8.5Z"/><path class="cls-25" d="M145.05,274.89s-1.75-4.61-.33-6.7l6.13,9.36Z"/><path class="cls-25" d="M243.92,270.08s1.29-4.76-.33-6.7l-5.18,9.91Z"/><path class="cls-25" d="M139.58,306.83s-2-5.19-.37-7.55l6.9,10.55Z"/><path class="cls-25" d="M252.5,301.32s1.46-5.36-.37-7.54L246.29,305Z"/><polygon class="cls-22" points="176.23 177.64 174.33 173.25 189.13 162.48 189.84 176.98 176.23 177.64"/><polygon class="cls-22" points="203.45 176.32 204.91 171.75 189.13 162.48 189.84 176.98 203.45 176.32"/><path class="cls-17" d="M175.13,180.39,169.59,176a11.79,11.79,0,0,0,10.73-1.61,23.91,23.91,0,0,0,9.48,1.89l.19,3.84-14.2.7Z"/><path class="cls-17" d="M204.81,178.94l5.08-5a11.77,11.77,0,0,1-10.83-.55,23.91,23.91,0,0,1-9.26,2.8l.19,3.84,14.2-.69Z"/><path class="cls-22" d="M174.32,193.54l.81-13.15a129.14,129.14,0,0,1,14.79-1.67l.69,14Z"/><path class="cls-22" d="M206.89,192l-2.08-13a129.9,129.9,0,0,0-14.89-.22l.69,14Z"/><path class="cls-24" d="M190.15,183.26h0c-4.17.2-2.67,7.81-2.67,7.81l3.05-.15h0l3-.15s.75-7.72-3.42-7.51"/><path class="cls-23" d="M191.64,187.55c-.07-1.48-.92-1.54-.92-1.54l0-.35-.21-.55a.27.27,0,0,0-.51,0l-.16.57,0,.35s-.84.14-.76,1.63c0,0-1.18.45-.66,2.67l2.07,0,2.06-.24c.3-2.26-.91-2.6-.91-2.6"/><path class="cls-24" d="M178.59,184.42h0c-3.35.51-2.11,7.43-2.11,7.43l2.45-.37h0l2.45-.37s.55-7.2-2.79-6.69"/><path class="cls-23" d="M179.81,188.28c-.07-1.37-.75-1.36-.75-1.36v-.32l-.18-.49c-.08-.22-.35-.17-.4.06l-.13.54,0,.32s-.67.19-.61,1.56c0,0-.93.5-.5,2.52l1.66-.12,1.64-.38c.23-2.12-.74-2.33-.74-2.33"/><path class="cls-24" d="M201.76,183.29h0c3.38.18,2.82,7.19,2.82,7.19l-2.47-.13h0l-2.47-.14s-1.26-7.1,2.12-6.92"/><path class="cls-23" d="M200.92,187.25c-.07-1.37.61-1.42.61-1.42l0-.33.13-.51c.06-.21.33-.2.41,0l.18.52v.33s.69.12.76,1.49c0,0,1,.41.75,2.46l-1.67,0-1.67-.22c-.44-2.09.51-2.39.51-2.39"/><path class="cls-17" d="M172.77,195.07l-6.67-5.35A14.18,14.18,0,0,0,179,187.78a28.88,28.88,0,0,0,11.45,2.28l.22,4.63-17.12.84Z"/><path class="cls-17" d="M208.58,193.32l6.13-6a14.21,14.21,0,0,1-13.07-.66,28.85,28.85,0,0,1-11.16,3.38l.22,4.63,17.13-.83Z"/><path class="cls-22" d="M171.8,210.94l1-15.87a155.77,155.77,0,0,1,17.85-2l.83,16.91Z"/><path class="cls-22" d="M211.1,209l-2.52-15.7a155.14,155.14,0,0,0-18-.25l.83,16.91Z"/><path class="cls-24" d="M190.89,198.53h0c-5,.25-3.23,9.43-3.23,9.43l3.68-.18h0l3.68-.18s.9-9.31-4.13-9.07"/><path class="cls-23" d="M192.69,203.72c-.09-1.79-1.11-1.86-1.11-1.86l0-.43-.26-.67a.32.32,0,0,0-.6,0l-.2.69,0,.43s-1,.17-.92,2c0,0-1.41.54-.79,3.23l2.5,0,2.48-.29c.36-2.73-1.1-3.13-1.1-3.13"/><path class="cls-24" d="M177,199.94h0c-4,.62-2.53,9-2.53,9l3-.45h0l2.95-.45s.67-8.67-3.36-8.06"/><path class="cls-23" d="M178.42,204.59c-.08-1.65-.9-1.63-.9-1.63l0-.39-.21-.6c-.09-.25-.42-.2-.49.07l-.15.66,0,.39s-.81.23-.73,1.88c0,0-1.13.61-.61,3l2-.15,2-.46c.27-2.55-.9-2.81-.9-2.81"/><path class="cls-24" d="M204.91,198.58h0c4.07.22,3.39,8.67,3.39,8.67l-3-.16h0l-3-.16s-1.51-8.57,2.57-8.35"/><path class="cls-23" d="M203.89,203.35c-.08-1.65.74-1.71.74-1.71l0-.39.15-.62c.07-.26.4-.24.49,0l.22.63,0,.39s.82.15.9,1.8c0,0,1.19.5.91,3l-2,0-2-.26c-.52-2.51.62-2.88.62-2.88"/><path class="cls-17" d="M170.39,212.35,162.52,206a16.76,16.76,0,0,0,15.26-2.28s6.76,3,13.5,2.68l.26,5.47-20.2,1Z"/><path class="cls-17" d="M212.63,210.28l7.23-7.05a16.72,16.72,0,0,1-15.41-.79s-6.44,3.66-13.17,4l.26,5.47,20.21-1Z"/><path class="cls-22" d="M169.25,231.06l1.14-18.71A181.85,181.85,0,0,1,191.45,210l1,20Z"/><path class="cls-22" d="M215.6,228.8l-3-18.52a183,183,0,0,0-21.18-.3l1,20Z"/><path class="cls-24" d="M191.76,216.43h0c-5.94.29-3.8,11.12-3.8,11.12l4.34-.21h0l4.33-.21s1.07-11-4.87-10.7"/><path class="cls-23" d="M193.89,222.54c-.11-2.11-1.31-2.19-1.31-2.19l0-.5-.31-.79a.37.37,0,0,0-.71,0l-.23.81,0,.5s-1.19.2-1.09,2.31c0,0-1.67.64-.93,3.81l2.95.05,2.92-.34c.43-3.22-1.29-3.7-1.29-3.7"/><path class="cls-24" d="M175.31,218.09h0c-4.76.72-3,10.57-3,10.57l3.48-.53h0l3.48-.53s.8-10.23-4-9.51"/><path class="cls-23" d="M177.05,223.57c-.09-1.94-1.06-1.92-1.06-1.92l0-.46-.25-.71c-.11-.3-.5-.24-.57.09l-.18.77,0,.46s-1,.27-.86,2.22c0,0-1.33.72-.72,3.59l2.36-.18,2.34-.54c.33-3-1.06-3.32-1.06-3.32"/><path class="cls-24" d="M208.3,216.48h0c4.81.26,4,10.23,4,10.23l-3.51-.19h0l-3.52-.19s-1.78-10.11,3-9.85"/><path class="cls-23" d="M207.1,222.11c-.1-2,.87-2,.87-2l0-.46.19-.73c.07-.31.47-.29.58,0l.25.75,0,.46s1,.18,1.07,2.13c0,0,1.4.58,1.07,3.5l-2.37,0-2.38-.31c-.62-3,.73-3.4.73-3.4"/><path class="cls-17" d="M168.05,231.47l-9.1-7.29a19.35,19.35,0,0,0,17.63-2.64s7.8,3.48,15.58,3.1l.31,6.32-23.33,1.14Z"/><path class="cls-17" d="M216.83,229.09l8.34-8.14s-8.81,4.52-17.79-.91c0,0-7.44,4.22-15.22,4.6l.31,6.32,23.33-1.14Z"/><path class="cls-22" d="M166.72,253.09l1.33-21.62a212.92,212.92,0,0,1,24.31-2.73l1.13,23Z"/><path class="cls-22" d="M220.25,250.47l-3.42-21.38a211.88,211.88,0,0,0-24.47-.35l1.13,23Z"/><path class="cls-24" d="M192.73,236.19h0c-6.86.33-4.4,12.85-4.4,12.85l5-.25h0l5-.24s1.24-12.7-5.62-12.36"/><path class="cls-23" d="M195.18,243.25c-.12-2.44-1.51-2.53-1.51-2.53l0-.58-.35-.91a.44.44,0,0,0-.83,0l-.26.94,0,.58s-1.38.23-1.26,2.67c0,0-1.92.73-1.07,4.39l3.4.06,3.38-.39c.49-3.72-1.5-4.27-1.5-4.27"/><path class="cls-24" d="M173.73,238.11h0c-5.5.83-3.45,12.2-3.45,12.2l4-.61h0l4-.61s.92-11.82-4.58-11"/><path class="cls-23" d="M175.74,244.44c-.11-2.24-1.22-2.22-1.22-2.22l0-.54-.29-.81c-.13-.35-.57-.28-.66.1l-.21.89,0,.53s-1.1.32-1,2.56c0,0-1.54.83-.83,4.15l2.73-.21,2.7-.62c.38-3.48-1.22-3.83-1.22-3.83"/><path class="cls-24" d="M211.82,236.25h0c5.56.3,4.62,11.81,4.62,11.81l-4.05-.22h0l-4.06-.22s-2.07-11.67,3.49-11.37"/><path class="cls-23" d="M210.44,242.75c-.11-2.25,1-2.33,1-2.33l0-.54.21-.83c.09-.36.55-.34.67,0l.3.87,0,.53s1.13.21,1.24,2.45c0,0,1.61.68,1.23,4l-2.73.05-2.76-.35c-.71-3.43.85-3.93.85-3.93"/><path class="cls-17" d="M162.46,255.27,150.84,246s11.76,4.65,22.5-3.37c0,0,10,4.44,19.89,4l.4,8.06-29.78,1.45Z"/><path class="cls-17" d="M224.71,252.23l10.65-10.4s-11.24,5.77-22.71-1.15c0,0-9.49,5.38-19.42,5.87l.4,8.06,29.77-1.45Z"/><path class="cls-22" d="M160.76,282.85l1.7-27.58a270.68,270.68,0,0,1,31-3.49l1.43,29.4Z"/><path class="cls-22" d="M229.08,279.52l-4.37-27.29a270.18,270.18,0,0,0-31.22-.45l1.43,29.4Z"/><path class="cls-24" d="M194,261.29h0c-8.75.42-5.61,16.39-5.61,16.39l6.4-.31h0l6.39-.31s1.58-16.2-7.18-15.77"/><path class="cls-23" d="M197.08,270.3c-.15-3.12-1.92-3.24-1.92-3.24l0-.73-.45-1.16a.55.55,0,0,0-1,.05l-.34,1.2,0,.73s-1.75.3-1.6,3.41c0,0-2.46.94-1.37,5.61l4.34.08,4.31-.5c.63-4.75-1.91-5.45-1.91-5.45"/><path class="cls-24" d="M169.71,263.73h0c-7,1.07-4.41,15.58-4.41,15.58l5.13-.78h0l5.13-.78s1.17-15.08-5.85-14"/><path class="cls-23" d="M172.27,271.82c-.14-2.87-1.56-2.84-1.56-2.84l0-.68-.37-1c-.15-.44-.73-.35-.84.13l-.27,1.14,0,.67s-1.41.41-1.27,3.27c0,0-2,1.06-1.06,5.29l3.48-.26,3.45-.79c.48-4.44-1.56-4.89-1.56-4.89"/><path class="cls-24" d="M218.32,261.36h0c7.09.38,5.9,15.08,5.9,15.08l-5.18-.28h0l-5.18-.28s-2.63-14.9,4.46-14.52"/><path class="cls-23" d="M216.56,269.66c-.14-2.87,1.27-3,1.27-3l0-.68.27-1.07c.11-.45.69-.42.85.05l.38,1.1,0,.68s1.44.27,1.58,3.13c0,0,2.06.86,1.57,5.16l-3.49.08-3.51-.45c-.91-4.38,1.08-5,1.08-5"/><path class="cls-17" d="M158.64,285.78l-13.59-10.89s13.75,5.44,26.32-3.94c0,0,11.66,5.2,23.28,4.63l.46,9.43-34.84,1.7Z"/><path class="cls-17" d="M231.48,282.23l12.46-12.17s-13.15,6.76-26.57-1.35c0,0-11.1,6.3-22.72,6.87l.46,9.43,34.84-1.7Z"/><path class="cls-22" d="M231.48,282.23A316.8,316.8,0,0,0,195,281.7a316.08,316.08,0,0,0-36.31,4.08l-2,32.28,40-1.95,40-1.95Z"/><path class="cls-24" d="M195.36,290.15h0c-10.11.49-6.48,18.94-6.48,18.94l7.39-.36h0l7.39-.36s1.81-18.72-8.3-18.22"/><path class="cls-23" d="M199,300.56c-.18-3.6-2.23-3.74-2.23-3.74l0-.85-.52-1.34a.65.65,0,0,0-1.22.06l-.39,1.38,0,.86s-2,.33-1.85,3.93c0,0-2.84,1.09-1.58,6.49l5,.08,5-.57c.73-5.49-2.2-6.3-2.2-6.3"/><path class="cls-24" d="M167.35,293h0c-8.11,1.23-5.09,18-5.09,18l5.92-.9h0l5.93-.9s1.35-17.43-6.76-16.19"/><path class="cls-23" d="M170.31,302.32c-.16-3.32-1.81-3.28-1.81-3.28l0-.79-.43-1.2c-.19-.51-.85-.41-1,.15l-.3,1.31,0,.79s-1.62.46-1.46,3.77c0,0-2.27,1.23-1.23,6.12l4-.31,4-.91c.55-5.14-1.81-5.65-1.81-5.65"/><path class="cls-24" d="M223.51,290.24h0c8.2.43,6.82,17.41,6.82,17.41l-6-.32h0l-6-.32s-3-17.21,5.15-16.77"/><path class="cls-23" d="M221.48,299.82c-.17-3.31,1.47-3.44,1.47-3.44l0-.79.31-1.23c.14-.53.8-.49,1,.05l.43,1.28,0,.78s1.66.31,1.82,3.62c0,0,2.38,1,1.82,6l-4,.09-4.06-.52c-1-5.06,1.25-5.8,1.25-5.8"/><path class="cls-22" d="M154.76,316.38s28.17-2.64,41.72-3.3l1.59,32.57S169,347,150.12,351.88l4.15-9.88Z"/><path class="cls-24" d="M196.82,320h0c-10.11.5-6.48,19-6.48,19l7.38-.36h0l7.38-.36s1.82-18.72-8.29-18.23"/><path class="cls-23" d="M200.44,330.45c-.18-3.6-2.23-3.74-2.23-3.74l0-.85-.52-1.34a.64.64,0,0,0-1.22.06L196,326l0,.85s-2,.34-1.85,3.94c0,0-2.84,1.09-1.58,6.49l5,.08,5-.57c.73-5.5-2.2-6.3-2.2-6.3"/><path class="cls-24" d="M167.35,324h0c-8.13.82-5.1,17.69-5.1,17.69l5.94-.59h0l5.94-.6s1.35-17.31-6.78-16.5"/><path class="cls-23" d="M170.32,333.48c-.16-3.31-1.81-3.36-1.81-3.36l0-.79-.43-1.22a.5.5,0,0,0-1,.1l-.31,1.29,0,.79s-1.63.38-1.47,3.69c0,0-2.28,1.1-1.23,6l4-.09,4-.71c.55-5.09-1.81-5.73-1.81-5.73"/><path class="cls-24" d="M227.89,321.06h0c8.17,0,6.8,17.11,6.8,17.11l-6,0h-6s-3-17.1,5.14-17.08"/><path class="cls-23" d="M225.86,330.77c-.16-3.31,1.47-3.52,1.47-3.52l0-.79.31-1.25a.5.5,0,0,1,1,0l.43,1.26,0,.78s1.66.22,1.82,3.53c0,0,2.38.88,1.82,5.89l-4,.29-4-.31c-1-5,1.25-5.88,1.25-5.88"/><path class="cls-17" d="M154.27,342s19.11-2.2,43.46-3.38l.34,7-47.95,6.23Z"/><path class="cls-17" d="M241.3,337.75s-19.23-.32-43.58.87l.35,7,48.32,1.53Z"/><path class="cls-20" d="M134,357.34c3.49-1.21,7.09-2.14,10.67-3a255.26,255.26,0,0,1,29.41-5.43,304.57,304.57,0,0,1,42.37-2.43,274.74,274.74,0,0,1,32.43,2.23c4.65.61,9.25,1.4,13.84,2.32l.18,0a1.13,1.13,0,0,0,.52-2.2c-3.73-.88-7.55-1.45-11.35-2a272.75,272.75,0,0,0-30.88-2.55,305.88,305.88,0,0,0-42.58,1.77,274.21,274.21,0,0,0-31.82,5.41,124.52,124.52,0,0,0-13.3,3.65l-.17.06c-1.37.48-.7,2.64.68,2.16"/><path class="cls-17" d="M196.18,306.86l.3,6.22c-13.55.66-41.72,3.3-41.72,3.3l-15.18-9.55c.53.22,16.08,6.45,29.2-6.13,0,0,5.44,7.23,27.4,6.16"/><path class="cls-17" d="M196.18,306.86l.3,6.22c13.55-.66,41.85-.78,41.85-.78l14.17-11c-.51.27-15.38,8-29.66-3.26,0,0-4.71,7.73-26.66,8.8"/><path class="cls-24" d="M154.78,317c2.37-.3,4.75-.54,7.13-.78,6.47-.65,13-1.18,19.44-1.63q7.58-.53,15.15-.9a.57.57,0,0,0,0-1.13q-12.48.62-24.93,1.65c-4.83.4-9.65.85-14.46,1.39l-2.33.26c-.72.09-.69,1.23,0,1.14"/><path class="cls-24" d="M238.3,311.74c-2.4-.07-4.8-.07-7.2-.08q-9.72,0-19.44.27-7.6.21-15.2.58a.57.57,0,0,0,0,1.13q12.51-.6,25-.79c4.82-.07,9.64-.09,14.46,0l2.35,0c.73,0,.69-1.11,0-1.13"/><path class="cls-24" d="M159.13,286.27c2-.42,4.05-.74,6.09-1.06,5.52-.85,11.07-1.51,16.63-2q6.54-.6,13.12-.92a.57.57,0,0,0,0-1.13q-10.83.53-21.61,1.82c-4.18.51-8.36,1.11-12.51,1.85-.68.12-1.35.24-2,.38s-.37,1.23.34,1.08"/><path class="cls-24" d="M231.29,281.66c-2.1-.23-4.22-.36-6.33-.48-5.62-.32-11.25-.44-16.88-.4q-6.59,0-13.15.36a.57.57,0,0,0,0,1.13c7.19-.35,14.4-.46,21.61-.29,4.17.1,8.34.28,12.5.61l1.55.13.23,0c.18,0,0,0,0,0l.14,0c.71.07,1-1,.26-1.1"/><path class="cls-24" d="M162.56,256.33c1.75-.36,3.48-.63,5.24-.91,4.78-.74,9.58-1.31,14.39-1.75q5.67-.53,11.34-.8a.57.57,0,0,0,0-1.13q-9.35.47-18.66,1.58c-3.62.44-7.24,1-10.84,1.6l-1.77.33c-.71.15-.37,1.23.34,1.08"/><path class="cls-24" d="M225,252.2c-1.81-.2-3.64-.31-5.46-.42-4.85-.27-9.7-.37-14.55-.35-3.82,0-7.64.13-11.46.31a.57.57,0,0,0,0,1.13q9.33-.45,18.66-.24c3.62.08,7.23.23,10.84.52l1.33.11.21,0c.16,0,0,0,0,0l.12,0c.72.07,1-1,.26-1.1"/><path class="cls-24" d="M168.41,232.41a138.6,138.6,0,0,1,15.21-2.06c2.92-.27,5.85-.47,8.79-.62a.57.57,0,0,0,0-1.13,180.3,180.3,0,0,0-23,2.48l-1.35.25c-.71.15-.37,1.23.34,1.08"/><path class="cls-24" d="M216.81,229a140.1,140.1,0,0,0-15.6-.6q-4.43,0-8.84.24a.57.57,0,0,0,0,1.13,181.62,181.62,0,0,1,22.86.22l1,.08.16,0h.09c.71.07,1-1,.26-1.1"/><path class="cls-24" d="M170.75,213a118,118,0,0,1,13.15-1.78c2.52-.23,5-.41,7.57-.53a.57.57,0,0,0,0-1.13,155.28,155.28,0,0,0-19.83,2.13l-1.19.23c-.71.14-.37,1.22.34,1.08"/><path class="cls-24" d="M212.59,209.82a121.4,121.4,0,0,0-13.48-.51q-3.84,0-7.68.21a.57.57,0,0,0,0,1.13,155.24,155.24,0,0,1,19.77.18l.9.08h.19c.71.08,1-1,.26-1.1"/><path class="cls-24" d="M173,195.69a104.08,104.08,0,0,1,11.15-1.51q3.23-.28,6.47-.45a.57.57,0,0,0,0-1.13,133.08,133.08,0,0,0-16.9,1.82l-1,.19c-.71.15-.37,1.23.34,1.08"/><path class="cls-24" d="M208.64,192.86a104.45,104.45,0,0,0-11.46-.44q-3.28,0-6.57.18a.57.57,0,0,0,0,1.13,132.81,132.81,0,0,1,16.81.15l.77.07c.09,0,.29,0,.07,0h.07c.72.08,1-1,.27-1.1"/><path class="cls-24" d="M175.34,181a85.82,85.82,0,0,1,9.2-1.25c1.8-.16,3.6-.29,5.41-.38a.57.57,0,0,0,0-1.13,112,112,0,0,0-14,1.52l-.87.16c-.71.15-.37,1.23.34,1.08"/><path class="cls-24" d="M204.91,178.48a86.13,86.13,0,0,0-9.5-.38c-1.83,0-3.67.06-5.5.15a.57.57,0,0,0,0,1.13,111.79,111.79,0,0,1,13.94.13l.66.06h.1c-.12,0,0,0,0,0,.72.07,1-1,.27-1.1"/><path class="cls-17" d="M134.21,214.28l8.85-11.13c.45-.57-.38-1.34-.83-.77l-8.85,11.13c-.45.57.37,1.34.83.77"/><path class="cls-25" d="M136.87,220.62a56.78,56.78,0,0,1,5.57-1.7c.7-.18.36-1.26-.34-1.08a56.78,56.78,0,0,0-5.57,1.7c-.68.25-.35,1.33.34,1.08"/><path class="cls-17" d="M137.32,226.7l9.79,1.65c.71.12,1-1,.26-1.1l-9.79-1.66c-.72-.12-1,1-.26,1.11"/><path class="cls-25" d="M134.49,232.12l1.92,2.27a.57.57,0,0,0,.4.16.64.64,0,0,0,.4-.18.61.61,0,0,0,.15-.41.64.64,0,0,0-.18-.39l-1.92-2.28a.54.54,0,0,0-.4-.15.55.55,0,0,0-.4.18.59.59,0,0,0-.15.4.67.67,0,0,0,.18.4"/><path class="cls-17" d="M128.83,234.46q.27,6.38,0,12.76c0,.72,1.11.68,1.14,0q.21-6.39,0-12.76a.57.57,0,0,0-1.14,0"/><path class="cls-25" d="M124,232.62,122.07,236a.57.57,0,0,0,.23.77.58.58,0,0,0,.76-.23l1.92-3.34a.57.57,0,0,0-.23-.77.59.59,0,0,0-.77.23"/><path class="cls-17" d="M118.44,228.73l-12.2,6.89c-.64.36,0,1.32.6,1l12.21-6.89c.63-.36,0-1.32-.61-1"/><path class="cls-25" d="M118.17,224.13a40.53,40.53,0,0,1-5.29-.37.59.59,0,0,0-.69.42.57.57,0,0,0,.42.68,41.91,41.91,0,0,0,5.59.4c.73,0,.69-1.13,0-1.13"/><path class="cls-17" d="M120.54,218.23q-6.24-4-12.37-8.19c-.6-.41-1.13.59-.54,1q6.14,4.18,12.37,8.2c.62.4,1.15-.6.54-1"/><path class="cls-25" d="M126.13,213.69a38,38,0,0,0-1.68-4.66.58.58,0,0,0-.71-.37.56.56,0,0,0-.37.7,38.79,38.79,0,0,1,1.68,4.67.57.57,0,0,0,1.08-.34"/><path class="cls-17" d="M256.84,236.55l6.5-8.19c.46-.57-.37-1.35-.82-.77L256,235.77c-.45.57.37,1.35.83.78"/><path class="cls-25" d="M258.73,241.25a42,42,0,0,1,4.09-1.26.57.57,0,0,0,.37-.71.58.58,0,0,0-.71-.37,42,42,0,0,0-4.09,1.26.57.57,0,0,0-.37.7.58.58,0,0,0,.71.38"/><path class="cls-17" d="M259,245.72l7.2,1.21c.71.12,1-1,.26-1.1l-7.2-1.22c-.71-.12-1,1-.26,1.11"/><path class="cls-25" d="M256.83,249.67l1.41,1.67a.56.56,0,0,0,.41.15.53.53,0,0,0,.39-.18.55.55,0,0,0,.16-.4.73.73,0,0,0-.18-.4l-1.41-1.67a.56.56,0,0,0-.41-.15.53.53,0,0,0-.39.18.55.55,0,0,0-.16.4.73.73,0,0,0,.18.4"/><path class="cls-17" d="M252.63,251.28q.18,4.69,0,9.38c0,.73,1.1.69,1.13,0q.17-4.68,0-9.38a.57.57,0,0,0-1.13,0"/><path class="cls-25" d="M249.08,249.86l-1.41,2.45a.57.57,0,0,0,.23.77.58.58,0,0,0,.76-.23l1.41-2.46a.56.56,0,0,0-1-.53"/><path class="cls-17" d="M245.06,246.94l-9,5.07c-.63.36,0,1.31.61,1l9-5.06c.64-.36,0-1.32-.6-1"/><path class="cls-25" d="M244.93,243.53a29.06,29.06,0,0,1-3.85-.26.57.57,0,0,0-.68.42.56.56,0,0,0,.41.68,30.51,30.51,0,0,0,4.16.29.57.57,0,0,0,0-1.13"/><path class="cls-17" d="M246.75,239.22q-4.59-3-9.1-6c-.6-.41-1.13.59-.53,1,3,2,6,4.06,9.09,6,.62.4,1.15-.6.54-1"/><path class="cls-25" d="M250.94,236a31.87,31.87,0,0,0-1.24-3.43.58.58,0,0,0-.71-.37.57.57,0,0,0-.37.71,29.8,29.8,0,0,1,1.23,3.43.57.57,0,0,0,1.09-.34"/><path class="cls-12" d="M299.14,317l2.09-12.56a3.2,3.2,0,0,0,1.48-2c.21-1.31-1.62-4.66-4.46-5.73s-2.15-2.13-4.38-5.83-7.54-6-10-3.88-3.26,5.73-4.3,7.18-1.43,3.09-.84,3.78l-6.14,11.45s16.95,4.36,26.59,7.61"/><path class="cls-18" d="M300.85,306.72c-.74,4.42-1.7,10.26-1.7,10.26-1.8-.6-3.86-1.25-6-1.89a31.5,31.5,0,0,1,.85-4.83c.78-3,1.14-1.26,1.6.31s1.79-2.44,2.78-3.64c.71-.87,2-2,2.48-.21"/><path class="cls-21" d="M302.71,302.4a3,3,0,0,1-1.21,1.84.5.5,0,0,0-.27.18h0c-1.48,2-3.54.22-4.46-1.12s-2.47-.2-4.15-1.72-2.13.11-7.45.36-1.81-4.18-4.35-3.63-2.13-.39-2.13-.39c-.59-.69-.21-2.34.84-3.78s1.79-5.11,4.29-7.19,7.82.18,10.05,3.88,1.53,4.77,4.37,5.84,4.68,4.42,4.47,5.73"/><path d="M275,305.74q2-3.87,3.8-7.88c.29-.67-.7-1.21-1-.54q-1.77,4-3.81,7.88a.57.57,0,0,0,1,.54"/><path class="cls-18" d="M266.19,284.63s-2.29,1.06-2.72,5.47,1.18,2.68,1.9.2c0,0,2.62-6.6.82-5.67"/><path class="cls-12" d="M308.38,314.35l9.28-15.59s-1.67,0-.09-1.94,4.6-8.51,8.46-8.7,6.53,1.87,10-1.13,11-11.31,15.6-4.79-2.45,7.84-.6,14-1.1,6.58-.74,8.5-1.09,4.12-2.9,4l-10.4,19s-17-11.41-28.6-13.42"/><path class="cls-18" d="M336.27,307.22a143.89,143.89,0,0,1-6,16.4,120.33,120.33,0,0,0-11.08-5.71c1-1.68,2.2-3.82,3.25-6.05,2.37-5,2.45-1.72,2.55.38s5.75-6.8,8.77-8.92,4.47-3.37,2.55,3.9"/><path class="cls-21" d="M350.28,304.71a3.82,3.82,0,0,1-1.16,3.36c-.25.18-.48.34-.68.46h0a2.22,2.22,0,0,1-1.05.21c-1.58-1.39-3.44,0-4.19-1s-.15-1.7-1.31-2.11-1.18-1.57-.5-3.4-.05-4.16-1.74-3.86-3.11,1.26-5.43-.39-3.4.07-4.89,1.35-2.3,2-4.58,1.34-2.08-1.53-3.54-1.31a8.75,8.75,0,0,1-3.54-.58l-.29-.05h0c-.4-.12-.91-.53.21-1.89,1.58-1.92,4.6-8.51,8.46-8.7s6.53,1.87,10-1.13,11-11.31,15.61-4.79-2.45,7.84-.61,14-1.09,6.58-.74,8.5"/><path class="cls-20" d="M263.39,308.43A212.47,212.47,0,0,1,298.11,319c3.2,1.28,6.37,2.65,9.51,4.08a1.15,1.15,0,0,0,1.53-.46,1.13,1.13,0,0,0-.46-1.53A215.69,215.69,0,0,0,274,308.62q-5-1.32-10.07-2.39a1.13,1.13,0,0,0-.53,2.2"/><path class="cls-20" d="M303.31,313.88c11.1,2.45,21.37,7.53,31.06,13.36,2.76,1.66,5.47,3.38,8.17,5.13a1.13,1.13,0,0,0,1.53-.46,1.16,1.16,0,0,0-.46-1.53C334,324.1,324,318.18,313,314.32a80,80,0,0,0-9.21-2.65,1.14,1.14,0,0,0-.52,2.21"/><path class="cls-22" d="M265.16,209.63A2.33,2.33,0,0,0,265,207c-2.4-3.17-9.34-11.07-18.88-11.12-9.3-.06-16.06,6.76-18.6,9.78a2.33,2.33,0,0,0-.08,2.9c2.32,3.09,8.62,9.88,19,9.61,11.89-.3,16.35-4.87,18.67-8.5"/><path class="cls-24" d="M232.09,213.24a25.89,25.89,0,0,1-4.61-4.72,2.34,2.34,0,0,1,.08-2.9,32.59,32.59,0,0,1,4.64-4.5,11.08,11.08,0,0,1,2,5.27,10.5,10.5,0,0,1-2.12,6.85"/><path class="cls-24" d="M245,209.76a147.18,147.18,0,0,0,14,5.13c8.06,2.53,11.18-3.25,6.48-6.13,0,0-8.31,3.12-20.47,1"/><path class="cls-17" d="M238.75,202.64A30.39,30.39,0,0,1,259,205.37a.57.57,0,0,0,.54-1,31.6,31.6,0,0,0-21.1-2.81c-.71.15-.37,1.23.34,1.08"/><path class="cls-17" d="M238,209.22l3.84.86a.57.57,0,1,0,.26-1.1l-3.83-.86a.59.59,0,0,0-.69.42.58.58,0,0,0,.42.68"/><path class="cls-17" d="M239.61,213.51a30.44,30.44,0,0,0,15.86,1.16c.71-.14.37-1.22-.34-1.08a29.3,29.3,0,0,1-15.25-1.18c-.69-.24-.95.86-.27,1.1"/><path d="M266.72,210.05q4.9-8.09,9.15-16.53c.33-.65-.67-1.19-1-.54q-4.23,8.45-9.14,16.53c-.38.62.62,1.16,1,.54"/><path d="M265.67,209.86q2,9.76,3.86,19.58c.13.72,1.21.38,1.08-.33q-1.82-9.83-3.86-19.59c-.15-.71-1.23-.37-1.08.34"/><path d="M268.94,232.24h0a1.26,1.26,0,0,1-1-1.48l7.8-41.37a1.27,1.27,0,0,1,2.49.47l-7.8,41.37a1.26,1.26,0,0,1-1.48,1"/><polygon class="cls-16" points="303.35 200.54 304.69 208.68 313.62 209.37 305.53 213.68 306.91 221.81 300.56 216.33 292.49 220.66 296.66 212.97 290.29 207.52 299.21 208.24 303.35 200.54"/><path d="M110.81,333.1a83,83,0,0,0,11.06,14.51c.5.53,1.27-.3.77-.82a82,82,0,0,1-10.87-14.29.57.57,0,0,0-1,.6"/><path d="M267.6,314.84a83.13,83.13,0,0,1-6.14,18.49q-1.18,2.52-2.53,4.95a.56.56,0,0,0,1,.54,84.49,84.49,0,0,0,7.45-18.22q.76-2.73,1.33-5.5c.15-.71-.95-1-1.1-.26"/><path class="cls-26" d="M82.49,381.53l25.89-18.61s3.45,6.74.49,10.14-15,10.69-18.88,11.23-7.5-2.76-7.5-2.76"/><path d="M89.14,366q3-1.42,6.15-2.65c.67-.27.34-1.35-.34-1.08q-3.26,1.29-6.42,2.77a.57.57,0,0,0-.18.78.6.6,0,0,0,.79.18"/><path d="M93.2,369.62c1.11-.74,2.27-1.44,3.45-2.08a.56.56,0,0,0,.17-.78.58.58,0,0,0-.78-.17q-1.77,1-3.45,2.07a.57.57,0,1,0,.61,1"/><path class="cls-16" d="M309.74,342.35l11.65-31s11.35,8.69,14,15.51-18.06,18.05-18.06,18.05Z"/><path class="cls-16" d="M303.11,340s6.95-6.76,7.44-10S300,325.09,300,325.09l-.3,14Z"/><path class="cls-26" d="M285.5,335.06s30.67,5.87,49.43,15.4c0,0-9,6.59-13.83,7.39s-12.65-4.4-23.2-6.72-12.4-16.07-12.4-16.07"/><path d="M319.54,320.77a84.33,84.33,0,0,1,11.88,12.67c.44.57,1.4,0,1-.61a86.12,86.12,0,0,0-12.07-12.89c-.55-.48-1.32.35-.77.83"/><path d="M316.14,328.8c3.58,2.75,7.23,5.56,9.9,9.25.42.58,1.38,0,.95-.61-2.73-3.78-6.41-6.65-10.07-9.47-.58-.44-1.35.38-.78.83"/><path d="M313.44,336.59a64.83,64.83,0,0,0,6.28,5.17.58.58,0,0,0,.8,0,.57.57,0,0,0,0-.8,64.83,64.83,0,0,1-6.28-5.17c-.53-.5-1.3.33-.77.83"/><path d="M301.93,329.64c2,1,3.9,2.09,5.8,3.22.63.38,1.16-.62.54-1-1.9-1.14-3.84-2.21-5.8-3.22-.65-.34-1.19.66-.54,1"/><path d="M301,334.39l4,2.08a.56.56,0,1,0,.54-1l-4-2.09a.57.57,0,0,0-.54,1"/><path class="cls-27" d="M501.4,409.41s-.92,13.71-3.56,19.38C493,439.28,456.32,446,456.32,446l3.33,11.28s35.2-19.8,43.29-15.6c5.76,3,15.35,14.12,15.35,14.12s8.3-7.48,2.36-26.29c-5.75-18.21-19.25-20.06-19.25-20.06"/><path class="cls-28" d="M479.33,446.22c6.82-2.49,13.75-5,20.88-6.44a29.81,29.81,0,0,1,6.91-.76,10.89,10.89,0,0,1,2.47.34,16.24,16.24,0,0,1,3.34,1.56,28.6,28.6,0,0,1,8.39,7.37c.48.59,1.45-.1,1-.7a30.63,30.63,0,0,0-7.61-7,15.49,15.49,0,0,0-6.58-2.68,25.74,25.74,0,0,0-6.78.46,83.7,83.7,0,0,0-9.21,2.29c-4.45,1.33-8.84,2.87-13.2,4.47a.59.59,0,0,0,.42,1.11"/><path class="cls-28" d="M509.34,414.57c.52,3.41-1.07,7-3,9.73a25.64,25.64,0,0,1-4.91,5.36,55.92,55.92,0,0,1-11.85,6.9c-3.8,1.75-7.68,3.29-11.6,4.72a.6.6,0,0,0,.42,1.12,116.49,116.49,0,0,0,18.5-8.26,42.77,42.77,0,0,0,5-3.34,27.36,27.36,0,0,0,5-5.18c2.28-3.1,4.24-7.22,3.64-11.17-.12-.75-1.31-.64-1.19.12"/><path class="cls-28" d="M518.88,427.83c-4.88,2.21-9.91,4.11-14.91,6Q495,437.25,486,440.41c-2.53.88-5.07,1.76-7.62,2.58-.73.23-.3,1.35.43,1.12,5.1-1.64,10.15-3.46,15.19-5.3,6-2.17,12-4.41,17.86-6.76,2.49-1,5-2,7.42-3.1.7-.32.28-1.43-.43-1.12"/><path class="cls-28" d="M500.93,423a18,18,0,0,1,6.57,7.32,14.69,14.69,0,0,1,1.57,3.91,21,21,0,0,1,.43,4.74,19.51,19.51,0,0,1-.86,5.63c-.23.73.85,1.24,1.09.5a22,22,0,0,0,.62-10.53,20.09,20.09,0,0,0-4.38-8.71,16.33,16.33,0,0,0-4.54-3.94c-.67-.38-1.16.71-.5,1.08"/><path class="cls-28" d="M490,436.18a5.38,5.38,0,0,1,1.93,5.82.63.63,0,0,0,.3.8.6.6,0,0,0,.79-.3,6.58,6.58,0,0,0-2.26-7.24c-.62-.46-1.38.46-.76.92"/><path class="cls-29" d="M470.13,380.11s.74,10.38-.65,14.91c-2.57,8.37-29.36,17.19-29.36,17.19l3.66,8.12s24.36-18.51,30.86-16.2c4.63,1.64,13.6,10.1,13.6,10.1s4.83-7.59-1.58-21.07c-6.21-13.07-16.53-13.05-16.53-13.05"/><path class="cls-30" d="M455.68,411.12a117.26,117.26,0,0,1,15.63-7.37,23.83,23.83,0,0,1,5.31-1.37,7.74,7.74,0,0,1,1.92,0,11.85,11.85,0,0,1,2.73.79,22.93,22.93,0,0,1,7.56,4.93c.56.52,1.32-.4.76-.93a24.54,24.54,0,0,0-6.79-4.67,12.56,12.56,0,0,0-5.52-1.35,20.17,20.17,0,0,0-5.26,1.13,63.27,63.27,0,0,0-6.94,2.8c-3.33,1.54-6.6,3.23-9.83,5a.6.6,0,0,0-.34.77.59.59,0,0,0,.77.34"/><path class="cls-30" d="M475.62,382.91c.86,2.88-.32,6.19-1.74,8.69a21.49,21.49,0,0,1-3.14,4.26,43.78,43.78,0,0,1-8.74,6.69c-3,1.86-6.1,3.54-9.25,5.12-.68.35-.26,1.47.43,1.12a91.56,91.56,0,0,0,14.59-8.73,27.14,27.14,0,0,0,6.88-7.41c1.77-2.93,3.1-6.75,2.09-10.16-.22-.74-1.34-.31-1.12.42"/><path class="cls-30" d="M484.56,392.09c-3.57,2.26-7.29,4.3-11,6.35q-6.6,3.63-13.29,7.1c-1.87,1-3.75,1.94-5.66,2.86-.68.33-.26,1.45.43,1.12,3.83-1.86,7.6-3.85,11.35-5.85,4.49-2.39,9-4.82,13.36-7.35,1.85-1.06,3.7-2.12,5.5-3.27.65-.41-.05-1.37-.7-1"/><path class="cls-30" d="M469.94,390.45a14.25,14.25,0,0,1,6,5,12,12,0,0,1,1.63,2.84,17.2,17.2,0,0,1,.8,8.19.6.6,0,0,0,1.18.2,17.67,17.67,0,0,0-.71-8.38,16,16,0,0,0-4.37-6.3,12.74,12.74,0,0,0-4-2.64c-.71-.29-1.21.8-.5,1.08"/><path class="cls-30" d="M462.93,402.05a4.15,4.15,0,0,1,2,4.25.59.59,0,0,0,1.17.21,5.34,5.34,0,0,0-2.71-5.54.6.6,0,0,0-.79.29.61.61,0,0,0,.29.79"/><path class="cls-28" d="M470.38,342.18s8.11,18.44,4.79,26.14C469.31,381.93,432,400.63,432,400.63l12.41,14.53s23.59-29.53,37.8-35.49c9.77-4.1,25.63,11.11,25.63,11.11s6.21-16.33-7.28-35c-13.68-18.93-30.22-13.61-30.22-13.61"/><path class="cls-31" d="M509.25,380.61c-2.39-1.2-4.8-2.36-7.24-3.45a51.08,51.08,0,0,0-7.73-2.91,15,15,0,0,0-8.43.1,28.68,28.68,0,0,0-7.45,4c-8.09,5.52-15.26,12.24-22.35,19-3.73,3.54-7.41,7.13-11.19,10.62-.55.52.14,1.49.7,1,7-6.44,13.67-13.16,20.75-19.47a121.51,121.51,0,0,1,10.45-8.5c4.5-3.17,9.39-6.73,15.2-5.91a34.41,34.41,0,0,1,8.79,2.92c2.71,1.18,5.36,2.46,8,3.79.69.34,1.19-.75.5-1.09"/><path class="cls-31" d="M502.14,358.6c-8.33,5.25-16.37,11-24.26,16.87q-12.75,9.51-25,19.71-6.07,5.07-12,10.38c-.56.51.13,1.48.7,1,7.31-6.62,14.9-12.92,22.62-19,8.29-6.6,16.76-13,25.43-19.1,4.32-3,8.69-6,13.16-8.81.65-.41,0-1.38-.7-1"/><path class="cls-31" d="M482.83,343.08a36.5,36.5,0,0,1,1.61,14.75,18.88,18.88,0,0,1-3.64,9.48,35.25,35.25,0,0,1-5.07,5.22c-1.89,1.68-3.79,3.33-5.72,5q-5.65,4.77-11.49,9.3c-4.44,3.46-8.94,6.86-13.44,10.25-.61.46.08,1.43.7,1,8.14-6.14,16.27-12.29,24.08-18.85q3-2.48,5.86-5a45.15,45.15,0,0,0,5.41-5.3,20,20,0,0,0,4.38-9.93,36.8,36.8,0,0,0-1.57-16.24c-.23-.73-1.35-.31-1.11.42"/><path class="cls-31" d="M476.74,355.2a16.15,16.15,0,0,1,11.62,3.42,20.37,20.37,0,0,1,4.7,5.47,23,23,0,0,1,3,7.38,18.36,18.36,0,0,1-.26,8.34c-.19.74,1,.94,1.18.2a19.2,19.2,0,0,0,.41-7.91,23.76,23.76,0,0,0-2.85-7.81c-2.43-4.28-6-7.87-10.71-9.47a17.23,17.23,0,0,0-7.23-.81.6.6,0,0,0,.12,1.19"/><path class="cls-31" d="M469.22,377.19a5.42,5.42,0,0,1,3.88,6.33c-.15.75,1,1,1.18.2a6.55,6.55,0,0,0-4.85-7.71c-.75-.19-.94,1-.21,1.18"/><path d="M447.36,408a57.92,57.92,0,0,0,3.07-10.33c.43-2.61.71-6.35.26-8-1.31.84-1.8,1.48-3.07,2.25l-5.51,11Z"/><path class="cls-32" d="M411.77,387.17s29-15.69,37.16-4.07S436,414.59,436,414.59Z"/><path class="cls-33" d="M445.82,405.63c.52-3.28-2.53-6.17-5.41-7.1a16.29,16.29,0,0,0-5.42-.6,24.72,24.72,0,0,0-5.61.85,34.46,34.46,0,0,0-4.86,1.58c-.93.41-.37,1.9.57,1.49a32,32,0,0,1,3.94-1.33,25.65,25.65,0,0,1,4.6-.91c3.05-.29,6.46-.19,8.86,1.94a4.41,4.41,0,0,1,1.76,3.81.8.8,0,0,0,1.57.27"/><path class="cls-34" d="M427.33,404.6s35.88-5.42,50.22,27.61c16.5,38-8.92,63.15-8.92,63.15s-7.43-49.58-41.3-90.76"/><path class="cls-33" d="M478,430.75a9.23,9.23,0,0,0-2.79-6.34c-2-1.82-4.89-2.61-7.5-3-5.49-.82-11.11.16-16.39,1.69a84.69,84.69,0,0,0-8.66,3.06.79.79,0,0,0,.57,1.48,67.75,67.75,0,0,1,14.87-4.46,32.56,32.56,0,0,1,7.7-.39,16.63,16.63,0,0,1,7.28,2,7.38,7.38,0,0,1,3.34,6.08c0,1,1.61.87,1.58-.15"/><path class="cls-33" d="M467.82,416.28a6,6,0,0,0-2.95-4.21,12.45,12.45,0,0,0-6.45-1.19,44.84,44.84,0,0,0-7.11.87,52.25,52.25,0,0,0-6.85,1.79,51.15,51.15,0,0,0-7.38,3.18.79.79,0,1,0,.57,1.48A50.5,50.5,0,0,1,450,413.64a54.22,54.22,0,0,1,6.58-1,16.56,16.56,0,0,1,6.39.35,4.54,4.54,0,0,1,3.31,3.48.81.81,0,0,0,.87.71.79.79,0,0,0,.71-.87"/><path class="cls-33" d="M482.76,446.79c1.59-2,.74-4.71-.55-6.58a12.6,12.6,0,0,0-6.63-4.39,34.23,34.23,0,0,0-8.94-1.39,46.46,46.46,0,0,0-8.25.47c-3.12.46-6.2,1.14-9.29,1.77a.8.8,0,0,0,.16,1.59c5.07-1,10.14-2.21,15.34-2.27a39.76,39.76,0,0,1,8.36.81,14.49,14.49,0,0,1,6.9,3.12c1.39,1.25,3.11,4.09,1.67,5.86a.8.8,0,0,0,1.23,1"/><path class="cls-33" d="M484.22,461.74a8,8,0,0,0,0-6.88,11.47,11.47,0,0,0-5.14-5.32,26.31,26.31,0,0,0-7.39-2.44,48.39,48.39,0,0,0-8.4-1,56,56,0,0,0-9.5.62c-1,.15-.86,1.73.15,1.59a50.62,50.62,0,0,1,15.59,0c4.52.76,10.07,1.94,12.67,6.13a6.71,6.71,0,0,1,.55,6.63c-.48.92,1,1.58,1.44.67"/><path class="cls-33" d="M478.41,483.19a4.06,4.06,0,0,0,1.23-3.67,6.15,6.15,0,0,0-2.3-3.68,18.14,18.14,0,0,0-8.33-3.68,19.53,19.53,0,0,0-5.29-.2.8.8,0,0,0,.16,1.59,17.88,17.88,0,0,1,9.8,1.83,9.89,9.89,0,0,1,3.75,2.86c.71,1,1.07,2.71,0,3.66a.82.82,0,0,0-.17,1.11.79.79,0,0,0,1.11.18"/><path class="cls-33" d="M482.13,473.21a5.92,5.92,0,0,0,.93-5.57,9.12,9.12,0,0,0-4-4.76,26.72,26.72,0,0,0-12.49-3.94,39.33,39.33,0,0,0-7.67.26c-1,.13-.86,1.72.15,1.59a32.83,32.83,0,0,1,12.14.48,26.48,26.48,0,0,1,5.58,2.11,10.11,10.11,0,0,1,4.26,3.64,4.62,4.62,0,0,1-.17,5.18.8.8,0,0,0,1.23,1"/><path class="cls-33" d="M452.2,389.25c-2-4.47-7.52-5.31-11.85-5.46a28.72,28.72,0,0,0-8.15.89,65.59,65.59,0,0,0-7.45,2.46,74.25,74.25,0,0,0-8,3.64.82.82,0,0,0-.46,1,.81.81,0,0,0,1,.46,75.7,75.7,0,0,1,13.72-5.6,29,29,0,0,1,7.46-1.3,24.19,24.19,0,0,1,7.29.74c2,.57,4.08,1.72,5,3.71.41.94,1.9.38,1.48-.57"/><path class="cls-33" d="M449.63,398c-1.12-3.93-5.25-5.81-9-6.11a34,34,0,0,0-6.61.22,39.69,39.69,0,0,0-6.21,1.24,38.62,38.62,0,0,0-6.79,2.71.83.83,0,0,0-.46,1,.8.8,0,0,0,1,.45,37.29,37.29,0,0,1,11.35-3.68,40.35,40.35,0,0,1,6.11-.46,12.58,12.58,0,0,1,5.58,1.14,6.66,6.66,0,0,1,3.54,4c.28,1,1.77.41,1.48-.57"/><path class="cls-33" d="M450.36,405.94c-2.3-2.12-5.79-2.66-8.8-2.35a37,37,0,0,0-5.7,1.18,49.38,49.38,0,0,0-5.8,2,.8.8,0,0,0,.57,1.49,42.78,42.78,0,0,1,10.81-3c2.69-.33,5.84.05,7.9,2,.76.69,1.77-.54,1-1.23"/><path class="cls-35" d="M406.93,381.86a206,206,0,0,1,39.17,52.3c18.76,36.12,23.36,65,23.36,65"/><path class="cls-13" d="M508,449.42c-1-2-2-2.53-4.42-2.38a.36.36,0,0,1-.17-.69c2.2-1,2.8-2,2.75-4.2a.4.4,0,0,1,.74-.19c1,2,2,2.53,4.42,2.38a.36.36,0,0,1,.18.69c-2.2,1-2.81,2-2.75,4.2a.4.4,0,0,1-.75.19"/><path class="cls-36" d="M507.73,375.76c-1-1.44-1.77-1.75-3.62-1.4a.28.28,0,0,1-.2-.51c1.59-1,2-1.77,1.7-3.49a.32.32,0,0,1,.56-.22c1,1.44,1.77,1.75,3.62,1.41a.27.27,0,0,1,.19.51c-1.58,1-2,1.77-1.7,3.49a.31.31,0,0,1-.55.21"/><path d="M551.35,464.82s1,7.88-3,8.65-7.25-3.41-7.25-3.41l-1,10.19,7.32,6,8.17-.84,2.12-7.69Z"/><path class="cls-37" d="M497.66,540.06a102.21,102.21,0,0,0,19.53-8.83l18.15-7.78-9.58-33-20.7-4.37-29.58.5a89,89,0,0,0-16,0c-9.5.69-18.34,3.88-22.49,11.81-4.62,8.83-5,34.14,12.85,43.52,14.59,7.67,38.09,1.25,47.83-1.87m-36.07-33.15c-.37-1.14-1.28-2.9,2.07-5.31a4.87,4.87,0,0,1,4.88-.83c2.66,1.33,1.83,4.77-1.23,6.68s-5.34.6-5.72-.54"/><path d="M501.68,491.79l5.2,16.21s4.35-3.16,5.84-4c2.25-1.21,9.4-4,9.4-4l.54-4.51Z"/><path d="M513.52,533.28l-.82-9.66-3.26-.18S508.8,532.87,508,536c2.16-1,4-1.95,5.55-2.74"/><path d="M520.43,501.08a97.32,97.32,0,0,1,.67,10.43,37.47,37.47,0,0,1-1.37,7.64l7.48-2.21L524,502.22Z"/><path class="cls-36" d="M498.74,485.58s1-.35,2.47-.77h0l1.37-.38h0l.7-.18h.05l.73-.18h0l.74-.17h.05l.68-.14h.07l.69-.12c5.63-.85,8.48-1.26,8.48-1.26a10.43,10.43,0,0,0,4-5.09,5.18,5.18,0,0,0,.22-2.44,5.05,5.05,0,0,0-1.58-2.91,5.26,5.26,0,0,0,.92-6.68,4.79,4.79,0,0,0-3.42-2.59,3.5,3.5,0,0,0-3.48,1.51c-2.26,3.27-9,12.21-19.11,17.79-6.79,3.75-17,4.64-17,4.64a4,4,0,0,1,.13,2.29,3.86,3.86,0,0,1-1.88,2.24s3.51,1.94,2.28,5.45c-.79,2.28-3.82,2.13-3.82,2.13a3.07,3.07,0,0,1-.42,2.94c-1.07,1.16-1.78.71-1.78.71s.45,1.3-1.52,3.07a6.41,6.41,0,0,1-4.9,1.73c-1.45-.08-1.54-1.33-2.05-1.94-2.41-2.89-8.3,1.11-6.36,6.91,2.25,6.73,9.8,4.15,9.8,4.15a5.79,5.79,0,0,0,4.06,4.12,5.08,5.08,0,0,0,5.34-1.52,4.27,4.27,0,0,0,5.37,1.62,4.74,4.74,0,0,0,2.77-3.69,7.5,7.5,0,0,0,7.25-3.17,7.41,7.41,0,0,0,.92-7s4.86.37,7.53-3.24a8.57,8.57,0,0,0,1.21-7.12s1.91-.48,3-3.68l-3.81-6.9Z"/><path class="cls-13" d="M520.31,535.19a48.72,48.72,0,0,1,5.94-3.25.73.73,0,0,1,1,.64l.2,1.92a.74.74,0,0,0,1,.63l5.39-2.79a.71.71,0,0,1,.91.25l.57.82a.71.71,0,0,0,.9.25l13.07-6.59a.73.73,0,0,1,.91.26l1.83,2.7a.7.7,0,0,0,.93.24c1.63-.93,6.61-3.75,11.35-6.09,5.77-2.85,12.26-6.9,16.49-13,4.09-5.93,6.16-14.53,3.57-24.65-2.87-11.19-10.38-14-11.8-14.45a.66.66,0,0,0-.44,0L561,476.38a.66.66,0,0,0-.38.37L556.38,486a.7.7,0,0,1-.71.41l-10.36-1.27a.69.69,0,0,1-.45-.24,45,45,0,0,0-8.82-7.72c-4.47-2.68-10.25-5.15-16.59-2.55l-.34.14a5.18,5.18,0,0,1-.22,2.44,10.46,10.46,0,0,1-3.92,5,.74.74,0,0,1-.27.1l-8.34,1.24-.69.12h-.07l-.68.14h-.05l-.74.17h0l-.73.18h-.05l-.7.18h0l-1.37.38h0l-.57.17h0c-1.11.34-1.87.59-1.87.59l-.14,0,3.81,6.91,6.87,12.41a.72.72,0,0,0,.88.35l10.08-3.9a.73.73,0,0,1,.92.43,37,37,0,0,1,2.17,7.44,24.5,24.5,0,0,1-.06,7.86.72.72,0,0,1-.47.56L510,522a.72.72,0,0,0-.47.77l1.35,16.76a.74.74,0,0,0,1.07.64c1.84-1.07,5.87-3.29,8.38-4.95"/><path class="cls-13" d="M548.9,464.27s-3.88,2.26-3.35,4.34c.4,1.59,2.29,1,7,2.47Z"/><path class="cls-38" d="M542.28,477.19s4.1-2.13,3.67-3.72-2.1-1.87-6.82-1.1Z"/><path class="cls-37" d="M541.11,470.06a19.34,19.34,0,0,0,1.28,5.89c1.3,3.63,4.76,9.81,8.47,4.29,3.54-5.26.84-12.06-4.58-15a1.38,1.38,0,0,1-.68-1.52c.35-1.5,1.2-5.6,5.8-5.53,0,0,6.39-5.75,10.32-1.44a15.23,15.23,0,0,1,3.82,9.66,10.43,10.43,0,0,1,8.3,5.59c2.48,4.68,2.94,12.41,2.94,12.41a30.3,30.3,0,0,1,4.74,2.63c1.74,1.48.29,2.33-3.22,4.22s-3.45,1.67-6.27,3-6.72,2.75-15,.94c-3.93-.86-11.81-5.6-15.52-10.77-2.56-3.56-7.77-6.42-9-11.41-1.07-4.37,2.73-7.62,8.59-3"/><path d="M540.83,472.3a11.58,11.58,0,0,0,.58,2.39,9.28,9.28,0,0,0,.79,2,.62.62,0,1,0,1-.72c-.05-.09.08.15,0,.06l0-.08a1.19,1.19,0,0,1-.08-.16l-.18-.44c-.13-.36-.26-.73-.38-1.09s-.24-.79-.34-1.19l0-.15c0,.08,0,.06,0,0l-.06-.26c0-.15,0-.31-.07-.47a.62.62,0,1,0-1.23.12"/><path class="cls-36" d="M502.64,484.41l.7-.18-.7.18"/><path class="cls-36" d="M506.36,483.59l-.69.12.69-.12"/><path class="cls-36" d="M505.6,483.72l-.68.14.68-.14"/><path class="cls-36" d="M504.12,484l-.73.18.73-.18"/><path class="cls-36" d="M504.87,483.87l-.74.17.74-.17"/><path class="cls-36" d="M502.61,484.42l-1.37.38,1.37-.38"/><path class="cls-39" d="M544,493.54a66,66,0,0,1-7.71-4.61,42,42,0,0,0-7.94-4.22,35.23,35.23,0,0,0-8.93-2.12,50.19,50.19,0,0,0-9.65.1,64.17,64.17,0,0,0-11,2c-.79.22-.33,1.41.45,1.19a61.75,61.75,0,0,1,9.61-1.85,51.91,51.91,0,0,1,9.49-.29,33.74,33.74,0,0,1,8.82,1.85,37.88,37.88,0,0,1,7.83,4,77.12,77.12,0,0,0,8.49,5.12.64.64,0,0,0,.54-1.16"/><path class="cls-39" d="M546,512.45a117.81,117.81,0,0,0-28.86,6.32q-3.93,1.44-7.71,3.27c-.73.35-.28,1.55.46,1.19a100.36,100.36,0,0,1,28-8.45c2.74-.43,5.48-.78,8.24-1.06a.64.64,0,0,0-.13-1.27"/><path class="cls-39" d="M581.71,494.73c-1.81,3.89-5.86,6-9.89,6.94a41.83,41.83,0,0,1-15,.14c-5.09-.71-10.1-1.85-15.18-2.59a53.36,53.36,0,0,0-15.35-.22,47.47,47.47,0,0,0-16.43,5.65c-.71.41,0,1.44.75,1a45.29,45.29,0,0,1,14.74-5.25,50.61,50.61,0,0,1,15.54,0c10.05,1.4,20.33,4.71,30.53,2.64,4.65-.94,9.33-3.29,11.42-7.78a.64.64,0,0,0-1.16-.53"/><path class="cls-39" d="M576.42,511.07c-4.38,4.16-10.48,5.4-16.28,6.12-6.3.78-12.63,1.27-18.9,2.31A64.82,64.82,0,0,0,530,522.29a.65.65,0,0,0-.37.83,40.47,40.47,0,0,0,5.62,11c.5.65,1.54-.09,1-.74a39.5,39.5,0,0,1-5.46-10.68c-.12.27-.24.55-.37.82,6.55-2.34,13.48-3.17,20.34-4,5.94-.7,12.07-1,17.83-2.7a21.57,21.57,0,0,0,8.76-4.94c.59-.56-.4-1.36-1-.8"/><path class="cls-39" d="M547,496.34a31,31,0,0,0,13,1.75.64.64,0,0,0-.13-1.27,29.18,29.18,0,0,1-12.28-1.64c-.77-.25-1.31.9-.54,1.16"/><path d="M545.9,465.7a9.48,9.48,0,0,1,5.44,5.24c.31.73,1.47.29,1.16-.45a10.68,10.68,0,0,0-6.08-5.91.64.64,0,0,0-.82.3.62.62,0,0,0,.3.82"/><path class="cls-39" d="M482.7,505a19.35,19.35,0,0,0-3.66-5.16,17.71,17.71,0,0,0-5.13-3.2.63.63,0,0,0-.53,1.15,16.85,16.85,0,0,1,4.78,3,17.58,17.58,0,0,1,3.35,4.7.64.64,0,0,0,1.19-.45"/><path class="cls-39" d="M469.86,499.1c1.95,1.35,4,3,4.69,5.37a9.7,9.7,0,0,1,.31,3.08,4.77,4.77,0,0,1-.75,2.58c-.49.66.49,1.47,1,.81,1.36-1.8,1.23-4.6.7-6.68-.69-2.7-2.93-4.62-5.13-6.14-.67-.46-1.49.52-.81,1"/><path class="cls-39" d="M470,502.15a5.77,5.77,0,0,1-.17,4.09,8.61,8.61,0,0,1-2.26,3.46,4.4,4.4,0,0,1-5.38.17,2,2,0,0,1-.81-2.2.63.63,0,0,0-.52-.73.65.65,0,0,0-.73.51c-.73,2.43,1.77,4.21,3.89,4.48a5.77,5.77,0,0,0,3.78-.82,8.68,8.68,0,0,0,2.93-3.73,7.46,7.46,0,0,0,.46-5.69.64.64,0,0,0-1.19.46"/><path class="cls-39" d="M491.64,495.38a30.11,30.11,0,0,1-16.89-1.15c-.77-.28-1.3.88-.53,1.16a31.45,31.45,0,0,0,17.55,1.26.66.66,0,0,0,.57-.69.65.65,0,0,0-.7-.58"/><path class="cls-39" d="M493.12,487.79c-6,3-12.8,3.11-19.32,2.61-.81-.06-1,1.2-.22,1.26,6.74.52,13.82.38,20-2.68.72-.36.28-1.55-.46-1.19"/><path class="cls-13" d="M498,516.81a5.49,5.49,0,0,0,2.53,10.46c-.15-.39-.3-.77-.44-1.16a6.44,6.44,0,0,0-2.16,5,5.26,5.26,0,0,0,2.79,4.38c.74.37,1.28-.8.54-1.16a4,4,0,0,1-2.05-3.35,5.06,5.06,0,0,1,1.63-3.86.65.65,0,0,0-.44-1.16,4.21,4.21,0,0,1-1.94-8c.75-.32.3-1.53-.46-1.2"/><path class="cls-13" d="M495.05,523c-2,1.23-2.56,4.27-2,6.39a4.84,4.84,0,0,0,1.75,2.61,6.3,6.3,0,0,0,3.34,1c.82.06,1-1.2.22-1.26a5.74,5.74,0,0,1-2.65-.62,3.61,3.61,0,0,1-1.42-2c-.49-1.61,0-4.08,1.51-5,.7-.44-.06-1.47-.76-1"/><path class="cls-13" d="M473,529.11a4.37,4.37,0,0,0-3.31,4.58,4.59,4.59,0,0,0,3.95,4.15.64.64,0,1,0,.22-1.26,3.29,3.29,0,0,1-2.88-2.9,3.09,3.09,0,0,1,2.15-3.3.65.65,0,0,0,.57-.7.64.64,0,0,0-.7-.57"/><path class="cls-13" d="M448.41,490.08a3.27,3.27,0,0,1,2.68,2.21,5.88,5.88,0,0,1-.33,4.52.64.64,0,0,0,1.17.54,7.1,7.1,0,0,0,.27-5.74,4.52,4.52,0,0,0-3.92-2.81.65.65,0,0,0-.57.7.65.65,0,0,0,.7.58"/><path class="cls-13" d="M454.33,487.67a3,3,0,0,1-.21,2.48,4.09,4.09,0,0,1-1.79,1.63.64.64,0,0,0,.46,1.2,5.55,5.55,0,0,0,2.5-2.29,4.23,4.23,0,0,0,.23-3.48.64.64,0,1,0-1.19.46"/><path class="cls-13" d="M451.76,525.77a3.58,3.58,0,0,0-2.76-.16,3.65,3.65,0,0,0-2,1.79,4.45,4.45,0,0,0,1,5.15.64.64,0,1,0,.82-1,3.14,3.14,0,0,1-.66-3.55,2.24,2.24,0,0,1,3.05-1.07c.74.36,1.28-.8.54-1.17"/><path class="cls-13" d="M448.45,531.53a3.68,3.68,0,0,0-2.68.93,2.62,2.62,0,0,0-.69,2.59.64.64,0,0,0,1.19-.46c0-.16,0,.14,0,0s0-.08,0-.12v-.11a.08.08,0,0,1,0-.07s0,0,0,.05a.63.63,0,0,1,0-.23.65.65,0,0,1,0-.13c0-.12,0,.07,0,0a2.44,2.44,0,0,1,.1-.24l0-.1c0-.07-.07.1,0,0l.16-.2.07-.08c.1-.12-.1.08,0,0a1.33,1.33,0,0,1,.19-.14l.13-.09c.11-.06,0,0,0,0a4.29,4.29,0,0,1,.5-.19c.17,0-.13,0,0,0l.12,0a2.85,2.85,0,0,1,.29,0,5.44,5.44,0,0,1,.57,0,.64.64,0,0,0,.58-.7.66.66,0,0,0-.7-.57"/><path class="cls-13" d="M447.45,520.15a4.73,4.73,0,0,0-1.76,3.44,5.12,5.12,0,0,0,1.51,3.85.64.64,0,0,0,.9-.09.65.65,0,0,0-.08-.9,3.62,3.62,0,0,1,.18-5.26c.64-.51-.1-1.56-.75-1"/><path class="cls-13" d="M447.22,526a4.13,4.13,0,0,0-3.44,0,3,3,0,0,0-1.94,2.92.65.65,0,0,0,.7.58.65.65,0,0,0,.58-.7,1.1,1.1,0,0,1,0-.18c0-.11,0,.12,0-.08,0,0,0-.09,0-.14s0,0,0-.08a1.34,1.34,0,0,1,.3-.5,2.49,2.49,0,0,1,.93-.68,2.78,2.78,0,0,1,2.31.06.64.64,0,1,0,.54-1.17"/><path class="cls-13" d="M446.88,522.92a3.52,3.52,0,0,0-2-1.94,3.2,3.2,0,0,0-3,.41.64.64,0,1,0,.76,1l.23-.15,0,0,.11,0,.3-.1c.05,0,.07,0,0,0l.15,0,.27,0H444l.28,0,.09,0,.09,0,.22.1.13.07a3,3,0,0,1,.4.31l.07.07c-.06-.06.06.07.05.06l.16.21.14.22c0-.06,0,0,0,0a.77.77,0,0,1,.07.16.64.64,0,1,0,1.2-.46"/><path class="cls-40" d="M434.3,570.88s17-5.81,16.93-19.21-10.65-22.29-12.63-35.21,1.67-19.63-2.74-30.44-21.37-8-22.07-7.82a314.75,314.75,0,0,1,13.28,43.23c4.94,21.83,7.23,49.45,7.23,49.45"/><path class="cls-39" d="M526.06,533c2.33-1.19,4.69-2.3,7-3.49a.63.63,0,1,0-.46-1.18c-2.32,1.18-4.68,2.29-7,3.48a.65.65,0,0,0-.37.82.64.64,0,0,0,.82.37"/><path class="cls-41" d="M439,522.53c1.49,3,2.85,5.76,4.67,7.59-2.23-4.28-4.28-8.67-5-13.66-2-12.92,1.67-19.63-2.74-30.44s-21.37-8-22.07-7.82a52.75,52.75,0,0,1,6.18,1.18c4.22,1.24,8.5,2.6,12.39,8.4,4.63,6.9,1.12,23.82,6.61,34.75"/><path class="cls-42" d="M411.31,472.63S420,491,427.61,524.19c8,34.93,6.8,52.77,6.8,52.77"/><path class="cls-39" d="M513,463.39a4.36,4.36,0,0,1,4.73,2.14,5.25,5.25,0,0,1-.49,5.79c-.5.64.48,1.45,1,.81a6.59,6.59,0,0,0,.59-7.25,5.6,5.6,0,0,0-5.94-2.76.65.65,0,0,0-.57.7.64.64,0,0,0,.69.57"/><path class="cls-39" d="M517.17,472.27c2.64,3.32-.47,7.65-3.25,9.67a.64.64,0,0,0,.75,1c3.34-2.43,6.63-7.54,3.54-11.44-.51-.64-1.55.1-1,.74"/><path class="cls-43" d="M412,355.2a4.73,4.73,0,0,0,.05,5.83c1.44,1.92,4,2.63,6.27,2.76l-.36-1a6,6,0,0,0,5.79,9.86c.74-.16.64-1.36-.12-1.19a5,5,0,0,1-5.3-2.21,5,5,0,0,1,.55-5.7.6.6,0,0,0-.36-1c-1.89-.12-4-.57-5.34-2.09a3.57,3.57,0,0,1-.26-4.57c.51-.57-.41-1.33-.92-.76"/><path class="cls-43" d="M371.94,351.06a4.72,4.72,0,0,0,1.28,5.67c1.81,1.59,4.46,1.73,6.73,1.39l-.6-.84a6,6,0,0,0,7.76,8.4c.7-.31.28-1.43-.43-1.11a4.83,4.83,0,0,1-6.25-6.79.59.59,0,0,0-.6-.84c-1.87.28-4.07.26-5.64-1a3.56,3.56,0,0,1-1.17-4.42c.38-.67-.71-1.16-1.08-.5"/><path class="cls-43" d="M386.84,364.75a4.32,4.32,0,0,0,3.09,7.68.6.6,0,0,0-.12-1.19,3.13,3.13,0,0,1-2.27-5.53c.59-.49-.11-1.46-.7-1"/><path class="cls-44" d="M433.81,446.81s6-6.48,9.26.84c2.89,6.5-1.89,7.26-1.89,7.26s3.83,2,3.32,5.68-4.22,1.73-4.22,1.73Z"/><path class="cls-44" d="M412,551.15s5.06-4.23,6.77,1.51c1.52,5.08-2.08,5.19-2.08,5.19s2.64,1.85,1.91,4.52-3.29.88-3.29.88Z"/><path class="cls-44" d="M412.94,461.55s4.1-3.71,5.73,1c1.44,4.22-1.58,4.43-1.58,4.43s2.27,1.46,1.75,3.72-2.73.84-2.73.84Z"/><path class="cls-45" d="M408.06,540.45s5.06-4.23,6.77,1.51c1.52,5.08-2.08,5.19-2.08,5.19s2.64,1.85,1.91,4.52-3.29.88-3.29.88Z"/><path class="cls-45" d="M396.64,498.75s3.81-3.19,5.11,1.13c1.14,3.84-1.58,3.92-1.58,3.92s2,1.4,1.44,3.41-2.48.66-2.48.66Z"/><path class="cls-45" d="M462.69,568.56c1.14-2.86-1.54-5.25-1.54-5.25s4,.34,3-5.48c-.71-4-3.24-4.06-5.12-3.51a4.17,4.17,0,0,0-.49-.44s2.72-.08,1.57-3.91c-1.29-4.33-5.11-1.14-5.11-1.14l4,20.28s2.61,2.31,3.76-.55"/><path class="cls-44" d="M404.25,415.36s2.56-3.05,4.18.18c1.45,2.86-.68,3.3-.68,3.3a2.77,2.77,0,0,1,1.62,2.48c-.15,1.67-1.87.88-1.87.88Z"/><path class="cls-44" d="M406.05,418.78s4.42-4.89,6.92.55c2.21,4.82-1.35,5.43-1.35,5.43s2.87,1.47,2.52,4.21-3.14,1.32-3.14,1.32Z"/><path class="cls-45" d="M427.37,440.4s6-6.49,9.26.84c2.89,6.5-1.89,7.26-1.89,7.26s3.83,2,3.31,5.67-4.22,1.73-4.22,1.73Z"/><path class="cls-45" d="M422.42,431.05s4-5.21,6.94,0c2.57,4.64-.93,5.52-.93,5.52s3,1.24,2.84,4-3,1.57-3,1.57Z"/></g><path class="cls-46" d="M566.46,494.78c5.61-1.25,11.2.06,16.4-3,5.73-3.38,11.41-9.36,16.39-13.8,3.9-3.48,6.53-7.76,9.37-12.1a233.85,233.85,0,0,0,15.76-27.66c8.56-18.12,14.5-39.07,8.85-59a61.64,61.64,0,0,0-15.94-26.41c-22.83-23-55.6-34.91-86.3-42.68-19.4-4.92-38.45-9-58.59-6.7-25.53,2.9-50.74,7.79-74.33,18.19-8.66,3.82-15.51,11.2-21.64,18.18-3.27,3.73-5.65,5.84-6.26,10.78-.75,6-1,12.06-1.38,18.08a503.72,503.72,0,0,0,.93,71.42,22,22,0,0,0,1.67,7.8c4.69,9.6,11.17-4.32,13.94-8.75a79.23,79.23,0,0,0,9.38-21.53c.45-1.66,1.15-6.82,1.15-6.82,1.8,4.43.4,15.6.14,20.39-.32,5.91-.64,11.83-.63,17.75,0,10.22,1,20.47,4.64,30.09,2.32,6.12,9.69,54.65,15,58.51,6.11,4.47,14.19,4.88,21.76,5.13,28.88.94,47.13-39.77,76-38.83,4.5.15,9.66,0,12.54-3.45,2.12-2.55,2-6.18,2.37-9.48,5.27-46.18,11.22-77,11.14-110.58,36.17,6.4,36.41,8.31,37.17,24,1.08,22.3-51,74.67-47.8,96.77.61,4.24,27.47-2.65,30.06-3.73A49.09,49.09,0,0,1,566.46,494.78Z"/><path class="cls-47" d="M538.68,389.11c-3-2.11-6.3-3.78-9.44-5.67a127.61,127.61,0,0,1-33.46-29.62c-4.35-5.35-8.38-10.95-12.38-16.56-2.34,2.37-5.65,3.25-8,5.62-.14.13,17.3,22.63,18.88,24.56,4.21,5.15,8.72,10,13.39,14.77,5.95,6,22.5,17.49,30.29,21.14"/><path class="cls-47" d="M393.8,381.7c.6-2.35,2.12-4.27,3.47-6.11,1.57-2.15,3.15-4.3,4.7-6.48,3.54-4.94,7.15-9.9,10.31-15.16,2.63-4.38,5-8.94,7.4-13.5,1.78,1.68,4.11,2.16,5.89,3.84.1.1-10.38,18.47-11.34,20-2.56,4.22-5.33,8.26-8.22,12.19-3.69,5-7.48,11.11-12.61,14.4"/><path class="cls-48" d="M508.63,306.09c-1.22,7.79-5.73,14.74-10.84,20.57a80.05,80.05,0,0,1-18.94,15.7c-13.13,7.88-29.09,10.35-44.13,8-8.25-1.29-16.28-4.29-22.77-9.62-2-1.64.85-4.45,2.82-2.83,10.93,9,27.07,10.62,40.6,8.58A57.38,57.38,0,0,0,474.89,340a77.09,77.09,0,0,0,17.82-13.75c5.68-5.88,10.77-13,12.06-21.26.4-2.53,4.25-1.46,3.86,1.07Z"/><path d="M410.73,304.79a8.39,8.39,0,0,1,6.57,14.26A10.07,10.07,0,0,1,415,336.44a7.59,7.59,0,0,1,1.8,13.63,5.59,5.59,0,1,1-5.46-.08,8.6,8.6,0,0,1-3.95-14.25,8.49,8.49,0,0,1-.75-15.84c-4.65-1.3-7.21-7.39-4.88-11.62S410.63,302.94,410.73,304.79Z"/><path d="M416.61,360.23a14.73,14.73,0,0,1,5.78,13.92,14.27,14.27,0,0,1-10,11.33,7.71,7.71,0,0,1-2.92,1.14,2.58,2.58,0,0,1-2.65-1.31c-.55-1.25.35-2.62.92-3.86,2.42-5.18-.65-11.16-.73-16.88a9.31,9.31,0,0,1,1.28-5.21,5.11,5.11,0,0,1,4.58-2.43A4.67,4.67,0,0,1,416.61,360.23Z"/><path class="cls-49" d="M470,297.12c4.94,9.07,7.55,19.89,2.87,28.82C468.7,333.86,459,339,449,339.31a37.28,37.28,0,0,1-26.83-10.73A35.07,35.07,0,0,1,412,304l57.54-9.1c.13,1.09.26,2.17.4,3.27C469.9,298.28,469.89,298.34,470,297.12Z"/><path class="cls-49" d="M462.1,303.09a47.49,47.49,0,0,1-22.81,15.19,36.82,36.82,0,0,1-27-2.42c-7.66-4.05-13.45-11-17.51-18.7s-9.66-18.11-12.12-26.42c-3.65-12.31-5.22-18.09-7.83-34.84-.63-4.05-2.32-8.24-.73-12,2-4.76,7.5-6.83,12.46-8.29q14.63-4.28,29.61-7.2c11.52-2.25,23.89-3.8,34.64.91,9.33,4.08,16.28,12.54,20.12,22s4.82,19.8,4.65,30C475.32,276.11,471.83,291.6,462.1,303.09Z"/><path d="M487.22,308.57a7.06,7.06,0,0,1,1.76,9.67,8.9,8.9,0,0,0-1.35,2c-.63,1.68.48,3.44,1.08,5.13a9.64,9.64,0,0,1-6.8,12.15c2,1.78,3.89,4.11,4,6.82a6.52,6.52,0,0,1-5,6.15c2.57.08,3.62,3.86,2.08,5.92s-4.42,2.58-7,2.48a9.89,9.89,0,0,1-5.45-1.55,4.83,4.83,0,0,1-2.07-5c.5-1.85,2.87-3.08,4.5-2.07a6.89,6.89,0,0,1,.77-13.54,7.07,7.07,0,0,1,1.46-13.89,9.69,9.69,0,0,1-.89-13.72C477.88,305.42,484,306.41,487.22,308.57Z"/><path d="M477.46,356.11a6.38,6.38,0,0,1,5.2,2.19,11.6,11.6,0,0,1,2.55,5.2,19.47,19.47,0,0,1-22.11,23.75,3.4,3.4,0,0,1-2.32-1.11,2.71,2.71,0,0,1,.33-3.09,20.12,20.12,0,0,1,2.41-2.29c2-2,2.94-4.91,3.32-7.74s.3-5.72.78-8.54,1.62-5.68,3.87-7.44,5.82-2,7.86,0C479.64,357.11,479.18,357.6,477.46,356.11Z"/><path d="M386.91,246.56a3.3,3.3,0,0,0,2.75-1.45c1.9-2.77,5.48-3.85,8.16-2.45a3.33,3.33,0,0,0,3.09-5.91c-5.71-3-12.91-1-16.75,4.6A3.33,3.33,0,0,0,385,246,3.28,3.28,0,0,0,386.91,246.56Z"/><path d="M419.82,239.94a3.35,3.35,0,0,0,2.58-1.22,6.28,6.28,0,0,1,8.49-.7,3.33,3.33,0,0,0,4.41-5,12.94,12.94,0,0,0-18.07,1.49,3.33,3.33,0,0,0,2.59,5.43Z"/><path class="cls-36" d="M437.17,248.52c1.94,5.67-7.58,9.4-14.68,6.91C414.07,248.5,434.22,242.46,437.17,248.52Z"/><path class="cls-36" d="M406,255.31c1.94,5.66-7.58,9.39-14.68,6.91C382.92,255.28,403.07,249.24,406,255.31Z"/><path d="M412.79,285a4,4,0,0,0,2.32-.74,4.87,4.87,0,0,0,1.15-1.2,5.1,5.1,0,0,0,1.24.81,4,4,0,0,0,3.47-.08c2.31-1.22,3.38-4.8,2.25-7.5a1.33,1.33,0,0,0-2.46,1c.63,1.51-.05,3.61-1,4.13a1.29,1.29,0,0,1-1.14,0,2.57,2.57,0,0,1-1.35-1.73,1.32,1.32,0,0,0-1.42-1,1.34,1.34,0,0,0-1.21,1.24,3,3,0,0,1-1,2.16,1.3,1.3,0,0,1-1.47,0c-.79-.51-1.41-1.8-1.84-3.84a28.67,28.67,0,0,1,.72-14.46,1.35,1.35,0,0,0-.87-1.68,1.33,1.33,0,0,0-1.67.86,31.33,31.33,0,0,0-.79,15.83c.6,2.81,1.58,4.62,3,5.53A3.91,3.91,0,0,0,412.79,285Z"/><circle cx="430.73" cy="251.12" r="3.09"/><circle cx="400.39" cy="257.91" r="3.09"/><circle cx="400.39" cy="257.91" r="3.09"/><path class="cls-49" d="M458.46,249.44a15,15,0,0,1,3.17-9c2.11-2.46,5.63-3.86,8.7-2.83s5.05,4.19,6.11,7.31a31.66,31.66,0,0,1,1.33,13.71c-.49,4.36-1.92,8.91-5.33,11.68s-9.18,2.87-11.73-.71c-1.48-2.08-1.57-4.81-1.61-7.37C459,257.49,458.27,252.77,458.46,249.44Z"/><path d="M455.39,248.38A48.59,48.59,0,0,1,434.85,225a.62.62,0,0,1-.07-.42c.07-.26.42-.31.7-.31l17.76.22c1.64,8.15,4.55,16.42,2.95,24.59C455.74,248.56,455.3,248,455.39,248.38Z"/><path d="M390,226.57a104.3,104.3,0,0,1-10,17.92c.45-3.7-.88-7.39-1-11.11a33.29,33.29,0,0,1,.42-5.09c.25-1.88.58-3.93,2-5.21,1.8-1.66,4.74-1.35,6.84-.09a4.42,4.42,0,0,1,1.79,1.77C390.48,225.53,390.46,226.53,390,226.57Z"/><path class="cls-46" d="M486.15,310.46c17.61-7.3,27.6-27.06,31.79-44.62,5.35-22.39,2.6-47-9.56-66.82-22.37-36.36-77-48.25-112.62-23.92-26.86,18.36-36,53.92-28,84.43a87.18,87.18,0,0,0,32.6,47.89c-7.68-17.58-15.82-35.58-20.27-54.32a55.69,55.69,0,0,1-1.9-15.83,36.43,36.43,0,0,1,.76-7c2.07-4.13,21.66-2.88,26.47-3q14.37-.34,28.73-.31c7.5,0,17.31-1,23.61,2.66,3,1.75,3.9,1.9,4.8,5.24.71,2.65-.39,5.89-.15,8.63.31,3.43.66,7.1,2.3,10.19,2.34,4.4,2.39,6.4,1.34,11.79-.38,10.55-2.66,32.53,5.27,42.66C474.89,312.63,480.85,312.66,486.15,310.46Z"/><path class="cls-46" d="M483,311.78c-27.7,5.41-28.58-43.78-29-62.23,1.82-26.64,2.28-29.14-25.49-28.58-20.09,0-29.9,1.62-45.27,3.31-24.07,20.44,30.64,93.58,12.67,80.87-31.81-29.11-45.18-99.75,13-105,33.31-8.59,52.29-5.38,64.69,29.62C480.51,255.23,497.78,286.45,483,311.78Z"/><path d="M397.71,467c.22,8.69,2.65,11.49,5.31,19.44,15.43-23.92,26.77-39.46,41.7-64.77.06-8.9-.47-17.89-.45-21.69-15.66,22.14-24,36.49-37.46,54.35-1.62,2.16-7.48,11.05-10.62,15.48"/><path d="M529.4,477.64c-.89,8.83,0,5.3-1.77,15.91-25.23-22.64-58.67-46.78-83.08-70.71V399c25.63,21,45.17,38.78,67.17,55.68,2.66,2,13.8,9.76,18.56,13.26"/><path class="cls-50" d="M469.41,303a11.51,11.51,0,0,1-4.54-1.61c-1.24-.76-.35,0-1.88-1.49a32.07,32.07,0,0,1-9.94,11.52,37.53,37.53,0,0,1-15,7c9.79,2.58,20.51-3.45,27.84-9.44.57-.47,5.75-5.46,3.54-6"/><path class="cls-51" d="M381.78,225c-3-1.5-5.5-1.61-8.24.29s-2.82,7.43-3.08,10.87c-1.75,23.29,5.94,48.86,21.45,66.33,2.2,2.47,7.06,4.91,10.32,5.42-5-13.65-12.27-27.3-17.29-40.95-2.27-6.18-2-11.94-2.42-18.52-.45-7.45-3.9-13.92-1.14-22.16"/><path d="M431.32,322.83c10.06,0,19.53-4.41,24.83-11.76a2.66,2.66,0,0,0-4.32-3.12c-4.77,6.62-14.26,10.38-23.61,9.38-8.49-.91-17-5.36-23.86-12.53-8.61-8.95-13.06-24.75-16-35.2A116.3,116.3,0,0,1,384,230.19a2.67,2.67,0,1,0-5.32-.36,121.57,121.57,0,0,0,4.5,41.22c3.93,13.93,8.5,28.3,17.3,37.44,7.76,8.08,17.4,13.1,27.13,14.14A34.86,34.86,0,0,0,431.32,322.83Z"/><path class="cls-51" d="M454,223.34a85,85,0,0,1,9.95,2.43,4.57,4.57,0,0,1,2.26.89,3.64,3.64,0,0,1,.76,2.08c2.11,14.45,1.32,29.21,3.54,43.64s5.06,30,17.14,38.17c-.32-.21-5.73,1.69-6.5,1.77a21.16,21.16,0,0,1-6.3-.35c-7-1.46-9.46-6.33-12.91-12.25-8.42-14.45-7.51-31.48-7.92-47.56a82.8,82.8,0,0,0-6.26-30"/><path class="cls-52" d="M480.61,212.1a12.54,12.54,0,0,0-2,.3c-5.54-4.82-47.41-40.52-78.34-47.48,0,0-41.05,7.72-47.08,61.74,0,0,81.87-1.43,116-.75a12.26,12.26,0,1,0,11.44-13.81"/><path class="cls-53" d="M364.93,217.18a54.63,54.63,0,0,1,14.3-25.26c7.81-7.67,18.08-11.88,28.25-15.46,1.52-.54,2.08,1.92.57,2.45-9.75,3.43-19.6,7.49-27.1,14.84a52.05,52.05,0,0,0-13.62,24.17c-.41,1.57-2.81.82-2.4-.74"/><path d="M508,305c11.24,10.14,15.74,73.36,30.76,75.33,10.51,1.38,23.22,2.81,32,9.34,3.89,2.91,4.68,6.79,5,11.4,0,.5,17-9.58,18.46-10.59,11.43-7.85,24.61-13.09,32.79-25.58C620,353.07,595,324.48,522.68,308.39"/><path class="cls-48" d="M448.54,341.83c-4.33,40.62-2.18,81.55,1.63,122.11,1.09,11.59,2.31,23.16,3.55,34.73.28,2.56-3.72,2.54-4,0-4.37-40.54-8.47-81.27-7.44-122.1.3-11.61,1-23.2,2.25-34.74.27-2.53,4.27-2.56,4,0Z"/><g id="Artwork_46" data-name="Artwork 46"><g class="cls-54"><g class="cls-54"><path d="M410.15,295c3.3,1.61,7.35,1.21,10.86.64a21.92,21.92,0,0,0,9.84-4,17,17,0,0,0,4-4.29,1.42,1.42,0,1,0-2.47-1.42,15,15,0,0,1-6.55,5.39,25,25,0,0,1-9.57,1.93,10,10,0,0,1-4.68-.7,1.46,1.46,0,0,0-1.95.52,1.44,1.44,0,0,0,.53,1.95"/><path d="M430.15,285.45a6.46,6.46,0,0,0,3.86,3,6.61,6.61,0,0,0,2.62.14,12.17,12.17,0,0,0,2.5-.81,1.43,1.43,0,1,0-.75-2.75,12.81,12.81,0,0,1-2.26.77c-.14,0-.24,0,.05,0a1.21,1.21,0,0,0-.19,0h-.47l-.24,0c-.29,0,0,0,0,0s-.4-.08-.47-.09l-.4-.13c-.06,0-.19,0-.23-.08s.25.11,0,0l-.41-.23a2.74,2.74,0,0,0-.36-.23c.21.07.15.12,0,0a1.29,1.29,0,0,1-.17-.16,3.51,3.51,0,0,1-.34-.33,1.74,1.74,0,0,0-.12-.14c.19.13.12.16,0,0l-.28-.44a1.44,1.44,0,0,0-2-.51,1.46,1.46,0,0,0-.5,2"/><path d="M418.45,301.2a11.93,11.93,0,0,0,5.85-.61,16.54,16.54,0,0,0,5.26-2.54,1.46,1.46,0,0,0,.5-1.95,1.42,1.42,0,0,0-1.95-.5,13.73,13.73,0,0,1-4.38,2.18,9.6,9.6,0,0,1-4.54.67,1.47,1.47,0,0,0-1.75,1,1.43,1.43,0,0,0,1,1.74"/></g></g></g><g id="Fill-64"><path class="cls-55" d="M395.41,417.2s16.18-.5,14.74-26.53,8.7-40.11-6.43-42.75c-8.69-1.51-17.5,8.59-13.77,27.84Z"/></g><g id="Fill-159"><path class="cls-56" d="M323.87,490.74a13.07,13.07,0,0,1-14.52-9.12c-11.51-36.39-34.59-120.34-38.5-135.63-1.24-4.84-2.51-8.87-3.29-12.26-2-8.62-.94-13.14,11.48-16.65,8.07-2.29,24.23-6.6,41.11-10.81,19.33-4.84,39.61-9.55,49.77-11,19-2.7,17.06,19.91,24.45,65.88,6.06,37.66,11.18,82,12.84,96.77l.88,5.36a12.4,12.4,0,0,1-9.91,14.44l-74.31,13"/></g><g class="cls-57"><g id="Fill-36"><polygon class="cls-58" points="373.31 312.41 401.54 457.52 319.27 478.11 275.47 336.89 373.31 312.41"/></g><g id="Fill-41"><path class="cls-59" d="M370.38,343.17l-77.93,17.6a3.16,3.16,0,0,0-2.33,4L293.33,376a3.8,3.8,0,0,0,4.49,2.68l75.14-17a3.83,3.83,0,0,0,2.93-4.31l-1.73-11.57a3.13,3.13,0,0,0-3.78-2.61"/></g><g id="Fill-42"><path class="cls-60" d="M350.1,342.21,371,337.5a2.36,2.36,0,0,0,1.77-2.82l-.15-.7a2.36,2.36,0,0,0-2.81-1.79l-20.87,4.72a2.35,2.35,0,0,0-1.77,2.82l.15.69a2.34,2.34,0,0,0,2.8,1.79"/></g><g id="Fill-43"><path class="cls-61" d="M289.58,355.88l7.07-1.6a2.35,2.35,0,0,0,1.77-2.82l-.15-.69a2.36,2.36,0,0,0-2.81-1.79l-7.06,1.6a2.37,2.37,0,0,0-1.78,2.82l.16.69a2.34,2.34,0,0,0,2.8,1.79"/></g><g id="Fill-44"><path class="cls-62" d="M364.19,389.1a3.55,3.55,0,0,0,4.25,2.79l9.33-2.11a3.57,3.57,0,0,0,2.72-4.06l-.31-1.82-1.5-9.15a3.55,3.55,0,0,0-4.27-2.89L364.79,374a3.56,3.56,0,0,0-2.7,4.16l.87,4.49Z"/></g><g id="Fill-45"><path class="cls-63" d="M343.56,393.82a3.53,3.53,0,0,0,4.24,2.73l9.15-2.07a3.55,3.55,0,0,0,2.69-4.21L358.33,384l-.95-4.63a3.56,3.56,0,0,0-4.24-2.73L344,378.74a3.57,3.57,0,0,0-2.69,4.22l1.64,7.72Z"/></g><g id="Fill-46"><path class="cls-64" d="M320.18,387.81l2.56,10.79a2.29,2.29,0,0,0,.09.31,3.53,3.53,0,0,0,4.13,2.35l9.08-2.05a3.58,3.58,0,0,0,2.68-4.29l-.49-2.05-2-8.75a3.54,3.54,0,0,0-4.23-2.67l-9.12,2.06a3.57,3.57,0,0,0-2.67,4.3"/></g><g id="Fill-47"><path class="cls-65" d="M299,392.73l2.35,8.58.59,2.14a3.53,3.53,0,0,0,4.19,2.52l9.36-2.11a3.57,3.57,0,0,0,2.76-3.74,4.55,4.55,0,0,0-.1-.61l-2.72-10.77a3.54,3.54,0,0,0-4.21-2.6l-9.57,2.17a3.56,3.56,0,0,0-2.65,4.42"/></g><g id="Fill-48"><path class="cls-66" d="M305.3,415.82l2.64,9.65a3.55,3.55,0,0,0,4.19,2.53l8.91-2a3.55,3.55,0,0,0,2.65-4.35l-2.44-9.69a3.54,3.54,0,0,0-4.21-2.6l-9.1,2.06a3.56,3.56,0,0,0-2.64,4.42"/></g><g id="Fill-49"><path class="cls-67" d="M325.69,411.08l2.3,9.73a3.54,3.54,0,0,0,4.22,2.65l9-2a3.56,3.56,0,0,0,2.67-4.28l-2.26-9.74a3.54,3.54,0,0,0-4.22-2.66l-9,2a3.58,3.58,0,0,0-2.67,4.3"/></g><g id="Fill-50"><path class="cls-68" d="M352.52,418.87l9.1-2.05a3.57,3.57,0,0,0,2.69-4.21l-2.05-9.79a3.52,3.52,0,0,0-4.23-2.73l-9.12,2.05a3.57,3.57,0,0,0-2.69,4.22l2.06,9.78a3.54,3.54,0,0,0,4.24,2.73"/></g><g id="Fill-51"><path class="cls-59" d="M372.78,414.3l8.7-2a3.55,3.55,0,0,0,2.72-4.06l-1.62-9.88a3.55,3.55,0,0,0-4.27-2.89l-9,2a3.56,3.56,0,0,0-2.7,4.16l1.9,9.81a3.54,3.54,0,0,0,4.25,2.8"/></g><g id="Fill-52"><path class="cls-64" d="M342,437.57l4.9,20a3.34,3.34,0,0,0,4,2.47l35.56-7.54a3.37,3.37,0,0,0,2.57-3.85l-1.87-12-.89-8c-.32-1.89-1.05-4.38-2.92-3.95l-38.81,8.76a3.38,3.38,0,0,0-2.51,4.08"/></g><g id="Fill-54"><path class="cls-65" d="M304.71,442.48l4.57,16,3,10.33,24.65-5.57a3.36,3.36,0,0,0,2.5-4.1l-5-20a3.33,3.33,0,0,0-4-2.45Z"/></g><g id="Fill-68"><path class="cls-58" d="M360.76,359.32l7-1.58a3.27,3.27,0,0,0,2.35-3.79l-.31-1.89a3.27,3.27,0,0,0-3.82-2.82l-7,1.59a3.26,3.26,0,0,0-2.35,3.81l.33,1.89a3.26,3.26,0,0,0,3.81,2.79"/></g><g id="Fill-69"><path class="cls-58" d="M336.67,359.34l.41,1.86a3.13,3.13,0,0,0,3.47,2.69l7.74-1.75a3.15,3.15,0,0,0,2-3.92l-.42-1.87a3.12,3.12,0,0,0-3.47-2.68l-7.74,1.75a3.14,3.14,0,0,0-2,3.92"/></g><g id="Fill-70"><path class="cls-58" d="M315.24,364.18l.42,1.86a3.2,3.2,0,0,0,3.69,2.64l8.35-1.89a3.23,3.23,0,0,0,2.22-4L329.5,361a3.21,3.21,0,0,0-3.69-2.63l-8.35,1.88a3.25,3.25,0,0,0-2.22,4"/></g><g id="Fill-71"><path class="cls-58" d="M296.83,368.63l.55,1.84a3.16,3.16,0,0,0,3.59,2.36l6.65-1.5a3.25,3.25,0,0,0,2.14-4.14l-.5-1.85a3.17,3.17,0,0,0-3.62-2.46l-6.7,1.51a3.26,3.26,0,0,0-2.11,4.24"/></g><g id="Fill-160"><path class="cls-61" d="M363,382.68l1.23,6.42a3.55,3.55,0,0,0,4.25,2.79l9.33-2.11a3.57,3.57,0,0,0,2.72-4.07l-.31-1.81c-3.36-1.76-8.87-3.14-17.22-1.22"/></g><g id="Fill-161"><path class="cls-69" d="M342.91,390.68l.65,3.14a3.53,3.53,0,0,0,4.24,2.73l9.15-2.07a3.55,3.55,0,0,0,2.69-4.21l-1.3-6.24a143,143,0,0,0-15.43,6.65"/></g><g id="Fill-162"><path class="cls-59" d="M338.23,392.87a115.11,115.11,0,0,1-15.4,6,3.53,3.53,0,0,0,4.13,2.35l9.08-2.05a3.58,3.58,0,0,0,2.68-4.29Z"/></g><g id="Fill-163"><path class="cls-70" d="M301.31,401.31l.59,2.14a3.53,3.53,0,0,0,4.19,2.52l9.36-2.11a3.57,3.57,0,0,0,2.76-3.74,54.31,54.31,0,0,1-16.9,1.19"/></g></g><g id="Fill-163-2" data-name="Fill-163"><path class="cls-71" d="M299.79,323.94a2.67,2.67,0,0,1-1.23-5.19l32.24-7.64a2.68,2.68,0,0,1,3.23,2.08v.08a2.66,2.66,0,0,1-2,3.12l-32.25,7.55"/></g><g id="Fill-165"><path class="cls-71" d="M342.87,314.57a2.68,2.68,0,0,1-1.18-5.22l5.87-1.36a2.66,2.66,0,0,1,3.22,2.08v.06a2.67,2.67,0,0,1-2,3.13l-5.88,1.31"/></g><g id="Fill-167"><path class="cls-55" d="M296.78,437.12c2.81-9.05-5.25-17.34-5.25-17.34,3.54-12.52-5.39-18.67-5.39-18.67,3.62-10.31-5.49-21.41-5.49-21.41-.08-29.84-20.42-29.55-20-14.77s9.25,21.81,9.25,21.81c-5.16,15,4.64,21.87,4.64,21.87-5.06,13,7.58,18.87,7.58,18.87-4.18,4.76-2.72,17.86,4.78,20.6a10.7,10.7,0,0,0,11.95-2.77Z"/></g><g id="Fill-169"><path class="cls-72" d="M271.87,386.76a1.26,1.26,0,0,1-1.78-.07,1.3,1.3,0,0,1,.07-1.78c2.7-2.94,5.62-5.94,9.64-6.9a1.26,1.26,0,0,1,.57,2.45c-3.51.84-6.08,3.67-8.5,6.3"/></g><g id="Fill-171"><path class="cls-72" d="M276.56,408.91a1.26,1.26,0,0,1-1.71-1.85,56.76,56.76,0,0,1,4.78-4.39c1.6-1.32,3.32-2.8,5.42-3.22a1.26,1.26,0,0,1,.57,2.46c-1.73.34-3.2,1.71-4.55,2.83a57.39,57.39,0,0,0-4.51,4.17"/></g><g id="Fill-173"><path class="cls-72" d="M283.86,427.73c-1,1.29-3.1-.06-2.12-1.36a28.91,28.91,0,0,1,3.29-3.71,11.35,11.35,0,0,1,3.86-2.69c2.93-1,5.57,1.74,7.05,4,3.51,5.27,2.31,12.21-1.42,17-1,1.27-3.12-.08-2.12-1.36,3-3.83,4.26-9,1.9-13.49-.82-1.55-2.92-4.55-5-3.6a11.15,11.15,0,0,0-2.83,2.24,25.78,25.78,0,0,0-2.64,3"/></g><path d="M338.82,333.63c-.56-2.21.26-3.94,2.11-4.41a2.74,2.74,0,0,1,3.31,1.67l-1.18.51a1.54,1.54,0,0,0-1.84-1c-1.12.28-1.54,1.4-1.15,2.94s1.3,2.32,2.41,2a1.45,1.45,0,0,0,1.11-1.94l-1.41.36-.27-1,2.6-.66.22.86a2.71,2.71,0,0,1-2,3.58C340.93,337,339.38,335.84,338.82,333.63Z"/><path d="M343.5,336.41a3.66,3.66,0,0,1-.68.25c-1.94.49-3.57-.68-4.16-3h0c-.59-2.31.29-4.12,2.23-4.61a2.88,2.88,0,0,1,3.5,1.77l.07.15-1.48.64-.07-.14a1.38,1.38,0,0,0-1.65-1c-1,.26-1.4,1.28-1,2.74a3.06,3.06,0,0,0,.88,1.62,1.42,1.42,0,0,0,1.33.3,1.39,1.39,0,0,0,.9-.62,1.42,1.42,0,0,0,.13-.95l-1.41.35-.35-1.38,2.92-.74.26,1a3.26,3.26,0,0,1-.21,2.41A2.72,2.72,0,0,1,343.5,336.41ZM339,333.59c.54,2.11,2,3.19,3.75,2.74a2.5,2.5,0,0,0,1.66-1.2,2.94,2.94,0,0,0,.18-2.17l-.18-.7-2.28.58.19.73,1.42-.36,0,.16a1.86,1.86,0,0,1-.13,1.37,1.72,1.72,0,0,1-1.1.77,1.74,1.74,0,0,1-1.63-.37,3.36,3.36,0,0,1-1-1.79c-.42-1.64.07-2.84,1.27-3.15a1.68,1.68,0,0,1,2,1l.88-.38a2.55,2.55,0,0,0-3-1.43c-1.74.45-2.52,2.09-2,4.21Z"/><path d="M345.26,332c-.56-2.19.27-3.94,2.11-4.4s3.39.67,3.94,2.87-.27,3.94-2.09,4.4S345.82,334.19,345.26,332Zm4.81-1.22c-.4-1.54-1.31-2.32-2.41-2s-1.54,1.4-1.15,2.95,1.3,2.32,2.41,2S350.46,332.32,350.07,330.77Z"/><path d="M349.93,334.78a3.54,3.54,0,0,1-.67.24,3,3,0,0,1-2.6-.46A4.35,4.35,0,0,1,345.1,332h0a4.39,4.39,0,0,1,.17-3,3,3,0,0,1,2.06-1.65,3,3,0,0,1,2.58.47,4.35,4.35,0,0,1,1.56,2.53C352,332.4,351.36,334.07,349.93,334.78ZM345.42,332a4,4,0,0,0,1.44,2.34,2.68,2.68,0,0,0,2.31.41c1.74-.43,2.52-2.09,2-4.2a4,4,0,0,0-1.43-2.34,2.86,2.86,0,0,0-4.15,1,4.06,4.06,0,0,0-.15,2.74Zm3.94,1.79a3.54,3.54,0,0,1-.39.14,1.77,1.77,0,0,1-1.63-.37,4,4,0,0,1-1-3.84,1.82,1.82,0,0,1,2.86-.73,3.41,3.41,0,0,1,1,1.79h0C350.59,332.18,350.26,333.29,349.36,333.74Zm-2-4.73a1.4,1.4,0,0,0-.69.78,3.71,3.71,0,0,0,.87,3.47,1.45,1.45,0,0,0,1.33.3c1-.26,1.4-1.29,1-2.74h0a3.06,3.06,0,0,0-.89-1.62,1.42,1.42,0,0,0-1.32-.31A1.61,1.61,0,0,0,347.37,329Z"/><path d="M352.26,331.79l1.16-.47c.29.82.68,1.08,1.35.91s.85-.69.64-1.53l-1.2-4.69,1.25-.32,1.22,4.82a2.2,2.2,0,0,1-1.62,2.87A2.15,2.15,0,0,1,352.26,331.79Z"/><path d="M355.66,333.33a2.49,2.49,0,0,1-.56.21,2.29,2.29,0,0,1-3-1.7l-.05-.15,1.46-.58.06.16c.3.84.65.93,1.14.8s.71-.58.53-1.33L354,325.89l1.57-.4,1.26,5a2.54,2.54,0,0,1-.21,2A2.15,2.15,0,0,1,355.66,333.33Zm-3.19-1.45a2,2,0,0,0,2.55,1.34,2.08,2.08,0,0,0,1.32-.94,2.25,2.25,0,0,0,.18-1.73l-1.18-4.66-.92.24,1.15,4.53c.23.92-.05,1.55-.76,1.74s-1.16-.08-1.48-.86Z"/><path d="M356.91,325.32l4.38-1.11.29,1.15-3.14.79.43,1.71,2.87-.73.28,1.11-2.86.73.47,1.87,3.14-.8.29,1.15-4.38,1.11Z"/><path d="M363.26,331.31l-4.7,1.19-1.86-7.3,4.71-1.19.38,1.47-3.15.8.35,1.38,2.87-.73.36,1.43-2.86.73.39,1.55,3.14-.8Zm-4.46.79,4.06-1-.21-.82-3.14.79-.56-2.19,2.86-.73-.19-.78-2.87.72-.51-2,3.14-.79-.21-.83-4.06,1Z"/><path d="M362.49,323.91l1.24-.32.79,3.11h0l1.78-3.76,1.46-.38L366,326.3l3.78,3.18-1.49.38-2.82-2.43h0l-.48,1,.54,2.11-1.25.32Z"/><path d="M370.14,329.57l-1.9.48-2.72-2.36-.37.78.56,2.22-1.57.4-1.85-7.3,1.56-.4.73,2.85,1.62-3.45,1.88-.47-1.87,3.93Zm-1.81.11,1.1-.28-3.64-3.06,1.69-3.53-1.05.27-1.77,3.76-.24.05-.06-.15-.75-2.95-.92.24,1.69,6.65.92-.23-.51-2,.55-1.15.16,0,.08.05Z"/></g></g></svg>