<svg xmlns="http://www.w3.org/2000/svg" xmlns:xlink="http://www.w3.org/1999/xlink" viewBox="0 0 1440 723"><defs><style>.cls-1,.cls-112,.cls-2,.cls-3{fill:none;}.cls-1{clip-rule:evenodd;}.cls-2{fill-rule:evenodd;}.cls-4{clip-path:url(#clip-path);}.cls-5{clip-path:url(#clip-path-2);}.cls-6{clip-path:url(#clip-path-3);}.cls-7{clip-path:url(#clip-path-4);}.cls-8{clip-path:url(#clip-path-5);}.cls-9{clip-path:url(#clip-path-6);}.cls-10{clip-path:url(#clip-path-7);}.cls-11{clip-path:url(#clip-path-8);}.cls-12{clip-path:url(#clip-path-9);}.cls-13{clip-path:url(#clip-path-10);}.cls-14{clip-path:url(#clip-path-11);}.cls-15{clip-path:url(#clip-path-12);}.cls-16{clip-path:url(#clip-path-13);}.cls-17{clip-path:url(#clip-path-14);}.cls-18{clip-path:url(#clip-path-15);}.cls-19{clip-path:url(#clip-path-16);}.cls-20{clip-path:url(#clip-path-17);}.cls-21{clip-path:url(#clip-path-19);}.cls-22{clip-path:url(#clip-path-20);}.cls-23{clip-path:url(#clip-path-21);}.cls-24{clip-path:url(#clip-path-22);}.cls-25{clip-path:url(#clip-path-23);}.cls-26{clip-path:url(#clip-path-24);}.cls-27{clip-path:url(#clip-path-25);}.cls-28{clip-path:url(#clip-path-26);}.cls-29{clip-path:url(#clip-path-27);}.cls-30{clip-path:url(#clip-path-28);}.cls-31{clip-path:url(#clip-path-29);}.cls-32{clip-path:url(#clip-path-30);}.cls-33{clip-path:url(#clip-path-31);}.cls-34{clip-path:url(#clip-path-32);}.cls-35{clip-path:url(#clip-path-33);}.cls-36{clip-path:url(#clip-path-34);}.cls-37{clip-path:url(#clip-path-35);}.cls-38{clip-path:url(#clip-path-36);}.cls-39{clip-path:url(#clip-path-37);}.cls-40{clip-path:url(#clip-path-38);}.cls-41{clip-path:url(#clip-path-39);}.cls-42{clip-path:url(#clip-path-40);}.cls-43{clip-path:url(#clip-path-41);}.cls-44{clip-path:url(#clip-path-42);}.cls-45{clip-path:url(#clip-path-43);}.cls-46{clip-path:url(#clip-path-44);}.cls-47{clip-path:url(#clip-path-45);}.cls-48{clip-path:url(#clip-path-46);}.cls-49{clip-path:url(#clip-path-47);}.cls-50{clip-path:url(#clip-path-48);}.cls-51{clip-path:url(#clip-path-49);}.cls-52{clip-path:url(#clip-path-50);}.cls-53{clip-path:url(#clip-path-51);}.cls-54{clip-path:url(#clip-path-52);}.cls-55{clip-path:url(#clip-path-53);}.cls-56{clip-path:url(#clip-path-54);}.cls-57{clip-path:url(#clip-path-59);}.cls-58{clip-path:url(#clip-path-60);}.cls-59{clip-path:url(#clip-path-61);}.cls-60{clip-path:url(#clip-path-62);}.cls-61{clip-path:url(#clip-path-63);}.cls-62{clip-path:url(#clip-path-64);}.cls-63{clip-path:url(#clip-path-65);}.cls-64{clip-path:url(#clip-path-66);}.cls-65{clip-path:url(#clip-path-67);}.cls-66{clip-path:url(#clip-path-68);}.cls-67{clip-path:url(#clip-path-69);}.cls-68{clip-path:url(#clip-path-70);}.cls-69{clip-path:url(#clip-path-71);}.cls-70{clip-path:url(#clip-path-72);}.cls-71{clip-path:url(#clip-path-73);}.cls-72{clip-path:url(#clip-path-74);}.cls-73{clip-path:url(#clip-path-75);}.cls-74{clip-path:url(#clip-path-77);}.cls-75{clip-path:url(#clip-path-78);}.cls-76{clip-path:url(#clip-path-79);}.cls-77{clip-path:url(#clip-path-80);}.cls-78{clip-path:url(#clip-path-81);}.cls-79{clip-path:url(#clip-path-82);}.cls-80{clip-path:url(#clip-path-83);}.cls-81{clip-path:url(#clip-path-84);}.cls-82{clip-path:url(#clip-path-85);}.cls-83{clip-path:url(#clip-path-86);}.cls-84{clip-path:url(#clip-path-87);}.cls-85{clip-path:url(#clip-path-88);}.cls-86{clip-path:url(#clip-path-89);}.cls-87{clip-path:url(#clip-path-90);}.cls-88{clip-path:url(#clip-path-91);}.cls-89{clip-path:url(#clip-path-92);}.cls-90{clip-path:url(#clip-path-93);}.cls-91{clip-path:url(#clip-path-94);}.cls-92{clip-path:url(#clip-path-95);}.cls-93{clip-path:url(#clip-path-96);}.cls-94{clip-path:url(#clip-path-97);}.cls-95{clip-path:url(#clip-path-98);}.cls-96{clip-path:url(#clip-path-99);}.cls-97{clip-path:url(#clip-path-100);}.cls-98{clip-path:url(#clip-path-101);}.cls-99{clip-path:url(#clip-path-102);}.cls-100{clip-path:url(#clip-path-103);}.cls-101{clip-path:url(#clip-path-104);}.cls-102{clip-path:url(#clip-path-105);}.cls-103{clip-path:url(#clip-path-106);}.cls-104{clip-path:url(#clip-path-107);}.cls-105{clip-path:url(#clip-path-108);}.cls-106{clip-path:url(#clip-path-109);}.cls-107{clip-path:url(#clip-path-110);}.cls-108{clip-path:url(#clip-path-111);}.cls-109{clip-path:url(#clip-path-112);}.cls-110,.cls-112{opacity:0.51;}.cls-111{fill:#eee;}.cls-112{stroke:#eee;stroke-miterlimit:10;stroke-width:8px;}</style><clipPath id="clip-path"><path class="cls-1" d="M2165.83-1412.62h30a1.5,1.5,0,0,1,1.5,1.5,1.5,1.5,0,0,1-1.5,1.5h-30a1.5,1.5,0,0,1-1.5-1.5A1.5,1.5,0,0,1,2165.83-1412.62Z"/></clipPath><clipPath id="clip-path-2"><path class="cls-1" d="M1738-1431.18v8.64c0,.91.38,1.24,1.47,1.24h2.11v1.83h-2.14c-2.51,0-3.53-.89-3.53-3.1v-8.61H1733v-1.75h2.92v-3H1738v3h4.31v1.75Z"/></clipPath><clipPath id="clip-path-3"><path class="cls-1" d="M1741.62-1419.41h-2.19c-2.54,0-3.58-.92-3.58-3.16v-8.55h-2.92V-1433h2.92v-3H1738v3h4.32v1.86H1738v8.58c0,.89.36,1.19,1.42,1.19h2.16Zm-8.58-11.82H1736v8.66c0,2.19,1,3,3.47,3h2.08v-1.72h-2c-1.12,0-1.53-.35-1.53-1.3v-8.69h4.32v-1.64h-4.32v-3h-2v3H1733Z"/></clipPath><clipPath id="clip-path-4"><path class="cls-1" d="M1743.55-1426.12a6.82,6.82,0,0,1,7.16-7.19,6.82,6.82,0,0,1,7,7.08v.77h-12.06c0,2.71,2.28,4.59,5.07,4.59a5.43,5.43,0,0,0,4.93-2.87l1.65,1.1a7.25,7.25,0,0,1-6.58,3.55C1746.42-1419.09,1743.55-1421.86,1743.55-1426.12Zm12-1a4.82,4.82,0,0,0-4.88-4.39,4.77,4.77,0,0,0-5,4.39Z"/></clipPath><clipPath id="clip-path-5"><path class="cls-1" d="M1750.73-1419a7.32,7.32,0,0,1-5.25-1.94,7,7,0,0,1-2-5.15,7.23,7.23,0,0,1,2-5.26,7.19,7.19,0,0,1,5.2-2,6.87,6.87,0,0,1,7.06,7.15v.81h-12.06a4.73,4.73,0,0,0,5,4.49,5.37,5.37,0,0,0,4.88-2.84l0,0,0,0,1.7,1.12,0,0A7.31,7.31,0,0,1,1750.73-1419Zm0-14.23a6.75,6.75,0,0,0-7.11,7.14c0,4.24,2.8,7,7.13,7a7.23,7.23,0,0,0,6.51-3.49l-1.56-1a5.48,5.48,0,0,1-5,2.85,4.83,4.83,0,0,1-5.13-4.65v-.06h12.06v-.7A6.76,6.76,0,0,0,1750.71-1433.26Zm4.93,6.18h-10v-.06a4.82,4.82,0,0,1,5.08-4.45,4.89,4.89,0,0,1,4.93,4.45Zm-9.9-.11h9.79a4.79,4.79,0,0,0-4.82-4.29A4.72,4.72,0,0,0,1745.74-1427.19Z"/></clipPath><clipPath id="clip-path-6"><path class="cls-1" d="M1760.16-1426.2a7,7,0,0,1,7.19-7.11,6.72,6.72,0,0,1,6.83,4.85l-2,.51a4.65,4.65,0,0,0-4.82-3.53,5,5,0,0,0-5.11,5.28,5,5,0,0,0,5.11,5.28,4.65,4.65,0,0,0,4.82-3.53l2,.51a6.72,6.72,0,0,1-6.83,4.85,7,7,0,0,1-7.19-7.11"/></clipPath><clipPath id="clip-path-7"><path class="cls-1" d="M1767.35-1419a7.3,7.3,0,0,1-5.18-2,7.14,7.14,0,0,1-2.07-5.14,7.06,7.06,0,0,1,7.25-7.17c3.42,0,6.12,1.92,6.88,4.9v0h0l-2.06.52v0a4.6,4.6,0,0,0-4.77-3.49,4.92,4.92,0,0,0-5,5.23,4.92,4.92,0,0,0,5,5.23,4.6,4.6,0,0,0,4.77-3.49v0h.06l2,.52v0c-.76,3-3.46,4.9-6.88,4.9m0-14.23a7.2,7.2,0,0,0-5.1,2,7,7,0,0,0-2,5,7,7,0,0,0,2,5.06,7.19,7.19,0,0,0,5.1,2,6.64,6.64,0,0,0,6.76-4.76l-1.9-.48a4.7,4.7,0,0,1-4.86,3.52,5,5,0,0,1-5.16-5.34,5,5,0,0,1,5.16-5.34,4.7,4.7,0,0,1,4.86,3.52l1.9-.48a6.64,6.64,0,0,0-6.76-4.76"/></clipPath><clipPath id="clip-path-8"><path class="cls-1" d="M1777-1438h2.09v6.76h.05a6,6,0,0,1,4.77-2.06c3.81,0,6.38,2.31,6.38,5.74v8.1h-2.09v-7.69c0-2.7-1.67-4.32-4.42-4.32a4.38,4.38,0,0,0-4.69,4.42v7.59H1777Z"/></clipPath><clipPath id="clip-path-9"><path class="cls-1" d="M1607.1-1426.93a5.87,5.87,0,0,1,5.87-5.87,5.86,5.86,0,0,1,5.86,5.87,5.86,5.86,0,0,1-5.86,5.86,5.86,5.86,0,0,1-5.87-5.86"/></clipPath><clipPath id="clip-path-10"><path class="cls-1" d="M1674-1428.67a4.72,4.72,0,0,0-5-4.93,4.72,4.72,0,0,0-5,4.93,4.73,4.73,0,0,0,5,4.94,4.72,4.72,0,0,0,5-4.94m-14.8,0c0-5.19,4.11-9.2,9.84-9.2s9.83,4,9.83,9.2-4.08,9.21-9.83,9.21-9.84-4-9.84-9.21"/></clipPath><clipPath id="clip-path-11"><path class="cls-1" d="M1699-1433.93c2.6,0,4.41,1.35,4.64,3.39h-9.34c.26-2,2.07-3.39,4.7-3.39m.51,10.52c-2.92,0-5.21-1.88-5.28-3.71h14.15v-1.38a9,9,0,0,0-9.48-9.38c-5.52,0-9.47,3.88-9.47,9.24,0,5.53,4.16,9.18,10.28,9.18a10.06,10.06,0,0,0,7.84-3.52l-3.29-2.31a6.23,6.23,0,0,1-4.75,1.88"/></clipPath><clipPath id="clip-path-12"><polygon class="cls-1" points="1711.26 -1442.62 1715.96 -1442.62 1715.99 -1430.54 1716.05 -1430.54 1723.92 -1437.92 1730.21 -1437.92 1722.06 -1430.2 1730.18 -1419.47 1724.56 -1419.47 1718.98 -1427.23 1718.92 -1427.23 1715.96 -1424.43 1715.96 -1419.46 1711.26 -1419.46 1711.26 -1442.62"/></clipPath><clipPath id="clip-path-13"><path class="cls-1" d="M1686.33-606.62h919a34,34,0,0,1,34,34,34,34,0,0,1-34,34h-919a34,34,0,0,1-34-34A34,34,0,0,1,1686.33-606.62Z"/></clipPath><clipPath id="clip-path-14"><path class="cls-1" d="M1922.33-573.62h60a2,2,0,0,1,2,2,2,2,0,0,1-2,2h-60a2,2,0,0,1-2-2A2,2,0,0,1,1922.33-573.62Z"/></clipPath><clipPath id="clip-path-15"><path class="cls-1" d="M2018.33-573.62h60a2,2,0,0,1,2,2,2,2,0,0,1-2,2h-60a2,2,0,0,1-2-2A2,2,0,0,1,2018.33-573.62Z"/></clipPath><clipPath id="clip-path-16"><path class="cls-1" d="M2111.33-573.62h60a2,2,0,0,1,2,2,2,2,0,0,1-2,2h-60a2,2,0,0,1-2-2A2,2,0,0,1,2111.33-573.62Z"/></clipPath><clipPath id="clip-path-17"><path class="cls-1" d="M1828.33-573.62h60a2,2,0,0,1,2,2,2,2,0,0,1-2,2h-60a2,2,0,0,1-2-2A2,2,0,0,1,1828.33-573.62Z"/></clipPath><clipPath id="clip-path-19"><path class="cls-1" d="M2208.33-573.62h60a2,2,0,0,1,2,2,2,2,0,0,1-2,2h-60a2,2,0,0,1-2-2A2,2,0,0,1,2208.33-573.62Z"/></clipPath><clipPath id="clip-path-20"><path class="cls-1" d="M2305.33-573.62h60a2,2,0,0,1,2,2,2,2,0,0,1-2,2h-60a2,2,0,0,1-2-2A2,2,0,0,1,2305.33-573.62Z"/></clipPath><clipPath id="clip-path-21"><path class="cls-1" d="M2402.33-573.62h60a2,2,0,0,1,2,2,2,2,0,0,1-2,2h-60a2,2,0,0,1-2-2A2,2,0,0,1,2402.33-573.62Z"/></clipPath><clipPath id="clip-path-22"><path class="cls-1" d="M2499.33-573.62h60a2,2,0,0,1,2,2,2,2,0,0,1-2,2h-60a2,2,0,0,1-2-2A2,2,0,0,1,2499.33-573.62Z"/></clipPath><clipPath id="clip-path-23"><path class="cls-1" d="M1732.33-573.62h60a2,2,0,0,1,2,2,2,2,0,0,1-2,2h-60a2,2,0,0,1-2-2A2,2,0,0,1,1732.33-573.62Z"/></clipPath><clipPath id="clip-path-24"><circle class="cls-3" cx="2286.83" cy="-572.12" r="8.5"/></clipPath><clipPath id="clip-path-25"><circle class="cls-3" cx="2577.83" cy="-572.12" r="8.5"/></clipPath><clipPath id="clip-path-26"><circle class="cls-3" cx="2094.83" cy="-572.12" r="8.5"/></clipPath><clipPath id="clip-path-27"><circle class="cls-3" cx="2383.83" cy="-572.12" r="8.5"/></clipPath><clipPath id="clip-path-28"><circle class="cls-3" cx="1904.83" cy="-572.12" r="8.5"/></clipPath><clipPath id="clip-path-29"><circle class="cls-3" cx="1713.83" cy="-572.12" r="8.5"/></clipPath><clipPath id="clip-path-30"><circle class="cls-3" cx="2189.83" cy="-572.12" r="8.5"/></clipPath><clipPath id="clip-path-31"><circle class="cls-3" cx="2480.83" cy="-572.12" r="8.5"/></clipPath><clipPath id="clip-path-32"><circle class="cls-3" cx="1999.83" cy="-572.12" r="8.5"/></clipPath><clipPath id="clip-path-33"><circle class="cls-3" cx="1809.83" cy="-572.12" r="8.5"/></clipPath><clipPath id="clip-path-34"><path class="cls-1" d="M1688.33-602.62h43a30,30,0,0,1,30,30,30,30,0,0,1-30,30h-43a30,30,0,0,1-30-30A30,30,0,0,1,1688.33-602.62Z"/></clipPath><clipPath id="clip-path-35"><path class="cls-1" d="M1703.86-563.51c-1,1.87-2.07,1.39-1.1,3.24a8.37,8.37,0,0,0,5.72,4.63c1.64.3,3.58.51,5.75-2.27,1.2-1.56,1.71-2.35,1.72-4.17L1704-564c0,.22-.06.45-.08.67,0,0,0,0,0-.22"/></clipPath><clipPath id="clip-path-36"><path class="cls-1" d="M1716.2-562a1.89,1.89,0,0,0-1.71.82,1.25,1.25,0,0,0,.35,1.58A1.59,1.59,0,0,0,1714-558a1.84,1.84,0,0,0,1.3,1.35,1.44,1.44,0,0,0-1.1,1,1.26,1.26,0,0,0,.72,1.25.87.87,0,0,0-.3,1.42,1.42,1.42,0,0,0,1.79,0,.88.88,0,0,0-.35-1.42,1.68,1.68,0,0,0,1.25-1,1.25,1.25,0,0,0-.43-1.38,1.55,1.55,0,0,0,1.21-1.29,1.46,1.46,0,0,0-1-1.38,1.34,1.34,0,0,0,1-2c-.48-.72-1.84-.9-1.86-.59"/></clipPath><clipPath id="clip-path-37"><path class="cls-1" d="M1715-552.64a2.31,2.31,0,0,0-1.21,2.35,2.67,2.67,0,0,0,2.09,1.9,1.62,1.62,0,0,0,.6.19.58.58,0,0,0,.56-.22c.11-.21-.08-.44-.2-.65-.5-.87.14-1.87.16-2.84a1.32,1.32,0,0,0-.27-.87,1.14,1.14,0,0,0-1-.41.93.93,0,0,0-.78.55"/></clipPath><clipPath id="clip-path-38"><path class="cls-1" d="M1705.5-562.28a10,10,0,0,0,4.75,3.14,7.77,7.77,0,0,0,5.63-.5,9.13,9.13,0,0,0,3.65-3.86,34.16,34.16,0,0,0,2.53-5.46,44.27,44.27,0,0,0,1.63-7.2,4.59,4.59,0,0,0,.15-2.48,3.72,3.72,0,0,0-2.6-1.71c-2-.59-4.09-1.09-6.16-1.49-2.4-.46-5-.78-7.22.19a8.26,8.26,0,0,0-4.19,4.54,15.5,15.5,0,0,0-1,6.19,13.49,13.49,0,0,0,2.8,8.64"/></clipPath><clipPath id="clip-path-39"><path class="cls-1" d="M1700.27-561.33a1.05,1.05,0,0,0-.37,1.63,1.54,1.54,0,0,1,.29.34c.13.28-.11.58-.23.86a1.6,1.6,0,0,0,1.41,2,1.73,1.73,0,0,0-.83,1.15,1.19,1.19,0,0,0,1,1,.6.6,0,0,0-.44,1,1.92,1.92,0,0,0,1.46.42,2.35,2.35,0,0,0,1.13-.26.77.77,0,0,0,.44-.84.73.73,0,0,0-.94-.35,1.25,1.25,0,0,0,1.1-1.19,1.33,1.33,0,0,0-1.26-1.08,1.28,1.28,0,0,0,1.08-1.28,1.43,1.43,0,0,0-1.39-1.06,1.43,1.43,0,0,0,.19-2.31,2.65,2.65,0,0,0-2.69-.1"/></clipPath><clipPath id="clip-path-40"><path class="cls-1" d="M1721.17-574.11a.53.53,0,0,1-.45-.23,1.51,1.51,0,0,0-1.9-.56.54.54,0,0,1-.73-.22.55.55,0,0,1,.23-.73,2.58,2.58,0,0,1,3.29.91.52.52,0,0,1-.14.74.55.55,0,0,1-.3.09"/></clipPath><clipPath id="clip-path-41"><path class="cls-1" d="M1714.31-575.47a.55.55,0,0,1-.42-.2,1.36,1.36,0,0,0-1-.47,1.4,1.4,0,0,0-1,.31.55.55,0,0,1-.76,0,.53.53,0,0,1,0-.76,2.49,2.49,0,0,1,1.83-.57,2.49,2.49,0,0,1,1.71.86.54.54,0,0,1-.08.76.54.54,0,0,1-.34.12"/></clipPath><clipPath id="clip-path-42"><path class="cls-1" d="M1704-562.3a2.42,2.42,0,0,0,.94-.34c.26-.15.08,0,.4-.31a6.55,6.55,0,0,0,2.07,2.38,7.73,7.73,0,0,0,3.13,1.45c-2,.54-4.28-.71-5.8-1.94-.12-.1-1.2-1.13-.74-1.24"/></clipPath><clipPath id="clip-path-43"><path class="cls-1" d="M1710.7-573.55c-.41,1.17,1.57,1.94,3,1.43,1.76-1.43-2.44-2.68-3-1.43"/></clipPath><clipPath id="clip-path-44"><path class="cls-1" d="M1707.55-574a10.66,10.66,0,0,0,3.45-5.37,14.11,14.11,0,0,1-3.62.21.38.38,0,0,0-.21.05.32.32,0,0,0-.08.25c-.14,1.8-.28,3.61-.41,5.42.12,0,.26-.07.37-.13a1.52,1.52,0,0,0,.43-.28"/></clipPath><clipPath id="clip-path-45"><path class="cls-1" d="M1717.18-572.15c-.4,1.17,1.58,1.94,3.06,1.43,1.76-1.43-2.44-2.68-3.06-1.43"/></clipPath><clipPath id="clip-path-46"><path class="cls-1" d="M1715.78-566a.91.91,0,0,1-.52-.16,1.14,1.14,0,0,1-.22-.22.79.79,0,0,1-.23.14.88.88,0,0,1-.76,0,1.33,1.33,0,0,1-.49-1.61.33.33,0,0,1,.42-.18.33.33,0,0,1,.18.43.72.72,0,0,0,.19.79.2.2,0,0,0,.2,0,.48.48,0,0,0,.26-.32.3.3,0,0,1,.34-.24.31.31,0,0,1,.29.29.58.58,0,0,0,.2.42.23.23,0,0,0,.25,0c.11-.06.26-.25.37-.76a5.82,5.82,0,0,0-.15-3,.33.33,0,0,1,.21-.41.33.33,0,0,1,.41.21,6.58,6.58,0,0,1,.16,3.3,1.72,1.72,0,0,1-.65,1.17.84.84,0,0,1-.46.13"/></clipPath><clipPath id="clip-path-47"><path class="cls-1" d="M1711.39-573a.64.64,0,0,1,.65-.64.64.64,0,0,1,.64.64.64.64,0,0,1-.64.64.65.65,0,0,1-.65-.64"/></clipPath><clipPath id="clip-path-48"><path class="cls-1" d="M1717.71-571.61a.65.65,0,0,1,.65-.64.64.64,0,0,1,.64.64.64.64,0,0,1-.64.64.65.65,0,0,1-.65-.64"/></clipPath><clipPath id="clip-path-49"><path class="cls-1" d="M1723.75-573.38a10.86,10.86,0,0,1-3.45-5.38,14.58,14.58,0,0,0,3.62.22.3.3,0,0,1,.21,0,.32.32,0,0,1,.09.24c.13,1.81.27,3.61.4,5.42-.12,0-.25-.07-.37-.12a1.37,1.37,0,0,1-.42-.29"/></clipPath><clipPath id="clip-path-50"><path class="cls-1" d="M1722.31-578.38a1.52,1.52,0,0,1,1.72.06c.59.4.59,1.53.64,2.24a19,19,0,0,1-4.47,13.7,4.38,4.38,0,0,1-2.15,1.12c1-2.82,2.56-5.64,3.6-8.46a12.24,12.24,0,0,0,.51-3.82c.09-1.54.81-2.88.24-4.58"/></clipPath><clipPath id="clip-path-51"><path class="cls-1" d="M1707.27-578.73a17.69,17.69,0,0,0-2.07.5.89.89,0,0,0-.47.18.73.73,0,0,0-.16.43c-.44,3-.28,6-.74,9s-1,6.19-3.57,7.88c.07,0,1.19.35,1.35.36a4.18,4.18,0,0,0,1.32-.07c1.45-.3,2-1.31,2.69-2.53,1.75-3,1.56-6.5,1.65-9.82a16.85,16.85,0,0,1,1.3-6.19"/></clipPath><clipPath id="clip-path-52"><path class="cls-1" d="M1711.91-558.32a6.16,6.16,0,0,1-5.07-2.48.43.43,0,0,1,.11-.6.44.44,0,0,1,.6.11,5.47,5.47,0,0,0,5,2.07,8.28,8.28,0,0,0,5-2.73c1.82-1.95,2.75-5.37,3.37-7.63a26.07,26.07,0,0,0,.91-8.53.42.42,0,0,1,.4-.45.43.43,0,0,1,.46.4,26.89,26.89,0,0,1-.93,8.8c-.82,3-1.76,6.05-3.57,8a9.13,9.13,0,0,1-5.58,3,6.47,6.47,0,0,1-.76,0"/></clipPath><clipPath id="clip-path-53"><path class="cls-1" d="M1725.75-580a11.36,11.36,0,0,0-3-5.22,15.3,15.3,0,0,0-5.89-3.19c-.32-.11-.43.39-.12.5a14.9,14.9,0,0,1,5.65,3.07,10.77,10.77,0,0,1,2.84,5c.08.32.58.17.5-.15"/></clipPath><clipPath id="clip-path-54"><polyline class="cls-1" points="1708.42 -563.78 1715.72 -561.89 1716.98 -565.73 1709.68 -567.62"/></clipPath><clipPath id="clip-path-59"><path class="cls-1" d="M725.83-1412.62h30a1.5,1.5,0,0,1,1.5,1.5,1.5,1.5,0,0,1-1.5,1.5h-30a1.5,1.5,0,0,1-1.5-1.5A1.5,1.5,0,0,1,725.83-1412.62Z"/></clipPath><clipPath id="clip-path-60"><path class="cls-1" d="M298-1431.18v8.64c0,.91.38,1.24,1.47,1.24h2.11v1.83h-2.14c-2.51,0-3.53-.89-3.53-3.1v-8.61H293v-1.75h2.92v-3H298v3h4.31v1.75Z"/></clipPath><clipPath id="clip-path-61"><path class="cls-1" d="M301.62-1419.41h-2.19c-2.54,0-3.58-.92-3.58-3.16v-8.55h-2.92V-1433h2.92v-3H298v3h4.32v1.86H298v8.58c0,.89.36,1.19,1.42,1.19h2.16ZM293-1431.23H296v8.66c0,2.19,1,3,3.47,3h2.08v-1.72h-2.05c-1.12,0-1.53-.35-1.53-1.3v-8.69h4.32v-1.64h-4.32v-3h-2v3H293Z"/></clipPath><clipPath id="clip-path-62"><path class="cls-1" d="M303.55-1426.12a6.82,6.82,0,0,1,7.16-7.19,6.82,6.82,0,0,1,7,7.08v.77H305.66c0,2.71,2.28,4.59,5.07,4.59a5.43,5.43,0,0,0,4.93-2.87l1.65,1.1a7.25,7.25,0,0,1-6.58,3.55C306.42-1419.09,303.55-1421.86,303.55-1426.12Zm12-1a4.82,4.82,0,0,0-4.88-4.39,4.77,4.77,0,0,0-5,4.39Z"/></clipPath><clipPath id="clip-path-63"><path class="cls-1" d="M310.73-1419a7.32,7.32,0,0,1-5.25-1.94,7,7,0,0,1-2-5.15,7.23,7.23,0,0,1,2-5.26,7.19,7.19,0,0,1,5.2-2,6.87,6.87,0,0,1,7.06,7.15v.81H305.71a4.73,4.73,0,0,0,5,4.49,5.37,5.37,0,0,0,4.88-2.84l0,0,.05,0,1.7,1.12,0,0A7.31,7.31,0,0,1,310.73-1419Zm0-14.23a6.75,6.75,0,0,0-7.11,7.14c0,4.24,2.8,7,7.13,7a7.23,7.23,0,0,0,6.51-3.49l-1.56-1a5.48,5.48,0,0,1-4.95,2.85,4.83,4.83,0,0,1-5.13-4.65v-.06h12.06v-.7A6.76,6.76,0,0,0,310.71-1433.26Zm4.93,6.18h-10v-.06a4.82,4.82,0,0,1,5.08-4.45,4.89,4.89,0,0,1,4.93,4.45Zm-9.9-.11h9.79a4.79,4.79,0,0,0-4.82-4.29A4.72,4.72,0,0,0,305.74-1427.19Z"/></clipPath><clipPath id="clip-path-64"><path class="cls-1" d="M320.16-1426.2a7,7,0,0,1,7.19-7.11,6.72,6.72,0,0,1,6.83,4.85l-2,.51a4.65,4.65,0,0,0-4.82-3.53,5,5,0,0,0-5.11,5.28,5,5,0,0,0,5.11,5.28,4.65,4.65,0,0,0,4.82-3.53l2,.51a6.72,6.72,0,0,1-6.83,4.85,7,7,0,0,1-7.19-7.11"/></clipPath><clipPath id="clip-path-65"><path class="cls-1" d="M327.35-1419a7.3,7.3,0,0,1-5.18-2,7.14,7.14,0,0,1-2.07-5.14,7.06,7.06,0,0,1,7.25-7.17c3.42,0,6.12,1.92,6.88,4.9v0h-.05l-2.06.52v0a4.6,4.6,0,0,0-4.77-3.49,4.92,4.92,0,0,0-5.05,5.23,4.92,4.92,0,0,0,5.05,5.23,4.6,4.6,0,0,0,4.77-3.49v0h.06l2.05.52v0c-.76,3-3.46,4.9-6.88,4.9m0-14.23a7.2,7.2,0,0,0-5.1,2,7,7,0,0,0-2,5,7,7,0,0,0,2,5.06,7.19,7.19,0,0,0,5.1,2,6.64,6.64,0,0,0,6.76-4.76l-1.9-.48a4.7,4.7,0,0,1-4.86,3.52,5,5,0,0,1-5.16-5.34,5,5,0,0,1,5.16-5.34,4.7,4.7,0,0,1,4.86,3.52l1.9-.48a6.64,6.64,0,0,0-6.76-4.76"/></clipPath><clipPath id="clip-path-66"><path class="cls-1" d="M337-1438h2.09v6.76h.05a6,6,0,0,1,4.77-2.06c3.81,0,6.38,2.31,6.38,5.74v8.1h-2.09v-7.69c0-2.7-1.67-4.32-4.42-4.32a4.38,4.38,0,0,0-4.69,4.42v7.59H337Z"/></clipPath><clipPath id="clip-path-67"><path class="cls-1" d="M167.1-1426.93a5.87,5.87,0,0,1,5.87-5.87,5.86,5.86,0,0,1,5.86,5.87,5.86,5.86,0,0,1-5.86,5.86,5.86,5.86,0,0,1-5.87-5.86"/></clipPath><clipPath id="clip-path-68"><path class="cls-1" d="M234-1428.67a4.72,4.72,0,0,0-5-4.93,4.72,4.72,0,0,0-5,4.93,4.73,4.73,0,0,0,5,4.94,4.72,4.72,0,0,0,5-4.94m-14.8,0c0-5.19,4.11-9.2,9.84-9.2s9.83,4,9.83,9.2-4.08,9.21-9.83,9.21-9.84-4-9.84-9.21"/></clipPath><clipPath id="clip-path-69"><path class="cls-1" d="M259-1433.93c2.6,0,4.41,1.35,4.64,3.39h-9.34c.26-2,2.07-3.39,4.7-3.39m.51,10.52c-2.92,0-5.21-1.88-5.28-3.71H268.4v-1.38a9,9,0,0,0-9.48-9.38c-5.52,0-9.47,3.88-9.47,9.24,0,5.53,4.16,9.18,10.28,9.18a10.06,10.06,0,0,0,7.84-3.52l-3.29-2.31a6.23,6.23,0,0,1-4.75,1.88"/></clipPath><clipPath id="clip-path-70"><polygon class="cls-1" points="271.26 -1442.62 275.96 -1442.62 275.99 -1430.54 276.05 -1430.54 283.92 -1437.92 290.21 -1437.92 282.06 -1430.2 290.18 -1419.47 284.56 -1419.47 278.98 -1427.23 278.92 -1427.23 275.96 -1424.43 275.96 -1419.46 271.26 -1419.46 271.26 -1442.62"/></clipPath><clipPath id="clip-path-71"><path class="cls-1" d="M246.33-606.62h919a34,34,0,0,1,34,34,34,34,0,0,1-34,34h-919a34,34,0,0,1-34-34A34,34,0,0,1,246.33-606.62Z"/></clipPath><clipPath id="clip-path-72"><path class="cls-1" d="M482.33-573.62h60a2,2,0,0,1,2,2,2,2,0,0,1-2,2h-60a2,2,0,0,1-2-2A2,2,0,0,1,482.33-573.62Z"/></clipPath><clipPath id="clip-path-73"><path class="cls-1" d="M578.33-573.62h60a2,2,0,0,1,2,2,2,2,0,0,1-2,2h-60a2,2,0,0,1-2-2A2,2,0,0,1,578.33-573.62Z"/></clipPath><clipPath id="clip-path-74"><path class="cls-1" d="M671.33-573.62h60a2,2,0,0,1,2,2,2,2,0,0,1-2,2h-60a2,2,0,0,1-2-2A2,2,0,0,1,671.33-573.62Z"/></clipPath><clipPath id="clip-path-75"><path class="cls-1" d="M388.33-573.62h60a2,2,0,0,1,2,2,2,2,0,0,1-2,2h-60a2,2,0,0,1-2-2A2,2,0,0,1,388.33-573.62Z"/></clipPath><clipPath id="clip-path-77"><path class="cls-1" d="M768.33-573.62h60a2,2,0,0,1,2,2,2,2,0,0,1-2,2h-60a2,2,0,0,1-2-2A2,2,0,0,1,768.33-573.62Z"/></clipPath><clipPath id="clip-path-78"><path class="cls-1" d="M865.33-573.62h60a2,2,0,0,1,2,2,2,2,0,0,1-2,2h-60a2,2,0,0,1-2-2A2,2,0,0,1,865.33-573.62Z"/></clipPath><clipPath id="clip-path-79"><path class="cls-1" d="M962.33-573.62h60a2,2,0,0,1,2,2,2,2,0,0,1-2,2h-60a2,2,0,0,1-2-2A2,2,0,0,1,962.33-573.62Z"/></clipPath><clipPath id="clip-path-80"><path class="cls-1" d="M1059.33-573.62h60a2,2,0,0,1,2,2,2,2,0,0,1-2,2h-60a2,2,0,0,1-2-2A2,2,0,0,1,1059.33-573.62Z"/></clipPath><clipPath id="clip-path-81"><path class="cls-1" d="M292.33-573.62h60a2,2,0,0,1,2,2,2,2,0,0,1-2,2h-60a2,2,0,0,1-2-2A2,2,0,0,1,292.33-573.62Z"/></clipPath><clipPath id="clip-path-82"><circle class="cls-3" cx="846.83" cy="-572.12" r="8.5"/></clipPath><clipPath id="clip-path-83"><circle class="cls-3" cx="1137.83" cy="-572.12" r="8.5"/></clipPath><clipPath id="clip-path-84"><circle class="cls-3" cx="654.83" cy="-572.12" r="8.5"/></clipPath><clipPath id="clip-path-85"><circle class="cls-3" cx="943.83" cy="-572.12" r="8.5"/></clipPath><clipPath id="clip-path-86"><circle class="cls-3" cx="464.83" cy="-572.12" r="8.5"/></clipPath><clipPath id="clip-path-87"><circle class="cls-3" cx="273.83" cy="-572.12" r="8.5"/></clipPath><clipPath id="clip-path-88"><circle class="cls-3" cx="749.83" cy="-572.12" r="8.5"/></clipPath><clipPath id="clip-path-89"><circle class="cls-3" cx="1040.83" cy="-572.12" r="8.5"/></clipPath><clipPath id="clip-path-90"><circle class="cls-3" cx="559.83" cy="-572.12" r="8.5"/></clipPath><clipPath id="clip-path-91"><circle class="cls-3" cx="369.83" cy="-572.12" r="8.5"/></clipPath><clipPath id="clip-path-92"><path class="cls-1" d="M248.33-602.62h43a30,30,0,0,1,30,30,30,30,0,0,1-30,30h-43a30,30,0,0,1-30-30A30,30,0,0,1,248.33-602.62Z"/></clipPath><clipPath id="clip-path-93"><path class="cls-1" d="M263.86-563.51c-1,1.87-2.07,1.39-1.1,3.24a8.37,8.37,0,0,0,5.72,4.63c1.64.3,3.58.51,5.75-2.27,1.2-1.56,1.71-2.35,1.72-4.17L264-564c0,.22-.06.45-.08.67,0,0,0,0,0-.22"/></clipPath><clipPath id="clip-path-94"><path class="cls-1" d="M276.2-562a1.89,1.89,0,0,0-1.71.82,1.25,1.25,0,0,0,.35,1.58A1.59,1.59,0,0,0,274-558a1.84,1.84,0,0,0,1.3,1.35,1.44,1.44,0,0,0-1.1,1,1.26,1.26,0,0,0,.72,1.25.87.87,0,0,0-.3,1.42,1.42,1.42,0,0,0,1.79,0,.88.88,0,0,0-.35-1.42,1.68,1.68,0,0,0,1.25-1,1.25,1.25,0,0,0-.43-1.38A1.55,1.55,0,0,0,278.1-558a1.46,1.46,0,0,0-1.05-1.38,1.34,1.34,0,0,0,1-2c-.48-.72-1.84-.9-1.86-.59"/></clipPath><clipPath id="clip-path-95"><path class="cls-1" d="M275-552.64a2.31,2.31,0,0,0-1.21,2.35,2.67,2.67,0,0,0,2.09,1.9,1.62,1.62,0,0,0,.6.19.58.58,0,0,0,.56-.22c.11-.21-.08-.44-.2-.65-.5-.87.14-1.87.16-2.84a1.32,1.32,0,0,0-.27-.87,1.14,1.14,0,0,0-.95-.41.93.93,0,0,0-.78.55"/></clipPath><clipPath id="clip-path-96"><path class="cls-1" d="M265.5-562.28a10,10,0,0,0,4.75,3.14,7.77,7.77,0,0,0,5.63-.5,9.13,9.13,0,0,0,3.65-3.86,34.16,34.16,0,0,0,2.53-5.46,44.27,44.27,0,0,0,1.63-7.2,4.59,4.59,0,0,0,.15-2.48,3.72,3.72,0,0,0-2.6-1.71c-2-.59-4.09-1.09-6.16-1.49-2.4-.46-5-.78-7.22.19a8.26,8.26,0,0,0-4.19,4.54,15.5,15.5,0,0,0-1,6.19,13.49,13.49,0,0,0,2.8,8.64"/></clipPath><clipPath id="clip-path-97"><path class="cls-1" d="M260.27-561.33a1.05,1.05,0,0,0-.37,1.63,1.54,1.54,0,0,1,.29.34c.13.28-.11.58-.23.86a1.6,1.6,0,0,0,1.41,2,1.73,1.73,0,0,0-.83,1.15,1.19,1.19,0,0,0,1,1,.6.6,0,0,0-.44,1,1.92,1.92,0,0,0,1.46.42,2.35,2.35,0,0,0,1.13-.26.77.77,0,0,0,.44-.84.73.73,0,0,0-.94-.35,1.25,1.25,0,0,0,1.1-1.19,1.33,1.33,0,0,0-1.26-1.08,1.28,1.28,0,0,0,1.08-1.28,1.43,1.43,0,0,0-1.39-1.06,1.43,1.43,0,0,0,.19-2.31,2.65,2.65,0,0,0-2.69-.1"/></clipPath><clipPath id="clip-path-98"><path class="cls-1" d="M281.17-574.11a.53.53,0,0,1-.45-.23,1.51,1.51,0,0,0-1.9-.56.54.54,0,0,1-.73-.22.55.55,0,0,1,.23-.73,2.58,2.58,0,0,1,3.29.91.52.52,0,0,1-.14.74.55.55,0,0,1-.3.09"/></clipPath><clipPath id="clip-path-99"><path class="cls-1" d="M274.31-575.47a.55.55,0,0,1-.42-.2,1.36,1.36,0,0,0-1-.47,1.4,1.4,0,0,0-1,.31.55.55,0,0,1-.76,0,.53.53,0,0,1,.05-.76,2.49,2.49,0,0,1,1.83-.57,2.49,2.49,0,0,1,1.71.86.54.54,0,0,1-.08.76.54.54,0,0,1-.34.12"/></clipPath><clipPath id="clip-path-100"><path class="cls-1" d="M264-562.3a2.42,2.42,0,0,0,.94-.34c.26-.15.08,0,.4-.31a6.55,6.55,0,0,0,2.07,2.38,7.73,7.73,0,0,0,3.13,1.45c-2,.54-4.28-.71-5.8-1.94-.12-.1-1.2-1.13-.74-1.24"/></clipPath><clipPath id="clip-path-101"><path class="cls-1" d="M270.7-573.55c-.41,1.17,1.57,1.94,3.05,1.43,1.76-1.43-2.44-2.68-3.05-1.43"/></clipPath><clipPath id="clip-path-102"><path class="cls-1" d="M267.55-574A10.66,10.66,0,0,0,271-579.4a14.11,14.11,0,0,1-3.62.21.38.38,0,0,0-.21.05.32.32,0,0,0-.08.25c-.14,1.8-.28,3.61-.41,5.42.12,0,.26-.07.37-.13a1.52,1.52,0,0,0,.43-.28"/></clipPath><clipPath id="clip-path-103"><path class="cls-1" d="M277.18-572.15c-.4,1.17,1.58,1.94,3.06,1.43,1.76-1.43-2.44-2.68-3.06-1.43"/></clipPath><clipPath id="clip-path-104"><path class="cls-1" d="M275.78-566a.91.91,0,0,1-.52-.16,1.14,1.14,0,0,1-.22-.22.79.79,0,0,1-.23.14.88.88,0,0,1-.76,0,1.33,1.33,0,0,1-.49-1.61A.33.33,0,0,1,274-568a.33.33,0,0,1,.18.43.72.72,0,0,0,.19.79.2.2,0,0,0,.2,0,.48.48,0,0,0,.26-.32.3.3,0,0,1,.34-.24.31.31,0,0,1,.29.29.58.58,0,0,0,.2.42.23.23,0,0,0,.25,0c.11-.06.26-.25.37-.76a5.82,5.82,0,0,0-.15-3,.33.33,0,0,1,.21-.41.33.33,0,0,1,.41.21,6.58,6.58,0,0,1,.16,3.3,1.72,1.72,0,0,1-.65,1.17.84.84,0,0,1-.46.13"/></clipPath><clipPath id="clip-path-105"><path class="cls-1" d="M271.39-573a.64.64,0,0,1,.65-.64.64.64,0,0,1,.64.64.64.64,0,0,1-.64.64.65.65,0,0,1-.65-.64"/></clipPath><clipPath id="clip-path-106"><path class="cls-1" d="M277.71-571.61a.65.65,0,0,1,.65-.64.64.64,0,0,1,.64.64.64.64,0,0,1-.64.64.65.65,0,0,1-.65-.64"/></clipPath><clipPath id="clip-path-107"><path class="cls-1" d="M283.75-573.38a10.86,10.86,0,0,1-3.45-5.38,14.58,14.58,0,0,0,3.62.22.3.3,0,0,1,.21,0,.32.32,0,0,1,.09.24c.13,1.81.27,3.61.4,5.42-.12,0-.25-.07-.37-.12a1.37,1.37,0,0,1-.42-.29"/></clipPath><clipPath id="clip-path-108"><path class="cls-1" d="M282.31-578.38a1.52,1.52,0,0,1,1.72.06c.59.4.59,1.53.64,2.24a19,19,0,0,1-4.47,13.7,4.38,4.38,0,0,1-2.15,1.12c1.05-2.82,2.56-5.64,3.6-8.46a12.24,12.24,0,0,0,.51-3.82c.09-1.54.81-2.88.24-4.58"/></clipPath><clipPath id="clip-path-109"><path class="cls-1" d="M267.27-578.73a17.69,17.69,0,0,0-2.07.5.89.89,0,0,0-.47.18.73.73,0,0,0-.16.43c-.44,3-.28,6-.74,9s-1.05,6.19-3.57,7.88c.07,0,1.19.35,1.35.36a4.18,4.18,0,0,0,1.32-.07c1.45-.3,2-1.31,2.69-2.53,1.75-3,1.56-6.5,1.65-9.82a16.85,16.85,0,0,1,1.3-6.19"/></clipPath><clipPath id="clip-path-110"><path class="cls-1" d="M271.91-558.32a6.16,6.16,0,0,1-5.07-2.48.43.43,0,0,1,.11-.6.44.44,0,0,1,.6.11,5.47,5.47,0,0,0,5,2.07,8.28,8.28,0,0,0,5-2.73c1.82-1.95,2.75-5.37,3.37-7.63a26.07,26.07,0,0,0,.91-8.53.42.42,0,0,1,.4-.45.43.43,0,0,1,.46.4,26.89,26.89,0,0,1-.93,8.8c-.82,3-1.76,6.05-3.57,8a9.13,9.13,0,0,1-5.58,3,6.47,6.47,0,0,1-.76,0"/></clipPath><clipPath id="clip-path-111"><path class="cls-1" d="M285.75-580a11.36,11.36,0,0,0-3-5.22,15.3,15.3,0,0,0-5.89-3.19c-.32-.11-.43.39-.12.5a14.9,14.9,0,0,1,5.65,3.07,10.77,10.77,0,0,1,2.84,5c.08.32.58.17.5-.15"/></clipPath><clipPath id="clip-path-112"><polyline class="cls-1" points="268.42 -563.78 275.72 -561.89 276.98 -565.73 269.68 -567.62"/></clipPath></defs><g id="Layer_19" data-name="Layer 19"><g class="cls-110"><path class="cls-111" d="M2.52,608.84c17.7-11.87,39.27-20.39,60.87-19.75,8.47.25,21.19,2.24,25.83,10.48,3.42,6.09.6,14.68-5.65,17.73-8.73,4.25-17.27-2.69-20.95-10.21s-4.4-16.8-4.48-25.13C58,564.07,63,546.43,71.61,530.81c18-32.68,51.19-57.55,87.79-65,16.6-3.39,34.55-3.82,50.93.94,11.95,3.48,31.6,13.64,29.27,28.92-1,6.34-9.35,14.65-15.28,7.66-6.35-7.46,5.23-13.88,11.15-14.25,20.53-1.28,38.46,17.66,41.75,36.76,1.45,8.41.8,19.89-4,27.29-3.15,4.86-12,5.7-16,1.14-4.78-5.4,5.23-16.18,8.9-19.87,6.35-6.37,14.17-11,22.15-15.07,37.35-18.9,78.41-32.53,120.38-35,42.25-2.47,86.64,7.8,126.07,22.46,9.92,3.69,20.85,6.61,27.75,15.11,5.64,7,11.75,19.53,3.7,27.07-8.73,8.17-21.67-1.5-27.26-9-6.89-9.23-6.75-21.41-3.45-32,6.18-19.79,21.6-36.76,36.73-50.38a226.85,226.85,0,0,1,50.84-34c84.48-42.11,187-38.59,275.77-12.53,41.75,12.26,82.33,30.51,117.07,57,27.35,20.84,72.94,66.37,35.66,99.18-13.54,11.91-35,17.68-51.45,8.44-13.63-7.63-16.62-23.88-10.77-37.59,7.47-17.48,25.69-25.34,43.52-27.84,21.39-3,43.5,1.14,63.72,8.18,34.31,11.95,75.72,36.91,83.17,75.61,1.62,8.41,2.38,19.64-7.49,22.72-9.14,2.86-13.26-5.58-8.32-13,10.78-16.14,39-9.16,53.79-5.79,34.38,7.82,71.1,14.56,106.26,7.94,16-3,31.24-9.49,43.45-20.32,13-11.55,20.31-27.94,31.24-41.28,11.25-13.76,25-21.63,42.67-24,6.35-.86,3.64-10.5-2.66-9.64-21.53,2.92-37.71,14.06-50.66,31.14-6.78,9-12.21,18.94-19.15,27.76a69.28,69.28,0,0,1-25.06,19.74c-20,9.46-43.33,10.16-65,8.59-10.78-.78-21.49-2.25-32.14-4-14-2.35-27.67-6.42-41.71-8.57-17.1-2.62-44.11-2.44-51.61,17.42-2.89,7.64-1.58,18.12,6,22.56,6.92,4.06,16.37,2.1,22.7-2.22,17.31-11.79,6.27-41.82-2.2-55.78-12.39-20.43-32.42-35.67-53.3-46.65-22.62-11.91-47.91-19.9-73.54-21.15-22.1-1.07-48.36,3.37-63.82,20.7-11.49,12.87-16.79,32.1-9.16,48.25,8.72,18.46,31.09,24.41,49.82,20.57,19.34-4,39-18.68,44.25-38.38,6.42-24.17-8.14-48.15-23.87-65.24-35.89-39-87.12-64.19-136.87-80.28-105.21-34-235.91-36.93-329.23,30.27-19.5,14-37.86,31.36-50.17,52.2s-16.58,48.56,4,65.73c7.8,6.5,18.72,11.44,28.74,7.16,9.78-4.18,14.63-14.82,13-25-1.7-10.43-8.27-20.55-16.62-26.9-9.58-7.29-23.43-10.77-34.69-14.65-50.47-17.38-104.64-25.18-157.33-14.6-25.66,5.16-49.6,14.31-73.49,24.77-19.37,8.48-40.43,18.8-49.55,39.18-7.25,16.21,10.62,28.65,25.56,22.27,8.69-3.71,11.85-13.63,13.39-22.28a55.22,55.22,0,0,0-3.47-31.31c-8.37-19.7-31.2-37.05-53.51-32.15-8.51,1.87-15.43,7.84-16.72,16.71-1.11,7.64,2.71,15.18,10.11,17.91,18.47,6.81,31.17-15,24.55-30.64-7.25-17.1-27.19-25.89-44.35-28.82-44.15-7.56-89.48,10.81-119.88,42.81-15.23,16-26.93,35.78-32.25,57.34-4.6,18.62-6.46,44.11,4.8,60.86,10.39,15.45,34.66,17.46,42.61-1.42,8.9-21.1-13.22-33.49-31.06-35.16-24.52-2.31-50.18,7.38-70.26,20.84-5.32,3.57-.31,12.23,5.05,8.64Z"/></g><circle class="cls-112" cx="1219" cy="559.5" r="15.5"/><path class="cls-112" d="M0,404a50.5,50.5,0,0,1,50.5,50.5A50.5,50.5,0,0,1,0,505"/><path class="cls-112" d="M1440,703a50.5,50.5,0,0,1,0-101"/><g class="cls-110"><path class="cls-111" d="M1441.33,520.32c23.5-8,47.59-2.27,71,3.12,19.16,4.42,40,9.75,59.49,3.84,17.25-5.25,32.89-20.77,38.49-37.94,4.67-14.33-1.14-31.74-13.73-40.17-14.25-9.54-32.27-2.27-41.55,10.66-10.85,15.12-9,35,.27,50.4,10.43,17.26,28,29.16,45.65,38.11A172.38,172.38,0,0,0,1661,566c41.52,4.37,83.16-6.38,121.18-22.43,33.87-14.28,65.68-32.6,95.6-53.87,28.24-20.09,56-41.07,86.08-58.32,27.56-15.78,59.17-30.25,91.7-28.12,15.75,1,33,6.78,44.73,17.63,7.33,6.77,15.23,25.5.85,30.06-15.75,5-23.89-24.39-26.6-34.46a106.16,106.16,0,0,1-.61-52.73c8.62-35.26,32.93-64.64,59.57-88.23,29-25.65,62.62-45.86,97.71-62,37.91-17.41,79.92-31.55,122-32.82,32.84-1,65.63,4.17,97.89,9.79,65.33,11.39,134,29,200.49,17,30.75-5.58,59.57-19.13,82-41.09,12.94-12.65,24.75-27.58,27.5-46,1.92-12.84,0-31.67-14.89-36-10.79-3.14-19.75,5.53-19.54,16.17.33,16.94,16.33,28.88,32.22,29.69,14.25.74,27.93-7,39.3-14.71,14.34-9.77,27.3-21.41,40.87-32.19,11.41-9.07,24-19,38.5-22.2,6.28-1.38,3.62-11-2.66-9.64-13.73,3-25.72,11.51-36.7,19.91-13.24,10.13-25.64,21.34-39.07,31.23-10.81,8-24.14,17.55-38.19,17.64-9.52.07-19.68-5.06-23.15-14.36-1.42-3.78-2.39-11.24,3.15-12.17s9.1,5.94,10.12,10.31c2.32,10-.22,21.17-4.75,30.16-7.47,14.83-21.13,27.84-34.43,37.56-24.52,17.93-54.14,26.41-84.16,28.7-65.76,5-131-13.14-195.47-23.22-29.82-4.66-60.31-8.42-90.51-5.94-40.79,3.35-81.09,17.47-117.95,34.66-32.88,15.32-64.22,34.29-92,57.75-25.67,21.71-48.91,48-61.71,79.45a120.33,120.33,0,0,0,2.63,97.27c5.2,11,15.34,23,28.95,20.55,10.12-1.83,16.82-11.27,17.45-21.18,1.91-29.85-38.11-44.49-62-46.49-30.27-2.54-60.22,9.1-86.55,22.87-29.7,15.53-56.92,35.31-84,54.86-26.87,19.35-54,37.2-83.72,52-37,18.38-77.32,32.9-119,33.81a166.76,166.76,0,0,1-60.14-9.52c-19.48-7-39.63-17.8-53.45-33.52-12.86-14.62-19.41-38.31-2.9-53.05,15.36-13.72,34.46-.66,34.52,18.06.07,19.7-21.72,37.56-39.71,40.31-20.37,3.12-41.39-4.31-61.08-8.53-20.72-4.43-42-7-62.5,0-6.05,2.07-3.45,11.73,2.66,9.64Z"/></g></g></svg>
