<svg xmlns="http://www.w3.org/2000/svg" xmlns:xlink="http://www.w3.org/1999/xlink" viewBox="0 0 550 550"><defs><style>.cls-1{fill:none;}.cls-2{fill:#0f6b82;}.cls-3{clip-path:url(#clip-path);}.cls-4{clip-path:url(#clip-path-2);}.cls-5{opacity:0.26;}.cls-6{fill:#b5b5b5;}.cls-7{fill:#858383;}.cls-8{opacity:0.58;}.cls-9{fill:#bdbdbd;}.cls-10{fill:#8b8b8b;}.cls-11{fill:#f9e876;}.cls-12{fill:#ff3b3b;}.cls-13{fill:#fff;}.cls-14{fill:gray;}.cls-15{fill:#454444;}.cls-16{clip-path:url(#clip-path-3);}.cls-17{fill:#f8a9af;}.cls-18{fill:#0dab4c;}.cls-19{fill:#9fa0a0;}.cls-20{fill:#f4a9ae;}.cls-21{fill:#1c5229;}.cls-22{clip-path:url(#clip-path-5);}.cls-23{fill:#c0b0c2;}.cls-24{fill:#34badb;}.cls-25{fill:#b1dfec;}.cls-26{clip-path:url(#clip-path-7);}.cls-27{clip-path:url(#clip-path-9);}.cls-28{clip-path:url(#clip-path-11);}.cls-29{clip-path:url(#clip-path-13);}.cls-30{fill:#e3e3e3;}</style><clipPath id="clip-path"><circle class="cls-1" cx="274.67" cy="275.64" r="265.36"/></clipPath><clipPath id="clip-path-2"/><clipPath id="clip-path-3"><rect class="cls-1" x="312.26" y="218.74" width="83.46" height="66.12" transform="translate(52.28 564.34) rotate(-81.43)"/></clipPath><clipPath id="clip-path-5"><rect class="cls-1" x="438.06" y="195.84" width="64.21" height="81.05" transform="translate(-45.87 133.24) rotate(-15.39)"/></clipPath><clipPath id="clip-path-7"><rect class="cls-1" x="361.54" y="194.85" width="29.78" height="22.89"/></clipPath><clipPath id="clip-path-9"><rect class="cls-1" x="392.22" y="190.72" width="33.25" height="25.56"/></clipPath><clipPath id="clip-path-11"><rect class="cls-1" x="372.7" y="200.76" width="35.05" height="45.6"/></clipPath><clipPath id="clip-path-13"><rect class="cls-1" x="411.41" y="236.32" width="9.12" height="16.83" transform="translate(-66.65 247.42) rotate(-30.79)"/></clipPath></defs><g id="Layer_19" data-name="Layer 19"><circle class="cls-2" cx="274.67" cy="275.64" r="265.36"/><g class="cls-3"><g class="cls-4"><g class="cls-5"><rect x="62" y="24.88" width="23.02" height="6.36" rx="2.5"/><rect x="62" y="40.15" width="23.02" height="6.36" rx="2.5"/><rect x="62" y="55.41" width="23.02" height="6.36" rx="2.5"/><rect x="62" y="112.9" width="23.02" height="6.36" rx="2.5"/><rect x="62" y="134.6" width="23.02" height="6.36" rx="2.5"/><rect x="62" y="153.09" width="23.02" height="6.36" rx="2.5"/><rect x="62" y="190.07" width="23.02" height="6.36" rx="2.5"/><rect x="62" y="171.58" width="23.02" height="6.36" rx="2.5"/><rect x="121.77" y="7.39" width="66.45" height="6.36" rx="2.5"/><rect x="161.11" y="23.93" width="66.45" height="6.36" rx="2.5"/><rect x="204.92" y="7.39" width="180.94" height="6.36" rx="2.5"/><rect x="244.27" y="22.66" width="180.94" height="6.36" rx="2.5"/><rect x="161.11" y="40.15" width="66.45" height="6.36" rx="2.5"/><rect x="244.27" y="56.37" width="66.45" height="6.36" rx="2.5"/><rect x="325.91" y="56.37" width="152.79" height="6.36" rx="2.5"/><rect x="244.27" y="40.15" width="180.94" height="6.36" rx="2.5"/><rect x="121.77" y="75.85" width="65.89" height="6.36" rx="2.5"/><rect x="204.22" y="75.85" width="179.42" height="6.36" rx="2.5"/><rect x="103.95" y="92.58" width="65.89" height="6.36" rx="2.5"/><rect x="186.4" y="92.58" width="179.42" height="6.36" rx="2.5"/><rect x="121.77" y="112.9" width="65.89" height="6.36" rx="2.5"/><rect x="138.57" y="134.6" width="89" height="6.36" rx="2.5"/><rect x="204.22" y="112.9" width="179.42" height="6.36" rx="2.5"/><rect x="245.63" y="134.6" width="179.42" height="6.36" rx="2.5"/><rect x="172.87" y="154.68" width="89" height="6.36" rx="2.5"/><rect x="129.19" y="171.58" width="84.64" height="6.36" rx="2.5"/><rect x="231.12" y="171.58" width="188.83" height="6.36" rx="2.5"/><rect x="226.81" y="191.94" width="188.83" height="6.36" rx="2.5"/><rect x="179.03" y="210.81" width="188.83" height="6.36" rx="2.5"/><rect x="179.03" y="231.83" width="188.83" height="6.36" rx="2.5"/><rect x="231.49" y="247.5" width="222.4" height="6.36" rx="2.5"/><rect x="279.93" y="154.68" width="269.67" height="6.36" rx="2.5"/></g><g class="cls-5"><rect x="25.13" y="265.11" width="23.02" height="6.36" rx="2.5"/><rect x="25.13" y="298.5" width="23.02" height="6.36" rx="2.5"/><rect x="25.13" y="313.77" width="23.02" height="6.36" rx="2.5"/><rect x="25.13" y="329.03" width="23.02" height="6.36" rx="2.5"/><rect x="25.13" y="386.52" width="23.02" height="6.36" rx="2.5"/><rect x="25.13" y="408.21" width="23.02" height="6.36" rx="2.5"/><rect x="25.13" y="426.7" width="23.02" height="6.36" rx="2.5"/><rect x="25.13" y="463.68" width="23.02" height="6.36" rx="2.5"/><rect x="25.13" y="445.19" width="23.02" height="6.36" rx="2.5"/><rect x="68.19" y="264.47" width="66.45" height="6.36" rx="2.5"/><rect x="84.9" y="281.01" width="66.45" height="6.36" rx="2.5"/><rect x="124.24" y="297.55" width="66.45" height="6.36" rx="2.5"/><rect x="168.05" y="281.01" width="180.94" height="6.36" rx="2.5"/><rect x="207.4" y="296.27" width="180.94" height="6.36" rx="2.5"/><rect x="124.24" y="313.77" width="66.45" height="6.36" rx="2.5"/><rect x="207.4" y="329.99" width="66.45" height="6.36" rx="2.5"/><rect x="289.04" y="329.99" width="152.79" height="6.36" rx="2.5"/><rect x="207.4" y="313.77" width="180.94" height="6.36" rx="2.5"/><rect x="84.9" y="349.47" width="65.89" height="6.36" rx="2.5"/><rect x="167.35" y="349.47" width="179.42" height="6.36" rx="2.5"/><rect x="67.08" y="366.19" width="65.89" height="6.36" rx="2.5"/><rect x="149.53" y="366.19" width="179.42" height="6.36" rx="2.5"/><rect x="84.9" y="386.52" width="65.89" height="6.36" rx="2.5"/><rect x="101.69" y="408.21" width="89" height="6.36" rx="2.5"/><rect x="167.35" y="386.52" width="179.42" height="6.36" rx="2.5"/><rect x="208.76" y="408.21" width="179.42" height="6.36" rx="2.5"/><rect x="136" y="428.29" width="89" height="6.36" rx="2.5"/><rect x="92.32" y="445.19" width="84.64" height="6.36" rx="2.5"/><rect x="194.25" y="445.19" width="188.83" height="6.36" rx="2.5"/><rect x="189.94" y="465.56" width="188.83" height="6.36" rx="2.5"/><rect x="142.16" y="484.42" width="188.83" height="6.36" rx="2.5"/><rect x="142.16" y="505.45" width="188.83" height="6.36" rx="2.5"/><rect x="194.62" y="521.12" width="222.4" height="6.36" rx="2.5"/><rect x="243.06" y="428.29" width="269.67" height="6.36" rx="2.5"/><rect x="151.34" y="264.47" width="190.06" height="6.36" rx="2.5"/></g><path class="cls-6" d="M58.94,39.19c.05,9.67,6.22,18.91,14.9,23.18S93.27,66,101.71,61.3c2.44-1.36,4.89-3.33,5.31-6.09A68.89,68.89,0,0,0,133,97.42a18.66,18.66,0,0,0-1.26,28.1c-13.4,3.75-23.6,16.83-24,30.74a11.21,11.21,0,0,1-.65,4.55,16.29,16.29,0,0,1-2.63,3.26,14.63,14.63,0,0,0-2.84,12,26.24,26.24,0,0,0,5.5,11.33,9.76,9.76,0,0,1,2,3.27c.46,1.74-.18,3.55-.51,5.33-1.22,6.51,2.08,13.4,7.42,17.34s12.36,5.13,18.92,4.2c5.13-.73,10,1.79,15,.31s9.57-4.8,11.57-9.57c1.26-3,1.41-6.36,1.55-9.63.3-7.39.35-15.56-4.43-21.21a24.51,24.51,0,0,0,7.87-17.27A23.21,23.21,0,0,0,194,134.21a18.33,18.33,0,0,0,29.92-10.65c2.79,1.82,6.69.3,8.89-2.21s3.29-5.78,5-8.64c4.18-7,12-11.55,15.13-19.1a18,18,0,0,0-.42-14.53c-1.35-2.79-3.44-5.23-4.43-8.17-.86-2.55-.85-5.29-1.12-8A37.76,37.76,0,0,0,238,42.23a35.54,35.54,0,0,0-13.12-9.6,62,62,0,0,0-12.26-3.3A436.66,436.66,0,0,0,86.46,23.65c-5.34.54-10.78,1.21-15.67,3.45S58.92,33.82,58.94,39.19Z"/><path d="M58.12,41.4A34.11,34.11,0,0,0,71,62.07a34.55,34.55,0,0,0,25.08,6.55c4.77-.64,9.69-2.3,13-6,1-1.2-.7-3-1.76-1.76-5.34,6.06-15.42,6.45-22.75,4.77a31.51,31.51,0,0,1-19.13-13,31.91,31.91,0,0,1-4.87-11.88c-.3-1.57-2.7-.9-2.4.66Z"/><path d="M104.69,52.79c3.78,18.5,11.49,38.93,30.59,46.27v-2.4c-5.19,1.28-8.54,6.19-9.36,11.27-1.07,6.56,1.79,12.89,4.45,18.71l1.08-1.88c-5.79-.17-11.48,2.69-15.67,6.53s-6.72,9.5-7.69,15.17a28.12,28.12,0,0,0-.27,8.39c.14,1.2.45,2.72,0,3.87s-1.94,2.13-2.8,3.15c-3.7,4.37-6,10.38-5.24,16.13s4.45,10.89,10,12.7l-.3-2.27c-1.74,1.33-2.07,3.22-2.41,5.28a23.25,23.25,0,0,0-.37,7c.58,4.29,3.07,7.94,5.67,11.27,2.76,3.53,5.66,6.59,10.25,7.41s9.26-.42,13.71-1.72a1.25,1.25,0,0,0-.66-2.4c-3.68,1.08-7.48,2.21-11.35,1.85-4.14-.38-6.82-2.69-9.33-5.81-2.23-2.78-4.51-5.77-5.49-9.26a15.27,15.27,0,0,1-.3-5.91c.18-1.49.22-4.57,1.54-5.57a1.27,1.27,0,0,0-.3-2.28c-4.58-1.49-7.54-5.94-8.22-10.58-.75-5.17,1.56-11.1,5.19-14.79,1.73-1.75,3.12-3.16,3.12-5.76s-.57-4.84-.35-7.33c.46-5.24,2.06-10.67,5.47-14.77,3.76-4.53,9.85-8,15.84-7.82a1.26,1.26,0,0,0,1.07-1.87c-2.31-5-4.92-10.64-4.26-16.35.5-4.4,3.18-8.86,7.68-10a1.26,1.26,0,0,0,0-2.4c-18.19-7-25.28-27-28.85-44.54-.32-1.56-2.72-.9-2.4.67Z"/><path d="M107.76,158.32a17.17,17.17,0,0,0,5.45,10,1.27,1.27,0,0,0,1.76,0,1.25,1.25,0,0,0,0-1.76,15,15,0,0,1-4.81-8.89,1.24,1.24,0,1,0-2.4.66Z"/><path d="M167.75,200.06a15.88,15.88,0,0,0-4.48-6.42,1.24,1.24,0,0,0-1.75,1.75,15.9,15.9,0,0,1,1.25,1.21l.58.66.15.19c.12.14-.18-.23,0,0s.18.23.26.35a15.17,15.17,0,0,1,.92,1.48q.21.39.39.78c.06.13.13.27.18.4,0-.09-.06-.16,0,0l.11.27a1.27,1.27,0,0,0,1.53.87,1.25,1.25,0,0,0,.86-1.53Z"/><path d="M161.06,197.89a17.87,17.87,0,0,0-3-20.39c-1.12-1.15-2.88.61-1.76,1.76a15.3,15.3,0,0,1,2.62,17.37c-.74,1.42,1.41,2.68,2.15,1.26Z"/><path d="M152,180.09a19.6,19.6,0,0,0,13.83-18.62,1.25,1.25,0,0,0-2.49,0,17,17,0,0,1-12,16.22c-1.53.47-.88,2.87.66,2.4Z"/><path d="M154.84,160.39a55.49,55.49,0,0,0,16.12.38c4.46-.57,9-1.64,12.8-4.16,7.4-4.93,9.32-14,10.24-22.27l-1.87,1.07a17.35,17.35,0,0,0,9.15,3.19,30.59,30.59,0,0,0,10.95-.82c6.18-1.71,11.85-6.4,12.85-13,.23-1.56-2.16-2.24-2.4-.66-.9,6-6,10-11.57,11.39s-13,1.42-17.73-2.23c-.83-.65-1.78.26-1.87,1.07-.83,7.47-2.54,16-9.38,20.36-3.64,2.29-8,3.24-12.22,3.7A52.32,52.32,0,0,1,155.5,158c-1.56-.26-2.24,2.13-.66,2.4Z"/><path d="M223.58,124.91c1.77,1.26,4,.62,5.88,0a13.77,13.77,0,0,0,5.82-3.2A22.14,22.14,0,0,0,239,116a12.25,12.25,0,0,0,1.46-6.88,1.29,1.29,0,0,0-1.25-1.25,1.25,1.25,0,0,0-1.24,1.25,9.76,9.76,0,0,1-1.06,5.5,22.18,22.18,0,0,1-3,4.94,9.87,9.87,0,0,1-4.47,2.73c-1.34.46-3.25,1.38-4.55.45s-2.55,1.23-1.26,2.15Z"/><path d="M244.56,69.12a36.89,36.89,0,0,1,8.17,20,15.13,15.13,0,0,1-3.5,11.09c-2.74,3.17-6,6.21-10.11,7.43a1.24,1.24,0,0,0,.66,2.39c4.45-1.31,8.06-4.46,11.07-7.89a17.52,17.52,0,0,0,4.4-12.29,34.72,34.72,0,0,0-2.86-12.06,40.27,40.27,0,0,0-6.07-10.47c-1-1.24-2.77.53-1.76,1.75Z"/><path d="M186.77,26.44c16-.31,34.47,1.68,46.65,13.22A35.21,35.21,0,0,1,244.05,62a32.82,32.82,0,0,1-12.49,28.5c-1.25,1,0,3.13,1.26,2.15a35.36,35.36,0,0,0,13.81-29.24,39,39,0,0,0-2-10.71c-3.92-11.5-13.19-19.59-24.35-23.9-10.59-4.09-22.24-5-33.5-4.82a1.25,1.25,0,0,0,0,2.49Z"/><path d="M132.25,98.25a15.68,15.68,0,0,0,8.35.25,1.26,1.26,0,0,0,.87-1.53,1.29,1.29,0,0,0-1.54-.87,12.43,12.43,0,0,1-3.52.36,12.62,12.62,0,0,1-3.5-.61,1.25,1.25,0,0,0-1.53.87,1.27,1.27,0,0,0,.87,1.53Z"/><path class="cls-7" d="M91.85,93.43a3,3,0,1,0-5.57,2.48,3.22,3.22,0,0,0-1.6,4.65,4,4,0,0,0,5.07,1.24,1.78,1.78,0,0,1,.76-.27c.48,0,.85.4,1.22.7a3.11,3.11,0,0,0,4.45-.85,4.55,4.55,0,0,0,.41-2.87c-.32-2.35-1.85-4.75-4.19-5.13"/><path class="cls-7" d="M199.88,162.73a5.84,5.84,0,1,0-10.67,4.75c-3.51,1-5,5.84-3.06,8.91s6.43,4,9.69,2.37a3.61,3.61,0,0,1,1.47-.52c.92,0,1.61.77,2.33,1.34a6,6,0,0,0,8.52-1.62,8.78,8.78,0,0,0,.78-5.5c-.6-4.49-3.55-9.1-8-9.82"/><path d="M171.13,69.94c4.75-2,8.63,3.5,10.65,7,2.3,4,3.57,8.69,2.54,13.27-.35,1.56,2.05,2.22,2.4.66,1.24-5.49-.28-11.1-3.16-15.82-2.61-4.27-7.44-9.91-13.1-7.53-1.45.62-.81,3,.67,2.4Z"/><path d="M186.32,83.3a11.63,11.63,0,0,1,10.59.17,11,11,0,0,1,5.67,10.87c-.15,1.59,2.34,1.58,2.49,0a13.42,13.42,0,0,0-6.9-13,14.23,14.23,0,0,0-13.1-.18c-1.43.74-.17,2.88,1.25,2.15Z"/><path d="M166.66,122a16.07,16.07,0,0,1,2.67,4,9.73,9.73,0,0,1,.18,5.3c-.47,3-1.2,6.94-4.36,8.25a1.28,1.28,0,0,0-.87,1.53,1.25,1.25,0,0,0,1.53.87c4.12-1.71,5.45-5.91,6.1-10,.34-2.17.65-4.37-.13-6.49a18.71,18.71,0,0,0-3.36-5.29c-1-1.24-2.76.53-1.76,1.76Z"/></g><rect x="49.46" y="185.9" width="64.31" height="152.61" rx="4.44"/><g class="cls-8"><rect class="cls-9" x="58.18" y="191.35" width="44.69" height="14.58" rx="4.44"/></g><g class="cls-8"><path class="cls-10" d="M59.27,270.92H99.52a4.44,4.44,0,0,1,4.44,4.44v58.7a4.44,4.44,0,0,1-4.44,4.44H59.27a0,0,0,0,1,0,0V270.92A0,0,0,0,1,59.27,270.92Z"/></g><g class="cls-8"><rect class="cls-9" x="59.27" y="210.97" width="44.69" height="14.58" rx="4.44"/></g><circle class="cls-10" cx="64.99" cy="239.97" r="5.72"/><circle class="cls-10" cx="98.84" cy="239.97" r="5.72"/><path d="M114.15,293.42a1.1,1.1,0,0,1-1.11-1.08c-.59-31.06-.45-62.56.41-93.61.1-3.47,0-7-2.23-9.06-1.73-1.57-4.36-1.84-7.12-2-13.35-.75-26.94-.61-40.09-.48l-5.34.05a1.11,1.11,0,0,1,0-2.21L64,185c13.18-.14,26.8-.28,40.23.48,3.06.18,6.23.52,8.49,2.57,2.93,2.67,3.06,7,3,10.76-.86,31-1,62.48-.41,93.51a1.1,1.1,0,0,1-1.08,1.12Z"/><path d="M35.62,339.48a1.11,1.11,0,0,1,0-2.21c21.16-.42,44.18-.71,70.37-.87h0a1.11,1.11,0,0,1,0,2.21c-26.17.16-49.18.45-70.34.87Z"/><path d="M64.27,245.89a6.11,6.11,0,0,1-.38-12.21,1.11,1.11,0,1,1,.11,2.21,3.91,3.91,0,1,0,1.73,7.5,1.11,1.11,0,0,1,.86,2A6,6,0,0,1,64.27,245.89Z"/><path d="M99.34,246.26A7.67,7.67,0,0,1,93.05,243a4.4,4.4,0,0,1-.71-1.47,5.17,5.17,0,0,1-.1-1.79,7.83,7.83,0,0,1,1.55-4.07,5.45,5.45,0,0,1,4.1-2.11A1.09,1.09,0,0,1,99,234.66a1.11,1.11,0,0,1-1.1,1.12,3.25,3.25,0,0,0-2.39,1.28A5.76,5.76,0,0,0,94.44,240a3.18,3.18,0,0,0,0,1,2.75,2.75,0,0,0,.4.78,5.5,5.5,0,0,0,6.08,2,1.11,1.11,0,0,1,.69,2.1A7.24,7.24,0,0,1,99.34,246.26Z"/><path d="M104.9,338.19h0a1.09,1.09,0,0,1-1.09-1.11c.14-16.28.06-32.8-.24-49.13a48.46,48.46,0,0,0-.88-9.95c-.53-2.35-1.33-3.87-2.51-4.8-1.72-1.37-4.25-1.43-6.9-1.35l-22.46.57a1.11,1.11,0,0,1-.06-2.21l22.46-.58c3.08-.07,6,0,8.34,1.83,1.56,1.25,2.64,3.22,3.29,6.05a51,51,0,0,1,.93,10.4c.3,16.34.38,32.89.24,49.19A1.11,1.11,0,0,1,104.9,338.19Z"/><path d="M73.44,207.06H70.71a34.44,34.44,0,0,1-7.69-.63,8.23,8.23,0,0,1-3.15-1.36c-2.79-2.14-2.8-6-2.45-9.46a1.12,1.12,0,0,1,1.22-1,1.09,1.09,0,0,1,1,1.21c-.29,2.87-.33,6,1.6,7.47a5.83,5.83,0,0,0,2.31,1,32.25,32.25,0,0,0,7.19.58c8.38,0,16.88-.09,25.26-.37h0a1.11,1.11,0,0,1,0,2.21C88.56,206.93,81,207.06,73.44,207.06Z"/><path d="M71.33,227.14l-4.57,0c-2.41,0-5.13-.23-6.85-2.21-2.08-2.4-2-5-1.93-8.3q0-1,0-2.16a1.11,1.11,0,0,1,2.22,0c0,.78,0,1.51,0,2.21-.08,3-.13,5.05,1.4,6.8,1.11,1.29,3.27,1.42,5.19,1.44,10.14.11,20.4-.15,30.52-.78a1.11,1.11,0,0,1,.14,2.21C88.78,226.87,80,227.14,71.33,227.14Z"/><rect x="130.84" y="200.11" width="151.52" height="116.64" rx="9.5"/><rect class="cls-11" x="141.63" y="208.41" width="129.93" height="93.74" rx="1.35"/><path d="M172.23,330.53,184,315.93a6.66,6.66,0,0,1,5.2-2.35h34.85a6.69,6.69,0,0,1,5.17,2.31l11.72,14.27c3,3.63,0,8.67-5.13,8.7l-58.34.33C172.32,339.22,169.27,334.19,172.23,330.53Z"/><path d="M228.07,319c-30.31,0-60.29-1.59-85.16-3.17-4.22-.26-8.43-1-10.61-4.27-1.44-2.17-1.49-4.83-1.53-7l-1-53a1.1,1.1,0,0,1,1.08-1.13h0a1.11,1.11,0,0,1,1.11,1.08l1,53c0,1.86.08,4.17,1.16,5.8,1.66,2.5,5.26,3.05,8.91,3.29,36.34,2.31,83.6,4.62,126.82,2a1.11,1.11,0,0,1,.13,2.21C256.27,318.69,242.13,319,228.07,319Z"/><path class="cls-12" d="M206.6,288a29.58,29.58,0,1,1,29.58-29.58A29.61,29.61,0,0,1,206.6,288Zm0-58a28.47,28.47,0,1,0,28.47,28.46A28.5,28.5,0,0,0,206.6,230Z"/><circle class="cls-12" cx="206.6" cy="258.43" r="24.77"/><path class="cls-11" d="M205.18,265.7c-15.53-27.17,8.73-31,6.79-13.59C211.29,256.73,207.81,268,205.18,265.7Z"/><circle class="cls-11" cx="206.6" cy="272.32" r="3.43"/><circle cx="207.76" cy="204.81" r="1.16"/><circle cx="206.6" cy="310.43" r="3.14"/><path d="M111.76,390.7,129.12,359c3.26-3.2,8.6-5.1,14.3-5.1l125.85-2.18c5.64,0,10.93,1.87,14.21,5l17.15,33.16c7.54,11.92,0,18.81-14.09,18.88l-160.37.72C112,409.56,106,402.23,111.76,390.7Z"/><path class="cls-13" d="M120.7,403.32a5.39,5.39,0,0,1-4.07-1.87,5.87,5.87,0,0,1-1.42-4.61,1.6,1.6,0,0,1,.05-.21l1.09-3.27a1.11,1.11,0,0,1,2.1.7l-1.06,3.16a3.7,3.7,0,0,0,.9,2.77,3.17,3.17,0,0,0,2.41,1.11c32.23,0,55.09-.3,79.28-.62,24.56-.33,50-.67,86.27-.67,1.53,0,6.68-.21,8.52-2.85.8-1.14.85-2.68.15-4.59a1.1,1.1,0,1,1,2.07-.76c1,2.62.83,4.85-.4,6.62-2.39,3.42-8,3.79-10.34,3.79-36.3,0-61.69.34-86.24.67C175.81,403,153,403.32,120.7,403.32Z"/><path class="cls-14" d="M148.31,357.86c0-.16,0-.33,0-.49l-3.16,0c0,.1,0,.21,0,.31-.06.4-.13.8-.19,1.2s-.14.53-.16.79l3.76.05A11.12,11.12,0,0,1,148.31,357.86Z"/><path class="cls-14" d="M268.48,396.12c-.38-1.12-.73-2.24-1.08-3.36a.67.67,0,0,1,0-.24c-1.72.07-3.43.15-5.14.25a1.17,1.17,0,0,1,.15.27c.39,1.07.58,2.2.88,3.29.1.36.22.7.33,1.05,1.69,0,3.46-.09,5.27-.16Z"/><path class="cls-14" d="M153.42,359.58c0-.26,0-.52,0-.78s0-.51,0-.77,0-.28,0-.41v-.21a.64.64,0,0,0,0-.07v0l-3.6.05v.44c0,.34,0,.69,0,1,0,.09,0,.18,0,.28a1,1,0,0,1,0,.12c0,.15,0,.31.09.47s0,.05,0,.08l3.52,0Z"/><path class="cls-14" d="M158.4,359.67c0-.13,0-.25-.06-.38s0-.09,0,0,0-.07,0-.1a3.72,3.72,0,0,1-.08-.66,4.7,4.7,0,0,0,0-.53c0-.25,0-.49,0-.74l-3.34,0c0,.24,0,.49,0,.74a8.62,8.62,0,0,1,0,.88v.44c0,.06,0,.12,0,.18v0a.65.65,0,0,1,0,.24h3.46Z"/><path class="cls-14" d="M172.08,359.81c0-.26-.1-.53-.15-.8a2.56,2.56,0,0,1,0-.39c0-.09,0-.11,0,0l0-.16a3.09,3.09,0,0,1-.08-.61v-.71l-3,0a2.85,2.85,0,0,1,0,.29c0,.34.05.69.08,1,0,.18,0,.35,0,.53a1.93,1.93,0,0,1,0,.24v0a2,2,0,0,1,0,.24v.33Z"/><path class="cls-14" d="M177.58,359c0-.64-.1-1.27-.17-1.91l-4.11,0v.72c0,.1,0,.12,0,.06,0,.22.1.44.12.67a5.64,5.64,0,0,0,.1.62c0,.21.07.43.1.64h4C177.6,359.51,177.6,359.24,177.58,359Z"/><path class="cls-14" d="M193.06,358.28c0-.45-.09-.9-.15-1.35-1.37,0-2.75,0-4.12,0,0,.76,0,1.51,0,2.27l0,.5,4.26,0C193.12,359.23,193.1,358.75,193.06,358.28Z"/><path class="cls-14" d="M203.3,359c0-.54-.05-1.08-.08-1.61,0-.19,0-.37-.05-.55l-4,0c0,.29,0,.57,0,.86,0,.61,0,1.22,0,1.83v.09l4.19,0C203.31,359.44,203.31,359.23,203.3,359Z"/><path class="cls-14" d="M208.13,358.61c0-.55,0-1.12,0-1.67,0,0,0-.07,0-.1l-3.58,0c0,.18.06.37.08.56.05.53.08,1.07.11,1.61,0,.2,0,.4,0,.61l3.47,0C208.18,359.28,208.16,358.94,208.13,358.61Z"/><path class="cls-14" d="M213,359.26c0-.39.08-.78.1-1.18s0-.85,0-1.27l-3.48,0v0c0,.56,0,1.12,0,1.68,0,.35,0,.7.08,1.05l3.23,0C213,359.47,213,359.37,213,359.26Z"/><path class="cls-14" d="M218.55,358.22c0-.45.06-.86.08-1.27v-.18l-4,0c0,.43,0,.86,0,1.28s-.06.82-.1,1.22a2.44,2.44,0,0,0,0,.27l4.08,0C218.55,359.1,218.53,358.66,218.55,358.22Z"/><path class="cls-14" d="M228.18,359.39s0-.13,0-.16c0-.44-.2-.88-.21-1.33,0-.19,0-.38,0-.57s0-.3-.06-.6h-3.26c0,.05,0,.09,0,.14a11.91,11.91,0,0,0,.32,1.88c.05.25.09.49.14.74l3.12,0S228.19,359.42,228.18,359.39Z"/><path class="cls-14" d="M233.19,358.44c0-.41,0-.82-.05-1.24,0,0,0-.25,0-.14l-.06-.35H229.4a.15.15,0,0,0,0,.06l0,.2,0,.35c0,.17,0,.39,0,.52,0,.38.18.86.22,1.28a.91.91,0,0,0,0,.17l0,.17,3.46,0A8.51,8.51,0,0,0,233.19,358.44Z"/><path class="cls-14" d="M238.66,358.84c0-.61,0-1.21,0-1.82l0-.34-4,0,0,.24c.05.44,0,.88.07,1.32a11.64,11.64,0,0,1,0,1.18l3.94,0Z"/><path class="cls-14" d="M243.8,356.66h-3.7c.05.5.07,1,.08,1.5v1.25l4.11,0A14.05,14.05,0,0,0,243.8,356.66Z"/><path class="cls-14" d="M249,359.06c-.11-.81-.19-1.62-.29-2.43l-3.33,0a16.79,16.79,0,0,1,.42,2.74h3.25C249.05,359.27,249,359.16,249,359.06Z"/><path class="cls-14" d="M262.85,358c0-.47,0-.95-.05-1.42h-3.28c0,.07,0,.14,0,.2.12.56.28,1.11.39,1.67a9.05,9.05,0,0,1,.12.91h2.85C262.89,358.9,262.85,358.44,262.85,358Z"/><path class="cls-14" d="M271.14,357.64c-.07-.37-.14-.73-.2-1.09h-3c.1.48.19.95.26,1.44s.09.89.13,1.34c1,0,2.07,0,3.1-.06C271.36,358.74,271.24,358.19,271.14,357.64Z"/><path class="cls-14" d="M276.34,356.91a16.24,16.24,0,0,0-3.88-.36c.11.64.23,1.28.38,1.91.06.25.1.52.15.78,1.85-.07,3.68-.18,5.5-.35C278.83,358.08,277.73,357.26,276.34,356.91Z"/><path class="cls-14" d="M258.49,358.92c-.08-.49-.22-1-.33-1.45-.06-.25-.1-.5-.17-.74a.74.74,0,0,1,0-.14l-3.11,0a15.78,15.78,0,0,0,.11,2.75h3.59A3.12,3.12,0,0,0,258.49,358.92Z"/><path class="cls-14" d="M223.3,358.23a9.26,9.26,0,0,1-.14-1.48h-3c0,.46-.06.91-.08,1.35a13.42,13.42,0,0,0,0,1.42l3.48,0C223.49,359.08,223.38,358.66,223.3,358.23Z"/><path class="cls-14" d="M187.31,359.23c0-.75,0-1.5,0-2.26l-3.78,0c0,.18,0,.36,0,.54v.6a2.43,2.43,0,0,0,0,.27c0-.13,0,.13,0,.16.09.4.16.79.22,1.19l3.59,0Z"/><path class="cls-14" d="M182,358.81a5.73,5.73,0,0,1-.06-1.31V357l-3,0c.07.63.14,1.26.17,1.89,0,.29,0,.58,0,.86h3.08Q182.14,359.29,182,358.81Z"/><path class="cls-14" d="M162.93,358.67V358s0,0,0-.05a1.13,1.13,0,0,1,0-.25c0-.07,0-.18,0-.23,0,.11,0,.13,0,0l0-.26h0l-3.12,0c0,.27,0,.53,0,.8s0,.35,0,.52v.12c0,.08,0,.16,0,.24a2.45,2.45,0,0,1,0,.38c0-.17,0,.12,0,.15s0,.25.06.38H163A5.52,5.52,0,0,1,162.93,358.67Z"/><path class="cls-14" d="M143.49,358.72c.08-.42.13-.86.19-1.29l-2.84,0-.53,1c-.19.38-.38.74-.58,1.11,1.1,0,2.31.06,3.62.09A8.72,8.72,0,0,1,143.49,358.72Z"/><path class="cls-14" d="M137.14,357.42c-1.63-.06-3.86,1-3.86,1.79a28.88,28.88,0,0,0,2.95.26C136.52,358.78,136.84,358.11,137.14,357.42Z"/><path class="cls-14" d="M135.75,366.49c.26-1.05.48-2.12.7-3.18l-3,.07c-1.7-.75-4.77,1.25-4.77,2.84a44.06,44.06,0,0,0,7,.65C135.69,366.75,135.72,366.62,135.75,366.49Z"/><path class="cls-14" d="M149.54,366.58c.13-1.19.18-2.39.28-3.59l-4.44.1a.32.32,0,0,1,0,.09,11.69,11.69,0,0,0-.76,3.94l4.87.06C149.48,367,149.51,366.78,149.54,366.58Z"/><path class="cls-14" d="M156.22,366.78V363a.3.3,0,0,1,0-.1l-4.9.1c-.1,1.2-.14,2.42-.28,3.62,0,.2-.05.41-.08.61,1.68,0,3.44,0,5.25,0C156.22,367.07,156.22,366.93,156.22,366.78Z"/><path class="cls-14" d="M162.93,366.45c0-1.17-.16-2.33-.16-3.49a.78.78,0,0,1,0-.22l-5.1.09a.5.5,0,0,1,0,.13v4.26h5.19Z"/><path class="cls-14" d="M169.64,366.43c-.16-1.1-.36-2.2-.49-3.31a.63.63,0,0,1,.18-.48l-5.09.08a.93.93,0,0,1,0,.24c0,1.08.16,2.14.16,3.22V367a2.09,2.09,0,0,0,0,.25l5.27,0C169.7,366.94,169.68,366.68,169.64,366.43Z"/><path class="cls-14" d="M176.1,367.13c-.3-1.25-.29-2.54-.53-3.8a.82.82,0,0,1,.24-.78l-5.34.08a.9.9,0,0,1,.2.49c.13,1.14.36,2.27.52,3.41,0,.22,0,.44.07.67l4.85,0Z"/><path class="cls-14" d="M188.66,367.07c-.06-1.36-.13-2.72-.32-4.07a1,1,0,0,1,.1-.61l-5.25.06a.46.46,0,0,1,.07.14c.14,1.07.22,2.15.34,3.22a9.4,9.4,0,0,1,0,1.3Z"/><path class="cls-14" d="M194.91,366.12c-.06-.59-.13-1.17-.2-1.75a8.55,8.55,0,0,0-.15-1.54.7.7,0,0,1,0-.5l-4.88,0a.88.88,0,0,1,.1.22c.2,1.49.29,3,.36,4.47l4.88-.05A8.68,8.68,0,0,1,194.91,366.12Z"/><path class="cls-14" d="M212.82,365.94a12.06,12.06,0,0,0-.25-3.6,1.11,1.11,0,0,1,0-.17l-3.76,0a8,8,0,0,0,.15,1.69c.07.61.13,1.22.19,1.83,0,.38.09.76.14,1.15l3.62,0A8.89,8.89,0,0,1,212.82,365.94Z"/><path class="cls-14" d="M218.82,362.49a.86.86,0,0,1,.13-.38l-4.86,0a13.35,13.35,0,0,1,.25,3.51,8.64,8.64,0,0,0,.09,1.15l4.31,0C218.76,365.34,218.73,363.91,218.82,362.49Z"/><path class="cls-14" d="M230.27,366.08l-.21-1.21c-.16-.82-.33-1.63-.47-2.46a1,1,0,0,1,0-.38l-3.43,0c.07.69.09,1.39.16,2.08,0,.51.13,1,.17,1.52,0,.34.05.69.08,1l3.74,0Z"/><path class="cls-14" d="M235.15,366.4q0-.7-.12-1.41a7.37,7.37,0,0,0-.22-1.33,4,4,0,0,0-.54-1.21.69.69,0,0,1-.08-.45l-3.13,0c.15.84.32,1.67.47,2.5.08.42.16.83.22,1.25s.1.57.13.87l3.29,0C235.16,366.54,235.16,366.47,235.15,366.4Z"/><path class="cls-14" d="M240.18,365.84c-.05-.42-.15-.88-.22-1.32-.12-.85-.21-1.7-.29-2.55l-3.92,0a7.18,7.18,0,0,1,.77,2.69c.06.48.09,1,.14,1.45a3.2,3.2,0,0,0,.06.46l3.59,0A3.77,3.77,0,0,1,240.18,365.84Z"/><path class="cls-14" d="M246.16,364.92a23.76,23.76,0,0,0-.94-2.93s0,0,0-.06l-4,0c.08.75.15,1.51.27,2.26.07.49.2,1,.24,1.48a1.89,1.89,0,0,0,.1.47,2.07,2.07,0,0,1,.09.38l4.59,0A15,15,0,0,0,246.16,364.92Z"/><path class="cls-14" d="M252.57,366.46l0-.25c0-.27-.06-.54-.1-.81-.06-.5-.23-1-.33-1.45a5.94,5.94,0,0,0-.39-1.36.79.79,0,0,1,0-.7c-1.63,0-3.26,0-4.89,0a25.55,25.55,0,0,1,.84,2.7,11.05,11.05,0,0,1,.32,1.6c0,.1,0,.19,0,.29l4.57,0Z"/><path class="cls-14" d="M258.25,365.88c-.07-.57-.06-1.17-.18-1.74a14.5,14.5,0,0,0-.57-1.45.73.73,0,0,1,.33-.83l-4.78,0a7.17,7.17,0,0,1,.54,1.7c.06.29.15.56.22.84a8.17,8.17,0,0,1,.16,1c0,.35.1.72.12,1.07h4.24C258.3,366.27,258.28,366.08,258.25,365.88Z"/><path class="cls-14" d="M265.17,366.32c-.11-.3-.21-.61-.32-.91a12.64,12.64,0,0,0-1.41-3.24.53.53,0,0,1-.1-.35l-4.71,0a.89.89,0,0,1,.34.44c.15.44.38.84.53,1.32a7.89,7.89,0,0,1,.21,1.61c0,.41.07.83.14,1.24h5.39A.54.54,0,0,1,265.17,366.32Z"/><path class="cls-14" d="M280,362.37a9,9,0,0,0-2.84-.55c.07.15.14.31.2.47s0,.1,0,0,.05.11.08.16a2.67,2.67,0,0,1,.22.45c.21.52.42,1,.62,1.55s.34.78.54,1.24c0,.11.09.22.14.33,1.1-.1,2.2-.22,3.29-.39C282.65,364.33,281.49,363,280,362.37Z"/><path class="cls-14" d="M276.89,365c-.2-.51-.37-1.05-.62-1.54a12.11,12.11,0,0,0-.56-1.14.7.7,0,0,1-.08-.53H271.3a17.1,17.1,0,0,0,.82,2.41c.19.46.4.92.55,1.39a3.59,3.59,0,0,0,.4.81c1.45,0,2.9-.1,4.34-.2C277.23,365.8,277.06,365.4,276.89,365Z"/><path class="cls-14" d="M270.93,365.3l-.48-1.19a14.48,14.48,0,0,1-.67-2.12.61.61,0,0,1,0-.19l-4.77,0a15.36,15.36,0,0,1,1.18,2.8c.19.5.37,1,.58,1.49.05.11.07.23.11.34,1.5,0,3,0,4.49,0C271.21,366.06,271.08,365.68,270.93,365.3Z"/><path class="cls-14" d="M225.08,366.7c0-.53-.06-1.08-.14-1.6-.14-1-.14-2-.27-3l-4.44,0a.69.69,0,0,1,.12.39c-.1,1.42-.07,2.84-.09,4.26Z"/><path class="cls-14" d="M207.6,365.59a23.85,23.85,0,0,1-.3-3.38l-6.39.06a.94.94,0,0,1,.22.53,19.54,19.54,0,0,0,.4,2.39c.08.37.18.74.29,1.11.06.22.13.43.19.64l5.74-.06C207.7,366.45,207.64,366,207.6,365.59Z"/><path class="cls-14" d="M200.23,366.3a23.11,23.11,0,0,1-.62-3.5.65.65,0,0,1,.21-.52l-3.86,0a1.27,1.27,0,0,1,.07.12,5.49,5.49,0,0,1,.19,1.51c0,.51.11,1,.15,1.53a13.85,13.85,0,0,0,.2,1.44s0,.06,0,.09l3.83,0C200.36,366.74,200.29,366.52,200.23,366.3Z"/><path class="cls-14" d="M182.07,366.56a6.67,6.67,0,0,0-.06-1.18c-.09-.79-.11-1.59-.22-2.38a1,1,0,0,1,.06-.53l-5.09.07a.62.62,0,0,1,.27.38c.26,1.35.27,2.7.59,4,0,.07,0,.15,0,.23l4.39,0C182.07,366.94,182.07,366.75,182.07,366.56Z"/><path class="cls-14" d="M143.14,366.25a12.79,12.79,0,0,1,.62-3.12c-1.92,0-3.84.08-5.75.14-.25,1.22-.5,2.45-.8,3.67,1.73.06,3.7.11,5.84.15C143.08,366.81,143.12,366.53,143.14,366.25Z"/><path class="cls-14" d="M129.18,374c.08-.47.21-.92.3-1.38s.15-.84.22-1.26l-1.44.05c-1.3-.75-3.65,1.24-3.65,2.83a20.85,20.85,0,0,0,4.42.6Z"/><path class="cls-14" d="M134.44,373.9a17.26,17.26,0,0,0,.46-2.68l-3.71.12a.92.92,0,0,1,0,.33q-.1.69-.24,1.38c-.1.48-.23.95-.31,1.43,0,.15-.07.32-.1.48q1.62.09,3.57.15C134.23,374.71,134.34,374.31,134.44,373.9Z"/><path class="cls-14" d="M142.94,374.3c.08-1.11,0-2.22.18-3.32l-6.69.19a19.14,19.14,0,0,1-.49,3c-.08.32-.17.63-.26.95,2.16.05,4.59.09,7.21.11C142.9,374.94,142.92,374.62,142.94,374.3Z"/><path class="cls-14" d="M149.57,373.28a11.13,11.13,0,0,0-.14-2.45c-1.62,0-3.24.06-4.86.11a1,1,0,0,1,0,.39c-.16,1-.06,2.06-.14,3.09,0,.28,0,.56,0,.85h5.17C149.56,374.61,149.57,374,149.57,373.28Z"/><path class="cls-14" d="M156.58,373.61c-.11-1-.19-1.95-.26-2.93l-5.33.11a4.68,4.68,0,0,1,.1.9v1.48c0,.7,0,1.41,0,2.11l5.74,0C156.75,374.71,156.65,374.16,156.58,373.61Z"/><path class="cls-14" d="M170.12,373.63a26.27,26.27,0,0,0-.38-3.18l-5.18.08c.14.71.26,1.43.33,2.15,0,.48,0,1,.1,1.42a8.89,8.89,0,0,1,.07.89v.2l5.06-.06Q170.14,374.38,170.12,373.63Z"/><path class="cls-14" d="M176.87,375.05c-.06-.38-.13-.77-.18-1.15a27.42,27.42,0,0,0-.63-3.25.74.74,0,0,1,0-.29l-4.78.06a26.46,26.46,0,0,1,.36,2.8c0,.53,0,1.07,0,1.61v.28Z"/><path class="cls-14" d="M183.36,374.16a10.38,10.38,0,0,0-.3-1.84c-.18-.65-.42-1.29-.56-1.95v-.09l-4.95.05a28.38,28.38,0,0,1,.6,3.16c.08.52.16,1,.27,1.54l5-.07C183.39,374.69,183.38,374.43,183.36,374.16Z"/><path class="cls-14" d="M189.13,373.23a14,14,0,0,1-.26-3l-4.82.05c.14.56.32,1.1.48,1.65a12.52,12.52,0,0,1,.33,2.11c0,.31,0,.61.06.92l4.37-.06A15.6,15.6,0,0,0,189.13,373.23Z"/><path class="cls-14" d="M201.63,373.3a19.49,19.49,0,0,0-.59-3.21l-4.1,0c.19,1,.32,2.06.48,3.09.08.52.18,1,.29,1.55l4-.06Z"/><path class="cls-14" d="M208.72,373.36c-.22-1.1-.42-2.2-.58-3.3a0,0,0,0,1,0,0l-5.52,0a21.55,21.55,0,0,1,.51,3.1c.06.5.08,1,.13,1.52l5.73-.07Z"/><path class="cls-14" d="M214,373.65c-.19-1.14-.34-2.3-.56-3.44a.79.79,0,0,1,0-.22l-3.75,0c.15,1,.33,2,.53,2.94.11.53.23,1.07.34,1.61v0l3.59,0Z"/><path class="cls-14" d="M227.09,374.41c-.08-.32-.19-.64-.28-1l-.24-.95a8.78,8.78,0,0,1-.29-1.09,12.94,12.94,0,0,0-.22-1.52l-4.83,0c.19.89.41,1.78.62,2.67.12.52.21,1,.34,1.56,0,.11.06.24.09.36h4.83S227.1,374.44,227.09,374.41Z"/><path class="cls-14" d="M240.43,370.43a7.57,7.57,0,0,0-3.65-.6l-8.44,0h-.73a9.65,9.65,0,0,1,.18,1.2,12.5,12.5,0,0,0,.44,1.78c.14.55.3,1.09.4,1.65h1.25a62.39,62.39,0,0,0,12.29-.78A3.23,3.23,0,0,0,240.43,370.43Z"/><path class="cls-14" d="M220.38,373c-.24-1-.49-2-.7-3.07l-4.76,0c.2,1.09.35,2.18.53,3.27,0,.26.08.52.13.77s.06.3.08.45a.28.28,0,0,1,0,.09l5,0C220.59,374,220.5,373.51,220.38,373Z"/><path class="cls-14" d="M196,373.62c-.18-1.16-.32-2.33-.54-3.48l-5,.05a4.68,4.68,0,0,0,0,1.24l.27,1.94c.06.5.11,1,.13,1.49l5.36-.07C196.09,374.4,196,374,196,373.62Z"/><path class="cls-14" d="M163.5,374.4c-.12-.77-.1-1.55-.2-2.32-.07-.51-.17-1-.28-1.52l-5.18.09c.07,1,.15,2,.27,3,.06.55.16,1.09.24,1.63l5.18,0A6.53,6.53,0,0,0,163.5,374.4Z"/><path class="cls-14" d="M134.75,379.17l-4.92.16c-.11,1.26-.24,2.53-.41,3.78,1.53.07,3.26.11,5.14.15C134.57,381.89,134.61,380.53,134.75,379.17Z"/><path class="cls-14" d="M141.88,382.55c.08-.47.16-.94.22-1.41s.05-.87.11-1.3a5.86,5.86,0,0,1,.21-.9l-6.36.18c-.13,1.39-.16,2.77-.16,4.16,1.82,0,3.79,0,5.87.05C141.8,383.07,141.83,382.81,141.88,382.55Z"/><path class="cls-14" d="M157.14,382.86a36.94,36.94,0,0,1-.27-4.08.53.53,0,0,1,0-.17c-1.94,0-3.89.07-5.83.12a1.06,1.06,0,0,1,0,.24,18.4,18.4,0,0,0-.52,3.31c0,.35-.09.69-.13,1l6.76-.06Z"/><path class="cls-14" d="M164.46,381.87c0-1,0-1.93-.12-2.9a.56.56,0,0,1,.24-.49l-6.28.1a.71.71,0,0,1,0,.2,37,37,0,0,0,.29,4.08c0,.13,0,.26,0,.39l5.85-.07C164.48,382.74,164.47,382.31,164.46,381.87Z"/><path class="cls-14" d="M178.15,381c0-.85.23-1.95-.2-2.71l-5.18.06s0,0,0,.06a19.5,19.5,0,0,0,.09,4.18c0,.16,0,.32,0,.48l5.48-.09A14.86,14.86,0,0,1,178.15,381Z"/><path class="cls-14" d="M184.31,381.48a32.46,32.46,0,0,1-.5-3.26l-4.4,0a9.14,9.14,0,0,1,.14,2.55,14,14,0,0,0,.25,2.14l4.8-.07C184.5,382.42,184.41,382,184.31,381.48Z"/><path class="cls-14" d="M190.23,381.36c-.18-1-.17-2-.36-2.94a1.07,1.07,0,0,1,0-.25l-4.6,0h0a29,29,0,0,0,.51,3c.11.53.23,1.07.34,1.6l4.43-.06C190.41,382.33,190.32,381.84,190.23,381.36Z"/><path class="cls-14" d="M202.84,382c-.21-1.14-.45-2.27-.64-3.41a.89.89,0,0,1,.07-.56l-4.17,0,.45,2.26c.1.48.2,1,.28,1.45.06.29.11.59.15.89l4,0C202.91,382.44,202.88,382.23,202.84,382Z"/><path class="cls-14" d="M209.58,381.53c-.17-1-.36-1.95-.56-2.92a.85.85,0,0,1,.11-.61l-5.54,0a.6.6,0,0,1,.08.16c.19,1.17.43,2.32.65,3.48.05.32.11.63.17.95l5.25,0C209.69,382.24,209.64,381.88,209.58,381.53Z"/><path class="cls-14" d="M215.91,381.06a2.07,2.07,0,0,0,0-.22s.06,0,0,0a2.44,2.44,0,0,0-.1-.24,1.83,1.83,0,0,1-.08-.25c-.09-.27-.16-.54-.23-.82a13.56,13.56,0,0,1-.33-1.57l-4.78,0a.51.51,0,0,1,.1.21c.2,1,.4,2,.57,3l.21,1.4h5C216.11,382.07,216,381.57,215.91,381.06Z"/><path class="cls-14" d="M222.66,381.06a1.43,1.43,0,0,1,0-.22s.06,0,0,0a2.44,2.44,0,0,0-.1-.24l-.09-.25c-.08-.27-.16-.54-.22-.82a13.56,13.56,0,0,1-.33-1.57l-4.78,0a.68.68,0,0,1,.1.21c.2,1,.4,2,.56,3,.08.46.15.93.21,1.4h5C222.86,382.07,222.74,381.57,222.66,381.06Z"/><path class="cls-14" d="M230.27,381.19a20,20,0,0,0-.6-3.27l-4.59,0h-.82a12.69,12.69,0,0,0,.36,1.61c0,.2.12.39.18.58s0,.15.06.16c.08.28.09.6.15.89.09.46.21.93.33,1.39h1.16c1.38,0,2.77,0,4.15,0A9.49,9.49,0,0,1,230.27,381.19Z"/><path class="cls-14" d="M236.22,378.49a6.6,6.6,0,0,0-3.37-.59h-1.6c.26,1,.32,1.95.5,2.93a7.73,7.73,0,0,0,.44,1.49,1,1,0,0,0,.07.15,34.89,34.89,0,0,0,5.56-.68A3.32,3.32,0,0,0,236.22,378.49Z"/><path class="cls-14" d="M197.39,382.2c-.11-.48-.2-1-.3-1.45-.17-.88-.35-1.77-.52-2.65l-5.21,0c.16.92.17,1.85.33,2.75.11.64.27,1.26.42,1.88l5.4-.07Z"/><path class="cls-14" d="M171.35,382.59a19.5,19.5,0,0,1-.09-4.18s0,0,0,0l-5.87.09a.76.76,0,0,1,.27.51c.09.95.09,1.9.12,2.85,0,.45,0,.9.07,1.34l5.53-.07C171.38,382.92,171.36,382.75,171.35,382.59Z"/><path class="cls-14" d="M149.21,382a21.78,21.78,0,0,1,.5-3.22c-2,.05-4,.08-6,.14a3.93,3.93,0,0,0-.27,1.31,22,22,0,0,1-.26,2.43c0,.23,0,.46-.07.7H149C149.09,382.87,149.14,382.42,149.21,382Z"/><path class="cls-14" d="M128.41,379.38l-3.06.11c-1.2-.74-3.36,1.25-3.36,2.84a26.88,26.88,0,0,0,6,.72C128.17,381.83,128.3,380.61,128.41,379.38Z"/><path class="cls-14" d="M239.22,377.58l.46,3.1a3.69,3.69,0,0,1-.14,2.26,3.11,3.11,0,0,1-2.37,1.35,10.67,10.67,0,0,0-2.77.5,1,1,0,0,0-.5.39,1.26,1.26,0,0,0-.1.38,8.72,8.72,0,0,0,.76,4.83l6.3-.33a13.39,13.39,0,0,0,3,0c1.38-.66,1.66-2.48,1.68-4s-1.35-3.52-1.46-5.14a3.76,3.76,0,0,0-1.13-2.92,2.87,2.87,0,0,0-1.29-.46A7.55,7.55,0,0,0,239.22,377.58Z"/><path class="cls-14" d="M125.86,389.68c.1-.74.26-1.46.39-2.18,0-.16.07-.32.1-.48l-3.45.11c-1.26-.74-3.53,1.25-3.53,2.84a30,30,0,0,0,6.45.72A5.65,5.65,0,0,1,125.86,389.68Z"/><path class="cls-14" d="M139.89,390.17a23.46,23.46,0,0,0,.35-3.55v0l-5.88.17-.31,3.39-.06.77c1.8,0,3.74,0,5.78.05Z"/><path class="cls-14" d="M147.1,390.17a21.23,21.23,0,0,0,0-3.74l-5.34.12s0,0,0,.07a24.6,24.6,0,0,1-.38,3.82l-.09.54h5.77C147.07,390.7,147.08,390.43,147.1,390.17Z"/><path class="cls-14" d="M148.59,391l4.86,0a31,31,0,0,1-.06-4.31.8.8,0,0,1,.09-.32l-4.87.1a24.61,24.61,0,0,1,0,3.84Q148.59,390.6,148.59,391Z"/><path class="cls-14" d="M178.79,389.4c0-1.11-.12-2.22-.19-3.33a.27.27,0,0,1,0-.13c-1.8,0-3.61,0-5.41.06a1,1,0,0,1,.2.48c.13,1.26.14,2.52.28,3.77,0,.15,0,.3,0,.44l5.1-.07C178.82,390.22,178.81,389.81,178.79,389.4Z"/><path class="cls-14" d="M185.3,389.15c-.12-1.09-.25-2.19-.38-3.28l-4.84.05a.42.42,0,0,1,0,.15c.07,1.11.14,2.22.19,3.33,0,.4,0,.8.05,1.2l5.07-.07C185.39,390.07,185.35,389.61,185.3,389.15Z"/><path class="cls-14" d="M190.46,390.39c0-.56-.08-1.1-.13-1.66s-.09-1.09-.17-1.63a7.81,7.81,0,0,0-.24-1.28l-3.48,0c.13,1.1.27,2.2.38,3.3.05.45.09.9.13,1.36l3.52-.05A.17.17,0,0,0,190.46,390.39Z"/><path class="cls-14" d="M195.05,389.61a20.5,20.5,0,0,0-.42-3.74s0-.06,0-.09l-3.12,0c.07.36.1.73.16,1.1.08.57.13,1.14.18,1.71s.09,1.14.11,1.72v.11l3.07,0C195,390.14,195.05,389.88,195.05,389.61Z"/><path class="cls-14" d="M199.54,389.51c-.08-1.26-.28-2.51-.3-3.77l-3.09,0a23.2,23.2,0,0,1,.4,4.62l3,0Z"/><path class="cls-14" d="M204.57,388a7.75,7.75,0,0,1-.17-2.25l-3.64,0c0,1.27.22,2.52.31,3.79,0,.27,0,.54.05.81l3.87,0C204.89,389.5,204.74,388.72,204.57,388Z"/><path class="cls-14" d="M209.44,389c0-.6,0-1.21,0-1.82a8.5,8.5,0,0,0,0-1.51l-3.87,0c0,.27.05.54.08.81a17,17,0,0,0,.46,2.09c.12.55.21,1.12.31,1.68l3.08,0C209.46,389.82,209.44,389.4,209.44,389Z"/><path class="cls-14" d="M214.81,389.3a20.74,20.74,0,0,0-.32-3.69l-3.64,0a8.84,8.84,0,0,1,.05,1v1.95c0,.54,0,1.07.09,1.6l3.83,0C214.82,389.91,214.82,389.61,214.81,389.3Z"/><path class="cls-14" d="M231.39,386.12a7.11,7.11,0,0,0-3.53-.59h0a17.21,17.21,0,0,1,.43,2.85c0,.55.05,1.11.06,1.66a37.53,37.53,0,0,0,4.73-.61A3.27,3.27,0,0,0,231.39,386.12Z"/><path class="cls-14" d="M226.77,388.5a14.89,14.89,0,0,0-.5-3l-3.68,0c.08.43.18.86.23,1.31.08.75.1,1.5.14,2.25a10,10,0,0,0,.08,1.09c1.27,0,2.53,0,3.79-.09Q226.82,389.31,226.77,388.5Z"/><path class="cls-14" d="M221.42,388.81a14.35,14.35,0,0,0-.15-2.08c-.07-.39-.15-.78-.21-1.17h-1.37l-3.65,0a24.75,24.75,0,0,1,.29,3.55c0,.35,0,.71,0,1.06h5.19C221.48,389.74,221.45,389.28,221.42,388.81Z"/><path class="cls-14" d="M172.17,390.25c-.14-1.25-.15-2.51-.29-3.77a.6.6,0,0,1,.18-.47l-4.85.06c.24,1.45.4,2.92.53,4.38,0,.11,0,.22,0,.32l4.46-.06C172.2,390.56,172.18,390.41,172.17,390.25Z"/><path class="cls-14" d="M165.76,386.41a.81.81,0,0,1,0-.31l-4.42.06s0,0,0,0c-.1,1.23-.13,2.46-.14,3.69,0,.32,0,.63,0,1l5.05-.06C166.16,389.33,166,387.86,165.76,386.41Z"/><path class="cls-14" d="M159.7,390c0-1.25,0-2.51.13-3.76v0l-5,.09a.61.61,0,0,1,.06.34,30.86,30.86,0,0,0,.06,4.3l4.71-.05C159.68,390.56,159.69,390.26,159.7,390Z"/><path class="cls-14" d="M132.53,390.15c.1-1.12.2-2.23.31-3.34l-5.06.16c-.08.32-.15.64-.22,1a19.4,19.4,0,0,0-.43,2,7.22,7.22,0,0,0,0,.81c1.59.06,3.4.11,5.37.15Z"/><path class="cls-14" d="M124.37,397.11c.09-.73.24-1.45.36-2.18l.09-.48-3.14.12c-1.15-.75-3.22,1.25-3.22,2.84a25.53,25.53,0,0,0,5.88.72A7,7,0,0,1,124.37,397.11Z"/><path class="cls-14" d="M139.08,397.61a21.26,21.26,0,0,0,.36-3.55s0,0,0,0c-2.07.05-4.13.1-6.2.17l-.32,3.39c0,.25-.05.51-.07.77,1.9,0,3.94,0,6.09.05C139,398.14,139,397.88,139.08,397.61Z"/><path class="cls-14" d="M146.67,397.6a21.12,21.12,0,0,0,0-3.73L141,394s0,0,0,.07a23.45,23.45,0,0,1-.39,3.82c0,.18-.07.35-.1.53h6.08C146.64,398.14,146.65,397.87,146.67,397.6Z"/><path class="cls-14" d="M148.23,398.4l5.13,0a28.2,28.2,0,0,1-.07-4.31.8.8,0,0,1,.09-.32l-5.12.1a23.45,23.45,0,0,1,0,3.84C148.25,397.92,148.24,398.16,148.23,398.4Z"/><path class="cls-14" d="M180,396.84c-.05-1.11-.12-2.22-.2-3.33a.7.7,0,0,1,0-.14l-5.7.07a.91.91,0,0,1,.21.48c.14,1.25.15,2.52.29,3.77,0,.15,0,.29.05.44l5.37-.07C180.07,397.65,180.05,397.25,180,396.84Z"/><path class="cls-14" d="M173.06,397.69c-.14-1.25-.15-2.52-.3-3.77a.6.6,0,0,1,.19-.47l-5.1.06c.25,1.45.41,2.91.55,4.38,0,.11,0,.21,0,.32l4.7-.06C173.09,398,173.08,397.84,173.06,397.69Z"/><path class="cls-14" d="M166.31,393.85a.86.86,0,0,1,0-.32l-4.65.07s0,0,0,0c-.1,1.22-.13,2.46-.14,3.69,0,.31,0,.63,0,1l5.32-.06A42.57,42.57,0,0,0,166.31,393.85Z"/><path class="cls-14" d="M159.93,397.41c0-1.25,0-2.51.14-3.76v0l-5.24.08a.65.65,0,0,1,.06.35,29.26,29.26,0,0,0,.07,4.29l4.95,0C159.92,398,159.93,397.69,159.93,397.41Z"/><path class="cls-14" d="M131.33,397.59c.1-1.12.21-2.23.32-3.35l-5.33.16c-.08.32-.16.65-.23,1a19.89,19.89,0,0,0-.45,2,7.5,7.5,0,0,0,0,.82c1.68.06,3.59.11,5.67.15C131.29,398.09,131.3,397.84,131.33,397.59Z"/><path class="cls-14" d="M251.21,374.57c-.18-1.39-.36-2.77-.66-4.13-1.15.1-2.31.22-3.46.35-.43-.75-1.2,1.24-1.2,2.83.57.59,2.53.87,5.33,1Z"/><path class="cls-14" d="M255.9,373.51c-.11-.63-.21-1.26-.36-1.87a12.1,12.1,0,0,1-.35-1.56c-1,.08-2.08.13-3.12.22.3,1.43.47,2.88.68,4.33,1,0,2.15,0,3.33,0Z"/><path class="cls-14" d="M261.35,373.16c-.29-1.12-.67-2.22-.9-3.35,0,0,0,0,0,0-1.25.06-2.5.12-3.74.2a10.92,10.92,0,0,0,.33,1.37c.13.58.23,1.17.33,1.75s.17,1,.25,1.48c1.29,0,2.64-.08,4-.13C261.56,374,261.46,373.58,261.35,373.16Z"/><path class="cls-14" d="M266.26,374.09l0-.06c0-.12-.06-.23-.08-.34s-.12-.47-.17-.71a5.77,5.77,0,0,0-.2-.82,5.79,5.79,0,0,1-.21-.71,6.85,6.85,0,0,1-.2-1.69.53.53,0,0,1,0-.18c-1.15,0-2.3.06-3.44.11.24,1.07.59,2.12.86,3.18.13.5.24,1,.32,1.52l3.13-.12Z"/><path class="cls-14" d="M270.57,373.41c-.27-1.15-.57-2.29-.78-3.45a.84.84,0,0,1,.06-.52l-3,.09a.59.59,0,0,1,0,.23,5.43,5.43,0,0,0,.23,1.6c.08.27.18.51.24.78s.11.53.17.8l.19.76c0,.09.09.47,0,.23a2.56,2.56,0,0,0,.05.27l2.91-.12C270.68,373.86,270.63,373.64,270.57,373.41Z"/><path class="cls-14" d="M276.37,372.91a33.13,33.13,0,0,1-.89-3.39,1.41,1.41,0,0,1,0-.2l-4.28.09a.91.91,0,0,1,.07.14c.2,1.11.48,2.2.74,3.3.1.39.18.78.28,1.17,1.52,0,3-.1,4.39-.13C276.57,373.56,276.48,373.23,276.37,372.91Z"/><path class="cls-14" d="M283.84,369.78a1.16,1.16,0,0,0-1.19-.6l-2.77,0-2.89.07c.23,1.08.52,2.15.85,3.21.15.46.27.91.41,1.37.74,0,1.46,0,2.14,0a7.14,7.14,0,0,0,4-.78A6.41,6.41,0,0,0,283.84,369.78Z"/><path class="cls-14" d="M252.72,382c-.19-1.06-.33-2.13-.5-3.2a.92.92,0,0,1,.06-.52l-2.44.24c-.43-.75-1.21,1.24-1.21,2.83.48.5,2,.78,4.15.91Z"/><path class="cls-14" d="M258.1,381.15c-.13-.56-.24-1.11-.35-1.67a5.07,5.07,0,0,0-.34-1.38,1,1,0,0,1-.08-.29c-1.26.09-2.51.19-3.76.31a.53.53,0,0,1,.12.25c.17,1,.31,2.1.49,3.14,0,.27.11.53.17.79,1.21,0,2.57,0,4,0C258.28,381.93,258.19,381.54,258.1,381.15Z"/><path class="cls-14" d="M263.71,381.08a35.15,35.15,0,0,1-.6-3.53s0-.05,0-.07c-1.42.07-2.84.14-4.25.23a7,7,0,0,1,.32,1.24c.11.58.24,1.16.37,1.74s.23,1.07.37,1.61l4-.12C263.87,381.82,263.79,381.45,263.71,381.08Z"/><path class="cls-14" d="M275.21,380.31c-.25-1.08-.47-2.17-.81-3.22-1.74,0-3.47.07-5.21.13a.67.67,0,0,1,.36.46c.25,1,.47,2,.71,3,.1.42.19.84.31,1.26l5-.2Q275.38,381,275.21,380.31Z"/><path class="cls-14" d="M280.59,380.11a11.65,11.65,0,0,0-.74-3s0-.06,0-.09l-3.87.07c.27.92.48,1.86.69,2.8.12.53.24,1,.4,1.57a2.41,2.41,0,0,0,.08.25l3.75-.09A7.38,7.38,0,0,1,280.59,380.11Z"/><path class="cls-14" d="M287.27,377.48a1.18,1.18,0,0,0-1.22-.59l-2.81,0c-.61,0-1.21,0-1.81,0a12.82,12.82,0,0,1,.63,2.74c0,.29.06.58.11.87a5,5,0,0,0,.19.63l.14.36h1.25a7.41,7.41,0,0,0,4.1-.78A6.29,6.29,0,0,0,287.27,377.48Z"/><path class="cls-14" d="M268.8,381.07c-.24-1-.47-2-.72-3a.71.71,0,0,1,.4-.84c-1.3,0-2.59.09-3.89.15,0,.05,0,.09,0,.15.13,1.11.35,2.21.59,3.31.09.42.19.84.31,1.26L269,382Z"/><path class="cls-14" d="M253.32,388.86a13.77,13.77,0,0,1-.43-3.06c-.88.08-1.76.15-2.64.24-.46-.74-1.3,1.25-1.3,2.84.53.51,2.24.79,4.68.92C253.52,389.49,253.41,389.18,253.32,388.86Z"/><path class="cls-14" d="M260.26,388.46a21.69,21.69,0,0,1-.54-3.19c-1.77.11-3.54.24-5.32.39a11.54,11.54,0,0,0,.41,2.85c.12.45.28.9.43,1.35,1.57,0,3.36,0,5.28,0C260.42,389.4,260.35,388.93,260.26,388.46Z"/><path class="cls-14" d="M266.71,389.65c-.09-.48-.18-.95-.26-1.44-.18-1-.43-2.1-.57-3.16,0,0,0-.06,0-.09-1.55.07-3.1.13-4.65.22a20.53,20.53,0,0,0,.51,3c.1.53.17,1.06.3,1.58a.24.24,0,0,1,0,.08l4.64-.14Z"/><path class="cls-14" d="M278.3,388c-.23-1.08-.4-2.17-.67-3.24v-.1c-1.71,0-3.43.06-5.14.11a.62.62,0,0,1,.13.27,23.43,23.43,0,0,0,.75,2.85c.14.45.29.9.44,1.36,0,.06.05.12.07.19l4.68-.17C278.49,388.83,278.38,388.41,278.3,388Z"/><path class="cls-14" d="M283.88,388.09a16.61,16.61,0,0,1-.64-3,.65.65,0,0,1,.21-.52l-4.29.08c.23,1,.39,2,.6,3,.11.54.25,1.08.33,1.63l4.08-.09C284.08,388.78,284,388.43,283.88,388.09Z"/><path class="cls-14" d="M290.28,385a1.3,1.3,0,0,0-1.3-.59l-3,0-1.44,0a.93.93,0,0,1,.24.54,16.15,16.15,0,0,0,.63,2.78q.19.65.36,1.29h.76a8.61,8.61,0,0,0,4.39-.78A6,6,0,0,0,290.28,385Z"/><path class="cls-14" d="M271.9,388.27a23,23,0,0,1-.75-2.85.84.84,0,0,1,.14-.64c-1.33,0-2.66.06-4,.11.16,1,.4,1.95.58,2.93.05.29.06.59.13.88,0,.12.11.38.14.56s.06.25.1.37l4.05-.15C272.16,389.08,272,388.67,271.9,388.27Z"/><path class="cls-14" d="M255.69,396.41c-.18-1-.33-2.08-.46-3.12-1.12.09-2.23.19-3.35.31-.46-.75-1.3,1.24-1.3,2.83.58.56,2.53.84,5.32.95C255.83,397.06,255.75,396.73,255.69,396.41Z"/><path class="cls-14" d="M261.81,396.74c-.31-1.1-.5-2.23-.89-3.3a.65.65,0,0,1,.09-.6l-4.27.31c.13,1,.26,2,.45,3,.08.43.18.86.27,1.29,1.38,0,2.92,0,4.56,0C262,397.19,261.87,397,261.81,396.74Z"/><path class="cls-14" d="M274.28,395.48a20.18,20.18,0,0,0-.62-3.17c-1.59.05-3.17.08-4.76.14.33,1.07.67,2.14,1,3.2.17.51.35,1,.53,1.51l4-.15C274.39,396.5,274.35,396,274.28,395.48Z"/><path class="cls-14" d="M279.76,395.65a12.75,12.75,0,0,0-.85-3.22.62.62,0,0,1-.07-.23l-3.61.07a22.84,22.84,0,0,1,.55,3c.07.57.09,1.15.21,1.71l4-.14C279.9,396.43,279.83,396,279.76,395.65Z"/><path class="cls-14" d="M286.62,395c-.31-1-.79-1.9-1-2.9l-5.16.1a15.73,15.73,0,0,1,.78,3c.09.54.23,1.09.28,1.64,2-.06,3.89-.1,5.63-.1C287,396.1,286.8,395.54,286.62,395Z"/><path class="cls-14" d="M291.91,392.59a1.31,1.31,0,0,0-1.3-.6l-3,0h-.47c.25.91.71,1.77,1,2.65.21.65.41,1.31.56,2a7.52,7.52,0,0,0,3.84-.78A6,6,0,0,0,291.91,392.59Z"/><path class="cls-14" d="M185.72,394.77c14.52-1.24,29.06-1.4,43.59-1.56l3.68,0a1.75,1.75,0,0,1,1.59.59,5.1,5.1,0,0,1,.76,3.31,12.39,12.39,0,0,1-5.35.78c-15.29-.08-43.13,1.93-45.86-.24C184.13,396,185.15,394,185.72,394.77Z"/><path class="cls-15" d="M322.68,361.92c-11.12-4.3-20.69,3.85-11.13,13.18,2.56,6.36,9.12,13.65,19.07,11.74C347.6,382.89,337.28,367,322.68,361.92Z"/><path d="M329.42,383.85a13.2,13.2,0,0,1-2.78-.29,19.33,19.33,0,0,1-7.14-3.74,19.9,19.9,0,0,1-4.74-5.48,29.37,29.37,0,0,0-2.22-3.07c-1.62-1.89-2.41-3.51-2.48-5.1-.07-1.89,1.11-4.22,4.71-4.57a1.2,1.2,0,0,1,.62.11,27,27,0,0,1,6.21,4.35,1.15,1.15,0,0,1,.35.89,1.12,1.12,0,0,1-.47.82l-4,2.79a1.11,1.11,0,0,1-1.27-1.81l2.82-2a25,25,0,0,0-4.39-2.92c-1.58.23-2.45,1-2.4,2.24a6.69,6.69,0,0,0,2,3.75,32,32,0,0,1,2.38,3.28,18,18,0,0,0,4.21,4.93,17.31,17.31,0,0,0,6.31,3.36c2.83.62,5.72-.06,8.93-.95a1.11,1.11,0,1,1,.59,2.13A26.94,26.94,0,0,1,329.42,383.85Z"/><path d="M321,368.05a1.11,1.11,0,0,1-.53-2.08,31.94,31.94,0,0,1,4.41-2h0c.64-.19.79-.06,1.09.19a1.11,1.11,0,0,1,.37,1,1.08,1.08,0,0,1-.72.84l-.83.32c-.65.29-1.76.81-3.32,1.54A1.12,1.12,0,0,1,321,368.05Z"/><g id="front_palm" data-name="front palm"><g class="cls-16"><g class="cls-16"><path class="cls-17" d="M354.9,294.14l.79-13.19s6.49-3.23,8.58-8.17,11.11-7.93,16.13-8.38S389,257,384,254.73s-10.72-.56-14.09.88-6.21-.64-5.95-4.35,2-20.11,2.62-26.32-1.19-9-4.93-9.15-4.27,6.41-5.47,15.39-1,13.5-2.11,13.34-.4-5.62.62-16.42,1.58-17.47-1.85-18.59-6.83.47-7.55,10.27-1.09,21.15-2.58,22.13-1.91-9.3-1.37-16.87-.37-9.51-2.84-10-6.23,2.51-6.83,12.48a4.11,4.11,0,0,0-3.63-2.8c-3-.3-4.95,5-5.12,16s2.34,12.36,1.87,18.44,1.34,15.06,9.14,19.09l-2.31,12.36Z"/><path d="M347.82,267.42a12.33,12.33,0,0,1,4.61-6.15,10.16,10.16,0,0,1,7.61-2.2,1.15,1.15,0,0,0,.34-2.28c-6.49-1-13.1,4.2-14.84,10.28a1.17,1.17,0,0,0,1,1.32,1.19,1.19,0,0,0,1.31-1"/><path d="M346.69,268.68l-.22,0a1.54,1.54,0,0,1-1-.69,1.18,1.18,0,0,1-.17-1c2.11-7.36,9.56-11.35,15.15-10.49a1.34,1.34,0,0,1,1.08.84,1.57,1.57,0,0,1-.23,1.52,1.32,1.32,0,0,1-1.28.47,9.92,9.92,0,0,0-7.39,2.15,12,12,0,0,0-4.51,6A1.48,1.48,0,0,1,346.69,268.68Zm12.05-11.74c-6,0-11.46,5.07-12.94,10.21a.67.67,0,0,0,.11.52,1,1,0,0,0,.64.45c.69.11.95-.57,1-.78h0a12.56,12.56,0,0,1,4.71-6.29,10.38,10.38,0,0,1,7.81-2.25.79.79,0,0,0,.76-.27,1,1,0,0,0,.15-1,.78.78,0,0,0-.65-.49A10.87,10.87,0,0,0,358.74,256.94Z"/><path d="M338.11,255.5a31.41,31.41,0,0,1,13.23-.44c1.46.27,1.8-2,.34-2.28a33,33,0,0,0-13.84.42,1.2,1.2,0,0,0-1,1.29,1.16,1.16,0,0,0,1.28,1"/><path d="M337.92,255.8a1.27,1.27,0,0,1-.71-.23,1.56,1.56,0,0,1-.66-1,1.46,1.46,0,0,1,1.22-1.58,33.34,33.34,0,0,1,14-.44,1.41,1.41,0,0,1,1.14,1.71,1.33,1.33,0,0,1-1.58,1.12,30.87,30.87,0,0,0-13.11.44A1.15,1.15,0,0,1,337.92,255.8Zm7.83-3.28a32.81,32.81,0,0,0-7.85.95.94.94,0,0,0-.8,1,1,1,0,0,0,.42.65.65.65,0,0,0,.53.12h0a31.45,31.45,0,0,1,13.34-.44.77.77,0,0,0,.94-.68.86.86,0,0,0-.7-1.06A33.06,33.06,0,0,0,345.75,252.52Z"/><path d="M349.11,282.11a15.34,15.34,0,0,0,9.2-1.55,1.2,1.2,0,0,0,.65-1.5,1.17,1.17,0,0,0-1.5-.65,13.18,13.18,0,0,1-8,1.42,1.15,1.15,0,1,0-.34,2.28"/><path d="M330.31,228.33c-.52,4.87-.6,9.91,1.23,14.53a1.15,1.15,0,0,0,2.14-.86c-1.68-4.23-1.56-8.86-1.09-13.32.16-1.48-2.12-1.83-2.28-.35"/><path d="M332.54,243.84a1.31,1.31,0,0,1-1.26-.88c-1.95-4.91-1.72-10.17-1.25-14.66h0a1.31,1.31,0,0,1,1.51-1.19,1.44,1.44,0,0,1,1.33,1.6c-.44,4.09-.65,8.85,1.07,13.19a1.37,1.37,0,0,1-.82,1.83A1.62,1.62,0,0,1,332.54,243.84Zm-2-15.48c-.47,4.42-.69,9.59,1.21,14.4a.88.88,0,0,0,1.64-.65c-1.77-4.46-1.55-9.31-1.11-13.46a.89.89,0,0,0-.84-1,.77.77,0,0,0-.9.7Z"/></g></g></g><path class="cls-18" d="M323.82,273.14c-1.63,0-7.47,23.19-8.19,25.81-2.23,8.09-4.11,16.28-5.71,24.52-1.73,8.83-3.11,17.72-4.44,26.62-2.34,15.59-4.75,31,4,45.22,8.57,14,31.8,20.27,44.45,7.85-4.85,28.14-5.73,47.37.64,72.66,1,3.87,22,40,24.75,42.85,3.78,4,9.68,4.86,15.14,5.44,39.76,4.22,71-25.5,110.63-30.62,2.05-.27,4.2-.58,5.85-1.83,2-1.53,2.86-4.13,3.54-6.58,6.11-22,6-56.28,3.42-79,8.74,1,13.59,1,21.53-3.74,7.47-4.44,11.26-19.62,10.49-28.28-2.91-33-12.17-65.83-36.41-98.42-6.06-8.15-13.66-16.18-23.65-18.06a10,10,0,0,0-5.63.25,15.43,15.43,0,0,0-4.38,3.37c-6.92,6.48-16.54-4.54-26-4.54-4.92,2.76-11.94,10.87-17.47,11.64-7.69.87-14.85,2.68-22.58,3-4.68.19-9.58.24-13.77-1.83-3.8-1.88-6.6-5.28-10.12-7.63-5.78-3.84-14.06-5.65-17.36.46-4.66,8.63-1.28,8.21-10.88,15.7C351.27,274.17,334.26,273.43,323.82,273.14Z"/><path class="cls-19" d="M362.63,335.24c10.67-15.52,22.45-25.84,35.9-38.81,3.21,1.48,7.47,1.43,10.67,2.91a730.08,730.08,0,0,0-49.48,62.1c.59-6.44,2.32-19.76,2.91-26.2"/><path d="M441.22,493.11a1.66,1.66,0,0,1-1.55-1.07c-13.57-36.23-18.6-82.88-21.47-119.47-2.16-27.56-4.39-56.07-3.51-84.21a29.44,29.44,0,0,1,1.06-7.57,1.66,1.66,0,1,1,3.18.92,26.56,26.56,0,0,0-.93,6.76c-.87,27.95,1.36,56.36,3.51,83.84,2.85,36.37,7.84,82.72,21.27,118.56a1.67,1.67,0,0,1-1,2.14A1.65,1.65,0,0,1,441.22,493.11Z"/><path d="M375.32,254.07c-3.52.67-6.22,3.89-6,7.2s3.25,6.31,6.84,6.7c-4.28.11-8.1,3.59-8.24,7.53s3.4,7.72,7.66,8.18a6.82,6.82,0,0,0-6,6.09,6.9,6.9,0,0,0,5.45,6.61c-2.83,0-5.39,2.31-5.38,4.91s2.58,5,5.41,5a4.43,4.43,0,0,0-1.95,4.26,25,25,0,0,0,1.2,4.76,16.91,16.91,0,0,1,.16,8.09,12.57,12.57,0,0,0,8.44-6.32,11,11,0,0,0-.06-10.06,5.45,5.45,0,0,0,3.92-5.15,5.67,5.67,0,0,0-4.24-5,6.92,6.92,0,0,0,4.64-6.56A7.23,7.23,0,0,0,382,284c3.57-1,7.72-2.6,8.31-6,.42-2.36-1.16-4.63-2.86-6.46a8,8,0,0,0-4.52-2.84,8,8,0,0,0,5.65-7.19,8.21,8.21,0,0,0-5.33-7.52C380.17,252.82,376.72,253.8,375.32,254.07Z"/><path class="cls-20" d="M358.86,189.71l4.22,23.77c3.54,20,8.54,42.24,25.59,53.25,4.22,2.72,4.29,1.88,7.92,5.44a23.93,23.93,0,0,0,3.49,2.94c4.58,3.5,10,5.74,15.84,5.34,12.14-.81,20.45-8.28,32-21.2,5.29-5.91-.71-15.78-2.65-23.46q-6.45-25.47-12.91-50.94c-1.5-5.95-3.22-12.26-7.75-16.41-5.45-5-13.51-5.56-20.89-5.86-10.23-.43-20.84-.78-30.29,3.15S357,179,358.86,189.71Z"/><path d="M374.27,180c-1.71,8.26-10.06,21.67-17.47,26q-1.12-9.9-2.21-19.79a2.35,2.35,0,0,1,.07-1.15,2,2,0,0,1,.88-.84,16,16,0,0,1,7.09-2.25c3.36-.16,8.28-2,11.64-1.94"/><path d="M404.78,177.32c4,7.47,16.12,18,24.85,20-1-6.57-.1-14.1-1.14-20.66a2.08,2.08,0,0,0-.39-1.09A2,2,0,0,0,427,175a28.55,28.55,0,0,0-10,.13c-3.47.81-8.79,1.11-12.19,2.17"/><path class="cls-19" d="M426.25,299q16.81,13.57,32.58,28.36c.26-6.91.37-14.37-3.57-20.05-2.34-3.37-5.84-5.7-9.26-8l-7.21-4.75a2.94,2.94,0,0,0-1.22-.56,2.9,2.9,0,0,0-1.23.2L427.25,297c-.81.25-1.83.89-1.51,1.67"/><path d="M443.65,246.37A7.48,7.48,0,0,0,445.36,261a8.37,8.37,0,0,0,.49,16.69,6.87,6.87,0,0,0,.34,13.48,5.26,5.26,0,1,0,.68,10.5,5,5,0,0,0-1.61,4.67,29.27,29.27,0,0,0,1.48,4.95,19.38,19.38,0,0,1,.7,8.56,12.46,12.46,0,0,0,7.07-18,5.66,5.66,0,0,0-1-10.76,7.25,7.25,0,0,0-1.41-13.57c3.4-1.32,7.34-3.31,7.69-6.94.25-2.53-1.44-4.83-3.22-6.65-1.27-1.29-2.78-2.55-4.58-2.67a8.38,8.38,0,0,0-.67-15.62C448.29,244.69,445,246,443.65,246.37Z"/><path class="cls-18" d="M374.67,253.35c-.14-.33-5.1-1.31-5.81-1.62a21.31,21.31,0,0,1-5.47-3.52,32.25,32.25,0,0,1-7.63-10.93c-11.06-24.14-15-57-1.29-80.85,18-31.33,54.63-43.61,87.78-29,13.83,6.09,26,16.31,33.53,29.49,12.77,22.33,18.78,54.74,5.69,78.25-3.64,6.55-11.41,11.2-18.36,13.46s-14.53-5.5-18.59-10.4c-14.42-17.38-23.16-40-21.41-62.54-9.06.45-16.2,1.43-23.35,2.34s-14.41,1.93-21.61,3c-2.94.42-15.52,1.94-18.78,3.74-2,1.12-.67-.78-.67,1.54C358.7,217.35,366.11,233.71,374.67,253.35Z"/><path class="cls-21" d="M359.72,183.88c-3,.37-4.58.62-7.53,1a2.52,2.52,0,0,0-1.63.61c-3.6,3.92-.55,17.2.1,21.8,1.74,12.49,5.81,24.23,10.77,35.77a22.47,22.47,0,0,0,4.58,7.37c2.09,2,6.35,3.77,9.23,3.32-1.94-3.88-3.26-6.89-4.85-10.68a136.64,136.64,0,0,1-10.67-54.33"/><path class="cls-21" d="M435.75,173.08l-8.85,1.12c-.59.07-3.78.45-4.11,1-1.94,2.91,1.94,16.85,2.58,21.46,1.74,12.49,5.81,24.22,10.77,35.76a22.37,22.37,0,0,0,4.59,7.38c2.08,2,6.35,3.77,9.22,3.31-1.94-3.88-3.26-6.88-4.85-10.67a136.64,136.64,0,0,1-10.67-54.33"/><path d="M407.07,274.37a32,32,0,0,1-4.46-.31c-12.13-1.74-23.46-9.8-31.1-22.11-7-11.22-10-24.32-12.14-35.66-1.64-8.87-3.23-19.39-2.62-30.23a2.76,2.76,0,1,1,5.52.32c-.58,10.24,1,20.36,2.54,28.9,2,10.84,4.92,23.32,11.4,33.76,6.67,10.75,16.83,18.06,27.19,19.54,11.68,1.68,23.51-4.71,27-14.54a2.76,2.76,0,1,1,5.21,1.83C431.74,266.82,419.73,274.37,407.07,274.37Z"/><path d="M421.61,176.43a114.28,114.28,0,0,0,3.48,25,167.71,167.71,0,0,0,8.59,26.87,89.33,89.33,0,0,0,6,12c.84,1.36,3,.11,2.15-1.26-4.35-7.11-7.41-15-10-22.9a170.36,170.36,0,0,1-6.5-26.44,89.42,89.42,0,0,1-1.2-13.27,1.25,1.25,0,0,0-2.49,0Z"/><g id="back_palm" data-name="back palm"><g class="cls-22"><g class="cls-22"><path class="cls-17" d="M487.67,273.58l-4.51-12s4.49-5.43,4.4-10.63,6.73-11.42,11-13.8,4.73-10-.66-10-9.74,3.72-12.16,6.33-5.76,1.88-7-1.51-6.18-18.63-8.06-24.39-4.62-7.55-8-6.18-1.26,7.37,1.21,15.81,4.41,12.39,3.39,12.67-2.57-4.82-5.92-14.81-5.49-16.13-9-15.77-5.87,3.11-2.65,12.09,7.38,19.2,6.43,20.66-5.35-7.5-7.86-14.43-4.07-8.3-6.47-7.79-4.55,4.69-1.15,13.77a4,4,0,0,0-4.32-1.05c-2.75.9-2.44,6.35,1.78,16.25s6.95,10.05,8.93,15.63,7.13,12.84,15.64,13.34l2.82,11.88Z"/><path d="M439.53,223.72c1.54,4.78,3.82,9.78,7.45,13.34a.75.75,0,0,0,1-1.07c-3.45-3.37-5.6-8.13-7.06-12.66-.3-.92-1.74-.52-1.44.39"/><path d="M447.47,237.56a1,1,0,0,1-.68-.3c-3.12-3.06-5.59-7.46-7.53-13.45h0a1,1,0,0,1,.64-1.22,1,1,0,0,1,1.33.65c1.82,5.63,4.11,9.73,7,12.56a1,1,0,0,1,0,1.43A1,1,0,0,1,447.47,237.56Zm-7.68-13.92c1.91,5.91,4.33,10.23,7.39,13.23a.43.43,0,0,0,.65,0,.44.44,0,0,0,0-.65c-2.95-2.89-5.29-7.07-7.13-12.78a.49.49,0,0,0-.64-.3.4.4,0,0,0-.28.53Z"/></g></g></g><path class="cls-18" d="M451.41,276.43a4.15,4.15,0,0,1,2.82-4.36l31.1-10.41a7,7,0,0,1,3.64-.54c2,.41,3.17,2.34,4.14,4.1,14.2,26.07,21.3,55.39,26.62,84.59a18.8,18.8,0,0,1,.34,7c-.54,2.71-2.22,5-3.93,7.21a103.38,103.38,0,0,1-19.51,18.85c-2.47,1.83-5.23,3.61-8.31,3.6-4.46,0-8-3.74-10.41-7.48-4.79-7.33-7.67-15.72-10.26-24.08A407,407,0,0,1,451.41,276.43Z"/><path class="cls-23" d="M520.28,326c10.34-1.43,20.3,6.34,24.33,15.05a21.93,21.93,0,0,1,1.51,5.92L548,358.59c-.15-1-2.27-2.76-2.92-3.55a53.65,53.65,0,0,0-7.95-8.62,16.73,16.73,0,0,0-9.68-4,4.26,4.26,0,0,1-2.76-.64,3.33,3.33,0,0,1-.67-1c-2.19-4.46-3-9.27-3.92-14.07"/><path d="M527.14,366.27c-3.75-36.34-18.09-66.57-36.45-102.32l2-1c17.83,34.72,32.9,66.45,36.68,103.11Z"/><path d="M348.25,355.48a1.11,1.11,0,0,1-1-1.54c4.18-9.8,6.24-20.32,8.23-30.48,2.15-11,4.37-22.39,5.37-33.69a1.09,1.09,0,0,1,1.19-1,1.11,1.11,0,0,1,1,1.19c-1,11.41-3.24,22.86-5.4,33.92-2,10.28-4.09,20.91-8.36,30.93A1.11,1.11,0,0,1,348.25,355.48Z"/><path d="M357.78,292.55c3.88,0,4.49.43,5.24-1.59,1-2.8.86-6.78,1-9.74a4,4,0,0,0-.22-1.87,3.82,3.82,0,0,0-2.28-1.67,56.88,56.88,0,0,0-14.35-3,172.57,172.57,0,0,0-21.56-.94,3.71,3.71,0,0,0-1.69.3,3.63,3.63,0,0,0-1.34,1.73,35.38,35.38,0,0,0-2.95,10,1.32,1.32,0,0,0,.05.74c.2.41.73.5,1.18.53q9.52.75,19,2.29c6,1,11.94,2.61,17.95,3.23"/><path d="M453.49,291.46a162.48,162.48,0,0,0,33.44-9.53c3.16-1.28,6.33-2.67,9.72-3.11a1.81,1.81,0,0,0,1.41-.6,1.58,1.58,0,0,0,.17-.89c-.13-4.79-4.43-8.42-5.8-13-.37-1.22-.73-2.74-2-3.09a3.19,3.19,0,0,0-1.44,0q-4.93.92-9.77,2.25c-6.76,1.85-13.34,4.3-19.9,6.75l-6.15,2.29a2.12,2.12,0,0,0-1.75,2.26,52.4,52.4,0,0,0,1.19,17.07"/><path d="M321.37,275.77c-8,23.32-14.46,47.23-17.75,71.69-1.58,11.65-3.42,24.24.08,35.72a41.63,41.63,0,0,0,17.91,23.3c10,6.06,24,7,32.24-2.5,1-1.2-.7-3-1.76-1.76-7.23,8.3-19.25,7.74-28.19,2.71a38.91,38.91,0,0,1-17.74-22.21c-3.38-10.87-1.69-22.83-.24-33.89a316.67,316.67,0,0,1,6.63-34.69c3.15-12.74,7-25.3,11.21-37.71.52-1.52-1.88-2.17-2.39-.66Z"/><path d="M362.68,330C360,343.9,358.53,358,356.41,371.9,354,388,351.34,404.06,350,420.28c-1.69,20.3-.89,40.64,5.69,60.11a112.2,112.2,0,0,0,22.59,38.82c1.07,1.2,2.82-.56,1.76-1.76-16.32-18.28-25.61-41.53-27.83-65.83a167.89,167.89,0,0,1-.12-26c1-16.14,3.51-32.14,6-48.11,2.39-15.6,4.07-31.34,7-46.85.3-1.57-2.1-2.24-2.4-.66Z"/><path d="M388,268a22.83,22.83,0,0,0,6.88,28.28c5,3.57,11.3,4.77,17.32,4.69a52.1,52.1,0,0,0,17.25-3.19c6-2.24,11.56-5.86,14.85-11.51a1.66,1.66,0,0,0-2.86-1.67c-5.21,8.95-16.88,12.22-26.58,12.94-5.24.38-10.77,0-15.53-2.45a18.45,18.45,0,0,1-9.11-10.24,19.32,19.32,0,0,1,.65-15.17c.95-1.91-1.91-3.59-2.87-1.68Z"/><path d="M393.73,269.45c1.07,7.86,10.62,10.47,17.26,10.92A38.85,38.85,0,0,0,433.21,275a36.82,36.82,0,0,0,10-8.69c1.32-1.65-1-4-2.34-2.34a35,35,0,0,1-16.78,11.51c-6.36,2-13.73,2.51-20.1.25-3.33-1.17-6.56-3.4-7.07-7.12a1.68,1.68,0,0,0-2-1.16,1.69,1.69,0,0,0-1.15,2Z"/><path d="M450.86,277.76a216.41,216.41,0,0,0,4.58,37.61,223.73,223.73,0,0,0,11.92,40.13,135.61,135.61,0,0,0,9.47,19.28,154.77,154.77,0,0,0,12.75,17.49c3.85,4.72,8.08,9.42,13.47,12.4A38.15,38.15,0,0,0,516.74,409c10.53,1.33,22.26-1.93,27.33-12,.72-1.43-1.43-2.69-2.15-1.26-4.31,8.57-13.84,11.6-22.91,11a35.73,35.73,0,0,1-13.33-3.52c-5.12-2.51-9.11-6.53-12.77-10.83a151,151,0,0,1-12.66-16.83,125.66,125.66,0,0,1-9.51-18.36,216.46,216.46,0,0,1-12.06-38.44,216.38,216.38,0,0,1-5.33-41,1.25,1.25,0,0,0-2.49,0Z"/><path d="M350.79,435.24c6.22-7.14,13.92-12.68,21.54-18.16l47.73-34.3,1.61,13.8c.16,1.37,1.28,4.77.69,6a7,7,0,0,1-2.19,2.37c-23,18.05-45.88,34.16-68.89,52.21.13-6.8-.84-13.59-.71-20.38"/><path d="M518.88,424.7c-7.72-5.5-35-18-43.7-21.54-18.13-7.42-34.93-12.61-55.28-20.17l1.64,13.79c.16,1.37.36,4.76,1.22,5.83a6.92,6.92,0,0,0,2.68,1.79c26.58,12.2,66.83,32.16,93.4,44.36,1-7.76,0-16.49,0-24.25"/><path class="cls-24" d="M435.44,158.58a10.41,10.41,0,0,0-1.67.51c-5.09-4-43.52-33.17-70-36.34,0,0-33.46,11.86-33.16,63.75,0,0,68.12-10.42,96.65-13.55,1.31,5.91,6.42,9.77,11.78,8.7,5.6-1.12,9.33-7.19,8.34-13.56s-6.34-10.63-11.94-9.51"/><path class="cls-25" d="M339.49,176.21a56.08,56.08,0,0,1,9.43-25.53c5.76-8.15,13.91-13.27,22-17.79,1.22-.68,1.92,1.59.72,2.26-7.79,4.33-15.6,9.27-21.13,17.07a53.46,53.46,0,0,0-9,24.43c-.18,1.53-2.26,1.09-2.08-.44"/><g id="worried"><g class="cls-26"><g class="cls-26"><path class="cls-13" d="M385,209.57a4.85,4.85,0,0,1-3.1,3.5,27,27,0,0,1-7.27,1.41,11.41,11.41,0,0,1-3.54-.2,4.73,4.73,0,0,1-2.93-2,3.46,3.46,0,0,1,0-3.49,5.31,5.31,0,0,1,2.79-2.18,17,17,0,0,1,3.64-.82c1.33-.15,4.6-.8,5.95-.87a4.14,4.14,0,0,1,3.67,1.49,4.1,4.1,0,0,1,.77,3.16"/><path d="M374,210.76a2.25,2.25,0,0,0,2.23-2.23,2.24,2.24,0,1,0-2.23,2.23"/><path d="M368.67,204.74a1.58,1.58,0,0,1-.29-3.13c4.14-.8,10.58-2.78,11.93-4.65a1.58,1.58,0,1,1,2.56,1.84c-1.19,1.64-3.85,3.09-8.14,4.43a58.07,58.07,0,0,1-5.75,1.48A1.63,1.63,0,0,1,368.67,204.74Z"/><path d="M368.68,205.84a2.68,2.68,0,0,1-2.23-4.18,2.61,2.61,0,0,1,1.72-1.13c5.08-1,10.33-3,11.24-4.22a2.69,2.69,0,0,1,4.83,1.14,2.7,2.7,0,0,1-.48,2c-1.34,1.87-4.11,3.41-8.7,4.84a58.83,58.83,0,0,1-5.88,1.5A2.18,2.18,0,0,1,368.68,205.84Zm12.91-8.43h-.08a.47.47,0,0,0-.31.19c-1.81,2.52-9.72,4.53-12.61,5.1a.47.47,0,0,0-.38.55.48.48,0,0,0,.56.37s2.66-.52,5.63-1.44c4-1.25,6.54-2.6,7.57-4a.47.47,0,0,0,.08-.35.43.43,0,0,0-.19-.3A.41.41,0,0,0,381.59,197.41Z"/></g></g></g><g id="worried-2" data-name="worried"><g class="cls-27"><g class="cls-27"><path class="cls-13" d="M399.36,208.44a5.48,5.48,0,0,0,4,3.42,30.24,30.24,0,0,0,8.26.47,13.13,13.13,0,0,0,3.89-.74,5.36,5.36,0,0,0,2.93-2.66,3.84,3.84,0,0,0-.53-3.86,6.06,6.06,0,0,0-3.41-2,19.82,19.82,0,0,0-4.16-.36c-1.5,0-5.21-.2-6.71-.08a4.44,4.44,0,0,0-4.23,5.81"/><path d="M404.83,207.7a2.44,2.44,0,1,1,2.43-2.43,2.46,2.46,0,0,1-2.43,2.43"/><path d="M417.51,201.76a1.76,1.76,0,0,0,.34-3.49c-4.63-.9-11.82-3.11-13.33-5.2a1.76,1.76,0,0,0-2.86,2.06c1.33,1.84,4.3,3.46,9.09,5,3.34,1,6.3,1.62,6.43,1.65A1.84,1.84,0,0,0,417.51,201.76Z"/><path d="M417.51,202.87a2.57,2.57,0,0,1-.55-.06,67.14,67.14,0,0,1-6.54-1.67c-5.1-1.59-8.17-3.3-9.65-5.36a2.87,2.87,0,1,1,4.65-3.35c1.14,1.57,7.57,3.77,12.64,4.76a2.87,2.87,0,0,1-.55,5.68Zm-14.42-9.42a.65.65,0,0,0-.53,1c1.16,1.62,4,3.15,8.52,4.55a61.54,61.54,0,0,0,6.3,1.61h.13a.64.64,0,0,0,.64-.53.65.65,0,0,0-.51-.76c-3.22-.63-12-2.86-14-5.64A.65.65,0,0,0,403.09,193.45Z"/></g></g></g><g id="big_long_nose" data-name="big long nose"><g class="cls-28"><g class="cls-28"><path d="M387.73,213.28a66.76,66.76,0,0,0-2.91,10.6,25.78,25.78,0,0,0-.72,5.45,5.89,5.89,0,0,0,1,3.39,4.77,4.77,0,0,0,2.94,1.84,4.69,4.69,0,0,0,5.42-4.19h-2.27a4,4,0,1,0,8.06.29,1.14,1.14,0,0,0-2.27,0,1.9,1.9,0,0,1-1.91,1.85,1.46,1.46,0,0,1-.64-.21,1.67,1.67,0,0,1-.56-.48,1.86,1.86,0,0,1-.41-1.45,1.13,1.13,0,0,0-1.13-1.13,1.16,1.16,0,0,0-1.14,1.13,2.28,2.28,0,0,1-.35.89,2.68,2.68,0,0,1-.67.71,2.23,2.23,0,0,1-2.05.27,2.34,2.34,0,0,1-1.47-1.35,5.91,5.91,0,0,1-.22-2.8c0-.21,0-.42.06-.63a1.1,1.1,0,0,0,0-.18c0,.29,0,0,0-.08.05-.34.1-.69.16-1,.14-.79.3-1.58.46-2.36q.56-2.55,1.24-5.06a49.06,49.06,0,0,1,1.53-4.87,1.15,1.15,0,0,0-.79-1.4,1.17,1.17,0,0,0-1.4.8"/><path d="M395.25,235.07h-.2a4.4,4.4,0,0,1-3-1.42l-.38.32a4.81,4.81,0,0,1-3.71.87,5,5,0,0,1-3.12-2,6,6,0,0,1-1.05-3.55,24.49,24.49,0,0,1,.7-5.38l0-.12a67.08,67.08,0,0,1,2.92-10.65,1.44,1.44,0,0,1,1.73-1,1.51,1.51,0,0,1,.91.76,1.26,1.26,0,0,1,.07,1,48.81,48.81,0,0,0-1.53,4.84c-.46,1.7-.87,3.4-1.23,5-.18.87-.33,1.64-.46,2.36-.06.34-.11.68-.16,1l0,.28-.06.59a5.82,5.82,0,0,0,.2,2.67,2.08,2.08,0,0,0,1.31,1.2,1.91,1.91,0,0,0,1.8-.24,2.18,2.18,0,0,0,.59-.62,2.28,2.28,0,0,0,.32-.78l0-.24a1.39,1.39,0,0,1,1.37-1.14,1.5,1.5,0,0,1,1.08.5,1.3,1.3,0,0,1,.32.64h0l0,.31a1.52,1.52,0,0,0,.34,1.23,1.47,1.47,0,0,0,.49.42,1.26,1.26,0,0,0,.51.18,1.49,1.49,0,0,0,1.1-.43,1.62,1.62,0,0,0,.52-1.15,1.34,1.34,0,0,1,1.4-1.37h0a1.36,1.36,0,0,1,1.42,1.37,4.52,4.52,0,0,1-1.42,3.21A4.15,4.15,0,0,1,395.25,235.07Zm-2.77-1.83a3.85,3.85,0,0,0,2.6,1.27,3.53,3.53,0,0,0,2.65-1,3.91,3.91,0,0,0,1.24-2.81.8.8,0,0,0-.86-.82h0a.78.78,0,0,0-.84.82,2.17,2.17,0,0,1-.7,1.55,2.06,2.06,0,0,1-1.51.58,1.79,1.79,0,0,1-.76-.25,1.91,1.91,0,0,1-.63-.54,2.19,2.19,0,0,1-.23-.33A5.45,5.45,0,0,1,392.48,233.24Zm-3.66-20.52a.94.94,0,0,0-.83.65h0a66.87,66.87,0,0,0-2.9,10.57l0,.12a24.25,24.25,0,0,0-.69,5.26,5.5,5.5,0,0,0,.94,3.23,4.45,4.45,0,0,0,2.77,1.74,4.29,4.29,0,0,0,3.29-.78l.36-.3a4.23,4.23,0,0,1-.76-1.66,3.12,3.12,0,0,1-.66.65,2.52,2.52,0,0,1-2.28.31,2.65,2.65,0,0,1-1.65-1.52,6.14,6.14,0,0,1-.24-2.92c0-.22,0-.43.07-.64l0-.13v-.05h0v-.09c.05-.34.11-.69.17-1,.12-.72.28-1.49.46-2.37.36-1.66.77-3.37,1.24-5.08a50.76,50.76,0,0,1,1.54-4.89.66.66,0,0,0-.05-.55.92.92,0,0,0-.55-.48Zm2.63,17.93a3.6,3.6,0,0,0,.67,2.16,4.61,4.61,0,0,0,1-2.16Zm.09-.55h1.62a.83.83,0,0,0-.16-.27,1,1,0,0,0-.67-.31A.82.82,0,0,0,391.54,230.1Zm-4.77-2.79h0l-.28,0Zm-.26,0Z"/></g></g></g><g id="Artwork_65" data-name="Artwork 65"><g class="cls-29"><g class="cls-29"><path d="M409.8,241.75a10.15,10.15,0,0,0,3,5.89,4.23,4.23,0,0,0,3,1.35,4.05,4.05,0,0,0,2.89-1.42c1.53-1.81,1.21-4.32.09-6.25a9.65,9.65,0,0,0-2.43-2.74,5.93,5.93,0,0,0-2.7-1.34,3.14,3.14,0,0,0-2.94,1,4.23,4.23,0,0,0-.93,3.21,1,1,0,0,0,1,1,1,1,0,0,0,1-1c0-.2,0-.41,0-.62,0,0,0-.32,0-.14a2.33,2.33,0,0,1,0-.28,1.21,1.21,0,0,0,.05-.18s.12-.3,0-.11a2.73,2.73,0,0,1,.29-.53c-.13.18.12-.12.16-.16s.25-.18,0,0l.19-.12s.23-.11.07,0,.06,0,.08,0,.28-.06.1,0c.13,0,.25,0,.38,0s-.09,0,.07,0l.23,0,.28.08c.27.09-.14-.08.12.06a6.9,6.9,0,0,1,1.05.62l.13.1.18.15a7.17,7.17,0,0,1,.58.52,6.78,6.78,0,0,1,.91,1,5.26,5.26,0,0,1,1,2.29c0-.16,0,.19,0,.17s0,.22,0,.32a2.44,2.44,0,0,1,0,.27s0,.24,0,.11a2.3,2.3,0,0,1-.36,1s-.18.27-.07.13l-.2.23-.23.21c.12-.1,0,0,0,0a2.94,2.94,0,0,1-.52.3c.19-.08-.12,0-.13,0l-.26.07c.13,0-.19,0-.17,0a1.41,1.41,0,0,1-.29,0c.18,0-.16,0-.15,0s-.31-.11-.17,0a2.54,2.54,0,0,1-1-.66A8.74,8.74,0,0,1,412.5,244c0-.07-.07-.13-.1-.2l-.09-.2c0,.08,0,.06,0-.05s-.17-.45-.24-.68a12.77,12.77,0,0,1-.33-1.61,1,1,0,0,0-1.22-.7,1,1,0,0,0-.7,1.23"/><path d="M410.76,241.48a8.57,8.57,0,0,0,2.31,5,4.19,4.19,0,0,0,2.12,1.46,3,3,0,0,0,3.21-1.74,4.45,4.45,0,0,0-.18-3.8,8.54,8.54,0,0,0-2.4-3c-1-.81-2.13-1.47-3.33-1.18a2.85,2.85,0,0,0-1.73,3.23"/><path d="M420.79,247.54a2.66,2.66,0,0,1,0,.63s0,.21,0,0,0,0,0,0l-.06.28-.1.3c0,.12.09-.2,0-.05l-.07.16a2,2,0,0,1-.14.25l-.09.15s-.12.17,0,0,0,0,0,0l-.09.11a2.39,2.39,0,0,1-.22.23,1.9,1.9,0,0,0-.21.19c.15-.18.11-.09,0,0l-.11.08-.27.16-.11.05c-.1,0-.19,0,0,0-.2,0-.4.13-.6.17a1,1,0,0,0-.7,1.22,1,1,0,0,0,1.22.7,4.51,4.51,0,0,0,3.5-4.77,1.12,1.12,0,0,0-.31-.71,1,1,0,0,0-.69-.27c-.49,0-1.06.45-1,1"/></g></g></g><circle class="cls-30" cx="399.23" cy="92.99" r="11.64"/><circle class="cls-30" cx="424.46" cy="87.17" r="5.82"/><circle class="cls-30" cx="439.98" cy="96.87" r="3.88"/></g></g></svg>