<svg xmlns="http://www.w3.org/2000/svg" xmlns:xlink="http://www.w3.org/1999/xlink" viewBox="0 0 550 550"><defs><style>.cls-1{fill:none;}.cls-2{fill:#094756;}.cls-3{opacity:0.5;}.cls-4{fill:#f9e876;}.cls-5{opacity:0.17;}.cls-6{fill:#0dab4c;}.cls-7{opacity:0.18;}.cls-8{fill:#fda300;}.cls-9{clip-path:url(#clip-path);}.cls-10{fill:#f4a9ae;}.cls-11{fill:#1c5229;}.cls-12{fill:#34badb;}.cls-13{fill:#b1dfec;}.cls-14{fill:#9a4b9c;}</style><clipPath id="clip-path"><circle class="cls-1" cx="275" cy="275" r="266"/></clipPath></defs><g id="Layer_19" data-name="Layer 19"><circle class="cls-2" cx="275" cy="275" r="266"/><g class="cls-3"><circle cx="243.37" cy="248.27" r="190.53"/></g><circle class="cls-4" cx="253.19" cy="242.49" r="190.53"/><g class="cls-5"><path d="M144.05,186.24l-19.37,3.88V178L154,164.85h10.95v116.4H144.05Z"/><path d="M180.61,227.18v-7.25c0-41.27,21.22-56.09,45-56.09,23.92,0,44.47,15,44.47,55.59v7.24c0,40.6-20.55,55.93-44.64,55.93C200.15,282.6,180.61,266.43,180.61,227.18Zm68,.84v-8.59c0-27.46-7.91-39.59-23.07-39.59-15.67,0-23.42,11.46-23.42,38.41v8.93c0,26.78,7.58,39.59,23.25,39.59C240.92,266.77,248.66,255.65,248.66,228Z"/><path d="M279.5,227.18v-7.25c0-41.27,21.22-56.09,45-56.09,23.92,0,44.47,15,44.47,55.59v7.24c0,40.6-20.55,55.93-44.64,55.93C299,282.6,279.5,266.43,279.5,227.18Zm68.05.84v-8.59c0-27.46-7.91-39.59-23.07-39.59-15.67,0-23.42,11.46-23.42,38.41v8.93c0,26.78,7.58,39.59,23.25,39.59C339.81,266.77,347.55,255.65,347.55,228Z"/></g><path class="cls-6" d="M148.48,181.81l-19.37,3.87V173.56l29.31-13.14h11v116.4H148.48Z"/><path class="cls-6" d="M185,222.74V215.5c0-41.27,21.23-56.1,45-56.1,23.92,0,44.47,15,44.47,55.6v7.24c0,40.6-20.55,55.93-44.64,55.93C204.58,278.17,185,262,185,222.74Zm68.06.85V215c0-27.46-7.92-39.59-23.08-39.59-15.67,0-23.42,11.45-23.42,38.41v8.92c0,26.79,7.58,39.59,23.25,39.59C245.35,262.33,253.1,251.21,253.1,223.59Z"/><path class="cls-6" d="M283.93,222.74V215.5c0-41.27,21.23-56.1,45-56.1,23.92,0,44.47,15,44.47,55.6v7.24c0,40.6-20.55,55.93-44.64,55.93C303.47,278.17,283.93,262,283.93,222.74Zm68.06.85V215c0-27.46-7.92-39.59-23.08-39.59-15.67,0-23.42,11.45-23.42,38.41v8.92c0,26.79,7.58,39.59,23.25,39.59C344.24,262.33,352,251.21,352,223.59Z"/><g class="cls-7"><path d="M135.92,304.52h7.29l7,21.78h.13l7-21.78h7.24v28.89h-5.18V311h-.17l-7.24,22.44H147.8L140.6,311h-.13v22.44h-4.55Z"/><path d="M168.48,303.72h4.93v4.43h-4.93Zm0,8h4.88v21.69h-4.88Z"/><path d="M176.82,302.63h4.88v30.78h-4.88Z"/><path d="M185.16,302.63H190v30.78h-4.88Z"/><path d="M193.5,303.72h4.92v4.43H193.5Zm0,8h4.88v21.69H193.5Z"/><path d="M200.53,323v-.67c0-6.95,4.21-11,10.32-11,6.48,0,10.23,3.95,10.23,10.86v.59c0,7-4.21,11-10.28,11C204.19,333.79,200.53,329.79,200.53,323Zm15.5.21v-1.05c0-5.65-2.32-7.16-5.27-7.16-3.33,0-5.26,2.32-5.26,7v1c0,5.6,2.36,7.12,5.39,7.12C214.13,330.13,216,327.89,216,323.22Z"/><path d="M223.06,311.72h4.67v1.94h.17a12.6,12.6,0,0,1,7.12-2.31c4.17,0,6.32,1.68,6.32,6v16.08h-4.89v-15c0-2.19-.71-3.07-3.66-3.07a12.14,12.14,0,0,0-4.89,1.18v16.84h-4.84Z"/><path d="M252.12,319.43v-.93c0-9.3,5.35-14.44,13.22-14.44,7.71,0,13,4.8,13,14.44v.93c0,9.35-5.39,14.44-13.22,14.44S252.12,329,252.12,319.43Zm20.68.55v-1.43c0-6.49-2.11-10.4-7.71-10.45-5,0-7.45,4-7.45,9.81v1.48c0,6.53,2.1,10.48,7.62,10.48C270.31,329.87,272.8,325.87,272.8,320Z"/><path d="M280.63,311.72h4.68v2.53h.17a7.34,7.34,0,0,1,5.68-2.69,5.2,5.2,0,0,1,1.35.12V316a12.1,12.1,0,0,0-1.77-.13,10.14,10.14,0,0,0-5.26,1.43v16.13h-4.85Z"/><path d="M292.93,323.22v-.55c0-8,4-11.32,9.69-11.32a10.5,10.5,0,0,1,5.18,1.22v-9.94h4.8v30.78h-4.13l-.42-1.72h-.17a8.72,8.72,0,0,1-6.15,2.1C297.44,333.79,292.93,331.05,292.93,323.22Zm14.87,5.35V316.23a7.77,7.77,0,0,0-4.42-1.14c-3.37,0-5.48,1.77-5.48,7.12v.8c0,5.39,2.23,7,5.52,7A7.37,7.37,0,0,0,307.8,328.57Z"/><path d="M314.62,322.84v-.59c0-7.28,4.42-10.86,9.94-10.86,6.4,0,9.18,3.58,9.18,10.48v2H319.59c.3,4.51,2.61,6.11,6.74,6.11a13.86,13.86,0,0,0,6.69-1.6v3.37a13.84,13.84,0,0,1-7.66,2C318.16,333.79,314.62,329.71,314.62,322.84Zm5-2.27h9.22c0-4.09-1.51-5.6-4.34-5.6C322.24,315,319.93,316.15,319.59,320.57Z"/><path d="M335.72,311.72h4.67v2.53h.17a7.36,7.36,0,0,1,5.69-2.69,5.2,5.2,0,0,1,1.35.12V316a12.2,12.2,0,0,0-1.77-.13,10.18,10.18,0,0,0-5.27,1.43v16.13h-4.84Z"/><path d="M347.89,332.27v-3.53a15.26,15.26,0,0,0,6.45,1.34c3,0,4.29-1,4.29-2.61s-.84-2.31-3.2-2.82l-2-.46c-3.33-.67-5.52-2.36-5.52-6.23s2.57-6.57,8.05-6.57a14.68,14.68,0,0,1,6.23,1.18v3.66a15.07,15.07,0,0,0-5.81-1.18c-2.53,0-3.88.84-3.88,2.53,0,1.51.84,2.06,2.91,2.57l2.06.46c4.26,1,5.9,2.65,5.9,6.4,0,4.51-3,6.74-8.3,6.74A15.55,15.55,0,0,1,347.89,332.27Z"/></g><path class="cls-6" d="M139.25,302.31h7.28l7,21.77h.12l7-21.77H168v28.88h-5.18V308.75h-.17l-7.24,22.44h-4.26l-7.2-22.44h-.12v22.44h-4.55Z"/><path class="cls-6" d="M171.8,301.51h4.93v4.42H171.8Zm0,8h4.89v21.68H171.8Z"/><path class="cls-6" d="M180.14,300.41H185v30.78h-4.89Z"/><path class="cls-6" d="M188.48,300.41h4.89v30.78h-4.89Z"/><path class="cls-6" d="M196.82,301.51h4.93v4.42h-4.93Zm0,8h4.89v21.68h-4.89Z"/><path class="cls-6" d="M203.85,320.79v-.67c0-6.95,4.21-11,10.32-11,6.49,0,10.23,4,10.23,10.86v.59c0,7-4.21,11-10.27,11C207.52,331.57,203.85,327.57,203.85,320.79Zm15.5.21V320c0-5.64-2.32-7.16-5.26-7.16-3.33,0-5.27,2.32-5.27,7v1c0,5.6,2.36,7.12,5.39,7.12C217.46,327.91,219.35,325.68,219.35,321Z"/><path class="cls-6" d="M226.39,309.51h4.67v1.94h.17a12.55,12.55,0,0,1,7.11-2.32c4.17,0,6.32,1.68,6.32,6v16.08h-4.88V316.25c0-2.19-.72-3.08-3.67-3.08a12.09,12.09,0,0,0-4.88,1.18v16.84h-4.84Z"/><path class="cls-6" d="M255.45,317.21v-.92c0-9.31,5.34-14.45,13.22-14.45,7.7,0,13,4.8,13,14.45v.92c0,9.35-5.39,14.45-13.22,14.45S255.45,326.77,255.45,317.21Zm20.67.55v-1.43c0-6.49-2.1-10.4-7.7-10.44-5,0-7.46,3.95-7.46,9.81v1.47c0,6.53,2.11,10.49,7.62,10.49C273.64,327.66,276.12,323.66,276.12,317.76Z"/><path class="cls-6" d="M284,309.51h4.67V312h.17a7.4,7.4,0,0,1,5.69-2.69,4.61,4.61,0,0,1,1.34.13v4.29a13.54,13.54,0,0,0-1.77-.13,10.08,10.08,0,0,0-5.26,1.44v16.12H284Z"/><path class="cls-6" d="M296.26,321v-.54c0-8,4-11.33,9.68-11.33a10.47,10.47,0,0,1,5.18,1.22v-9.94h4.8v30.78h-4.13l-.42-1.72h-.16a8.72,8.72,0,0,1-6.15,2.1C300.76,331.57,296.26,328.84,296.26,321Zm14.86,5.35V314a7.76,7.76,0,0,0-4.42-1.13c-3.37,0-5.47,1.77-5.47,7.11v.8c0,5.39,2.23,7,5.51,7A7.34,7.34,0,0,0,311.12,326.35Z"/><path class="cls-6" d="M318,320.62V320c0-7.29,4.42-10.87,9.93-10.87,6.41,0,9.18,3.58,9.18,10.49v2H322.91c.3,4.5,2.62,6.1,6.74,6.1a13.93,13.93,0,0,0,6.7-1.6v3.37a13.88,13.88,0,0,1-7.67,2C321.48,331.57,318,327.49,318,320.62Zm5-2.27h9.23c0-4.08-1.52-5.6-4.34-5.6C325.57,312.75,323.25,313.93,322.91,318.35Z"/><path class="cls-6" d="M339.05,309.51h4.67V312h.17a7.39,7.39,0,0,1,5.68-2.69,4.69,4.69,0,0,1,1.35.13v4.29a13.67,13.67,0,0,0-1.77-.13,10.05,10.05,0,0,0-5.26,1.44v16.12h-4.84Z"/><path class="cls-6" d="M351.22,330.06v-3.54a15.08,15.08,0,0,0,6.44,1.35c3,0,4.3-1,4.3-2.61s-.85-2.32-3.2-2.82l-2-.47c-3.32-.67-5.51-2.36-5.51-6.23s2.57-6.57,8-6.57a14.64,14.64,0,0,1,6.23,1.18V314a15.21,15.21,0,0,0-5.81-1.18c-2.52,0-3.87.85-3.87,2.53,0,1.52.84,2.06,2.9,2.57l2.07.46c4.25,1,5.89,2.66,5.89,6.4,0,4.51-3,6.74-8.29,6.74A15.56,15.56,0,0,1,351.22,330.06Z"/><path class="cls-8" d="M410,82.55A4.44,4.44,0,0,1,406.85,75l34.92-35.3a4.43,4.43,0,0,1,6.3,6.24l-34.92,35.3A4.42,4.42,0,0,1,410,82.55Z"/><path class="cls-8" d="M454.25,155.29a4.43,4.43,0,0,1-1.13-8.72l69.54-18.39a4.43,4.43,0,0,1,2.28,8.57h0l-2.19.58-.21,0-67.14,17.75A4.46,4.46,0,0,1,454.25,155.29Z"/><path class="cls-8" d="M82.57,118.3a4.39,4.39,0,0,1-2.25-.62L28.91,87.27a4.43,4.43,0,1,1,4.52-7.63l51.4,30.41a4.43,4.43,0,0,1-2.26,8.25Z"/><path class="cls-8" d="M106.82,97.59A4.41,4.41,0,0,1,103,95.4L89.35,72.17A4.44,4.44,0,0,1,97,67.68l13.64,23.23a4.43,4.43,0,0,1-3.82,6.68Z"/><path class="cls-8" d="M34.83,382.16A4.44,4.44,0,0,1,33,373.68l41.36-18.63A4.43,4.43,0,0,1,78,363.13L36.65,381.77A4.55,4.55,0,0,1,34.83,382.16Z"/><path class="cls-8" d="M65.51,479.18a4.43,4.43,0,0,1-3.82-6.67L101.14,405a4.43,4.43,0,0,1,7.66,4.47L69.34,477A4.41,4.41,0,0,1,65.51,479.18Z"/><path class="cls-8" d="M256.27,494.89a4.43,4.43,0,0,1-4.34-3.56l-7.24-36.21a4.43,4.43,0,1,1,8.69-1.73l7.24,36.2a4.44,4.44,0,0,1-4.35,5.3Z"/><path class="cls-4" d="M494.39,333.65a4.48,4.48,0,0,1-1.67-.33l-33.39-13.54a4.43,4.43,0,0,1,3.33-8.22l33.4,13.54a4.44,4.44,0,0,1-1.67,8.55Z"/><path class="cls-4" d="M464.07,295.83a4.44,4.44,0,0,1-.43-8.85l50.69-5a4.43,4.43,0,0,1,.87,8.82l-50.69,5Z"/><path class="cls-8" d="M245.41,49.62A4.43,4.43,0,0,1,241,45.38l-.73-16.65a4.43,4.43,0,0,1,8.86-.39L249.84,45a4.44,4.44,0,0,1-4.23,4.63Z"/><path d="M126.48,174.53l-.41,12a1.69,1.69,0,0,0,2.1,1.61A159.91,159.91,0,0,0,148.38,184a1.67,1.67,0,0,0-.89-3.21,159.75,159.75,0,0,1-20.2,4.16l2.1,1.6.42-12c.07-2.14-3.25-2.13-3.33,0Z"/><path d="M146.16,183.2c1.18,24.11,1.32,48.24.92,72.37q-.18,10.28-.45,20.54c-.06,2.14,3.27,2.14,3.32,0,.63-24,1-48,.32-72q-.27-10.47-.79-20.93c-.1-2.13-3.43-2.14-3.32,0Z"/><path d="M223.7,158.9c-11.09.95-20.44,6.7-27.08,15.51-6.49,8.62-10.16,19.29-12,29.83a101.21,101.21,0,0,0-.35,32.4c1.67,11,5.54,22.23,13.27,30.52,10.36,11.12,27.29,15.09,41.9,12.1,2.1-.43,1.21-3.63-.88-3.2-12.5,2.56-27.16-.49-36.69-9.27-7.73-7.14-11.77-17.29-13.77-27.43a95.66,95.66,0,0,1-.79-30.9c1.33-9.92,4.26-19.89,9.53-28.46,6-9.72,15.28-16.78,26.87-17.78,2.11-.18,2.13-3.51,0-3.32Z"/><path d="M321.23,158.9c-11.09.95-20.44,6.7-27.08,15.51-6.49,8.62-10.16,19.29-12,29.83a101.21,101.21,0,0,0-.34,32.4c1.66,11,5.54,22.23,13.26,30.52,10.37,11.12,27.3,15.09,41.91,12.1,2.09-.43,1.2-3.63-.89-3.2-12.5,2.56-27.15-.49-36.68-9.27-7.74-7.14-11.78-17.29-13.77-27.43a95.38,95.38,0,0,1-.8-30.9c1.34-9.92,4.27-19.89,9.53-28.46,6-9.72,15.28-16.78,26.87-17.78,2.12-.18,2.14-3.51,0-3.32Z"/><path d="M233.73,179.1c2.68.08,5.41,2.08,7.37,3.73a20.25,20.25,0,0,1,6.34,8.68c2.93,8.49,3.33,17.68,3,26.58-.07,2.14,3.25,2.14,3.33,0a101.51,101.51,0,0,0-.49-15.1,51,51,0,0,0-3.24-13.91,24,24,0,0,0-7.36-9.21c-2.54-2-5.64-4-9-4.1-2.14-.06-2.14,3.26,0,3.33Z"/><path d="M332.37,179.1c2.68.08,5.41,2.08,7.38,3.73a20.31,20.31,0,0,1,6.33,8.68c2.94,8.49,3.33,17.68,3,26.58-.07,2.14,3.26,2.14,3.33,0a101.51,101.51,0,0,0-.49-15.1,51,51,0,0,0-3.24-13.91,24,24,0,0,0-7.36-9.21c-2.53-2-5.64-4-9-4.1-2.14-.06-2.14,3.26,0,3.33Z"/><path d="M250.56,227.29c-.42,4.44-.74,8.89-1.29,13.31-.44,3.61-1.28,7.42-3.76,10.22-1.42,1.59.93,4,2.35,2.35,2.83-3.19,4-7.22,4.58-11.36.67-4.81,1-9.68,1.44-14.52.2-2.12-3.12-2.11-3.32,0Z"/><path d="M349.2,227.29c-.42,4.44-.74,8.89-1.28,13.31-.45,3.61-1.29,7.42-3.77,10.22-1.42,1.59.93,4,2.35,2.35,2.83-3.19,4-7.22,4.58-11.36.67-4.81,1-9.68,1.44-14.52.2-2.12-3.12-2.11-3.32,0Z"/><g class="cls-9"><path class="cls-6" d="M342,532.8c-3.87-3-1-11.72-.24-15.82a120.66,120.66,0,0,1,5.3-19.21,149.79,149.79,0,0,1,18.38-34.63c7-9.89,14.92-16.19,25.82-21.36a104.91,104.91,0,0,1,30.08-9.07c10.76-1.54,21-.16,31.65,1.68,14.4,2.49,29.38,5.4,43.38,9.65,17.26,5.23,27.88,15.74,35.45,31.88a112.73,112.73,0,0,1,10.55,52.95,6.42,6.42,0,0,1-.84,3.46c-4.45,6.32-13.83,2.12-19.65,1.93-10.35-.33-20.79.14-31.14.33-20.75.39-41.49,1-62.25,1.31-15,.21-30,.23-45-.16-7.43-.2-14.86-.49-22.27-.93-4.74-.27-15.29,1-19.21-2Z"/><path class="cls-10" d="M433,325.15c1.71-5.46,6.44-9.61,11.77-11.68s11.2-2.27,16.9-1.78c20.2,1.74,41,14.38,45.39,34.17,3.15,14.16-2.43,28.64-7.92,42.08l-14,34.3c-2,5-3.61,11.89-6.82,16.23-2.66,3.58-7.81,5.73-12.08,6.33a25.58,25.58,0,0,1-13.66-2.07,14.65,14.65,0,0,1-5.86-4.17c-1.91-2.48-2.44-5.65-2.56-8.69-.07-1.62.14-2.18-.69-3.38-.71-1-2.16-1.92-3.07-2.82a51.51,51.51,0,0,1-9.53-13.5,71.28,71.28,0,0,1-6.93-32.74c.31-18.54,6.22-36.47,10.55-54.49C433.91,322.91,433.37,322.87,433,325.15Z"/><path d="M424.26,416.09a11.08,11.08,0,0,0-3.54,19.52,10.77,10.77,0,0,0-3.34,19.57,9.29,9.29,0,0,0-4.67,17c-4.43,1.95-5.9,7.58-5.67,12.42s1.6,9.72.58,14.46a20.24,20.24,0,0,0,16.14-24.76,11.67,11.67,0,0,0,4.05-18.3,16,16,0,0,0,7-19.41,12.24,12.24,0,0,0,3-15.51C434.82,416.12,428.32,414.91,424.26,416.09Z"/><path d="M492.3,421.94a9.43,9.43,0,0,0-4.65,17.82,15.1,15.1,0,0,0-7.68,4.11,9.33,9.33,0,0,0-2.54,8.12,6.82,6.82,0,0,0,6.15,5.43,25.92,25.92,0,0,0-9.22,3.62c-2.71,1.92-4.79,5-4.67,8.34s3,6.55,6.28,6.37c-3.06-.5-5.61,2.69-6,5.77s.62,6.14.8,9.23a17.64,17.64,0,0,1-2.07,9.39,7.87,7.87,0,0,0-1.14,2.71,2.12,2.12,0,0,0,1.31,2.37,2.91,2.91,0,0,0,2-.5,29.6,29.6,0,0,0,15-26.24,11.29,11.29,0,0,0,6.47-18.09,13.47,13.47,0,0,0,5.05-17.65,11,11,0,0,0,5.74-19.83C499.55,420.25,494.31,420.08,492.3,421.94Z"/><path class="cls-10" d="M309.77,442.71C293.4,424,299.43,408.81,287.26,397c-2.69-2.61-5.95-5.89-5-9.71.88-3.43,5-4.91,8.12-3.92s5.46,3.68,7.64,6.26a72.63,72.63,0,0,1-10.31-16.17c-1.14-2.46-2.06-5.73-.28-7.8a4.39,4.39,0,0,1,5.35-.67,13.35,13.35,0,0,1,4.1,4.16l12.69,17.32a79.21,79.21,0,0,1-5.91-20.29c-.31-2.05-.4-4.53,1.14-5.84,2.37-2,5.53.79,7.23,3.38a259.08,259.08,0,0,1,28.29,57.75c1.61,4.68,3,10.32.25,14.48-2,3.08-5.69,4.28-9.08,5.1C322.61,443.22,318.88,442.08,309.77,442.71Z"/><path d="M484.11,340c1.52,8.19,4.11,16.06,6.7,23.9a26.86,26.86,0,0,0,3.22,7.28q1.59-15,3.86-30l-13.77-1.63"/><path d="M447.79,327.83c-4.53,3.7-9.8,6.59-15.06,9.47a16.73,16.73,0,0,1-5.54,2.19q4.77-9.35,8.93-19L448,327.58"/><path class="cls-6" d="M509.05,444.22c19.46-2.25,35-19.71,44.16-36.65,11.71-21.59,16.08-48,9.78-72.15C551.4,291,500.94,262.11,458.88,276.57c-31.75,10.91-50.95,45-51.83,79.07-.55,21.39,6.2,55.62,18.36,59.5-2.52-20.55-5.37-41.67-4.36-62.45a62.78,62.78,0,0,1,2.68-17,39.78,39.78,0,0,1,2.77-7c3.22-3.66,22.16,3.56,26.94,4.89q14.25,4,28.4,8.37c7.38,2.29,17.35,4.18,22.5,9.89,2.46,2.72,3.3,3.15,3.22,6.89-.06,2.95-2.07,6-2.62,8.89-.68,3.65-1.39,7.56-.66,11.27,1,5.27.51,7.35-2.07,12.62-3.41,10.82-12,32.91-7.07,45.81C497.33,443.06,503.2,444.89,509.05,444.22Z"/><path class="cls-6" d="M505.55,444.62c-28.85-2.76-15.58-54-10.68-73.27,9.45-27.06,10.62-29.51-16.91-37.33-19.8-6.08-29.93-7.36-45.56-10.26-29.6,13.92,3.29,106.27-10.76,87.66-23-39.79-15.86-117.06,43-104.93,35.3,1.16,53.07,10.22,55.23,50.25C519.37,385.26,527.42,422.84,505.55,444.62Z"/><path class="cls-11" d="M422.55,325.64c-3.36,1.18-4.91,3.12-6.16,6.6-8.42,23.62-8.19,52.45,2.08,75.25,1.35,3,3.92,5.44,6.49,7.42.85.66,2.07,2,3.25,1.82,2.21-.35.72-3,.06-4.31-3.53-6.77-3.67-14.72-4.65-22.29-.38-3-.91-6-1.07-9-.92-17.8,11.1-34.53,9.46-52.28-.24-2.51-.54-2.45-2.94-3.24A8.61,8.61,0,0,0,422.55,325.64Z"/><path class="cls-11" d="M502.4,344.19a83.13,83.13,0,0,1,9.1,5.52c.73.47,1.59.81,2,1.61a4.2,4.2,0,0,1,.15,2.39c-2.08,15.61-7.1,30.67-9.05,46.3s-3.63,32.6,5.92,44.75c-.26-.32-6.14,0-6.92-.14a20.69,20.69,0,0,1-6.1-2.26c-6.46-3.62-7.51-9.42-9.21-16.6-4.14-17.52,1.65-34.9,5.87-51.7a93.91,93.91,0,0,0,2.45-33"/><path class="cls-12" d="M531.87,340.58a12.67,12.67,0,0,0-2.1-.31c-4.08-6.67-35.07-56.33-63.56-72.9,0,0-42.67-4.41-64.14,49.76,0,0,81.09,23.27,114.55,34.31-1,6.81,3.12,13.39,9.6,15,6.78,1.64,13.54-2.82,15.1-9.94s-2.67-14.24-9.45-15.88"/><path class="cls-13" d="M416.4,310.87A57.49,57.49,0,0,1,437.75,289c9.91-5.59,21.24-6.85,32.29-7.49,1.66-.09,1.5,2.62-.15,2.72-10.59.6-21.46,1.84-31,7.19a54.83,54.83,0,0,0-20.38,20.94c-.85,1.5-3,0-2.15-1.5"/><path d="M458.71,432a32,32,0,0,1-13.3-3,39.23,39.23,0,0,1-17.3-15.78c-6.54-11.44-8.35-26.55-5.36-44.89l.45-2.78C425.34,352.4,427,342,431,327.93a1.86,1.86,0,1,1,3.58,1c-3.91,13.87-5.5,23.66-7.7,37.21l-.46,2.79c-2.84,17.48-1.19,31.76,4.92,42.44,6.56,11.47,22,20.64,35.54,15.46a1.86,1.86,0,1,1,1.34,3.47A26.58,26.58,0,0,1,458.71,432Z"/><path d="M435.83,390.15a4.62,4.62,0,0,1,4.2.51,6.3,6.3,0,0,1,2,4.09c.35,2.37-.19,5.07-2.41,6.4a3.67,3.67,0,0,1-4.6-.48c-1.32-1.48-.69-3.47-.34-5.26a5.76,5.76,0,0,0-.1-2.89,1.89,1.89,0,0,1,1.17-2.35Z"/><path d="M302.05,406.36a5.46,5.46,0,0,1,2.16-4,9.49,9.49,0,0,1,4.7-1.9,5,5,0,0,0,2.64-1.17c.69-.65,1.14-1.53,1.8-2.22a8.37,8.37,0,0,1,4.8-2.5.94.94,0,0,0,.65-1.14,1,1,0,0,0-1.15-.65,10,10,0,0,0-6.09,3.52,10.1,10.1,0,0,1-1.46,1.79,4.79,4.79,0,0,1-2.26.66,10.36,10.36,0,0,0-2.11.6,9.72,9.72,0,0,0-3.71,2.55,7,7,0,0,0-1.83,4.49.93.93,0,0,0,1.86,0Z"/><path class="cls-6" d="M311.42,442.83a151.31,151.31,0,0,1,35.81-7c7.46,25,13.36,50.92,11.11,76.87-.53,6.1-4.81,13.15-9.4,17.2-3.85,3.38-9.27,4.15-14.35,4.77-5.68.7-12.2,1.14-16.36-2.8-3.2-3-4-7.74-4.53-12.12C310.55,494.73,309.18,469.48,311.42,442.83Z"/><path class="cls-14" d="M359.88,410.12c-21.16,2.68-42.38,4.95-63.65,6.51-20.32,1.5-37.73,4.64-61.44,2-4.18-.46-7.78-1.61-9.71-5.35-6-11.55,12.35-19.65,19.37-23.07a102.7,102.7,0,0,1,13-5.12c3.24-1.07,7.81-3.39,11.31-2.91a8.18,8.18,0,0,1,4.33,2.54c3.77,3.66,6.47,9.63,3.67,14.08a14,14,0,0,1-4.26,3.87c-4.63,3.1-9.75,5.56-14.62,8.25,7.24-4,2.57-4.94,20.27-5.88,20.57-1.1,37.53-2.2,59.31-3.92,11.77-.93,27.22-3.12,39-3.35,2.87-.06,51.53-6,54.39-5.65a10.18,10.18,0,0,1,4.15.63c1.28.59,3.17,4.48,3.05,5.89-.22,2.7-4.62,2.5-6.52,2.71C422.87,402.33,368.57,409,359.88,410.12Z"/><path d="M436.73,399.66c-15.06,2.08-30.16,3.9-45.27,5.69q-27.16,3.21-54.36,6.15c-16.3,1.75-32.63,3.22-48.94,4.9-12.67,1.31-25.32,2.55-38.06,2.53-6.14,0-12.52,0-18.43-1.88a10.37,10.37,0,0,1-5.76-3.94,7.83,7.83,0,0,1-.79-6.39,11.91,11.91,0,0,1,3.55-5.57c2-1.74,4.34-2.34,6.87-2.78a23.36,23.36,0,0,1,8.46-.05,5.48,5.48,0,0,1,4.53,4A7.38,7.38,0,0,1,248,408c-1.25,2.13-4,2.75-6.28,2.61-2.63-.16-4.25-2.18-4.71-4.69a4.06,4.06,0,0,1,4.67-4.57,2.93,2.93,0,0,1,2.66,2.3c.07.64-.08,1.84-.78,2.14s-1.48-.22-2-.46c-1.07-.51-2,1.09-.94,1.61a4.77,4.77,0,0,0,3.58.59,3.52,3.52,0,0,0,2-3.13c.31-2.77-2.08-4.72-4.66-4.94a5.91,5.91,0,0,0-5.84,3.37c-1.25,2.5-.26,5.79,1.6,7.75s4.3,2.1,6.67,1.77a7.34,7.34,0,0,0,5.83-3.73c1.9-3.71,1-9.41-3-11.34-2.41-1.16-5.42-1.25-8.05-1.11a22.25,22.25,0,0,0-8.78,1.91c-4.16,2.12-7.31,7-6.95,11.76.43,5.74,5.56,8.5,10.59,9.63,6.62,1.5,13.52,1.4,20.26,1.32,14.14-.16,28.19-1.94,42.24-3.32,8.16-.8,16.31-1.52,24.46-2.36q13.9-1.41,27.81-3,15.21-1.68,30.41-3.44Q393.35,407,408,405.22q12.19-1.5,24.37-3.1l4.89-.67c1.18-.16.68-1.95-.5-1.79Z"/><path d="M245.1,412.74c7.32.69,14.46-1.93,20.73-5.5,1.6-.92,3.16-1.91,4.71-2.91,1.22-.78,2.5-1.48,3.7-2.3a12.6,12.6,0,0,0,3.26-3,9.13,9.13,0,0,0,1.55-4,12.27,12.27,0,0,0-2-8.3,12.52,12.52,0,0,0-7.49-5.43,11,11,0,0,0-5.44.59c-1.8.58-3.58,1.22-5.36,1.88-3.56,1.33-7.08,2.79-10.56,4.3s-6.93,3.09-10.37,4.66a36.8,36.8,0,0,0-8.55,4.95,15.39,15.39,0,0,0-1.78,1.74c-.79.89.52,2.22,1.31,1.31a23.65,23.65,0,0,1,7.67-5.32c3.09-1.5,6.25-2.88,9.38-4.29s6.54-2.87,9.86-4.19a92.06,92.06,0,0,1,10-3.58,7.12,7.12,0,0,1,4.67.14A11.61,11.61,0,0,1,274.1,386a10.73,10.73,0,0,1,3.18,6.88,8.51,8.51,0,0,1-.6,3.83,7.74,7.74,0,0,1-2.45,3.05,31.61,31.61,0,0,1-3.52,2.28c-1.34.81-2.63,1.69-4,2.5-6.5,4-13.87,7.08-21.64,6.35a.93.93,0,0,0-.93.93,1,1,0,0,0,.93.93Z"/><path class="cls-10" d="M342,437.09A16.64,16.64,0,0,0,343.37,407c-2.69-1.42-6-2.07-8.79-1s-4.91,4.31-4.07,7.23c1.27,4.42,7.74,5.57,9.17,9.95C341.36,428.41,334.77,433.3,342,437.09Z"/><path d="M437.43,344.7a1.87,1.87,0,0,1-1.44-3c1.87-2.31,4-4.66,7.07-5.83,3.51-1.33,8.4-.52,10.07,2.79a1.86,1.86,0,1,1-3.32,1.68c-.64-1.27-3.38-1.77-5.44-1-2.23.84-3.81,2.63-5.49,4.7A1.88,1.88,0,0,1,437.43,344.7Z"/><path d="M471.27,360.53a1.4,1.4,0,0,1-1.39-1.34,3.54,3.54,0,0,0-5.92-2.48,1.4,1.4,0,0,1-2-.1,1.38,1.38,0,0,1,.1-2,6.33,6.33,0,0,1,10.58,4.44,1.4,1.4,0,0,1-1.34,1.45Z"/><path d="M452.28,383.91a3.94,3.94,0,0,1-1.36-.24,4.52,4.52,0,0,1-2.7-2.93.75.75,0,0,0-.05-.16l-.09.05a4.17,4.17,0,0,1-4.47-.25,4.5,4.5,0,0,1-1.57-4,9.84,9.84,0,0,1,1.07-3.45,47.88,47.88,0,0,1,7.23-11.14,1.4,1.4,0,0,1,2.11,1.83,45.53,45.53,0,0,0-6.82,10.5,7.44,7.44,0,0,0-.8,2.47,1.84,1.84,0,0,0,.48,1.55,1.53,1.53,0,0,0,1.52,0,7.35,7.35,0,0,0,2-1.79,1.4,1.4,0,0,1,2.21,1.7,2.13,2.13,0,0,0-.17,1.83,1.83,1.83,0,0,0,1,1.18,1.65,1.65,0,0,0,1.42-.27,2.09,2.09,0,0,0,1-1.53,1.42,1.42,0,0,1,1.47-1.32A1.38,1.38,0,0,1,457,379.4a4.81,4.81,0,0,1-2.2,3.71A4.61,4.61,0,0,1,452.28,383.91Z"/><path d="M438,355.32a1.37,1.37,0,0,1-.61-.15,1.4,1.4,0,0,1-.64-1.87,7.72,7.72,0,0,1,5.64-4.32,6,6,0,0,1,6.4,3.58,1.4,1.4,0,1,1-2.61,1,3.22,3.22,0,0,0-3.4-1.8,4.87,4.87,0,0,0-3.52,2.78A1.4,1.4,0,0,1,438,355.32Z"/><path d="M477.6,353.61a1.72,1.72,0,0,1-.39,0,1.86,1.86,0,0,1-1.43-2.21,6.87,6.87,0,0,0-9.33-7.8,1.86,1.86,0,0,1-1.41-3.45,10.6,10.6,0,0,1,14.38,12A1.87,1.87,0,0,1,477.6,353.61Z"/><path d="M373.22,537.15l-.19,0a.94.94,0,0,1-.72-1.1,239.57,239.57,0,0,1,24.35-65.5.93.93,0,0,1,.68-1.57h.73a.93.93,0,0,1,.82,1.38,237.85,237.85,0,0,0-24.76,66.07A.93.93,0,0,1,373.22,537.15Z"/><path d="M497.86,538.15a.92.92,0,0,1-.92-.77L490.43,501a.93.93,0,1,1,1.83-.33l6.51,36.42a.93.93,0,0,1-.75,1.08Z"/><path d="M436.56,544.49h-.08a.94.94,0,0,1-.85-1,613.28,613.28,0,0,1,17.67-99,.93.93,0,1,1,1.79.48,610.38,610.38,0,0,0-17.6,98.64A.93.93,0,0,1,436.56,544.49Z"/><path class="cls-10" d="M324.83,407.15A5.24,5.24,0,0,0,331,402c-.13-2.34-2.1-3.55-.67-5.4a2.4,2.4,0,0,1,3.6.06c1.25,1.75.92,2.79,1.09,4.93,1.6-.42,6.46-.37,8.06-.8a38.64,38.64,0,0,0-4.14-10.59c-1.9-3.06-5-5.58-8.62-5.85-3.87-.28-7.62,2.2-9.47,5.61a15.93,15.93,0,0,0-1.06,11.33,9.93,9.93,0,0,0,1.9,4.11,4.35,4.35,0,0,0,4,1.68S325.67,407.13,324.83,407.15Z"/><path d="M332.87,431.78a14.21,14.21,0,0,1,.91-7.21,13.64,13.64,0,0,1,1.76-3.08,5,5,0,0,0,.93-1.43,2.46,2.46,0,0,0-.32-1.94,14.18,14.18,0,0,0-2-2.32,21.43,21.43,0,0,1-2-2.37,5.43,5.43,0,0,1-1.11-2.35,3.8,3.8,0,0,1,1-2.62,7,7,0,0,1,6.43-2,14.77,14.77,0,0,1,5.93,2.54,16,16,0,0,1,4.57,4.49,13,13,0,0,1,1.84,6.75,16.63,16.63,0,0,1-2.06,8.16,41.3,41.3,0,0,1-5.32,7.16c-.77.91.54,2.23,1.32,1.32A49,49,0,0,0,350,430a19.21,19.21,0,0,0,2.58-7.85,16.38,16.38,0,0,0-1.21-8,14.75,14.75,0,0,0-4.41-5.47c-3.77-3.06-9.16-5.48-13.93-3.25-2.09,1-4.13,3.36-3.88,5.81.23,2.17,1.91,4,3.32,5.56.38.42.77.83,1.16,1.24s1.07.94,1,1.44c0,.28-.34.56-.5.76s-.48.63-.7,1a15.48,15.48,0,0,0-1,1.82,15.76,15.76,0,0,0-1.45,8.79,1,1,0,0,0,.93.93.94.94,0,0,0,.93-.93Z"/><path d="M334.07,385.72c-2.26-2.58-6.18-3-9.2-1.6-3.25,1.47-5.26,5-5.84,8.36a19.14,19.14,0,0,0,.12,6.45,27,27,0,0,0,1.61,5.83,5.57,5.57,0,0,0,8.66,2.86,7.55,7.55,0,0,0,3-5,11.48,11.48,0,0,0,0-3.26,9.17,9.17,0,0,1,0-3.54l-1.14.65a4.86,4.86,0,0,1,2.94,4.48.93.93,0,0,0,1.86,0,6.77,6.77,0,0,0-4.31-6.28.93.93,0,0,0-1.14.65c-.52,1.83,0,3.62.05,5.46a7.06,7.06,0,0,1-1.2,4.21,4.46,4.46,0,0,1-3.51,1.86,3.57,3.57,0,0,1-3.24-2.09,18.75,18.75,0,0,1-1.54-4.79,20,20,0,0,1-.56-5.6c.16-2.95,1.36-6.1,3.82-7.87s6.16-1.81,8.24.57c.79.9,2.1-.42,1.32-1.32Z"/><path d="M296.55,390.06a62.12,62.12,0,0,0,5.91,8.39.93.93,0,0,0,1.32-1.31,60.48,60.48,0,0,1-5.63-8,.93.93,0,0,0-1.6.94Z"/><path d="M309.83,389.24l3.35,4.77a.94.94,0,0,0,1.27.33.93.93,0,0,0,.33-1.27l-3.35-4.77a1,1,0,0,0-1.27-.34.94.94,0,0,0-.33,1.28Z"/></g></g></svg>