<svg xmlns="http://www.w3.org/2000/svg" xmlns:xlink="http://www.w3.org/1999/xlink" viewBox="0 0 550 550"><defs><style>.cls-1{fill:none;}.cls-2{fill:#bd1e7b;}.cls-3{fill:#f9e876;}.cls-4{fill:#a4ce60;}.cls-5{fill:#050608;}.cls-6{fill:#a9552f;}.cls-7{fill:#fff;}.cls-8{fill:#802a83;}.cls-9{fill:#185228;}.cls-10{fill:#76a825;}.cls-11{fill:#118cad;}.cls-12{fill:#d28170;}.cls-13{fill:#a2a2a4;}.cls-14{opacity:0.46;}.cls-15{fill:#f3a8ad;}.cls-16{fill:#55b949;}.cls-17{fill:#f6bec2;}.cls-18{fill:#0dab4c;}.cls-19{fill:#5e5e5e;}.cls-20{fill:#34badb;}.cls-21{fill:#b1dfec;}.cls-22{fill:#1c5229;}.cls-23{clip-path:url(#clip-path);}.cls-24{clip-path:url(#clip-path-2);}.cls-25{fill:#f4a9ae;}.cls-26{fill:#9fa0a0;}.cls-27{fill:#006880;}.cls-28{fill:#14b8dd;}.cls-29{clip-path:url(#clip-path-4);}.cls-30{fill:#ff2c59;}</style><clipPath id="clip-path"><ellipse class="cls-1" cx="268.47" cy="279.46" rx="259.47" ry="267.54"/></clipPath><clipPath id="clip-path-2"><polygon class="cls-1" points="267.18 315.73 375.48 298.56 388.48 385.76 280.18 402.92 267.18 315.73"/></clipPath><clipPath id="clip-path-4"><polygon class="cls-1" points="155.39 268.91 115.48 256.92 108.6 281.26 148.5 293.25 155.39 268.91"/></clipPath></defs><g id="Layer_19" data-name="Layer 19"><ellipse class="cls-2" cx="268.47" cy="279.46" rx="259.47" ry="267.54"/><ellipse class="cls-3" cx="304.37" cy="94.93" rx="84.35" ry="85.67"/><path d="M304.37,186.93h-.7a1.31,1.31,0,0,1,0-2.61h.69a86.87,86.87,0,0,0,9.28-.51A1.27,1.27,0,0,1,315,185a1.29,1.29,0,0,1-1.12,1.43A86.77,86.77,0,0,1,304.37,186.93Zm-10.78-.67h-.16a86.62,86.62,0,0,1-10.09-1.9,1.3,1.3,0,0,1-.93-1.57,1.26,1.26,0,0,1,1.53-1,85.44,85.44,0,0,0,9.8,1.84,1.29,1.29,0,0,1,1.1,1.45A1.27,1.27,0,0,1,293.59,186.26Zm30.17-1.54a1.29,1.29,0,0,1-1.24-1,1.32,1.32,0,0,1,1-1.56,84.2,84.2,0,0,0,9.58-2.84,1.25,1.25,0,0,1,1.61.8,1.31,1.31,0,0,1-.77,1.66,87.74,87.74,0,0,1-9.86,2.93ZM274,181.35a1.36,1.36,0,0,1-.44-.08,87,87,0,0,1-9.4-4.25,1.31,1.31,0,0,1-.56-1.75,1.25,1.25,0,0,1,1.7-.57,84.93,84.93,0,0,0,9.14,4.12,1.33,1.33,0,0,1,.75,1.68A1.28,1.28,0,0,1,274,181.35Zm68.85-3.54a1.27,1.27,0,0,1-1.14-.73,1.34,1.34,0,0,1,.58-1.75,85.57,85.57,0,0,0,8.69-5,1.25,1.25,0,0,1,1.75.39,1.34,1.34,0,0,1-.39,1.81,89.46,89.46,0,0,1-8.94,5.18A1.17,1.17,0,0,1,342.81,177.81ZM256,171.91a1.23,1.23,0,0,1-.7-.22,89.35,89.35,0,0,1-8.21-6.34,1.34,1.34,0,0,1-.15-1.84,1.24,1.24,0,0,1,1.78-.16,87.55,87.55,0,0,0,8,6.17,1.33,1.33,0,0,1,.35,1.81A1.23,1.23,0,0,1,256,171.91Zm103.86-5.33a1.23,1.23,0,0,1-1-.48,1.33,1.33,0,0,1,.18-1.83,89.34,89.34,0,0,0,7.35-7,1.25,1.25,0,0,1,1.79,0,1.33,1.33,0,0,1,0,1.84,91.17,91.17,0,0,1-7.56,7.15A1.22,1.22,0,0,1,359.81,166.58Zm-119.3-8.09a1.25,1.25,0,0,1-.92-.41A93.26,93.26,0,0,1,233,150a1.33,1.33,0,0,1,.26-1.83,1.24,1.24,0,0,1,1.77.27,91.3,91.3,0,0,0,6.41,7.87,1.33,1.33,0,0,1-.05,1.84A1.25,1.25,0,0,1,240.51,158.49Zm133.38-6.83a1.25,1.25,0,0,1-.77-.27,1.34,1.34,0,0,1-.23-1.83,90.45,90.45,0,0,0,5.63-8.49,1.24,1.24,0,0,1,1.74-.44,1.32,1.32,0,0,1,.43,1.79,94.28,94.28,0,0,1-5.79,8.73A1.27,1.27,0,0,1,373.89,151.66ZM228.43,141.8a1.25,1.25,0,0,1-1.09-.65,91.55,91.55,0,0,1-4.64-9.43,1.33,1.33,0,0,1,.66-1.72,1.25,1.25,0,0,1,1.66.68,91.41,91.41,0,0,0,4.5,9.16,1.33,1.33,0,0,1-.45,1.79A1.23,1.23,0,0,1,228.43,141.8Zm155.89-8a1.2,1.2,0,0,1-.52-.12,1.32,1.32,0,0,1-.63-1.73,92.88,92.88,0,0,0,3.6-9.59,1.26,1.26,0,0,1,1.59-.84,1.31,1.31,0,0,1,.82,1.64,92.93,92.93,0,0,1-3.71,9.87A1.27,1.27,0,0,1,384.32,133.82Zm-164-11.1a1.28,1.28,0,0,1-1.21-.92,95.41,95.41,0,0,1-2.41-10.29,1.29,1.29,0,0,1,1-1.51,1.27,1.27,0,0,1,1.47,1,92.23,92.23,0,0,0,2.34,10,1.3,1.3,0,0,1-.84,1.62A1.19,1.19,0,0,1,220.36,122.72ZM390.51,114l-.25,0a1.3,1.3,0,0,1-1-1.53,93.93,93.93,0,0,0,1.37-10.18,1.27,1.27,0,0,1,1.36-1.2,1.29,1.29,0,0,1,1.16,1.41,94.06,94.06,0,0,1-1.41,10.47A1.28,1.28,0,0,1,390.51,114ZM216.75,102.23a1.28,1.28,0,0,1-1.26-1.22c-.13-2-.2-4.06-.2-6.08a97.63,97.63,0,0,1,.58-10.56,1.28,1.28,0,0,1,1.4-1.15,1.3,1.3,0,0,1,1.12,1.45,92.17,92.17,0,0,0-.57,10.26c0,2,.07,4,.19,5.91a1.29,1.29,0,0,1-1.18,1.39Zm175.39-9A1.27,1.27,0,0,1,390.88,92,94.28,94.28,0,0,0,390,81.73a1.3,1.3,0,0,1,1.07-1.48,1.27,1.27,0,0,1,1.43,1.1,94.87,94.87,0,0,1,.92,10.53,1.3,1.3,0,0,1-1.23,1.35ZM218.85,75.55a.9.9,0,0,1-.28,0,1.3,1.3,0,0,1-.95-1.56,95.8,95.8,0,0,1,2.9-10.16,1.27,1.27,0,0,1,1.62-.78,1.32,1.32,0,0,1,.77,1.67,90.26,90.26,0,0,0-2.82,9.86A1.29,1.29,0,0,1,218.85,75.55Zm170.34-2.92a1.27,1.27,0,0,1-1.22-1,92.41,92.41,0,0,0-3.14-9.76,1.31,1.31,0,0,1,.71-1.69,1.24,1.24,0,0,1,1.64.73,93.12,93.12,0,0,1,3.23,10,1.31,1.31,0,0,1-.89,1.6A1.24,1.24,0,0,1,389.19,72.63ZM225.68,55.94a1.14,1.14,0,0,1-.56-.14,1.32,1.32,0,0,1-.58-1.74,94.68,94.68,0,0,1,5.09-9.2,1.25,1.25,0,0,1,1.75-.38,1.33,1.33,0,0,1,.37,1.8,89.36,89.36,0,0,0-4.94,8.94A1.27,1.27,0,0,1,225.68,55.94Zm156.06-2.66a1.27,1.27,0,0,1-1.12-.69,89.66,89.66,0,0,0-5.21-8.75,1.34,1.34,0,0,1,.31-1.82,1.24,1.24,0,0,1,1.76.33,90.69,90.69,0,0,1,5.37,9,1.34,1.34,0,0,1-.51,1.77A1.3,1.3,0,0,1,381.74,53.28ZM236.67,38.47a1.23,1.23,0,0,1-.8-.3,1.34,1.34,0,0,1-.18-1.84,91.73,91.73,0,0,1,7-7.76,1.24,1.24,0,0,1,1.79,0,1.33,1.33,0,0,1,0,1.84A88,88,0,0,0,237.65,38,1.28,1.28,0,0,1,236.67,38.47ZM370.2,36.2a1.23,1.23,0,0,1-.95-.45,87.92,87.92,0,0,0-7-7.3,1.33,1.33,0,0,1-.09-1.84,1.23,1.23,0,0,1,1.78-.1A90,90,0,0,1,371.15,34a1.34,1.34,0,0,1-.11,1.84A1.24,1.24,0,0,1,370.2,36.2ZM251.22,24a1.24,1.24,0,0,1-1-.52,1.31,1.31,0,0,1,.24-1.82,86.69,86.69,0,0,1,8.5-5.92,1.24,1.24,0,0,1,1.73.45,1.33,1.33,0,0,1-.44,1.79A86.46,86.46,0,0,0,252,23.76,1.25,1.25,0,0,1,251.22,24Zm104-1.77a1.19,1.19,0,0,1-.73-.25A87.49,87.49,0,0,0,346,16.54a1.33,1.33,0,0,1-.5-1.77,1.25,1.25,0,0,1,1.72-.51,87.68,87.68,0,0,1,8.69,5.63,1.34,1.34,0,0,1,.3,1.82A1.26,1.26,0,0,1,355.19,22.26Zm-86.61-8.87a1.27,1.27,0,0,1-1.16-.77,1.32,1.32,0,0,1,.64-1.73,85.41,85.41,0,0,1,9.59-3.75,1.25,1.25,0,0,1,1.59.85,1.32,1.32,0,0,1-.83,1.64,85.22,85.22,0,0,0-9.32,3.64A1.19,1.19,0,0,1,268.58,13.39Zm68.92-1.18a1.18,1.18,0,0,1-.48-.1,85.08,85.08,0,0,0-9.43-3.33,1.3,1.3,0,0,1-.88-1.6,1.26,1.26,0,0,1,1.56-.91A86.78,86.78,0,0,1,338,9.7a1.31,1.31,0,0,1,.69,1.7A1.27,1.27,0,0,1,337.5,12.21ZM287.84,7.14a1.29,1.29,0,0,1-1.25-1.06,1.31,1.31,0,0,1,1-1.53,86.89,86.89,0,0,1,10.17-1.38,1.29,1.29,0,0,1,1.36,1.21A1.31,1.31,0,0,1,298,5.78a84.23,84.23,0,0,0-9.89,1.34ZM318,6.63l-.19,0a84.59,84.59,0,0,0-9.92-1A1.31,1.31,0,0,1,308,3a87.18,87.18,0,0,1,10.21,1,1.3,1.3,0,0,1,1.05,1.49A1.28,1.28,0,0,1,318,6.63Z"/><ellipse cx="234.09" cy="42.49" rx="17.53" ry="18.08"/><path class="cls-3" d="M229,51.29a1.31,1.31,0,0,1,0-2.61l3.6-.06c.14-3.55.28-7.18.2-10.62l-2.12,1.42a1.25,1.25,0,0,1-1.75-.38,1.34,1.34,0,0,1,.37-1.81l4-2.67a1.21,1.21,0,0,1,1.26-.07,1.3,1.3,0,0,1,.69,1.08c.24,4.07.09,8.41-.08,12.66l3,.28a1.31,1.31,0,0,1,1.15,1.35A1.3,1.3,0,0,1,238,51.12c-3,.07-6,.12-9.05.17Z"/><path class="cls-4" d="M263.18,127.26c5.15,2.74,17.06,8.47,23.72,6.17,4-1.38,4.26-7,5.24-14.1-6.12,26.49-3.82,39.78-1.22,53.32.36,1.86.22,3.94,1.35,5.43,1.46,1.92,4.06,2.27,6.39,2.4,17.46.92,33.44-3.39,48.89-11.68.66-13.88,1-27.25-2.39-40.69a43.28,43.28,0,0,0,20-8.43c-3.7-8.52-10.69-23.67-18.78-27.5-6.36-3-22.18-3-29.06-2-15.76,2.45-23.69.71-39,5.37-7.51,2.28-12.72,13-17.75,20.58A7.8,7.8,0,0,0,263.18,127.26Z"/><path d="M348.69,163.19h0a.65.65,0,0,1-.62-.67c.51-19.11-1.08-33.53-5.68-51.43a.65.65,0,0,1,.45-.8.64.64,0,0,1,.78.46c4.63,18,6.23,32.56,5.72,51.8A.64.64,0,0,1,348.69,163.19Z"/><path d="M346.48,127.89a.63.63,0,0,1-.61-.48.66.66,0,0,1,.44-.8,74.1,74.1,0,0,0,16.31-6.73.62.62,0,0,1,.85.27.65.65,0,0,1-.25.88,75.86,75.86,0,0,1-16.58,6.84Z"/><path class="cls-5" d="M336.58,88c3.93,1.1,8.18-1.24,10.56-4.68s3.63-4.81,4.19-14A61,61,0,0,0,345,38.74a42.14,42.14,0,0,0-15.57-16.66c-15.27-9.42-34-6.75-48.72,3.61S257.78,55.6,260.39,73.94c1.7,12,7.91,23.34,17.48,30.13a22.77,22.77,0,0,0,9.69,4.25,12.81,12.81,0,0,0,10-2.52c1.57-1.29,2.77-3,4.35-4.3a20.16,20.16,0,0,1,6-2.93c9.74-3.46,19.49-6.93,28.93-11C336.75,87.52,336.64,87.52,336.58,88Z"/><path class="cls-6" d="M330.77,37.74h-.14c-1.37-3.84-5.65-5.65-9.61-6.06a24.74,24.74,0,0,0-19.8,7.08,26.42,26.42,0,0,0-7.51,20.18l.29-.27v.15L294,58.7c-3.18-7.54-14.24-4.87-13.94,3.35.25,6.85,4.11,14.72,9.1,16.58,2,21.78,30.92,30.83,44.8,13.85,10.45-16.42,4.7-39.46-3.66-55.71"/><path class="cls-5" d="M292.73,56.37A21.81,21.81,0,0,0,300,47.12,11.65,11.65,0,0,0,310.37,49a13.48,13.48,0,0,0,7.95-7.28c4.12,1.22,8.44,2.45,12.62,1.48s14.56-6.18,11.22-9c-4.67-4-3.86-4.26-14.25-8.6C314.8,20.08,299.07,31.83,293,45.23,291.36,48.82,290.43,53.42,292.73,56.37Z"/><path class="cls-5" d="M287,76.78a17,17,0,0,1,8.62,4.8,44.4,44.4,0,0,1,5.83,7.66,28.23,28.23,0,0,1,3.35,6.26,8.85,8.85,0,0,1-.14,6.71c-1.15,2.3-3.61,3.85-6.26,4.66A34.91,34.91,0,0,1,290.1,108"/><path class="cls-5" d="M321.8,50.3a1.62,1.62,0,0,1-1-.36,1.77,1.77,0,0,1-.31-2.44A7.31,7.31,0,0,1,332,47.4a1.76,1.76,0,0,1-.26,2.44,1.65,1.65,0,0,1-2.37-.27,3.82,3.82,0,0,0-3.07-1.44h0a3.87,3.87,0,0,0-3.1,1.5A1.66,1.66,0,0,1,321.8,50.3Z"/><path class="cls-5" d="M301.67,57.56a1.65,1.65,0,0,1-.38-.05A1.73,1.73,0,0,1,300,55.43a7.4,7.4,0,0,1,4.05-5.07,7,7,0,0,1,6.36,0,1.77,1.77,0,0,1,.75,2.34,1.66,1.66,0,0,1-2.26.77,3.79,3.79,0,0,0-3.41,0,4,4,0,0,0-2.2,2.7A1.7,1.7,0,0,1,301.67,57.56Z"/><path class="cls-7" d="M328.2,54c-4.75.28-7.78,3.19-5.44,5.56a3.69,3.69,0,0,0,2.95,1c2.54-.2,5.65-.72,7-2.81C333.31,55.33,331,54,328.2,54Z"/><path class="cls-7" d="M306.83,59.51c4.33-1.95,8.3-.79,7.3,2.39a3.83,3.83,0,0,1-2.19,2.3c-2.32,1-5.28,2-7.39.8a.52.52,0,0,1-.16-.14C302.89,63,304.35,60.81,306.83,59.51Z"/><ellipse cx="328.3" cy="58.61" rx="1.48" ry="1.63"/><ellipse cx="311.25" cy="62.73" rx="1.58" ry="1.6"/><path d="M319.88,78.74h-.16c-1.81-.12-3.36-2.21-3.25-4.4a.84.84,0,1,1,1.68.09c-.06,1.32.87,2.52,1.67,2.58a1.32,1.32,0,0,0,1-.42,2.7,2.7,0,0,0,.74-1.86.85.85,0,0,1,.63-.85.83.83,0,0,1,1,.42,4.29,4.29,0,0,0,1,1.36.83.83,0,0,0,.79.21,1.63,1.63,0,0,0,.59-1.24,6.45,6.45,0,0,0-.29-2.16A17.06,17.06,0,0,0,321,65a.9.9,0,0,1,0-1.23.84.84,0,0,1,1.2,0A18.84,18.84,0,0,1,326.8,72a7.8,7.8,0,0,1,.34,2.79,3.18,3.18,0,0,1-1.54,2.65,2.36,2.36,0,0,1-2.55-.41l-.32-.29a4,4,0,0,1-.79,1.11A3,3,0,0,1,319.88,78.74Z"/><path d="M320.66,89a11.23,11.23,0,0,1-9.42-4.69.9.9,0,0,1,.24-1.21.82.82,0,0,1,1.17.24c1.73,2.69,5.53,4.27,9.24,3.85a7.5,7.5,0,0,0,6.53-4.71.84.84,0,0,1,1.09-.5A.89.89,0,0,1,330,83.1a9.13,9.13,0,0,1-7.91,5.81A13.67,13.67,0,0,1,320.66,89Z"/><path d="M309.07,86.13a3.69,3.69,0,0,1-1-.13.88.88,0,0,1-.6-1.07.83.83,0,0,1,1-.61,2.48,2.48,0,0,0,2.61-1,2.64,2.64,0,0,0,0-2.86.88.88,0,0,1,.18-1.22.84.84,0,0,1,1.18.19,4.46,4.46,0,0,1,.07,4.88A4.19,4.19,0,0,1,309.07,86.13Z"/><path d="M320.86,91.74a7.09,7.09,0,0,1-2.87-.59.88.88,0,0,1-.46-1.13.84.84,0,0,1,1.11-.47,5.7,5.7,0,0,0,4.73-.13.83.83,0,0,1,1.12.41A.87.87,0,0,1,324.1,91,7.3,7.3,0,0,1,320.86,91.74Z"/><path d="M294,68.39a.85.85,0,0,1-.81-.64A9.55,9.55,0,0,0,290.76,63a3.92,3.92,0,0,0-4.38-.83.82.82,0,0,1-1.14-.34.89.89,0,0,1,.33-1.19,5.49,5.49,0,0,1,6.31,1.07,11.12,11.12,0,0,1,3,5.59.88.88,0,0,1-.6,1.07A.83.83,0,0,1,294,68.39Z"/><path class="cls-6" d="M312.28,96.29c-1.82,1.49-3.8,3.44-4.07,6.12a5.82,5.82,0,0,0,1.73,4.75,8.68,8.68,0,0,0,3.95,1.89,16.06,16.06,0,0,0,8.12.24,11.9,11.9,0,0,0,7.17-5.65c1.71-3,2.22-7.21.86-10.12C323.92,93.42,317.09,92.35,312.28,96.29Z"/><path d="M319.28,102a13.81,13.81,0,0,1-2.49-.22,1.74,1.74,0,0,1-1.37-2,1.7,1.7,0,0,1,1.95-1.42c5.73,1,12.14-2.67,16-9.2,3.4-5.81,5-13.84,4.5-22.6-.46-8.15-2.56-16.14-4.68-23.64a1.75,1.75,0,0,1,1.15-2.15,1.67,1.67,0,0,1,2.09,1.18c2.17,7.68,4.32,15.9,4.81,24.4.38,6.7-.17,16.4-5,24.6C332.21,97.8,325.64,102,319.28,102Z"/><path class="cls-6" d="M267.41,126.72c4.07,4.62,10.18,4.7,21.09,5.79-6.81,9-12.86,18.79-23.47,21.8-1.12.32-2.46.56-3.35-.23-1.09-1-.8-2.76-.36-4.19C264.31,140.18,260.07,133.83,267.41,126.72Z"/><path class="cls-8" d="M295,94.36c-3.95-5.18-9.65-11.14-9.91-18,.39-1.46,1.66-2.42,2.66-3.5,6.45-6.14,1.44-19-7.49-16.76C260.27,67,286,109.39,302,113.76c12.57,3.51,17.18-13.67,9.09-20.27-3.24-3.19-10.47-1.55-10.07,3.1,0,.59,0,1.22-.56,1.37C298.85,98.37,297.3,97,295,94.36Z"/><path class="cls-6" d="M278.08,85.48c1.3,0,4,0,7.46-4.61,4.91-1.1,5.77,2.77,2.23,4.28,4.77-4.78,9.53,1.29,3,4.06,3.56-5.38,9.72,3.28,3.15,4,1.39-.77,2.47-.55,3.14.28a2.83,2.83,0,0,1-.44,3.81c-2.78,2.47-5.44,4.86-9.41,6.1-9.85,2-16.49-13.19-14.4-18.83,1.93-3,3.23-1.83,3.94,0A1.45,1.45,0,0,0,278.08,85.48Z"/><path class="cls-6" d="M276.79,91.18c-7.67,14.58-8.18,16-15.13,29.21a167.45,167.45,0,0,0-7.33,16.31A25.53,25.53,0,0,0,253,150.9c.54,2.36,1.73,4.74,3.75,5.54a7.06,7.06,0,0,0,4.53-.19,13.6,13.6,0,0,0,6.52-3.66c1.93-2.13,2.88-5.13,3.76-8l12.53-40.8c.59-2,1.2-4.07.67-6C284,95.15,279.1,90.09,276.79,91.18Z"/><path d="M261.92,156.32a.62.62,0,0,1-.54-.32.66.66,0,0,1,.21-.89c4.17-2.59,7.67-7,10.12-12.8a108,108,0,0,0,5.19-16.16c.67-2.73,1.27-5,1.9-7.43.71-2.69,1.43-5.47,2.35-9.17a.63.63,0,0,1,.77-.47.65.65,0,0,1,.46.79c-.92,3.71-1.65,6.5-2.35,9.19-.63,2.4-1.23,4.69-1.91,7.41a109.14,109.14,0,0,1-5.25,16.36c-2.55,6-6.23,10.67-10.62,13.4A.68.68,0,0,1,261.92,156.32Z"/><path d="M286.32,132.94a7.86,7.86,0,0,1-1.37-.15l-7.66-1.32a.67.67,0,0,1-.52-.76.64.64,0,0,1,.73-.53l7.66,1.33a3.58,3.58,0,0,0,2,0c.89-.39,1.28-1.6,1.57-2.86l2.84-12.35a.63.63,0,0,1,.76-.48.65.65,0,0,1,.47.78l-2.84,12.35c-.37,1.59-.9,3.15-2.31,3.76A3.24,3.24,0,0,1,286.32,132.94Z"/><path class="cls-6" d="M339.14,163.41c1.75,4,7,5.44,11,3.91s6.81-5.31,8.57-9.31c4.77-10.84,3.06-23.39,1.3-35l-13.33,5.27c1,6.31,2,12.73,1.31,19.09S344.59,160.17,339.14,163.41Z"/><path class="cls-9" d="M323.83,154.82l-2.6-27.89a3.35,3.35,0,0,1,2.94-3.69l31.27-3.1a3.3,3.3,0,0,1,3.57,3l2.61,27.89a3.36,3.36,0,0,1-2.95,3.68l-31.27,3.1A3.31,3.31,0,0,1,323.83,154.82Z"/><polygon class="cls-10" points="338.32 156.59 335.11 122.17 342.73 121.41 345.94 155.83 338.32 156.59"/><path class="cls-6" d="M348.77,153.5a11.56,11.56,0,0,0,3.82-.87c1.1-.46,3.94.85,3.91,2.07s-3.09,1.44-3.86,2.36c-20.95,19.85-30.52-12.59-20.72-7.95-2-4.18,4.86-6.16,5.29-1.53-2.35-4.29,4.87-5.84,4.38-1-.61-2.49,3-2.36,3.41-.15,1.2,2.09.33,6.68,3.37,6.73"/><path d="M338,164.2a7.85,7.85,0,0,1-1.27-.1,9.78,9.78,0,0,1-6.5-5,30,30,0,0,1-2.82-7.78.66.66,0,0,1,.45-.8.63.63,0,0,1,.77.46,29,29,0,0,0,2.68,7.44,8.53,8.53,0,0,0,5.62,4.4,9.92,9.92,0,0,0,4.91-.71,33.14,33.14,0,0,0,11.21-7,2.27,2.27,0,0,1,1.73-.59c.37,0,.75,0,.85-.2a.51.51,0,0,0-.17-.5,2.15,2.15,0,0,0-1-.38,10.64,10.64,0,0,0-5.82.69.63.63,0,0,1-.83-.35.66.66,0,0,1,.35-.85,11.87,11.87,0,0,1,6.5-.77,3,3,0,0,1,1.66.68,1.78,1.78,0,0,1,.4,2.19,2.11,2.11,0,0,1-1.85.79c-.37,0-.75,0-.89.2a34.53,34.53,0,0,1-11.69,7.36A12.94,12.94,0,0,1,338,164.2Z"/><path d="M335.36,157.44a.61.61,0,0,1-.53-.3,33.67,33.67,0,0,1-3.24-6.7.66.66,0,0,1,.38-.84.63.63,0,0,1,.81.39,33.06,33.06,0,0,0,3.11,6.45.67.67,0,0,1-.19.9A.61.61,0,0,1,335.36,157.44Z"/><path d="M340.31,155.35a.63.63,0,0,1-.55-.32,37.7,37.7,0,0,1-3.07-7.08.65.65,0,0,1,.4-.82.63.63,0,0,1,.8.41,37.39,37.39,0,0,0,3,6.84.65.65,0,0,1-.23.89A.6.6,0,0,1,340.31,155.35Z"/><path d="M344.4,154.28a.62.62,0,0,1-.56-.36A55,55,0,0,1,341,147a.66.66,0,0,1,.39-.83.63.63,0,0,1,.81.4,52.48,52.48,0,0,0,2.75,6.73.68.68,0,0,1-.28.88A.77.77,0,0,1,344.4,154.28Z"/><path d="M280.65,177.07l-.16,0a4.35,4.35,0,0,1-3.13-4.08,4.41,4.41,0,0,1,2.3-3.86,7.71,7.71,0,0,1,.52-1.42,6.49,6.49,0,0,1,1.6-2.24,6.81,6.81,0,0,1,1.9-5.51.77.77,0,0,1,0-.15,7.4,7.4,0,0,1,1-3.89,8.87,8.87,0,0,1,1.7-2.48,7.39,7.39,0,0,1,.23-1.86,6.63,6.63,0,0,1,2.09-3.59l0-.09a4.59,4.59,0,0,1,2-5.11,5.09,5.09,0,0,1,.75-4.53,4.57,4.57,0,0,1-.29-3.35,4.39,4.39,0,0,1,1.59-2.23,5.59,5.59,0,0,1,0-3.24,5.4,5.4,0,0,1,1.71-2.48A4.73,4.73,0,0,1,295,124a8,8,0,0,1,1-1.43,5.43,5.43,0,0,1,0-4.43,5.13,5.13,0,0,1,2.2-2.31,6.14,6.14,0,0,1,.87-2.89,5.4,5.4,0,0,1,3.88-2.66.65.65,0,0,1,.14,1.3,4.09,4.09,0,0,0-2.94,2,4.61,4.61,0,0,0-.63,1.71,4.53,4.53,0,0,1,1.94,0,3.35,3.35,0,0,1,2.3,1.58,2.26,2.26,0,0,1,.15,1.9A2.35,2.35,0,0,1,302,120.3a3.48,3.48,0,0,1-3.5-2.6c-.05-.14-.09-.28-.13-.43a3.76,3.76,0,0,0-1.21,1.44,4,4,0,0,0-.14,2.9,3.32,3.32,0,0,1,1.69-.74,2.57,2.57,0,0,1,2.46,1.65,1.86,1.86,0,0,1-.51,2.19,2.31,2.31,0,0,1-2.62.16,4.85,4.85,0,0,1-1.33-1.14,6,6,0,0,0-.59.9,3.27,3.27,0,0,0-.44,1.56,4.37,4.37,0,0,1,1-.31c1.44-.29,3.07.25,3.4,1.84a2.41,2.41,0,0,1-1.66,2.75,2.62,2.62,0,0,1-2.27-.32,3.66,3.66,0,0,1-1.38-1.73,3.95,3.95,0,0,0-.9,3.61,4,4,0,0,1,1.93-.22,2.76,2.76,0,0,1,2,1.17,1.79,1.79,0,0,1,.21,1.51,2,2,0,0,1-1.15,1.31,2.15,2.15,0,0,1-1.89-.17,4.86,4.86,0,0,1-1.69-1.74,3.12,3.12,0,0,0-.92,1.39,3.27,3.27,0,0,0,.06,2l.31-.21a3,3,0,0,1,2.68-.33,2.27,2.27,0,0,1,1.2,1.25,1.92,1.92,0,0,1,0,1.47,1.79,1.79,0,0,1-1.09,1,2.86,2.86,0,0,1-2.24-.23,4.29,4.29,0,0,1-1-.81,3.74,3.74,0,0,0-.34,2.94,4.21,4.21,0,0,1,2.7.42,1.57,1.57,0,0,1,.69,2,1.42,1.42,0,0,1-1.88.8,4.91,4.91,0,0,1-2.11-1.67,3.3,3.3,0,0,0-1.43,3.39h0a3.4,3.4,0,0,1,2.52.12,1.66,1.66,0,0,1,.82,2.2,1.58,1.58,0,0,1-2.11.92,4.49,4.49,0,0,1-1.78-1.41,5.79,5.79,0,0,0-1.48,2.76c-.05.18-.09.39-.13.61a4.48,4.48,0,0,1,.62-.2,3.17,3.17,0,0,1,3.16,1.3,2.31,2.31,0,0,1,.14,2.54,2.38,2.38,0,0,1-1.64,1.15,2.75,2.75,0,0,1-2.22-.6,3.65,3.65,0,0,1-1.12-1.62,9.51,9.51,0,0,0-.84,1.42,7.72,7.72,0,0,0-.84,2.49,3.53,3.53,0,0,1,2.58-.37,2.11,2.11,0,0,1,1.29,1.08,2.22,2.22,0,0,1,0,1.93,2.36,2.36,0,0,1-1.67,1.29,2.55,2.55,0,0,1-2.13-.5,3.42,3.42,0,0,1-.89-1.06,5.61,5.61,0,0,0-1.14,3.42,3,3,0,0,1,1.95,0,2.42,2.42,0,0,1,1.42,1.45,2.24,2.24,0,0,1-.08,1.74,1.93,1.93,0,0,1-1.18,1c-1.28.39-2.37-.64-2.88-1.83a2.33,2.33,0,0,1-.11-.28,6.32,6.32,0,0,0-.81,1.34c-.07.14-.13.29-.19.42a3,3,0,0,1,2.3.78,2.57,2.57,0,0,1,.66,2.46,2,2,0,0,1-1.6,1.46,2.38,2.38,0,0,1-2.39-1,3.46,3.46,0,0,1-.59-1.55,3.11,3.11,0,0,0-.88,2.14,3,3,0,0,0,2.17,2.82.65.65,0,0,1,.46.79A.64.64,0,0,1,280.65,177.07Zm.11-7a2.24,2.24,0,0,0,.37,1.54,1.13,1.13,0,0,0,1.12.5.74.74,0,0,0,.62-.54,1.22,1.22,0,0,0-.31-1.15A1.91,1.91,0,0,0,280.76,170.06Zm2.43-4a5.89,5.89,0,0,0,.21.59c.2.47.74,1.3,1.36,1.11a.66.66,0,0,0,.4-.36.9.9,0,0,0,0-.7,1.09,1.09,0,0,0-.68-.68A1.91,1.91,0,0,0,283.19,166.08Zm1.91-5.67a2.27,2.27,0,0,0,.7,1,1.31,1.31,0,0,0,1.12.27,1.08,1.08,0,0,0,.77-.57.83.83,0,0,0,0-.78.79.79,0,0,0-.51-.41,2.25,2.25,0,0,0-1.72.32A3.78,3.78,0,0,0,285.1,160.41Zm2.53-6.41a2.51,2.51,0,0,0,.88,1.66,1.48,1.48,0,0,0,1.21.34,1.1,1.1,0,0,0,.78-.54,1,1,0,0,0-.09-1.1,1.9,1.9,0,0,0-1.85-.79A2.79,2.79,0,0,0,287.63,154Zm2.76-5.52a3.1,3.1,0,0,0,1.16.85.32.32,0,0,0,.44-.23.33.33,0,0,0-.15-.48A2.23,2.23,0,0,0,290.39,148.48Zm2.18-4.92a3.85,3.85,0,0,0,1.22.82s.17.07.25-.13a.23.23,0,0,0-.1-.33A3.11,3.11,0,0,0,292.57,143.56Zm.41-5.16a2.85,2.85,0,0,0,.79.64,1.69,1.69,0,0,0,1.25.15.52.52,0,0,0,.34-.29.58.58,0,0,0,0-.45,1,1,0,0,0-.49-.52,1.81,1.81,0,0,0-1.57.25Zm1.32-5.16a3.65,3.65,0,0,0,1.23,1.27.9.9,0,0,0,.78.07.66.66,0,0,0,.41-.46.47.47,0,0,0-.06-.43,1.58,1.58,0,0,0-1.06-.59A2.89,2.89,0,0,0,294.3,133.24Zm1.49-5.67a2.51,2.51,0,0,0,1,1.48,1.43,1.43,0,0,0,1.23.18,1.13,1.13,0,0,0,.8-1.24c-.18-.86-1.25-1-1.93-.83A3.36,3.36,0,0,0,295.79,127.57Zm1.79-4.78a3.31,3.31,0,0,0,1,.93,1.09,1.09,0,0,0,1.21,0A.54.54,0,0,0,300,123a1.33,1.33,0,0,0-1.19-.84A2.39,2.39,0,0,0,297.58,122.79Zm1.93-6.1q.06.28.15.57c.31.88,1.07,1.87,2.17,1.74a1.1,1.1,0,0,0,.89-.67.93.93,0,0,0-.07-.81,2.16,2.16,0,0,0-1.43-.94A3.43,3.43,0,0,0,299.51,116.69Z"/><ellipse cx="303.36" cy="110.83" rx="1.07" ry="1.6" transform="translate(13.83 253.96) rotate(-46.38)"/><ellipse class="cls-3" cx="453.38" cy="241.47" rx="83.88" ry="85.19"/><path d="M453.47,333.63h-.7a1.3,1.3,0,0,1,0-2.59h.69a85.74,85.74,0,0,0,9.22-.5,1.26,1.26,0,0,1,1.38,1.15,1.28,1.28,0,0,1-1.11,1.43A88.19,88.19,0,0,1,453.47,333.63ZM442.75,333h-.16a85.34,85.34,0,0,1-10-1.88,1.29,1.29,0,0,1-.92-1.56,1.26,1.26,0,0,1,1.52-1,82.1,82.1,0,0,0,9.75,1.83,1.3,1.3,0,0,1-.15,2.58Zm30-1.53a1.26,1.26,0,0,1-1.22-1,1.29,1.29,0,0,1,1-1.55A85.2,85.2,0,0,0,482,326a1.25,1.25,0,0,1,1.61.79,1.31,1.31,0,0,1-.77,1.65,86.21,86.21,0,0,1-9.81,2.91A1.33,1.33,0,0,1,472.74,331.42Zm-49.51-3.35a1.11,1.11,0,0,1-.44-.08,86,86,0,0,1-9.35-4.22,1.3,1.3,0,0,1-.55-1.74,1.24,1.24,0,0,1,1.69-.57,85.85,85.85,0,0,0,9.08,4.1,1.31,1.31,0,0,1,.75,1.66A1.26,1.26,0,0,1,423.23,328.07Zm68.46-3.52a1.23,1.23,0,0,1-1.13-.72,1.31,1.31,0,0,1,.57-1.74,84.66,84.66,0,0,0,8.64-5,1.24,1.24,0,0,1,1.74.4,1.33,1.33,0,0,1-.38,1.79,87.66,87.66,0,0,1-8.89,5.15A1.23,1.23,0,0,1,491.69,324.55Zm-86.37-5.86a1.23,1.23,0,0,1-.7-.22,88.36,88.36,0,0,1-8.16-6.31,1.33,1.33,0,0,1-.15-1.83,1.24,1.24,0,0,1,1.77-.15,88.24,88.24,0,0,0,7.93,6.13,1.33,1.33,0,0,1,.36,1.8A1.27,1.27,0,0,1,405.32,318.69Zm103.27-5.3a1.23,1.23,0,0,1-1-.48,1.32,1.32,0,0,1,.18-1.82,88.22,88.22,0,0,0,7.3-6.91,1.24,1.24,0,0,1,1.78,0,1.32,1.32,0,0,1,0,1.83,90.18,90.18,0,0,1-7.52,7.11A1.29,1.29,0,0,1,508.59,313.39ZM390,305.34a1.24,1.24,0,0,1-.91-.41,90.66,90.66,0,0,1-6.56-8.05,1.33,1.33,0,0,1,.25-1.82,1.24,1.24,0,0,1,1.77.27,86.91,86.91,0,0,0,6.37,7.82,1.34,1.34,0,0,1-.05,1.84A1.29,1.29,0,0,1,390,305.34Zm132.64-6.79a1.25,1.25,0,0,1-.77-.27,1.33,1.33,0,0,1-.23-1.82,90.08,90.08,0,0,0,5.6-8.44,1.23,1.23,0,0,1,1.72-.44,1.32,1.32,0,0,1,.43,1.78,91.28,91.28,0,0,1-5.76,8.68A1.25,1.25,0,0,1,522.6,298.55ZM378,288.75a1.24,1.24,0,0,1-1.09-.64,92.57,92.57,0,0,1-4.61-9.38,1.31,1.31,0,0,1,.65-1.71,1.24,1.24,0,0,1,1.66.67A90.37,90.37,0,0,0,379,286.8a1.31,1.31,0,0,1-.45,1.77A1.23,1.23,0,0,1,378,288.75Zm155-7.94a1.23,1.23,0,0,1-.52-.12,1.3,1.3,0,0,1-.62-1.71,92.77,92.77,0,0,0,3.58-9.54,1.25,1.25,0,0,1,1.58-.84,1.3,1.3,0,0,1,.81,1.63,92.74,92.74,0,0,1-3.68,9.82A1.26,1.26,0,0,1,533,280.81Zm-163-11a1.25,1.25,0,0,1-1.2-.92,90.31,90.31,0,0,1-2.4-10.22,1.3,1.3,0,0,1,1-1.51,1.26,1.26,0,0,1,1.46,1.05,91.18,91.18,0,0,0,2.34,9.93,1.32,1.32,0,0,1-.84,1.62A1.18,1.18,0,0,1,369.93,269.77Zm169.19-8.68-.25,0a1.31,1.31,0,0,1-1-1.53,92.52,92.52,0,0,0,1.37-10.12,1.25,1.25,0,0,1,1.35-1.19,1.28,1.28,0,0,1,1.15,1.4,93,93,0,0,1-1.4,10.41A1.27,1.27,0,0,1,539.12,261.09ZM366.34,249.41a1.29,1.29,0,0,1-1.26-1.22c-.12-2-.19-4-.19-6.05a96.66,96.66,0,0,1,.58-10.5,1.27,1.27,0,0,1,1.39-1.14,1.29,1.29,0,0,1,1.11,1.44,93.53,93.53,0,0,0-.56,10.2c0,2,.06,3.94.18,5.88a1.27,1.27,0,0,1-1.17,1.38Zm174.4-9a1.29,1.29,0,0,1-1.26-1.25A90.76,90.76,0,0,0,538.6,229a1.28,1.28,0,0,1,1.06-1.47,1.26,1.26,0,0,1,1.43,1.09,96.22,96.22,0,0,1,.91,10.47,1.28,1.28,0,0,1-1.22,1.34ZM368.43,222.87a1.33,1.33,0,0,1-.28,0,1.3,1.3,0,0,1-.94-1.56,94.66,94.66,0,0,1,2.88-10.1,1.26,1.26,0,0,1,1.61-.78,1.3,1.3,0,0,1,.76,1.66,89.32,89.32,0,0,0-2.8,9.81A1.29,1.29,0,0,1,368.43,222.87ZM537.8,220a1.26,1.26,0,0,1-1.21-1,89,89,0,0,0-3.12-9.7,1.3,1.3,0,0,1,.71-1.68,1.25,1.25,0,0,1,1.63.72,93.69,93.69,0,0,1,3.21,10,1.31,1.31,0,0,1-.89,1.59A1.24,1.24,0,0,1,537.8,220Zm-162.58-16.6a1.24,1.24,0,0,1-.56-.13,1.32,1.32,0,0,1-.57-1.74,94.34,94.34,0,0,1,5.05-9.14,1.25,1.25,0,0,1,1.74-.39,1.32,1.32,0,0,1,.37,1.8,90.13,90.13,0,0,0-4.9,8.88A1.25,1.25,0,0,1,375.22,203.37Zm155.18-2.64a1.25,1.25,0,0,1-1.11-.68,90.9,90.9,0,0,0-5.19-8.71,1.32,1.32,0,0,1,.31-1.81,1.24,1.24,0,0,1,1.76.33,92.74,92.74,0,0,1,5.33,9,1.31,1.31,0,0,1-.51,1.75A1.16,1.16,0,0,1,530.4,200.73ZM386.15,186a1.23,1.23,0,0,1-.8-.3,1.33,1.33,0,0,1-.17-1.83,92,92,0,0,1,6.93-7.71,1.24,1.24,0,0,1,1.78,0,1.34,1.34,0,0,1,0,1.84,87.09,87.09,0,0,0-6.74,7.5A1.25,1.25,0,0,1,386.15,186Zm132.77-2.26a1.23,1.23,0,0,1-.94-.44,88.51,88.51,0,0,0-7-7.26,1.34,1.34,0,0,1-.1-1.84,1.24,1.24,0,0,1,1.78-.09,90.59,90.59,0,0,1,7.18,7.48,1.32,1.32,0,0,1-.12,1.83A1.23,1.23,0,0,1,518.92,183.74Zm-118.3-12.1a1.26,1.26,0,0,1-1-.51,1.32,1.32,0,0,1,.24-1.82,89.26,89.26,0,0,1,8.45-5.89,1.23,1.23,0,0,1,1.72.46,1.3,1.3,0,0,1-.44,1.77,88.62,88.62,0,0,0-8.21,5.72A1.22,1.22,0,0,1,400.62,171.64ZM504,169.88a1.27,1.27,0,0,1-.73-.24,86.48,86.48,0,0,0-8.39-5.44,1.32,1.32,0,0,1-.5-1.76,1.23,1.23,0,0,1,1.71-.51,86.7,86.7,0,0,1,8.64,5.6,1.31,1.31,0,0,1,.3,1.8A1.24,1.24,0,0,1,504,169.88Zm-86.13-8.82a1.25,1.25,0,0,1-1.15-.77,1.31,1.31,0,0,1,.64-1.71,86.52,86.52,0,0,1,9.54-3.74,1.25,1.25,0,0,1,1.57.85,1.3,1.3,0,0,1-.82,1.63,83.43,83.43,0,0,0-9.26,3.63A1.39,1.39,0,0,1,417.87,161.06Zm68.54-1.17a1.18,1.18,0,0,1-.48-.1,84.89,84.89,0,0,0-9.38-3.31,1.29,1.29,0,0,1-.87-1.59,1.26,1.26,0,0,1,1.55-.91,87.75,87.75,0,0,1,9.65,3.41,1.3,1.3,0,0,1,.69,1.69A1.27,1.27,0,0,1,486.41,159.89Zm-49.39-5a1.27,1.27,0,0,1-1.23-1.06,1.29,1.29,0,0,1,1-1.51,85.89,85.89,0,0,1,10.11-1.38,1.3,1.3,0,0,1,.19,2.59,85.35,85.35,0,0,0-9.83,1.33A1,1,0,0,1,437,154.85Zm30-.51-.19,0a85.7,85.7,0,0,0-9.87-1,1.3,1.3,0,0,1,.1-2.59,86,86,0,0,1,10.15,1,1.29,1.29,0,0,1,1.05,1.48A1.27,1.27,0,0,1,467.06,154.34Z"/><ellipse cx="385.6" cy="189.48" rx="17.43" ry="17.97"/><path class="cls-3" d="M381,197.8a1.27,1.27,0,0,1-1.11-.68,1.33,1.33,0,0,1,.11-1.4,38,38,0,0,1,2.56-3c2-2.15,3.88-4.19,4.25-6.75a1.9,1.9,0,0,0-1.84-2.22,2.43,2.43,0,0,0-2.78,1.86,1.27,1.27,0,0,1-1.43,1.1,1.29,1.29,0,0,1-1.06-1.46,4.93,4.93,0,0,1,5.52-4.08,4.47,4.47,0,0,1,4.1,5,.41.41,0,0,1,0,.11c-.47,3.41-2.74,5.86-4.93,8.23L384,195l2-.17c1.07-.1,2.08-.2,4.2-.34a1.25,1.25,0,0,1,1.34,1.2,1.27,1.27,0,0,1-1.17,1.38c-2.09.15-3.09.24-4.15.34s-2.37.22-5.12.41Z"/><path class="cls-11" d="M399,305.33c-1.91-8.29,1.18-17.27,6.83-23.55s13.55-10.09,21.68-12,16.56-2.22,24.91-2.34c7-.09,14-.09,20.78,1.42s13.43,4.67,18,10c5,5.79,7.12,13.51,9.11,20.94,1,3.82,2,8,.45,11.61-1.5,3.46-5,5.52-8.35,7.13a87.91,87.91,0,0,1-49.31,7.83C426.42,324.09,410.36,316.89,399,305.33Z"/><path d="M481.6,313h0a.87.87,0,0,1-.81-.9,79.09,79.09,0,0,0-2.65-22.61.86.86,0,0,1,.59-1.06.83.83,0,0,1,1,.6,80.82,80.82,0,0,1,2.71,23.13A.87.87,0,0,1,481.6,313Z"/><path d="M423.79,314.07a.85.85,0,0,1-.83-.77A207.36,207.36,0,0,1,421.7,292a.85.85,0,0,1,.83-.87h0a.85.85,0,0,1,.84.86,203.67,203.67,0,0,0,1.25,21.1.86.86,0,0,1-.74,1Z"/><path class="cls-12" d="M410.57,219c-.51,8.71-1,17.52.53,26.09s5.33,17,12,22.25c7.54,6,17.56,7,27,7,9.2,0,19.3-1.27,25.66-8.26,4.66-5.12,6.39-12.39,7.51-19.37a170.65,170.65,0,0,0,2-21.41c.21-6.56,0-13.47-3.28-19.08-2.91-5.06-8-8.45-13.32-10.24s-11.05-2.15-16.68-2.26c-9-.18-18.24.29-26.41,4.21S411.09,210,410.57,219Z"/><path class="cls-12" d="M435.29,266.57c.72,6.4,4,12,8.72,14.22s10.68,1,15-3.47c1.61-1.66,3.08-4.18,2.65-6.53a5.54,5.54,0,0,0-3.15-3.76C451.62,263.2,443.29,263,435.29,266.57Z"/><path d="M409.66,224.38c-1.88-14.35,4.68-29.53,16.28-37.68a37.9,37.9,0,0,1,40-1.84c12.26,7,20.11,21.57,19.47,36a3,3,0,0,1-.89,2.43c-1,.71-2.33,0-3.32-.77l-17.72-13.19,3.75,10.26a2.34,2.34,0,0,1,.19,1.53c-.28.82-1.32,1-2.17,1-3.7-.2-7.07-2.53-9.37-5.53a32.86,32.86,0,0,1-4.8-10.29,29.76,29.76,0,0,1-20.48,18.31c-.48.11-1.12.14-1.32-.32a1.15,1.15,0,0,1,.26-1.06l6.86-10.81c-3.43-.5-6.09,2.78-8.59,5.24a24.61,24.61,0,0,1-21,6.7C408.48,222.61,409.67,220.39,409.66,224.38Z"/><path class="cls-13" d="M406.2,254.62a27.93,27.93,0,0,0,9.07,24,26,26,0,0,0,24.48,5.21l-.12-2.77a23.63,23.63,0,0,1-21.9-5.64,25.37,25.37,0,0,1-7.43-22C408.69,252.36,406.34,253.53,406.2,254.62Z"/><path d="M455.17,279.09a23.57,23.57,0,0,0-12.1-.69c-1.74.37-3.67,1.14-4.28,2.87a4.14,4.14,0,0,0,1.77,4.5,10.56,10.56,0,0,0,4.8,1.52,27.72,27.72,0,0,0,7.33.24c2.4-.32,5.08-1.58,5.6-4S456.48,278.61,455.17,279.09Z"/><path d="M469.46,229.65a1.67,1.67,0,0,1-1.24-.56,7.66,7.66,0,0,0-10-1,1.63,1.63,0,0,1-2.34-.37,1.76,1.76,0,0,1,.36-2.42,10.94,10.94,0,0,1,14.49,1.48,1.77,1.77,0,0,1-.11,2.45A1.64,1.64,0,0,1,469.46,229.65Z"/><path d="M427,231a1.62,1.62,0,0,1-1.05-.38,1.77,1.77,0,0,1-.26-2.43,11.07,11.07,0,0,1,14.52-2.5,1.76,1.76,0,0,1,.52,2.38,1.65,1.65,0,0,1-2.32.54,7.79,7.79,0,0,0-10.1,1.74A1.65,1.65,0,0,1,427,231Z"/><path class="cls-7" d="M467.78,235.42C464.46,231.72,455.1,233,456,239,458.28,244,472.83,242.07,467.78,235.42Z"/><path class="cls-7" d="M440,235.05c-3.32-3.7-12.68-2.41-11.82,3.62C430.5,243.64,445.05,241.7,440,235.05Z"/><path d="M453.9,276.8a85.81,85.81,0,0,1-10.6-.86,1.72,1.72,0,0,1-1.46-1.93,1.69,1.69,0,0,1,1.87-1.51c6.46.81,13.78,1.72,20.14-.87,7.08-2.89,13-10.42,15.85-20.17,2.05-7,2.53-14.36,3-22.11.14-2.1.27-4.21.44-6.32a1.7,1.7,0,0,1,1.81-1.58,1.72,1.72,0,0,1,1.54,1.87c-.17,2.09-.3,4.18-.44,6.26-.49,7.61-1,15.47-3.16,22.88-3.19,10.91-9.68,19.07-17.82,22.38A29.21,29.21,0,0,1,453.9,276.8Z"/><path class="cls-13" d="M424.34,321.09c-1.67-5.34-.47-12.73-1.09-19.69a6.26,6.26,0,0,1,5.87-6.87c15.25-.67,32.26,0,47.39-.79a4.19,4.19,0,0,1,4.36,4.12c.11,5,1.36,11.62,1.36,15.25,0,12.59-.38,5.87-3.2,8.1a21.75,21.75,0,0,1-9.53,4.62C454.94,328.51,437.18,326.76,424.34,321.09Z"/><path class="cls-13" d="M405.83,228.84C402.5,211.77,410,193,424.08,183.27a43.36,43.36,0,0,1,48-.24c14.15,9.58,21.85,28.27,18.68,45.38l-4.91.8c-.1-8.81-1.7-17.72-5.67-25.53s-9.58-15.38-17.64-18.38c-14.48-5.39-26.69-4.25-38.87,5.89-9.33,7.76-10.81,21.15-13.3,33.21a8,8,0,0,1-1.54,3.92C407.84,229.35,406,229.62,405.83,228.84Z"/><path d="M405.66,225.91a.86.86,0,0,1-.83-.75c-2.37-18.58,7.75-38.07,24.06-46.33,16.53-8.38,37.53-4.57,49.92,9.06a.89.89,0,0,1,0,1.22.82.82,0,0,1-1.19,0c-11.9-13.08-32.07-16.74-48-8.69-15.68,8-25.42,26.69-23.14,44.55a.85.85,0,0,1-.72,1Z"/><path class="cls-13" d="M408.82,225.58A14.5,14.5,0,0,0,397.52,251c4.19,3.49,11.28,4.64,16.13,2a42.51,42.51,0,0,1-2.79-22.25c.21-1.39.46-2.86-.27-4.14S407.68,224.5,408.82,225.58Z"/><path class="cls-13" d="M485.71,226.28c-.9,12.47-1.13,14.06-3.48,25.87,6.58.31,13.36-2.46,17.16-7.29a14.46,14.46,0,0,0,1.07-16.66,11.11,11.11,0,0,0-6.88-5C490.61,222.58,485.92,223.37,485.71,226.28Z"/><path d="M446,253.91a3.19,3.19,0,0,1-1.81-.55c-1.33-.91-1.92-2.77-1.62-5.1a15.4,15.4,0,0,1,2.59-6.78.82.82,0,0,1,1.17-.2.88.88,0,0,1,.2,1.21,13.56,13.56,0,0,0-2.3,6c-.1.79-.21,2.69.89,3.44a1.59,1.59,0,0,0,1.67.05,1.71,1.71,0,0,0,.77-1.54.86.86,0,0,1,.67-.92.83.83,0,0,1,1,.59,1.87,1.87,0,0,0,2.14,1.19,1.93,1.93,0,0,0,1.24-2.16.88.88,0,0,1,.63-1,.84.84,0,0,1,1,.65A3.63,3.63,0,0,1,451.8,253a3.42,3.42,0,0,1-3-.64,3.3,3.3,0,0,1-1.11,1.15A3.22,3.22,0,0,1,446,253.91Z"/><path d="M448.59,263.25a16.63,16.63,0,0,1-11.8-5,.88.88,0,0,1,0-1.22.82.82,0,0,1,1.18,0,14.91,14.91,0,0,0,10.78,4.5A14,14,0,0,0,459,256.9v0a5.15,5.15,0,0,1-.31-3.11.84.84,0,0,1,.87-.67.86.86,0,0,1,.78.76c.16,1.3.25,2.07.3,2.54a2,2,0,0,0,.18.32,3.22,3.22,0,0,0,2,1.51.86.86,0,0,1,.66,1,.84.84,0,0,1-1,.69,4.77,4.77,0,0,1-2.58-1.53,15.67,15.67,0,0,1-11.18,4.88Z"/><path d="M434.69,259.1a4.15,4.15,0,0,1-.79-.07.86.86,0,0,1-.68-1,.83.83,0,0,1,1-.7,3.16,3.16,0,0,0,2.49-.66,3.34,3.34,0,0,0,1.18-2.35.84.84,0,1,1,1.67.1,5.05,5.05,0,0,1-1.81,3.6A4.79,4.79,0,0,1,434.69,259.1Z"/><path d="M449.69,266.41a6.31,6.31,0,0,1-3.46-1,.88.88,0,0,1-.26-1.19.84.84,0,0,1,1.16-.27,4.89,4.89,0,0,0,5.71-.4.82.82,0,0,1,1.18.1.89.89,0,0,1-.1,1.22A6.44,6.44,0,0,1,449.69,266.41Z"/><g class="cls-14"><ellipse cx="453.47" cy="317.13" rx="4.44" ry="4.58"/></g><path d="M432.45,286a27.21,27.21,0,0,1-17.85-6.69,29,29,0,0,1-9.46-24.61.85.85,0,0,1,.93-.77.87.87,0,0,1,.74,1,27.2,27.2,0,0,0,8.88,23.1,25.41,25.41,0,0,0,23.55,5.33.84.84,0,0,1,1,.6.87.87,0,0,1-.58,1.06A25.89,25.89,0,0,1,432.45,286Z"/><ellipse cx="434.59" cy="239.4" rx="2.23" ry="2.3"/><ellipse cx="462.22" cy="239.53" rx="2.23" ry="2.3"/><path d="M407.39,255.25a16.18,16.18,0,0,1-10.93-4.16,15.22,15.22,0,0,1-4-16,15.89,15.89,0,0,1,13.28-10.23.83.83,0,0,1,.91.78.85.85,0,0,1-.75.94,14.36,14.36,0,0,0-11.86,9.1,13.6,13.6,0,0,0,3.58,14.16,14.85,14.85,0,0,0,14.89,2.8.83.83,0,0,1,1.08.51.88.88,0,0,1-.49,1.11A15.8,15.8,0,0,1,407.39,255.25Z"/><ellipse class="cls-3" cx="426.23" cy="436.25" rx="82.03" ry="83.31"/><path d="M426.23,526.35h-.69a1.27,1.27,0,0,1,0-2.54h.68a81.89,81.89,0,0,0,9-.49,1.24,1.24,0,0,1,1.36,1.13,1.26,1.26,0,0,1-1.1,1.39A84,84,0,0,1,426.23,526.35Zm-10.49-.66h-.15a81.65,81.65,0,0,1-9.82-1.84,1.27,1.27,0,0,1-.91-1.53,1.23,1.23,0,0,1,1.49-.93,81.32,81.32,0,0,0,9.54,1.78,1.27,1.27,0,0,1,1.07,1.42A1.25,1.25,0,0,1,415.74,525.69Zm29.34-1.5a1.23,1.23,0,0,1-1.2-1,1.26,1.26,0,0,1,.93-1.51,80.15,80.15,0,0,0,9.31-2.77,1.23,1.23,0,0,1,1.57.78,1.28,1.28,0,0,1-.75,1.62,85,85,0,0,1-9.59,2.84Zm-48.43-3.27a1.31,1.31,0,0,1-.43-.08,84.13,84.13,0,0,1-9.14-4.13,1.27,1.27,0,0,1-.54-1.7,1.2,1.2,0,0,1,1.65-.56,82.27,82.27,0,0,0,8.89,4,1.28,1.28,0,0,1,.72,1.63A1.23,1.23,0,0,1,396.65,520.92Zm67-3.44a1.23,1.23,0,0,1-1.1-.72,1.27,1.27,0,0,1,.56-1.69,85.85,85.85,0,0,0,8.45-4.9,1.22,1.22,0,0,1,1.7.38,1.3,1.3,0,0,1-.37,1.76,87.73,87.73,0,0,1-8.7,5A1.3,1.3,0,0,1,463.6,517.48Zm-84.47-5.74a1.23,1.23,0,0,1-.68-.21,89.37,89.37,0,0,1-8-6.17,1.3,1.3,0,0,1-.15-1.79,1.21,1.21,0,0,1,1.74-.15,84.27,84.27,0,0,0,7.75,6,1.29,1.29,0,0,1,.35,1.76A1.23,1.23,0,0,1,379.13,511.74Zm101-5.18a1.23,1.23,0,0,1-1-.47,1.29,1.29,0,0,1,.18-1.78,86,86,0,0,0,7.14-6.76,1.21,1.21,0,0,1,1.74,0,1.29,1.29,0,0,1,0,1.79,87.8,87.8,0,0,1-7.36,6.95A1.19,1.19,0,0,1,480.14,506.56Zm-116-7.87a1.23,1.23,0,0,1-.9-.4,89.94,89.94,0,0,1-6.41-7.88,1.29,1.29,0,0,1,.25-1.78,1.21,1.21,0,0,1,1.72.26,88.22,88.22,0,0,0,6.23,7.66,1.28,1.28,0,0,1-.05,1.79A1.22,1.22,0,0,1,364.12,498.69ZM493.83,492a1.18,1.18,0,0,1-.75-.26,1.29,1.29,0,0,1-.22-1.78,87.3,87.3,0,0,0,5.47-8.25,1.2,1.2,0,0,1,1.69-.43,1.29,1.29,0,0,1,.42,1.74,92.46,92.46,0,0,1-5.63,8.49A1.24,1.24,0,0,1,493.83,492Zm-141.46-9.58a1.23,1.23,0,0,1-1.06-.63,89.54,89.54,0,0,1-4.51-9.17,1.28,1.28,0,0,1,.64-1.67,1.22,1.22,0,0,1,1.62.65,86.51,86.51,0,0,0,4.38,8.91,1.3,1.3,0,0,1-.45,1.74A1.16,1.16,0,0,1,352.37,482.46ZM504,474.69a1.17,1.17,0,0,1-.51-.11,1.28,1.28,0,0,1-.61-1.68,86.39,86.39,0,0,0,3.5-9.32,1.22,1.22,0,0,1,1.55-.82,1.26,1.26,0,0,1,.79,1.59,87.87,87.87,0,0,1-3.6,9.6A1.21,1.21,0,0,1,504,474.69ZM344.53,463.9a1.23,1.23,0,0,1-1.18-.9A90,90,0,0,1,341,453a1.27,1.27,0,0,1,1-1.48,1.24,1.24,0,0,1,1.43,1,92,92,0,0,0,2.28,9.72,1.28,1.28,0,0,1-.82,1.58A1.1,1.1,0,0,1,344.53,463.9ZM510,455.41l-.24,0a1.26,1.26,0,0,1-1-1.49,88.54,88.54,0,0,0,1.34-9.9,1.24,1.24,0,0,1,1.32-1.16,1.27,1.27,0,0,1,1.13,1.37,94.11,94.11,0,0,1-1.37,10.19A1.25,1.25,0,0,1,510,455.41ZM341,444a1.25,1.25,0,0,1-1.23-1.18c-.12-2-.18-4-.18-5.92a94.82,94.82,0,0,1,.56-10.27,1.25,1.25,0,0,1,1.36-1.12,1.27,1.27,0,0,1,1.09,1.41,89.54,89.54,0,0,0-.55,10c0,1.91.06,3.85.18,5.75a1.26,1.26,0,0,1-1.15,1.35Zm170.57-8.75a1.26,1.26,0,0,1-1.23-1.23,91.86,91.86,0,0,0-.87-10,1.27,1.27,0,0,1,1-1.44,1.24,1.24,0,0,1,1.4,1.07,94.46,94.46,0,0,1,.89,10.25,1.26,1.26,0,0,1-1.19,1.31ZM343.06,418a1.33,1.33,0,0,1-.28,0,1.28,1.28,0,0,1-.92-1.53,91.07,91.07,0,0,1,2.82-9.87,1.23,1.23,0,0,1,1.58-.77,1.29,1.29,0,0,1,.74,1.63,87.53,87.53,0,0,0-2.74,9.59A1.25,1.25,0,0,1,343.06,418ZM508.7,415.2a1.23,1.23,0,0,1-1.18-.94,88.87,88.87,0,0,0-3-9.49,1.29,1.29,0,0,1,.69-1.65,1.22,1.22,0,0,1,1.59.71,89.62,89.62,0,0,1,3.14,9.77,1.26,1.26,0,0,1-.87,1.55A1.13,1.13,0,0,1,508.7,415.2ZM349.69,399a1.16,1.16,0,0,1-.54-.13,1.29,1.29,0,0,1-.56-1.7,93.56,93.56,0,0,1,4.94-8.94,1.22,1.22,0,0,1,1.71-.38,1.3,1.3,0,0,1,.36,1.76,86.36,86.36,0,0,0-4.8,8.69A1.24,1.24,0,0,1,349.69,399Zm151.77-2.59a1.22,1.22,0,0,1-1.08-.66,89,89,0,0,0-5.08-8.52,1.28,1.28,0,0,1,.31-1.76,1.21,1.21,0,0,1,1.71.31,91.11,91.11,0,0,1,5.22,8.76,1.28,1.28,0,0,1-.5,1.72A1.09,1.09,0,0,1,501.46,396.37ZM360.38,382a1.24,1.24,0,0,1-.78-.29,1.3,1.3,0,0,1-.16-1.79,91.51,91.51,0,0,1,6.78-7.55,1.21,1.21,0,0,1,1.74,0,1.3,1.3,0,0,1,0,1.79,86.6,86.6,0,0,0-6.6,7.34A1.21,1.21,0,0,1,360.38,382Zm129.86-2.21a1.18,1.18,0,0,1-.92-.43,88.08,88.08,0,0,0-6.82-7.11,1.28,1.28,0,0,1-.09-1.79,1.2,1.2,0,0,1,1.73-.09,88.1,88.1,0,0,1,7,7.31,1.29,1.29,0,0,1-.11,1.79A1.16,1.16,0,0,1,490.24,379.76Zm-115.7-11.83a1.24,1.24,0,0,1-1-.5,1.3,1.3,0,0,1,.23-1.78,86.7,86.7,0,0,1,8.27-5.76,1.2,1.2,0,0,1,1.68.44,1.28,1.28,0,0,1-.43,1.74,86.14,86.14,0,0,0-8,5.6A1.21,1.21,0,0,1,374.54,367.93Zm101.11-1.73a1.21,1.21,0,0,1-.72-.23,83.82,83.82,0,0,0-8.2-5.32,1.29,1.29,0,0,1-.49-1.73,1.21,1.21,0,0,1,1.67-.49,85.77,85.77,0,0,1,8.45,5.47,1.29,1.29,0,0,1,.29,1.77A1.21,1.21,0,0,1,475.65,366.2Zm-84.24-8.62a1.22,1.22,0,0,1-1.12-.75,1.29,1.29,0,0,1,.62-1.68,83.46,83.46,0,0,1,9.33-3.65,1.22,1.22,0,0,1,1.54.83,1.28,1.28,0,0,1-.8,1.59,83.51,83.51,0,0,0-9.07,3.55A1.25,1.25,0,0,1,391.41,357.58Zm67-1.15a1.25,1.25,0,0,1-.46-.09,82,82,0,0,0-9.18-3.24,1.28,1.28,0,0,1-.86-1.56,1.24,1.24,0,0,1,1.52-.88,82.83,82.83,0,0,1,9.45,3.33,1.27,1.27,0,0,1,.67,1.65A1.23,1.23,0,0,1,458.44,356.43Zm-48.3-4.93a1.25,1.25,0,0,1-1.21-1,1.27,1.27,0,0,1,1-1.48,86.42,86.42,0,0,1,9.89-1.35,1.24,1.24,0,0,1,1.32,1.18,1.26,1.26,0,0,1-1.13,1.36,81.46,81.46,0,0,0-9.62,1.3Zm29.38-.5h-.19a83.88,83.88,0,0,0-9.65-1,1.25,1.25,0,0,1-1.18-1.32,1.24,1.24,0,0,1,1.28-1.21,84.33,84.33,0,0,1,9.93,1,1.26,1.26,0,0,1,1,1.45A1.23,1.23,0,0,1,439.52,351Z"/><ellipse cx="349.78" cy="403.15" rx="17.05" ry="17.58"/><path class="cls-3" d="M349.77,411.62a7.05,7.05,0,0,1-1.56-.18c-1.19-.11-2.84-1.38-4-2.47a1.3,1.3,0,0,1-.12-1.79,1.22,1.22,0,0,1,1.74-.12,10.59,10.59,0,0,0,2.64,1.86.5.5,0,0,1,.24,0,3.51,3.51,0,0,0,4.11-1.64,3.63,3.63,0,0,0,0-4c-.93-1.09-2.95-1.06-5.53.1a1.2,1.2,0,0,1-1.51-.45,1.3,1.3,0,0,1,.15-1.61l3.72-3.83-2.28.15c-.68,0-1.37.08-2.1.14a1.24,1.24,0,0,1-1.32-1.17,1.26,1.26,0,0,1,1.14-1.36c.74-.06,1.44-.1,2.13-.14,1.7-.11,3.3-.2,5.58-.5a1.23,1.23,0,0,1,1.26.7,1.31,1.31,0,0,1-.23,1.46L350.71,400h0a4.92,4.92,0,0,1,3.9,1.67,6.12,6.12,0,0,1,.25,6.93A5.78,5.78,0,0,1,349.77,411.62Z"/><path class="cls-15" d="M404.19,482.85l-.06-.21a9.73,9.73,0,0,0-3-3.82c-1.16-1-2.49-1.77-3.73-2.67a14.33,14.33,0,0,1-4.39-4.74,8.18,8.18,0,0,1-.7-6.39,12.07,12.07,0,0,1,2.43-3.77c.88-1.05,1.79-2.08,2.71-3.09.64-.69,2.08-1.71,2.31-2.63,2.41-9.28,5.17-17.48,10.31-25.49,1.11-1.73,5.44-3.7,7.24-2.77,1.41.73,3.37,2.91,2.65,4.35-3.93,7.9-7,15.29-5.16,23.86,1.7,7.88,0,16.78,5,23a16.62,16.62,0,0,1-11.11,7.1,4.63,4.63,0,0,1-3.2-.41C404.49,484.58,404.41,483.73,404.19,482.85Z"/><path class="cls-16" d="M411.19,505a51.47,51.47,0,0,1-10.38-13.15,6.3,6.3,0,0,1,2.05-8.31c4.6-2.94,8.76-6.79,13.92-8.41a11.19,11.19,0,0,1,4.86-.54c4.24.58,7.39,4.33,9.48,8.17s3.64,8.12,6.65,11.25l-19.64,10.68C415.76,505.94,413.1,506.68,411.19,505Z"/><path class="cls-17" d="M459.49,483.6a8.82,8.82,0,0,0-4.2.81,3.25,3.25,0,0,0-1.66,3.7c.55,1.45,2.26,1.95,3.74,2.26,4.44.92,9,1.84,13.46,1.22,2.57-.35,5.43-1.56,6.13-4.14.66-2.39-1-4.95-3.13-6.06s-4.68-1.1-7.08-.92C462.41,480.78,457.85,481.65,459.49,483.6Z"/><path class="cls-15" d="M446.15,403.88a94.14,94.14,0,0,0-14.63,44c-.71,10,.5,20.81,7.05,28.59,6.76,8,18.5,11.33,29,9.28s19.57-8.95,25.33-17.67,8.4-19.12,8.93-29.46c.53-10.54-1.5-22.05-9.48-29.25-5.89-5.32-14.24-7.48-22.3-7.49S454.06,403.81,446.15,403.88Z"/><path class="cls-18" d="M441,405.18l26.27,12.2A124.74,124.74,0,0,0,456.39,454c-.74,5.44-1.09,11.19,1,16.26,3.31,8.06,11.94,12.42,20.28,14.06,4.86,1,10.2,1.15,14.41-1.53,3.28-2.09,5.4-5.62,7.17-9.15a88.8,88.8,0,0,0,7.29-57.48c-1.5-7.05-4-14.12-8.8-19.38-5.38-5.89-13.13-8.92-20.85-10.33-12-2.19-25.77-.26-33.83,9.17-1.64,1.93-3.05,4.28-3,6.85S440.76,405.06,441,405.18Z"/><path class="cls-18" d="M402.14,515.81c4.75-9,12.52-16,21.28-20.77s18.51-7.36,28.32-8.79c12.63-1.84,26-1.7,37.16,4.48a85.35,85.35,0,0,1-40,25.59A79.86,79.86,0,0,1,402.14,515.81Z"/><path class="cls-13" d="M387.23,468.37l-14.06-38a8.17,8.17,0,0,1,4.53-10.45l15.8-6.21a7.78,7.78,0,0,1,10.13,4.68l14.07,38a8.18,8.18,0,0,1-4.54,10.45l-15.8,6.21A7.78,7.78,0,0,1,387.23,468.37Z"/><path class="cls-7" d="M388.35,462.65l-12.48-33.74a4.35,4.35,0,0,1,2.42-5.56l17.13-6.74a4.15,4.15,0,0,1,5.4,2.49l12.47,33.74a4.34,4.34,0,0,1-2.41,5.56l-17.14,6.74A4.15,4.15,0,0,1,388.35,462.65Z"/><path class="cls-18" d="M385.18,441.87l-3.57-9.64a1.15,1.15,0,0,1,.64-1.46l15.07-5.92a1.09,1.09,0,0,1,1.42.65l3.56,9.64a1.13,1.13,0,0,1-.63,1.45l-15.08,5.93A1.09,1.09,0,0,1,385.18,441.87Z"/><path class="cls-19" d="M384.54,419.28l0-.1a.38.38,0,0,1,.21-.49l4.09-1.61a.37.37,0,0,1,.48.22l0,.1a.38.38,0,0,1-.22.49L385,419.5A.35.35,0,0,1,384.54,419.28Z"/><path class="cls-19" d="M399.47,467.28l-.12-.33a1.25,1.25,0,0,1,.69-1.6l6.28-2.47a1.2,1.2,0,0,1,1.55.72l.12.33a1.24,1.24,0,0,1-.69,1.59L401,468A1.18,1.18,0,0,1,399.47,467.28Z"/><path class="cls-19" d="M382.94,419.91l0-.1a.38.38,0,0,1,.21-.49l.19-.07a.35.35,0,0,1,.47.22l0,.1a.39.39,0,0,1-.21.49l-.19.07A.35.35,0,0,1,382.94,419.91Z"/><path class="cls-15" d="M370.33,437.05c2,1.24,6,2.33,8.5,1.29,2.18-.9,2.56-4.56.72-6.27-2.38-2.22-6.05-3.94-8.76-3.15a4.49,4.49,0,0,0-2.7,3.26A5.76,5.76,0,0,0,370.33,437.05Z"/><path class="cls-15" d="M371.93,445.2c2.35,1.24,7.18,2.33,10.24,1.29a3.64,3.64,0,0,0,.86-6.27c-2.86-2.22-7.29-3.94-10.55-3.15a4.79,4.79,0,0,0-3.25,3.26C368.92,442.33,370.51,444.3,371.93,445.2Z"/><path class="cls-15" d="M374.39,453c2.36,1.24,7.18,2.33,10.24,1.29a3.64,3.64,0,0,0,.86-6.27c-2.86-2.22-7.28-3.94-10.55-3.15a4.81,4.81,0,0,0-3.25,3.26C371.39,450.11,373,452.08,374.39,453Z"/><path class="cls-15" d="M377.46,460.39c1.94,1.05,5.9,2,8.42,1.08a3.1,3.1,0,0,0,.7-5.28c-2.35-1.87-6-3.32-8.67-2.66a4,4,0,0,0-2.67,2.75C375,458,376.29,459.63,377.46,460.39Z"/><path d="M453.62,429.88a1.84,1.84,0,0,1-1.68-1.11,7.73,7.73,0,0,0-4.16-4,7.45,7.45,0,0,0-5.68.17,1.83,1.83,0,0,1-2.44-1,1.93,1.93,0,0,1,.94-2.51,10.9,10.9,0,0,1,8.48-.26,11.4,11.4,0,0,1,6.21,6,1.92,1.92,0,0,1-.9,2.52A1.77,1.77,0,0,1,453.62,429.88Z"/><path class="cls-7" d="M449.68,434.1a10.47,10.47,0,0,0-8.16-3.46,5.33,5.33,0,0,0-2.62.71,2.91,2.91,0,0,0-1.42,2.28,4,4,0,0,0,2,3.11,11.53,11.53,0,0,0,6.28,2.06,4.86,4.86,0,0,0,3.38-1,2.93,2.93,0,0,0,.63-3.46A.31.31,0,0,0,449.68,434.1Z"/><ellipse cx="440" cy="434.72" rx="2.08" ry="2.14"/><path d="M429.27,449.15a2.51,2.51,0,0,1-1.13-.27,3,3,0,0,1-1.52-1.9,3.23,3.23,0,0,1-.83.34,2.63,2.63,0,0,1-2.77-.85c-.88-1.11-.8-2.79.22-4.73A20.81,20.81,0,0,1,430.1,434a.8.8,0,0,1,1.13.25.86.86,0,0,1-.24,1.17,19.16,19.16,0,0,0-6.31,7.11c-.51,1-.88,2.24-.39,2.86a1,1,0,0,0,1.09.28,3.19,3.19,0,0,0,1.42-1,.79.79,0,0,1,1-.14.86.86,0,0,1,.37,1,1.64,1.64,0,0,0,.67,1.82,1.27,1.27,0,0,0,1.59-.63.8.8,0,0,1,1.11-.33.85.85,0,0,1,.33,1.14A3,3,0,0,1,429.27,449.15Z"/><path d="M439.11,464.42a8,8,0,0,1-3.58-.85.85.85,0,0,1-.38-1.13.8.8,0,0,1,1.09-.39,6.54,6.54,0,0,0,5.06.29,6.77,6.77,0,0,0,3.75-3.5.81.81,0,0,1,1.09-.41.87.87,0,0,1,.4,1.13,8.39,8.39,0,0,1-4.69,4.38A8,8,0,0,1,439.11,464.42Z"/><path d="M448,461.24a3.55,3.55,0,0,1-2.94-1.73,3.74,3.74,0,0,1-.37-3.54.8.8,0,0,1,1.08-.42.85.85,0,0,1,.41,1.12,2.07,2.07,0,0,0,.25,1.9,2,2,0,0,0,1.61,1,.85.85,0,0,1,0,1.69Z"/><path d="M400.72,491c8-5.25,17.13-9.91,25.51-14.38-.11-1.45-2-2.85-3.26-3.3a5.13,5.13,0,0,0-4,0c-6.79,3.54-10.53,6.13-16.1,9.65a7.82,7.82,0,0,0-2.87,3.37c-.67,1.41,0,3.37.82,4.67C400.86,491,400.46,491,400.72,491Z"/><path class="cls-18" d="M449.64,486.59h0a3,3,0,0,1,2.57-3.65,112,112,0,0,1,30.49.66,5.85,5.85,0,0,1,3.07,1.12c.84.73.8,3.64.06,4.49C473.3,487.79,461.11,485.44,449.64,486.59Z"/><path class="cls-20" d="M482.19,415c-1.28-.25-1.4-2.13-1.53-3.22Q479,397.59,476,383.54a3.7,3.7,0,0,0-.45-1.27,3.21,3.21,0,0,0-1.3-.93,50.42,50.42,0,0,0-6.58-2.63,42.11,42.11,0,0,0-15-2.15A37,37,0,0,0,422.58,396q25.21,10.35,49.81,22.25c-.42,2.76-.84,5.61-.19,8.33s2.62,5.29,5.31,5.7c4.2.64,8.27-4,8.49-8.11.17-3.11-.59-7.84-3.81-9.16"/><path class="cls-21" d="M435.81,396a33.61,33.61,0,0,1,14.91-9.25c6-1.64,11.92-.5,17.56,1,.84.21.23,1.77-.61,1.56-5.4-1.39-11.06-2.46-16.84-.9a32.1,32.1,0,0,0-14.24,8.87c-.72.74-1.49-.49-.78-1.23"/><path class="cls-22" d="M465.9,417c3.21,0,2.11,1.23-.34,8a143,143,0,0,0-5.85,23.9c-.94,5.67-1.65,12-.21,17.6,1.89,7.36,5.26,11.77,11,15.79-7-2.76-11.67-7.64-13.66-13.2a26.68,26.68,0,0,1-1.26-8.06,85.76,85.76,0,0,1,9.49-42.41"/><path d="M443,405.51c-5.9,11.6-10.77,23.81-12.56,36.85-1.56,11.42-1.45,24.77,6.06,34.1,3.37,4.19,7.91,7.17,12.42,9.89,1.72,1,3.27-1.71,1.55-2.74a46.79,46.79,0,0,1-10.66-8.07,25.59,25.59,0,0,1-6-12.14c-2.59-12.22-.29-25.42,3.61-37.08a142.92,142.92,0,0,1,8.26-19.2c.92-1.81-1.73-3.42-2.65-1.61Z"/><path d="M371.86,438l7.07,1.33a1,1,0,0,0,1.14-.66,1,1,0,0,0-.65-1.17l-7.06-1.34a1,1,0,0,0-1.14.66,1,1,0,0,0,.64,1.18Z"/><path d="M373.79,447c1,.18,2,.32,3,.46l.34,0,.14,0c-.24,0,0,0,.05,0l.77.11,2.15.35a1,1,0,0,0,1.14-.66,1,1,0,0,0-.65-1.17c-1.26-.22-2.53-.42-3.81-.59l-.67-.09h.05l-.19,0-.3,0-1.54-.25a.94.94,0,0,0-1.13.66,1,1,0,0,0,.64,1.17Z"/><path d="M377,454.45a41.87,41.87,0,0,0,6,.85.94.94,0,0,0,.92-.95,1,1,0,0,0-.92-1,36.75,36.75,0,0,1-5.51-.79.93.93,0,0,0-1.13.67,1,1,0,0,0,.64,1.17Z"/><path d="M407.62,509.75c6.31-8.91,16-14.29,26.08-17.48a121.54,121.54,0,0,1,34-5.21,104.29,104.29,0,0,1,10.46.27c3.17.26,6.52.91,9.1,3,.93.74,2.24-.59,1.31-1.34-4.71-3.77-11-3.66-16.65-3.8a131.43,131.43,0,0,0-20.59,1.36c-10.88,1.48-21.93,4.12-31.53,9.8A44.37,44.37,0,0,0,406,508.79c-.7,1,.9,1.94,1.59,1Z"/><path class="cls-7" d="M382.29,432.58a52.17,52.17,0,0,1,5.39,1c.87.21,1.73.43,2.59.66.69.18,1.5.55,2.19.22s1-1.08,1.39-1.61c.5-.7,1-1.41,1.46-2.13,1-1.52,1.94-3.09,2.82-4.68.52-.95-.9-1.81-1.42-.86q-1.14,2.08-2.42,4.08c-.42.65-.84,1.28-1.28,1.91-.28.41-.88,1.6-1.3,1.71-.26.07-.88-.24-1.15-.31l-1.14-.3c-.77-.19-1.54-.38-2.31-.55-1.59-.35-3.2-.64-4.82-.84-1.05-.14-1,1.55,0,1.69Z"/><path d="M394,444.61a.22.22,0,0,1-.06.26h0a.24.24,0,0,1-.28,0h0l0,0,0,0h0l-.36-.33-1.11-1-.1-.08c.2.59.39,1.18.58,1.77a.26.26,0,0,1-.14.32.24.24,0,0,1-.3-.14c-.27-.87-.56-1.73-.86-2.59a.23.23,0,0,1,0-.2h0a.05.05,0,0,1,0-.05.24.24,0,0,1,.33,0,3.65,3.65,0,0,1,.32.26c.41.36.82.72,1.22,1.09-.22-.6-.44-1.19-.67-1.78a.24.24,0,0,1,.44-.18C393.35,442.81,393.69,443.71,394,444.61Z"/><path d="M396.32,443.65a.28.28,0,0,1-.15.36l-.54.22a6.61,6.61,0,0,1-.74.28.3.3,0,0,1-.21,0l0,0h0a.24.24,0,0,1-.08-.09v0h0c-.35-.86-.63-1.75-1-2.6a.25.25,0,0,1,.09-.32l.07,0c.41-.15.81-.32,1.21-.5a.27.27,0,0,1,.34.16.28.28,0,0,1-.15.35l-1,.41.29.75.76-.34a.27.27,0,0,1,.34.16.29.29,0,0,1-.15.35l-.77.34.33.85.5-.2.54-.22A.26.26,0,0,1,396.32,443.65Z"/><path d="M398.51,439.82c.2,1,.36,1.93.51,2.9.05.27-.3.36-.45.18l-.7-.87-.46-.57c0,.29,0,.59,0,.88s0,.68,0,1a.25.25,0,0,1-.48.12c-.41-.88-.86-1.73-1.27-2.61a.27.27,0,0,1,.15-.34.26.26,0,0,1,.33.15c.24.52.5,1,.75,1.55,0-.53,0-1.07,0-1.61a.25.25,0,0,1,.45-.11,11.77,11.77,0,0,0,.89,1.21l.1.12c-.11-.66-.22-1.31-.36-2a.25.25,0,0,1,.22-.28A.26.26,0,0,1,398.51,439.82Z"/><path d="M401.5,446.92a.3.3,0,0,1-.17.38l-.6.24a6.34,6.34,0,0,1-.83.3.33.33,0,0,1-.24,0l0,0h0a.39.39,0,0,1-.08-.1l0,0h0c-.38-.94-.68-1.91-1.06-2.86a.27.27,0,0,1,.11-.34l.08,0,1.35-.54a.29.29,0,0,1,.37.17.3.3,0,0,1-.17.38c-.36.16-.72.31-1.09.45.11.27.21.55.31.83l.85-.37a.28.28,0,0,1,.37.17.31.31,0,0,1-.17.39l-.85.37c.11.31.22.62.34.93l.57-.22c.2-.07.4-.16.6-.24A.29.29,0,0,1,401.5,446.92Z"/><path d="M393.38,450.14a.29.29,0,0,1-.16.36l-.58.24c-.26.1-.53.21-.8.29a.32.32,0,0,1-.22,0l0,0h0a.18.18,0,0,1-.08-.09l0,0h0c-.36-.91-.65-1.84-1-2.75a.26.26,0,0,1,.11-.33l.07,0c.44-.16.87-.33,1.3-.52a.28.28,0,0,1,.35.17.3.3,0,0,1-.16.37c-.34.15-.69.29-1,.42.1.27.2.53.29.8l.82-.35a.27.27,0,0,1,.35.17.28.28,0,0,1-.16.36l-.82.36c.11.3.22.6.34.9l.53-.21L393,450A.27.27,0,0,1,393.38,450.14Z"/><path d="M391,450.87l-1-.92a1.33,1.33,0,0,0,.24-.51,1,1,0,0,0-.18-.78.87.87,0,0,0-.75-.33,2,2,0,0,0-1,.26.28.28,0,0,0-.06.36l.06.05a.19.19,0,0,0,0,.08c.13.42.26.83.4,1.24l.06.18c.15.44.31.88.47,1.31a.25.25,0,1,0,.46-.18l-.42-1.16a2,2,0,0,0,.32-.18l.93.84.15.13a.25.25,0,0,0,.35,0A.26.26,0,0,0,391,450.87Zm-1.28-1.48h0a1,1,0,0,1-.07.15h0l0,.06a.19.19,0,0,1-.06.07.19.19,0,0,1-.06.07h0l0,.05-.17.11-.14.08c-.12-.36-.23-.71-.34-1.07l.19-.05a1.75,1.75,0,0,1,.4,0h.13l.06,0h0l0,0,0,0h0l.05.06h0v0l0,.06,0,.06h0v.13h0s0,.05,0,.08Z"/><path d="M388.76,450.32l.06.18a.25.25,0,0,1,0-.07A.23.23,0,0,1,388.76,450.32Z"/><polygon points="389.78 449.27 389.78 449.27 389.78 449.27 389.78 449.27"/><polygon points="389.77 449.14 389.77 449.14 389.77 449.14 389.77 449.14 389.77 449.14"/><path d="M394.77,449.33h0Z"/><path d="M394.88,449.25h0Z"/><path d="M396.22,448.92l-.58-.26a2.46,2.46,0,0,0-.33-1.44,2,2,0,0,0-.66-.68,1.19,1.19,0,0,0-1.13-.05h0a1.29,1.29,0,0,0-.59,1.38,3.29,3.29,0,0,0,.25,1,1.72,1.72,0,0,0,.72.85,1.3,1.3,0,0,0,.92.18,1,1,0,0,0,.59-.46,2.4,2.4,0,0,0,.11-.23l.48.22a.26.26,0,0,0,.35-.14A.28.28,0,0,0,396.22,448.92Zm-1.09-.46-.38-.14a.27.27,0,0,0-.35.13.28.28,0,0,0,.13.36l.51.19a.8.8,0,0,1-.13.21l0,0h0a.1.1,0,0,1-.05,0l-.05,0h0l-.07,0h-.12l-.09,0a.61.61,0,0,1-.18-.05,1.11,1.11,0,0,1-.59-.54,2.85,2.85,0,0,1-.24-.75,1.64,1.64,0,0,1,0-.8.43.43,0,0,1,0-.07h0l0,0h0l0-.05,0,0h0l.06,0c-.05,0,0,0,0,0h0a.73.73,0,0,1,.7,0h0l0,0,.11.09a.83.83,0,0,1,.2.22A1.9,1.9,0,0,1,395.13,448.46Z"/><path d="M395.64,445.91c.16.53.32,1.06.53,1.57a2.36,2.36,0,0,0,.84,1.2,1,1,0,0,0,1.3-.4,2,2,0,0,0,.18-1.45,8.55,8.55,0,0,0-.56-1.8.27.27,0,0,0-.5.19,10.68,10.68,0,0,1,.45,1.35,2.37,2.37,0,0,1,.08,1.18c-.07.28-.4.63-.69.45a2,2,0,0,1-.61-1c-.2-.5-.36-1-.52-1.52-.1-.34-.6-.15-.5.19"/><path d="M402.28,443a1.25,1.25,0,0,0-.79.72,1.1,1.1,0,0,0,.11,1c.24.33.61.37.95.53s.51.32.43.63-.56.49-.9.48a.25.25,0,0,0-.22.27.28.28,0,0,0,.27.23,1.36,1.36,0,0,0,1.08-.42,1,1,0,0,0,.18-1,1.39,1.39,0,0,0-.85-.69c-.28-.1-.61-.17-.65-.54a.72.72,0,0,1,.57-.75c.29-.09.12-.56-.18-.47"/><path d="M405.63,442a.28.28,0,0,1-.15.36c-.28.13-.56.24-.84.35.31.91.62,1.82.92,2.73a.27.27,0,1,1-.51.19c-.3-.91-.61-1.82-.92-2.73l-.67.28a.29.29,0,0,1-.36-.16.29.29,0,0,1,.16-.36c.67-.31,1.36-.52,2-.82A.26.26,0,0,1,405.63,442Z"/><g class="cls-23"><g id="Artwork_106" data-name="Artwork 106"><g class="cls-24"><g class="cls-24"><path class="cls-25" d="M320.32,370.24l-18.25,29.21c-4.72.22-10.33-2.23-15.19-5.91-10.71-8.1-10.49-16.61-10.49-16.61L296.07,356s-4.83-17.06,8.45-27.84,11.82-8.05,14.7-13.61c3-5.82,7.55-11.08,12.54-7,2.2,1.8,4.21,5.61,1.17,12.52-3.3,7.51-10.06,8.79-10,11.44,0,0,2,3.79,17.83-7.59s15.8-12.83,21.3-12c5.21.79,6,4.66,6,4.66a7,7,0,0,1,7.86.76c3.72,2.81,1.52,7.55,1.52,7.55s2.41.62,2.59,4.39c.23,4.88-4.15,7.25-4.15,7.25s1.38,4.16-4.42,8.1c-7.4,5-11.08,9.16-14.7,12.14-3.4,2.78-15.94,9.89-28.35,12.4-5.85,1.18-8.08,1.05-8.08,1.05"/><path d="M321,353.34A23.61,23.61,0,0,1,345.09,348c1.62.58,2.59-2,1-2.54a26.22,26.22,0,0,0-26.79,5.78c-1.24,1.2.42,3.34,1.67,2.13"/><path d="M352,346.2c4.54-3.32,8.91-7,13.92-9.53a11.88,11.88,0,0,1,4.95-1.6,3.42,3.42,0,0,1,3.42,2.39c.67,1.61,3.1.49,2.42-1.12-3.77-8.93-15-.6-19.68,2.76-2.25,1.62-4.45,3.33-6.7,5-1.39,1,.28,3.15,1.67,2.13"/><path d="M337.85,335.86a20.36,20.36,0,0,1,7.39,5.13,34.41,34.41,0,0,1,5.73,7.4,1.36,1.36,0,0,0,1.76.69,1.4,1.4,0,0,0,.66-1.81,37.32,37.32,0,0,0-6.26-8.18,23.16,23.16,0,0,0-8.31-5.77c-1.61-.57-2.59,2-1,2.54"/><path d="M339.35,335.38c4.17-3,8.18-6.21,12.41-9.1A85.28,85.28,0,0,1,362,320.42a58.47,58.47,0,0,1,5.62-2.48,1.39,1.39,0,0,0,.67-1.8,1.34,1.34,0,0,0-1.76-.69,72.37,72.37,0,0,0-10.25,4.9A99.39,99.39,0,0,0,344.81,328c-2.37,1.77-4.72,3.57-7.13,5.3-1.4,1,.27,3.13,1.67,2.12"/><path d="M348.33,339.59a179,179,0,0,1,15.27-9.66,38.3,38.3,0,0,1,7.18-3.25c1.87-.59,4.13-1.13,5.94-.12a1.32,1.32,0,0,0,1.72-.77,1.42,1.42,0,0,0-.74-1.78c-3.33-1.85-7.8-.07-11,1.3a93.46,93.46,0,0,0-12.86,7.33q-3.66,2.33-7.2,4.82a1.41,1.41,0,0,0-.19,1.93,1.33,1.33,0,0,0,1.86.2"/></g></g></g><path class="cls-18" d="M-25.76,509.7c-6.67-1.53-12.85-1.76-21-3.72-1.84-6.1-2-12.58-2.21-19-1.35-48.44-3.29-88.72,17.25-133.62C-22.38,333-9.15,318,7.11,302.91c3.25-3,6.63-6,10.61-7.84,20.94-9.72,39.77-10.54,62.61-7.87,28.8,3.37,57.24,9.06,83.85,21.16,11.6,5.28,22.45,18.61,30.42,28.45,14.6,18,21.45,39.15,33.36,58.59,9.2,15,15.12,12.51,24.33,1.19l24.29-29.84c2.28-2.81,4.85-5.79,8.35-6.43,2.79-.52,5.6.59,8.16,1.81A78.11,78.11,0,0,1,313.26,376a22.55,22.55,0,0,1,4.92,6.12c3.23,6.47.82,14.36-2.22,20.93-10.1,21.74-24,35.3-40.58,52.05-13.48,13.62-31.68,24-51.89,23.34-14.81-.51-26.47-6.52-35.2-19C178.22,445.15,172.37,436.73,168,420c-.51-1.93-1.3-7.93-1.3-7.93-2,5.15-.45,18.15-.15,23.71.36,6.88.72,13.76.71,20.65,0,11.88-1.11,23.8-5.23,35-2.62,7.11-5.91,14.4-11.88,18.89-6.9,5.19-16,5.67-24.55,6l-97.7,3.27c-5.07.17-10.89,0-14.14-4-2.4-3-1.67-7.3-2.67-11-14-52.48,5.39-88.9,5.49-128,5.7,17.29-11.8,46.33-12.66,64.57C2.67,467,21,491.35,17.43,517.05c-.69,4.93-31-3.08-33.9-4.33A54.82,54.82,0,0,0-25.76,509.7Z"/><path class="cls-25" d="M83.07,279.82c-5.58,10.56-8.53,23.14-3.24,33.53,4.68,9.21,16.9,10.48,28.22,10.82s21.4.09,29-7.75a41.42,41.42,0,0,0,11.47-28.55l-64.9-10.58c-.15,1.27-.29,2.53-.45,3.81A6.94,6.94,0,0,0,83.07,279.82Z"/><path class="cls-26" d="M20,384.94c1.31-3.44,4-6.12,6.5-8.71q4.31-4.51,8.57-9.08c6.45-6.95,13-13.9,18.92-21.38,4.9-6.22,9.44-12.73,14-19.26,2.65,2.76,6.38,3.78,9,6.54.15.15-19.51,26.31-21.3,28.56-4.75,6-9.83,11.68-15.1,17.18-6.71,7-13.74,15.68-22.53,19.93"/><path class="cls-26" d="M169,378.2c-.68-2.73-2.39-5-3.91-7.11-1.78-2.5-3.56-5-5.31-7.53-4-5.76-8.06-11.52-11.62-17.64-3-5.1-5.67-10.39-8.35-15.7-2,2-4.64,2.51-6.64,4.47C133,334.8,144.87,356.17,146,358c2.88,4.9,6,9.6,9.27,14.17,4.16,5.82,8.44,12.93,14.21,16.74"/><path class="cls-9" d="M40,290.12c1.34,8.94,6.36,16.94,12,23.63a90.81,90.81,0,0,0,20.75,17.89c14.73,9.29,32.66,12.31,49.65,9.66,9.31-1.45,18.45-4.89,25.78-11.11,1.74-1.48-.75-4-2.49-2.56-12.48,10.6-30.93,12.53-46.39,10.1a63.93,63.93,0,0,1-22.22-7.67A87.37,87.37,0,0,1,56.9,313.91c-6.37-6.85-12.13-15.18-13.56-24.75-.34-2.3-3.73-1.33-3.39,1Z"/><path d="M149.89,288.75a9.66,9.66,0,0,0-9.26,5.65,10.24,10.24,0,0,0,1.86,10.93A12.1,12.1,0,0,0,138,316.21a11.88,11.88,0,0,0,7,9.35,9,9,0,0,0-5.92,7.26,9.14,9.14,0,0,0,3.89,8.59,6.91,6.91,0,0,0-1.63,9.84,6.45,6.45,0,0,0,9.68-.14,6.91,6.91,0,0,0-1.89-9.79,10.08,10.08,0,0,0,6.79-7,10.45,10.45,0,0,0-2.34-9.59,10,10,0,0,0,.85-18.42c5.24-1.51,8.12-8.59,5.5-13.51S150,286.6,149.89,288.75Z"/><path d="M143.26,353.22a17.4,17.4,0,0,0-6.52,16.2A16.43,16.43,0,0,0,148,382.59a8.53,8.53,0,0,0,3.29,1.33,2.88,2.88,0,0,0,3-1.53c.62-1.45-.39-3-1-4.48-2.73-6,.74-13,.82-19.64a11,11,0,0,0-1.44-6.06,5.72,5.72,0,0,0-5.16-2.82A5.32,5.32,0,0,0,143.26,353.22Z"/><path class="cls-25" d="M92,286.77c6.76,8.22,15.67,14.71,25.72,17.67s21.24,2.22,30.48-2.82c8.65-4.71,15.17-12.84,19.75-21.75s10.9-21.06,13.68-30.72c4.11-14.31,5.89-21,8.83-40.52.71-4.71,2.61-9.59.82-14-2.26-5.54-8.46-8-14-9.64q-16.5-5-33.4-8.38c-13-2.61-26.94-4.41-39.07,1.06C94.18,182.44,86.34,192.28,82,203.26s-5.44,23-5.26,34.87C77,255.39,81,273.41,92,286.77Z"/><path d="M63.62,293.14a8.39,8.39,0,0,0-2,11.25,10.71,10.71,0,0,1,1.53,2.32c.71,2-.54,4-1.22,6-2,5.76,1.86,12.87,7.66,14.13-2.3,2.08-4.38,4.78-4.51,7.93a7.57,7.57,0,0,0,5.66,7.16c-2.9.09-4.09,4.48-2.35,6.88s5,3,7.88,2.89a11.07,11.07,0,0,0,6.15-1.8,5.72,5.72,0,0,0,2.34-5.8c-.57-2.14-3.24-3.58-5.08-2.41a8.05,8.05,0,0,0-.87-15.74,8.5,8.5,0,0,0,5.84-8.8,8.36,8.36,0,0,0-7.48-7.35c4.54-3.75,5-11.64,1-16S67.31,290.63,63.62,293.14Z"/><path d="M74.63,348.43A7.16,7.16,0,0,0,68.76,351a13.59,13.59,0,0,0-2.87,6,23.58,23.58,0,0,0,5.28,20.71,22,22,0,0,0,19.65,6.91,3.8,3.8,0,0,0,2.62-1.29,3.26,3.26,0,0,0-.37-3.6,25.22,25.22,0,0,0-2.71-2.66c-2.31-2.33-3.33-5.7-3.75-9s-.35-6.66-.89-9.94-1.82-6.6-4.36-8.65-6.57-2.36-8.86,0C72.17,349.59,72.68,350.16,74.63,348.43Z"/><path d="M176.76,220.18a2.9,2.9,0,0,1-2.42-1.32c-2.41-3.64-6.83-5-10.27-3.13a2.9,2.9,0,0,1-4-1.27,3.09,3.09,0,0,1,1.24-4.08c6.07-3.28,13.73-1.09,17.83,5.07a3.08,3.08,0,0,1-.77,4.2A2.82,2.82,0,0,1,176.76,220.18Z"/><path d="M139.64,212.48a2.87,2.87,0,0,1-2.27-1.12,7.75,7.75,0,0,0-10.76-.91,2.88,2.88,0,0,1-4.14-.26,3.1,3.1,0,0,1,.26-4.27,13,13,0,0,1,9.91-3.22,13.24,13.24,0,0,1,9.27,4.85,3.09,3.09,0,0,1-.42,4.25A2.9,2.9,0,0,1,139.64,212.48Z"/><path class="cls-7" d="M120.07,223.31c-2.19,6.59,8.55,10.93,16.56,8C146.13,223.28,123.4,216.26,120.07,223.31Z"/><path class="cls-7" d="M155.2,231.2c-2.19,6.59,8.55,10.93,16.55,8C181.26,231.17,158.53,224.15,155.2,231.2Z"/><path d="M147.57,265.94a4.6,4.6,0,0,1-2.76-.92,5.56,5.56,0,0,1-1.2-1.22,5.28,5.28,0,0,1-1.25.79,4.57,4.57,0,0,1-4.14-.09c-2.7-1.48-4-5.8-2.65-9.06a1.74,1.74,0,0,1,2.3-1,1.82,1.82,0,0,1,.95,2.36c-.66,1.62.05,3.92,1.05,4.47a1.16,1.16,0,0,0,1.06,0,2.7,2.7,0,0,0,1.39-1.85,1.77,1.77,0,0,1,1.86-1.36,1.79,1.79,0,0,1,1.6,1.68,3.2,3.2,0,0,0,1.07,2.31,1.14,1.14,0,0,0,1.37.05c.57-.37,1.38-1.42,2-4.29a34,34,0,0,0-.79-16.68,1.82,1.82,0,0,1,1.13-2.28,1.75,1.75,0,0,1,2.21,1.17,37.76,37.76,0,0,1,.89,18.54c-.68,3.34-1.83,5.49-3.52,6.6A4.57,4.57,0,0,1,147.57,265.94Z"/><ellipse cx="127.33" cy="226.33" rx="3.49" ry="3.6"/><ellipse cx="161.56" cy="234.22" rx="3.49" ry="3.6"/><ellipse cx="161.56" cy="234.22" rx="3.49" ry="3.6"/><path class="cls-25" d="M96.06,224.38c-.21-3.76-1.2-7.61-3.58-10.46s-6.35-4.49-9.82-3.3-5.68,4.89-6.88,8.51a37.83,37.83,0,0,0-1.5,15.94c.55,5.08,2.16,10.37,6,13.59s10.36,3.34,13.23-.82c1.66-2.43,1.77-5.6,1.82-8.57C95.43,233.74,96.27,228.25,96.06,224.38Z"/><path d="M190.75,224.25c-9.06-7.5-15.5-18.84-18.67-30.28,6.32,1.87,13,1.09,19.61,1.22a1.7,1.7,0,0,1,1.11.28,1.89,1.89,0,0,1,.47,1.36l2.21,30.52c-.66-.24-1.39-.39-2-.68a7.63,7.63,0,0,1-2.29-1.62"/><path class="cls-18" d="M64.83,295.35C45,286.85,33.69,263.87,29,243.45c-6-26-2.93-54.72,10.79-77.71,25.23-42.29,86.89-56.11,127-27.83,30.3,21.36,40.57,62.71,31.54,98.2a101.52,101.52,0,0,1-36.76,55.7c8.66-20.45,17.84-41.38,22.86-63.18,1.38-6,2.48-12.22,2.14-18.4a43.54,43.54,0,0,0-.86-8.16c-2.33-4.81-24.42-3.35-29.85-3.49q-16.2-.41-32.41-.36c-8.45,0-19.52-1.17-26.63,3.09-3.39,2-4.4,2.21-5.41,6.1-.8,3.08.44,6.85.16,10-.34,4-.74,8.26-2.59,11.86-2.63,5.12-2.69,7.44-1.51,13.71.43,12.27,3,37.83-5.94,49.61C77.53,297.86,70.8,297.9,64.83,295.35Z"/><path class="cls-18" d="M68.4,296.87c31.24,6.3,32.24-50.91,32.7-72.36-2-31-2.57-33.89,28.75-33.25,22.66,0,33.72,1.9,51.06,3.85,27.15,23.78-34.56,108.84-14.29,94.06,35.88-33.85,51-116-14.63-122.14-37.57-10-59-6.26-73,34.45C71.18,231.11,51.7,267.42,68.4,296.87Z"/><path d="M161.92,492c-4.61,12.29-4.69,10.86-9.37,15.69-16.85-26.22-24.82-41.89-41.14-69.62-.06-9.75.52-19.6.5-23.77,17.11,24.27,24.79,32.77,39.47,52.34,1.77,2.37,9.46,10.85,12.88,15.7"/><path d="M4,479.33c-1.17,9.68-.55,10.08-.36,20.43q53.66-29.55,106.23-61.63c1.79-9.58.68-19.12,1.44-23.22-35.91,17.69-53,29.77-83.61,43.71C24,460.3,11.63,466.27,5,469.1"/><path class="cls-27" d="M83.7,286.63a12.9,12.9,0,0,0,5.12-1.88c1.41-.88.4,0,2.13-1.73a37,37,0,0,0,11.2,13.39,41.71,41.71,0,0,0,16.95,8.17c-11,3-23.14-4-31.4-11-.64-.54-6.49-6.35-4-7"/><path class="cls-22" d="M182.55,196c3.42-1.74,6.2-1.87,9.29.34S195,205,195.31,209c2,27.1-6.7,56.83-24.19,77.14-2.48,2.88-8,5.72-11.65,6.31,5.66-15.87,13.85-31.75,19.51-47.62,2.56-7.2,2.28-13.89,2.73-21.54.51-8.66,4.4-16.19,1.29-25.77"/><path d="M126.66,309c-11.15,0-21.63-5.22-27.49-13.93a2.46,2.46,0,0,1,.59-3.36,2.29,2.29,0,0,1,3.26.61c5.51,8.2,16.45,12.89,27.21,11.65,9.72-1.12,19.41-6.58,27.29-15.38,9.84-11,14.9-30.23,18.24-43a151.41,151.41,0,0,0,4.9-48,2.39,2.39,0,0,1,2.18-2.57,2.36,2.36,0,0,1,2.49,2.25,156,156,0,0,1-5.05,49.6c-4.4,16.76-9.52,34-19.32,45-8.64,9.66-19.38,15.66-30.21,16.91A37.66,37.66,0,0,1,126.66,309Z"/><path d="M103.05,220.62c9.06-7.5,15.5-18.83,18.67-30.27-6.32,1.86-13,1.08-19.61,1.21a1.76,1.76,0,0,0-1.11.28,1.91,1.91,0,0,0-.47,1.37l-2.22,30.52c.67-.24,1.4-.39,2-.69a7.6,7.6,0,0,0,2.29-1.61"/><path class="cls-22" d="M101.1,194a91.29,91.29,0,0,0-11.22,2.83,5,5,0,0,0-2.55,1,4.44,4.44,0,0,0-.87,2.43c-2.37,16.8-1.48,34-4,50.75s-5.71,34.85-19.34,44.39c.36-.25,6.47,2,7.34,2.05a22.91,22.91,0,0,0,7.1-.41c7.86-1.69,10.67-7.36,14.56-14.24,9.5-16.8,8.47-36.61,8.94-55.31a99,99,0,0,1,7-34.87"/><path class="cls-28" d="M71.07,181a12.52,12.52,0,0,1,2.3.35c6.25-5.6,53.48-47.12,88.37-55.22,0,0,46.29,9,53.1,71.8,0,0-92.35-1.66-130.86-.86a14,14,0,0,1-14.5,12.41A14.27,14.27,0,0,1,71.07,181"/><path class="cls-21" d="M201.56,186.85a64.12,64.12,0,0,0-16.13-29.36c-8.81-8.93-20.4-13.83-31.87-18-1.72-.62-2.34,2.23-.64,2.85,11,4,22.11,8.71,30.56,17.26a61.07,61.07,0,0,1,15.37,28.11c.45,1.83,3.16,1,2.71-.87"/><path d="M22.59,293c-.62,17.6-2.19,40.19-1.51,57.79C22.18,379,19.9,408,5.35,431.9A16.64,16.64,0,0,1,2,436.2c-1.94,1.61-4.33-.93-6.79-1.35-20.24-3.47-27.12-2.3-44.94,4.67-.79-36.79,9.08-101.54,63.52-142.17"/><path class="cls-26" d="M-49.76,440.18c6-2.31,11.36-4.21,17.68-5a77.24,77.24,0,0,1,8.81-.89c9.93-.06,18.38,2.47,27.12,6.53.31-7.31,3.42-9.57,4.26-13.62a2.42,2.42,0,0,0,0-1.28A2.36,2.36,0,0,0,7.4,425a41.18,41.18,0,0,0-13.15-8,65.11,65.11,0,0,0-16.46-3.2c-6.06-.49-12.09,0-18.15.15a34.57,34.57,0,0,0-7.16.84,1.76,1.76,0,0,0-.94.39c-.28.29-.52,4.72-.54,5.14-.41,9.65-1,8.62-.73,19.27"/><path class="cls-9" d="M107.74,331.83a566,566,0,0,1,2.54,71.2c-.55,23.73-2.24,47.4-4.39,71-1.22,13.41-2.6,26.8-4,40.18-.24,2.32,3.27,2.3,3.51,0,2.47-23.7,4.87-47.42,6.49-71.2,1.62-23.63,2.48-47.33,1.89-71-.34-13.42-1.15-26.83-2.53-40.18-.24-2.29-3.76-2.32-3.52,0Z"/><path d="M164.18,308.36c1.56,4.08,2.18,10.06,2.52,14.43,1.3,16.85.84,33.77-.19,50.62-.53,8.44-1.19,16.88-1.86,25.31-.58,7.33-1.71,14.89,1.53,21.76,5.18,11,10.94,21.67,16.42,32.54,7.1,14.07,20.34,21.48,31.39,24.34,3.15.81,7.22.69,6.3-3.72-1-5-.09-9.74.63-14.68.67-4.67.77-9.45,1.14-14.16.8-10.3,1.58-20.62,3.06-30.85,1-6.67,5.79-12.24,2.84-18.55-10.71-22.9-22.07-47.28-39.45-66.49-7.76-8.57-14.19-14.94-24.33-20.55"/><path class="cls-26" d="M215.81,477.67c-1.5-14,.32-28.14,2.91-41.91,2.52-13.38,4.63-27.55,9.24-40.36,2.16,2.73,5,7.77,7.88,9.17.82.4,2.72,1.18,2.72,1.18,0,.92,0,2.39,0,3.42a386.5,386.5,0,0,0,5.52,63.65,3.13,3.13,0,0,1-.09,2,2.81,2.81,0,0,1-1.51,1.1,42.47,42.47,0,0,1-26.71,1.74"/><g id="Artwork_61" data-name="Artwork 61"><g class="cls-29"><g class="cls-29"><path d="M124.56,261.41a11.15,11.15,0,0,1-1.77,3.61,9.48,9.48,0,0,1-3,2.76,5.26,5.26,0,0,1-4.27.3,8,8,0,0,1-.81-.32,2.55,2.55,0,0,1-1.45-1.06,1.82,1.82,0,0,1,.33-2.14,1.68,1.68,0,0,1,2.4.1,1.75,1.75,0,0,1,.21,2.06l0,0a1.66,1.66,0,0,1-2.27.55,1.75,1.75,0,0,1-.53-2.34v0l.21,2.06,0,0,.74.46h-.05l1.59-.4,0,0,.47-1.65v.07l-.4-.75c-.53-.31-.68-.41-.44-.3l.17.08.29.12c.21.09.42.17.64.24l.36.1.14,0c-.24-.06.09,0,.15,0h.37c.39,0-.32.09,0,0a2,2,0,0,0,.26-.06,1,1,0,0,0,.26-.08l-.14.05.14-.07a5.39,5.39,0,0,0,.52-.3s.2-.09.23-.16c-.18.14-.22.17-.13.09l.13-.1a9.16,9.16,0,0,0,1-.92l.2-.23c.23-.28,0,0,0,0a4.74,4.74,0,0,1,.42-.6,11.27,11.27,0,0,0,.63-1.13c.1-.23.1-.14,0,0a1.51,1.51,0,0,0,.14-.35c.08-.23.16-.47.23-.71a1.65,1.65,0,0,1,2-1.15,1.72,1.72,0,0,1,1.12,2.1"/><path d="M149,275.88c.05,0-1.67,12.22-12.62,12.81s-18.94-10.94-18.67-22c0,0,1.43-3.22,4.74.8S137,279.65,149,275.88"/><path class="cls-7" d="M124.18,267.26c0,6.25,6.58,13,13,13.91,4.48.67,6.68-2.63,7.73-5.47-9.18.56-17.29-4.88-20.73-8.44"/><path class="cls-30" d="M119,275.21c2.26,6.4,7.09,11.75,13.29,13.14a16,16,0,0,0-5-9.44,11.44,11.44,0,0,0-8.33-3.7"/><path d="M152.79,276.34A23.86,23.86,0,0,1,139,277.73a38.46,38.46,0,0,1-13.88-6,15.74,15.74,0,0,1-5.56-5.44c-1-1.91,1.86-3.55,2.89-1.63a11.26,11.26,0,0,0,3.91,3.85,48,48,0,0,0,6.06,3.48,26.32,26.32,0,0,0,12.38,2.75,18.54,18.54,0,0,0,6.45-1.42,1.67,1.67,0,0,1,2.24.67,1.75,1.75,0,0,1-.65,2.31"/></g></g></g><path d="M278.3,365.52a85.76,85.76,0,0,1,39.91,31.91c2.16-4.87,4.35-10.48,2.36-15.43a17.32,17.32,0,0,0-4.07-5.49A76.66,76.66,0,0,0,298.13,363c-3.39-1.78-7-3.32-10.81-3.32s-7.78,1.85-9.52,5.4"/><path d="M9,425.81q-2.38,34.92-7,69.61-1.31,9.87-2.8,19.71c-.35,2.28,3,3.26,3.38,1Q7.92,481.18,11,446q.88-10.07,1.56-20.16c.16-2.32-3.36-2.31-3.51,0Z"/></g><path class="cls-3" d="M68.33,373.58a26.25,26.25,0,0,0,9-.36c.62-.14.36-1.1-.27-1a24.88,24.88,0,0,1-8.43.37c-.63-.09-.91.87-.27,1Z"/><path class="cls-3" d="M136.67,374.77a12.61,12.61,0,0,0,4.32-.45.5.5,0,0,0-.27-1,11.78,11.78,0,0,1-4.05.42.5.5,0,1,0,0,1Z"/></g></svg>