<svg xmlns="http://www.w3.org/2000/svg" xmlns:xlink="http://www.w3.org/1999/xlink" viewBox="0 0 1440 723"><defs><style>.cls-1,.cls-2,.cls-3,.cls-59{fill:none;}.cls-1{clip-rule:evenodd;}.cls-2{fill-rule:evenodd;}.cls-4{clip-path:url(#clip-path);}.cls-5{clip-path:url(#clip-path-2);}.cls-6{clip-path:url(#clip-path-3);}.cls-7{clip-path:url(#clip-path-4);}.cls-8{clip-path:url(#clip-path-5);}.cls-9{clip-path:url(#clip-path-6);}.cls-10{clip-path:url(#clip-path-7);}.cls-11{clip-path:url(#clip-path-8);}.cls-12{clip-path:url(#clip-path-9);}.cls-13{clip-path:url(#clip-path-10);}.cls-14{clip-path:url(#clip-path-11);}.cls-15{clip-path:url(#clip-path-12);}.cls-16{clip-path:url(#clip-path-13);}.cls-17{clip-path:url(#clip-path-14);}.cls-18{clip-path:url(#clip-path-15);}.cls-19{clip-path:url(#clip-path-16);}.cls-20{clip-path:url(#clip-path-17);}.cls-21{clip-path:url(#clip-path-19);}.cls-22{clip-path:url(#clip-path-20);}.cls-23{clip-path:url(#clip-path-21);}.cls-24{clip-path:url(#clip-path-22);}.cls-25{clip-path:url(#clip-path-23);}.cls-26{clip-path:url(#clip-path-24);}.cls-27{clip-path:url(#clip-path-25);}.cls-28{clip-path:url(#clip-path-26);}.cls-29{clip-path:url(#clip-path-27);}.cls-30{clip-path:url(#clip-path-28);}.cls-31{clip-path:url(#clip-path-29);}.cls-32{clip-path:url(#clip-path-30);}.cls-33{clip-path:url(#clip-path-31);}.cls-34{clip-path:url(#clip-path-32);}.cls-35{clip-path:url(#clip-path-33);}.cls-36{clip-path:url(#clip-path-34);}.cls-37{clip-path:url(#clip-path-35);}.cls-38{clip-path:url(#clip-path-36);}.cls-39{clip-path:url(#clip-path-37);}.cls-40{clip-path:url(#clip-path-38);}.cls-41{clip-path:url(#clip-path-39);}.cls-42{clip-path:url(#clip-path-40);}.cls-43{clip-path:url(#clip-path-41);}.cls-44{clip-path:url(#clip-path-42);}.cls-45{clip-path:url(#clip-path-43);}.cls-46{clip-path:url(#clip-path-44);}.cls-47{clip-path:url(#clip-path-45);}.cls-48{clip-path:url(#clip-path-46);}.cls-49{clip-path:url(#clip-path-47);}.cls-50{clip-path:url(#clip-path-48);}.cls-51{clip-path:url(#clip-path-49);}.cls-52{clip-path:url(#clip-path-50);}.cls-53{clip-path:url(#clip-path-51);}.cls-54{clip-path:url(#clip-path-52);}.cls-55{clip-path:url(#clip-path-53);}.cls-56{clip-path:url(#clip-path-54);}.cls-57,.cls-59{opacity:0.51;}.cls-58{fill:#eee;}.cls-59{stroke:#eee;stroke-miterlimit:10;stroke-width:8px;}</style><clipPath id="clip-path"><path class="cls-1" d="M725.83-1412.62h30a1.5,1.5,0,0,1,1.5,1.5,1.5,1.5,0,0,1-1.5,1.5h-30a1.5,1.5,0,0,1-1.5-1.5A1.5,1.5,0,0,1,725.83-1412.62Z"/></clipPath><clipPath id="clip-path-2"><path class="cls-1" d="M298-1431.18v8.64c0,.91.38,1.24,1.47,1.24h2.11v1.83h-2.14c-2.51,0-3.53-.89-3.53-3.1v-8.61H293v-1.75h2.92v-3H298v3h4.31v1.75Z"/></clipPath><clipPath id="clip-path-3"><path class="cls-1" d="M301.62-1419.41h-2.19c-2.54,0-3.58-.92-3.58-3.16v-8.55h-2.92V-1433h2.92v-3H298v3h4.32v1.86H298v8.58c0,.89.36,1.19,1.42,1.19h2.16ZM293-1431.23H296v8.66c0,2.19,1,3,3.47,3h2.08v-1.72h-2.05c-1.12,0-1.53-.35-1.53-1.3v-8.69h4.32v-1.64h-4.32v-3h-2v3H293Z"/></clipPath><clipPath id="clip-path-4"><path class="cls-1" d="M303.55-1426.12a6.82,6.82,0,0,1,7.16-7.19,6.82,6.82,0,0,1,7,7.08v.77H305.66c0,2.71,2.28,4.59,5.07,4.59a5.43,5.43,0,0,0,4.93-2.87l1.65,1.1a7.25,7.25,0,0,1-6.58,3.55C306.42-1419.09,303.55-1421.86,303.55-1426.12Zm12-1a4.82,4.82,0,0,0-4.88-4.39,4.77,4.77,0,0,0-5,4.39Z"/></clipPath><clipPath id="clip-path-5"><path class="cls-1" d="M310.73-1419a7.32,7.32,0,0,1-5.25-1.94,7,7,0,0,1-2-5.15,7.23,7.23,0,0,1,2-5.26,7.19,7.19,0,0,1,5.2-2,6.87,6.87,0,0,1,7.06,7.15v.81H305.71a4.73,4.73,0,0,0,5,4.49,5.37,5.37,0,0,0,4.88-2.84l0,0,.05,0,1.7,1.12,0,0A7.31,7.31,0,0,1,310.73-1419Zm0-14.23a6.75,6.75,0,0,0-7.11,7.14c0,4.24,2.8,7,7.13,7a7.23,7.23,0,0,0,6.51-3.49l-1.56-1a5.48,5.48,0,0,1-4.95,2.85,4.83,4.83,0,0,1-5.13-4.65v-.06h12.06v-.7A6.76,6.76,0,0,0,310.71-1433.26Zm4.93,6.18h-10v-.06a4.82,4.82,0,0,1,5.08-4.45,4.89,4.89,0,0,1,4.93,4.45Zm-9.9-.11h9.79a4.79,4.79,0,0,0-4.82-4.29A4.72,4.72,0,0,0,305.74-1427.19Z"/></clipPath><clipPath id="clip-path-6"><path class="cls-1" d="M320.16-1426.2a7,7,0,0,1,7.19-7.11,6.72,6.72,0,0,1,6.83,4.85l-2,.51a4.65,4.65,0,0,0-4.82-3.53,5,5,0,0,0-5.11,5.28,5,5,0,0,0,5.11,5.28,4.65,4.65,0,0,0,4.82-3.53l2,.51a6.72,6.72,0,0,1-6.83,4.85,7,7,0,0,1-7.19-7.11"/></clipPath><clipPath id="clip-path-7"><path class="cls-1" d="M327.35-1419a7.3,7.3,0,0,1-5.18-2,7.14,7.14,0,0,1-2.07-5.14,7.06,7.06,0,0,1,7.25-7.17c3.42,0,6.12,1.92,6.88,4.9v0h-.05l-2.06.52v0a4.6,4.6,0,0,0-4.77-3.49,4.92,4.92,0,0,0-5.05,5.23,4.92,4.92,0,0,0,5.05,5.23,4.6,4.6,0,0,0,4.77-3.49v0h.06l2.05.52v0c-.76,3-3.46,4.9-6.88,4.9m0-14.23a7.2,7.2,0,0,0-5.1,2,7,7,0,0,0-2,5,7,7,0,0,0,2,5.06,7.19,7.19,0,0,0,5.1,2,6.64,6.64,0,0,0,6.76-4.76l-1.9-.48a4.7,4.7,0,0,1-4.86,3.52,5,5,0,0,1-5.16-5.34,5,5,0,0,1,5.16-5.34,4.7,4.7,0,0,1,4.86,3.52l1.9-.48a6.64,6.64,0,0,0-6.76-4.76"/></clipPath><clipPath id="clip-path-8"><path class="cls-1" d="M337-1438h2.09v6.76h.05a6,6,0,0,1,4.77-2.06c3.81,0,6.38,2.31,6.38,5.74v8.1h-2.09v-7.69c0-2.7-1.67-4.32-4.42-4.32a4.38,4.38,0,0,0-4.69,4.42v7.59H337Z"/></clipPath><clipPath id="clip-path-9"><path class="cls-1" d="M167.1-1426.93a5.87,5.87,0,0,1,5.87-5.87,5.86,5.86,0,0,1,5.86,5.87,5.86,5.86,0,0,1-5.86,5.86,5.86,5.86,0,0,1-5.87-5.86"/></clipPath><clipPath id="clip-path-10"><path class="cls-1" d="M234-1428.67a4.72,4.72,0,0,0-5-4.93,4.72,4.72,0,0,0-5,4.93,4.73,4.73,0,0,0,5,4.94,4.72,4.72,0,0,0,5-4.94m-14.8,0c0-5.19,4.11-9.2,9.84-9.2s9.83,4,9.83,9.2-4.08,9.21-9.83,9.21-9.84-4-9.84-9.21"/></clipPath><clipPath id="clip-path-11"><path class="cls-1" d="M259-1433.93c2.6,0,4.41,1.35,4.64,3.39h-9.34c.26-2,2.07-3.39,4.7-3.39m.51,10.52c-2.92,0-5.21-1.88-5.28-3.71H268.4v-1.38a9,9,0,0,0-9.48-9.38c-5.52,0-9.47,3.88-9.47,9.24,0,5.53,4.16,9.18,10.28,9.18a10.06,10.06,0,0,0,7.84-3.52l-3.29-2.31a6.23,6.23,0,0,1-4.75,1.88"/></clipPath><clipPath id="clip-path-12"><polygon class="cls-1" points="271.26 -1442.62 275.96 -1442.62 275.99 -1430.54 276.05 -1430.54 283.92 -1437.92 290.21 -1437.92 282.06 -1430.2 290.18 -1419.47 284.56 -1419.47 278.98 -1427.23 278.92 -1427.23 275.96 -1424.43 275.96 -1419.46 271.26 -1419.46 271.26 -1442.62"/></clipPath><clipPath id="clip-path-13"><path class="cls-1" d="M246.33-606.62h919a34,34,0,0,1,34,34,34,34,0,0,1-34,34h-919a34,34,0,0,1-34-34A34,34,0,0,1,246.33-606.62Z"/></clipPath><clipPath id="clip-path-14"><path class="cls-1" d="M482.33-573.62h60a2,2,0,0,1,2,2,2,2,0,0,1-2,2h-60a2,2,0,0,1-2-2A2,2,0,0,1,482.33-573.62Z"/></clipPath><clipPath id="clip-path-15"><path class="cls-1" d="M578.33-573.62h60a2,2,0,0,1,2,2,2,2,0,0,1-2,2h-60a2,2,0,0,1-2-2A2,2,0,0,1,578.33-573.62Z"/></clipPath><clipPath id="clip-path-16"><path class="cls-1" d="M671.33-573.62h60a2,2,0,0,1,2,2,2,2,0,0,1-2,2h-60a2,2,0,0,1-2-2A2,2,0,0,1,671.33-573.62Z"/></clipPath><clipPath id="clip-path-17"><path class="cls-1" d="M388.33-573.62h60a2,2,0,0,1,2,2,2,2,0,0,1-2,2h-60a2,2,0,0,1-2-2A2,2,0,0,1,388.33-573.62Z"/></clipPath><clipPath id="clip-path-19"><path class="cls-1" d="M768.33-573.62h60a2,2,0,0,1,2,2,2,2,0,0,1-2,2h-60a2,2,0,0,1-2-2A2,2,0,0,1,768.33-573.62Z"/></clipPath><clipPath id="clip-path-20"><path class="cls-1" d="M865.33-573.62h60a2,2,0,0,1,2,2,2,2,0,0,1-2,2h-60a2,2,0,0,1-2-2A2,2,0,0,1,865.33-573.62Z"/></clipPath><clipPath id="clip-path-21"><path class="cls-1" d="M962.33-573.62h60a2,2,0,0,1,2,2,2,2,0,0,1-2,2h-60a2,2,0,0,1-2-2A2,2,0,0,1,962.33-573.62Z"/></clipPath><clipPath id="clip-path-22"><path class="cls-1" d="M1059.33-573.62h60a2,2,0,0,1,2,2,2,2,0,0,1-2,2h-60a2,2,0,0,1-2-2A2,2,0,0,1,1059.33-573.62Z"/></clipPath><clipPath id="clip-path-23"><path class="cls-1" d="M292.33-573.62h60a2,2,0,0,1,2,2,2,2,0,0,1-2,2h-60a2,2,0,0,1-2-2A2,2,0,0,1,292.33-573.62Z"/></clipPath><clipPath id="clip-path-24"><circle class="cls-3" cx="846.83" cy="-572.12" r="8.5"/></clipPath><clipPath id="clip-path-25"><circle class="cls-3" cx="1137.83" cy="-572.12" r="8.5"/></clipPath><clipPath id="clip-path-26"><circle class="cls-3" cx="654.83" cy="-572.12" r="8.5"/></clipPath><clipPath id="clip-path-27"><circle class="cls-3" cx="943.83" cy="-572.12" r="8.5"/></clipPath><clipPath id="clip-path-28"><circle class="cls-3" cx="464.83" cy="-572.12" r="8.5"/></clipPath><clipPath id="clip-path-29"><circle class="cls-3" cx="273.83" cy="-572.12" r="8.5"/></clipPath><clipPath id="clip-path-30"><circle class="cls-3" cx="749.83" cy="-572.12" r="8.5"/></clipPath><clipPath id="clip-path-31"><circle class="cls-3" cx="1040.83" cy="-572.12" r="8.5"/></clipPath><clipPath id="clip-path-32"><circle class="cls-3" cx="559.83" cy="-572.12" r="8.5"/></clipPath><clipPath id="clip-path-33"><circle class="cls-3" cx="369.83" cy="-572.12" r="8.5"/></clipPath><clipPath id="clip-path-34"><path class="cls-1" d="M248.33-602.62h43a30,30,0,0,1,30,30,30,30,0,0,1-30,30h-43a30,30,0,0,1-30-30A30,30,0,0,1,248.33-602.62Z"/></clipPath><clipPath id="clip-path-35"><path class="cls-1" d="M263.86-563.51c-1,1.87-2.07,1.39-1.1,3.24a8.37,8.37,0,0,0,5.72,4.63c1.64.3,3.58.51,5.75-2.27,1.2-1.56,1.71-2.35,1.72-4.17L264-564c0,.22-.06.45-.08.67,0,0,0,0,0-.22"/></clipPath><clipPath id="clip-path-36"><path class="cls-1" d="M276.2-562a1.89,1.89,0,0,0-1.71.82,1.25,1.25,0,0,0,.35,1.58A1.59,1.59,0,0,0,274-558a1.84,1.84,0,0,0,1.3,1.35,1.44,1.44,0,0,0-1.1,1,1.26,1.26,0,0,0,.72,1.25.87.87,0,0,0-.3,1.42,1.42,1.42,0,0,0,1.79,0,.88.88,0,0,0-.35-1.42,1.68,1.68,0,0,0,1.25-1,1.25,1.25,0,0,0-.43-1.38A1.55,1.55,0,0,0,278.1-558a1.46,1.46,0,0,0-1.05-1.38,1.34,1.34,0,0,0,1-2c-.48-.72-1.84-.9-1.86-.59"/></clipPath><clipPath id="clip-path-37"><path class="cls-1" d="M275-552.64a2.31,2.31,0,0,0-1.21,2.35,2.67,2.67,0,0,0,2.09,1.9,1.62,1.62,0,0,0,.6.19.58.58,0,0,0,.56-.22c.11-.21-.08-.44-.2-.65-.5-.87.14-1.87.16-2.84a1.32,1.32,0,0,0-.27-.87,1.14,1.14,0,0,0-.95-.41.93.93,0,0,0-.78.55"/></clipPath><clipPath id="clip-path-38"><path class="cls-1" d="M265.5-562.28a10,10,0,0,0,4.75,3.14,7.77,7.77,0,0,0,5.63-.5,9.13,9.13,0,0,0,3.65-3.86,34.16,34.16,0,0,0,2.53-5.46,44.27,44.27,0,0,0,1.63-7.2,4.59,4.59,0,0,0,.15-2.48,3.72,3.72,0,0,0-2.6-1.71c-2-.59-4.09-1.09-6.16-1.49-2.4-.46-5-.78-7.22.19a8.26,8.26,0,0,0-4.19,4.54,15.5,15.5,0,0,0-1,6.19,13.49,13.49,0,0,0,2.8,8.64"/></clipPath><clipPath id="clip-path-39"><path class="cls-1" d="M260.27-561.33a1.05,1.05,0,0,0-.37,1.63,1.54,1.54,0,0,1,.29.34c.13.28-.11.58-.23.86a1.6,1.6,0,0,0,1.41,2,1.73,1.73,0,0,0-.83,1.15,1.19,1.19,0,0,0,1,1,.6.6,0,0,0-.44,1,1.92,1.92,0,0,0,1.46.42,2.35,2.35,0,0,0,1.13-.26.77.77,0,0,0,.44-.84.73.73,0,0,0-.94-.35,1.25,1.25,0,0,0,1.1-1.19,1.33,1.33,0,0,0-1.26-1.08,1.28,1.28,0,0,0,1.08-1.28,1.43,1.43,0,0,0-1.39-1.06,1.43,1.43,0,0,0,.19-2.31,2.65,2.65,0,0,0-2.69-.1"/></clipPath><clipPath id="clip-path-40"><path class="cls-1" d="M281.17-574.11a.53.53,0,0,1-.45-.23,1.51,1.51,0,0,0-1.9-.56.54.54,0,0,1-.73-.22.55.55,0,0,1,.23-.73,2.58,2.58,0,0,1,3.29.91.52.52,0,0,1-.14.74.55.55,0,0,1-.3.09"/></clipPath><clipPath id="clip-path-41"><path class="cls-1" d="M274.31-575.47a.55.55,0,0,1-.42-.2,1.36,1.36,0,0,0-1-.47,1.4,1.4,0,0,0-1,.31.55.55,0,0,1-.76,0,.53.53,0,0,1,.05-.76,2.49,2.49,0,0,1,1.83-.57,2.49,2.49,0,0,1,1.71.86.54.54,0,0,1-.08.76.54.54,0,0,1-.34.12"/></clipPath><clipPath id="clip-path-42"><path class="cls-1" d="M264-562.3a2.42,2.42,0,0,0,.94-.34c.26-.15.08,0,.4-.31a6.55,6.55,0,0,0,2.07,2.38,7.73,7.73,0,0,0,3.13,1.45c-2,.54-4.28-.71-5.8-1.94-.12-.1-1.2-1.13-.74-1.24"/></clipPath><clipPath id="clip-path-43"><path class="cls-1" d="M270.7-573.55c-.41,1.17,1.57,1.94,3.05,1.43,1.76-1.43-2.44-2.68-3.05-1.43"/></clipPath><clipPath id="clip-path-44"><path class="cls-1" d="M267.55-574A10.66,10.66,0,0,0,271-579.4a14.11,14.11,0,0,1-3.62.21.38.38,0,0,0-.21.05.32.32,0,0,0-.08.25c-.14,1.8-.28,3.61-.41,5.42.12,0,.26-.07.37-.13a1.52,1.52,0,0,0,.43-.28"/></clipPath><clipPath id="clip-path-45"><path class="cls-1" d="M277.18-572.15c-.4,1.17,1.58,1.94,3.06,1.43,1.76-1.43-2.44-2.68-3.06-1.43"/></clipPath><clipPath id="clip-path-46"><path class="cls-1" d="M275.78-566a.91.91,0,0,1-.52-.16,1.14,1.14,0,0,1-.22-.22.79.79,0,0,1-.23.14.88.88,0,0,1-.76,0,1.33,1.33,0,0,1-.49-1.61A.33.33,0,0,1,274-568a.33.33,0,0,1,.18.43.72.72,0,0,0,.19.79.2.2,0,0,0,.2,0,.48.48,0,0,0,.26-.32.3.3,0,0,1,.34-.24.31.31,0,0,1,.29.29.58.58,0,0,0,.2.42.23.23,0,0,0,.25,0c.11-.06.26-.25.37-.76a5.82,5.82,0,0,0-.15-3,.33.33,0,0,1,.21-.41.33.33,0,0,1,.41.21,6.58,6.58,0,0,1,.16,3.3,1.72,1.72,0,0,1-.65,1.17.84.84,0,0,1-.46.13"/></clipPath><clipPath id="clip-path-47"><path class="cls-1" d="M271.39-573a.64.64,0,0,1,.65-.64.64.64,0,0,1,.64.64.64.64,0,0,1-.64.64.65.65,0,0,1-.65-.64"/></clipPath><clipPath id="clip-path-48"><path class="cls-1" d="M277.71-571.61a.65.65,0,0,1,.65-.64.64.64,0,0,1,.64.64.64.64,0,0,1-.64.64.65.65,0,0,1-.65-.64"/></clipPath><clipPath id="clip-path-49"><path class="cls-1" d="M283.75-573.38a10.86,10.86,0,0,1-3.45-5.38,14.58,14.58,0,0,0,3.62.22.3.3,0,0,1,.21,0,.32.32,0,0,1,.09.24c.13,1.81.27,3.61.4,5.42-.12,0-.25-.07-.37-.12a1.37,1.37,0,0,1-.42-.29"/></clipPath><clipPath id="clip-path-50"><path class="cls-1" d="M282.31-578.38a1.52,1.52,0,0,1,1.72.06c.59.4.59,1.53.64,2.24a19,19,0,0,1-4.47,13.7,4.38,4.38,0,0,1-2.15,1.12c1.05-2.82,2.56-5.64,3.6-8.46a12.24,12.24,0,0,0,.51-3.82c.09-1.54.81-2.88.24-4.58"/></clipPath><clipPath id="clip-path-51"><path class="cls-1" d="M267.27-578.73a17.69,17.69,0,0,0-2.07.5.89.89,0,0,0-.47.18.73.73,0,0,0-.16.43c-.44,3-.28,6-.74,9s-1.05,6.19-3.57,7.88c.07,0,1.19.35,1.35.36a4.18,4.18,0,0,0,1.32-.07c1.45-.3,2-1.31,2.69-2.53,1.75-3,1.56-6.5,1.65-9.82a16.85,16.85,0,0,1,1.3-6.19"/></clipPath><clipPath id="clip-path-52"><path class="cls-1" d="M271.91-558.32a6.16,6.16,0,0,1-5.07-2.48.43.43,0,0,1,.11-.6.44.44,0,0,1,.6.11,5.47,5.47,0,0,0,5,2.07,8.28,8.28,0,0,0,5-2.73c1.82-1.95,2.75-5.37,3.37-7.63a26.07,26.07,0,0,0,.91-8.53.42.42,0,0,1,.4-.45.43.43,0,0,1,.46.4,26.89,26.89,0,0,1-.93,8.8c-.82,3-1.76,6.05-3.57,8a9.13,9.13,0,0,1-5.58,3,6.47,6.47,0,0,1-.76,0"/></clipPath><clipPath id="clip-path-53"><path class="cls-1" d="M285.75-580a11.36,11.36,0,0,0-3-5.22,15.3,15.3,0,0,0-5.89-3.19c-.32-.11-.43.39-.12.5a14.9,14.9,0,0,1,5.65,3.07,10.77,10.77,0,0,1,2.84,5c.08.32.58.17.5-.15"/></clipPath><clipPath id="clip-path-54"><polyline class="cls-1" points="268.42 -563.78 275.72 -561.89 276.98 -565.73 269.68 -567.62"/></clipPath></defs><g id="Layer_19" data-name="Layer 19"><g class="cls-57"><path class="cls-58" d="M1430.51,604.31c-49.87,18.08-102.69,31.77-156.15,26.54-25.13-2.45-50.15-9.21-72.48-21.12-17.94-9.57-31.06-23.05-45.23-37.29-12.56-12.62-26.45-26.19-43.87-31.62s-41-.68-54,12.12c-11.22,11-13.86,32.52-.53,43.14,16.8,13.39,37.76-2.17,43.34-19.12,6.53-19.85,1.39-43-7.74-61.18-9.68-19.25-25.23-35.28-43.44-46.65C1014,446.4,968.74,441,926.62,441.89c-34.32.7-71.43,6.23-100.44,25.87-13.85,9.37-25.42,22-32.52,37.22-6.67,14.31-9.1,33.9,2,46.86,11.6,13.53,30.21,8.4,39.27-5,11.08-16.38,9.94-37.86,5-56.15-10.36-38.24-41.1-69.18-77.57-83.43-30.43-11.89-64.9-14.17-97.18-11.11-33.34,3.16-67.23,12.26-95.57,30.59a126.21,126.21,0,0,0-34.24,31.95c-9.53,13.25-21,34.32-11.46,50.17,7.85,13.1,26.15,13.54,38.46,7.17,15.92-8.23,19.16-27.38,12.56-42.94-8.49-20-28.51-31.53-49.55-33.58-25.35-2.48-50.25,7.43-74.85,11.84-48.14,8.62-98.29,4.68-144.75-10.48-40.53-13.22-81.09-36.76-104.47-73.51-24.74-38.9-21-86.33-20.49-130.38.26-22.27-.24-44.74-4.87-66.61a161,161,0,0,0-25.5-58.46c-22-31.58-55.06-54.18-93.1-61.19-19.15-3.53-38.51-3.19-57.69-.05-6.33,1-3.65,10.67,2.66,9.64,35.29-5.77,71.79,0,101.94,19.81,31.25,20.51,53.41,54.46,61.57,90.74,8.73,38.8,3.32,78.89,4.76,118.23,1.42,38.88,11.4,74.83,38.16,104,52.33,57.06,140.76,78.19,215.62,71.73,23.18-2,45.27-7.76,67.94-12.55,22-4.66,47.46-5.73,64.55,11.59,11.5,11.67,18.32,35.19-.21,43.85-5.85,2.74-13.67,3.6-19.52.37-9.2-5.07-7-17.09-3.78-25.28,22.14-56.86,96-76.64,150.81-77.75,28-.57,57.56,2.9,83,15.1,34,16.32,62.11,49.69,65.89,88.1,1.29,13.11-1.43,42.28-20.37,41.69-18-.55-16-27.2-11.16-38.31,12.77-29.6,41.88-45.75,71.89-53.25,30.3-7.58,62.49-8,93.45-4.93,42.65,4.23,87.73,19.56,112.3,57,10.81,16.47,17.77,37.39,14.35,57.23-1.79,10.4-7.55,21.41-19,23-9.62,1.34-15.3-6.42-15.24-15.3.13-20.36,26.43-28.15,43.16-26.55,16.49,1.57,30.22,14.16,41.57,25.14,11.76,11.38,22.52,24.12,35.77,33.86,16.29,12,35.78,20.27,55.16,25.74,43,12.12,88.4,9.91,131.61.34,22.67-5,44.82-12.07,66.63-20,6-2.17,3.41-11.84-2.66-9.64Z"/></g><circle class="cls-59" cx="213" cy="485.5" r="23.5"/><path class="cls-59" d="M1440,506a50.5,50.5,0,0,1,0-101"/><path class="cls-59" d="M1.5,148a66,66,0,0,1,0,132"/><g class="cls-57"><path class="cls-58" d="M-1438.67,520.32c23.5-8,47.59-2.27,71,3.12,19.16,4.42,40,9.75,59.49,3.84,17.25-5.25,32.89-20.77,38.49-37.94,4.67-14.33-1.14-31.74-13.73-40.17-14.25-9.54-32.27-2.27-41.55,10.66-10.85,15.12-9,35,.27,50.4,10.43,17.26,28,29.16,45.65,38.11A172.38,172.38,0,0,0-1219,566c41.52,4.37,83.16-6.38,121.18-22.43,33.87-14.28,65.68-32.6,95.6-53.87,28.24-20.09,55.95-41.07,86.08-58.32,27.56-15.78,59.17-30.25,91.7-28.12,15.75,1,33,6.78,44.73,17.63,7.33,6.77,15.23,25.5.85,30.06-15.75,5-23.89-24.39-26.6-34.46a106.16,106.16,0,0,1-.61-52.73c8.62-35.26,32.93-64.64,59.57-88.23,29-25.65,62.62-45.86,97.71-62,37.91-17.41,79.92-31.55,122-32.82,32.84-1,65.63,4.17,97.89,9.79,65.33,11.39,134,29,200.49,17,30.75-5.58,59.57-19.13,82-41.09,12.94-12.65,24.75-27.58,27.5-46,1.92-12.84.05-31.67-14.89-36-10.79-3.14-19.75,5.53-19.54,16.17.33,16.94,16.33,28.88,32.22,29.69,14.25.74,27.93-7,39.3-14.71,14.34-9.77,27.3-21.41,40.87-32.19,11.41-9.07,24-19,38.5-22.2,6.28-1.38,3.62-11-2.66-9.64-13.73,3-25.72,11.51-36.7,19.91C-55,81.6-67.41,92.81-80.84,102.7c-10.81,8-24.14,17.55-38.19,17.64-9.52.07-19.68-5.06-23.15-14.36-1.42-3.78-2.39-11.24,3.15-12.17s9.1,5.94,10.12,10.31c2.32,10-.22,21.17-4.75,30.16-7.47,14.83-21.13,27.84-34.43,37.56-24.52,17.93-54.14,26.41-84.16,28.7-65.76,5-131-13.14-195.47-23.22-29.82-4.66-60.31-8.42-90.51-5.94C-579,174.73-619.32,188.85-656.18,206c-32.88,15.32-64.22,34.29-92,57.75-25.67,21.71-48.91,48-61.71,79.45a120.33,120.33,0,0,0,2.63,97.27c5.2,11,15.34,23,29,20.55,10.12-1.83,16.82-11.27,17.45-21.18,1.91-29.85-38.11-44.49-62-46.49-30.27-2.54-60.22,9.1-86.55,22.87-29.7,15.53-56.92,35.31-84,54.86-26.87,19.35-54,37.2-83.72,52-37,18.38-77.32,32.9-119,33.81a166.76,166.76,0,0,1-60.14-9.52c-19.48-7-39.63-17.8-53.45-33.52-12.86-14.62-19.41-38.31-2.9-53.05,15.36-13.72,34.46-.66,34.52,18.06.07,19.7-21.72,37.56-39.71,40.31-20.37,3.12-41.39-4.31-61.08-8.53-20.72-4.43-42-7-62.5,0-6.05,2.07-3.45,11.73,2.66,9.64Z"/></g><path class="cls-59" d="M.5,280a66,66,0,0,1,0-132"/></g></svg>
