<?xml version="1.0" encoding="UTF-8"?>
<svg width="129px" height="86px" viewBox="0 0 129 86" version="1.1" xmlns="http://www.w3.org/2000/svg" xmlns:xlink="http://www.w3.org/1999/xlink">
    <!-- Generator: Sketch 62 (91390) - https://sketch.com -->
    <title>Group 26</title>
    <desc>Created with Sketch.</desc>
    <defs>
        <rect id="path-1" x="0" y="0" width="103" height="60" rx="30"></rect>
        <filter x="-20.9%" y="-29.2%" width="141.7%" height="171.7%" filterUnits="objectBoundingBox" id="filter-2">
            <feOffset dx="0" dy="4" in="SourceAlpha" result="shadowOffsetOuter1"></feOffset>
            <feGaussianBlur stdDeviation="6.5" in="shadowOffsetOuter1" result="shadowBlurOuter1"></feGaussianBlur>
            <feColorMatrix values="0 0 0 0 0   0 0 0 0 0   0 0 0 0 0  0 0 0 0.138412369 0" type="matrix" in="shadowBlurOuter1"></feColorMatrix>
        </filter>
        <polygon id="path-3" points="0.436826102 0.114276985 5.7054078 0.114276985 5.7054078 5.47814707 0.436826102 5.47814707"></polygon>
        <polygon id="path-5" points="6.80676317e-05 0.271177441 32.4047593 0.271177441 32.4047593 31.1554519 6.80676317e-05 31.1554519"></polygon>
        <polygon id="path-7" points="0.312769772 0.0495030287 29.5678447 0.0495030287 29.5678447 14.8566415 0.312769772 14.8566415"></polygon>
        <polyline id="path-9" points="0.09675 3.836 7.39275 5.726 8.65125 1.88866667 1.35525 -0.00133333333"></polyline>
        <polyline id="path-11" points="0.09675 3.836 7.39275 5.726 8.65125 1.88866667 1.35525 -0.00133333333"></polyline>
        <polyline id="path-13" points="0.09675 3.836 7.39275 5.726 8.65125 1.88866667 1.35525 -0.00133333333"></polyline>
        <polyline id="path-15" points="0.09675 3.836 7.39275 5.726 8.65125 1.88866667 1.35525 -0.00133333333"></polyline>
        <polyline id="path-17" points="0.09675 3.836 7.39275 5.726 8.65125 1.88866667 1.35525 -0.00133333333"></polyline>
    </defs>
    <g id="Page-1-Copy" stroke="none" stroke-width="1" fill="none" fill-rule="evenodd">
        <g id="About-Us_Desktop" transform="translate(-220.000000, -892.000000)">
            <g id="Group-5" transform="translate(227.000000, 897.000000)">
                <g id="Group-26" transform="translate(6.000000, 4.000000)">
                    <g id="Rectangle">
                        <use fill="black" fill-opacity="1" filter="url(#filter-2)" xlink:href="#path-1"></use>
                        <use fill="#F9E876" fill-rule="evenodd" xlink:href="#path-1"></use>
                    </g>
                    <g id="Group-65" transform="translate(35.000000, 11.000000)">
                        <g id="Group-48">
                            <path d="M10.5350078,28.1046497 C9.50539497,29.9796051 8.46138723,29.501852 9.43720869,31.3460088 C10.3024168,32.9820877 12.0328331,35.4174264 15.1497039,35.9815656 C16.7899627,36.2782833 18.7363023,36.4923707 20.898565,33.7054779 C22.1069775,32.1475222 22.6123136,31.355023 22.6183746,29.5341529 C18.6226585,28.9084166 14.6269424,28.2819291 10.6319839,27.6554416 C10.6039517,27.8800457 10.5766772,28.1038985 10.5494027,28.3322584 C10.550918,28.3442774 10.5516756,28.3577987 10.5350078,28.1046497" id="Fill-1" fill="#F4A9AE"></path>
                            <path d="M22.8771794,29.6568964 C22.1741031,29.6163325 21.46042,29.9566188 21.1657037,30.4741846 C20.8709875,30.9909993 21.0141787,31.6497877 21.508908,32.0546759 C20.9172026,32.4122395 20.5899085,33.0372246 20.6853693,33.6291576 C20.7800724,34.2210907 21.2945,34.7574361 21.9793934,34.9805377 C21.4096591,35.1247651 20.9656906,35.5521888 20.8876552,36.0299418 C20.8096198,36.5084461 21.100548,37.0132418 21.6051264,37.2731514 C21.0164515,37.5480848 20.861896,38.2797381 21.3043492,38.695894 C21.7468024,39.1135524 22.6658019,39.1030358 23.0931026,38.6756121 C23.5204033,38.2489395 23.3400885,37.5217934 22.7423221,37.2596301 C23.3378156,37.1274217 23.8317874,36.7300454 23.9969497,36.2492876 C24.1613544,35.769281 23.9916463,35.222419 23.5643456,34.8626018 C24.2386322,34.6823177 24.7432107,34.1467234 24.7765462,33.5743212 C24.8106393,33.0011678 24.3719742,32.4287655 23.7219317,32.1989032 C24.6901769,31.9795575 25.2227875,30.9556936 24.7379073,30.2435711 C24.253027,29.5321998 22.8968777,29.3466574 22.8771794,29.6568964" id="Fill-3" fill="#000000"></path>
                            <path d="M21.6511901,38.9814191 C20.759465,39.503492 20.2761,40.4447256 20.448081,41.3228598 C20.6193043,42.2017451 21.439055,42.9762158 22.5292778,43.2278625 C22.7209571,43.315751 22.9186973,43.4043907 23.137651,43.4209168 C23.3558471,43.438194 23.6013177,43.3630756 23.6892023,43.2000687 C23.8036037,42.9897372 23.6172279,42.760626 23.4967654,42.5517969 C22.9929446,41.6804234 23.6338956,40.6730856 23.6490481,39.71157 C23.6535939,39.4058381 23.5891957,39.091092 23.382364,38.8356894 C23.1755323,38.5802868 22.8058111,38.3969979 22.4300289,38.4277964 C22.0534891,38.458595 21.7148306,38.7440449 21.6511901,38.9814191" id="Fill-5" fill="#000000"></path>
                            <path d="M12.1761001,29.3385446 C13.4239091,30.7988464 15.070229,31.9511627 16.9264111,32.4762404 C18.7825932,33.001318 20.8486375,32.8698608 22.5555674,31.9759518 C24.1518841,31.1391328 25.357266,29.6961082 26.2027759,28.1141146 C27.0482858,26.532121 28.2157865,24.3739692 28.7286988,22.6567625 C29.4885971,20.1155069 29.8166488,18.9211242 30.3598662,15.4604193 C30.4909354,14.6243515 30.8424736,13.7582363 30.5113913,12.9777561 C30.0939397,11.9944561 28.9484102,11.5662812 27.9157668,11.2665588 C25.8845732,10.6768793 23.8261052,10.1803467 21.7486964,9.77771202 C19.3485393,9.31423147 16.7718555,8.99497825 14.5315573,9.96625922 C12.5874907,10.8098389 11.1396686,12.5578442 10.3411315,14.5064156 C9.54183675,16.454987 9.33652028,18.5966127 9.37061342,20.6999281 C9.42061669,23.7662613 10.147937,26.9655542 12.1761001,29.3385446" id="Fill-7" fill="#F4A9AE"></path>
                            <path d="M6.94257569,30.2921727 C6.30541277,30.6309567 6.12661318,31.4204512 6.57512739,31.9192374 C6.67437631,32.0296614 6.7993845,32.1273154 6.85847927,32.2550167 C6.98954846,32.5374619 6.7577151,32.8341796 6.63194929,33.1188783 C6.26374337,33.950439 6.97666883,34.9795612 8.04795108,35.1613477 C7.62216563,35.4618214 7.2388072,35.8531882 7.21456319,36.309157 C7.1910768,36.7643745 7.68504853,37.2473858 8.26008618,37.3442886 C7.72368743,37.3563075 7.50397607,37.9925604 7.82596685,38.3388562 C8.1472,38.6851521 8.74572403,38.7730406 9.28136515,38.7565146 C9.68063372,38.7444956 10.0920243,38.6836497 10.4170456,38.4966049 C10.7413092,38.3088089 10.9549596,37.9692737 10.8496496,37.6590347 C10.7435821,37.3480445 10.2511256,37.1407177 9.91095182,37.3097341 C10.5602368,37.1850376 11.0504204,36.6547016 11.0125391,36.1168538 C10.9746578,35.5790061 10.4132574,35.0967459 9.75109287,35.0328953 C10.4185608,34.8856632 10.9011682,34.3162657 10.8291938,33.7603895 C10.7564617,33.2045133 10.1382394,32.7282626 9.44728511,32.6967129 C10.2859764,32.154358 10.377649,31.0133094 9.63290332,30.3875731 C8.8881576,29.762588 7.62443851,29.9293508 6.94257569,30.2921727" id="Fill-9" fill="#000000"></path>
                            <g id="Group-13" transform="translate(6.818628, 38.090528)">
                                <mask id="mask-4" fill="white">
                                    <use xlink:href="#path-3"></use>
                                </mask>
                                <g id="Clip-12"></g>
                                <path d="M2.15786853,0.198374882 C1.75329659,0.165322784 1.34948228,0.325324985 1.07370665,0.566455064 C0.798688648,0.808336327 0.638829698,1.12158007 0.544126529,1.44158448 C0.232742509,2.48723267 0.611555185,3.64931439 1.51843273,4.43655527 C2.42606791,5.22304497 3.83449344,5.61140712 5.1482158,5.43713242 C5.32928826,5.41234335 5.52399798,5.37027704 5.63082315,5.25008759 C5.76568046,5.09759723 5.70203993,4.87900268 5.56415212,4.72951705 C5.42550668,4.57928024 5.22776646,4.47411447 5.06184651,4.34415963 C4.63606106,4.00762918 4.44816997,3.51935955 4.37013456,3.04235768 C4.29209915,2.56460463 4.30649403,2.08009092 4.20648749,1.6053426 C4.10648094,1.13059428 3.87085946,0.650587678 3.40037411,0.353869979 C2.93064639,0.0579034649 2.18817355,0.0128324221 1.76390335,0.350865243 C1.70405094,0.365888924 1.79799649,0.448519169 2.15786853,0.198374882" id="Fill-11" fill="#000000" mask="url(#mask-4)"></path>
                            </g>
                            <path d="M27.8394739,17.5118278 C27.6667354,17.5118278 27.4970273,17.4307 27.392475,17.2782096 C26.9462337,16.6314401 26.1302712,16.3925636 25.4946235,16.7215822 C25.2302122,16.8590489 24.9029181,16.7576391 24.7650303,16.4954758 C24.6263848,16.2333126 24.7286642,15.9095523 24.9930755,15.7720856 C26.114361,15.189918 27.5296052,15.5775289 28.2849577,16.6735065 C28.4539081,16.9176413 28.3910252,17.251167 28.1440393,17.418681 C28.0508514,17.4817805 27.9447839,17.5118278 27.8394739,17.5118278" id="Fill-14" fill="#000000"></path>
                            <path d="M20.9841767,16.1443724 C20.8265906,16.1443724 20.6712774,16.0767658 20.5644523,15.9460598 C20.3462562,15.6801407 19.9954756,15.5088707 19.6022681,15.4765698 C19.2090605,15.4442689 18.8355512,15.5569465 18.5756857,15.7845553 C18.3521862,15.9798631 18.0104972,15.9595811 17.812757,15.7372307 C17.6150168,15.5156314 17.6362303,15.1768474 17.8597297,14.9807883 C18.3393066,14.5616276 19.0075322,14.3535496 19.6909102,14.4083861 C20.3758035,14.4647249 21.0000868,14.7787198 21.4031435,15.2699942 C21.5917922,15.4998565 21.5561838,15.8371381 21.3251081,16.024183 C21.2243439,16.1045597 21.1038815,16.1443724 20.9841767,16.1443724" id="Fill-16" fill="#000000"></path>
                            <path d="M10.6519094,29.3128541 C10.9784459,29.2767973 11.3148316,29.1483448 11.5974259,28.9793284 C11.8572914,28.8230821 11.6709155,28.9763236 11.9898758,28.6720941 C12.4921814,29.7019674 13.2808694,30.475687 14.0597083,31.0503428 C15.0362873,31.7707283 16.0234732,32.2589979 17.1902162,32.5023816 C15.1499311,33.0357222 12.9164516,31.7910103 11.3913518,30.5538101 C11.271647,30.4561562 10.1927885,29.4255317 10.6519094,29.3128541" id="Fill-18" fill="#006880"></path>
                            <path d="M17.3688643,18.0686055 C16.9642923,19.2389502 18.9477555,20.0089139 20.4266402,19.495104 C22.1820581,18.0633472 17.9840561,16.8156305 17.3688643,18.0686055" id="Fill-20" fill="#FFFFFF"></path>
                            <path d="M14.2262343,17.5910026 C15.8990711,16.2591533 17.0885429,14.2459801 17.672672,12.2147784 C16.505929,12.5452994 15.2649387,12.4070815 14.0512229,12.4303682 C13.9800061,12.4318706 13.9027283,12.4356265 13.8474216,12.4799464 C13.7777201,12.535534 13.7663557,12.6339391 13.7595371,12.7225788 C13.6231645,14.5291765 13.486792,16.3365253 13.351177,18.1431229 C13.4731547,18.1003054 13.6087696,18.0732628 13.7262016,18.0206799 C13.88303,17.951571 14.0269788,17.8546682 14.1489565,17.7344788" id="Fill-22" fill="#000000"></path>
                            <path d="M23.8567132,19.4697139 C23.4521413,20.6400587 25.4356045,21.4107735 26.9144892,20.8969636 C28.6699071,19.4644557 24.471905,18.216739 23.8567132,19.4697139" id="Fill-24" fill="#FFFFFF"></path>
                            <path d="M22.4483635,25.6398646 C22.2703215,25.6398646 22.0915219,25.5850282 21.937724,25.4761065 C21.8551428,25.4182653 21.7801379,25.3438981 21.7164974,25.2590143 C21.6452806,25.3161043 21.5680028,25.36418 21.4854216,25.4002369 C21.2323748,25.5121633 20.9535686,25.5054026 20.7209777,25.3837108 C20.2217025,25.1207964 19.9883539,24.3538375 20.2323093,23.7754258 C20.3012532,23.6109165 20.4914172,23.5335445 20.6565795,23.6019023 C20.8217418,23.67026 20.8997772,23.8588072 20.8308333,24.0225653 C20.7111285,24.3087665 20.8406825,24.7181618 21.025543,24.8150645 C21.0967598,24.8533749 21.1710071,24.8353465 21.2210104,24.8120598 C21.3429881,24.7587257 21.4407217,24.633278 21.478603,24.4852947 C21.5172419,24.331302 21.662706,24.2283898 21.8218073,24.2426623 C21.9809086,24.2561836 22.1059168,24.3838849 22.1165236,24.5416335 C22.1278879,24.7121523 22.2074386,24.8774128 22.3142638,24.9525312 C22.3930568,25.0081188 22.48776,25.0118747 22.5673106,24.9615454 C22.6733782,24.89469 22.8226304,24.7083964 22.9309708,24.1990936 C23.1385602,23.2233055 23.086284,22.1708967 22.7832339,21.2356725 C22.7286848,21.0666561 22.8226304,20.8856208 22.9930961,20.8315355 C23.1628042,20.7751967 23.3461495,20.8690947 23.4006985,21.0388623 C23.7378418,22.0792522 23.796179,23.2480946 23.5658609,24.3328043 C23.4393374,24.9247374 23.2264447,25.3085924 22.9158183,25.5039003 C22.7726271,25.5940424 22.6104953,25.6398646 22.4483635,25.6398646" id="Fill-26" fill="#000000"></path>
                            <path d="M18.0665615,18.6048006 C18.0665615,18.2524953 18.3544591,17.9662942 18.710543,17.9662942 C19.0666269,17.9662942 19.3545246,18.2524953 19.3545246,18.6048006 C19.3545246,18.9578571 19.0666269,19.2440583 18.710543,19.2440583 C18.3544591,19.2440583 18.0665615,18.9578571 18.0665615,18.6048006" id="Fill-28" fill="#000000"></path>
                            <path d="M24.3872025,20.0066603 C24.3872025,19.6536038 24.6751001,19.3674027 25.031184,19.3674027 C25.3865103,19.3674027 25.6751656,19.6536038 25.6751656,20.0066603 C25.6751656,20.3597168 25.3865103,20.6451667 25.031184,20.6451667 C24.6751001,20.6451667 24.3872025,20.3597168 24.3872025,20.0066603" id="Fill-30" fill="#000000"></path>
                            <path d="M30.4219915,18.2343918 C28.7491547,16.9025425 27.5596829,14.8893692 26.9755538,12.8581676 C28.1422968,13.1886885 29.3832871,13.0504707 30.5970029,13.0737574 C30.6682197,13.0745086 30.7454975,13.0790157 30.8008042,13.1233355 C30.8705057,13.1789231 30.8818701,13.2773283 30.8886887,13.365968 C31.0250613,15.1733168 31.1614338,16.9791632 31.2970488,18.7857609 C31.1750711,18.7436946 31.0394562,18.7166519 30.9212666,18.6640691 C30.7651958,18.5949601 30.621247,18.4980574 30.4992693,18.3778679" id="Fill-32" fill="#000000"></path>
                            <g id="Group-36">
                                <mask id="mask-6" fill="white">
                                    <use xlink:href="#path-5"></use>
                                </mask>
                                <g id="Clip-35"></g>
                                <path d="M7.16569635,30.86142 C3.49651677,29.3537936 1.41607755,25.2711083 0.542535516,21.6443918 C-0.571931379,17.0201028 0.00159101324,11.9270749 2.53433257,7.84363846 C7.19448612,0.332549177 18.5831104,-2.1215691 25.9957169,2.90159862 C31.5915377,6.69432687 33.4893893,14.0386533 31.8210982,20.3418386 C30.7733024,24.3005786 28.3542046,27.8093592 25.0312598,30.2341813 C26.6313646,26.6014553 28.3276877,22.8853478 29.2535059,19.012994 C29.508068,17.9500686 29.7111116,16.8420722 29.6489863,15.7445923 C29.6262576,15.3336946 29.6088322,14.6914322 29.489885,14.2963094 C29.0595538,13.4429643 24.9789837,13.7006205 23.9758877,13.6765826 C21.9818178,13.6285068 19.9862326,13.6074736 17.991405,13.6127319 C16.4306968,13.617239 14.3866236,13.4039028 13.0729012,14.1618475 C12.4471027,14.523167 12.2607269,14.5547167 12.074351,15.2450549 C11.9266141,15.7911657 12.1546593,16.4612218 12.1038984,17.0261122 C12.0402579,17.7344788 11.9667682,18.4924235 11.6243216,19.1324323 C11.1386837,20.041365 11.128077,20.453765 11.3462731,21.5662686 C11.4265813,23.7454535 11.9008548,28.2848587 10.2484739,30.3761551 C9.51206207,31.3091257 8.26955649,31.3151352 7.16569635,30.86142" id="Fill-34" fill="#0DAB4C" mask="url(#mask-6)"></path>
                            </g>
                            <path d="M28.9859126,13.2335342 C29.6177722,12.9240464 30.1321998,12.9007597 30.7026917,13.293629 C31.2928818,13.6992683 31.290609,14.8267956 31.3444004,15.5366645 C31.7095758,20.3487495 30.1064405,25.6288222 26.8751684,29.2375103 C26.4175627,29.7475643 25.4053752,30.2516088 24.7250276,30.3567746 C25.7690354,27.5375808 27.2827708,24.7191383 28.3267786,21.8999446 C28.8002944,20.6221805 28.7487759,19.4330562 28.8313571,18.073413 C28.924545,16.5357393 29.6442891,15.1993829 29.0692514,13.497951" id="Fill-37" fill="#1C5229"></path>
                            <path d="M13.9428824,12.8840083 C13.1731351,13.0026954 12.6890125,13.1664535 11.8715347,13.3857992 C11.7048571,13.4308703 11.5177237,13.4451428 11.3995341,13.5690881 C11.2919513,13.6825169 11.2631616,13.8462751 11.2404328,13.9995166 C10.8025253,16.9839708 10.96693,20.0322757 10.5040209,23.0137252 C10.0411119,25.9944235 9.44940646,29.2027305 6.93333266,30.8974017 C6.99924606,30.8523307 8.12810784,31.2459511 8.28796679,31.2609748 C8.72511662,31.3037923 9.1698427,31.278252 9.59941628,31.1896123 C11.0517841,30.8883875 11.5699998,29.8810497 12.2889863,28.6588733 C14.042889,25.6759214 13.8534826,22.1573753 13.9390943,18.8356395 C13.9951586,16.6759854 14.4126101,14.6350183 15.2429675,12.6443806" id="Fill-39" fill="#1C5229"></path>
                            <path d="M18.5859136,33.2939793 C16.5274456,33.2939793 14.5909552,32.3670182 13.5090662,30.8188279 C13.3726936,30.6242712 13.4219392,30.3576009 13.6181642,30.2223877 C13.8143892,30.0871746 14.0841038,30.1360016 14.2197187,30.3313094 C15.2387248,31.7878553 17.2577964,32.6201672 19.2442901,32.4000703 C21.0398622,32.2017577 22.8301309,31.2312279 24.2855292,29.6687651 C26.1030724,27.7171889 27.0372245,24.2993015 27.6546891,22.0382376 C28.4380737,19.1724704 28.7418815,16.3029474 28.5592938,13.5092939 C28.5433837,13.2726709 28.7244561,13.0683489 28.9623505,13.0533252 C29.2002448,13.0383015 29.4070766,13.2170833 29.4222291,13.4529551 C29.6116354,16.3420089 29.2979785,19.30543 28.4903499,22.2613392 C27.6766603,25.2382816 26.7311438,28.3068684 24.9211768,30.2501816 C23.3241026,31.9643835 21.3421547,33.0303137 19.3405085,33.251913 C19.0882193,33.2797068 18.83593,33.2939793 18.5859136,33.2939793" id="Fill-41" fill="#000000"></path>
                            <g id="Group-45" transform="translate(5.303377, 0.751184)">
                                <mask id="mask-8" fill="white">
                                    <use xlink:href="#path-7"></use>
                                </mask>
                                <g id="Clip-44"></g>
                                <path d="M3.01572772,9.7931113 C3.16119179,9.80137432 3.3021101,9.82466103 3.44075554,9.85545957 C4.59461896,8.86089189 13.3171596,1.48651811 19.7607633,0.0495030287 C19.7607633,0.0495030287 28.311323,1.64351558 29.5682235,12.8008522 C29.5682235,12.8008522 12.5133191,12.5048857 5.39997471,12.6468595 C5.23026663,13.9554221 4.06958459,14.9297078 2.72101146,14.8523358 C1.3118283,14.7719592 0.236000298,13.5738206 0.31706621,12.1766183 C0.398132123,10.7794159 1.60654456,9.7127346 3.01572772,9.7931113" id="Fill-43" fill="#34BADB" mask="url(#mask-8)"></path>
                            </g>
                            <path d="M32.4184858,11.5936243 C31.9123921,9.64279937 30.893386,7.79413543 29.4395029,6.3781535 C27.8121237,4.7916528 25.671832,3.92253285 23.5542692,3.18336775 C23.2368242,3.0729437 23.1216651,3.57999293 23.4360796,3.6896658 C25.4672732,4.39878354 27.5189227,5.23785612 29.0803885,6.75599908 C30.4736615,8.11038391 31.4343305,9.88242708 31.9184531,11.7483683 C32.0025495,12.0721286 32.5025822,11.9173847 32.4184858,11.5936243" id="Fill-46" fill="#B1DFEC"></path>
                        </g>
                        <g id="Group-64" transform="translate(15.000000, 24.000000)">
                            <g id="Group-51">
                                <mask id="mask-10" fill="white">
                                    <use xlink:href="#path-9"></use>
                                </mask>
                                <g id="Clip-50"></g>
                                <path d="M3.015075,0.7082 C2.946825,0.911533333 2.838075,1.1082 2.691075,1.27553333 C2.541075,1.44753333 2.360325,1.61086667 2.139825,1.71153333 C1.892325,1.82486667 1.622325,1.8362 1.359075,1.75886667 C1.308075,1.7442 1.258575,1.7262 1.209825,1.7082 C1.105575,1.66886667 1.002825,1.63486667 0.945075,1.54153333 C0.876825,1.43086667 0.900825,1.28886667 1.005075,1.20286667 C1.136325,1.09553333 1.323075,1.1142 1.444575,1.21953333 C1.533825,1.2962 1.557825,1.4522 1.482825,1.5442 L1.479075,1.5482 C1.386825,1.66153333 1.206075,1.72153333 1.064325,1.63553333 C0.937575,1.55886667 0.867825,1.38886667 0.966825,1.26686667 L0.969825,1.26286667 C0.982575,1.37086667 0.995325,1.47953333 1.007325,1.58753333 C1.005825,1.58553333 1.003575,1.5842 1.002075,1.58286667 C1.047075,1.60753333 1.092075,1.63153333 1.137075,1.6562 C1.134075,1.65553333 1.131075,1.65486667 1.128075,1.6542 L1.419825,1.59153333 C1.417575,1.59286667 1.416075,1.59486667 1.413825,1.5962 L1.499325,1.33686667 C1.500075,1.3402 1.500075,1.3442 1.500825,1.34753333 L1.428075,1.2282 C1.330575,1.1802 1.303575,1.16553333 1.346325,1.1822 C1.357575,1.1862 1.367325,1.1902 1.377825,1.1942 C1.395825,1.2002 1.413075,1.20686667 1.431075,1.21353333 C1.470075,1.22686667 1.509075,1.2402 1.548825,1.25086667 C1.570575,1.25686667 1.592325,1.2622 1.614825,1.26753333 C1.624575,1.26953333 1.686825,1.28353333 1.640325,1.27353333 C1.595325,1.26353333 1.656075,1.27486667 1.667325,1.27553333 C1.689825,1.27686667 1.711575,1.2762 1.734075,1.2762 C1.806825,1.27553333 1.675575,1.28953333 1.737825,1.27553333 C1.753575,1.27153333 1.769325,1.26953333 1.785075,1.26553333 C1.788825,1.2642 1.831575,1.25553333 1.831575,1.25153333 C1.794075,1.2662 1.785075,1.26886667 1.806075,1.26086667 C1.814325,1.25753333 1.824075,1.25353333 1.832325,1.24953333 C1.865325,1.2362 1.896825,1.2202 1.927575,1.2022 C1.937325,1.1962 1.962825,1.18753333 1.968075,1.17753333 C1.935825,1.19886667 1.928325,1.20353333 1.946325,1.19153333 C1.953825,1.1862 1.962075,1.18086667 1.969575,1.17486667 C2.031075,1.13086667 2.088825,1.0822 2.142075,1.0302 C2.154825,1.0182 2.166825,1.00553333 2.178825,0.993533333 C2.220825,0.9502 2.175075,0.987533333 2.178825,0.994866667 C2.175075,0.987533333 2.249325,0.9082 2.256075,0.898866667 C2.298825,0.8422 2.337075,0.7822 2.370825,0.720866667 C2.389575,0.6862 2.389575,0.699533333 2.370075,0.723533333 C2.381325,0.709533333 2.387325,0.686866667 2.394825,0.669533333 C2.410575,0.632866667 2.424075,0.595533333 2.436825,0.5582 C2.481825,0.4242 2.655075,0.329533333 2.810325,0.3762 C2.964075,0.4222 3.063075,0.5642 3.015075,0.7082" id="Fill-49" fill="#000000" mask="url(#mask-10)"></path>
                            </g>
                            <g id="Group-54">
                                <mask id="mask-12" fill="white">
                                    <use xlink:href="#path-11"></use>
                                </mask>
                                <g id="Clip-53"></g>
                                <path d="M7.475175,2.98813333 C7.484175,2.98546667 7.167675,4.91346667 5.166675,5.00613333 C3.165675,5.0988 1.704675,3.28213333 1.752675,1.54213333 C1.752675,1.54213333 2.014425,1.03413333 2.620425,1.6688 C3.226425,2.30413333 5.291175,3.58146667 7.475175,2.98813333" id="Fill-52" fill="#000000" mask="url(#mask-12)"></path>
                            </g>
                            <g id="Group-57">
                                <mask id="mask-14" fill="white">
                                    <use xlink:href="#path-13"></use>
                                </mask>
                                <g id="Clip-56"></g>
                                <path d="M2.945475,1.63006667 C2.949975,2.61406667 4.148475,3.6714 5.322975,3.82206667 C6.140475,3.9274 6.543975,3.40673333 6.735975,2.95873333 C5.057475,3.0474 3.573975,2.19073333 2.945475,1.63006667" id="Fill-55" fill="#FFFFFF" mask="url(#mask-14)"></path>
                            </g>
                            <g id="Group-60">
                                <mask id="mask-16" fill="white">
                                    <use xlink:href="#path-15"></use>
                                </mask>
                                <g id="Clip-59"></g>
                                <path d="M2.005425,2.88266667 C2.418675,3.89133333 3.302175,4.73333333 4.434675,4.95266667 C4.402425,4.582 4.144425,3.99066667 3.529425,3.466 C3.023175,3.03466667 2.464425,2.86533333 2.005425,2.88266667" id="Fill-58" fill="#FF2C59" mask="url(#mask-16)"></path>
                            </g>
                            <g id="Group-63">
                                <mask id="mask-18" fill="white">
                                    <use xlink:href="#path-17"></use>
                                </mask>
                                <g id="Clip-62"></g>
                                <path d="M8.175675,3.05973333 C7.370925,3.36106667 6.501675,3.41173333 5.645925,3.2784 C4.738425,3.13773333 3.882675,2.7744 3.109425,2.33906667 C2.710425,2.11506667 2.324925,1.85573333 2.091675,1.48306667 C1.903425,1.18106667 2.431425,0.923733333 2.619675,1.22506667 C2.782425,1.4864 3.047175,1.66506667 3.335175,1.8324 C3.689925,2.03773333 4.058925,2.22306667 4.442925,2.3804 C5.163675,2.67573333 5.922675,2.84173333 6.707175,2.8144 C7.099425,2.8004 7.524675,2.72573333 7.886175,2.5904 C8.035425,2.5344 8.210925,2.5604 8.294925,2.6964 C8.366925,2.81306667 8.326425,3.00373333 8.175675,3.05973333" id="Fill-61" fill="#000000" mask="url(#mask-18)"></path>
                            </g>
                        </g>
                    </g>
                </g>
            </g>
        </g>
    </g>
</svg>