<svg id="Layer_1" data-name="Layer 1" xmlns="http://www.w3.org/2000/svg" xmlns:xlink="http://www.w3.org/1999/xlink" viewBox="0 0 300 200"><defs><style>.cls-1,.cls-10{fill:none;}.cls-2{fill:#f58120;}.cls-3{fill:#fff;}.cls-4{fill:#010101;}.cls-5{clip-path:url(#clip-path);}.cls-6{fill:#803019;}.cls-7{clip-path:url(#clip-path-2);}.cls-8{clip-path:url(#clip-path-3);}.cls-9{fill:#ee1f33;}.cls-10{stroke:#fff;stroke-linecap:round;stroke-miterlimit:10;}.cls-11{fill:#016b83;}</style><clipPath id="clip-path"><circle class="cls-1" cx="82.76" cy="56.98" r="44.86"/></clipPath><clipPath id="clip-path-2"><path class="cls-1" d="M97.1,132.26c15.05,22.46,13.24,50,5.22,55.42-7.11,4.79-34.22-3.46-49.26-25.92s-14-51.15-5.22-55.42C56.32,102.22,82.06,109.8,97.1,132.26Z"/></clipPath><clipPath id="clip-path-3"><circle class="cls-1" cx="164.92" cy="40.77" r="17.84"/></clipPath></defs><title>Website Illustrations</title><circle class="cls-2" cx="184.37" cy="128.33" r="66.48"/><circle class="cls-3" cx="82.76" cy="56.98" r="44.86"/><path class="cls-4" d="M130.66,164l16.44-2.9c5.3-.94,10.62-1.81,15.85-3.06A99.77,99.77,0,0,0,186.78,149a103.81,103.81,0,0,0,37.34-33.8c5.75-8.63,11-18.61,11.53-29.17.09-1.93-2.91-1.92-3,0-.44,9.23-5,17.92-9.79,25.6a100.18,100.18,0,0,1-58.11,42.88c-5.59,1.5-11.3,2.45-17,3.46l-17.89,3.16c-1.89.34-1.09,3.23.8,2.89Z"/><path class="cls-4" d="M212.3,189c-2.73-20-4.41-40.4-11.89-59.34C194.22,114,184.9,99.18,172.23,87.88c-7.2-6.43-16.17-13.14-26.14-13.75-1.92-.12-1.92,2.88,0,3,4.82.29,9.27,2.37,13.33,4.85A75.6,75.6,0,0,1,169,89.06a94.82,94.82,0,0,1,15.78,17.63,122.2,122.2,0,0,1,19.53,47.64c2.17,11.73,3.45,23.65,5.06,35.47a1.51,1.51,0,0,0,1.84,1A1.54,1.54,0,0,0,212.3,189Z"/><path class="cls-4" d="M189.8,65.61c4.78,5.2,9.23,10.67,12.31,17.07a56.46,56.46,0,0,1,5.24,21c.48,8.15,1,16.52,3.75,24.29a25.79,25.79,0,0,0,5.71,9.48,30.31,30.31,0,0,0,9,6.13,65.2,65.2,0,0,0,11.29,3.89c3.16.81,6.4,1.21,9.61,1.74,1.89.31,2.7-2.58.8-2.89-2.82-.47-5.66-.81-8.44-1.46a66.73,66.73,0,0,1-9.7-3,31.08,31.08,0,0,1-9.12-5.33,22.09,22.09,0,0,1-6.15-9.17c-2.82-7.72-3.19-16-3.73-24.06a61.42,61.42,0,0,0-4.89-20.55c-3.2-7.29-8.17-13.47-13.52-19.29-1.31-1.43-3.43.7-2.12,2.12Z"/><path class="cls-4" d="M121.54,108.61c9.1,13.47,26.39,15,40.46,20.1,7.41,2.67,14.13,6.84,18.75,13.35a36,36,0,0,1,6.35,22.68,59.91,59.91,0,0,1-8.69,27.87,1.5,1.5,0,0,0,2.59,1.51c8.63-14.36,13-34,4.85-49.47a37.52,37.52,0,0,0-16.37-16c-7.63-3.86-16-5.51-24.14-8.08S129,114.3,124.13,107.1c-1.07-1.59-3.67-.09-2.59,1.51Z"/><path class="cls-4" d="M67.71,15l.43,5.74a1.5,1.5,0,0,0,3,0L70.71,15a1.5,1.5,0,0,0-3,0Z"/><path class="cls-4" d="M102.81,17.78l-14,6.61a1.51,1.51,0,0,0-.54,2.06,1.54,1.54,0,0,0,2,.53l14-6.61a1.51,1.51,0,0,0,.54-2.06,1.53,1.53,0,0,0-2-.53Z"/><path class="cls-4" d="M70.92,47.5c-4,8.7-7.88,17.46-12.15,26-.86,1.72,1.73,3.25,2.59,1.52,4.27-8.57,8.16-17.33,12.15-26,.8-1.74-1.78-3.27-2.59-1.51Z"/><path class="cls-4" d="M88.94,43.65c7.63,5,15.33,9.92,22.79,15.17,1.58,1.11,3.09-1.49,1.52-2.59C105.79,51,98.08,46.06,90.45,41.06c-1.62-1.07-3.12,1.53-1.51,2.59Z"/><path class="cls-4" d="M80.91,89.13c8.65-2.88,17.29-5.88,26-8.47,1.85-.55,1.06-3.45-.79-2.9-8.75,2.6-17.39,5.59-26,8.48-1.83.6-1,3.5.8,2.89Z"/><path class="cls-4" d="M59.46,32.51,44.23,35.3a1.52,1.52,0,0,0-1,1.85,1.54,1.54,0,0,0,1.85,1L60.26,35.4a1.51,1.51,0,0,0,1.05-1.84,1.53,1.53,0,0,0-1.85-1.05Z"/><path class="cls-4" d="M70.72,48.46,59.4,36a3,3,0,0,1-.17-3.79l8.88-11.74a3,3,0,0,1,3.19-1.06l17.45,5.05A3,3,0,0,1,90.89,27l1.24,14.67A3,3,0,0,1,90,44.82L73.72,49.33A3,3,0,0,1,70.72,48.46Z"/><g class="cls-5"><path class="cls-4" d="M48.8,110.27,40.32,89.68a3,3,0,0,1,.93-3.47L58.09,73.15A3,3,0,0,1,61.54,73L80.66,85.53a3,3,0,0,1,1.25,3.21L76.69,109.4a3,3,0,0,1-2.82,2.25l-22.26.46A3,3,0,0,1,48.8,110.27Z"/><path class="cls-4" d="M125.31,91.92l-19.37-11a3,3,0,0,1-1.41-3.31L109.76,57a3,3,0,0,1,2.63-2.24l22.77-1.92a3,3,0,0,1,3,1.76l8.62,19.5a3,3,0,0,1-.84,3.5L128.65,91.64A3,3,0,0,1,125.31,91.92Z"/></g><path class="cls-6" d="M97.1,132.26c15.05,22.46,13.24,50,5.22,55.42-7.11,4.79-34.22-3.46-49.26-25.92s-14-51.15-5.22-55.42C56.32,102.22,82.06,109.8,97.1,132.26Z"/><g class="cls-7"><path class="cls-3" d="M80,187c6.63-10.21,17.94-15.38,28.53-20.49,1.74-.84.22-3.42-1.51-2.59-11.12,5.37-22.66,10.87-29.61,21.57C76.38,187.08,79,188.59,80,187Z"/><path class="cls-3" d="M69.06,108.78c-7,9.94-18.55,14.67-29.31,19.37-1.76.77-.24,3.36,1.52,2.59,11.33-5,23-10,30.38-20.44,1.12-1.59-1.48-3.09-2.59-1.52Z"/><path class="cls-3" d="M43.44,106.57c6.4,12.33,12,25.16,19.24,37a147.48,147.48,0,0,0,25,31,106.08,106.08,0,0,0,17.7,13.27.75.75,0,0,0,.75-1.3c-22.74-13.59-38.79-35.69-50.53-59C52,120.31,48.47,113,44.74,105.81c-.45-.86-1.74-.1-1.3.76Z"/></g><circle class="cls-3" cx="164.92" cy="40.77" r="17.84"/><g class="cls-8"><path class="cls-9" d="M158.66,57.34a49.4,49.4,0,0,1,24.08-15.49.5.5,0,0,0-.26-1,50.77,50.77,0,0,0-19.91,11A49.13,49.13,0,0,0,158,56.64c-.42.48.28,1.19.7.7Z"/><path class="cls-9" d="M173.71,23.77A54.83,54.83,0,0,1,153,39.26a46.7,46.7,0,0,1-6.63,2.17c-.62.15-.36,1.11.27,1A51.61,51.61,0,0,0,169,30.09a60.75,60.75,0,0,0,5.39-5.61c.41-.49-.29-1.2-.71-.71Z"/></g><path class="cls-9" d="M148.85,39.34a9.35,9.35,0,0,1,.48,3.52.51.51,0,0,0,.5.5.5.5,0,0,0,.5-.5,10.18,10.18,0,0,0-.52-3.79.5.5,0,1,0-1,.27Z"/><path class="cls-9" d="M152.79,38a5.72,5.72,0,0,1,.78,1.36,5.2,5.2,0,0,1,.36,1.59.51.51,0,0,0,.5.5.5.5,0,0,0,.5-.5,6.52,6.52,0,0,0-1.43-3.66.5.5,0,0,0-.71,0,.51.51,0,0,0,0,.71Z"/><path class="cls-9" d="M157.12,35.42a4.38,4.38,0,0,1,2.5,3.18.51.51,0,0,0,.61.35.51.51,0,0,0,.35-.62,5.34,5.34,0,0,0-3-3.77.5.5,0,1,0-.51.86Z"/><path class="cls-9" d="M162,32.48a3.53,3.53,0,0,1,.46.15h0l.11,0,.21.12.41.26,0,0,.09.08.18.17c.12.11.22.23.33.35s0-.06,0,0a.61.61,0,0,0,.07.1l.13.2c.08.13.15.27.22.41l0,.06c0-.05,0-.06,0,0s0,.08,0,.11.06.17.08.25a.5.5,0,0,0,1-.26,4.46,4.46,0,0,0-3.12-3,.5.5,0,1,0-.27,1Z"/><path class="cls-9" d="M166.16,29.5a7.16,7.16,0,0,1,3.39,2.07.5.5,0,0,0,.71,0,.51.51,0,0,0,0-.7,8.07,8.07,0,0,0-3.83-2.33.52.52,0,0,0-.62.35.5.5,0,0,0,.35.61Z"/><path class="cls-9" d="M169.36,26.65c-.11,0,0,0,0,0l.11,0,.24.06.22.07.12.05s.12.05.07,0l.06,0,.12.06.2.11.21.13.09.07s.13.09.05,0a3.49,3.49,0,0,1,.35.32,1,1,0,0,1,.17.18l.07.08s.07.08,0,0c.1.13.19.27.28.41s.07.13.1.2l.06.12c0-.08,0,0,0,.05a.5.5,0,1,0,1-.27,4.44,4.44,0,0,0-3.57-2.78.51.51,0,0,0-.5.5.51.51,0,0,0,.5.5Z"/><path class="cls-9" d="M179.46,40.27a23.64,23.64,0,0,0-.45,4.28.5.5,0,0,0,1,0,22.65,22.65,0,0,1,.41-4,.5.5,0,1,0-1-.26Z"/><path class="cls-9" d="M174.82,42.25a10.74,10.74,0,0,0,1,3.64.5.5,0,0,0,.87-.51,9.4,9.4,0,0,1-.88-3.13.5.5,0,0,0-1,0Z"/><path class="cls-9" d="M170.59,44.7a10.48,10.48,0,0,0,2.31,3.66.5.5,0,0,0,.7-.71,8.63,8.63,0,0,1-1.19-1.5q-.25-.4-.48-.84a9.2,9.2,0,0,1-.38-.87.52.52,0,0,0-.62-.35.49.49,0,0,0-.34.61Z"/><path class="cls-9" d="M166.55,47.44a7.13,7.13,0,0,0,2.66,2.76.5.5,0,1,0,.51-.86l-.39-.25-.17-.12-.08-.06c-.05,0,.06.05,0,0q-.34-.28-.66-.6l-.29-.33a1,1,0,0,1-.13-.16c-.09-.11.05.08,0,0l-.06-.08a8.65,8.65,0,0,1-.47-.76.5.5,0,0,0-.87.5Z"/><path class="cls-9" d="M162.59,50.84a14.6,14.6,0,0,0,3,2.67.5.5,0,0,0,.68-.17.51.51,0,0,0-.17-.69l-.4-.27-.18-.14a.39.39,0,0,1-.1-.08s0,0,0,0l0,0c-.25-.19-.5-.4-.74-.61a14.45,14.45,0,0,1-1.33-1.38.5.5,0,0,0-.71,0,.51.51,0,0,0,0,.7Z"/><path class="cls-9" d="M158.25,53.44c.58,1.48,2.09,2.16,3.39,2.88a.5.5,0,0,0,.5-.86c-.62-.35-1.26-.67-1.85-1.08l-.19-.13c-.07-.06.09.07,0,0l-.09-.07c-.12-.1-.23-.21-.34-.32l-.15-.18,0,0-.06-.09-.12-.2,0-.1c-.05-.1,0,.05,0,0a.51.51,0,0,0-.62-.35.5.5,0,0,0-.35.61Z"/><path class="cls-3" d="M204.08,34.79a33.55,33.55,0,0,0-7.38,6.1A7.84,7.84,0,0,0,194.77,44c-.74,2.72,1.21,5.38,3,7.54a7.54,7.54,0,0,0,2.86,2.41,7.36,7.36,0,0,0,4.08,0c2.76-.59,5.73-1.39,7.45-3.64a2.05,2.05,0,0,0,.46-1,2.33,2.33,0,0,0-.34-1.27,67.86,67.86,0,0,0-8.46-13.29"/><line class="cls-10" x1="204.91" y1="35.36" x2="233.01" y2="4.02"/><line class="cls-10" x1="213.1" y1="49.23" x2="252.92" y2="35.56"/><line class="cls-10" x1="205.54" y1="37.34" x2="237.34" y2="6.18"/><line class="cls-10" x1="207.07" y1="38.61" x2="240.58" y2="9.42"/><line class="cls-10" x1="208.15" y1="40.77" x2="243.82" y2="13.75"/><line class="cls-10" x1="209.23" y1="42.93" x2="247.07" y2="18.07"/><line class="cls-10" x1="210.31" y1="45.09" x2="250.31" y2="23.47"/><line class="cls-10" x1="211.4" y1="47.25" x2="252.47" y2="28.88"/><path class="cls-11" d="M204,35.83a111.47,111.47,0,0,0,7.57,13.65c.7,1.07,2.44.07,1.73-1a111.47,111.47,0,0,1-7.57-13.65c-.54-1.17-2.27-.15-1.73,1Z"/><path class="cls-3" d="M208.42,31.6c3.45,5,7,10.07,8.56,16a.5.5,0,0,0,1-.27c-1.61-6-5.16-11.18-8.66-16.22-.36-.53-1.23,0-.86.5Z"/><path class="cls-3" d="M212.47,27.45c4.4,5.45,9,11.18,10.52,18.16.14.63,1.11.36,1-.27-1.61-7.15-6.28-13-10.78-18.59-.41-.5-1.11.21-.71.7Z"/><path class="cls-3" d="M216.52,22.46a33.25,33.25,0,0,1,12,21.23c.09.63,1.06.36,1-.27a34.26,34.26,0,0,0-8.16-17.72,33.54,33.54,0,0,0-4.13-3.95c-.5-.4-1.21.31-.71.71Z"/><path class="cls-3" d="M221.83,16.59A50.41,50.41,0,0,1,236.76,41.3a.5.5,0,0,0,1-.27,51.67,51.67,0,0,0-10.59-20.39,50.31,50.31,0,0,0-4.59-4.76c-.48-.43-1.19.28-.71.71Z"/><path class="cls-3" d="M227.16,10.81a100.11,100.11,0,0,1,13.47,21.06c1,2.18,2,4.4,2.87,6.65.23.59,1.2.34,1-.26a100.75,100.75,0,0,0-12.2-22.49c-1.39-1.94-2.86-3.83-4.39-5.66-.41-.5-1.12.21-.71.7Z"/><path class="cls-3" d="M230.48,7.07c6.31,6.72,12.84,13.68,16.26,22.41a33.21,33.21,0,0,1,2,7.33c.09.63,1.05.36,1-.27-1.34-9.29-6.84-17.21-12.9-24.11-1.81-2.06-3.69-4.07-5.57-6.07-.44-.47-1.15.24-.71.71Z"/><path class="cls-3" d="M233.24,3.83a3.17,3.17,0,0,0,1.38,2.33,3,3,0,0,0,1.36.52c.26,0,.51,0,.77,0s.38.12.43.49a3.47,3.47,0,0,0,1.38,2.54,2.27,2.27,0,0,0,2.65-.11l-.85-.36c.14,2.26.68,5.1,3.39,5.43l-.49-.63a4,4,0,0,0,4.12,4.72l-.5-.5a7.81,7.81,0,0,0,.82,3.87,3.36,3.36,0,0,0,2.7,1.71l-.48-.63a5,5,0,0,0,2.89,6.09l-.35-.61a9,9,0,0,0,.71,6.6l.08-.6-.76.59c-.51.39.2,1.1.71.71l.75-.59a.5.5,0,0,0,.08-.61,7.85,7.85,0,0,1-.6-5.84.51.51,0,0,0-.35-.61,4.05,4.05,0,0,1-2.2-4.87.5.5,0,0,0-.48-.63c-2.23-.11-2.46-2.92-2.52-4.58a.5.5,0,0,0-.5-.5,3,3,0,0,1-3.15-3.46.51.51,0,0,0-.48-.63c-2.05-.25-2.29-2.84-2.39-4.43a.51.51,0,0,0-.86-.35c-.76.59-1.71-.1-2.05-.81S238.3,6.52,237.8,6s-1.43-.15-2.12-.4a2.15,2.15,0,0,1-1.44-1.76c-.07-.63-1.07-.64-1,0Z"/><path class="cls-3" d="M254,97.28a33.49,33.49,0,0,0,3.48,8.91,8,8,0,0,0,2.31,2.8c2.36,1.55,5.49.53,8.11-.52a7.55,7.55,0,0,0,3.19-2,7.28,7.28,0,0,0,1.22-3.89c.32-2.81.48-5.88-1.11-8.21a2,2,0,0,0-.8-.76,2.42,2.42,0,0,0-1.31-.07,67.71,67.71,0,0,0-15.28,3.87"/><line class="cls-10" x1="254.79" y1="96.66" x2="233.82" y2="60.15"/><line class="cls-10" x1="270.52" y1="93.22" x2="270.01" y2="51.12"/><line class="cls-10" x1="256.86" y1="96.68" x2="237.23" y2="56.72"/><line class="cls-10" x1="258.54" y1="95.63" x2="241.32" y2="54.66"/><line class="cls-10" x1="260.94" y1="95.28" x2="246.45" y2="52.94"/><line class="cls-10" x1="263.33" y1="94.93" x2="251.57" y2="51.21"/><line class="cls-10" x1="265.72" y1="94.58" x2="257.72" y2="49.82"/><line class="cls-10" x1="268.11" y1="94.23" x2="263.53" y2="49.46"/><path class="cls-11" d="M254.72,97.74a113.46,113.46,0,0,0,15.6-2.95,1,1,0,0,0-.54-1.93,108.43,108.43,0,0,1-15.06,2.88,1,1,0,0,0-1,1,1,1,0,0,0,1,1Z"/><path class="cls-3" d="M252.34,92.15c5.81-1.73,11.74-3.46,17.86-3.12.65,0,.64-1,0-1-6.2-.34-12.24,1.41-18.12,3.15a.5.5,0,0,0,.26,1Z"/><path class="cls-3" d="M249.55,87c6.59-2.49,13.49-5,20.65-4.34.64.06.64-.94,0-1C263,81,256,83.56,249.28,86.08c-.59.22-.33,1.19.27,1Z"/><path class="cls-3" d="M246.2,81.58A33.17,33.17,0,0,1,270,76.8c.63.11.9-.85.27-1a34.33,34.33,0,0,0-24.57,4.88c-.54.35,0,1.22.51.87Z"/><path class="cls-3" d="M242.28,74.7a50.41,50.41,0,0,1,28.14-6.42c.64,0,.64-1,0-1A51.63,51.63,0,0,0,247.64,71a51,51,0,0,0-5.86,2.84.5.5,0,0,0,.5.86Z"/><path class="cls-3" d="M238.35,67.88a99.6,99.6,0,0,1,24.43-6.25c2.36-.3,4.74-.5,7.12-.62.64,0,.64-1,0-1a100.92,100.92,0,0,0-25,4.48q-3.47,1.08-6.85,2.42c-.59.24-.33,1.2.27,1Z"/><path class="cls-3" d="M236,63.5c8.26-3.84,16.78-7.78,26-8.38a33,33,0,0,1,7.81.39c.62.12.89-.85.26-1-9.39-1.66-18.72,1.12-27.3,4.79-2.45,1-4.87,2.17-7.29,3.29-.58.27-.07,1.14.51.87Z"/><path class="cls-3" d="M233.73,59.89a3.14,3.14,0,0,0,2.54-.52,3.25,3.25,0,0,0,.89-1,3,3,0,0,0,.27-.64c.11-.35,0-.62.54-.61a11.32,11.32,0,0,0,1.55.09,2.91,2.91,0,0,0,1.41-.57,2.24,2.24,0,0,0,.78-2.47l-.61.61c2.07.54,5,1,6.15-1.43l-.69.18a4,4,0,0,0,5.76-2.47l-.62.35a7.64,7.64,0,0,0,4.09.39,3.39,3.39,0,0,0,2.3-2l-.74.29a5.05,5.05,0,0,0,6.61-.77l-.6.07a8.88,8.88,0,0,0,6.5,1.38l-.62-.35.32.91c.22.6,1.18.34,1-.27l-.33-.91a.51.51,0,0,0-.61-.34,7.92,7.92,0,0,1-5.73-1.28.5.5,0,0,0-.6.08,4.06,4.06,0,0,1-5.4.62.52.52,0,0,0-.74.3c-.79,2.07-3.58,1.38-5.15.93a.49.49,0,0,0-.61.35,3,3,0,0,1-4.29,1.87.51.51,0,0,0-.69.18c-.9,1.94-3.38,1.4-5,1a.5.5,0,0,0-.61.61,1.42,1.42,0,0,1-1.3,1.78c-.78.13-1.8-.43-2.47.11s-.44,1.29-.89,1.83a2.17,2.17,0,0,1-2.09.74c-.63-.14-.89.83-.27,1Z"/></svg>