<svg id="Layer_1" data-name="Layer 1" xmlns="http://www.w3.org/2000/svg" viewBox="0 0 300 200"><defs><style>.cls-1{fill:#e7e7e7;}.cls-1,.cls-10,.cls-11,.cls-12,.cls-14,.cls-15,.cls-2,.cls-3,.cls-4,.cls-5,.cls-6,.cls-7,.cls-8,.cls-9{fill-rule:evenodd;}.cls-2{fill:#fff;}.cls-3{fill:#ff8c98;}.cls-5{fill:#2d2d2d;}.cls-6{fill:#f8a9af;}.cls-7{fill:#ff405a;}.cls-8{fill:#545454;}.cls-9{fill:#a95631;}.cls-10{fill:#f57d87;}.cls-11{fill:#008bab;}.cls-12{fill:#006880;}.cls-13{opacity:0.68;}.cls-14{fill:#66256d;}.cls-15{fill:#911e5e;}</style></defs><title>Website Illustrations</title><g id="business_spot_hero_spot_hero_promo" data-name="business/spot_hero/spot_hero_promo"><path id="Fill-6" class="cls-1" d="M303.89,146.83c1.16-17.31,1.3-32.81,1.14-48.58-10.77-2.09-42.59-6.61-61.74,7.83,0,0-2,36.74,6.21,44.27,5.88,5.37,36.95.56,54.32-2.65,0-.29.05-.58.07-.87"/><path id="Fill-34" class="cls-2" d="M73.37,113.66a.88.88,0,0,0-.89-.91H69.4a.88.88,0,0,0-.89.91,1,1,0,0,0,.22.63.87.87,0,0,0,.67.29h3.08a.87.87,0,0,0,.67-.29,1,1,0,0,0,.22-.63"/><path id="Fill-36" class="cls-2" d="M74.7,116.5l-.2,3.08a.8.8,0,0,0,.34.74,1,1,0,0,0,1,.05.9.9,0,0,0,.51-.77l.2-3.08v-.07a.78.78,0,0,0-.35-.68,1,1,0,0,0-1,0,.89.89,0,0,0-.5.77"/><path id="Fill-38" class="cls-2" d="M74.59,107.18v3.17a.92.92,0,0,0,1.83,0v-3.17a.92.92,0,0,0-1.83,0"/><path id="Fill-40" class="cls-2" d="M77.65,113a1,1,0,0,0,0,1,.8.8,0,0,0,.75.37l3.49-.15h0a.56.56,0,0,0,.19,0l.33,0a1,1,0,0,0,.87-1v-.08a.81.81,0,0,0-.89-.76l-4,.17a.87.87,0,0,0-.77.48"/><path id="Fill-42" class="cls-2" d="M195.94,153.14A1.1,1.1,0,0,0,197.1,152v-3.9a1.11,1.11,0,0,0-1.16-1.13,1.21,1.21,0,0,0-.79.28,1.1,1.1,0,0,0-.37.85V152a1.09,1.09,0,0,0,.37.85,1.21,1.21,0,0,0,.79.28"/><path id="Fill-44" class="cls-2" d="M192.34,154.83l-3.9-.26a1,1,0,0,0-.94.44,1.25,1.25,0,0,0-.06,1.24,1.15,1.15,0,0,0,1,.65l3.9.25h.08a1,1,0,0,0,.86-.44,1.27,1.27,0,0,0,.06-1.24,1.14,1.14,0,0,0-1-.64"/><path id="Fill-46" class="cls-2" d="M204.15,154.69h-4a1.16,1.16,0,0,0,0,2.32h4a1.16,1.16,0,0,0,0-2.32"/><path id="Fill-48" class="cls-2" d="M196.74,158.57a1.27,1.27,0,0,0-1.24,0,1.07,1.07,0,0,0-.48,1l.19,4.42V164a.94.94,0,0,0,0,.25l.05.42a1.24,1.24,0,0,0,1.26,1.1h.1a1,1,0,0,0,1-1.13l-.22-5.12a1.11,1.11,0,0,0-.61-1"/><path id="Fill-58" class="cls-3" d="M160.13,149.08s-27.93,22.72-27.3,27.15c.48,3.37,18.33,11.7,28.25,14h6.21c3.32-3.45-7.16-41.1-7.16-41.1"/><path id="Fill-60" class="cls-4" d="M151.64,176.07c-2.37-5.06.16-13,2.66-11.54s5.72,3.16,5.83-.95,3.21-10.75,2.36-19-9.2-20.47-32.86-22.61c-25.83-2.33-31.74,8.1-36.8,17.58s-2.21,25.14-5.26,31.94c-4.82,10.73-12.08,29.92-7.71,41.72,1.87,5,5.59,9.19,9.76,12.57,17.92,14.5,45.8,14.93,64.15,1,9.26-7,15.84-18,15.95-29.75.06-5.63-.26-9.28-4.53-12.85C161.57,181.14,153.79,180.66,151.64,176.07Z"/><path id="Fill-62" class="cls-5" d="M235.25,81.68S231.3,91,232,100.23s6.25,17.83,6.25,17.83l16.15-13.2-5.52-7.5Z"/><path id="Fill-64" class="cls-5" d="M304.5,61.42c0-2.75-.13-5.56-.38-8.36-.4-1.65-1-3.73-1.85-6.46-4.57-14.32-11.42-17.43-11.42-17.43L275.48,41.23l9.29,55.11L305,104.86c.12-17.07-.33-24.73-.52-43.44"/><path id="Fill-66" class="cls-4" d="M281.79,44.51s12.31-5.38,15.58-14a30.67,30.67,0,0,0,1.75-15.82,56.81,56.81,0,0,1-6.82,5.61,50.11,50.11,0,0,1-5.68,2.79s.24-.91,1-4.63a33.15,33.15,0,0,0,.76-6.52s-2.83,5.11-6.67,6.87a26.25,26.25,0,0,1-7.65,2.12s3.34-3.17,4.19-5.28a63.59,63.59,0,0,0,1.91-6.43,31.24,31.24,0,0,1-8.86,3.55c-4.26.77-6.77.64-8.27,1.71a10.23,10.23,0,0,0-2.6,3.74s.07-2.35-3.59-3.11a69.91,69.91,0,0,1-7.71-1.64,32,32,0,0,1-5.7-3,9.08,9.08,0,0,0-.37,4c.46,2.87,3.25,5.25,3.25,5.25s-1.07,1-4.22.69a12.36,12.36,0,0,1-6.78-3.22,5.76,5.76,0,0,0,.09,3.65,5.32,5.32,0,0,0,2.05,2.52,8.87,8.87,0,0,1-4.78-1.19,11.36,11.36,0,0,1-3.53-2.91,16.87,16.87,0,0,0-4.77,12.59c.24,8.13,1.31,11.15,3.87,15.66a77.42,77.42,0,0,0,6.06,8.91Z"/><path id="Fill-68" class="cls-6" d="M249.64,103.61s5.73,7.38,10.77,9.65c3.17,1.42,11.08,2.26,16.27-2.18,4.16-3.56,9.28-8.48,10.18-11,1.38-3.74-1.9-25.37-1.9-25.37s6.93,5.39,13.28-2c4.05-4.67,2.34-16.14-5-16.32-6.28-.16-6.89,4.55-6.89,4.55s-4.31,3.42-6.05-1.7-2.15-21.07-2.15-21.07S272.66,26.86,254,29.89,233,38,232.42,44.74s.37,12.35-1.8,19.83-2.26,10.23,2.08,19.51c7.06,15.06,16.94,19.53,16.94,19.53"/><path id="Fill-70" class="cls-4" d="M258.56,67.6c.59,1.81-1.21,3.39-2.88,3.58A3,3,0,0,1,252.4,68c0-1.19,1.85-1,1.85.15,0,1.86,3,1.17,2.5-.24-.37-1.13,1.45-1.47,1.81-.35"/><path id="Fill-72" class="cls-4" d="M254.12,68.18A3.58,3.58,0,0,1,250,71c-2.11-.44-2.75-3-2.44-4.84.2-1.16,2.05-1,1.85.15-.15.86-.17,2.23.69,2.76a1.71,1.71,0,0,0,2.18-1c.16-1.17,2-1,1.84.15"/><path id="Fill-74" class="cls-4" d="M251.6,57.84q-1,4.24-2.21,8.44c-.33,1.15-2.08.52-1.75-.62q1.22-4.2,2.22-8.44c.28-1.16,2-.53,1.74.62"/><path id="Fill-76" class="cls-4" d="M265.2,46.91c-3-2-7.13-2.2-9.23,1.2-.94,1.52-3.23,0-2.29-1.57,2.91-4.72,8.82-4.69,13.08-1.92,1.5,1-.06,3.26-1.56,2.29"/><path id="Fill-78" class="cls-4" d="M245.3,48.61c-2.76-2.31-7.52-.8-9.41,2A1.39,1.39,0,0,1,233.6,49c2.67-3.92,9.35-6,13.26-2.71,1.36,1.14-.19,3.44-1.56,2.3"/><path id="Fill-80" class="cls-4" d="M256.38,68.78s4.56.55,5.83,2.77a1.41,1.41,0,0,1-1.14,2.23,7.82,7.82,0,0,1-3.22-.61s.7,2-.9,2.38-3-1.26-3-1.26.11,2.12-1.64,2.54S250,75,250,75s-2.13,2.91-4.1,1.3,0-5,1.93-6,2.2-.76,2.2-.76.91,1.53,2.69-.39a2.3,2.3,0,0,0,2.13.93,1.56,1.56,0,0,0,1.57-1.28"/><path id="Fill-82" class="cls-4" d="M232.58,46.3c1.18,6.54-.91,12.73-1.59,19.18-.79,7.53,1.72,15.15,5.49,21.59s9.2,13.29,17,14c7.13.66,15.22-1.64,19.74-7.44,1.46-1.87,4.52.2,3.06,2.08-4.59,5.89-11.75,8.71-19.07,9.09-8.42.43-14.2-3.13-19.44-9.47A46.56,46.56,0,0,1,227.49,73c-1.34-8.82,3-17.31,1.45-26-.42-2.34,3.21-3,3.64-.69"/><path id="Fill-84" class="cls-4" d="M289.22,61.18c3-.46,5.28,1.85,5.65,4.73.4,3.06-1,5-4,5.58a.92.92,0,0,1-.34-1.81,2.76,2.76,0,0,0,2.51-3.43c-.23-1.82-1.47-3.56-3.5-3.25a.93.93,0,0,1-.34-1.82"/><path id="Fill-86" class="cls-2" d="M259.81,51.29c3.87-.67,6.31,1,7.12,2.32,1.05,1.7-.21,3-1.86,3s-3-.63-5.25,0c-1.53.43-4.33,2.49-5.46.81-1.85-2.76,1.57-5.47,5.45-6.14"/><path id="Fill-88" class="cls-2" d="M240.48,52.9c-4.7.66-6,3.13-6.29,4.58a2.17,2.17,0,0,0,2.66,2.66c1.61-.38,2.47-1.66,5.1-1.92,1.58-.16,4.67,1.2,5.15-.43.85-2.87-2.72-5.43-6.62-4.89"/><path id="Fill-90" class="cls-4" d="M236.73,60.23c-2.81.59-3.72-3.81-.9-4.39s3.72,3.81.9,4.39"/><path id="Fill-92" class="cls-4" d="M256.47,58.13c-2.62.87-3.91-3.42-1.29-4.3s3.91,3.42,1.29,4.3"/><path id="Fill-94" class="cls-4" d="M271.51,72c-4.18,6.37-11,9.64-18.38,10.59s-13.34-2.13-17.84-8c-.72-.94.67-2.16,1.4-1.21,4.49,5.82,10.15,8.36,17.43,7.17,6.45-1.05,12.21-4.06,15.86-9.62.66-1,2.18,0,1.53,1"/><path id="Fill-96" class="cls-4" d="M276.84,75a9.87,9.87,0,0,1-9.51-9.87c0-1.18,1.81-1,1.85.16A8,8,0,0,0,277,73.16c1.19,0,1,1.9-.15,1.84"/><path id="Fill-98" class="cls-4" d="M271.13,106.28a24,24,0,0,1-4.6,2.77,15.36,15.36,0,0,1-6.21.8c-1.19,0-1-1.89.15-1.85,3.81.14,6.42-1,9.45-3.11,1-.67,2.19.72,1.21,1.39"/><path id="Fill-100" class="cls-4" d="M244.52,80.4s.39,14.08,15.07,11.48S272.38,73,272.38,73L270.47,72s-8.09,13.82-26,8.38"/><path id="Fill-102" class="cls-7" d="M271.59,81a23.61,23.61,0,0,0-9.77,1.14C254.57,84.62,254,90,254.05,92a17,17,0,0,0,5.54-.16c7.55-1.33,10.71-6.36,12-10.91"/><path id="Fill-104" class="cls-8" d="M50.94,92.65c-7.7-4.39-17.72-4.93-26.36-5.34-4.84-.22-9.69-.23-14.54-.12-5.55.14-8.35.26-13.18,3.21a2.81,2.81,0,0,0-.9.74,2.71,2.71,0,0,0-.31,1.47c-.23,10.83,1.22,21.61,2.67,32.35a28.21,28.21,0,0,0,1,5.08,2.65,2.65,0,0,0,.89,1.42c1.51,1,3.51-1.29,5.22-.68-2.16,2,3.92,2.23,4.82,2.35q4.23.59,8.47,1.13c5.58.7,11.18,1.34,16.78,1.81,5.86.5,17,2.85,22.35-.62,7.58-4.89,8.53-34-6.92-42.8"/><path id="Fill-106" class="cls-4" d="M66.46,106.66c3.7-1.42,6-4.68,7.46-8.37,4.52-11.73,4.82-25.43,4.18-37.82C77.07,40.69,72.56,15,49.64,10c-8-1.71-16.29-.79-24.41.14a48,48,0,0,0-6.85,1.12C12,13,6.53,17.21,2.45,22.38-1.29,27.13-3,32.56-5.94,37.69a57.68,57.68,0,0,0-6.43,14.46,74.75,74.75,0,0,0-.78,36.25c1.18,5,3.15,10.28,7.39,13.25,5.54,3.9,15.76,2,20-3.19l1.91-2.38,29.61,3.08L47.07,101a16.62,16.62,0,0,0,19.39,5.67"/><path id="Fill-108" class="cls-9" d="M67.28,38.07s3.35,32.34,2.32,38.25S67.05,93,50.05,94l-4.5.07s.1,13.27-14.42,12.78-15-10.78-15-10.78S25.53,84,24.58,42.71l2.83-.23.74-7.73L30,42.53l13-2L44.43,33l2,6.88L59.68,38l.58-6,1.49,5.6Z"/><path id="Fill-110" class="cls-2" d="M34.49,58.27A2.51,2.51,0,0,1,32.61,54a6.05,6.05,0,0,1,2.94-1.89,15.68,15.68,0,0,1,6.76-.81,5.56,5.56,0,0,1,2.89,1A2.47,2.47,0,0,1,46.14,55a3.58,3.58,0,0,1-2.54,1.76,25.66,25.66,0,0,1-4.52.9c-1.51.16-3.06.73-4.59.62"/><path id="Fill-112" class="cls-2" d="M55.64,54.38a2.16,2.16,0,0,1-.94-1.87,3,3,0,0,1,1.67-2.43,7.47,7.47,0,0,1,2.82-.67L62,49.13a9.36,9.36,0,0,1,3.08,0,3.32,3.32,0,0,1,2.37,1.89,2.49,2.49,0,0,1-.83,3,3.11,3.11,0,0,1-1.62.3c-1.49,0-3-.06-4.47,0s-3.48.93-4.85.1"/><path id="Fill-114" class="cls-4" d="M43.66,56.43a2,2,0,0,1-1.77-.22,1.27,1.27,0,0,1-.75-.68A2.22,2.22,0,0,1,42,52.62a2.12,2.12,0,0,1,2.81,1,2.09,2.09,0,0,1-1.17,2.77"/><path id="Fill-116" class="cls-4" d="M64.82,53.65a1.82,1.82,0,0,1-1.62-.2,1.17,1.17,0,0,1-.68-.62,2,2,0,0,1,.8-2.65,1.93,1.93,0,0,1,2.57.94,1.9,1.9,0,0,1-1.07,2.53"/><path id="Fill-118" class="cls-4" d="M45.73,66.92c.21,2.17,1.61,4.27,4.06,4a3.52,3.52,0,0,0,2.56-1.59A6.6,6.6,0,0,0,53,66c.07-1.47-2.21-1.83-2.28-.35-.05,1,.21,2.63-.94,3s-1.66-1-1.75-1.95a1.15,1.15,0,0,0-2.29.27"/><path id="Fill-120" class="cls-4" d="M50.63,65.32a4.71,4.71,0,0,0,1.17,2.46,3.41,3.41,0,0,0,3.08,1.45c2.49-.39,2.72-3.17,2.33-5.17-.28-1.44-2.58-1.19-2.29.27.11.59.52,2.36-.31,2.61-.45.14-.89-.44-1.12-.75a4.25,4.25,0,0,1-.44-.74c0-.12-.09-.24-.13-.36,0,.14,0,.07,0,0-.07-1.48-2.37-1.21-2.29.27"/><path id="Fill-122" class="cls-4" d="M51.19,55.74A30.91,30.91,0,0,1,55,64.62c.39,1.44,2.54.58,2.15-.85a32.66,32.66,0,0,0-4.09-9.4c-.81-1.24-2.67.13-1.86,1.37"/><path id="Fill-124" class="cls-4" d="M33,69.66a8.74,8.74,0,0,1,3-.77c1.48-.11,1.21-2.4-.27-2.29a10.61,10.61,0,0,0-3.59.91c-1.35.61-.51,2.76.85,2.15"/><path id="Fill-126" class="cls-4" d="M58.66,69.06a12.86,12.86,0,0,1,2.57,1c1.33.67,2.27-1.44.94-2.11A14.75,14.75,0,0,0,59,66.78a1.15,1.15,0,0,0-.35,2.28"/><path id="Fill-128" class="cls-4" d="M65.92,37.9c2,8.64,2.62,17.83,3.35,26.65.51,6.16.61,12.45-2,18.21-2.85,6.37-9.19,11.08-16.36,9.88-2.2-.36-2.72,3.06-.52,3.43,15,2.48,22.61-13,22.63-25.6a153.75,153.75,0,0,0-1.38-17,132.1,132.1,0,0,0-2.31-16c-.51-2.14-4-1.77-3.44.4"/><path id="Fill-130" class="cls-4" d="M37.83,71.76c3.19.65,10.93,1.88,17.66.18a1.56,1.56,0,0,1,1.92,1.27c.58,4,.76,13.37-10.81,13.44C34.87,86.71,35.34,76.92,36,73a1.55,1.55,0,0,1,1.83-1.25"/><path id="Fill-132" class="cls-10" d="M56.68,81.12c-1.28,3-4.12,5.5-10.08,5.53C34.87,86.71,35.35,76.92,36,73a1.55,1.55,0,0,1,1.83-1.25,52.13,52.13,0,0,0,7.92,1,19.53,19.53,0,0,1,10,7c.32.45.63.92.91,1.41"/><path id="Fill-134" class="cls-4" d="M31.75,48.09a10.68,10.68,0,0,1,9.48-2.68c1.46.29,1.8-2,.35-2.28a12.88,12.88,0,0,0-11.2,3.1c-1.09,1,.27,2.86,1.37,1.86"/><path id="Fill-136" class="cls-4" d="M57.14,44.34c2.27-1.12,4.61-.57,6.73.59,1.31.72,2.24-1.4.95-2.11a9.25,9.25,0,0,0-8.53-.63c-1.32.65-.49,2.81.85,2.15"/><path id="Fill-138" class="cls-4" d="M42,92s-1.61-4.63,4-3c0,0,.93-1.81,3.09-.17,0,0,4.44-1.34,4.8,4.14,0,0,2.89,4.32-2.57,5.22,0,0-3.13,5.16-5.53.91,0,0-3.09,1.49-3-1.72,0,0-5.41-2.3-.74-5.4"/><path id="Fill-140" class="cls-6" d="M59.16,182.29c1-.82,2.86-1.19,4.47-2.08a19.84,19.84,0,0,0,5.9-4.92c5.66-7,5-16.72,2.51-24.89a94.57,94.57,0,0,0-27-42.62s-7.28-4.61-22.08-3.86a35.27,35.27,0,0,0-16.61,4.61c-5.22,3.18-5.88,10.28-7,15.93A78.81,78.81,0,0,0-2,141.39c.28,10.87,3.35,22.51,11.89,29.23a39,39,0,0,1,3.47,2.77c3.24,3.22,3.67,7.37,4.89,11.47,1.46,4.93,2.12,9.8,3.33,14.79a4.82,4.82,0,0,0,1.68,3c1.34.91,3.13.44,4.69,0,10.31-2.66,21.16-1.07,31.81-1.08,2.66,0,6.09-.77,6.39-3.4C64.83,195.66,56.34,184.63,59.16,182.29Z"/><path id="Fill-142" class="cls-4" d="M70.31,150.87c2.07,6.35,2.52,13.67-.54,19.8s-8.93,9.66-15.19,11.78a98.08,98.08,0,0,1-11.09,2.87c-2.44.53-1.4,4.27,1,3.75,7.07-1.52,14.47-3.22,20.51-7.4a24.79,24.79,0,0,0,10.73-19.13,33.82,33.82,0,0,0-1.72-12.7c-.77-2.37-4.52-1.35-3.74,1"/><path id="Fill-144" class="cls-4" d="M6.66,164.23c-2.31-2.89-4.45-7.37-2.67-11,2-4.08,6.19-2.15,8.13,1,3.05,5,11.11,17.52,15.39,16.45s5.74-1.73,5.74-2.81c0-2.91-12.86-16.54-13.49-19.59,0,0,7.12-5.57,4.72-11.46a6.71,6.71,0,0,0-3.75-3.59c-3.23-1.33-9.89-5.46-4.61-15.9,0,0,3.42-6.78,15.86-6.35,3.88.13,8,1.1,11.89.91,4.3-.22,4.91-4.72,2.27-7.94a13.18,13.18,0,0,0-5.63-3.56,50,50,0,0,0-37.41.37,44.57,44.57,0,0,0-24.94,27.55C-25.5,140.57-23,154.61-15,164.57c3.43,4.24,7.72,7.69,12,11,4.84,3.74,9.8,7.42,15.36,10,7.55,3.5,6-3.62,3.74-8.37S10,168.39,6.66,164.23Z"/><path id="Fill-146" class="cls-4" d="M8.92,158.85H9l-.29,0a3.59,3.59,0,0,1,.92.26L9.33,159a3.64,3.64,0,0,1,.81.47l-.22-.17a3.8,3.8,0,0,1,.66.67l-.17-.22a3.92,3.92,0,0,1,.48.82c0-.09-.08-.18-.11-.27A4.6,4.6,0,0,1,11,161a1.09,1.09,0,0,0,.5.65,1.07,1.07,0,0,0,.84.11,1.12,1.12,0,0,0,.76-1.34,4.74,4.74,0,0,0-1.39-2.47,4.48,4.48,0,0,0-1.16-.81,5.28,5.28,0,0,0-.78-.31,6.31,6.31,0,0,0-.85-.15,1.06,1.06,0,0,0-.78.32,1.16,1.16,0,0,0-.32.77,1.14,1.14,0,0,0,.32.77l.23.17a1,1,0,0,0,.55.15"/><path id="Fill-148" class="cls-4" d="M48.25,157.41a10.55,10.55,0,0,1,.94,4.07,3.85,3.85,0,0,1,0,.48c0,.08-.08.59,0,.22-.06.31-.14.61-.23.92-.06.15,0,.14,0,0a1.36,1.36,0,0,1-.1.21c-.07.14-.15.27-.23.4s-.09.12,0,0a1.29,1.29,0,0,1-.16.17c0,.05-.1.11-.16.16.14-.11.15-.11,0,0a1.49,1.49,0,0,0-.53,2,1.47,1.47,0,0,0,2,.53c3.38-2.4,2.45-7.32,1-10.54a1.46,1.46,0,0,0-2-.53,1.49,1.49,0,0,0-.52,2"/><path id="Fill-150" class="cls-4" d="M50.73,162a20.07,20.07,0,0,0,8.58-.55c3.79-1,7.07-3.25,8.61-7a1.46,1.46,0,0,0-1-1.79,1.49,1.49,0,0,0-1.79,1c-1.17,2.8-4.07,4.28-6.91,5a17.72,17.72,0,0,1-4,.57c-.57,0-1.14,0-1.72,0l-.69,0c-.11,0-.47-.08,0,0l-.28,0a1.46,1.46,0,1,0-.78,2.81"/><path id="Fill-152" class="cls-4" d="M36.27,125c.12-.21.24-.42.37-.63l.16-.24s.26-.36.13-.17l.13-.17.24-.28.46-.47c.17-.16.35-.33.54-.48l.17-.14.17-.12a9.66,9.66,0,0,1,1.19-.72l.6-.28c-.23.1-.1,0,.06,0l.34-.12a10.61,10.61,0,0,1,1.34-.36l.36-.06c-.15,0-.23,0,0,0a5.84,5.84,0,0,1,.73,0H44l.29,0c.06,0,.55.06.11,0a1.8,1.8,0,0,0,2.15-1.22,1.76,1.76,0,0,0-1.22-2.15,12.08,12.08,0,0,0-7.09,1.15,11.61,11.61,0,0,0-5,4.74,1.75,1.75,0,0,0,3,1.76"/><path id="Fill-154" class="cls-4" d="M59.67,128.55c1.62,1.11,3.28,2.16,5,3.21a41.59,41.59,0,0,1,3.56,2.42c1,.81,2.85,2.18,2.64,3.67a1.29,1.29,0,0,1-2.45.32c-.89-1.65-3.41-.18-2.51,1.47a4.22,4.22,0,0,0,5.06,2,4.29,4.29,0,0,0,2.69-5,8.6,8.6,0,0,0-3.31-4.46,38.84,38.84,0,0,0-3.75-2.63c-1.82-1.16-3.64-2.29-5.41-3.51a1.46,1.46,0,1,0-1.47,2.52"/><path id="Fill-156" class="cls-4" d="M65.62,139.7c.06.23.11.47.15.71,0-.13,0-.26,0-.39a4.9,4.9,0,0,1,0,1.21c0-.13,0-.26,0-.38a3.67,3.67,0,0,1-.24.92l.15-.34a3.85,3.85,0,0,1-.41.71l.22-.29a3.26,3.26,0,0,1-.52.53l.29-.23a3.36,3.36,0,0,1-.57.35l.34-.15a2.45,2.45,0,0,1-.64.18l.39-.05a3,3,0,0,1-.52,0l.39.05a2.64,2.64,0,0,1-.55-.15l.34.15a3,3,0,0,1-.49-.29l.29.23a2.32,2.32,0,0,1-.35-.35l.22.29a2.22,2.22,0,0,1-.25-.42l.15.35a1.62,1.62,0,0,1-.12-.43,1.49,1.49,0,0,0-.67-.87,1.46,1.46,0,0,0-2,.53,1.66,1.66,0,0,0-.15,1.12,3.32,3.32,0,0,0,1.48,2.12,3.47,3.47,0,0,0,2.41.55A4.33,4.33,0,0,0,68.52,142a6.34,6.34,0,0,0-.09-3.09,1.46,1.46,0,0,0-2.81.78"/><path id="Fill-158" class="cls-9" d="M303.89,146.83c.11-1.55.2-3.08.29-4.61l-58.6-12.36s-16.4,19.86-15.32,45.69c.2,4.75,1.92,15.23,6.65,17.75,2.42,1.29,4.2.41,6.05,2.56,1.24,1.44,1.48,3.6,3.38,4.48a5.78,5.78,0,0,0,2.11.41l23.24,1.51c1.26.08,2.68.11,3.59-.76a4.94,4.94,0,0,0,1.11-2.31,40.38,40.38,0,0,1,7.91-14.83c3.38-4,8.08-6,11.25-10.09C301.45,166.63,303.27,156.23,303.89,146.83Z"/><path id="Fill-160" class="cls-4" d="M228,170.86a28.34,28.34,0,0,0,4.8,19.21,2,2,0,0,0,2.66.7,2,2,0,0,0,.69-2.66,25.07,25.07,0,0,1-4.27-17.25,2,2,0,0,0-1.94-1.94,2,2,0,0,0-1.94,1.94"/><path id="Fill-162" class="cls-4" d="M235.61,174.31a19.56,19.56,0,0,0,17.94-2.49c1.12-.81,0-2.71-1.11-1.88a17.55,17.55,0,0,1-16.24,2.27c-1.33-.49-1.9,1.62-.59,2.1"/><path id="Fill-164" class="cls-4" d="M251.5,166.9a9,9,0,0,0,5.67,8.17,1.09,1.09,0,0,0,1.34-.76,1.13,1.13,0,0,0-.76-1.35c-.31-.12.18.1-.12-.05l-.23-.11c-.16-.07-.3-.16-.45-.24l-.48-.31-.13-.1c.09.08-.12-.09-.13-.1a6.91,6.91,0,0,1-.78-.75,4.32,4.32,0,0,1-.34-.39c-.07-.09.07.1-.05-.06l-.17-.25a6.66,6.66,0,0,1-.52-.89l-.14-.28,0-.07c-.06-.16-.12-.32-.17-.48a7.53,7.53,0,0,1-.26-1s-.05-.35,0-.12a1.36,1.36,0,0,1,0-.2c0-.21,0-.41,0-.62a1.09,1.09,0,0,0-2.18,0"/><path id="Fill-166" class="cls-4" d="M236.57,173.94c-.21,2.23-.44,3.89.8,6.57a6.41,6.41,0,0,0,10,2.26A26.42,26.42,0,0,0,255,172.63s-.86-2.58-4-.52-10,3.37-12.58,2.26Z"/><path id="Fill-168" class="cls-4" d="M263.18,144.38s-1,15.51,2.24,16.51,4.52-1.25,7.38-5.53,11.11-7.11,14,0-2.28,15.06-8.4,13.78c-5-1-2.75,7.41-2.15,9.74.72,2.8,1.16,5.82,2.72,8.32,3.34,5.35,10.46.81,13.58-2.44a40.86,40.86,0,0,0,5.71-8.23,122.34,122.34,0,0,0,6.71-13.28,87.41,87.41,0,0,0,4.44-14.07,10.93,10.93,0,0,0,.38-3.41,4,4,0,0,0-1.57-2.94c-2.26-1.5-7.26-.4-10-.26l-11.59.6-21.68,1.12Z"/><path id="Fill-170" class="cls-11" d="M261.49,142.11l-6.25.24s-22.92-10.8-29.3-25.23,9.82-15.31,27.49-1.18,8.06,26.17,8.06,26.17"/><path id="Fill-172" class="cls-12" d="M275.22,105.24c-17.13-.25-38.91,10.42-29,28.62,6,10.95,21.88,14.23,33.06,16.12,9.87,1.67,28.27,6.43,31.73-7,.09-.33.16-.66.22-1,.83-4.76-.49-9.61-1.89-14.24-4.57-15.13-19-22.28-34.13-22.5"/><path id="Fill-174" class="cls-4" d="M279.52,157.7l.37.22c.07.05.16.12,0,0a.86.86,0,0,1,.14.13,2.13,2.13,0,0,1,.3.3c.06.06.13.16,0,0l.11.16a3.35,3.35,0,0,1,.21.36l.11.21c0-.09,0-.09,0,0a3.33,3.33,0,0,1,.13.45,1.16,1.16,0,0,1,0,.18c0-.15,0-.07,0,0a3.09,3.09,0,0,1,0,.43c0,.07,0,.13,0,.2,0-.16,0-.06,0,0s-.07.28-.11.42l-.06.18c-.07.19,0-.05,0,0s-.13.26-.21.39-.07.1-.1.16c-.16.24.08-.08,0,0s-.19.22-.29.32l-.15.13c-.23.2.17-.11-.08.06a1.12,1.12,0,0,0-.39,1.5,1.1,1.1,0,0,0,1.49.39,4.84,4.84,0,0,0-.38-8.31,1.1,1.1,0,0,0-1.11,1.89"/><path id="Fill-176" class="cls-4" d="M234.89,149a27.48,27.48,0,0,0-9.88,9.75c-1.09,1.9-1.61,4.65.41,6.16s4.66.26,5.81-1.72a1.1,1.1,0,0,0-1.89-1.11,2.33,2.33,0,0,1-1.7,1.32,1.27,1.27,0,0,1-1.4-1.09c-.31-1.56,1.1-3.25,1.95-4.42a25.49,25.49,0,0,1,7.8-7,1.09,1.09,0,0,0-1.1-1.89"/><path id="Fill-178" class="cls-4" d="M229.28,163.05a4.4,4.4,0,0,0,4.38,3.53,3.9,3.9,0,0,0,2.75-1.3,3.36,3.36,0,0,0,.73-1.56,6.85,6.85,0,0,0-.08-2,1.1,1.1,0,0,0-1.34-.76,1.12,1.12,0,0,0-.76,1.34c0,.13,0,.14,0,0l0,.16,0,.36c0,.1,0,.2,0,.31s0,.34,0,.11c0,.11-.06.23-.08.34s0,0,0-.08c0,0,0,.09-.07.14a1,1,0,0,1-.12.19c-.13.2.16-.15,0,0l-.16.16c-.14.15.17-.11,0,.05a2,2,0,0,1-.45.24c.27-.07,0,0,0,0l-.27.07c-.28.06.16,0-.06,0h-.47c-.25,0,.19.05,0,0a1.35,1.35,0,0,1-.53-.15l.08,0-.11,0-.21-.12c-.08,0-.15-.1-.23-.15s-.05,0,.06.05l-.12-.1c-.12-.11-.23-.22-.34-.34s.1.15,0,0-.12-.18-.17-.27a2.12,2.12,0,0,1-.11-.21c-.12-.23.06.21,0,0a5.29,5.29,0,0,1-.13-.54,1.1,1.1,0,0,0-1.35-.76,1.11,1.11,0,0,0-.76,1.34"/><path id="Fill-180" class="cls-2" d="M248.22,153c1.16-.22,3.09-3.62-2.18-6.34-3.82-2-6.9-1.74-7.1,1.12-.12,1.74,2.1,2.33,4.14,3.33s3.33,2.22,5.14,1.89"/><path id="Fill-184" class="cls-4" d="M243.29,142.27a7.93,7.93,0,0,1,1.09,0l.21,0c-.57,0-.28,0-.14,0l.53.11c.34.09.67.2,1,.32s-.32-.15-.11,0l.24.11a4.59,4.59,0,0,1,.49.26c.14.08.28.16.41.25l.23.15c.06.05.32.25.07,0s0,0,.06.06l.2.17.36.34c.13.13.25.26.37.4s.11.14.17.21-.29-.41-.07-.1a8.91,8.91,0,0,1,.57.93,2,2,0,0,0,2.65.7,2,2,0,0,0,.7-2.66,9.9,9.9,0,0,0-9-5.15,1.94,1.94,0,1,0,0,3.88"/><path id="Fill-186" class="cls-10" d="M252.23,177.56c-7.83-5.53-11.85,2-13,5.31,1.92,1.55,4.89,2.29,8.09-.1a23,23,0,0,0,4.88-5.21"/><path id="Fill-188" class="cls-2" d="M48.3,128s-5.77.25-8.33,4.62,1.6,6.21,5.05,3.24,7.5-2,7.73-4.45-1.84-3.89-4.45-3.41"/><path id="Fill-190" class="cls-4" d="M53,132.31c2.11-3.28-3-6.56-5.1-3.28s3,6.56,5.1,3.28"/><path id="Fill-192" class="cls-4" d="M50.65,162.94s-.31-1.74,2.85-1.76,10.94-1.83,13-7a39.15,39.15,0,0,1,1.85,7.94c.47,4.19-3.19,6.64-8.87,5.77a14.94,14.94,0,0,1-8.85-4.91"/><path id="Fill-194" class="cls-7" d="M61.53,162.51c-3.51-.7-7,1.7-8.33,2.74a14.68,14.68,0,0,0,6.3,2.6c3.27.5,5.86-.1,7.39-1.5a8.36,8.36,0,0,0-5.36-3.84"/><path id="Fill-196" class="cls-4" d="M152.93,169.82a5.48,5.48,0,0,0-.25,1.19,4,4,0,0,0,0,.92,5.66,5.66,0,0,0,.69,2.34,1.49,1.49,0,0,0,.87.67,1.46,1.46,0,0,0,1.12-.15,1.49,1.49,0,0,0,.53-2,3,3,0,0,1-.2-.4l.15.35a3.88,3.88,0,0,1-.28-1c0,.12,0,.25.05.38a4.13,4.13,0,0,1,0-1.11c0,.13,0,.26-.05.39a4,4,0,0,1,.2-.81,1.46,1.46,0,0,0-.15-1.12,1.45,1.45,0,0,0-2-.52,1.62,1.62,0,0,0-.67.87"/></g><path class="cls-4" d="M240.24,146a1.65,1.65,0,0,0-.56.87,2.2,2.2,0,0,0,0,1,1.59,1.59,0,0,0,.49.95,1.74,1.74,0,0,0,.33.18,1.92,1.92,0,0,0,2-.25,1.74,1.74,0,0,0,.51-1.61,3,3,0,0,0-.37-.79,2.23,2.23,0,0,0-.38-.53A2,2,0,0,0,240.24,146Z"/><g class="cls-13"><path class="cls-14" d="M122.44,72.44c-3.62-2-7.15-4.17-11-5.58a30.59,30.59,0,0,0-20.72,0,4.84,4.84,0,0,1-2.8.47c-3.89-1,3-8.88,4.26-10.08C94,55.43,97.68,53.81,99,51.7c1.59-2.48,1.55-6.38,3.25-9.15,14.52-23.77,48.49-29.89,68.95-10.69,5.05,4.74,8.36,10.81,8,17.91-.45,8.65-6.61,15.79-13.44,20.54-10.93,7.58-25.68,9.91-38,4.79A54.82,54.82,0,0,1,122.44,72.44Z"/></g><g class="cls-13"><path class="cls-15" d="M194.79,61.1c6.93,2.62,12.3,6,17.13,11.56,2.35,2.7,3.46,3,7.07,1,1.6-.87,6.92-4,7.07-6.07A18.24,18.24,0,0,1,220.84,79a49.13,49.13,0,0,0-3.57,3.5,17.92,17.92,0,0,0-2.53,4.7c-1.63,4.11-2.81,8.42-4.89,12.33a36,36,0,0,1-15.74,14.8,60.43,60.43,0,0,1-21.06,5.75c-11.93,1.25-24.67-.07-34.58-6.85a30.3,30.3,0,0,1-12-33.09C129.67,68,143.64,59.41,155.08,56.8,168.25,53.8,182.15,56.33,194.79,61.1Z"/></g></svg>