<svg id="Layer_1" data-name="Layer 1" xmlns="http://www.w3.org/2000/svg" viewBox="0 0 300 200"><defs><style>.cls-1,.cls-10,.cls-11,.cls-12,.cls-13,.cls-2,.cls-3,.cls-4,.cls-5,.cls-6,.cls-7,.cls-8,.cls-9{fill-rule:evenodd;}.cls-2{fill:#abdfed;}.cls-3{fill:#ff5900;}.cls-4{fill:#ffb31c;}.cls-5{fill:#cd4700;}.cls-6{fill:#77001a;}.cls-7{fill:#007d00;}.cls-8{fill:#00ad00;}.cls-9{fill:#a95631;}.cls-10{fill:#004656;}.cls-11{fill:#fff4e2;}.cls-12{fill:#fff;}.cls-13{fill:#006880;}</style></defs><title>Website Illustrations</title><g id="pay_spot_hero_spot_hero_topup_from_paylah" data-name="pay/spot_hero/spot_hero_topup_from_paylah"><polygon id="Fill-4" class="cls-1" points="203.47 47.22 200.27 61.49 209.55 60.33 203.47 47.22"/><path id="Fill-6" class="cls-2" d="M191.53,201.71l1,1.46c-31.76-.73-63.53.28-95.29,1.29l-40.06,1.28c-8.32.26-16.66.53-25,0a129.92,129.92,0,0,1-21.4-3.21c-4-.94-8.29-2.38-10.25-6-2.1-3.84-.65-8.57.9-12.67,8.92-23.7,23-45.78,36.28-67.22C57.94,84.18,90.56,79.05,90.56,79.05l110.81,53.58c3.48,3.46,8.76,17.45,4.78,35.52"/><path id="Fill-8" class="cls-1" d="M207.54,153.65v0L174.59,147l27.93-12.88c2.26,3.39,4.75,10.4,5,19.58"/><path id="Fill-10" class="cls-3" d="M48.46,202.21a1.87,1.87,0,0,1-1.52.83c-7.9,1.24-15.69-2.2-23.47-4.11-3.71-.91-8-1.82-9.89-5.3a9.66,9.66,0,0,1-.53-7.08c4.89-17.9,22.63-3.39,29.52,5.07a53,53,0,0,1,6.26,9.6"/><path id="Fill-12" class="cls-3" d="M42.91,200.7a79.62,79.62,0,0,1-11.4-2.29L16.38,180.9l5.4-4.66Z"/><path id="Fill-14" class="cls-4" d="M57.24,202.21c-3.33.89-6.84.69-10.28.48-4.53-.27-9.05-.53-13.57-.81-3.13-.19-6.62-.94-8.8-3.41a16.76,16.76,0,0,1-2.83-5.55c-1.71-4.73-4.7-12.61,0-16.68,5.17-4.47,16.89.63,26.19,11.4a45.27,45.27,0,0,1,8.53,14.13"/><path id="Fill-16" class="cls-5" d="M127.41,201.18l-5.8,0-9,0h-2.55l-4.54,0-9,.1h-1l-4.48,0c-10.23-10.33-14.65-22.15-9.89-27.63,5.26-6.07,19.78-2.09,32.41,8.89,6.76,5.87,11.62,12.56,13.86,18.44"/><path id="Fill-18" class="cls-6" d="M134.3,201.15l-4.73,0h-2.16l-5.8,0-9,0h-2.55l-4.54,0-1.83,0c-1.24-.93-2.48-1.92-3.7-3-12.64-11-18.61-24.78-13.34-30.85s19.78-2.09,32.41,8.89c9.36,8.12,15.07,17.81,15.25,24.75"/><path id="Fill-20" class="cls-3" d="M161.79,201l-5.88,0-10,0-7.19,0-9.1,0c-5.37-9.11-6.55-17.85-2.27-21.56,5.54-4.77,18.09.69,28.05,12.21a53.43,53.43,0,0,1,6.44,9.2"/><polygon id="Fill-22" class="cls-3" points="155.91 201.05 145.85 201.1 127.3 179.61 133.08 174.62 155.91 201.05"/><path id="Fill-24" class="cls-4" d="M169.89,201l-31.23.15C130.59,190.4,128,179,133.08,174.62c5.54-4.78,18.1.69,28,12.21A49.68,49.68,0,0,1,169.89,201"/><path id="Fill-26" class="cls-5" d="M157.1,182.63l-26,3.53c-1.24-5-.68-9.25,2-11.54,4.81-4.15,14.93-.57,24,8"/><path id="Fill-28" class="cls-5" d="M97.66,153c10.74,9.33,15.81,21.07,11.33,26.23S92.18,181,81.44,171.68s-15.81-21.06-11.33-26.22,16.81-1.77,27.55,7.55"/><polygon id="Fill-30" class="cls-5" points="74.79 140.08 70.11 145.46 108.99 179.24 113.67 173.85 74.79 140.08"/><path id="Fill-32" class="cls-3" d="M102.34,147.63c10.74,9.33,15.81,21.06,11.33,26.22s-16.81,1.77-27.55-7.55-15.81-21.07-11.33-26.22,16.81-1.78,27.55,7.55"/><path id="Fill-34" class="cls-3" d="M113.67,173.85a6.62,6.62,0,0,1-3,1.93l-.11-.08A37.09,37.09,0,0,1,99.1,145c1.09.8,2.17,1.67,3.24,2.6,10.73,9.32,15.81,21.07,11.33,26.22"/><path id="Fill-36" class="cls-5" d="M113.67,173.85a6.62,6.62,0,0,1-3,1.93l-.11-.08A37.09,37.09,0,0,1,99.1,145c1.09.8,2.17,1.67,3.24,2.6,10.73,9.32,15.81,21.07,11.33,26.22"/><path id="Fill-38" class="cls-3" d="M65.4,201.77l-4.65,0H58.93a129.54,129.54,0,0,1-19.37-1.61c-1-.59-2-1.23-2.94-1.91-11.69-8.11-18-19.25-14.09-24.85s16.52-3.58,28.19,4.54c11,7.63,17.23,17.93,14.68,23.79"/><path id="Fill-40" class="cls-4" d="M54.8,172.13c11.68,8.11,18,19.24,14.09,24.85s-16.53,3.57-28.21-4.55-18-19.24-14.08-24.85,16.52-3.57,28.2,4.55"/><path id="Fill-42" class="cls-3" d="M57.32,168.61c11.65,8.15,17.93,19.29,14,24.89S54.8,197,43.14,188.87s-17.92-19.3-14-24.89,16.53-3.53,28.19,4.63"/><path id="Fill-44" class="cls-4" d="M61.41,162.76c11.65,8.15,17.93,19.3,14,24.89S58.89,191.18,47.23,183s-17.93-19.29-14-24.89,16.53-3.52,28.19,4.63"/><path id="Fill-46" class="cls-3" d="M66.85,160.51c10.73,9.33,15.81,21.07,11.33,26.23s-16.81,1.77-27.55-7.56S34.82,158.12,39.3,153s16.81-1.77,27.55,7.55"/><polygon id="Fill-48" class="cls-3" points="43.97 147.58 39.3 152.96 78.18 186.74 82.86 181.35 43.97 147.58"/><path id="Fill-50" class="cls-4" d="M71.52,155.13c10.74,9.32,15.82,21.06,11.34,26.22s-16.81,1.77-27.55-7.55S39.5,152.73,44,147.58s16.82-1.78,27.55,7.55"/><path id="Fill-52" class="cls-3" d="M75.67,150.27C85,161,88.32,173.38,83.15,177.84S66.25,177.2,57,166.43s-12.64-23.1-7.48-27.57,16.9.65,26.19,11.41"/><polygon id="Fill-54" class="cls-3" points="54.88 134.2 49.48 138.86 83.15 177.84 88.55 173.18 54.88 134.2"/><path id="Fill-56" class="cls-3" d="M145.32,154.8c4.27,13.56-.9,27.28-11.55,30.63s-22.74-4.93-27-18.49.9-27.29,11.55-30.64,22.74,4.93,27,18.5"/><path id="Fill-58" class="cls-4" d="M151.9,152.73c4.27,13.56-.9,27.28-11.55,30.63s-22.74-4.93-27-18.5.9-27.28,11.55-30.63,22.74,4.93,27,18.5"/><path id="Fill-60" class="cls-4" d="M81.07,145.61c9.3,10.76,12.64,23.11,7.48,27.57s-16.9-.64-26.19-11.41-12.64-23.11-7.48-27.57,16.9.65,26.19,11.41"/><path id="Fill-62" class="cls-3" d="M88.05,201.51l-6.8.08-14.73.16-5.77.06H58.93c-2.48-6.31-2.44-11.84.66-14.52,5.16-4.46,16.89.65,26.18,11.41.8.93,1.56,1.87,2.28,2.81"/><path id="Fill-64" class="cls-3" d="M81.36,201.59h-.11l-9.23.1-12.43-14.4L65,182.63Z"/><path id="Fill-66" class="cls-4" d="M96.51,201.42h-1l-6.05.07-8.21.09-14.73.16C62,193.61,61.15,185.94,65,182.63c5.18-4.47,16.9.65,26.19,11.41a51.31,51.31,0,0,1,5.34,7.38"/><path id="Fill-68" class="cls-3" d="M112.6,201.26h-2.55l-4.54,0-10,.11-6.05.07-8.21.09c-2.89-7-3-13.18.47-16.13,5.53-4.78,18.08.69,28,12.21,1,1.18,2,2.38,2.84,3.59"/><path id="Fill-70" class="cls-3" d="M105.51,201.32l-10,.11-13.79-16,5.78-5Z"/><path id="Fill-72" class="cls-4" d="M121.61,201.21l-11.56.06-20.59.23c-5.1-8.92-6.15-17.41-2-21,5.53-4.78,18.08.69,28,12.21a53.74,53.74,0,0,1,6.07,8.53"/><path id="Fill-74" class="cls-7" d="M216.91,123.2l-25.06-11.72c-8.46-8.93-21.19-18-36.49-25.23C139.57,78.77,124,74.62,111.53,73.91L87.77,62.8,85.26,84.57h0c-3.94,13.52,16.49,35.36,47.22,49.92,29.8,14.12,58.76,16.41,67.76,5.95h0Z"/><path id="Fill-76" class="cls-1" d="M86.75,99.53c11.53,20,35.24,33,56,41,11.71,4.51,24.38,7.9,37,7.93,7.52,0,16.19-1.11,21.55-6.93l-1.82.23h0c1.74.82,3.26-1.76,1.52-2.59h0a1.54,1.54,0,0,0-1.81.24c-5.58,6.06-15.22,6.38-22.87,6-11.85-.66-23.56-4-34.54-8.4-19.44-7.76-41.63-20.19-52.45-38.92a1.5,1.5,0,0,0-2.59,1.51"/><path id="Fill-78" class="cls-8" d="M220,119.1c-7.07,14.92-42.11,13.12-78.28-4S82,72,89,57.05s42.12-13.11,78.28,4,59.76,43.12,52.69,58"/><path id="Fill-80" class="cls-9" d="M315.55,175.35a28.86,28.86,0,0,1-4.62,12.31,26.45,26.45,0,0,1-4.22,5l-.71.63c-4-3.91-5.57-9.83-9.83-12-6.71-3.47-12.49.47-22.42-11.09s-6.25-29.38-6.25-29.38l-18.64-11.06a3.48,3.48,0,0,1-1.52-4.08l4-11.84L229.8,94.35c-15.5,1.38-27.29-11.11-35.39-14.57S165.28,70.76,169,61s11.56-6.48,20.58-3,15.27,3.69,16.89-1.15-7.4-9.5-7.4-9.5l-10,7-5.78-12-12.95-3.7s1.77-2.88,8.54-15.1l.48-.86C186.55,9.7,190.72,9.93,196,10.16c4.06.18,16.91,9.54,22.74,14,1.79,1.36,2.93,2.25,2.93,2.25,8.79-.7,20.12,11.56,22.67,18.17s6.83,33.83,6.83,33.83l65.19,32c.17,25.35.26,55.73-.84,65"/><path id="Fill-82" class="cls-3" d="M166.35,59.44c-2.06,5.39,2.73,10,9.49,13.19a16.85,16.85,0,0,1-13.52,2.48C151.43,72.92,144.57,61.35,147,49.26s13.16-20.08,24-17.95h.08c9.44,1.89,15.86,10.87,15.8,21.11a25.49,25.49,0,0,1-.33,3.87c-8.86-3.42-16.58-6.44-20.23,3.14"/><path id="Fill-84" class="cls-1" d="M206.45,56.89c1.61-4.84-7.4-9.5-7.4-9.5l-10,6.94-5.48-11.4L193.4,29.3s11.44,8.26,14.42,11.6,1.82,11.75-1.37,16"/><path id="Fill-86" class="cls-4" d="M169,61c-2.06,5.4,3.52,9.51,10.28,12.7a19,19,0,0,1-14.31,3C154.06,74.53,147.2,63,149.63,50.86s13.16-20.08,24-18h.08c9.45,1.89,15.87,10.87,15.81,21.11a25.49,25.49,0,0,1-.33,3.87C180.34,54.48,172.62,51.46,169,61"/><path id="Fill-88" class="cls-1" d="M179.26,73.74a20.31,20.31,0,0,1-5.15,2.46l-4.85-10.12c1.56,3,5.51,5.55,10,7.66"/><path id="Fill-90" class="cls-1" d="M179.26,73.74a20.31,20.31,0,0,1-5.15,2.46l-4.85-10.12c1.56,3,5.51,5.55,10,7.66"/><path id="Fill-92" class="cls-10" d="M315.55,175.35a28.86,28.86,0,0,1-4.62,12.31,26.45,26.45,0,0,1-4.22,5l-.71.63c-4-3.91-5.57-9.83-9.83-12-6.71-3.47-12.49.47-22.42-11.09s-6.25-29.38-6.25-29.38L248.57,129.6a3,3,0,0,1-1.33-3.59l4.07-12.16L261,83.15l55.42,27.17c.17,25.35.26,55.73-.84,65"/><path id="Fill-94" class="cls-1" d="M192.75,28.19,185.07,39c-1.12,1.58,1.48,3.08,2.58,1.52l7.69-10.86c1.11-1.57-1.48-3.07-2.59-1.51"/><path id="Fill-96" class="cls-1" d="M189,26.81l17.09,14.88c1.44,1.26,3.57-.85,2.11-2.12L191.16,24.69c-1.45-1.26-3.58.85-2.12,2.12"/><path id="Fill-98" class="cls-1" d="M200.31,43.76q-5,4.26-10.3,8.16c-1.53,1.13,0,3.73,1.51,2.59q5.61-4.12,10.91-8.63c1.47-1.25-.66-3.36-2.12-2.12"/><polygon id="Fill-100" class="cls-7" points="127.97 71.17 138.87 70.78 186.91 104.87 177.18 107.05 127.97 71.17"/><polygon id="Fill-102" class="cls-1" points="180.94 106.21 177.18 107.05 134.22 75.72 137.81 75.59 180.94 106.21"/><path id="Fill-104" class="cls-1" d="M137.14,72.32A16.15,16.15,0,0,1,136.3,75a1.5,1.5,0,0,0,2.89.8,16.43,16.43,0,0,0,.84-2.72A1.56,1.56,0,0,0,139,71.27a1.51,1.51,0,0,0-1.84,1"/><path id="Fill-106" class="cls-11" d="M132.21,71.47l10.88-42.12c.48-1.87-2.41-2.67-2.89-.8q-5.44,21.06-10.88,42.13c-.48,1.86,2.41,2.66,2.89.79"/><path id="Fill-108" class="cls-11" d="M184.37,105.16,240.87,74c1.69-.93.18-3.52-1.51-2.58l-56.5,31.14c-1.69.93-.18,3.52,1.51,2.59"/><path id="Fill-110" class="cls-11" d="M23.89,175C32,162.56,39,149.5,47,137c7.82-12.36,17.1-28.17,33-30.35,1.9-.26,1.09-3.15-.8-2.89C64.19,105.79,55,119.27,47.33,130.9c-9.18,13.88-16.93,28.63-26,42.56-1.06,1.62,1.53,3.12,2.58,1.51"/><path id="Fill-112" class="cls-11" d="M185.54,156c5.54,15.06-1.66,29.58-10.42,41.7-1.13,1.56,1.46,3.06,2.58,1.51,9.22-12.75,16.53-28.24,10.73-44-.66-1.79-3.56-1-2.89.8"/><path id="Fill-114" class="cls-11" d="M46.94,179.13a52.18,52.18,0,0,1,4.24-6.57c1.22-1.61.25-4.19-1.35-5.12-1.92-1.13-3.89-.28-5.12,1.34a52.18,52.18,0,0,0-4.24,6.57,3.75,3.75,0,0,0,6.47,3.78"/><path id="Fill-116" class="cls-11" d="M60.74,157.1a283.33,283.33,0,0,1,22.82-30.68c3.12-3.65-2.16-9-5.29-5.3a297.69,297.69,0,0,0-24,32.2c-2.61,4.06,3.87,7.82,6.47,3.78"/><path id="Fill-118" class="cls-12" d="M54.53,65.26v7.57a1.86,1.86,0,0,0,3.71,0V65.26a1.86,1.86,0,0,0-3.71,0"/><path id="Fill-120" class="cls-12" d="M47.55,78.05H40a1.86,1.86,0,0,0,0,3.71h7.58a1.86,1.86,0,0,0,0-3.71"/><path id="Fill-122" class="cls-12" d="M54.53,87v8.58a1.86,1.86,0,0,0,3.71,0V87a1.86,1.86,0,0,0-3.71,0"/><path id="Fill-124" class="cls-12" d="M64.14,81.76h7.57a1.86,1.86,0,0,0,0-3.71H64.14a1.86,1.86,0,0,0,0,3.71"/><path id="Fill-126" class="cls-12" d="M245.94,147.05v5a1.5,1.5,0,0,0,3,0v-5a1.5,1.5,0,0,0-3,0"/><path id="Fill-128" class="cls-12" d="M241.55,155.32H236.5a1.5,1.5,0,0,0,0,3h5.05a1.5,1.5,0,0,0,0-3"/><path id="Fill-130" class="cls-12" d="M245.94,161.53v5.73a1.5,1.5,0,0,0,3,0v-5.73a1.5,1.5,0,0,0-3,0"/><path id="Fill-132" class="cls-12" d="M252.61,158.32h5.05a1.5,1.5,0,0,0,0-3h-5.05a1.5,1.5,0,0,0,0,3"/><path id="Fill-134" class="cls-12" d="M264.58,34.72v5.05a1.5,1.5,0,0,0,3,0V34.72a1.5,1.5,0,0,0-3,0"/><path id="Fill-136" class="cls-12" d="M260.19,43h-5.05a1.5,1.5,0,0,0,0,3h5.05a1.5,1.5,0,0,0,0-3"/><path id="Fill-138" class="cls-12" d="M264.58,49.2v5.72a1.5,1.5,0,0,0,3,0V49.2a1.5,1.5,0,0,0-3,0"/><path id="Fill-140" class="cls-12" d="M271.25,46h5.05a1.5,1.5,0,0,0,0-3h-5.05a1.5,1.5,0,0,0,0,3"/><path id="Fill-142" class="cls-12" d="M168.62,165.58v3.27a1.5,1.5,0,0,0,3,0v-3.27a1.5,1.5,0,0,0-3,0"/><path id="Fill-144" class="cls-12" d="M166.31,170.4H163a1.5,1.5,0,0,0,0,3h3.27a1.5,1.5,0,0,0,0-3"/><path id="Fill-146" class="cls-12" d="M168.62,175v3.7a1.5,1.5,0,0,0,3,0V175a1.5,1.5,0,0,0-3,0"/><path id="Fill-148" class="cls-12" d="M173.47,173.4h3.27a1.5,1.5,0,0,0,0-3h-3.27a1.5,1.5,0,0,0,0,3"/><path id="Fill-150" class="cls-1" d="M252.75,114.25q4.51-14.32,9-28.66c.58-1.84-2.31-2.63-2.89-.79q-4.51,14.33-9,28.65c-.58,1.84,2.31,2.63,2.88.8"/><path id="Fill-152" class="cls-13" d="M270.32,136.35A102.71,102.71,0,0,1,278,111.84c.79-1.74-1.79-3.27-2.59-1.51a106.27,106.27,0,0,0-7.94,25.22c-.34,1.89,2.55,2.7,2.89.8"/><path id="Fill-154" class="cls-3" d="M167,32.82c14.08-2.6,25.69,13,21.6,26.16-.38,1.23,1.54,1.75,1.92.53C195.09,44.75,182,28,166.45,30.9c-1.27.23-.73,2.15.53,1.92"/><path id="Fill-156" class="cls-3" d="M123.07,166.15c-3.48-6.78-5.35-16.94,1.65-22.2,1.52-1.14,0-3.74-1.51-2.58-8.44,6.34-7.09,17.8-2.73,26.29.88,1.71,3.47.2,2.59-1.51"/><path id="Fill-158" class="cls-3" d="M124.53,174.22a9.93,9.93,0,0,0,3,2.13,1.54,1.54,0,0,0,2.05-.53,1.5,1.5,0,0,0-.54-2,7.38,7.38,0,0,1-2.37-1.67,1.5,1.5,0,0,0-2.11,2.12"/><path id="Fill-160" class="cls-3" d="M91.7,187.06c5.38-3,13.11,3.69,16.5,7.33,1.32,1.42,3.44-.71,2.12-2.12-4.5-4.82-13.27-11.64-20.13-7.79-1.68.94-.17,3.53,1.51,2.58"/></g></svg>