<svg id="Layer_1" data-name="Layer 1" xmlns="http://www.w3.org/2000/svg" xmlns:xlink="http://www.w3.org/1999/xlink" viewBox="0 0 300 200"><defs><style>.cls-1{fill:#fff;}.cls-1,.cls-10,.cls-11,.cls-12,.cls-13,.cls-14,.cls-16,.cls-2,.cls-3,.cls-4,.cls-5,.cls-6,.cls-7,.cls-8,.cls-9{fill-rule:evenodd;}.cls-3{fill:#f4831e;}.cls-4{fill:#a95631;}.cls-5{fill:#abdfed;}.cls-6{fill:#c46565;}.cls-7{fill:#ffe985;}.cls-8{fill:#00aa13;}.cls-9{fill:#007d00;}.cls-10{fill:#004758;}.cls-11{fill:#ffa4ad;}.cls-12{fill:#a2a3a3;}.cls-13{fill:#a5e8f4;}.cls-14{fill:#38cfe8;}.cls-15{mask:url(#mask);}.cls-16{fill:#ff405a;}</style><mask id="mask" x="216.43" y="138.34" width="16.02" height="62.11" maskUnits="userSpaceOnUse"><g id="mask-4"><polygon id="path-3" class="cls-1" points="216.43 138.34 232.44 138.34 232.44 200.45 216.43 200.45 216.43 138.34"/></g></mask></defs><title>Website Illustrations</title><polygon class="cls-2" points="126.61 158.91 185.5 123 161.41 191.4 126.61 158.91"/><path id="Fill-4" class="cls-2" d="M25.16,132.72a4.62,4.62,0,0,0-3.58,2.71,6.47,6.47,0,0,0-.3,4.68c1.47,4.5,6.27,5,7.81,4.11-1,2.2-2,5.95-1.45,7.75.88,2.7,4.88,5.32,7.22,5,.89-.11,1.33-3.25,2.13-3.65l7.87-4a.26.26,0,0,0,.15-.12c0-.06-19.08-16.9-19.08-16.9"/><path id="Fill-6" class="cls-2" d="M124.23,128.8a5.42,5.42,0,0,1,5.27,8.77,9.63,9.63,0,0,1-3.52,2.24c2.14,1.08,3.41,3.49,3.84,5.91a7.08,7.08,0,0,1,0,2.9,8.34,8.34,0,0,1-1.18,2.55,11.44,11.44,0,0,1-3.51,3.77,11.83,11.83,0,0,1-5.51,1.4c-.59,0-9-5.31-11.73-7.43-.14-.11,10.2-18.33,10.51-18.52,0,0,3.85-.85,5.22-1.1"/><path id="Fill-8" class="cls-3" d="M-4.84,201H-8.5c.11-2.11,3.44-24.27,19.36-33.2,17-9.52,35.92-22.15,35.92-22.15l62.76.58s19,14.46,31.06,21.27c20.07,11.34,22.59,29.32,22.9,32.87,0,0-.6,0-2.17.1-.86,0-2.06,0-3.51.06-3.7.06-7.46,0-7.46,0l-149.25.3a23.59,23.59,0,0,1-3.76.17"/><path id="Fill-10" class="cls-1" d="M68.14,189.08s1.25,6.39,5.35,6.61c5.36.29,5.3-3.76,5.3-3.76s2,3.44,5.84,2.61,2.69-5,2.69-5,2.87,3.69,5.94,1.81c3.45-2.1.44-6.62.44-6.62s3.94,2.54,6.25-.09-1.39-7-1.39-7,4.6,2.45,6.22-1.2-3.52-7-3.52-7,6,1.54,6.37-2.34c.44-4.41-6-5.76-6-5.76s-2.16,12.13-10,17.75-23.5,10-23.5,10"/><path id="Fill-10-2" data-name="Fill-10" class="cls-1" d="M58.11,147S52,145.46,50,149.2c-2.5,4.88,1.09,6.52,1.09,6.52a5.69,5.69,0,0,0-4.75,4.36c-.87,3.93,3.27,4.61,3.27,4.61s-4.45,1.13-4.09,4.78c.41,4.11,5.65,3.2,5.65,3.2s-3.89,2.61-2.53,5.87,6.75,1.64,6.75,1.64-4.09,3.27-1.55,6.31,7.68-.34,7.68-.34-3.87,4.94-.62,6.93c3.71,2.26,7.62-3.22,7.62-3.22s-9.8-7.1-11.48-16.74,1-26.15,1-26.15"/><path id="Fill-12" class="cls-4" d="M51.36,158.91S50,178.58,63.3,187.28c15.2,9.92,27.7,2.29,33.35-6.19s5.91-21.71,5.91-21.71Z"/><path id="Fill-14" class="cls-4" d="M38,130.86s-1.56-8.63-9.9-6.62c-4.22,1-3.2,18.53,3.71,21.69s10.51-.32,10.51-.32Z"/><path id="Fill-16" class="cls-4" d="M111.8,132.73s3-10,10.48-6.59c4.21,1.9,2.85,20.22-4.55,21.77s-9.6-3.42-9.6-3.42Z"/><path id="Fill-18" class="cls-4" d="M34.42,104.93s-5,38.73,18.68,57c24.7,19,49.37,7.75,56.83-11.7,7.84-20.43,9.95-44.46,9.95-44.46L73.34,95.5Z"/><path id="Fill-20" class="cls-1" d="M65.76,127.77s-10.3-.86-10.55,2.16,9.6,2.8,9.6,2.8,6.83.28,6.7-2.1c-.15-2.72-5.75-2.86-5.75-2.86"/><path id="Fill-22" class="cls-1" d="M92.83,127.35s-10.3-.86-10.55,2.16,9.25,2.82,9.25,2.82,7.18.26,7-2.12c-.15-2.72-5.75-2.86-5.75-2.86"/><path id="Fill-24" class="cls-2" d="M57.11,124c4.24-.56,12.7-1.71,12.52-7.63,0-1.74-2.71-1.79-2.66-.05.11,4-7.75,4.69-10.51,5.06-1.7.22-1,2.85.65,2.62"/><path id="Fill-24-2" data-name="Fill-24" class="cls-2" d="M96.75,124c1.69.23,2.35-2.4.66-2.62-2.77-.37-10.63-1.08-10.52-5.06,0-1.74-2.61-1.69-2.66.05-.17,5.92,8.29,7.07,12.52,7.63"/><path id="Fill-26" class="cls-2" d="M81.81,143.7c-.11,1.57-1.82,1.64-2.59.35-.5-.84-1.26-1.35-1.91-.53a1.9,1.9,0,0,1-1.62,1.12c-.92,0-.93-1.59-.68-2.39a12.33,12.33,0,0,1,.66-2c.65-1.88,1.31-3.76,2-5.63s-1.72-2.5-2.41-.51c-1.12,3.23-3.89,7.58-2.48,11.07,1.12,2.79,3,2.82,4.92,1.45,2.51,2,6.51,1.06,6.77-2.92.14-2.11-2.48-2.09-2.62,0"/><path id="Fill-28" class="cls-2" d="M75.63,156.68a9.08,9.08,0,0,1,6.32-.54c2,.55,2.59-1.92.6-2.47a10.84,10.84,0,0,0-8.12.81c-1.88.88-.66,3.07,1.2,2.2"/><path id="Fill-30" class="cls-2" d="M79,160.5a5.77,5.77,0,0,1,1.9,0,1.32,1.32,0,1,0,.35-2.57,9.26,9.26,0,0,0-2.92.17c-2,.38-1.35,2.8.67,2.41"/><path id="Fill-32" class="cls-5" d="M129,195.48c-1.68-2-5.76,2-5.76,2s.13-5.82-2-6.06-2.64,5.82-2.64,5.82-4.73-3.66-6-2.4c-1.86,1.89,1.41,3.94,2.84,4.71l11.93.07c1.06-.89,2.76-2.68,1.55-4.13"/><path id="Fill-34" class="cls-5" d="M133.34,165.27c2.94,2.6,3.23,2.53,3.23,2.53s-6.42.79-6.41,3,7.62.93,7.62.93-2.67,6-1.12,6.86,4.48-4.71,4.48-4.71,2.74,5.83,5.24,5.14-1.65-6.26-1.65-6.26,2.57,2.45,5.23,2.57a3.55,3.55,0,0,0,1.5-.25,59,59,0,0,0-10.69-7.62c-2.79-1.57-6-3.56-9.16-5.68a4.15,4.15,0,0,0,1.73,3.49"/><path id="Fill-36" class="cls-5" d="M21.78,197.7s6.28-4.7,5-5.92-7.15,2.41-7.15,2.41-.84-9.64-3.51-10-1.46,10.15-1.46,10.15S8.3,188.1,6.26,190,11,197.14,11,197.14a32.18,32.18,0,0,0-5.92.63c-1.45.41-1.79,1.27-1.87,1.77l25.9.19a3.63,3.63,0,0,0-2.25-1.48,45.76,45.76,0,0,0-5.11-.55"/><path id="Fill-38" class="cls-5" d="M15.74,167.59a20.79,20.79,0,0,0,5.36-2s-1.62,6.53.52,7.22,3.56-8,3.56-8,4.35,6.66,6.16,5.44-1.94-7.68-1.94-7.68,5.16,1.45,5.89,0-4.91-3-4.91-3,4.21-3.55,3.41-4.76a4.74,4.74,0,0,0-.4-.49c-6.25,3.93-13.9,8.62-21.27,12.79.45.41,1.47.93,3.62.45"/><path id="Fill-40" class="cls-2" d="M36.72,131.39s.49,7.7,2.84,7S41.73,126,41.73,126s2.17.44,4-3.46a11.27,11.27,0,0,0,.07-8.11s9.81.6,17.6-2.39A25.3,25.3,0,0,0,75,102.79c11,13.48,29.66,10.83,29.66,10.83s-2.32,3.9-.07,7.75a12.1,12.1,0,0,0,5.27,5.06s-2.07,9.6.77,10,3.07-3.21,3.07-3.21,1.87-7.25,6-6.62a5.45,5.45,0,0,1,4.76,4.25s7.11-4,5.75-10.93a10.41,10.41,0,0,0-7.44-8.22s2.85-6.24.47-10.3c-3.3-5.64-8.7-4.1-8.7-4.1s-.43-5.31-2.88-7-7.23.52-7.23.52-.14-4.81-3.83-6.51S91.5,86.4,91.5,86.4s-.45-7.3-4.77-8.29c-6.54-1.48-10,4.87-10,4.87s-4-6.24-11.3-4.89-7,8.66-7,8.66a11.28,11.28,0,0,0-11.28-2c-6.67,2.39-5.34,9.16-5.34,9.16s-5.48-2.75-10.07.94-1.05,10.4-1.05,10.4-6-.7-8.8,4.28,2.86,8.78,2.86,8.78-6.07.71-5.56,8.62c.37,5.82,6.73,7.42,6.73,7.42s-.44-9,5-8.94,5.87,6,5.87,6"/><path id="Fill-44" class="cls-2" d="M92.26,129.3a1.88,1.88,0,0,0-3.58,1.1,1.68,1.68,0,0,0,1.6,1.65,1.52,1.52,0,0,0,.57-.13,1.83,1.83,0,0,0,1.41-2.62"/><path id="Fill-46" class="cls-2" d="M61.63,128.77l0,0A1.66,1.66,0,0,0,61,130c-.18,2.27,2.76,3.43,3.76,1.22.88-1.93-1.73-4.31-3.16-2.44"/><path id="Fill-48" class="cls-6" d="M57.65,142.44s-7.63-.83-7.82,2.18,7.1,2.78,7.1,2.78,5.07.26,5-2.11c-.11-2.72-4.26-2.85-4.26-2.85"/><path id="Fill-68" class="cls-2" d="M109.3,148.5a37.83,37.83,0,0,1-7.65,12A26.38,26.38,0,0,1,91,167.66a35.59,35.59,0,0,1-12.77,1.27c-5.67-.3-12.36-1.17-17.45-3.52a3.32,3.32,0,0,0-1.91-.27c-.64.1-1.25.59-1.2,1.17.17,1.69,6.42,3.3,7.81,3.65a56.43,56.43,0,0,0,9.5,1.5,53.67,53.67,0,0,0,15.08-.67,25.05,25.05,0,0,0,7.37-3c3.36-2,5.61-5,8-8,2.58-3.23,5.21-6.36,6.73-10.29.66-1.7-2.27-2.62-2.92-.93"/><path id="Fill-50" class="cls-6" d="M101.42,141.56s-7.64-.83-7.82,2.18,6.84,2.8,6.84,2.8,5.33.24,5.24-2.14c-.11-2.72-4.26-2.84-4.26-2.84"/><path id="Fill-52" class="cls-7" d="M114.47,145.65a.92.92,0,0,1,1.06.35.9.9,0,0,1,.07,1,5.5,5.5,0,0,0-2.07,2.64c-.46,1.54-.12,3.38,1.23,3.58,2.76.42,3.16-1.49,2.91-3.21a4.27,4.27,0,0,0-1-2s.54-.08,1.07-.19a4,4,0,0,0,.88-.31,4.91,4.91,0,0,1,1.27,2.19c.64,2.38-.23,6.24-4.63,6-3.8-.23-5.12-3-4.13-6.57a5,5,0,0,1,3.29-3.53"/><path id="Fill-54" class="cls-7" d="M37.36,144.91a.92.92,0,0,0-1.06.35.89.89,0,0,0-.08,1A5.48,5.48,0,0,1,38.3,149c.46,1.53.12,3.37-1.24,3.58-2.75.41-3.16-1.5-2.9-3.22a5.45,5.45,0,0,1,1.19-2.25s-.56-.11-1.09-.25a8.84,8.84,0,0,1-.89-.27,6.48,6.48,0,0,0-1.48,2.5c-.65,2.39.22,6.25,4.63,6,3.8-.24,5.12-3,4.12-6.57a5,5,0,0,0-3.28-3.54"/><path id="Fill-56" class="cls-1" d="M105.32,58.55c-1.52,2.58,2.4,4.94,3.92,2.37,1.15-2,4.3-3.31,5.85-1.17,1.41,2,.89,5-.57,6.66-1,1.12-2.34,1.65-2.47,3.33a17.38,17.38,0,0,0,.8,4.06c.62,2.94,5,1.69,4.38-1.25-.15-.69-.3-1.38-.44-2.07,1.71-1.8,3.11-3.25,3.5-6.13a11,11,0,0,0-1.82-7.77c-3.45-4.75-10.53-2.47-13.15,2"/><path id="Fill-58" class="cls-1" d="M117.93,79.28a2.15,2.15,0,0,0-2.36.35,1.91,1.91,0,0,0-.49.53l0,.06-.06.1,0,.06a3.07,3.07,0,0,0-.25,2.82A2.59,2.59,0,0,0,118,84.63a2.76,2.76,0,0,0,1.58-2.79,2.92,2.92,0,0,0-1.68-2.56"/><path id="Fill-60" class="cls-1" d="M130.66,70.62c-2.63,1.31-.33,5.35,2.29,4,1-.52,3.11-.27,3.44,1.06.27,1.08-.65,2.61-1.37,3.26-1.18,1.06-2.87.42-4.07,1.41-1,.83-1.3,2.56-1.73,3.77-1,2.83,3.35,4,4.37,1.25.14-.4.28-.79.43-1.19,2-.48,3.54-.93,5-2.85a9.16,9.16,0,0,0,1.89-5.65c-.11-5.28-6.3-7.09-10.26-5.1"/><path id="Fill-62" class="cls-1" d="M131.28,89.82a2,2,0,0,0-1.47-1.07,1.24,1.24,0,0,0-.27,0h-.08a2.66,2.66,0,0,0-.84.11h0l-.23.08-.2.07c-2.25,1-2.09,4.74.49,5.1a2.58,2.58,0,0,0,2.65-1.39,2.79,2.79,0,0,0,.21-2.14,2.18,2.18,0,0,0-.25-.73"/><path id="Fill-64" class="cls-2" d="M117.82,133.5c1.65,2.12-.12,6.18-1.61,7.81-.77.85.47,2.13,1.24,1.28,2.27-2.49,3.92-7.4,1.61-10.36-.71-.91-1.94.38-1.24,1.27"/><path id="Fill-66" class="cls-2" d="M30.82,131.83a12.48,12.48,0,0,0-.41,5.29,8.56,8.56,0,0,0,2.48,4.12c.8.82,2-.45,1.24-1.28a6.83,6.83,0,0,1-2-3.32,10.6,10.6,0,0,1,.41-4.33c.25-1.13-1.44-1.61-1.69-.48"/><path id="Fill-108" class="cls-8" d="M145.5,199.22c35.26.15,70.45.16,105.06-.31"/><path id="Fill-108-2" data-name="Fill-108" class="cls-8" d="M254.9,204.34c12-.16,30.27,1.94,41.72-1.5s11.1-18.48,16.7-29.1c5.06-9.55,5.46-19.81,5.46-30.63,0-5.39.07-10.79.18-16.18C302,113.7,282.54,109.3,282.54,109.3l-67.26,4.39L185.5,123s-4,3-11,25c-7,28-13.59,41.05-16,53.22"/><path id="Fill-110" class="cls-9" d="M274.22,107.86s-14.71,31.4-37.86,34.36-25.61-17.6-25.61-17.6,33.2,13.8,51.94-21.23Z"/><path id="Fill-114" class="cls-2" d="M313.32,173.74c5.06-9.55,5.46-19.8,5.46-30.63q0-9.08.22-18.14c-3.89-2.39-8.7-5.25-12-6.83-2.23-1.06-14.49-5.94-14.49-5.94s-11.63,28-4.27,51.16c3.67,11.56,12.73,28.61,16,34,5.8-3.76,5.83-17.47,9.1-23.67"/><path id="Fill-118" class="cls-10" d="M206.25,68.89s-10.64,2-16.91-4.77.83-14.06,11.23-15.6Z"/><path id="Fill-120" class="cls-2" d="M286.34,89.65s14.17-30.33-5-52.24-57.69-21.07-72.82-3.13-12.38,33-2.31,34.61l59.09-3S257.39,85.1,262.9,98s22.07,5,23.44-8.38"/><path id="Fill-122" class="cls-9" d="M264,25.14c-9.42,1.48-19.42,7.17-25.27,22.71-14-1.94-29.34-.08-40.65,12-.89-6.39,2-15.55,10.45-25.61C219.91,20.82,244.41,17,264,25.14"/><path id="Fill-124" class="cls-8" d="M288.22,84.66a47.12,47.12,0,0,1-1.88,5,17.6,17.6,0,0,1-.49,2.66c-3.22-1.66-5.56-6.85-6.18-14a7.62,7.62,0,0,1,0-1.51c.16-1.63.75-3.13,1.56-3.69,1-.74,2,.4,2.23,2.53.45,5.11,2.29,8.61,4.76,9"/><path id="Fill-126" class="cls-8" d="M281.82,66.77a5.4,5.4,0,0,1-.84-3.91,9.3,9.3,0,0,1,.27-1.49c1.69-6,4.38-10.29,7.32-12a41.25,41.25,0,0,1,2.06,7.35c-2.42.15-4.8,3.2-6.14,8-.58,2.06-1.77,3-2.67,2.07"/><path id="Fill-128" class="cls-8" d="M289.81,78.91A1.85,1.85,0,0,1,289,79c-2.11-.2-3.47-4.06-3.05-8.62s2.49-8.1,4.6-7.9a2.05,2.05,0,0,1,.8.27,59.53,59.53,0,0,1-1.52,16.14"/><path id="Fill-130" class="cls-2" d="M229.77,22.29l-2.58,1.54s-22.42,9.82-19.47,33.59l-8.27,6.67C196.14,58,198,46.83,208.56,34.28c5-6,12.6-10,21.21-12"/><path id="Fill-132" class="cls-9" d="M283.84,40.52c-12.54-.41-14,26.76-14,26.76L237.53,51.4c5.62-18.24,16.39-24.67,26.5-26.26A46.54,46.54,0,0,1,281.39,37.4a36.79,36.79,0,0,1,2.45,3.12"/><path id="Fill-134" class="cls-2" d="M283.84,40.52c-12.54-.41-14,26.76-14,26.76L237.53,51.4c5.62-18.24,16.39-24.67,26.5-26.26A46.54,46.54,0,0,1,281.39,37.4a36.79,36.79,0,0,1,2.45,3.12"/><path id="Fill-136" class="cls-9" d="M283.32,97.78C278,105.56,267.14,108,262.9,98c-5.51-12.93,2.44-32.19,2.44-32.19l-59.1,3c-4.41-.71-7.43-4-8.13-9,27-28.93,77,.6,77,.6s-5.81,5.26-5.25,25.32c.39,13.91,8.5,13.52,13.47,12"/><path id="Fill-138" class="cls-11" d="M265.34,65.84s-4.17-10-29.72-8.2-29,7.13-29,7.13S204.7,81.59,203,95.49c-1.63,13.51-.34,33.86,19.4,30.8s30.32-9,40.63-26.14c0,0-4.84-11.6,2.29-34.31"/><path id="Fill-140" class="cls-2" d="M223.66,95.05a3.59,3.59,0,0,0,7.09-.66,1.25,1.25,0,0,0-1.25-1.24,1.28,1.28,0,0,0-1.24,1.24c0,.25.07-.31,0-.07,0,.06,0,.12-.05.19a.39.39,0,0,1-.06.18s.13-.28,0-.09a3,3,0,0,1-.18.3c-.12.2.18-.2,0,0l-.13.14-.15.14c-.16.14.25-.16.05,0a3.14,3.14,0,0,1-.31.18c-.18.1,0,0,.1,0a.6.6,0,0,1-.19.06l-.18,0c-.24,0,.31,0,.07,0H227c-.14,0,.34.06.07,0l-.16,0-.19-.06.15.06-.09,0c-.12-.06-.22-.16-.34-.21.07,0,.23.18.07,0l-.14-.14-.11-.12c-.16-.17.15.22,0,0s-.22-.3-.19-.35.12.33,0,.06a1.46,1.46,0,0,0,0-.2,1.24,1.24,0,0,0-1.52-.86,1.27,1.27,0,0,0-.87,1.52"/><path id="Fill-142" class="cls-2" d="M219,92.88a3.58,3.58,0,0,0,1.08,3.7,3.36,3.36,0,0,0,2.09.83,3.5,3.5,0,0,0,1.94-.5A3.61,3.61,0,0,0,225.69,95a1.22,1.22,0,0,0-.12-1,1.24,1.24,0,0,0-2.27.3c-.08.2.12-.23,0-.12s0,.09-.07.13l-.07.12c-.11.18.08-.08.08-.1s-.15.17-.19.21l-.11.09c-.08.08-.18.08.1-.07a1.94,1.94,0,0,1-.24.15c-.06,0-.32.16-.1.07s0,0,0,0l-.14,0-.3.07.33,0a2.57,2.57,0,0,1-.62,0l.33,0-.33-.07c-.11,0-.2-.13.09,0l-.15-.08-.15-.08c-.1-.07-.14-.17.07.06-.07-.08-.16-.15-.24-.24s-.14-.23.05.08a1.1,1.1,0,0,0-.09-.14s-.18-.25-.17-.3.13.33.05.09a.69.69,0,0,1-.05-.13,2.29,2.29,0,0,1-.07-.36c0,.11,0,.22,0,.33a2.62,2.62,0,0,1,0-.56l0,.33a1.8,1.8,0,0,1,.08-.39,1.24,1.24,0,0,0-.86-1.52,1.26,1.26,0,0,0-1.53.86"/><path id="Fill-144" class="cls-2" d="M224,78.08q-2.79,7.31-5,14.81a1.24,1.24,0,0,0,2.39.65q2.16-7.5,4.95-14.8a1.24,1.24,0,0,0-.87-1.52,1.27,1.27,0,0,0-1.52.86"/><path id="Fill-146" class="cls-2" d="M238.77,66.13c.63-.84,2.32-1.3,3.32-1.56a12.72,12.72,0,0,1,4.68-.3,11.21,11.21,0,0,1,7,3.51,2.22,2.22,0,1,0,3.14-3.14,15.87,15.87,0,0,0-10.49-4.84c-4-.32-9,.74-11.51,4.09a2.23,2.23,0,0,0,.79,3,2.27,2.27,0,0,0,3-.79"/><path id="Fill-148" class="cls-2" d="M221.8,63.62a11.82,11.82,0,0,0-9-2.81c-3.16.37-6.54,1.8-8.19,4.67a2.21,2.21,0,0,0,3.82,2.24c.06-.11.13-.21.19-.31s.11-.13,0,0c.19-.21.38-.42.59-.61,0,0,.33-.28.15-.14s.15-.1.18-.12a7.45,7.45,0,0,1,.71-.43l.38-.2c.11,0,.44-.2.15-.08a8,8,0,0,1,.82-.29,8.15,8.15,0,0,1,.85-.22l.42-.09c.41-.08-.08,0,.16,0a11.32,11.32,0,0,1,1.84,0l.27,0,.26,0c.32.06.64.14,1,.23a7.75,7.75,0,0,1,.81.28c-.34-.14.29.15.41.21a7.31,7.31,0,0,1,.76.46s.37.26.17.11.22.19.22.19a2.27,2.27,0,0,0,3.13,0,2.24,2.24,0,0,0,0-3.14"/><path id="Fill-150" class="cls-1" d="M251.4,76.21a4.49,4.49,0,0,1-2.4,2,10.66,10.66,0,0,1-3.12.61,29.5,29.5,0,0,1-6.3-.24,7.55,7.55,0,0,1-3.19-1,3.08,3.08,0,0,1-1.49-2.84,3.2,3.2,0,0,1,1.92-2.33,9.56,9.56,0,0,1,3.06-.65c1.68-.16,9.86-.71,11.38,1.42a2.94,2.94,0,0,1,.14,3"/><path id="Fill-152" class="cls-1" d="M222.58,76.53a4,4,0,0,1-2.09,1.94,8.87,8.87,0,0,1-2.79.65,26,26,0,0,1-5.65-.06,6.68,6.68,0,0,1-2.9-.88,2.64,2.64,0,0,1,.22-4.81,8.25,8.25,0,0,1,2.73-.69c1.51-.19,8.83-.91,10.26,1a2.82,2.82,0,0,1,.22,2.82"/><path id="Fill-154" class="cls-2" d="M239.7,78.89c3.59,0,3.6-5.58,0-5.58s-3.6,5.58,0,5.58"/><path id="Fill-156" class="cls-2" d="M212.53,79.7c3.59,0,3.6-5.58,0-5.58s-3.6,5.58,0,5.58"/><path id="Fill-158" class="cls-2" d="M265.34,65.84S257,83.47,257.79,97.89s13.57,20.2,24.75,11.42l15,4.15L286.34,89.65s-3.87,10.5-13.58,10.5-12-13.51-7.42-34.31"/><path id="Fill-160" class="cls-8" d="M224.05,132.68s-7-.62-9.37-6.58a32.93,32.93,0,0,0,12.5-.64Z"/><path id="Fill-162" class="cls-12" d="M266.35,94.7s-6.87,16.46-23,25.21c-2,1.11-3.57,2-4.67,2.59l-11.47,3a32.93,32.93,0,0,1-12.5.64c2.36,6,9.37,6.58,9.37,6.58s18.88.81,32.33-12.82,15-21.23,15-21.23-3.08.28-5-3.93"/><path id="Fill-116" class="cls-12" d="M297.31,113.83c-4.7-1.64-8.49-2.81-11.06-3.54-5.82,10.7-11,26.29-7.29,44.72,3.19,15.86,12.59,38.87,17.66,47.83,3.52-1.58,14.71-3.1,11.95-13-3.79-5.89-14.3-18.1-17.31-30-5.65-22.4,4.5-43,6.05-46"/><path id="Fill-164" class="cls-2" d="M204.49,64.19c-3.37,13.54-6.57,27.77-5.6,41.82.42,6.09,1.32,13,6.19,17.24a20.83,20.83,0,0,0,8.44,4.86,28.07,28.07,0,0,0,9.19.36,57.25,57.25,0,0,0,21.72-6.64c2.51-1.36.28-5.19-2.23-3.83a53.1,53.1,0,0,1-17.49,5.79,35.76,35.76,0,0,1-7.87.37,14.46,14.46,0,0,1-8-3.49c-4.62-3.62-5.28-9.75-5.61-15.26a91.91,91.91,0,0,1,1.14-19.25c1.07-7,2.64-13.92,4.35-20.8.69-2.76-3.59-4-4.28-1.17"/><path id="Fill-166" class="cls-13" d="M275.79,56.68s-18.26-33.4-56.08-39.38a13.7,13.7,0,0,0-7.69,1c-4.8,2.12-12.82,7.06-19,17.92-9.46,16.59-8,23-3.66,27.93,0,0-5.44-7,5.08-11.46s54.29-13.08,77.83,10.08c0,0-1.9,5.77.11,11.09s8.87,3,9.23-7.45-5.8-9.7-5.8-9.7"/><path id="Fill-168" class="cls-14" d="M234.76,21.37c-10.62,1.41-20.23,5.83-26.2,12.91-5.12,6.08-8.19,11.82-9.63,16.83a38.62,38.62,0,0,0-4.5,1.55c-10.2,4.35-5.42,11-5.1,11.44-4.37-5-5.78-11.34,3.67-27.91,6.2-10.86,14.22-15.8,19-17.92a13.7,13.7,0,0,1,7.69-1,72.75,72.75,0,0,1,15,4.08"/><g id="Group-172"><g class="cls-15"><path id="Fill-170" class="cls-9" d="M219.51,198.89c-1.45-9.5-.25-19.69,1.74-29,2.22-10.37,5.57-20.54,11-29.69a1.24,1.24,0,0,0-2.14-1.25c-5.66,9.52-9.15,20.15-11.4,30.94-2,9.6-3.09,19.93-1.6,29.68.24,1.57,2.63.9,2.39-.66"/></g></g><path id="Fill-173" class="cls-1" d="M261.79,153.44l-.29,0a2.3,2.3,0,0,0-.28-.06,12,12,0,0,0-7.84,22.14,2.14,2.14,0,0,0,.79.28,2.25,2.25,0,0,0,1.48-4.17,7.45,7.45,0,0,1,4.89-13.8,1.33,1.33,0,0,0,.28,0l.28.06a7.45,7.45,0,0,1,.52,14.62,2.26,2.26,0,0,0,.16,4.43,2.39,2.39,0,0,0,.84,0,12,12,0,0,0-.83-23.48"/><path class="cls-2" d="M126.54,158.16a75.93,75.93,0,0,1,11.51-13.49c2.28-2.21,4.61-4.38,7.09-6.37,7.88-6.34,17.1-10.84,26.57-14.43s19.22-6.32,28.83-9.49c2,1.62,4.77-.6,1,3.62-1.65,1.83-18.65,8.38-20.19,10.31a71.14,71.14,0,0,1-9.48,9.53,67.2,67.2,0,0,1-11.75,8.43c-10.5,5.66-23,7.24-33.58,12.73"/><path id="Fill-175" class="cls-1" d="M264.22,165.93a4.56,4.56,0,1,0-5.2,3.82,4.55,4.55,0,0,0,5.2-3.82"/><path id="Fill-177" class="cls-2" d="M282.23,110.52a190.31,190.31,0,0,1,35.34,15.73c2.09,1.19,4-2,1.88-3.21a195.27,195.27,0,0,0-36.23-16.11c-2.28-.75-3.26,2.84-1,3.59"/><path id="Fill-179" class="cls-2" d="M241.65,94.66a6.9,6.9,0,0,0,7.2,5.09,1,1,0,0,0,0-2,5.92,5.92,0,0,1-1,0l-.21,0c.17,0-.06,0-.09,0l-.5-.11-.44-.14s-.3-.12-.14,0l-.19-.09a6,6,0,0,1-.88-.52c-.06,0-.11-.08,0,0l-.19-.15-.34-.33c-.12-.12-.22-.24-.32-.36s.13.19-.05-.06l-.11-.16a6.18,6.18,0,0,1-.48-.83c0-.07-.05-.12,0,0a2.09,2.09,0,0,1-.08-.23c-.06-.16-.11-.33-.16-.5a1,1,0,1,0-2,.54"/><path id="Fill-181" class="cls-2" d="M243.89,97.06a10.42,10.42,0,0,1-4,3.52A45.7,45.7,0,0,1,222.7,106s1.77,8.93,7.59,10.1,15.34-4.86,16.28-17.61Z"/><path id="Fill-183" class="cls-16" d="M231.19,116.25c4.81.35,11.51-3.69,14.23-11.88a37.83,37.83,0,0,0-9.22,4.76,14.08,14.08,0,0,0-5,7.12"/><path id="Fill-185" class="cls-1" d="M225.66,105.6c1,3.87,5.8,5,11.37.65,4.25-3.31,5.15-6.15,5.4-7.43a15.17,15.17,0,0,1-2.52,1.76,45.17,45.17,0,0,1-14.25,5"/><path id="Fill-187" class="cls-2" d="M222.05,106.45c8,1.14,14.92-3.14,21.24-7.44,1.07-.73.06-2.49-1-1.75-5.76,3.92-12.35,8.27-19.67,7.23-1.28-.19-1.83,1.77-.54,2"/><path id="Fill-193" class="cls-12" d="M163.5,185c2-8,4-15,5-21,5-18,16-41,16-41,.51-1.16,5.41-2.63,6.54-3s9.28-3.5,9.71-2.28c.28.78.6.67,1.09,1.54,0,0-27.3,26.53-37.34,65.71"/><path class="cls-11" d="M5.32,172.28c1.22,1.34,4.62,6.13,6.69,6,4.6-.35-.56-8.92-1.52-10.33.66,1,2.48,1.91,3.44,2.63s1.87,1.48,2.82,2.19a2.17,2.17,0,0,0,2.09.44c3.35-1.53.87-7.52-1.24-8.93,1.48.94,2.83,2.13,4.24,3.17,1,.72,2.18,2.19,3.5,2,4.15-.47,2.13-7.45-.54-8.64,2,.76,3.86,2.6,5.92,3.1,1.17.28,1.57-.6,1.47-1.59-.43-4.1-4.94-6.79-9.07-6.66s-7.89,2.29-11.4,4.47a21.45,21.45,0,0,0-5.81,4.67,7.63,7.63,0,0,0-1.55,7"/><path d="M4.16,172.06a11.72,11.72,0,0,0,4.14,4.82c1.6,1.05,4,2,5.7.64,3.2-2.55.05-7.8-2.29-9.73l-1.21,1.57c2.45,1.83,5.18,6.65,8.88,4.5a4.39,4.39,0,0,0,2-4.58c-.28-1.68-1.44-3.21-2.31-4.65l-1.57,1.21c1.82,1.52,4,3.78,6.42,4.16A3.53,3.53,0,0,0,28,167.48c.58-2.16-.66-4-1.44-5.94l-1.83.77a6.19,6.19,0,0,0,4.75,3.1c1.91.29,4.13.2,4.28-2.17.09-1.29-1.91-1.28-2,0,0,.65-2.43.14-2.89,0a3.86,3.86,0,0,1-2.41-1.93c-.51-1-2.26-.29-1.83.77.57,1.38,1.69,2.92,1.51,4.48-.26,2.27-2.59,1.44-3.86.59a40.32,40.32,0,0,1-3.41-2.71c-.83-.7-2.2.18-1.58,1.21s1.15,1.81,1.64,2.74c.73,1.38.68,4-1.45,4-1.32,0-2.4-1.29-3.26-2.16a22.63,22.63,0,0,0-2.73-2.54c-.9-.68-2.08.85-1.21,1.57,1.34,1.09,4.45,5,2.49,6.69-1.13,1-3.23-.51-4.13-1.24a9.88,9.88,0,0,1-2.76-3.61c-.54-1.17-2.26-.16-1.73,1Z"/></svg>