<?xml version="1.0" encoding="UTF-8"?>
<svg width="294px" height="195px" viewBox="0 0 294 195" version="1.1" xmlns="http://www.w3.org/2000/svg" xmlns:xlink="http://www.w3.org/1999/xlink">
    <!-- Generator: Sketch 62 (91390) - https://sketch.com -->
    <title>Group 127</title>
    <desc>Created with Sketch.</desc>
    <defs>
        <polygon id="path-1" points="0.762022059 0.04 30.754131 0.04 30.754131 23.4518919 0.762022059 23.4518919"></polygon>
        <polyline id="path-3" points="0.391636364 3.346875 1.66254545 8.357625 12.0032727 5.567625 10.7323636 0.556875"></polyline>
        <polyline id="path-5" points="0.391636364 3.346875 1.66254545 8.357625 12.0032727 5.567625 10.7323636 0.556875"></polyline>
        <polyline id="path-7" points="0.391636364 3.346875 1.66254545 8.357625 12.0032727 5.567625 10.7323636 0.556875"></polyline>
    </defs>
    <g id="Page-1-Copy" stroke="none" stroke-width="1" fill="none" fill-rule="evenodd">
        <g id="Life@Gojek-Copy-9" transform="translate(-923.000000, -3032.000000)">
            <g id="Group-11" transform="translate(914.000000, 2801.000000)">
                <g id="Group-127">
                    <g>
                        <g transform="translate(9.000000, 231.000000)">
                            <g id="Group-114">
                                <path d="M189.434468,45.6371892 C189.853851,44.9388108 190.139204,44.1798919 190.358623,43.3982703 C190.525079,42.808 190.469954,41.8242162 191.118483,41.5582703 C191.417888,41.4339459 191.764851,41.3885405 191.99724,41.1636757 C192.187476,40.9798919 192.262057,40.7096216 192.312858,40.4512432 C192.575513,39.1128649 192.36474,37.675027 191.667571,36.5031351 C190.971483,35.3312432 189.781432,34.4458378 188.44438,34.1842162 C187.024101,33.9052973 185.567071,34.3117838 184.187865,34.7517838 C181.953682,35.4642162 179.750843,36.2739459 177.586917,37.1777297 C175.467307,38.0631351 173.448218,39.1398919 171.262674,39.8490811 C170.956785,39.9463784 170.508218,40.1961081 170.189358,40.1961081 C168.716115,40.6728649 166.814843,41.1842162 165.771792,42.4069189 C164.738468,43.6177297 164.095343,45.0955676 164.254233,46.7161081 C164.301792,47.2004324 164.427174,47.7971892 164.931946,47.9204324 C165.593446,48.0825946 166.393299,48.0382703 167.075336,48.0955676 C168.54966,48.2220541 170.022902,48.3485405 171.496145,48.4739459 C174.444792,48.7258378 177.391277,48.9788108 180.339924,49.2307027 C181.043579,49.2912432 181.76777,49.3496216 182.444402,49.1377297 C183.302623,48.8685405 183.354505,48.2825946 183.876571,47.7193514 C184.345674,47.2144865 185.043924,47.1734054 185.694615,46.9463784 C187.304049,46.3831351 188.814042,45.5215135 190.124071,44.408" id="Fill-1" fill="#03A94B"></path>
                                <path d="M188.435949,20.3553514 C188.435949,20.3553514 193.556089,25.4721081 195.656243,29.4094054 C197.756398,33.3488649 194.32892,32.8331892 187.116192,25.5023784 L188.435949,20.3553514 Z" id="Fill-3" fill="#006880"></path>
                                <g id="Group-7" transform="translate(158.889706, 0.000000)">
                                    <mask id="mask-2" fill="white">
                                        <use xlink:href="#path-1"></use>
                                    </mask>
                                    <g id="Clip-6"></g>
                                    <path d="M30.3695515,23.4518919 C30.3695515,23.4518919 33.0025809,10.8324324 24.4895515,4.08108108 C15.9754412,-2.67135135 4.50836029,-0.753513514 0.762022059,8.27567568 L30.3695515,23.4518919 Z" id="Fill-5" fill="#00ADD5" mask="url(#mask-2)"></path>
                                </g>
                                <path d="M174.93962,10.6825946 C174.807752,12.5096216 174.381885,14.0934054 174.381885,14.0934054 C174.381885,14.0934054 162.259789,12.8328649 163.871385,8.65448649 C163.968664,8.40583784 164.07351,8.17124324 164.190245,7.9507027 C169.054215,8.18205405 172.69787,9.54745946 174.93962,10.6825946" id="Fill-8" fill="#006880"></path>
                                <path d="M182.303131,37.8553514 C182.304212,37.8553514 188.433896,36.1223784 189.25969,23.4521081 C189.25969,23.4521081 187.895616,19.9407568 183.852035,17.2758919 C183.852035,17.2758919 182.663065,10.5656216 174.164087,11.9558919 C174.164087,11.9558919 171.206793,10.3104865 168.490535,10.196973 C168.922888,10.2153514 167.483153,8.24886486 167.284271,8.11481081 C166.577374,7.63805405 165.795896,7.57210811 164.985234,7.50832432 C162.928315,7.344 160.483359,7.45967568 158.787454,8.77102703 C158.34105,9.11589189 157.959499,9.53751351 157.607131,9.97859459 C156.451668,11.4304865 156.097138,13.3645405 155.009771,14.7526486 C153.993741,16.0499459 152.411329,16.1537297 150.887285,16.211027 C150.212815,16.2358919 149.44755,16.2250811 148.990337,15.7299459 C149.170844,17.6575135 149.933947,19.6542703 151.535815,20.7429189 C153.900785,22.3472432 156.609476,21.0175135 158.865278,22.4812973 C160.483359,23.5321081 162.090631,24.596973 163.703307,25.6553514 L177.199204,34.5072432 C177.846653,34.9321081 181.5303,38.0737297 182.303131,37.8553514" id="Fill-10" fill="#000000"></path>
                                <path d="M168.526096,47.5323243 C168.584464,47.8761081 168.673096,48.2198919 168.811449,48.5604324 C169.556177,50.395027 170.861883,51.675027 172.392413,52.8966486 C173.355479,53.6642162 174.374751,54.4339459 175.575611,54.7042162 C177.511471,55.1388108 179.545692,54.155027 180.893552,52.6988108 C182.416515,51.0555676 183.530905,48.635027 184.439927,46.6155676 C185.500273,44.2620541 184.207538,42.088 183.563332,39.808 C183.229339,38.6231351 181.645846,34.5528649 183.004515,33.5734054 C183.467133,33.2382703 184.629082,33.3539459 185.228971,33.0112432 C186.225545,32.4458378 186.869751,31.500973 187.171317,30.4047568 C188.159243,26.8155676 187.07728,21.4285405 182.141971,24.6566486 C182.141971,24.6566486 181.991729,29.3096216 180.419045,30.4339459 C178.847442,31.5604324 177.784935,29.8112432 178.100552,23.540973 C178.100552,23.540973 175.59831,22.8090811 175.225405,18.7766486 C175.225405,18.7766486 171.355846,16.6934054 163.203832,16.915027 C163.098986,16.9171892 162.174832,18.7225946 162.058096,18.8804324 C160.98478,20.3334054 159.114854,21.380973 157.394089,21.7625946 C157.183317,21.8101622 156.952008,21.8696216 156.827707,22.0469189 C156.713133,22.208 156.720699,22.420973 156.73367,22.6188108 C156.986596,26.4966486 157.73781,30.3420541 158.958126,34.0307027 C159.524508,35.7398919 160.205464,37.4404324 161.30256,38.8674595 C162.191045,40.0220541 163.384339,40.9982703 164.778677,41.460973 C165.887663,41.8285405 167.650582,42.1474595 168.094824,43.4090811 C168.560685,44.7366486 168.292626,46.1442162 168.526096,47.5323243" id="Fill-12" fill="#F6A7AD"></path>
                                <path d="M185.283015,26.6043243 C184.62692,26.6940541 184.448574,27.5956757 184.423714,28.1372973 C184.396692,28.7632432 184.495052,29.6378378 185.237618,29.7805405 C185.476493,29.827027 185.615927,30.1113514 185.555398,30.3340541 C185.488383,30.5848649 185.241942,30.6994595 185.001986,30.652973 C183.819501,30.4227027 183.464971,29.1135135 183.525501,28.0735135 C183.554685,27.532973 183.658449,26.9654054 183.972986,26.5113514 C184.289685,26.0562162 184.729604,25.7762162 185.277611,25.7016216 C185.519729,25.6691892 185.72942,25.9297297 185.731586,26.1502703 C185.732663,26.4205405 185.526214,26.5708108 185.283015,26.6043243" id="Fill-14" fill="#000000"></path>
                                <polygon id="Fill-16" fill="#F7A8AE" points="137.851844 158.658811 136.737454 165.000432 147.255521 167.259892 148.554741 159.846919"></polygon>
                                <path d="M135.828432,163.676757 C135.828432,163.676757 134.888065,168.405405 132.007513,170.567568 C129.125881,172.728649 123.677153,169.831351 119.321197,173.130811 C117.509638,174.502703 116.607101,177.296216 116.619934,178.854054 L145.518543,182.300541 L147.899726,165.894054 L135.828432,163.676757 Z" id="Fill-18" fill="#2D2D2D"></path>
                                <path d="M135.010312,167.656865 C136.045798,167.959568 137.097496,168.148757 138.170813,168.246054 C139.104695,168.330378 139.09821,166.869838 138.170813,166.786595 C137.227202,166.701189 136.307371,166.514162 135.398349,166.249297 C134.495812,165.984432 134.109938,167.393081 135.010312,167.656865" id="Fill-20" fill="#000000"></path>
                                <path d="M133.69196,170.684757 C134.527482,170.828541 135.363004,170.972324 136.199607,171.116108 C137.118357,171.273946 137.511799,169.867459 136.587644,169.708541 C135.751041,169.564757 134.9166,169.420973 134.078916,169.277189 C133.161247,169.11827 132.767806,170.525838 133.69196,170.684757" id="Fill-22" fill="#000000"></path>
                                <path d="M2.26444853,116.009946 C6.43125,115.699676 18.9067941,124.087784 45.7937426,124.985081 C72.6796103,125.882378 88.9382426,116.926703 88.9382426,116.926703 L132.978794,155.241297 C132.978794,155.241297 123.968559,164.276973 112.509044,170.288865 C99.5049485,177.110486 86.2900809,180.31373 81.9081838,177.281297 C77.5262868,174.245622 83.2236176,169.928865 87.6401029,164.711568 C90.2363824,161.645622 92.9850662,157.635892 92.9850662,157.635892 C92.9850662,157.635892 72.1510588,169.759135 63.9763456,166.212108 C60.9055588,164.879135 66.0019191,159.424 70.2433015,155.911568 C73.2568015,153.415351 76.4432426,150.151568 76.4432426,150.151568 C76.4432426,150.151568 49.5606176,159.636973 44.6101765,155.899676 C41.3934706,153.470486 48.4959485,150.870486 55.5076324,143.615351 C55.5076324,143.615351 50.3701985,146.708324 43.9443529,148.23373 C38.0935368,149.620757 30.9661985,149.500757 29.7502059,148.560216 C26.9712574,146.415351 36.8548456,138.45427 36.8548456,138.45427 C25.4666691,144.482378 11.6724485,141.880216 9.1875,138.881297 C7.47754412,136.820757 17.2800662,132.203459 17.2800662,132.203459 C17.2800662,132.203459 13.4969779,131.964541 6.50907353,128.011027 C-0.219419118,124.203459 -1.90343382,116.320216 2.26444853,116.009946" id="Fill-24" fill="#F37021"></path>
                                <path d="M82.9653949,109.806378 C82.9653949,109.806378 106.204365,142.718811 120.551998,153.645297 C149.855799,175.958811 180.943057,176.308 211.862777,160.940432 C257.407917,138.301514 266.104696,124.765297 266.104696,124.765297 L233.878189,92.3458378 C233.878189,92.3458378 192.987329,105.913405 160.286314,106.879892 C150.950733,107.156649 139.469601,104.288541 132.589785,101.639892 C121.428593,97.3404324 108.563932,85.5825946 108.563932,85.5825946 L82.9653949,109.806378 Z" id="Fill-26" fill="#F37021"></path>
                                <path d="M206.808788,100.564432 C215.797405,98.5060541 219.505913,96.6736216 224.633618,93.8228108 C231.104861,90.2228108 234.23942,88.6865946 240.203729,84.2984865 C248.256302,78.3763243 256.300229,72.3428108 263.130324,65.0444324 C278.061633,49.0909189 283.123405,42.639027 287.517192,46.1276757 C291.910979,49.6152432 280.865442,65.6465946 277.539567,70.3374054 C271.496354,78.8606486 265.45314,87.3860541 259.411008,95.9082162 C273.503552,87.0963243 277.27367,84.6044324 282.028471,81.2336216 C289.972957,75.599027 296.003199,83.2109189 291.387832,89.9957838 C284.168618,100.608757 279.443001,106.569838 268.160751,115.035784 C275.733412,112.315784 285.722927,106.822811 289.127707,109.205514 C292.930251,111.867135 290.940346,115.275784 289.231471,117.74173 C286.294714,121.978486 282.196008,125.146054 278.207552,128.413081 C281.943082,128.096324 286.284986,128.895243 289.987008,129.490919 C290.583655,129.586054 291.194354,129.699568 291.703449,130.024973 C292.933493,130.807676 293.150751,132.617405 292.541133,133.942811 C291.933677,135.268216 290.716604,136.201189 289.501692,137.006595 C285.281927,139.803351 280.500104,141.747135 275.525883,142.686595 C277.607663,143.143892 280.105582,143.517946 281.985236,144.525514 C284.830118,146.050919 284.101604,149.708216 281.256721,150.780649 C275.513993,152.943892 273.225765,152.866054 270.37656,153.388216 C271.752523,154.723351 273.164155,156.103892 273.935905,157.860649 C274.707655,159.615243 275.010302,162.231459 273.396545,163.269297 C266.919898,167.436865 251.698913,165.271459 242.427104,162.212 C243.912236,164.423892 245.414662,167.368757 243.902508,169.563351 C242.616258,171.432541 239.92378,171.512541 237.662574,171.303892 C216.466471,169.348216 196.206412,158.659568 182.624045,142.264973 C191.061413,130.582811 198.265493,118.009838 204.07956,104.823892" id="Fill-28" fill="#F37021"></path>
                                <path d="M189.793321,149.905622 C203.416763,159.580216 217.584968,170.09373 234.594814,172.084 C237.464557,172.420216 244.918321,173.296973 246.37427,169.572649 C247.483255,166.732649 243.558571,163.25373 241.75674,161.655892 C240.822858,160.827784 239.442571,162.198595 240.380777,163.032108 C241.062814,163.636432 241.726476,164.277514 242.332851,164.958595 C242.886263,165.581297 244.651343,167.378054 244.528123,168.261297 C244.317351,169.760757 241.776196,170.105622 240.713689,170.235351 C235.369807,170.889405 229.414145,169.534811 224.310218,168.03427 C218.304836,166.267784 212.861513,162.599676 207.561946,159.349946 C201.837593,155.839676 196.252674,152.11427 190.775843,148.224541 C189.752248,147.498054 188.779454,149.186703 189.793321,149.905622" id="Fill-30" fill="#000000"></path>
                                <path d="M79.8800162,108.99027 C79.8800162,108.99027 65.0459868,90.5383784 74.1167515,79.5059459 C80.4615309,71.787027 85.6757074,70.5816216 96.1321632,75.0356757 C104.747876,78.7048649 111.617965,90.2702703 126.535222,98.2627027 C139.610656,105.27027 149.23159,105.951351 154.562501,106.605405 C161.456369,107.450811 162.586972,111.699459 159.959347,114.709189 C157.754347,117.234595 151.786796,116.046486 151.786796,116.046486 C151.786796,116.046486 159.445928,119.761081 157.611671,122.940541 C154.743009,127.914595 144.539479,123.555676 144.539479,123.555676 C144.539479,123.555676 154.394965,129.593514 151.465774,134.147027 C148.538744,138.699459 132.753538,132.847568 132.753538,132.847568 C132.753538,132.847568 144.373024,140.355676 141.229818,145.595676 C138.087693,150.835676 122.462457,142.265946 122.462457,142.265946 C122.462457,142.265946 132.831362,151.914595 128.809399,155.749189 C124.787435,159.583784 107.75381,144.126486 100.025501,134.965405 C91.6789279,125.075676 79.8800162,108.99027 79.8800162,108.99027" id="Fill-32" fill="#E0D9D1"></path>
                                <path d="M86.3706066,82.2514595 C84.9168199,82.8774054 84.1785772,84.5260541 86.514364,85.7314595 C88.2437757,86.6244324 92.053886,87.3952432 94.1226949,86.6503784 C95.5289228,86.1455135 95.756989,84.3703784 94.0708125,83.5336216 C92.3619375,82.684973 87.8243934,81.6255135 86.3706066,82.2514595" id="Fill-34" fill="#FFFFFF"></path>
                                <path d="M74.059789,81.4322162 C73.0956419,81.8343784 72.0525904,83.5781622 74.3235243,84.6181622 C75.1720169,85.0073514 76.9619581,85.0300541 78.1433625,85.0722162 C79.9343846,85.1370811 81.7643184,85.0776216 82.0258919,83.4754595 C82.3393478,81.5619459 76.604186,80.3684324 74.059789,81.4322162" id="Fill-36" fill="#FFFFFF"></path>
                                <path d="M90.4914706,84.8665946 C90.7400735,85.4763243 90.4471544,86.1736216 89.8364559,86.4222703 C89.2246765,86.672 88.5285882,86.3768649 88.2789044,85.7682162 C88.0313824,85.1563243 88.3243015,84.4601081 88.935,84.2114595 C89.5467794,83.9617297 90.2428676,84.2557838 90.4914706,84.8665946" id="Fill-38" fill="#000000"></path>
                                <path d="M77.7658103,83.3843243 C77.9949574,83.9454054 77.7247368,84.5832432 77.1637588,84.8113514 C76.6049426,85.0405405 75.9650603,84.7702703 75.7369941,84.2102703 C75.5089279,83.6502703 75.7780676,83.0102703 76.3390456,82.7810811 C76.8978618,82.552973 77.5377441,82.8221622 77.7658103,83.3843243" id="Fill-40" fill="#000000"></path>
                                <path d="M53.0089566,62.8205405 C48.7038022,60.3394595 45.5054713,56.5772973 42.3655081,52.8043243 C41.5634934,51.8410811 40.1940154,53.2248649 40.9895449,54.1805405 C44.2386772,58.0854054 47.5731993,61.9362162 52.0264346,64.5016216 C53.1138022,65.1275676 54.0952434,63.4454054 53.0089566,62.8205405" id="Fill-42" fill="#FFFFFF"></path>
                                <path d="M74.5938529,55.2128649 C71.1469191,53.1815135 64.5459706,50.2485405 64.1428015,45.4096216 C64.0541691,44.3415135 64.2098162,43.5231351 64.5319191,42.9058378 C66.4504853,45.655027 69.2910441,47.680973 72.2894118,47.1134054 C77.1220368,46.1998919 74.2263529,41.9534054 71.5241471,40.3782703 C69.6034191,39.2593514 67.0903676,39.1652973 65.1382941,40.0107027 C64.330875,38.535027 63.8833897,36.895027 64.1125368,35.1901622 C64.2789926,33.9523243 62.3312426,33.9663784 62.1658676,35.1901622 C61.9302353,36.9425946 62.4512206,39.1101622 63.4650882,41.1252973 C62.5463382,42.0366486 61.9940074,43.308 62.1053382,44.9361081 C62.5247206,51.015027 69.1397206,54.2604324 73.6124118,56.8928649 C74.694375,57.5296216 75.6736544,55.8485405 74.5938529,55.2128649 M73.0200882,44.4593514 C72.4666765,47.0669189 68.0923456,43.6971892 67.1465735,42.7144865 C66.7942059,42.3501622 66.4656176,41.9566486 66.1532426,41.5501622 C68.8846324,40.6204324 73.3594853,42.8528649 73.0200882,44.4593514" id="Fill-44" fill="#FFFFFF"></path>
                                <path d="M97.1625684,58.871027 C100.076627,56.6256216 103.22848,54.7867027 106.615965,53.3531892 C107.766024,52.8656216 106.775936,51.1899459 105.634524,51.6721081 C102.245958,53.1056216 99.095186,54.9456216 96.1811272,57.1899459 C95.2029287,57.9434595 96.1703184,59.6353514 97.1625684,58.871027" id="Fill-46" fill="#FFFFFF"></path>
                                <path d="M136.312884,75.7491892 C135.247134,76.5167568 133.640943,76.4864865 132.371987,76.4486486 C132.822715,74.44 132.396847,72.3416216 130.576641,71.0940541 C127.363178,68.8940541 122.989928,72.5654054 125.563509,76.012973 C126.337421,77.0486486 127.76959,77.7816216 129.402803,78.1956757 C129.211487,78.4821622 129.000715,78.7459459 128.779134,78.9037838 C126.321207,80.6432432 124.973347,78.0475676 123.668722,76.5578378 C122.435435,75.1513514 121.412921,73.4681081 119.277097,73.7059459 C117.002921,73.9621622 115.528597,76.4572973 114.830347,78.3827027 C114.403399,79.5610811 116.284134,80.0702703 116.706759,78.8994595 C117.239634,77.4291892 117.897891,76.3254054 119.4522,76.1578378 C121.080009,75.9848649 121.610722,76.7124324 122.106847,77.4291892 C122.874274,78.532973 123.331487,79.2172973 124.295634,80.1762162 C125.624038,81.4951351 126.653038,82.2432432 128.55431,81.4291892 C129.79084,80.8994595 130.845781,79.8248649 131.563487,78.5437838 C133.769568,78.7189189 135.995104,78.3654054 137.294325,77.4302703 C138.302788,76.7059459 137.331075,75.0162162 136.312884,75.7491892 M127.807421,72.5232432 C129.783274,71.9113514 131.029531,73.8994595 130.616634,75.3308108 C130.569075,75.6745946 130.4772,76.0021622 130.358303,76.3264865 C129.893524,76.2616216 129.454685,76.1545946 129.133663,75.9762162 C127.008649,74.8918919 125.832649,73.132973 127.807421,72.5232432" id="Fill-48" fill="#FFFFFF"></path>
                                <path d="M70.3367978,117.015027 C70.3367978,117.015027 69.8806654,111.815027 73.9588346,105.631243 C76.9842243,101.039892 79.9750257,99.0171892 79.9750257,99.0171892 L88.4815699,99.0388108 L70.3367978,117.015027 Z" id="Fill-50" fill="#000000"></path>
                                <path d="M93.6275426,91.1956757 C93.6275426,91.1956757 83.2305353,85.4908108 73.4366603,88.0951351 C63.6449471,90.6994595 62.1490059,92.7383784 60.4163515,99.0162162 C58.8533956,104.685405 62.3695059,110.882162 62.3695059,110.882162 C62.3695059,110.882162 64.2707779,103.621622 72.8702779,101.28973 C81.4686971,98.9578378 86.2159324,99.7135135 86.2159324,99.7135135 C86.2159324,99.7135135 77.4597044,105.632432 73.8517191,110.091892 C70.2437338,114.551351 70.3356088,117.015135 70.3356088,117.015135 C70.3356088,117.015135 83.6153294,108.731892 91.5717044,107.201081 C94.9581088,106.548108 96.52755,102.244324 96.4162191,99.0162162 C96.2670574,94.6605405 93.6275426,91.1956757 93.6275426,91.1956757" id="Fill-52" fill="#EF8700"></path>
                                <path d="M35.7391588,137.80573 C28.7296368,140.424108 21.524475,141.380865 14.0761147,140.682486 C12.8298574,140.56573 12.8385044,142.512757 14.0761147,142.629514 C21.7147103,143.344108 29.0668721,142.366811 36.2558206,139.681405 C37.41885,139.248973 36.9162397,137.36573 35.7391588,137.80573" id="Fill-54" fill="#000000"></path>
                                <path d="M54.8276493,142.77827 C51.4574581,144.905838 48.049436,146.149081 44.1885243,147.000973 C41.3403993,147.631243 38.0220904,148.748 35.086414,148.624757 C33.8347522,148.571784 33.8358331,150.518811 35.086414,150.570703 C38.2047596,150.701514 41.701414,149.544757 44.7073478,148.880973 C48.7530904,147.983676 52.2778478,146.689622 55.8101713,144.459351 C56.8661934,143.792324 55.8901566,142.108 54.8276493,142.77827" id="Fill-56" fill="#000000"></path>
                                <path d="M76.0368309,149.148649 C67.5356912,152.877297 58.4465515,155.586486 49.1088088,155.77027 C47.8582279,155.795135 47.8539044,157.741081 49.1088088,157.717297 C58.8054044,157.524865 68.189625,154.702162 77.0193529,150.82973 C78.1640074,150.327027 77.175,148.65027 76.0368309,149.148649" id="Fill-58" fill="#000000"></path>
                                <path d="M240.810104,163.282919 C248.867001,166.555351 259.566655,167.481838 268.103464,166.162919 C270.81864,165.743459 274.827633,164.95427 276.029574,162.047243 C277.582802,158.294811 273.828898,154.517514 270.773243,153.107784 C269.643721,152.586703 268.653633,154.264541 269.790721,154.788865 C272.396729,155.991027 276.427339,160.15427 272.502655,162.905622 C271.461765,163.63427 269.811258,163.889405 268.587699,164.122919 C265.332082,164.747784 261.910008,164.709946 258.613317,164.551027 C252.866265,164.269946 246.706317,163.591027 241.327846,161.406162 C240.166979,160.934811 239.663287,162.815892 240.810104,163.282919" id="Fill-60" fill="#000000"></path>
                                <path d="M270.181893,154.722919 C274.287084,154.945622 278.203121,154.045081 281.771113,151.988865 C283.725349,150.861297 285.585547,149.467784 285.098069,146.946703 C284.296054,142.814811 278.658172,142.783459 275.411201,142.588865 C274.160621,142.51427 274.164944,144.460216 275.411201,144.535892 C277.555672,144.664541 281.057731,144.479676 282.634738,146.262378 C284.63329,148.527243 280.781025,150.432108 279.085121,151.21373 C276.270503,152.507784 273.255922,152.942378 270.181893,152.775892 C268.931312,152.708865 268.935635,154.655892 270.181893,154.722919" id="Fill-62" fill="#000000"></path>
                                <path d="M275.690826,144.360865 C281.953458,143.008432 291.284715,139.382486 293.379465,132.506811 C295.443951,125.72627 282.180443,127.330595 278.797282,128.039784 C277.572642,128.298162 278.090385,130.173838 279.315024,129.916541 C282.328524,129.285189 285.357157,129.116541 288.406326,129.64627 C289.527201,129.840865 291.551693,130.040865 291.625193,131.630054 C291.68248,132.837622 289.887135,134.739243 289.173752,135.483027 C285.53226,139.279784 280.211076,141.397622 275.173083,142.485189 C273.949524,142.748973 274.467267,144.62573 275.690826,144.360865" id="Fill-64" fill="#000000"></path>
                                <polygon id="Fill-66" fill="#000000" points="117.164188 151.235892 125.149747 161.978595 128.572901 159.200216"></polygon>
                                <polygon id="Fill-68" fill="#F7A8AE" points="174.534289 171.679243 176.89926 177.667351 187.046583 174.093297 184.279524 167.094378"></polygon>
                                <path d="M175.433691,177.015027 C175.433691,177.015027 177.104735,181.53827 175.778493,184.887459 C174.453331,188.23773 168.295544,188.617189 166.30564,193.706919 C165.478765,195.822595 166.170529,198.675568 166.995243,199.999892 L193.428221,187.822595 L186.882397,172.591243 L175.433691,177.015027 Z" id="Fill-70" fill="#2D2D2D"></path>
                                <path d="M176.809006,180.837838 C177.844491,180.557838 178.843226,180.170811 179.805212,179.694054 C180.647219,179.276757 179.907896,178.017297 179.069131,178.433514 C178.217396,178.855135 177.336476,179.181622 176.42205,179.431351 C175.516271,179.675676 175.898903,181.085405 176.809006,180.837838" id="Fill-72" fill="#000000"></path>
                                <path d="M177.267192,184.108541 C178.055155,183.793946 178.843118,183.479351 179.631082,183.164757 C179.998582,183.016649 180.248265,182.679351 180.140177,182.266378 C180.048302,181.91827 179.608383,181.610162 179.243045,181.756108 C178.455082,182.071784 177.667118,182.386378 176.880236,182.700973 C176.510574,182.848 176.26089,183.186378 176.37006,183.59827 C176.460854,183.947459 176.901854,184.255568 177.267192,184.108541" id="Fill-74" fill="#000000"></path>
                                <path d="M185.702074,103.176324 C185.702074,103.176324 165.258265,117.520108 162.576596,120.031459 C157.68236,124.610919 153.438816,129.443351 154.660213,139.750378 C155.879449,150.056324 168.930022,174.264973 168.930022,174.264973 L185.560478,166.495243 L175.891985,138.182811 C175.891985,138.182811 201.112213,120.208757 205.184978,112.497405 C209.258824,104.784973 204.405662,96.3298378 204.405662,96.3298378 L185.702074,103.176324 Z" id="Fill-76" fill="#000000"></path>
                                <path d="M162.869407,24.9140541 C162.869407,24.9140541 159.73809,24.8686486 159.174951,25.9994595 C158.611811,27.1313514 159.971561,27.4902703 162.183046,27.2016216 C165.348951,26.7908108 165.388943,24.9940541 162.869407,24.9140541" id="Fill-78" fill="#FFFFFF"></path>
                                <path d="M173.310946,24.0747027 C173.310946,24.0747027 170.514704,23.7287568 168.429682,24.7038919 C167.748726,25.0228108 167.678468,26.2238919 168.717196,26.4887568 C169.392748,26.6617297 171.09838,26.4952432 172.031182,26.3147027 C174.399395,25.8574054 174.623138,24.5006486 173.310946,24.0747027" id="Fill-80" fill="#FFFFFF"></path>
                                <path d="M167.323831,32.0181622 C167.230875,32.4041081 166.859051,32.5295135 166.548838,32.2819459 C166.291588,32.0765405 166.311044,31.7565405 166.341309,31.456 C166.402919,30.8516757 165.456066,30.856 165.394456,31.456 C165.319875,32.1835676 165.571721,32.8527568 166.241868,33.1987027 C167.067662,33.6257297 168.022081,33.1608649 168.236096,32.268973 C168.379853,31.6787027 167.467588,31.4257297 167.323831,32.0181622" id="Fill-82" fill="#000000"></path>
                                <path d="M166.341201,31.4565405 C166.386598,29.6835676 166.627635,27.9322162 166.71951,26.1646486 C166.750855,25.5570811 165.805083,25.5581622 165.773737,26.1646486 C165.681862,27.9322162 165.440826,29.6835676 165.395429,31.4565405 C165.380296,32.0641081 166.324988,32.0641081 166.341201,31.4565405" id="Fill-84" fill="#000000"></path>
                                <path d="M167.372471,32.3823784 C167.773478,33.1780541 168.506316,33.7272432 169.440199,33.5348108 C170.182765,33.3834595 170.791301,32.7326486 170.801029,31.9596757 C170.810757,31.3521081 169.863904,31.351027 169.856338,31.9596757 C169.850934,32.3131892 169.518022,32.5823784 169.188353,32.6245405 C168.666287,32.6894054 168.394985,32.3153514 168.188537,31.9056216 C167.913993,31.3618378 167.097926,31.8396757 167.372471,32.3823784" id="Fill-86" fill="#000000"></path>
                                <path d="M161.120431,25.7322162 C160.207085,25.7322162 160.204924,27.1505946 161.120431,27.1505946 C162.033776,27.1505946 162.035938,25.7322162 161.120431,25.7322162" id="Fill-88" fill="#000000"></path>
                                <path d="M171.019368,25.4260541 C171.018287,25.4184865 171.015044,25.4130811 171.011801,25.4065946 C170.868044,25.0476757 170.541618,24.8055135 170.14061,24.9114595 C169.801213,25.0001081 169.501809,25.4292973 169.644485,25.7838919 C169.645566,25.7903784 169.648809,25.7968649 169.650971,25.8033514 C169.795809,26.1611892 170.123316,26.4044324 170.524324,26.2984865 C170.86264,26.2098378 171.163125,25.7806486 171.019368,25.4260541" id="Fill-90" fill="#000000"></path>
                                <line x1="153.542581" y1="17.9957838" x2="153.675529" y2="17.5168649" id="Fill-92" fill="#000000"></line>
                                <path d="M144.881795,24.6236757 C144.881795,24.6236757 148.052023,20.7436757 149.692802,19.5912432 C150.334846,19.1415135 152.219905,18.1544865 152.900861,17.9036757 C157.247089,16.2982703 161.311207,14.2712432 162.18564,15.5620541 C162.634207,16.2247568 162.57692,17.3771892 160.949111,18.1447568 C159.616383,18.7739459 156.01164,20.0971892 155.182604,21.7501622 C154.354648,23.4020541 151.126052,30.4388108 151.126052,30.4388108 L144.881795,24.6236757 Z" id="Fill-94" fill="#F4929B"></path>
                                <path d="M159.924435,65.9993514 C159.924435,65.9993514 157.718354,95.1463784 158.529015,100.921514 C159.069457,104.776649 161.700324,106.85773 161.700324,106.85773 C161.700324,106.85773 173.057155,111.599351 185.197626,110.233946 C199.295574,108.649081 207.24114,102.904216 207.24114,102.904216 C207.24114,102.904216 208.19556,100.125838 205.994883,91.4490811 C204.915082,87.1917838 199.766839,61.8317838 199.766839,61.8317838 L212.750398,68.4220541 C212.750398,68.4220541 211.267427,74.9171892 209.471001,80.4631351 C207.656199,86.0652973 205.791677,91.4036757 205.791677,91.4036757 C205.791677,91.4036757 208.849493,93.4793514 212.105111,94.2501622 C215.359648,95.0188108 217.148508,94.9463784 217.148508,94.9463784 C217.148508,94.9463784 230.058567,68.8825946 227.136942,62.9128649 C222.992839,54.4425946 207.869133,46.288 200.984993,42.9755676 C197.609398,41.3517838 193.74092,41.0285405 190.056192,41.4242162 C187.857677,41.6598919 184.832288,41.8782703 183.591435,43.9431351 C181.40589,47.5777297 179.856986,51.7507027 176.64028,54.5139459 C174.836287,53.0728649 173.06256,51.5939459 171.322339,50.0771892 C169.675074,48.6425946 168.889273,47.7863784 166.795604,47.420973 C166.075736,47.2944865 165.101861,46.9701622 165.101861,46.9701622 C163.430817,46.8912432 144.94989,43.6220541 144.94989,43.6220541 L151.581104,30.2490811 C151.581104,30.2490811 150.754229,28.3117838 148.450868,26.2242162 C146.60364,24.5507027 143.78578,23.4944865 143.78578,23.4944865 C143.78578,23.4944865 131.099464,36.1269189 128.163788,42.0058378 C125.830163,46.6804324 124.498515,53.6339459 137.884163,58.9388108 C151.521655,64.3420541 159.924435,65.9993514 159.924435,65.9993514" id="Fill-96" fill="#00ADD5"></path>
                                <path d="M142.943881,27.3422703 C145.127263,28.272 146.817763,29.8860541 148.201293,31.7844324 C148.7493,32.5357838 150.017175,31.8092973 149.461601,31.0482162 C147.935396,28.9552432 146.096815,27.1098378 143.681043,26.0817297 C142.826065,25.7184865 142.081337,26.9757838 142.943881,27.3422703" id="Fill-98" fill="#006880"></path>
                                <path d="M208.586299,89.4537297 C211.157718,90.8742703 213.976659,91.7542703 216.839916,92.3683243 C217.755424,92.5650811 218.146703,91.1575135 217.227953,90.9618378 C214.486835,90.3726486 211.786791,89.5553514 209.32346,88.1931892 C208.500909,87.7380541 207.763747,88.9985946 208.586299,89.4537297" id="Fill-100" fill="#006880"></path>
                                <path d="M206.278939,91.4036757 C206.278939,91.4036757 202.99738,94.4652973 204.571145,97.6901622 C206.14491,100.916108 214.881682,104.535568 216.868343,104.364757 C218.855005,104.195027 218.31024,101.503135 214.89141,100.255568 C212.076792,99.2274595 211.53527,97.8025946 211.53527,97.8025946 C211.53527,97.8025946 216.818623,95.6663784 216.732152,94.9171892 C216.732152,94.9171892 214.139115,94.8534054 211.105079,93.8112432 C208.410439,92.8836757 206.278939,91.4036757 206.278939,91.4036757" id="Fill-102" fill="#F4929B"></path>
                                <path d="M155.761416,21.4343784 C155.947328,27.4624865 156.348335,33.8538378 160.467578,38.6397838 C163.978284,42.7154595 170.219299,44.5500541 175.05949,41.7219459 C175.959865,41.1943784 175.143799,39.7922162 174.240181,40.3208649 C169.785865,42.9251892 164.177166,40.8387027 161.205821,36.9911351 C157.785909,32.563027 157.547034,26.7954595 157.38274,21.4343784 C157.351394,20.3932973 155.730071,20.388973 155.761416,21.4343784" id="Fill-104" fill="#000000"></path>
                                <path d="M87.8072074,77.6916757 C90.3397147,77.2505946 93.0278691,77.6419459 95.3355529,78.7695135 C95.8597809,79.0246486 96.5050676,78.9122162 96.8142,78.3814054 C97.0930676,77.9057297 96.9536338,77.1597838 96.4272441,76.9024865 C93.5564206,75.5003243 90.3775456,75.0581622 87.2321779,75.6062703 C86.6571485,75.7068108 86.3339647,76.4116757 86.4777221,76.9370811 C86.6452588,77.5435676 87.2300162,77.7922162 87.8072074,77.6916757" id="Fill-106" fill="#000000"></path>
                                <path d="M74.112536,77.9841081 C75.0583081,77.383027 76.1770213,77.0705946 77.2427713,77.0078919 C77.5443375,76.9895135 77.8459037,76.983027 78.1474699,76.9938378 C78.2609625,76.9981622 78.3733743,77.0046486 78.4868669,77.0143784 C78.5625287,77.0197838 78.6381904,77.0273514 78.7127713,77.0370811 C78.6122493,77.023027 78.6295434,77.0273514 78.761411,77.048973 C79.0164993,77.1041081 79.2737493,77.156 79.5158669,77.2576216 C79.367786,77.196 79.7158301,77.3700541 79.7504184,77.3905946 C79.8131096,77.4295135 79.873639,77.4695135 79.9330875,77.5127568 C79.8574257,77.4608649 79.8693154,77.4749189 79.9687566,77.5570811 C80.3989478,77.9527568 81.0712566,77.9841081 81.4982051,77.5570811 C81.8970507,77.1581622 81.9294772,76.4251892 81.4982051,76.0284324 C80.3730066,75.0003243 78.8413963,74.7678919 77.3670728,74.8381622 C75.8419478,74.9105946 74.3189846,75.2932973 73.0219257,76.1170811 C72.5290434,76.4305946 72.3323228,77.0792432 72.633889,77.5970811 C72.9203228,78.0878919 73.6185728,78.2987027 74.112536,77.9841081" id="Fill-108" fill="#000000"></path>
                                <path d="M168.407956,21.3699459 C168.752757,21.3558919 169.099721,21.3645405 169.443441,21.3991351 C169.468301,21.4023784 169.698529,21.4337297 169.50289,21.4045405 C169.594765,21.4175135 169.685559,21.4326486 169.776353,21.4477838 C169.934162,21.4780541 170.093051,21.5115676 170.248699,21.5504865 C170.562154,21.6294054 170.866963,21.7342703 171.16961,21.8477838 C171.256081,21.8845405 171.255,21.8834595 171.167449,21.8456216 C171.209603,21.8650811 171.251757,21.8834595 171.293912,21.9029189 C171.356603,21.9321081 171.419294,21.9612973 171.480904,21.9915676 C171.646279,22.0726486 171.808412,22.1612973 171.967301,22.2542703 C172.333721,22.4704865 172.872,22.3504865 173.076287,21.9645405 C173.282735,21.5742703 173.175728,21.0845405 172.785529,20.8542703 C171.470096,20.0823784 169.934162,19.6877838 168.407956,19.7483243 C167.98425,19.7645405 167.576757,20.1083243 167.597294,20.5591351 C167.61675,20.984 167.953985,21.3872432 168.407956,21.3699459" id="Fill-110" fill="#000000"></path>
                                <path d="M159.554989,24.0378378 C159.627408,23.8864865 159.710636,23.7405405 159.805754,23.6021622 C159.817643,23.5848649 159.895467,23.4745946 159.830614,23.5643243 C159.765761,23.652973 159.846827,23.547027 159.859798,23.5297297 C159.91168,23.4702703 159.964643,23.4118919 160.020849,23.3556757 C160.08246,23.292973 160.150555,23.2345946 160.215408,23.1740541 C160.30404,23.0940541 160.199195,23.1643243 160.191629,23.1902703 C160.198114,23.1686486 160.277018,23.1275676 160.295393,23.1145946 C160.456445,23.0054054 160.626143,22.9091892 160.796923,22.8162162 C161.130915,22.6345946 161.471393,22.467027 161.819437,22.3113514 C161.861592,22.292973 161.903746,22.2745946 161.945901,22.2562162 C162.01832,22.2227027 162.011835,22.2259459 161.942658,22.2562162 C162.028048,22.2194595 162.112357,22.1848649 162.198827,22.1513514 C162.391224,22.0756757 162.585783,22.0021622 162.781423,21.9340541 C163.180268,21.7935135 163.489401,21.372973 163.347805,20.9362162 C163.220261,20.5427027 162.77818,20.2194595 162.350151,20.3697297 C161.513548,20.6648649 160.69532,21.0216216 159.918165,21.4486486 C159.170195,21.8605405 158.530313,22.4410811 158.155246,23.2194595 C157.971496,23.6021622 158.03743,24.1135135 158.446004,24.3297297 C158.80918,24.52 159.358268,24.4464865 159.554989,24.0378378" id="Fill-112" fill="#000000"></path>
                            </g>
                            <g id="Group-124" transform="translate(165.000000, 32.000000)">
                                <g id="Group-117">
                                    <mask id="mask-4" fill="white">
                                        <use xlink:href="#path-3"></use>
                                    </mask>
                                    <g id="Clip-116"></g>
                                    <path d="M1.02098182,5.2619625 C2.12825455,5.8312125 3.49407273,5.7063375 4.6788,5.5207125 C5.86461818,5.3350875 7.04389091,4.9064625 8.00825455,4.1549625 C8.54170909,3.7398375 8.9988,3.2549625 9.36752727,2.6778375 C9.51043636,2.4550875 9.41116364,2.1310875 9.19516364,2.0005875 C8.96061818,1.8599625 8.68025455,1.9544625 8.53843636,2.1783375 C8.00825455,3.0074625 7.21734545,3.6172125 6.31516364,4.0289625 C5.33225455,4.4789625 4.17589091,4.6510875 3.08389091,4.6690875 C2.53516364,4.6780875 1.97989091,4.6499625 1.50643636,4.4069625 C1.27407273,4.2877125 0.987163636,4.3428375 0.849709091,4.5835875 C0.725345455,4.8040875 0.787527273,5.1427125 1.02098182,5.2619625" id="Fill-115" fill="#000000" mask="url(#mask-4)"></path>
                                </g>
                                <g id="Group-120">
                                    <mask id="mask-6" fill="white">
                                        <use xlink:href="#path-5"></use>
                                    </mask>
                                    <g id="Clip-119"></g>
                                    <path d="M7.79116364,2.0023875 C8.0628,2.5097625 8.54389091,2.8832625 9.08389091,3.0430125 C9.37298182,3.1285125 9.66970909,3.1420125 9.96643636,3.1003875 C10.2609818,3.0598875 10.5358909,2.9338875 10.8118909,2.8281375 C11.0464364,2.7392625 11.2373455,2.4962625 11.1544364,2.2240125 C11.0846182,1.9877625 10.8206182,1.7740125 10.5686182,1.8707625 C10.3177091,1.9652625 10.0657091,2.0822625 9.8028,2.1295125 C9.7548,2.1373875 9.72098182,2.1171375 9.81916364,2.1283875 C9.79952727,2.1261375 9.77552727,2.1317625 9.75589091,2.1328875 C9.70243636,2.1362625 9.64898182,2.1362625 9.59661818,2.1340125 C9.57043636,2.1328875 9.54316364,2.1306375 9.51698182,2.1272625 C9.4188,2.1182625 9.51807273,2.1430125 9.53007273,2.1306375 C9.51589091,2.1441375 9.3948,2.1025125 9.37298182,2.0968875 C9.32607273,2.0833875 9.28025455,2.0698875 9.23552727,2.0530125 C9.21807273,2.0462625 9.17443636,2.0383875 9.16134545,2.0237625 C9.18425455,2.0518875 9.24316364,2.0620125 9.17225455,2.0260125 C9.12425455,2.0012625 9.07734545,1.9753875 9.03152727,1.9461375 C8.99443636,1.9236375 8.9508,1.8775125 8.91043636,1.8640125 C8.98243636,1.8865125 8.9628,1.9067625 8.92025455,1.8707625 C8.90061818,1.8527625 8.87989091,1.8358875 8.86025455,1.8167625 C8.82098182,1.7796375 8.78389091,1.7402625 8.74898182,1.6986375 C8.73589091,1.6851375 8.7228,1.6592625 8.70752727,1.6502625 C8.77298182,1.6952625 8.7468,1.7053875 8.71625455,1.6592625 C8.68134545,1.6097625 8.65189091,1.5580125 8.62352727,1.5051375 C8.50134545,1.2778875 8.18170909,1.1822625 7.9668,1.3240125 C7.74316364,1.4713875 7.66134545,1.7582625 7.79116364,2.0023875" id="Fill-118" fill="#000000" mask="url(#mask-6)"></path>
                                </g>
                                <g id="Group-123">
                                    <mask id="mask-8" fill="white">
                                        <use xlink:href="#path-7"></use>
                                    </mask>
                                    <g id="Clip-122"></g>
                                    <path d="M3.79832727,7.4383875 C4.46596364,7.5835125 5.12814545,7.4406375 5.77178182,7.2437625 C6.40232727,7.0502625 7.02632727,6.7926375 7.55323636,6.3808875 C7.76050909,6.2188875 7.8696,5.9556375 7.72887273,5.7036375 C7.61105455,5.4932625 7.27941818,5.3593875 7.07214545,5.5225125 C6.61723636,5.8768875 6.12523636,6.0985125 5.58850909,6.2661375 C5.09105455,6.4225125 4.55323636,6.5912625 4.05687273,6.4843875 C3.80378182,6.4303875 3.53869091,6.5586375 3.46450909,6.8275125 C3.39905455,7.0727625 3.54305455,7.3832625 3.79832727,7.4383875" id="Fill-121" fill="#000000" mask="url(#mask-8)"></path>
                                </g>
                            </g>
                            <path d="M175.87159,54.2395768 C177.381697,51.9829144 178.891805,49.7273145 180.401912,47.4706521 C181.025511,46.5558751 181.631727,45.6294111 182.341151,44.7751942 C183.174427,43.7722332 183.633977,43.582053 183.579657,42.2592919 C183.559015,41.7578114 183.544892,41.2297694 183.782815,40.7867241 C184.013134,40.3585532 184.445524,40.0727518 184.872483,39.8273238 C185.581908,39.4172147 186.351085,39.0581037 187.172409,39.0060432 C188.061091,38.9497329 188.949773,39.2907821 189.607051,39.8687597 C190.076379,40.2820561 191.054146,40.8834078 190.997653,41.5697562 C190.971579,41.8863689 190.795581,42.1721703 190.625015,42.4420348 C188.347903,46.0533321 186.027335,49.6433802 183.87516,53.3269247 C181.937007,56.643921 179.804388,59.9577298 176.771136,62.4300713 C175.875935,63.1599805 175.107844,63.2651639 174.404938,62.2940766 C172.372268,59.4828107 170.339598,56.6704824 168.305842,53.8592166 C167.279186,52.4376467 166.251443,51.0160769 165.222615,49.5934447 C164.847804,49.0749648 164.063417,48.3312437 164.004751,47.7086428 C163.946085,47.0786048 164.441487,46.3040724 164.896692,45.9067128 C165.800584,45.1215558 167.161854,45.0663079 168.117893,45.7940922 C168.480753,46.0713939 168.77517,46.4251927 169.064155,46.7747416 C171.121812,49.2608951 172.811177,52.7468222 175.87159,54.2395768" id="Fill-125" fill="#03A94B"></path>
                        </g>
                    </g>
                </g>
            </g>
        </g>
    </g>
</svg>