<svg id="Layer_1" data-name="Layer 1" xmlns="http://www.w3.org/2000/svg" xmlns:xlink="http://www.w3.org/1999/xlink" viewBox="0 0 300 200"><defs><style>.cls-1{fill:#fff;}.cls-1,.cls-2,.cls-3,.cls-4,.cls-5{fill-rule:evenodd;}.cls-2{fill:#ea9aa1;}.cls-4{fill:#f25a00;}.cls-5{fill:#00a0cb;}.cls-6{mask:url(#mask);}</style><mask id="mask" x="31.29" y="167.57" width="63.88" height="43.8" maskUnits="userSpaceOnUse"><g id="mask-4"><polygon id="path-3" class="cls-1" points="31.83 167.57 91.26 167.57 91.26 199.75 31.83 199.75 31.83 167.57"/></g></mask></defs><title>Website Illustrations</title><g id="pay_spot_hero_spot_hero_topup_method_onboarding" data-name="pay/spot_hero/spot_hero_topup_method_onboarding"><path id="Fill-50" class="cls-2" d="M225.52,172.44,231,153.06s-6.75-4.8-12.09-21.38a77.1,77.1,0,0,1-10.29-11.79c-4.18-6.2-1.48-10.78,2.15-10.24s8.63,10.64,15.77,13.2c0,0-4.85-8.84-9-13.25s-8.76-6.15-10.24-12.08,4.72-10.36,8.49-5.38,8.76,8.64,12,11.32,8.09,10.5,10.38,8.61-1.89-13.47-3.91-16.84-11-15.58-10.91-22.68,6.33-9.66,9.56-4.81,8.23,14.15,10.92,17.65a76.77,76.77,0,0,1,10,16.44V96.17s-3.91-9.84-6.2-15.23S240.46,66.39,245.18,63s9-3.23,13.2,8.9,6.88,15.63,8.49,20.61,1.22,14.69,1.22,14.69,6.33-14.14,12.12-13.13,9,4.24,3.24,14.88-6.34,19.81-9.7,26a100.6,100.6,0,0,1-7,11.05l-.41,24.53Z"/><path id="Fill-52" class="cls-3" d="M251.85,132.34c2.27-5.54,6.13-12,12.73-12.64a1.23,1.23,0,0,0,1.19-1.19,1.2,1.2,0,0,0-1.19-1.18,15.11,15.11,0,0,0-9.29,4.77,30.24,30.24,0,0,0-5.72,9.61,1.18,1.18,0,0,0,2.28.63"/><path id="Fill-54" class="cls-3" d="M266.13,118.19a67.62,67.62,0,0,1,3.14-9.92,1.2,1.2,0,0,0-.83-1.46,1.22,1.22,0,0,0-1.45.83,67.24,67.24,0,0,0-3.14,9.92,1.18,1.18,0,0,0,2.28.63"/><path id="Fill-56" class="cls-3" d="M225.66,129.24c6.64-9.54,15.24-19.6,27.54-21.08,1.49-.18,1.51-2.55,0-2.37-13.26,1.6-22.38,11.91-29.59,22.25-.87,1.25,1.18,2.44,2,1.2"/><path id="Fill-58" class="cls-4" d="M279.71,219.53c-6.63,2.41-18.08-.19-26,0l-41.4-5.91,13.87-43.38s30.39-2.49,46.93-1.7Z"/><path id="Fill-60" class="cls-3" d="M217.76,132.87c3.16,9.22,7.24,19.75,17.37,23.08,1.45.48,2.07-1.8.63-2.28-9.23-3-12.86-13.1-15.71-21.43-.49-1.43-2.78-.82-2.29.63"/><path id="Fill-62" class="cls-2" d="M82.68,171.63l-5.52-19.38s6.75-4.8,12.1-21.38a76.72,76.72,0,0,0,10.28-11.79c4.18-6.2,1.49-10.78-2.15-10.24S88.76,119.48,81.62,122c0,0,4.85-8.84,9-13.25s8.76-6.15,10.24-12.08-4.72-10.36-8.49-5.39-8.76,8.65-12,11.33-8.09,10.5-10.38,8.61,1.89-13.48,3.91-16.84S85,78.84,84.85,71.74s-6.33-9.66-9.56-4.81S67.07,81.08,64.37,84.58A77.19,77.19,0,0,0,54.4,101V95.36s3.91-9.84,6.2-15.23S67.74,65.58,63,62.21,54,59,49.82,71.1,43,86.74,41.33,91.72s-1.22,14.69-1.22,14.69S33.78,92.27,28,93.27s-9,4.25-3.24,14.89,6.34,19.81,9.71,26a99.72,99.72,0,0,0,7,11.05l.41,24.53Z"/><path id="Fill-64" class="cls-3" d="M58.63,130.9a30.13,30.13,0,0,0-5.72-9.61,15,15,0,0,0-9.29-4.77,1.18,1.18,0,0,0-1.18,1.18,1.21,1.21,0,0,0,1.18,1.19c6.6.68,10.46,7.1,12.73,12.64a1.21,1.21,0,0,0,1.45.82,1.19,1.19,0,0,0,.83-1.45"/><path id="Fill-66" class="cls-3" d="M44.36,116.75a68.49,68.49,0,0,0-3.15-9.92,1.22,1.22,0,0,0-1.45-.83,1.2,1.2,0,0,0-.83,1.46,67.49,67.49,0,0,1,3.14,9.91c.35,1.49,2.63.86,2.29-.62"/><path id="Fill-46" class="cls-1" d="M154.2,5A67.54,67.54,0,1,1,86.66,72.54,67.54,67.54,0,0,1,154.2,5"/><path id="Fill-48" class="cls-5" d="M179.53,79.89V82.4a2.82,2.82,0,0,1-5.63,0V79.89a4.13,4.13,0,0,1-1.41-3.12,4.22,4.22,0,1,1,8.44,0,4.12,4.12,0,0,1-1.4,3.12m14-9.45a15.71,15.71,0,0,0-16.38-14.78H134.5a2.81,2.81,0,0,1,0-5.62h43.23c-.28-5.55-4.51-11.57-9.85-12.42a109.7,109.7,0,0,0-38.08,0c-7,1.13-12.38,8.08-13.51,15a134,134,0,0,0,0,40c1.13,7.23,8.08,14.21,15.4,15a191.15,191.15,0,0,0,47.08,0c7-.82,11.65-7.23,13.06-14.18a108,108,0,0,0,1.71-23"/><path id="Fill-68" class="cls-3" d="M84.59,127.23C77.38,116.89,68.26,106.58,55,105c-1.5-.18-1.49,2.18,0,2.36,12.3,1.49,20.9,11.54,27.55,21.08.86,1.25,2.91.06,2-1.19"/><path id="Fill-70" class="cls-3" d="M88.16,131.43c-2.86,8.33-6.49,18.39-15.72,21.43-1.44.47-.82,2.76.63,2.28,10.13-3.33,14.21-13.86,17.37-23.08.49-1.44-1.79-2.07-2.28-.63"/><g id="Group-74"><g class="cls-6"><path id="Fill-72" class="cls-4" d="M95.17,211.25c-9,.11-16.73,0-18.93,0-5.18.06-31,1.14-44.95-4.73l3.84-38.8c16.54-.79,46.93,1.71,46.93,1.71Z"/></g></g><path id="Fill-140" class="cls-1" d="M20.27,53.66v-5a1.78,1.78,0,1,0-3.55,0v5a1.78,1.78,0,0,0,3.55,0"/><path id="Fill-142" class="cls-1" d="M20.27,67.34v-5a1.78,1.78,0,1,0-3.55,0v5a1.78,1.78,0,0,0,3.55,0"/><path id="Fill-144" class="cls-1" d="M22.83,59.76h5A1.79,1.79,0,0,0,29.62,58a1.82,1.82,0,0,0-1.78-1.78h-5a1.78,1.78,0,1,0,0,3.55"/><path id="Fill-146" class="cls-1" d="M9.14,59.76h5A1.79,1.79,0,0,0,15.94,58a1.82,1.82,0,0,0-1.78-1.78h-5a1.78,1.78,0,0,0,0,3.55"/><path id="Fill-148" class="cls-1" d="M226.87,135.21v-5a1.78,1.78,0,1,0-3.55,0v5a1.78,1.78,0,1,0,3.55,0"/><path id="Fill-150" class="cls-1" d="M226.87,148.89v-5a1.78,1.78,0,1,0-3.55,0v5a1.78,1.78,0,1,0,3.55,0"/><path id="Fill-152" class="cls-1" d="M229.43,141.32h5a1.78,1.78,0,1,0,0-3.55h-5a1.78,1.78,0,1,0,0,3.55"/><path id="Fill-154" class="cls-1" d="M215.75,141.32h5a1.78,1.78,0,1,0,0-3.55h-5a1.78,1.78,0,1,0,0,3.55"/><path id="Fill-156" class="cls-1" d="M136.47,162.34v-3.67a1.3,1.3,0,0,0-2.6,0v3.67a1.3,1.3,0,0,0,2.6,0"/><path id="Fill-158" class="cls-1" d="M136.47,172.35v-3.67a1.3,1.3,0,0,0-2.6,0v3.67a1.3,1.3,0,0,0,2.6,0"/><path id="Fill-160" class="cls-1" d="M138.34,166.81H142a1.3,1.3,0,1,0,0-2.6h-3.67a1.32,1.32,0,0,0-1.3,1.3,1.33,1.33,0,0,0,1.3,1.3"/><path id="Fill-162" class="cls-1" d="M128.33,166.81H132a1.3,1.3,0,1,0,0-2.6h-3.67a1.32,1.32,0,0,0-1.3,1.3,1.33,1.33,0,0,0,1.3,1.3"/><path id="Fill-172" class="cls-1" d="M71.81,127.37v-3.68a1.3,1.3,0,0,0-1.3-1.29,1.32,1.32,0,0,0-1.3,1.29v3.68a1.3,1.3,0,0,0,2.6,0"/><path id="Fill-174" class="cls-1" d="M71.81,137.37V133.7a1.3,1.3,0,0,0-1.3-1.29,1.32,1.32,0,0,0-1.3,1.29v3.67a1.3,1.3,0,0,0,2.6,0"/><path id="Fill-176" class="cls-1" d="M73.68,131.83h3.67a1.3,1.3,0,1,0,0-2.59H73.68a1.3,1.3,0,1,0,0,2.59"/><path id="Fill-178" class="cls-1" d="M63.67,131.83h3.67a1.3,1.3,0,1,0,0-2.59H63.67a1.3,1.3,0,1,0,0,2.59"/></g></svg>