<svg id="Layer_1" data-name="Layer 1" xmlns="http://www.w3.org/2000/svg" xmlns:xlink="http://www.w3.org/1999/xlink" viewBox="0 0 300 200"><defs><style>.cls-1{fill:none;}.cls-2{isolation:isolate;}.cls-3{clip-path:url(#clip-path);}.cls-4{fill:#e7e7e7;}.cls-5{fill:#fcaf17;}.cls-10,.cls-11,.cls-5,.cls-6,.cls-7,.cls-8,.cls-9{fill-rule:evenodd;}.cls-7{fill:#a95631;}.cls-8{fill:#0fc0e1;}.cls-12,.cls-9{fill:#fff;}.cls-10{fill:#f57d87;}.cls-11{fill:#016b83;}.cls-13{fill:#f58120;}</style><clipPath id="clip-path"><path class="cls-1" d="M-84.09,98.1c-22.62-.4-45.44,1-68,1.28a9.58,9.58,0,0,0-9.29,7.78l-18.81,99.08h4.66c20,0,39.79-.43,59.91-1.63,15.67-.93,32.28-.58,47.66-3.75,2.5-.52,5.16-1.26,6.77-3.24a12.06,12.06,0,0,0,2-4.66q6.87-26.49,11.55-53.49c1.53-8.8,3.12-17.68,4.06-26.57.65-6.13-1.28-11.81-8.3-12.68A302.52,302.52,0,0,0-84.09,98.1Z"/></clipPath></defs><title>Website Illustrations</title><g class="cls-2"><g class="cls-3"><rect class="cls-4" x="-185.61" y="93.14" width="186.7" height="118.61"/></g></g><path class="cls-5" d="M225.74,179l-1.48.54q-2.73,1-5.46,2l-2.73,1c-.44.17-.89.38-1.34.51-.15,0-.24,0-.33.15s0,.38.13.52a8.56,8.56,0,0,1,.71,1.5c.09.23.16.47.24.7l1.08,3.38a12.24,12.24,0,0,1,2.25-.7l2.44-.63c1.6-.43,3.21-.83,4.82-1.27a.58.58,0,0,0,.36-.19,1,1,0,0,0,.17-.49,19.15,19.15,0,0,0-.1-6.54.91.91,0,0,0-.21-.51A.57.57,0,0,0,225.74,179Z"/><g id="common_spot_hero_spot_hero_empty_location_history" data-name="common/spot_hero/spot_hero_empty_location_history"><polygon id="Fill-48" class="cls-6" points="173.62 76.13 163.3 93.14 161.79 78.06 173.62 76.13"/><path id="Fill-52" class="cls-7" d="M205,101.09s16.88,4.89,26.51,18.53,13.74,46.7,13.74,46.7l-18.71,14C222.12,169.83,211.84,151,209,140c-4.34-16.74-4-38.91-4-38.91"/><path id="Fill-54" class="cls-7" d="M107.75,148.28s-15.74,15.91-31,20.87c-9.36,3-21.65,2.58-26.2-10.25C46.92,148.6,59.3,120,59.3,120l36.25,5.09Z"/><path id="Fill-56" class="cls-8" d="M127.25,95.72s-13.72,2.17-28.73,12.8C91,113.85,82.7,123.9,82.7,123.9S93.81,133.67,98,138.52c4.86,5.58,11,16.72,11,16.72l26.56-55.33Z"/><path id="Fill-58" class="cls-7" d="M83.39,123.63s4.48-4.62,7.79-7.72,9-7.27,7.46-10.82c-2.24-5.21-10.08-.22-10.08-.22s-2.68-8-6.07-8.9c-4.46-1.19-5,2.21-5,2.21s-3-1.93-4.83-1.1a4,4,0,0,0-2.27,2.41s-2.69-1.93-4.83-1.1a3.48,3.48,0,0,0-2.21,3s-2.48-2.64-5.45-.71-5.25,4.21-3.76,10.42a27.45,27.45,0,0,0,4.7,10.13Z"/><path id="Fill-60" class="cls-8" d="M209,142.84a40.86,40.86,0,0,0-6.16-1c-1-.08-2-.13-3.08-.14a18.48,18.48,0,0,0-8,1.39,133.23,133.23,0,0,0-.18,22.74c.85,12.21,3.28,30.36,4.16,36.75l-11.49,0L96.88,203a295.5,295.5,0,0,1,9-49.74c8.42-31.4,22.9-59,22.9-59l33.52,6.26a16.63,16.63,0,0,1,2.23-.89c3.08-1,9.37-2.65,19-2.59a69.87,69.87,0,0,1,14.58,1.64,49.61,49.61,0,0,1,9.11,2.8,118.36,118.36,0,0,0-.61,21A144.54,144.54,0,0,0,209,142.84"/><path id="Fill-62" class="cls-7" d="M112.39,32s-13.89,38.84,9.21,61c14.39,13.76,32,6,32,6l12-19.51-1.53-27.6-.57-10.34c-.07-1.17-.21-2.37-.2-3.54,0-2.28,1.69-3.35,3.82-4a24,24,0,0,0,4.67-1.51c1.43-.79,2.63-2.36,2.32-4a3.73,3.73,0,0,0-2-2.47A10.72,10.72,0,0,0,169,25a98,98,0,0,0-13.72-2c-6.87-.33-13.75.77-20.62.5l.83,1"/><path id="Fill-64" class="cls-7" d="M138.76,91.89s-1.85,16.53.24,23.78c3.6,12.53,22.39,12.36,24.84-6.94,2.23-17.58,2.91-31.39,2.91-31.39Z"/><path id="Fill-66" class="cls-7" d="M163.56,62.55s4.5-9.24,12.35-6.8c6.25,1.93,6.3,11.36,2.55,16.36-6.58,8.79-15.16,7.18-15.16,7.18Z"/><path id="Fill-68" class="cls-6" d="M161.88,34.39a3,3,0,0,0-.55.64c-.84,1.4-.43,4.07-.55,5.66a142.44,142.44,0,0,0-.47,16.78c.19,3.79.56,6.78,3,7,1.32.13,3-5.07,3-5.07a10.93,10.93,0,0,1,4.12-3.29,10.67,10.67,0,0,1,4.36-.29c1.54.06,2.27.67,3.71,1.07a1,1,0,0,0,.86-.06,1.05,1.05,0,0,0,.29-.66c1.4-7.68,2.77-15.81.06-23.13a3.84,3.84,0,0,0-4.32-3.32,23.38,23.38,0,0,0-10.67,3A16.83,16.83,0,0,0,161.88,34.39Z"/><path id="Fill-70" class="cls-9" d="M126.24,42.84c-2.68-.56-6.68-.36-7.45,2.9-.86,3.65,4.18,4.92,7.06,5s6.79.33,6.76-3.15-3.69-4.24-6.37-4.8"/><path id="Fill-72" class="cls-9" d="M148.91,45c-2.68-.56-6.68-.35-7.45,2.91-.86,3.65,4.18,4.91,7.07,5s6.78.33,6.75-3.14-3.69-4.25-6.37-4.81"/><path id="Fill-74" class="cls-6" d="M123.27,38.82a4.34,4.34,0,0,1,3.75-.46,3.53,3.53,0,0,1,2.29,2.23c.72,1.48,2.92.18,2.21-1.29a6,6,0,0,0-4.25-3.52A6.73,6.73,0,0,0,121.46,37c-1.25,1.07.56,2.87,1.81,1.81"/><path id="Fill-76" class="cls-6" d="M144.91,41.72c3.45-2.74,7.66-1.7,9.69,2.05.78,1.45,3,.16,2.21-1.29-2.88-5.33-9-6.3-13.71-2.57-1.29,1,.53,2.82,1.81,1.81"/><path id="Fill-78" class="cls-6" d="M141,59.65c-.13.54-.47,1.79-1.07,2-.92.35-1-1.07-1-1.59a.44.44,0,0,0,0-.1.87.87,0,0,0-.05-.28,1.12,1.12,0,0,0-.09-.22.36.36,0,0,0-.07-.1,1.27,1.27,0,0,0-1.14-.51l-.13,0a1.08,1.08,0,0,0-.31.07.75.75,0,0,0-.17.1,1.88,1.88,0,0,0-.23.16l-.12.17a.92.92,0,0,0-.13.24c0,.05-.05.07-.07.12-.28.9-.65,1.76-1.67,1.86-.35,0-.58.06-.75-.21a1.85,1.85,0,0,1,0-1.31.7.7,0,0,0,0-.14.62.62,0,0,0,.11-.17c1.17-3,2.32-5.94,3.69-8.83.71-1.48-1.5-2.78-2.2-1.29-1.43,3-2.62,6.05-3.83,9.13h0a.06.06,0,0,1,0,0c0,.09-.07.18-.1.26s0,.06,0,.09c-.65,1.94-.12,4.53,2.19,4.93a3.93,3.93,0,0,0,3.52-1,3,3,0,0,0,2.44,1.19c2.09,0,3.32-2.15,3.74-3.92.37-1.6-2.09-2.29-2.47-.68"/><path id="Fill-80" class="cls-6" d="M149.06,60.89a7.26,7.26,0,0,0,8.08,2.3c1.55-.53.88-3-.68-2.47a4.81,4.81,0,0,1-5.59-1.64c-1-1.28-2.84.54-1.81,1.81"/><path id="Fill-82" class="cls-6" d="M152.37,61.5c-5.82,11-19,12.25-29.67,8.57-1.56-.54-2.23,1.93-.68,2.46,11.74,4.07,26.22,2.2,32.56-9.74.77-1.45-1.44-2.75-2.21-1.29"/><path id="Fill-90" class="cls-6" d="M170.43,63.25c2.56-.88,4.08,1.3,3.42,3.69-.56,2-2.07,3.85-4.25,3.93-1.65,0-1.65,2.61,0,2.55,3.82-.13,6.78-3.64,7-7.38a5.11,5.11,0,0,0-6.84-5.25c-1.54.53-.88,3,.68,2.46"/><path id="Fill-92" class="cls-6" d="M109.56,35.23c-2,15.61-4.32,33.26,3.54,47.63C122,99,137.36,104.7,155.33,101.73c2.43-.4,1.4-4.09-1-3.7-9.5,1.57-18.82,1-26.88-4.57A36.7,36.7,0,0,1,114,75.89c-4.78-12.19-2.24-28-.58-40.66.32-2.44-3.52-2.42-3.84,0"/><path id="Fill-94" class="cls-6" d="M143.09,78.31A28.25,28.25,0,0,1,153,75.7,50,50,0,0,0,153.07,62s-1.12,3.63-9.85,8.85-19.36.51-19.36.51,3.42,12.4,12.32,15.28a13.71,13.71,0,0,1,6.91-8.32"/><path id="Fill-96" class="cls-10" d="M147.21,85.43c3.38-1.61,5-5.54,5.75-9.73a28.25,28.25,0,0,0-9.87,2.61,13.71,13.71,0,0,0-6.91,8.32c3,1,6.67.87,11-1.2"/><path id="Fill-98" class="cls-6" d="M56.4,104.76c1-1.89,3.12-3.87,5.43-2.64,1.49.8,2.63,3,3.33,4.51a8.42,8.42,0,0,1,1,3.11c.07,1.59-.14,2.48-1.87,2.28-1.94-.22-2.83-2.24-3.75-3.87a1.28,1.28,0,0,0-2.2,1.29c1.3,2.32,3.32,6.15,6.52,5.76,3.38-.41,4.27-4.15,3.63-7-.71-3.12-3-7.54-6.21-8.73-3.41-1.27-6.49,1.09-8.06,4-.79,1.44,1.42,2.74,2.21,1.29"/><path id="Fill-100" class="cls-6" d="M64.61,101.37c2.22-3.11,5.45.82,6.43,3a8.57,8.57,0,0,1,.86,3.58,2.23,2.23,0,0,1-3.4,1.93c-1.48-.68-2.78,1.52-1.29,2.21,2,.94,5,.81,6.48-1.08s.72-5,0-7c-1.71-4.56-7.44-9.3-11.26-4-1,1.34,1.26,2.62,2.21,1.29"/><path id="Fill-102" class="cls-6" d="M71.91,100.49c.48-1.81,2.36-2.07,3.82-1.21a6.29,6.29,0,0,1,2.37,3.16,8.52,8.52,0,0,1,.74,3.47c-.14,2.34-2.66,3.7-4.26,1.57-1-1.3-3.2,0-2.21,1.29,1.53,2,4.67,3.24,7,1.6,2.49-1.77,2.29-5.37,1.45-7.93s-2.54-5.3-5.4-6a4.8,4.8,0,0,0-6,3.42,1.28,1.28,0,0,0,2.46.68"/><path id="Fill-104" class="cls-6" d="M78.84,99.21c1.42-5.18,6.27,1.9,7.06,3.75.47,1.1,1.12,2.91,0,3.82-1.58,1.25-3.63-.87-4.46-2-1-1.33-3.17,0-2.21,1.29,1.57,2.2,4.47,4.69,7.36,3.35s2.84-4.41,1.91-6.9-3.24-6.27-5.9-7.32a4.63,4.63,0,0,0-6.19,3.37,1.28,1.28,0,0,0,2.46.68"/><path id="Fill-106" class="cls-6" d="M88.42,106.1c2.88-1.23,7.4-3.19,8.54.82.88,3.11-3.45,6.12-5.64,7.87-2.49,2-7.82,4.46-9.37,7.28-.93,1.69-.59,5.22-.77,7.05-.41,4.3-.85,8.6-1.06,12.91-.08,1.65,2.47,1.64,2.55,0,.16-3.12.45-6.23.73-9.34.24-2.6-.12-6.59.88-9,1.09-2.65,8.55-6.3,11.56-9.28,2.45-2.42,5.06-6.79,3-10.24-2.51-4.21-8.33-1.71-11.71-.27-1.51.65-.21,2.85,1.29,2.21"/><path id="Fill-108" class="cls-6" d="M205.8,102.13c-2.72,16.21.37,32.56,5.81,47.89a176,176,0,0,0,7.65,18.15c1.09,2.24,2.24,4.47,3.41,6.68,2.67,5,3.08,9.07,1.18,14.54-.54,1.56,1.93,2.23,2.46.68,2.3-6.58,1.75-10.5-1.43-16.51a188.53,188.53,0,0,1-8.3-17.62c-6.77-16.71-11.34-35.07-8.31-53.13.27-1.61-2.19-2.3-2.47-.68"/><path id="Fill-110" class="cls-7" d="M227.2,170s-7.64,5.18-7.57,9.93,3.33,12.73,6.46,12.82,3.62,2.21,5.49,1.47,2.43,0,6.21-.86,2.49,1.42,6.21-.77,4.75-.57,7.15-4.64c3.7-6.26-5.88-21.65-5.88-21.65Z"/><path id="Fill-112" class="cls-6" d="M226.1,186.2c-.57,3.44-.44,7.94,3.74,9a4.89,4.89,0,0,0,5.33-2.46,9,9,0,0,0,.39-6.89,1.28,1.28,0,0,0-2.46.68,6.91,6.91,0,0,1,.06,4.49,2.34,2.34,0,0,1-3.47,1.36c-1.77-1.18-1.42-3.69-1.13-5.49.27-1.61-2.19-2.31-2.46-.68"/><path id="Fill-114" class="cls-6" d="M234.12,193.85c2.12,1.21,5.11,1.16,6.73-.86,1.81-2.23,1.83-5.45.82-8-.6-1.51-3.07-.85-2.47.68a6.15,6.15,0,0,1,0,5.25,2.65,2.65,0,0,1-3.78.74,1.28,1.28,0,0,0-1.29,2.21"/><path id="Fill-116" class="cls-6" d="M239.79,193.7c2.89,1.48,5.86-.34,7.26-3a8.72,8.72,0,0,0,.42-6.43,1.28,1.28,0,0,0-2.47.68,6.84,6.84,0,0,1,.21,3.39c-.37,1.67-2.21,4.14-4.13,3.16-1.46-.75-2.76,1.46-1.29,2.21"/><path id="Fill-118" class="cls-6" d="M227.62,190.94c-4.46-.36-7-4.46-7-8.78,0-4,2.45-7.1,4.83-10,1-1.26-.78-3.09-1.81-1.8-3.43,4.24-6.57,8.91-5.28,14.64,1.12,4.93,4.21,8.14,9.21,8.55,1.64.13,1.63-2.43,0-2.56"/><path id="Fill-120" class="cls-6" d="M152.21,47.44a2.16,2.16,0,0,0-.45-.29l-.08,0-.15-.07a1.76,1.76,0,0,0-.91-.15,2,2,0,0,0-1.85,1.41,2.22,2.22,0,1,0,3.44-.86"/><path id="Fill-122" class="cls-6" d="M128.1,44.85a2.22,2.22,0,0,0-1.75,2.83,1.82,1.82,0,0,0,.63,1,1.87,1.87,0,0,0,1,.52,2.18,2.18,0,1,0,.15-4.3"/></g><path class="cls-11" d="M109.49,36.7a124.6,124.6,0,0,1,24.84-2.11c4.15,0,8.29.23,12.43.53,1.83.14,4.15,0,5.9.53,1.46.47,2.46,1.41,4.09,1.7a26.64,26.64,0,0,1,6.8,2.2,55.39,55.39,0,0,0-.24-6.82,7.7,7.7,0,0,0-1.16-3.58c-1-1.34-2.63-1.49-4.1-1.56L145,27c-9.26-.45-18.57-.9-27.83.31-2.2.29-4.85,1.12-5.56,3.87-.51,2,.17,4.47-1,6"/><path class="cls-6" d="M164.79,31l.11-.05c3.61-1.48,7.73.07,11.47.36a3.45,3.45,0,0,0,2.25-.4,2.94,2.94,0,0,0,.91-2.63C178.77,17.87,169.68,12,160.4,8.73c-8.31-2.89-17.55-4.23-25.84-1.29a53.79,53.79,0,0,0-10.86,5.87L103.83,26.12a6.15,6.15,0,0,0-2.49,2.38,4.18,4.18,0,0,0,1.39,4.7,11.21,11.21,0,0,0,11.16,1.25c4.6-2.44,10.28-3.6,14.68-6.47a3.11,3.11,0,0,0-1.24,1.17,1.12,1.12,0,0,0,.4,1.5,1.6,1.6,0,0,0,.87,0c5.44-.9,10.75-3.51,16.21-2.7a5.75,5.75,0,0,0-3.11,3.62c2.19.69,4.54,0,6.8-.37a25.85,25.85,0,0,1,6.21-.31,8.19,8.19,0,0,1,3.25.76c1.37.73,1.32,1.58,2.95,1.55S163.48,31.63,164.79,31Z"/><path class="cls-11" d="M181.34,37.62c-.05-1.54.1-3.18-1.77-3.43L174,33.45a58.35,58.35,0,0,0-8.53-1,9.06,9.06,0,0,0-4.26.9c-.94.54-2.6,2.6-1.8,3.57,2,2.47,5.24,3.69,8.39,4.3s6.39.71,9.5,1.47a23.23,23.23,0,0,0,3.83.85c.28,0,.29-5.16.26-5.63C181.35,37.82,181.34,37.72,181.34,37.62Z"/><path class="cls-5" d="M110.72,93.14c0,.17.07.33.11.49a26,26,0,0,1,.46,9.14c-.49,3-2.48,6.37-6,6a5.63,5.63,0,0,1-1.09-.17c-3-.87-4.17-5.28-5.18-7.83A57.32,57.32,0,0,1,96,90.93a13.37,13.37,0,0,1,0-7.29,4.22,4.22,0,0,1,1-1.67c1.15-1.07,3.85-1.56,5.45-1.44a5.53,5.53,0,0,1,3.23,2C108.55,85.39,109.92,89.44,110.72,93.14Z"/><path class="cls-5" d="M48.11,106.17a63.45,63.45,0,0,1,7.44-1.56.73.73,0,0,1,.6.08,1.05,1.05,0,0,1,.23.4,27.6,27.6,0,0,0,3.71,6.77c.26.35.54.81.35,1.21a1,1,0,0,1-.7.42,94,94,0,0,1-11.25,2.1.66.66,0,0,1-.61-.13.91.91,0,0,1-.06-.81,19.33,19.33,0,0,0,0-8.79"/><path class="cls-5" d="M85.79,97.62A14,14,0,0,1,88.5,103c0,.1.32-.09.42,0a.36.36,0,0,0,.27,0l11.2-2.83a.69.69,0,0,0,.65-.72,15.29,15.29,0,0,0-.48-6.52.83.83,0,0,0-.3-.5.86.86,0,0,0-.7,0q-7.05,2.34-14.06,4.8"/><path class="cls-5" d="M52.72,110.14c0,.17.07.33.11.49a26,26,0,0,1,.46,9.14c-.49,3-2.48,6.37-6,6a5.63,5.63,0,0,1-1.09-.17c-3-.87-4.17-5.28-5.18-7.83A57.32,57.32,0,0,1,38,107.93a13.37,13.37,0,0,1,0-7.29,4.22,4.22,0,0,1,1-1.67c1.15-1.07,3.85-1.56,5.45-1.44a5.53,5.53,0,0,1,3.23,2C50.55,102.39,51.92,106.44,52.72,110.14Z"/><path class="cls-5" d="M267.91,170.65l.12.48a30.33,30.33,0,0,1,1.05,9.09c-.19,3.05-1.65,6.47-4.69,6.29a5,5,0,0,1-.95-.12c-2.6-.73-3.91-5.07-4.95-7.56a65.49,65.49,0,0,1-3.21-9.69,15.76,15.76,0,0,1-.5-7.27,4.25,4.25,0,0,1,.75-1.71c.9-1.13,3.16-1.75,4.52-1.7a4.75,4.75,0,0,1,2.88,1.79C265.5,163,267,167,267.91,170.65Z"/><path class="cls-5" d="M215.77,184.13l.12.46a28.42,28.42,0,0,1,1,8.75c-.23,2.95-1.71,6.26-4.75,6.12a5,5,0,0,1-.94-.11c-2.58-.67-3.85-4.85-4.87-7.24a63.57,63.57,0,0,1-3.11-9.31,14.64,14.64,0,0,1-.42-7,4.26,4.26,0,0,1,.76-1.66c.91-1.09,3.17-1.71,4.53-1.68a4.59,4.59,0,0,1,2.86,1.7C213.44,176.8,214.86,180.61,215.77,184.13Z"/><path class="cls-5" d="M260.74,170l-1.48.54q-2.73,1-5.46,2l-2.73,1c-.44.17-.89.38-1.34.51-.15,0-.24,0-.33.15s0,.38.13.52a8.56,8.56,0,0,1,.71,1.5c.09.23.16.47.24.7l1.08,3.38a12.24,12.24,0,0,1,2.25-.7l2.44-.63c1.6-.43,3.21-.83,4.82-1.27a.58.58,0,0,0,.36-.19c.11-.12,0-.39.07-.57a18.69,18.69,0,0,0,0-6.46.91.91,0,0,0-.21-.51A.57.57,0,0,0,260.74,170Z"/><path class="cls-12" d="M224.32,102.39c.08-3.44.25-6.89.52-10.32l-.8.79a18.55,18.55,0,0,1,6.51.51c.89.24,1.95.84,2.89.57s1.52-1.43,2.06-2.14l8.38-11.08c.61-.82-.77-1.61-1.37-.8l-7.75,10.25-.94,1.24c-.26.35-.57,1-1,1a5.61,5.61,0,0,1-1.35-.44c-.47-.13-.94-.25-1.41-.35a19.74,19.74,0,0,0-6-.34.82.82,0,0,0-.79.79c-.27,3.43-.44,6.88-.51,10.32a.79.79,0,0,0,1.58,0Z"/><path class="cls-12" d="M223.51,103.66a1.35,1.35,0,0,1-.7-.2,1.19,1.19,0,0,1-.57-1.08c.07-3.44.24-6.92.51-10.35A1.33,1.33,0,0,1,224,90.78a20.34,20.34,0,0,1,6.13.35c.49.1,1,.22,1.45.36l.5.19a2.37,2.37,0,0,0,.7.23c.11,0,.36-.39.45-.53l.19-.27,8.69-11.5a1.32,1.32,0,0,1,1.24-.52,1.35,1.35,0,0,1,1.09.79,1.11,1.11,0,0,1-.17,1.14L235.9,92.1c-.11.14-.22.31-.34.48a4.12,4.12,0,0,1-2,1.84,4,4,0,0,1-2.45-.33l-.71-.24a17.77,17.77,0,0,0-5.17-.57c-.22,3-.36,6.09-.43,9.12h0a1.24,1.24,0,0,1-.64,1.09A1.45,1.45,0,0,1,223.51,103.66Zm.14-10.26c-.21,3-.35,6-.41,9a.19.19,0,0,0,.09.21.4.4,0,0,0,.37,0,.25.25,0,0,0,.12-.23h0c.07-3,.21-6,.42-9h-.15Zm2.25-1.13a18.54,18.54,0,0,1,4.78.62c.25.07.52.16.79.26a3.18,3.18,0,0,0,1.83.31c.56-.16,1-.85,1.44-1.45.12-.18.24-.36.36-.51l8.38-11.09c.07-.09.05-.13,0-.15a.4.4,0,0,0-.29-.18.33.33,0,0,0-.32.14l-8.7,11.49a2.17,2.17,0,0,1-.15.22c-.27.41-.64,1-1.27,1a2.74,2.74,0,0,1-1.1-.3l-.4-.16c-.45-.13-.9-.24-1.37-.34a18.81,18.81,0,0,0-4.55-.41l0,.41a1,1,0,0,1,0,.17Zm-1.44-.53-.37,0a.33.33,0,0,0-.34.34l0,.37Z"/><path class="cls-12" d="M231.09,105.9a28.09,28.09,0,0,1,2.34-2.77,9.75,9.75,0,0,1,1.35-1.3c.51-.33,1-.12,1.58,0a18.43,18.43,0,0,1,6.17,3,.8.8,0,0,0,1-.12,32.88,32.88,0,0,1,8-4.55c.93-.37.53-1.9-.42-1.53a35.75,35.75,0,0,0-8.68,5l1-.12a18.09,18.09,0,0,0-7.42-3.37c-1.48-.26-2.38.65-3.35,1.63a31.23,31.23,0,0,0-2.84,3.35c-.6.83.77,1.62,1.37.8Z"/><path class="cls-12" d="M230.43,106.75a1.49,1.49,0,0,1-.85-.28,1.14,1.14,0,0,1-.26-1.66,30.24,30.24,0,0,1,2.89-3.41c1-1,2-2.07,3.79-1.77a18.43,18.43,0,0,1,6.92,3,35.59,35.59,0,0,1,7.94-4.39,1.15,1.15,0,0,1,1.54.67,1.36,1.36,0,0,1-.75,1.79,32,32,0,0,0-7.85,4.48,1.28,1.28,0,0,1-1.56.13c-.46-.34-.93-.66-1.4-1l-.23,0,.12-.09a16.94,16.94,0,0,0-4.5-1.91l-.19-.06c-.46-.13-.74-.19-1,0a5.47,5.47,0,0,0-1,.91l-.3.32a26.9,26.9,0,0,0-2.3,2.72h0A1.3,1.3,0,0,1,230.43,106.75Zm5-6.17c-.93,0-1.58.6-2.49,1.52a29.15,29.15,0,0,0-2.79,3.3c0,.07-.11.15,0,.26a.37.37,0,0,0,.52,0,26.61,26.61,0,0,1,2.38-2.83l.28-.3a6.93,6.93,0,0,1,1.16-1.06,2,2,0,0,1,1.8-.1l.18.05a18.39,18.39,0,0,1,5.09,2.23l.49-.38h0a17,17,0,0,0-6.24-2.59A2.12,2.12,0,0,0,235.41,100.58Zm7,3.54.47.33c.06,0,.22,0,.36-.11l.51-.4Zm1.41-.93.48.35a33.46,33.46,0,0,1,7-3.82.39.39,0,0,0,.19-.5c-.07-.17-.17-.13-.24-.1A35.08,35.08,0,0,0,243.77,103.19Z"/><path class="cls-12" d="M216.8,97.62c-.64-1.05-1.24-2.12-1.77-3.22-.25-.51-.49-1-.71-1.54s-.42-.87-.13-1.33A10.52,10.52,0,0,1,219,87.8a.8.8,0,0,0,.36-.9,36.57,36.57,0,0,1-1.86-9.14c-.06-1-1.65-1-1.58,0a37.57,37.57,0,0,0,1.92,9.56l.36-.89A13.21,13.21,0,0,0,215,88.35a8.76,8.76,0,0,0-2.37,2.7c-.55,1.16.21,2.44.7,3.49a39,39,0,0,0,2.09,3.88c.53.87,1.9.07,1.37-.8Z"/><path class="cls-12" d="M216.07,99.3a1.25,1.25,0,0,1-1.07-.62,39.79,39.79,0,0,1-2.11-3.93l-.18-.37c-.49-1-1.11-2.3-.52-3.55A9.17,9.17,0,0,1,214.7,88,13.16,13.16,0,0,1,217,86.43a38.1,38.1,0,0,1-1.61-8.63,1.19,1.19,0,0,1,.51-1.09,1.4,1.4,0,0,1,1.35-.07,1.27,1.27,0,0,1,.72,1.09,35.94,35.94,0,0,0,1.84,9,1.3,1.3,0,0,1-.64,1.52,10.13,10.13,0,0,0-4.58,3.53c-.11.18-.08.32.11.75l.06.13c.21.51.45,1,.69,1.51.51,1,1.09,2.08,1.76,3.18a1.21,1.21,0,0,1,0,1.23,1.38,1.38,0,0,1-1.16.71Zm1.26-11.9a12.69,12.69,0,0,0-2,1.34,8.45,8.45,0,0,0-2.24,2.52c-.38.81.08,1.76.52,2.68l.19.39a36,36,0,0,0,2.06,3.83.23.23,0,0,0,.22.14.43.43,0,0,0,.32-.19.23.23,0,0,0,0-.23h0c-.68-1.12-1.27-2.19-1.79-3.26-.26-.52-.5-1-.72-1.56l-.06-.12a1.66,1.66,0,0,1,0-1.68,10.07,10.07,0,0,1,3.74-3.3l-.16-.48A.24.24,0,0,1,217.33,87.4Zm1.37-.9-.44,1.07.53-.24a.32.32,0,0,0,.09-.27Zm-2-9a.35.35,0,0,0-.18,0s-.07,0-.06.18A37.08,37.08,0,0,0,217.93,86l.07,0,.47-.2a36.64,36.64,0,0,1-1.48-8,.27.27,0,0,0-.16-.26A.37.37,0,0,0,216.65,77.5Z"/><path class="cls-12" d="M65,57.31a39.28,39.28,0,0,1-.24,10.61A1,1,0,0,0,65.32,69l2.58,1.16a5.33,5.33,0,0,1,1.21.55c.28.25.1-.06.19.3a3.18,3.18,0,0,1-.08.81c-.17,1.83-.38,3.65-.61,5.48-.17,1.27,1.81,1.62,2,.34s.29-2.36.42-3.55a24.56,24.56,0,0,0,.31-3.42c0-1.16-.89-1.57-1.82-2l-3.34-1.51.58,1.09A41.91,41.91,0,0,0,67,57.13a1,1,0,0,0-2,.18Z"/><path class="cls-12" d="M69.4,78.92a1.69,1.69,0,0,1-.73-.31,1.47,1.47,0,0,1-.56-1.38c.24-1.87.45-3.71.61-5.46,0-.07,0-.16,0-.25a2.17,2.17,0,0,0,0-.4h0l0,0a2.83,2.83,0,0,0-.67-.3l-.42-.16-2.57-1.17a1.51,1.51,0,0,1-.86-1.61,38.69,38.69,0,0,0,.23-10.48h0a1.42,1.42,0,0,1,1.31-1.6,1.49,1.49,0,0,1,1.69,1.32,42.14,42.14,0,0,1-.1,10.1l2.3,1a4,4,0,0,1,1.71,1.16l.79-.32-.65.53a2.23,2.23,0,0,1,.27,1.05,15.55,15.55,0,0,1-.19,2.55c-.05.32-.09.64-.12,1-.13,1.18-.27,2.37-.42,3.55a1.37,1.37,0,0,1-.83,1.13A1.55,1.55,0,0,1,69.4,78.92ZM69.8,71a2.44,2.44,0,0,1,0,.65.74.74,0,0,0,0,.18c-.17,1.77-.38,3.62-.62,5.5a.49.49,0,0,0,.18.46.65.65,0,0,0,.58.09.37.37,0,0,0,.22-.34c.16-1.17.3-2.35.42-3.53l.12-1a14,14,0,0,0,.19-2.38,1.43,1.43,0,0,0-.07-.43Zm-.2.17h0l0,0Zm-2.52-2,1,.47.34.13a4,4,0,0,1,.89.41l1.09-.45a4.06,4.06,0,0,0-1.15-.66l-2-.93s0,.09,0,.13Zm-1.67-2.4c0,.38-.1.77-.16,1.15a.51.51,0,0,0,.28.55l1,.47Zm.07-.52,1,.43a40.23,40.23,0,0,0,.06-9.56.48.48,0,0,0-.58-.43.42.42,0,0,0-.42.49h0A40.45,40.45,0,0,1,65.48,66.32Z"/><path class="cls-12" d="M45.69,64l5.94,12.34a1,1,0,0,0,1.37.36,14.61,14.61,0,0,1,8.71-.82c.82.19,1,.61,1.29,1.35s.67,1.58,1,2.36l2,4.73c.51,1.19,2.24.18,1.74-1l-2.4-5.61a14.74,14.74,0,0,0-1.19-2.58,3,3,0,0,0-2-1.19A17,17,0,0,0,52,75l1.37.36L47.43,63c-.56-1.16-2.29-.15-1.74,1Z"/><path class="cls-12" d="M66.77,85.35a1.29,1.29,0,0,1-1.2-.84l-3-7.09c-.32-.74-.4-.94-.94-1.06a14.19,14.19,0,0,0-8.41.79,1.5,1.5,0,0,1-2-.61l-.73-1.48h0L45.24,64.21A1.56,1.56,0,0,1,46,62.13a1.36,1.36,0,0,1,1.87.65L53.26,74a17.08,17.08,0,0,1,9.08-.5,3.48,3.48,0,0,1,2.25,1.38,9.28,9.28,0,0,1,1,2c.09.23.18.47.28.69l2.4,5.62a1.6,1.6,0,0,1-.88,2.1A1.56,1.56,0,0,1,66.77,85.35Zm-8-10.3a14.25,14.25,0,0,1,3.08.33,2.11,2.11,0,0,1,1.6,1.55l3.07,7.19a.31.31,0,0,0,.47.18.61.61,0,0,0,.35-.79l-2.4-5.62c-.1-.23-.2-.47-.29-.72a8.78,8.78,0,0,0-.85-1.77,2.53,2.53,0,0,0-1.65-1,16.14,16.14,0,0,0-8.42.44l.42.89A15.5,15.5,0,0,1,58.74,75.05Zm-7,.36.34.7c.12.26.51.21.72.12l.83-.32Zm-5.6-11.63,5.25,10.89.41-.17c.17-.08.34-.14.51-.21L47,63.21a.36.36,0,0,0-.54-.18.57.57,0,0,0-.3.75Z"/><path class="cls-13" d="M38.9,102.08a9.27,9.27,0,0,1,3.34,4,30.28,30.28,0,0,1,2.17,5.58,31.11,31.11,0,0,1,.93,11.76c-.15,1.28,1.86,1.27,2,0a32.51,32.51,0,0,0-1.22-13c-1.1-3.6-2.78-8-6.22-10a1,1,0,0,0-1,1.73Z"/><path class="cls-13" d="M203.83,177c3.1,1.35,4.14,5.09,5.06,8,.58,1.89,1.08,3.8,1.55,5.72.24,1,.48,1.92.7,2.88a5,5,0,0,1,.12,3c-.5,1.17,1.22,2.19,1.72,1,.86-2,.22-4-.28-6.1-.57-2.37-1.16-4.73-1.89-7.06-1.06-3.43-2.38-7.67-6-9.24-1.17-.5-2.19,1.22-1,1.73Z"/></svg>