<svg id="Layer_1" data-name="Layer 1" xmlns="http://www.w3.org/2000/svg" viewBox="0 0 300 200"><defs><style>.cls-1{fill:#fff;}.cls-1,.cls-10,.cls-11,.cls-12,.cls-2,.cls-3,.cls-4,.cls-5,.cls-6,.cls-7,.cls-8,.cls-9{fill-rule:evenodd;}.cls-2{fill:#00aedc;}.cls-4{fill:#b1e7f4;}.cls-5{fill:#faa9ae;}.cls-6{fill:#f9929a;}.cls-7{fill:#00ad00;}.cls-8{fill:#e7e7e7;}.cls-9{fill:#00d000;}.cls-10{fill:#c0007a;}.cls-11{fill:#f8a9af;}.cls-12{fill:#ff405a;}.cls-13{fill:#fcaf17;}</style></defs><title>Website Illustrations</title><path id="Fill-82" class="cls-1" d="M135,30.09l-9.14-3.95a2.2,2.2,0,0,0-1.68,4.06l9.14,3.95A2.22,2.22,0,0,0,136.19,33,2.24,2.24,0,0,0,135,30.09"/><path id="Fill-6" class="cls-2" d="M84.41,5.84C94.1,4.62,94.6,9.47,95.18,12s11.25,73.17,13.2,84.3-6.52,11.44-6.52,11.44S40.23,117,36,117.67s-11.53-1.21-12.66-5.81S11.21,30.67,10.56,23.5s4.24-7,4.24-7L84.41,5.84"/><polygon id="Fill-8" class="cls-3" points="83.48 99.92 78.08 6.8 15.51 16.34 26.93 107.07 83.48 99.92"/><path id="Fill-10" class="cls-4" d="M98,1.34C108.29.67,108.51,5.81,109,8.49s7.15,77.78,8.49,89.63-7.6,11.62-7.6,11.62-65.49,5.82-70,6.26-12.07-2-13-6.93-7.6-86.28-7.82-93.88S24,8,24,8l74-6.7"/><polygon id="Fill-12" class="cls-5" points="94.93 200.82 138.18 200.9 141.6 184.71 122.03 170.69 94.93 200.82"/><path id="Fill-68" class="cls-6" d="M56.39,114.71l-1.16-5.34s11.42-6.74,13.64-9.5S71.52,94,69.12,93,52.36,100.83,50,102.79c-1.17,1-6.68,8.24-7.57,13.56a10.42,10.42,0,0,0,2.8,8.91Z"/><path id="Fill-70" class="cls-5" d="M43.78,124.91c.43,4.46,0,1.84.77,4.11s-1,5.16,9,11.2,20,11.78,21.82,17c.48,1.36,7.13,37,8.18,43.82h34c-5.82-13.05-22.91-54.88-23.33-56.5-1.11-4.32,2.06-13.72-12.51-21.72,0,0,4.11-4.47-.14-6.64l-4.16-1.75s3.62-4.81-.14-6.65l-7.41.13s-11.5-1-14.58,1.5c-8.17,6.74-11.69,13.07-11.45,15.54"/><path id="Fill-72" class="cls-3" d="M76.31,126.21c-1.65-.64-2.36,2-.73,2.65a9.11,9.11,0,0,0,5.37.64,3.31,3.31,0,0,0,2.25-3.22c0-2.87-2.52-4.86-4.73-6.22-2.44-1.49-5.91-3.42-8.82-2.31a16.38,16.38,0,0,0-7,5.56,12.54,12.54,0,0,0-2.45,8.52c.16,1.75,2.91,1.76,2.74,0a10.27,10.27,0,0,1,2.58-7.75,15.21,15.21,0,0,1,2.92-2.57c1.19-.8,2.41-1.63,3.88-1.24a17.44,17.44,0,0,1,4.1,1.8,12.06,12.06,0,0,1,3.13,2.3c.41.46,1.38,1.87.69,2.47-.3.25-1.45,0-1.8,0a10.14,10.14,0,0,1-2.17-.61"/><path id="Fill-74" class="cls-3" d="M76.44,126.8a1.6,1.6,0,0,0,.41-1,1.42,1.42,0,0,0-.41-1,1.4,1.4,0,0,0-1-.4,1.41,1.41,0,0,0-1,.4,7.37,7.37,0,0,0-1.53,3,10.19,10.19,0,0,0-.09,3.26,1.41,1.41,0,0,0,1.37,1.37,1.38,1.38,0,0,0,1.38-1.37,13.1,13.1,0,0,1-.1-1.53c0-.22,0-.44,0-.65s.09-.47,0,0c0-.09,0-.18,0-.27s.09-.39.15-.58.07-.19.11-.29-.15.32,0,.11l.06-.13q.15-.28.33-.57c.06-.09.12-.19.19-.28l.09-.13c.13-.17,0-.05,0,0"/><path id="Fill-76" class="cls-3" d="M75.31,128.79a1.42,1.42,0,0,0-1.88.49,1.39,1.39,0,0,0,.5,1.88c4.71,2.12,7.13,6.88,9.34,11.26A1.37,1.37,0,0,0,85.64,141c-2.41-4.78-5.2-9.95-10.33-12.25"/><path id="Fill-78" class="cls-3" d="M80.43,120.81c-1.64.62-.93,3.27.73,2.64,1.5-.57,3.07-1.28,3.82-2.8a4.17,4.17,0,0,0-1.09-4.76c-1.32-1.27-3.21-1.66-4.93-2.06-2.12-.48-4.25-.9-6.4-1.24s-4.22-.67-6.35-.84a6.47,6.47,0,0,0-4.77,1.5c-2.84,2.22-5.58,4.65-6.95,8.07-.66,1.64,2,2.35,2.64.73,1-2.48,3.13-4.29,5.14-6,1-.85,1.94-1.68,3.36-1.64a40.06,40.06,0,0,1,4.49.51c3.07.44,6.13,1,9.14,1.75,1.13.28,2.89.65,3.27,2s-1.21,1.79-2.1,2.13"/><path id="Fill-80" class="cls-3" d="M75.39,113.75a1.37,1.37,0,0,0,2.37,1.38c.9-1.6,1.8-3.5,1.32-5.38A4.42,4.42,0,0,0,76,106.66a10.67,10.67,0,0,0-3.86-.31c-2,.11-3.94.26-5.92.39l-5.92.4a10.58,10.58,0,0,0-3.58.58,20.6,20.6,0,0,0-4.23,3.15,34.29,34.29,0,0,0-4.62,4.31c-1.11,1.36.82,3.31,1.94,1.94A35.58,35.58,0,0,1,55,112.38c.75-.61,1.5-1.21,2.28-1.77a3.86,3.86,0,0,1,2.28-.67c3.9-.3,7.81-.52,11.71-.79,1.37-.09,3.1-.37,4.38.29,1.71.89.45,3.13-.21,4.31"/><path id="Fill-90" class="cls-3" d="M99.43,152.47c-.77-1.59-3.14-.2-2.37,1.38,2.6,5.36,17.08,39.77,19.42,45.24a1.39,1.39,0,0,0,1.88.5,1.43,1.43,0,0,0,.49-1.88c-2.34-5.47-16.82-39.89-19.42-45.24"/><path id="Fill-100" class="cls-2" d="M51.5,21.53a341.86,341.86,0,0,1,34.58-2.78A2.21,2.21,0,0,0,88,16.31a2.24,2.24,0,0,0-2.44-1.92A342.32,342.32,0,0,0,51,17.17c-2.8.37-2.29,4.73.52,4.36"/><path id="Fill-102" class="cls-2" d="M99,28.88q-25.15.71-50.24,3-7.14.68-14.27,1.46c-2.81.31-2.3,4.67.51,4.36q25-2.78,50.18-3.95,7.17-.33,14.34-.53a2.2,2.2,0,0,0,1.92-2.44A2.24,2.24,0,0,0,99,28.88"/><path id="Fill-104" class="cls-2" d="M99.19,50a2.2,2.2,0,0,0,1.92-2.44,2.25,2.25,0,0,0-2.43-1.93c-3.59.15-7.17.31-10.76.48A2.21,2.21,0,0,0,86,48.53a2.24,2.24,0,0,0,2.44,1.92c3.58-.17,7.17-.33,10.75-.47"/><path id="Fill-106" class="cls-2" d="M36,54q21.14-1.85,42.32-3c2.82-.16,2.3-4.52-.52-4.36q-21.18,1.2-42.31,3c-2.82.25-2.31,4.61.51,4.36"/><path id="Fill-108" class="cls-2" d="M70.29,66.42a2.23,2.23,0,0,0,2.43,1.92q14.61-.72,29.24-1a2.2,2.2,0,0,0,1.92-2.44A2.24,2.24,0,0,0,101.45,63q-14.62.3-29.24,1a2.2,2.2,0,0,0-1.92,2.44"/><path id="Fill-110" class="cls-2" d="M63.83,68.82c2.83-.16,2.3-4.53-.51-4.36Q49,65.3,34.78,66.56c-2.82.24-2.3,4.6.51,4.36q14.26-1.26,28.54-2.1"/><path id="Fill-112" class="cls-2" d="M100.07,80.64c-13.59.43-23.54.7-37.1,1.69-2.82.21-2.3,4.57.51,4.36C77,85.71,87,85.43,100.59,85a2.21,2.21,0,0,0,1.92-2.43,2.25,2.25,0,0,0-2.44-1.93"/><path id="Fill-114" class="cls-2" d="M52.8,83.13q-7.62.65-15.24,1.4a2.2,2.2,0,1,0,.52,4.36q7.61-.77,15.23-1.4a2.19,2.19,0,1,0-.51-4.36"/><g id="business_spot_hero_spot_hero_opt_in_pos_activated" data-name="business/spot_hero/spot_hero_opt_in_pos_activated"><path id="Fill-8-2" data-name="Fill-8" class="cls-7" d="M265.61,165.61s-33.82-26.31-47.75-31-40,1.33-40,1.33-22.77.85-26.31,2.4-30.12,30.09-31.67,33,8.9,19.67,19.52,22.33V201c5.41-.3,10.66-.68,15.5-.83,17.17-.54,34.33-.73,51.49-.75,24.23,0,48.55-.17,72.82.17-2.41-9.07-7.94-28-13.59-34"/><path id="Fill-10-2" data-name="Fill-10" class="cls-8" d="M193.88,154.12s2.62,11.38,4.61,15.52a1.84,1.84,0,0,0,1.9,1c5.85-.74,31.06-6.44,32.73-29.39,0,0,.66-6-14.37-8.18s-37-.55-37-.55-10.94,14.7-.54,31.68a1.89,1.89,0,0,0,2.81.56c2.72-2.22,7.89-6.77,9.89-10.68"/><path id="Fill-12-2" data-name="Fill-12" class="cls-9" d="M276.82,191.2c-.94-3.15-2-6.55-3.24-9.85-3.89.9-15.93,4.14-15.93,9.79s14.86,1.43,19.17.06"/><path id="Fill-14" class="cls-8" d="M139.39,196.25l5-8.53c-14.52-6.55-19.79-15.95-21.5-20.11a35.35,35.35,0,0,0-3,3.75c-1.55,2.87,8.9,19.67,19.52,22.32Z"/><path id="Fill-16" class="cls-10" d="M248.44,152.94c-1.66-6-9.47-6.23-9.47-6.23-5,19.34-30.17,49.19-30.17,49.19-24.54-.23-44.66-16.36-44.66-16.36,5.9-30.73,12.38-43.77,12.38-43.77l-5.74-.56s-3.54,4-8.29,15.81a184.57,184.57,0,0,1-12.72,24.54c-9.45,11.23-13.35,20.88-14.85,25.65,7-.29,13.8-.85,20-1,17.16-.54,34.32-.74,51.48-.75,8.19,0,16.39,0,24.59,0,4.43-18.11,17.47-46.44,17.47-46.44"/><path id="Fill-18" class="cls-3" d="M256.07,94.07s10.05,18.89,8.86,36.2c-1.54,22.48-23.75,17.65-27.84,16.3-3.24-1.08-12.62-5.32-11.94-19.46,0,0,.68-7.36,4.32-11.09S225.83,106,223.11,96.9s-8.76-23.76-.8-27.84,33.19,16.64,33.76,25"/><path id="Fill-20" class="cls-3" d="M173.89,67.82c1.44-5.84,6.57-9.94,7.51-16.22.28-1.91.32-5.46-1.56-6.7-2.58-1.71-6.45,2.72-8.26,4.19-13,10.61-18.86,27.44-23,43.1-2.41,9.12-5.11,19.47-2.32,28.81,0,0,5.68,19,22.85,7.46C169.12,128.46,171.71,76.68,173.89,67.82Z"/><path id="Fill-22" class="cls-11" d="M168.23,69.89c-2.06,10.84-6.89,38.23-4.64,56.59,0,0,1.44,15.26,22.22,16.58,0,0-.89,4,.66,6.41,1.17,1.84,5.23,6.18,15.68,5.18a31.67,31.67,0,0,0,21.5-11.49A28.09,28.09,0,0,0,228,136s-2.43-16.36-.88-19.23c0,0,5,4.55,12.15.22,6.19-3.76,6.86-14.48,1.55-19.24A9.36,9.36,0,0,0,235,95.5c-3.93,0-9.29,6.52-10.27-.84-1-7.12,1.78-14.73-1-21.37-4.22-10.22-16.59-15-26.73-16s-17,1.08-21.33,3.38c-3.57,1.91-6.76,5.25-7.52,9.22"/><path id="Fill-24" class="cls-3" d="M167.26,54.62c-1.3,2.26-8,13.71-2.25,14.65a4,4,0,0,0,1.29-.07l2.95-.5c-.3,0,1.23-7.27,1.55-7.92a13.48,13.48,0,0,0,.35,5.25,3.75,3.75,0,0,0,.74,1.56,1.59,1.59,0,0,0,1.57.53,20.39,20.39,0,0,1,.07-3.94,9.21,9.21,0,0,1,1.64-3.89c1.22-1.47,1.53-.72,1.66.91s-.13,3.42.13,5.11a1.47,1.47,0,0,0,.48,1,1.6,1.6,0,0,0,.76.21c2.84.31,6.7,1.36,9.38-.15a5.77,5.77,0,0,0,1.34-1.18l6-6.55a32.46,32.46,0,0,1-.28,3.54c-.14,1-.89,2.8-.73,3.81s-.2.41.69.94a6.57,6.57,0,0,0,1.93.4,25.46,25.46,0,0,0,3.9.34c1.1-1.44,2.23-2.87,3.38-4.27.86-1,1.9-2.15,3.25-2.2a14.06,14.06,0,0,0-2.23,6,1.4,1.4,0,0,0,.08.86,1.45,1.45,0,0,0,.68.56,12.63,12.63,0,0,0,7.16,1.17,31.64,31.64,0,0,1,6.63-6.94l-1.19,5.6a5.08,5.08,0,0,0,0,3,5.11,5.11,0,0,0,2.06,2.06c2.65,1.79,5.22,3.65,7.74,5.55s5.73,2.4,8.46,3.76a21.72,21.72,0,0,1,9.92,7,104,104,0,0,1,9.33,12.29A107,107,0,0,1,264.5,119c.3-11.32-1.62-22.58-4.67-33.45-2.95-10.52-6-21.52-13.22-29.94-8.67-10.14-21.05-17.3-34.48-18.54-11.32-1-25.41,1.3-35.12,7.27A29,29,0,0,0,167.26,54.62Z"/><path id="Fill-32" class="cls-3" d="M227.15,116.76c-3.54,3.64-4.2,10.83-4.2,10.83-.67,13.81,8.45,18,11.6,19,.84.28,6.47,1.8,10.89,1.29,2.63-2.06-2.07-5.61-3.81-10.8-4.76-14.14-14.48-20.33-14.48-20.33"/><path id="Fill-36" class="cls-9" d="M135.63,163.62c3.05-2.21.73-6.47-1-8.9-2.26,2.39-4.48,4.78-6.49,7,2.4,2.1,5.32,3.49,7.48,1.92"/><path id="Fill-40" class="cls-3" d="M157.22,121.15c1,7.85,3.71,17.86,11.57,21.42,4.94,2.24,10.39,2.93,15.77,3a106.2,106.2,0,0,0,20-1.81,2.77,2.77,0,0,0,1.92-3.37,2.81,2.81,0,0,0-3.38-1.92,102,102,0,0,1-16.54,1.62c-2,0-4,0-5.94-.22l-1.1-.11-.63-.08c-.7-.07.61.1-.07,0s-1.38-.22-2.07-.36a31.53,31.53,0,0,1-3.15-.79l-1.14-.39-.52-.2c-.63-.24.19.09.14.07-.57-.28-1.16-.51-1.71-.82a10.33,10.33,0,0,1-3.61-3.75,24.26,24.26,0,0,1-2.74-6.43c-.33-1.13-.62-2.28-.85-3.44-.1-.48-.19-1-.28-1.45,0-.23-.07-.46-.11-.69l-.06-.43c.05.38.06.42,0,.11A2.84,2.84,0,0,0,160,118.4c-1.34,0-2.93,1.27-2.74,2.75"/><path id="Fill-42" class="cls-3" d="M234.09,101.46a8.3,8.3,0,0,0-4.52,9.09,1,1,0,0,0,2-.55,2.56,2.56,0,0,1-.05-.27s0-.25,0-.11c0-.18,0-.36,0-.55s0-.4,0-.6a2.45,2.45,0,0,1,0-.27.5.5,0,0,1,0-.11,7.59,7.59,0,0,1,.26-1.07,4.89,4.89,0,0,1,.38-.93,6,6,0,0,1,3-2.86,1,1,0,0,0-1-1.77"/><path id="Fill-58" class="cls-3" d="M158,176.16A87.75,87.75,0,0,0,200.63,197a86.16,86.16,0,0,0,13.5,1.37,1,1,0,0,0,0-2.06,85.82,85.82,0,0,1-44-13.46,84,84,0,0,1-10.68-8.1c-1-.88-2.45.57-1.46,1.45"/><path id="Fill-60" class="cls-3" d="M190.31,91.45a66.52,66.52,0,0,0-4.42,5.36,19,19,0,0,0-3.13,6.06c-.56,2.23.39,4.54,2.79,5s4.23-.85,5.84-2.36c1.29-1.21-.66-3.15-1.94-1.94-.88.82-2.2,2.08-3.53,1.55s-.28-2.4.11-3.22c1.5-3.24,3.88-5.92,6.23-8.56,1.17-1.32-.77-3.26-1.95-1.94"/><path id="Fill-62" class="cls-3" d="M189.28,104.16a3.11,3.11,0,0,0,.07,3.31,4,4,0,0,0,2.5,1.7,4.43,4.43,0,0,0,4.93-2.37,4.54,4.54,0,0,0,.22-3.28,1.37,1.37,0,1,0-2.65.73,1.4,1.4,0,0,1,.09.29c0,.14,0,.44,0,0,0,.18,0,.36,0,.54s0,.1,0-.14l0,.15c0,.08,0,.15-.05.23a1.66,1.66,0,0,0-.1.29c.09-.21.11-.24.05-.11l0,.07a1.35,1.35,0,0,1-.15.26.57.57,0,0,1-.08.13c-.09.12-.06.09.07-.09l-.15.17a2.41,2.41,0,0,0-.24.21c.18-.13.21-.16.09-.08l-.13.09-.21.11c-.13.06-.09,0,.11,0l-.14.06-.27.07c-.08,0-.19,0-.27.06l.13,0h-.55l.13,0a1.41,1.41,0,0,0-.31-.07,1,1,0,0,0-.22-.08l.11,0-.14-.07-.24-.15c-.09-.06-.05,0,.11.09l-.12-.11c-.06,0-.15-.19-.22-.23.13.18.15.2.07.09a.43.43,0,0,0,0-.07s0-.1-.08-.14c.08.2.1.23,0,.09s0-.1,0-.16,0-.11,0,.11a1.07,1.07,0,0,0,0-.25c0-.15,0-.11,0,.11,0,0,0-.1.05-.16s0-.1-.05.1l.09-.15a1.38,1.38,0,0,0-.49-1.87,1.4,1.4,0,0,0-1.88.49"/><path id="Fill-64" class="cls-3" d="M205.63,108.23a8.31,8.31,0,0,0,3.2,5.33c1.73,1.23,3.92,1.52,6,1.78a1,1,0,0,0,0-2.06,10.88,10.88,0,0,1-4.82-1.42,6.3,6.3,0,0,1-2.37-4.18,1,1,0,0,0-2,.55"/><path id="Fill-66" class="cls-3" d="M175.72,113.18c-1.42,6,.08,14.25,5.8,17.55,3.19,1.84,7.18,2.08,10.75,1.6A18.3,18.3,0,0,0,202.86,127c3.55-3.54,5.77-8.1,7.91-12.56.57-1.19-1.2-2.23-1.78-1-3.16,6.6-6.91,14.22-14.55,16.38-5.15,1.45-12.1,1-15.09-4.07a17.24,17.24,0,0,1-1.64-12c.31-1.28-1.68-1.83-2-.54"/><path id="Fill-68-2" data-name="Fill-68" class="cls-3" d="M209.88,113.93a56.23,56.23,0,0,1-5.49,9.75,19,19,0,0,1-8.71,6.8,19.68,19.68,0,0,1-6.38,1c-7.42,0-10.05-3.57-11.3-6.12a19,19,0,0,1-1.67-8.3,14.28,14.28,0,0,1,.39-3.63s10.83,4.76,25.35-.14c0,0,5.93-2.53,6.87-1Z"/><path id="Fill-72-2" data-name="Fill-72" class="cls-3" d="M203.5,78.65a14.26,14.26,0,0,1,11.07,1.9,1.65,1.65,0,1,0,1.67-2.85,17.64,17.64,0,0,0-13.61-2.22,1.64,1.64,0,1,0,.87,3.17"/><path id="Fill-74-2" data-name="Fill-74" class="cls-3" d="M177.34,74.78c3.9-.36,8.16-.76,11.76,1.11a1.69,1.69,0,0,0,2.26-.59,1.66,1.66,0,0,0-.6-2.25c-4.18-2.17-8.87-2-13.42-1.57a1.69,1.69,0,0,0-1.65,1.65,1.66,1.66,0,0,0,1.65,1.65"/><path id="Fill-76-2" data-name="Fill-76" class="cls-1" d="M180.54,114.18s-.78,3.22,0,5,12.37,2.91,18.92-1.81c5.44-3.93,1.2-3.93,1.2-3.93a33.23,33.23,0,0,1-20.12.73"/><path id="Fill-78-2" data-name="Fill-78" class="cls-3" d="M173.53,112.35c10.2,6.07,23.69,4.42,34.21.05,1.2-.51.67-2.5-.55-2-10,4.17-22.88,6-32.63.16a1,1,0,0,0-1,1.78"/><path id="Fill-80-2" data-name="Fill-80" class="cls-12" d="M190.21,132.55s.23-5.89,6.26-6.71a45.17,45.17,0,0,1,7.49,0,18.37,18.37,0,0,1-13.75,6.71"/><path id="Fill-82-2" data-name="Fill-82" class="cls-1" d="M180.52,83.49s8.43.55,8,3.85-8.73,2.29-8.73,2.29-8.36-.56-7.54-4.36c.51-2.42,8.23-1.78,8.23-1.78"/><path id="Fill-84" class="cls-3" d="M182.11,89.61c-3.68,0-3.68-5.72,0-5.72s3.69,5.72,0,5.72"/><path id="Fill-82-3" data-name="Fill-82" class="cls-1" d="M207.75,87.27s8.43.56,8,3.86-8.73,2.29-8.73,2.29-8.36-.57-7.55-4.36c.52-2.42,8.24-1.79,8.24-1.79"/><path id="Fill-84-2" data-name="Fill-84" class="cls-3" d="M209.34,93.39c-3.68,0-3.69-5.72,0-5.72s3.69,5.72,0,5.72"/></g><path class="cls-13" d="M103.71,81.75a12.11,12.11,0,0,0-5.94,21.33l.51.39.07,0h0l.22.14.23.16a11.47,11.47,0,0,0,2,1,2.21,2.21,0,0,1,.27.12l.15.06.6.21h0c.31.1.6.18.9.25l.06,0,.34.07.26.06s0,0,0,0a12,12,0,0,0,3.87.06,11.81,11.81,0,0,0,3.68-1.17l0,0a.76.76,0,0,0,.23-.13,2.4,2.4,0,0,0,.32-.17.11.11,0,0,1,.06,0,4.39,4.39,0,0,0,.51-.32c.17-.11.34-.23.49-.35a11.58,11.58,0,0,0,2.21-2c.11-.14.24-.29.34-.44a.18.18,0,0,0,.05-.07,12.1,12.1,0,0,0-11.47-19.22Zm7.35,16.31a1.19,1.19,0,0,1-.26,1.4,1.18,1.18,0,0,1-.65.32,1.15,1.15,0,0,1-.76-.15l-3.31-1.82-2.64,2.7a1.2,1.2,0,0,1-2.06-1l.6-3.95L98.6,93.66A1.2,1.2,0,0,1,99,91.41l3.69-.55.6-3.91a1.22,1.22,0,0,1,2.3-.34l1.7,3.57,3.7-.54a1.2,1.2,0,0,1,1,2l-2.7,2.78Z"/><path class="cls-13" d="M107.6,108.11a14.35,14.35,0,0,1-6.19-.43,14.11,14.11,0,0,1-2.6-1l1.64,11.1a1.2,1.2,0,0,0,1.89.81l6.17-4.3,7.14,2.34a1.19,1.19,0,0,0,.56,0,1.17,1.17,0,0,0,.6-.27,1.22,1.22,0,0,0,.42-1.1l-1.64-11.1a13,13,0,0,1-2.19,1.74A14.22,14.22,0,0,1,107.6,108.11Z"/><path id="Fill-84-3" data-name="Fill-84" class="cls-1" d="M132.81,1.5,121.17,6.09A2.22,2.22,0,0,0,120,9a2.24,2.24,0,0,0,2.87,1.19l11.65-4.6a2.21,2.21,0,0,0,1.18-2.87,2.23,2.23,0,0,0-2.87-1.18"/><path id="Fill-82-4" data-name="Fill-82" class="cls-1" d="M10.83,137.17l8.61-5a2.19,2.19,0,1,0-2.26-3.76l-8.62,5a2.23,2.23,0,0,0-.75,3,2.25,2.25,0,0,0,3,.76"/><path id="Fill-84-4" data-name="Fill-84" class="cls-1" d="M35.11,152.43l3.24-12.09a2.21,2.21,0,0,0-1.6-2.66,2.24,2.24,0,0,0-2.66,1.6l-3.24,12.09a2.21,2.21,0,0,0,1.6,2.66,2.24,2.24,0,0,0,2.66-1.6"/></svg>