<svg id="Layer_1" data-name="Layer 1" xmlns="http://www.w3.org/2000/svg" xmlns:xlink="http://www.w3.org/1999/xlink" viewBox="0 0 300 200"><defs><style>.cls-1{fill:#fff;}.cls-1,.cls-10,.cls-11,.cls-12,.cls-13,.cls-14,.cls-15,.cls-16,.cls-17,.cls-2,.cls-3,.cls-31,.cls-32,.cls-33,.cls-34,.cls-6{fill-rule:evenodd;}.cls-2{fill:#97d34e;}.cls-3{fill:#b3e7f3;}.cls-4,.cls-5,.cls-7,.cls-8,.cls-9{fill:none;stroke-linecap:round;stroke-linejoin:round;}.cls-4,.cls-5{stroke:#b3e7f3;}.cls-4{stroke-width:1.47px;}.cls-5{stroke-width:1.42px;}.cls-6{fill:#a84600;}.cls-7{stroke:#a84600;stroke-width:0.97px;}.cls-8,.cls-9{stroke:#783200;}.cls-8{stroke-width:1.19px;}.cls-9{stroke-width:1.23px;}.cls-11{fill:#dd7b6b;}.cls-12{fill:#86bd42;}.cls-13{fill:#da7c6c;}.cls-14{fill:#e6e6e6;}.cls-15{fill:#044758;}.cls-16{fill:#008daf;}.cls-17{fill:#00aa13;}.cls-18{mask:url(#mask);}.cls-19{mask:url(#mask-2);}.cls-20{mask:url(#mask-3);}.cls-21{mask:url(#mask-4-2);}.cls-22{mask:url(#mask-5);}.cls-23{mask:url(#mask-6-2);}.cls-24{mask:url(#mask-7);}.cls-25{mask:url(#mask-8-2);}.cls-26{mask:url(#mask-9);}.cls-27{mask:url(#mask-10-2);}.cls-28{mask:url(#mask-11);}.cls-29{mask:url(#mask-12-2);}.cls-30{mask:url(#mask-13);}.cls-31{fill:#ff6e00;}.cls-32{fill:#ce4700;}.cls-33{fill:#ffa4ad;}.cls-34{fill:#fd405a;}</style><mask id="mask" x="28.61" y="115.19" width="1.08" height="2.04" maskUnits="userSpaceOnUse"><g id="mask-4"><polygon id="path-3" class="cls-1" points="28.61 115.19 29.69 115.19 29.69 117.23 28.61 117.23 28.61 115.19"/></g></mask><mask id="mask-2" x="28.61" y="117.85" width="1.17" height="2.06" maskUnits="userSpaceOnUse"><g id="mask-6"><polygon id="path-5" class="cls-1" points="28.61 117.85 29.77 117.85 29.77 119.91 28.61 119.91 28.61 117.85"/></g></mask><mask id="mask-3" x="28.61" y="112.48" width="1" height="2.08" maskUnits="userSpaceOnUse"><g id="mask-8"><polygon id="path-7" class="cls-1" points="28.61 112.48 29.61 112.48 29.61 114.56 28.61 114.56 28.61 112.48"/></g></mask><mask id="mask-4-2" x="28.61" y="103.42" width="0.76" height="1.19" maskUnits="userSpaceOnUse"><g id="mask-10"><polygon id="path-9" class="cls-1" points="28.61 103.42 29.37 103.42 29.37 104.6 28.61 104.6 28.61 103.42"/></g></mask><mask id="mask-5" x="28.61" y="104.65" width="0.8" height="2.19" maskUnits="userSpaceOnUse"><g id="mask-12"><polygon id="path-11" class="cls-1" points="28.61 104.65 29.4 104.65 29.4 106.84 28.61 106.84 28.61 104.65"/></g></mask><mask id="mask-6-2" x="28.61" y="109.89" width="0.92" height="2.09" maskUnits="userSpaceOnUse"><g id="mask-14"><polygon id="path-13" class="cls-1" points="28.61 109.89 29.53 109.89 29.53 111.98 28.61 111.98 28.61 109.89"/></g></mask><mask id="mask-7" x="28.61" y="107.27" width="0.86" height="2.1" maskUnits="userSpaceOnUse"><g id="mask-16"><polygon id="path-15" class="cls-1" points="28.61 107.27 29.46 107.27 29.46 109.36 28.61 109.36 28.61 107.27"/></g></mask><mask id="mask-8-2" x="28.61" y="111.64" width="0.96" height="1.19" maskUnits="userSpaceOnUse"><g id="mask-18"><polygon id="path-17" class="cls-1" points="28.61 111.64 29.57 111.64 29.57 112.82 28.61 112.82 28.61 111.64"/></g></mask><mask id="mask-9" x="28.61" y="114.28" width="1.04" height="1.19" maskUnits="userSpaceOnUse"><g id="mask-20"><polygon id="path-19" class="cls-1" points="28.61 114.28 29.64 114.28 29.64 115.47 28.61 115.47 28.61 114.28"/></g></mask><mask id="mask-10-2" x="28.61" y="109.04" width="0.89" height="1.19" maskUnits="userSpaceOnUse"><g id="mask-22"><polygon id="path-21" class="cls-1" points="28.61 109.03 29.5 109.03 29.5 110.22 28.61 110.22 28.61 109.03"/></g></mask><mask id="mask-11" x="28.61" y="106.46" width="0.82" height="1.19" maskUnits="userSpaceOnUse"><g id="mask-24"><polygon id="path-23" class="cls-1" points="28.61 106.46 29.43 106.46 29.43 107.65 28.61 107.65 28.61 106.46"/></g></mask><mask id="mask-12-2" x="28.61" y="103.89" width="0.77" height="1.19" maskUnits="userSpaceOnUse"><g id="mask-26"><polygon id="path-25" class="cls-1" points="28.61 103.89 29.38 103.89 29.38 105.07 28.61 105.07 28.61 103.89"/></g></mask><mask id="mask-13" x="28.61" y="116.95" width="1.12" height="1.19" maskUnits="userSpaceOnUse"><g id="mask-28"><polygon id="path-27" class="cls-1" points="28.61 116.95 29.73 116.95 29.73 118.13 28.61 118.13 28.61 116.95"/></g></mask></defs><title>Website Illustrations</title><g id="agent_spot_hero_spot_hero_no_upcoming_kopdar" data-name="agent/spot_hero/spot_hero_no_upcoming_kopdar"><path id="Fill-174" class="cls-2" d="M140.4,190.51c-.43,3.78-.19,7.16,1.62,9a3.36,3.36,0,0,0,1.46.73c9.21,2.8,17.94.63,27.38.77q18.12.28,36.22.12,36.22-.33,72.39-2.43c.25,0-1.15-16.94-1.21-18.22-.42-10.3-.82-20.6-1.68-30.88-.79-9.46-1.75-19.1-4.35-28.26-6.68-23.49-44-35.3-44-35.3l-16.74-3.1c-4.48-.83-8.67-2.52-13.22-2.7-4.36-.17-8.45-2.08-12.75-2.86l-1-.18c-8.39-1.36-16.74-.3-25,1.5-7.59,1.67-14.2,3.18-20.94,7.43-6.18,3.91-11.73,8.72-17.67,13s-12.51,8.07-18,13c-1.78,1.63-.87,4.83,1,5.88,1.68,1,4,.59,5.9.89a67.76,67.76,0,0,1,11.3,2.85,68.86,68.86,0,0,1,19.62,10.62c2.24,1.73,6.16,4.22,7.5,6.76,1.47,2.8.09,6.71-.38,9.89q-1.81,12.57-3.8,25.1C143.55,177.33,141.1,184.44,140.4,190.51Z"/><path id="Fill-186" class="cls-1" d="M224.42,132.54a9.35,9.35,0,0,0-11.52,7.7A11,11,0,0,0,217.69,151a2,2,0,0,0,.67.29,1.77,1.77,0,0,0,1.93-.79,2,2,0,0,0-.66-2.7,6.84,6.84,0,0,1-3-6.71,5.82,5.82,0,0,1,7.17-4.8l.24,0,.24.07a6.9,6.9,0,0,1,5.18,7.68,5.75,5.75,0,0,1-4.83,4.89,1.8,1.8,0,0,0-1.45,2.21,2,2,0,0,0,2.26,1.63,9.24,9.24,0,0,0,7.76-7.86,11.09,11.09,0,0,0-8.32-12.33l-.24,0-.23-.08"/><path id="Fill-188" class="cls-1" d="M219.25,141.74a4.23,4.23,0,0,0,3.17,4.71,3.57,3.57,0,0,0,4.4-2.94,4.24,4.24,0,0,0-3.18-4.71,3.55,3.55,0,0,0-4.39,2.94"/><path id="Fill-312" class="cls-3" d="M171.67,171.22l.68,5.47s2.42,2.13,9.89,2.86,11.49-1.47,11.49-1.47l1.84-5.17Z"/><path id="Stroke-314" class="cls-4" d="M171.67,171.22l.68,5.47s2.42,2.13,9.89,2.86,11.49-1.47,11.49-1.47l1.84-5.17Z"/><path id="Fill-316" class="cls-3" d="M169.46,131.91c-.24,2.9.62,40.66.62,40.66s3.89,3.39,13.63,4.21c3.68.31,9.64-.51,12.67-2.47,0,0,6.47-31,7-36.55s-6.86-9.59-16.3-10.39c-8.91-.75-17.32,1.64-17.57,4.54"/><path id="Stroke-318" class="cls-5" d="M170.08,172.57s3.89,3.39,13.63,4.21c3.68.31,9.64-.51,12.67-2.47,0,0,6.47-31,7-36.55s-6.86-9.59-16.3-10.39c-8.91-.75-17.32,1.64-17.57,4.54S170.08,172.57,170.08,172.57Z"/><path id="Fill-320" class="cls-6" d="M172.11,142.15c0,1.72.86,28.38.86,28.38s3.11,2.07,10.79,2.72c2.89.25,7.56-.14,9.92-1.26,0,0,5.27-23.81,5.77-27.08.34-2.25-4.18-5.85-11.59-6.74-9.62-1.15-15.74,1.43-15.75,4"/><path id="Stroke-322" class="cls-7" d="M173,170.53s3.11,2.07,10.79,2.72c2.89.25,7.56-.14,9.92-1.26,0,0,5.27-23.81,5.77-27.08.34-2.25-4.18-5.85-11.59-6.74-9.62-1.15-15.74,1.43-15.75,4C172.1,143.87,173,170.53,173,170.53Z"/><path id="Stroke-324" class="cls-8" d="M188.1,171.86c.6-2.54,1.37-5.83,2-8.37.34-1.46.52-2.71,1-4.11.24-.75,1.08-3.06,2.33-2.79.79.16,1.24.95,1.31,2a11.83,11.83,0,0,1-.26,2c-.24,1.76-2.23,9.1-2.47,10.57"/><path id="Stroke-326" class="cls-9" d="M181.22,171.32c.19-2.28.35-4.57.54-6.46.29-2.79.44-9.15,2.63-9s1.56,5.73,1.52,6.44c-.21,3.68-.19,6.51-.54,9.41"/><path id="Stroke-328" class="cls-9" d="M178.7,170.91c-.17-2.67-.44-10.95-.58-12.46-.28-3-1.08-3.56-2.37-3.27s-1.2,2.2-1.25,5.65c-.06,3.22.38,7.61.43,8.73"/><path id="Fill-330" class="cls-1" d="M171.22,134a.82.82,0,0,0-1.41.82c2.87,4.66,9.76,5.89,14.7,6.47a40.23,40.23,0,0,0,11.85-.17c2.08-.38,4.74-1,6.14-2.72.65-.81-.49-2-1.15-1.15-1.3,1.61-3.9,2.06-5.82,2.37a39.2,39.2,0,0,1-10.49.11c-4.43-.48-11.21-1.49-13.82-5.73"/><path id="Fill-332" class="cls-1" d="M197,132.52c.88.57,1.69-.83.82-1.41-2.56-1.68-5.7-2-8.67-2.28a.81.81,0,0,0-.81.81.83.83,0,0,0,.81.81c2.69.27,5.53.55,7.85,2.07"/><path id="Fill-334" class="cls-10" d="M195.49,175.74a16.14,16.14,0,0,1-4.5.84c-3.55.36-4.83.38-4.83.38l8.57.92.76-2.14"/><path id="Fill-336" class="cls-11" d="M179.68,163c-2-1.16-2.24-4.69,1.06-4.86-.26,0-3-.12-2.31-3.22s4-2.59,8.56-2.33,14,.88,14.29.9c-.39-.11-12.82-3.75-15.86-5.34s-3-5-.35-5.18,15.12,3.06,17.63,3.9l.91-4.77c.29.31,1.88,3.15,3.09,4,7.23,5.06,12,12.1,13.26,13.59S229,165.5,229,165.5l-6.86,17.44-8.49-6.47A17.89,17.89,0,0,1,199,173.69s-8.69.87-11.6.89-5.44-5.2.71-6a63.69,63.69,0,0,0,9.69-1.9l-3.95-.74c-1.61-.3-12.1-1.82-14.12-3"/><path id="Fill-338" class="cls-10" d="M201.21,153.9c1,.23,1.44-1.33.42-1.56a129.81,129.81,0,0,1-15.54-4.57c-1-.36-1.39,1.2-.43,1.56a128.89,128.89,0,0,0,15.55,4.57"/><path id="Fill-340" class="cls-10" d="M199.9,160.76c1,.17,1.45-1.39.43-1.56q-9.06-1.55-18.18-2.55c-1-.12-1,1.5,0,1.61q8.91,1,17.75,2.5"/><path id="Fill-362" class="cls-12" d="M223,80.45a6.34,6.34,0,0,1,6.23,5.45l.64,4.46A11.26,11.26,0,0,1,228,98.2l-13.31,19.73a1.88,1.88,0,0,1-3.19,0l-6.41-13.41L203.22,95l-5.84,9.31-9.45,12.5c-1,1.29-3,1.25-3.53-.07l-5.64-23.52a7,7,0,0,1,1.32-5.73l5.46-7.35Z"/><path id="Fill-364" class="cls-13" d="M186.39,93.3a6.42,6.42,0,0,1-1.3-5.69L187,79.12l40.06-5.82-2.75,15.13a11.65,11.65,0,0,1-5,7.35l-14.33,9.8-5.49,11.77c-.33.7-1.39.66-1.44-.06l-.78-11.37Z"/><path id="Fill-366" class="cls-13" d="M232,68.08l3.78,1.35,10.79-18.51-14.85-9.79L215.91,17l-30.64.53S173.33,57,175.71,69.48c2,10.64,10.39,15.87,19,16.83C209.65,88,224,78.8,224,78.8Z"/><path id="Fill-368" class="cls-10" d="M204.25,58.89a1,1,0,0,0-.33-1.27.93.93,0,0,0-1.27.33c-.06.11-.12.23-.19.34l-.1.16a1.16,1.16,0,0,0-.11.16l.07-.08-.08.09-.11.12-.07.06c-.06.05-.06.06,0,0l-.07,0-.11.06.1,0-.22.06h-.52a2.74,2.74,0,0,1-.39-.09c-.22-.07.14.08,0,0l-.15-.09c-.15-.09.14.13,0,0l-.1-.1-.12-.13c-.07-.08.11.17,0,0s-.12-.19-.17-.29a.59.59,0,0,1,0-.08c0-.07,0,0,0,.08a.52.52,0,0,0-.06-.16c0-.11-.06-.21-.08-.32a.77.77,0,0,0,0-.15c0,.15,0,.18,0,.07a.09.09,0,0,0,0,0v-.36a.93.93,0,1,0-1.85,0,3.28,3.28,0,0,0,2.06,3.33,3.36,3.36,0,0,0,2.53-.11,3.63,3.63,0,0,0,1.37-1.58"/><path id="Fill-370" class="cls-10" d="M199.77,57.88a1,1,0,0,0-.33-1.27.93.93,0,0,0-1.27.33l-.23.37a.91.91,0,0,1-.11.16c-.11.18.14-.15,0,0l-.26.26c-.14.13.16-.1,0,0l-.14.08.1,0-.11,0-.15,0c-.09,0-.22,0,0,0h-.33c-.18,0,.2,0,0,0l-.34-.1.1,0-.1,0-.14-.09-.07,0,.08.06a1.2,1.2,0,0,0-.12-.11l-.11-.13c-.13-.13.11.18,0,0a1,1,0,0,1-.08-.14l0-.08c0-.09,0-.06,0,.07,0-.1-.08-.21-.1-.32a.94.94,0,0,1,0-.16c0-.19,0,.2,0,0s0-.24,0-.36,0,.12,0,0a1.29,1.29,0,0,1,0-.19,1,1,0,0,0-.65-1.14.94.94,0,0,0-1.14.65,3.43,3.43,0,0,0,.22,2.25,2.89,2.89,0,0,0,1.6,1.47,2.77,2.77,0,0,0,2.17-.08,3.63,3.63,0,0,0,1.51-1.59"/><path id="Fill-372" class="cls-10" d="M199.52,46a.94.94,0,0,0-.65-1.14,1,1,0,0,0-1.14.65c-.64,1.58-1.31,3.14-1.89,4.74a53.51,53.51,0,0,0-1.57,5.57c-.27,1.16,1.52,1.65,1.79.49a53.33,53.33,0,0,1,1.57-5.56c.58-1.61,1.25-3.17,1.89-4.75"/><path id="Fill-374" class="cls-10" d="M206.13,86.69c1.75-.36,1-3-.74-2.68-6.41,1.33-13.88,1.73-19.68-1.79-6-3.67-8.4-11.07-7.85-17.84,1-12.28,2.56-24.92,6.38-36.67.56-1.71-2.13-2.44-2.68-.74a132.05,132.05,0,0,0-4.93,23.54A136.79,136.79,0,0,0,175,65.74,25.38,25.38,0,0,0,176.94,76a18.63,18.63,0,0,0,10,9.9c6,2.52,13,2.06,19.23.76"/><path id="Fill-376" class="cls-10" d="M194.63,33.71a1.4,1.4,0,0,0,2.69-.75c-.7-2.3-3.34-4-5.63-4.28a7,7,0,0,0-6.68,2.8,1.39,1.39,0,1,0,2.4,1.4c.23-.31-.18.17.09-.11l.17-.18a2.39,2.39,0,0,1,.23-.22c.06-.06.22-.19.07-.07a3.25,3.25,0,0,1,.55-.36l.24-.13c.36-.2-.12,0,.11,0a4.78,4.78,0,0,1,.67-.22l.36-.08s.22,0,.07,0a5.19,5.19,0,0,1,.78-.05l.4,0s.29,0,.17,0a5.06,5.06,0,0,1,2.3,1c-.12-.09,0,0,0,.05l.25.23a5,5,0,0,1,.45.47c.14.16-.14-.25,0,.06l.12.19s.16.32.07.12,0,.07,0,.12"/><path id="Fill-378" class="cls-10" d="M196.22,20.65a18.16,18.16,0,0,1-12.44,7.59c-1.82,4.52-5.44,22.33-6.48,26,0,0-15.69-14-1-38C183.16,5.08,195.43-.11,204.64,0c9.44.11,15.71,7.14,15.71,7.14s16.87-8.26,31,17.36c1.57,2.84,3.69,12.22,1.84,18.18C251,50,245.39,59.61,239.87,73.43c-3,7.61-6.37,7.4-8.26,5.5,0,0-2.76,4.61-5.22,4.49-2.1-.11-4.43-2.3-3.62-7,.94-5.49,2-8.28,2.65-9.63a1,1,0,0,1,1.52-.29c2.73,2.38,7.09,1.23,10.5-3.27,4.33-5.73,3.51-10.68-.32-13.41-2.47-1.76-5.85-1.33-8.39,1.55-2.33,2.63-4.42,4.4-6.72,3.15-2.89-1.58.34-10.75.34-10.75a53.18,53.18,0,0,1-26.13-23.1"/><path id="Fill-380" class="cls-14" d="M228.26,64.13a1.26,1.26,0,0,0,.43-.43l.12-.29a1.16,1.16,0,0,0,0-.64l-.12-.29a1,1,0,0,0-.31-.34,1,1,0,0,0-.41-.21.87.87,0,0,0-.48,0,.82.82,0,0,0-.45.14,1,1,0,0,0-.28.22,1.27,1.27,0,0,0-.32.55,1.35,1.35,0,0,0,0,.72,1.4,1.4,0,0,0,.35.6,1.26,1.26,0,0,0,.6.35,1.39,1.39,0,0,0,.73,0,1.5,1.5,0,0,0,.61-.35l0,0a2.88,2.88,0,0,0,.21-.28,1.49,1.49,0,0,0,.15-.4,1.64,1.64,0,0,0,0-.45c0-.13,0-.27,0-.41a2.17,2.17,0,0,0-.16-.38.72.72,0,0,0-.14-.2,1,1,0,0,0-.13-.16,2.43,2.43,0,0,0-.25-.2h0a1.34,1.34,0,0,0-.68-.19,1,1,0,0,0-.41.06,1.59,1.59,0,0,0-.33.14c-.08.05-.18.14-.25.19l0,0,0,0-.2.26,0,.05a2,2,0,0,0-.15.39,2.22,2.22,0,0,0,0,.45l.06.45a1.24,1.24,0,0,0,.31.53l.25.19a1.18,1.18,0,0,0,.61.16l.32,0a1,1,0,0,0,.4-.21,1,1,0,0,0,.32-.34,1,1,0,0,0,.14-.45,1,1,0,0,0,0-.48l0-.09,0,.32a1,1,0,0,1,0-.17c0,.1,0,.21,0,.32a.24.24,0,0,1,0-.09l-.12.28a.25.25,0,0,1,0-.07l-.19.25,0,0-.24.19a.05.05,0,0,1,0,0l-.29.12H228l-.32,0h0l-.32,0h.05l-.29-.12,0,0-.25-.18.05,0-.19-.25,0,.09c0-.1-.09-.19-.13-.29a.74.74,0,0,1,0,.14c0-.11,0-.22,0-.32a1,1,0,0,1,0,.17c0-.11,0-.21,0-.32a.29.29,0,0,1,0,.09l.12-.29,0,.06c.06-.08.12-.17.19-.25s0,0-.05,0l.24-.19s0,0-.05,0l.29-.12h-.05l.32,0h0l.32,0h0l.29.12,0,0,.24.19,0,0c.07.08.13.17.19.25a.08.08,0,0,0,0,0c0,.1.09.2.13.29s0,0,0,0a3.11,3.11,0,0,0,0,.32v0c0,.11,0,.21,0,.32v0l-.12.29,0,0-.19.25v0l-.24.19h0"/><path id="Fill-382" class="cls-10" d="M204.82,33.19a1.42,1.42,0,0,0-.5,1.91,1.41,1.41,0,0,0,1.9.5,11.53,11.53,0,0,1,1.11-.56l-.33.14a10.52,10.52,0,0,1,2.69-.73l-.37,0,.55-.06a1.39,1.39,0,0,0,1-2.37,1.36,1.36,0,0,0-1-.41,11.94,11.94,0,0,0-5.05,1.53"/><path id="Fill-384" class="cls-10" d="M236.28,54.49a1,1,0,0,0,.93-.92.93.93,0,0,0-.93-.93,8,8,0,0,0-2.23.47,5.68,5.68,0,0,0-2.67,2.24,5.56,5.56,0,0,0-.88,4.43,4.15,4.15,0,0,0,2.85,2.71.93.93,0,0,0,.49-1.79,2.15,2.15,0,0,1-1.63-1.78,4.22,4.22,0,0,1,1-2.92,5.67,5.67,0,0,1,.42-.46,3.55,3.55,0,0,1,.33-.28,5.74,5.74,0,0,1,.53-.32l.23-.11c-.18.08,0,0,.07,0a7.81,7.81,0,0,1,1-.25l.22,0c-.28,0-.07,0,0,0l.36,0"/><path id="Fill-386" class="cls-10" d="M185.33,38.23a.67.67,0,0,0,.92.24.68.68,0,0,0,.25-.92c-.36-.7-.74-1.38-1.15-2a.67.67,0,1,0-1.16.68c.4.67.79,1.35,1.14,2"/><path id="Fill-388" class="cls-10" d="M183.57,39.28a.71.71,0,0,0,.47.2.67.67,0,0,0,.48-1.15A16.86,16.86,0,0,0,183,37.1a.68.68,0,0,0-.93.24.73.73,0,0,0-.07.52.76.76,0,0,0,.31.41l.65.47-.14-.1c.27.2.53.42.79.64"/><path id="Fill-390" class="cls-1" d="M183.25,39.35a1.85,1.85,0,0,0,.83,2.53c.71.32,3.41,0,5.79.33s3.7.91,4.39.82A2.24,2.24,0,0,0,196,40.69c0-.93-.67-2.78-4.44-3.71a11.47,11.47,0,0,0-5.46,0,4.52,4.52,0,0,0-2.83,2.41"/><path id="Fill-392" class="cls-10" d="M187.52,42.14c2.74,0,2.74-4.26,0-4.26s-2.74,4.26,0,4.26"/><path id="Fill-394" class="cls-10" d="M213.85,41.4a.88.88,0,0,0-.23.55.74.74,0,0,0,.23.54.76.76,0,0,0,.55.23.74.74,0,0,0,.54-.23c.6-.66,1.22-1.31,1.87-1.93a.8.8,0,0,0,0-1.1.82.82,0,0,0-.55-.22.78.78,0,0,0-.55.22c-.65.62-1.27,1.27-1.86,1.94"/><path id="Fill-396" class="cls-10" d="M215.81,42.84a.76.76,0,0,0-.36.46.84.84,0,0,0,.08.6.81.81,0,0,0,.46.35.83.83,0,0,0,.6-.07c.36-.19.72-.35,1.09-.51l-.18.08c.27-.12.54-.22.81-.32a.94.94,0,0,0,.47-.36.84.84,0,0,0,.08-.6.83.83,0,0,0-.36-.46.84.84,0,0,0-.6-.08,18.35,18.35,0,0,0-2.09.91"/><path id="Fill-398" class="cls-1" d="M216.93,44.34a2.13,2.13,0,0,1-1.66,2.57c-.88.14-3.77-1-6.51-1.33s-4.37-.07-5.11-.36a2.57,2.57,0,0,1-1.22-3.09c.31-1,1.55-2.9,6-2.83a13.21,13.21,0,0,1,6.07,1.55,5.17,5.17,0,0,1,2.44,3.49"/><path id="Fill-400" class="cls-10" d="M206.36,45.22c2.75,0,2.74-4.26,0-4.26s-2.74,4.26,0,4.26"/><path id="Fill-402" class="cls-10" d="M195.42,66.2c-1-.67-1.92.94-.93,1.6a9.48,9.48,0,0,0,4.32,1.34,20.4,20.4,0,0,0,5,0,12.76,12.76,0,0,0,7.85-3.88c.8-.88-.51-2.2-1.32-1.31a11,11,0,0,1-6.83,3.38,18.87,18.87,0,0,1-4.25,0,8.09,8.09,0,0,1-3.84-1.13"/><path id="Fill-404" class="cls-10" d="M210.6,62.82a1,1,0,0,0-1.14-.65.94.94,0,0,0-.65,1.15,4.27,4.27,0,0,0,2.26,2.44,4.32,4.32,0,0,0,1.77.4,9.42,9.42,0,0,0,1.9-.31.93.93,0,0,0-.49-1.79l-.82.17-.38.07h-.17a1.58,1.58,0,0,1-.31,0c-.18,0,.12,0,0,0l-.14,0-.3-.07-.16-.06s-.17-.06,0,0-.05,0-.08,0l-.12-.06-.29-.18-.12-.08s.15.12,0,0l-.23-.21c-.07-.07-.13-.15-.2-.23s.09.13,0,0l-.1-.15a1.35,1.35,0,0,1-.15-.26.75.75,0,0,1-.06-.13c-.06-.1.06.17,0,0"/><path id="Fill-406" class="cls-10" d="M199.92,71a.93.93,0,0,0-.49,1.79,8.16,8.16,0,0,0,4,.11,10.79,10.79,0,0,0,3.71-1.17c1.05-.57.11-2.18-.94-1.6a9.56,9.56,0,0,1-3.14,1,6.49,6.49,0,0,1-3.19-.1"/><path id="Fill-408" class="cls-2" d="M241.91,171c-.62-14.45-2.53-27.91-2.53-27.91"/><path id="Fill-410" class="cls-10" d="M240.58,142.72c-.23-1.57-2.61-.9-2.39.66,1.25,8.85,2.08,18.44,2.48,27.58.07,1.59,2.54,1.59,2.47,0-.41-9.43-1.24-18.88-2.56-28.24"/><path id="Fill-412" class="cls-10" d="M244.62,173.38a1.19,1.19,0,0,0,1.46-.83,1.23,1.23,0,0,0-.82-1.46c-5.22-2.19-10.43-4.38-15.63-6.61a1.23,1.23,0,0,0-1.63.42,1.21,1.21,0,0,0,.43,1.63c5.39,2.31,10.79,4.58,16.19,6.85"/><path id="Fill-416" class="cls-10" d="M229.68,166.83c.47-1.46-1.82-2.08-2.29-.63q-3.27,10.1-6.76,20.12c-.51,1.44,1.79,2.06,2.29.63q3.5-10,6.76-20.12"/><path id="Fill-4" class="cls-15" d="M126.89,95.23l5.88,73.45c.87,10.83,2,20.74,4.85,31.27a3.08,3.08,0,0,0,.61,1.35,3.21,3.21,0,0,0,2.37.72,183.67,183.67,0,0,0,34.81-2.54c.49-.08,1.05-.23,1.23-.69a1.41,1.41,0,0,0,0-.79c-4.77-26.05-6.39-53.91-17.23-78.73-14.91-34.15-32.52-24-32.52-24"/><path id="Fill-6" class="cls-10" d="M96.65,118.06a63.21,63.21,0,0,1,37.73-1.71,1.61,1.61,0,0,0,.86-3.11A66.25,66.25,0,0,0,95.79,115c-1.94.7-1.1,3.82.86,3.11"/><path id="Fill-8" class="cls-16" d="M122,92.17C106.08,85,84,93.83,84,93.83s-32.95-22.5-55.27,9.88c-1.48,2.13.28,11.07.36,13.77.18,5.55.4,11.09.62,16.64.2,5.1.14,10.06,0,15.12-.16,6.19,1.29,12.8,1.63,18.93.42,7.56,2.84,15.51,4.2,23A9.45,9.45,0,0,0,36.87,195a29.86,29.86,0,0,0,2.77,2.74c2.08,2.29,2.69,6,5.49,7.35a8.82,8.82,0,0,0,4.25.47l107.45-5.64c-5.15-8.94-5.32-19.91-7-30.08-1.31-8.13-2.35-16.42-4.17-24.45-1.56-6.87-3.23-13.73-5.31-20.45,0,0-2.55-25.54-18.44-32.75"/><path id="Fill-10" class="cls-10" d="M115.35,115.63a14.63,14.63,0,0,1-15.8,2.1c-1.14-.56-2.14,1.15-1,1.71A16.72,16.72,0,0,0,116.74,117c1-.81-.42-2.2-1.39-1.4"/><path id="Fill-12" class="cls-10" d="M105.66,119.51c2.57,4.48,4,9.67,5.27,14.63a142.71,142.71,0,0,1,3.33,18C115.36,161,116.32,170,117,179a81.94,81.94,0,0,1,.32,12.82c-.11,1.26,1.86,1.26,2,0a74,74,0,0,0-.22-11.43c-.34-5.1-.82-10.2-1.34-15.28-1-9.9-2.07-19.84-4.39-29.53-1.37-5.77-3-11.85-6-17a1,1,0,0,0-1.7,1"/><path id="Fill-14" class="cls-10" d="M103.51,103.14c2.34,1.81,2.88,5.1,3,7.87a21.83,21.83,0,0,1-1,7.74c-.4,1.2,1.51,1.72,1.9.52a23.37,23.37,0,0,0,1-8.68c-.21-3.44-1.12-7-4-9.15a1,1,0,0,0-1.35.35,1,1,0,0,0,.36,1.35"/><path id="Fill-16" class="cls-10" d="M46.3,94.22c-7.45-1.56-12.71,1.75-17.57,7.64.24,13.56.82,27.61,1.59,46.37.24,5.88,2.87,15.43,9.2,24.66,3.33-8.54,11-28.37,16.15-43.93,6.17-18.52.26-32.73-9.37-34.74"/><path id="Fill-18" class="cls-17" d="M31,153.19c-.05-.23-.09-.45-.13-.68,0,.23.08.45.13.68"/><path id="Fill-20" class="cls-17" d="M29.31,122.74c0-.71,0-1.42-.07-2.12,0,.7.05,1.41.07,2.12"/><g id="Group-24"><g class="cls-18"><path id="Fill-22" class="cls-17" d="M29.13,117.23c0-.69-.05-1.37-.07-2,0,.67,0,1.35.07,2"/></g></g><g id="Group-27"><g class="cls-19"><path id="Fill-25" class="cls-17" d="M29.21,119.91l-.06-2.06.06,2.06"/></g></g><path id="Fill-28" class="cls-17" d="M29.42,125.58q0-1.14-.09-2.25,0,1.11.09,2.25"/><path id="Fill-30" class="cls-17" d="M31.55,155.72c-.14-.52-.26-1-.37-1.53.11.5.23,1,.37,1.53"/><path id="Fill-32" class="cls-17" d="M29.52,128.41c0-.75-.05-1.49-.08-2.22,0,.73.06,1.47.08,2.22"/><path id="Fill-34" class="cls-17" d="M29.89,137.67c0-.83-.07-1.66-.1-2.47,0,.81.07,1.64.1,2.47"/><path id="Fill-36" class="cls-17" d="M30.47,150c0-.16,0-.32,0-.47,0,.15,0,.31,0,.47"/><path id="Fill-38" class="cls-17" d="M30,140.56c0-.77-.07-1.54-.1-2.3,0,.76.07,1.53.1,2.3"/><path id="Fill-40" class="cls-17" d="M29.75,134.28c0-.73-.06-1.46-.08-2.17,0,.71,0,1.44.08,2.17"/><g id="Group-44"><g class="cls-20"><path id="Fill-42" class="cls-17" d="M29,114.56,29,112.48l.06,2.08"/></g></g><path id="Fill-45" class="cls-17" d="M30.67,151.59l-.09-.6.09.6"/><path id="Fill-47" class="cls-17" d="M29.64,131.36l-.09-2.22.09,2.22"/><path id="Fill-49" class="cls-17" d="M30.32,148.23q-.13-3.4-.27-6.63.14,3.22.27,6.63"/><path id="Fill-51" class="cls-17" d="M32.62,159.27c-.15-.45-.3-.89-.43-1.34.13.45.28.89.43,1.34"/><g id="Group-55"><g class="cls-21"><path id="Fill-53" class="cls-17" d="M28.77,103.71c0,.2,0,.4,0,.6,0-.2,0-.4,0-.6h0"/></g></g><g id="Group-58"><g class="cls-22"><path id="Fill-56" class="cls-17" d="M28.83,106.84c0-.73,0-1.46,0-2.19,0,.73,0,1.46,0,2.19"/></g></g><path id="Fill-59" class="cls-17" d="M39.52,172.89a57.57,57.57,0,0,1-6.85-13.48,57,57,0,0,0,6.85,13.48"/><path id="Fill-61" class="cls-17" d="M32,157.47c-.12-.39-.23-.79-.34-1.18.11.39.22.79.34,1.18"/><g id="Group-65"><g class="cls-23"><path id="Fill-63" class="cls-17" d="M29,112l-.06-2.09L29,112"/></g></g><g id="Group-68"><g class="cls-24"><path id="Fill-66" class="cls-17" d="M28.9,109.36l-.06-2.09.06,2.09"/></g></g><path id="Fill-75" class="cls-10" d="M31.17,154.19c-.07-.33-.15-.67-.21-1,.06.33.14.67.21,1"/><path id="Fill-77" class="cls-10" d="M30.42,149.56c-.05-.46-.08-.9-.1-1.32,0,.42.05.86.1,1.32"/><path id="Fill-79" class="cls-10" d="M31.7,156.29l-.15-.57.15.57"/><path id="Fill-81" class="cls-10" d="M30.83,152.51c-.06-.31-.11-.62-.16-.92,0,.3.1.61.16.92"/><path id="Fill-83" class="cls-10" d="M32.19,157.94l-.15-.47.15.47"/><path id="Fill-85" class="cls-10" d="M30.58,151c0-.33-.08-.65-.11-1,0,.31.07.63.11,1"/><path id="Fill-87" class="cls-10" d="M32.67,159.41l-.05-.14.05.14"/><g id="Group-91"><g class="cls-25"><path id="Fill-89" class="cls-10" d="M29,112.48v0"/></g></g><g id="Group-94"><g class="cls-26"><path id="Fill-92" class="cls-10" d="M29.06,115.19c0-.21,0-.42,0-.63,0,.21,0,.42,0,.63"/></g></g><path id="Fill-95" class="cls-10" d="M29.24,120.62l0-.71,0,.71"/><g id="Group-99"><g class="cls-27"><path id="Fill-97" class="cls-10" d="M28.91,109.89v0"/></g></g><path id="Fill-100" class="cls-10" d="M30.05,141.6c0-.35,0-.69,0-1,0,.35,0,.69,0,1"/><g id="Group-104"><g class="cls-28"><path id="Fill-102" class="cls-10" d="M28.84,107.27v0"/></g></g><path id="Fill-105" class="cls-10" d="M35.5,95.8a25.49,25.49,0,0,0-6.77,6.06c0,.62,0,1.23,0,1.85A47.88,47.88,0,0,1,35.5,95.8"/><g id="Group-109"><g class="cls-29"><path id="Fill-107" class="cls-10" d="M28.79,104.65v0Z"/></g></g><g id="Group-112"><g class="cls-30"><path id="Fill-110" class="cls-10" d="M29.15,117.85l0-.62,0,.62"/></g></g><path id="Fill-113" class="cls-10" d="M29.67,132.11l0-.75,0,.75"/><path id="Fill-115" class="cls-10" d="M29.79,135.2c0-.31,0-.61,0-.92,0,.31,0,.61,0,.92"/><path id="Fill-117" class="cls-10" d="M29.91,138.26c0-.2,0-.4,0-.59,0,.19,0,.39,0,.59"/><path id="Fill-119" class="cls-10" d="M29.33,123.33c0-.2,0-.39,0-.59,0,.2,0,.39,0,.59"/><path id="Fill-121" class="cls-10" d="M29.44,126.19c0-.21,0-.41,0-.61,0,.2,0,.4,0,.61"/><path id="Fill-123" class="cls-10" d="M29.55,129.14l0-.73,0,.73"/><path id="Fill-125" class="cls-15" d="M41.71,165.5l4-17.15s2-1.77,4.79-4.54c1.83-5.06,3.62-10.15,5.19-14.85,6.17-18.52.26-32.73-9.37-34.74A14.65,14.65,0,0,0,35.5,95.8a47.88,47.88,0,0,0-6.73,7.91c0,.2,0,.4,0,.6v.34c0,.73,0,1.46,0,2.19v.43l.06,2.09v.53L29,112v.5l.06,2.08c0,.21,0,.42,0,.63q0,1,.06,2l0,.62c0,.68,0,1.37.07,2.06,0,.23,0,.47,0,.71,0,.7.05,1.41.07,2.12,0,.2,0,.39,0,.59q0,1.11.09,2.25c0,.2,0,.4,0,.61,0,.73.06,1.48.08,2.22l0,.73.09,2.22,0,.75c0,.71,0,1.44.08,2.17,0,.31,0,.61,0,.92,0,.81.07,1.64.1,2.47,0,.19,0,.39,0,.59,0,.76.06,1.53.1,2.3,0,.35,0,.69,0,1,.09,2.15.18,4.35.27,6.64,0,.42.05.86.1,1.32,0,.15,0,.31,0,.47,0,.31.07.63.11,1l.09.6c0,.3.1.61.16.92s.08.45.13.68.14.67.21,1c.12.5.24,1,.38,1.53l.15.57c.11.39.22.78.34,1.18l.15.47c.14.43.28.88.43,1.33a.58.58,0,0,1,.05.14,57.57,57.57,0,0,0,6.85,13.48h0c.82-2.11,1.91-4.91,3.15-8.16-.61.5-1,.77-1,.77"/><path id="Fill-127" class="cls-15" d="M45.69,148.35l-4,17.15s.35-.27,1-.77c2.27-5.94,5.08-13.38,7.81-20.92-2.76,2.77-4.79,4.54-4.79,4.54"/><path id="Fill-129" class="cls-31" d="M102,105.23c-13.29.25-27.49-5.9-32.27-10.2-11.35-10.22-6.92-14.86-6.92-14.86.44-3,10.55,2.06,14.32,2.38l47.16,4c3,.25,5.13,2.12,5.18,4.52l.11,4.94c0,2-1.46,4.06-3.83,5.1-4.74,2.06-14.47,4-23.75,4.16"/><path id="Fill-131" class="cls-31" d="M138.74,71.13s6.63.54,1.1-31.54S98.84,8,95,8.33,53.5,15.66,53.17,47.48s22,56.42,46.9,47.17,38.67-23.52,38.67-23.52"/><path id="Fill-133" class="cls-32" d="M132.93,37.44s-3.35-9.5-9.36-15c0,0-17.71-1.73-29.14,10.58Z"/><path id="Fill-135" class="cls-33" d="M132.93,37.44s14.19,38.44,4.57,48.81-33.89,8.94-37.43,8.4S70.91,66.19,94.43,33c0,0,21.83-3.67,38.5,4.46"/><path id="Fill-137" class="cls-10" d="M104.58,83.09a.92.92,0,0,0-.63.32.9.9,0,0,0-.17.91.91.91,0,1,0,1.61-.83.84.84,0,0,0-.81-.4"/><path id="Fill-139" class="cls-10" d="M92.85,45c1-.74,13.91-1.08,18.67,0a2.2,2.2,0,0,1,1.67,2.34c-.14,1.46-.54,3.65-1.79,4.89-2,2-16.56,1.06-18-.51s-1.69-5.9-.53-6.77m1.33,10.28c4.59.61,17.28,1.68,19.21-1.09s4.14-10.2,1.45-10.74c0,0-14.21-2.74-23.81-.73,0,0-2.75.36-2.94,1.45-.23,1.36.14,3,1.53,3.13,0,0,0,7.37,4.56,8"/><path id="Fill-141" class="cls-10" d="M139.42,53.36c-1.24,1.46-14.33,1.29-16.2-.81a9.87,9.87,0,0,1-1.83-5,1.89,1.89,0,0,1,1.39-2.22c4.24-.77,15.91.51,16.81,1.32,1.09,1,1.08,5.26-.17,6.72m3.19-4.18c1.25,0,1.5-1.64,1.23-3s-2.71-1.67-2.71-1.67c-8.74-2.71-21.41-1-21.41-1-2.4.34-.06,7.92,1.8,10.83s13.24,2.76,17.34,2.48,3.75-7.62,3.75-7.62"/><path id="Fill-143" class="cls-10" d="M116.93,45a2.6,2.6,0,0,0-1.22.4,2.2,2.2,0,0,0-.83,1.44,6.37,6.37,0,0,0,0,1.69,5.78,5.78,0,0,1,2.8-.83,3.74,3.74,0,0,1,2.68,1c-.1-.61-.19-1.22-.29-1.83-.06-.37,0-1.09-.26-1.38s-1-.4-1.34-.47a5.52,5.52,0,0,0-1.52-.06"/><path id="Fill-145" class="cls-10" d="M118,64.51a3.83,3.83,0,0,1-.15.75c-.07.22,0,0,0,0s-.07.14-.08.16,0,0,0,0l-.16.16s.19-.12,0,0l-.19.11-.08,0c.16-.07-.06,0-.09,0a2.38,2.38,0,0,1-.38.11,1.69,1.69,0,0,0-.24,0c.06,0,.21,0,0,0h-.4c-.13,0,.22,0,0,0l-.19,0s-.17,0-.19-.07l.09,0-.09,0-.15-.09,0,0c-.07,0,0,0,.08.06s-.24-.23-.24-.23.14.19,0,0l-.09-.14c-.12-.18.06.22,0,0,0,0,0-.1,0-.16s0,0,0-.06,0,0,0,.12c0,0,0-.17,0-.2A1.07,1.07,0,0,0,114.41,64,1.09,1.09,0,0,0,113.33,65a2.82,2.82,0,0,0,.93,2.12,3.34,3.34,0,0,0,2.37.85,4.09,4.09,0,0,0,2.36-.8,3,3,0,0,0,1.06-2.11,1.16,1.16,0,0,0-.1-.82,1.08,1.08,0,0,0-2,.25"/><path id="Fill-147" class="cls-10" d="M118,65.08c.17,1.06,1.38,1.73,2.29,2a3.71,3.71,0,0,0,2.85-.16,3.12,3.12,0,0,0,1.65-2,4.7,4.7,0,0,0-.68-3.11,1.08,1.08,0,0,0-1.86,1.09l.12.22.08.17.06.14.09.28a2.07,2.07,0,0,1,.12.49c0-.28,0,0,0,0a2.09,2.09,0,0,0,0,.25q0-.25,0-.09a.64.64,0,0,1,0,.07.65.65,0,0,1,0,.13l.06-.14a.76.76,0,0,0-.09.18s-.14.27-.07.11,0,0-.07.07-.17.16-.17.16.22-.15,0,0l-.18.1-.09,0,.1,0-.2.06-.19,0c.15,0,.17,0,0,0h-.35s-.28-.06-.12,0l-.12,0-.26-.07L120.7,65l.11,0-.14-.07a3.26,3.26,0,0,1-.4-.24.57.57,0,0,1-.13-.08l.1.07c-.06,0-.12-.11-.16-.14s.13.17,0,0,0,0,0,.1l0-.14a1.09,1.09,0,0,0-1.32-.75,1.11,1.11,0,0,0-.75,1.32"/><path id="Fill-149" class="cls-10" d="M117.41,53.35c1.59,3.27,3.37,6.44,5,9.71A1.07,1.07,0,1,0,124.22,62c-1.58-3.27-3.37-6.44-5-9.71a1.08,1.08,0,1,0-1.86,1.08"/><path id="Fill-151" class="cls-10" d="M109.45,36a14.11,14.11,0,0,0-6.56-1.28,10.21,10.21,0,0,0-5.63,1.56,1.82,1.82,0,0,0-.64,2.43,1.79,1.79,0,0,0,2.43.63,6.13,6.13,0,0,1,.82-.49c.33-.17-.27.08-.05,0l.28-.1a5,5,0,0,1,.55-.17,12,12,0,0,1,1.19-.25c.22,0-.33,0,0,0l.29,0c.25,0,.49,0,.74,0,.45,0,.91,0,1.36,0q.34,0,.69.06c.08,0,.44.06,0,0l.3,0a13.27,13.27,0,0,1,1.39.31c.21.06.41.13.62.21l.27.1c-.4-.15,0,0,.09,0A1.77,1.77,0,0,0,109.45,36"/><path id="Fill-153" class="cls-10" d="M133.8,37.39a13.35,13.35,0,0,0-10.59.2,1.79,1.79,0,0,0-.64,2.43,1.82,1.82,0,0,0,2.43.63l.26-.12c-.21.09-.22.09,0,0l.55-.19a8,8,0,0,1,1-.26l.58-.1c-.45.07.2,0,.28,0,.35,0,.71,0,1.06,0s.72,0,1.07.06l.31,0c-.22,0-.22,0,0,0l.6.11a14,14,0,0,1,2.2.67A1.78,1.78,0,0,0,135,39.57a1.82,1.82,0,0,0-1.24-2.18"/><path id="Fill-155" class="cls-10" d="M99.6,96.36a59.69,59.69,0,0,0,10.94.39A62.18,62.18,0,0,0,127.73,94c5-1.66,10.72-4.51,13.06-9.55,2.56-5.47,2.15-12,1.4-17.88a129.6,129.6,0,0,0-4.94-21.46c-.67-2.17-4.09-1.24-3.42,1a140.79,140.79,0,0,1,4.34,17.51c1,5.58,1.77,11.84.17,17.39-1.38,4.78-5.79,7.49-10.23,9.15a54,54,0,0,1-16,3c-2.48.14-5,.17-7.45.08-.9,0-1.79-.07-2.69-.14l-1.07-.1c-.39,0-.7-.08-.38,0-2.23-.33-3.19,3.09-.94,3.43"/><path id="Fill-157" class="cls-10" d="M125.49,50.26a5.43,5.43,0,0,1,6.46.07A1.08,1.08,0,0,0,133,48.47a7.54,7.54,0,0,0-8.63-.06,1.11,1.11,0,0,0-.38,1.47,1.08,1.08,0,0,0,1.47.38"/><path id="Fill-159" class="cls-10" d="M99.44,49a5.43,5.43,0,0,1,6.46.06A1.07,1.07,0,0,0,107,47.22a7.55,7.55,0,0,0-8.63-.07A1.08,1.08,0,1,0,99.44,49"/><path id="Fill-161" class="cls-10" d="M100.68,64.34c0,.25,0-.19,0,.06a1.06,1.06,0,0,1,0,.19,3.2,3.2,0,0,1-.1.42c0,.13-.09.27-.14.4s.06-.12,0,0l-.1.21a6,6,0,0,1-.42.69c0,.06-.11.13,0,0l-.15.17c-.09.11-.19.21-.29.31l-.33.29,0,0-.16.11a5.63,5.63,0,0,1-.76.42c.11-.06,0,0,0,0l-.19.07-.46.13L97,68c-.25,0,.19,0-.07,0h-.24a.9.9,0,1,0,0,1.8,6,6,0,0,0,5.76-5.49.89.89,0,0,0-.89-.9.92.92,0,0,0-.9.9"/><path id="Fill-163" class="cls-10" d="M100.83,66.83a9.15,9.15,0,0,0,3.92,2.56,40.43,40.43,0,0,0,15.72,2.53s-.39,8-5.32,9.8-14-2.28-16.48-13.28Z"/><path id="Fill-165" class="cls-34" d="M114.38,81.94c-4.16.93-10.52-1.73-13.95-8.54a33.85,33.85,0,0,1,8.67,3,12.37,12.37,0,0,1,5.28,5.56"/><path id="Fill-167" class="cls-1" d="M117.84,71.93c-.39,3.52-4.42,5.1-9.84,2-4.14-2.34-5.3-4.7-5.67-5.79a13,13,0,0,0,2.42,1.21,39.56,39.56,0,0,0,13.09,2.54"/><path id="Fill-169" class="cls-10" d="M120.5,70.52c-6.3,1.87-12.53-1-18.11-3.67-1-.5-2,1-.91,1.55,6,2.92,12.71,5.86,19.49,3.85a.9.9,0,0,0-.47-1.73"/><path id="Fill-276" class="cls-3" d="M79.13,143.38,81,148.54s4,2.19,11.49,1.46,9.89-2.86,9.89-2.86l.68-5.47Z"/><path id="Stroke-278" class="cls-4" d="M79.13,143.38,81,148.54s4,2.19,11.49,1.46,9.89-2.86,9.89-2.86l.68-5.47Z"/><path id="Fill-280" class="cls-3" d="M105.21,102.35c-.24-2.89-8.65-5.28-17.56-4.52-9.45.81-16.77,4.82-16.3,10.4s7,36.54,7,36.54c3,2,9,2.78,12.67,2.47,9.75-.83,13.63-4.22,13.63-4.22s.84-37.77.59-40.67"/><path id="Stroke-282" class="cls-5" d="M105.21,102.35c-.24-2.89-8.65-5.28-17.56-4.52-9.45.81-16.77,4.82-16.3,10.4s7,36.54,7,36.54c3,2,9,2.78,12.67,2.47,9.75-.83,13.63-4.22,13.63-4.22S105.46,105.25,105.21,102.35Z"/><path id="Fill-284" class="cls-6" d="M103,118.06c0-2.55-6.39-4.34-13.4-3.74-7.44.63-13.7,3.24-13.42,6.55S81,142.45,81,142.45c2.35,1.12,7,1.5,9.92,1.26,7.68-.66,10.79-2.73,10.79-2.73s1.25-21.2,1.24-22.92"/><path id="Stroke-286" class="cls-7" d="M103,118.06c0-2.55-6.39-4.34-13.4-3.74-7.44.63-13.7,3.24-13.42,6.55S81,142.45,81,142.45c2.35,1.12,7,1.5,9.92,1.26,7.68-.66,10.79-2.73,10.79-2.73S103,119.78,103,118.06Z"/><path id="Stroke-288" class="cls-8" d="M82.77,141.57c-.24-1.47-2.24-8.81-2.48-10.57a10.84,10.84,0,0,1-.25-2c.06-1,.51-1.8,1.3-2,1.26-.27,2.09,2,2.33,2.79.45,1.4.62,2.65,1,4.11.6,2.53,1.37,5.83,2,8.37"/><path id="Stroke-290" class="cls-9" d="M89.33,142.22c-.35-2.9-.33-5.73-.55-9.41,0-.71-.67-6.23,1.52-6.44s2.34,6.15,2.63,8.94c.2,1.9.36,4.18.55,6.47"/><path id="Stroke-292" class="cls-9" d="M99.77,140c0-1.12.48-5.52.43-8.73-.06-3.45-.06-5.39-1.25-5.65s-2.1.27-2.38,3.28c-.14,1.51-.4,9.78-.57,12.45"/><path id="Fill-294" class="cls-1" d="M103.46,104.4c-2.6,4.24-9.39,5.26-13.82,5.74a39.61,39.61,0,0,1-10.49-.1c-1.92-.32-4.52-.76-5.82-2.37-.66-.82-1.8.34-1.15,1.14,1.4,1.74,4.07,2.35,6.14,2.72a40.29,40.29,0,0,0,11.86.17c4.93-.58,11.82-1.82,14.68-6.49.55-.89-.85-1.7-1.4-.81"/><path id="Fill-296" class="cls-1" d="M77.68,103c2.31-1.52,5.16-1.8,7.85-2.07a.83.83,0,0,0,.81-.81.81.81,0,0,0-.81-.81c-3,.29-6.11.61-8.67,2.29-.87.57-.06,2,.82,1.4"/><path id="Fill-298" class="cls-10" d="M79.21,146.2l.76,2.14,8.57-.92s-1.28,0-4.83-.38a15.76,15.76,0,0,1-4.5-.84"/><path id="Fill-300" class="cls-33" d="M95.05,133.41c-2,1.17-12.51,2.69-14.12,3l-1.8.34a57.91,57.91,0,0,0,7.47,0c5.33-.15,4.68,5.08,1.22,5.87-2.83.65-12,1.52-12,1.52a16.53,16.53,0,0,0-.5,4.38c-.06,3-2.78,5.63-2.78,5.63l-13.33-6.89,5.69-6.66a17.57,17.57,0,0,1-.2-4.07,7,7,0,0,1,2.21-4c-1.32-1-1.47-4.05-.16-5.54A4.63,4.63,0,0,0,68,124.46c-2.12-2-.09-5.5,2.14-6.53s16.8-4.74,19.47-4.56,2.75,3.58-.35,5.19-15.47,5.23-15.86,5.34c.3,0,9.84-.64,14.29-.9s7.88-.92,8.57,2.33c.65,3.09-2,3.21-2.32,3.21,3.31.17,3.08,3.7,1.07,4.87"/><path id="Fill-302" class="cls-15" d="M75.91,156.9l-15-11.79L42.53,163.43c-10.7,10.68-15.33,26.72-18.45,41.28a2.15,2.15,0,0,0,.16,1.85,2.16,2.16,0,0,0,1.88.48,171.79,171.79,0,0,0,22.14-2.81c2.29-.45,4.69-1,6.4-2.58a13.11,13.11,0,0,0,2.56-3.83c6.09-12,13.16-23.43,19.82-35.12a4.53,4.53,0,0,0-1.13-5.8"/><path id="Fill-304" class="cls-31" d="M75.91,156.9l-15-11.79-5.3,5.29L73.45,169,77,162.7a4.53,4.53,0,0,0-1.13-5.8"/><path id="Fill-306" class="cls-10" d="M73.52,124.37a127.56,127.56,0,0,0,15.54-4.59c1-.35.55-1.91-.43-1.55a129.32,129.32,0,0,1-15.54,4.58c-1,.23-.59,1.79.43,1.56"/><path id="Fill-308" class="cls-10" d="M74.83,131.22q8.83-1.5,17.74-2.5c1-.12,1-1.73,0-1.62q-9.12,1-18.17,2.56c-1,.18-.59,1.73.43,1.56"/><path id="Fill-310" class="cls-10" d="M74.63,144.1c-.17,3.18-.45,6.78-3.13,8.92a.8.8,0,0,0,0,1.14.81.81,0,0,0,1.14,0c3-2.4,3.41-6.48,3.6-10.06.06-1-1.55-1-1.61,0"/><path id="Fill-414" class="cls-15" d="M46.3,94.22C30,90.81,25.08,109.4,22.18,121.32c-4.08,16.82-5.87,35.47-6.53,52.6l-.53,13.72a21.11,21.11,0,0,0,.65,7.69c2.15,6.28,9.91,9.11,16.47,8,1.31-.21,3-1.13,2.54-2.4"/></g><path d="M220.72,188.31a170.83,170.83,0,0,0,13.9,12.59,1.84,1.84,0,0,0,2.52,0,1.8,1.8,0,0,0,0-2.52,170.83,170.83,0,0,1-13.9-12.59,1.78,1.78,0,0,0-2.52,2.52Z"/><path class="cls-13" d="M21.35,128.83l-.64-.37a1.54,1.54,0,0,0-.76-.26c-1.34,0,.84,1.59,1.09,1.78a17.8,17.8,0,0,1,3.5,3.49,3.66,3.66,0,0,1,.73,1.37,1.88,1.88,0,0,1-1.73,2.09,6,6,0,0,1-1.9-.16c-3.29-.72-6.55-2.16-7.8-4.45a7,7,0,0,1-.7-3c-.38-6,2.58-11.91,5.15-17.55,1.52-3.34,3-6.87,5.72-9.81,1.15-1.24,2.92-2.67,5.24-2.25a7.92,7.92,0,0,1,3.28,1.59,15.21,15.21,0,0,1,4.28,4.47c.89,1.69,1.8,3.63,1.25,5.45a2.42,2.42,0,0,1-1,1.37,4.27,4.27,0,0,1-3.2.33,8.5,8.5,0,0,1-2.75-1.4,14.19,14.19,0,0,0-2.54-1.6,1,1,0,0,0-.87,0,.39.39,0,0,0-.13.33,3.08,3.08,0,0,0,.82,1.83c1,1.31,2.44,2.45,3.61,3.7a6.38,6.38,0,0,1,2.11,4.17,3.06,3.06,0,0,1-.86,2.09,4,4,0,0,1-2.53,1.13,5.46,5.46,0,0,1-2.58-.48,13,13,0,0,1-2.09-1.22L24,120a1.45,1.45,0,0,0-1.27-.31c1,2.12,3.35,3.87,5.21,5.63,1.14,1.07,2.25,2,2.23,3.43a3,3,0,0,1-1.7,2.52,2.46,2.46,0,0,1-1.21.33,3.06,3.06,0,0,1-.86-.18,16.71,16.71,0,0,1-3.12-1.52Z"/></svg>