<svg id="Layer_1" data-name="Layer 1" xmlns="http://www.w3.org/2000/svg" viewBox="0 0 300 200"><defs><style>.cls-1{fill:#fdc20f;}.cls-1,.cls-5,.cls-6,.cls-7,.cls-8{fill-rule:evenodd;}.cls-2{fill:#fff;}.cls-3{fill:#66256d;}.cls-4{fill:#f6a2ad;}.cls-5{fill:#f7939b;}.cls-6{fill:#f8a9af;}.cls-7{fill:#ee9ec5;}</style></defs><title>Website Illustrations</title><path d="M152,177.27a1.5,1.5,0,0,0,0-3,1.5,1.5,0,0,0,0,3Z"/><path class="cls-1" d="M57.42,204.51a141.54,141.54,0,0,1,8.51-23.68c3.38-7.66,7.06-15.26,12.15-21.72,10.09-12.8,25.07-20.19,40.32-23.51s31-3,46.52-2.57l25.51.63c7.19.18,14.4.36,21.47,1.76,16.23,3.22,31.25,13.05,41.4,27.09a78.52,78.52,0,0,1,14.29,50c-18,2.83-36.18,2.63-54.32,2.42l-95.59-1.07c-17.35-.2-34.71-.39-52-1.84-2.19-.19-4.49-.43-6.28-1.81s-2.77-4.28-1.46-6.18"/><path class="cls-2" d="M84.89,27.71a11.61,11.61,0,0,1-2.6-1.45c-.69-.55-1.16-1.38-2.05-1.66a1.62,1.62,0,0,1-.56-.23,1.14,1.14,0,0,1-.26-.47,15.73,15.73,0,0,1-.78-4l1.19-.78-.21-2.82,1.29-.56a4.68,4.68,0,0,0-.44-2.21c.7-.21,1.41-.38,2.13-.52,0-1.29-.46-2,1.33-1.88C121.5,14,148.5,23,168.5,47c.28.33,12.78-11.22,14.06-12.24a108.81,108.81,0,0,1,32.07-17.28,120.31,120.31,0,0,1,21.59-4.91c4.71-.68,10.18-2,14.94-1.34a7.92,7.92,0,0,0,.76,5.74.49.49,0,0,1,.08-.73,1.55,1.55,0,0,1,.8-.29l2.09-.34a8,8,0,0,0,.94,4.24,8.47,8.47,0,0,1,1.67.1,42.07,42.07,0,0,0-.41,9.31c-.21-3.09-17.67,3.33-19.14,3.89a205.55,205.55,0,0,0-19.09,8.58c-12.53,6.33-24.61,13.46-37.22,19.65l-1.13.55a26.22,26.22,0,0,1-6.37,2.39,21.94,21.94,0,0,1-7.45-.14c-18.07-2.83-33.1-14.4-49.35-22.52C106.83,36.4,95.63,32.53,84.89,27.71Z"/><path class="cls-3" d="M74.26,25.64l0-4c12.63-4,25.91.72,38,5.8,9.14,3.86,18.27,8,26.18,14,4.34,3.29,11.12,8.31,16.08,10.58,7.75,3.54,18,4,29,0,6.65-2.42,15.41-11.45,26-17a178.23,178.23,0,0,1,26-11.12c8.22-2.63,19.37-2.88,28-2.88,0,0,.31,24.91.11,29.23,0,7.14-5.47,103.46-4,103.65-26.81-3.51-55.13,4.74-75.17,23.53a22.16,22.16,0,0,1-4.23,3.33c-2.75,1.49-6,1.61-9.13,1.69-3.28.08-6.64.15-9.73-.91a22.67,22.67,0,0,1-7.26-4.59,8.15,8.15,0,0,1-2-2.7c-1.52-3.19-4.9-5.27-8.1-6.95a142.86,142.86,0,0,0-70.3-16.22l.21-46.25Z"/><path d="M148.18,69.72q.4,33.16,1.68,66.3.38,9.47.81,18.93c.08,1.92,3.08,1.93,3,0q-1.53-33.13-2.19-66.28-.18-9.48-.3-19c0-1.92-3-1.93-3,0Z"/><path d="M183.9,60.05l-.12,73.22,0,20.92a1.5,1.5,0,0,0,3,0L186.87,81l0-20.92a1.5,1.5,0,0,0-3,0Z"/><path class="cls-4" d="M165.76,180.68a53.94,53.94,0,0,1-3.33-11c-.46-2-1.18-4.79.08-6.69,1-1.51,3.26-1.59,4.8-.54a8.68,8.68,0,0,1,2.75,4c1.5,3.38,2.91,8.81,4.5,12.15a104.44,104.44,0,0,0-.85-10.53q-.47-4.87-.83-9.75a8,8,0,0,1,.31-3.73,3.45,3.45,0,0,1,3.09-2.2c2.41,0,3.47,2.53,3.82,4.27.59,3,1.07,5.93,1.6,8.89.3,1.69,1.61,9.4,2.37,11,1-6.8-.85-19.71-.5-26.57a7.06,7.06,0,0,1,.72-3.19A3.21,3.21,0,0,1,187.2,145c3.84.29,4,6.55,4.46,8.92.77,4.12,1.36,15.26,1.75,19.42.56-3,1.13-13,1.7-16s1.2-6.33,2.82-9.15a2.92,2.92,0,0,1,2.19-1.7,2.68,2.68,0,0,1,2.08,1.2,10.63,10.63,0,0,1,1.8,5.28c1.11,8.55-1.31,16.63-4.23,24.74a10.83,10.83,0,0,1-1.22,2.63,8.62,8.62,0,0,1-1.54,1.6c-4.82,4-11.89,4.78-18.46,5.15-2.57.14-5.63.8-7.94-.44a10.62,10.62,0,0,1-4.13-4.49C166.23,181.65,166,181.17,165.76,180.68Z"/><path class="cls-4" d="M171.59,184.55A122.77,122.77,0,0,0,171.2,214a15.7,15.7,0,0,1,6.26-.43L198.8,215a1.49,1.49,0,0,0,.63-.05c.87-.35.63-1.83.27-2.8-3.88-10.46-2.14-22.57-4.67-33.56a2.14,2.14,0,0,0-.78-1.46,1.57,1.57,0,0,0-1.11,0l-20.49,4.11"/><path id="Fill-51" class="cls-5" d="M64.42,131.82s-4.69-3.28-8.3-4.1c-2.74-.61-6.45-.76-7.34,1.83s1.41,4.84,5.12,6.6c4.39,2.1,8.52,6.71,8.52,6.71Z"/><path id="Fill-53" class="cls-6" d="M85.94,186.37c-.1-7.24.61-14.35,4.68-20.2,3.67-5.29,5.93-10.36,6.17-16.93.18-4.63-1-8.52-3.58-9.65a4.1,4.1,0,0,0-4.54,1.11s-.44-5.5-3.6-6.12a3.78,3.78,0,0,0-4.29,1.72c0-.33,0-5.6-3-6.73s-5.39,1.31-5.39,1.31,1.5-13.78-3.57-14.66c-3.74-.65-4.44,5.6-5.7,10.82-2.17,9-4.8,18.33-3.29,27.6,2.77,17,4.59,40.79,1.08,58-.27,1.33-.47,3,.58,3.81,3.44,2.78,8.92.17,12.55-.46,3.14-.54,10.35,1.53,12-2.5a5.66,5.66,0,0,0,.31-1.88C86.71,205.91,86,192.59,85.94,186.37Z"/><path id="Fill-55" class="cls-7" d="M22.41,85.91s-7.75-5.72-11.28.36C5,96.84,30.25,99.43,30.25,99.43s7.85-20.36-2.52-22.69c-6-1.37-5.32,9.17-5.32,9.17"/><path id="Fill-57" class="cls-7" d="M33.68,41.3s-8.23-7.52-13.11-1.61c-9.2,11.12,16.07,22.4,16.07,22.4S55.43,41.12,43.9,34c-5.52-3.38-10.22,7.26-10.22,7.26"/><path id="Fill-59" class="cls-7" d="M48.49,103s-5.52-4.39-8.26,0c-4.78,7.57,13.64,10.13,13.64,10.13s6.28-14.7-1.25-16.68c-4.38-1.15-4.13,6.58-4.13,6.58"/><path id="Fill-61" class="cls-8" d="M64.27,97.75l3.12-1.18a1.27,1.27,0,0,0-.94-2.35L63.32,95.4a1.27,1.27,0,0,0,.95,2.35"/><path id="Fill-63" class="cls-8" d="M64.84,106.9l3.45-.08a1.29,1.29,0,0,0,1.13-1.4A1.31,1.31,0,0,0,68,104.3l-3.45.08a1.27,1.27,0,0,0-1.12,1.4,1.3,1.3,0,0,0,1.4,1.12"/><path id="Fill-65" class="cls-8" d="M10,49.73q-1.8.2-3.6.33a1.27,1.27,0,0,0,.28,2.52l3.6-.33A1.27,1.27,0,0,0,10,49.73"/><path id="Fill-67" class="cls-8" d="M57.32,38.4l3.75-3.1c1.25-1-.26-3.08-1.52-2l-3.75,3.1c-1.25,1,.26,3.07,1.52,2"/><path id="Fill-69" class="cls-8" d="M54.91,49.88l5.33.36c1.63.11,2-2.38.41-2.49l-5.34-.37c-1.62-.11-2,2.39-.4,2.5"/><path id="Fill-71" class="cls-8" d="M52.1,61.32,55.91,64c1.33.93,2.93-1,1.59-2l-3.81-2.65c-1.33-.93-2.93,1-1.59,2"/><path id="Fill-73" class="cls-8" d="M15.88,61.67q-2,1.86-4.07,3.73a1.26,1.26,0,1,0,1.51,2l4.08-3.73a1.26,1.26,0,1,0-1.52-2"/><path id="Fill-75" class="cls-8" d="M9.28,34.57,7.1,33.68c-1.52-.61-2.55,1.7-1,2.31l2.19.89c1.51.62,2.55-1.69,1-2.31"/><path id="Fill-77" class="cls-8" d="M35.51,110.76l-2.2.61A1.26,1.26,0,0,0,32.6,113a1.3,1.3,0,0,0,1.65.71l2.2-.61a1.29,1.29,0,0,0,.71-1.65,1.31,1.31,0,0,0-1.65-.7"/><path id="Fill-79" class="cls-8" d="M41.94,116l-.44,2.36c-.3,1.6,2.22,2,2.51.4.15-.79.29-1.58.44-2.37a1.27,1.27,0,0,0-2.51-.39"/><path id="Fill-81" class="cls-8" d="M72,131.43c-.48,4.09-1.3,8.14-1.78,12.23-.16,1.33,1.92,1.38,2.08.06.47-4.09,1.3-8.13,1.78-12.23.15-1.33-1.93-1.38-2.08-.06"/><path id="Fill-83" class="cls-8" d="M80,137.39c-.47,3.29-.44,6.63-.95,9.91-.2,1.32,1.87,1.37,2.08.07.51-3.29.48-6.63,1-9.92.19-1.32-1.89-1.37-2.08-.06"/><path id="Fill-85" class="cls-8" d="M88.41,140.87c0,3.29-.55,6.56-.71,9.84a1,1,0,0,0,2.08.06c.16-3.28.69-6.54.71-9.84a1,1,0,0,0-2.08-.06"/><path d="M169.06,186.92a7.32,7.32,0,0,0,9.61-3.31l-2,.54c2.13,1.09,4.37,2.12,6.82,1.74a5.7,5.7,0,0,0,2.73-1.19c.38-.31.61-.75,1-1s-.29-.09.08,0a7.07,7.07,0,0,1,.81.35c3.56,1.36,7.85.53,10.09-2.66,1.12-1.59-1.48-3.09-2.59-1.52A4.58,4.58,0,0,1,192,181.6a6.81,6.81,0,0,1-2.2-.21c-.75-.19-1.42-.64-2.17-.81a2.5,2.5,0,0,0-2.31.65c-.56.53-.84,1.21-1.6,1.52-1.86.76-3.91-.36-5.54-1.19a1.52,1.52,0,0,0-2,.54,4.31,4.31,0,0,1-5.51,2.23c-1.74-.8-3.27,1.79-1.51,2.59Z"/><path d="M105.39,198a121.19,121.19,0,0,1-1.85-24.94c.06-1.93-2.94-1.93-3,0a126.14,126.14,0,0,0,1.95,25.74c.34,1.9,3.24,1.09,2.9-.8Z"/><path d="M104.52,182.71c.14-.37.28-.75.44-1.12l-.15.36a19.48,19.48,0,0,1,2.06-3.67,1.5,1.5,0,0,0-.54-2.05,1.47,1.47,0,0,0-1.16-.15,1.61,1.61,0,0,0-.89.69,20.76,20.76,0,0,0-2.65,5.15,1.51,1.51,0,0,0,1.05,1.84,1.53,1.53,0,0,0,1.84-1Z"/><path d="M220.28,199.27a48.23,48.23,0,0,0-.79-18.5c-.45-1.88-3.35-1.08-2.89.8a44.33,44.33,0,0,1,.79,16.9,1.54,1.54,0,0,0,1.05,1.84,1.5,1.5,0,0,0,1.84-1Z"/></svg>