<?xml version="1.0" encoding="UTF-8"?>
<svg width="308px" height="182px" viewBox="0 0 308 182" version="1.1" xmlns="http://www.w3.org/2000/svg" xmlns:xlink="http://www.w3.org/1999/xlink">
    <!-- Generator: Sketch 62 (91390) - https://sketch.com -->
    <title>Group 143</title>
    <desc>Created with Sketch.</desc>
    <defs>
        <polygon id="path-1" points="0.22521856 0.850129412 49.1694135 0.850129412 49.1694135 99.5294118 0.22521856 99.5294118"></polygon>
        <polygon id="path-3" points="0.235719896 0.31245566 49.9328943 0.31245566 49.9328943 34.3967736 0.235719896 34.3967736"></polygon>
        <polygon id="path-5" points="0.841413668 0.0930178862 128.967398 0.0930178862 128.967398 102.430334 0.841413668 102.430334"></polygon>
    </defs>
    <g id="Page-1-Copy" stroke="none" stroke-width="1" fill="none" fill-rule="evenodd">
        <g id="Life@Gojek-Copy-9" transform="translate(-217.000000, -2265.000000)">
            <g id="Group-11" transform="translate(215.000000, 2021.000000)">
                <g id="Group-141">
                    <g id="Group-143" transform="translate(-7.000000, 244.000000)">
                        <g id="Group-92" transform="translate(0.000000, 27.000000)">
                            <path d="M138.858956,117.082694 C134.067943,113.568459 129.60793,109.621165 125.983904,104.581165 C125.212632,103.507518 124.482735,102.326929 124.375584,101.009753 C124.244033,99.3770471 125.090629,97.8248118 126.086812,96.5235176 C129.648244,91.8721059 135.195677,89.2430471 140.580792,86.9242235 C152.381154,81.8418706 164.46902,77.4265765 176.766943,73.7016353 C186.289558,70.8184588 200.123661,64.8488118 209.982581,66.1395176 C206.723504,70.0370471 194.533792,73.3585765 193.119616,78.1010471 C186.979142,100.205047 182.415161,124.9254 173.290382,145.910224 C165.055696,132.021635 150.907568,125.919635 138.858956,117.082694" id="Fill-1" fill="#00AA13"></path>
                            <path d="M35.7100199,83.9883176 C34.0316801,84.2254941 32.595225,85.3107882 31.9120071,86.8577294 C31.188475,88.4120824 31.074959,90.1803176 31.5937378,91.8140824 C33.1532571,96.5787882 38.2455647,97.1082 39.8793468,96.1647882 C38.8184494,98.4942 37.7575519,102.464788 38.3410455,104.370671 C39.2746353,107.229494 43.518225,110.003612 46.000725,109.664788 C46.9449237,109.549376 47.4117186,106.223612 48.2604365,105.801141 L56.6096994,101.565847 C56.6765359,101.544671 56.7338244,101.499141 56.768834,101.437729 C56.768834,101.3742 36.5269109,83.5436118 36.5269109,83.5436118" id="Fill-3" fill="#000000"></path>
                            <path d="M140.812917,79.8377294 C143.922407,79.1950235 146.966122,81.1877294 147.611147,84.2922 C147.966548,86.0022 147.522032,87.7799647 146.403846,89.1246706 C145.347192,90.1771412 144.073054,90.9860824 142.669487,91.4953765 C144.939808,92.6389059 146.287147,95.1906706 146.743333,97.7530235 C146.955513,98.7663176 146.955513,99.8113765 146.743333,100.823612 C146.482353,101.787141 146.059054,102.700906 145.491474,103.523612 C144.570615,105.119259 143.296478,106.485141 141.767724,107.516435 C139.969503,108.476788 137.962285,108.985024 135.922179,108.997729 C135.29625,108.997729 126.374103,103.375376 123.477853,101.130671 C123.329327,101.0142 134.299006,81.7224353 134.627885,81.5212588 C134.627885,81.5212588 138.71234,80.6212588 140.165769,80.3565529" id="Fill-5" fill="#000000"></path>
                            <path d="M3.88309679,156.285 L0.000212179487,156.285 C0.116910897,154.050882 3.64969936,130.587353 20.5391865,121.132059 C38.5744429,111.052059 58.6466224,97.6791176 58.6466224,97.6791176 L125.228546,98.2932353 C125.228546,98.2932353 145.385597,113.603824 158.18002,120.814412 C179.472231,132.821471 182.145693,151.859118 182.474571,155.617941 C182.474571,155.617941 181.838033,155.617941 180.172424,155.723824 C179.260052,155.723824 177.986975,155.723824 176.448674,155.787353 C172.523353,155.850882 168.534379,155.787353 168.534379,155.787353 L10.1954365,156.105 C8.87249744,156.270176 7.53894936,156.331588 6.20646218,156.285" id="Fill-7" fill="#F4831E"></path>
                            <path d="M81.3073917,143.663929 C81.3073917,143.663929 82.6335135,150.429812 86.9831929,150.662753 C92.6696032,150.969812 92.6059494,146.681576 92.6059494,146.681576 C92.6059494,146.681576 94.7277442,150.323929 98.8015904,149.445106 C102.875437,148.566282 101.655404,144.150988 101.655404,144.150988 C101.655404,144.150988 104.70018,148.058047 107.957135,146.067459 C111.617231,143.843929 108.42393,139.058047 108.42393,139.058047 C108.42393,139.058047 112.603866,141.7464 115.054539,138.962753 C117.505212,136.178047 113.579892,131.550988 113.579892,131.550988 C113.579892,131.550988 118.46002,134.145106 120.178674,130.2804 C121.897328,126.415694 116.444315,122.868635 116.444315,122.868635 C116.444315,122.868635 122.809699,124.499224 123.202231,120.390988 C123.669026,115.721576 116.836847,114.292165 116.836847,114.292165 C116.836847,114.292165 114.545308,127.135694 106.227872,133.086282 C97.9104365,139.036871 81.2967827,143.674518 81.2967827,143.674518" id="Fill-9" fill="#FFFFFF"></path>
                            <path d="M70.6662721,99.1085294 C70.6662721,99.1085294 64.1841888,97.4779412 62.0623939,101.437941 C59.4101503,106.605 63.2187721,108.341471 63.2187721,108.341471 C60.7426375,108.690882 58.7396631,110.525824 58.1795093,112.957941 C57.2565285,117.119118 61.6486439,117.839118 61.6486439,117.839118 C61.6486439,117.839118 56.9276503,119.035588 57.3095734,122.900294 C57.7445413,127.252059 63.3036439,126.288529 63.3036439,126.288529 C63.3036439,126.288529 59.1767529,129.052059 60.6195734,132.503824 C62.0623939,135.955588 67.7806311,134.240294 67.7806311,134.240294 C67.7806311,134.240294 63.4415606,137.702647 66.1362401,140.921471 C68.8309196,144.140294 74.2839324,140.561471 74.2839324,140.561471 C74.2839324,140.561471 70.1782593,145.792059 73.626176,147.899118 C77.5621054,150.292059 81.7102144,144.489706 81.7102144,144.489706 C81.7102144,144.489706 71.3134196,136.972059 69.5311119,126.765 C67.7488042,116.556882 70.5920093,99.0767647 70.5920093,99.0767647" id="Fill-11" fill="#FFFFFF"></path>
                            <path d="M63.5052144,111.719329 C63.5052144,111.719329 62.0623939,132.546388 76.1723298,141.758153 C92.2979708,152.261682 105.559189,144.182859 111.553259,135.204035 C117.54733,126.225212 117.823163,112.216976 117.823163,112.216976 L63.5052144,111.719329 Z" id="Fill-13" fill="#A95631"></path>
                            <path d="M49.3318369,82.0195412 C49.3318369,82.0195412 47.6768369,72.8818941 38.8289522,75.0101294 C34.3519651,76.0689529 35.4340804,94.6290706 42.7648817,97.9749529 C50.095683,101.320835 53.9149138,97.6371882 53.9149138,97.6371882 L49.3318369,82.0195412 Z" id="Fill-15" fill="#A95631"></path>
                            <path d="M127.625855,83.9996471 C127.625855,83.9996471 130.808548,73.4114118 138.744061,77.0209412 C143.210439,79.0337647 141.767618,98.4314118 133.916977,100.072588 C126.066336,101.712706 123.732362,96.4514118 123.732362,96.4514118 L127.625855,83.9996471 Z" id="Fill-17" fill="#A95631"></path>
                            <path d="M45.5337179,54.5635059 C45.5337179,54.5635059 40.2292308,95.5717412 65.3512821,114.916447 C91.5554487,135.034094 117.727788,123.122329 125.642083,102.529271 C133.959519,80.8964471 136.198013,55.4529176 136.198013,55.4529176 L86.8238462,44.5788 L45.5337179,54.5635059 Z" id="Fill-19" fill="#A95631"></path>
                            <path d="M78.7820314,78.7469294 C78.7820314,78.7469294 67.8547878,77.8374 67.5895635,81.0339882 C67.3243391,84.2326941 77.7741788,83.9997529 77.7741788,83.9997529 C77.7741788,83.9997529 85.0201083,84.2951647 84.8821917,81.7751647 C84.7230571,78.8962235 78.7820314,78.7469294 78.7820314,78.7469294" id="Fill-21" fill="#FFFFFF"></path>
                            <path d="M107.500843,78.3022235 C107.500843,78.3022235 96.5735997,77.3926941 96.3083753,80.5892824 C96.043151,83.7879882 106.121677,83.5751647 106.121677,83.5751647 C106.121677,83.5751647 113.73892,83.8504588 113.547959,81.3304588 C113.388824,78.4515176 107.447798,78.3022235 107.447798,78.3022235" id="Fill-23" fill="#FFFFFF"></path>
                            <path d="M69.6053747,74.7555882 C74.1035798,74.1626471 83.0787721,72.945 82.8878106,66.6767647 C82.8878106,64.8344118 80.0127785,64.7814706 80.0658234,66.6238235 C80.1825221,70.8591176 71.8438683,71.5897059 68.9157913,71.9814706 C67.1122657,72.2144118 67.8548939,74.9991176 69.6053747,74.7555882" id="Fill-25" fill="#000000"></path>
                            <path d="M111.659561,74.7555882 C113.452478,74.9991176 114.15267,72.2144118 112.359754,71.9814706 C109.421068,71.5897059 101.082414,70.8379412 101.199112,66.6238235 C101.199112,64.7814706 98.4301702,64.8344118 98.3771253,66.6767647 C98.1967728,72.945 107.171965,74.1626471 111.659561,74.7555882" id="Fill-27" fill="#000000"></path>
                            <path d="M95.8097535,95.6146235 C95.6930548,97.2759176 93.8789202,97.3510941 93.0620292,95.9852118 C92.5315804,95.0958 91.7252984,94.5558 91.0357151,95.4229765 C90.7280548,96.1080353 90.0660548,96.5643882 89.3170612,96.6088588 C88.3410356,96.6088588 88.3304266,94.9263882 88.595651,94.0793294 C88.7675163,93.3540353 89.0019747,92.6456824 89.2958433,91.9616824 C89.9854266,89.9710941 90.6856189,87.9805059 91.4176381,86.0005059 C92.1496574,84.0205059 89.5928946,83.3534471 88.8608753,85.4605059 C87.6726702,88.8805059 84.7339843,93.4863882 86.2298497,97.1806235 C87.4180548,100.1358 89.412542,100.167565 91.4494651,98.7169765 C94.1123176,100.834624 98.3559074,99.8393294 98.6317407,95.6252118 C98.7802663,93.3900353 96.0007151,93.4122706 95.8521894,95.6252118" id="Fill-29" fill="#000000"></path>
                            <path d="M89.2531952,109.357624 C91.3463458,108.368682 93.7269997,108.166447 95.958067,108.785859 C98.0798619,109.369271 98.7057913,106.752918 96.5946054,106.170565 C93.7206343,105.325624 90.6302401,105.633741 87.9801183,107.029271 C85.9856311,107.961035 87.279926,110.2788 89.2531952,109.357624" id="Fill-31" fill="#000000"></path>
                            <path d="M92.8286317,113.402647 C93.4959362,113.291471 94.1770324,113.291471 94.8443369,113.402647 C95.577417,113.647235 96.3709683,113.252294 96.6160356,112.520647 C96.8621638,111.789 96.466449,110.997 95.7333689,110.751353 C95.566808,110.696294 95.390699,110.671941 95.215651,110.681471 C94.1802151,110.577706 93.1341702,110.638059 92.1178304,110.861471 C89.9960356,111.263824 90.6856189,113.826176 92.8286317,113.413235" id="Fill-33" fill="#000000"></path>
                            <path d="M145.873397,150.440824 C144.09109,148.323176 139.762628,152.558471 139.762628,152.558471 C139.762628,152.558471 139.900545,146.396118 137.640833,146.140941 C135.381122,145.886824 134.840064,152.304353 134.840064,152.304353 C134.840064,152.304353 129.822019,148.429059 128.474679,149.762118 C126.50141,151.764353 129.970545,153.934941 131.487628,154.749176 L144.144135,154.824353 C145.268686,153.882 147.072212,151.986706 145.788526,150.451412" id="Fill-35" fill="#ABDFED"></path>
                            <path d="M150.477586,118.452812 C153.596625,121.206812 153.904285,121.131635 153.904285,121.131635 C153.904285,121.131635 147.093323,121.968106 147.10392,124.308106 C147.114541,126.648106 155.187971,125.293871 155.187971,125.293871 C155.187971,125.293871 152.355375,131.646812 153.999766,132.556341 C155.644157,133.467988 158.752586,127.569282 158.752586,127.569282 C158.752586,127.569282 161.659445,133.742224 164.311689,133.011635 C166.963932,132.282106 162.561208,126.3834 162.561208,126.3834 C162.561208,126.3834 165.287714,128.977518 168.109702,129.105635 C168.652881,129.133165 169.196061,129.042106 169.701048,128.840929 C166.232974,125.738576 162.429657,123.032224 158.360054,120.771635 C155.40015,119.109282 151.99467,117.003282 148.642234,114.758576 C148.600859,116.217635 149.28832,117.602576 150.477586,118.452812" id="Fill-37" fill="#ABDFED"></path>
                            <path d="M32.1237622,152.791094 C32.1237622,152.791094 38.7861981,147.814624 37.4282494,146.522859 C36.0703006,145.230035 29.8428327,149.074624 29.8428327,149.074624 C29.8428327,149.074624 28.9516788,138.867565 26.1190827,138.486388 C23.2864865,138.105212 24.5701724,149.233447 24.5701724,149.233447 C24.5701724,149.233447 17.8228647,142.625329 15.658634,144.638153 C13.4944032,146.649918 20.6872878,152.197094 20.6872878,152.197094 C18.5771628,152.226741 16.475525,152.450153 14.406775,152.864153 C12.8684737,153.298271 12.5077686,154.209918 12.4228968,154.739329 L39.9001404,154.940506 C39.3357429,154.132624 38.4806596,153.570388 37.5131212,153.373447 C35.7191436,153.078035 33.9092526,152.883212 32.0919353,152.791094" id="Fill-39" fill="#ABDFED"></path>
                            <path d="M25.7159417,120.9096 C27.7008808,120.469129 29.6136788,119.755482 31.4023519,118.791953 C31.4023519,118.791953 29.6836981,125.706071 31.9540186,126.436659 C34.2243391,127.167247 35.7308135,117.966071 35.7308135,117.966071 C35.7308135,117.966071 40.3457173,125.017835 42.2659417,123.726071 C44.186166,122.434306 40.2078006,115.594306 40.2078006,115.594306 C40.2078006,115.594306 45.6820314,117.1296 46.4564865,115.594306 C47.2309417,114.059012 41.2474801,112.417835 41.2474801,112.417835 C41.2474801,112.417835 45.7138583,108.659012 44.8651404,107.377835 C44.7357109,107.195718 44.5935506,107.023129 44.4407814,106.859012 C37.8101724,111.020188 29.6943071,115.987129 21.8754929,120.402424 C22.3528968,120.835482 23.4350122,121.386071 25.7159417,120.877835" id="Fill-41" fill="#ABDFED"></path>
                            <path d="M47.9735699,82.5799765 C47.9735699,82.5799765 48.4934096,90.7329176 50.9865186,89.9917412 C53.4796276,89.2516235 53.288666,76.8729176 53.288666,76.8729176 C53.288666,76.8729176 55.5908135,77.3398588 57.5322558,73.2093882 C58.6239192,70.4564471 58.6504417,67.3953882 57.6065186,64.6223294 C57.6065186,64.6223294 68.0139224,65.2586824 76.2783135,62.0917412 C81.268775,60.1286824 85.5558615,56.7160941 88.5847237,52.2976235 C100.254596,66.5705647 120.050942,63.7646824 120.050942,63.7646824 C120.050942,63.7646824 117.58966,67.8940941 119.976679,71.9705647 C121.242329,74.2893882 123.195442,76.1603294 125.567608,77.3282118 C125.567608,77.3282118 123.371551,87.4939765 126.384499,87.9164471 C129.397448,88.3399765 129.641454,84.5176235 129.641454,84.5176235 C129.641454,84.5176235 131.625333,76.8411529 136.006839,77.5082118 C138.486156,77.7655059 140.520958,79.5792706 141.056711,82.0082118 C141.056711,82.0082118 148.599692,77.7729176 147.156871,70.4352706 C146.421669,66.2613882 143.352493,62.8773882 139.263794,61.7328 C139.263794,61.7328 142.287352,55.1246824 139.762416,50.8269176 C136.261454,44.8540941 130.532608,46.4846824 130.532608,46.4846824 C130.532608,46.4846824 130.076422,40.8633882 127.477224,39.0729176 C124.878025,37.2845647 119.806935,39.6245647 119.806935,39.6245647 C119.806935,39.6245647 119.65841,34.5305647 115.743698,32.7305647 C111.828987,30.9316235 106.089531,34.9445647 106.089531,34.9445647 C106.089531,34.9445647 105.612128,27.2140941 101.029051,26.1669176 C94.0907814,24.5988 90.4200763,31.3233882 90.4200763,31.3233882 C90.4200763,31.3233882 86.1764865,24.7163294 78.4319353,26.1446824 C70.687384,27.5751529 71.0056532,35.3140941 71.0056532,35.3140941 C67.6998968,32.4880941 63.1168199,31.6780941 59.0387301,33.1964471 C51.9625442,35.7270353 53.3735378,42.8963294 53.3735378,42.8963294 C53.3735378,42.8963294 47.5598199,39.9845647 42.6903006,43.8905647 C37.8207814,47.7976235 41.5763583,54.9023294 41.5763583,54.9023294 C41.5763583,54.9023294 35.2109737,54.1611529 32.2404609,59.4351529 C29.2699481,64.7070353 35.2746276,68.7305647 35.2746276,68.7305647 C35.2746276,68.7305647 28.8349801,69.4823294 29.3760378,77.8576235 C29.7685699,84.0199765 36.5158776,85.7140941 36.5158776,85.7140941 C36.5158776,85.7140941 36.0490827,76.1846824 41.8203647,76.2492706 C47.5916468,76.3117412 48.0478327,82.6022118 48.0478327,82.6022118" id="Fill-43" fill="#000000"></path>
                            <path d="M106.895813,80.3671412 C106.479942,79.3496118 105.316137,78.8604353 104.296615,79.2754941 C103.402278,79.6386706 102.897291,80.5894941 103.097801,81.5329059 C103.113714,82.4699647 103.856342,83.2344353 104.795237,83.2789059 C105.004233,83.2725529 105.208987,83.2259647 105.399948,83.1412588 C106.464028,83.0046706 107.215144,82.0337294 107.078288,80.9717294 C107.050704,80.7620824 106.989172,80.5577294 106.895813,80.3671412" id="Fill-45" fill="#000000"></path>
                            <path d="M74.4006311,79.8057529 L74.4006311,79.8057529 C73.998551,80.1234 73.7545446,80.5977529 73.7322657,81.1081059 C73.5413042,83.5116353 76.6603426,84.7398706 77.7212401,82.3998706 C78.6548298,80.3574 75.8858875,77.8374 74.3688042,79.8174" id="Fill-47" fill="#000000"></path>
                            <path d="M70.1783654,94.2808235 C70.1783654,94.2808235 62.0837179,93.402 61.8821474,96.5890588 C61.6805769,99.7750588 69.4145192,99.5325882 69.4145192,99.5325882 C69.4145192,99.5325882 74.7932692,99.8078824 74.7190064,97.2984706 C74.6023077,94.4184706 70.1995833,94.2808235 70.1995833,94.2808235" id="Fill-49" fill="#C46565"></path>
                            <path d="M124.973612,100.696765 C123.097945,105.406412 120.343855,109.717941 116.857746,113.402647 C113.774779,116.819471 109.892955,119.424176 105.559189,120.983824 C101.16283,122.248059 96.5723266,122.703353 92.0115285,122.328529 C85.9962401,122.010882 78.8988362,121.089706 73.4988683,118.601471 C72.8665734,118.308176 72.1621375,118.208647 71.4725542,118.315588 C70.7935798,118.421471 70.1464324,118.940294 70.1994772,119.554412 C70.3798298,121.343824 77.0104388,123.048529 78.4850862,123.419118 C81.7929644,124.233353 85.1655574,124.764882 88.5636119,125.007353 C93.9031087,125.524059 99.2892849,125.285824 104.561945,124.297941 C107.321339,123.661588 109.960852,122.590059 112.380759,121.121471 C115.945375,119.003824 118.332394,115.827353 120.867939,112.650882 C123.605054,109.230882 126.395214,105.916765 128.007779,101.755588 C128.707971,99.9555882 125.599541,98.9814706 124.909958,100.770882" id="Fill-51" fill="#000000"></path>
                            <path d="M116.613846,93.3481059 C116.613846,93.3481059 108.50859,92.4703412 108.317628,95.6574 C108.126667,98.8434 115.574167,98.6210471 115.574167,98.6210471 C115.574167,98.6210471 121.22875,98.8762235 121.133269,96.3562235 C121.016571,93.4751647 116.613846,93.3481059 116.613846,93.3481059" id="Fill-53" fill="#C46565"></path>
                            <path d="M130.458346,97.6795412 C130.874217,97.5355412 131.334647,97.6880118 131.582897,98.0501294 C131.820538,98.3550706 131.850243,98.7733059 131.65716,99.1089529 C130.651429,99.7887176 129.883339,100.766012 129.461102,101.903188 C128.973089,103.533776 129.333794,105.482012 130.766006,105.693776 C133.694083,106.138482 134.118442,104.117188 133.853217,102.294953 C133.694083,101.508247 133.328073,100.777659 132.79232,100.177306 C132.79232,100.177306 133.365204,100.0926 133.92748,99.9771882 C134.251054,99.9041294 134.564019,99.7940118 134.86107,99.6478941 C135.506096,100.2906 135.970769,101.090012 136.20841,101.967776 C136.887384,104.487776 135.964403,108.574835 131.296454,108.320718 C127.265044,108.076129 125.86466,105.144247 126.914948,101.363188 C127.359464,99.6023647 128.677099,98.1920118 130.405301,97.6255412" id="Fill-55" fill="#FFE985"></path>
                            <path d="M48.6526503,96.8958 C48.2367785,96.7518 47.776349,96.9042706 47.528099,97.2663882 C47.2840926,97.5681529 47.2501439,97.9885059 47.4432272,98.3252118 C48.4722978,99.0314471 49.245692,100.047918 49.6498939,101.226388 C50.1379067,102.846388 49.7772016,104.794624 48.3343811,105.016976 C45.4169131,105.451094 44.9819452,103.428741 45.2577785,101.607565 C45.4848106,100.724506 45.9165958,99.9092118 46.5202465,99.2252118 C46.5202465,99.2252118 45.9261439,99.1087412 45.3638683,98.9605059 C45.0445381,98.8821529 44.7294516,98.7858 44.4196696,98.6746235 C43.7025029,99.4274471 43.1656888,100.331682 42.8495413,101.321682 C42.159958,103.852271 43.0829388,107.939329 47.7614965,107.674624 C51.7929067,107.419447 53.1932913,104.498153 52.1323939,100.717094 C51.6931824,98.9552118 50.3797913,97.5406235 48.6526503,96.9699176" id="Fill-57" fill="#FFE985"></path>
                            <path d="M120.75124,5.45537647 C119.138676,8.18714118 123.297394,10.6859647 124.909958,7.96478824 C126.12999,5.84714118 129.471817,4.46114118 131.116208,6.72596471 C132.612073,8.84361176 132.060407,12.0200824 130.511496,13.7777294 C129.450599,14.9636118 128.028996,15.5247882 127.89108,17.3036118 C128.001413,18.7647882 128.286795,20.2090235 128.739798,21.6024353 C129.397554,24.7153765 134.044285,23.3918471 133.386529,20.2789059 C133.227394,19.5493765 133.068259,18.8177294 132.919734,18.0882 C134.733868,16.1812588 136.219125,14.6470235 136.632875,11.5965529 C137.043442,8.70914118 136.35492,5.77408235 134.702041,3.36949412 C131.041945,-1.65991765 123.530791,0.755258824 120.75124,5.48714118" id="Fill-59" fill="#FFFFFF"></path>
                            <path d="M134.129475,27.4053176 C133.29561,27.0124941 132.308975,27.1596706 131.625757,27.7759059 C131.417821,27.9273176 131.241712,28.1189647 131.105917,28.3370824 L131.105917,28.3995529 L131.042263,28.5064941 L131.042263,28.5700235 C130.471501,29.4626118 130.372837,30.5764941 130.777039,31.5559059 C131.343558,32.8804941 132.840485,33.5412 134.203738,33.0700235 C135.336776,32.5437882 136.009385,31.3557882 135.879956,30.1159059 C135.846007,28.9490824 135.156424,27.9008471 134.097648,27.4053176" id="Fill-61" fill="#FFFFFF"></path>
                            <path d="M147.634699,18.2356941 C144.844539,19.6227529 147.284603,23.9004 150.064154,22.4709882 C151.125052,21.9193412 153.363546,22.1840471 153.713642,23.5933412 C154.000084,24.7368706 153.024058,26.3568706 152.260212,27.0451059 C151.008353,28.1674588 149.215437,27.4898118 147.94236,28.5369882 C146.881462,29.4168706 146.563193,31.2486353 146.107007,32.5298118 C145.04611,35.5262824 149.661013,36.7651059 150.743129,33.8533412 C150.891654,33.4298118 151.04018,33.0168706 151.199315,32.5933412 C153.32111,32.0851059 154.954892,31.6086353 156.503802,29.5756941 C157.821437,27.8604 158.526933,25.7554588 158.508898,23.5933412 C158.392199,18.0027529 151.825244,16.0862824 147.62409,18.1933412" id="Fill-63" fill="#FFFFFF"></path>
                            <path d="M148.292031,38.5653176 C147.984371,37.9596706 147.405121,37.5382588 146.732512,37.4323765 C146.637031,37.4217882 146.541551,37.4217882 146.44607,37.4323765 L146.361198,37.4323765 C146.059903,37.4228471 145.758608,37.4620235 145.470044,37.5488471 L145.226038,37.6335529 L145.013858,37.7066118 C142.626839,38.7654353 142.796583,42.7264941 145.533698,43.1076706 C146.689015,43.2643765 147.81781,42.6735529 148.345076,41.6348471 C148.719573,40.9402588 148.800201,40.1249647 148.567865,39.3700235 C148.52649,39.0989647 148.436313,38.8363765 148.30264,38.5960235" id="Fill-65" fill="#FFFFFF"></path>
                            <path d="M134.012458,84.8144118 C135.762939,87.0591176 133.88515,91.3579412 132.304413,93.0838235 C131.487522,93.9838235 132.803035,95.3391176 133.619926,94.4391176 C136.028163,91.8026471 137.778644,86.6038235 135.327971,83.4697059 C134.574734,82.5061765 133.26983,83.8720588 134.012458,84.8144118" id="Fill-67" fill="#000000"></path>
                            <path d="M41.7143811,83.0462824 C41.1690798,84.8611059 41.0205542,86.7712235 41.2794131,88.6474588 C41.7207465,90.3225176 42.6341792,91.8366353 43.9104388,93.0098118 C44.7591567,93.8769882 46.0322337,92.5333412 45.2259516,91.6545176 C44.1936984,90.7111059 43.4563747,89.4913412 43.1041567,88.1392235 C42.9301696,86.5975765 43.0786952,85.0358118 43.5391247,83.5534588 C43.804349,82.3580471 42.0114324,81.8498118 41.746208,83.0462824" id="Fill-69" fill="#000000"></path>
                            <path d="M159.704529,154.400082 C190.279594,154.558906 220.794187,154.569494 250.805914,154.071847" id="Fill-71" fill="#00AA13"></path>
                            <path d="M254.569342,159.821365 C264.975685,159.651953 280.818066,161.875482 290.747005,158.233129 C300.674883,154.591835 300.371467,138.667129 305.228255,127.421365 C309.615066,117.310659 309.961979,106.446071 309.961979,94.9906588 C309.961979,89.2825412 310.023512,83.5648941 310.117931,77.8578353 C295.411771,63.8496 278.537137,59.1907765 278.537137,59.1907765 L219.693399,60.2390118 L194.389935,73.6966588 C194.389935,73.6966588 190.921861,76.8731294 184.851406,100.167247 C178.780951,129.814306 173.066957,143.631953 170.97805,156.517835" id="Fill-73" fill="#00AA13"></path>
                            <g id="Group-77" transform="translate(281.137821, 61.411765)">
                                <mask id="mask-2" fill="white">
                                    <use xlink:href="#path-1"></use>
                                </mask>
                                <g id="Clip-76"></g>
                                <path d="M2.34203718,55.0195412 C5.19160769,65.9783647 7.8767391,85.9816588 14.0288833,95.6042471 C17.1818705,100.537306 22.4927231,96.7795412 28.4783064,98.2947176 C32.5542744,99.3270706 42.2423897,100.688718 45.7263769,97.7674235 C50.6818288,93.6104824 48.8857295,79.8246 48.7096205,74.0466 C48.2417647,58.7646 47.567034,42.7382471 39.7567071,29.5855412 C32.0492872,16.6075412 19.3556494,7.31954118 6.04456923,0.850129412 C6.04456923,0.850129412 -4.04032179,30.4971882 2.34203718,55.0195412" id="Fill-75" fill="#00AA13" mask="url(#mask-2)"></path>
                            </g>
                            <path d="M227.818495,83.9458588 C227.818495,83.9458588 221.748039,83.2893882 219.693081,76.9788 C223.30862,77.6013882 226.987812,77.3716235 230.53227,76.3011529 L227.818495,83.9458588 Z" id="Fill-78" fill="#00AA13"></path>
                            <path d="M223.881504,154.050565 C222.624341,143.991741 223.66402,133.203388 225.3901,123.344682 C227.315629,112.364682 230.220366,101.596447 234.928629,91.9092706 C235.209767,91.2697412 235.01244,90.4735059 234.489418,90.1315059 C233.992918,89.8064471 233.374414,90.0044471 233.07312,90.5857412 C228.165408,100.664682 225.138668,111.919976 223.187677,123.344682 C221.45311,133.510447 220.50785,144.448094 221.800023,154.771624 C222.007959,156.432918 224.080953,155.723506 223.873017,154.0728" id="Fill-80" fill="#007D00"></path>
                            <path d="M262.181599,105.823376 L261.885609,105.837141 C261.791189,105.812788 261.694647,105.796906 261.598105,105.785259 C254.859285,105.142553 248.911894,110.286318 248.31567,117.273494 C247.886006,122.292318 250.358958,127.108906 254.616339,129.550553 C254.869894,129.692435 255.14891,129.781376 255.435352,129.812082 C256.695698,129.964553 257.83298,129.029612 257.976202,127.723024 C258.084413,126.742553 257.597461,125.792788 256.752987,125.336435 C253.03242,123.301376 251.595964,118.530318 253.544833,114.677259 C254.997202,111.807847 257.99742,110.159259 261.107971,110.522435 C261.203452,110.528788 261.298932,110.524553 261.393352,110.510788 L261.681916,110.561612 C265.855487,111.056082 268.864192,114.966318 268.401641,119.293729 C268.058971,122.494553 265.873522,125.151141 262.881791,126.004553 C261.656455,126.361376 260.945654,127.683847 261.29575,128.955494 C261.550365,129.887259 262.321638,130.568082 263.247801,130.683494 C263.533182,130.723729 263.822807,130.711024 264.103945,130.645376 C270.594516,128.690788 274.310839,121.6422 272.403346,114.903847 C271.029484,110.0502 267.016109,106.493612 262.18266,105.845612" id="Fill-82" fill="#FFFFFF"></path>
                            <path d="M265.231679,118.929494 C265.50433,116.279259 263.654125,113.893729 261.097362,113.601494 C258.540599,113.309259 256.248,115.221494 255.974288,117.871729 C255.701638,120.519847 257.549721,122.904318 260.104362,123.198671 C262.653698,123.498318 264.947359,121.598788 265.229557,118.954906 C265.229557,118.947494 265.230618,118.937965 265.231679,118.929494" id="Fill-84" fill="#FFFFFF"></path>
                            <path d="M12.0408676,125.323729 C13.4476176,126.865376 17.3676337,132.377612 19.7546529,132.228318 C25.0591401,131.825965 19.1096272,121.963024 18.0020503,120.340906 C18.7627138,121.491847 20.8611689,122.539024 21.9687458,123.367024 C23.0752619,124.196082 24.1244894,125.070671 25.2203965,125.887024 C25.8792138,126.4662 26.7937074,126.658906 27.6296946,126.3942 C31.4924221,124.633376 28.6333035,117.740435 26.2006657,116.117259 C27.9065888,117.199376 29.4629253,118.568435 31.0892811,119.764906 C32.2424766,120.593965 33.6025471,122.285965 35.1249349,122.066788 C39.9095824,121.525729 37.5809125,113.493494 34.5021881,112.124435 C36.8085792,112.997965 38.9526529,115.115612 41.3280022,115.691612 C42.6764029,116.013494 43.1389542,115.001259 43.0233163,113.861965 C42.5268163,109.143847 37.327358,106.047847 32.5649894,106.1982 C27.8026208,106.347494 23.4677939,108.833612 19.4204702,111.341965 C16.8902298,112.729024 14.623092,114.548082 12.7219638,116.715494 C10.8197747,118.936906 10.1503484,121.956671 10.9343516,124.772082" id="Fill-86" fill="#DD7B6B"></path>
                            <path d="M44.8369205,114.917506 C44.6565679,117.649271 42.0998051,117.755153 39.8931385,117.415271 C39.2990359,117.3528 38.7155423,117.225741 38.1744846,117.024565 C38.3972731,117.913976 38.4609269,118.823506 38.1957026,119.797624 C37.6228179,121.842212 35.5752859,123.1128 33.4853179,122.699859 C32.4350295,122.529388 31.4271769,122.064565 30.4723692,121.461035 C30.5041962,121.598682 30.5360231,121.735271 30.557241,121.872918 C30.9603821,123.938682 30.0480103,126.035153 28.2550936,127.146918 C26.5046128,128.1528 24.9450936,127.823506 23.5128821,126.935153 C23.8099333,128.608094 23.4810551,130.205859 22.0488436,131.350447 C20.0861833,132.917506 17.317241,131.826918 15.4818885,130.619859 C13.4025295,129.242329 11.7475295,127.326918 10.70785,125.071624 L10.697241,125.113976 C10.0819205,123.779859 12.0657987,122.615153 12.6917282,123.970447 C13.4131385,125.5788 14.4952538,126.998682 15.8638115,128.121035 C16.903491,128.957506 19.3329462,130.692918 20.627241,129.549388 C22.8869526,127.601153 19.3011192,123.101153 17.7628179,121.8528 C16.7549654,121.016329 18.1129141,119.258682 19.1525936,120.042212 C19.2268564,120.095153 19.3011192,120.158682 19.3647731,120.211624 C19.6618244,120.444565 19.9482667,120.688094 20.234709,120.941153 C20.9667282,121.577506 21.6563115,122.255153 22.303459,122.964565 C23.2900936,123.970447 24.5419526,125.4528 26.0590359,125.4528 C28.5203179,125.4528 28.5733628,122.435153 27.7352538,120.846918 C27.1729782,119.777506 26.5576577,118.877506 25.8468564,117.691624 C25.1254462,116.505741 26.7061833,115.499859 27.660991,116.304565 C28.91285,117.415271 30.2283628,118.453976 31.5969205,119.417506 C33.060959,120.402212 35.7450295,121.355153 36.0420808,118.7388 C36.2436513,117.056329 35.108491,115.3728 34.4189077,113.858682 L34.4189077,113.848094 C34.3764718,113.763388 34.3340359,113.667035 34.302209,113.583388 C33.8141962,112.365741 35.8299013,111.549388 36.4133949,112.704565 C36.9968885,113.794094 37.9941321,114.599859 39.1929462,114.917506 C39.7233949,115.086918 42.5241641,115.669271 42.5241641,114.917506 C42.6302538,113.444682 44.9324013,113.435153 44.8369205,114.917506" id="Fill-88" fill="#000000"></path>
                            <path d="M20.2348151,120.941576 C19.9483728,120.688518 19.6619304,120.443929 19.3648792,120.212047 L19.4073151,120.159106 C19.6831484,120.381459 19.9589817,120.646165 20.2348151,120.941576" id="Fill-90" fill="#000000"></path>
                        </g>
                        <g id="Group-135" transform="translate(183.000000, 0.000000)">
                            <g id="Group-95" transform="translate(38.048780, 77.820755)">
                                <mask id="mask-4" fill="white">
                                    <use xlink:href="#path-3"></use>
                                </mask>
                                <g id="Clip-94"></g>
                                <path d="M49.9328943,12.5217858 C49.9328943,12.5217858 35.589561,26.8002953 22.4965528,32.5888802 C9.40143089,38.3774651 -3.9875122,30.0186632 1.49785366,14.0654085 C1.49785366,14.0654085 21.5326504,20.7654557 41.4554146,0.31245566 L49.9328943,12.5217858 Z" id="Fill-93" fill="#DD7B6B" mask="url(#mask-4)"></path>
                            </g>
                            <path d="M81.7123984,80.0465349 C81.7123984,80.0465349 66.3480894,94.5553085 48.9650813,95.2738179 C31.5799593,95.9923274 29.1015041,89.7751953 29.1015041,89.7751953 L20.4707724,83.9343745 L24.7385772,40.3440915 L60.9832114,14.5417142 L83.5641057,39.2492708 L97.9486585,31.6302991 L106.352154,47.6816292 L93.5339431,70.9969406 L88.9765447,70.1664972 L81.7123984,80.0465349 Z" id="Fill-96" fill="#DD7B6B"></path>
                            <path d="M51.8902927,62.6046651 C51.627122,63.3711462 51.3185041,64.183467 50.6885854,64.7228821 C49.877935,65.4190047 48.719561,65.623684 47.6827317,65.482967 C46.7748455,65.3603726 45.989561,64.8859858 45.4315122,64.15575 C44.8850894,63.4415047 44.6145203,62.6419764 44.5088293,61.7529009 C44.4750081,61.4704009 44.665252,61.0994198 44.8554959,60.9054009 C45.0626504,60.6985896 45.3998049,60.5418821 45.6957398,60.5557406 C46.0033008,60.5695991 46.3214309,60.6708726 46.5359837,60.9054009 C46.7621626,61.1559198 46.8446016,61.4192311 46.8837073,61.7529009 C46.8372033,61.3563349 46.9006179,61.8030047 46.9249268,61.9021462 C46.9576911,62.0258066 47.0306179,62.1622594 47.0475285,62.2869858 L46.9830569,62.1388066 C47.0020813,62.1825142 47.0232195,62.2272877 47.0443577,62.2709953 C47.0707805,62.3253632 47.0993171,62.3797311 47.1299675,62.433033 C47.194439,62.5492311 47.277935,62.6537028 47.3455772,62.7677689 C47.2948455,62.6814198 47.1965528,62.5822783 47.3191545,62.7197972 C47.3582602,62.7635047 47.3994797,62.8072123 47.442813,62.8487877 C47.490374,62.8946274 47.5559024,62.9383349 47.6002927,62.9895047 C47.5389919,62.9191462 47.4005366,62.8455896 47.5590732,62.9479292 C47.6076911,62.9799104 47.6584228,63.0108255 47.7091545,63.0374764 C47.7398049,63.054533 47.7725691,63.0705236 47.8032195,63.0854481 C47.8856585,63.1248915 47.8454959,63.1078349 47.6827317,63.0342783 C47.7186667,63.02575 47.8159024,63.0790519 47.8518374,63.0897123 C47.8867154,63.0993066 48.1815935,63.1494104 47.998748,63.1280896 C47.8159024,63.1078349 48.0780163,63.1291557 48.1150081,63.1302217 C48.2069593,63.1323538 48.2989106,63.1302217 48.3908618,63.1248915 C48.4669593,63.1206274 48.5430569,63.1120991 48.6202114,63.1057028 C48.7755772,63.0939764 48.3898049,63.1515425 48.6149268,63.1046368 C48.7005366,63.0865142 48.7872033,63.0705236 48.872813,63.0481368 C48.9076911,63.0385425 49.1518374,62.9724481 48.9785041,63.024684 C48.8115122,63.0715896 49.0334634,62.9852406 49.0715122,62.96925 C49.1539512,62.91275 49.1539512,62.9159481 49.0715122,62.9799104 C48.9901301,63.0449387 48.9880163,63.0460047 49.0630569,62.9831085 C49.1053333,62.9394009 49.1507805,62.8999575 49.1909431,62.855184 C49.3515935,62.6792877 49.1528943,62.8605142 49.1634634,62.8999575 C49.1528943,62.8594481 49.3589919,62.5769481 49.3875285,62.5193821 C49.416065,62.4639481 49.440374,62.405316 49.4667967,62.3498821 C49.5312683,62.2144953 49.3727317,62.5950708 49.4477724,62.3914575 C49.499561,62.2507406 49.5513496,62.1100236 49.5999675,61.9671745 C49.8018374,61.3776557 50.4233008,60.9235236 51.0606179,61.1303349 C51.6408618,61.3211557 52.1080163,61.9703726 51.8902927,62.6046651" id="Fill-98" fill="#000000"></path>
                            <path d="M46.5903089,62.2976462 C46.2383577,63.2293632 45.8356748,64.0821934 44.9912033,64.6589198 C44.2524228,65.1631557 43.3022602,65.258033 42.4451057,65.0895991 C40.7022602,64.749533 39.5491707,62.8967594 39.6749431,61.1719104 C39.7193333,60.5482783 40.1886016,59.9438349 40.8618537,59.973684 C41.4664065,60.0014009 42.098439,60.5024387 42.0498211,61.1719104 C42.039252,61.3083632 42.0371382,61.444816 42.0466504,61.5812689 C42.0487642,61.6271085 42.0529919,61.6718821 42.0572195,61.7177217 C42.0498211,61.6569575 42.0424228,61.5961934 42.0339675,61.5343632 C42.0614472,61.5887311 42.0603902,61.6750802 42.075187,61.7369104 C42.1058374,61.866967 42.1755935,61.9980896 42.1988455,62.1270802 C42.1206341,61.9469198 42.1079512,61.9138726 42.1607967,62.0279387 C42.1713659,62.0481934 42.181935,62.0684481 42.1925041,62.0887028 C42.2231545,62.1484009 42.2559187,62.2080991 42.2929106,62.2667311 C42.3246179,62.318967 42.382748,62.376533 42.406,62.4340991 C42.2865691,62.2827217 42.2664878,62.2550047 42.3457561,62.3509481 C42.3605528,62.3669387 42.3753496,62.3850613 42.3901463,62.4021179 C42.4355935,62.4511557 42.4831545,62.4991274 42.5328293,62.5439009 C42.5655935,62.5758821 42.5994146,62.6046651 42.6332358,62.6334481 C42.5899024,62.5982689 42.5455122,62.5641557 42.500065,62.5289764 C42.5518537,62.5385708 42.6194959,62.6099953 42.6670569,62.6387783 C42.7177886,62.6686274 42.796,62.6910142 42.8382764,62.7304575 C42.6533171,62.6547689 42.618439,62.6398443 42.7346992,62.6846179 C42.7547805,62.6920802 42.7748618,62.6984764 42.7949431,62.7059387 C42.866813,62.7304575 42.9386829,62.7496462 43.0137236,62.7656368 C43.0602276,62.7773632 43.3022602,62.8146745 43.0781951,62.7826934 C42.8562439,62.7517783 43.0972195,62.7773632 43.1458374,62.7784292 C43.2113659,62.7805613 43.2747805,62.7794953 43.3403089,62.7752311 C43.6066504,62.7592406 43.1574634,62.8146745 43.280065,62.7880236 C43.4068943,62.7603066 43.5273821,62.7261934 43.6510407,62.687816 C43.7662439,62.6515708 43.3709593,62.8253349 43.6003089,62.7048726 C43.6573821,62.6750236 43.7123415,62.6430425 43.7662439,62.6078632 C43.9807967,62.4660802 43.646813,62.7219292 43.729252,62.6387783 C43.7789268,62.5897406 43.8307154,62.5428349 43.8793333,62.4927311 C43.9046992,62.4639481 43.9290081,62.4362311 43.9533171,62.4074481 C43.8529106,62.5417689 43.8286016,62.57375 43.8803902,62.5001934 C43.9194959,62.4362311 43.9628293,62.3744009 44.001935,62.3104387 C44.0790894,62.179316 44.1403902,62.0417972 44.2069756,61.9053443 C44.2429106,61.8221934 44.2281138,61.8584387 44.1615285,62.0140802 C44.1763252,61.979967 44.190065,61.9437217 44.2048618,61.9096085 C44.2365691,61.8264575 44.2682764,61.7422406 44.2999837,61.6601557 C44.4120163,61.3605991 44.5631545,61.1111462 44.8453496,60.9437783 C45.100065,60.793467 45.4752683,60.7295047 45.7606341,60.823316 C46.3250244,61.0077406 46.826,61.66975 46.5903089,62.2976462" id="Fill-100" fill="#000000"></path>
                            <path d="M43.4494878,45.0577906 C42.8671301,50.4199604 42.3989187,55.7885264 42.0490813,61.172017 C41.9497317,62.7028472 39.5737967,62.7135075 39.6742033,61.172017 C40.0240407,55.7885264 40.4911951,50.4199604 41.0735528,45.0577906 C41.1443659,44.4149698 41.5703008,43.8606302 42.2615203,43.8606302 C42.8502195,43.8606302 43.5192439,44.4117717 43.4494878,45.0577906" id="Fill-102" fill="#000000"></path>
                            <path d="M63.3646423,61.5750858 C63.3688699,61.6720953 63.3752114,61.7701708 63.3826098,61.8661142 C63.3857805,61.9023594 63.4217154,62.1741991 63.3952927,61.9972368 C63.3688699,61.8202745 63.4122033,62.0931802 63.4185447,62.1283594 C63.4365122,62.2232368 63.4565935,62.3191802 63.4787886,62.4140575 C63.5527724,62.7317368 63.6552927,63.0376896 63.7726098,63.3415104 C63.6700894,63.076067 63.7916341,63.3756236 63.8096016,63.4129349 C63.8444797,63.4864915 63.8804146,63.557916 63.9174065,63.6304066 C64.0009024,63.7881802 64.0907398,63.9427557 64.1869187,64.0920009 C64.230252,64.1612934 64.2756992,64.2284538 64.3211463,64.2956142 C64.3866748,64.3894255 64.4395203,64.4555198 64.337,64.3265292 C64.4469187,64.4661802 64.5631789,64.601567 64.6847236,64.7316236 C64.7925285,64.8467557 64.9056179,64.9586896 65.021878,65.0642274 C65.081065,65.1175292 65.1413089,65.1686991 65.2004959,65.2220009 C65.4340732,65.4288123 65.0049675,65.0866142 65.2575691,65.2699726 C65.5270813,65.4639915 65.8061057,65.6430858 66.0999268,65.7965953 C66.1717967,65.8328406 66.2415528,65.8680198 66.3134228,65.902133 C66.3556992,65.9223877 66.3990325,65.9426425 66.4423659,65.9607651 C66.5216341,65.9959443 66.5004959,65.987416 66.3768374,65.9319821 C66.464561,66.0193972 66.7065935,66.0545764 66.8217967,66.0908217 C66.972935,66.1377274 67.126187,66.1782368 67.279439,66.2144821 C67.3724472,66.2347368 67.4633415,66.2549915 67.5563496,66.2709821 C67.6250488,66.2837745 67.9146423,66.3200198 67.6155366,66.2837745 C68.2306585,66.3583972 68.8341545,66.7805481 68.8035041,67.4820009 C68.7770813,68.0661896 68.2761057,68.7601802 67.6155366,68.6791613 C65.8695203,68.4648877 64.2249675,67.7303877 63.0052927,66.4255575 C61.7708211,65.1068689 61.0743171,63.3798877 60.9887073,61.5750858 C60.9591138,60.9471896 61.5562683,60.3491425 62.1766748,60.3768594 C62.8456992,60.4067085 63.332935,60.9034821 63.3646423,61.5750858" id="Fill-104" fill="#000000"></path>
                            <path d="M62.8774065,64.6337613 C61.6154553,66.0494594 59.7912276,66.8052802 57.9976504,67.3979972 C52.2385447,69.2976764 45.0938293,69.8338934 39.0662683,69.2059972 C39.0662683,69.2059972 38.9098455,78.8749594 44.6414715,81.3982708 C50.3709837,83.920516 61.5213902,79.7682991 65.3252114,66.7370538 L62.8774065,64.6337613 Z" id="Fill-106" fill="#000000"></path>
                            <path d="M45.5432276,81.7299151 C50.4250976,83.166934 58.2155854,80.4709245 62.8363984,72.5651887 C60.2110325,72.9372358 55.9474553,73.7623491 52.2778618,75.4520189 C48.6198943,77.1299623 46.5642033,79.9091226 45.5432276,81.7299151" id="Fill-108" fill="#FF405A"></path>
                            <path d="M57.8540163,84.9686443 C55.2497886,86.8715217 51.9162927,88.6667292 48.6483252,87.3725594 C48.0522276,87.1358991 47.6358049,86.569833 47.8186504,85.8982292 C47.9750732,85.3247009 48.6789756,84.8236632 49.2803577,85.0613896 C50.5634472,85.5698896 51.7989756,85.4696821 53.1148293,84.9931632 C54.3461301,84.5486255 55.5562927,83.7032575 56.6544228,82.9005311 C57.1744228,82.5199557 57.9787317,82.8099179 58.2799512,83.3301443 C58.6297886,83.9335217 58.3750732,84.5880689 57.8540163,84.9686443" id="Fill-110" fill="#000000"></path>
                            <path d="M42.2058211,69.4267736 C42.396065,73.6791981 47.076065,75.8954906 53.7737073,72.6483396 C58.8933821,70.1580755 60.4480976,67.4130283 60.9828943,66.1316509 C60.0570407,66.671066 59.0233821,67.066566 58.0024065,67.4023679 C53.2156585,68.9715755 47.4681789,69.6186604 42.2058211,69.4267736" id="Fill-112" fill="#FFFFFF"></path>
                            <path d="M59.8641545,94.8378085 C53.121065,97.4997047 45.9467561,99.203233 38.7724472,97.3152802 C34.0935041,96.0829406 29.9778943,93.4082519 27.1887073,89.4020821 C25.2439919,86.6090632 24.0761057,83.2617047 23.5444797,79.906884 C22.8046423,75.2291104 22.8226098,70.3914311 22.9462683,65.6763462 C23.1756179,56.9764123 24.3604146,48.2946009 26.4488699,39.8526481 C27.0196016,37.5457425 30.5560244,38.5232991 29.9842358,40.8355349 C28.2191951,47.9609311 27.121065,55.2334406 26.7342358,62.5677802 C26.4604959,67.7529877 26.3801707,73.0661198 26.9826098,78.2332047 C26.9984634,78.3696575 27.0185447,78.5061104 27.0322846,78.6425632 C26.9656992,77.9901481 27.0185447,78.523167 27.0407398,78.6766764 C27.0893577,78.9996858 27.1432602,79.3226953 27.2035041,79.6446387 C27.3356179,80.358884 27.4973252,81.0677991 27.6907398,81.7671198 C27.8989512,82.5197425 28.1430976,83.2638368 28.4274065,83.9898085 C28.4675691,84.0932142 28.5098455,84.1955538 28.551065,84.2968274 C28.5309837,84.2467236 28.3830163,83.9237142 28.5214715,84.2254028 C28.6049675,84.4098274 28.6852927,84.59745 28.7719593,84.7808085 C28.9569187,85.1773745 29.1566748,85.5696764 29.3691138,85.95345 C29.5762683,86.3276292 29.7961057,86.6943462 30.028626,87.0536009 C30.1607398,87.2572142 30.2970813,87.4586953 30.4376504,87.6569783 C30.4947236,87.7369311 30.5549675,87.8147519 30.6099268,87.8947047 C30.8868374,88.298733 30.372122,87.6132708 30.6839106,87.9949123 C31.2884634,88.7358085 31.9236667,89.4415255 32.6349675,90.0822142 C32.8146423,90.2431858 32.9985447,90.4030915 33.184561,90.5566009 C33.2680569,90.6269594 33.3536667,90.6951858 33.4392764,90.7634123 C33.171878,90.5512708 33.4604146,90.7772708 33.5291138,90.8263085 C33.9698455,91.1439877 34.4148049,91.4499406 34.8787886,91.7313745 C35.3406585,92.0106764 35.8152114,92.2675915 36.2982195,92.5053179 C36.4366748,92.5735443 36.5783008,92.6375066 36.717813,92.7036009 C36.7759431,92.7313179 37.1384634,92.8933557 36.8869187,92.7835538 C37.1849675,92.9125443 37.4883008,93.0287425 37.7926911,93.1396104 C40.9803333,94.3026575 44.3339106,94.683233 47.7065122,94.3506292 C51.5557805,93.9711198 55.3067561,92.6865443 58.8896829,91.2729783 C59.8113089,90.9083934 60.9009837,91.6727425 61.1440732,92.56395 C61.429439,93.6118651 60.7889512,94.4721575 59.8641545,94.8378085" id="Fill-114" fill="#000000"></path>
                            <path d="M71.5118374,36.7761698 C70.9643577,35.6408396 70.2065528,34.7101887 69.2193984,34.0567075 C68.1783415,33.3712453 67.036878,32.967217 65.891187,32.9363019 C63.4951707,32.8723396 61.222813,34.2134151 60.0306179,36.3817358 C58.8870407,38.4637075 55.7205366,36.6002736 56.8662276,34.5161698 C58.6376098,31.2914057 62.2173659,29.1454717 65.891187,29.2403491 C69.5523252,29.3341604 73.0718374,31.582434 74.6772846,34.9095377 C75.109561,35.8071415 74.9182602,36.9083585 74.0188293,37.4392453 C73.2145203,37.9136321 71.9472846,37.6769717 71.5118374,36.7761698" id="Fill-116" fill="#000000"></path>
                            <path d="M39.2048293,38.4981406 C39.0906829,38.2305651 38.9627967,37.9715179 38.8116585,37.7231311 C38.7429593,37.6111972 38.664748,37.5045934 38.5949919,37.3947915 C38.7979187,37.7156689 38.534748,37.3265651 38.4882439,37.2753953 C38.2948293,37.0557915 38.0771057,36.872433 37.8678374,36.6709519 C37.718813,36.5291689 38.0823902,36.8084708 37.8001951,36.6240462 C37.6670244,36.5366311 37.5380813,36.44815 37.4027967,36.3681972 C37.2897073,36.2999708 37.1734472,36.2381406 37.0561301,36.1773764 C36.9134472,36.1059519 36.7485691,36.0409236 36.9916585,36.136867 C36.7232033,36.0323953 36.4494634,35.9428481 36.1683252,35.8746217 C36.0414959,35.8437066 35.9125528,35.8245179 35.7846667,35.7946689 C36.1915772,35.8895462 35.7360488,35.7957349 35.6493821,35.7904047 C35.5183252,35.7829425 35.3883252,35.7808104 35.2572683,35.7829425 C35.2023089,35.7840085 34.705561,35.8085274 34.952878,35.7904047 C35.2075935,35.77015 34.7827154,35.8213198 34.7298699,35.8319802 C34.5766179,35.8650274 34.4244228,35.9055368 34.2743415,35.9513764 C34.149626,35.9897538 34.0280813,36.0387915 33.9044228,36.080367 C33.7067805,36.1475274 34.1401138,35.9503104 33.8399512,36.1166123 C33.5862927,36.2562632 33.3358049,36.3937821 33.0969431,36.560084 C32.9701138,36.6496311 32.8390569,36.7786217 33.0303577,36.6069896 C32.9119837,36.7125274 32.7925528,36.814867 32.6794634,36.9246689 C32.4913333,37.1090934 32.3116585,37.3052443 32.1510081,37.5131217 C32.3909268,37.2039708 32.1161301,37.5834802 32.0706829,37.6538387 C31.987187,37.7881594 31.9079187,37.9246123 31.832878,38.0642632 C31.8106829,38.1047726 31.6193821,38.4938764 31.7229593,38.2710745 C31.8254797,38.0514708 31.6595447,38.4459047 31.644748,38.4917443 C31.5432846,38.793433 31.4735285,39.1015179 31.4217398,39.414933 C31.2642602,40.3711689 30.0414146,40.9916028 29.1673496,40.7059047 C28.1421463,40.3711689 27.7183252,39.4565085 27.8874309,38.4320462 C28.4253984,35.1699708 31.2674309,32.5901594 34.4656423,32.1573481 C37.6511707,31.7245368 41.0945854,33.6338104 42.3692195,36.6325745 C42.7465366,37.5184519 42.6598699,38.6559142 41.7118211,39.161216 C40.9233659,39.5823009 39.6075122,39.4479802 39.2048293,38.4981406" id="Fill-118" fill="#000000"></path>
                            <path d="M57.1320407,40.3438783 C57.1320407,40.3438783 61.5615528,36.8973783 67.3534228,38.7128406 C73.1452927,40.5272368 70.8285447,44.1421708 66.0587073,45.2039443 C61.2888699,46.2646519 55.768626,46.7720858 55.2232602,44.375633 C54.6778943,41.9791802 57.1320407,40.3438783 57.1320407,40.3438783" id="Fill-120" fill="#FFFFFF"></path>
                            <path d="M30.4693577,46.0456877 C30.4693577,46.0456877 33.5164309,42.8998104 37.4999268,44.5574991 C41.4844797,46.2130557 39.8917154,49.5124425 36.6100081,50.4804047 C33.3283008,51.4473009 29.531878,51.9120934 29.1566748,49.72565 C28.7814715,47.5381406 30.4693577,46.0456877 30.4693577,46.0456877" id="Fill-122" fill="#FFFFFF"></path>
                            <path d="M58.9569024,46.8244283 C57.5586098,46.8244283 56.220561,45.5846264 56.2850325,44.1284189 C56.3495041,42.6690132 57.4592602,41.4324094 58.9569024,41.4324094 C60.3551951,41.4324094 61.6932439,42.6722113 61.6287724,44.1284189 C61.5643008,45.5899566 60.4545447,46.8244283 58.9569024,46.8244283" id="Fill-124" fill="#000000"></path>
                            <path d="M32.5903659,51.5154208 C31.3791463,51.5154208 30.2176016,50.4408547 30.2736179,49.1797321 C30.3306911,47.9143453 31.2914228,46.8429774 32.5903659,46.8429774 C33.8015854,46.8429774 34.9620732,47.9175434 34.9060569,49.1797321 C34.8500407,50.4451189 33.888252,51.5154208 32.5903659,51.5154208" id="Fill-126" fill="#000000"></path>
                            <g id="Group-130">
                                <mask id="mask-6" fill="white">
                                    <use xlink:href="#path-5"></use>
                                </mask>
                                <g id="Clip-129"></g>
                                <path d="M60.9835285,17.080483 C60.9835285,17.080483 65.8675122,25.3070962 72.7395447,33.2810585 C79.6115772,41.2560868 82.9630407,47.8484642 85.310439,43.2847566 C87.6567805,38.719983 91.9182439,35.9290962 97.1129593,38.8020679 C102.308732,41.6761057 101.064748,53.8491906 96.372065,60.7389925 C91.6793821,67.6287943 85.9805203,67.0893792 83.8011707,62.6258792 C83.8011707,62.6258792 75.9240163,71.3801811 75.9240163,82.0991906 C75.9240163,92.8182 101.567837,111.753162 116.988163,97.0450396 C132.408488,82.336917 136.431089,52.5006528 107.769789,23.294417 C79.1084878,-5.91075283 66.3727154,3.72516226 66.3727154,3.72516226 C66.3727154,3.72516226 56.2506829,-4.55901698 40.3589756,3.89466226 C24.4683252,12.3472755 8.06718699,36.854417 2.67905691,58.6687472 C-5.17378862,90.4547943 13.6297073,99.8242 30.911252,90.9888792 C30.911252,90.9888792 18.9459675,82.8933887 27.6950732,43.1813509 C27.6950732,43.1813509 46.2100325,38.2125491 60.9835285,17.080483" id="Fill-128" fill="#000000" mask="url(#mask-6)"></path>
                            </g>
                            <path d="M94.066626,46.3466302 C91.9475203,46.3306396 90.640122,48.3614415 90.3230488,50.267517 C90.131748,51.4167057 90.2120732,52.6479792 90.415,53.7897057 C90.5650813,54.6212151 90.7775203,55.6328849 91.5416667,56.1072717 C92.8416667,56.9142623 91.6494715,58.9866396 90.3420732,58.1764509 C89.1012602,57.4067717 88.4607724,56.0795547 88.1732927,54.6766491 C87.8329675,53.0221585 87.7410163,51.2994415 88.0327236,49.6300264 C88.5495528,46.6664415 90.9170325,43.9267245 94.066626,43.9501774 C95.5938618,43.9619038 95.5980894,46.3583566 94.066626,46.3466302" id="Fill-131" fill="#000000"></path>
                            <path d="M39.1129837,67.3852047 C46.5261545,70.1824877 54.2637967,67.1751953 61.1770488,64.342733 C61.7720894,64.0996764 62.4823333,64.6071104 62.6376992,65.1795726 C62.8247724,65.8639689 62.4051789,66.4087142 61.8090813,66.6528368 C54.5037154,69.6452047 46.2978618,72.6450349 38.4809512,69.6953085 C37.0625772,69.1601575 37.6766423,66.8436575 39.1129837,67.3852047" id="Fill-133" fill="#000000"></path>
                        </g>
                        <g id="Group-142" transform="translate(174.000000, 96.000000)" fill="#007D00">
                            <path d="M2.41885574,67.7241951 C4.75248689,53.9251463 8.16147049,39.8523659 16.662782,28.4543049 C17.4780197,27.360439 15.6434705,26.3015854 14.8366918,27.3837805 C6.23598689,38.9144634 2.74029836,53.2005 0.37917541,67.1608171 C0.153954098,68.4965854 2.19151967,69.0705732 2.41885574,67.7241951" id="Fill-136"></path>
                            <path d="M119.013814,31.4283256 C123.467486,49.113728 125.987216,67.2394354 126.52542,85.4723012 C126.564543,86.8356549 128.680355,86.8409598 128.640175,85.4723012 C128.096683,67.0569476 125.551576,48.726472 121.053494,30.8638866 C120.719363,29.54085 118.679683,30.1010451 119.013814,31.4283256" id="Fill-138"></path>
                            <path d="M93.5361025,2.66792927 C87.1252254,8.15741707 80.3326352,13.4060634 72.7131762,17.1035634 C65.4384221,20.6344902 56.1313893,22.9622707 49.1960533,17.4197341 C47.0770697,15.7264171 45.0574795,13.4400146 44.2549303,10.8045512 C43.3572172,7.8561 43.9038811,4.69439268 44.2485861,1.70138049 C44.4040205,0.346514634 42.288209,0.358185366 42.133832,1.70138049 C41.8007582,4.59253902 41.3630041,7.53568537 41.9720533,10.423661 C42.5366926,13.1015634 44.1047828,15.383722 45.9721107,17.3274293 C49.0448484,20.5294537 53.0649959,22.4508805 57.4753156,22.8264659 C66.8140697,23.6179537 76.0566025,18.3024659 83.4656434,13.1938683 C87.4931926,10.4162341 91.3156107,7.35001463 95.0312336,4.16814878 C96.0685205,3.2801122 94.5670451,1.78625854 93.5361025,2.66792927" id="Fill-140"></path>
                        </g>
                    </g>
                </g>
            </g>
        </g>
    </g>
</svg>