<svg id="Layer_1" data-name="Layer 1" xmlns="http://www.w3.org/2000/svg" xmlns:xlink="http://www.w3.org/1999/xlink" viewBox="0 0 300 200"><defs><style>.cls-1,.cls-53{fill:none;}.cls-2{fill:#fff;}.cls-3{isolation:isolate;}.cls-4{clip-path:url(#clip-path);}.cls-5{clip-path:url(#clip-path-2);}.cls-6{fill:#004656;}.cls-7{clip-path:url(#clip-path-3);}.cls-8{clip-path:url(#clip-path-5);}.cls-9{clip-path:url(#clip-path-7);}.cls-10{fill:#f1a7ad;}.cls-11{clip-path:url(#clip-path-9);}.cls-12{clip-path:url(#clip-path-11);}.cls-13{clip-path:url(#clip-path-13);}.cls-14{clip-path:url(#clip-path-15);}.cls-15{clip-path:url(#clip-path-17);}.cls-16{clip-path:url(#clip-path-19);}.cls-17{clip-path:url(#clip-path-21);}.cls-18{clip-path:url(#clip-path-23);}.cls-19{clip-path:url(#clip-path-25);}.cls-20{clip-path:url(#clip-path-27);}.cls-21{clip-path:url(#clip-path-29);}.cls-22{clip-path:url(#clip-path-31);}.cls-23{clip-path:url(#clip-path-33);}.cls-24{clip-path:url(#clip-path-35);}.cls-25{clip-path:url(#clip-path-37);}.cls-26{clip-path:url(#clip-path-39);}.cls-27{clip-path:url(#clip-path-41);}.cls-28{fill:#f57d87;}.cls-29{clip-path:url(#clip-path-43);}.cls-30{clip-path:url(#clip-path-45);}.cls-31{clip-path:url(#clip-path-47);}.cls-32{clip-path:url(#clip-path-49);}.cls-33{fill:#a3a4a4;}.cls-34{clip-path:url(#clip-path-51);}.cls-35{fill:#e7e7e7;}.cls-36{clip-path:url(#clip-path-53);}.cls-37{clip-path:url(#clip-path-55);}.cls-38{clip-path:url(#clip-path-57);}.cls-39{fill:#ff8c98;}.cls-40{clip-path:url(#clip-path-59);}.cls-41{clip-path:url(#clip-path-61);}.cls-42{clip-path:url(#clip-path-63);}.cls-43{clip-path:url(#clip-path-65);}.cls-44{clip-path:url(#clip-path-67);}.cls-45{clip-path:url(#clip-path-69);}.cls-46{clip-path:url(#clip-path-71);}.cls-47{clip-path:url(#clip-path-73);}.cls-48{clip-path:url(#clip-path-75);}.cls-49{clip-path:url(#clip-path-77);}.cls-50{clip-path:url(#clip-path-79);}.cls-51{clip-path:url(#clip-path-81);}.cls-52{clip-path:url(#clip-path-82);}.cls-53{stroke:#fff;stroke-miterlimit:10;stroke-width:2px;}</style><clipPath id="clip-path"><path class="cls-1" d="M127.1,109.3s-11.78,15.26-13.92,35.07,5.62,57,5.62,57l107.38-13.66s-23.3-47.39-36.42-57.57-22.49-16.87-38.29-19.28-24.37-1.6-24.37-1.6"/></clipPath><clipPath id="clip-path-2"><rect class="cls-1" x="-10.4" y="4.18" width="309.88" height="196.12"/></clipPath><clipPath id="clip-path-3"><path class="cls-1" d="M149.19,118.18a34,34,0,0,1,4.3,6.27c.59,1.09,1.21,2.08.53,3.27a14.24,14.24,0,0,1-2.59,2.79l-3.06,3a11,11,0,0,0-2.54,2.83c-1.09,2.4,1.31,4,3,5.24s3.93,2.43,5.34,4.25c1.73,2.22,1.18,4.61.44,7.12-1.62,5.45-3.27,10.88-4.9,16.31-.6,2,2.53,2.86,3.13.86q2-6.75,4.06-13.5c1.2-4,2.9-8.29.31-12.11a15.08,15.08,0,0,0-3.87-3.77c-.82-.59-1.66-1.13-2.49-1.7-.39-.27-.78-.54-1.15-.83a4,4,0,0,1-.7-.59c-.25-.32-.22.19,0-.15a15.59,15.59,0,0,1,2.45-2.42l2.5-2.44c1.39-1.38,3.06-2.82,3.55-4.8.54-2.17-.71-4.24-1.75-6a38.69,38.69,0,0,0-4.24-5.9c-1.38-1.58-3.67.72-2.3,2.3"/></clipPath><clipPath id="clip-path-5"><path class="cls-1" d="M110.9,10.19,121.39,5s28.36,1.57,41.86,34.12,21.56,55.31,11,70.78-34.13,11-36.73-4.73-26.65-95-26.65-95"/></clipPath><clipPath id="clip-path-7"><path class="cls-1" d="M153.16,42.4S161,94.28,145.77,111c0,0-9,11.18-23.75,7.7l-6.7,18.47L75.67,104.89s-10-43.23-.45-58S94.64,19.3,111.6,23.79,153.16,42.4,153.16,42.4"/></clipPath><clipPath id="clip-path-9"><path class="cls-1" d="M122,118.67a25.31,25.31,0,0,0,4,.61l-.1-.88-26.56-7.68,7,13.21,9,13.21Z"/></clipPath><clipPath id="clip-path-11"><path class="cls-1" d="M161.53,206.57c-9.44-33.83-42.95-76-60.76-90.85-17.62-14.64-44.89-7-44.89-7-13.66,2.14-32.67,11.78-35.35,13.92s-12,16.6-18.74,33.48A212.11,212.11,0,0,0-9.65,201.37h0A61.75,61.75,0,0,0,9.29,205.6c29.58,2.44,98.26,1.55,152.24,1"/></clipPath><clipPath id="clip-path-13"><path class="cls-1" d="M183.47,189.1,99.21,207.15c32-.18,65.5-.67,91.29-.85Z"/></clipPath><clipPath id="clip-path-15"><path class="cls-1" d="M73.23,113.25a118.69,118.69,0,0,0-2.4,18c-.16,3-.21,5.91-.14,8.87.06,2.47.25,5,2,6.93,3.26,3.46,9.28,2.73,13.56,3.21,1.47.16,3,.34,4.4.62.63.13,1,.2,1.26.85A5,5,0,0,1,92,153.9c-.32,2.68-1.67,5.19-1.69,7.92,0,3.08,3,4.5,5.28,6q4.17,2.74,8.56,5.13c1.84,1,3.48-1.8,1.64-2.8-2.41-1.32-4.78-2.71-7.09-4.19-1.13-.71-2.24-1.45-3.34-2.2a10.47,10.47,0,0,1-1.34-1c-.58-.55-.48-1.11-.36-1.87.56-3.69,4.14-11.11-1.28-13-2.5-.86-5.55-.94-8.17-1.17a38.32,38.32,0,0,1-6.68-.69A4.37,4.37,0,0,1,74,141.71a80.77,80.77,0,0,1,0-8.38,112,112,0,0,1,2.39-19.22c.43-2-2.7-2.91-3.14-.86"/></clipPath><clipPath id="clip-path-17"><path class="cls-1" d="M153.86,52A176.69,176.69,0,0,1,155,77.84c-.23,7.73-1.09,15.77-4.37,22.86-2.7,5.84-6.89,11.09-12.68,14.09-5.18,2.68-11.37,2-16.86.71a72.34,72.34,0,0,1-19.48-7.84c-2.9-1.68-5.52,2.81-2.62,4.49A79.09,79.09,0,0,0,117.75,120c6.22,1.69,13.42,2.82,19.67.65,6.91-2.4,12.48-8,16.09-14.2,4.22-7.25,5.88-15.62,6.48-23.9A162.28,162.28,0,0,0,159.06,52a2.68,2.68,0,0,0-2.6-2.6,2.62,2.62,0,0,0-2.6,2.6"/></clipPath><clipPath id="clip-path-19"><path class="cls-1" d="M159.46,50.77s-33.7,7.11-59.48-14.7c0,0-3.29,18.13-21,24.18,0,0,16.88,25.07,11.22,43.22s-31.68,18.35-40,10.14S33.33,77.06,51.54,44.73,96.88,2.72,121.39,5s38.07,45.75,38.07,45.75"/></clipPath><clipPath id="clip-path-21"><path class="cls-1" d="M119.37,87a5,5,0,0,0,5.33,4,5.27,5.27,0,0,0,4.69-4.76c.28-2.21-3.15-2.57-3.42-.37-.21,1.65-2.71,2.58-3.2.56s-3.92-1.6-3.4.56"/></clipPath><clipPath id="clip-path-23"><path class="cls-1" d="M126.76,86.92a5.72,5.72,0,0,0,2.29,2.5,4.55,4.55,0,0,0,3.44,0c2.19-.92,3.15-4,2.29-6.09s-4-.61-3.14,1.44a1.39,1.39,0,0,1-.67,1.52c-.79.21-1.24-1.09-1.56-1.58A1.72,1.72,0,0,0,127,84.5a1.75,1.75,0,0,0-.23,2.42"/></clipPath><clipPath id="clip-path-25"><path class="cls-1" d="M127.19,69q2,7.95,4.45,15.76c.67,2.11,3.8.66,3.14-1.44q-2.34-7.36-4.19-14.87c-.53-2.14-3.94-1.61-3.4.55"/></clipPath><clipPath id="clip-path-27"><path class="cls-1" d="M105.39,90.75a6,6,0,0,1,.17.73,2.93,2.93,0,0,1,0,.29c0-.23,0,0,0,.09a10.14,10.14,0,0,1,0,1.35c0,.12,0,.25,0,.37s-.05.44,0,.23,0,.13,0,.16,0,.25-.08.37a9.67,9.67,0,0,1-.39,1.37c0,.09-.07.19-.11.28s.09-.17,0,.1-.2.4-.31.6a8.43,8.43,0,0,1-.77,1.2c.11-.13.06-.07,0,0l-.24.29c-.15.17-.31.33-.47.48s-.37.34-.56.5-.16.12,0,0l-.37.25a1.67,1.67,0,0,0-.58,2.23,1.64,1.64,0,0,0,2.22.58,11.52,11.52,0,0,0,4.7-12.39,1.63,1.63,0,0,0-3.14.87"/></clipPath><clipPath id="clip-path-29"><path class="cls-1" d="M115,50.46a18.47,18.47,0,0,0-13.26-2.63,13.64,13.64,0,0,0-9.5,7.24,2.67,2.67,0,0,0,.93,3.56,2.62,2.62,0,0,0,3.56-.94,8.6,8.6,0,0,1,6.39-4.85,12.08,12.08,0,0,1,4.47.12,15.63,15.63,0,0,1,4.79,2A2.6,2.6,0,0,0,115,50.46"/></clipPath><clipPath id="clip-path-31"><path class="cls-1" d="M135.17,54.55A13.31,13.31,0,0,1,138.84,52L139,52l.51-.2q.59-.2,1.17-.36c.35-.09.7-.17,1.06-.23l.32,0,.46,0a10.84,10.84,0,0,1,4,.35c.4.11.8.24,1.2.38a5.55,5.55,0,0,1,.52.2l.17.07a19.64,19.64,0,0,1,2.28,1.29,2.63,2.63,0,0,0,3.56-.93,2.66,2.66,0,0,0-.93-3.56,17.08,17.08,0,0,0-21.83,2,2.6,2.6,0,1,0,3.68,3.68"/></clipPath><clipPath id="clip-path-33"><path class="cls-1" d="M97.62,68.23a4.88,4.88,0,0,0,2.51,1.65,12.14,12.14,0,0,0,3,.42c3.81.2,7.76,0,11.2-1.66a4.75,4.75,0,0,0,2.06-1.57,3.6,3.6,0,0,0-.32-4.08,5.89,5.89,0,0,0-3.74-2,32.57,32.57,0,0,0-7.44.27c-1.39.26-2.83.33-4.21.73a5.37,5.37,0,0,0-3.37,2.44,3.74,3.74,0,0,0,.3,3.84"/></clipPath><clipPath id="clip-path-35"><path class="cls-1" d="M133.52,66.58A4.88,4.88,0,0,0,136,68.23a12.14,12.14,0,0,0,3,.42c3.81.19,7.76,0,11.2-1.66a4.88,4.88,0,0,0,2.06-1.57,3.6,3.6,0,0,0-.32-4.08,5.89,5.89,0,0,0-3.74-2,32.57,32.57,0,0,0-7.44.27c-1.39.26-2.83.33-4.21.72a5.34,5.34,0,0,0-3.37,2.45,3.74,3.74,0,0,0,.3,3.84"/></clipPath><clipPath id="clip-path-37"><path class="cls-1" d="M147.59,67.92c-3.78,2.33-7.4-3.53-3.62-5.87s7.4,3.54,3.62,5.87"/></clipPath><clipPath id="clip-path-39"><path class="cls-1" d="M111.7,69.61c-3.77,2.33-7.4-3.53-3.62-5.86s7.4,3.53,3.62,5.86"/></clipPath><clipPath id="clip-path-41"><path class="cls-1" d="M102.93,76.59l-2.72.1a1.71,1.71,0,0,0-1.15.48,1.69,1.69,0,0,0-.48,1.15,1.64,1.64,0,0,0,.48,1.15,1.71,1.71,0,0,0,1.15.48l2.72-.11a1.69,1.69,0,0,0,1.15-.48,1.64,1.64,0,0,0,.48-1.15,1.66,1.66,0,0,0-.48-1.15,1.64,1.64,0,0,0-1.15-.47"/></clipPath><clipPath id="clip-path-43"><path class="cls-1" d="M150.28,74.22l-2.72.13a1.71,1.71,0,0,0-1.15.48,1.68,1.68,0,0,0-.48,1.14,1.64,1.64,0,0,0,.48,1.15,1.62,1.62,0,0,0,1.15.48l2.72-.13a1.71,1.71,0,0,0,1.15-.48,1.64,1.64,0,0,0,.47-1.15,1.57,1.57,0,0,0-.47-1.14,1.62,1.62,0,0,0-1.15-.48"/></clipPath><clipPath id="clip-path-45"><path class="cls-1" d="M103.37,117.58c12,12.4,21.17,26.81,28.47,42.38,2.09,4.45,4,9,5.92,13.49.8,1.91,3.94,1.07,3.14-.86-6.67-16.05-14.26-31.68-25-45.48a142.53,142.53,0,0,0-10.27-11.82c-1.45-1.51-3.75.79-2.3,2.29"/></clipPath><clipPath id="clip-path-47"><path class="cls-1" d="M106.44,97.88c2.29,1.73,5.34,2.33,8.07,3,3,.73,6.11,1.49,9.15.63a1.62,1.62,0,0,0-.86-3.13c-2.54.72-5.23-.09-7.71-.71s-5-1.08-7-2.6a1.63,1.63,0,0,0-2.22.58,1.67,1.67,0,0,0,.58,2.23"/></clipPath><clipPath id="clip-path-49"><path class="cls-1" d="M225.2,206.42c3.51.09,7,.12,10.52.35,8.23.54,28.47-.94,43.85-13l-154,.17-.54,5.17a3.59,3.59,0,0,0,3,3.91l20.34,3.72c32.79-.35,62-.69,76.85-.29"/></clipPath><clipPath id="clip-path-51"><path class="cls-1" d="M201.28,175.79l-85.69,19.37,64.2,11.23c11.08-.1,21.13-.17,29.54-.15l35.77-21Z"/></clipPath><clipPath id="clip-path-53"><path class="cls-1" d="M211.27,183.73,163.49,198a.73.73,0,0,0,.09,1.42l42,6.64Z"/></clipPath><clipPath id="clip-path-55"><path class="cls-1" d="M169.32,187,180.57,189a10.13,10.13,0,0,0,4.58-.21L209.31,182l-6.42-5.14-34.71,7.78Z"/></clipPath><clipPath id="clip-path-57"><path class="cls-1" d="M134.42,168.47s13.57-2.14,17.14-.36,7.41,7.59,5.09,7.77-19.64-3.3-22.23-7.41"/></clipPath><clipPath id="clip-path-59"><path class="cls-1" d="M170.21,190.52a3.15,3.15,0,0,0,1.61-3c-.18-2.14-5.89-6.42-7.5-7.85s-8-4.82-16.6-9.28-18-1.61-21.24-1.25-36.06,9.82-36.06,9.82l-5.69,28.29h3.32l17.36-8.83c8.75,2.32,16.25-2,22.32-1.25s23.56,4.11,24.1,2.32.35-2.5-2.14-3.75-14.82-4.1-14.82-4.1l9.64-.18s12.49,5.36,17.67,6.43,5.18-1.79,5.18-1.79c5.89,1.79,7,0,6.6-1.78s-3.75-3.75-3.75-3.75"/></clipPath><clipPath id="clip-path-61"><path class="cls-1" d="M9.29,205.6c18.79,1.55,53.36,1.76,89.92,1.55l-4-30.38S6.7,188,1,189.45c-3.4.84-10.23,4.85-13.33,10.68C-6.6,203.05.5,204.88,9.29,205.6"/></clipPath><clipPath id="clip-path-63"><path class="cls-1" d="M138.63,184.05c2.46.09,5,0,7.43.28a6.22,6.22,0,0,1,2.78,1.32c1,.65,2,1.3,3,1.93q6.24,4,12.68,7.63c1.82,1,3.46-1.77,1.64-2.8q-6.87-3.93-13.54-8.18c-1.92-1.23-3.79-2.88-6.13-3.12-2.6-.26-5.26-.22-7.87-.31-2.09-.08-2.09,3.17,0,3.25"/></clipPath><clipPath id="clip-path-65"><path class="cls-1" d="M147.22,177.53a212,212,0,0,1,19.18,11c1.76,1.14,3.39-1.67,1.64-2.81a216.87,216.87,0,0,0-19.18-11c-1.86-.94-3.51,1.86-1.64,2.81"/></clipPath><clipPath id="clip-path-67"><path class="cls-1" d="M132.46,192.77l5.26.44a1.63,1.63,0,1,0,0-3.25l-5.26-.44a1.61,1.61,0,0,0-1.15.47,1.66,1.66,0,0,0-.48,1.15,1.68,1.68,0,0,0,1.63,1.63"/></clipPath><clipPath id="clip-path-69"><path class="cls-1" d="M174.23,181.9s-.36-8.25,2.23-11.55,4.55-2.5,4.55-2.5,3.49-9,5.89-10.53,7.23-.54,7.23-.54,6.25-2.05,10,1.34,4.82-.89,8.57,2.59-1,20.35-3.39,21.33A3.38,3.38,0,0,1,205,180.7s-.71,3-3.48,3.57a2.65,2.65,0,0,1-3.3-2,4.21,4.21,0,0,1-3.93,3.12c-3.92.18-4.82-7-4.82-7Z"/></clipPath><clipPath id="clip-path-71"><path class="cls-1" d="M186.74,165.74a7.67,7.67,0,0,1,1.08,3.87c.13,1.32.22,2.63.31,3.95.19,2.65.32,5.31.63,7.94a1.68,1.68,0,0,0,1.63,1.63A1.63,1.63,0,0,0,192,181.5c-.32-2.78-.46-5.59-.66-8.39-.09-1.3-.18-2.6-.32-3.89a10.37,10.37,0,0,0-1.48-5.12,1.66,1.66,0,0,0-2.22-.58,1.64,1.64,0,0,0-.59,2.22"/></clipPath><clipPath id="clip-path-73"><path class="cls-1" d="M180.92,178a21.94,21.94,0,0,0,5.32-1.07c1.75-.63,3.68-1.5,4.76-3.1a1.63,1.63,0,0,0-.58-2.22,1.68,1.68,0,0,0-2.23.58c-.1.16-.1.16,0,0l-.2.19a1.12,1.12,0,0,1-.2.18c.14-.11.14-.11,0,0s-.58.36-.88.53a10.72,10.72,0,0,1-1.08.52l-.17.07-.57.2a18.24,18.24,0,0,1-2.2.58c-.34.07-.69.12-1,.18-.2,0-.2,0,0,0l-.3,0-.61.06a1.66,1.66,0,0,0-1.62,1.63,1.64,1.64,0,0,0,1.62,1.62"/></clipPath><clipPath id="clip-path-75"><path class="cls-1" d="M182.09,169.76l6.24.11a1.63,1.63,0,1,0,0-3.25l-6.24-.11a1.63,1.63,0,0,0-1.63,1.62,1.66,1.66,0,0,0,1.63,1.63"/></clipPath><clipPath id="clip-path-77"><path class="cls-1" d="M194.58,161.56c2.71,5.21,2.47,11.32,2.27,17-.08,2.09,3.17,2.09,3.25,0,.22-6.33.28-12.89-2.71-18.66-1-1.86-3.77-.21-2.81,1.64"/></clipPath><clipPath id="clip-path-79"><path class="cls-1" d="M204,163.83a128.23,128.23,0,0,1-.47,12.85,1.63,1.63,0,0,0,3.26,0q.54-6.42.46-12.85c0-2.09-3.28-2.1-3.25,0"/></clipPath><clipPath id="clip-path-81"><path class="cls-1" d="M299.41,98.1c-22.62-.4-45.44,1-68,1.28a9.58,9.58,0,0,0-9.29,7.78l-18.81,99.08H208c20,0,39.79-.43,59.91-1.63,15.67-.93,32.28-.58,47.66-3.75,2.5-.52,5.16-1.26,6.77-3.24a12.06,12.06,0,0,0,2-4.66q6.87-26.49,11.55-53.49c1.53-8.8,3.12-17.68,4.06-26.57.65-6.13-1.28-11.81-8.3-12.68A302.52,302.52,0,0,0,299.41,98.1Z"/></clipPath><clipPath id="clip-path-82"><path class="cls-2" d="M267.29,152.14c-.24,5.66,3.36,9.84,7.87,9.9s8.71-3.77,9.92-9.06c1.37-5.95-1.61-11.73-7-12.21-5.59-.5-10.54,4.95-10.8,11.37"/></clipPath></defs><title>Website Illustrations</title><g class="cls-3"><g class="cls-4"><g class="cls-5"><rect class="cls-6" x="107.39" y="103.75" width="124.21" height="103.08"/></g></g><g class="cls-7"><g class="cls-5"><rect class="cls-2" x="140.14" y="109.93" width="23.85" height="66.76"/></g></g><g class="cls-8"><g class="cls-5"><rect x="105.49" y="-0.4" width="79.04" height="125.32"/></g></g><g class="cls-9"><g class="cls-5"><rect class="cls-10" x="65.65" y="17.46" width="94.95" height="125.1"/></g></g><g class="cls-11"><g class="cls-5"><rect x="93.93" y="105.31" width="37.49" height="37.25"/></g></g><g class="cls-12"><g class="cls-5"><rect class="cls-6" x="-15.06" y="101.33" width="182.01" height="111.31"/></g></g><g class="cls-13"><g class="cls-5"><rect x="93.79" y="183.68" width="102.13" height="28.89"/></g></g><g class="cls-14"><g class="cls-5"><rect class="cls-2" x="65.24" y="106.66" width="46.79" height="71.9"/></g></g><g class="cls-15"><g class="cls-5"><rect x="92.33" y="44.01" width="73.43" height="83.26"/></g></g><g class="cls-16"><g class="cls-5"><rect x="35.31" y="-0.72" width="129.57" height="124.96"/></g></g><g class="cls-17"><g class="cls-5"><rect x="113.9" y="78.96" width="20.93" height="17.47"/></g></g><g class="cls-18"><g class="cls-5"><rect x="120.97" y="76.94" width="19.54" height="18.24"/></g></g><g class="cls-19"><g class="cls-5"><rect x="121.71" y="61.7" width="18.57" height="29.54"/></g></g><g class="cls-20"><g class="cls-5"><rect x="95.98" y="83.27" width="18.35" height="24.64"/></g></g><g class="cls-21"><g class="cls-5"><rect x="86.47" y="42.08" width="35.19" height="22.3"/></g></g><g class="cls-22"><g class="cls-5"><rect x="125.32" y="40.41" width="34.7" height="20.3"/></g></g><g class="cls-23"><g class="cls-5"><rect class="cls-2" x="91.51" y="55.42" width="30.81" height="20.36"/></g></g><g class="cls-24"><g class="cls-5"><rect class="cls-2" x="127.41" y="53.76" width="30.8" height="20.36"/></g></g><g class="cls-25"><g class="cls-5"><rect x="136.95" y="56.1" width="17.65" height="17.77"/></g></g><g class="cls-26"><g class="cls-5"><rect x="101.07" y="57.79" width="17.65" height="17.77"/></g></g><g class="cls-27"><g class="cls-5"><rect class="cls-28" x="93.17" y="71.17" width="16.81" height="14.19"/></g></g><g class="cls-29"><g class="cls-5"><rect class="cls-28" x="140.52" y="68.8" width="16.81" height="14.22"/></g></g><g class="cls-30"><g class="cls-5"><rect x="97.49" y="109.38" width="48.96" height="70.57"/></g></g><g class="cls-31"><g class="cls-5"><rect x="100.22" y="89.41" width="30.01" height="17.9"/></g></g><g class="cls-32"><g class="cls-5"><rect class="cls-33" x="119.62" y="188.32" width="165.38" height="23.96"/></g></g><g class="cls-34"><g class="cls-5"><rect class="cls-35" x="110.17" y="170.37" width="140.35" height="41.43"/></g></g><g class="cls-36"><g class="cls-5"><rect class="cls-33" x="157.54" y="178.32" width="59.14" height="33.15"/></g></g><g class="cls-37"><g class="cls-5"><rect class="cls-33" x="162.76" y="171.48" width="51.96" height="23.12"/></g></g><g class="cls-38"><g class="cls-5"><rect class="cls-39" x="129" y="161.99" width="33.77" height="19.32"/></g></g><g class="cls-40"><g class="cls-5"><rect class="cls-10" x="79.31" y="162.45" width="100.13" height="50.18"/></g></g><g class="cls-41"><g class="cls-5"><rect x="-17.76" y="171.36" width="122.39" height="41.28"/></g></g><g class="cls-42"><g class="cls-5"><rect x="131.64" y="175.38" width="40.74" height="25.48"/></g></g><g class="cls-43"><g class="cls-5"><rect x="140.98" y="169.12" width="33.22" height="25.13"/></g></g><g class="cls-44"><g class="cls-5"><rect x="125.42" y="184.09" width="19.35" height="14.54"/></g></g><g class="cls-45"><g class="cls-5"><rect class="cls-10" x="168.8" y="150.75" width="50.72" height="40.1"/></g></g><g class="cls-46"><g class="cls-5"><rect x="181.09" y="157.88" width="16.35" height="30.66"/></g></g><g class="cls-47"><g class="cls-5"><rect x="173.88" y="166" width="22.76" height="17.44"/></g></g><g class="cls-48"><g class="cls-5"><rect x="175.04" y="161.09" width="20.34" height="14.2"/></g></g><g class="cls-49"><g class="cls-5"><rect x="188.96" y="153.69" width="16.64" height="31.88"/></g></g><g class="cls-50"><g class="cls-5"><rect x="198.08" y="156.84" width="14.57" height="26.88"/></g></g><g class="cls-51"><rect class="cls-35" x="197.89" y="93.14" width="186.7" height="118.61"/></g><path class="cls-2" d="M267.29,152.14c-.24,5.66,3.36,9.84,7.87,9.9s8.71-3.77,9.92-9.06c1.37-5.95-1.61-11.73-7-12.21-5.59-.5-10.54,4.95-10.8,11.37"/></g><circle class="cls-53" cx="217.73" cy="35.79" r="33.59"/><path class="cls-2" d="M215.28,6.24a23,23,0,0,0,0,3.52,36,36,0,0,0,.57,3.7,1.23,1.23,0,0,0,1.5.85,1.24,1.24,0,0,0,.85-1.5c-.11-.59-.23-1.19-.32-1.78,0-.14-.05-.29-.07-.43s0-.14,0,0c0-.07,0-.14,0-.21,0-.25-.06-.5-.08-.75a23,23,0,0,1,.05-3.42A1.24,1.24,0,0,0,216.5,5a1.26,1.26,0,0,0-1.22,1.22Z"/><path class="cls-2" d="M215.86,58.23a17.36,17.36,0,0,0-.2,3.06,22.65,22.65,0,0,0,.43,3.28,1.23,1.23,0,0,0,1.5.85,1.24,1.24,0,0,0,.85-1.5c-.05-.29-.11-.58-.15-.87,0-.13,0-.26-.07-.4s-.09-.48,0-.14a8.17,8.17,0,0,1-.11-1.31,18.53,18.53,0,0,1,.2-3A1.22,1.22,0,0,0,217.08,57a1.25,1.25,0,0,0-1.22,1.22Z"/><path class="cls-2" d="M239.18,37.25a28,28,0,0,1,3.3,0c.5,0,1,.09,1.48.15l.16,0,.44.06,1,.15a1.25,1.25,0,0,0,1.5-.85,1.24,1.24,0,0,0-.85-1.5c-1.2-.19-2.4-.37-3.6-.46a27.55,27.55,0,0,0-3.4,0,1.22,1.22,0,1,0,0,2.44Z"/><path class="cls-2" d="M188.89,39c1-.15,1.92-.33,2.88-.47l.12,0h-.08a1.66,1.66,0,0,1,.33,0l.68-.07c.54,0,1.07-.08,1.61-.1a1.22,1.22,0,0,0,0-2.44,51.58,51.58,0,0,0-6.19.78,1.23,1.23,0,0,0-.85,1.5,1.25,1.25,0,0,0,1.5.85Z"/><path class="cls-2" d="M194.75,26.46a1.63,1.63,0,0,0,0-3.25,1.63,1.63,0,0,0,0,3.25Z"/><path class="cls-2" d="M203.22,17.26a1.63,1.63,0,0,0,0-3.25,1.63,1.63,0,0,0,0,3.25Z"/><path class="cls-2" d="M229.08,15.83a1.63,1.63,0,0,0,0-3.25,1.63,1.63,0,0,0,0,3.25Z"/><path class="cls-2" d="M238.8,24.49a1.63,1.63,0,0,0,0-3.25,1.63,1.63,0,0,0,0,3.25Z"/><path class="cls-2" d="M196,51.2A1.63,1.63,0,0,0,196,48a1.63,1.63,0,0,0,0,3.25Z"/><path class="cls-2" d="M204.14,61.11a1.63,1.63,0,0,0,0-3.26,1.63,1.63,0,0,0,0,3.26Z"/><path class="cls-2" d="M228.37,61.28a1.63,1.63,0,0,0,0-3.25,1.63,1.63,0,0,0,0,3.25Z"/><path class="cls-2" d="M239.51,52.09a1.63,1.63,0,0,0,0-3.26,1.63,1.63,0,0,0,0,3.26Z"/><path class="cls-2" d="M215.82,22.56c.19,5.11.27,10.22.45,15.32.06,1.57,2.5,1.58,2.44,0-.18-5.1-.26-10.21-.45-15.32,0-1.56-2.49-1.57-2.44,0Z"/><path class="cls-2" d="M217.44,38.81c2.43-.2,4.85-.55,7.28-.81a1.25,1.25,0,0,0,1.22-1.22,1.23,1.23,0,0,0-1.22-1.22c-2.43.26-4.85.61-7.28.81a1.25,1.25,0,0,0-1.22,1.22,1.23,1.23,0,0,0,1.22,1.22Z"/></svg>