<?xml version="1.0" encoding="UTF-8"?>
<svg width="151px" height="24px" viewBox="0 0 151 24" version="1.1" xmlns="http://www.w3.org/2000/svg" xmlns:xlink="http://www.w3.org/1999/xlink">
    <!-- Generator: Sketch 62 (91390) - https://sketch.com -->
    <title>Group 21</title>
    <desc>Created with Sketch.</desc>
    <defs>
        <polygon id="path-1" points="0.136 0.5889 14.319 0.5889 14.319 14.700745 0.136 14.700745"></polygon>
        <polygon id="path-3" points="0 -0.005 23.9998 -0.005 23.9998 23.9948 0 23.9948"></polygon>
    </defs>
    <g id="Page-1-Copy" stroke="none" stroke-width="1" fill="none" fill-rule="evenodd">
        <g id="Group-38-Copy-3" transform="translate(-544.000000, -198.000000)">
            <g id="Group-21" transform="translate(544.000000, 198.000000)">
                <path d="M47.4344,10.6563 C47.4344,6.6743 50.5854,3.5993 54.9704,3.5993 C59.3804,3.5993 62.5064,6.6743 62.5064,10.6563 C62.5064,14.6383 59.3804,17.7133 54.9704,17.7133 C50.5854,17.7133 47.4344,14.6383 47.4344,10.6563 M58.7764,10.6563 C58.7904,8.5543 57.0974,6.8393 54.9954,6.82422559 C52.8934,6.8113 51.1784,8.5033 51.1644,10.6053 C51.1504,12.7073 52.8434,14.4233 54.9454,14.4363 C54.9534,14.4373 54.9614,14.4373 54.9704,14.4373 C56.9654,14.5423 58.6694,13.0103 58.7754,11.0153 C58.7814,10.8963 58.7824,10.7763 58.7764,10.6563" id="Fill-1" fill="#FFFFFF"></path>
                <path d="M41.6068,3.5958 L41.6068,5.1718 L41.5568,5.1718 C40.3418,4.0668 38.7318,3.4988 37.0918,3.5988 C33.2108,3.5578 30.0308,6.6718 29.9898,10.5528 C29.9498,14.4338 33.0628,17.6138 36.9438,17.6548 C37.0358,17.6558 37.1268,17.6548 37.2178,17.6518 C38.8288,17.7438 40.4028,17.1548 41.5568,16.0288 L41.6068,16.0288 L41.6068,17.3868 C41.6068,19.2138 40.0348,20.5568 37.9548,20.5568 C36.3338,20.6668 34.7428,20.0838 33.5758,18.9538 L31.1488,21.2908 C32.9698,23.1058 35.4608,24.0868 38.0308,23.9998 C42.2928,23.9998 45.2098,21.1408 45.2098,17.3368 L45.2098,3.5958 L41.6068,3.5958 Z M41.4548,11.3868 C41.4548,13.0358 39.7808,14.3548 37.6498,14.3548 C35.6978,14.5538 33.9538,13.1338 33.7538,11.1808 C33.7328,10.9798 33.7298,10.7768 33.7438,10.5748 C33.7438,8.3928 35.3418,6.8968 37.8018,6.8968 C39.7548,6.8968 41.4548,8.2668 41.4548,9.8138 L41.4548,11.3868 Z" id="Fill-3" fill="#FFFFFF"></path>
                <path d="M75.5975,9.8917 C75.5975,8.3797 73.8845,6.9947 71.9705,6.9947 C69.5515,6.9947 67.9395,8.4557 67.9395,10.6477 C67.8055,12.5917 69.2725,14.2767 71.2175,14.4117 C71.4175,14.4257 71.6195,14.4217 71.8195,14.4017 C73.9105,14.4017 75.5975,13.0907 75.5975,11.4537 L75.5975,9.8917 Z M67.6365,17.9787 C68.6555,19.4317 70.3485,20.2587 72.1205,20.1697 C74.2115,20.1697 75.7485,18.8347 75.7485,17.0207 L75.7485,16.0637 L75.6985,16.0637 C74.5535,17.1827 72.9895,17.7677 71.3905,17.6757 C67.5375,17.7877 64.3235,14.7537 64.2125,10.9007 C64.1005,7.0477 67.1345,3.8337 70.9875,3.7227 C71.0795,3.7197 71.1725,3.7187 71.2645,3.7197 C72.8935,3.6157 74.4945,4.1797 75.6985,5.2817 L75.7485,5.2817 L75.7485,3.9717 L79.3265,3.9717 L79.3265,16.9707 C79.3265,20.7487 76.3275,23.3697 72.1205,23.3697 C69.3655,23.5187 66.7045,22.3387 64.9665,20.1957 L67.6365,17.9787 Z" id="Fill-5" fill="#FFFFFF"></path>
                <path d="M90.6888,10.7735 L90.6388,10.7735 C90.3108,11.2525 89.6058,11.5295 87.7928,11.8565 C85.5998,12.2595 84.8198,12.6875 84.8198,13.4685 C84.8198,14.2755 85.4738,14.6275 86.8848,14.6275 C89.0268,14.6275 90.6888,13.6455 90.6888,12.3605 L90.6888,10.7735 Z M87.2118,9.3625 C89.6568,9.0355 90.3868,8.6825 90.3868,8.0025 C90.3868,7.1205 89.4548,6.5915 88.0188,6.5915 C86.4718,6.4605 85.0598,7.4765 84.6938,8.9845 L81.1668,8.2535 C81.6698,5.5335 84.4668,3.5935 87.9178,3.5935 C91.8228,3.5935 94.2418,5.5845 94.2418,8.8335 L94.2418,17.3235 L90.8908,17.3235 L90.8908,15.8625 L90.8398,15.8625 C89.7038,17.1425 88.0378,17.8215 86.3308,17.7015 C83.3828,17.7015 81.3428,16.0885 81.3428,13.7205 C81.3428,11.2265 83.0048,9.9425 87.2118,9.3625 L87.2118,9.3625 Z" id="Fill-7" fill="#FFFFFF"></path>
                <path d="M96.6341,3.9717 L99.9081,3.9717 L99.9081,5.2557 L99.9591,5.2557 C102.2531,3.0077 105.9361,3.0447 108.1851,5.3397 C108.2231,5.3787 108.2611,5.4177 108.2981,5.4577 L108.3481,5.4577 C109.4721,4.2487 111.0551,3.5707 112.7061,3.5937 C116.3091,3.5937 118.8031,5.9617 118.8031,9.3367 L118.8031,17.3237 L115.2001,17.3237 L115.2001,9.9167 C115.2951,8.3307 114.0861,6.9677 112.5001,6.8727 C110.9131,6.7777 109.5511,7.9867 109.4561,9.5737 C109.4491,9.6877 109.4491,9.8027 109.4561,9.9167 L109.4561,17.3237 L106.0051,17.3237 L106.0051,9.9167 C106.0941,8.3247 104.8741,6.9607 103.2811,6.8717 C101.6891,6.7837 100.3251,8.0027 100.2371,9.5957 C100.2311,9.7027 100.2311,9.8097 100.2371,9.9167 L100.2371,17.3237 L96.6341,17.3237 L96.6341,3.9717 Z" id="Fill-9" fill="#FFFFFF"></path>
                <path d="M131.5511,9.211 C131.3751,7.624 129.9891,6.616 127.9991,6.616 C125.9841,6.616 124.5981,7.624 124.3971,9.211 L131.5511,9.211 Z M127.9241,3.594 C131.7351,3.4 134.9821,6.333 135.1751,10.144 C135.1861,10.354 135.1871,10.564 135.1791,10.773 L135.1791,11.831 L124.3461,11.831 C124.4721,13.569 125.9081,14.678 128.1251,14.678 C129.7231,14.666 131.2321,13.935 132.2321,12.688 L134.5491,15.006 C132.9231,16.811 130.5771,17.799 128.1511,17.701 C123.4891,17.701 120.6681,14.905 120.6681,10.673 C120.5811,6.847 123.6131,3.674 127.4391,3.588 C127.6011,3.584 127.7621,3.586 127.9241,3.594 L127.9241,3.594 Z" id="Fill-11" fill="#FFFFFF"></path>
                <g id="Group-15" transform="translate(136.000000, 3.005300)">
                    <mask id="mask-2" fill="white">
                        <use xlink:href="#path-1"></use>
                    </mask>
                    <g id="Clip-14"></g>
                    <path d="M3.638,9.1539 C4.167,10.8669 5.528,11.7229 7.668,11.7229 C9.609,11.7229 10.717,11.2949 10.717,10.5639 C10.717,9.7839 9.91,9.4299 7.416,9.0519 C2.53,8.2979 0.791,7.1129 0.791,4.7189 C0.791,2.2509 3.26,0.5889 6.938,0.5889 C10.288,0.5889 13.337,2.3009 14.042,4.6189 L10.641,5.6519 C9.948,4.2539 8.467,3.4239 6.912,3.5609 C5.376,3.5609 4.368,4.0139 4.368,4.7189 C4.368,5.4249 5.074,5.6769 8.022,6.1809 C12.531,6.8859 14.32,8.1209 14.32,10.5389 C14.32,13.0329 11.649,14.6959 7.644,14.6959 C5.892,14.7529 4.161,14.3059 2.656,13.4109 C1.372,12.6719 0.458,11.4289 0.136,9.9849 L3.638,9.1539 Z" id="Fill-13" fill="#FFFFFF" mask="url(#mask-2)"></path>
                </g>
                <g id="Group-18" transform="translate(0.000000, 0.005300)">
                    <mask id="mask-4" fill="white">
                        <use xlink:href="#path-3"></use>
                    </mask>
                    <g id="Clip-17"></g>
                    <path d="M11.9998,-0.0052 C18.6268,-0.0052 23.9998,5.3678 23.9998,11.9948 C23.9998,18.6218 18.6268,23.9948 11.9998,23.9948 C5.3728,23.9948 -0.0002,18.6218 -0.0002,11.9948 C-0.0002,5.3678 5.3728,-0.0052 11.9998,-0.0052" id="Fill-16" fill="#FFFFFF" mask="url(#mask-4)"></path>
                </g>
                <path d="M17.2498,13.0001 C16.8358,13.0001 16.5008,12.6641 16.5017978,12.2501 C16.5028,11.8361 16.8378,11.5011 17.2518,11.5020978 C17.6658,11.5020978 17.9998,11.8381 17.9998,12.2521 C17.9998,12.6651 17.6648,13.0001 17.2518,13.0001 L17.2498,13.0001 Z M15.7498,14.5001 C15.3358,14.5001 15.0008,14.1641 15.0017978,13.7501 C15.0028,13.3361 15.3378,13.0011 15.7518,13.0020978 C16.1658,13.0020978 16.4998,13.3381 16.4998,13.7521 C16.4998,14.1651 16.1648,14.5001 15.7518,14.5001 L15.7498,14.5001 Z M14.2498,13.0001 C13.8358,13.0001 13.5008,12.6641 13.5017978,12.2501 C13.5028,11.8361 13.8378,11.5011 14.2518,11.5020978 C14.6658,11.5020978 14.9998,11.8381 14.9998,12.2521 C14.9998,12.6651 14.6648,13.0001 14.2518,13.0001 L14.2498,13.0001 Z M15.7498,10.0001 C16.1638,10.0001 16.4988,10.3361 16.4978022,10.7501 C16.4978022,11.1641 16.1618,11.4991 15.7478,11.4981022 C15.3338,11.4981022 14.9998,11.1621 14.9998,10.7481 C14.9998,10.3351 15.3348,10.0001 15.7478,10.0001 L15.7498,10.0001 Z M9.7498,13.0001 L8.9998,13.0001 L8.9998,13.7501 C8.9998,14.1641 8.6648,14.5001 8.2498,14.5001 C7.8358,14.5001 7.4998,14.1641 7.4998,13.7501 L7.4998,13.0001 L6.7498,13.0001 C6.3358,13.0001 5.9998,12.6641 5.9998,12.2501 C5.9998,11.8361 6.3358,11.5001 6.7498,11.5001 L7.4998,11.5001 L7.4998,10.7501 C7.4998,10.3361 7.8358,10.0001 8.2498,10.0001 C8.6648,10.0001 8.9998,10.3361 8.9998,10.7501 L8.9998,11.5001 L9.7498,11.5001 C10.1648,11.5001 10.4998,11.8361 10.4998,12.2501 C10.4998,12.6641 10.1648,13.0001 9.7498,13.0001 L9.7498,13.0001 Z M16.0348,6.7451 C13.3548,6.4201 10.6458,6.4201 7.9648,6.7451 C5.4078,7.0871 3.4988,9.2701 3.49979961,11.8501 L3.49979961,12.1501 C3.4988,14.7301 5.4078,16.9131 7.9648,17.2551 C10.6458,17.5801 13.3548,17.5801 16.0348,17.2551 C18.5928,16.9131 20.5018,14.7301 20.4997996,12.1501 L20.4997996,11.8501 C20.5018,9.2701 18.5928,7.0871 16.0348,6.7451 L16.0348,6.7451 Z" id="Fill-19" fill="#DF1995"></path>
            </g>
        </g>
    </g>
</svg>