<?xml version="1.0" encoding="UTF-8"?>
<svg width="133px" height="24px" viewBox="0 0 133 24" version="1.1" xmlns="http://www.w3.org/2000/svg" xmlns:xlink="http://www.w3.org/1999/xlink">
    <!-- Generator: Sketch 62 (91390) - https://sketch.com -->
    <title>Group 21</title>
    <desc>Created with Sketch.</desc>
    <defs>
        <polygon id="path-1" points="0.4625 0.7582 14.646 0.7582 14.646 14.8652 0.4625 14.8652"></polygon>
        <polygon id="path-3" points="0 0 23.9997 0 23.9997 24 0 24"></polygon>
    </defs>
    <g id="Page-1-Copy" stroke="none" stroke-width="1" fill="none" fill-rule="evenodd">
        <g id="Group-38-Copy-3" transform="translate(-818.000000, -198.000000)">
            <g id="Group-21" transform="translate(818.000000, 198.000000)">
                <path d="M41.3971,10.0557 C41.3971,8.5437 39.6841,7.1587 37.7701,7.1587 C35.3511,7.1587 33.7391,8.6197 33.7391,10.8117 C33.7391,13.1547 35.2251,14.5657 37.6191,14.5657 C39.7101,14.5657 41.3971,13.2547 41.3971,11.6177 L41.3971,10.0557 Z M33.4361,18.1427 C34.8221,19.7807 35.9811,20.3337 37.9201,20.3337 C40.0111,20.3337 41.5481,18.9987 41.5481,17.1847 L41.5481,16.2277 L41.4981,16.2277 C40.5661,17.2607 39.0291,17.8397 37.1901,17.8397 C33.1601,17.9157 29.9351,14.7917 30.0101,10.8117 C30.0101,6.9317 33.0591,3.8837 37.0641,3.8837 C38.9541,3.8837 40.5661,4.4377 41.4981,5.4457 L41.5481,5.4457 L41.5481,4.1357 L45.1261,4.1357 L45.1261,17.1347 C45.1261,20.9127 42.1271,23.5337 37.9201,23.5337 C34.8731,23.5337 32.3531,22.4507 30.7661,20.3597 L33.4361,18.1427 Z" id="Fill-1" fill="#FFFFFF"></path>
                <path d="M54.4977,7.0322 C52.2057,7.0322 50.6937,8.6202 50.6937,10.8112 C50.6937,13.0032 52.2057,14.5902 54.4977,14.5902 C56.7907,14.5902 58.3027,13.0032 58.3027,10.8112 C58.3027,8.6202 56.7907,7.0322 54.4977,7.0322 M54.4977,3.7582 C58.8557,3.7582 62.0307,6.8562 62.0307,10.8112 C62.0307,14.7662 58.8557,17.8652 54.4977,17.8652 C50.2407,17.9402 46.8907,14.7162 46.9657,10.8112 C46.8907,6.9062 50.2407,3.6812 54.4977,3.7582" id="Fill-3" fill="#FFFFFF"></path>
                <path d="M64.0466,4.1357 L67.6496,4.1357 L67.6496,5.3957 L67.6986,5.3957 C68.8076,4.3627 70.4196,3.7577 72.2086,3.7577 C75.9876,3.7577 78.6076,6.2517 78.6076,9.8787 L78.6076,17.4877 L74.8796,17.4877 L74.8796,10.3577 C74.8796,8.3177 73.5436,7.0827 71.4026,7.0827 C69.2616,7.0827 67.7756,8.4177 67.7756,10.3577 L67.7756,17.4877 L64.0466,17.4877 L64.0466,4.1357 Z" id="Fill-5" fill="#FFFFFF"></path>
                <path d="M91.3298,9.375 C91.1538,7.788 89.7678,6.78 87.7778,6.78 C85.7628,6.78 84.3768,7.788 84.1758,9.375 L91.3298,9.375 Z M87.7028,3.758 C92.1368,3.758 94.9578,6.882 94.9578,10.937 L94.9578,11.995 L84.1248,11.995 C84.2508,13.733 85.6868,14.842 87.9038,14.842 C89.5168,14.842 90.6758,14.237 92.0108,12.852 L94.3278,15.17 C92.7158,16.908 90.7258,17.865 87.9298,17.865 C83.2678,17.865 80.4468,15.069 80.4468,10.837 C80.4468,6.73 83.4958,3.758 87.7028,3.758 L87.7028,3.758 Z" id="Fill-7" fill="#FFFFFF"></path>
                <polygon id="Fill-9" fill="#FFFFFF" points="95.3102 4.1357 99.0882 4.1357 101.4562 12.9527 101.5072 12.9527 105.1612 4.1357 108.5112 4.1357 112.1892 12.9527 112.2392 12.9527 114.6072 4.1357 118.3862 4.1357 114.5822 17.4877 110.8542 17.4877 106.8482 8.0147 106.7972 8.0147 102.8422 17.4877 99.0882 17.4877"></polygon>
                <g id="Group-13" transform="translate(118.000000, 3.000000)">
                    <mask id="mask-2" fill="white">
                        <use xlink:href="#path-1"></use>
                    </mask>
                    <g id="Clip-12"></g>
                    <path d="M3.9645,9.3232 C4.4935,11.0362 5.8545,11.8922 7.9945,11.8922 C9.9355,11.8922 11.0435,11.4642 11.0435,10.7332 C11.0435,9.9532 10.2365,9.5992 7.7425,9.2212 C2.8565,8.4672 1.1175,7.2822 1.1175,4.8882 C1.1175,2.4202 3.5865,0.7582 7.2645,0.7582 C10.6145,0.7582 13.6635,2.4702 14.3685,4.7882 L10.9675,5.8212 C10.4635,4.5362 9.0275,3.7302 7.2385,3.7302 C5.7025,3.7302 4.6945,4.1832 4.6945,4.8882 C4.6945,5.5942 5.4005,5.8462 8.3485,6.3502 C12.8575,7.0552 14.6465,8.2902 14.6465,10.7082 C14.6465,13.2022 11.9755,14.8652 7.9705,14.8652 C6.0045,14.8652 4.3425,14.4362 2.9825,13.5802 C1.6215,12.7492 0.7895,11.5902 0.4625,10.1542 L3.9645,9.3232 Z" id="Fill-11" fill="#FFFFFF" mask="url(#mask-2)"></path>
                </g>
                <g id="Group-16">
                    <mask id="mask-4" fill="white">
                        <use xlink:href="#path-3"></use>
                    </mask>
                    <g id="Clip-15"></g>
                    <path d="M23.9997,12 C23.9997,18.627 18.6277,24 11.9997,24 C5.3727,24 -0.0003,18.627 -0.0003,12 C-0.0003,5.373 5.3727,0 11.9997,0 C18.6277,0 23.9997,5.373 23.9997,12" id="Fill-14" fill="#FFFFFF" mask="url(#mask-4)"></path>
                </g>
                <path d="M19.3483,13.8047 C19.2803,14.5017 18.6403,15.1917 17.9993,15.4997 C18.1613,13.3767 18.2933,11.1397 18.0353,9.0217 C17.9123,8.0117 17.0183,7.2077 15.9103,7.1147 C14.3463,6.9737 12.7593,6.9047 11.1963,6.9047 C10.1313,6.9047 9.0703,7.0117 7.9993,7.0767 C8.0043,7.0077 7.9963,6.8617 8.0063,6.7917 C8.0703,6.2217 8.5733,5.7627 9.1993,5.7067 C12.1583,5.4307 15.1193,5.4307 18.0783,5.7067 C18.7033,5.7627 19.2063,6.2217 19.2703,6.7917 C19.5483,9.1297 19.5733,11.4667 19.3483,13.8047" id="Fill-17" fill="#DF1995"></path>
                <path d="M14.4997,11.5 L6.9997,11.5 C6.7247,11.5 6.4997,11.276 6.4997,11 C6.4997,10.724 6.7247,10.5 6.9997,10.5 L14.4997,10.5 C14.7757,10.5 14.9997,10.724 14.9997,11 C14.9997,11.276 14.7757,11.5 14.4997,11.5 L14.4997,11.5 Z M14.9997,15.732 C14.9997,16.156 14.6567,16.5 14.2327,16.5 L12.7677,16.5 C12.3437,16.5 11.9997,16.156 11.9997,15.732 L11.9997,13.768 C11.9997,13.344 12.3437,13 12.7677,13 L14.2327,13 C14.6567,13 14.9997,13.344 14.9997,13.768 L14.9997,15.732 Z M10.4997,14 L6.9997,14 C6.7247,14 6.4997,13.776 6.4997,13.5 C6.4997,13.224 6.7247,13 6.9997,13 L10.4997,13 C10.7757,13 10.9997,13.224 10.9997,13.5 C10.9997,13.776 10.7757,14 10.4997,14 L10.4997,14 Z M10.4997,16.5 L6.9997,16.5 C6.7247,16.5 6.4997,16.276 6.4997,16 C6.4997,15.724 6.7247,15.5 6.9997,15.5 L10.4997,15.5 C10.7757,15.5 10.9997,15.724 10.9997,16 C10.9997,16.276 10.7757,16.5 10.4997,16.5 L10.4997,16.5 Z M16.7577,9.319 C16.6857,8.733 16.1487,8.268 15.4837,8.209 C12.3277,7.931 9.1717,7.931 6.0157,8.209 C5.3507,8.268 4.8147,8.733 4.7427,9.319 C4.4477,11.705 4.4217,14.091 4.6637,16.477 C4.7657,17.479 5.6757,18.272 6.8127,18.355 C9.4377,18.548 12.0617,18.548 14.6877,18.355 C15.8237,18.272 16.7347,17.479 16.8367,16.477 C17.0777,14.091 17.0517,11.705 16.7577,9.319 L16.7577,9.319 Z" id="Fill-19" fill="#DF1995"></path>
            </g>
        </g>
    </g>
</svg>