<?xml version="1.0" encoding="UTF-8"?>
<svg width="117px" height="26px" viewBox="0 0 117 26" version="1.1" xmlns="http://www.w3.org/2000/svg" xmlns:xlink="http://www.w3.org/1999/xlink">
    <!-- Generator: Sketch 62 (91390) - https://sketch.com -->
    <title>Group 13</title>
    <desc>Created with Sketch.</desc>
    <defs>
        <polygon id="path-1" points="0 25.0719 116.598 25.0719 116.598 -0.0001 0 -0.0001"></polygon>
    </defs>
    <g id="Page-1-Copy" stroke="none" stroke-width="1" fill="none" fill-rule="evenodd">
        <g id="Group-38-Copy-3" transform="translate(-316.000000, -197.000000)">
            <g id="Group-13" transform="translate(316.000000, 197.000000)">
                <path d="M41.3974,12.5205 L41.3974,10.9585 C41.3974,9.4215 39.7104,8.0615 37.7704,8.0615 C35.3264,8.0615 33.7394,9.5475 33.7394,11.7145 C33.7394,14.0575 35.2254,15.4685 37.6194,15.4685 C39.7354,15.4685 41.3974,14.1585 41.3974,12.5205 M30.7664,21.2625 L33.4364,19.0455 C34.8224,20.6835 35.9564,21.2375 37.9204,21.2375 C39.9874,21.2375 41.5484,19.9025 41.5484,18.0875 L41.5484,17.1305 L41.4984,17.1305 C40.5664,18.1645 39.0294,18.7435 37.1904,18.7435 C33.0844,18.7435 30.0104,15.7705 30.0104,11.7145 C30.0104,7.8095 33.0084,4.7875 37.0644,4.7875 C38.9544,4.7875 40.5414,5.3405 41.4984,6.3485 L41.5484,6.3485 L41.5484,5.0395 L45.1264,5.0395 L45.1264,18.0385 C45.1264,21.8165 42.1534,24.4365 37.9204,24.4365 C34.8474,24.4365 32.3534,23.3285 30.7664,21.2625" id="Fill-1" fill="#FFFFFF"></path>
                <path d="M58.3027,11.7149 C58.3027,9.5479 56.8167,7.9359 54.4977,7.9359 C52.1807,7.9359 50.6947,9.5479 50.6947,11.7149 C50.6947,13.8809 52.1807,15.4929 54.4977,15.4929 C56.8167,15.4929 58.3027,13.8809 58.3027,11.7149 M46.9657,11.7149 C46.9657,7.7349 50.1147,4.6609 54.4977,4.6609 C58.9067,4.6609 62.0317,7.7349 62.0317,11.7149 C62.0317,15.6949 58.9067,18.7689 54.4977,18.7689 C50.1147,18.7689 46.9657,15.6949 46.9657,11.7149" id="Fill-3" fill="#FFFFFF"></path>
                <path d="M75.1816,11.7149 C75.1816,9.4729 73.6446,7.9609 71.4036,7.9609 C69.4376,7.9609 67.7756,9.2959 67.7756,10.8589 L67.7756,12.5459 C67.7756,14.1579 69.3626,15.4929 71.4276,15.4929 C73.6196,15.4929 75.1816,13.9569 75.1816,11.7149 L75.1816,11.7149 Z M64.0466,5.0389 L67.6236,5.0389 L67.6236,6.2229 L67.6746,6.2229 C68.7066,5.1649 70.2696,4.6609 71.9826,4.6609 C75.9376,4.6609 78.9106,7.7089 78.9106,11.7149 C78.9106,15.7449 75.9626,18.7689 72.0076,18.7689 C70.3446,18.7689 68.6816,18.1899 67.8256,17.3579 L67.7756,17.3579 L67.7756,24.0589 L64.0466,24.0589 L64.0466,5.0389 Z" id="Fill-5" fill="#FFFFFF"></path>
                <mask id="mask-2" fill="white">
                    <use xlink:href="#path-1"></use>
                </mask>
                <g id="Clip-8"></g>
                <polygon id="Fill-7" fill="#FFFFFF" mask="url(#mask-2)" points="80.875 18.3909 84.604 18.3909 84.604 -0.0001 80.875 -0.0001"></polygon>
                <path d="M96.1162,13.4278 L96.1162,11.8408 L96.0662,11.8408 C95.7382,12.3198 95.0332,12.5968 93.2202,12.9238 C91.0272,13.3268 90.2472,13.7548 90.2472,14.5358 C90.2472,15.3428 90.9012,15.6958 92.3122,15.6958 C94.4792,15.6958 96.1162,14.7128 96.1162,13.4278 M86.7702,14.7878 C86.7702,12.3198 88.3832,11.0098 92.6392,10.4298 C95.1342,10.0768 95.8142,9.7248 95.8142,9.0698 C95.8142,8.1878 94.8822,7.6588 93.4462,7.6588 C91.7332,7.6588 90.4482,8.5908 90.1212,10.0518 L86.5942,9.3218 C87.1232,6.5498 89.8692,4.6608 93.3452,4.6608 C97.2502,4.6608 99.6692,6.6518 99.6692,9.9008 L99.6692,18.3908 L96.3182,18.3908 L96.3182,16.9298 L96.2672,16.9298 C95.4622,18.0638 93.7482,18.7688 91.7582,18.7688 C88.7852,18.7688 86.7702,17.1568 86.7702,14.7878" id="Fill-9" fill="#FFFFFF" mask="url(#mask-2)"></path>
                <polygon id="Fill-10" fill="#FFFFFF" mask="url(#mask-2)" points="106.4199 17.6602 100.2479 5.0392 104.3549 5.0392 108.4099 13.7552 108.4609 13.7552 112.4659 5.0392 116.5979 5.0392 107.3529 24.0582 103.2459 24.0582"></polygon>
                <path d="M12,1.0723 C18.627,1.0723 24,6.4443 24,13.0723 C24,19.6993 18.627,25.0723 12,25.0723 C5.373,25.0723 0,19.6993 0,13.0723 C0,6.4443 5.373,1.0723 12,1.0723" id="Fill-11" fill="#FFFFFF" mask="url(#mask-2)"></path>
                <path d="M10.2578,19.1475 C9.1138,19.6845 7.7948,18.9225 7.6888,17.6655 C7.5598,16.1335 7.4948,14.6025 7.4948,13.0725 C7.4948,11.5415 7.5598,10.0095 7.6888,8.4785 C7.7938,7.2205 9.1138,6.4595 10.2568,6.9965 C11.6488,7.6505 13.0068,8.3605 14.3338,9.1265 C15.6608,9.8915 16.9548,10.7125 18.2178,11.5895 C19.2548,12.3105 19.2548,13.8335 18.2178,14.5535 C16.9548,15.4305 15.6608,16.2515 14.3338,17.0175 C13.0078,17.7835 11.6488,18.4935 10.2578,19.1475" id="Fill-12" fill="#DF1995" mask="url(#mask-2)"></path>
            </g>
        </g>
    </g>
</svg>