<?xml version="1.0" encoding="UTF-8"?>
<svg width="1440px" height="952px" viewBox="0 0 1440 952" version="1.1" xmlns="http://www.w3.org/2000/svg" xmlns:xlink="http://www.w3.org/1999/xlink">
    <!-- Generator: Sketch 62 (91390) - https://sketch.com -->
    <title>Group 105</title>
    <desc>Created with Sketch.</desc>
    <defs>
        <polygon id="path-1" points="0.4151 0.8344 199 0.8344 199 192.2354 0.4151 192.2354"></polygon>
        <polygon id="path-3" points="0 0.515 127.4116 0.515 127.4116 274.036 0 274.036"></polygon>
        <polygon id="path-5" points="0.0001 0.669470709 1009.66435 0.669470709 1009.66435 636 0.0001 636"></polygon>
        <polygon id="path-7" points="0.524362382 0.289829632 185 0.289829632 185 90.7498244 0.524362382 90.7498244"></polygon>
        <polygon id="path-9" points="0.704841378 0.985 23.6859543 0.985 23.6859543 32.4050737 0.704841378 32.4050737"></polygon>
        <polygon id="path-11" points="0 953.015 1440 953.015 1440 1 0 1"></polygon>
    </defs>
    <g id="Page-1-Copy" stroke="none" stroke-width="1" fill="none" fill-rule="evenodd">
        <g id="Home-Page-Copy-9" transform="translate(0.000000, -2758.000000)">
            <g id="Group-105" transform="translate(0.000000, 2757.000000)">
                <g id="Group-3" transform="translate(1241.000000, 623.015000)">
                    <mask id="mask-2" fill="white">
                        <use xlink:href="#path-1"></use>
                    </mask>
                    <g id="Clip-2"></g>
                    <path d="M84.2471,72.7944 C43.0411,94.6674 0.4151,80.8534 0.4151,80.8534 L4.6771,121.1464 L199.0001,192.2354 L199.0001,0.8344 C159.1491,7.5764 120.8571,53.3604 84.2471,72.7944" id="Fill-1" fill="#AEE36A" mask="url(#mask-2)"></path>
                </g>
                <g id="Group-6" transform="translate(0.000000, 403.015000)">
                    <mask id="mask-4" fill="white">
                        <use xlink:href="#path-3"></use>
                    </mask>
                    <g id="Clip-5"></g>
                    <path d="M127.4116,124.852 C99.8876,69.802 52.1566,20.23 -0.0004,0.515 L-0.0004,274.036 L127.4116,124.852 Z" id="Fill-4" fill="#AEE36A" mask="url(#mask-4)"></path>
                </g>
                <path d="M689.4336,537.325 C689.4336,537.325 787.0896,455.039 880.4466,472.217 C963.1836,487.44 1014.1336,597.688 1014.1336,597.688 L858.0406,768.718 L689.4336,537.325 Z" id="Fill-7" fill="#94D24D"></path>
                <path d="M839.1396,716.1648 C839.1396,716.1648 899.2976,669.5918 936.5286,632.2678 C973.1456,595.5568 1028.8746,544.0428 1121.9396,559.5578 C1215.2016,575.1048 1311.0696,708.9018 1358.4016,744.9838 C1420.1906,792.0878 1439.9996,794.3178 1439.9996,794.3178 L1439.9996,952.5258 L956.9266,952.5258 L839.1396,716.1648 Z" id="Fill-9" fill="#74BF1B"></path>
                <g id="Group-13" transform="translate(0.000000, 317.015000)">
                    <mask id="mask-6" fill="white">
                        <use xlink:href="#path-5"></use>
                    </mask>
                    <g id="Clip-12"></g>
                    <path d="M1009.66435,635.5112 C953.5241,587.8782 903.8491,485.9502 870.1681,404.1532 C822.5351,288.4742 722.9401,39.5902 501.0161,4.3802 C240.0351,-37.0278 1.7011,281.6692 0.0001,286.7732 L0.0001,635.5112 C0.0001,635.5112 1010.9601,636.6122 1009.66435,635.5112" id="Fill-11" fill="#4DBA1A" mask="url(#mask-6)"></path>
                </g>
                <path d="M458.8892,70.3577 C458.8892,70.3577 476.3812,85.8157 478.0082,117.1377 C480.2062,159.4567 464.5842,177.3417 464.5842,177.3417 C464.5842,177.3417 482.0762,172.0537 497.1272,166.7657 C512.1782,161.4777 522.7542,157.4097 532.9242,162.6977 C543.0942,167.9857 539.8392,173.2747 557.3312,173.6817 C574.8232,174.0877 595.9752,163.1047 604.1112,163.1047 C612.2472,163.1047 627.7052,164.7317 627.7052,164.7317 L617.3612,65.4537 C617.3612,65.4537 609.8062,63.4427 606.5522,61.4087 C603.2982,59.3747 595.9752,47.1707 568.3142,50.8327 C546.9262,53.6627 517.8732,73.2057 506.8892,74.0187 C495.9072,74.8327 489.8052,67.1037 478.0082,66.6967 C468.6482,66.3737 458.8892,70.3577 458.8892,70.3577" id="Fill-14" fill="#005400"></path>
                <path d="M456.4897,65.0452 L464.9277,349.6872 L465.0057,349.8132 C466.8537,352.8162 470.4937,352.5862 472.0957,349.3632 L460.4797,64.5242 L456.4897,65.0452 Z" id="Fill-16" fill="#7A7A7A"></path>
                <path d="M463.7769,60.8108 C463.7769,63.5098 461.5889,65.6988 458.8889,65.6988 C456.1899,65.6988 454.0019,63.5098 454.0019,60.8108 C454.0019,58.1108 456.1899,55.9228 458.8889,55.9228 C461.5889,55.9228 463.7769,58.1108 463.7769,60.8108" id="Fill-18" fill="#7A7A7A"></path>
                <path d="M725.1885,391.0662 C725.1885,391.0662 725.1885,383.7572 708.4385,381.6252 C689.2885,379.1882 683.7705,388.9342 683.7705,388.9342 C683.7705,388.9342 678.2885,377.3612 654.8375,377.3612 C631.3875,377.3612 622.5555,390.7622 622.5555,390.7622 C622.5555,390.7622 594.5375,387.1072 591.7965,402.6392 C589.5045,415.6222 609.4595,421.8262 628.3415,413.9072 C628.3415,413.9072 636.7615,425.5662 660.5155,424.6512 C684.2705,423.7382 688.0335,413.2982 688.0335,413.2982 C688.0335,413.2982 696.9045,422.8192 716.2765,423.6052 C735.6485,424.3902 744.0265,416.2742 744.0265,416.2742 C744.0265,416.2742 770.9905,426.7462 791.9325,411.5632 C806.4705,401.0232 782.7705,385.1222 756.5915,384.8602 C735.3475,384.6482 725.1885,391.0662 725.1885,391.0662" id="Fill-20" fill="#97DEEB"></path>
                <path d="M260.3853,178.4568 C281.2413,170.5848 329.4193,178.4828 323.6103,190.1108 C317.8013,201.7398 298.2033,198.2368 298.2033,198.2368 C298.2033,198.2368 294.8523,204.7218 277.6363,205.8458 C254.0233,207.3868 245.8993,197.9788 245.8993,197.9788 C245.8993,197.9788 244.1653,205.3708 231.1193,206.1378 C210.9533,207.3238 207.0753,199.4648 207.0753,199.4648 C191.4283,208.4138 159.4153,205.0058 156.9533,194.0508 C154.4373,182.8598 165.3833,177.7328 177.6613,177.5908 C191.7863,177.4288 197.6533,182.1348 197.6533,182.1348 C197.6533,182.1348 198.1733,165.2738 228.6853,163.9478 C259.1963,162.6228 260.3853,178.4568 260.3853,178.4568" id="Fill-22" fill="#00C7E2"></path>
                <path d="M0,125.5799 C5.18,123.8119 10.693,118.6769 10.693,118.6769 C10.693,118.6769 19.645,134.6149 55.398,130.8999 C82.041,128.1319 91.162,110.0609 91.162,110.0609 C91.162,110.0609 144.213,114.8039 152.658,93.1949 C160.187,73.9299 137.086,54.1539 103.158,47.0819 C70.222,40.2169 54.872,50.4629 54.872,50.4629 C54.872,50.4629 54.052,43.2429 36.708,35.1619 C17.787,26.3459 0,27.4859 0,27.4859 L0,125.5799 Z" id="Fill-24" fill="#97DEEB"></path>
                <path d="M1161.832,424.0672 C1161.832,424.0672 1132.448,413.9252 1129.327,433.9482 C1126.2,454.0152 1165.212,455.2712 1170.413,450.0702 C1170.413,450.0702 1181.074,461.7722 1207.338,461.7722 C1233.602,461.7722 1242.703,453.1912 1242.703,453.1912 C1242.703,453.1912 1254.925,462.2932 1279.628,462.0322 C1304.331,461.7722 1313.433,449.0302 1313.433,449.0302 C1313.433,449.0302 1354.258,459.9522 1361.279,440.1892 C1368.3,420.4262 1306.672,405.8642 1287.429,427.9672 C1287.429,427.9672 1282.792,413.7962 1261.234,413.4592 C1239.677,413.1232 1233.951,422.8912 1233.951,422.8912 C1233.951,422.8912 1228.898,405.0382 1197.235,404.7012 C1172.302,404.4362 1161.832,424.0672 1161.832,424.0672" id="Fill-26" fill="#00C7E2"></path>
                <g id="Group-30" transform="translate(1255.000000, 475.015000)">
                    <mask id="mask-8" fill="white">
                        <use xlink:href="#path-7"></use>
                    </mask>
                    <g id="Clip-29"></g>
                    <path d="M140.5723,72.2241 C140.5723,72.2241 134.2243,86.3821 98.0963,84.9181 C61.9683,83.4531 57.0863,65.8771 57.0863,65.8771 C57.0863,65.8771 5.7573,75.0841 0.9403,52.2071 C-2.3167,36.7401 14.1673,28.4411 28.9663,26.7661 C40.7933,25.4291 51.3463,29.4001 51.3463,29.4001 C51.3463,29.4001 53.1793,11.6851 83.9383,9.7321 C114.6963,7.7791 122.9963,22.9131 122.9963,22.9131 C122.9963,22.9131 130.3193,2.8971 162.5423,0.4551 C172.8693,-0.3269 185.0003,1.9201 185.0003,1.9201 L185.0003,90.2881 C185.0003,90.2881 172.7953,92.7301 157.1713,86.3821 C144.9923,81.4351 140.5723,72.2241 140.5723,72.2241" id="Fill-28" fill="#00AFDD" mask="url(#mask-8)"></path>
                </g>
                <path d="M388.7783,108.0545 C397.9933,108.7195 407.1863,109.5925 416.3623,110.6745 C420.8273,111.2015 420.7893,104.1975 416.3623,103.6745 C407.1873,102.5925 397.9933,101.7195 388.7783,101.0545 C384.2833,100.7305 384.3033,107.7315 388.7783,108.0545" id="Fill-31" fill="#FFBF00"></path>
                <path d="M385.7935,161.2269 C396.9905,157.0899 408.2515,153.1349 419.5755,149.3599 C423.8285,147.9429 422.0055,141.1799 417.7145,142.6099 C406.3905,146.3849 395.1295,150.3399 383.9325,154.4769 C379.7435,156.0249 381.5545,162.7929 385.7935,161.2269" id="Fill-33" fill="#FFBF00"></path>
                <g id="Group-37" transform="translate(464.000000, 0.015000)">
                    <mask id="mask-10" fill="white">
                        <use xlink:href="#path-9"></use>
                    </mask>
                    <g id="Clip-36"></g>
                    <path d="M1.2734,6.1415 C6.5404,14.3545 11.8064,22.5685 17.0724,30.7815 C19.4974,34.5615 25.5584,31.0555 23.1174,27.2485 C17.8504,19.0355 12.5844,10.8215 7.3174,2.6085 C4.8934,-1.1715 -1.1676,2.3345 1.2734,6.1415" id="Fill-35" fill="#FFBF00" mask="url(#mask-10)"></path>
                </g>
                <path d="M646.5386,12.074 C640.0136,18.287 633.4876,24.5 626.9626,30.713 C623.6936,33.826 628.6486,38.77 631.9126,35.663 C638.4376,29.449 644.9626,23.237 651.4886,17.024 C654.7576,13.911 649.8026,8.966 646.5386,12.074" id="Fill-38" fill="#FFBF00"></path>
                <path d="M658.9492,96.6375 C670.4312,93.6175 681.9132,90.5985 693.3942,87.5795 C697.7472,86.4345 695.9022,79.6805 691.5332,80.8295 C680.0522,83.8485 668.5702,86.8675 657.0882,89.8875 C652.7352,91.0325 654.5812,97.7855 658.9492,96.6375" id="Fill-40" fill="#FFBF00"></path>
                <path d="M662.5669,132.4935 C669.9529,133.3165 677.3389,134.1385 684.7259,134.9615 C689.1959,135.4585 689.1609,128.4545 684.7259,127.9615 C677.3389,127.1385 669.9529,126.3165 662.5669,125.4935 C658.0969,124.9955 658.1319,131.9995 662.5669,132.4935" id="Fill-42" fill="#FFBF00"></path>
                <path d="M631.9922,196.9407 C637.9312,203.5987 643.8712,210.2567 649.8102,216.9147 C652.8152,220.2827 657.7522,215.3177 654.7602,211.9647 C648.8212,205.3067 642.8812,198.6487 636.9422,191.9907 C633.9372,188.6227 629.0002,193.5867 631.9922,196.9407" id="Fill-44" fill="#FFBF00"></path>
                <path d="M494.186,200.6126 C491.918,205.7226 489.651,210.8336 487.383,215.9436 C485.573,220.0246 491.603,223.5906 493.428,219.4766 L500.23,204.1456 C502.041,200.0646 496.012,196.4986 494.186,200.6126" id="Fill-46" fill="#FFBF00"></path>
                <path d="M575.8169,49.5755 C570.2149,51.4645 568.4809,53.7855 567.9209,60.1435 C567.8229,61.2555 566.3969,61.4015 566.0749,60.3325 C564.2399,54.2195 562.0709,52.2975 556.2029,51.5825 C555.1759,51.4575 555.0179,49.9065 555.9979,49.5755 C561.5989,47.6865 563.3339,45.3655 563.8929,39.0075 C563.9909,37.8955 565.4179,37.7495 565.7389,38.8185 C567.5739,44.9315 569.7429,46.8535 575.6109,47.5685 C576.6379,47.6935 576.7959,49.2445 575.8169,49.5755" id="Fill-48" fill="#E7E7E7"></path>
                <path d="M612.4194,156.3284 C608.9444,157.5004 607.8684,158.9404 607.5214,162.8834 C607.4614,163.5734 606.5754,163.6634 606.3764,163.0004 C605.2384,159.2094 603.8924,158.0164 600.2524,157.5734 C599.6164,157.4954 599.5174,156.5344 600.1254,156.3284 C603.6004,155.1574 604.6764,153.7174 605.0234,149.7734 C605.0844,149.0844 605.9684,148.9934 606.1684,149.6564 C607.3064,153.4484 608.6514,154.6404 612.2924,155.0834 C612.9284,155.1614 613.0264,156.1234 612.4194,156.3284" id="Fill-50" fill="#E7E7E7"></path>
                <path d="M507.5039,103.0203 C503.0399,104.5253 501.6569,106.3753 501.2119,111.4423 C501.1329,112.3293 499.9959,112.4453 499.7399,111.5933 C498.2769,106.7213 496.5489,105.1893 491.8719,104.6203 C491.0539,104.5203 490.9269,103.2833 491.7079,103.0203 C496.1729,101.5153 497.5549,99.6653 498.0009,94.5983 C498.0789,93.7113 499.2159,93.5953 499.4719,94.4473 C500.9349,99.3193 502.6639,100.8513 507.3399,101.4203 C508.1579,101.5203 508.2849,102.7573 507.5039,103.0203" id="Fill-52" fill="#E7E7E7"></path>
                <path d="M509.604,111.6849 C510.316,94.0219 522.34,77.9979 540.229,72.9019 C562.871,66.4519 586.221,79.4119 592.638,102.0599 C597.958,120.8379 589.854,140.6789 572.362,150.4689 C568.319,152.7319 563.698,151.5379 561.507,147.7449 C559.28,143.8879 560.631,139.3719 564.752,136.9449 C572.81,132.1989 577.561,125.2779 578.52,115.9219 C579.933,102.1409 570.013,89.3319 556.296,87.1539 C540.778,84.6889 526.677,95.6009 525.167,111.2409 C524.008,123.2569 531.659,134.9139 543.313,138.7969 C546.118,139.7319 548.236,141.2899 549.091,144.2349 C549.995,147.3509 549.22,150.0499 546.862,152.2099 C544.632,154.2529 541.943,154.7199 539.104,153.7699 C526.541,149.5679 517.545,141.4279 512.597,129.1329 C511.831,127.2299 510.335,123.5219 509.945,119.7159 C509.426,114.6639 509.426,116.0889 509.604,111.6849" id="Fill-54" fill="#00AE00"></path>
                <path d="M536.2314,114.9978 C535.3874,106.3048 541.6904,98.6708 550.4424,97.8628 C558.7264,97.0978 566.5724,102.7818 567.5934,111.9558 C568.5534,120.5748 561.9994,128.3898 553.4104,129.2168 C544.7764,130.0488 537.0734,123.6728 536.2314,114.9978" id="Fill-56" fill="#00AE00"></path>
                <path d="M459.144,178.4544 C461.517,179.3714 464.437,179.0014 466.514,177.5374 C466.881,177.2794 467.168,176.9734 467.291,176.5274 C467.402,176.1224 467.352,175.5844 467.121,175.2254 C466.659,174.5094 465.581,174.0744 464.808,174.6184 C464.598,174.7664 464.38,174.9044 464.154,175.0274 C464.04,175.0884 463.924,175.1414 463.809,175.1994 C463.515,175.3464 464.197,175.0504 463.813,175.1974 C463.346,175.3754 462.861,175.4954 462.367,175.5664 C462.517,175.5464 462.666,175.5264 462.816,175.5064 C462.239,175.5814 461.662,175.5854 461.084,175.5164 C461.234,175.5364 461.384,175.5564 461.534,175.5764 C461.021,175.5064 460.525,175.3814 460.043,175.1944 C459.658,175.0454 459.083,175.1644 458.741,175.3654 C458.39,175.5704 458.056,175.9724 457.964,176.3754 C457.743,177.3434 458.259,178.1124 459.144,178.4544" id="Fill-58" fill="#000000"></path>
                <path d="M456.04,73.013 C457.017,73.222 458.037,73.368 459.035,73.254 C459.564,73.193 460.087,73.112 460.597,72.958 C461.167,72.785 461.719,72.547 462.259,72.298 C462.622,72.13 462.934,71.658 463.035,71.287 C463.147,70.883 463.097,70.344 462.865,69.985 C462.632,69.624 462.286,69.306 461.855,69.208 C461.388,69.102 460.986,69.179 460.552,69.379 C460.418,69.441 460.282,69.501 460.146,69.559 C460.28,69.502 460.415,69.445 460.55,69.388 C459.941,69.641 459.314,69.835 458.66,69.924 C458.81,69.904 458.959,69.884 459.109,69.864 C458.52,69.937 457.931,69.921 457.343,69.845 C457.493,69.866 457.643,69.886 457.792,69.906 C457.506,69.866 457.222,69.814 456.939,69.753 C456.495,69.658 456.037,69.689 455.636,69.924 C455.286,70.129 454.952,70.531 454.86,70.933 C454.666,71.784 455.116,72.815 456.04,73.013" id="Fill-60" fill="#000000"></path>
                <path d="M391.9004,348.788 C391.9364,349.194 393.0154,349.657 393.4594,349.792 C394.1154,349.993 395.4094,350.304 397.7024,350.322 C403.5344,350.369 405.8274,348.116 406.8194,347.366 C407.6174,346.762 409.5194,345.256 410.3654,344.522 C410.6254,344.297 410.8844,343.915 410.9334,343.601 L411.1094,341.937 C411.1234,341.819 411.0374,341.708 410.9054,341.678 C410.8534,341.666 410.8224,341.657 410.8224,341.657 L410.7754,342.042 C410.7754,342.042 410.7704,342.045 410.7684,342.047 L411.2624,338.398 C411.6804,338.349 411.9274,338.306 411.9274,338.306 C411.9274,338.306 416.4974,323.169 417.1764,319.327 C417.7844,315.889 422.7134,300.68 422.7134,300.68 C422.7134,300.68 426.2744,313.343 427.3074,317.992 C428.2834,322.383 431.4794,337.999 431.4794,337.999 C431.7714,338.128 432.1224,338.227 432.5064,338.302 L433.1524,344.097 C433.1494,344.097 433.0764,344.102 433.0354,344.11 C432.9604,344.125 432.8934,344.18 432.8904,344.224 C432.8844,344.298 432.8874,344.381 432.8894,344.472 C432.9094,345.27 432.9744,345.856 432.9744,345.856 C432.9744,345.856 433.5344,348.064 436.0704,349.065 C438.8764,350.174 447.4014,349.437 448.0014,348.21 C448.0014,348.21 448.5104,345.637 446.4644,344.261 C445.8814,343.868 445.1604,343.404 444.4114,342.913 C444.1474,342.74 443.8374,342.617 443.5074,342.57 C443.4784,342.566 443.4474,342.565 443.4184,342.561 C442.9504,342.248 442.4894,341.93 442.0634,341.621 L442.1574,341.606 C442.1164,341.603 442.0744,341.603 442.0334,341.6 C441.0594,340.892 440.2704,340.225 440.0074,339.738 C440.0064,339.737 440.0054,339.736 440.0054,339.736 C439.5984,338.979 439.3534,338.274 439.2064,337.72 C439.9254,337.473 440.3434,337.262 440.3434,337.262 C440.3434,337.262 439.3454,325.698 438.8094,319.505 C438.2744,313.312 435.8904,287.026 435.8904,287.026 L410.0524,287.363 L403.4094,337.589 C403.4094,337.589 403.6354,337.717 404.0884,337.879 C403.2054,339.357 401.6194,340.819 400.2914,341.58 C400.2414,341.573 400.1924,341.562 400.1424,341.555 L400.2484,341.605 C400.1994,341.633 400.1494,341.663 400.1014,341.689 C399.8224,341.837 399.5594,341.975 399.3024,342.107 C399.2254,342.147 399.1504,342.185 399.0764,342.223 C398.8954,342.316 398.7194,342.405 398.5494,342.49 C398.4814,342.524 398.4104,342.56 398.3424,342.593 C398.1084,342.571 397.8664,342.557 397.6134,342.555 C397.5874,342.555 397.5594,342.562 397.5364,342.573 C394.3514,344.128 393.2674,344.336 392.4474,345.439 C391.6784,346.474 391.8234,347.942 391.9004,348.788" id="Fill-62" fill="#000000"></path>
                <path d="M438.2036,292.054 C438.2036,292.054 433.1596,293.231 425.0266,293.485 C415.3736,293.787 407.5036,291.078 407.5036,291.078 L410.6336,263.177 C410.6336,263.177 400.6696,253.599 398.3676,250.837 C393.7096,245.247 389.2456,229.582 389.2456,229.582 L395.5336,226.787 L404.4986,241.327 C404.4986,241.327 413.7796,254.195 431.9846,256.779 C450.1206,259.352 460.0686,245.158 460.0686,245.158 L464.0796,250.358 C464.0796,250.358 457.2426,261.83 449.8136,264.504 C442.3856,267.179 436.7336,267.355 436.7336,267.355 L438.2036,292.054 Z" id="Fill-64" fill="#000000"></path>
                <mask id="mask-12" fill="white">
                    <use xlink:href="#path-11"></use>
                </mask>
                <g id="Clip-67"></g>
                <polygon id="Fill-66" fill="#000000" mask="url(#mask-12)" points="419.564 258.204 429.388 258.204 429.388 245.857 419.564 245.857"></polygon>
                <path d="M436.4849,238.136 C436.1609,236.425 434.0319,231.928 428.2789,231.059 C423.4309,230.325 420.3329,231.592 419.7069,233.735 C419.7069,233.735 417.0169,233.959 415.8829,237.207 C415.1359,239.346 415.5519,242.194 415.9229,243.894 C414.8959,245.198 416.0849,248.559 418.2099,248.547 C418.4709,248.545 418.6999,248.519 418.9079,248.479 C418.9409,248.561 419.0219,248.629 419.1119,248.633 L419.2679,254.134 C419.2679,254.134 420.8879,255.302 423.4589,255.612 C425.0009,255.799 427.2899,255.611 429.0059,254.801 L429.0119,254.744 C429.4899,254.737 429.9849,254.697 430.4979,254.608 C434.8969,253.847 434.4909,245.47 433.8829,240.66 C433.9539,240.512 433.9519,240.323 433.8239,240.206 C433.7619,239.75 433.7009,239.334 433.6429,238.967 C434.2849,239.304 434.7159,239.678 434.9509,239.92 C435.0499,240.023 435.2239,239.966 435.2439,239.824 C435.3129,239.323 435.3939,238.514 434.7139,237.812 C434.7139,237.812 435.1699,237.97 436.1929,238.717 C436.3539,238.834 436.5779,238.626 436.4849,238.136" id="Fill-68" fill="#000000" mask="url(#mask-12)"></path>
                <path d="M396.4409,230.3016 L394.9179,227.4476 C394.9179,227.4476 395.7639,227.2066 396.4169,225.8276 C397.0699,224.4486 396.8519,223.7726 396.8519,223.7726 C396.8519,223.7726 398.0619,222.1996 398.3759,220.7736 C398.6899,219.3466 397.9649,218.3066 396.6469,218.3546 C396.6469,218.3546 396.5379,217.8226 395.2079,216.6376 C393.8779,215.4526 393.2009,214.8436 392.2329,214.8946 C391.2659,214.9456 388.4609,215.9606 388.1459,216.9046 C387.8319,217.8466 388.0489,217.9926 387.6139,218.3066 C387.1789,218.6206 386.3809,219.3946 386.3809,220.0236 C386.3809,220.6526 386.3079,220.9666 385.9699,221.5236 C385.6309,222.0796 385.0509,223.6996 385.8249,225.2956 C386.5989,226.8916 387.4929,228.8506 389.0649,229.4796 L390.2259,231.9466 L396.4409,230.3016 Z" id="Fill-69" fill="#000000" mask="url(#mask-12)"></path>
                <path d="M387.1504,225.0857 C387.4194,225.0977 387.6904,225.0467 387.9354,224.9377" id="Fill-70" fill="#000000" mask="url(#mask-12)"></path>
                <path d="M387.1504,225.3909 C387.3124,225.3979 387.4744,225.3819 387.6324,225.3519 C387.7924,225.3219 387.9424,225.2659 388.0894,225.2019 C388.1554,225.1729 388.2124,225.0849 388.2304,225.0189 C388.2504,224.9459 388.2414,224.8489 388.1994,224.7839 C388.1574,224.7179 388.0944,224.6609 388.0164,224.6429 C387.9894,224.6399 387.9624,224.6359 387.9354,224.6319 C387.8804,224.6319 387.8294,224.6459 387.7814,224.6739 C387.7724,224.6779 387.7634,224.6819 387.7544,224.6849 L387.8284,224.6549 C387.6864,224.7139 387.5374,224.7549 387.3854,224.7769 C387.4124,224.7729 387.4394,224.7689 387.4664,224.7659 C387.3614,224.7799 387.2564,224.7849 387.1504,224.7799 C386.9904,224.7729 386.8384,224.9259 386.8454,225.0859 C386.8524,225.2569 386.9794,225.3839 387.1504,225.3909" id="Fill-71" fill="#000000" mask="url(#mask-12)"></path>
                <path d="M387.9614,224.826 C388.0184,224.992 388.1284,225.133 388.2374,225.269 C388.5794,225.691 388.9394,226.097 389.3154,226.488" id="Fill-72" fill="#000000" mask="url(#mask-12)"></path>
                <path d="M387.667,224.9075 C387.801,225.2775 388.09,225.5745 388.342,225.8695 C388.586,226.1555 388.839,226.4335 389.1,226.7035 C389.211,226.8185 389.422,226.8235 389.532,226.7035 C389.646,226.5795 389.65,226.3945 389.532,226.2715 C389.286,226.0165 389.046,225.7545 388.815,225.4855 C388.703,225.3545 388.592,225.2225 388.483,225.0895 C388.455,225.0545 388.427,225.0195 388.399,224.9845 C388.419,225.0095 388.404,224.9905 388.394,224.9765 C388.382,224.9605 388.371,224.9445 388.36,224.9285 C388.335,224.8925 388.312,224.8555 388.291,224.8175 C388.281,224.8005 388.273,224.7825 388.264,224.7655 C388.239,224.7235 388.286,224.8265 388.256,224.7445 C388.202,224.5955 388.046,224.4775 387.88,224.5315 C387.733,224.5795 387.608,224.7465 387.667,224.9075" id="Fill-73" fill="#000000" mask="url(#mask-12)"></path>
                <path d="M388.6221,225.7864 C388.1911,225.8574 387.8681,226.3074 387.9111,226.7424 C387.9551,227.1774 388.3361,227.5454 388.7691,227.6034 C389.0131,227.6354 389.2591,227.5814 389.4981,227.5254 C389.9721,227.4144 390.4561,227.2894 390.8541,227.0104 C391.2531,226.7304 391.5531,226.2604 391.4971,225.7764 C391.4781,225.6244 391.4271,225.4784 391.3611,225.3404 C391.1551,224.9084 390.8171,224.5694 390.5011,224.2174 C390.2091,223.8924 390.0021,223.4744 389.6991,223.1764 C388.9931,222.4784 388.4211,222.3934 387.4861,222.3544" id="Fill-74" fill="#000000" mask="url(#mask-12)"></path>
                <path d="M388.541,225.492 C387.651,225.683 387.337,226.774 387.905,227.449 C388.555,228.221 389.737,227.867 390.53,227.531 C391.388,227.166 392.073,226.301 391.693,225.343 C391.514,224.89 391.189,224.522 390.866,224.166 C390.539,223.806 390.305,223.376 389.975,223.021 C389.656,222.679 389.262,222.403 388.821,222.245 C388.396,222.093 387.933,222.069 387.486,222.049 C387.093,222.032 387.094,222.643 387.486,222.66 C388.26,222.694 388.918,222.821 389.483,223.392 C389.812,223.724 390.032,224.151 390.344,224.499 C390.65,224.841 391.007,225.187 391.152,225.635 C391.485,226.667 390.097,227.076 389.372,227.242 C388.967,227.333 388.507,227.355 388.283,226.929 C388.095,226.572 388.323,226.163 388.703,226.081 C389.087,225.998 388.925,225.409 388.541,225.492" id="Fill-75" fill="#000000" mask="url(#mask-12)"></path>
                <path d="M391.54,226.1497 C391.915,226.2437 392.333,226.1357 392.617,225.8747 C392.842,225.6657 392.977,225.3767 393.061,225.0817 C393.202,224.5837 393.206,224.0247 392.952,223.5737 C392.838,223.3737 392.679,223.2027 392.526,223.0307 C391.974,222.4117 391.48,221.7447 391.031,221.0477 C390.214,219.7787 388.914,219.6177 388.471,219.6647" id="Fill-76" fill="#000000" mask="url(#mask-12)"></path>
                <path d="M391.4585,226.4441 C392.5305,226.6631 393.2575,225.8501 393.4225,224.8581 C393.5035,224.3691 393.4605,223.8581 393.2155,223.4201 C392.9495,222.9441 392.5075,222.5601 392.1725,222.1341 C391.5475,221.3381 391.1005,220.3651 390.2105,219.8221 C389.7085,219.5151 389.0655,219.3051 388.4715,219.3591 C388.0825,219.3941 388.0795,220.0061 388.4715,219.9701 C388.8875,219.9321 389.3255,220.0471 389.6945,220.2341 C390.4375,220.6101 390.7985,221.2851 391.2665,221.9361 C391.5225,222.2941 391.7925,222.6421 392.0775,222.9781 C392.3665,223.3211 392.7215,223.6291 392.8185,224.0861 C392.9795,224.8371 392.5815,226.0511 391.6215,225.8551 C391.2375,225.7771 391.0735,226.3651 391.4585,226.4441" id="Fill-77" fill="#000000" mask="url(#mask-12)"></path>
                <path d="M392.5195,222.9651 C392.8325,223.0351 393.1685,222.9371 393.4265,222.7471 C393.6855,222.5571 393.8735,222.2841 394.0095,221.9941 C394.0615,221.8831 394.1075,221.7681 394.1265,221.6481 C394.1645,221.4101 394.0975,221.1651 393.9875,220.9511 C393.8765,220.7371 393.7255,220.5481 393.5805,220.3561 C392.6815,219.1681 392.2775,217.9091 390.5655,217.6041" id="Fill-78" fill="#000000" mask="url(#mask-12)"></path>
                <path d="M392.4385,223.2596 C393.3285,223.4156 394.0325,222.7796 394.3415,221.9906 C394.6765,221.1386 394.0345,220.4956 393.5875,219.8446 C393.2255,219.3176 392.9035,218.7546 392.4625,218.2856 C391.9725,217.7656 391.3465,217.4426 390.6465,217.3096 C390.2625,217.2366 390.0975,217.8256 390.4835,217.8986 C391.0265,218.0016 391.5145,218.2146 391.9155,218.6016 C392.2775,218.9516 392.5465,219.3796 392.8225,219.7976 C392.9675,220.0186 393.1145,220.2386 393.2715,220.4506 C393.4635,220.7096 393.7035,220.9696 393.7955,221.2846 C393.9765,221.9086 393.2625,222.7866 392.6005,222.6706 C392.2165,222.6026 392.0515,223.1916 392.4385,223.2596" id="Fill-79" fill="#000000" mask="url(#mask-12)"></path>
                <path d="M393.8594,219.5433 C393.5674,219.5273 393.2764,219.4813 392.9924,219.4073" id="Fill-80" fill="#000000" mask="url(#mask-12)"></path>
                <path d="M393.8594,219.2376 C393.7434,219.2316 393.6284,219.2196 393.5124,219.2046 C393.5394,219.2086 393.5674,219.2126 393.5934,219.2156 C393.4184,219.1916 393.2454,219.1566 393.0734,219.1126 C392.9194,219.0726 392.7344,219.1636 392.6974,219.3256 C392.6614,219.4856 392.7454,219.6586 392.9114,219.7016 C393.2204,219.7816 393.5404,219.8306 393.8594,219.8486 C394.0194,219.8576 394.1714,219.7016 394.1644,219.5436 C394.1574,219.3696 394.0304,219.2476 393.8594,219.2376" id="Fill-81" fill="#000000" mask="url(#mask-12)"></path>
                <path d="M394.1929,221.325 C394.3219,221.379 394.4729,221.351 394.5959,221.284 C394.7179,221.217 394.8179,221.115 394.9129,221.013 C395.3319,220.563 395.7169,220.081 396.0619,219.572 C396.1659,219.419 396.2669,219.261 396.3239,219.085 C396.3809,218.909 396.3879,218.711 396.3079,218.545" id="Fill-82" fill="#000000" mask="url(#mask-12)"></path>
                <path d="M394.1113,221.6199 C394.5113,221.7559 394.8663,221.5089 395.1293,221.2289 C395.3803,220.9609 395.6163,220.6799 395.8413,220.3899 C396.2753,219.8309 396.8963,219.1389 396.5713,218.3909 C396.5063,218.2389 396.2833,218.2039 396.1533,218.2809 C395.9973,218.3719 395.9783,218.5469 396.0443,218.6989 C396.1303,218.8959 395.9763,219.1429 395.8753,219.3019 C395.7223,219.5419 395.5523,219.7729 395.3783,219.9979 C395.2003,220.2269 395.0123,220.4499 394.8183,220.6649 C394.6933,220.8029 394.4923,221.1049 394.2743,221.0309 C394.1173,220.9769 393.9403,221.0919 393.8983,221.2439 C393.8523,221.4119 393.9543,221.5659 394.1113,221.6199" id="Fill-83" fill="#000000" mask="url(#mask-12)"></path>
                <path d="M396.1816,223.9393 C395.7936,224.1763 395.3866,224.4153 394.9336,224.4613 C394.4816,224.5083 393.9706,224.3073 393.8016,223.8843 C393.7406,223.7333 393.7276,223.5673 393.7326,223.4043 C393.7506,222.7323 394.0446,222.1013 394.3486,221.5013" id="Fill-84" fill="#000000" mask="url(#mask-12)"></path>
                <path d="M396.0273,223.6756 C395.6923,223.8806 395.3333,224.1076 394.9343,224.1556 C394.6663,224.1886 394.3393,224.1186 394.1613,223.9016 C393.9353,223.6266 394.0423,223.1486 394.1253,222.8356 C394.2343,222.4206 394.4193,222.0356 394.6113,221.6546 C394.6863,221.5076 394.6503,221.3236 394.5023,221.2366 C394.3663,221.1576 394.1583,221.1986 394.0843,221.3466 C393.8493,221.8106 393.6173,222.2896 393.5043,222.8006 C393.3913,223.3106 393.3553,223.8986 393.7173,224.3186 C393.9943,224.6396 394.4573,224.7946 394.8733,224.7716 C395.4103,224.7426 395.8863,224.4766 396.3353,224.2026 C396.6713,223.9986 396.3643,223.4696 396.0273,223.6756" id="Fill-85" fill="#000000" mask="url(#mask-12)"></path>
                <path d="M457.9146,248.9446 L460.1766,246.5056 C460.1766,246.5056 459.5366,245.9006 459.5926,244.3766 C459.6476,242.8516 460.1526,242.3506 460.1526,242.3506 C460.1526,242.3506 459.8046,240.3986 460.1826,238.9876 C460.5606,237.5766 461.6836,236.9876 462.8316,237.6376 C462.8316,237.6376 463.1726,237.2156 464.8996,236.7776 C466.6256,236.3386 467.5076,236.1096 468.3426,236.5996 C469.1776,237.0906 471.1996,239.2846 471.0446,240.2666 C470.8886,241.2486 470.6286,241.2776 470.8706,241.7566 C471.1116,242.2366 471.4636,243.2906 471.1736,243.8486 C470.8846,244.4066 470.8036,244.7186 470.8476,245.3686 C470.8926,246.0186 470.6606,247.7236 469.2386,248.7836 C467.8166,249.8436 466.1196,251.1706 464.4346,251.0046 L462.2686,252.6586 L457.9146,248.9446 Z" id="Fill-86" fill="#000000" mask="url(#mask-12)"></path>
                <path d="M461.8184,243.0408 L462.1734,253.8958 C462.1734,253.8958 468.0794,253.9138 468.0794,253.7488 C468.0794,253.5838 467.8584,240.6548 467.8584,240.6548 L461.8184,243.0408 Z" id="Fill-87" fill="#7A7A7A" mask="url(#mask-12)"></path>
                <path d="M463.8262,241.3455 C463.6882,241.3245 463.5722,241.2225 463.5022,241.1025 C463.4312,240.9815 463.3992,240.8435 463.3702,240.7065 C463.2432,240.1045 463.1622,239.4925 463.1292,238.8785 C463.1192,238.6945 463.1142,238.5065 463.1562,238.3265 C463.1982,238.1465 463.2942,237.9725 463.4492,237.8715" id="Fill-88" fill="#000000" mask="url(#mask-12)"></path>
                <path d="M463.9072,241.0506 C463.6772,240.9986 463.6612,240.6176 463.6252,240.4316 C463.5722,240.1556 463.5282,239.8796 463.4952,239.6006 C463.4632,239.3206 463.4372,239.0376 463.4292,238.7556 C463.4232,238.5556 463.4192,238.2676 463.6032,238.1356 C463.7372,238.0396 463.8022,237.8696 463.7132,237.7176 C463.6352,237.5856 463.4292,237.5116 463.2952,237.6086 C462.6452,238.0746 462.8092,238.9776 462.8922,239.6666 C462.9392,240.0516 462.9982,240.4376 463.0822,240.8166 C463.1622,241.1826 463.3482,241.5506 463.7442,241.6396 C464.1272,241.7266 464.2912,241.1376 463.9072,241.0506" id="Fill-89" fill="#000000" mask="url(#mask-12)"></path>
                <path d="M467.918,248.2 C467.682,248.072 467.476,247.888 467.322,247.668" id="Fill-90" fill="#000000" mask="url(#mask-12)"></path>
                <path d="M468.0723,247.9363 C467.9913,247.8923 467.9143,247.8423 467.8423,247.7863 C467.8623,247.8023 467.8833,247.8183 467.9033,247.8343 C467.7843,247.7423 467.6763,247.6353 467.5843,247.5153 C467.6003,247.5363 467.6163,247.5573 467.6323,247.5773 C467.6163,247.5563 467.6003,247.5353 467.5853,247.5143 C467.5393,247.4473 467.4833,247.3953 467.4033,247.3743 C467.3303,247.3533 467.2323,247.3623 467.1673,247.4043 C467.1023,247.4463 467.0453,247.5093 467.0273,247.5873 C467.0103,247.6633 467.0113,247.7553 467.0583,247.8223 C467.2433,248.0853 467.4803,248.3093 467.7633,248.4633 C467.8343,248.5023 467.9203,248.5163 467.9993,248.4943 C468.0703,248.4753 468.1473,248.4203 468.1813,248.3543 C468.2193,248.2833 468.2383,248.1973 468.2123,248.1193 C468.1883,248.0443 468.1423,247.9753 468.0723,247.9363" id="Fill-91" fill="#000000" mask="url(#mask-12)"></path>
                <path d="M467.3574,247.5594 C467.2234,247.6724 467.0564,247.7364 466.8924,247.7954 C466.3814,247.9814 465.8634,248.1434 465.3394,248.2834" id="Fill-92" fill="#000000" mask="url(#mask-12)"></path>
                <path d="M467.1411,247.3436 C467.0451,247.4206 466.9071,247.4666 466.7741,247.5146 C466.6101,247.5736 466.4451,247.6306 466.2801,247.6856 C465.9421,247.7966 465.6011,247.8976 465.2581,247.9896 C465.0991,248.0316 465.0011,248.2066 465.0451,248.3646 C465.0891,248.5256 465.2611,248.6206 465.4211,248.5786 C465.7891,248.4796 466.1541,248.3706 466.5161,248.2496 C466.8811,248.1276 467.2691,248.0206 467.5731,247.7756 C467.7021,247.6716 467.6811,247.4506 467.5731,247.3436 C467.4461,247.2166 467.2701,247.2396 467.1411,247.3436" id="Fill-93" fill="#000000" mask="url(#mask-12)"></path>
                <path d="M466.2959,248.0413 C466.6289,248.3243 466.6729,248.8763 466.4119,249.2263 C466.1499,249.5763 465.6329,249.6953 465.2329,249.5213 C465.0069,249.4233 464.8239,249.2503 464.6479,249.0783 C464.2989,248.7393 463.9489,248.3823 463.7529,247.9373 C463.5559,247.4923 463.5409,246.9343 463.8389,246.5493 C463.9329,246.4283 464.0519,246.3303 464.1799,246.2453 C464.5789,245.9813 465.0439,245.8663 465.4959,245.7283 C465.9139,245.6003 466.3069,245.3493 466.7199,245.2493 C467.6849,245.0163 468.2179,245.2383 469.0399,245.6873" id="Fill-94" fill="#000000" mask="url(#mask-12)"></path>
                <path d="M466.0796,248.2571 C466.3406,248.5011 466.3466,248.9381 466.0496,249.1611 C465.7156,249.4111 465.3276,249.2781 465.0436,249.0321 C464.4896,248.5501 463.5756,247.6571 464.0146,246.8381 C464.2276,246.4411 464.7496,246.2771 465.1516,246.1511 C465.3836,246.0781 465.6176,246.0161 465.8426,245.9261 C466.0766,245.8321 466.3016,245.7141 466.5376,245.6261 C466.9166,245.4861 467.3476,245.4171 467.7476,245.4861 C468.1566,245.5551 468.5256,245.7561 468.8856,245.9511 C469.2306,246.1391 469.5396,245.6121 469.1936,245.4241 C468.8096,245.2151 468.4116,245.0031 467.9806,244.9101 C467.5656,244.8201 467.1426,244.8431 466.7306,244.9331 C466.2126,245.0481 465.7516,245.3321 465.2446,245.4841 C464.7976,245.6181 464.3326,245.7561 463.9496,246.0341 C463.1196,246.6361 463.1716,247.7171 463.7226,248.4981 C463.9876,248.8731 464.3216,249.2231 464.6736,249.5171 C465.0126,249.8011 465.4036,249.9561 465.8486,249.8851 C466.8126,249.7301 467.2476,248.5121 466.5116,247.8251 C466.2246,247.5571 465.7916,247.9881 466.0796,248.2571" id="Fill-95" fill="#000000" mask="url(#mask-12)"></path>
                <path d="M463.6089,246.847 C463.2399,246.734 462.9369,246.426 462.8289,246.055 C462.7429,245.761 462.7769,245.443 462.8579,245.147 C462.9929,244.648 463.2789,244.167 463.7289,243.912 C463.9289,243.799 464.1529,243.734 464.3739,243.666 C465.1659,243.421 465.9329,243.105 466.6769,242.739 C468.0319,242.073 469.2289,242.607 469.5839,242.875" id="Fill-96" fill="#000000" mask="url(#mask-12)"></path>
                <path d="M463.6899,246.552 C462.8419,246.251 463.0299,245.185 463.4399,244.592 C463.6779,244.247 464.0099,244.1 464.3999,243.978 C464.8139,243.848 465.2229,243.705 465.6249,243.542 C466.3689,243.241 467.0989,242.754 467.9189,242.725 C468.4409,242.707 469.0019,242.828 469.4299,243.139 C469.7479,243.37 470.0529,242.841 469.7379,242.612 C469.1739,242.202 468.3879,242.06 467.7079,242.13 C467.1769,242.184 466.7199,242.385 466.2429,242.61 C465.7229,242.854 465.1909,243.072 464.6479,243.256 C464.1989,243.408 463.7189,243.507 463.3409,243.809 C462.9749,244.102 462.7319,244.522 462.5919,244.966 C462.3089,245.867 462.5889,246.808 463.5279,247.141 C463.8989,247.273 464.0589,246.683 463.6899,246.552" id="Fill-97" fill="#000000" mask="url(#mask-12)"></path>
                <path d="M464.4131,243.6131 C464.1091,243.5121 463.8721,243.2541 463.7481,242.9581 C463.6241,242.6621 463.6041,242.3311 463.6381,242.0121 C463.6501,241.8911 463.6701,241.7691 463.7161,241.6551 C463.8061,241.4321 463.9901,241.2581 464.1951,241.1311 C464.3991,241.0051 464.6271,240.9211 464.8501,240.8311 C466.2331,240.2771 467.2291,239.4071 468.8531,240.0301" id="Fill-98" fill="#000000" mask="url(#mask-12)"></path>
                <path d="M464.4941,243.3186 C463.9401,243.1096 463.8001,242.2766 463.9971,241.7796 C464.1091,241.4966 464.4061,241.3456 464.6701,241.2316 C464.9581,241.1066 465.2501,240.9956 465.5351,240.8626 C466.0221,240.6356 466.5001,240.3756 467.0201,240.2286 C467.6171,240.0606 468.1931,240.1106 468.7721,240.3236 C469.1411,240.4606 469.3011,239.8696 468.9341,239.7346 C468.2081,239.4666 467.4531,239.4436 466.7161,239.6826 C466.0401,239.9016 465.4251,240.2696 464.7691,240.5366 C464.4101,240.6836 464.0441,240.8156 463.7541,241.0846 C463.4601,241.3586 463.3531,241.7086 463.3251,242.0996 C463.2691,242.8616 463.5841,243.6256 464.3321,243.9076 C464.7001,244.0466 464.8591,243.4566 464.4941,243.3186" id="Fill-99" fill="#000000" mask="url(#mask-12)"></path>
                <path d="M465.0308,239.991 C465.2898,240.128 465.5628,240.239 465.8438,240.322" id="Fill-100" fill="#000000" mask="url(#mask-12)"></path>
                <path d="M464.877,240.2547 C465.159,240.4027 465.457,240.5257 465.763,240.6167 C465.916,240.6617 466.102,240.5617 466.138,240.4027 C466.176,240.2387 466.089,240.0757 465.925,240.0267 C465.765,239.9797 465.608,239.9237 465.454,239.8587 L465.527,239.8897 C465.411,239.8397 465.297,239.7857 465.185,239.7277 C465.113,239.6897 465.03,239.6737 464.95,239.6967 C464.879,239.7157 464.802,239.7707 464.767,239.8367 C464.693,239.9777 464.726,240.1747 464.877,240.2547" id="Fill-101" fill="#000000" mask="url(#mask-12)"></path>
                <path d="M460.7734,242.5584 C460.9834,242.9614 461.2094,243.3764 461.5724,243.6494 C461.9364,243.9224 462.4784,244.0144 462.8404,243.7394 C462.9704,243.6414 463.0664,243.5054 463.1474,243.3644 C463.4794,242.7784 463.5524,242.0864 463.6024,241.4154" id="Fill-102" fill="#000000" mask="url(#mask-12)"></path>
                <path d="M460.5098,242.7122 C460.7308,243.1372 460.9738,243.5652 461.3568,243.8652 C461.7318,244.1582 462.2658,244.3122 462.7268,244.1412 C463.2278,243.9562 463.4868,243.4552 463.6498,242.9762 C463.8208,242.4762 463.8688,241.9402 463.9078,241.4152 C463.9208,241.2512 463.7588,241.1102 463.6028,241.1102 C463.4268,241.1102 463.3098,241.2502 463.2968,241.4152 C463.2658,241.8322 463.2258,242.2482 463.1118,242.6502 C463.0238,242.9602 462.8738,243.4262 462.5468,243.5602 C462.2688,243.6732 461.9198,243.5522 461.7008,243.3622 C461.4018,243.1032 461.2178,242.7492 461.0378,242.4042 C460.8558,242.0552 460.3278,242.3632 460.5098,242.7122" id="Fill-103" fill="#000000" mask="url(#mask-12)"></path>
                <path d="M461.6255,239.5276 L461.5035,242.9716 L463.0025,242.5256 L463.5605,243.9456 L464.7455,243.1736 L464.8265,244.9166 L465.6365,246.3346 L466.5685,247.0636 L466.5965,247.7996 L467.3385,247.5096 C467.3385,247.5096 467.2895,248.3236 467.9485,248.5406 C468.2235,248.6316 469.3775,248.7146 469.3775,248.7146 L470.4175,246.0506 L470.1345,242.1206 L469.2425,238.4336 L467.8245,237.7036 L463.7725,238.4736 L461.6255,239.5276 Z" id="Fill-104" fill="#000000" mask="url(#mask-12)"></path>
            </g>
        </g>
    </g>
</svg>