<?xml version="1.0" encoding="UTF-8"?>
<svg width="360px" height="527px" viewBox="0 0 360 527" version="1.1" xmlns="http://www.w3.org/2000/svg" xmlns:xlink="http://www.w3.org/1999/xlink">
    <!-- Generator: Sketch 62 (91390) - https://sketch.com -->
    <title>Group 254</title>
    <desc>Created with Sketch.</desc>
    <defs>
        <path d="M0.227,110.245404 L49.988,50.7636606 C39.159,28.6522569 20.631,8.67225688 0.227,0.00611009174 L0.227,0.00611009174 L0.227,110.245404 Z" id="path-1"></path>
        <path d="M0.226,27.0872165 L51.227,98.8193505 L51.227,0.832824742 C23.381,7.09534021 0.226,27.0872165 0.226,27.0872165 L0.226,27.0872165 Z" id="path-3"></path>
        <path d="M193.00569,0.27823166 C108.132216,0.52092278 31.7882659,68.4297568 0.230144044,101.249923 L0.230144044,101.249923 L0.230144044,262.813158 C56.1216898,262.863931 251.436931,263.032494 365.216294,262.994923 L365.216294,262.994923 L365.216294,126.076514 C338.494238,75.7460309 293.348493,12.9458958 215.30026,1.81256757 L215.30026,1.81256757 C208.150587,0.792046332 201.015108,0.300571429 193.960737,0.27823166 L193.960737,0.27823166 L193.00569,0.27823166 Z" id="path-5"></path>
        <polygon id="path-7" points="0.304505882 0.600798491 8.5433014 0.600798491 8.5433014 21.8646359 0.304505882 21.8646359"></polygon>
        <polygon id="path-9" points="0.367881232 0.512350155 8.60667675 0.512350155 8.60667675 16.778386 0.367881232 16.778386"></polygon>
        <polygon id="path-11" points="0.408644258 0.0883504993 361.216174 0.0883504993 361.216174 70.4966846 0.408644258 70.4966846"></polygon>
        <path d="M45.5951857,0.278 C36.7262714,1.435 24.6836571,9.425 20.1285,9.758 L20.1285,9.758 C15.5763857,10.091 13.0477714,6.931 8.15587143,6.764 L8.15587143,6.764 C4.27622857,6.633 0.230242857,8.261 0.230242857,8.261 L0.230242857,8.261 C0.230242857,8.261 7.48137143,14.581 8.15587143,27.386 L8.15587143,27.386 C9.0667,44.688 2.5915,51.999 2.5915,51.999 L2.5915,51.999 C2.5915,51.999 9.84262857,49.838 16.0825143,47.677 L16.0825143,47.677 C22.3224,45.514 26.7061429,43.851 30.9235429,46.014 L30.9235429,46.014 C35.1389143,48.175 33.7889,50.337 41.0410429,50.504 L41.0410429,50.504 C48.2921714,50.669 57.0616857,46.179 60.4341857,46.179 L60.4341857,46.179 C63.8066857,46.179 70.2149429,46.845 70.2149429,46.845 L70.2149429,46.845 L65.9275571,6.256 C65.9275571,6.256 62.7954429,5.434 61.4454286,4.602 L61.4454286,4.602 C60.2729143,3.878 57.8153,0 49.6269714,0 L49.6269714,0 C48.4138857,0 47.0760429,0.085 45.5951857,0.278 L45.5951857,0.278 Z" id="path-13"></path>
        <path d="M0.227,0.216641026 L3.471,118.071393 L3.501,118.124282 C4.212,119.366154 5.611,119.271564 6.228,117.937137 L6.228,117.937137 L1.76,0 L0.227,0.216641026 Z" id="path-15"></path>
        <path d="M0.227,2 C0.227,3.104 1.122,4 2.227,4 L2.227,4 C3.332,4 4.227,3.104 4.227,2 L4.227,2 C4.227,0.895 3.332,-0.001 2.227,-0.001 L2.227,-0.001 C1.122,-0.001 0.227,0.895 0.227,2 L0.227,2 Z" id="path-17"></path>
        <path d="M13.072,5.379 C13.072,5.379 1.44277647,3.911 0.304541176,10.145 L0.304541176,10.145 C-0.647529412,15.356 7.6368,17.845 15.4739294,14.668 L15.4739294,14.668 C15.4739294,14.668 18.9675529,19.346 28.8292235,18.979 L28.8292235,18.979 C38.6888706,18.612 40.2520471,14.424 40.2520471,14.424 L40.2520471,14.424 C40.2520471,14.424 43.9328471,18.244 51.9733412,18.56 L51.9733412,18.56 C60.0148471,18.875 63.4932941,15.617 63.4932941,15.617 L63.4932941,15.617 C63.4932941,15.617 74.6864471,19.82 83.3785176,13.727 L83.3785176,13.727 C89.4126824,9.496 79.5742824,3.115 68.7089412,3.01 L68.7089412,3.01 C59.8914118,2.924 55.6733647,5.501 55.6733647,5.501 L55.6733647,5.501 C55.6733647,5.501 55.6733647,2.567 48.7215294,1.712 L48.7215294,1.712 C40.7720941,0.733 38.4814588,4.645 38.4814588,4.645 L38.4814588,4.645 C38.4814588,4.645 36.2070118,0 26.4708,0 L26.4708,0 C16.7386353,0 13.072,5.379 13.072,5.379 L13.072,5.379 Z" id="path-19"></path>
        <path d="M29.9224638,0.034 C17.355942,0.596 17.1408696,7.756 17.1408696,7.756 L17.1408696,7.756 C17.1408696,7.756 14.7253623,5.757 8.90826087,5.827 L8.90826087,5.827 C3.85202899,5.887 -0.656376812,8.065 0.37942029,12.816 L0.37942029,12.816 C1.39492754,17.467 14.5782609,18.914 21.0223188,15.115 L21.0223188,15.115 C21.0223188,15.115 22.6201449,18.452 30.9247826,17.948 L30.9247826,17.948 C36.2985507,17.622 37.0127536,14.483 37.0127536,14.483 L37.0127536,14.483 C37.0127536,14.483 40.3575362,18.479 50.0834783,17.824 L50.0834783,17.824 C57.1727536,17.347 58.5534783,14.593 58.5534783,14.593 L58.5534783,14.593 C58.5534783,14.593 66.6237681,16.08 69.0169565,11.143 L69.0169565,11.143 C71.4101449,6.205 51.5666667,2.852 42.977971,6.194 L42.977971,6.194 C42.977971,6.194 42.5265217,0 31.3792754,0 L31.3792754,0 C30.9126087,0 30.4276812,0.011 29.9224638,0.034 L29.9224638,0.034 Z" id="path-21"></path>
        <path d="M0.23066129,38.633 C1.58312903,37.795 2.63990323,36.839 2.63990323,36.839 L2.63990323,36.839 C2.63990323,36.839 6.35995161,43.273 21.2137258,41.774 L21.2137258,41.774 C32.2824194,40.656 36.0725806,33.36 36.0725806,33.36 L36.0725806,33.36 C36.0725806,33.36 58.1134355,35.275 61.622129,26.55 L61.622129,26.55 C64.7497742,18.771 55.1514194,10.786 41.0566935,7.931 L41.0566935,7.931 C27.3724839,5.159 20.9952581,9.297 20.9952581,9.297 L20.9952581,9.297 C20.9952581,9.297 20.6548548,6.381 13.4484677,3.119 L13.4484677,3.119 C8.09651613,0.695 2.96303226,0.134 0.23066129,0.023 L0.23066129,0.023 L0.23066129,38.633 Z" id="path-23"></path>
        <path d="M1.601,2.903 C5.364,3.178 9.117,3.54 12.866,3.988 L12.866,3.988 C14.688,4.206 14.673,1.306 12.866,1.09 L12.866,1.09 C9.119,0.641 5.364,0.28 1.601,0.005 L1.601,0.005 C1.56,0.002 1.519,0.001 1.48,0.001 L1.48,0.001 C-0.234,0.001 -0.186,2.771 1.601,2.903 L1.601,2.903 Z" id="path-25"></path>
        <path d="M15.428,0.083 C10.667,1.668 5.933,3.33 1.226,5.067 L1.226,5.067 C-0.536,5.717 0.225,8.56 2.007,7.902 L2.007,7.902 C6.716,6.164 11.45,4.504 16.21,2.917 L16.21,2.917 C17.829,2.379 17.354,0 15.911,0 L15.911,0 C15.76,0 15.599,0.026 15.428,0.083 L15.428,0.083 Z" id="path-27"></path>
        <path d="M2.028,0.389 C1.026,0.42 0.06,1.392 0.757,2.419 L0.757,2.419 C2.951,5.655 5.147,8.89 7.34,12.126 L7.34,12.126 C8.35,13.615 10.877,12.235 9.859,10.735 L9.859,10.735 L3.276,1.028 C2.981,0.593 2.555,0.402 2.127,0.389 L2.127,0.389 L2.028,0.389 Z" id="path-29"></path>
        <path d="M8.744,0.425 C6.052,3.098 3.359,5.772 0.669,8.444 L0.669,8.444 C-0.68,9.784 1.365,11.912 2.71,10.574 L2.71,10.574 C5.402,7.901 8.094,5.228 10.785,2.555 L10.785,2.555 C11.832,1.515 10.834,0 9.706,0 L9.706,0 C9.38,0 9.044,0.125 8.744,0.425 L8.744,0.425 Z" id="path-31"></path>
        <path d="M15.437,0.049 C10.708,1.176 5.98,2.303 1.25,3.432 L1.25,3.432 C-0.543,3.858 0.217,6.38 2.016,5.951 L2.016,5.951 C6.746,4.824 11.476,3.697 16.204,2.568 L16.204,2.568 C17.858,2.175 17.34,0 15.837,0 L15.837,0 C15.711,0 15.577,0.015 15.437,0.049 L15.437,0.049 Z" id="path-33"></path>
        <path d="M1.501,2.952 C4.318,3.298 7.135,3.644 9.952,3.989 L9.952,3.989 C11.658,4.198 11.644,1.255 9.952,1.048 L9.952,1.048 C7.135,0.702 4.318,0.357 1.501,0.01 L1.501,0.01 C1.443,0.003 1.387,0 1.332,0 L1.332,0 C-0.202,0 -0.133,2.752 1.501,2.952 L1.501,2.952 Z" id="path-35"></path>
        <path d="M0.641,2.459 C3.295,5.154 5.948,7.851 8.602,10.545 L8.602,10.545 C9.943,11.909 12.148,9.899 10.812,8.542 L10.812,8.542 C8.159,5.845 5.507,3.15 2.853,0.455 L2.853,0.455 C2.537,0.134 2.174,0 1.82,0 L1.82,0 C0.669,0 -0.38,1.419 0.641,2.459 L0.641,2.459 Z" id="path-37"></path>
        <path d="M3.394,0.73 C2.389,2.771 1.383,4.816 0.375,6.858 L0.375,6.858 C-0.427,8.489 2.249,9.915 3.059,8.27 L3.059,8.27 L6.077,2.142 C6.629,1.022 5.543,0.001 4.544,0 L4.544,0 C4.087,0 3.648,0.214 3.394,0.73 L3.394,0.73 Z" id="path-39"></path>
        <path d="M3.464,0.398 C3.253,3.167 2.595,4.177 0.475,5 L0.475,5 C0.104,5.144 0.163,5.82 0.553,5.873 L0.553,5.873 C2.775,6.185 3.596,7.021 4.291,9.684 L4.291,9.684 C4.412,10.148 4.953,10.084 4.989,9.602 L4.989,9.602 C5.201,6.833 5.858,5.823 7.979,5 L7.979,5 C8.35,4.856 8.289,4.18 7.901,4.127 L7.901,4.127 C5.679,3.815 4.858,2.979 4.163,0.317 L4.163,0.317 C4.106,0.102 3.961,0 3.817,0 L3.817,0 C3.651,0 3.484,0.139 3.464,0.398 L3.464,0.398 Z" id="path-41"></path>
        <path d="M2.25,0.24 C2.117,1.9 1.707,2.507 0.382,2.999 L0.382,2.999 C0.151,3.087 0.188,3.491 0.43,3.524 L0.43,3.524 C1.818,3.71 2.332,4.214 2.766,5.811 L2.766,5.811 C2.843,6.089 3.181,6.052 3.204,5.76 L3.204,5.76 C3.336,4.101 3.745,3.494 5.071,2.999 L5.071,2.999 C5.303,2.913 5.266,2.508 5.024,2.476 L5.024,2.476 C3.634,2.288 3.122,1.787 2.687,0.19 L2.687,0.19 C2.652,0.062 2.562,0 2.472,0 L2.472,0 C2.367,0 2.263,0.083 2.25,0.24 L2.25,0.24 Z" id="path-43"></path>
        <path d="M3.059,0.321 C2.874,2.534 2.3,3.342 0.444,4 L0.444,4 C0.119,4.115 0.173,4.656 0.513,4.699 L0.513,4.699 C2.457,4.948 3.175,5.618 3.783,7.746 L3.783,7.746 C3.888,8.119 4.361,8.068 4.395,7.68 L4.395,7.68 C4.58,5.467 5.154,4.658 7.01,4 L7.01,4 C7.335,3.885 7.281,3.344 6.941,3.3 L6.941,3.3 C4.999,3.052 4.279,2.383 3.671,0.253 L3.671,0.253 C3.622,0.082 3.496,0 3.369,0 L3.369,0 C3.223,0 3.077,0.112 3.059,0.321 L3.059,0.321 Z" id="path-45"></path>
        <path d="M3.15,0.108 C3.061,0.171 2.969,0.232 2.873,0.285 L2.873,0.285 C2.828,0.311 2.782,0.333 2.734,0.357 L2.734,0.357 C2.808,0.329 2.776,0.344 2.741,0.362 L2.741,0.362 C2.705,0.377 2.665,0.394 2.727,0.362 L2.727,0.362 C2.729,0.36 2.732,0.359 2.734,0.357 L2.734,0.357 C2.732,0.359 2.729,0.36 2.728,0.36 L2.728,0.36 C2.56,0.426 2.387,0.473 2.21,0.505 L2.21,0.505 C2.243,0.503 2.274,0.498 2.306,0.494 L2.306,0.494 L2.116,0.521 C2.147,0.517 2.179,0.511 2.21,0.505 L2.21,0.505 C2.024,0.524 1.838,0.525 1.652,0.507 L1.652,0.507 C1.688,0.514 1.725,0.52 1.762,0.525 L1.762,0.525 C1.698,0.517 1.635,0.507 1.571,0.498 L1.571,0.498 C1.598,0.501 1.625,0.505 1.652,0.507 L1.652,0.507 C1.472,0.474 1.299,0.426 1.13,0.359 L1.13,0.359 C0.967,0.294 0.723,0.346 0.578,0.433 L0.578,0.433 C0.429,0.522 0.288,0.697 0.248,0.874 L0.248,0.874 C0.155,1.297 0.374,1.633 0.749,1.782 L0.749,1.782 C1.755,2.183 2.993,2.021 3.873,1.381 L3.873,1.381 C4.029,1.269 4.151,1.136 4.202,0.94 L4.202,0.94 C4.25,0.763 4.229,0.529 4.13,0.371 L4.13,0.371 C3.996,0.157 3.739,0 3.484,0 L3.484,0 C3.368,0 3.253,0.033 3.15,0.108 L3.15,0.108 Z" id="path-47"></path>
        <path d="M2.999,0.106 C2.973,0.117 2.948,0.128 2.922,0.141 L2.922,0.141 C2.948,0.13 2.973,0.12 2.999,0.11 L2.999,0.11 C2.952,0.13 2.904,0.15 2.857,0.169 L2.857,0.169 C2.839,0.178 2.821,0.186 2.802,0.193 L2.802,0.193 C2.821,0.185 2.839,0.178 2.857,0.169 L2.857,0.169 C2.88,0.159 2.901,0.151 2.922,0.141 L2.922,0.141 C2.691,0.231 2.454,0.306 2.21,0.35 L2.21,0.35 C2.241,0.347 2.271,0.344 2.302,0.34 L2.302,0.34 L2.084,0.37 C2.127,0.364 2.168,0.357 2.21,0.35 L2.21,0.35 C1.99,0.371 1.77,0.365 1.55,0.343 L1.55,0.343 C1.588,0.35 1.627,0.355 1.665,0.361 L1.665,0.361 C1.593,0.351 1.522,0.341 1.448,0.332 L1.448,0.332 C1.482,0.336 1.516,0.34 1.55,0.343 L1.55,0.343 C1.451,0.327 1.352,0.308 1.253,0.286 L1.253,0.286 C1.039,0.241 0.818,0.255 0.623,0.37 L0.623,0.37 C0.454,0.468 0.293,0.663 0.249,0.858 L0.249,0.858 C0.155,1.27 0.372,1.768 0.819,1.864 L0.819,1.864 C1.29,1.965 1.784,2.036 2.266,1.981 L2.266,1.981 C2.522,1.951 2.774,1.912 3.021,1.838 L3.021,1.838 C3.296,1.753 3.563,1.638 3.824,1.518 L3.824,1.518 C4,1.437 4.151,1.209 4.199,1.028 L4.199,1.028 C4.254,0.834 4.229,0.573 4.117,0.399 L4.117,0.399 C4.004,0.224 3.838,0.071 3.629,0.023 L3.629,0.023 C3.561,0.007 3.495,0 3.432,0 L3.432,0 C3.285,0 3.145,0.04 2.999,0.106 L2.999,0.106 Z" id="path-49"></path>
    </defs>
    <g id="Page-1" stroke="none" stroke-width="1" fill="none" fill-rule="evenodd">
        <g id="Mobile-Homepage_New" transform="translate(0.000000, -1876.000000)">
            <g id="Group-254" transform="translate(-4.000000, 1876.000000)">
                <g id="Group-3" transform="translate(0.000000, 167.000000)">
                    <mask id="mask-2" fill="white">
                        <use xlink:href="#path-1"></use>
                    </mask>
                    <g id="Clip-2"></g>
                    <polygon id="Fill-1" fill="#E8E8E8" mask="url(#mask-2)" points="-6.773 117.727211 54.988 117.727211 54.988 -5.89725688 -6.773 -5.89725688"></polygon>
                </g>
                <g id="Group-6" transform="translate(314.000000, 195.000000)">
                    <mask id="mask-4" fill="white">
                        <use xlink:href="#path-3"></use>
                    </mask>
                    <g id="Clip-5"></g>
                    <polygon id="Fill-4" fill="#E8E8E8" mask="url(#mask-4)" points="-4.773 128.597938 137.227 128.597938 137.227 -6.12371134 -4.773 -6.12371134"></polygon>
                </g>
                <polygon id="Fill-7" fill="#00660C" points="0 523 365 523 365 393 0 393"></polygon>
                <g id="Group-10" transform="translate(0.000000, 132.000000)">
                    <mask id="mask-6" fill="white">
                        <use xlink:href="#path-5"></use>
                    </mask>
                    <g id="Clip-9"></g>
                    <polygon id="Fill-8" fill="#00660C" mask="url(#mask-6)" points="-20.1857618 394.199996 454.296233 394.199996 454.296233 -4.80000386 -20.1857618 -4.80000386"></polygon>
                </g>
                <g id="Group-68" transform="translate(4.000000, 390.000000)">
                    <path d="M93.998999,115 C93.998999,115 94.2558147,55 86.5423846,55 C78.8279591,55 76,115 76,115" id="Fill-13" fill="#00520A"></path>
                    <path d="M84,105 C84,105 86.240902,92.0034852 85.9786556,87.5842704 C85.7151663,83.1625567 84.41512,69.6387848 84.9992708,67" id="Stroke-15" stroke="#101820" stroke-width="2" stroke-linecap="round"></path>
                    <path d="M86,78 C86,78 82.575382,77.2934509 82,76" id="Stroke-17" stroke="#101820" stroke-width="2" stroke-linecap="round"></path>
                    <path d="M89,80 C88.8826347,81.0261921 86,84 86,84" id="Stroke-19" stroke="#101820" stroke-width="2" stroke-linecap="round"></path>
                    <path d="M90,79.2586319 C90,79.2586319 89.0516717,80.2286319 88,79.4186319" id="Stroke-21" stroke="#101820" stroke-width="2" stroke-linecap="round"></path>
                    <path d="M85,68 C85,68 83.2401316,67.2628324 83,66" id="Stroke-23" stroke="#101820" stroke-width="2" stroke-linecap="round"></path>
                    <path d="M85,98 C85,98 81.456288,97.080763 81,95" id="Stroke-25" stroke="#101820" stroke-width="2" stroke-linecap="round"></path>
                    <path d="M18.0014546,86 C18.0014546,86 17.6297042,0 28.7722234,0 C39.9147427,0 44,86 44,86" id="Fill-27" fill="#00520A"></path>
                    <path d="M31,72 C31,72 28.7587458,53.5306673 29.0214063,47.2495887 C29.2840667,40.9697441 30.5844089,21.7501371 29.9994709,18" id="Stroke-29" stroke="#101820" stroke-width="2" stroke-linecap="round"></path>
                    <path d="M30,34 C30,34 34.2807053,32.9391685 35,31" id="Stroke-31" stroke="#101820" stroke-width="2" stroke-linecap="round"></path>
                    <path d="M25,36 C25.1564928,37.2838469 29,41 29,41" id="Stroke-33" stroke="#101820" stroke-width="2" stroke-linecap="round"></path>
                    <path d="M24,35.1526761 C24,35.1526761 25.4228873,36.5486761 27,35.3826761" id="Stroke-35" stroke="#101820" stroke-width="2" stroke-linecap="round"></path>
                    <path d="M30,19 C30,19 32.6398628,17.894669 33,16" id="Stroke-37" stroke="#101820" stroke-width="2" stroke-linecap="round"></path>
                    <path d="M30,62 C30,62 35.3147035,60.7746121 36,58" id="Stroke-39" stroke="#101820" stroke-width="2" stroke-linecap="round"></path>
                    <path d="M14,79.6385501 C14,79.6385501 14.3505231,52 17.2275692,52 C20.1046154,52 22,85 22,85 L14,79.6385501 Z" id="Fill-41" fill="#00AA13"></path>
                    <path d="M10,91.6398039 C10,91.6398039 10.3505231,64 13.2275692,64 C16.1046154,64 18,97 18,97 L10,91.6398039 Z" id="Fill-43" fill="#FFD51C"></path>
                    <path d="M42,72.6387538 C42,72.6387538 42.3505231,45 45.2275692,45 C48.1056,45 50,78 50,78 L42,72.6387538 Z" id="Fill-45" fill="#00AA13"></path>
                    <g id="Group-49" transform="translate(227.000000, 115.000000)">
                        <mask id="mask-8" fill="white">
                            <use xlink:href="#path-7"></use>
                        </mask>
                        <g id="Clip-48"></g>
                        <path d="M0.304505882,28.0267706 C0.304505882,28.0267706 0.665491877,0.600798491 3.62841625,0.600798491 C6.59235462,0.600798491 8.5433014,33.3454982 8.5433014,33.3454982 L0.304505882,28.0267706 Z" id="Fill-47" fill="#00AA13" mask="url(#mask-8)"></path>
                    </g>
                    <path d="M232,129.63855 C232,129.63855 232.350523,102 235.227569,102 C238.104615,102 240,135 240,135 L232,129.63855 Z" id="Fill-50" fill="#00520A"></path>
                    <path d="M5,85.6398039 C5,85.6398039 5.35052308,58 8.22756923,58 C11.1046154,58 13,91 13,91 L5,85.6398039 Z" id="Fill-52" fill="#101820"></path>
                    <g id="Group-56" transform="translate(231.000000, 120.000000)">
                        <mask id="mask-10" fill="white">
                            <use xlink:href="#path-9"></use>
                        </mask>
                        <g id="Clip-55"></g>
                        <path d="M0.367881232,27.7589955 C0.367881232,27.7589955 0.728867227,0.512350155 3.6917916,0.512350155 C6.65471597,0.512350155 8.60667675,33.0444219 8.60667675,33.0444219 L0.367881232,27.7589955 Z" id="Fill-54" fill="#101820" mask="url(#mask-10)"></path>
                    </g>
                    <path d="M91,106.100473 C91,106.100473 91.3505231,86 94.2275692,86 C97.1046154,86 99,110 99,110 L91,106.100473 Z" id="Fill-57" fill="#101820"></path>
                    <g id="Group-67" transform="translate(0.000000, 66.000000)">
                        <mask id="mask-12" fill="white">
                            <use xlink:href="#path-11"></use>
                        </mask>
                        <g id="Clip-66"></g>
                        <path d="M-17.9362381,38.6636446 C10.1253529,20.6724979 21.3392409,-12.3129324 46.2351064,4.92931002 C71.129958,22.1715525 121.153896,64.9027065 204.730266,64.9027065 L441.427566,64.9027065 L448.747672,131.061728 L23.3216218,160.111984 L-17.9362381,38.6636446 Z" id="Fill-65" fill="#101820" mask="url(#mask-12)"></path>
                    </g>
                </g>
                <path d="M238,145.500571 C238,146.329022 233.970464,147 229,147 C224.029536,147 220,146.329022 220,145.500571 C220,144.670978 224.029536,144 229,144 C233.970464,144 238,144.670978 238,145.500571" id="Fill-69" fill="#00520A"></path>
                <g id="Group-73" transform="translate(219.000000, 20.000000)">
                    <mask id="mask-14" fill="white">
                        <use xlink:href="#path-13"></use>
                    </mask>
                    <g id="Clip-72"></g>
                    <polygon id="Fill-71" fill="#005400" mask="url(#mask-14)" points="-4.84118571 57 75.2873857 57 75.2873857 -5 -4.84118571 -5"></polygon>
                </g>
                <g id="Group-76" transform="translate(217.000000, 27.000000)">
                    <mask id="mask-16" fill="white">
                        <use xlink:href="#path-15"></use>
                    </mask>
                    <g id="Clip-75"></g>
                    <polygon id="Fill-74" fill="#7A7A7A" mask="url(#mask-16)" points="-4.773 124.08547 11.227 124.08547 11.227 -5.08547009 -4.773 -5.08547009"></polygon>
                </g>
                <g id="Group-79" transform="translate(217.000000, 23.000000)">
                    <mask id="mask-18" fill="white">
                        <use xlink:href="#path-17"></use>
                    </mask>
                    <g id="Clip-78"></g>
                    <polygon id="Fill-77" fill="#7A7A7A" mask="url(#mask-18)" points="-4.773 9 9.227 9 9.227 -5 -4.773 -5"></polygon>
                </g>
                <g id="Group-82" transform="translate(273.000000, 156.000000)">
                    <mask id="mask-20" fill="white">
                        <use xlink:href="#path-19"></use>
                    </mask>
                    <g id="Clip-81"></g>
                    <polygon id="Fill-80" fill="#97DEEB" mask="url(#mask-20)" points="-4.82915294 24 90.2767294 24 90.2767294 -5 -4.82915294 -5"></polygon>
                </g>
                <g id="Group-85" transform="translate(94.000000, 68.000000)">
                    <mask id="mask-22" fill="white">
                        <use xlink:href="#path-21"></use>
                    </mask>
                    <g id="Clip-84"></g>
                    <polygon id="Fill-83" fill="#97DEEB" mask="url(#mask-22)" points="-4.84217391 23 74.2882609 23 74.2882609 -5 -4.84217391 -5"></polygon>
                </g>
                <g id="Group-88" transform="translate(0.000000, 104.000000)">
                    <mask id="mask-24" fill="white">
                        <use xlink:href="#path-23"></use>
                    </mask>
                    <g id="Clip-87"></g>
                    <polygon id="Fill-86" fill="#97DEEB" mask="url(#mask-24)" points="-6.88224194 47 67.2951774 47 67.2951774 -5 -6.88224194 -5"></polygon>
                </g>
                <g id="Group-209" transform="translate(185.000000, 89.000000)">
                    <path d="M7.6182,7.01236825 L6.9972,5.82989206 C6.9972,5.82989206 7.3422,5.72932063 7.6082,5.15941587 C7.8742,4.58747937 7.7862,4.30709841 7.7862,4.30709841 C7.7862,4.30709841 8.2792,3.65592381 8.4072,3.06468571 C8.5352,2.47344762 8.2402,2.04271746 7.7022,2.06303492 C7.7022,2.06303492 7.6582,1.84259048 7.1152,1.35192381 C6.5732,0.86024127 6.2972,0.608304762 5.9022,0.629638095 C5.5082,0.649955556 4.3642,1.07052698 4.2362,1.4616381 C4.1072,1.85274921 4.1962,1.91268571 4.0192,2.04271746 C3.8412,2.17274921 3.5152,2.49376508 3.5152,2.75484444 C3.5152,3.01389206 3.4862,3.14493968 3.3482,3.37554286 C3.2102,3.60513016 2.9732,4.2776381 3.2892,4.93795556 C3.6042,5.59928889 3.9702,6.41097143 4.6102,6.67103492 L5.0842,7.69300317 L7.6182,7.01236825 Z" id="Fill-89" fill="#B45227"></path>
                    <path d="M3.8296,4.85170794 C3.9396,4.8567873 4.0496,4.8344381 4.1496,4.78973968" id="Fill-91" fill="#000000"></path>
                    <path d="M3.8296,4.97767619 C3.8956,4.98072381 3.9616,4.9736127 4.0266,4.96142222 C4.0916,4.94923175 4.1526,4.92586667 4.2126,4.89945397 C4.2396,4.88726349 4.2626,4.85069206 4.2696,4.82427937 C4.2786,4.7927873 4.2746,4.75316825 4.2576,4.72573968 C4.2406,4.69932698 4.2146,4.67494603 4.1836,4.66783492 C4.1716,4.66580317 4.1616,4.6647873 4.1496,4.66275556 C4.1276,4.66275556 4.1066,4.66885079 4.0866,4.68104127 C4.0836,4.68205714 4.0796,4.68408889 4.0766,4.68612063 C4.0856,4.68104127 4.0966,4.67697778 4.1056,4.67291429 C4.0486,4.69831111 3.9876,4.71456508 3.9256,4.72370794 C3.9366,4.72167619 3.9476,4.72066032 3.9586,4.71862857 C3.9156,4.72472381 3.8726,4.72675556 3.8296,4.72472381 C3.7646,4.72167619 3.7026,4.78567619 3.7046,4.85170794 C3.7086,4.92180317 3.7596,4.97462857 3.8296,4.97767619" id="Fill-93" fill="#000000"></path>
                    <path d="M4.1602,4.74351746 C4.1832,4.81158095 4.2282,4.87050159 4.2732,4.92739048 C4.4122,5.10212063 4.5592,5.27075556 4.7132,5.43227937" id="Fill-95" fill="#000000"></path>
                    <path d="M4.04,4.77724444 C4.095,4.93064127 4.213,5.0535619 4.315,5.17648254 C4.415,5.29432381 4.519,5.40911746 4.624,5.52086349 C4.67,5.56860952 4.756,5.57064127 4.801,5.52086349 C4.847,5.47108571 4.849,5.39286349 4.801,5.34308571 C4.7,5.23641905 4.603,5.12873651 4.508,5.01699048 C4.463,4.96314921 4.417,4.90829206 4.373,4.85241905 C4.362,4.8392127 4.35,4.8239746 4.339,4.80873651 C4.347,4.81991111 4.341,4.81178413 4.337,4.80568889 C4.332,4.79857778 4.327,4.79349841 4.323,4.7863873 C4.313,4.77114921 4.303,4.75591111 4.294,4.74067302 C4.291,4.7335619 4.288,4.72543492 4.284,4.71832381 C4.274,4.70105397 4.292,4.74473651 4.28,4.71019683 C4.258,4.64822857 4.195,4.59946667 4.127,4.62181587 C4.067,4.64111746 4.017,4.7112127 4.04,4.77724444" id="Fill-97" fill="#000000"></path>
                    <path d="M4.3965,5.01932698 C4.0345,5.09856508 3.9055,5.55062857 4.1375,5.83100952 C4.4025,6.14999365 4.8845,6.00370794 5.2075,5.86453333 C5.5585,5.71418413 5.8375,5.35456508 5.6825,4.95735873 C5.6095,4.7704381 5.4765,4.61704127 5.3445,4.47075556 C5.2115,4.32142222 5.1165,4.14364444 4.9815,3.99634286 C4.8515,3.85513651 4.6905,3.73932698 4.5105,3.67431111 C4.3375,3.61132698 4.1485,3.60116825 3.9665,3.59405714 C3.8065,3.58694603 3.8065,3.83989841 3.9665,3.84700952 C4.2825,3.86021587 4.5505,3.91304127 4.7815,4.14973968 C4.9155,4.28688254 5.0045,4.46364444 5.1325,4.60891429 C5.2565,4.74910476 5.4025,4.89335873 5.4615,5.07926349 C5.5975,5.50593016 5.0315,5.67558095 4.7355,5.74466032 C4.5705,5.78224762 4.3825,5.79139048 4.2915,5.61564444 C4.2145,5.46631111 4.3085,5.29666032 4.4625,5.26313651 C4.6195,5.2296127 4.5535,4.98580317 4.3965,5.01932698" id="Fill-99" fill="#000000"></path>
                    <path d="M5.5864,5.41419683 C6.0234,5.50460952 6.3204,5.16835556 6.3874,4.75794286 C6.4204,4.55476825 6.4024,4.34245079 6.3024,4.1616254 C6.1944,3.96454603 6.0144,3.80505397 5.8774,3.62829206 C5.6224,3.29914921 5.4404,2.89584762 5.0774,2.67133968 C4.8734,2.54435556 4.6104,2.45699048 4.3684,2.47832381 C4.2104,2.4935619 4.2084,2.74651429 4.3684,2.73229206 C4.5384,2.71705397 4.7164,2.7648 4.8674,2.84200635 C5.1694,2.99743492 5.3174,3.2768 5.5084,3.54702222 C5.6124,3.69533968 5.7224,3.83959365 5.8384,3.97876825 C5.9574,4.12099048 6.1014,4.2479746 6.1414,4.43692698 C6.2064,4.7488 6.0444,5.25165714 5.6524,5.1703873 C5.4964,5.13787937 5.4294,5.38168889 5.5864,5.41419683" id="Fill-101" fill="#000000"></path>
                    <path d="M5.9858,4.09478095 C6.3488,4.15878095 6.6358,3.89668571 6.7618,3.56855873 C6.8988,3.21706667 6.6368,2.94989206 6.4548,2.67966984 C6.3068,2.46227302 6.1758,2.22862222 5.9958,2.03459048 C5.7958,1.8192254 5.5408,1.68513016 5.2558,1.63027302 C5.0988,1.59979683 5.0318,1.84360635 5.1888,1.87408254 C5.4108,1.91674921 5.6098,2.00411429 5.7728,2.1656381 C5.9208,2.30989206 6.0298,2.48766984 6.1428,2.66036825 C6.2018,2.7528127 6.2618,2.84424127 6.3258,2.93059048 C6.4038,3.03827302 6.5018,3.14595556 6.5398,3.2759873 C6.6128,3.53503492 6.3218,3.89973333 6.0518,3.85097143 C5.8958,3.82252698 5.8278,4.06735238 5.9858,4.09478095" id="Fill-103" fill="#000000"></path>
                    <path d="M6.5654,2.55502222 C6.4464,2.54892698 6.3274,2.5296254 6.2114,2.49914921" id="Fill-105" fill="#000000"></path>
                    <path d="M6.5654,2.42905397 C6.5184,2.42600635 6.4714,2.42092698 6.4244,2.41483175 C6.4354,2.41584762 6.4464,2.41787937 6.4574,2.41889524 C6.3854,2.40873651 6.3154,2.39553016 6.2454,2.37724444 C6.1824,2.36099048 6.1074,2.39857778 6.0914,2.4656254 C6.0774,2.53165714 6.1114,2.60378413 6.1784,2.62105397 C6.3054,2.65457778 6.4354,2.67387937 6.5654,2.68200635 C6.6304,2.68606984 6.6924,2.6200381 6.6904,2.55502222 C6.6874,2.48391111 6.6354,2.43311746 6.5654,2.42905397" id="Fill-107" fill="#000000"></path>
                    <path d="M6.7017,3.29315556 C6.7537,3.31550476 6.8157,3.30433016 6.8657,3.27588571 C6.9157,3.24845714 6.9557,3.20680635 6.9947,3.16413968 C7.1657,2.97721905 7.3237,2.77810794 7.4637,2.56680635 C7.5067,2.50382222 7.5477,2.43779048 7.5707,2.36566349 C7.5937,2.29353651 7.5967,2.21125079 7.5637,2.14115556" id="Fill-109" fill="#000000"></path>
                    <path d="M6.6685,3.4151619 C6.8315,3.47205079 6.9765,3.36944762 7.0835,3.2536381 C7.1855,3.14189206 7.2825,3.02608254 7.3745,2.90620952 C7.5505,2.67459048 7.8045,2.38709841 7.6715,2.07827302 C7.6445,2.01528889 7.5545,2.00005079 7.5015,2.03255873 C7.4375,2.07014603 7.4295,2.14227302 7.4565,2.20627302 C7.4915,2.28754286 7.4285,2.38913016 7.3875,2.4551619 C7.3255,2.55471746 7.2565,2.65020952 7.1855,2.74366984 C7.1125,2.8391619 7.0365,2.93059048 6.9565,3.0199873 C6.9055,3.07687619 6.8235,3.20284444 6.7345,3.17135238 C6.6705,3.14900317 6.5985,3.19674921 6.5815,3.25973333 C6.5625,3.3288127 6.6045,3.39382857 6.6685,3.4151619" id="Fill-111" fill="#000000"></path>
                    <path d="M7.4497,4.26737778 C7.3127,4.35169524 7.1667,4.44617143 7.0037,4.46547302 C6.8947,4.47969524 6.7617,4.45125079 6.6887,4.3608381 C6.5957,4.24604444 6.6397,4.04896508 6.6737,3.91893333 C6.7187,3.74725079 6.7937,3.58775873 6.8727,3.43029841 C6.9027,3.36934603 6.8877,3.29315556 6.8277,3.25658413 C6.7727,3.22407619 6.6877,3.24033016 6.6577,3.30229841 C6.5617,3.49429841 6.4667,3.69340952 6.4207,3.90572698 C6.3747,4.1160127 6.3597,4.35982222 6.5077,4.53353651 C6.6207,4.66661587 6.8087,4.73061587 6.9787,4.72045714 C7.1987,4.70928254 7.3927,4.59855238 7.5747,4.48579048 C7.7117,4.40147302 7.5867,4.18204444 7.4497,4.26737778" id="Fill-113" fill="#000000"></path>
                    <path d="M29.437,57.3983492 C29.437,58.4700952 22.923,59.3376508 14.887,59.3376508 C6.852,59.3376508 0.337,58.4700952 0.337,57.3983492 C0.337,56.327619 6.852,55.4590476 14.887,55.4590476 C22.923,55.4590476 29.437,56.327619 29.437,57.3983492" id="Fill-115" fill="#00520A"></path>
                    <path d="M36.5625,61.2762413 C36.5625,62.3479873 33.5395,63.2155429 29.8095,63.2155429 C26.0795,63.2155429 23.0565,62.3479873 23.0565,61.2762413 C23.0565,60.2055111 26.0795,59.3379556 29.8095,59.3379556 C33.5395,59.3379556 36.5625,60.2055111 36.5625,61.2762413" id="Fill-117" fill="#00520A"></path>
                    <path d="M32.6865,14.7356444 L33.6095,13.7248508 C33.6095,13.7248508 33.3485,13.4739302 33.3715,12.843073 C33.3935,12.2112 33.5995,12.0039619 33.5995,12.0039619 C33.5995,12.0039619 33.4575,11.195327 33.6115,10.6101841 C33.7655,10.0260571 34.2235,9.78224762 34.6915,10.051454 C34.6915,10.051454 34.8315,9.87672381 35.5355,9.69488254 C36.2395,9.5120254 36.5985,9.41856508 36.9395,9.62173968 C37.2795,9.82491429 38.1045,10.7341206 38.0405,11.1404698 C37.9775,11.546819 37.8715,11.5590095 37.9695,11.7571048 C38.0685,11.9562159 38.2115,12.3930413 38.0935,12.6246603 C37.9755,12.8552635 37.9425,12.9842794 37.9605,13.2534857 C37.9785,13.5237079 37.8845,14.2297397 37.3045,14.6696127 C36.7245,15.107454 36.0325,15.6570413 35.3455,15.5889778 L34.4615,16.2746921 L32.6865,14.7356444 Z" id="Fill-119" fill="#B45227"></path>
                    <polygon id="Fill-121" fill="#F07600" points="13.0991 27.9122286 12.1251 30.0079746 13.5741 30.364546 13.8241 28.5258159"></polygon>
                    <path d="M24.3389,28.421181 C24.3389,28.421181 25.2009,33.6651175 24.1679,42.1141333 C23.1349,50.5641651 22.0369,54.5636571 22.0369,54.5636571 C22.0369,54.5636571 22.2629,55.7339429 23.3569,55.7339429 C24.4499,55.7339429 26.2469,55.933054 26.3589,57.5868952 L19.5949,57.5868952 C19.5949,57.5868952 19.6799,55.933054 19.9879,55.0776889 C20.2969,54.2223238 20.1559,52.3978159 20.1559,52.3978159 L18.3329,52.2555937 C18.3329,52.2555937 18.3039,50.7449905 18.7809,49.8317206 C19.2579,48.9194667 19.1179,48.292673 18.7809,47.6648635 C18.4449,47.0380698 19.0339,46.1542603 19.1179,45.3842286 C19.2019,44.6141968 18.8939,34.2075937 18.8939,34.2075937 L11.6529,54.7648 C11.6529,54.7648 11.4009,55.3336889 11.4009,56.1900698 L11.4009,57.5868952 L5.5629,57.5868952 C5.5629,57.5868952 5.8159,55.7623873 7.1349,55.7623873 C8.4539,55.7623873 9.3239,55.6191492 9.6049,54.5362286 C9.8849,53.4533079 10.2219,51.7994667 10.2219,51.7994667 L8.3699,51.2864508 C8.3699,51.2864508 8.4539,50.2177524 9.0989,49.2557206 C9.7449,48.292673 9.1549,47.5226413 9.4919,46.6388317 C9.8289,45.7540063 10.1939,44.7289905 10.6149,42.9898159 C11.0359,41.2506413 13.5729,28.421181 13.5729,28.421181 L24.3389,28.421181 Z" id="Fill-123" fill="#004656"></path>
                    <path d="M13.8237,28.5253079 L14.0557,30.9776254 C14.0557,30.9776254 15.4127,32.1428317 19.7027,31.7131175 C23.9927,31.284419 25.2797,30.1659429 25.2797,30.1659429 L24.3387,28.420673 L13.8237,28.5253079 Z" id="Fill-125" fill="#F07600"></path>
                    <path d="M21.6274,14.1215492 C21.6274,14.1215492 23.3164,14.5898667 24.5054,15.5072 C25.6934,16.4255492 27.6954,18.8169143 27.6954,18.8169143 L32.6864,14.1611683 L35.4124,16.5332317 C33.3444,18.6299937 31.4294,21.1696762 28.9274,22.7290413 C28.7284,22.8539937 28.5234,22.9738667 28.2994,23.0409143 C28.0564,23.115073 27.7984,23.1232 27.5454,23.1160889 C26.4254,23.0805333 25.6684,22.6477714 24.7654,22.0646603 C24.4344,23.0124698 24.7664,24.2203429 24.4784,25.227073 C24.2314,26.0905651 25.1084,26.8738032 24.8434,28.1426286 C24.5774,29.411454 23.2734,29.8553905 19.0754,29.9986286 C14.8774,30.1408508 12.7774,28.8181841 12.8574,27.5493587 C12.9374,26.2805333 13.4684,24.6866286 13.4684,23.2288508 C13.4684,22.2647873 13.7574,20.8953905 13.1294,20.0623746 C12.7574,19.5686603 12.3564,19.7515175 11.8044,19.706819 C11.1144,19.650946 10.4184,19.4691048 9.7694,19.2293587 C8.9384,18.923581 8.1434,18.4786286 7.5294,17.8325333 C6.4244,16.6693587 6.0294,15.0073905 5.6774,13.4307556 C5.3864,12.131454 5.0964,10.8321524 4.8064,9.53183492 C4.7004,9.05640635 4.3344,8.22339048 4.4184,7.74694603 C4.4994,7.28573968 4.7804,7.28777143 5.2004,7.19227937 C6.0034,7.0063746 6.8254,6.59189841 7.6514,6.56345397 C7.7954,8.2487873 8.5744,10.0854857 9.1144,11.6875175 C9.3374,12.3529143 9.5754,13.019327 9.9504,13.6095492 C10.1164,13.8696127 10.3254,14.1266286 10.6174,14.2180571 C10.8104,14.2779937 11.0184,14.2597079 11.2194,14.2393905 C11.8674,14.1764063 12.5234,14.1367873 13.1684,14.0412952 C13.8074,13.946819 14.4104,13.6491683 15.0524,13.5983746 C15.8144,13.5384381 16.6734,13.7273905 17.4354,13.7883429 C18.8324,13.899073 20.2304,14.010819 21.6274,14.1215492" id="Fill-127" fill="#F06400"></path>
                    <path d="M16.0483,11.209854 C16.0483,11.209854 14.5733,11.1793778 14.0083,12.1414095 C13.4443,13.1034413 13.7573,14.0847746 13.7573,14.0847746 C13.7573,14.0847746 14.5003,13.8074413 15.2293,14.2330921 C15.9573,14.6587429 19.2643,17.2197587 19.5303,17.193346 C20.1123,17.1344254 20.8693,15.8605206 21.5193,15.1209651 C22.1683,14.3803937 22.5073,13.9456 22.2833,13.4600127 L16.6863,11.0462984 L16.0483,11.209854 Z" id="Fill-129" fill="#F07600"></path>
                    <path d="M17.8135,7.27730794 C17.8135,7.27730794 22.5325,7.85737143 22.7535,7.04467302 C22.9175,6.44530794 22.4465,3.54702222 17.9325,4.5415619 C16.4705,4.86359365 15.3095,6.10702222 15.2545,7.84213333 C15.2165,9.0479746 15.5285,10.6408635 16.1645,11.5998476 C16.8815,12.6837841 17.3555,12.5689905 17.3555,12.5689905 L17.8135,7.27730794 Z" id="Fill-131" fill="#000000"></path>
                    <path d="M20.9766,13.601727 L20.4326,13.7652825 L20.2556,14.8096 C20.0056,14.8695365 19.6716,14.9101714 19.2376,14.9030603 C18.7636,14.8939175 18.3826,14.8441397 18.0776,14.7384889 L16.9706,13.6220444 L16.9526,12.3369651 L20.9636,13.1557587 L20.9766,13.601727 Z" id="Fill-133" fill="#B45227"></path>
                    <path d="M17.0068,12.6165333 C16.9418,12.3747556 16.8308,11.5681524 16.8308,11.5681524 C16.7188,11.5833905 16.2958,11.5935492 15.9418,11.3101206 C15.5748,11.0155175 15.0498,10.0524698 15.5648,9.5232 C15.8688,9.21132698 16.2068,9.06300952 16.5928,9.51913651 C17.0298,10.0341841 17.4278,9.98542222 17.4038,9.33627937 C17.3798,8.68713651 17.0088,7.1663746 17.6368,6.82097778 C18.2648,6.47558095 18.8958,6.7976127 20.0828,6.65640635 C20.6008,6.5944381 20.9638,6.46542222 21.3938,6.32421587 C21.8828,6.16167619 22.4498,6.64726349 22.5788,7.2832 C22.6498,7.63266032 22.8018,10.3501206 22.7338,10.9616762 C22.6708,11.5193905 22.1478,13.6517079 20.0388,13.6436041 C18.9638,13.6395175 17.0068,12.6165333 17.0068,12.6165333" id="Fill-135" fill="#B45227"></path>
                    <path d="M22.4121,6.51540317 C22.4611,7.00708571 22.5331,7.49775238 22.5771,7.99045079 C22.6421,8.74626032 22.6751,9.50918095 22.6231,10.2670222 C22.5981,10.644927 22.5501,11.0228317 22.4621,11.3905778 C22.4261,11.5388952 22.3851,11.6872127 22.3321,11.8304508 C22.3231,11.8599111 22.3111,11.8863238 22.3011,11.9137524 C22.2831,11.9614984 22.3161,11.8812444 22.2941,11.9300063 C22.2871,11.9482921 22.2791,11.9665778 22.2701,11.9848635 C22.0791,12.4135619 21.8341,12.7640381 21.4881,13.0667683 C20.9611,13.5269587 20.2481,13.6894984 19.5471,13.5665778 C19.4491,13.5493079 19.3481,13.5940063 19.3191,13.6976254 C19.2951,13.7880381 19.3491,13.9119746 19.4491,13.9292444 C20.1541,14.0541968 20.8801,13.956673 21.4811,13.5421968 C21.9151,13.2425143 22.2611,12.820927 22.5051,12.3505778 C22.7661,11.8467048 22.8831,11.2859429 22.9511,10.7241651 C23.0471,9.92772063 23.0301,9.12010159 22.9731,8.3216254 C22.9301,7.71718095 22.8431,7.11883175 22.7821,6.51540317 C22.7721,6.41381587 22.7041,6.32645079 22.5971,6.32645079 C22.5051,6.32645079 22.4021,6.41381587 22.4121,6.51540317" id="Fill-137" fill="#000000"></path>
                    <path d="M20.9497,7.89627937 C21.0287,7.80180317 21.0947,7.74186667 21.1937,7.68599365 C21.2497,7.65348571 21.2637,7.64739048 21.3227,7.62910476 C21.3477,7.62097778 21.3737,7.61488254 21.3987,7.60980317 C21.4027,7.6087873 21.4367,7.60167619 21.4227,7.60472381 C21.4077,7.60675556 21.4577,7.60167619 21.4567,7.60167619 C21.4827,7.59964444 21.5097,7.59964444 21.5347,7.60066032 C21.5467,7.60066032 21.6057,7.60777143 21.5837,7.60370794 C21.6137,7.6087873 21.6417,7.61589841 21.6707,7.6240254 C21.6837,7.62707302 21.6967,7.63215238 21.7087,7.63621587 C21.7127,7.63723175 21.7417,7.64840635 21.7337,7.64434286 C21.8307,7.6839619 21.9127,7.74897778 21.9877,7.83532698 C22.0537,7.91253333 22.1817,7.90440635 22.2487,7.83532698 C22.3237,7.76015238 22.3157,7.6463746 22.2487,7.57018413 C22.0537,7.34567619 21.7537,7.20548571 21.4567,7.22580317 C21.1577,7.24408889 20.8807,7.39951746 20.6877,7.63012063 C20.6237,7.70732698 20.6137,7.82008889 20.6877,7.89627937 C20.7537,7.96332698 20.8847,7.97348571 20.9497,7.89627937" id="Fill-139" fill="#000000"></path>
                    <path d="M19.8218,7.93894603 C19.5938,7.71139048 19.2778,7.57831111 18.9568,7.62097778 C18.6528,7.6616127 18.3948,7.84650159 18.2308,8.10758095 C18.1768,8.19291429 18.2128,8.31481905 18.2968,8.36459683 C18.3858,8.41742222 18.4958,8.38288254 18.5498,8.29754921 C18.5948,8.22542222 18.6768,8.13805714 18.7408,8.0943746 C18.7648,8.07913651 18.7898,8.06389841 18.8158,8.05069206 C18.8268,8.04459683 18.8378,8.03951746 18.8488,8.0344381 C18.8778,8.02021587 18.8278,8.04154921 18.8578,8.0303746 C18.8848,8.02021587 18.9108,8.01107302 18.9388,8.0039619 C18.9508,8.00193016 18.9628,7.99888254 18.9748,7.99685079 C18.9798,7.99583492 19.0258,7.98872381 19.0068,7.99075556 C19.0998,7.97958095 19.1918,7.99177143 19.2978,8.0303746 C19.3278,8.04154921 19.3198,8.03748571 19.3488,8.05170794 C19.3768,8.06593016 19.4048,8.08218413 19.4308,8.0984381 C19.4828,8.13094603 19.5128,8.15735873 19.5598,8.20510476 C19.7308,8.37373968 19.9918,8.10859683 19.8218,7.93894603" id="Fill-141" fill="#000000"></path>
                    <path d="M19.7173,10.1562921 C19.7493,10.3462603 19.8903,10.516927 20.0873,10.5281016 C20.2863,10.5392762 20.4453,10.3442286 20.4253,10.1471492 C20.4203,10.0922921 20.3813,10.0374349 20.3203,10.0404825 C20.2673,10.0425143 20.2083,10.0882286 20.2143,10.1471492 C20.2153,10.1634032 20.2153,10.1786413 20.2153,10.1948952 C20.2143,10.2192762 20.2193,10.1766095 20.2143,10.196927 C20.2123,10.2060698 20.2103,10.2152127 20.2083,10.2223238 C20.2073,10.2263873 20.1983,10.2517841 20.2043,10.2355302 C20.2103,10.2192762 20.2003,10.2436571 20.1983,10.2467048 C20.1953,10.2538159 20.1913,10.260927 20.1873,10.2660063 C20.1853,10.269054 20.1833,10.2721016 20.1803,10.2751492 C20.1893,10.2639746 20.1913,10.2619429 20.1863,10.2680381 C20.1813,10.2741333 20.1763,10.2792127 20.1713,10.2842921 C20.1683,10.2873397 20.1663,10.2903873 20.1633,10.292419 C20.1543,10.300546 20.1563,10.2995302 20.1683,10.2893714 C20.1683,10.292419 20.1533,10.2995302 20.1513,10.3015619 C20.1483,10.3025778 20.1463,10.3035937 20.1443,10.3046095 C20.1333,10.3096889 20.1343,10.308673 20.1483,10.3035937 C20.1423,10.308673 20.1123,10.3168 20.1043,10.3147683 C20.1083,10.3147683 20.1133,10.3137524 20.1173,10.3127365 C20.1123,10.3137524 20.1073,10.3137524 20.1023,10.3137524 C20.0973,10.3137524 20.0823,10.3157841 20.0793,10.3127365 C20.0933,10.3147683 20.0963,10.3157841 20.0883,10.3137524 C20.0853,10.3137524 20.0813,10.3127365 20.0773,10.3117206 L20.0553,10.3056254 C20.0513,10.3046095 20.0483,10.3035937 20.0443,10.3025778 L20.0513,10.3046095 C20.0513,10.3056254 20.0313,10.2944508 20.0303,10.2944508 C20.0293,10.2934349 20.0113,10.2802286 20.0103,10.2812444 C20.0213,10.2893714 20.0233,10.2914032 20.0173,10.2863238 C20.0143,10.2842921 20.0113,10.2812444 20.0093,10.2792127 C19.9983,10.2680381 19.9883,10.2578794 19.9783,10.2467048 C19.9633,10.228419 19.9873,10.2619429 19.9763,10.2436571 C19.9723,10.236546 19.9673,10.2304508 19.9643,10.2233397 C19.9573,10.2121651 19.9443,10.1948952 19.9423,10.1816889 C19.9473,10.1948952 19.9483,10.1959111 19.9443,10.1847365 C19.9423,10.180673 19.9413,10.1776254 19.9403,10.1745778 C19.9373,10.1664508 19.9343,10.1583238 19.9323,10.1512127 C19.9273,10.1339429 19.9243,10.116673 19.9213,10.0994032 C19.9123,10.044546 19.8423,10.0079746 19.7913,10.0242286 C19.7323,10.044546 19.7073,10.0963556 19.7173,10.1562921" id="Fill-143" fill="#000000"></path>
                    <path d="M20.2085,10.1819937 C20.2405,10.4004063 20.4985,10.5009778 20.6875,10.4318984 C20.7795,10.3983746 20.8585,10.3333587 20.8995,10.2419302 C20.9395,10.1515175 20.9535,10.0438349 20.9155,9.94935873 C20.9045,9.92294603 20.8925,9.9016127 20.8665,9.88535873 C20.8445,9.87215238 20.8105,9.86605714 20.7855,9.8752 C20.7365,9.89145397 20.6885,9.95139048 20.7115,10.0072635 C20.7175,10.0225016 20.7215,10.0377397 20.7255,10.0539937 C20.7275,10.0621206 20.7265,10.0580571 20.7245,10.042819 C20.7255,10.0478984 20.7255,10.0529778 20.7255,10.059073 C20.7265,10.0661841 20.7265,10.0743111 20.7265,10.0804063 C20.7265,10.0865016 20.7275,10.0997079 20.7245,10.1037714 C20.7265,10.0885333 20.7275,10.0854857 20.7255,10.0936127 C20.7255,10.0976762 20.7245,10.1017397 20.7235,10.1047873 C20.7215,10.114946 20.7175,10.1423746 20.7105,10.1484698 C20.7165,10.1342476 20.7175,10.1322159 20.7125,10.1433905 C20.7105,10.1464381 20.7095,10.1505016 20.7075,10.1535492 C20.7045,10.1596444 20.7005,10.1657397 20.6965,10.1718349 C20.6825,10.1952 20.7085,10.1606603 20.6935,10.1758984 C20.6885,10.1819937 20.6835,10.1880889 20.6785,10.1931683 C20.6775,10.1941841 20.6615,10.2094222 20.6605,10.2084063 C20.6705,10.2012952 20.6725,10.2002794 20.6665,10.203327 C20.6635,10.2063746 20.6605,10.2084063 20.6575,10.2104381 C20.6505,10.2145016 20.6445,10.2185651 20.6375,10.2216127 C20.6325,10.2246603 20.6275,10.2266921 20.6235,10.2287238 C20.6355,10.2236444 20.6385,10.2226286 20.6305,10.2246603 C20.6145,10.2297397 20.5995,10.234819 20.5835,10.2378667 C20.5625,10.242946 20.6045,10.2378667 20.5815,10.2378667 C20.5745,10.2388825 20.5665,10.2388825 20.5595,10.2388825 L20.5365,10.2388825 C20.5315,10.2378667 20.5265,10.2378667 20.5205,10.2368508 C20.5255,10.2378667 20.5295,10.2378667 20.5335,10.2388825 C20.5205,10.2419302 20.4955,10.2287238 20.4825,10.2246603 C20.4755,10.2216127 20.4775,10.2226286 20.4895,10.2277079 C20.4855,10.2256762 20.4815,10.2246603 20.4785,10.2226286 C20.4715,10.2185651 20.4575,10.2134857 20.4535,10.2063746 C20.4565,10.2094222 20.4585,10.211454 20.4615,10.2134857 C20.4575,10.2104381 20.4535,10.2063746 20.4505,10.203327 C20.4495,10.203327 20.4335,10.187073 20.4345,10.187073 L20.4385,10.1931683 C20.4365,10.1901206 20.4345,10.1860571 20.4315,10.1830095 C20.4295,10.178946 20.4195,10.1667556 20.4205,10.1606603 C20.4255,10.1748825 20.4255,10.1758984 20.4215,10.1647238 C20.4205,10.1616762 20.4195,10.1596444 20.4185,10.1576127 C20.4165,10.1464381 20.4145,10.1352635 20.4125,10.1240889 C20.4045,10.0692317 20.3325,10.0336762 20.2825,10.0499302 C20.2225,10.0692317 20.1995,10.1210413 20.2085,10.1819937" id="Fill-145" fill="#000000"></path>
                    <path d="M20.9219,9.96774603 C20.8279,9.58780952 20.6599,9.2312381 20.5499,8.85739683 C20.5109,8.72431746 20.3069,8.78120635 20.3459,8.91428571 C20.4569,9.28914286 20.6239,9.64571429 20.7179,10.0256508 C20.7519,10.1587302 20.9549,10.1028571 20.9219,9.96774603" id="Fill-147" fill="#000000"></path>
                    <path d="M18.5425,10.4766984 C18.5585,10.6300952 18.5615,10.7865397 18.5085,10.9318095 C18.4935,10.9754921 18.4575,11.0374603 18.4265,11.0709841 C18.3835,11.1177143 18.3515,11.1380317 18.2955,11.152254 C18.2405,11.1654603 18.2075,11.2294603 18.2215,11.2843175 C18.2375,11.3422222 18.2955,11.3726984 18.3525,11.3594921 C18.5185,11.3188571 18.6365,11.1766349 18.6995,11.0222222 C18.7695,10.8515556 18.7725,10.6595556 18.7535,10.4766984 C18.7485,10.4187937 18.7095,10.3700317 18.6475,10.3700317 C18.5955,10.3700317 18.5365,10.4187937 18.5425,10.4766984" id="Fill-149" fill="#000000"></path>
                    <path d="M20.2476,11.8000762 C19.9766,11.8965841 19.6896,11.9006476 19.4176,11.8071873 C19.3636,11.7878857 19.3016,11.8275048 19.2876,11.881346 C19.2716,11.9412825 19.3066,11.9951238 19.3616,12.0144254 C19.6656,12.1180444 20.0006,12.1149968 20.3036,12.0073143 C20.3576,11.9890286 20.3936,11.9341714 20.3776,11.8752508 C20.3636,11.8214095 20.3016,11.7807746 20.2476,11.8000762" id="Fill-151" fill="#000000"></path>
                    <path d="M20.793,8.63146667 C20.833,8.4079746 21.02,8.28708571 21.085,8.24949841 C21.226,8.16619683 21.385,8.07984762 21.657,8.09102222 C22.181,8.11032381 22.241,8.28606984 22.268,8.41305397 C22.291,8.51972063 22.262,8.72492698 22.12,8.78689524 C22.043,8.82143492 21.897,8.78384762 21.604,8.81330794 C21.326,8.83972063 21.025,8.9728 20.938,8.95146667 C20.852,8.93216508 20.758,8.83057778 20.793,8.63146667" id="Fill-153" fill="#FFFFFF"></path>
                    <path d="M21.3354,8.82194286 C21.6324,8.82194286 21.6334,8.35159365 21.3354,8.35159365 C21.0384,8.35159365 21.0384,8.82194286 21.3354,8.82194286" id="Fill-155" fill="#000000"></path>
                    <path d="M18.2954,9.00053333 C18.3254,8.7983746 18.5094,8.6480254 18.5774,8.61348571 C18.7244,8.53831111 18.9424,8.45907302 19.2284,8.46923175 C19.6984,8.48345397 19.8174,8.70389841 19.8414,8.82275556 C19.8624,8.92332698 19.8414,9.11329524 19.6924,9.17018413 C19.6114,9.19964444 19.4574,9.16307302 19.1504,9.18542222 C18.8584,9.20573968 18.5444,9.32358095 18.4534,9.30326349 C18.3614,9.28193016 18.2674,9.18745397 18.2954,9.00053333" id="Fill-157" fill="#FFFFFF"></path>
                    <path d="M18.9751,9.16419048 C19.2631,9.16419048 19.2631,8.71111111 18.9751,8.71111111 C18.6871,8.71111111 18.6871,9.16419048 18.9751,9.16419048" id="Fill-159" fill="#000000"></path>
                    <path d="M18.5815,11.1016635 C19.2745,11.4755048 20.1255,11.5974095 20.8265,11.1707429 C20.9425,11.0996317 20.8365,10.913727 20.7195,10.985854 C20.0845,11.3718857 19.3145,11.2540444 18.6875,10.9157587 C18.5675,10.8517587 18.4605,11.0376635 18.5815,11.1016635" id="Fill-161" fill="#000000"></path>
                    <path d="M20.2437,4.82783492 C20.5007,4.71507302 20.7547,4.61958095 21.0017,4.54339048 C20.3207,4.17158095 19.4107,4.00904127 18.2057,4.3392 C14.4497,5.36624762 15.2667,8.98885079 15.2667,8.98885079 C15.2667,8.98885079 15.9827,8.22694603 16.9947,7.59405714 C17.6037,6.7823746 18.7477,5.48612063 20.2437,4.82783492" id="Fill-163" fill="#006B84"></path>
                    <path d="M21.002,4.54217143 C20.755,4.61937778 20.501,4.71486984 20.244,4.82763175 C18.748,5.48693333 17.604,6.78217143 16.995,7.59385397 C17.533,7.25658413 18.155,6.95690159 18.798,6.82788571 C21.077,6.37074286 22.572,6.92845714 22.819,7.03004444 C22.828,7.02598095 22.838,7.02090159 22.848,7.01785397 C23.185,6.86445714 23.763,6.44591746 23.964,5.5031873 C24.23,4.25975873 22.943,3.93671111 21.002,4.54217143" id="Fill-165" fill="#008DB1"></path>
                    <path d="M15.9268,10.0510476 C16.0988,9.99111111 16.2398,10.1526349 16.2918,10.3060317 C16.3408,10.4533333 16.4108,10.7377778 16.2388,10.8281905 C16.1878,10.8546032 16.1728,10.9267302 16.1998,10.9754921 C16.2308,11.0273016 16.2938,11.0405079 16.3448,11.0130794 C16.6178,10.8708571 16.5788,10.4807619 16.4898,10.2339048 C16.4428,10.1008254 16.3668,9.97993651 16.2478,9.90171429 C16.1378,9.82857143 15.9958,9.80114286 15.8708,9.84380952 C15.8168,9.86209524 15.7808,9.91796825 15.7968,9.97688889 C15.8108,10.0297143 15.8728,10.0703492 15.9268,10.0510476" id="Fill-167" fill="#000000"></path>
                    <path d="M19.5308,16.2634159 C19.5308,16.2634159 20.1688,15.3664 20.2548,14.8107175 C20.2548,14.8107175 19.7808,14.9234794 19.0138,14.8950349 C18.2468,14.8686222 17.9488,14.6085587 17.9488,14.6085587 C17.9488,14.6085587 18.8238,15.6325587 19.5308,16.2634159" id="Fill-169" fill="#044758"></path>
                    <path d="M24.8228,21.5520508 C24.8618,19.4654476 24.8878,17.3138286 24.1528,15.3318603 C24.0808,15.1388444 23.7718,15.222146 23.8448,15.4182095 C24.5708,17.3757968 24.5418,19.4918603 24.5038,21.5520508 C24.4998,21.7603048 24.8188,21.7603048 24.8228,21.5520508" id="Fill-171" fill="#B24125"></path>
                    <path d="M12.4805,15.0729143 C13.8485,16.1121524 13.4925,18.0951365 13.1875,19.5437714 C13.1445,19.7489778 13.4515,19.8343111 13.4945,19.6301206 C13.6905,18.7005968 13.8885,17.7456762 13.7475,16.7927873 C13.6315,16.011581 13.2725,15.2720254 12.6415,14.7935492 C12.4775,14.6685968 12.3175,14.9489778 12.4805,15.0729143" id="Fill-173" fill="#B24125"></path>
                    <path d="M23.7529,57.5867937 L19.5949,57.5867937 C19.5949,57.5867937 19.6789,55.9329524 19.9879,55.0775873 C20.0589,54.8794921 20.1069,54.631619 20.1369,54.3654603 L22.0879,54.3654603 C22.0539,54.4985397 22.0369,54.5635556 22.0369,54.5635556 C22.0369,54.5635556 22.2619,55.7328254 23.3559,55.7328254 C23.5229,55.7328254 23.7059,55.7368889 23.8979,55.7500952 C23.8199,55.9715556 23.7669,56.2041905 23.7389,56.4378413 C23.6939,56.8187937 23.7079,57.2038095 23.7529,57.5867937" id="Fill-175" fill="#000000"></path>
                    <path d="M20.1367,54.3655619 L22.0877,54.3655619 C22.1647,54.0618159 22.3247,53.4106413 22.5357,52.3978159 L20.1567,52.3978159 C20.1567,52.3978159 20.2397,53.4787048 20.1367,54.3655619" id="Fill-177" fill="#B45227"></path>
                    <path d="M11.5732,54.9925587 C11.4972,55.2353524 11.4002,55.6569397 11.4002,56.1892571 L11.4002,57.5870984 L8.1792,57.5870984 C8.1062,56.958273 7.9592,56.3385905 7.7372,55.7463365 C8.6792,55.6924952 9.3152,55.4649397 9.5722,54.6430984 L11.5732,54.9925587 Z" id="Fill-179" fill="#000000"></path>
                    <path d="M9.5723,54.6434032 L11.5723,54.9928635 C11.6173,54.844546 11.6533,54.7642921 11.6533,54.7642921 L12.5293,52.2794667 L10.2213,51.7989587 C10.2213,51.7989587 9.8843,53.4528 9.6033,54.5357206 C9.5933,54.5733079 9.5833,54.6088635 9.5723,54.6434032" id="Fill-181" fill="#B45227"></path>
                    <path d="M20.2593,32.7297016 C19.5393,33.4794159 18.6233,34.0127492 17.6223,34.2657016 C17.4233,34.3164952 17.5083,34.6283683 17.7073,34.5775746 C18.7593,34.3124317 19.7283,33.7465905 20.4853,32.9592889 C20.6293,32.8089397 20.4033,32.5803683 20.2593,32.7297016" id="Fill-183" fill="#000000"></path>
                    <path d="M8.1792,57.5867937 L5.5632,57.5867937 C5.5632,57.5867937 5.8162,55.760254 7.1352,55.760254 C7.3482,55.760254 7.5492,55.7561905 7.7372,55.7460317 C7.9592,56.3382857 8.1062,56.9579683 8.1792,57.5867937" id="Fill-185" fill="#494949"></path>
                    <path d="M26.3589,57.5867937 L23.7529,57.5867937 C23.7079,57.2038095 23.6939,56.8187937 23.7389,56.4378413 C23.7669,56.2041905 23.8199,55.9715556 23.8979,55.7500952 C24.9609,55.8273016 26.2629,56.1859048 26.3589,57.5867937" id="Fill-187" fill="#494949"></path>
                    <path d="M34.2788,12.289219 L34.4678,18.1609651 C34.4678,18.1609651 36.8318,16.7946159 36.8318,16.7255365 C36.8318,16.657473 36.7418,11.3007746 36.7418,11.3007746 L34.2788,12.289219 Z" id="Fill-189" fill="#7A7A7A"></path>
                    <path d="M34.8164,12.2088635 C34.8834,12.316546 34.9414,12.4079746 35.0644,12.4638476 C35.0874,12.4740063 35.1134,12.4841651 35.1294,12.5044825 C35.1794,12.5684825 35.0984,12.6497524 35.0334,12.6964825 C34.8614,12.820419 34.7304,13.0073397 34.6984,13.2186413 C34.6674,13.428927 34.7474,13.660546 34.9194,13.7834667 C34.9544,13.8088635 34.9934,13.8301968 35.0224,13.8616889 C35.0684,13.9134984 35.0844,13.9846095 35.0984,14.0516571 C35.1434,14.260927 35.1944,14.4732444 35.3104,14.6500063 C35.4254,14.8277841 35.6194,14.9669587 35.8294,14.9598476 C35.9874,14.9547683 36.1484,14.8440381 36.1994,14.6896254 C36.2454,14.5545143 36.1334,14.3787683 36.2724,14.2822603 C36.3494,14.2274032 36.4554,14.2345143 36.5414,14.2731175 C36.6274,14.3107048 36.6984,14.3767365 36.7694,14.4387048 C36.8404,14.500673 36.9164,14.5616254 37.0054,14.5900698 C37.1884,14.644927 37.3334,14.6855619 37.4124,14.5067683 C37.4664,14.3858794 37.5084,14.2568635 37.5564,14.1319111 C37.6324,13.9328 37.7094,13.7347048 37.7854,13.5366095 L37.6704,11.9081651 L37.3064,10.3802921 L36.7284,10.0785778 L35.0754,10.3975619 L34.1994,10.8333714 L34.1504,12.260673 C34.1594,12.3297524 34.1694,12.4079746 34.1934,12.4729905 C34.2184,12.5369905 34.2614,12.5979429 34.3234,12.628419 C34.3924,12.6629587 34.4764,12.6558476 34.5504,12.6334984 C34.5784,12.6243556 34.6064,12.613181 34.6294,12.5959111 C34.6564,12.5766095 34.6774,12.5522286 34.6964,12.5258159 C34.7664,12.4323556 34.8184,12.3256889 34.8164,12.2088635" id="Fill-191" fill="#B45227"></path>
                    <path d="M35.0972,11.5868444 C35.0412,11.5787175 34.9942,11.5360508 34.9652,11.486273 C34.9362,11.4364952 34.9232,11.3796063 34.9112,11.3217016 C34.8602,11.0728127 34.8262,10.8198603 34.8132,10.5648762 C34.8092,10.4886857 34.8072,10.4114794 34.8242,10.3373206 C34.8412,10.262146 34.8802,10.190019 34.9442,10.1483683" id="Fill-193" fill="#000000"></path>
                    <path d="M35.1304,11.4647365 C35.0364,11.4434032 35.0304,11.2859429 35.0154,11.2087365 C34.9934,11.0949587 34.9754,10.9791492 34.9634,10.8643556 C34.9494,10.748546 34.9394,10.6317206 34.9354,10.5138794 C34.9334,10.4315937 34.9314,10.3117206 35.0064,10.2578794 C35.0614,10.2172444 35.0874,10.1471492 35.0514,10.085181 C35.0194,10.0293079 34.9354,9.99883175 34.8804,10.0394667 C34.6154,10.2324825 34.6824,10.6063238 34.7164,10.8917841 C34.7354,11.0512762 34.7594,11.2107683 34.7944,11.3682286 C34.8264,11.5195937 34.9024,11.6719746 35.0644,11.708546 C35.2204,11.7441016 35.2874,11.5013079 35.1304,11.4647365" id="Fill-195" fill="#000000"></path>
                    <path d="M36.0166,14.4508952 C36.1226,14.5514667 36.1256,14.7322921 36.0036,14.8247365 C35.8676,14.9293714 35.7096,14.8734984 35.5936,14.7708952 C35.3676,14.5717841 34.9956,14.2020063 35.1746,13.8627048 C35.2616,13.6981333 35.4746,13.6300698 35.6386,13.5782603 C35.7326,13.5477841 35.8286,13.5223873 35.9196,13.4848 C36.0156,13.4461968 36.1066,13.3974349 36.2036,13.3608635 C36.3576,13.3019429 36.5336,13.2745143 36.6966,13.3019429 C36.8636,13.3303873 37.0146,13.4136889 37.1606,13.4959746 C37.3016,13.573181 37.4276,13.3547683 37.2866,13.2775619 C37.1296,13.1901968 36.9676,13.1028317 36.7916,13.0642286 C36.6226,13.0276571 36.4506,13.0357841 36.2816,13.0743873 C36.0706,13.1201016 35.8826,13.2389587 35.6756,13.3019429 C35.4936,13.3578159 35.3046,13.4136889 35.1476,13.5294984 C34.8096,13.7794032 34.8306,14.2263873 35.0556,14.5504508 C35.1626,14.7058794 35.2996,14.8511492 35.4436,14.973054 C35.5816,15.0898794 35.7406,15.1538794 35.9216,15.124419 C36.3156,15.0614349 36.4926,14.556546 36.1926,14.2710857 C36.0756,14.1603556 35.8986,14.3391492 36.0166,14.4508952" id="Fill-197" fill="#000000"></path>
                    <path d="M35.042,13.7445587 C34.696,13.6196063 34.773,13.1777016 34.94,12.9318603 C35.037,12.7896381 35.172,12.7286857 35.332,12.6778921 C35.5,12.6230349 35.667,12.5651302 35.831,12.4970667 C36.134,12.3721143 36.432,12.1709714 36.767,12.158781 C36.979,12.1516698 37.208,12.2004317 37.382,12.3294476 C37.512,12.4259556 37.637,12.206527 37.508,12.1120508 C37.278,11.9424 36.958,11.8834794 36.68,11.9119238 C36.464,11.9352889 36.277,12.0185905 36.083,12.1110349 C35.871,12.2126222 35.654,12.302019 35.432,12.3782095 C35.25,12.4422095 35.054,12.4828444 34.9,12.6077968 C34.75,12.7297016 34.651,12.9034159 34.594,13.0872889 C34.479,13.4611302 34.593,13.8502095 34.976,13.9883683 C35.127,14.0432254 35.192,13.7984 35.042,13.7445587" id="Fill-199" fill="#000000"></path>
                    <path d="M35.3701,12.4042159 C35.1441,12.3178667 35.0871,11.9724698 35.1671,11.7672635 C35.2131,11.6504381 35.3341,11.5864381 35.4411,11.5397079 C35.5591,11.4889143 35.6781,11.4421841 35.7941,11.387327 C35.9931,11.2928508 36.1881,11.1851683 36.4001,11.1242159 C36.6431,11.0551365 36.8781,11.075454 37.1141,11.1638349 C37.2651,11.2207238 37.3301,10.9758984 37.1811,10.9200254 C36.8841,10.8092952 36.5771,10.8001524 36.2761,10.8986921 C36.0001,10.9891048 35.7491,11.1414857 35.4821,11.2522159 C35.3351,11.3131683 35.1861,11.3670095 35.0681,11.4797714 C34.9481,11.5925333 34.9041,11.7378032 34.8931,11.899327 C34.8701,12.2152635 34.9981,12.5312 35.3041,12.6480254 C35.4531,12.7059302 35.5181,12.4621206 35.3701,12.4042159" id="Fill-201" fill="#000000"></path>
                    <path d="M35.5889,11.0262857 C35.6939,11.0831746 35.8059,11.1288889 35.9209,11.1634286" id="Fill-203" fill="#000000"></path>
                    <path d="M35.5259,11.1353905 C35.6409,11.1973587 35.7619,11.2471365 35.8869,11.2847238 C35.9499,11.3040254 36.0259,11.2623746 36.0409,11.1973587 C36.0559,11.1282794 36.0199,11.0612317 35.9529,11.0409143 C35.8879,11.0216127 35.8239,10.9982476 35.7609,10.9718349 C35.7719,10.9758984 35.7809,10.9799619 35.7909,10.9850413 C35.7439,10.9637079 35.6969,10.9413587 35.6519,10.9169778 C35.6219,10.9017397 35.5879,10.8956444 35.5559,10.9037714 C35.5269,10.9118984 35.4959,10.9352635 35.4809,10.9616762 C35.4509,11.0205968 35.4639,11.1028825 35.5259,11.1353905" id="Fill-205" fill="#000000"></path>
                    <path d="M33.7451,12.1532952 C33.8351,12.3300571 33.9341,12.506819 34.0901,12.6317714 C34.2431,12.7526603 34.4611,12.8156444 34.6491,12.7455492 C34.8531,12.6683429 34.9591,12.4611048 35.0251,12.2619937 C35.0951,12.0547556 35.1151,11.8343111 35.1311,11.6169143 C35.1361,11.5478349 35.0701,11.4899302 35.0061,11.4899302 C34.9341,11.4899302 34.8871,11.5478349 34.8821,11.6169143 C34.8691,11.7885968 34.8531,11.9612952 34.8061,12.1278984 C34.7701,12.2569143 34.7091,12.4489143 34.5761,12.5047873 C34.4621,12.5515175 34.3201,12.5017397 34.2311,12.4235175 C34.1091,12.3158349 34.0341,12.1695492 33.9601,12.0252952 C33.8861,11.8810413 33.6711,12.0090413 33.7451,12.1532952" id="Fill-207" fill="#000000"></path>
                </g>
                <g id="Group-212" transform="translate(188.000000, 41.000000)">
                    <mask id="mask-26" fill="white">
                        <use xlink:href="#path-25"></use>
                    </mask>
                    <g id="Clip-211"></g>
                    <polygon id="Fill-210" fill="#FFBF00" mask="url(#mask-26)" points="-4.773 9 19.227 9 19.227 -5 -4.773 -5"></polygon>
                </g>
                <g id="Group-215" transform="translate(186.000000, 59.000000)">
                    <mask id="mask-28" fill="white">
                        <use xlink:href="#path-27"></use>
                    </mask>
                    <g id="Clip-214"></g>
                    <polygon id="Fill-213" fill="#FFBF00" mask="url(#mask-28)" points="-4.773 13 22.227 13 22.227 -5 -4.773 -5"></polygon>
                </g>
                <g id="Group-218" transform="translate(220.000000, 0.000000)">
                    <mask id="mask-30" fill="white">
                        <use xlink:href="#path-29"></use>
                    </mask>
                    <g id="Clip-217"></g>
                    <polygon id="Fill-216" fill="#FFBF00" mask="url(#mask-30)" points="-4.479 17.765 15.097 17.765 15.097 -4.612 -4.479 -4.612"></polygon>
                </g>
                <g id="Group-221" transform="translate(287.000000, 4.000000)">
                    <mask id="mask-32" fill="white">
                        <use xlink:href="#path-31"></use>
                    </mask>
                    <g id="Clip-220"></g>
                    <polygon id="Fill-219" fill="#FFBF00" mask="url(#mask-32)" points="-4.773 16 16.227 16 16.227 -5 -4.773 -5"></polygon>
                </g>
                <g id="Group-224" transform="translate(300.000000, 33.000000)">
                    <mask id="mask-34" fill="white">
                        <use xlink:href="#path-33"></use>
                    </mask>
                    <g id="Clip-223"></g>
                    <polygon id="Fill-222" fill="#FFBF00" mask="url(#mask-34)" points="-4.773 11 22.227 11 22.227 -5 -4.773 -5"></polygon>
                </g>
                <g id="Group-227" transform="translate(302.000000, 51.000000)">
                    <mask id="mask-36" fill="white">
                        <use xlink:href="#path-35"></use>
                    </mask>
                    <g id="Clip-226"></g>
                    <polygon id="Fill-225" fill="#FFBF00" mask="url(#mask-36)" points="-4.773 9 16.227 9 16.227 -5 -4.773 -5"></polygon>
                </g>
                <g id="Group-230" transform="translate(288.000000, 80.000000)">
                    <mask id="mask-38" fill="white">
                        <use xlink:href="#path-37"></use>
                    </mask>
                    <g id="Clip-229"></g>
                    <polygon id="Fill-228" fill="#FFBF00" mask="url(#mask-38)" points="-4.773 16 16.227 16 16.227 -5 -4.773 -5"></polygon>
                </g>
                <g id="Group-233" transform="translate(229.000000, 83.000000)">
                    <mask id="mask-40" fill="white">
                        <use xlink:href="#path-39"></use>
                    </mask>
                    <g id="Clip-232"></g>
                    <polygon id="Fill-231" fill="#FFBF00" mask="url(#mask-40)" points="-4.773 14 11.227 14 11.227 -5 -4.773 -5"></polygon>
                </g>
                <g id="Group-236" transform="translate(258.000000, 15.000000)">
                    <mask id="mask-42" fill="white">
                        <use xlink:href="#path-41"></use>
                    </mask>
                    <g id="Clip-235"></g>
                    <polygon id="Fill-234" fill="#E7E7E7" mask="url(#mask-42)" points="-4.773 15 13.227 15 13.227 -5 -4.773 -5"></polygon>
                </g>
                <g id="Group-239" transform="translate(277.000000, 61.000000)">
                    <mask id="mask-44" fill="white">
                        <use xlink:href="#path-43"></use>
                    </mask>
                    <g id="Clip-238"></g>
                    <polygon id="Fill-237" fill="#E7E7E7" mask="url(#mask-44)" points="-4.773 11 10.227 11 10.227 -5 -4.773 -5"></polygon>
                </g>
                <g id="Group-242" transform="translate(231.000000, 38.000000)">
                    <mask id="mask-46" fill="white">
                        <use xlink:href="#path-45"></use>
                    </mask>
                    <g id="Clip-241"></g>
                    <polygon id="Fill-240" fill="#E7E7E7" mask="url(#mask-46)" points="-4.773 13 12.227 13 12.227 -5 -4.773 -5"></polygon>
                </g>
                <g id="Group-245" transform="translate(218.000000, 71.000000)">
                    <mask id="mask-48" fill="white">
                        <use xlink:href="#path-47"></use>
                    </mask>
                    <g id="Clip-244"></g>
                    <polygon id="Fill-243" fill="#000000" mask="url(#mask-48)" points="-4.773 7 9.227 7 9.227 -5 -4.773 -5"></polygon>
                </g>
                <g id="Group-248" transform="translate(216.000000, 28.000000)">
                    <mask id="mask-50" fill="white">
                        <use xlink:href="#path-49"></use>
                    </mask>
                    <g id="Clip-247"></g>
                    <polygon id="Fill-246" fill="#000000" mask="url(#mask-50)" points="-4.773 7 9.227 7 9.227 -5 -4.773 -5"></polygon>
                </g>
                <g id="Group-253" transform="translate(241.000000, 29.000000)" fill="#00AE00">
                    <path d="M0.3096,16.5376 C0.5946,9.4726 5.4046,3.0626 12.5596,1.0236 C21.6166,-1.5564 30.9556,3.6286 33.5226,12.6866 C35.6506,20.1986 32.4086,28.1346 25.4126,32.0506 C23.7956,32.9556 21.9476,32.4776 21.0706,30.9616 C20.1796,29.4186 20.7206,27.6116 22.3686,26.6416 C25.5916,24.7426 27.4926,21.9746 27.8756,18.2316 C28.4406,12.7196 24.4736,7.5966 18.9866,6.7246 C12.7796,5.7386 7.1386,10.1036 6.5356,16.3596 C6.0716,21.1666 9.1316,25.8286 13.7926,27.3826 C14.9146,27.7566 15.7626,28.3796 16.1046,29.5576 C16.4656,30.8036 16.1566,31.8836 15.2126,32.7476 C14.3206,33.5636 13.2456,33.7506 12.1096,33.3706 C7.0846,31.6896 3.4866,28.4336 1.5066,23.5166 C1.2006,22.7556 0.6016,21.2716 0.4466,19.7496 C0.2386,17.7286 0.2386,18.2986 0.3096,16.5376" id="Fill-249"></path>
                    <path d="M10.9604,17.8628 C10.6234,14.3848 13.1444,11.3318 16.6454,11.0088 C19.9584,10.7028 23.0964,12.9758 23.5054,16.6458 C23.8894,20.0928 21.2674,23.2188 17.8324,23.5498 C14.3784,23.8828 11.2974,21.3328 10.9604,17.8628" id="Fill-251"></path>
                </g>
            </g>
        </g>
    </g>
</svg>