<?xml version="1.0" encoding="UTF-8"?>
<svg width="360px" height="495px" viewBox="0 0 360 495" version="1.1" xmlns="http://www.w3.org/2000/svg" xmlns:xlink="http://www.w3.org/1999/xlink">
    <!-- Generator: sketchtool 62 (101010) - https://sketch.com -->
    <title>E5A2A1D3-F3DF-4F75-AE24-601D6E196AFB</title>
    <desc>Created with sketchtool.</desc>
    <defs>
        <polygon id="path-1" points="0.7609625 0.209745455 96.7609625 0.209745455 96.7609625 111.607389 0.7609625 111.607389"></polygon>
        <polygon id="path-3" points="0.862747797 0.272630367 441.862748 0.272630367 441.862748 366.27263 0.862747797 366.27263"></polygon>
        <polygon id="path-5" points="0.293683908 0.388030303 9.86914764 0.388030303 9.86914764 12.7656351 0.293683908 12.7656351"></polygon>
        <polygon id="path-7" points="5 389 592 389 592 1 5 1"></polygon>
    </defs>
    <g id="Page-1" stroke="none" stroke-width="1" fill="none" fill-rule="evenodd">
        <g id="Mobile-Copy-15" transform="translate(0.000000, -1833.000000)">
            <g id="Group-105" transform="translate(-17.000000, 1833.000000)">
                <g id="Group-6" transform="translate(0.000000, 164.000000)">
                    <mask id="mask-2" fill="white">
                        <use xlink:href="#path-1"></use>
                    </mask>
                    <g id="Clip-5"></g>
                    <path d="M66.7609625,50.8488145 C55.5793375,28.4284509 36.1886188,8.23912727 14.9998375,0.209745455 L14.9998375,111.607389 L66.7609625,50.8488145 Z" id="Fill-4" fill="#AEE36A" mask="url(#mask-2)"></path>
                </g>
                <path d="M326,219.541119 C326,219.541119 365.700006,185.95046 403.652344,192.962835 C437.287342,199.177144 458,244.182407 458,244.182407 L394.543653,314 L326,219.541119 Z" id="Fill-7" fill="#94D24D"></path>
                <g id="Group-13" transform="translate(16.000000, 130.000000)">
                    <mask id="mask-4" fill="white">
                        <use xlink:href="#path-3"></use>
                    </mask>
                    <g id="Clip-12"></g>
                    <rect id="Rectangle" fill="#4DBA1A" mask="url(#mask-4)" x="-16" y="258" width="387" height="107"></rect>
                    <path d="M380.585021,164.584401 C358.97795,117.476129 313.800106,16.1224242 213.131921,1.78376069 C94.746873,-15.0789311 -13.3651432,114.70491 -14.1367433,116.783426 L-14.1367433,258.800945 C-14.1367433,258.800945 444.450466,259.249308 443.863257,258.800945 C418.396601,239.403229 395.863257,197.894814 380.585021,164.584401 Z" id="Fill-11" fill="#4DBA1A" mask="url(#mask-4)"></path>
                </g>
                <path d="M233,28.2609663 C233,28.2609663 240.149488,34.580771 240.81449,47.3863682 C241.712877,64.6879476 235.327712,72 235.327712,72 C235.327712,72 242.4772,69.8380692 248.628981,67.6761383 C254.780761,65.5142075 259.10348,63.8510579 263.260254,66.0129888 C267.417028,68.1749196 266.086615,70.3372593 273.236103,70.503656 C280.385591,70.6696439 289.031028,66.1793855 292.356447,66.1793855 C295.681867,66.1793855 302,66.8445635 302,66.8445635 L297.772107,26.256029 C297.772107,26.256029 294.684159,25.4338575 293.354155,24.6022827 C292.024151,23.7707079 289.031028,18.7812594 277.725174,20.278421 C268.983278,21.4354301 257.108473,29.4253345 252.618993,29.7577192 C248.130331,30.0905126 245.636267,26.9306103 240.81449,26.7642135 C236.988787,26.6321591 233,28.2609663 233,28.2609663" id="Fill-14" fill="#005400"></path>
                <path d="M231,27.2120939 L234.244137,143.087016 L234.274125,143.138309 C234.984621,144.360801 236.384083,144.26717 237,142.955119 L232.534025,27 L231,27.2120939 Z" id="Fill-16" fill="#7A7A7A"></path>
                <path d="M235,25 C235,26.1043372 234.104655,27 232.999795,27 C231.895345,27 231,26.1043372 231,25 C231,23.8952537 231.895345,23 232.999795,23 C234.104655,23 235,23.8952537 235,25" id="Fill-18" fill="#7A7A7A"></path>
                <path d="M340.799555,159.500392 C340.799555,159.500392 340.799555,156.566983 333.927683,155.711322 C326.071185,154.733252 323.807365,158.644731 323.807365,158.644731 C323.807365,158.644731 321.558315,154 311.937284,154 C302.316664,154 298.693239,159.378384 298.693239,159.378384 C298.693239,159.378384 287.198546,157.911479 286.074021,164.145123 C285.133703,169.355746 293.320461,171.845672 301.067009,168.667444 C301.067009,168.667444 304.521406,173.346691 314.266746,172.979463 C324.012496,172.613038 325.556308,168.423027 325.556308,168.423027 C325.556308,168.423027 329.195733,172.244204 337.143309,172.559659 C345.090885,172.874713 348.528051,169.617421 348.528051,169.617421 C348.528051,169.617421 359.590329,173.820274 368.182014,167.726699 C374.146389,163.496554 364.423203,157.114815 353.682981,157.009664 C344.967396,156.924579 340.799555,159.500392 340.799555,159.500392" id="Fill-20" fill="#97DEEB"></path>
                <path d="M151.137136,73.194279 C159.603921,69.8516548 179.162454,73.2053192 176.804209,78.1428234 C174.445964,83.0807523 166.489882,81.5933016 166.489882,81.5933016 C166.489882,81.5933016 165.129497,84.3469751 158.140421,84.8242502 C148.554393,85.4785926 145.256342,81.4837491 145.256342,81.4837491 C145.256342,81.4837491 144.5524,84.6225547 139.256194,84.9482398 C131.069524,85.4518414 129.495196,82.1147374 129.495196,82.1147374 C123.143077,85.9146794 110.146952,84.4675677 109.147469,79.815834 C108.126063,75.0638895 112.569745,72.8868527 117.554171,72.8265564 C123.288412,72.7577676 125.670203,74.7560386 125.670203,74.7560386 C125.670203,74.7560386 125.881304,67.5964875 138.268078,67.0334388 C150.654445,66.4708147 151.137136,73.194279 151.137136,73.194279" id="Fill-22" fill="#97DEEB"></path>
                <path d="M15,141.625348 C17.1179199,140.91151 19.3719919,138.83823 19.3719919,138.83823 C19.3719919,138.83823 23.0321501,145.273272 37.6502952,143.773323 C48.5436815,142.65573 52.2729379,135.359479 52.2729379,135.359479 C52.2729379,135.359479 73.9636272,137.274488 77.4164909,128.549752 C80.4948344,120.771418 71.0496474,112.786764 57.1776806,109.931411 C43.7113078,107.159635 37.4352323,111.296506 37.4352323,111.296506 C37.4352323,111.296506 37.0999631,108.381397 30.0086111,105.118655 C22.2724792,101.559153 15,102.019434 15,102.019434 L15,141.625348 Z" id="Fill-24" fill="#97DEEB"></path>
                <path d="M203.373671,43.9033081 C207.136841,44.1786934 210.891026,44.5402142 214.638269,44.9882847 C216.461661,45.2065223 216.446143,42.3060736 214.638269,42.0894924 C210.891435,41.6414219 207.136841,41.2799011 203.373671,41.0045159 C201.538028,40.8703432 201.546196,43.7695496 203.373671,43.9033081" id="Fill-31" fill="#FFBF00"></path>
                <path d="M201.78113,65.9019461 C206.488446,64.1644225 211.222667,62.5033381 215.983375,60.9178531 C217.771373,60.3227187 217.004968,57.4822855 215.200995,58.0828798 C210.440287,59.6683648 205.706065,61.3294492 200.998749,63.0669728 C199.237658,63.7171267 199.999018,66.5596599 201.78113,65.9019461" id="Fill-33" fill="#FFBF00"></path>
                <g id="Group-37" transform="translate(234.000000, 0.000000)">
                    <mask id="mask-6" fill="white">
                        <use xlink:href="#path-5"></use>
                    </mask>
                    <g id="Clip-36"></g>
                    <path d="M0.530583333,2.41937879 C2.72516667,5.65480303 4.91933333,8.89062121 7.1135,12.1260455 C8.12391667,13.6151364 10.6493333,12.2339848 9.63225,10.7342576 C7.43766667,7.49883333 5.2435,4.26301515 3.04891667,1.02759091 C2.03891667,-0.4615 -0.4865,0.919651515 0.530583333,2.41937879" id="Fill-35" fill="#FFBF00" mask="url(#mask-6)"></path>
                </g>
                <path d="M308.516437,4.42491174 C305.825031,7.09836665 303.133213,9.77182156 300.441807,12.4452765 C299.093424,13.7848009 301.137242,15.9122049 302.483563,14.5752623 C305.174969,11.9013771 307.866375,9.22835246 310.558193,6.55489755 C311.906576,5.21537314 309.862758,3.08753884 308.516437,4.42491174" id="Fill-38" fill="#FFBF00"></path>
                <path d="M313.789437,38.9511505 C318.518752,37.8235742 323.248068,36.6963714 327.976972,35.5691686 C329.769927,35.1416603 329.00999,32.619922 327.210445,33.0489237 C322.481542,34.1761265 317.752226,35.3033294 313.022911,36.4309056 C311.229956,36.8584138 311.990304,39.3797788 313.789437,38.9511505" id="Fill-40" fill="#FFBF00"></path>
                <path d="M315.27379,53.9522653 C318.091136,54.2981158 320.908482,54.6435461 323.72621,54.9893966 C325.431265,55.1982516 325.417915,52.2549505 323.72621,52.0477764 C320.908482,51.7019259 318.091136,51.3564956 315.27379,51.0106451 C313.568735,50.8013698 313.582085,53.744671 315.27379,53.9522653" id="Fill-42" fill="#FFBF00"></path>
                <path d="M301.414753,80.4587298 C304.067711,83.1542766 306.721117,85.8498235 309.374076,88.5453703 C310.716413,89.9089332 312.921778,87.8988115 311.585247,86.5413215 C308.932289,83.8457747 306.278883,81.1502279 303.625924,78.454681 C302.283587,77.0911182 300.078222,79.100835 301.414753,80.4587298" id="Fill-44" fill="#FFBF00"></path>
                <path d="M246.168367,81.7297334 C245.161655,83.7723609 244.155387,85.8153881 243.148676,87.8580155 C242.345259,89.4893194 245.021834,90.9147616 245.831908,89.2702666 L248.851156,83.1419845 C249.655016,81.5106806 246.978885,80.0852384 246.168367,81.7297334" id="Fill-46" fill="#FFBF00"></path>
                <path d="M279.751861,20 C277.630963,20.8223638 276.974477,21.8327959 276.762463,24.6007095 C276.72536,25.0848114 276.185482,25.1483716 276.063574,24.6829894 C275.368849,22.021735 274.547673,21.1850049 272.326068,20.8737343 C271.93725,20.8193164 271.877431,20.1440987 272.248456,20 C274.368975,19.1776362 275.02584,18.1672041 275.237476,15.3992905 C275.274578,14.9151886 275.814836,14.8516284 275.936365,15.3170106 C276.63109,17.978265 277.452266,18.8149951 279.67387,19.1262657 C280.062689,19.1806836 280.122507,19.8559013 279.751861,20" id="Fill-48" fill="#E7E7E7"></path>
                <path d="M294.844961,62.9999275 C293.51936,63.4934938 293.1089,64.0999233 292.976531,65.7604454 C292.953643,66.0510262 292.615662,66.088928 292.53975,65.8097178 C292.105639,64.2132077 291.592184,63.7107977 290.20364,63.5242364 C289.961027,63.4913881 289.923261,63.0866806 290.155194,62.9999275 C291.480795,62.5067823 291.891255,61.9003528 292.023624,60.2394096 C292.046893,59.9492499 292.384111,59.9109269 292.460405,60.1901372 C292.894515,61.7870684 293.40759,62.2890573 294.796514,62.4756186 C295.039128,62.5084669 295.076512,62.9135955 294.844961,62.9999275" id="Fill-50" fill="#E7E7E7"></path>
                <path d="M251.782795,42 C249.927338,42.657675 249.352496,43.4661127 249.167532,45.6803581 C249.134696,46.0679712 248.662103,46.1186624 248.555697,45.7463441 C247.947603,43.6173124 247.229361,42.9478386 245.285372,42.6991894 C244.945371,42.65549 244.892584,42.1149293 245.217205,42 C247.073078,41.342325 247.647504,40.5338873 247.832884,38.3196419 C247.865304,37.9320288 248.337897,37.8813376 248.444303,38.2536559 C249.052397,40.3826876 249.771054,41.0521614 251.714628,41.3008106 C252.054629,41.34451 252.107416,41.8850707 251.782795,42" id="Fill-52" fill="#E7E7E7"></path>
                <path d="M253.043005,45.5660219 C253.328627,38.3301406 258.15211,31.7656973 265.328364,29.6780536 C274.411307,27.0357258 283.778267,32.3449611 286.352476,41.6230135 C288.486618,49.3156693 285.235661,57.4437971 278.218665,61.4543999 C276.596797,62.3814678 274.743062,61.8923299 273.864132,60.3384773 C272.970761,58.7584063 273.51272,56.9083673 275.165879,55.9141147 C278.398382,53.9698531 280.304268,51.134574 280.688975,47.3017649 C281.255806,41.6561962 277.276353,36.4088201 271.773715,35.5165737 C265.548598,34.5067538 259.891917,38.9769988 259.286174,45.3841315 C258.821236,50.3066446 261.89047,55.0820887 266.565525,56.6728109 C267.690764,57.055846 268.540409,57.6941013 268.883396,58.9005595 C269.24604,60.17707 268.935145,61.2827511 267.989223,62.1676236 C267.094648,63.0045655 266.015943,63.1958783 264.877066,62.8066982 C259.83736,61.0852934 256.228574,57.7506348 254.243661,52.7138256 C253.936376,51.9342366 253.336249,50.4152054 253.179799,48.8560272 C252.9716,46.7864086 252.9716,47.3701787 253.043005,45.5660219" id="Fill-54" fill="#00AE00"></path>
                <path d="M264.03123,47.1009074 C263.683258,43.5128291 266.28192,40.3618582 269.890281,40.0283523 C273.30569,39.7125948 276.540516,42.0586936 276.961464,45.845307 C277.357262,49.4028414 274.655114,52.6285209 271.113957,52.9698692 C267.554247,53.3132813 264.378378,50.6815561 264.03123,47.1009074" id="Fill-56" fill="#00AE00"></path>
                <path d="M232.521915,71.7820231 C233.527997,72.1824939 234.765991,72.0209081 235.646577,71.3815522 C235.802175,71.2688789 235.923854,71.135243 235.976002,70.9404666 C236.023063,70.7635956 236.001865,70.5286411 235.903927,70.3718592 C235.708053,70.0591688 235.251013,69.8691962 234.923284,70.1067711 C234.83425,70.1714054 234.741825,70.2316726 234.646007,70.2853889 C234.597675,70.3120288 234.548494,70.3351748 234.499737,70.3605045 C234.37509,70.4247021 234.664238,70.2954335 234.501433,70.3596311 C234.303439,70.437367 234.097813,70.4897732 233.888372,70.5207802 C233.951968,70.5120458 234.015139,70.5033114 234.078735,70.4945771 C233.834104,70.527331 233.589473,70.5290778 233.344418,70.4989443 C233.408014,70.5076786 233.471609,70.516413 233.535205,70.5251474 C233.317708,70.4945771 233.107418,70.4399873 232.903065,70.3583209 C232.739836,70.2932499 232.496053,70.3452194 232.351055,70.4329998 C232.202242,70.5225271 232.060635,70.6980879 232.02163,70.8740854 C231.927933,71.2968289 232.146701,71.6326654 232.521915,71.7820231" id="Fill-58" fill="#000000"></path>
                <path d="M230.591748,29.8640975 C231.063916,29.9652225 231.556866,30.0358648 232.039184,29.9807057 C232.294841,29.9511908 232.547599,29.9119988 232.794074,29.8374856 C233.069546,29.7537793 233.336319,29.6386226 233.597292,29.5181435 C233.772724,29.4368564 233.923509,29.2084784 233.972321,29.0289695 C234.026449,28.8334934 234.002284,28.5726973 233.890162,28.3989946 C233.777557,28.2243241 233.610341,28.0704593 233.402045,28.0230418 C233.176352,27.9717535 232.982071,28.0090101 232.772326,28.1057805 C232.707566,28.1357793 232.641839,28.1648104 232.576113,28.1928738 C232.640873,28.1652942 232.706116,28.1377147 232.771359,28.1101351 C232.477039,28.2325496 232.17402,28.3264168 231.857952,28.3694796 C231.930445,28.3598026 232.002454,28.3501256 232.074947,28.3404485 C231.790292,28.3757697 231.505638,28.3680281 231.221467,28.3312553 C231.29396,28.3414162 231.366452,28.3510933 231.438462,28.3607703 C231.300242,28.3414162 231.16299,28.3162559 231.02622,28.286741 C230.811642,28.2407751 230.590298,28.2557745 230.396501,28.3694796 C230.227351,28.4686692 230.065934,28.6631776 230.021472,28.857686 C229.927715,29.2694438 230.145193,29.7682949 230.591748,29.8640975" id="Fill-60" fill="#000000"></path>
                <path d="M205.026095,142.369591 C205.040823,142.536361 205.482242,142.726545 205.663882,142.781998 C205.932252,142.864561 206.461627,142.992309 207.399693,142.999702 C209.785564,143.019008 210.723631,142.093558 211.129458,141.785485 C211.45592,141.537383 212.234028,140.918773 212.580127,140.617273 C212.686493,140.524851 212.792449,140.367939 212.812495,140.238959 L212.884497,139.555448 C212.890224,139.506978 212.855042,139.461383 212.801041,139.449061 C212.779767,139.444131 212.767085,139.440435 212.767085,139.440435 L212.747858,139.598579 C212.747858,139.598579 212.745812,139.599811 212.744994,139.600632 L212.947089,138.101755 C213.118093,138.081628 213.219141,138.063965 213.219141,138.063965 C213.219141,138.063965 215.088728,131.846234 215.366507,130.26808 C215.615239,128.855874 217.631693,122.608568 217.631693,122.608568 C217.631693,122.608568 219.088498,127.81007 219.511099,129.71971 C219.91038,131.523374 221.217864,137.937861 221.217864,137.937861 C221.337321,137.990849 221.480915,138.031515 221.638009,138.062322 L221.902288,140.442698 C221.901061,140.442698 221.871196,140.444752 221.854423,140.448038 C221.823741,140.454199 221.796331,140.476791 221.795104,140.494865 C221.792649,140.525262 221.793877,140.559355 221.794695,140.596734 C221.802877,140.924524 221.829468,141.165232 221.829468,141.165232 C221.829468,141.165232 222.058564,142.072198 223.096042,142.483372 C224.243976,142.938909 227.731554,142.636177 227.977014,142.132169 C227.977014,142.132169 228.185246,141.075274 227.348227,140.510063 C227.109722,140.348633 226.814761,140.158039 226.508345,139.956354 C226.400343,139.885292 226.273522,139.834768 226.138519,139.815462 C226.126655,139.813819 226.113973,139.813408 226.102109,139.811765 C225.91065,139.683196 225.722055,139.552573 225.547778,139.425647 L225.586234,139.419486 C225.56946,139.418253 225.552278,139.418253 225.535505,139.417021 C225.137042,139.1262 224.814262,138.852221 224.706669,138.652179 C224.706259,138.651768 224.70585,138.651357 224.70585,138.651357 C224.539347,138.340409 224.439117,138.050821 224.378979,137.823258 C224.673122,137.721799 224.844126,137.635128 224.844126,137.635128 C224.844126,137.635128 224.435844,132.885056 224.216567,130.341196 C223.997698,127.797336 223.022404,117 223.022404,117 L212.452078,117.138427 L209.734427,137.769448 C209.734427,137.769448 209.826884,137.822025 210.012206,137.888569 C209.650971,138.495678 209.002138,139.096214 208.458853,139.408806 C208.438398,139.40593 208.418352,139.401412 208.397897,139.398537 L208.441262,139.419075 C208.421216,139.430576 208.400761,139.442899 208.381124,139.453579 C208.266985,139.514372 208.159392,139.571057 208.054253,139.625278 C208.022753,139.641709 207.99207,139.657318 207.961797,139.672927 C207.88775,139.711128 207.815748,139.747686 207.746201,139.782601 C207.718382,139.796567 207.689336,139.811354 207.661517,139.824909 C207.565788,139.815873 207.466786,139.810122 207.363283,139.8093 C207.352647,139.8093 207.341192,139.812176 207.331783,139.816694 C206.028799,140.455432 205.585335,140.540871 205.249873,140.993943 C204.935275,141.419084 204.994594,142.022085 205.026095,142.369591" id="Fill-62" fill="#000000"></path>
                <path d="M224.62664,119.411413 C224.62664,119.411413 222.604565,119.887706 219.344148,119.990492 C215.474383,120.112701 212.3194,119.016458 212.3194,119.016458 L213.574178,107.725839 C213.574178,107.725839 209.579736,103.849937 208.656894,102.732246 C206.789561,100.470156 205,94.1310448 205,94.1310448 L207.520779,93 L211.114734,98.8838609 C211.114734,98.8838609 214.835369,104.091118 222.133522,105.136778 C229.404014,106.177987 233.392041,100.434141 233.392041,100.434141 L235,102.53841 C235,102.53841 232.259134,107.180752 229.280942,108.262832 C226.303151,109.345317 224.037336,109.416538 224.037336,109.416538 L224.62664,119.411413 Z" id="Fill-64" fill="#000000"></path>
                <mask id="mask-8" fill="white">
                    <use xlink:href="#path-7"></use>
                </mask>
                <g id="Clip-67"></g>
                <polygon id="Fill-66" fill="#000000" mask="url(#mask-8)" points="217 106 221 106 221 101 217 101"></polygon>
                <path d="M218.871454,93.092803 C217.028058,92.7676186 215.85008,93.3289383 215.612051,94.2783527 C215.612051,94.2783527 214.58921,94.3775915 214.15802,95.8165547 C213.873981,96.764197 214.032161,98.0259479 214.173229,98.7790998 C213.782724,99.3568116 214.234828,100.845837 215.042834,100.840521 C215.142076,100.839635 215.229151,100.828116 215.30824,100.810395 C215.320788,100.846723 215.351588,100.876849 215.385809,100.878621 L215.445126,103.315732 C215.445126,103.315732 216.061112,103.833192 217.038705,103.970531 C217.625033,104.053378 218.495398,103.970088 219.147887,103.611234 L219.150169,103.585981 C219.331922,103.58288 219.52014,103.565159 219.715203,103.525729 C221.387871,103.188583 221.233494,99.4773159 221.002309,97.3463391 C221.029306,97.2807705 221.028546,97.1970378 220.979875,97.1452032 C220.956301,96.9431813 220.933106,96.7588806 220.911052,96.5962884 C221.155165,96.7455897 221.319048,96.9112831 221.408404,97.0184965 C221.446048,97.0641286 221.512209,97.0388759 221.519814,96.9759655 C221.54605,96.7540073 221.57685,96.3955956 221.318288,96.0845881 C221.318288,96.0845881 221.491676,96.154587 221.88066,96.4855308 C221.941878,96.5373653 222.027052,96.445215 221.99169,96.22813 C221.868492,95.4701048 221.058965,93.4777965 218.871454,93.092803 Z" id="Fill-68" fill="#000000" mask="url(#mask-8)"></path>
                <path d="M206.228232,93.3248299 L205.64281,92.1534405 C205.64281,92.1534405 205.968002,92.054525 206.219006,91.4885313 C206.470011,90.9225376 206.386215,90.6450817 206.386215,90.6450817 C206.386215,90.6450817 206.851323,89.999463 206.97202,89.4141788 C207.092718,88.8284841 206.814037,88.4016288 206.307415,88.4213298 C206.307415,88.4213298 206.265517,88.2029769 205.754282,87.7166082 C205.243048,87.2302394 204.982818,86.9802828 204.610731,87.0012151 C204.239029,87.0221474 203.160823,87.4387418 203.039741,87.826195 C202.919044,88.2128274 203.002456,88.2727513 202.835248,88.4016288 C202.668039,88.5305063 202.361298,88.8481851 202.361298,89.1063504 C202.361298,89.3645158 202.333238,89.4933933 202.203315,89.7220071 C202.073008,89.9502105 201.850064,90.6151197 202.147579,91.2701784 C202.445095,91.9252371 202.788737,92.7292847 203.392993,92.98745 L203.839266,94 L206.228232,93.3248299 Z" id="Fill-69" fill="#000000" mask="url(#mask-8)"></path>
                <path d="M203.1075,92.5731407 C203.3765,92.5851407 203.6475,92.5341407 203.8925,92.4251407" id="Fill-70" fill="#000000" mask="url(#mask-8)"></path>
                <path d="M203.218739,92.8786845 C203.334833,92.8856845 203.450927,92.8696845 203.564155,92.8396845 C203.678816,92.8096845 203.786311,92.7536845 203.891655,92.6896845 C203.938953,92.6606845 203.979801,92.5726845 203.9927,92.5066845 C204.007033,92.4336845 204.000583,92.3366845 203.970485,92.2716845 C203.940386,92.2056845 203.895238,92.1486845 203.839341,92.1306845 C203.819992,92.1276845 203.800643,92.1236845 203.781294,92.1196845 C203.741879,92.1196845 203.705331,92.1336845 203.670933,92.1616845 C203.664483,92.1656845 203.658034,92.1696845 203.651584,92.1726845 L203.704615,92.1426845 C203.602853,92.2016845 203.496075,92.2426845 203.387147,92.2646845 C203.406496,92.2606845 203.425845,92.2566845 203.445194,92.2536845 C203.369948,92.2676845 203.294702,92.2726845 203.218739,92.2676845 C203.104078,92.2606845 202.99515,92.4136845 203.000167,92.5736845 C203.005183,92.7446845 203.096195,92.8716845 203.218739,92.8786845" id="Fill-71" fill="#000000" mask="url(#mask-8)"></path>
                <path d="M204,92 C204.042097,92.0998797 204.123338,92.1847172 204.20384,92.2665463 C204.456425,92.5204573 204.722304,92.7647413 205,93" id="Fill-72" fill="#000000" mask="url(#mask-8)"></path>
                <path d="M204.007595,92.1712464 C204.075721,92.3339942 204.222649,92.4646323 204.350767,92.5943907 C204.474817,92.7201903 204.603443,92.8424711 204.736136,92.961233 C204.792569,93.0118168 204.899841,93.0140161 204.955766,92.961233 C205.013724,92.9066905 205.015757,92.8253166 204.955766,92.771214 C204.830699,92.65905 204.708682,92.5438069 204.591241,92.4254849 C204.5343,92.3678633 204.477867,92.309802 204.422452,92.2513007 C204.408216,92.2359057 204.393981,92.2205106 204.379746,92.2051155 C204.389914,92.216112 204.382288,92.2077547 204.377204,92.2015967 C204.371103,92.1945589 204.36551,92.1875212 204.359918,92.1804834 C204.347208,92.1646485 204.335515,92.1483737 204.324838,92.1316591 C204.319754,92.1241815 204.315687,92.116264 204.311111,92.1087864 C204.298401,92.0903123 204.322296,92.1356178 204.307044,92.0995494 C204.27959,92.0340104 204.20028,91.9821071 204.115885,92.0058594 C204.04115,92.0269727 203.977599,92.1004291 204.007595,92.1712464" id="Fill-73" fill="#000000" mask="url(#mask-8)"></path>
                <path d="M203.565492,92.3052998 C203.350944,92.3323034 203.190157,92.5034528 203.211562,92.6688973 C203.233465,92.8343418 203.423124,92.974304 203.638668,92.9963633 C203.760129,93.0085339 203.882586,92.987996 204.001559,92.9666974 C204.237512,92.9244805 204.478444,92.876939 204.676566,92.7708263 C204.875185,92.6643333 205.024523,92.4855772 204.996646,92.3014965 C204.987188,92.243686 204.961801,92.1881575 204.928946,92.1356717 C204.826401,91.9713682 204.658147,91.8424356 204.500845,91.7085587 C204.355489,91.5849508 204.252446,91.425972 204.101615,91.312633 C203.750173,91.0471612 203.465436,91.014833 203,91" id="Fill-74" fill="#000000" mask="url(#mask-8)"></path>
                <path d="M203.585564,91.7619445 C203.199347,91.8596783 203.063086,92.4179377 203.309571,92.7633319 C203.59164,93.1583605 204.104571,92.9772204 204.448696,92.8052909 C204.821027,92.6185222 205.118284,92.1759059 204.953382,91.6857019 C204.875705,91.453904 204.73467,91.2656002 204.594504,91.0834368 C204.452601,90.8992265 204.351056,90.6791976 204.207852,90.4975459 C204.069421,90.3225461 203.898444,90.1813183 203.707071,90.1004704 C203.522641,90.0226928 203.321721,90.0104121 203.127745,90.0001782 C202.957202,89.9914794 202.957635,90.3041251 203.127745,90.3128239 C203.463624,90.3302215 203.749165,90.3952068 203.994348,90.6873847 C204.137118,90.8572675 204.232587,91.0757613 204.367981,91.2538313 C204.50077,91.428831 204.655691,91.6058775 204.718614,91.8351169 C204.86312,92.3631863 204.260794,92.5724696 203.946179,92.657411 C203.770428,92.7039752 203.57081,92.7152325 203.473605,92.4972504 C203.392022,92.3145752 203.490963,92.1052919 203.655865,92.0633329 C203.822502,92.0208622 203.752202,91.7194738 203.585564,91.7619445" id="Fill-75" fill="#000000" mask="url(#mask-8)"></path>
                <path d="M205.309781,91.9846209 C205.469823,92.0278363 205.648216,91.9781845 205.769421,91.8581927 C205.865446,91.7621073 205.923061,91.6292428 205.958911,91.4936199 C206.019086,91.26467 206.020793,91.007676 205.912392,90.8003338 C205.863739,90.708386 205.795881,90.6297707 205.730584,90.5506956 C205.495003,90.2661173 205.284175,89.9594715 205.092551,89.6390336 C204.743874,89.0556251 204.189063,88.9816071 204,89.0032149" id="Fill-76" fill="#000000" mask="url(#mask-8)"></path>
                <path d="M205.242097,92.9798312 C205.648066,93.1027024 205.923383,92.6465643 205.985869,92.0899973 C206.016544,91.8156411 206.000259,91.5289418 205.907477,91.2831995 C205.806742,91.0161371 205.639356,90.8006918 205.512491,90.5616822 C205.275802,90.115082 205.106522,89.5691751 204.769476,89.2645219 C204.579368,89.0922779 204.335862,88.9744563 204.110913,89.0047533 C203.963598,89.0243902 203.962462,89.3677562 204.110913,89.3475582 C204.268453,89.3262381 204.434325,89.3907594 204.574066,89.4956768 C204.855442,89.7066337 204.992154,90.0853461 205.169386,90.4505932 C205.266334,90.6514511 205.368584,90.8466984 205.476514,91.035213 C205.585959,91.227655 205.720398,91.4004601 205.757132,91.6568624 C205.818104,92.0782151 205.66738,92.7593364 205.303826,92.6493696 C205.158404,92.6056072 205.096297,92.9355078 205.242097,92.9798312" id="Fill-77" fill="#000000" mask="url(#mask-8)"></path>
                <path d="M205.547076,90.9915982 C205.634709,91.0176031 205.728782,90.9811963 205.801016,90.9106118 C205.87353,90.8400272 205.926166,90.7386084 205.964243,90.6308741 C205.978802,90.5896379 205.991681,90.5469157 205.997,90.502336 C206.007639,90.4139196 205.988881,90.3229027 205.958083,90.2434022 C205.927006,90.1639017 205.884729,90.0936887 205.844132,90.0223612 C205.592433,89.5810221 205.479322,89.1133067 205,89" id="Fill-78" fill="#000000" mask="url(#mask-8)"></path>
                <path d="M205.042855,90.9881126 C205.469592,91.0663741 205.807146,90.7473077 205.955305,90.3514848 C206.11593,89.9240562 205.808105,89.6014781 205.593777,89.2748865 C205.420206,89.0105029 205.265813,88.7280589 205.054363,88.4927725 C204.819418,88.2319006 204.519263,88.069859 204.183628,88.003136 C203.999508,87.9665136 203.920393,88.2620012 204.105473,88.2986236 C204.36583,88.3502963 204.599816,88.4571534 204.792087,88.6513023 C204.965659,88.8268892 205.094639,89.0416068 205.226975,89.2513077 C205.2965,89.3621783 205.366983,89.4725471 205.442262,89.5789026 C205.534322,89.7088369 205.649397,89.8392728 205.693509,89.997301 C205.780295,90.3103473 205.437946,90.7508195 205.120531,90.692625 C204.936411,90.6585109 204.857297,90.9539985 205.042855,90.9881126" id="Fill-79" fill="#000000" mask="url(#mask-8)"></path>
                <path d="M205.9335,89.568 C205.6415,89.552 205.3505,89.506 205.0665,89.432" id="Fill-80" fill="#000000" mask="url(#mask-8)"></path>
                <path d="M205.557948,89.2285072 C205.576247,89.2325072 205.595224,89.2365072 205.612846,89.2395072 C205.494239,89.2155072 205.376988,89.1805072 205.260415,89.1365072 C205.156041,89.0965072 205.030657,89.1875072 205.00558,89.3495072 C204.981181,89.5095072 205.038112,89.6825072 205.150619,89.7255072 C205.360044,89.8055072 205.576925,89.8545072 205.793128,89.8725072 C205.901568,89.8815072 206.004587,89.7255072 205.999842,89.5675072 C205.995098,89.3935072 205.909023,89.2715072 205.793128,89.2615072 C205.714509,89.2555072 205.636567,89.2435072 205.557948,89.2285072 Z" id="Fill-81" fill="#000000" mask="url(#mask-8)"></path>
                <path d="M206,89.9898706 C206.059326,90.0090983 206.128769,89.9991284 206.185336,89.9752718 C206.241443,89.9514152 206.287432,89.9150962 206.331121,89.8787772 C206.523815,89.7185464 206.700873,89.5469213 206.859535,89.3656824 C206.907364,89.3112039 206.953813,89.2549451 206.980027,89.192277 C207.00624,89.129609 207.00946,89.0591074 206.972668,89" id="Fill-82" fill="#000000" mask="url(#mask-8)"></path>
                <path d="M205.080765,89.9887431 C205.224924,90.0285445 205.352866,89.9562581 205.44765,89.8743141 C205.53811,89.795882 205.623164,89.7136453 205.704253,89.6287747 C205.860666,89.4651793 206.084473,89.2626605 205.967344,89.0437529 C205.943918,88.999269 205.863549,88.989026 205.816697,89.0115606 C205.760475,89.0381924 205.753628,89.0894075 205.777414,89.1338914 C205.808408,89.1915448 205.752907,89.2638312 205.716507,89.3103637 C205.661366,89.3806014 205.600098,89.4482052 205.537389,89.5140531 C205.473238,89.5810716 205.405484,89.6463341 205.335566,89.7092554 C205.290517,89.7496421 205.218077,89.8380246 205.13951,89.816368 C205.082928,89.8005645 205.019137,89.8342201 205.004001,89.878704 C204.987422,89.9278704 205.024183,89.9729396 205.080765,89.9887431" id="Fill-83" fill="#000000" mask="url(#mask-8)"></path>
                <path d="M206,90.8217878 C205.841631,90.9016744 205.675507,90.9822353 205.490607,90.9977407 C205.306115,91.0135832 205.097541,90.9458312 205.028561,90.8032487 C205.003662,90.7523504 204.998356,90.696396 205.000397,90.6414529 C205.007744,90.4149388 205.127745,90.2022447 205.251828,90" id="Fill-84" fill="#000000" mask="url(#mask-8)"></path>
                <path d="M205.851566,90.6929495 C205.741892,90.7502646 205.624359,90.8137307 205.493732,90.8271508 C205.405992,90.8363772 205.298936,90.8168062 205.240661,90.756136 C205.166672,90.6792498 205.201702,90.5456076 205.228875,90.4580971 C205.264561,90.3420688 205.325127,90.2344282 205.387986,90.1279058 C205.41254,90.0868067 205.400754,90.0353628 205.3523,90.0110388 C205.307776,89.9889515 205.239679,90.0004146 205.215452,90.0417933 C205.138516,90.1715213 205.062562,90.3054431 205.025568,90.4483116 C204.988573,90.5909005 204.976787,90.7552972 205.095301,90.8727234 C205.185988,90.9624705 205.337568,91.0058064 205.473761,90.9993759 C205.649568,90.9912679 205.805405,90.916898 205.952402,90.8402914 C206.062404,90.7832558 205.961896,90.6353547 205.851566,90.6929495" id="Fill-85" fill="#000000" mask="url(#mask-8)"></path>
                <path d="M232,101.635769 L232.84603,100.739872 C232.84603,100.739872 232.606658,100.517643 232.627603,99.9578456 C232.648174,99.3976807 232.837053,99.2136528 232.837053,99.2136528 C232.837053,99.2136528 232.706895,98.4966417 232.848274,97.9783515 C232.989653,97.4600612 233.409676,97.243709 233.839049,97.4824678 C233.839049,97.4824678 233.966589,97.3274583 234.612519,97.1665716 C235.258075,97.0053175 235.58796,96.921201 235.900265,97.1011884 C236.212571,97.2815431 236.968836,98.0874459 236.910863,98.4481553 C236.852517,98.8088648 236.755272,98.8195171 236.845784,98.995464 C236.935923,99.1717782 237.067577,99.5589347 236.959112,99.7639 C236.85102,99.9688652 236.820725,100.083469 236.837182,100.322228 C236.854013,100.560987 236.76724,101.18727 236.235386,101.57663 C235.703532,101.965991 235.068822,102.453426 234.438601,102.392451 L233.628477,103 L232,101.635769 Z" id="Fill-86" fill="#000000" mask="url(#mask-8)"></path>
                <path d="M233,99.9009501 L233.170101,103.999782 C233.170101,103.999782 236,104.006579 236,103.944275 C236,103.881971 235.894106,99 235.894106,99 L233,99.9009501 Z" id="Fill-87" fill="#7A7A7A" mask="url(#mask-8)"></path>
                <path d="M234.851965,98 C234.713965,97.9939551 234.597965,97.9645941 234.527965,97.9300518 C234.456965,97.8952216 234.424965,97.855498 234.395965,97.8160622 C234.268965,97.6427749 234.187965,97.4666091 234.154965,97.2898676 C234.144965,97.2369027 234.139965,97.1827864 234.181965,97.1309729 C234.223965,97.0791595 234.319965,97.0290731 234.474965,97" id="Fill-88" fill="#000000" mask="url(#mask-8)"></path>
                <path d="M234.833606,98.7072792 C234.658711,98.6818142 234.646545,98.4952341 234.61917,98.4041478 C234.578868,98.2689874 234.54541,98.133827 234.520316,97.9971975 C234.495983,97.8600783 234.476213,97.7214899 234.470129,97.5833913 C234.465567,97.485449 234.462525,97.344412 234.602441,97.2797701 C234.704336,97.2327578 234.753763,97.1495069 234.686086,97.0750707 C234.626774,97.0104288 234.470129,96.9741901 234.368234,97.0216922 C233.873967,97.2498977 233.998674,97.6921072 234.061789,98.0295185 C234.097528,98.2180574 234.142392,98.4070861 234.206267,98.5926867 C234.2671,98.7719211 234.408536,98.952135 234.709659,98.9957193 C235.000896,99.0383242 235.125603,98.7498841 234.833606,98.7072792" id="Fill-89" fill="#000000" mask="url(#mask-8)"></path>
                <path d="M235.798,100.766 C235.562,100.638 235.356,100.454 235.202,100.234" id="Fill-90" fill="#000000" mask="url(#mask-8)"></path>
                <path d="M235.874083,100.501962 C235.806977,100.46341 235.743185,100.419601 235.683535,100.370535 C235.700104,100.384554 235.717502,100.398573 235.734072,100.412592 C235.635484,100.331983 235.54601,100.238232 235.469791,100.133091 C235.483046,100.151491 235.496301,100.169891 235.509557,100.187414 C235.496301,100.169014 235.483046,100.150615 235.470619,100.132215 C235.432509,100.073511 235.386115,100.02795 235.319838,100.00955 C235.25936,99.9911503 235.17817,99.9990359 235.12432,100.035835 C235.070469,100.072635 235.023247,100.127834 235.008334,100.196176 C234.99425,100.262765 234.995079,100.343374 235.034017,100.402078 C235.187283,100.632512 235.38363,100.828776 235.618086,100.963707 C235.676907,100.997878 235.748156,101.010145 235.813604,100.990869 C235.872426,100.974222 235.936218,100.926032 235.964386,100.868204 C235.995867,100.805996 236.011608,100.730644 235.990068,100.662302 C235.970185,100.596589 235.932075,100.536133 235.874083,100.501962" id="Fill-91" fill="#000000" mask="url(#mask-8)"></path>
                <path d="M235,100.138 C234.933598,100.251 234.850842,100.315 234.769574,100.374 C234.516353,100.56 234.259663,100.722 234,100.862" id="Fill-92" fill="#000000" mask="url(#mask-8)"></path>
                <path d="M234.801701,100.065206 C234.765166,100.123023 234.712647,100.157564 234.66203,100.193606 C234.599616,100.237908 234.536821,100.280709 234.474026,100.322007 C234.345391,100.405355 234.215615,100.481194 234.085077,100.550275 C234.024566,100.581812 233.987269,100.713216 234.004015,100.831856 C234.02076,100.952748 234.086219,101.024081 234.147111,100.992544 C234.287163,100.918207 234.426073,100.836361 234.563842,100.745504 C234.702752,100.653897 234.850415,100.573552 234.96611,100.389586 C235.015204,100.311495 235.007212,100.14555 234.96611,100.065206 C234.917777,99.9698436 234.850796,99.9871138 234.801701,100.065206" id="Fill-93" fill="#000000" mask="url(#mask-8)"></path>
                <path d="M234.989428,101.298437 C235.112066,101.425773 235.128271,101.674145 235.032149,101.831627 C234.935658,101.98911 234.745255,102.042654 234.597941,101.964363 C234.514709,101.920268 234.447313,101.842426 234.382495,101.765035 C234.253964,101.612502 234.125064,101.45187 234.05288,101.251642 C233.980328,101.051415 233.974804,100.800343 234.084553,100.627112 C234.119172,100.572668 234.162997,100.528573 234.210138,100.490328 C234.357083,100.371541 234.528336,100.319797 234.6948,100.257704 C234.848743,100.20011 234.993479,100.087173 235.14558,100.042178 C235.500975,99.9373394 235.69727,100.037228 236,100.239256" id="Fill-94" fill="#000000" mask="url(#mask-8)"></path>
                <path d="M234.375121,101.348364 C234.504996,101.445013 234.507982,101.618109 234.360193,101.706439 C234.193992,101.805465 234.00092,101.752783 233.8596,101.655342 C233.583925,101.464422 233.129112,101.110703 233.347562,100.786297 C233.453552,100.629044 233.713303,100.564084 233.913341,100.514175 C234.028786,100.48526 234.145226,100.460701 234.257188,100.425052 C234.373628,100.387819 234.48559,100.341079 234.603025,100.306222 C234.791618,100.250768 235.006087,100.223437 235.20513,100.250768 C235.408651,100.278099 235.592268,100.357715 235.771407,100.434955 C235.943081,100.509422 236.096842,100.300677 235.92467,100.22621 C235.733589,100.143424 235.535541,100.059451 235.321072,100.022614 C235.114565,99.9869645 234.904077,99.9960748 234.699063,100.031724 C234.441303,100.077276 234.211906,100.189768 233.959619,100.249976 C233.737188,100.303053 233.505801,100.357715 233.315217,100.467831 C232.902203,100.706284 232.928079,101.134469 233.202261,101.443824 C233.334127,101.592362 233.500327,101.730998 233.675485,101.847451 C233.844174,101.959944 234.038738,102.02134 234.260174,101.993217 C234.739867,101.931821 234.956326,101.44937 234.590087,101.177248 C234.447274,101.071093 234.23181,101.241813 234.375121,101.348364" id="Fill-95" fill="#000000" mask="url(#mask-8)"></path>
                <path d="M233.366022,101 C233.203354,100.948975 233.069782,100.809897 233.022172,100.642372 C232.98426,100.509617 232.999249,100.366024 233.034956,100.232365 C233.094469,100.007042 233.220547,99.7898462 233.418922,99.6747009 C233.507088,99.6236758 233.605835,99.594325 233.703259,99.5636196 C234.052399,99.4529899 234.390518,99.3103001 234.718498,99.1450328 C235.315827,98.8443006 235.843504,99.0854282 236,99.2064436" id="Fill-96" fill="#000000" mask="url(#mask-8)"></path>
                <path d="M233.65182,100.759027 C233.192431,100.639753 233.294277,100.217342 233.516387,99.9823604 C233.64532,99.8456513 233.825175,99.7874013 234.036451,99.7390578 C234.260728,99.6875442 234.482297,99.6308793 234.700074,99.5662892 C235.103123,99.4470154 235.498588,99.2540376 235.942809,99.2425461 C236.225594,99.2354134 236.529506,99.2833607 236.761367,99.4065971 C236.933638,99.4981327 237.098867,99.2885121 236.928221,99.1977689 C236.622684,99.035303 236.196882,98.9790343 235.828503,99.0067724 C235.540843,99.0281703 235.293271,99.1078183 235.034865,99.1969764 C234.753163,99.2936634 234.464961,99.3800477 234.1708,99.4529593 C233.927562,99.5131906 233.667531,99.5524201 233.462756,99.6720901 C233.264481,99.7881938 233.13284,99.9546224 233.056998,100.130561 C232.903687,100.48759 233.055372,100.860469 233.56406,100.992423 C233.765043,101.044729 233.85172,100.810937 233.65182,100.759027" id="Fill-97" fill="#000000" mask="url(#mask-8)"></path>
                <path d="M234.302026,99 C234.185768,98.9734117 234.095133,98.9054929 234.047712,98.8275706 C234.000291,98.7496483 233.992643,98.6625123 234.005645,98.5785352 C234.010234,98.5466818 234.017883,98.5145652 234.035475,98.4845546 C234.069893,98.4258496 234.140259,98.380044 234.218657,98.3466111 C234.296672,98.3134415 234.383865,98.2913284 234.469146,98.2676358 C234.998042,98.1217947 235.378939,97.8927664 236,98.0567718" id="Fill-98" fill="#000000" mask="url(#mask-8)"></path>
                <path d="M233.605506,99.7234127 C233.320092,99.628654 233.247966,99.2509795 233.349458,99.0256443 C233.407159,98.8973347 233.560169,98.8288727 233.696179,98.7771862 C233.844552,98.7205124 233.994987,98.670186 234.141815,98.609885 C234.392711,98.5069653 234.63897,98.3890837 234.906868,98.3224353 C235.214434,98.2462656 235.511182,98.2689352 235.809475,98.3655074 C235.999579,98.4276219 236.082008,98.159668 235.892935,98.0984603 C235.518909,97.9769515 235.129943,97.9665236 234.750251,98.0748839 C234.401985,98.1741765 234.085145,98.3410243 233.747182,98.4620796 C233.56223,98.5287281 233.373672,98.5885756 233.224268,98.7105378 C233.072803,98.8347668 233.017678,98.9934536 233.003252,99.1707294 C232.974402,99.5162131 233.136686,99.8626036 233.522046,99.9904598 C233.711634,100.053481 233.793549,99.7859806 233.605506,99.7234127" id="Fill-99" fill="#000000" mask="url(#mask-8)"></path>
                <path d="M234.0935,98.3345 C234.3525,98.4715 234.6255,98.5825 234.9065,98.6655" id="Fill-100" fill="#000000" mask="url(#mask-8)"></path>
                <path d="M234.104346,98.5979187 C234.303249,98.7459187 234.513436,98.8689187 234.729267,98.9599187 C234.837182,99.0049187 234.968373,98.9049187 234.993765,98.7459187 C235.020567,98.5819187 234.959204,98.4189187 234.84353,98.3699187 C234.730677,98.3229187 234.619941,98.2669187 234.51132,98.2019187 L234.562809,98.2329187 C234.480991,98.1829187 234.400584,98.1289187 234.321587,98.0709187 C234.270804,98.0329187 234.212261,98.0169187 234.155835,98.0399187 C234.105757,98.0589187 234.051447,98.1139187 234.02676,98.1799187 C233.974566,98.3209187 233.997842,98.5179187 234.104346,98.5979187" id="Fill-101" fill="#000000" mask="url(#mask-8)"></path>
                <path d="M234,99.4590242 C234.074231,99.6208674 234.154118,99.7875298 234.282432,99.8971655 C234.411099,100.006801 234.602686,100.043748 234.730647,99.9333091 C234.7766,99.8939527 234.810534,99.8393357 234.839166,99.7827106 C234.956522,99.5473754 234.982326,99.2694709 235,99" id="Fill-102" fill="#000000" mask="url(#mask-8)"></path>
                <path d="M234.010945,99.516388 C234.075257,99.6533823 234.145972,99.7913437 234.257428,99.8880455 C234.366555,99.982491 234.521953,100.032131 234.656107,99.9770113 C234.801902,99.9173784 234.877273,99.7558863 234.924707,99.6014857 C234.974469,99.4403159 234.988437,99.2675418 234.999786,99.0983136 C235.00357,99.0454499 234.956426,99 234.911029,99 C234.859812,99 234.825764,99.0451275 234.821981,99.0983136 C234.81296,99.2327292 234.80132,99.3668224 234.768145,99.4964029 C234.742536,99.5963282 234.698885,99.7465385 234.603726,99.789732 C234.522826,99.8261563 234.421265,99.7871532 234.357534,99.7259087 C234.270523,99.6424228 234.216978,99.5283146 234.164596,99.4171074 C234.111633,99.3046109 233.957981,99.4038915 234.010945,99.516388" id="Fill-103" fill="#000000" mask="url(#mask-8)"></path>
                <path d="M233.054745,97.6626101 L233,98.9137226 L233.67265,98.7517028 L233.923042,99.2675506 L234.45479,98.9871038 L234.491138,99.6202888 L234.854611,100.13541 L235.272829,100.400236 L235.285394,100.667605 L235.618353,100.562256 C235.618353,100.562256 235.596365,100.85796 235.89208,100.93679 C236.015481,100.969848 236.533318,101 236.533318,101 L237,100.03224 L236.873009,98.6045772 L236.47274,97.2651894 L235.836437,97 L234.018174,97.2797203 L233.054745,97.6626101 Z" id="Fill-104" fill="#000000" mask="url(#mask-8)"></path>
            </g>
        </g>
    </g>
</svg>