<?xml version="1.0" encoding="UTF-8"?>
<svg width="1440px" height="951px" viewBox="0 0 1440 951" version="1.1" xmlns="http://www.w3.org/2000/svg" xmlns:xlink="http://www.w3.org/1999/xlink">
    <!-- Generator: Sketch 62 (91390) - https://sketch.com -->
    <title>Group 168</title>
    <desc>Created with Sketch.</desc>
    <defs>
        <polygon id="path-1" points="0.6445 0.1853 585.5445 0.1853 585.5445 455.929 0.6445 455.929"></polygon>
        <polygon id="path-3" points="0.8105 0.8356 1050.321 0.8356 1050.321 74.929 0.8105 74.929"></polygon>
        <polygon id="path-5" points="0.321 0.3758 1185.2381 0.3758 1185.2381 623.929 0.321 623.929"></polygon>
        <polygon id="path-7" points="0.321 0.4024 234.9287 0.4024 234.9287 67.0653046 0.321 67.0653046"></polygon>
        <polygon id="path-9" points="0.844899554 0.624529632 185.321 0.624529632 185.321 91.0842038 0.844899554 91.0842038"></polygon>
        <polygon id="path-11" points="0.321 989.999 1440.321 989.999 1440.321 -0.001 0.321 -0.001"></polygon>
    </defs>
    <g id="Page-1-Copy" stroke="none" stroke-width="1" fill="none" fill-rule="evenodd">
        <g id="Home-Page-Copy-10" transform="translate(0.000000, -2759.000000)">
            <g id="Group-168" transform="translate(0.000000, 2720.000000)">
                <g id="Group-3" transform="translate(450.000000, 534.070000)">
                    <mask id="mask-2" fill="white">
                        <use xlink:href="#path-1"></use>
                    </mask>
                    <g id="Clip-2"></g>
                    <path d="M0.6445,399.0823 C0.6445,399.0823 183.0895,0.1853 277.5335,0.1853 C371.9755,0.1853 585.5445,486.3503 585.5445,486.3503" id="Fill-1" fill="#E8E8E8" mask="url(#mask-2)"></path>
                </g>
                <g id="Group-6" transform="translate(390.000000, 915.070000)">
                    <mask id="mask-4" fill="white">
                        <use xlink:href="#path-3"></use>
                    </mask>
                    <g id="Clip-5"></g>
                    <path d="M0.8105,399.7336 C0.8105,399.7336 457.9155,0.8356 694.5355,0.8356 C931.1545,0.8356 1466.2375,487.0006 1466.2375,487.0006" id="Fill-4" fill="#E8E8E8" mask="url(#mask-4)"></path>
                </g>
                <g id="Group-9" transform="translate(0.000000, 366.070000)">
                    <mask id="mask-6" fill="white">
                        <use xlink:href="#path-5"></use>
                    </mask>
                    <g id="Clip-8"></g>
                    <path d="M-212.7539,721.4348 C-212.7539,721.4348 49.6741,0.3758 372.7681,0.3758 C695.8641,0.3758 1185.2381,1030.5718 1185.2381,1030.5718" id="Fill-7" fill="#00660C" mask="url(#mask-6)"></path>
                </g>
                <path d="M398.0977,99.5805 C398.0977,102.2795 395.9097,104.4685 393.2097,104.4685 C390.5107,104.4685 388.3227,102.2795 388.3227,99.5805 C388.3227,96.8805 390.5107,94.6925 393.2097,94.6925 C395.9097,94.6925 398.0977,96.8805 398.0977,99.5805" id="Fill-10" fill="#7A7A7A"></path>
                <g id="Group-14" transform="translate(0.000000, 423.070000)">
                    <mask id="mask-8" fill="white">
                        <use xlink:href="#path-7"></use>
                    </mask>
                    <g id="Clip-13"></g>
                    <path d="M134.7041,19.7004 C134.7041,19.7004 134.7041,9.4084 111.1181,6.4064 C84.1521,2.9744 76.3821,16.6984 76.3821,16.6984 C76.3821,16.6984 68.6621,0.4024 35.6411,0.4024 C2.6201,0.4024 -9.8169,19.2714 -9.8169,19.2714 C-9.8169,19.2714 -49.2699,14.1254 -53.1289,35.9964 C-56.3559,54.2784 -28.2559,63.0134 -1.6679,51.8644 C-1.6679,51.8644 10.1871,68.2804 43.6371,66.9934 C77.0871,65.7064 82.3861,51.0064 82.3861,51.0064 C82.3861,51.0064 94.8771,64.4124 122.1551,65.5184 C149.4331,66.6244 161.2291,55.1974 161.2291,55.1974 C161.2291,55.1974 199.1991,69.9424 228.6891,48.5614 C249.1601,33.7204 215.7871,11.3304 178.9241,10.9614 C149.0101,10.6624 134.7041,19.7004 134.7041,19.7004" id="Fill-12" fill="#97DEEB" mask="url(#mask-8)"></path>
                </g>
                <path d="M260.7061,217.2265 C281.5621,209.3545 329.7401,217.2525 323.9321,228.8805 C318.1221,240.5095 298.5241,237.0065 298.5241,237.0065 C298.5241,237.0065 295.1731,243.4915 277.9581,244.6155 C254.3441,246.1565 246.2201,236.7485 246.2201,236.7485 C246.2201,236.7485 244.4861,244.1405 231.4401,244.9075 C211.2731,246.0935 207.3961,238.2345 207.3961,238.2345 C191.7491,247.1835 159.7361,243.7755 157.2731,232.8205 C154.7581,221.6295 165.7041,216.5025 177.9821,216.3605 C192.1061,216.1985 197.9751,220.9045 197.9751,220.9045 C197.9751,220.9045 198.4941,204.0435 229.0061,202.7175 C259.5181,201.3925 260.7061,217.2265 260.7061,217.2265" id="Fill-15" fill="#00C7E2"></path>
                <path d="M0.3213,164.3495 C5.5013,162.5815 11.0133,157.4465 11.0133,157.4465 C11.0133,157.4465 19.9663,173.3845 55.7183,169.6695 C82.3613,166.9015 91.4823,148.8305 91.4823,148.8305 C91.4823,148.8305 144.5343,153.5735 152.9793,131.9645 C160.5083,112.6995 137.4073,92.9235 103.4783,85.8515 C70.5433,78.9865 55.1923,89.2325 55.1923,89.2325 C55.1923,89.2325 54.3733,82.0125 37.0293,73.9315 C18.1073,65.1155 0.3213,66.2555 0.3213,66.2555 L0.3213,164.3495 Z" id="Fill-17" fill="#97DEEB"></path>
                <path d="M811.3809,671.6005 C811.3809,671.6005 787.0529,661.4585 784.4699,681.4825 C781.8799,701.5495 814.1799,702.8045 818.4849,697.6045 C818.4849,697.6045 827.3129,709.3055 849.0579,709.3055 C870.8029,709.3055 878.3379,700.7245 878.3379,700.7245 C878.3379,700.7245 888.4559,709.8265 908.9089,709.5665 C929.3619,709.3055 936.8979,696.5645 936.8979,696.5645 C936.8979,696.5645 970.6989,707.4855 976.5119,687.7225 C982.3249,667.9595 931.2999,653.3985 915.3679,675.5005 C915.3679,675.5005 911.5289,661.3295 893.6809,660.9935 C875.8329,660.6565 871.0919,670.4245 871.0919,670.4245 C871.0919,670.4245 866.9079,652.5725 840.6929,652.2355 C820.0499,651.9695 811.3809,671.6005 811.3809,671.6005" id="Fill-19" fill="#00C7E2"></path>
                <path d="M799.665,733.624 C799.665,733.624 812.3,728.357 813.642,738.756 C814.986,749.178 798.211,749.83 795.975,747.129 C795.975,747.129 791.391,753.207 780.098,753.207 C768.804,753.207 764.891,748.75 764.891,748.75 C764.891,748.75 759.636,753.477 749.013,753.342 C738.391,753.207 734.477,746.589 734.477,746.589 C734.477,746.589 716.923,752.261 713.903,741.997 C710.885,731.733 737.385,724.171 745.659,735.65 C745.659,735.65 747.652,728.29 756.922,728.115 C766.191,727.94 768.654,733.014 768.654,733.014 C768.654,733.014 770.826,723.742 784.441,723.566 C795.162,723.429 799.665,733.624 799.665,733.624" id="Fill-21" fill="#00C7E2"></path>
                <g id="Group-25" transform="translate(1255.000000, 186.070000)">
                    <mask id="mask-10" fill="white">
                        <use xlink:href="#path-9"></use>
                    </mask>
                    <g id="Clip-24"></g>
                    <path d="M140.8926,72.5588 C140.8926,72.5588 134.5456,86.7168 98.4166,85.2518 C62.2886,83.7878 57.4066,66.2118 57.4066,66.2118 C57.4066,66.2118 6.0776,75.4188 1.2606,52.5418 C-1.9954,37.0748 14.4886,28.7748 29.2866,27.1008 C41.1146,25.7628 51.6676,29.7338 51.6676,29.7338 C51.6676,29.7338 53.5006,12.0188 84.2586,10.0658 C115.0166,8.1138 123.3166,23.2478 123.3166,23.2478 C123.3166,23.2478 130.6396,3.2308 162.8626,0.7898 C173.1896,0.0078 185.3216,2.2548 185.3216,2.2548 L185.3216,90.6228 C185.3216,90.6228 173.1156,93.0638 157.4926,86.7168 C145.3136,81.7688 140.8926,72.5588 140.8926,72.5588" id="Fill-23" fill="#97DEEB" mask="url(#mask-10)"></path>
                </g>
                <path d="M510.1377,88.3451 C504.5357,90.2341 502.8017,92.5551 502.2417,98.9131 C502.1447,100.0251 500.7167,100.1711 500.3967,99.1021 C498.5607,92.9891 496.3917,91.0671 490.5237,90.3521 C489.4967,90.2271 489.3387,88.6761 490.3187,88.3451 C495.9197,86.4561 497.6547,84.1351 498.2137,77.7771 C498.3117,76.6651 499.7397,76.5191 500.0597,77.5881 C501.8957,83.7011 504.0647,85.6231 509.9327,86.3381 C510.9587,86.4631 511.1167,88.0141 510.1377,88.3451" id="Fill-26" fill="#E7E7E7"></path>
                <path d="M546.7402,195.0981 C543.2652,196.2701 542.1892,197.7101 541.8432,201.6531 C541.7822,202.3431 540.8962,202.4331 540.6972,201.7701 C539.5582,197.9791 538.2142,196.7861 534.5732,196.3431 C533.9372,196.2651 533.8392,195.3041 534.4462,195.0981 C537.9212,193.9271 538.9972,192.4871 539.3442,188.5431 C539.4042,187.8541 540.2902,187.7631 540.4892,188.4261 C541.6272,192.2181 542.9722,193.4101 546.6122,193.8531 C547.2492,193.9311 547.3472,194.8931 546.7402,195.0981" id="Fill-28" fill="#E7E7E7"></path>
                <path d="M390.3613,111.7826 C391.3383,111.9916 392.3573,112.1376 393.3563,112.0236 C393.8853,111.9626 394.4083,111.8816 394.9183,111.7276 C395.4883,111.5546 396.0393,111.3166 396.5793,111.0676 C396.9423,110.8996 397.2543,110.4276 397.3563,110.0566 C397.4673,109.6526 397.4173,109.1136 397.1853,108.7546 C396.9533,108.3936 396.6063,108.0756 396.1753,107.9776 C395.7083,107.8716 395.3063,107.9486 394.8733,108.1486 C394.7383,108.2106 394.6033,108.2706 394.4663,108.3286 C394.6013,108.2716 394.7363,108.2146 394.8703,108.1576 C394.2613,108.4106 393.6343,108.6046 392.9803,108.6936 C393.1313,108.6736 393.2803,108.6536 393.4293,108.6336 C392.8403,108.7066 392.2523,108.6906 391.6643,108.6146 C391.8133,108.6356 391.9643,108.6556 392.1133,108.6756 C391.8273,108.6356 391.5433,108.5836 391.2593,108.5226 C390.8153,108.4276 390.3573,108.4586 389.9573,108.6936 C389.6063,108.8986 389.2723,109.3006 389.1803,109.7026 C388.9873,110.5536 389.4363,111.5846 390.3613,111.7826" id="Fill-30" fill="#000000"></path>
                <path d="M330.7617,269.0712 L329.2387,266.2172 C329.2387,266.2172 330.0847,265.9762 330.7377,264.5972 C331.3907,263.2182 331.1727,262.5422 331.1727,262.5422 C331.1727,262.5422 332.3817,260.9692 332.6967,259.5432 C333.0107,258.1162 332.2847,257.0762 330.9677,257.1242 C330.9677,257.1242 330.8587,256.5922 329.5287,255.4072 C328.1987,254.2222 327.5217,253.6132 326.5537,253.6642 C325.5867,253.7152 322.7817,254.7302 322.4667,255.6742 C322.1527,256.6162 322.3697,256.7622 321.9347,257.0762 C321.4997,257.3902 320.7017,258.1642 320.7017,258.7932 C320.7017,259.4222 320.6287,259.7362 320.2907,260.2932 C319.9517,260.8492 319.3717,262.4692 320.1457,264.0652 C320.9187,265.6612 321.8147,267.6202 323.3857,268.2492 L324.5467,270.7162 L330.7617,269.0712 Z" id="Fill-32" fill="#B45227"></path>
                <path d="M321.4717,263.8554 C321.7407,263.8674 322.0107,263.8164 322.2567,263.7074" id="Fill-34" fill="#000000"></path>
                <path d="M321.4717,264.1606 C321.6327,264.1676 321.7947,264.1516 321.9537,264.1216 C322.1137,264.0916 322.2627,264.0356 322.4107,263.9716 C322.4767,263.9426 322.5337,263.8546 322.5507,263.7886 C322.5717,263.7156 322.5627,263.6186 322.5207,263.5536 C322.4787,263.4876 322.4157,263.4306 322.3377,263.4126 C322.3107,263.4096 322.2837,263.4056 322.2567,263.4016 C322.2007,263.4016 322.1507,263.4156 322.1027,263.4436 C322.0937,263.4476 322.0847,263.4516 322.0757,263.4546 C322.1007,263.4446 322.1247,263.4346 322.1487,263.4246 C322.0067,263.4836 321.8587,263.5246 321.7057,263.5466 C321.7337,263.5426 321.7607,263.5386 321.7867,263.5356 C321.6827,263.5496 321.5767,263.5546 321.4717,263.5496 C321.3117,263.5426 321.1597,263.6956 321.1657,263.8556 C321.1737,264.0266 321.2997,264.1536 321.4717,264.1606" id="Fill-36" fill="#000000"></path>
                <path d="M322.2822,263.5956 C322.3392,263.7616 322.4492,263.9026 322.5582,264.0386 C322.9002,264.4606 323.2602,264.8666 323.6362,265.2576" id="Fill-38" fill="#000000"></path>
                <path d="M321.9873,263.6772 C322.1223,264.0472 322.4113,264.3442 322.6633,264.6392 C322.9073,264.9252 323.1603,265.2032 323.4213,265.4732 C323.5323,265.5882 323.7423,265.5932 323.8523,265.4732 C323.9663,265.3492 323.9713,265.1642 323.8523,265.0412 C323.6063,264.7862 323.3673,264.5242 323.1353,264.2552 C323.0233,264.1242 322.9133,263.9922 322.8043,263.8592 C322.7763,263.8242 322.7483,263.7892 322.7193,263.7542 C322.7403,263.7792 322.7253,263.7602 322.7153,263.7462 C322.7033,263.7302 322.6913,263.7142 322.6803,263.6982 C322.6563,263.6622 322.6333,263.6252 322.6113,263.5872 C322.6023,263.5702 322.5943,263.5522 322.5853,263.5352 C322.5603,263.4932 322.6063,263.5962 322.5773,263.5142 C322.5223,263.3652 322.3663,263.2472 322.2013,263.3012 C322.0533,263.3492 321.9293,263.5162 321.9873,263.6772" id="Fill-40" fill="#000000"></path>
                <path d="M322.8613,264.2617 C321.9723,264.4527 321.6583,265.5437 322.2263,266.2187 C322.8763,266.9907 324.0573,266.6367 324.8503,266.3007 C325.7093,265.9357 326.3943,265.0707 326.0143,264.1127 C325.8353,263.6597 325.5103,263.2917 325.1863,262.9357 C324.8603,262.5757 324.6263,262.1457 324.2963,261.7907 C323.9773,261.4487 323.5823,261.1727 323.1413,261.0147 C322.7163,260.8627 322.2533,260.8387 321.8063,260.8187 C321.4143,260.8017 321.4153,261.4127 321.8063,261.4297 C322.5813,261.4637 323.2393,261.5907 323.8043,262.1617 C324.1333,262.4937 324.3523,262.9207 324.6653,263.2687 C324.9713,263.6107 325.3283,263.9567 325.4723,264.4047 C325.8053,265.4367 324.4183,265.8457 323.6933,266.0117 C323.2883,266.1027 322.8283,266.1247 322.6043,265.6987 C322.4163,265.3417 322.6443,264.9327 323.0243,264.8507 C323.4083,264.7677 323.2463,264.1787 322.8613,264.2617" id="Fill-42" fill="#000000"></path>
                <path d="M325.7793,265.2138 C326.8503,265.4328 327.5793,264.6198 327.7433,263.6278 C327.8253,263.1388 327.7813,262.6278 327.5363,262.1898 C327.2703,261.7138 326.8283,261.3298 326.4933,260.9038 C325.8683,260.1078 325.4213,259.1348 324.5313,258.5918 C324.0293,258.2848 323.3863,258.0748 322.7923,258.1288 C322.4033,258.1638 322.3993,258.7758 322.7923,258.7398 C323.2083,258.7018 323.6463,258.8168 324.0153,259.0038 C324.7583,259.3798 325.1203,260.0548 325.5873,260.7058 C325.8433,261.0638 326.1133,261.4118 326.3973,261.7478 C326.6873,262.0908 327.0423,262.3988 327.1393,262.8558 C327.3003,263.6068 326.9023,264.8208 325.9423,264.6248 C325.5583,264.5468 325.3943,265.1348 325.7793,265.2138" id="Fill-44" fill="#000000"></path>
                <path d="M326.7588,262.0292 C327.6498,262.1852 328.3528,261.5492 328.6628,260.7602 C328.9968,259.9082 328.3558,259.2652 327.9078,258.6142 C327.5458,258.0872 327.2248,257.5242 326.7828,257.0552 C326.2928,256.5352 325.6668,256.2122 324.9678,256.0792 C324.5828,256.0062 324.4188,256.5952 324.8048,256.6682 C325.3478,256.7712 325.8348,256.9842 326.2358,257.3712 C326.5988,257.7212 326.8668,258.1492 327.1428,258.5672 C327.2878,258.7882 327.4358,259.0082 327.5928,259.2202 C327.7838,259.4792 328.0248,259.7392 328.1158,260.0542 C328.2978,260.6782 327.5828,261.5562 326.9218,261.4402 C326.5368,261.3722 326.3718,261.9612 326.7588,262.0292" id="Fill-46" fill="#000000"></path>
                <path d="M328.1797,258.3129 C327.8877,258.2969 327.5967,258.2509 327.3137,258.1769" id="Fill-48" fill="#000000"></path>
                <path d="M328.1797,258.0073 C328.0647,258.0013 327.9487,257.9893 327.8337,257.9743 C327.8607,257.9783 327.8877,257.9823 327.9147,257.9853 C327.7397,257.9613 327.5657,257.9263 327.3947,257.8823 C327.2407,257.8423 327.0557,257.9333 327.0187,258.0953 C326.9827,258.2553 327.0667,258.4283 327.2327,258.4713 C327.5417,258.5513 327.8607,258.6003 328.1797,258.6183 C328.3397,258.6273 328.4927,258.4713 328.4857,258.3133 C328.4777,258.1393 328.3517,258.0173 328.1797,258.0073" id="Fill-50" fill="#000000"></path>
                <path d="M328.5137,260.0947 C328.6427,260.1487 328.7937,260.1207 328.9167,260.0537 C329.0387,259.9867 329.1387,259.8847 329.2337,259.7827 C329.6537,259.3327 330.0377,258.8507 330.3827,258.3417 C330.4867,258.1887 330.5877,258.0307 330.6447,257.8547 C330.7017,257.6787 330.7087,257.4807 330.6287,257.3147" id="Fill-52" fill="#000000"></path>
                <path d="M328.4326,260.3896 C328.8326,260.5256 329.1876,260.2786 329.4506,259.9986 C329.7016,259.7306 329.9376,259.4496 330.1626,259.1596 C330.5956,258.6006 331.2166,257.9086 330.8926,257.1606 C330.8276,257.0086 330.6046,256.9736 330.4746,257.0506 C330.3186,257.1416 330.2986,257.3166 330.3656,257.4686 C330.4506,257.6656 330.2966,257.9126 330.1966,258.0716 C330.0426,258.3116 329.8736,258.5426 329.6996,258.7676 C329.5216,258.9966 329.3336,259.2196 329.1386,259.4346 C329.0146,259.5726 328.8136,259.8746 328.5946,259.8006 C328.4386,259.7466 328.2606,259.8616 328.2186,260.0136 C328.1726,260.1816 328.2756,260.3356 328.4326,260.3896" id="Fill-54" fill="#000000"></path>
                <path d="M330.3486,262.4452 C330.0126,262.6502 329.6546,262.8772 329.2546,262.9252 C328.9866,262.9582 328.6606,262.8882 328.4826,262.6712 C328.2556,262.3962 328.3636,261.9182 328.4456,261.6052 C328.5546,261.1902 328.7406,260.8052 328.9326,260.4242 C329.0066,260.2772 328.9716,260.0932 328.8236,260.0062 C328.6876,259.9272 328.4796,259.9682 328.4056,260.1162 C328.1706,260.5802 327.9386,261.0592 327.8256,261.5702 C327.7116,262.0802 327.6756,262.6682 328.0376,263.0882 C328.3156,263.4092 328.7776,263.5642 329.1946,263.5412 C329.7316,263.5122 330.2076,263.2462 330.6566,262.9722 C330.9916,262.7682 330.6846,262.2392 330.3486,262.4452" id="Fill-56" fill="#000000"></path>
                <path d="M442.6172,388.9379 C442.6172,390.7179 432.7662,392.1619 420.6152,392.1619 C408.4642,392.1619 398.6132,390.7179 398.6132,388.9379 C398.6132,387.1579 408.4642,385.7139 420.6152,385.7139 C432.7662,385.7139 442.6172,387.1579 442.6172,388.9379" id="Fill-58" fill="#00520A"></path>
                <path d="M393.21,109.1274 C393.21,109.1274 410.702,124.5854 412.329,155.9074 C414.527,198.2264 398.905,216.1114 398.905,216.1114 C398.905,216.1114 416.397,210.8234 431.447,205.5354 C446.499,200.2474 457.075,196.1794 467.245,201.4674 C477.414,206.7554 474.16,212.0444 491.652,212.4514 C509.144,212.8574 530.297,201.8744 538.433,201.8744 C546.568,201.8744 562.025,203.5014 562.025,203.5014 L551.683,104.2234 C551.683,104.2234 544.127,102.2124 540.873,100.1784 C537.618,98.1444 530.297,85.9404 502.635,89.6024 C481.247,92.4324 452.193,111.9754 441.211,112.7884 C430.228,113.6024 424.126,105.8734 412.329,105.4664 C402.97,105.1434 393.21,109.1274 393.21,109.1274" id="Fill-60" fill="#005400"></path>
                <path d="M390.8105,103.8149 L399.2485,388.4569 L399.3265,388.5829 C401.1745,391.5859 404.8145,391.3559 406.4165,388.1329 L394.8005,103.2939 L390.8105,103.8149 Z" id="Fill-62" fill="#7A7A7A"></path>
                <path d="M323.0986,146.8242 C332.3146,147.4892 341.5076,148.3622 350.6836,149.4442 C355.1486,149.9712 355.1106,142.9672 350.6836,142.4442 C341.5076,141.3622 332.3146,140.4892 323.0986,139.8242 C318.6046,139.5002 318.6246,146.5012 323.0986,146.8242" id="Fill-64" fill="#FFBF00"></path>
                <path d="M320.1143,199.9965 C331.3113,195.8595 342.5723,191.9045 353.8963,188.1295 C358.1483,186.7125 356.3263,179.9495 352.0353,181.3795 C340.7113,185.1545 329.4513,189.1095 318.2543,193.2465 C314.0633,194.7945 315.8763,201.5625 320.1143,199.9965" id="Fill-66" fill="#FFBF00"></path>
                <path d="M399.5947,44.9262 C404.8607,53.1392 410.1267,61.3532 415.3937,69.5662 C417.8177,73.3462 423.8787,69.8402 421.4377,66.0332 C416.1717,57.8202 410.9057,49.6062 405.6387,41.3932 C403.2147,37.6132 397.1537,41.1192 399.5947,44.9262" id="Fill-68" fill="#FFBF00"></path>
                <path d="M580.8594,50.8437 C574.3344,57.0567 567.8084,63.2697 561.2834,69.4827 C558.0144,72.5957 562.9694,77.5397 566.2334,74.4327 C572.7584,68.2187 579.2844,62.0067 585.8084,55.7937 C589.0784,52.6807 584.1234,47.7357 580.8594,50.8437" id="Fill-70" fill="#FFBF00"></path>
                <path d="M593.2705,135.4072 C604.7515,132.3872 616.2335,129.3682 627.7155,126.3492 C632.0685,125.2042 630.2225,118.4502 625.8545,119.5992 C614.3735,122.6182 602.8905,125.6372 591.4095,128.6572 C587.0565,129.8022 588.9025,136.5552 593.2705,135.4072" id="Fill-72" fill="#FFBF00"></path>
                <path d="M596.8877,171.2631 C604.2747,172.0861 611.6597,172.9081 619.0467,173.7311 C623.5167,174.2281 623.4817,167.2241 619.0467,166.7311 C611.6597,165.9081 604.2747,165.0861 596.8877,164.2631 C592.4177,163.7651 592.4527,170.7691 596.8877,171.2631" id="Fill-74" fill="#FFBF00"></path>
                <path d="M566.3135,235.7104 C572.2525,242.3684 578.1925,249.0264 584.1315,255.6844 C587.1365,259.0524 592.0735,254.0874 589.0815,250.7344 C583.1415,244.0764 577.2025,237.4184 571.2625,230.7604 C568.2575,227.3924 563.3215,232.3564 566.3135,235.7104" id="Fill-76" fill="#FFBF00"></path>
                <path d="M428.5068,239.3823 C426.2388,244.4923 423.9718,249.6033 421.7038,254.7133 C419.8938,258.7943 425.9228,262.3603 427.7488,258.2463 L434.5518,242.9153 C436.3618,238.8343 430.3318,235.2683 428.5068,239.3823" id="Fill-78" fill="#FFBF00"></path>
                <path d="M441.8252,141.79 C437.3602,143.295 435.9772,145.145 435.5322,150.212 C435.4542,151.099 434.3162,151.215 434.0602,150.363 C432.5982,145.491 430.8702,143.959 426.1922,143.39 C425.3752,143.29 425.2482,142.053 426.0292,141.79 C430.4932,140.285 431.8762,138.435 432.3222,133.368 C432.3992,132.481 433.5372,132.365 433.7932,133.217 C435.2562,138.089 436.9842,139.621 441.6612,140.19 C442.4792,140.29 442.6052,141.527 441.8252,141.79" id="Fill-80" fill="#E7E7E7"></path>
                <path d="M443.9248,150.4545 C444.6368,132.7915 456.6608,116.7675 474.5508,111.6715 C497.1918,105.2215 520.5418,118.1815 526.9588,140.8295 C532.2788,159.6075 524.1738,179.4485 506.6838,189.2385 C502.6408,191.5015 498.0198,190.3075 495.8278,186.5145 C493.6008,182.6575 494.9518,178.1415 499.0728,175.7145 C507.1308,170.9685 511.8818,164.0475 512.8408,154.6915 C514.2538,140.9105 504.3338,128.1015 490.6168,125.9235 C475.0998,123.4585 460.9968,134.3705 459.4878,150.0105 C458.3278,162.0265 465.9798,173.6835 477.6338,177.5665 C480.4388,178.5015 482.5568,180.0595 483.4118,183.0045 C484.3168,186.1205 483.5408,188.8195 481.1838,190.9795 C478.9528,193.0225 476.2638,193.4895 473.4238,192.5395 C460.8618,188.3375 451.8658,180.1975 446.9178,167.9025 C446.1528,165.9995 444.6558,162.2915 444.2658,158.4855 C443.7468,153.4335 443.7468,154.8585 443.9248,150.4545" id="Fill-82" fill="#00AE00"></path>
                <path d="M470.5518,153.7675 C469.7078,145.0745 476.0118,137.4405 484.7638,136.6325 C493.0468,135.8675 500.8938,141.5515 501.9148,150.7255 C502.8738,159.3445 496.3208,167.1595 487.7318,167.9865 C479.0978,168.8185 471.3948,162.4425 470.5518,153.7675" id="Fill-84" fill="#00AE00"></path>
                <path d="M393.4648,217.2241 C395.8368,218.1411 398.7578,217.7711 400.8348,216.3071 C401.2018,216.0491 401.4888,215.7431 401.6118,215.2971 C401.7238,214.8921 401.6728,214.3541 401.4418,213.9951 C400.9798,213.2791 399.9018,212.8441 399.1288,213.3881 C398.9178,213.5361 398.7008,213.6741 398.4748,213.7971 C398.3608,213.8581 398.2448,213.9111 398.1298,213.9691 C397.8358,214.1161 398.5188,213.8201 398.1338,213.9671 C397.6668,214.1451 397.1828,214.2651 396.6878,214.3361 C396.8378,214.3161 396.9868,214.2961 397.1378,214.2761 C396.5608,214.3511 395.9838,214.3551 395.4048,214.2861 C395.5548,214.3061 395.7048,214.3261 395.8548,214.3461 C395.3428,214.2761 394.8458,214.1511 394.3638,213.9641 C393.9788,213.8151 393.4028,213.9341 393.0618,214.1351 C392.7108,214.3401 392.3758,214.7421 392.2838,215.1451 C392.0648,216.1131 392.5798,216.8821 393.4648,217.2241" id="Fill-86" fill="#000000"></path>
                <mask id="mask-12" fill="white">
                    <use xlink:href="#path-11"></use>
                </mask>
                <g id="Clip-89"></g>
                <polygon id="Fill-88" fill="#000000" mask="url(#mask-12)" points="353.885 296.974 363.708 296.974 363.708 284.627 353.885 284.627"></polygon>
                <path d="M384.2666,390.6996 C384.2666,393.2846 368.2916,395.3806 348.5866,395.3806 C328.8816,395.3806 312.9076,393.2846 312.9076,390.6996 C312.9076,388.1146 328.8816,386.0186 348.5866,386.0186 C368.2916,386.0186 384.2666,388.1146 384.2666,390.6996" id="Fill-90" fill="#00520A" mask="url(#mask-12)"></path>
                <path d="M401.7402,400.061 C401.7402,402.646 394.3262,404.742 385.1792,404.742 C376.0332,404.742 368.6192,402.646 368.6192,400.061 C368.6192,397.476 376.0332,395.38 385.1792,395.38 C394.3262,395.38 401.7402,397.476 401.7402,400.061" id="Fill-91" fill="#00520A" mask="url(#mask-12)"></path>
                <path d="M392.2354,287.7143 L394.4974,285.2753 C394.4974,285.2753 393.8574,284.6703 393.9134,283.1463 C393.9684,281.6213 394.4734,281.1203 394.4734,281.1203 C394.4734,281.1203 394.1254,279.1683 394.5034,277.7573 C394.8814,276.3463 396.0054,275.7573 397.1524,276.4073 C397.1524,276.4073 397.4944,275.9853 399.2204,275.5473 C400.9464,275.1083 401.8284,274.8793 402.6644,275.3693 C403.4994,275.8603 405.5204,278.0543 405.3654,279.0363 C405.2104,280.0183 404.9494,280.0473 405.1914,280.5263 C405.4324,281.0063 405.7844,282.0603 405.4954,282.6183 C405.2054,283.1763 405.1244,283.4883 405.1694,284.1383 C405.2134,284.7883 404.9814,286.4933 403.5594,287.5533 C402.1364,288.6133 400.4404,289.9403 398.7564,289.7743 L396.5894,291.4283 L392.2354,287.7143 Z" id="Fill-92" fill="#B45227" mask="url(#mask-12)"></path>
                <polygon id="Fill-93" fill="#F07600" mask="url(#mask-12)" points="344.2012 319.5224 341.8132 324.5834 345.3652 325.4414 345.9792 321.0024"></polygon>
                <path d="M371.7646,320.7499 C371.7646,320.7499 373.8786,333.4099 371.3456,353.8059 C368.8126,374.2029 366.1186,383.8579 366.1186,383.8579 C366.1186,383.8579 366.6726,386.6799 369.3556,386.6799 C372.0376,386.6799 376.4426,387.1619 376.7176,391.1539 L360.1316,391.1539 C360.1316,391.1539 360.3386,387.1619 361.0956,385.0969 C361.8526,383.0329 361.5086,378.6279 361.5086,378.6279 L357.0356,378.2839 C357.0356,378.2839 356.9656,374.6369 358.1366,372.4349 C359.3056,370.2319 358.9616,368.7179 358.1366,367.2039 C357.3106,365.6899 358.7556,363.5569 358.9616,361.6979 C359.1686,359.8399 358.4116,334.7209 358.4116,334.7209 L340.6566,384.3399 C340.6566,384.3399 340.0356,385.7169 340.0356,387.7809 L340.0356,391.1539 L325.7216,391.1539 C325.7216,391.1539 326.3406,386.7489 329.5756,386.7489 C332.8106,386.7489 334.9436,386.4049 335.6316,383.7899 C336.3206,381.1739 337.1466,377.1829 337.1466,377.1829 L332.6036,375.9439 C332.6036,375.9439 332.8106,373.3669 334.3936,371.0419 C335.9766,368.7179 334.5306,366.8599 335.3566,364.7269 C336.1826,362.5929 337.0766,360.1149 338.1096,355.9169 C339.1416,351.7189 345.3656,320.7499 345.3656,320.7499 L371.7646,320.7499 Z" id="Fill-94" fill="#004656" mask="url(#mask-12)"></path>
                <path d="M345.9795,321.0024 L346.5485,326.9214 C346.5485,326.9214 349.8755,329.7324 360.3955,328.6974 C370.9155,327.6614 374.0725,324.9644 374.0725,324.9644 L371.7645,320.7504 L345.9795,321.0024 Z" id="Fill-95" fill="#F07600" mask="url(#mask-12)"></path>
                <path d="M365.1162,286.2328 C365.1162,286.2328 369.2592,287.3618 372.1732,289.5778 C375.0872,291.7938 379.9972,297.5668 379.9972,297.5668 L392.2352,286.3288 L398.9202,292.0538 C393.8482,297.1158 389.1512,303.2468 383.0152,307.0108 C382.5272,307.3098 382.0262,307.6008 381.4762,307.7638 C380.8812,307.9408 380.2492,307.9618 379.6272,307.9428 C376.8812,307.8598 375.0232,306.8138 372.8102,305.4068 C371.9982,307.6938 372.8112,310.6098 372.1072,313.0398 C371.5032,315.1258 373.6532,317.0158 373.0022,320.0788 C372.3492,323.1418 369.1522,324.2138 358.8572,324.5578 C348.5612,324.9008 343.4132,321.7078 343.6092,318.6448 C343.8042,315.5818 345.1072,311.7368 345.1072,308.2168 C345.1072,305.8898 345.8172,302.5848 344.2772,300.5728 C343.3642,299.3818 342.3812,299.8228 341.0282,299.7158 C339.3362,299.5808 337.6272,299.1408 336.0352,298.5638 C333.9992,297.8238 332.0492,296.7498 330.5452,295.1908 C327.8352,292.3808 326.8652,288.3718 326.0022,284.5658 L323.8662,275.1538 C323.6052,274.0058 322.7082,271.9958 322.9142,270.8438 C323.1122,269.7298 323.8032,269.7378 324.8332,269.5048 C326.8022,269.0578 328.8172,268.0558 330.8452,267.9858 C331.1972,272.0558 333.1062,276.4908 334.4292,280.3578 C334.9782,281.9618 335.5602,283.5728 336.4802,284.9968 C336.8872,285.6258 337.4012,286.2448 338.1162,286.4658 C338.5902,286.6118 339.0982,286.5658 339.5922,286.5178 C341.1822,286.3648 342.7922,286.2698 344.3732,286.0388 C345.9382,285.8098 347.4172,285.0928 348.9922,284.9708 C350.8602,284.8248 352.9692,285.2818 354.8352,285.4278 C358.2622,285.6958 361.6882,285.9638 365.1162,286.2328" id="Fill-96" fill="#F06400" mask="url(#mask-12)"></path>
                <path d="M351.4346,279.205 C351.4346,279.205 347.8166,279.131 346.4326,281.454 C345.0476,283.776 345.8166,286.143 345.8166,286.143 C345.8166,286.143 347.6376,285.473 349.4246,286.5 C351.2116,287.528 359.3216,293.711 359.9736,293.647 C361.4016,293.506 363.2566,290.431 364.8496,288.644 C366.4426,286.858 367.2746,285.81 366.7246,284.637 L352.9976,278.808 L351.4346,279.205 Z" id="Fill-97" fill="#F07600" mask="url(#mask-12)"></path>
                <path d="M355.7627,269.7114 C355.7627,269.7114 367.3347,271.1134 367.8777,269.1494 C368.2787,267.7014 367.1247,260.7064 356.0537,263.1074 C352.4707,263.8844 349.6217,266.8864 349.4887,271.0744 C349.3947,273.9854 350.1587,277.8294 351.7177,280.1464 C353.4787,282.7624 354.6397,282.4854 354.6397,282.4854 L355.7627,269.7114 Z" id="Fill-98" fill="#000000" mask="url(#mask-12)"></path>
                <path d="M363.5195,284.9775 L362.1855,285.3735 L361.7505,287.8945 C361.1395,288.0375 360.3185,288.1375 359.2545,288.1195 C358.0925,288.0995 357.1595,287.9765 356.4105,287.7235 L353.6955,285.0255 L353.6515,281.9235 L363.4885,283.9005 L363.5195,284.9775 Z" id="Fill-99" fill="#B45227" mask="url(#mask-12)"></path>
                <path d="M353.7842,282.6 C353.6262,282.015 353.3512,280.068 353.3512,280.068 C353.0782,280.107 352.0412,280.13 351.1742,279.445 C350.2732,278.735 348.9862,276.41 350.2492,275.134 C350.9932,274.382 351.8222,274.02 352.7702,275.123 C353.8412,276.367 354.8172,276.25 354.7592,274.683 C354.7002,273.115 353.7912,269.444 355.3312,268.61 C356.8702,267.775 358.4172,268.555 361.3272,268.213 C362.5972,268.064 363.4882,267.752 364.5422,267.409 C365.7432,267.018 367.1332,268.191 367.4492,269.725 C367.6232,270.567 367.9962,277.127 367.8272,278.605 C367.6732,279.951 366.3912,285.098 361.2212,285.079052 C358.5832,285.07 353.7842,282.6 353.7842,282.6" id="Fill-100" fill="#B45227" mask="url(#mask-12)"></path>
                <path d="M367.04,267.872 C367.161,269.06 367.337,270.242 367.442,271.433 C367.605,273.258 367.684,275.099 367.558,276.929 C367.495,277.842 367.378,278.75 367.162,279.64 C367.074,279.999 366.973,280.356 366.845,280.704 C366.82,280.771 366.793,280.838 366.768,280.905 C366.723,281.019 366.805,280.824 366.751,280.943 C366.731,280.987 366.713,281.031 366.693,281.075 C366.222,282.109 365.624,282.956 364.772,283.688 C363.481,284.798 361.733,285.192 360.014,284.894 C359.772,284.852 359.525,284.958 359.455,285.211 C359.395,285.429 359.529,285.726 359.772,285.769 C361.503,286.069 363.283,285.836 364.757,284.834 C365.821,284.111 366.67,283.093 367.268,281.958 C367.909,280.741 368.194,279.388 368.361,278.032 C368.596,276.111 368.556,274.16 368.415,272.234 C368.309,270.773 368.096,269.328 367.947,267.872 C367.923,267.628 367.757,267.418 367.494,267.418 C367.268,267.418 367.016,267.627 367.04,267.872" id="Fill-101" fill="#000000" mask="url(#mask-12)"></path>
                <path d="M363.4531,271.206 C363.6461,270.978 363.8091,270.833 364.0531,270.697 C364.1901,270.62 364.2241,270.604 364.3691,270.56 C364.4311,270.541 364.4921,270.525 364.5561,270.513 C364.5631,270.511 364.6481,270.496 364.6141,270.5 C364.5771,270.506 364.6981,270.493 364.6961,270.494 C364.7611,270.489 364.8251,270.489 364.8901,270.491 C364.9171,270.493 365.0621,270.509 365.0091,270.5 C365.0801,270.512 365.1511,270.529 365.2221,270.549 C365.2531,270.558 365.2841,270.567 365.3141,270.578 C365.3241,270.581 365.3971,270.607 365.3751,270.599 C365.6151,270.694 365.8141,270.852 365.9991,271.06 C366.1611,271.244 366.4741,271.226 366.6411,271.06 C366.8221,270.878 366.8031,270.602 366.6411,270.418 C366.1601,269.876 365.4261,269.539 364.6961,269.586 C363.9621,269.633 363.2851,270.006 362.8111,270.564 C362.6531,270.751 362.6281,271.022 362.8111,271.206 C362.9741,271.368 363.2941,271.393 363.4531,271.206" id="Fill-102" fill="#000000" mask="url(#mask-12)"></path>
                <path d="M360.6875,271.3075 C360.1295,270.7605 359.3525,270.4375 358.5675,270.5405 C357.8205,270.6385 357.1885,271.0855 356.7855,271.7145 C356.6535,271.9205 356.7435,272.2155 356.9485,272.3355 C357.1665,272.4635 357.4365,272.3795 357.5695,272.1725 C357.6785,272.0005 357.8795,271.7885 358.0385,271.6845 C358.0965,271.6465 358.1575,271.6105 358.2185,271.5785 C358.2475,271.5645 358.2745,271.5505 358.3025,271.5375 C358.3735,271.5055 358.2505,271.5565 358.3235,271.5295 C358.3885,271.5055 358.4545,271.4845 358.5215,271.4675 C358.5505,271.4595 358.5815,271.4525 358.6115,271.4465 C358.6225,271.4445 358.7365,271.4275 358.6875,271.4325 C358.9165,271.4065 359.1425,271.4355 359.4035,271.5285 C359.4775,271.5555 359.4565,271.5455 359.5275,271.5815 C359.5965,271.6155 359.6645,271.6525 359.7295,271.6935 C359.8555,271.7725 359.9305,271.8365 360.0455,271.9495 C360.4635,272.3585 361.1055,271.7175 360.6875,271.3075" id="Fill-103" fill="#000000" mask="url(#mask-12)"></path>
                <path d="M360.4316,276.6616 C360.5086,277.1176 360.8546,277.5336 361.3376,277.5586 C361.8276,277.5856 362.2156,277.1126 362.1676,276.6406 C362.1546,276.5056 362.0586,276.3736 361.9086,276.3806 C361.7796,276.3866 361.6346,276.4956 361.6496,276.6406 C361.6536,276.6786 361.6526,276.7156 361.6516,276.7536 C361.6506,276.8106 361.6636,276.7076 361.6506,276.7586 C361.6456,276.7806 361.6416,276.8016 361.6346,276.8226 C361.6326,276.8296 361.6116,276.8906 361.6256,276.8526 C361.6396,276.8146 361.6156,276.8716 361.6116,276.8796 C361.6026,276.8956 361.5936,276.9116 361.5826,276.9266 C361.5776,276.9346 361.5736,276.9416 361.5686,276.9496 C361.5886,276.9236 361.5926,276.9176 361.5806,276.9326 C361.5686,276.9446 361.5576,276.9586 361.5446,276.9716 C361.5376,276.9776 361.5326,276.9836 361.5256,276.9896 C361.5036,277.0076 361.5076,277.0046 361.5366,276.9816 C361.5356,276.9896 361.4996,277.0056 361.4936,277.0096 C361.4886,277.0126 361.4836,277.0156 361.4776,277.0186 C361.4516,277.0316 361.4546,277.0306 361.4886,277.0156 C361.4726,277.0286 361.4006,277.0486 361.3796,277.0446 C361.3906,277.0426 361.4016,277.0416 361.4116,277.0396 C361.4006,277.0406 361.3876,277.0416 361.3746,277.0416 C361.3646,277.0416 361.3256,277.0466 361.3196,277.0396 C361.3546,277.0446 361.3616,277.0456 361.3416,277.0426 C361.3326,277.0416 361.3236,277.0396 361.3146,277.0366 C361.2956,277.0336 361.2776,277.0286 361.2596,277.0226 C361.2506,277.0196 361.2416,277.0166 361.2326,277.0136 C361.2146,277.0066 361.2206,277.0086 361.2506,277.0206 C361.2496,277.0216 361.2016,276.9946 361.1996,276.9936 C361.1976,276.9926 361.1516,276.9616 361.1506,276.9616 C361.1766,276.9826 361.1826,276.9866 361.1676,276.9746 C361.1606,276.9686 361.1536,276.9626 361.1476,276.9566 C361.1186,276.9326 361.0956,276.9056 361.0706,276.8776 C361.0336,276.8356 361.0936,276.9156 361.0666,276.8706 C361.0566,276.8546 361.0446,276.8396 361.0356,276.8236 C361.0196,276.7956 360.9886,276.7546 360.9826,276.7226 C360.9956,276.7546 360.9966,276.7576 360.9866,276.7306 C360.9836,276.7216 360.9796,276.7126 360.9766,276.7036 C360.9706,276.6846 360.9646,276.6666 360.9586,276.6476 C360.9476,276.6066 360.9386,276.5656 360.9316,276.5236 C360.9096,276.3906 360.7366,276.3026 360.6126,276.3426 C360.4676,276.3896 360.4076,276.5176 360.4316,276.6616" id="Fill-104" fill="#000000" mask="url(#mask-12)"></path>
                <path d="M361.6357,276.7226 C361.7137,277.2506 362.3457,277.4946 362.8097,277.3266 C363.0347,277.2456 363.2317,277.0886 363.3307,276.8666 C363.4277,276.6486 363.4617,276.3896 363.3687,276.1626 C363.3427,276.0976 363.3137,276.0456 363.2497,276.0086 C363.1947,275.9756 363.1127,275.9616 363.0507,275.9816 C362.9297,276.0206 362.8147,276.1666 362.8687,276.3016 C362.8847,276.3386 362.8927,276.3746 362.9037,276.4126 C362.9067,276.4326 362.9067,276.4246 362.9017,276.3896 C362.9027,276.4006 362.9037,276.4126 362.9047,276.4256 C362.9057,276.4436 362.9057,276.4616 362.9057,276.4796 C362.9047,276.4936 362.9077,276.5246 362.9017,276.5346 C362.9067,276.4986 362.9067,276.4906 362.9047,276.5106 C362.9027,276.5196 362.9007,276.5286 362.8987,276.5376 C362.8937,276.5596 362.8847,276.6266 362.8667,276.6416 C362.8817,276.6076 362.8837,276.6036 362.8717,276.6296 C362.8677,276.6376 362.8647,276.6456 362.8597,276.6536 C362.8507,276.6686 362.8417,276.6836 362.8327,276.6996 C362.7967,276.7536 362.8617,276.6736 362.8257,276.7096 C362.8137,276.7226 362.8017,276.7376 362.7877,276.7506 C362.7857,276.7526 362.7467,276.7896 362.7447,276.7886 C362.7697,276.7696 362.7747,276.7656 362.7597,276.7766 C362.7517,276.7826 362.7437,276.7866 362.7357,276.7926 C362.7197,276.8026 362.7027,276.8116 362.6867,276.8196 C362.6757,276.8256 362.6647,276.8306 362.6537,276.8356 C362.6837,276.8236 362.6907,276.8206 362.6717,276.8266 C362.6327,276.8376 362.5947,276.8486 362.5557,276.8576 C362.5037,276.8696 362.6087,276.8576 362.5507,276.8586 C362.5317,276.8586 362.5137,276.8606 362.4947,276.8606 C362.4767,276.8606 362.4577,276.8596 362.4397,276.8586 C362.4277,276.8576 362.4147,276.8566 362.4027,276.8546 C362.4127,276.8566 362.4227,276.8576 362.4327,276.8586 C362.4007,276.8666 362.3387,276.8346 362.3087,276.8266 C362.2907,276.8196 362.2957,276.8226 362.3237,276.8336 C362.3157,276.8296 362.3067,276.8256 362.2977,276.8206 C362.2817,276.8126 362.2457,276.7986 362.2367,276.7846 C362.2427,276.7896 362.2497,276.7946 362.2567,276.8006 C362.2467,276.7926 362.2377,276.7846 362.2287,276.7756 C362.2267,276.7736 362.1877,276.7356 362.1887,276.7346 C362.2067,276.7596 362.2107,276.7646 362.1997,276.7486 C362.1947,276.7416 362.1887,276.7336 362.1837,276.7246 C362.1767,276.7146 362.1547,276.6866 362.1557,276.6736 C362.1677,276.7056 362.1687,276.7086 362.1577,276.6806 C362.1567,276.6756 362.1547,276.6686 362.1527,276.6626 C362.1447,276.6376 362.1397,276.6106 362.1357,276.5846 C362.1157,276.4506 361.9387,276.3646 361.8167,276.4036 C361.6697,276.4516 361.6147,276.5776 361.6357,276.7226" id="Fill-105" fill="#000000" mask="url(#mask-12)"></path>
                <path d="M363.3857,276.206 C363.1537,275.289 362.7437,274.43 362.4737,273.525 C362.3777,273.206 361.8777,273.342 361.9737,273.663 C362.2437,274.568 362.6537,275.427 362.8847,276.344 C362.9667,276.667 363.4667,276.531 363.3857,276.206" id="Fill-106" fill="#000000" mask="url(#mask-12)"></path>
                <path d="M357.5498,277.4355 C357.5878,277.8065 357.5958,278.1815 357.4678,278.5335 C357.4288,278.6395 357.3418,278.7865 357.2658,278.8685 C357.1598,278.9815 357.0818,279.0325 356.9458,279.0645 C356.8088,279.0975 356.7278,279.2525 356.7638,279.3845 C356.8028,279.5225 356.9458,279.5975 357.0828,279.5645 C357.4908,279.4675 357.7798,279.1255 357.9358,278.7515 C358.1078,278.3385 358.1138,277.8745 358.0688,277.4355 C358.0548,277.2965 357.9598,277.1765 357.8098,277.1765 C357.6808,277.1765 357.5358,277.2955 357.5498,277.4355" id="Fill-107" fill="#000000" mask="url(#mask-12)"></path>
                <path d="M361.7314,280.6288 C361.0674,280.8618 360.3634,280.8708 359.6964,280.6458 C359.5634,280.6008 359.4124,280.6968 359.3774,280.8268 C359.3374,280.9678 359.4244,281.1008 359.5574,281.1458 C360.3044,281.3978 361.1264,281.3888 361.8694,281.1288 C362.0024,281.0828 362.0894,280.9518 362.0504,280.8098 C362.0154,280.6818 361.8644,280.5828 361.7314,280.6288" id="Fill-108" fill="#000000" mask="url(#mask-12)"></path>
                <path d="M363.0693,272.9799 C363.1663,272.4419 363.6243,272.1489 363.7833,272.0569 C364.1313,271.8559 364.5203,271.6489 365.1883,271.6739 C366.4733,271.7219 366.6193,272.1469 366.6863,272.4539 C366.7433,272.7089 366.6723,273.2039 366.3223,273.3549 C366.1333,273.4369 365.7753,273.3489 365.0563,273.4179 C364.3753,273.4839 363.6373,273.8029 363.4243,273.7539 C363.2133,273.7049 362.9823,273.4599 363.0693,272.9799" id="Fill-109" fill="#FFFFFF" mask="url(#mask-12)"></path>
                <path d="M364.4004,273.4389 C365.1294,273.4389 365.1294,272.3059 364.4004,272.3059 C363.6714,272.3059 363.6704,273.4389 364.4004,273.4389" id="Fill-110" fill="#000000" mask="url(#mask-12)"></path>
                <path d="M356.9443,273.871 C357.0193,273.383 357.4693,273.02 357.6353,272.937 C357.9963,272.755 358.5303,272.564 359.2333,272.587 C360.3853,272.623 360.6763,273.154 360.7373,273.443 C360.7883,273.685 360.7353,274.144 360.3703,274.28 C360.1733,274.353 359.7953,274.264 359.0413,274.316 C358.3253,274.366 357.5553,274.652 357.3323,274.601 C357.1073,274.552 356.8753,274.322 356.9443,273.871" id="Fill-111" fill="#FFFFFF" mask="url(#mask-12)"></path>
                <path d="M358.6113,274.267 C359.3163,274.267 359.3173,273.172 358.6113,273.172 C357.9063,273.172 357.9053,274.267 358.6113,274.267" id="Fill-112" fill="#000000" mask="url(#mask-12)"></path>
                <path d="M357.6455,278.9433 C359.3455,279.8463 361.4325,280.1403 363.1505,279.1103 C363.4355,278.9393 363.1755,278.4903 362.8885,278.6633 C361.3335,279.5953 359.4455,279.3123 357.9075,278.4963 C357.6135,278.3393 357.3505,278.7863 357.6455,278.9433" id="Fill-113" fill="#000000" mask="url(#mask-12)"></path>
                <path d="M361.7217,263.7988 C362.3537,263.5248 362.9757,263.2968 363.5817,263.1108 C361.9107,262.2138 359.6797,261.8228 356.7247,262.6188 C347.5137,265.0998 349.5177,273.8428 349.5177,273.8428 C349.5177,273.8428 351.2727,272.0028 353.7547,270.4748 C355.2487,268.5158 358.0537,265.3898 361.7217,263.7988" id="Fill-114" fill="#006B84" mask="url(#mask-12)"></path>
                <path d="M363.582,263.1103 C362.976,263.2963 362.353,263.5253 361.722,263.7983 C358.054,265.3893 355.249,268.5153 353.755,270.4753 C355.075,269.6623 356.601,268.9383 358.177,268.6263 C363.766,267.5213 367.431,268.8673 368.036,269.1153 C368.06,269.1053 368.084,269.0943 368.108,269.0833 C368.935,268.7143 370.352,267.7043 370.845,265.4293 C371.496,262.4263 368.341,261.6473 363.582,263.1103" id="Fill-115" fill="#008DB1" mask="url(#mask-12)"></path>
                <path d="M351.1367,276.4076 C351.5597,276.2636 351.9047,276.6516 352.0317,277.0226 C352.1517,277.3776 352.3237,278.0636 351.8997,278.2826 C351.7757,278.3466 351.7387,278.5216 351.8067,278.6376 C351.8797,278.7636 352.0357,278.7956 352.1607,278.7306 C352.8307,278.3846 352.7347,277.4436 352.5187,276.8486 C352.4017,276.5256 352.2147,276.2346 351.9227,276.0446 C351.6547,275.8696 351.3057,275.8036 350.9987,275.9076 C350.8657,275.9526 350.7787,276.0856 350.8177,276.2266 C350.8527,276.3556 351.0027,276.4526 351.1367,276.4076" id="Fill-116" fill="#000000" mask="url(#mask-12)"></path>
                <path d="M359.9736,291.4042 C359.9736,291.4042 361.5366,289.2382 361.7496,287.8962 C361.7496,287.8962 360.5856,288.1682 358.7056,288.1012 C356.8266,288.0352 356.0936,287.4082 356.0936,287.4082 C356.0936,287.4082 358.2406,289.8802 359.9736,291.4042" id="Fill-117" fill="#006B84" mask="url(#mask-12)"></path>
                <path d="M372.9512,304.1689 C373.0452,299.1319 373.1112,293.9389 371.3072,289.1539 C371.1322,288.6879 370.3742,288.889835 370.5532,289.3619 C372.3342,294.0869 372.2612,299.1959 372.1682,304.1689 C372.1592,304.6729 372.9412,304.6729 372.9512,304.1689" id="Fill-118" fill="#CF4520" mask="url(#mask-12)"></path>
                <path d="M342.6855,288.5292 C346.0395,291.0382 345.1675,295.8242 344.4165,299.3232 C344.3125,299.8152 345.0665,300.0252 345.1725,299.5312 C345.6535,297.2882 346.1365,294.9812 345.7905,292.6812 C345.5065,290.7952 344.6255,289.0092 343.0815,287.8532 C342.6765,287.5512 342.2865,288.2302 342.6855,288.5292" id="Fill-119" fill="#CF4520" mask="url(#mask-12)"></path>
                <path d="M370.3271,391.1537 L360.1311,391.1537 C360.1311,391.1537 360.3361,387.1637 361.0961,385.0977 C361.2691,384.6197 361.3861,384.0207 361.4611,383.3787 L366.2451,383.3787 C366.1631,383.6997 366.1181,383.8567 366.1181,383.8567 C366.1181,383.8567 366.6721,386.6777 369.3521,386.6777 C369.7641,386.6777 370.2111,386.6877 370.6821,386.7217 C370.4911,387.2557 370.3611,387.8167 370.2931,388.3807 C370.1831,389.3007 370.2181,390.2307 370.3271,391.1537" id="Fill-120" fill="#000000" mask="url(#mask-12)"></path>
                <path d="M361.46,383.3774 L366.245,383.3774 C366.434,382.6444 366.823,381.0714 367.343,378.6284 L361.51,378.6284 C361.51,378.6284 361.713,381.2364 361.46,383.3774" id="Fill-121" fill="#B45227" mask="url(#mask-12)"></path>
                <path d="M340.46,384.893 C340.275,385.478 340.036,386.497 340.036,387.779 L340.036,391.154 L332.138,391.154 C331.959,389.636 331.597,388.142 331.054,386.712 C333.364,386.582 334.924,386.032 335.553,384.048 L340.46,384.893 Z" id="Fill-122" fill="#000000" mask="url(#mask-12)"></path>
                <path d="M335.5537,384.0497 L340.4587,384.8927 C340.5687,384.5357 340.6567,384.3407 340.6567,384.3407 L342.8027,378.3427 L337.1457,377.1817 C337.1457,377.1817 336.3197,381.1757 335.6307,383.7887 C335.6067,383.8797 335.5807,383.9647 335.5537,384.0497" id="Fill-123" fill="#B45227" mask="url(#mask-12)"></path>
                <path d="M361.7607,331.1508 C359.9937,332.9608 357.7487,334.2468 355.2947,334.8588 C354.8067,334.9808 355.0137,335.7358 355.5027,335.6138 C358.0817,334.9708 360.4577,333.6068 362.3147,331.7048 C362.6667,331.3438 362.1137,330.7898 361.7607,331.1508" id="Fill-124" fill="#000000" mask="url(#mask-12)"></path>
                <path d="M332.1377,391.1537 L325.7227,391.1537 C325.7227,391.1537 326.3417,386.7457 329.5757,386.7457 C330.0997,386.7457 330.5917,386.7367 331.0527,386.7117 C331.5967,388.1417 331.9587,389.6357 332.1377,391.1537" id="Fill-125" fill="#494949" mask="url(#mask-12)"></path>
                <path d="M376.7178,391.1537 L370.3268,391.1537 C370.2178,390.2307 370.1838,389.3007 370.2928,388.3807 C370.3618,387.8167 370.4908,387.2557 370.6828,386.7217 C373.2878,386.9067 376.4828,387.7717 376.7178,391.1537" id="Fill-126" fill="#494949" mask="url(#mask-12)"></path>
                <path d="M396.1396,281.8105 L396.6036,295.9845 C396.6036,295.9845 402.4006,292.6835 402.4006,292.5185 C402.4006,292.3535 402.1796,279.4245 402.1796,279.4245 L396.1396,281.8105 Z" id="Fill-127" fill="#7A7A7A" mask="url(#mask-12)"></path>
                <path d="M397.458,281.6152 C397.624,281.8762 397.763,282.0982 398.065,282.2302 C398.123,282.2562 398.186,282.2792 398.226,282.3282 C398.348,282.4812 398.15,282.6792 397.99,282.7932 C397.569,283.0902 397.246,283.5432 397.169,284.0522 C397.092,284.5622 397.288,285.1202 397.709,285.4172 C397.796,285.4772 397.892,285.5282 397.963,285.6062 C398.076,285.7292 398.114,285.9022 398.149,286.0652 C398.259,286.5682 398.384,287.0802 398.668,287.5092 C398.952,287.9382 399.428,288.2742 399.942,288.2572 C400.33,288.2432 400.723,287.9762 400.851,287.6042 C400.962,287.2782 400.687,286.8532 401.027,286.6202 C401.218,286.4902 401.478,286.5062 401.687,286.5982 C401.898,286.6902 402.072,286.8482 402.247,286.9982 C402.421,287.1482 402.606,287.2962 402.826,287.3632 C403.274,287.4972 403.63,287.5932 403.824,287.1622 C403.957,286.8692 404.061,286.5582 404.178,286.2582 C404.364,285.7792 404.552,285.3002 404.739,284.8212 L404.455,280.8902 L403.563,277.2032 L402.145,276.4732 L398.094,277.2432 L395.946,278.2972 L395.824,281.7412 C395.847,281.9072 395.87,282.0972 395.931,282.2532 C395.992,282.4092 396.098,282.5542 396.248,282.6292 C396.419,282.7142 396.624,282.6972 396.807,282.6392 C396.875,282.6182 396.942,282.5922 397.001,282.5512 C397.065,282.5052 397.118,282.4442 397.165,282.3802 C397.334,282.1532 397.464,281.8982 397.458,281.6152" id="Fill-128" fill="#B45227" mask="url(#mask-12)"></path>
                <path d="M398.1465,280.1152 C398.0085,280.0942 397.8935,279.9922 397.8225,279.8722 C397.7515,279.7512 397.7195,279.6132 397.6915,279.4762 C397.5645,278.8742 397.4835,278.2622 397.4505,277.6482 C397.4405,277.4642 397.4345,277.2762 397.4765,277.0962 C397.5195,276.9162 397.6155,276.7422 397.7695,276.6412" id="Fill-129" fill="#000000" mask="url(#mask-12)"></path>
                <path d="M398.2285,279.8202 C397.9975,279.7682 397.9825,279.3872 397.9465,279.2012 C397.8925,278.9252 397.8485,278.6492 397.8165,278.3702 C397.7845,278.0902 397.7585,277.8072 397.7495,277.5252 C397.7445,277.3252 397.7405,277.0372 397.9235,276.9052 C398.0575,276.8092 398.1225,276.6392 398.0335,276.4872 C397.9565,276.3552 397.7495,276.2812 397.6155,276.3782 C396.9655,276.8442 397.1295,277.7472 397.2135,278.4362 C397.2595,278.8212 397.3195,279.2072 397.4035,279.5862 C397.4835,279.9522 397.6685,280.3202 398.0655,280.4092 C398.4485,280.4962 398.6125,279.9072 398.2285,279.8202" id="Fill-130" fill="#000000" mask="url(#mask-12)"></path>
                <path d="M402.2393,286.9697 C402.0033,286.8417 401.7973,286.6577 401.6423,286.4377" id="Fill-131" fill="#000000" mask="url(#mask-12)"></path>
                <path d="M402.3926,286.706 C402.3126,286.662 402.2356,286.612 402.1626,286.556 C402.1826,286.572 402.2046,286.588 402.2246,286.604 C402.1046,286.512 401.9976,286.405 401.9056,286.285 C401.9206,286.306 401.9376,286.327 401.9536,286.347 C401.9376,286.326 401.9216,286.305 401.9066,286.284 C401.8596,286.217 401.8046,286.165 401.7236,286.144 C401.6506,286.123 401.5536,286.132 401.4886,286.174 C401.4226,286.216 401.3666,286.279 401.3486,286.357 C401.3306,286.433 401.3316,286.525 401.3786,286.592 C401.5646,286.855 401.8006,287.079 402.0846,287.233 C402.1556,287.272 402.2416,287.286 402.3206,287.264 C402.3906,287.245 402.4676,287.19 402.5026,287.124 C402.5396,287.053 402.5586,286.967 402.5336,286.889 C402.5096,286.814 402.4636,286.745 402.3926,286.706" id="Fill-132" fill="#000000" mask="url(#mask-12)"></path>
                <path d="M401.6787,286.329 C401.5437,286.442 401.3767,286.506 401.2127,286.565 C400.7027,286.751 400.1847,286.913 399.6597,287.053" id="Fill-133" fill="#000000" mask="url(#mask-12)"></path>
                <path d="M401.4619,286.1132 C401.3659,286.1902 401.2279,286.2362 401.0949,286.2842 C400.9319,286.3432 400.7669,286.4002 400.6009,286.4552 C400.2639,286.5662 399.9229,286.6672 399.5789,286.7592 C399.4199,286.8012 399.3219,286.9762 399.3659,287.1342 C399.4099,287.2952 399.5819,287.3902 399.7419,287.3482 C400.1099,287.2492 400.4759,287.1402 400.8369,287.0192 C401.2019,286.8972 401.5899,286.7902 401.8949,286.5452 C402.0229,286.4412 402.0019,286.2202 401.8949,286.1132 C401.7679,285.9862 401.5909,286.0092 401.4619,286.1132" id="Fill-134" fill="#000000" mask="url(#mask-12)"></path>
                <path d="M400.4004,287.0268 C400.6614,287.2708 400.6684,287.7078 400.3704,287.9308 C400.0364,288.1808 399.6484,288.0478 399.3644,287.8018 C398.8094,287.3198 397.8964,286.4268 398.3364,285.6078 C398.5484,285.2108 399.0714,285.0468 399.4724,284.9208 C399.7044,284.8478 399.9384,284.7858 400.1644,284.6958 C400.3974,284.6018 400.6224,284.4838 400.8584,284.3958 C401.2374,284.2558 401.6684,284.1868 402.0694,284.2558 C402.4774,284.3248 402.8464,284.5258 403.2064,284.7208 C403.5514,284.9088 403.8604,284.3818 403.5144,284.1938 C403.1304,283.9848 402.7314,283.7728 402.3004,283.6798 C401.8864,283.5898 401.4634,283.6128 401.0514,283.7028 C400.5334,283.8178 400.0724,284.1018 399.5654,284.2538 C399.1184,284.3878 398.6534,284.5258 398.2704,284.8038 C397.4404,285.4058 397.4924,286.4868 398.0444,287.2678 C398.3084,287.6428 398.6424,287.9928 398.9954,288.2868 C399.3344,288.5708 399.7244,288.7258 400.1694,288.6548 C401.1334,288.4998 401.5684,287.2818 400.8334,286.5948 C400.5464,286.3268 400.1124,286.7578 400.4004,287.0268" id="Fill-135" fill="#000000" mask="url(#mask-12)"></path>
                <path d="M398.0107,285.3217 C397.1627,285.0207 397.3507,283.9547 397.7607,283.3617 C397.9987,283.0167 398.3307,282.8697 398.7207,282.7477 C399.1347,282.6177 399.5427,282.4747 399.9457,282.3117 C400.6897,282.0107 401.4187,281.5237 402.2397,281.4947 C402.7617,281.4767 403.3227,281.5977 403.7507,281.9087 C404.0697,282.1397 404.3737,281.6107 404.0587,281.3817 C403.4947,280.9717 402.7087,280.8297 402.0287,280.8997 C401.4977,280.9537 401.0407,281.1547 400.5637,281.3797 C400.0437,281.6237 399.5127,281.8417 398.9677,282.0257 C398.5197,282.1777 398.0397,282.2767 397.6617,282.5787 C397.2957,282.8717 397.0527,283.2917 396.9127,283.7357 C396.6297,284.6367 396.9097,285.5777 397.8487,285.9107 C398.2197,286.0427 398.3797,285.4527 398.0107,285.3217" id="Fill-136" fill="#000000" mask="url(#mask-12)"></path>
                <path d="M398.8154,282.0883 C398.2614,281.8793 398.1214,281.0463 398.3184,280.5493 C398.4294,280.2663 398.7264,280.1153 398.9914,280.0013 C399.2784,279.8763 399.5714,279.7653 399.8554,279.6323 C400.3424,279.4053 400.8214,279.1453 401.3404,278.9983 C401.9384,278.8303 402.5134,278.8803 403.0924,279.0933 C403.4614,279.2303 403.6224,278.6393 403.2544,278.5043 C402.5294,278.2363 401.7734,278.2133 401.0364,278.4523 C400.3614,278.6713 399.7464,279.0393 399.0904,279.3063 C398.7304,279.4533 398.3654,279.5853 398.0754,279.8543 C397.7814,280.1283 397.6734,280.4783 397.6454,280.8693 C397.5894,281.6313 397.9044,282.3953 398.6524,282.6773 C399.0214,282.8163 399.1804,282.2263 398.8154,282.0883" id="Fill-137" fill="#000000" mask="url(#mask-12)"></path>
                <path d="M399.3516,278.7607 C399.6116,278.8977 399.8836,279.0087 400.1646,279.0917" id="Fill-138" fill="#000000" mask="url(#mask-12)"></path>
                <path d="M399.1973,279.0243 C399.4793,279.1723 399.7773,279.2953 400.0833,279.3863 C400.2363,279.4313 400.4233,279.3313 400.4593,279.1723 C400.4963,279.0083 400.4103,278.8453 400.2463,278.7963 C400.0863,278.7493 399.9283,278.6933 399.7753,278.6283 L399.8483,278.6593 C399.7313,278.6093 399.6183,278.5553 399.5063,278.4973 C399.4333,278.4593 399.3503,278.4433 399.2703,278.4663 C399.2003,278.4853 399.1233,278.5403 399.0883,278.6063 C399.0133,278.7473 399.0473,278.9443 399.1973,279.0243" id="Fill-139" fill="#000000" mask="url(#mask-12)"></path>
                <path d="M394.8311,281.4819 C395.0521,281.9069 395.2951,282.3349 395.6781,282.6349 C396.0521,282.9279 396.5871,283.0819 397.0481,282.9109 C397.5491,282.7259 397.8081,282.2249 397.9711,281.7459 C398.1421,281.2459 398.1891,280.7099 398.2281,280.1849 C398.2411,280.0209 398.0801,279.8799 397.9241,279.8799 C397.7481,279.8799 397.6301,280.0199 397.6181,280.1849 C397.5871,280.6019 397.5471,281.0179 397.4331,281.4199 C397.3451,281.7299 397.1951,282.1959 396.8671,282.3299 C396.5891,282.4429 396.2411,282.3219 396.0211,282.1319 C395.7231,281.8729 395.5381,281.5189 395.3581,281.1739 C395.1771,280.8249 394.6491,281.1329 394.8311,281.4819" id="Fill-140" fill="#000000" mask="url(#mask-12)"></path>
                <path d="M755.3213,1034.5868 C755.3213,1034.5868 843.7233,784.0978 905.8603,784.0978 C967.9973,784.0978 1081.2593,1034.5868 1081.2593,1034.5868 L755.3213,1034.5868 Z" id="Fill-141" fill="#007A0E" mask="url(#mask-12)"></path>
                <path d="M314.4561,931.7284 C314.4561,931.7284 315.3371,767.0354 288.9151,767.0354 C262.4941,767.0354 252.8061,931.7284 252.8061,931.7284" id="Fill-142" fill="#00520A" mask="url(#mask-12)"></path>
                <path d="M283.6328,904.2236 C283.6328,904.2236 289.7788,868.7576 289.0598,856.6956 C288.3388,844.6336 284.7718,807.7276 286.3748,800.5266" id="Stroke-143" stroke="#101820" stroke-width="2" stroke-linecap="round" mask="url(#mask-12)"></path>
                <path d="M287.123,830.7831 C287.123,830.7831 276.997,828.8701 275.296,825.3691" id="Stroke-144" stroke="#101820" stroke-width="2" stroke-linecap="round" mask="url(#mask-12)"></path>
                <path d="M296.8213,835.8867 C296.4873,838.4917 288.2813,846.0387 288.2813,846.0387" id="Stroke-145" stroke="#101820" stroke-width="2" stroke-linecap="round" mask="url(#mask-12)"></path>
                <path d="M300.5137,834.1015 C300.5137,834.1015 297.3227,837.4085 293.7847,834.6475" id="Stroke-146" stroke="#101820" stroke-width="2" stroke-linecap="round" mask="url(#mask-12)"></path>
                <path d="M286.1094,802.495 C286.1094,802.495 280.6364,800.464 279.8904,796.982" id="Stroke-147" stroke="#101820" stroke-width="2" stroke-linecap="round" mask="url(#mask-12)"></path>
                <path d="M286.5557,885.4111 C286.5557,885.4111 273.6357,882.8361 271.9717,877.0101" id="Stroke-148" stroke="#101820" stroke-width="2" stroke-linecap="round" mask="url(#mask-12)"></path>
                <path d="M59.2578,852.8251 C59.2578,852.8251 57.9898,615.8701 96.0048,615.8701 C134.0188,615.8701 147.9568,852.8251 147.9568,852.8251" id="Fill-149" fill="#00520A" mask="url(#mask-12)"></path>
                <path d="M103.6045,813.2509 C103.6045,813.2509 94.7615,762.2249 95.7975,744.8699 C96.8335,727.5159 101.9665,674.4169 99.6595,664.0569" id="Stroke-150" stroke="#101820" stroke-width="2" stroke-linecap="round" mask="url(#mask-12)"></path>
                <path d="M98.583,707.5888 C98.583,707.5888 113.152,704.8368 115.599,699.7998" id="Stroke-151" stroke="#101820" stroke-width="2" stroke-linecap="round" mask="url(#mask-12)"></path>
                <path d="M84.6289,714.9316 C85.1089,718.6796 96.9159,729.5376 96.9159,729.5376" id="Stroke-152" stroke="#101820" stroke-width="2" stroke-linecap="round" mask="url(#mask-12)"></path>
                <path d="M79.3174,712.3622 C79.3174,712.3622 83.9094,717.1202 88.9994,713.1482" id="Stroke-153" stroke="#101820" stroke-width="2" stroke-linecap="round" mask="url(#mask-12)"></path>
                <path d="M100.042,666.8886 C100.042,666.8886 107.916,663.9666 108.989,658.9566" id="Stroke-154" stroke="#101820" stroke-width="2" stroke-linecap="round" mask="url(#mask-12)"></path>
                <path d="M99.3994,786.1845 C99.3994,786.1845 117.9874,782.4805 120.3824,774.0975" id="Stroke-155" stroke="#101820" stroke-width="2" stroke-linecap="round" mask="url(#mask-12)"></path>
                <path d="M45.4023,834.8027 C45.4023,834.8027 46.6173,759.6467 56.5803,759.6467 C66.5423,759.6467 73.1023,849.3817 73.1023,849.3817 L45.4023,834.8027 Z" id="Fill-156" fill="#00AA13" mask="url(#mask-12)"></path>
                <path d="M31.5527,866.1747 C31.5527,866.1747 32.7677,791.0197 42.7297,791.0197 C52.6927,791.0197 59.2527,880.7537 59.2527,880.7537 L31.5527,866.1747 Z" id="Fill-157" fill="#FFD51C" mask="url(#mask-12)"></path>
                <path d="M139.1943,815.9794 C139.1943,815.9794 140.4093,740.8234 150.3713,740.8234 C160.3343,740.8234 166.8943,830.5584 166.8943,830.5584 L139.1943,815.9794 Z" id="Fill-158" fill="#00AA13" mask="url(#mask-12)"></path>
                <path d="M763.6914,1006.8847 C763.6914,1006.8847 764.9064,931.7287 774.8694,931.7287 C784.8314,931.7287 791.3914,1021.4637 791.3914,1021.4637 L763.6914,1006.8847 Z" id="Fill-159" fill="#00AA13" mask="url(#mask-12)"></path>
                <path d="M779.4121,969.7753 C779.4121,969.7753 780.6271,894.6193 790.5891,894.6193 C800.5521,894.6193 807.1121,984.3543 807.1121,984.3543 L779.4121,969.7753 Z" id="Fill-160" fill="#00520A" mask="url(#mask-12)"></path>
                <path d="M14.083,849.2538 C14.083,849.2538 15.298,774.0978 25.261,774.0978 C35.223,774.0978 41.783,863.8328 41.783,863.8328 L14.083,849.2538 Z" id="Fill-161" fill="#101820" mask="url(#mask-12)"></path>
                <path d="M777.542,1020.287 C777.542,1020.287 778.757,945.132 788.719,945.132 C798.682,945.132 805.242,1034.866 805.242,1034.866 L777.542,1020.287 Z" id="Fill-162" fill="#101820" mask="url(#mask-12)"></path>
                <path d="M305.7607,905.3642 C305.7607,905.3642 306.9757,851.0252 316.9387,851.0252 C326.9007,851.0252 333.4607,915.9052 333.4607,915.9052 L305.7607,905.3642 Z" id="Fill-163" fill="#101820" mask="url(#mask-12)"></path>
                <path d="M1348.3037,986.0673 C1348.3037,986.0673 1349.5187,931.7283 1359.4817,931.7283 C1369.4437,931.7283 1376.0037,996.6083 1376.0037,996.6083 L1348.3037,986.0673 Z" id="Fill-164" fill="#E8E8E8" mask="url(#mask-12)"></path>
                <path d="M1366.3516,980.9784 C1366.3516,980.9784 1367.5666,886.4694 1377.5296,886.4694 C1387.4916,886.4694 1394.0516,999.3114 1394.0516,999.3114 L1366.3516,980.9784 Z" id="Fill-165" fill="#A4A5A5" mask="url(#mask-12)"></path>
                <path d="M1380.2021,1001.3779 C1380.2021,1001.3779 1381.4171,947.0389 1391.3791,947.0389 C1401.3421,947.0389 1407.9021,1011.9189 1407.9021,1011.9189 L1380.2021,1001.3779 Z" id="Fill-166" fill="#E8E8E8" mask="url(#mask-12)"></path>
                <path d="M-61.3604,902.9023 C32.9936,853.6733 70.6986,763.4213 154.4066,810.5983 C238.1146,857.7763 406.3126,974.6943 687.3266,974.6943 L1483.1896,974.6943 L1507.8046,1155.7143 L77.3636,1235.1963 L-61.3604,902.9023 Z" id="Fill-167" fill="#101820" mask="url(#mask-12)"></path>
            </g>
        </g>
    </g>
</svg>