<svg id="Layer_1" data-name="Layer 1" xmlns="http://www.w3.org/2000/svg" xmlns:xlink="http://www.w3.org/1999/xlink" viewBox="0 0 1691.37 840"><defs><style>.cls-1{fill:#fff;}.cls-1,.cls-10,.cls-11,.cls-12,.cls-13,.cls-14,.cls-15,.cls-16,.cls-17,.cls-19,.cls-20,.cls-21,.cls-22,.cls-23,.cls-24,.cls-25,.cls-27,.cls-29,.cls-3,.cls-30,.cls-32,.cls-36,.cls-6,.cls-7,.cls-9{fill-rule:evenodd;}.cls-2{mask:url(#mask);}.cls-3{fill:#e8e8e8;}.cls-4{mask:url(#mask-2-2);}.cls-5{mask:url(#mask-3);}.cls-6{fill:#00660c;}.cls-7{fill:#7a7a7a;}.cls-8{mask:url(#mask-4-2);}.cls-9{fill:#97deeb;}.cls-10{fill:#00c7e2;}.cls-11{fill:#e7e7e7;}.cls-13{fill:#b45227;}.cls-14{fill:#00520a;}.cls-15{fill:#005400;}.cls-16{fill:#ffbf00;}.cls-17{fill:#00ae00;}.cls-18{mask:url(#mask-5);}.cls-19{fill:#f07600;}.cls-20{fill:#004656;}.cls-21{fill:#f06400;}.cls-22{fill:#006b84;}.cls-23{fill:#008db1;}.cls-24{fill:#cf4520;}.cls-25{fill:#494949;}.cls-26{mask:url(#mask-57);}.cls-27{fill:#007a0e;}.cls-28{fill:none;stroke:#101820;stroke-linecap:round;stroke-width:2px;}.cls-29{fill:#00aa13;}.cls-30{fill:#ffd51c;}.cls-31{mask:url(#mask-75);}.cls-32,.cls-40{fill:#101820;}.cls-33{mask:url(#mask-78);}.cls-34{mask:url(#mask-80);}.cls-35{mask:url(#mask-81);}.cls-36{fill:#a4a5a5;}.cls-37{mask:url(#mask-82);}.cls-38{mask:url(#mask-83);}.cls-39{mask:url(#mask-84);}</style><mask id="mask" x="388.05" y="428.27" width="503.48" height="418.49" maskUnits="userSpaceOnUse"><g id="mask-2"><polygon id="path-1" class="cls-1" points="388.05 428.27 891.52 428.27 891.52 820.57 388.05 820.57 388.05 428.27"/></g></mask><mask id="mask-2-2" x="336.54" y="756.79" width="1261.43" height="418.49" maskUnits="userSpaceOnUse"><g id="mask-4"><polygon id="path-3" class="cls-1" points="336.54 756.79 1239.95 756.79 1239.95 820.57 336.54 820.57 336.54 756.79"/></g></mask><mask id="mask-3" x="-183" y="283.82" width="1203.39" height="886.79" maskUnits="userSpaceOnUse"><g id="mask-6"><polygon id="path-5" class="cls-1" points="0.41 283.82 1020.38 283.82 1020.38 820.57 0.41 820.57 0.41 283.82"/></g></mask><mask id="mask-4-2" x="-45.82" y="332.9" width="248.18" height="57.38" maskUnits="userSpaceOnUse"><g id="mask-8"><polygon id="path-7" class="cls-1" points="0.41 332.9 202.36 332.9 202.36 390.29 0.41 390.29 0.41 332.9"/></g></mask><mask id="mask-5" x="0.41" y="-31.62" width="1239.55" height="852.19" maskUnits="userSpaceOnUse"><g id="mask-12"><polygon id="path-11" class="cls-1" points="0.41 820.57 1239.95 820.57 1239.95 -31.62 0.41 -31.62 0.41 820.57"/></g></mask><mask id="mask-57" x="0.41" y="-31.62" width="1239.55" height="890.57" maskUnits="userSpaceOnUse"><g id="mask-12-54" data-name="mask-12"><polygon id="path-11-53" data-name="path-11" class="cls-1" points="0.41 820.57 1239.95 820.57 1239.95 -31.62 0.41 -31.62 0.41 820.57"/></g></mask><mask id="mask-75" x="0.41" y="-31.62" width="1239.55" height="879.27" maskUnits="userSpaceOnUse"><g id="mask-12-72" data-name="mask-12"><polygon id="path-11-71" data-name="path-11" class="cls-1" points="0.41 820.57 1239.95 820.57 1239.95 -31.62 0.41 -31.62 0.41 820.57"/></g></mask><mask id="mask-78" x="0.41" y="-31.62" width="1239.55" height="890.81" maskUnits="userSpaceOnUse"><g id="mask-12-75" data-name="mask-12"><polygon id="path-11-74" data-name="path-11" class="cls-1" points="0.41 820.57 1239.95 820.57 1239.95 -31.62 0.41 -31.62 0.41 820.57"/></g></mask><mask id="mask-80" x="0.41" y="-31.62" width="1239.55" height="857.88" maskUnits="userSpaceOnUse"><g id="mask-12-77" data-name="mask-12"><polygon id="path-11-76" data-name="path-11" class="cls-1" points="0.41 820.57 1239.95 820.57 1239.95 -31.62 0.41 -31.62 0.41 820.57"/></g></mask><mask id="mask-81" x="0.41" y="-31.62" width="1239.55" height="860.2" maskUnits="userSpaceOnUse"><g id="mask-12-78" data-name="mask-12"><polygon id="path-11-77" data-name="path-11" class="cls-1" points="0.41 820.57 1239.95 820.57 1239.95 -31.62 0.41 -31.62 0.41 820.57"/></g></mask><mask id="mask-82" x="0.41" y="-31.62" width="1239.55" height="871.06" maskUnits="userSpaceOnUse"><g id="mask-12-79" data-name="mask-12"><polygon id="path-11-78" data-name="path-11" class="cls-1" points="0.41 820.57 1239.95 820.57 1239.95 -31.62 0.41 -31.62 0.41 820.57"/></g></mask><mask id="mask-83" x="-52.69" y="-31.62" width="1350.73" height="1063.25" maskUnits="userSpaceOnUse"><g id="mask-12-80" data-name="mask-12"><polygon id="path-11-79" data-name="path-11" class="cls-1" points="0.41 820.57 1239.95 820.57 1239.95 -31.62 0.41 -31.62 0.41 820.57"/></g></mask><mask id="mask-84" x="1532.58" y="116.86" width="158.8" height="77.87" maskUnits="userSpaceOnUse"><g id="mask-10-2" data-name="mask-10"><polygon id="path-9" class="cls-1" points="1532.58 116.86 1691.37 116.86 1691.37 194.73 1532.58 194.73 1532.58 116.86"/></g></mask></defs><g id="Page-1-Copy"><g id="Home-Page-Copy-10"><g id="Group-168"><g id="Group-3"><g class="cls-2"><path id="Fill-1" class="cls-3" d="M388.05,771.63s157-343.36,238.34-343.36S891.53,846.75,891.53,846.75"/></g></g><g id="Group-6"><g class="cls-4"><path id="Fill-4" class="cls-3" d="M336.54,1100.16S730,756.79,933.7,756.79,1598,1175.28,1598,1175.28"/></g></g><g id="Group-9"><g class="cls-5"><path id="Fill-7" class="cls-6" d="M-183,904.5S42.89,283.82,321,283.82s699.37,886.78,699.37,886.78"/></g></g><path id="Fill-10" class="cls-7" d="M342.81,54.1a4.21,4.21,0,1,1-4.2-4.21,4.21,4.21,0,0,1,4.2,4.21"/><g id="Group-14"><g class="cls-8"><path id="Fill-12" class="cls-9" d="M116.09,349.52s0-8.86-20.31-11.45c-23.21-2.95-29.9,8.86-29.9,8.86s-6.64-14-35.07-14S-8.32,349.15-8.32,349.15s-34-4.43-37.28,14.39c-2.78,15.74,21.41,23.26,44.3,13.66,0,0,10.2,14.13,39,13s33.35-13.77,33.35-13.77S81.8,388,105.28,389s33.64-8.89,33.64-8.89,32.68,12.69,58.07-5.71c17.62-12.78-11.11-32.05-42.84-32.37-25.75-.25-38.06,7.53-38.06,7.53"/></g></g><path id="Fill-15" class="cls-10" d="M224.55,155.37c17.95-6.78,59.42,0,54.42,10s-21.87,7-21.87,7S254.22,178,239.4,179c-20.33,1.32-27.32-6.78-27.32-6.78s-1.49,6.37-12.72,7c-17.36,1-20.7-5.75-20.7-5.75-13.47,7.71-41,4.77-43.15-4.66-2.16-9.63,7.26-14,17.83-14.17,12.16-.14,17.21,3.91,17.21,3.91S171,144,197.26,142.88s27.29,12.49,27.29,12.49"/><path id="Fill-17" class="cls-9" d="M.41,109.85c4.46-1.52,9.2-5.94,9.2-5.94s7.71,13.72,38.48,10.52C71,112.05,78.88,96.49,78.88,96.49s45.67,4.09,52.94-14.51c6.48-16.59-13.41-33.61-42.61-39.7-28.35-5.91-41.57,2.91-41.57,2.91S46.94,39,32,32A71.91,71.91,0,0,0,.41,25.41Z"/><path id="Fill-19" class="cls-10" d="M546.2,542.57s-20.94-8.74-23.16,8.5,25.57,18.36,29.28,13.88c0,0,7.6,10.07,26.31,10.07s25.21-7.39,25.21-7.39,8.71,7.84,26.31,7.62,24.1-11.2,24.1-11.2,29.09,9.4,34.1-7.61-38.92-29.54-52.64-10.52c0,0-3.3-12.2-18.67-12.49s-19.44,8.12-19.44,8.12-3.6-15.36-26.17-15.65c-17.77-.23-25.23,16.67-25.23,16.67"/><path id="Fill-21" class="cls-10" d="M732.93,599.88s10.88-4.53,12,4.42-13.28,9.53-15.2,7.21c0,0-4,5.23-13.67,5.23S703,612.9,703,612.9s-4.53,4.07-13.67,4S676.82,611,676.82,611s-15.11,4.88-17.71-3.95,20.21-15.35,27.33-5.46c0,0,1.72-6.34,9.7-6.49s10.1,4.22,10.1,4.22,1.87-8,13.59-8.14c9.23-.11,13.1,8.66,13.1,8.66"/><path id="Fill-28" class="cls-11" d="M470.76,136.32c-3,1-3.91,2.25-4.21,5.64a.5.5,0,0,1-1,.1c-1-3.26-2.13-4.29-5.27-4.67a.56.56,0,0,1-.11-1.07c3-1,3.92-2.25,4.22-5.64a.5.5,0,0,1,1-.1c1,3.26,2.14,4.29,5.27,4.67a.56.56,0,0,1,.11,1.07"/><path id="Fill-30" class="cls-12" d="M336.15,64.6a8,8,0,0,0,2.58.21,7.65,7.65,0,0,0,1.35-.25,12.52,12.52,0,0,0,1.43-.57,1.45,1.45,0,0,0,.52-2,1.46,1.46,0,0,0-.87-.67,1.67,1.67,0,0,0-1.12.14l-.35.16.35-.15a6.3,6.3,0,0,1-1.63.46l.39,0a6,6,0,0,1-1.52,0l.38,0-.73-.13a1.55,1.55,0,0,0-1.12.14,1.49,1.49,0,0,0-.67.87,1.47,1.47,0,0,0,1,1.79"/><path id="Fill-32" class="cls-13" d="M284.85,200l-1.31-2.46a2.43,2.43,0,0,0,1.29-1.39,2.67,2.67,0,0,0,.37-1.77,8.06,8.06,0,0,0,1.32-2.59c.27-1.22-.36-2.12-1.49-2.08,0,0-.1-.46-1.24-1.48s-1.73-1.54-2.56-1.5-3.25.92-3.52,1.73-.08.94-.46,1.21-1.06.94-1.06,1.48a2.07,2.07,0,0,1-.35,1.29,3.64,3.64,0,0,0-.13,3.25c.67,1.37,1.44,3.06,2.79,3.6l1,2.12Z"/><path id="Fill-34" class="cls-12" d="M276.85,195.51a1.56,1.56,0,0,0,.68-.13"/><path id="Fill-36" class="cls-12" d="M276.85,195.77a2,2,0,0,0,.42,0,2.23,2.23,0,0,0,.39-.13.24.24,0,0,0,.12-.16.27.27,0,0,0,0-.2.24.24,0,0,0-.16-.12h-.07a.28.28,0,0,0-.13,0h0l.07,0a1.78,1.78,0,0,1-.38.1h.07a1.31,1.31,0,0,1-.28,0,.27.27,0,0,0,0,.53"/><path id="Fill-38" class="cls-12" d="M277.55,195.28a1.23,1.23,0,0,0,.24.38,11.62,11.62,0,0,0,.93,1.05"/><path id="Fill-40" class="cls-12" d="M277.3,195.35a2.65,2.65,0,0,0,.58.83c.21.25.43.49.65.72a.27.27,0,0,0,.37,0,.26.26,0,0,0,0-.37c-.21-.22-.41-.45-.61-.68l-.29-.34-.07-.09h0l0,0a.41.41,0,0,1-.05-.09l0-.05s0,.05,0,0a.27.27,0,0,0-.33-.18.26.26,0,0,0-.18.32"/><path id="Fill-42" class="cls-12" d="M278.05,195.86a1,1,0,0,0-.55,1.68c.56.67,1.58.36,2.26.07a1.5,1.5,0,0,0,1-1.88,3.24,3.24,0,0,0-.71-1c-.28-.31-.48-.69-.76-1a2.71,2.71,0,0,0-1-.67,4,4,0,0,0-1.15-.17c-.34,0-.33.51,0,.53a2.34,2.34,0,0,1,1.72.63c.29.28.47.65.74.95a2.94,2.94,0,0,1,.7,1c.28.89-.91,1.24-1.53,1.38-.35.08-.75.1-.94-.27a.51.51,0,0,1,.36-.73c.33-.07.19-.57-.14-.5"/><path id="Fill-44" class="cls-12" d="M280.56,196.68a1.46,1.46,0,0,0,1.69-1.37,1.84,1.84,0,0,0-.18-1.24,7.79,7.79,0,0,0-.89-1.1,7.24,7.24,0,0,0-1.69-2,2.5,2.5,0,0,0-1.5-.4c-.33,0-.34.55,0,.52a2,2,0,0,1,1.05.23,4,4,0,0,1,1.36,1.47c.22.3.45.6.69.89a2.29,2.29,0,0,1,.64,1c.14.64-.2,1.69-1,1.52-.33-.07-.47.44-.14.51"/><path id="Fill-46" class="cls-12" d="M281.41,193.93a1.52,1.52,0,0,0,1.63-1.09c.29-.73-.26-1.28-.65-1.84a10.65,10.65,0,0,0-1-1.35,3,3,0,0,0-1.57-.84c-.33-.06-.47.45-.14.51a2.35,2.35,0,0,1,1.24.61,6,6,0,0,1,.78,1l.38.57a2.14,2.14,0,0,1,.45.71,1,1,0,0,1-1,1.2c-.34-.06-.48.45-.14.5"/><path id="Fill-48" class="cls-12" d="M282.63,190.74a4.88,4.88,0,0,1-.75-.12"/><path id="Fill-50" class="cls-12" d="M282.63,190.47a1.53,1.53,0,0,1-.3,0h.07l-.45-.08a.26.26,0,0,0-.32.18.26.26,0,0,0,.18.32,4.52,4.52,0,0,0,.82.13.26.26,0,0,0,.26-.26.27.27,0,0,0-.26-.27"/><path id="Fill-52" class="cls-12" d="M282.92,192.27a.37.37,0,0,0,.34,0,1,1,0,0,0,.28-.23,9.71,9.71,0,0,0,1-1.24,1.72,1.72,0,0,0,.23-.42.61.61,0,0,0,0-.46"/><path id="Fill-54" class="cls-12" d="M282.85,192.52a.83.83,0,0,0,.87-.33c.22-.23.42-.48.62-.73.37-.48.9-1.07.62-1.72a.26.26,0,0,0-.36-.09.27.27,0,0,0-.09.36c.07.17-.06.38-.15.52s-.27.4-.42.6-.32.39-.49.57-.28.38-.46.32a.27.27,0,0,0-.33.18.26.26,0,0,0,.19.32"/><path id="Fill-56" class="cls-12" d="M284.5,194.29a2.54,2.54,0,0,1-.95.42.79.79,0,0,1-.66-.22c-.2-.24-.1-.65,0-.92a4.77,4.77,0,0,1,.42-1,.26.26,0,0,0-.46-.26,5.63,5.63,0,0,0-.5,1.25,1.48,1.48,0,0,0,.19,1.31,1.26,1.26,0,0,0,1,.39,2.92,2.92,0,0,0,1.26-.49c.29-.18,0-.63-.26-.46"/><path id="Fill-58" class="cls-14" d="M381.14,303.18c0,1.53-8.48,2.77-18.94,2.77s-18.94-1.24-18.94-2.77,8.48-2.78,18.94-2.78,18.94,1.25,18.94,2.78"/><path id="Fill-60" class="cls-15" d="M338.61,62.32s15.05,13.3,16.45,40.27c1.9,36.42-11.55,51.82-11.55,51.82s15.06-4.55,28-9.1,22.06-8.06,30.82-3.51,6,9.11,21,9.46,33.27-9.11,40.27-9.11,20.31,1.4,20.31,1.4L475,58.1s-6.5-1.73-9.31-3.49-9.1-12.25-32.91-9.1c-18.41,2.44-43.42,19.26-52.87,20s-14.71-5.95-24.87-6.3c-8.05-.28-16.45,3.15-16.45,3.15"/><path id="Fill-62" class="cls-7" d="M336.54,57.74l7.26,245,.07.11c1.59,2.59,4.73,2.39,6.1-.39L340,57.3Z"/><path id="Fill-64" class="cls-16" d="M278.25,94.77Q290.16,95.63,302,97c3.84.46,3.81-5.57,0-6q-11.85-1.4-23.75-2.26c-3.86-.28-3.85,5.75,0,6"/><path id="Fill-66" class="cls-16" d="M275.69,140.54q14.44-5.34,29.08-10.22c3.66-1.22,2.09-7-1.61-5.81q-14.61,4.87-29.08,10.22c-3.6,1.33-2,7.16,1.61,5.81"/><path id="Fill-68" class="cls-16" d="M344.1,7.05q6.81,10.6,13.6,21.21c2.09,3.26,7.31.24,5.2-3L349.31,4c-2.09-3.25-7.31-.23-5.21,3"/><path id="Fill-70" class="cls-16" d="M500.13,12.15l-16.85,16c-2.81,2.68,1.45,6.94,4.26,4.26l16.85-16c2.82-2.68-1.45-6.94-4.26-4.26"/><path id="Fill-26" class="cls-11" d="M439.26,44.43c-4.82,1.62-6.32,3.62-6.8,9.1a.81.81,0,0,1-1.59.16c-1.58-5.26-3.45-6.92-8.5-7.53a.91.91,0,0,1-.17-1.73c4.82-1.63,6.31-3.63,6.79-9.1a.8.8,0,0,1,1.59-.16c1.58,5.26,3.45,6.92,8.5,7.53a.91.91,0,0,1,.18,1.73"/><path id="Fill-72" class="cls-16" d="M510.82,84.94l29.65-7.8c3.74-1,2.16-6.8-1.6-5.81l-29.65,7.8c-3.75,1-2.16,6.8,1.6,5.81"/><path id="Fill-74" class="cls-16" d="M513.93,115.8,533,117.93c3.84.43,3.81-5.6,0-6l-19.08-2.12c-3.85-.43-3.82,5.6,0,6"/><path id="Fill-76" class="cls-16" d="M487.61,171.28,503,188.47c2.59,2.9,6.84-1.37,4.26-4.26L491.87,167c-2.58-2.9-6.83,1.37-4.26,4.26"/><path id="Fill-78" class="cls-16" d="M369,174.44q-2.92,6.6-5.86,13.2c-1.55,3.51,3.64,6.58,5.21,3l5.85-13.2c1.56-3.51-3.63-6.58-5.2-3"/><path id="Fill-80" class="cls-11" d="M380.45,90.43c-3.84,1.3-5,2.89-5.41,7.25a.64.64,0,0,1-1.27.13c-1.26-4.19-2.75-5.51-6.77-6a.72.72,0,0,1-.14-1.38c3.84-1.29,5-2.88,5.41-7.25a.64.64,0,0,1,1.27-.13c1.26,4.2,2.75,5.52,6.77,6a.71.71,0,0,1,.14,1.37"/><path id="Fill-80-2" data-name="Fill-80" class="cls-11" d="M477.91,155.8c-3.84,1.29-5,2.88-5.41,7.25a.64.64,0,0,1-1.27.13c-1.26-4.2-2.75-5.52-6.77-6a.71.71,0,0,1-.14-1.37c3.84-1.3,5-2.89,5.41-7.25a.64.64,0,0,1,1.27-.13c1.26,4.19,2.75,5.51,6.77,6a.72.72,0,0,1,.14,1.38"/><path id="Fill-82" class="cls-17" d="M382.26,97.89a36.43,36.43,0,1,1,54,33.39,6.7,6.7,0,0,1-9.34-2.35c-1.92-3.32-.75-7.21,2.79-9.29,6.94-4.09,11-10,11.85-18.1a23,23,0,1,0-30.3,19.69c2.41.8,4.24,2.15,5,4.68a6.67,6.67,0,0,1-8.6,8.21c-10.81-3.62-18.55-10.63-22.81-21.21a30.67,30.67,0,0,1-2.28-8.11,27.71,27.71,0,0,1-.3-6.91"/><path id="Fill-84" class="cls-17" d="M405.18,100.74a13.56,13.56,0,0,1,27-2.62,13.56,13.56,0,1,1-27,2.62"/><path id="Fill-86" class="cls-12" d="M338.83,155.37a7,7,0,0,0,6.34-.79,1.57,1.57,0,0,0,.67-.87,1.46,1.46,0,0,0-.15-1.12,1.48,1.48,0,0,0-2-.53,6.65,6.65,0,0,1-.56.36l-.3.14c-.25.13.34-.12,0,0a5.26,5.26,0,0,1-1.24.32l.39,0a6.19,6.19,0,0,1-1.49,0l.38,0a5.6,5.6,0,0,1-1.28-.33,1.42,1.42,0,0,0-1.12.15,1.47,1.47,0,0,0-.67.87,1.5,1.5,0,0,0,1,1.79"/><g class="cls-18"><polygon id="Fill-88" class="cls-12" points="304.76 224.01 313.21 224.01 313.21 213.39 304.76 213.39 304.76 224.01"/></g><g class="cls-18"><path id="Fill-90" class="cls-14" d="M330.91,304.69c0,2.23-13.75,4-30.72,4s-30.71-1.8-30.71-4,13.75-4,30.71-4,30.72,1.81,30.72,4"/></g><g class="cls-18"><path id="Fill-91" class="cls-14" d="M346,312.75c0,2.23-6.38,4-14.26,4s-14.25-1.8-14.25-4,6.38-4,14.25-4,14.26,1.81,14.26,4"/></g><g class="cls-18"><path id="Fill-92" class="cls-13" d="M337.77,216l1.94-2.1a2.42,2.42,0,0,1-.5-1.83,2.7,2.7,0,0,1,.48-1.74,8,8,0,0,1,0-2.9c.33-1.21,1.29-1.72,2.28-1.16,0,0,.29-.36,1.78-.74s2.25-.57,3-.15,2.46,2.31,2.33,3.15-.36.87-.15,1.29a2.46,2.46,0,0,1,.26,1.8,2,2,0,0,0-.28,1.31,3.62,3.62,0,0,1-1.38,2.94c-1.23.91-2.69,2.05-4.14,1.91l-1.86,1.42Z"/></g><g class="cls-18"><polygon id="Fill-93" class="cls-19" points="296.42 243.43 294.36 247.78 297.42 248.52 297.95 244.7 296.42 243.43"/></g><g class="cls-18"><path id="Fill-94" class="cls-20" d="M320.15,244.48s1.82,10.9-.36,28.46-4.5,25.86-4.5,25.86a3,3,0,0,0,2.78,2.43c2.31,0,6.1.42,6.34,3.85H310.13a23.92,23.92,0,0,1,.83-5.21c.65-1.78.36-5.57.36-5.57l-3.85-.29a12.6,12.6,0,0,1,.95-5,4.24,4.24,0,0,0,0-4.5c-.72-1.3.53-3.14.71-4.74s-.48-23.22-.48-23.22l-15.28,42.71a7.73,7.73,0,0,0-.54,3v2.9H280.51s.54-3.79,3.32-3.79,4.62-.29,5.21-2.54,1.31-5.69,1.31-5.69L286.44,292a9.62,9.62,0,0,1,1.54-4.22c1.36-2,.12-3.6.83-5.43a57.21,57.21,0,0,0,2.37-7.59c.88-3.61,6.24-30.27,6.24-30.27Z"/></g><g class="cls-18"><path id="Fill-95" class="cls-19" d="M298,244.7l.49,5.09s2.86,2.42,11.92,1.53,11.77-3.21,11.77-3.21l-2-3.63Z"/></g><g class="cls-18"><path id="Fill-96" class="cls-21" d="M314.42,214.77a20.57,20.57,0,0,1,6.08,2.88,63.43,63.43,0,0,1,6.73,6.88l10.54-9.68,5.75,4.93c-4.36,4.36-8.41,9.63-13.69,12.87a5.59,5.59,0,0,1-1.32.65,5.07,5.07,0,0,1-1.6.16,10.77,10.77,0,0,1-5.86-2.19c-.7,2,0,4.48-.61,6.57-.52,1.8,1.33,3.43.77,6.06s-3.31,3.56-12.17,3.86-13.3-2.45-13.13-5.09,1.29-5.95,1.29-9c0-2,.61-4.85-.71-6.58-.79-1-1.64-.64-2.8-.73a16.71,16.71,0,0,1-4.3-1,12.37,12.37,0,0,1-4.73-2.9c-2.33-2.42-3.16-5.87-3.91-9.15l-1.83-8.1c-.23-1-1-2.72-.82-3.71s.76-1,1.65-1.15c1.69-.39,3.43-1.25,5.17-1.31.31,3.51,1.95,7.32,3.09,10.65a18.08,18.08,0,0,0,1.76,4,2.83,2.83,0,0,0,1.41,1.26,3,3,0,0,0,1.27,0c1.37-.13,2.76-.21,4.12-.41s2.62-.81,4-.92a34,34,0,0,1,5,.4l8.85.69"/></g><g class="cls-18"><path id="Fill-97" class="cls-19" d="M302.65,208.72s-3.12-.06-4.31,1.94a5.29,5.29,0,0,0-.53,4,4,4,0,0,1,3.11.31c1.53.88,8.52,6.21,9.08,6.15,1.23-.12,2.82-2.77,4.19-4.31s2.09-2.43,1.62-3.44l-11.82-5Z"/></g><g class="cls-18"><path id="Fill-98" class="cls-12" d="M306.37,200.55s10,1.2,10.43-.49c.35-1.24-.65-7.26-10.18-5.2a7.12,7.12,0,0,0-5.65,6.86,14.62,14.62,0,0,0,1.92,7.81c1.52,2.25,2.52,2,2.52,2Z"/></g><g class="cls-18"><path id="Fill-99" class="cls-13" d="M313.05,213.69l-1.15.34-.37,2.17a8.87,8.87,0,0,1-2.15.19,7.89,7.89,0,0,1-2.45-.34l-2.34-2.32,0-2.67,8.47,1.7Z"/></g><g class="cls-18"><path id="Fill-100" class="cls-13" d="M304.67,211.64c-.14-.5-.37-2.18-.37-2.18a2.64,2.64,0,0,1-1.88-.53c-.77-.62-1.88-2.62-.79-3.71.64-.65,1.35-1,2.17,0s1.76,1,1.71-.38-.84-4.51.49-5.23,2.66,0,5.16-.34a13.52,13.52,0,0,0,2.77-.69c1-.34,2.23.67,2.5,2a62.07,62.07,0,0,1,.33,7.64c-.14,1.16-1.24,5.59-5.69,5.58-2.27,0-6.4-2.14-6.4-2.14"/></g><g class="cls-18"><path id="Fill-101" class="cls-12" d="M316.08,199c.1,1,.26,2,.35,3.07a31.14,31.14,0,0,1,.1,4.73,13.94,13.94,0,0,1-.35,2.33,7.45,7.45,0,0,1-.27.92l-.06.17c0,.1,0-.07,0,0a1.17,1.17,0,0,0-.05.11,6.26,6.26,0,0,1-1.65,2.25,5,5,0,0,1-4.1,1,.39.39,0,1,0-.21.75,5.77,5.77,0,0,0,4.29-.8,6.91,6.91,0,0,0,2.17-2.48,9.9,9.9,0,0,0,.94-3.38,26,26,0,0,0,0-5c-.09-1.26-.27-2.5-.4-3.76a.39.39,0,0,0-.78,0"/></g><g class="cls-18"><path id="Fill-102" class="cls-12" d="M313,201.83a1.76,1.76,0,0,1,.52-.43,1.07,1.07,0,0,1,.27-.12l.16,0h.39l.18,0,.08,0,.06,0a1.43,1.43,0,0,1,.53.4.39.39,0,1,0,.56-.55,2.12,2.12,0,0,0-1.68-.72,2.35,2.35,0,0,0-1.62.84.39.39,0,0,0,0,.55.38.38,0,0,0,.55,0"/></g><g class="cls-18"><path id="Fill-103" class="cls-12" d="M310.61,201.92a2.22,2.22,0,0,0-1.82-.66,2.19,2.19,0,0,0-1.54,1,.39.39,0,0,0,.68.4,1.46,1.46,0,0,1,.4-.42l.16-.1.07,0h0l.17-.05.07,0h.07a1.38,1.38,0,0,1,.62.08l.1,0,.18.09a1.86,1.86,0,0,1,.27.22.39.39,0,0,0,.55-.55"/></g><g class="cls-18"><path id="Fill-104" class="cls-12" d="M310.39,206.53a.89.89,0,0,0,.78.77.72.72,0,0,0,.72-.79c0-.11-.1-.23-.23-.22a.22.22,0,0,0-.22.22v.1s0,0,0,0,0,0,0,.06,0,.06,0,0v0l0,0v0s0,0,0,0l0,0h0s0,0,0,0l0,0h0s0,0,0,0-.07,0-.09,0h-.11l-.05,0,0,0s0,0,0,0v0l-.07-.06s0,0,0,0l0,0a.25.25,0,0,1,0-.09s0,0,0,0v0l0,0a.43.43,0,0,0,0-.11.22.22,0,0,0-.27-.15.23.23,0,0,0-.16.27"/></g><g class="cls-18"><path id="Fill-105" class="cls-12" d="M311.43,206.58a.75.75,0,0,0,1,.52.79.79,0,0,0,.45-.39.81.81,0,0,0,0-.61.22.22,0,0,0-.1-.13.26.26,0,0,0-.17,0,.23.23,0,0,0-.16.28l0,.1v.1a.24.24,0,0,1,0,.09s0,0,0,0v0l0,0c0,.05,0,0,0,0l0,0,0,0s0,0,0,0h0l0,0h0s0,0,0,0l-.1,0c-.05,0,0,0,0,0h-.11s-.08,0-.1,0,0,0,0,0h0l-.06,0h0l0,0,0,0s0,0,0,0v0s0,0,0,0,0,0,0,0v0s0,0,0-.07a.22.22,0,0,0-.43.12"/></g><g class="cls-18"><path id="Fill-106" class="cls-12" d="M312.93,206.14c-.2-.79-.55-1.53-.78-2.31a.22.22,0,0,0-.43.12c.23.78.58,1.52.78,2.31a.22.22,0,0,0,.43-.12"/></g><g class="cls-18"><path id="Fill-107" class="cls-12" d="M307.91,207.2a2.13,2.13,0,0,1-.07.94,1.05,1.05,0,0,1-.17.29.52.52,0,0,1-.28.17.23.23,0,0,0-.16.27.24.24,0,0,0,.28.16,1.11,1.11,0,0,0,.73-.7,2.3,2.3,0,0,0,.12-1.13.25.25,0,0,0-.23-.23.23.23,0,0,0-.22.23"/></g><g class="cls-18"><path id="Fill-108" class="cls-12" d="M311.51,210a2.69,2.69,0,0,1-1.75,0,.22.22,0,1,0-.12.43,3.08,3.08,0,0,0,2,0,.23.23,0,0,0,.15-.28.22.22,0,0,0-.27-.15"/></g><g class="cls-18"><path id="Fill-109" class="cls-1" d="M312.66,203.36a1.2,1.2,0,0,1,.62-.79,2,2,0,0,1,1.21-.33c1.1,0,1.23.4,1.28.67a.71.71,0,0,1-.31.77,10.15,10.15,0,0,1-1.09.06c-.58,0-1.22.33-1.4.29s-.38-.26-.31-.67"/></g><g class="cls-18"><path id="Fill-110" class="cls-12" d="M313.81,203.76a.49.49,0,0,0,0-1,.49.49,0,0,0,0,1"/></g><g class="cls-18"><path id="Fill-111" class="cls-1" d="M307.39,204.13a1.28,1.28,0,0,1,.59-.81,2.88,2.88,0,0,1,1.38-.3c1,0,1.24.49,1.29.74a.63.63,0,0,1-.31.72c-.17.06-.5,0-1.15,0s-1.28.29-1.47.25a.5.5,0,0,1-.33-.63"/></g><g class="cls-18"><path id="Fill-112" class="cls-12" d="M308.82,204.47a.47.47,0,0,0,0-.94.47.47,0,0,0,0,.94"/></g><g class="cls-18"><path id="Fill-113" class="cls-12" d="M308,208.49a4.83,4.83,0,0,0,4.74.15c.25-.15,0-.54-.22-.39a4.35,4.35,0,0,1-4.29-.14c-.25-.14-.48.25-.23.38"/></g><g class="cls-18"><path id="Fill-114" class="cls-22" d="M311.5,195.46a15,15,0,0,1,1.6-.59,7.77,7.77,0,0,0-5.9-.43c-7.93,2.14-6.2,9.66-6.2,9.66a20.63,20.63,0,0,1,3.64-2.9,18.63,18.63,0,0,1,6.86-5.74"/></g><g class="cls-18"><path id="Fill-115" class="cls-23" d="M313.1,194.87a14.23,14.23,0,0,0-1.6.59,18.55,18.55,0,0,0-6.86,5.75,11.91,11.91,0,0,1,3.81-1.6,15.47,15.47,0,0,1,8.49.42l.06,0a4.29,4.29,0,0,0,2.35-3.15c.57-2.58-2.15-3.25-6.25-2"/></g><g class="cls-18"><path id="Fill-116" class="cls-12" d="M302.39,206.31c.36-.12.66.21.77.53s.25.9-.11,1.09a.22.22,0,0,0,.22.38c.58-.3.5-1.11.31-1.62a1.31,1.31,0,0,0-.51-.69.94.94,0,0,0-.8-.12.23.23,0,0,0-.15.28.21.21,0,0,0,.27.15"/></g><g class="cls-18"><path id="Fill-117" class="cls-22" d="M310,219.22a10.18,10.18,0,0,0,1.53-3,10.73,10.73,0,0,1-2.62.18,3.84,3.84,0,0,1-2.25-.6,42.35,42.35,0,0,0,3.34,3.44"/></g><g class="cls-18"><path id="Fill-118" class="cls-24" d="M321.17,230.21c.08-4.34.14-8.81-1.42-12.93-.15-.4-.8-.22-.65.18,1.54,4.07,1.47,8.47,1.39,12.75a.34.34,0,0,0,.68,0"/></g><g class="cls-18"><path id="Fill-119" class="cls-24" d="M295.12,216.75c2.88,2.16,2.13,6.28,1.49,9.29-.09.42.55.6.65.18a16.57,16.57,0,0,0,.53-5.9,6.32,6.32,0,0,0-2.33-4.16c-.35-.26-.69.33-.34.59"/></g><g class="cls-18"><path id="Fill-120" class="cls-12" d="M318.91,305.08h-8.78a23.92,23.92,0,0,1,.83-5.21,7.09,7.09,0,0,0,.32-1.48h4.12c-.08.28-.11.41-.11.41a3,3,0,0,0,2.78,2.43c.35,0,.74,0,1.14,0a6.91,6.91,0,0,0-.33,1.43,10,10,0,0,0,0,2.38"/></g><g class="cls-18"><path id="Fill-121" class="cls-13" d="M311.28,298.39h4.12c.16-.63.49-2,.94-4.09h-5a25.78,25.78,0,0,1,0,4.09"/></g><g class="cls-18"><path id="Fill-122" class="cls-12" d="M293.2,299.7a8.29,8.29,0,0,0-.37,2.48v2.9H286a16.29,16.29,0,0,0-.94-3.82c2-.11,3.33-.58,3.88-2.29Z"/></g><g class="cls-18"><path id="Fill-123" class="cls-13" d="M289,299l4.22.73a3.59,3.59,0,0,1,.17-.48l1.85-5.16-4.87-1s-.71,3.44-1.31,5.68L289,299"/></g><g class="cls-18"><path id="Fill-124" class="cls-12" d="M311.54,253.43a11.86,11.86,0,0,1-5.57,3.2c-.42.1-.24.75.18.65a12.47,12.47,0,0,0,5.86-3.37c.3-.31-.17-.79-.47-.48"/></g><g class="cls-18"><path id="Fill-125" class="cls-25" d="M286,305.08h-5.53s.54-3.79,3.32-3.79c.45,0,.87,0,1.27,0a16.29,16.29,0,0,1,.94,3.82"/></g><g class="cls-18"><path id="Fill-126" class="cls-25" d="M324.41,305.08h-5.5a10,10,0,0,1,0-2.38,6.34,6.34,0,0,1,.34-1.43c2.24.16,5,.9,5.19,3.81"/></g><g class="cls-18"><path id="Fill-127" class="cls-7" d="M341.13,211l.4,12.2s5-2.84,5-3-.19-11.27-.19-11.27Z"/></g><g class="cls-18"><path id="Fill-128" class="cls-13" d="M342.26,210.79a1.18,1.18,0,0,0,.53.53.43.43,0,0,1,.13.09c.11.13-.06.3-.2.4a1.67,1.67,0,0,0-.71,1.08,1.26,1.26,0,0,0,.47,1.18,1.12,1.12,0,0,1,.22.16.79.79,0,0,1,.16.39,3.58,3.58,0,0,0,.44,1.25,1.33,1.33,0,0,0,1.1.64.87.87,0,0,0,.78-.56c.1-.28-.14-.65.16-.85a.58.58,0,0,1,.56,0,2.09,2.09,0,0,1,.49.35,1.41,1.41,0,0,0,.49.31c.39.12.7.2.86-.17s.21-.52.31-.78l.48-1.24-.24-3.38-.77-3.17-1.22-.63-3.49.66-1.85.91-.1,3a2,2,0,0,0,.09.44.59.59,0,0,0,.27.33.66.66,0,0,0,.48,0,.53.53,0,0,0,.17-.08.67.67,0,0,0,.14-.15,1,1,0,0,0,.25-.66"/></g><g class="cls-18"><path id="Fill-129" class="cls-12" d="M342.86,209.5a.37.37,0,0,1-.28-.21,1.25,1.25,0,0,1-.12-.34,10.37,10.37,0,0,1-.2-1.57,1.55,1.55,0,0,1,0-.48.68.68,0,0,1,.25-.39"/></g><g class="cls-18"><path id="Fill-130" class="cls-12" d="M342.93,209.25c-.2-.05-.22-.37-.25-.53s-.08-.48-.11-.72-.05-.48-.06-.73,0-.42.15-.53a.26.26,0,1,0-.26-.45c-.56.4-.42,1.17-.35,1.77a8.54,8.54,0,0,0,.17,1,.83.83,0,0,0,.57.71c.33.07.47-.44.14-.51"/></g><g class="cls-18"><path id="Fill-131" class="cls-12" d="M346.38,215.4a1.73,1.73,0,0,1-.52-.45"/></g><g class="cls-18"><path id="Fill-132" class="cls-12" d="M346.51,215.18l-.2-.13.06,0a1.24,1.24,0,0,1-.28-.28l0,.06a.21.21,0,0,0,0-.06.33.33,0,0,0-.16-.12.24.24,0,0,0-.2,0,.26.26,0,0,0-.09.36,1.79,1.79,0,0,0,.61.55.28.28,0,0,0,.2,0,.33.33,0,0,0,.16-.12.3.3,0,0,0,0-.21.26.26,0,0,0-.12-.15"/></g><g class="cls-18"><path id="Fill-133" class="cls-12" d="M345.9,214.85a1.53,1.53,0,0,1-.4.21c-.44.16-.89.29-1.34.42"/></g><g class="cls-18"><path id="Fill-134" class="cls-12" d="M345.71,214.67a1.19,1.19,0,0,1-.32.14L345,215c-.29.1-.59.18-.88.26a.26.26,0,0,0-.18.32.26.26,0,0,0,.32.19l.94-.28a2.89,2.89,0,0,0,.91-.41.26.26,0,0,0-.37-.37"/></g><g class="cls-18"><path id="Fill-135" class="cls-12" d="M344.8,215.45a.51.51,0,0,1,0,.78.67.67,0,0,1-.87-.11c-.47-.42-1.26-1.18-.88-1.89a1.58,1.58,0,0,1,1-.59l.59-.19c.2-.08.4-.19.6-.26a2.06,2.06,0,0,1,1-.12,3.22,3.22,0,0,1,1,.4.27.27,0,0,0,.27-.46,4,4,0,0,0-1.05-.44,2.42,2.42,0,0,0-1.07,0c-.45.1-.85.34-1.28.48a3.46,3.46,0,0,0-1.12.47,1.48,1.48,0,0,0-.19,2.12,4.87,4.87,0,0,0,.82.88,1.2,1.2,0,0,0,1,.31,1,1,0,0,0,.57-1.77c-.25-.23-.62.14-.37.37"/></g><g class="cls-18"><path id="Fill-136" class="cls-12" d="M342.74,214c-.73-.25-.57-1.17-.22-1.68a1.4,1.4,0,0,1,.83-.53c.36-.11.71-.24,1-.38a6.17,6.17,0,0,1,2-.7,2.14,2.14,0,0,1,1.3.36c.27.2.54-.26.26-.46a2.6,2.6,0,0,0-1.74-.41,3.73,3.73,0,0,0-1.26.41,13.74,13.74,0,0,1-1.38.56,3.46,3.46,0,0,0-1.12.47,2.08,2.08,0,0,0-.65,1,1.41,1.41,0,0,0,.81,1.87c.32.12.46-.39.14-.51"/></g><g class="cls-18"><path id="Fill-137" class="cls-12" d="M343.43,211.2a1.06,1.06,0,0,1-.43-1.32.94.94,0,0,1,.58-.47l.75-.32a8.51,8.51,0,0,1,1.28-.55,2.41,2.41,0,0,1,1.5.08c.32.12.46-.39.14-.5a2.91,2.91,0,0,0-1.91-.05c-.58.19-1.11.51-1.67.74a2.67,2.67,0,0,0-.88.47,1.28,1.28,0,0,0-.37.87,1.48,1.48,0,0,0,.87,1.56c.32.12.46-.39.14-.51"/></g><g class="cls-18"><path id="Fill-138" class="cls-12" d="M343.89,208.34a3.79,3.79,0,0,0,.7.28"/></g><g class="cls-18"><path id="Fill-139" class="cls-12" d="M343.76,208.56a4.22,4.22,0,0,0,.76.32.28.28,0,0,0,.33-.19.27.27,0,0,0-.19-.32,3.25,3.25,0,0,1-.4-.15l.06,0-.29-.14a.31.31,0,0,0-.21,0,.3.3,0,0,0-.15.12.26.26,0,0,0,.09.36"/></g><g class="cls-18"><path id="Fill-140" class="cls-12" d="M340,210.68a2.87,2.87,0,0,0,.73,1,1.26,1.26,0,0,0,1.18.24,1.49,1.49,0,0,0,.79-1,5.61,5.61,0,0,0,.23-1.35.27.27,0,0,0-.53,0,5.53,5.53,0,0,1-.16,1.07c-.07.26-.2.66-.49.78a.74.74,0,0,1-.72-.17,2.51,2.51,0,0,1-.57-.83c-.16-.3-.61,0-.46.27"/></g><g class="cls-26"><path id="Fill-141" class="cls-27" d="M650.31,859s76.1-215.62,129.58-215.62S930.88,859,930.88,859Z"/></g><g class="cls-18"><path id="Fill-142" class="cls-14" d="M270.82,770.41s.75-141.77-22-141.77-31.08,141.77-31.08,141.77"/></g><g class="cls-18"><path id="Stroke-143" class="cls-28" d="M244.28,746.73s5.29-30.53,4.67-40.91-3.69-42.15-2.31-48.35"/></g><g class="cls-18"><path id="Stroke-144" class="cls-28" d="M247.29,683.52s-8.72-1.65-10.18-4.66"/></g><g class="cls-18"><path id="Stroke-145" class="cls-28" d="M255.64,687.91c-.29,2.24-7.36,8.74-7.36,8.74"/></g><g class="cls-18"><path id="Stroke-146" class="cls-28" d="M258.81,686.37s-2.74,2.85-5.79.47"/></g><g class="cls-18"><path id="Stroke-147" class="cls-28" d="M246.41,659.17s-4.71-1.75-5.35-4.75"/></g><g class="cls-18"><path id="Stroke-148" class="cls-28" d="M246.8,730.54s-11.12-2.22-12.56-7.23"/></g><g class="cls-18"><path id="Fill-149" class="cls-14" d="M51.14,702.49s-1.09-204,31.63-204,44.72,204,44.72,204"/></g><g class="cls-18"><path id="Stroke-150" class="cls-28" d="M89.32,668.42s-7.62-43.92-6.73-58.86,5.32-60.64,3.33-69.56"/></g><g class="cls-18"><path id="Stroke-151" class="cls-28" d="M85,577.47s12.54-2.37,14.65-6.7"/></g><g class="cls-18"><path id="Stroke-152" class="cls-28" d="M73,583.79c.41,3.23,10.58,12.57,10.58,12.57"/></g><g class="cls-18"><path id="Stroke-153" class="cls-28" d="M68.41,581.58s4,4.1,8.33.68"/></g><g class="cls-18"><path id="Stroke-154" class="cls-28" d="M86.25,542.44s6.78-2.52,7.7-6.83"/></g><g class="cls-18"><path id="Stroke-155" class="cls-28" d="M85.7,645.13s16-3.19,18.06-10.41"/></g><g class="cls-18"><path id="Fill-156" class="cls-29" d="M39.21,687s1-64.7,9.63-64.7,14.22,77.25,14.22,77.25Z"/></g><g class="cls-18"><path id="Fill-157" class="cls-30" d="M27.29,714s1.05-64.69,9.62-64.69,14.23,77.24,14.23,77.24Z"/></g><g class="cls-18"><path id="Fill-158" class="cls-29" d="M120,670.77s1-64.69,9.62-64.69,14.22,77.24,14.22,77.24Z"/></g><g class="cls-31"><path id="Fill-159" class="cls-29" d="M657.52,835.1s1-64.69,9.62-64.69,14.22,77.24,14.22,77.24Z"/></g><g class="cls-18"><path id="Fill-160" class="cls-14" d="M671.05,803.16s1-64.69,9.62-64.69,14.22,77.24,14.22,77.24Z"/></g><g class="cls-18"><path id="Fill-161" class="cls-32" d="M12.26,699.42s1-64.7,9.62-64.7S36.1,712,36.1,712Z"/></g><g class="cls-33"><path id="Fill-162" class="cls-32" d="M669.44,846.64s1-64.69,9.62-64.69,14.22,77.24,14.22,77.24Z"/></g><g class="cls-18"><path id="Fill-163" class="cls-32" d="M263.33,747.71s1.05-46.77,9.62-46.77,14.22,55.85,14.22,55.85Z"/></g><g class="cls-34"><path id="Fill-164" class="cls-3" d="M1160.75,817.18s1-46.77,9.62-46.77,14.22,55.85,14.22,55.85Z"/></g><g class="cls-35"><path id="Fill-165" class="cls-36" d="M1176.28,812.8s1-81.35,9.62-81.35,14.23,97.13,14.23,97.13Z"/></g><g class="cls-37"><path id="Fill-166" class="cls-3" d="M1188.21,830.36s1-46.77,9.62-46.77,14.22,55.85,14.22,55.85Z"/></g><g class="cls-38"><path id="Fill-167" class="cls-32" d="M-52.69,745.6C28.53,703.22,61,625.53,133.05,666.14S349.89,807.39,591.78,807.39h685.08l21.19,155.83L66.73,1031.63Z"/></g></g></g></g><g id="Group-25"><g class="cls-39"><path id="Fill-23" class="cls-9" d="M1653.13,178.78s-5.46,12.19-36.56,10.93-35.31-16.39-35.31-16.39-44.18,7.93-48.33-11.77c-2.8-13.31,11.39-20.46,24.13-21.9a46.31,46.31,0,0,1,19.26,2.27s1.58-15.25,28.06-16.93S1638,136.34,1638,136.34s6.3-17.23,34-19.34c8.89-.67,19.33,1.27,19.33,1.27v76.06s-10.5,2.1-23.95-3.36c-10.49-4.26-14.29-12.19-14.29-12.19"/></g></g><rect class="cls-40" y="807.39" width="1691.37" height="39.36"/></svg>