<?xml version="1.0" encoding="UTF-8"?>
<svg width="155px" height="26px" viewBox="0 0 155 26" version="1.1" xmlns="http://www.w3.org/2000/svg" xmlns:xlink="http://www.w3.org/1999/xlink">
    <!-- Generator: Sketch 62 (91390) - https://sketch.com -->
    <title>Group 26</title>
    <desc>Created with Sketch.</desc>
    <defs>
        <polygon id="path-1" points="0 25.9512 154.74 25.9512 154.74 0.0002 0 0.0002"></polygon>
    </defs>
    <g id="Page-1-Copy" stroke="none" stroke-width="1" fill="none" fill-rule="evenodd">
        <g id="Group-38-Copy-2" transform="translate(-85.000000, -199.000000)">
            <g id="Group-26" transform="translate(85.000000, 199.000000)">
                <path d="M12,1.9512 C18.627,1.9512 24,7.3242 24,13.9512 C24,20.5782 18.627,25.9512 12,25.9512 C5.373,25.9512 0,20.5782 0,13.9512 C0,7.3242 5.373,1.9512 12,1.9512" id="Fill-1" fill="#FFFFFF"></path>
                <path d="M14.5122,15.4229 C12.8372,15.4359 11.1622,15.4359 9.4882,15.4229 C9.4642,14.2639 9.4682,13.1049 9.4992,11.9449 C11.1662,11.9279 12.8332,11.9279 14.5012,11.9449 C14.5322,13.1049 14.5352,14.2639 14.5122,15.4229" id="Fill-3" fill="#EC6524"></path>
                <path d="M4.4736,15.9458 C4.3156,15.9408 4.1586,15.9358 4.0006,15.9298 C3.7496,15.9048 3.5556,15.6998 3.5436,15.4478 C3.4756,14.2828 3.4866,13.1148 3.5776,11.9518 C3.5946,11.6998 3.7896,11.4948 4.0416,11.4668 C4.1976,11.4588 4.3546,11.4528 4.5106,11.4458 C4.3866,12.9428 4.3736,14.4468 4.4736,15.9458" id="Fill-5" fill="#EC6524"></path>
                <path d="M16.7539,8.7036 L16.7539,8.7036 C15.8509,8.6556 15.0799,9.3496 15.0319,10.2526 C15.0279,10.3316 15.0289,10.4116 15.0369,10.4916 C15.1619,12.7966 15.1619,15.1056 15.0369,17.4106 C14.9519,18.3106 15.6139,19.1096 16.5139,19.1936 C16.5939,19.2016 16.6739,19.2036 16.7539,19.1986 C17.8099,19.1136 18.6779,18.3326 18.8759,17.2916 C19.1459,15.0726 19.1459,12.8296 18.8759,10.6106 C18.6779,9.5696 17.8099,8.7896 16.7539,8.7036" id="Fill-7" fill="#EC6524"></path>
                <path d="M7.2461,8.7036 L7.2461,8.7036 C6.1901,8.7886 5.3211,9.5696 5.1241,10.6106 C4.8541,12.8296 4.8541,15.0726 5.1241,17.2916 C5.3221,18.3326 6.1901,19.1126 7.2461,19.1986 C8.1491,19.2456 8.9201,18.5526 8.9681,17.6496 C8.9721,17.5696 8.9711,17.4896 8.9631,17.4106 C8.8381,15.1056 8.8381,12.7966 8.9631,10.4916 C9.0471,9.5906 8.3851,8.7926 7.4841,8.7086 C7.4051,8.70156133 7.3251,8.6996 7.2461,8.7036" id="Fill-9" fill="#EC6524"></path>
                <path d="M19.4893,11.4458 C19.6463,11.4528 19.8023,11.4588 19.9583,11.4668 C20.2103,11.4948 20.4053,11.6998 20.4223,11.9518 C20.5133,13.1148 20.5243,14.2828 20.4563,15.4478 C20.4453,15.6998 20.2503,15.9048 19.9993,15.9298 C19.8413,15.9358 19.6843,15.9408 19.5263,15.9458 C19.6263,14.4468 19.6143,12.9428 19.4893,11.4458" id="Fill-11" fill="#EC6524"></path>
                <path d="M41.3965,11.8408 C41.3965,10.3288 39.6835,8.9438 37.7695,8.9438 C35.3505,8.9438 33.7385,10.4048 33.7385,12.5968 C33.6045,14.5408 35.0715,16.2258 37.0165,16.3608 C37.2165,16.3748 37.4175,16.3708 37.6185,16.3508 C39.7095,16.3508 41.3965,15.0398 41.3965,13.4028 L41.3965,11.8408 Z M33.4355,19.9278 C34.4545,21.3808 36.1475,22.2088 37.9195,22.1188 C40.0105,22.1188 41.5475,20.7838 41.5475,18.9698 L41.5475,18.0128 L41.4975,18.0128 C40.3515,19.1318 38.7885,19.7168 37.1895,19.6248 C33.3365,19.7358 30.1235,16.7018 30.0125,12.8478 C29.9025,8.9948 32.9365,5.7818 36.7895,5.6718 C36.8805,5.6688 36.9725,5.6678 37.0635,5.6688 C38.6925,5.5648 40.2925,6.1288 41.4975,7.2308 L41.5475,7.2308 L41.5475,5.9208 L45.1255,5.9208 L45.1255,18.9198 C45.1255,22.6978 42.1265,25.3188 37.9195,25.3188 C35.1645,25.4678 32.5035,24.2878 30.7655,22.1448 L33.4355,19.9278 Z" id="Fill-13" fill="#FFFFFF"></path>
                <path d="M54.4971,8.8174 C52.4101,8.8314 50.7301,10.5354 50.7441,12.6224 C50.7581,14.7094 52.4621,16.3894 54.5491,16.3754 C56.6251,16.3604 58.3011,14.6734 58.3021,12.5964 C58.3941,10.6014 56.8511,8.9084 54.8551,8.8164 C54.7361,8.8104 54.6161,8.8114 54.4971,8.8174 M54.4971,5.5434 C58.8551,5.5434 62.0301,8.6414 62.0301,12.5964 C62.0301,16.5514 58.8551,19.6504 54.4971,19.6504 C50.6011,19.9064 47.2361,16.9554 46.9801,13.0604 C46.7241,9.1644 49.6751,5.7984 53.5701,5.5434 C53.8791,5.5234 54.1881,5.5234 54.4971,5.5434" id="Fill-15" fill="#FFFFFF"></path>
                <path d="M65.6328,9.0947 L62.4338,9.0947 L62.4338,5.9207 L65.6328,5.9207 L65.6328,4.5607 C65.6328,2.2177 67.2708,0.7817 70.0168,0.7817 L73.5188,0.7817 L73.5188,3.9807 L70.4698,3.9807 C69.7388,3.9807 69.3618,4.3327 69.3618,5.0137 L69.3618,5.9207 L74.3498,5.9207 L74.3498,9.0947 L69.3618,9.0947 L69.3618,19.2727 L65.6328,19.2727 L65.6328,9.0947 Z" id="Fill-17" fill="#FFFFFF"></path>
                <mask id="mask-2" fill="white">
                    <use xlink:href="#path-1"></use>
                </mask>
                <g id="Clip-20"></g>
                <path d="M75.709,19.2732 L79.438,19.2732 L79.438,5.9212 L75.709,5.9212 L75.709,19.2732 Z M75.634,3.7292 L79.488,3.7292 L79.488,0.0002 L75.634,0.0002 L75.634,3.7292 Z" id="Fill-19" fill="#FFFFFF" mask="url(#mask-2)"></path>
                <path d="M87.7012,9.0947 L87.7012,14.7387 C87.7012,15.5697 87.9772,15.8217 89.0612,15.8217 L91.5052,15.8217 L91.5052,19.2727 L88.6832,19.2727 C85.3332,19.2727 83.9722,17.9627 83.9722,14.9647 L83.9722,9.0947 L80.8232,9.0947 L80.8232,5.9207 L83.9722,5.9207 L83.9722,2.5707 L87.7012,2.5707 L87.7012,5.9207 L92.0092,5.9207 L92.0092,9.0947 L87.7012,9.0947 Z" id="Fill-21" fill="#FFFFFF" mask="url(#mask-2)"></path>
                <path d="M93.7725,5.9209 L97.3755,5.9209 L97.3755,7.1809 L97.4245,7.1809 C98.6685,6.0879 100.2795,5.5029 101.9345,5.5429 C105.7135,5.5429 108.3335,8.0369 108.3335,11.6639 L108.3335,19.2729 L104.6055,19.2729 L104.6055,12.1429 C104.6055,10.1029 103.2695,8.8679 101.1285,8.8679 C99.3125,8.6899 97.6955,10.0179 97.5165,11.8339 C97.5065,11.9369 97.5015,12.0399 97.5015,12.1429 L97.5015,19.2729 L93.7725,19.2729 L93.7725,5.9209 Z" id="Fill-22" fill="#FFFFFF" mask="url(#mask-2)"></path>
                <path d="M121.0557,11.1602 C120.8797,9.5732 119.4937,8.5652 117.5037,8.5652 C115.4887,8.5652 114.1027,9.5732 113.9017,11.1602 L121.0557,11.1602 Z M117.4287,5.5432 C121.2407,5.3492 124.4867,8.2822 124.6807,12.0932 C124.6917,12.3032 124.6927,12.5132 124.6837,12.7222 L124.6837,13.7802 L113.8507,13.7802 C113.9767,15.5182 115.4127,16.6272 117.6297,16.6272 C119.2287,16.6152 120.7367,15.8842 121.7367,14.6372 L124.0537,16.9552 C122.4277,18.7612 120.0827,19.7482 117.6557,19.6502 C112.9937,19.6502 110.1727,16.8542 110.1727,12.6222 C110.0857,8.7962 113.1177,5.6232 116.9437,5.5372 C117.1057,5.5332 117.2677,5.5352 117.4287,5.5432 L117.4287,5.5432 Z" id="Fill-23" fill="#FFFFFF" mask="url(#mask-2)"></path>
                <path d="M129.1436,14.1084 C129.6726,15.8214 131.0336,16.6774 133.1736,16.6774 C135.1146,16.6774 136.2226,16.2494 136.2226,15.5184 C136.2226,14.7384 135.4156,14.3844 132.9216,14.0064 C128.0356,13.2524 126.2966,12.0674 126.2966,9.6734 C126.2966,7.2054 128.7656,5.5434 132.4436,5.5434 C135.7936,5.5434 138.8426,7.2554 139.5476,9.5734 L136.1466,10.6064 C135.4536,9.2084 133.9726,8.3784 132.4176,8.5154 C130.8816,8.5154 129.8736,8.9684 129.8736,9.6734 C129.8736,10.3794 130.5796,10.6314 133.5276,11.1354 C138.0366,11.8404 139.8256,13.0754 139.8256,15.4934 C139.8256,17.9874 137.1546,19.6504 133.1496,19.6504 C131.3986,19.7074 129.6666,19.2604 128.1616,18.3654 C126.8786,17.6264 125.9646,16.3834 125.6416,14.9394 L129.1436,14.1084 Z" id="Fill-24" fill="#FFFFFF" mask="url(#mask-2)"></path>
                <path d="M144.0586,14.1084 C144.5876,15.8214 145.9486,16.6774 148.0886,16.6774 C150.0296,16.6774 151.1376,16.2494 151.1376,15.5184 C151.1376,14.7384 150.3306,14.3844 147.8366,14.0064 C142.9506,13.2524 141.2116,12.0674 141.2116,9.6734 C141.2116,7.2054 143.6806,5.5434 147.3586,5.5434 C150.7086,5.5434 153.7576,7.2554 154.4626,9.5734 L151.0616,10.6064 C150.3686,9.2084 148.8886,8.3784 147.3336,8.5154 C145.7966,8.5154 144.7886,8.9684 144.7886,9.6734 C144.7886,10.3794 145.4946,10.6314 148.4426,11.1354 C152.9516,11.8404 154.7406,13.0754 154.7406,15.4934 C154.7406,17.9874 152.0696,19.6504 148.0646,19.6504 C146.3136,19.7074 144.5816,19.2604 143.0766,18.3654 C141.7936,17.6264 140.8796,16.3834 140.5566,14.9394 L144.0586,14.1084 Z" id="Fill-25" fill="#FFFFFF" mask="url(#mask-2)"></path>
            </g>
        </g>
    </g>
</svg>