<?xml version="1.0" encoding="UTF-8"?>
<svg width="123px" height="26px" viewBox="0 0 123 26" version="1.1" xmlns="http://www.w3.org/2000/svg" xmlns:xlink="http://www.w3.org/1999/xlink">
    <!-- Generator: Sketch 62 (91390) - https://sketch.com -->
    <title>Group 20</title>
    <desc>Created with Sketch.</desc>
    <defs>
        <polygon id="path-1" points="0.629 0.9272 15.87 0.9272 15.87 19.6962 0.629 19.6962"></polygon>
    </defs>
    <g id="Page-1-Copy" stroke="none" stroke-width="1" fill="none" fill-rule="evenodd">
        <g id="Group-158" transform="translate(-85.000000, -198.000000)">
            <g id="Group-38-Copy">
                <g id="Group-20" transform="translate(85.000000, 197.000000)">
                    <path d="M24.0004,14.1729 C24.0004,20.7999 18.6274,26.1729 12.0004,26.1729 C5.3724,26.1729 0.0004,20.7999 0.0004,14.1729 C0.0004,7.5459 5.3724,2.1729 12.0004,2.1729 C18.6274,2.1729 24.0004,7.5459 24.0004,14.1729" id="Fill-1" fill="#FFFFFF"></path>
                    <path d="M11.642,13.2237 C11.702,11.7687 11.615,10.2917 11.382,8.8327 C11.303,8.3307 10.846,7.9877 10.383,8.0797 C9.912,8.1627 9.593,8.6387 9.673,9.1397 C9.831,10.1407 9.91,10.7547 9.914,11.9797 C9.916,12.3277 9.653,12.6077 9.326,12.6077 C9,12.6077 8.736,12.3277 8.736,11.9827 L8.731,8.4757 C8.731,8.0177 8.436,7.5927 8.01,7.5187 C7.467,7.4247 6.997,7.8677 6.997,8.4257 L7.002,11.9827 C7.002,12.3277 6.729,12.6077 6.404,12.6077 C6.076,12.6077 5.812,12.3267 5.814,11.9787 C5.822,10.7537 5.897,10.1397 6.056,9.1397 C6.136,8.6387 5.818,8.1627 5.346,8.0797 C4.869,7.9857 4.426,8.3307 4.346,8.8327 C4.13,10.1927 4.039,11.5717 4.077,12.9287 C4.116,14.3797 4.84,15.6117 5.931,16.3057 C6.428,16.6227 6.774,17.1507 6.801,17.7657 L6.894,19.8617 C6.918,20.4097 7.344,20.8397 7.861,20.8397 C8.377,20.8397 8.802,20.4107 8.828,19.8637 L8.921,17.8397 C8.95,17.2227 9.308,16.7037 9.813,16.3967 C10.862,15.7577 11.587,14.5877 11.642,13.2237" id="Fill-3" fill="#EE2737"></path>
                    <path d="M16.5023,7.5059 C14.2153,7.5059 13.0713,10.9639 13.0713,13.2479 C13.0713,14.4839 13.7403,15.5489 14.6583,16.1779 C15.0983,16.4799 15.4043,16.9569 15.4303,17.5129 L15.5383,19.8629 C15.5643,20.4089 15.9873,20.8379 16.5023,20.8399 C17.0163,20.8379 17.4393,20.4089 17.4653,19.8629 L17.5733,17.5129 C17.6003,16.9569 17.9053,16.4799 18.3453,16.1779 C19.2633,15.5489 19.9323,14.4839 19.9323,13.2479 C19.9323,10.9639 18.7883,7.5059 16.5023,7.5059" id="Fill-5" fill="#EE2737"></path>
                    <path d="M41.4466,13.6211 L41.4466,12.0591 C41.4466,10.5221 39.7596,9.1621 37.8196,9.1621 C35.3756,9.1621 33.7886,10.6481 33.7886,12.8151 C33.7886,15.1581 35.2746,16.5691 37.6686,16.5691 C39.7846,16.5691 41.4466,15.2591 41.4466,13.6211 M30.8156,22.3631 L33.4856,20.1461 C34.8716,21.7841 36.0056,22.3381 37.9696,22.3381 C40.0366,22.3381 41.5976,21.0031 41.5976,19.1881 L41.5976,18.2311 L41.5476,18.2311 C40.6156,19.2651 39.0786,19.8441 37.2396,19.8441 C33.1336,19.8441 30.0596,16.8711 30.0596,12.8151 C30.0596,8.9101 33.0576,5.8881 37.1136,5.8881 C39.0036,5.8881 40.5906,6.4411 41.5476,7.4491 L41.5976,7.4491 L41.5976,6.1401 L45.1756,6.1401 L45.1756,19.1391 C45.1756,22.9171 42.2026,25.5371 37.9696,25.5371 C34.8966,25.5371 32.4026,24.4291 30.8156,22.3631" id="Fill-7" fill="#FFFFFF"></path>
                    <path d="M58.3519,12.8155 C58.3519,10.6485 56.8659,9.0365 54.5469,9.0365 C52.2299,9.0365 50.7439,10.6485 50.7439,12.8155 C50.7439,14.9815 52.2299,16.5935 54.5469,16.5935 C56.8659,16.5935 58.3519,14.9815 58.3519,12.8155 M47.0149,12.8155 C47.0149,8.8355 50.1639,5.7615 54.5469,5.7615 C58.9559,5.7615 62.0809,8.8355 62.0809,12.8155 C62.0809,16.7955 58.9559,19.8695 54.5469,19.8695 C50.1639,19.8695 47.0149,16.7955 47.0149,12.8155" id="Fill-9" fill="#FFFFFF"></path>
                    <path d="M65.683,9.3135 L62.484,9.3135 L62.484,6.1395 L65.683,6.1395 L65.683,4.7795 C65.683,2.4365 67.321,1.0005 70.067,1.0005 L73.569,1.0005 L73.569,4.1995 L70.52,4.1995 C69.789,4.1995 69.412,4.5515 69.412,5.2325 L69.412,6.1395 L74.4,6.1395 L74.4,9.3135 L69.412,9.3135 L69.412,19.4915 L65.683,19.4915 L65.683,9.3135 Z" id="Fill-11" fill="#FFFFFF"></path>
                    <path d="M85.8627,12.8155 C85.8627,10.6485 84.3767,9.0365 82.0577,9.0365 C79.7407,9.0365 78.2547,10.6485 78.2547,12.8155 C78.2547,14.9815 79.7407,16.5935 82.0577,16.5935 C84.3767,16.5935 85.8627,14.9815 85.8627,12.8155 M74.5257,12.8155 C74.5257,8.8355 77.6747,5.7615 82.0577,5.7615 C86.4667,5.7615 89.5917,8.8355 89.5917,12.8155 C89.5917,16.7955 86.4667,19.8695 82.0577,19.8695 C77.6747,19.8695 74.5257,16.7955 74.5257,12.8155" id="Fill-13" fill="#FFFFFF"></path>
                    <path d="M102.4144,12.8155 C102.4144,10.6485 100.9284,9.0365 98.6094,9.0365 C96.2924,9.0365 94.8064,10.6485 94.8064,12.8155 C94.8064,14.9815 96.2924,16.5935 98.6094,16.5935 C100.9284,16.5935 102.4144,14.9815 102.4144,12.8155 M91.0774,12.8155 C91.0774,8.8355 94.2264,5.7615 98.6094,5.7615 C103.0184,5.7615 106.1434,8.8355 106.1434,12.8155 C106.1434,16.7955 103.0184,19.8695 98.6094,19.8695 C94.2264,19.8695 91.0774,16.7955 91.0774,12.8155" id="Fill-15" fill="#FFFFFF"></path>
                    <g id="Group-19" transform="translate(107.000000, 0.172900)">
                        <mask id="mask-2" fill="white">
                            <use xlink:href="#path-1"></use>
                        </mask>
                        <g id="Clip-18"></g>
                        <path d="M12.142,13.4482 L12.142,11.7612 C12.142,10.1742 10.404,8.8632 8.338,8.8632 C5.97,8.8632 4.358,10.4002 4.358,12.6422 C4.358,14.9102 5.919,16.3962 8.338,16.3962 C10.455,16.3962 12.142,15.0862 12.142,13.4482 M0.629,12.6422 C0.629,8.6112 3.678,5.5892 7.759,5.5892 C9.522,5.5892 11.059,6.0932 12.092,7.0242 L12.142,7.0242 L12.142,0.9272 L15.871,0.9272 L15.871,19.3182 L12.419,19.3182 L12.419,18.0092 L12.369,18.0092 C11.362,19.1172 9.799,19.6962 7.86,19.6962 C3.627,19.6962 0.629,16.7742 0.629,12.6422" id="Fill-17" fill="#FFFFFF" mask="url(#mask-2)"></path>
                    </g>
                </g>
            </g>
        </g>
    </g>
</svg>