<?xml version="1.0" encoding="UTF-8"?>
<svg width="114px" height="26px" viewBox="0 0 114 26" version="1.1" xmlns="http://www.w3.org/2000/svg" xmlns:xlink="http://www.w3.org/1999/xlink">
    <!-- Generator: Sketch 62 (91390) - https://sketch.com -->
    <title>Group 23</title>
    <desc>Created with Sketch.</desc>
    <defs>
        <polygon id="path-1" points="0 50 128.651 50 128.651 0.388 0 0.388"></polygon>
        <path d="M0.165,12.561 C0.165,19.188 5.537,24.56 12.165,24.56 L12.165,24.56 C18.791,24.56 24.164,19.188 24.164,12.561 L24.164,12.561 C24.164,5.934 18.791,0.561 12.165,0.561 L12.165,0.561 C5.537,0.561 0.165,5.934 0.165,12.561 L0.165,12.561 Z" id="path-3"></path>
    </defs>
    <g id="Page-1-Copy" stroke="none" stroke-width="1" fill="none" fill-rule="evenodd">
        <g id="Group-158" transform="translate(-315.000000, -197.000000)">
            <g id="Group-23" transform="translate(300.000000, 194.000000)">
                <g id="Group-13" transform="translate(0.000000, 0.611800)">
                    <path d="M56.5739,15.0097 L56.5739,13.4477 C56.5739,11.9107 54.8869,10.5507 52.9469,10.5507 C50.5029,10.5507 48.9159,12.0367 48.9159,14.2037 C48.9159,16.5467 50.4019,17.9577 52.7959,17.9577 C54.9119,17.9577 56.5739,16.6477 56.5739,15.0097 M45.9429,23.7517 L48.6129,21.5347 C49.9989,23.1727 51.1329,23.7267 53.0969,23.7267 C55.1639,23.7267 56.7249,22.3917 56.7249,20.5767 L56.7249,19.6197 L56.6749,19.6197 C55.7429,20.6537 54.2059,21.2327 52.3669,21.2327 C48.2609,21.2327 45.1869,18.2597 45.1869,14.2037 C45.1869,10.2987 48.1849,7.2767 52.2409,7.2767 C54.1309,7.2767 55.7179,7.8297 56.6749,8.8377 L56.7249,8.8377 L56.7249,7.5287 L60.3029,7.5287 L60.3029,20.5277 C60.3029,24.3057 57.3299,26.9257 53.0969,26.9257 C50.0239,26.9257 47.5299,25.8177 45.9429,23.7517" id="Fill-1" fill="#FFFFFF"></path>
                    <path d="M73.4792,14.2041 C73.4792,12.0371 71.9932,10.4251 69.6742,10.4251 C67.3572,10.4251 65.8712,12.0371 65.8712,14.2041 C65.8712,16.3701 67.3572,17.9821 69.6742,17.9821 C71.9932,17.9821 73.4792,16.3701 73.4792,14.2041 M62.1422,14.2041 C62.1422,10.2241 65.2912,7.1501 69.6742,7.1501 C74.0832,7.1501 77.2082,10.2241 77.2082,14.2041 C77.2082,18.1841 74.0832,21.2581 69.6742,21.2581 C65.2912,21.2581 62.1422,18.1841 62.1422,14.2041" id="Fill-3" fill="#FFFFFF"></path>
                    <path d="M79.2233,7.5283 L82.4973,7.5283 L82.4973,8.8123 L82.5483,8.8123 C83.4553,7.8043 84.9673,7.1503 86.6553,7.1503 C88.2673,7.1503 90.0053,7.8813 90.8873,9.0143 L90.9373,9.0143 C92.0713,7.7803 93.6333,7.1503 95.2953,7.1503 C98.8983,7.1503 101.3923,9.4933 101.3923,12.8933 L101.3923,20.8803 L97.7893,20.8803 L97.7893,13.4733 C97.7893,11.5583 96.6563,10.4243 94.9683,10.4243 C93.1793,10.4243 92.0453,11.5583 92.0453,13.4733 L92.0453,20.8803 L88.5943,20.8803 L88.5943,13.4733 C88.5943,11.5583 87.4113,10.4243 85.7733,10.4243 C83.9593,10.4243 82.8263,11.5583 82.8263,13.4733 L82.8263,20.8803 L79.2233,20.8803 L79.2233,7.5283 Z" id="Fill-5" fill="#FFFFFF"></path>
                    <path d="M112.779,15.917 L112.779,14.33 L112.729,14.33 C112.401,14.809 111.696,15.086 109.883,15.413 C107.69,15.816 106.91,16.244 106.91,17.025 C106.91,17.832 107.564,18.185 108.975,18.185 C111.142,18.185 112.779,17.202 112.779,15.917 M103.433,17.277 C103.433,14.809 105.046,13.499 109.302,12.919 C111.797,12.566 112.477,12.214 112.477,11.559 C112.477,10.677 111.545,10.148 110.109,10.148 C108.396,10.148 107.111,11.08 106.784,12.541 L103.257,11.811 C103.786,9.039 106.532,7.15 110.008,7.15 C113.913,7.15 116.332,9.141 116.332,12.39 L116.332,20.88 L112.981,20.88 L112.981,19.419 L112.93,19.419 C112.125,20.553 110.411,21.258 108.421,21.258 C105.448,21.258 103.433,19.646 103.433,17.277" id="Fill-7" fill="#FFFFFF"></path>
                    <mask id="mask-2" fill="white">
                        <use xlink:href="#path-1"></use>
                    </mask>
                    <g id="Clip-10"></g>
                    <polygon id="Fill-9" fill="#FFFFFF" mask="url(#mask-2)" points="118.7 20.88 122.429 20.88 122.429 2.489 118.7 2.489"></polygon>
                    <polygon id="Fill-11" fill="#FFFFFF" mask="url(#mask-2)" points="124.923 20.88 128.652 20.88 128.652 2.489 124.923 2.489"></polygon>
                    <path d="M39.1647,15.5605 C39.1647,22.1885 33.7917,27.5605 27.1647,27.5605 C20.5367,27.5605 15.1647,22.1885 15.1647,15.5605 C15.1647,8.9335 20.5367,3.5605 27.1647,3.5605 C33.7917,3.5605 39.1647,8.9335 39.1647,15.5605" id="Fill-12" fill="#FFFFFF" mask="url(#mask-2)"></path>
                </g>
                <g id="Group-17" transform="translate(15.000000, 3.611800)">
                    <mask id="mask-4" fill="white">
                        <use xlink:href="#path-3"></use>
                    </mask>
                    <g id="Clip-15"></g>
                    <polygon id="Fill-14" fill="#FFFFFF" mask="url(#mask-4)" points="-15 47 40.381 47 40.381 -2.611 -15 -2.611"></polygon>
                    <polygon id="Fill-16" fill="#FFFFFF" mask="url(#mask-4)" points="-0.557 25.282 24.885 25.282 24.885 -0.16 -0.557 -0.16"></polygon>
                </g>
                <g id="Group-22" transform="translate(20.000000, 9.611800)" fill="#EE2737">
                    <path d="M13.3757,10.2207 C12.0867,8.9467 10.6597,7.8327 9.7937,7.1927 C9.6977,7.1217 9.5877,7.0907 9.4777,7.0907 C9.2037,7.0907 8.9377,7.2877 8.9217,7.5757 C8.8677,8.6637 8.8277,10.5257 9.0337,12.3587 C9.0467,12.4707 9.0597,12.5807 9.0727,12.6937 C9.1007,12.9047 9.2887,13.0307 9.4897,13.0307 C9.6087,13.0307 9.7317,12.9857 9.8277,12.8867 L10.5347,12.1627 C10.5347,12.1627 10.9937,12.9457 11.5527,13.7647 C11.6957,13.9747 11.9417,14.0907 12.2027,14.0907 C12.3237,14.0907 12.4447,14.0667 12.5617,14.0147 C12.9337,13.8527 13.1277,13.4697 13.0187,13.1207 C12.7477,12.2437 12.4447,11.4517 12.4067,11.3517 L12.4067,11.3507 C12.4127,11.3477 12.4187,11.3437 12.4227,11.3397 L13.4387,11.2977 C13.8127,11.2827 14.0147,10.8757 13.7727,10.6237 C13.6437,10.4877 13.5107,10.3537 13.3757,10.2207" id="Fill-18"></path>
                    <path d="M7.0388,5.0703 C5.3848,5.0703 4.0388,4.0323 4.0388,2.7553 L4.0388,2.5503 C4.0388,2.2883 4.2628,2.0753 4.5388,2.0753 C4.8148,2.0753 5.0388,2.2883 5.0388,2.5503 L5.0388,2.7553 C5.0388,3.4943 5.9548,4.1193 7.0388,4.1193 C8.1228,4.1193 9.0388,3.4943 9.0388,2.7553 L9.0388,2.5503 C9.0388,2.2883 9.2628,2.0753 9.5388,2.0753 C9.8148,2.0753 10.0388,2.2883 10.0388,2.5503 L10.0388,2.7553 C10.0388,4.0323 8.6928,5.0703 7.0388,5.0703 M9.4158,6.1363 C9.7228,6.1363 10.0118,6.2343 10.2528,6.4213 C11.0128,7.0083 12.3588,8.0983 13.6308,9.3723 C14.2148,6.9763 13.7438,2.4333 13.5738,1.0093 C13.5438,0.7583 13.3308,0.5713 13.0768,0.5713 L1.2518,0.5713 C0.9978,0.5713 0.7848,0.7603 0.7548,1.0113 C0.5748,2.5213 0.0598,7.5143 0.8098,9.7653 C1.6998,12.4343 4.7288,12.5523 7.1648,12.5523 C7.4758,12.5523 7.7958,12.5513 8.1208,12.5423 C7.9138,10.5433 7.9598,8.5203 8.0118,7.4533 C8.0468,6.7143 8.6628,6.1363 9.4158,6.1363" id="Fill-20"></path>
                </g>
            </g>
        </g>
    </g>
</svg>