<?xml version="1.0" encoding="UTF-8"?>
<svg width="126px" height="24px" viewBox="0 0 126 24" version="1.1" xmlns="http://www.w3.org/2000/svg" xmlns:xlink="http://www.w3.org/1999/xlink">
    <!-- Generator: Sketch 62 (91390) - https://sketch.com -->
    <title>Group 21</title>
    <desc>Created with Sketch.</desc>
    <g id="Page-1-Copy" stroke="none" stroke-width="1" fill="none" fill-rule="evenodd">
        <g id="Group-158" transform="translate(-571.000000, -199.000000)">
            <g id="Group-38-Copy">
                <g id="Group-21" transform="translate(571.000000, 199.000000)">
                    <path d="M12.0005,0 C18.6275,0 24.0005,5.373 24.0005,12 C24.0005,18.627 18.6275,24 12.0005,24 C5.3725,24 0.0005,18.627 0.0005,12 C0.0005,5.373 5.3725,0 12.0005,0" id="Fill-1" fill="#FFFFFF"></path>
                    <path d="M9.7505,17 C9.0555,17 8.5005,17.556 8.5005,18.25 C8.5005,18.944 9.0555,19.5 9.7505,19.5 C10.4445,19.5 11.0005,18.944 11.0005,18.25 C11.0005,17.556 10.4445,17 9.7505,17" id="Fill-3" fill="#EE2737"></path>
                    <path d="M14.7505,17 C15.4395,17 16.0005,17.56 16.0005,18.25 C16.0005,18.94 15.4395,19.5 14.7505,19.5 C14.0605,19.5 13.5005,18.94 13.5005,18.25 C13.5005,17.56 14.0605,17 14.7505,17" id="Fill-5" fill="#EE2737"></path>
                    <path d="M14.0005,13.5645 C14.0005,13.8725 13.7505,14.0775 13.5005,14.0775 C13.2505,14.0775 13.0005,13.8205 13.0005,13.5645 L13.0005,10.4875 C13.0005,10.1795 13.2505,9.9745 13.5005,9.9745 C13.7505,9.9745 14.0005,10.2305 14.0005,10.4875 L14.0005,13.5645 Z M11.0005,13.5645 C11.0005,13.8725 10.7505,14.0775 10.5005,14.0775 C10.1995,14.0775 10.0005,13.8205 10.0005,13.5645 L10.0005,10.4875 C10.0005,10.1795 10.2505,9.9745 10.5005,9.9745 C10.8005,9.9745 11.0005,10.2305 11.0005,10.4875 L11.0005,13.5645 Z M17.1795,8.4015 L17.1795,8.4015 C13.8245,7.9925 10.5195,7.9925 7.2135,8.3495 L7.0165,7.4305 C6.8185,6.6135 6.1285,6.0005 5.2895,6.0005 C4.8455,6.0005 4.5005,6.3575 4.5005,6.8175 C4.5005,7.2775 4.8455,7.6345 5.2895,7.6345 C5.3885,7.6345 5.4865,7.6855 5.4865,7.7885 L5.6845,8.6565 C5.8815,9.7805 6.4735,12.8965 6.7695,13.7645 C7.2135,15.0425 8.3485,15.9105 9.6315,15.9615 C11.1605,16.0125 12.7385,16.0125 14.2685,15.9615 C15.5515,15.8595 16.6865,14.9915 17.1305,13.7645 C17.5245,12.3855 17.7715,11.0065 17.9685,9.6265 C18.1165,9.0655 17.7225,8.5025 17.1795,8.4015 L17.1795,8.4015 Z" id="Fill-7" fill="#EE2737"></path>
                    <path d="M41.5981,11.1299 L41.5981,9.5679 C41.5981,8.0309 39.9111,6.6709 37.9691,6.6709 C35.5261,6.6709 33.9401,8.1569 33.9401,10.3239 C33.9401,12.6669 35.4261,14.0779 37.8191,14.0779 C39.9341,14.0779 41.5981,12.7679 41.5981,11.1299 M30.9671,19.8719 L33.6371,17.6549 C35.0221,19.2929 36.1571,19.8469 38.1211,19.8469 C40.1861,19.8469 41.7481,18.5119 41.7481,16.6969 L41.7481,15.7399 L41.6981,15.7399 C40.7661,16.7739 39.2291,17.3529 37.3911,17.3529 C33.2841,17.3529 30.2111,14.3799 30.2111,10.3239 C30.2111,6.4189 33.2091,3.3969 37.2641,3.3969 C39.1551,3.3969 40.7411,3.9499 41.6981,4.9579 L41.7481,4.9579 L41.7481,3.6489 L45.3271,3.6489 L45.3271,16.6479 C45.3271,20.4259 42.3541,23.0459 38.1211,23.0459 C35.0471,23.0459 32.5531,21.9379 30.9671,19.8719" id="Fill-9" fill="#FFFFFF"></path>
                    <path d="M58.5063,10.3242 C58.5063,8.1572 57.0203,6.5452 54.7013,6.5452 C52.3833,6.5452 50.8973,8.1572 50.8973,10.3242 C50.8973,12.4902 52.3833,14.1022 54.7013,14.1022 C57.0203,14.1022 58.5063,12.4902 58.5063,10.3242 M47.1683,10.3242 C47.1683,6.3442 50.3183,3.2702 54.7013,3.2702 C59.1103,3.2702 62.2353,6.3442 62.2353,10.3242 C62.2353,14.3042 59.1103,17.3782 54.7013,17.3782 C50.3183,17.3782 47.1683,14.3042 47.1683,10.3242" id="Fill-11" fill="#FFFFFF"></path>
                    <path d="M64.2544,3.6484 L67.5274,3.6484 L67.5274,4.9324 L67.5784,4.9324 C68.4844,3.9244 69.9964,3.2704 71.6864,3.2704 C73.2974,3.2704 75.0354,4.0014 75.9184,5.1344 L75.9674,5.1344 C77.1024,3.9004 78.6624,3.2704 80.3264,3.2704 C83.9284,3.2704 86.4224,5.6134 86.4224,9.0134 L86.4224,17.0004 L82.8204,17.0004 L82.8204,9.5934 C82.8204,7.6784 81.6864,6.5444 79.9984,6.5444 C78.2094,6.5444 77.0764,7.6784 77.0764,9.5934 L77.0764,17.0004 L73.6254,17.0004 L73.6254,9.5934 C73.6254,7.6784 72.4424,6.5444 70.8034,6.5444 C68.9884,6.5444 67.8564,7.6784 67.8564,9.5934 L67.8564,17.0004 L64.2544,17.0004 L64.2544,3.6484 Z" id="Fill-13" fill="#FFFFFF"></path>
                    <path d="M97.8149,12.0371 L97.8149,10.4501 L97.7639,10.4501 C97.4379,10.9291 96.7329,11.2061 94.9189,11.5331 C92.7269,11.9361 91.9459,12.3641 91.9459,13.1451 C91.9459,13.9521 92.5999,14.3051 94.0119,14.3051 C96.1779,14.3051 97.8149,13.3221 97.8149,12.0371 M88.4689,13.3971 C88.4689,10.9291 90.0809,9.6191 94.3379,9.0391 C96.8329,8.6861 97.5139,8.3341 97.5139,7.6791 C97.5139,6.7971 96.5809,6.2681 95.1449,6.2681 C93.4319,6.2681 92.1469,7.2001 91.8189,8.6611 L88.2939,7.9311 C88.8229,5.1591 91.5669,3.2701 95.0439,3.2701 C98.9499,3.2701 101.3679,5.2611 101.3679,8.5101 L101.3679,17.0001 L98.0159,17.0001 L98.0159,15.5391 L97.9669,15.5391 C97.1609,16.6731 95.4479,17.3781 93.4579,17.3781 C90.4849,17.3781 88.4689,15.7661 88.4689,13.3971" id="Fill-15" fill="#FFFFFF"></path>
                    <path d="M103.7642,3.6484 L107.2662,3.6484 L107.2662,4.9324 L107.3152,4.9324 C108.2992,3.9244 109.6332,3.3964 111.2462,3.3964 C111.9772,3.3964 112.6822,3.5224 113.4382,3.7494 L112.6572,7.0994 C111.9262,6.8974 111.4482,6.8224 110.7172,6.8224 C108.7272,6.8224 107.4932,8.1324 107.4932,10.9034 L107.4932,17.0004 L103.7642,17.0004 L103.7642,3.6484 Z" id="Fill-17" fill="#FFFFFF"></path>
                    <path d="M120.8208,6.8223 L120.8208,12.4663 C120.8208,13.2973 121.0978,13.5493 122.1818,13.5493 L124.6258,13.5493 L124.6258,17.0003 L121.8028,17.0003 C118.4028,17.0003 117.0918,15.6393 117.0918,12.6923 L117.0918,6.8223 L113.9438,6.8223 L113.9438,3.6483 L117.0918,3.6483 L117.0918,0.2983 L120.8208,0.2983 L120.8208,3.6483 L125.1298,3.6483 L125.1298,6.8223 L120.8208,6.8223 Z" id="Fill-19" fill="#FFFFFF"></path>
                </g>
            </g>
        </g>
    </g>
</svg>