<?xml version="1.0" encoding="UTF-8"?>
<svg width="120px" height="26px" viewBox="0 0 120 26" version="1.1" xmlns="http://www.w3.org/2000/svg" xmlns:xlink="http://www.w3.org/1999/xlink">
    <!-- Generator: Sketch 62 (91390) - https://sketch.com -->
    <title>Group 18</title>
    <desc>Created with Sketch.</desc>
    <defs>
        <polygon id="path-1" points="0.2879 0.954 15.53 0.954 15.53 19.7226 0.2879 19.7226"></polygon>
    </defs>
    <g id="Page-1-Copy" stroke="none" stroke-width="1" fill="none" fill-rule="evenodd">
        <g id="Group-158" transform="translate(-819.000000, -195.000000)">
            <g id="Group-18" transform="translate(819.000000, 194.000000)">
                <path d="M24.0001,14.0459 C24.0001,20.6729 18.6271,26.0459 12.0001,26.0459 C5.3721,26.0459 0.0001,20.6729 0.0001,14.0459 C0.0001,7.4189 5.3721,2.0459 12.0001,2.0459 C18.6271,2.0459 24.0001,7.4189 24.0001,14.0459" id="Fill-1" fill="#FFFFFF"></path>
                <path d="M15.4268,10.5449 C13.1428,10.3829 10.8578,10.3829 8.5728,10.5449 C8.2498,10.5669 7.9798,10.3059 8.0008,9.9829 C8.0398,9.4019 8.0858,8.8219 8.1388,8.2419 C8.1868,7.7209 8.5938,7.2899 9.1138,7.2259 C11.0378,6.9859 12.9618,6.9859 14.8868,7.2259 C15.4058,7.2899 15.8128,7.7209 15.8608,8.2419 C15.9138,8.8219 15.9598,9.4019 15.9988,9.9829 C16.0208,10.3059 15.7498,10.5669 15.4268,10.5449" id="Fill-3" fill="#EE2737"></path>
                <path d="M14.2501,17.0459 L12.5001,17.0459 L12.5001,18.7959 C12.5001,19.0719 12.2761,19.2959 12.0001,19.2959 C11.7241,19.2959 11.5001,19.0719 11.5001,18.7959 L11.5001,17.0459 L9.7501,17.0459 C9.4741,17.0459 9.2501,16.8219 9.2501,16.5459 C9.2501,16.2699 9.4741,16.0459 9.7501,16.0459 L11.5001,16.0459 L11.5001,14.2959 C11.5001,14.0199 11.7241,13.7959 12.0001,13.7959 C12.2761,13.7959 12.5001,14.0199 12.5001,14.2959 L12.5001,16.0459 L14.2501,16.0459 C14.5261,16.0459 14.7501,16.2699 14.7501,16.5459 C14.7501,16.8219 14.5261,17.0459 14.2501,17.0459 M17.6371,14.1899 C17.0951,13.3809 16.5311,12.5319 15.9661,11.6609 C13.3221,11.5069 10.6781,11.5069 8.0341,11.6609 C7.4691,12.5319 6.9051,13.3809 6.3631,14.1909 C6.1171,14.5569 5.9891,14.9839 6.0011,15.4239 C6.0321,16.5869 6.1151,17.7499 6.2511,18.9129 C6.3931,20.1229 7.3361,21.1049 8.5621,21.2879 C10.8541,21.6319 13.1461,21.6319 15.4371,21.2879 C16.6641,21.1049 17.6071,20.1229 17.7491,18.9129 C17.8851,17.7499 17.9681,16.5869 17.9991,15.4239 C18.0111,14.9839 17.8821,14.5569 17.6371,14.1899" id="Fill-5" fill="#EE2737"></path>
                <path d="M41.6339,13.5205 L41.6339,11.9585 C41.6339,10.4215 39.9469,9.0615 38.0069,9.0615 C35.5619,9.0615 33.9759,10.5475 33.9759,12.7145 C33.9759,15.0575 35.4619,16.4685 37.8549,16.4685 C39.9719,16.4685 41.6339,15.1585 41.6339,13.5205 M31.0029,22.2625 L33.6729,20.0455 C35.0579,21.6835 36.1929,22.2375 38.1569,22.2375 C40.2239,22.2375 41.7839,20.9025 41.7839,19.0875 L41.7839,18.1305 L41.7339,18.1305 C40.8019,19.1645 39.2649,19.7435 37.4269,19.7435 C33.3199,19.7435 30.2469,16.7705 30.2469,12.7145 C30.2469,8.8095 33.2449,5.7875 37.2999,5.7875 C39.1909,5.7875 40.7769,6.3405 41.7339,7.3485 L41.7839,7.3485 L41.7839,6.0395 L45.3629,6.0395 L45.3629,19.0385 C45.3629,22.8165 42.3899,25.4365 38.1569,25.4365 C35.0829,25.4365 32.5889,24.3285 31.0029,22.2625" id="Fill-7" fill="#FFFFFF"></path>
                <path d="M58.5382,12.7148 C58.5382,10.5478 57.0522,8.9358 54.7332,8.9358 C52.4172,8.9358 50.9312,10.5478 50.9312,12.7148 C50.9312,14.8808 52.4172,16.4928 54.7332,16.4928 C57.0522,16.4928 58.5382,14.8808 58.5382,12.7148 M47.2022,12.7148 C47.2022,8.7348 50.3502,5.6608 54.7332,5.6608 C59.1432,5.6608 62.2672,8.7348 62.2672,12.7148 C62.2672,16.6948 59.1432,19.7688 54.7332,19.7688 C50.3502,19.7688 47.2022,16.6948 47.2022,12.7148" id="Fill-9" fill="#FFFFFF"></path>
                <path d="M64.2823,6.0391 L67.5573,6.0391 L67.5573,7.3231 L67.6083,7.3231 C68.5143,6.3151 70.0263,5.6611 71.7143,5.6611 C73.3273,5.6611 75.0653,6.3921 75.9463,7.5251 L75.9973,7.5251 C77.1303,6.2911 78.6923,5.6611 80.3543,5.6611 C83.9583,5.6611 86.4523,8.0041 86.4523,11.4041 L86.4523,19.3911 L82.8483,19.3911 L82.8483,11.9841 C82.8483,10.0691 81.7163,8.9351 80.0283,8.9351 C78.2393,8.9351 77.1043,10.0691 77.1043,11.9841 L77.1043,19.3911 L73.6533,19.3911 L73.6533,11.9841 C73.6533,10.0691 72.4703,8.9351 70.8333,8.9351 C69.0183,8.9351 67.8863,10.0691 67.8863,11.9841 L67.8863,19.3911 L64.2823,19.3911 L64.2823,6.0391 Z" id="Fill-11" fill="#FFFFFF"></path>
                <path d="M99.1983,11.2783 C99.0223,9.7163 97.6373,8.6833 95.6473,8.6833 C93.6323,8.6833 92.2453,9.7163 92.0443,11.2783 L99.1983,11.2783 Z M88.3153,12.7403 C88.3153,8.6333 91.3393,5.6613 95.5713,5.6613 C100.0553,5.6613 102.8273,8.8353 102.8273,12.8403 L102.8273,13.8983 L91.9933,13.8983 C92.1203,15.6363 93.5303,16.7453 95.7723,16.7453 C97.4363,16.7453 98.5943,16.0903 99.8803,14.7553 L102.1963,17.0733 C100.6613,18.7603 98.6713,19.7683 95.7983,19.7683 C91.1123,19.7683 88.3153,16.9723 88.3153,12.7403 L88.3153,12.7403 Z" id="Fill-13" fill="#FFFFFF"></path>
                <g id="Group-17" transform="translate(104.000000, 0.045900)">
                    <mask id="mask-2" fill="white">
                        <use xlink:href="#path-1"></use>
                    </mask>
                    <g id="Clip-16"></g>
                    <path d="M11.8019,13.4746 L11.8019,11.7876 C11.8019,10.2006 10.0639,8.8896 7.9969,8.8896 C5.6299,8.8896 4.0169,10.4266 4.0169,12.6686 C4.0169,14.9366 5.5789,16.4226 7.9969,16.4226 C10.1149,16.4226 11.8019,15.1126 11.8019,13.4746 M0.2879,12.6686 C0.2879,8.6376 3.3369,5.6156 7.4189,5.6156 C9.1809,5.6156 10.7179,6.1196 11.7509,7.0506 L11.8019,7.0506 L11.8019,0.9536 L15.5309,0.9536 L15.5309,19.3446 L12.0789,19.3446 L12.0789,18.0356 L12.0289,18.0356 C11.0209,19.1436 9.4579,19.7226 7.5189,19.7226 C3.2859,19.7226 0.2879,16.8006 0.2879,12.6686" id="Fill-15" fill="#FFFFFF" mask="url(#mask-2)"></path>
                </g>
            </g>
        </g>
    </g>
</svg>