<?xml version="1.0" encoding="UTF-8"?>
<svg width="102px" height="26px" viewBox="0 0 102 26" version="1.1" xmlns="http://www.w3.org/2000/svg" xmlns:xlink="http://www.w3.org/1999/xlink">
    <!-- Generator: Sketch 62 (91390) - https://sketch.com -->
    <title>Group 19</title>
    <desc>Created with Sketch.</desc>
    <defs>
        <polygon id="path-1" points="0 0.0001 23.9998 0.0001 23.9998 24 0 24"></polygon>
        <polygon id="path-3" points="0 25.9 101.9 25.9 101.9 -3.55271368e-15 0 -3.55271368e-15"></polygon>
    </defs>
    <g id="Page-1-Copy" stroke="none" stroke-width="1" fill="none" fill-rule="evenodd">
        <g id="Group-38-Copy-4" transform="translate(-86.000000, -199.000000)">
            <g id="Group-19" transform="translate(86.000000, 199.000000)">
                <path d="M11.9998,2.6999 C18.1858,2.6999 23.1998,7.7149 23.1998,13.8999 C23.1998,20.0859 18.1858,25.0999 11.9998,25.0999 C5.8138,25.0999 0.7998,20.0859 0.7998,13.8999 C0.7998,7.7149 5.8138,2.6999 11.9998,2.6999" id="Fill-1" fill="#93328E"></path>
                <g id="Group-5" transform="translate(0.000000, 1.900000)">
                    <mask id="mask-2" fill="white">
                        <use xlink:href="#path-1"></use>
                    </mask>
                    <g id="Clip-4"></g>
                    <path d="M11.9998,0.0001 C5.3998,0.0001 -0.0002,5.4001 -0.0002,12.0001 C-0.0002,18.6001 5.3998,24.0001 11.9998,24.0001 C18.6008,24.0001 23.9998,18.6001 23.9998,12.0001 C23.9998,5.4001 18.6008,0.0001 11.9998,0.0001 M11.9998,1.5001 C17.7998,1.5001 22.4998,6.2001 22.4998,12.0001 C22.4998,17.8001 17.7998,22.5001 11.9998,22.5001 C6.1998,22.5001 1.4998,17.8001 1.4998,12.0001 C1.4998,6.2001 6.1998,1.5001 11.9998,1.5001" id="Fill-3" fill="#FFFFFF" mask="url(#mask-2)"></path>
                </g>
                <path d="M11.9998,20.3 C11.3998,20.3 10.8998,19.8 10.8998,19.2 C10.8998,18.6 11.3998,18.1 11.9998,18.1 C12.6008,18.1 13.1008,18.6 13.1008,19.2 C13.1998,19.8 12.6008,20.3 11.9998,20.3 M15.7998,14.6 L15.6998,14.7 C15.6008,14.9 15.3998,15 15.1998,15.1 L15.1998,17.1 C15.1998,17.4 14.9998,17.6 14.6998,17.6 L9.4998,17.6 C9.1998,17.6 8.9998,17.4 8.9998,17.1 L8.9998,15.2 C8.7998,15.1 8.6998,15 8.4998,14.9 C8.3998,14.8 8.3998,14.8 8.2998,14.7 C7.8998,15.2 7.1998,15.6 6.6008,15.6 C6.6008,16.8 6.6998,18 6.7998,18.5 C6.9998,19.6 7.7998,20.5 8.8998,20.7 C10.9998,21.2 13.2998,21.1 15.3998,20.7 C16.4998,20.5 17.2998,19.6 17.3998,18.5 C17.4998,18 17.4998,16.8 17.4998,15.6 C16.7998,15.5 16.1998,15.1 15.7998,14.6" id="Fill-6" fill="#FFFFFF"></path>
                <path d="M19.4998,13.1999 C19.4998,13.0999 19.4998,12.8999 19.3998,12.7999 L19.3998,12.5999 C19.1008,11.2999 18.6008,9.9999 17.9998,8.7999 C17.6008,7.9999 16.7998,7.3999 15.8998,7.2999 C15.1008,7.1999 14.2998,7.0999 13.4998,6.9999 L11.9998,6.9999 L10.4998,6.9999 C9.6998,6.9999 8.8998,7.0999 7.9998,7.2999 C7.1008,7.3999 6.3998,7.9999 5.9998,8.7999 C5.3998,9.9999 4.8998,11.2999 4.5998,12.5999 L4.5998,12.7999 C4.5998,12.8999 4.4998,13.0999 4.4998,13.1999 C4.4998,13.3999 4.4998,13.5999 4.5998,13.7999 C4.8998,14.4999 5.6008,14.9999 6.3998,14.9999 L6.4998,14.9999 C7.1998,14.9999 7.6998,14.5999 7.9998,13.9999 C7.9998,13.8999 8.1008,13.8999 8.1998,13.8999 C8.2998,13.8999 8.3998,13.8999 8.3998,13.9999 C8.4998,14.1999 8.6008,14.2999 8.7998,14.4999 L8.8998,14.5999 C9.1998,14.8999 9.6998,15.0999 10.1008,15.0999 C10.6008,15.0999 10.9998,14.8999 11.3998,14.5999 C11.6008,14.4999 11.6998,14.2999 11.7998,14.0999 C11.7998,13.9999 11.8998,13.9999 11.9998,13.9999 C12.1008,13.9999 12.1998,13.9999 12.1998,14.0999 C12.2998,14.2999 12.3998,14.4999 12.6008,14.5999 C13.2998,15.2999 14.3998,15.2999 15.1008,14.5999 L15.1998,14.4999 C15.2998,14.3999 15.3998,14.1999 15.4998,14.0999 C15.4998,13.9999 15.6008,13.9999 15.6998,13.9999 C15.7998,13.9999 15.8998,13.9999 15.8998,14.0999 C16.1998,14.6999 16.7998,15.0999 17.3998,15.0999 L17.4998,15.0999 C18.1998,15.0999 18.8998,14.6999 19.1998,14.0999 C19.4998,13.6999 19.4998,13.4999 19.4998,13.1999" id="Fill-8" fill="#FFFFFF"></path>
                <path d="M41.6004,11.8 C41.6004,10.3 39.9004,8.9 37.9994,8.9 C35.6004,8.9 33.9994,10.4 33.9994,12.6 C33.9004,14.5 35.2994,16.2 37.2994,16.4 L37.9004,16.4 C39.9994,16.4 41.7004,15.1 41.7004,13.5 L41.6004,11.8 Z M33.7004,19.9 C34.7004,21.4 36.4004,22.2 38.2004,22.1 C40.2994,22.1 41.7994,20.8 41.7994,19 L41.7994,18 L41.7004,18 C40.6004,19.1 38.9994,19.7 37.4004,19.6 C33.4994,19.7 30.2994,16.7 30.2004,12.8 C30.1004,8.9 33.1004,5.7 36.9994,5.6 L37.2994,5.6 C38.9004,5.5 40.4994,6.1 41.7004,7.2 L41.7994,7.2 L41.7994,5.9 L45.4004,5.9 L45.4004,18.9 C45.4004,22.7 42.4004,25.3 38.2004,25.3 C35.4004,25.4 32.7994,24.3 30.9994,22.1 L33.7004,19.9 Z" id="Fill-10" fill="#FFFFFF"></path>
                <path d="M54.7,8.8 C52.6,8.8 50.9,10.5 50.9,12.6 C50.9,14.7 52.6,16.4 54.7,16.4 C56.8,16.4 58.5,14.7 58.5,12.6 C58.6,10.6 57,8.9 55.1,8.8 L54.7,8.8 Z M54.7,5.5 C59.1,5.5 62.2,8.6 62.2,12.6 C62.2,16.6 59,19.7 54.7,19.7 C50.8,20 47.4,17 47.2,13.1 C46.9,9.2 49.9,5.8 53.8,5.6 C54.1,5.5 54.4,5.5 54.7,5.5 L54.7,5.5 Z" id="Fill-12" fill="#FFFFFF"></path>
                <path d="M71.7996,8.8 C69.7996,8.8 67.9996,10.1 67.9996,11.7 L67.9996,13.4 C67.9996,15 69.6996,16.3 71.7996,16.3 C74.1996,16.3 75.7996,14.8 75.7996,12.5 C75.7996,10.5 74.1996,8.8 72.1996,8.7 C71.9996,8.8 71.9006,8.8 71.7996,8.8 M67.6996,18 L67.6996,19.3 L64.1996,19.3 L64.1996,0.9 L67.9006,0.9 L67.9006,7 C69.1006,6 70.6996,5.5 72.1996,5.6 C75.9996,5.5 79.1996,8.5 79.2996,12.4 L79.2996,12.7 C79.4006,16.5 76.4006,19.7 72.6006,19.8 L72.1006,19.8 C70.6006,19.8 68.9996,19.1 67.6996,18" id="Fill-14" fill="#FFFFFF"></path>
                <mask id="mask-4" fill="white">
                    <use xlink:href="#path-3"></use>
                </mask>
                <g id="Clip-17"></g>
                <path d="M81.5,19.3 L85.2,19.3 L85.2,5.9 L81.5,5.9 L81.5,19.3 Z M81.4,3.7 L85.299,3.7 L85.299,-3.55271368e-15 L81.4,-3.55271368e-15 L81.4,3.7 Z" id="Fill-16" fill="#FFFFFF" mask="url(#mask-4)"></path>
                <polygon id="Fill-18" fill="#FFFFFF" mask="url(#mask-4)" points="87.1004 16.4001 96.1004 9.1001 96.1004 9.0001 87.4004 9.0001 87.4004 5.9001 101.7004 5.9001 101.7004 8.8001 92.7004 16.1001 101.9004 16.1001 101.9004 19.2001 87.2004 19.2001 87.2004 16.4001"></polygon>
            </g>
        </g>
    </g>
</svg>