<svg version="1.1" id="Layer_1" xmlns="http://www.w3.org/2000/svg" x="0" y="0" viewBox="0 0 7172.9 3679.2" xml:space="preserve"><style>.st0{fill:#00aa13}</style><path class="st0" d="M1120.8 1922.9c0-140.8 114.2-255 255-255s255 114.2 255 255-114.1 255-255 255-255-114.2-255-255"/><path class="st0" d="M1375.7 1243c-375.5 0-679.9 304.4-679.9 679.9 0 281.9 170.2 522.5 417.4 627.2 15.6 6.4 32.3 9.8 49.2 9.9 70.4 0 127.5-57.1 127.5-127.5 0-51.4-30.9-97.7-78.2-117.6v-.1c-153.2-64.2-260.9-215.5-260.9-392 0-234.7 190.2-425 425-425s425 190.3 425 425c0 176.5-107.7 327.8-260.9 392v.1c-64.9 27.3-95.4 102-68.1 166.9 19.8 47.2 66 78 117.2 78.1 16.9-.1 33.6-3.5 49.2-9.9 247.1-104.7 417.4-345.4 417.4-627.2 0-375.5-304.4-679.9-679.9-679.8"/><path d="M4028.4 1847.5c0-123-84.4-214.4-215.9-214.4s-215.9 91.5-215.9 214.4S3681 2062 3812.5 2062s215.9-91.5 215.9-214.5m-643.4 0c0-225.9 178.7-400.3 427.5-400.3 250.2 0 427.5 174.4 427.5 400.3s-177.3 400.4-427.5 400.4c-248.8 0-427.5-174.5-427.5-400.4m782.4 563.9h114.4c61.5 0 82.9-22.9 82.9-77.2v-886.8h211.6v889.7c0 187.3-75.8 267.4-277.4 267.4h-131.5v-193.1zm-1121.6-522.5c0 93.5-95 168.4-215.9 168.4-136.7 0-221.6-80.6-221.6-214.4 0-123.7 90.7-208.7 230.2-208.7 110.8 0 207.2 77.7 207.2 165.5l.1 89.2zm8.6-442v89.4h-2.9c-54.7-57.6-145.4-89.2-253.3-89.2-231.7 0-402.9 172.7-402.9 395.7 0 231.7 175.6 401.5 410.1 401.5 105 0 192.8-33.1 246.1-92.1h2.9v77.1c0 103.6-89.2 179.9-207.2 179.9-119 0-188.2-33.6-248.4-91l-137.7 132.6c92.3 98 231.5 153.7 390.5 153.7 241.8 0 407.2-162.2 407.2-378V1447l-204.4-.1zM5117 1618.7c112.9 0 191.6 58.6 201.6 147.3h-406.1c11.5-88.7 90.2-147.3 204.5-147.3m21.9 457.5c-126.9 0-226.5-82-229.2-161.6h614.8v-60c0-227.3-157.3-407.5-411.8-407.5-240.2 0-411.8 168.7-411.8 401.8 0 240.2 181 398.9 447 398.9 163 0 279.9-78.1 340.9-153l-143.4-100.5c-63.7 59.6-121.6 82-206.5 81.9m510.3-835.2h204.2l1.2 525h2.8l341.9-320.7h273.8l-354.4 335.5 353 466.4h-244.5l-242.4-337.1h-2.7l-128.7 121.8v215.9h-204.2z"/></svg>