<svg version="1.1" id="Layer_1" xmlns="http://www.w3.org/2000/svg" x="0" y="0" viewBox="0 0 3955.7 3679.2" xml:space="preserve"><style>.st0{fill:#00aa13}</style><path class="st0" d="M1636.9 1335.4c0-168.1 136.3-304.4 304.4-304.4s304.4 136.3 304.4 304.4-136.3 304.4-304.4 304.4-304.4-136.2-304.4-304.4"/><path class="st0" d="M1941.3 523.8c-448.3 0-811.7 363.4-811.7 811.7 0 336.5 203.2 623.8 498.3 748.8 18.6 7.7 38.6 11.7 58.8 11.8 84 0 152.2-68.1 152.2-152.2 0-61.4-36.8-116.7-93.4-140.4v-.1c-182.9-76.6-311.4-257.2-311.4-467.9 0-280.2 227.1-507.3 507.3-507.3s507.3 227.1 507.3 507.3c0 210.7-128.5 391.3-311.4 467.9v.1c-77.5 32.5-114 121.7-81.5 199.2 23.7 56.6 79 93.4 140.4 93.4 20.2-.1 40.1-4.1 58.8-11.8 295-125 498.3-412.3 498.3-748.8-.3-448.4-363.7-811.8-812-811.7"/><path d="M1694.5 2715.5c0-71.5-49-124.6-125.5-124.6s-125.5 53.2-125.5 124.6 49 124.6 125.5 124.6 125.5-53.1 125.5-124.6m-373.9 0c0-131.3 103.9-232.7 248.5-232.7 145.4 0 248.5 101.4 248.5 232.7s-103 232.7-248.5 232.7c-144.7 0-248.5-101.4-248.5-232.7m454.7 327.8h66.5c35.7 0 48.2-13.3 48.2-44.9V2483h123v517.1c0 108.9-44.1 155.4-161.2 155.4h-76.4v-112.2zm-651.9-303.7c0 54.4-55.2 97.9-125.5 97.9-79.5 0-128.8-46.8-128.8-124.6 0-71.9 52.7-121.3 133.8-121.3 64.4 0 120.4 45.2 120.4 96.2v51.8zm5-256.9v52h-1.7c-31.8-33.4-84.5-51.9-147.2-51.9-134.6 0-234.2 100.4-234.2 230 0 134.7 102 233.3 238.4 233.3 61.1 0 112.1-19.2 143-53.5h1.7v44.8c0 60.2-51.9 104.5-120.4 104.5-69.2 0-109.4-19.5-144.3-52.9l-80.1 77.1c53.7 57 134.5 89.3 226.9 89.3 140.5 0 236.7-94.3 236.7-219.7v-453h-118.8zm1198.8 99.9c65.6 0 111.3 34.1 117.2 85.6h-236c6.6-51.6 52.3-85.6 118.8-85.6m12.7 265.9c-73.7 0-131.7-47.7-133.2-93.9H2564v-34.9c0-132.1-91.4-236.8-239.4-236.8-139.6 0-239.3 98.1-239.3 233.5 0 139.6 105.2 231.8 259.8 231.8 94.8 0 162.7-45.4 198.1-88.9l-83.3-58.4c-37.1 34.6-70.7 47.6-120 47.6m296.6-485.5h118.7l.6 305.2h1.6l198.8-186.4h159.1l-205.9 195 205.1 271.1h-142.1l-140.9-196h-1.6l-74.7 70.8v125.5h-118.7z"/></svg>