<?xml version="1.0" encoding="UTF-8"?>
<svg width="15px" height="18px" viewBox="0 0 15 18" version="1.1" xmlns="http://www.w3.org/2000/svg" xmlns:xlink="http://www.w3.org/1999/xlink">
    <!-- Generator: Sketch 62 (91390) - https://sketch.com -->
    <title>github-big-logo</title>
    <desc>Created with Sketch.</desc>
    <g id="Page-1-Copy" stroke="none" stroke-width="1" fill="none" fill-rule="evenodd">
        <g id="Life@Gojek-Copy-8" transform="translate(-625.000000, -7544.000000)" fill="#FFFFFF" fill-rule="nonzero">
            <g id="Group-3-Copy-2" transform="translate(431.000000, 7540.000000)">
                <g id="github-big-logo" transform="translate(194.000000, 4.000000)">
                    <path d="M14.8760305,7.54786167 C14.9456384,7.12521515 14.989065,6.6618008 15,6.14216146 C14.9958063,3.91399669 13.8842354,3.12556799 13.6703556,2.75594973 C13.985355,1.0676954 13.6181889,0.299763443 13.4474222,0.0368786612 C12.8175803,-0.177641338 11.2561056,0.590553876 10.4029383,1.13132931 C9.01191674,0.740612571 6.07227589,0.778747788 4.96987627,1.23245909 C2.93588295,-0.165080033 1.86009582,0.0480108351 1.86009582,0.0480108351 C1.86009582,0.0480108351 1.16460461,1.24471952 1.67623843,2.99544191 C1.00700697,3.81376951 0.508189467,4.39234168 0.508189467,5.92700211 C0.508189467,6.29455189 0.531980008,6.64186819 0.572349461,6.97602145 C1.14869199,9.88385057 3.54989057,11.1383262 5.90856404,11.3546514 C5.5536264,11.6134369 5.12751311,12.1031773 5.06856587,12.6706549 C4.6225814,12.9473421 3.72547809,13.0388064 3.02787043,12.8283482 C2.05042015,12.5319916 1.67623843,10.6746486 0.212473426,10.9396019 C-0.104250408,10.9964662 -0.0413054168,11.1969206 0.232971701,11.3678145 C0.678916978,11.6453666 1.09891606,11.9903888 1.42265556,12.7286851 C1.67130003,13.2955234 2.19426082,14.3075734 3.84768387,14.3075734 C4.50405982,14.3075734 4.96380126,14.2331458 4.96380126,14.2331458 C4.96380126,14.2331458 4.97630403,15.6775453 4.97630403,16.240886 C4.97630403,16.8891847 4.06450311,17.0712108 4.06450311,17.3822347 C4.06450311,17.5059297 4.36629416,17.5176636 4.60882443,17.5176636 C5.0881235,17.5176636 6.08536657,17.1345814 6.08536657,16.4607464 C6.08536657,15.9253114 6.09426352,14.125961 6.09426352,13.8108377 C6.09426352,13.1223353 6.47879236,12.9031143 6.47879236,12.9031143 C6.47879236,12.9031143 6.52586393,16.5784992 6.38625617,17.0712484 C6.22254432,17.6507231 5.92596602,17.5683977 5.92596602,17.8262805 C5.92596602,18.2111303 7.12486038,17.9203775 7.52251909,17.0779803 C7.83015,16.4200162 7.69238434,12.8157493 7.69238434,12.8157493 L8.01310593,12.8090549 C8.01310593,12.8090549 8.01679013,14.4597758 8.00573752,15.2139053 C7.9941754,15.9950003 7.91018342,16.9824542 8.39367621,17.4485012 C8.71102714,17.7550121 9.68326466,18.292854 9.68326466,17.801346 C9.68326466,17.5164977 9.00243188,17.2811049 9.00243188,16.5093744 L9.00243188,12.9542997 C9.4160424,12.9542997 9.50152374,14.1228771 9.50152374,14.1228771 L9.65061636,16.2939142 C9.65061636,16.2939142 9.55161321,17.0861414 10.5425069,17.4167594 C10.8923102,17.5343242 11.6406344,17.5662916 11.6757127,17.3689588 C11.7108694,17.1711371 10.7746509,16.8786166 10.7657539,16.2654445 C10.7609331,15.8919901 10.7831951,15.6734084 10.7831951,14.0490136 C10.7831951,12.4255214 10.5559111,11.8249482 9.76388599,11.3463399 C12.0606727,11.1201612 14.4462722,10.135904 14.8760305,7.54786167 Z" id="Path"></path>
                </g>
            </g>
        </g>
    </g>
</svg>