<?xml version="1.0" encoding="UTF-8"?>
<svg width="17px" height="17px" viewBox="0 0 17 17" version="1.1" xmlns="http://www.w3.org/2000/svg" xmlns:xlink="http://www.w3.org/1999/xlink">
    <!-- Generator: Sketch 62 (91390) - https://sketch.com -->
    <title>instagram</title>
    <desc>Created with Sketch.</desc>
    <g id="Page-1-Copy" stroke="none" stroke-width="1" fill="none" fill-rule="evenodd">
        <g id="Life@Gojek-Copy-8" transform="translate(-508.000000, -7544.000000)" fill="#FFFFFF" fill-rule="nonzero">
            <g id="Group-3-Copy-2" transform="translate(431.000000, 7540.000000)">
                <g id="instagram" transform="translate(77.000000, 4.000000)">
                    <path d="M12.3982544,0 L4.60174561,0 C2.06430054,0 0,2.06430054 0,4.60174561 L0,12.3983841 C0,14.9356995 2.06430054,17 4.60174561,17 L12.3983841,17 C14.9356995,17 17,14.9356995 17,12.3983841 L17,4.60174561 C17,2.06430054 14.9356995,0 12.3982544,0 Z M8.5,13.1483078 C5.93687441,13.1483078 3.85169219,11.0631256 3.85169219,8.5 C3.85169219,5.93687441 5.93687441,3.85169219 8.5,3.85169219 C11.0631256,3.85169219 13.1483078,5.93687441 13.1483078,8.5 C13.1483078,11.0631256 11.0631256,13.1483078 8.5,13.1483078 L8.5,13.1483078 Z M13.2594604,4.94791412 C12.5020142,4.94791412 11.8859405,4.33184052 11.8859405,3.57439423 C11.8859405,2.81694795 12.5020142,2.20074463 13.2594604,2.20074463 C14.0169067,2.20074463 14.6331101,2.81694795 14.6331101,3.57439423 C14.6331101,4.33184052 14.0169067,4.94791412 13.2594604,4.94791412 Z" id="Shape"></path>
                    <path d="M8.5,5 C6.57018292,5 5,6.57005862 5,8.5 C5,10.4298171 6.57018292,12 8.5,12 C10.4299414,12 12,10.4298171 12,8.5 C12,6.57005862 10.4299414,5 8.5,5 Z" id="Path"></path>
                    <path d="M13.499914,3 C13.2243248,3 13,3.22436339 13,3.5 C13,3.77563661 13.2243248,4 13.499914,4 C13.7756752,4 14,3.77580866 14,3.5 C14,3.22419134 13.7756752,3 13.499914,3 Z" id="Path"></path>
                </g>
            </g>
        </g>
    </g>
</svg>