<?xml version="1.0" encoding="UTF-8"?>
<svg width="28px" height="28px" viewBox="0 0 28 28" version="1.1" xmlns="http://www.w3.org/2000/svg" xmlns:xlink="http://www.w3.org/1999/xlink">
    <!-- Generator: sketchtool 62 (101010) - https://sketch.com -->
    <title>8B7C9DEE-24CD-4152-B9A1-C8543CB328A9</title>
    <desc>Created with sketchtool.</desc>
    <g id="Page-1" stroke="none" stroke-width="1" fill="none" fill-rule="evenodd">
        <g id="Mobile-Copy-15" transform="translate(-20.000000, -1519.000000)">
            <g id="arrow-right-copy" transform="translate(34.000000, 1533.000000) scale(-1, 1) translate(-34.000000, -1533.000000) translate(20.000000, 1519.000000)">
                <circle id="Oval" fill="#FFFFFF" opacity="0.90125093" cx="14" cy="14" r="14"></circle>
                <path d="M18.565,13.577 L12.565,8.377 C12.295,8.143 11.92,8 11.5,8 C10.675,8 10,8.585 10,9.3 C10,9.664 10.165,9.989 10.435,10.223 L15.385,14.5 L10.45,18.777 C10.165,19.011 10,19.336 10,19.7 C10,20.415 10.675,21 11.5,21 C11.92,21 12.295,20.857 12.565,20.623 L18.565,15.423 C18.835,15.189 19,14.864 19,14.5 C19,14.136 18.835,13.811 18.565,13.577 Z" id="Mask" fill="#101820"></path>
            </g>
        </g>
    </g>
</svg>