<?xml version="1.0" encoding="UTF-8"?>
<svg width="18px" height="15px" viewBox="0 0 18 15" version="1.1" xmlns="http://www.w3.org/2000/svg" xmlns:xlink="http://www.w3.org/1999/xlink">
    <!-- Generator: Sketch 62 (91390) - https://sketch.com -->
    <title>twitter (1)</title>
    <desc>Created with Sketch.</desc>
    <g id="Page-1-Copy" stroke="none" stroke-width="1" fill="none" fill-rule="evenodd">
        <g id="Life@Gojek-Copy-8" transform="translate(-471.000000, -7545.000000)" fill="#FFFFFF" fill-rule="nonzero">
            <g id="Group-3-Copy-2" transform="translate(431.000000, 7540.000000)">
                <g id="twitter-(1)" transform="translate(40.000000, 5.000000)">
                    <path d="M18,1.77576923 C17.330625,2.07692308 16.617375,2.27653846 15.87375,2.37346154 C16.63875,1.905 17.222625,1.16884615 17.497125,0.281538462 C16.783875,0.717692308 15.996375,1.02576923 15.157125,1.19769231 C14.479875,0.458076923 13.514625,0 12.461625,0 C10.418625,0 8.773875,1.70076923 8.773875,3.78576923 C8.773875,4.08576923 8.798625,4.37423077 8.859375,4.64884615 C5.7915,4.49538462 3.076875,2.98730769 1.25325,0.69 C0.934875,1.25653846 0.748125,1.905 0.748125,2.60307692 C0.748125,3.91384615 1.40625,5.07576923 2.38725,5.74846154 C1.794375,5.73692308 1.21275,5.56038462 0.72,5.28230769 C0.72,5.29384615 0.72,5.30884615 0.72,5.32384615 C0.72,7.16307692 1.999125,8.69076923 3.6765,9.04269231 C3.376125,9.12692308 3.04875,9.16730769 2.709,9.16730769 C2.47275,9.16730769 2.23425,9.15346154 2.010375,9.10269231 C2.4885,10.6015385 3.84525,11.7034615 5.4585,11.7392308 C4.203,12.7465385 2.608875,13.3534615 0.883125,13.3534615 C0.5805,13.3534615 0.29025,13.3396154 0,13.3015385 C1.634625,14.3826923 3.571875,15 5.661,15 C12.4515,15 16.164,9.23076923 16.164,4.23 C16.164,4.06269231 16.158375,3.90115385 16.1505,3.74076923 C16.882875,3.20769231 17.49825,2.54192308 18,1.77576923 Z" id="Path"></path>
                </g>
            </g>
        </g>
    </g>
</svg>