<?xml version="1.0" encoding="UTF-8"?>
<svg width="25px" height="18px" viewBox="0 0 25 18" version="1.1" xmlns="http://www.w3.org/2000/svg" xmlns:xlink="http://www.w3.org/1999/xlink">
    <!-- Generator: Sketch 62 (91390) - https://sketch.com -->
    <title>youtube (1)</title>
    <desc>Created with Sketch.</desc>
    <g id="Page-1-Copy" stroke="none" stroke-width="1" fill="none" fill-rule="evenodd">
        <g id="Life@Gojek-Copy-8" transform="translate(-578.000000, -7544.000000)" fill="#FFFFFF" fill-rule="nonzero">
            <g id="Group-3-Copy-2" transform="translate(431.000000, 7540.000000)">
                <g id="youtube-(1)" transform="translate(147.000000, 4.000000)">
                    <path d="M24.4848083,2.81656989 C24.1967231,1.71520478 23.3523035,0.847010808 22.2814441,0.5504472 C20.3251192,0 12.4996668,0 12.4996668,0 C12.4996668,0 4.67451955,0 2.7181946,0.529577877 C1.6679345,0.825827681 0.802915698,1.71536168 0.514830407,2.81656989 C0,4.82818138 0,9 0,9 C0,9 0,13.1928448 0.514830407,15.1834301 C0.803220854,16.2846383 1.64733517,17.1528323 2.71834718,17.4493959 C4.69511884,18 12.499972,18 12.499972,18 C12.499972,18 20.3251192,18 22.2814441,17.4704221 C23.3524562,17.1740154 24.1967231,16.3058214 24.4851135,15.2046132 C24.9998964,13.1928448 24.9998964,9.02118313 24.9998964,9.02118313 C24.9998964,9.02118313 25.0203907,4.82818138 24.4848083,2.81656989 L24.4848083,2.81656989 Z M10.0082173,12.8540718 L10.0082173,5.14592815 L16.5154659,9 L10.0082173,12.8540718 Z" id="Shape"></path>
                </g>
            </g>
        </g>
    </g>
</svg>