<svg id="Layer_1" data-name="Layer 1" xmlns="http://www.w3.org/2000/svg" xmlns:xlink="http://www.w3.org/1999/xlink" viewBox="0 0 400 250"><defs><style>.cls-1,.cls-3,.cls-4{fill:none;}.cls-10,.cls-2{fill:#08a94b;}.cls-18,.cls-2,.cls-3{fill-rule:evenodd;}.cls-3,.cls-4{stroke:#000;stroke-linecap:round;stroke-miterlimit:10;stroke-width:2px;}.cls-5{clip-path:url(#clip-path);}.cls-6{clip-path:url(#clip-path-2);}.cls-7{fill:#af2078;}.cls-8{fill:#f6a7ad;}.cls-9{fill:#d84e9a;}.cls-11{fill:#00acd5;}.cls-12{clip-path:url(#clip-path-4);}.cls-13{fill:#e8e7e6;}.cls-14{fill:#f0a5ab;}.cls-15{fill:#146735;}.cls-16{fill:#1b532a;}.cls-17{fill:#a2a3a3;}.cls-18{fill:#fff;}</style><clipPath id="clip-path"><rect class="cls-1" x="0.5" y="-314" width="399" height="250"/></clipPath><clipPath id="clip-path-2"><rect class="cls-1" x="196.6" y="-163.23" width="223.9" height="335.38"/></clipPath><clipPath id="clip-path-4"><rect class="cls-1" x="55.12" y="-122.34" width="143.17" height="167.69"/></clipPath></defs><title>Website Illustrations</title><path id="Fill-173" class="cls-2" d="M213.4,18.36a22.32,22.32,0,0,0-2.72.06c-.88-.13-1.77-.26-2.69-.31A113.46,113.46,0,0,0,156.61,235,21.4,21.4,0,0,0,174.09,196a70.66,70.66,0,0,1,32-135.09,22.3,22.3,0,0,0,2.72-.07,26.34,26.34,0,0,0,2.69.31,70.66,70.66,0,0,1,19.83,137.4A21.4,21.4,0,0,0,245.22,239,113.45,113.45,0,0,0,213.4,18.36"/><path id="Fill-175" class="cls-2" d="M249.08,134.49a43.31,43.31,0,1,0-46,40.47,43.33,43.33,0,0,0,46-40.47"/><path class="cls-3" d="M173.48,67.85s-39,13.7-40.7,66.88c0,0-.46,34.54,28.22,53.65"/><path class="cls-3" d="M265,92.18c8.34,10.68,16.12,27.8,13,53.17,0,0-4.53,32.14-34.85,46"/><path class="cls-4" d="M311.5,81.2c-32-62.36-103-62.36-103-62.36S162.39,13.94,124,50c0,0-21,23.16-22.5,30.13"/><path class="cls-4" d="M182,167.86S147.09,144,170.76,106.39c0,0,23.66-36,66-5"/><g class="cls-5"><g id="Artwork_34" data-name="Artwork 34"><g class="cls-6"><g class="cls-6"><path class="cls-7" d="M281.55,19.1s6.61,18.14,8.29,22.55,8.17,21.9,13.87,28.12,35,48.73,39.4,55.34,6.09,13,1.16,18.92-10.63,12.31-3.76,20.73l30.85-25.53s-4.28-7.77-8.3-9.33-10.49-11.53-14.51-22-8.81-28.12-13.61-33.7-6.35-7.12-6.35-7.12l-2.14-5.58L306.17,13.52Z"/><path class="cls-8" d="M371.36,139.23l-30.85,25.53c-6.87-8.42-1.16-14.77,3.76-20.73s3.24-12.31-1.17-18.92S309.41,76,303.71,69.77s-12.18-23.72-13.87-28.13c-.1-.26-.22-.56-.34-.91a67.52,67.52,0,0,0,15.62-2.11l10.46-2.86,10.87,25.72,2.14,5.57s1.56,1.55,6.35,7.12,9.59,23.2,13.61,33.7,10.5,20.48,14.51,22,8.3,9.33,8.3,9.33"/><path class="cls-7" d="M304.61,17.41s1,5.44,2.47,8c0,0-3,20.73-6.09,39s-4.28,20.73-3.63,38.23,3.24,38.23,2.85,44.71-4.67,11.4-9.33,12-14.78,3-14.52,12.7h37.2s.13-18.14,1-28.12,3-20.74,3.63-34.35-.52-21.12-.52-21.12,10.24-26.83,14.39-36.29,6.09-13.73,6.09-13.73l2.2.51s1.17-4.27,2.85-3.88,0,5,0,5l5.58,1.68s2.59-13.06,3.11-20-4.41-17.71-4.41-17.71L336.37-7.08,302.67,5.49Z"/><path class="cls-9" d="M339.51,37.65c1.15-7.16,2.51-14.6,1.58-21.86a36.91,36.91,0,0,0-6.32-17c-.48-.65-1.57,0-1.09.64a35.83,35.83,0,0,1,6.19,16.64c.85,7.05-.46,14.28-1.58,21.22-.13.8,1.09,1.14,1.22.34"/><path class="cls-8" d="M332.09,52.27c-4.15,9.47-14.38,36.29-14.38,36.29s1.16,7.52.51,21.13-2.72,24.36-3.63,34.34-1,28.12-1,28.12H276.37c-.27-9.72,9.84-12.06,14.51-12.7s8.94-5.57,9.33-12-2.21-27.22-2.86-44.71.53-20,3.64-38.23c1.52-8.92,3-18.44,4.13-25.84a140.81,140.81,0,0,1,33.06-.08s-1.94,4.27-6.09,13.73"/><path class="cls-10" d="M292.63-87.55c10.5-2.48,21.66-3.52,30.37,1.44,5.92,3.37,9.87,9.28,13.58,15a53.67,53.67,0,0,1,8.59,22.89C346.31-39.61,342.94-32,343.5-24c.17,2.52,8.19,28.74,7.93,28.82l-8.24,2.4-7-12.09-1.44,14S306,26.88,261.37,20.51L250.6-46,213-58.2l9.7-30.34,39.4,9.86c3.33.76,10.8-3.18,14.09-4.17C281.1-84.33,286.77-86.16,292.63-87.55Z"/><path class="cls-11" d="M317.71,88.56s1.16,7.52.51,21.13c-.35,7.37-1.12,13.9-1.89,19.94H299.21c-.69-8.28-1.52-18-1.86-26.95-.58-15.9.33-19.38,2.84-33.62a75.34,75.34,0,0,1,23.31,4.5c-3.15,8.06-5.79,15-5.79,15"/><path d="M314.12,151.09c-.48,9.7-.56,21.06-.56,21.06H276.37c-.27-9.72,9.84-12.05,14.51-12.7,3.73-.52,7.2-3.77,8.64-8.36Z"/><path d="M371.36,139.23l-30.85,25.53c-6.87-8.42-1.16-14.77,3.76-20.73,3.84-4.65,3.66-9.53,1.31-14.58l10.39-7c2.57,3.88,5.12,6.66,7.09,7.42,4,1.56,8.3,9.33,8.3,9.33"/><path d="M300.46,71.61c.84-5.41,1.74-10.8,2.62-16.2q1.88-11.47,3.74-22.95c.37-2.29.75-4.58,1.1-6.87.12-.79-1.09-1.13-1.22-.33-.83,5.41-1.74,10.8-2.62,16.2q-1.86,11.48-3.73,22.95c-.37,2.29-.75,4.57-1.11,6.87-.12.79,1.1,1.13,1.22.33"/><path d="M307.66,24.92a6.39,6.39,0,0,1-2-4.5.64.64,0,0,0-1.27,0,7.67,7.67,0,0,0,2.37,5.39c.59.56,1.48-.33.89-.89"/><path d="M318.56,88.6q4.33-12,9.2-23.79c.31-.75-.91-1.08-1.21-.34q-4.87,11.79-9.21,23.79c-.28.77.94,1.1,1.22.34"/></g></g></g><g id="Artwork_38" data-name="Artwork 38"><g class="cls-12"><g class="cls-12"><path class="cls-13" d="M63.09,24.63l-6.43,3.84a3.16,3.16,0,0,0-1.33,3.87,51.2,51.2,0,0,0,2.71,6A44.11,44.11,0,0,0,62.93,45a1,1,0,0,0,.76.34h16a1,1,0,0,0,.92-1.25c-.6-1.78-2-4.93-5-6a17.77,17.77,0,0,0-4.87-.5l-1.18-2.83Z"/><path class="cls-14" d="M74.23,18.07,63.09,24.63a16.4,16.4,0,0,0,1.65,6,8.52,8.52,0,0,0,4.75,4.09l11.56-5.54Z"/><path class="cls-13" d="M157.32,33.45s.09,2.81,0,6c0,.94,0,2.76,0,3.38,0,2.38,1.48,2.31,2.23,2.36,1.63.11,29.2.58,29.3-.54s-.09-6.64-7-8.11c-4.56-1-7.25-.55-9.65-2.07a7.85,7.85,0,0,1-1.78-1.62Z"/><path class="cls-14" d="M156.64,19.82l.69,13.47a23.21,23.21,0,0,0,7.13,1.14,12.59,12.59,0,0,0,5.9-1.61l-.56-13Z"/><path class="cls-15" d="M86.46-30.59a35.39,35.39,0,0,0,1.09,14.94,18.48,18.48,0,0,0,5.13,8.29L90.24,6,73.43,17.43a21,21,0,0,0,2,7.67A12.83,12.83,0,0,0,81,30.66l22.12-10.33c3.54-1.65,8.24-4.37,11-8.71s5.66-13.53,5.66-13.53L151.4,5.85,155,22.58a23.79,23.79,0,0,0,8.53.54,15.94,15.94,0,0,0,7.77-2.9L170-3.75A16.24,16.24,0,0,0,159-16.94l-23.82-7.94Z"/><path d="M122.93-13.89c-2.47,6.78-4.44,13.76-7.17,20.44-.41,1,1.22,1.44,1.62.45,2.73-6.68,4.7-13.66,7.17-20.44.37-1-1.25-1.46-1.62-.45"/><path d="M119.91-1.1A69.06,69.06,0,0,0,127.12,1a.84.84,0,0,0,.45-1.62,69.06,69.06,0,0,1-7.21-2.08.84.84,0,0,0-1,.58.87.87,0,0,0,.59,1"/><path class="cls-16" d="M150.3,5.24c.34-1.41.68-2.81,1-4.22a.64.64,0,0,0-.44-.78.65.65,0,0,0-.78.44c-.34,1.41-.69,2.82-1,4.22a.64.64,0,0,0,.44.78.65.65,0,0,0,.78-.44"/><path class="cls-16" d="M152.11,6.36c.84-.8,1.75-1.52,2.63-2.27a22.76,22.76,0,0,0,2.55-2.35.64.64,0,0,0,0-.89.63.63,0,0,0-.89,0,22.76,22.76,0,0,1-2.55,2.35c-.88.75-1.79,1.47-2.63,2.27-.59.56.3,1.45.89.89"/><path class="cls-16" d="M90.32,6.84l3.52,1.95a.63.63,0,1,0,.64-1.09L91,5.75A.63.63,0,0,0,90.1,6a.64.64,0,0,0,.22.86"/><path class="cls-17" d="M171.34,34.36c-.2.28-.41.55-.61.82l.15-.2c-.38.48-.76,1-1.16,1.41a1,1,0,0,0-.28.67,1,1,0,0,0,.28.68,1,1,0,0,0,.67.27,1,1,0,0,0,.67-.27c.68-.78,1.31-1.59,1.91-2.42a.94.94,0,0,0,.1-.73,1,1,0,0,0-.44-.57,1,1,0,0,0-.73-.1l-.22.1a.86.86,0,0,0-.34.34"/><path class="cls-17" d="M174.79,34.94c-.34.74-.71,1.46-1.11,2.17a.94.94,0,0,0-.1.73,1,1,0,0,0,1.74.23c.4-.71.77-1.43,1.11-2.17a1,1,0,0,0,.1-.73,1,1,0,0,0-.44-.57,1,1,0,0,0-.73-.09.92.92,0,0,0-.57.43"/><path class="cls-17" d="M67.17,37a22.42,22.42,0,0,0,2.44-.64.83.83,0,0,0,.58-1,.85.85,0,0,0-1-.59,22.86,22.86,0,0,1-2.43.64.83.83,0,0,0-.5.38A.84.84,0,0,0,67.17,37"/><path class="cls-17" d="M68.17,39.53a18.09,18.09,0,0,0,2.65-1.11.84.84,0,0,0,.3-1.15A.86.86,0,0,0,70,37c-.38.19-.77.37-1.16.54l.2-.08q-.63.27-1.29.48a.89.89,0,0,0-.5.39.85.85,0,0,0-.09.64.86.86,0,0,0,1,.59"/></g></g></g></g><path id="Fill-168" class="cls-18" d="M93.49,124.24h-2.9a1.84,1.84,0,0,0-1.26.52,1.81,1.81,0,0,0-.52,1.25,1.84,1.84,0,0,0,.52,1.26,1.9,1.9,0,0,0,1.26.51h2.9A1.76,1.76,0,0,0,95.26,126a1.77,1.77,0,0,0-.52-1.25,1.81,1.81,0,0,0-1.25-.52"/><path id="Fill-170" class="cls-18" d="M82.12,124.24h-2.9a1.83,1.83,0,0,0-1.25.52,1.77,1.77,0,0,0-.52,1.25,1.8,1.8,0,0,0,.52,1.26,1.85,1.85,0,0,0,1.25.51h2.9A1.76,1.76,0,0,0,83.9,126a1.81,1.81,0,0,0-.52-1.25,1.86,1.86,0,0,0-1.26-.52"/><path id="Fill-172" class="cls-18" d="M84.52,118.32v2.89A1.76,1.76,0,0,0,86.29,123a1.77,1.77,0,0,0,1.25-.52,1.83,1.83,0,0,0,.52-1.25v-2.89a1.78,1.78,0,0,0-1.77-1.77,1.81,1.81,0,0,0-1.26.52,1.85,1.85,0,0,0-.51,1.25"/><path id="Fill-174" class="cls-18" d="M84.52,130.16v2.89a1.76,1.76,0,0,0,1.77,1.77,1.77,1.77,0,0,0,1.25-.52,1.81,1.81,0,0,0,.52-1.25v-2.89a1.78,1.78,0,0,0-1.77-1.77,1.81,1.81,0,0,0-1.26.52,1.87,1.87,0,0,0-.51,1.25"/><path id="Fill-168-2" data-name="Fill-168" class="cls-18" d="M302.49,53.24h-2.9a1.84,1.84,0,0,0-1.26.52,1.81,1.81,0,0,0-.52,1.25,1.84,1.84,0,0,0,.52,1.26,1.9,1.9,0,0,0,1.26.51h2.9A1.76,1.76,0,0,0,304.26,55a1.77,1.77,0,0,0-.52-1.25,1.81,1.81,0,0,0-1.25-.52"/><path id="Fill-170-2" data-name="Fill-170" class="cls-18" d="M291.12,53.24h-2.9a1.83,1.83,0,0,0-1.25.52,1.77,1.77,0,0,0-.52,1.25,1.8,1.8,0,0,0,.52,1.26,1.85,1.85,0,0,0,1.25.51h2.9A1.76,1.76,0,0,0,292.9,55a1.81,1.81,0,0,0-.52-1.25,1.86,1.86,0,0,0-1.26-.52"/><path id="Fill-172-2" data-name="Fill-172" class="cls-18" d="M293.52,47.32v2.89A1.76,1.76,0,0,0,295.29,52a1.77,1.77,0,0,0,1.25-.52,1.83,1.83,0,0,0,.52-1.25V47.32a1.78,1.78,0,0,0-1.77-1.77,1.81,1.81,0,0,0-1.26.52,1.85,1.85,0,0,0-.51,1.25"/><path id="Fill-174-2" data-name="Fill-174" class="cls-18" d="M293.52,59.16v2.89a1.76,1.76,0,0,0,1.77,1.77,1.77,1.77,0,0,0,1.25-.52,1.81,1.81,0,0,0,.52-1.25V59.16a1.78,1.78,0,0,0-1.77-1.77,1.81,1.81,0,0,0-1.26.52,1.87,1.87,0,0,0-.51,1.25"/><path id="Fill-168-3" data-name="Fill-168" class="cls-18" d="M360.49,213.24h-2.9a1.84,1.84,0,0,0-1.26.52,1.81,1.81,0,0,0-.52,1.25,1.84,1.84,0,0,0,.52,1.26,1.9,1.9,0,0,0,1.26.51h2.9a1.76,1.76,0,0,0,1.77-1.77,1.77,1.77,0,0,0-.52-1.25,1.81,1.81,0,0,0-1.25-.52"/><path id="Fill-170-3" data-name="Fill-170" class="cls-18" d="M349.12,213.24h-2.9a1.83,1.83,0,0,0-1.25.52,1.77,1.77,0,0,0-.52,1.25,1.8,1.8,0,0,0,.52,1.26,1.85,1.85,0,0,0,1.25.51h2.9A1.76,1.76,0,0,0,350.9,215a1.81,1.81,0,0,0-.52-1.25,1.86,1.86,0,0,0-1.26-.52"/><path id="Fill-172-3" data-name="Fill-172" class="cls-18" d="M351.52,207.32v2.89a1.76,1.76,0,0,0,1.77,1.77,1.77,1.77,0,0,0,1.25-.52,1.83,1.83,0,0,0,.52-1.25v-2.89a1.78,1.78,0,0,0-1.77-1.77,1.81,1.81,0,0,0-1.26.52,1.85,1.85,0,0,0-.51,1.25"/><path id="Fill-174-3" data-name="Fill-174" class="cls-18" d="M351.52,219.16v2.89a1.76,1.76,0,0,0,1.77,1.77,1.77,1.77,0,0,0,1.25-.52,1.81,1.81,0,0,0,.52-1.25v-2.89a1.78,1.78,0,0,0-1.77-1.77,1.81,1.81,0,0,0-1.26.52,1.87,1.87,0,0,0-.51,1.25"/><path id="Fill-168-4" data-name="Fill-168" class="cls-18" d="M186.49,196.24h-2.9a1.84,1.84,0,0,0-1.26.52,1.81,1.81,0,0,0-.52,1.25,1.84,1.84,0,0,0,.52,1.26,1.9,1.9,0,0,0,1.26.51h2.9a1.76,1.76,0,0,0,1.77-1.77,1.77,1.77,0,0,0-.52-1.25,1.81,1.81,0,0,0-1.25-.52"/><path id="Fill-170-4" data-name="Fill-170" class="cls-18" d="M175.12,196.24h-2.9a1.83,1.83,0,0,0-1.25.52,1.77,1.77,0,0,0-.52,1.25,1.8,1.8,0,0,0,.52,1.26,1.85,1.85,0,0,0,1.25.51h2.9A1.76,1.76,0,0,0,176.9,198a1.81,1.81,0,0,0-.52-1.25,1.86,1.86,0,0,0-1.26-.52"/><path id="Fill-172-4" data-name="Fill-172" class="cls-18" d="M177.52,190.32v2.89a1.76,1.76,0,0,0,1.77,1.77,1.77,1.77,0,0,0,1.25-.52,1.83,1.83,0,0,0,.52-1.25v-2.89a1.78,1.78,0,0,0-1.77-1.77,1.81,1.81,0,0,0-1.26.52,1.85,1.85,0,0,0-.51,1.25"/><path id="Fill-174-4" data-name="Fill-174" class="cls-18" d="M177.52,202.16v2.89a1.76,1.76,0,0,0,1.77,1.77,1.77,1.77,0,0,0,1.25-.52,1.81,1.81,0,0,0,.52-1.25v-2.89a1.78,1.78,0,0,0-1.77-1.77,1.81,1.81,0,0,0-1.26.52,1.87,1.87,0,0,0-.51,1.25"/><path id="Fill-168-5" data-name="Fill-168" class="cls-18" d="M65.49,228.24h-2.9a1.84,1.84,0,0,0-1.26.52,1.81,1.81,0,0,0-.52,1.25,1.84,1.84,0,0,0,.52,1.26,1.9,1.9,0,0,0,1.26.51h2.9A1.76,1.76,0,0,0,67.26,230a1.77,1.77,0,0,0-.52-1.25,1.81,1.81,0,0,0-1.25-.52"/><path id="Fill-170-5" data-name="Fill-170" class="cls-18" d="M54.12,228.24h-2.9a1.83,1.83,0,0,0-1.25.52,1.77,1.77,0,0,0-.52,1.25,1.8,1.8,0,0,0,.52,1.26,1.85,1.85,0,0,0,1.25.51h2.9A1.76,1.76,0,0,0,55.9,230a1.81,1.81,0,0,0-.52-1.25,1.86,1.86,0,0,0-1.26-.52"/><path id="Fill-172-5" data-name="Fill-172" class="cls-18" d="M56.52,222.32v2.89A1.76,1.76,0,0,0,58.29,227a1.77,1.77,0,0,0,1.25-.52,1.83,1.83,0,0,0,.52-1.25v-2.89a1.78,1.78,0,0,0-1.77-1.77,1.81,1.81,0,0,0-1.26.52,1.85,1.85,0,0,0-.51,1.25"/><path id="Fill-174-5" data-name="Fill-174" class="cls-18" d="M56.52,234.16v2.89a1.76,1.76,0,0,0,1.77,1.77,1.77,1.77,0,0,0,1.25-.52,1.81,1.81,0,0,0,.52-1.25v-2.89a1.78,1.78,0,0,0-1.77-1.77,1.81,1.81,0,0,0-1.26.52,1.87,1.87,0,0,0-.51,1.25"/></svg>