<svg id="Layer_1" data-name="Layer 1" xmlns="http://www.w3.org/2000/svg" viewBox="0 0 400 250"><defs><style>.cls-1{fill:#00aa13;}.cls-1,.cls-10,.cls-11,.cls-12,.cls-13,.cls-14,.cls-15,.cls-16,.cls-17,.cls-2,.cls-3,.cls-4,.cls-5,.cls-6,.cls-7,.cls-8,.cls-9{fill-rule:evenodd;}.cls-2{fill:#007d00;}.cls-3{fill:#a2a3a3;}.cls-5{fill:#ffa4ad;}.cls-6{fill:#fff;}.cls-7{fill:#fd405a;}.cls-8{fill:#f6a7ad;}.cls-9{fill:#006880;}.cls-10{fill:#b1e5f1;}.cls-11{fill:#008bad;}.cls-12{fill:#00ad00;}.cls-13{fill:#ff8c98;}.cls-14{fill:#20552a;}.cls-15{fill:#116a36;}.cls-16{fill:#47b649;opacity:0.61;}.cls-17{fill:#f8a9af;}.cls-18{fill:#f06400;}.cls-19{fill:#ffb31c;}</style></defs><title>Website Illustrations</title><g id="driver_spot_hero_spot_hero_one_click_payment" data-name="driver/spot_hero/spot_hero_one_click_payment"><path id="Fill-122" class="cls-1" d="M299.53,251.64c9.37.81,21.18,4.8,30.53,2.54s10.94-16.24,11.31-24.09a228.77,228.77,0,0,0,.15-23.13c-.57-10.92-2.31-21.73-4.06-32.53-1.38-8.55-2.77-17.15-5.53-25.37-2.64-7.88-6.85-17.3-13.88-22.08a115.49,115.49,0,0,0-21.65-11.24c-4.8-1.92-10.27-4-15.55-3.66l-71.62,4.68L175.52,134.9s-11.81,19.31-13.23,38.61C161.22,188,161,212,161.5,223.22l1,.2.8,28.22c25.11.13,51.46-.88,76.5,0,18.81.66,22.53,1.12,48.45,0"/><path id="Fill-124" class="cls-2" d="M210.74,143.74a34.56,34.56,0,0,0,14.51,4.69,1.44,1.44,0,0,0,1.43-1.44,1.46,1.46,0,0,0-1.43-1.43,31.12,31.12,0,0,1-13.07-4.29,1.43,1.43,0,0,0-1.44,2.47"/><path id="Fill-126" class="cls-2" d="M211.13,212.37c-.59-7.59.87-15.58,2.09-23a172.13,172.13,0,0,1,7.17-29.64c1.36-3.83,2.92-8,5.58-11.11,1.17-1.4-.84-3.44-2-2a34.85,34.85,0,0,0-5.33,9.74,116.76,116.76,0,0,0-4.43,14.2,216.8,216.8,0,0,0-5.42,30.56,63.71,63.71,0,0,0-.49,11.3c.14,1.82,3,1.84,2.86,0"/><path id="Fill-128" class="cls-2" d="M225.83,133.07a27.3,27.3,0,0,0-2.31,14.69,1.48,1.48,0,0,0,1.43,1.43,1.44,1.44,0,0,0,1.43-1.43,24.7,24.7,0,0,1,1.92-13.25,1.46,1.46,0,0,0-.52-1.95,1.43,1.43,0,0,0-1.95.51"/><path id="Fill-130" class="cls-2" d="M224.63,148.68c5.85-.59,11.69-1.48,17-4.07a45.16,45.16,0,0,0,12.83-9.91c1.26-1.34-.76-3.37-2-2a43.1,43.1,0,0,1-11.82,9.24c-5,2.5-10.53,3.34-16,3.9-1.82.18-1.83,3.05,0,2.86"/><path id="Fill-132" class="cls-2" d="M207.72,246.39a107.64,107.64,0,0,1,.12-19.5c.45-4.59,1-9.62,3-13.86.71-1.53-1.56-2.87-2.28-1.33-2,4.37-2.72,9.33-3.24,14.07a107.62,107.62,0,0,0-.25,20.62c.14,1.68,2.79,1.69,2.65,0"/><path id="Fill-134" class="cls-3" d="M196.12,125.53s-26,29-34.34,66.12a167.47,167.47,0,0,1,.51-18.14c4.09-35,24.7-57.77,24.7-57.77l3.33,1.51c.43,4.5,5.8,8.28,5.8,8.28"/><path id="Fill-136" class="cls-4" d="M187.33,113.26l-.64,2.82A113,113,0,0,0,164.77,160a70.08,70.08,0,0,0-2.48,13.52,137.94,137.94,0,0,0-.52,15.45c-.06,8.45.14,17.47.38,24.84l-3,32.59c-16.86,0-47.36-23-47.36-23,2.58-18.15,13-46.88,19.56-64.75,15.43-41.94,56-45.36,56-45.36"/><path id="Fill-138" class="cls-4" d="M318.69,127.68c-6.9.74-13.46,6.63-17,19.31-5.93,21.18,7.47,30.43,9.12,46,0,0,9.55,30.21,12.39,41.69.21,0,6.21,19,6.77,19.16,20.28-5.63,12.39-55.22,10.14-73.25-3.38-20.28-11.26-48.3-21.41-53"/><path id="Fill-140" class="cls-1" d="M164.77,160a109.27,109.27,0,0,0-2.49,13.52A70.86,70.86,0,0,1,164.77,160"/><path id="Fill-142" class="cls-3" d="M162.29,173.51c-.33,4.46-.48,9.83-.52,15.45a137.86,137.86,0,0,1,.52-15.45"/><path id="Fill-144" class="cls-5" d="M260.85,60s1.94-33.1-9.6-35.26C243,23.17,238.25,29,230,29.58c-5.55.39-7.7-5.24-15.86-5C200.18,24.84,195.5,45,195.5,45S188,67.29,187.26,85.3c-.64,15.2,0,43.67,23.16,39.79,0,0,.33,8.07,7.25,10,22.14,6.19,37.52-10.1,39.93-26.83,0,0,2.32-39.25,3.25-48.29"/><path id="Fill-146" class="cls-4" d="M214.25,84.63a4.3,4.3,0,0,0,4.4,3.26,4.35,4.35,0,0,0,3.91-4,1.21,1.21,0,0,0-1.19-1.19,1.22,1.22,0,0,0-1.18,1.19c0,.28.07-.27,0,0a2,2,0,0,1-.05.24c0,.06,0,.22-.08.24s.1-.21,0,0-.15.27-.23.4.14-.15,0,0a1.54,1.54,0,0,1-.17.19c0,.06-.12.11-.18.17s.19-.12,0,0a4,4,0,0,1-.39.23c-.18.09-.05.08,0,0s-.17.07-.23.08l-.24.06c-.27.06.25,0,0,0a3.69,3.69,0,0,1-.47,0h.11l-.13,0-.2-.06a.53.53,0,0,1-.24-.08l.09,0-.12-.06a1.36,1.36,0,0,1-.43-.27c.08.1.13.11,0,0a1.62,1.62,0,0,1-.19-.18l-.14-.15c-.18-.19.1.17,0,0l-.13-.21a1.67,1.67,0,0,0-.12-.23l.06.13-.06-.16-.06-.25a1.18,1.18,0,0,0-2.28.63"/><path id="Fill-148" class="cls-4" d="M208.3,82.06a4.18,4.18,0,0,0,1.28,4.35,4,4,0,0,0,2.4,1,4.32,4.32,0,0,0,2.29-.6,4.13,4.13,0,0,0,1.79-2.16,1.19,1.19,0,0,0-.82-1.46,1.23,1.23,0,0,0-1.46.83c0,.12,0,.09,0-.08a.83.83,0,0,1-.07.13c0,.06-.07.12-.1.19l-.09.11.05-.06-.14.16-.22.19c-.18.17.23-.14,0,0l-.44.26.08,0-.13,0-.21.07a.88.88,0,0,0-.29.06c.08-.06.27,0,0,0a4.21,4.21,0,0,0-.5,0h.09l-.1,0-.25-.07c-.23-.06.21.12,0,0l-.25-.14s-.14-.12-.18-.12c.14.11.16.13.07,0l-.11-.1-.15-.16-.09-.11c.1.15.12.17.05.07s-.18-.29-.26-.44.09.25,0,0l-.09-.27a1.6,1.6,0,0,1-.05-.21l0-.14c0,.19,0,.22,0,.09s0-.31,0-.47,0,0,0,.14l0-.14a2.29,2.29,0,0,1,.08-.28,1.18,1.18,0,1,0-2.28-.63"/><path id="Fill-150" class="cls-4" d="M214.67,63q-3.58,9.39-6.37,19.06a1.18,1.18,0,0,0,2.28.63Q213.36,73,217,63.62c.54-1.42-1.74-2-2.28-.62"/><path id="Fill-152" class="cls-4" d="M232.28,52c-.25.36.61-.54.34-.33a8.39,8.39,0,0,1,1.11-.67,9.13,9.13,0,0,1,2-.75c.42-.12.84-.21,1.27-.29a1.88,1.88,0,0,1,.55-.07,16.87,16.87,0,0,1,2.66,0,10.8,10.8,0,0,1,7.21,3.86,2.89,2.89,0,0,0,4.06,0,2.93,2.93,0,0,0,0-4.06,16.67,16.67,0,0,0-11.6-5.57c-4.44-.31-9.9,1.16-12.55,5a2.89,2.89,0,0,0,1,3.93,2.93,2.93,0,0,0,3.92-1"/><path id="Fill-154" class="cls-4" d="M214.14,46.34a12.57,12.57,0,0,0-10-3.31c-3.55.45-7.29,2.22-9,5.52A2.87,2.87,0,1,0,200,51.44c.07-.12.42-.55.41-.67-.23.29-.28.35-.14.19l.13-.16.29-.3.3-.28c.06,0,.43-.34.13-.11s.22-.15.23-.16l.38-.23a7.44,7.44,0,0,1,.79-.42c.31-.16.09-.11-.07,0a2.22,2.22,0,0,1,.53-.19c.29-.1.58-.19.87-.26l.45-.1.22,0c.22,0,.14,0-.21,0,.09-.11.8-.06.94-.06.33,0,.66,0,1,0,.56,0-.27-.07.07,0l.47.09c.3.06.6.14.9.23l.55.19c.39.13.06-.06-.06,0,.16,0,.64.32.78.4s.55.35.82.53-.35-.33-.08,0c.12.12.26.23.38.34a2.87,2.87,0,1,0,4.06-4.06"/><path id="Fill-156" class="cls-4" d="M187.81,51a158.32,158.32,0,0,0-4.41,28.62c-.28,4.76-.33,9.54-.19,14.3a92.42,92.42,0,0,0,1.12,14.3,25.82,25.82,0,0,0,9,15.39c5.66,4.5,12.76,4.9,19.71,4.16a73.87,73.87,0,0,0,27.52-8.5c3.24-1.77.35-6.73-2.9-5a68.26,68.26,0,0,1-22.32,7.43c-5.93.91-12.81,1.46-17.93-2.18-.43-.3-.11-.07,0,0l-.53-.44c-.35-.29-.69-.59-1-.9a19,19,0,0,1-2.24-2.5,21.18,21.18,0,0,1-3.57-8c-1-4.14-1-8.6-1.11-12.83s-.15-8.68,0-13a149.69,149.69,0,0,1,4.33-29.4c.89-3.59-4.65-5.12-5.54-1.53"/><path id="Fill-158" class="cls-4" d="M283.18,37.31c-7.32-28-29-32.48-50-29.43-13.47,2-23.82-4.9-35,9.17-8.47,10.65-8.77,11.52-18.66,52.5-9.69,40.14,8.11,48.71,14.56,50.48-7.14-8.37-7.3-24.53-6.87-34.73C188,67.29,195.5,45,195.5,45s4.68-20.18,18.61-20.49c8.16-.19,10.31,5.44,15.86,5.06,8.28-.58,13-6.42,21.28-4.88,11.54,2.16,7.77,38.6,7.77,38.6-.93,8.93-5.55,37.44-2.66,50.37,2.66,11.07,17.91,13.4,25.14,4.61,5.95-7.22,13.86-3,13.86-3s-7.92-61.73-12.18-78"/><path id="Fill-160" class="cls-6" d="M200.29,66.06s8.22.8,10.59-1.07-.19-6.41-4.26-7.24-10.63-.17-12.44,2-2.56,6.6,6.11,6.34"/><path id="Fill-162" class="cls-6" d="M233.85,65.8s8.22.8,10.59-1.07-.2-6.41-4.27-7.24-10.62-.17-12.43,2-2.57,6.6,6.11,6.34"/><path id="Fill-164" class="cls-4" d="M239.05,64.71c3.72,0,3.73-5.78,0-5.78s-3.72,5.78,0,5.78"/><path id="Fill-166" class="cls-4" d="M204.82,65.35c3.72,0,3.73-5.78,0-5.78s-3.72,5.78,0,5.78"/><path id="Fill-168" class="cls-6" d="M165.68,19.29h-2.91a1.83,1.83,0,0,0-1.25.52,1.77,1.77,0,0,0-.52,1.25,1.8,1.8,0,0,0,.52,1.26,1.87,1.87,0,0,0,1.25.51h2.91a1.76,1.76,0,0,0,1.77-1.77,1.77,1.77,0,0,0-.52-1.25,1.81,1.81,0,0,0-1.25-.52"/><path id="Fill-170" class="cls-6" d="M154.31,19.29h-2.9a1.84,1.84,0,0,0-1.26.52,1.81,1.81,0,0,0-.52,1.25,1.76,1.76,0,0,0,1.78,1.77h2.9a1.76,1.76,0,0,0,1.77-1.77,1.77,1.77,0,0,0-.52-1.25,1.81,1.81,0,0,0-1.25-.52"/><path id="Fill-172" class="cls-6" d="M156.7,13.37v2.89a1.83,1.83,0,0,0,.52,1.25,1.81,1.81,0,0,0,1.26.52,1.77,1.77,0,0,0,1.25-.52,1.83,1.83,0,0,0,.52-1.25V13.37a1.83,1.83,0,0,0-.52-1.25,1.77,1.77,0,0,0-2.51,0,1.86,1.86,0,0,0-.52,1.25"/><path id="Fill-174" class="cls-6" d="M156.7,25.21V28.1a1.78,1.78,0,0,0,1.78,1.77,1.77,1.77,0,0,0,1.25-.52,1.81,1.81,0,0,0,.52-1.25V25.21a1.83,1.83,0,0,0-.52-1.25,1.77,1.77,0,0,0-2.51,0,1.88,1.88,0,0,0-.52,1.25"/><path id="Fill-176" class="cls-6" d="M164.22,131.61h-4.56a1.79,1.79,0,0,0-1.78,1.77,1.82,1.82,0,0,0,1.78,1.78h4.56a1.78,1.78,0,0,0,0-3.55"/><path id="Fill-178" class="cls-6" d="M148.21,131.61h-4.56a1.78,1.78,0,0,0-1.77,1.77,1.81,1.81,0,0,0,1.77,1.78h4.56a1.78,1.78,0,0,0,0-3.55"/><path id="Fill-180" class="cls-6" d="M152.16,123.15v4.54a1.78,1.78,0,1,0,3.55,0v-4.54a1.78,1.78,0,0,0-3.55,0"/><path id="Fill-182" class="cls-6" d="M152.16,139.07v4.54a1.78,1.78,0,1,0,3.55,0v-4.54a1.78,1.78,0,0,0-3.55,0"/><path id="Fill-184" class="cls-1" d="M164.77,160a109.27,109.27,0,0,0-2.49,13.52A70.86,70.86,0,0,1,164.77,160"/><path id="Fill-186" class="cls-3" d="M162.29,173.51c-.33,4.45-.48,9.81-.52,15.42a137.3,137.3,0,0,1,.52-15.42"/><path id="Fill-188" class="cls-3" d="M320.94,128.81c-6.89.74-15.71,5.5-19.26,18.18-5.93,21.18-4.34,39.16-2.69,54.79a113.46,113.46,0,0,1-7.45-16.19c-2.76-7.79-5.41-17-4.3-34.36,1.12-17.51,10.17-27.61,16.4-32.23a59.18,59.18,0,0,1,15,8.42Z"/><path id="Fill-190" class="cls-4" d="M238.5,104.61a17.57,17.57,0,0,1-3.38,3.55,6.19,6.19,0,0,1-4.28,1.3,1.26,1.26,0,0,0-1.25,1.25,1.28,1.28,0,0,0,1.25,1.25c4,.38,7.15-2.66,9.43-5.59a1.28,1.28,0,0,0,0-1.76,1.26,1.26,0,0,0-1.77,0"/><path id="Fill-192" class="cls-4" d="M237.58,83.94a8.5,8.5,0,0,0,8.24,7,1.25,1.25,0,0,0,0-2.5q-.31,0-.63,0h-.07l-.29,0a10.09,10.09,0,0,1-1.16-.33c-.21-.07.05,0-.07,0a2.1,2.1,0,0,1-.26-.13,6,6,0,0,1-.56-.3,4,4,0,0,1-.48-.32c-.07,0-.2-.16-.07,0A2.75,2.75,0,0,1,242,87a8.39,8.39,0,0,1-.77-.81c.16.18-.07-.09-.08-.11l-.16-.23c-.1-.16-.2-.32-.29-.49s-.19-.36-.28-.55c.08.16,0,0,0-.07l-.09-.26a7.34,7.34,0,0,1-.29-1.21,1.26,1.26,0,0,0-1.54-.87,1.29,1.29,0,0,0-.87,1.54"/><path id="Fill-194" class="cls-4" d="M240,87a12.75,12.75,0,0,1-5.32,3.79A56.41,56.41,0,0,1,213,95.27s1,11.12,8,13.3,19.36-4,22.14-19.43Z"/><path id="Fill-196" class="cls-7" d="M222,108.84c5.83,1,14.52-3,18.89-12.69A46.71,46.71,0,0,0,229,100.79a17.2,17.2,0,0,0-7,8"/><path id="Fill-198" class="cls-6" d="M216.62,95.13c.75,4.86,6.45,6.82,13.8,2.25C236,93.87,237.51,90.53,238,89a18,18,0,0,1-3.3,1.83,55.18,55.18,0,0,1-18,4.31"/><path id="Fill-200" class="cls-4" d="M212.23,95.74c9.56,2.4,18.66-2,26.88-6.46,1.42-.77.16-2.92-1.26-2.16-7.59,4.08-16.1,8.44-25,6.21a1.25,1.25,0,0,0-.66,2.41"/><path id="Fill-202" class="cls-6" d="M90.63,171.74H86.07a1.79,1.79,0,0,0-1.77,1.77,1.81,1.81,0,0,0,1.77,1.78h4.56a1.78,1.78,0,1,0,0-3.55"/><path id="Fill-204" class="cls-6" d="M74.63,171.74H70.07a1.78,1.78,0,1,0,0,3.55h4.56a1.78,1.78,0,0,0,0-3.55"/><path id="Fill-206" class="cls-6" d="M78.58,163.28v4.54a1.77,1.77,0,1,0,3.54,0v-4.54a1.77,1.77,0,1,0-3.54,0"/><path id="Fill-208" class="cls-6" d="M78.58,179.2v4.54a1.77,1.77,0,1,0,3.54,0V179.2a1.77,1.77,0,0,0-3.54,0"/><path id="Fill-210" class="cls-8" d="M76.61,109.63A72.37,72.37,0,0,1,80.9,119s-2.88,5.4-1.42,8.89,3.29,3.47,3.29,3.47a7.6,7.6,0,0,0-.25,6c1.26,3.33,3.1,3.49,3.1,3.49s-1.76,2.19,1.94,7.81,4.68,6,16.55,6.85l2.27,9.84,31.72-5.81-2.73-10s4.88-6.34,4.09-18.27-1.81-20.52-.88-25.17-.24-8.94-4.55-9-7.36,7.17-7.51,12.65l-37,2.92s-4.71-8.27-9.06-11.44-6.55,3.43-3.83,8.42"/><path id="Fill-212" class="cls-9" d="M94.55,142.65c-3.13-13.44-10.36-45-13.2-62.32a6.64,6.64,0,0,1,5.71-7.66l32.78-4.29a6.65,6.65,0,0,1,7.47,5.73c1.67,12.85,5.43,41.62,8,60.34a6.65,6.65,0,0,1-5.23,7.41l-27.67,5.79a6.65,6.65,0,0,1-7.85-5"/><path id="Fill-214" class="cls-10" d="M86.64,82.85c2.06,10.34,8,39.77,11.1,52.88a4.06,4.06,0,0,0,4.8,3l24.07-5.17a4,4,0,0,0,3.17-4.5c-1.36-10.22-5.14-38.82-6.53-51A4,4,0,0,0,119,74.47c-6.59.4-20.15,1.44-29.29,3.64a4.06,4.06,0,0,0-3.06,4.74"/><path id="Fill-216" class="cls-11" d="M109.71,142.74q6.2-1.38,12.45-2.4a1.34,1.34,0,0,0,.93-1.64,1.36,1.36,0,0,0-1.64-.93q-6.26,1-12.45,2.39c-1.67.38-1,3,.71,2.58"/><path id="Fill-218" class="cls-4" d="M84.18,132a13.79,13.79,0,0,0,4.2-2.31,9.48,9.48,0,0,0,3.08-3.88c1.23-3.37-.64-7.1-2.31-10a1.18,1.18,0,0,0-2,1.19c1.3,2.23,3,5.22,2.15,7.9a7,7,0,0,1-2.38,2.94,10.65,10.65,0,0,1-3.33,1.84c-1.43.49-.81,2.77.63,2.28"/><path id="Fill-220" class="cls-4" d="M89.87,128a8.82,8.82,0,0,1,.88,8.22,4.59,4.59,0,0,1-2.07,1.55c-1.35.7-.16,2.74,1.19,2a6.71,6.71,0,0,0,2.88-2.33,9.21,9.21,0,0,0,1-4.11,9.78,9.78,0,0,0-2.19-7A1.18,1.18,0,0,0,89.87,128"/><path id="Fill-222" class="cls-4" d="M90.93,139a3.6,3.6,0,0,1,1.92,1,4.23,4.23,0,0,1,.46.82,5.34,5.34,0,0,1,.32,1.17,5.28,5.28,0,0,1-1,3.87,1.22,1.22,0,0,0,0,1.67,1.2,1.2,0,0,0,1.67,0,7.67,7.67,0,0,0,1.63-6.16,6.2,6.2,0,0,0-1.35-3,5.86,5.86,0,0,0-3-1.67,1.21,1.21,0,0,0-1.46.83,1.19,1.19,0,0,0,.83,1.45"/><path id="Fill-224" class="cls-4" d="M111.6,153.7c-2.5.32-5,.75-7.49,1.06a.83.83,0,0,0-.81.8.81.81,0,0,0,.81.8c2.5-.32,5-.74,7.49-1.06a.82.82,0,0,0,.8-.8.81.81,0,0,0-.8-.8"/><path id="Fill-226" class="cls-12" d="M161.81,244.4l-16.23-83.05a6.32,6.32,0,0,0-7.24-5.07L106,161.61a5.54,5.54,0,0,0-4.62,5.76s2.72,56.74,3.76,69.14c.26,3,3.18,14.49,4.34,18.18,17.25,0,34.52-.06,51.79,0,1.17-5.71-1.72-18.19-1.72-18.19"/><path id="Fill-228" class="cls-4" d="M106,161.61l32.33-5.33c3.4-.56,7.61,1.69,8.24,5.07l2,10.8-46.52,7.78-.68-12.56a5.54,5.54,0,0,1,4.62-5.76"/><path class="cls-1" d="M129.81,38.23A38.35,38.35,0,1,1,91.46,76.58a38.35,38.35,0,0,1,38.35-38.35"/><path id="Fill-234" class="cls-13" d="M299.54,136.2a11,11,0,0,0-4.72-8.66c-4.69-3.21-14.25-4.36-15.85-4.18-3.23.37-13.21,3-15.63,4.29-4.81,2.65-2.57,8,1.15,8.32s15.65-3.8,15.65-3.8l3.2,4.78Z"/><path id="Fill-236" class="cls-14" d="M259.36,104.42,286.93,110s-10.77,16.89-8.86,28.11,7.85,21-6.32,39.55L244.29,170s10.59-14.84,8.89-23.33-10.82-17.22,6.18-42.26"/><path id="Fill-238" class="cls-4" d="M286.65,109.72c-5.86,7.84-9.54,17.9-8.75,27.78.45,5.63,2.51,11,2.8,16.65a22.63,22.63,0,0,1-1,8.18c-1,3-2.91,5.37-4.28,8.13-.49,1,1,1.86,1.48.87,1.2-2.41,2.86-4.56,3.9-7.06a22.32,22.32,0,0,0,1.62-7.74c.21-5.48-1.55-10.68-2.43-16-1.76-10.6,1.79-21.42,8.14-29.92.66-.88-.83-1.74-1.49-.86"/><path id="Fill-236-2" data-name="Fill-236" class="cls-15" d="M247.07,109.18l28.1,1.35s-8.06,18.33-4.45,29.13,11,19.6-.2,40.05l-31-3.71s10.9-16,7.93-24.1-13.34-15.36-.36-42.72"/><path class="cls-16" d="M263.47,141.21c.77,6.17,1.13,11.26-5.63,11.26-3.11,0-3.38-4.5-5.64-11.26-2-5.91,1.13-11.27,5.64-11.27C261,129.94,262.34,132.19,263.47,141.21Z"/><path id="Fill-250" class="cls-17" d="M281.64,194.8a61.57,61.57,0,0,0-3.33-7.32c-2.48-4-11.94-8.48-7.34-25.41,0,0-6.41-.16-4.94-5l1.71-4.45s-6.05.29-4.95-5,13.16-15,17.35-15.51c11.1-1.27,18.46.71,20.19,2.68a12.22,12.22,0,0,1,3.3,5.43c1.69,5.66,5.06,4,2.36,15.94s-4.21,14-6.67,19.13c-1.53,3.2,3.26,10,3.26,10Z"/><path id="Fill-252" class="cls-4" d="M287.39,139.25l-4.19-.49a11,11,0,0,0-3.71,0c-2.29.52-4.07,2.31-5.72,3.87-3.51,3.34-6.79,7-8.83,11.49-.55,1.21,1.25,2.27,1.81,1a35.46,35.46,0,0,1,8-10.56c1.48-1.43,3.1-3.27,5.16-3.8a9.75,9.75,0,0,1,3.53.08l4,.46c1.33.15,1.32-1.94,0-2.09"/><path id="Fill-254" class="cls-4" d="M290.08,150.27a16.44,16.44,0,0,0-8.86-1.33c-2.78.36-6,1.41-7.88,3.6s-2.8,5.62-3.15,8.51.4,5.94,2.93,7.54,5.69.43,7.22-2c.72-1.14-1.09-2.19-1.8-1.05a3.13,3.13,0,0,1-5.61-.08c-1.57-2.69-.44-6.43.6-9.12,2.25-5.84,10.46-6.48,15.5-4.24,1.21.54,2.27-1.26,1.05-1.8"/><path id="Fill-256" class="cls-4" d="M279.69,161.51a17.63,17.63,0,0,0,1.59,16.9c.76,1.09,2.56.05,1.8-1a15.53,15.53,0,0,1-1.59-14.79c.53-1.22-1.27-2.29-1.8-1.06"/><path id="Fill-258" class="cls-4" d="M278.72,160.9a33.17,33.17,0,0,0,5.92,2.27,1.06,1.06,0,0,0,1.29-.73,1.07,1.07,0,0,0-.73-1.28c-1-.26-1.91-.57-2.84-.92l-.68-.27-.19-.08-.34-.14c-.46-.21-.92-.42-1.37-.65a1.06,1.06,0,0,0-1.43.38,1,1,0,0,0,.37,1.42"/><path id="Fill-260" class="cls-1" d="M314.78,201.31l-6.84-19.66a5.94,5.94,0,0,0-7.8-2.9L272,191.31a5.21,5.21,0,0,0-2.84,6.34l7.33,22.89,7,21.74a51.94,51.94,0,0,0,10.75-6.07c11.63-8.6,17.62-21.39,20.55-34.9"/><path id="Fill-262" class="cls-4" d="M272,191.31l28.19-12.56a5.94,5.94,0,0,1,7.8,2.9l4.4,9.36-39.61,17.92-3.62-11.28a5.2,5.2,0,0,1,2.84-6.34"/><path id="Fill-264" class="cls-4" d="M272,206.12c1.94,6.71,3.88,13.42,5.88,20.12.43,1.44,6.49,22,7,23.48s2.61.77,2.15-.59c-2.39-7.17-10-33.67-12.07-40.92-.25-.89-.51-1.79-.77-2.68a1.12,1.12,0,0,0-2.15.59"/><path id="Fill-264-2" data-name="Fill-264" class="cls-4" d="M310.29,192.6c1.93,6.71,3.87,13.42,5.87,20.11.44,1.45,11.49,38.06,12,39.49s2.6.77,2.14-.59c-2.39-7.17-15-49.67-17.06-56.92l-.78-2.68a1.11,1.11,0,0,0-2.14.59"/></g><rect class="cls-18" x="131.18" y="64.85" width="21.32" height="28.05"/><ellipse class="cls-19" cx="141.84" cy="64.85" rx="10.66" ry="4.49"/><ellipse class="cls-18" cx="141.84" cy="92.9" rx="10.66" ry="4.49"/><path class="cls-19" d="M132.3,73.61c2.95,1.75,6.67,2.23,10,2.22,3,0,6.56-.32,9-2.3,1-.81-.43-2.22-1.41-1.41a7.49,7.49,0,0,1-3.19,1.28,20.35,20.35,0,0,1-4.61.43c-3,0-6.22-.41-8.8-2a1,1,0,0,0-1,1.73Z"/><path class="cls-19" d="M132.3,79.22c2.95,1.75,6.67,2.23,10,2.22,3,0,6.56-.32,9-2.3,1-.81-.43-2.22-1.41-1.41A7.49,7.49,0,0,1,146.72,79a20.35,20.35,0,0,1-4.61.43c-3,0-6.22-.41-8.8-2a1,1,0,0,0-1,1.73Z"/><path class="cls-19" d="M132.3,84.83c2.95,1.75,6.67,2.23,10,2.22,3,0,6.56-.32,9-2.3,1-.81-.43-2.22-1.41-1.41a7.49,7.49,0,0,1-3.19,1.28,20.94,20.94,0,0,1-4.61.43c-3,0-6.22-.41-8.8-2a1,1,0,0,0-1,1.73Z"/><path class="cls-19" d="M132.3,90.44c2.95,1.75,6.67,2.23,10,2.22,3,0,6.56-.32,9-2.3,1-.81-.43-2.22-1.41-1.41a7.49,7.49,0,0,1-3.19,1.28,20.94,20.94,0,0,1-4.61.43c-3,0-6.22-.41-8.8-2a1,1,0,0,0-1,1.73Z"/><path class="cls-18" d="M134.69,63.24a2,2,0,0,0-.26,2.59,4.29,4.29,0,0,0,2.49,1.43,16.11,16.11,0,0,0,5.86.61,1,1,0,0,0,0-2,14.65,14.65,0,0,1-4.38-.29,10,10,0,0,1-1.92-.58l-.28-.17-.11-.11c0,.06-.05-.14,0,0s0-.16,0,0,0-.14,0,0h0c0-.06,0-.06,0,0s-.18.19,0,0a1,1,0,0,0-1.41-1.42Z"/><rect class="cls-18" x="106.5" y="80.56" width="21.32" height="12.34"/><ellipse class="cls-19" cx="117.16" cy="80.56" rx="10.66" ry="4.49"/><ellipse class="cls-18" cx="117.16" cy="92.9" rx="10.66" ry="4.49"/><path class="cls-19" d="M107.61,88.19c3,1.75,6.68,2.23,10,2.23,3,0,6.57-.33,9-2.3,1-.82-.43-2.23-1.42-1.42A7.46,7.46,0,0,1,122,88a21,21,0,0,1-4.61.43c-3,0-6.22-.42-8.81-2a1,1,0,0,0-1,1.72Z"/><path class="cls-19" d="M107.61,92.68c3,1.75,6.68,2.23,10,2.22,3,0,6.57-.32,9-2.29,1-.82-.43-2.23-1.42-1.42A7.59,7.59,0,0,1,122,92.48a21,21,0,0,1-4.61.42c-3,0-6.22-.41-8.81-2a1,1,0,0,0-1,1.73Z"/><path class="cls-18" d="M122.68,80.36c.08.07.09,0,0,0s0-.12,0,0c0-.13,0,0,0,0s0,0,0,0a.59.59,0,1,0-.07.08,1.36,1.36,0,0,1-.28.18,8.31,8.31,0,0,1-2,.6,14.65,14.65,0,0,1-4.38.3,1,1,0,0,0,0,2,16.58,16.58,0,0,0,5.86-.61,4.25,4.25,0,0,0,2.48-1.44,2,2,0,0,0-.25-2.58,1,1,0,0,0-1.41,0,1,1,0,0,0,0,1.41Z"/><path class="cls-18" d="M146.11,67.11a5.22,5.22,0,0,0,3.31-.76,1,1,0,0,0,.36-1.37,1,1,0,0,0-1.37-.36,4.75,4.75,0,0,1-.59.31l.23-.1a4.15,4.15,0,0,1-1.11.31l.27,0a4.06,4.06,0,0,1-1.1,0,1,1,0,0,0-.71.3.94.94,0,0,0-.29.7,1,1,0,0,0,.29.71l.2.16a1,1,0,0,0,.51.13Z"/><path id="Fill-33" class="cls-6" d="M113.09,67.11l.42-.43v9.93a2.84,2.84,0,0,0,5.68,0V66.68l.42.43a2.84,2.84,0,1,0,4-4l-5.27-5.27a2.83,2.83,0,0,0-2-.83h0a2.87,2.87,0,0,0-2,.83l-5.27,5.27a2.84,2.84,0,1,0,4,4"/><path id="Fill-39" class="cls-3" d="M113.3,64.54l-.77.71a.65.65,0,0,0-.17.27.71.71,0,0,0-.07.32.68.68,0,0,0,.07.32.55.55,0,0,0,.17.27l.17.13a.79.79,0,0,0,.42.12l.23,0a.75.75,0,0,0,.36-.22l.77-.71a.62.62,0,0,0,.17-.27.68.68,0,0,0,.07-.32.71.71,0,0,0-.07-.32.77.77,0,0,0-.17-.27,1.09,1.09,0,0,1-.17-.13.88.88,0,0,0-.42-.11l-.23,0a.82.82,0,0,0-.36.21"/></svg>