<svg id="Layer_1" data-name="Layer 1" xmlns="http://www.w3.org/2000/svg" viewBox="0 0 400 250"><defs><style>.cls-1,.cls-10,.cls-11,.cls-12,.cls-2,.cls-3,.cls-4,.cls-5,.cls-6,.cls-7,.cls-8,.cls-9{fill-rule:evenodd;}.cls-2{fill:#ff8c98;}.cls-3{fill:#545454;}.cls-4{fill:#f8a9af;}.cls-5{fill:#004758;}.cls-6{fill:#00ad00;}.cls-7{fill:#c0007a;}.cls-8{fill:#00d000;}.cls-9{fill:#e7e7e7;}.cls-10{fill:#f10097;}.cls-11{fill:#fff;}.cls-12{fill:#ff405a;}</style></defs><title>Website Illustrations</title><g id="business_spot_hero_spot_hero_introduction_go_food" data-name="business/spot_hero/spot_hero_introduction_go_food"><path id="Fill-6" class="cls-1" d="M104.4,60.85s-11-13.16-4.93-23.34,20.19-5.68,25.45-10.87S144.25,4.4,169.79,10.18s15.66,24.75,15.66,24.75-24,9-37.91,12.16S104.4,60.85,104.4,60.85"/><path id="Fill-8" class="cls-2" d="M117.52,117.81c.2-.6-4.09-9.88-8.68-9.28s-6.58,6.78-4.58,15.16,13.26-5.88,13.26-5.88"/><path id="Fill-10" class="cls-3" d="M59.85,185.83h-7.5s-1,14.74,2.6,12.78,4.9-12.78,4.9-12.78"/><path id="Fill-12" class="cls-4" d="M108.44,30.73a5,5,0,0,0,3-5.39c-.6-4-7.38-2-7.38-2,.4-3-3.4-3.39-3.4-3.39-7-.2-26.33,11-26.33,11a7.78,7.78,0,0,0,0-7.58c-3.59-1.8-9.37.6-14.56,8.78S42.61,71.62,42.61,71.63C25,95,5.91,126.56,10.23,157.1c3.48,24.59,30,32.33,51.69,35.21l1.64-48.47c-13,2.39-14.12-3.69-14.12-3.69-4-22,16.11-56.76,16.11-56.76C91.89,66,90.69,60.05,93.08,56.26s10.78-7.58,14.77-11.17,1-6.58,1-6.58l2.66-3.19c2.47-4.79-3.06-4.59-3.06-4.59"/><path id="Fill-14" class="cls-5" d="M246.29,119.7s-49.73,6.58-62.57,12.87,53.63,30.1,53.63,30.1Z"/><polygon id="Fill-16" class="cls-1" points="212.75 143.34 238.06 141.65 229.08 163.69 212.75 143.34"/><path id="Fill-18" class="cls-6" d="M136.51,117.33c-16.7-3.66-32.11,3.39-32.11,3.39C72.94,138.47,55,144,55,144c7.19,22,0,54.64,0,54.64,18,.32,36.7-4.3,36.7-4.3l-.19,56,2.32.06c32.71.69,74.45-1.08,107.17-.39l6.18.06-10.68-64.21,26.85,16.26L239,158s-48.47-32.43-55.3-36.68-30.51-.33-47.21-4"/><path id="Fill-20" class="cls-7" d="M199.21,179c-10.57-40.1-18.35-55.75-18.35-55.75l-6.8,2.74c6,10.22,9,41.84,9,41.84-9.37,11.57-53.46,17.39-53.46,17.39-14.56-37.86-32.91-62-32.91-62a14.91,14.91,0,0,0-7.19,3.2c7.58,11,18.36,30.47,19.75,60s-15,45.06-17.35,46.06c-1.27.53-2.84,14.24-3.12,17.82,1.72.06,3.39.1,5,.14,32.71.68,74.45-1.08,107.17-.39,5.91.07,11.55.12,17,.16-4.55-11.69-10.86-41.37-18.73-71.19"/><path id="Fill-22" class="cls-8" d="M213.77,141.15c-2.12,4.28-4.8,11-2.66,14.26,2.23,3.41,7.15-4.21,10-9.36l-7.36-4.9"/><path id="Fill-24" class="cls-8" d="M71.54,135.54s2,15.28,7.18,15.88,7.38-8.42,4-15.88-11.17,0-11.17,0"/><path id="Fill-26" class="cls-9" d="M233.27,154.15c-4.76,15.44-16.64,32.93-22.16,40.56l12.19,7.38L239,158l-5.75-3.85"/><path id="Fill-28" class="cls-9" d="M123.76,113s-17.12-1-11.93,18.7c4.07,15.49,18.85,25.75,25,29.46a3.29,3.29,0,0,0,4.46-1.06c2.49-3.92,7-11.43,8-16.43,0,0,9,8.8,13.93,12.1a2.66,2.66,0,0,0,3.74-.8c3.15-5,10.12-18.3,3-29.26C161,111.92,123.76,113,123.76,113"/><path id="Fill-30" class="cls-4" d="M103.77,114.49c-2.68-2-6.33-3.31-10.09-.58,0,0-.6,1.08-5.58.84s-5.79,6.55-7.58,7.15-6.19,3-7,5.27-3.19,1.51-3.59,5.9-.79,16.75,4.79,12.36c0,0,4.19,1.6,6-2.59,0,0,5.18,2.39,7.47-4.19,0,0,5.29,1.8,6.49-4.19s.32-7.8,3.12-9.6c1.3-.83,4-2.78,6-3.81a19.91,19.91,0,0,1,0-6.56"/><path id="Fill-32" class="cls-1" d="M145.05,49.68s-27.13,7.88-37,15.86c0,0-6.92,16.76-1.7,30.22s24.84,15.87,24.84,15.87,13-34.12,13.86-42.3,0-19.65,0-19.65"/><path id="Fill-34" class="cls-4" d="M182.1,37.17a17.73,17.73,0,0,1,15.48,17.15c.45,18,.78,52.69-3.16,63-5.38,14.14-30.72,13.14-30.72,13.14s1.2,5.79-9,9.38-29.17,2.35-34.91-12.68a174.42,174.42,0,0,1,4.58-30.61s-10.37,3.59-12.26-8.38,5.48-18.75,11.27-18.75,7.78,4,7.78,7,6.58,6.58,8-1.59.19-21.15,3.19-27.13,22.86-12.55,39.3-10.58l.44.06"/><path id="Fill-36" class="cls-1" d="M199.11,43s17.58,12.65,13.53,24.59a5.78,5.78,0,0,1-4.66,4c-2.43.29-5.93-.88-10.2-6.72,0,0-.56,5-6.35,2.69S182.69,52.07,184.05,45s15.06-2,15.06-2"/><path id="Fill-38" class="cls-10" d="M103.15,59.19s54.67-29.06,87.48-28.36c0,0,15.46,8.58,16.56,19.75,0,0-48.77-7.59-101.44,22.53,0,0-6.59-5.71-2.6-13.92"/><path id="Fill-40" class="cls-7" d="M207.19,50.58s-32-3.14-61.74,5.84A65.53,65.53,0,0,1,194.67,20c35.76-5.58,19.75,24.49,12.52,30.63"/><path id="Fill-42" class="cls-5" d="M332.29,249.39c.94-12.71,4.09-48.12,6.76-55.08,1.44-3.77,9-3.81,12.77-11.61,5.58-11.61,7.21-31.67,4-36.34-5.39-7.81-31.42-20.38-40.7-21.87s-66.13-3-66.13-3-10-1.77-15,14-8.78,29.79-13.16,44c-5.89,19.07,7.18,29.62,7.48,46.08.11,6.15-1,20.83-1.13,24.56,37.06.15,65.53-.4,105.08-.8"/><path id="Fill-44" class="cls-9" d="M257.51,129.34s-8.08,21.63,8.23,27.76,35.16-10.17,40.7-26.33-48.93-1.43-48.93-1.43"/><path id="Fill-46" class="cls-1" d="M250.18,118.8a23.39,23.39,0,0,1-21.1,9.88c-14.51-.9-14.06-18.26-12.41-26.64s19-48.47,35-58.19c0,0,12.56-6.44,20.19-1.05,0,0,26.19-12.93,44.74,11.86s34,53.37,21.24,73.12S303,140.05,299.7,130.92s-49.52-12.12-49.52-12.12"/><path id="Fill-48" class="cls-4" d="M256.72,56.23a21.53,21.53,0,0,0-15.8,17.06c-1.92,10.49-4.53,28.23-3.21,41.42,2,20,26.33,21.55,26.33,21.55s-1.59,5.18,2,8,14,4.78,22.14,0,16.76-13,16.76-13-.6-16.56,4.19-20.55c0,0,6.78,4,12.57-.59s4.78-10.78,2.79-17-9.78-6.19-13.77-1.4c0,0-4.58,8.78-8.17.2s0-23.54-1.2-27.53-6-8.18-25.34-9.57a60.68,60.68,0,0,0-19.29,1.36"/><path id="Fill-50" class="cls-1" d="M236.12,74.37h20.19l3.3-11.52,1.79,11.52h9.87l3.15-9.58,1.64,9.58H290l3-8.08,1,8.08,16.54.75s-.09-22.3-13.7-24.69-32.32-4.79-42.49,0-18.25,23.94-18.25,23.94"/><path id="Fill-52" class="cls-1" d="M309.13,110.72s-10.32.19-10.87,13.27c0,0,0,8.08,4.9,11.55l9.86-5.41Z"/><path id="Fill-54" class="cls-4" d="M336.66,178.75s-13-8.78-13.57-13.77-1-13.36,0-16.55-2.19-5-5.58-3.39-7,12.56-7.58,15.56c0,0-15.17-2.2-17.76-.8s-3,6.78-2,8.38-3.2,3-3.2,7.78-3.59,5.78-2.19,10.17-2,5.58,4,9.58,24.67,6,37.27,4.58l4.82,1.8Z"/><path id="Fill-56" class="cls-5" d="M322.7,200.58c-.55.6,18.57,12.46,19.7,13,13.24,6.91,34.57,16.85,48.53,8a13.61,13.61,0,0,0,4.64-4.41,14.53,14.53,0,0,0,1.63-5.57c1-7.75-.3-17.51-5.15-23.73s-9.71-12-14.75-17.82q-11.3-13.08-23.13-25.7l-11.66,24.93L347,180l-17.47-6.68S330.68,191.68,322.7,200.58Z"/><path id="Fill-58" class="cls-9" d="M55,198.61c3.49.06,7-.06,10.39-.3,8.83-25.73-1.26-50.76-4-56.66C57.17,143.29,55,144,55,144c7.19,22,0,54.64,0,54.64"/><path id="Fill-60" class="cls-10" d="M158.62,198.62s-17.43,3.07-16.65,15,25.62,5.68,36.4,3,21.14-12.25,15.16-17.86-24.72-4.12-34.91-.17"/><path id="Fill-62" class="cls-1" d="M143.39,124.75c8.38,5.68,18.65,8,28.7,7.8,7.65-.17,17-1.5,22.8-7,6-5.75,5.83-15.1,6.17-22.84q.48-11,.75-22.06c.17-7,.64-14.23-.05-21.22A2.51,2.51,0,0,0,199.31,57a2.47,2.47,0,0,0-2.45,2.45c.55,5.61.25,11.37.14,17-.14,7.42-.38,14.83-.67,22.23q-.15,3.8-.34,7.6c-.2,3.93-.38,8-1.85,11.72-2.8,7.08-11.75,8.92-18.54,9.5-10.37.89-21-1-29.74-6.94-2.62-1.77-5.07,2.47-2.47,4.23"/><path id="Fill-64" class="cls-1" d="M143.16,122.54l-.4,1.61L156.82,139s5.69-2.1,6.88-7.09Z"/><path id="Fill-66" class="cls-1" d="M233.91,122.35a27.43,27.43,0,0,0,16,14.64A31.78,31.78,0,0,0,262,138.38,48,48,0,0,0,276,136c2.95-1,1.68-5.77-1.3-4.72a42.58,42.58,0,0,1-12.15,2.21,29.26,29.26,0,0,1-10.9-1.05,22.69,22.69,0,0,1-13.5-12.53,2.47,2.47,0,0,0-3.35-.88,2.5,2.5,0,0,0-.88,3.35"/><path id="Fill-68" class="cls-1" d="M263.64,137.24s-.67,5,2.68,7.2l10.51-8.95.63-1.73Z"/><path id="Fill-70" class="cls-1" d="M120.49,77.61A4.53,4.53,0,0,1,122.15,79c-.06-.09,0-.06.06.07l.17.25c.1.16.21.33.3.51a3.94,3.94,0,0,1,.4.9,10.13,10.13,0,0,1,.14,5.27,1.43,1.43,0,0,0,1,1.7,1.4,1.4,0,0,0,1.7-1,13,13,0,0,0-.19-6.89,8.17,8.17,0,0,0-3.8-4.58,1.41,1.41,0,0,0-1.89.5,1.39,1.39,0,0,0,.49,1.88"/><path id="Fill-72" class="cls-1" d="M318,93.63a6.41,6.41,0,0,0-5.17,3.45,9.25,9.25,0,0,0-.38,7,1.38,1.38,0,1,0,2.66-.74,7.41,7.41,0,0,1-.41-2.53c0-.23,0-.45,0-.68,0-.05,0-.1,0-.15s0,.1,0,0l.06-.29c.05-.22.1-.44.17-.66,0,0,.13-.35.08-.24s.1-.2.1-.2a4.19,4.19,0,0,1,.28-.5c0-.07.09-.14.14-.21s.18-.22.05-.08a5.65,5.65,0,0,1,.82-.8c-.2.15,0,0,.08,0l.26-.17.22-.12s.34-.14.18-.08l.13,0,.3-.09.25,0c.39-.08-.27,0,.13,0a1.38,1.38,0,0,0,0-2.76"/><path id="Fill-74" class="cls-1" d="M65.14,38.28A137.23,137.23,0,0,1,93,23.13c1.63-.65.92-3.32-.73-2.66A139.66,139.66,0,0,0,63.75,35.9c-1.44,1-.06,3.4,1.39,2.38"/><path id="Fill-76" class="cls-1" d="M88.88,33.88q7-4.1,14.11-8.11a1.38,1.38,0,0,0-1.39-2.38q-7.08,4-14.11,8.11a1.38,1.38,0,0,0,1.39,2.38"/><path id="Fill-78" class="cls-1" d="M93.32,40.23a110.93,110.93,0,0,1,13.79-7.43,1.38,1.38,0,0,0-1.39-2.38,110.93,110.93,0,0,0-13.79,7.43c-1.5.94-.12,3.33,1.39,2.38"/><path id="Fill-80" class="cls-1" d="M99.17,44.73c2.55-1.31,5.14-2.59,7.74-3.82A1.38,1.38,0,0,0,107.4,39a1.41,1.41,0,0,0-1.88-.5q-3.92,1.84-7.75,3.83a1.38,1.38,0,0,0-.49,1.88,1.4,1.4,0,0,0,1.89.49"/><path id="Fill-82" class="cls-1" d="M88.12,121.66a46.46,46.46,0,0,0-2.05,13.55,1.38,1.38,0,0,0,2.75,0,43.45,43.45,0,0,1,2-12.81c.52-1.7-2.14-2.43-2.66-.74"/><path id="Fill-84" class="cls-1" d="M79.28,131.45a23.82,23.82,0,0,0-.33,9.06,1.38,1.38,0,0,0,1.69,1,1.42,1.42,0,0,0,1-1.7,21.19,21.19,0,0,1,.33-7.6,1.37,1.37,0,0,0-2.65-.73"/><path id="Fill-86" class="cls-1" d="M73.34,137.8a23.87,23.87,0,0,0,0,5.54,1.52,1.52,0,0,0,.41,1,1.42,1.42,0,0,0,1,.41c.67,0,1.47-.62,1.38-1.38a23.87,23.87,0,0,1,0-5.54,1.32,1.32,0,0,0-.41-1,1.4,1.4,0,0,0-1-.41,1.39,1.39,0,0,0-1,.41,1.58,1.58,0,0,0-.41,1"/><path id="Fill-88" class="cls-1" d="M97.77,119.1a29.22,29.22,0,0,0-3.92,12.8,1.38,1.38,0,0,0,2.76,0,26.17,26.17,0,0,1,3.53-11.41,1.37,1.37,0,0,0-2.37-1.39"/><path id="Fill-90" class="cls-1" d="M146.8,63.84c4.23-1.35,9.14-2.34,13.38-.45a1.89,1.89,0,0,0,2.52-.65,1.87,1.87,0,0,0-.66-2.52c-5.23-2.33-10.91-1.61-16.22.08-2.24.71-1.28,4.26,1,3.54"/><path id="Fill-92" class="cls-1" d="M176.65,63.35a23,23,0,0,1,11.11-.13,1.84,1.84,0,1,0,1-3.54,26.93,26.93,0,0,0-13,.12,1.84,1.84,0,0,0,1,3.55"/><path id="Fill-94" class="cls-1" d="M142.71,101.1c5.83,13.71,13.92,15,18.9,15.64,4.25.55,8.89.15,11.83-3,2.23-2.39,2.1-6.12,2.11-9.4,0,0-13.54,3-29.7-6.29Z"/><path id="Fill-96" class="cls-11" d="M171.18,105.34s.25,4.59-2.39,5.13-12.52.27-18.42-5.67a2.7,2.7,0,0,1-.69-1.26,5.74,5.74,0,0,1,.26-3.36s10.32,6.45,21.24,5.16"/><path id="Fill-98" class="cls-1" d="M169.47,80.08c1.57,3.6,3.21,7.42,3.08,11.42-.05,1.27-.22,3.25-1.52,3.91a1.82,1.82,0,0,1-2.59-1.9c.11-1.77-2.65-1.77-2.76,0a4.57,4.57,0,0,0,4.13,4.82c2.55.25,4.44-1.67,5.09-4,1.5-5.29-1-10.9-3.05-15.66A1.39,1.39,0,0,0,170,78.2a1.41,1.41,0,0,0-.49,1.88"/><path id="Fill-100" class="cls-1" d="M159.31,93.69a3.81,3.81,0,0,0,1.74,3.3,5.1,5.1,0,0,0,3,.74,4.69,4.69,0,0,0,2.71-1,5.56,5.56,0,0,0,1.6-2.81,1.38,1.38,0,1,0-2.66-.73c0,.14-.08.28-.13.42s-.16.51-.07.18a2.83,2.83,0,0,1-.42.76c-.18.28.2-.22.07-.09l-.13.14s-.12.09-.17.15l.14-.11-.1.07c-.14.09-.28.14-.42.22.37-.2.1,0,0,0a2.14,2.14,0,0,1-.32.08c-.15,0-.11,0,.11,0l-.19,0h-.28a1.11,1.11,0,0,1-.41,0q.27,0,0,0l-.23,0-.37-.1a1,1,0,0,1-.16-.06l.09,0c-.15-.08-.3-.18-.45-.27.34.2.13.1,0,0s-.1-.15-.16-.19c.25.16.16.24.07.09s-.07-.13-.1-.2c-.16-.27.09.29,0,.09l-.06-.19c0-.1-.05-.2-.07-.3s0,.44,0,.18c0-.05,0-.09,0-.13v-.19a1.38,1.38,0,0,0-2.76,0"/><path id="Fill-102" class="cls-1" d="M248.77,82.81a14.06,14.06,0,0,1,12.89,0,1.84,1.84,0,1,0,1.86-3.17,18,18,0,0,0-16.6,0,1.85,1.85,0,0,0-.66,2.51,1.87,1.87,0,0,0,2.51.66"/><path id="Fill-104" class="cls-1" d="M281.53,83.49a17.28,17.28,0,0,1,6.85-1.12,9.26,9.26,0,0,1,2.3.65,7,7,0,0,1,1.17.71c-.16-.13.31.29.36.35s.47.51.35.36a1.9,1.9,0,0,0,2.52.66,1.86,1.86,0,0,0,.66-2.51,9.76,9.76,0,0,0-6.48-3.78A19.19,19.19,0,0,0,280.55,80a1.88,1.88,0,0,0-1.28,2.26,1.85,1.85,0,0,0,2.26,1.28"/><path id="Fill-106" class="cls-1" d="M260.78,116.93a11.81,11.81,0,0,0,1.21,5.64,8.5,8.5,0,0,0,4.11,4,11.13,11.13,0,0,0,7.3.1,20.62,20.62,0,0,0,7.35-5,34.85,34.85,0,0,0,5.58-7.64,3.54,3.54,0,0,0-5.29-1.52c-3.69,2.08-7.3,5.25-14.9,4.32Z"/><path id="Fill-108" class="cls-11" d="M263.35,117.11s-.25,3.47,1.09,4.33,8.18.11,12.07-2.39,3-5.65,3-5.65a26.2,26.2,0,0,1-16.12,3.71"/><path id="Fill-110" class="cls-1" d="M266.58,92.54a26.72,26.72,0,0,0-3.8,5.22,19.27,19.27,0,0,0-2.44,6.16c-.33,2.14.4,4.53,2.6,5.31a3.32,3.32,0,0,0,2.94-.31,8.28,8.28,0,0,0,1.9-2.38,1.38,1.38,0,0,0-.49-1.89,1.41,1.41,0,0,0-1.88.5c-.31.41-.56,1.17-1,1.45a.85.85,0,0,1-1-.29c-.88-1-.17-2.77.23-3.83a24.26,24.26,0,0,1,4.92-8c1.21-1.3-.73-3.25-1.95-1.95"/><path id="Fill-112" class="cls-1" d="M265.17,106.24a3.43,3.43,0,0,0,1.22,2.73,4.17,4.17,0,0,0,3.11,1,3.51,3.51,0,0,0,3-2,4.18,4.18,0,0,0,.18-3,1.37,1.37,0,0,0-2.65.73,5.61,5.61,0,0,1,.13.59l-.05-.37a3.14,3.14,0,0,1,0,.75c0-.12,0-.24.05-.36,0,.14-.06.28-.1.42s.15-.29,0-.07l-.09.16a1.3,1.3,0,0,1-.1.15c-.13.2.24-.27.08-.11a1.75,1.75,0,0,1-.23.24l-.06,0c-.12.11.22-.16.19-.15l-.11.08a1.18,1.18,0,0,1-.19.11l-.08,0s.42-.15.23-.1a5.41,5.41,0,0,1-.58.12l.37,0a3.87,3.87,0,0,1-.9,0l.36,0-.36-.07-.19-.06c-.18,0,.06,0,.1.05a1,1,0,0,1-.33-.19c-.16-.09.08.08.11.09a.53.53,0,0,1-.14-.12c-.1-.09-.27-.36-.05,0-.06-.09-.12-.18-.17-.27s-.1-.21,0,0,0,0,0,0a1.87,1.87,0,0,1-.08-.34l.05.36c0-.12,0-.23,0-.35a1.38,1.38,0,0,0-1.37-1.38,1.4,1.4,0,0,0-1.38,1.38"/><path id="Fill-114" class="cls-1" d="M122.94,187.86a198.21,198.21,0,0,0,28.71-6.23c1.7-.51,1-3.17-.73-2.66a198.5,198.5,0,0,1-28.71,6.23c-1.75.25-1,2.9.73,2.66"/><path id="Fill-116" class="cls-1" d="M76.39,198.64a82.78,82.78,0,0,0,24.17-7.79c1.58-.8.19-3.18-1.39-2.38A80.43,80.43,0,0,1,75.66,196c-1.75.28-1,2.94.73,2.66"/><path id="Fill-118" class="cls-1" d="M337.19,178.49,373.5,189.4c1.7.52,2.43-2.14.73-2.65l-36.31-10.92c-1.7-.51-2.43,2.15-.73,2.66"/><path id="Fill-120" class="cls-9" d="M330.18,206.29c11-11.54,9.76-23.55,8-29.71l-8.66-3.31s1.12,18.41-6.86,27.31a82.79,82.79,0,0,0,7.48,5.71"/><path id="Fill-122" class="cls-1" d="M139.92,103.26a11,11,0,0,0,9.27-10.79,1.38,1.38,0,0,0-2.76,0,8.25,8.25,0,0,1-2.1,5.47,7.56,7.56,0,0,1-2.3,1.78,8.74,8.74,0,0,1-2.85.88,1.4,1.4,0,0,0-1,1.7,1.43,1.43,0,0,0,1.7,1"/><path id="Fill-124" class="cls-1" d="M146.06,98.45c4.38,4.34,10.26,6.33,16.27,7.12,6.19.81,12.9,1,18.82-1.23,1.64-.63.93-3.3-.73-2.66-5.38,2.06-11.32,1.9-17,1.27S152.13,100.59,148,96.5a1.38,1.38,0,0,0-1.95,2"/><path id="Fill-126" class="cls-1" d="M257.36,117c9.21,2.29,19.3,1.3,26.67-5.12,1.34-1.17-.62-3.11-1.95-2-6.59,5.75-15.79,6.45-24,4.41-1.72-.43-2.45,2.23-.73,2.66"/><path id="Fill-128" class="cls-1" d="M281.07,106.16a9.47,9.47,0,0,0,2.26,6.81c1.72,2.07,4.64,3.58,7.28,2.4a1.4,1.4,0,0,0,.49-1.89,1.43,1.43,0,0,0-1.89-.5c.24-.1-.11,0-.16,0-.28.11.13,0-.14,0h-.39c-.31,0,.11,0-.16,0a6.94,6.94,0,0,1-.78-.22c-.39-.14.2.11-.17-.08l-.35-.18-.6-.39c-.32-.22.2.18-.1-.07l-.27-.23c-.17-.16-.34-.32-.5-.49l-.24-.27s-.27-.33-.08-.09a8.37,8.37,0,0,1-.76-1.2l-.15-.32c-.14-.27.06.19-.05-.11s-.17-.44-.24-.67-.12-.46-.17-.69,0-.2,0-.29,0-.08,0,.07a1.1,1.1,0,0,1,0-.18,8,8,0,0,1,0-1.47,1.39,1.39,0,0,0-1.38-1.38,1.42,1.42,0,0,0-1.38,1.38"/><path id="Fill-130" class="cls-12" d="M146.43,107.91a19.63,19.63,0,0,0,9.24,7.48c0-7.49-6.69-7.68-9.24-7.48"/><path id="Fill-132" class="cls-12" d="M283.37,118.55a8.24,8.24,0,0,0-4.18.8,6.29,6.29,0,0,0-3.61,6.28,23.58,23.58,0,0,0,5.17-4,38.69,38.69,0,0,0,2.62-3.08"/><path id="Fill-134" class="cls-11" d="M148.88,70.6s-3.94.13-3.81,3.5c.1,2.4,4.16,4,10.67,3.4s6.75-2,6.61-3.83-2.33-3.8-13.47-3.07"/><path id="Fill-136" class="cls-11" d="M177.48,77.94s-3.79-.26-3.54-3.61c.18-2.4,4.14-3.87,10.38-3.06s6.42,2.21,6.22,4-2.38,3.72-13.06,2.63"/><path id="Fill-138" class="cls-1" d="M181.05,78.06c-4.31.2-4.63-6.5-.31-6.71s4.63,6.51.31,6.71"/><path id="Fill-140" class="cls-1" d="M152.18,77.37c-4.32.18-4.59-6.53-.27-6.71s4.59,6.54.27,6.71"/><path id="Fill-142" class="cls-11" d="M249.53,88s-4,.28-3.74,3.64c.18,2.39,4.36,3.84,11,3s6.79-2.23,6.58-4.07-2.5-3.71-13.8-2.56"/><path id="Fill-144" class="cls-11" d="M282.07,88.6s-3.93.26-3.68,3.62c.17,2.39,4.27,3.86,10.74,3s6.66-2.2,6.46-4-2.44-3.72-13.52-2.63"/><path id="Fill-146" class="cls-1" d="M287.19,95.09c-4.32,0-4.33-6.72,0-6.72s4.32,6.72,0,6.72"/><path id="Fill-148" class="cls-1" d="M255.11,94.63c-4.31.33-4.83-6.36-.52-6.7s4.83,6.37.52,6.7"/></g></svg>