<svg id="Layer_1" data-name="Layer 1" xmlns="http://www.w3.org/2000/svg" xmlns:xlink="http://www.w3.org/1999/xlink" viewBox="0 0 400 250"><defs><style>.cls-1{fill:#fff;}.cls-1,.cls-10,.cls-11,.cls-13,.cls-14,.cls-15,.cls-16,.cls-17,.cls-18,.cls-19,.cls-2,.cls-20,.cls-21,.cls-3,.cls-4,.cls-5,.cls-6,.cls-7,.cls-8,.cls-9{fill-rule:evenodd;}.cls-2,.cls-22{fill:#117e3f;}.cls-3{fill:#e7e6e5;}.cls-4{fill:#cacaca;}.cls-5{fill:#faae28;}.cls-6{fill:#0fad4b;}.cls-7{fill:#f28220;}.cls-8{fill:#f05d22;}.cls-9{fill:#9cd9e5;}.cls-10{fill:#f5a1ab;}.cls-11{fill:#f5a1ac;}.cls-12{mask:url(#mask);}.cls-13{fill:#020303;}.cls-14{fill:#fefefe;}.cls-15{fill:#ee455d;}.cls-16{fill:#050606;}.cls-17{fill:#b2222d;}.cls-18{fill:#ee465d;}.cls-19{fill:#026a81;}.cls-20{fill:#0781a3;}.cls-21{fill:#00a4ce;}</style><mask id="mask" x="52.75" y="15" width="122.09" height="88.57" maskUnits="userSpaceOnUse"><g id="mask-4"><polygon id="path-3" class="cls-1" points="52.75 15 174.84 15 174.84 103.57 52.75 103.57 52.75 15"/></g></mask></defs><title>Website Illustrations</title><path class="cls-2" d="M56.75,90.09C49.32,95.22,44,101.59,37.5,108c-3.83,3.79-8,7.31-11.25,11.66a30.18,30.18,0,0,0-4.6,7.86,8,8,0,0,0,.43,6.66,9.58,9.58,0,0,0,3.32,3A23.64,23.64,0,0,0,46,139c11.42-4.54,18.46-12,29.78-19.72.81-.55.82-1.82.8-2.81a7,7,0,0,0-1.79-3.91L57,88.45c-.2-.26-.51-.56-.8-.41s.22.67.25.34"/><g id="pay_spot_hero_spot_hero_jago_saving_onboarding_goals" data-name="pay/spot_hero/spot_hero_jago_saving_onboarding_goals"><path id="Fill-4" class="cls-3" d="M171.5,251c-13.85-.21-27.27-1-41-1-7.62-21.23-20.2-60.67-34.85-90.94a30,30,0,0,0,12.12,6c10.75,2.78,27.45-1.36,30.09-11.69v-.31c1.13-.1,2.27-.23,3.43-.41,1.91,4,7.51,16.1,13.41,32.31,6.45,17.7,13.23,40.34,16,62.73"/><path id="Fill-6" class="cls-4" d="M109.25,179.1a44.35,44.35,0,0,0,19.62.49c5.31-1.07,12.38-3.05,14.9-8.4.83-1.76-1.8-3.31-2.63-1.54-2.23,4.73-9,6.23-13.61,7.11a40.87,40.87,0,0,1-17.47-.6c-1.9-.48-2.71,2.46-.81,2.94"/><path id="Fill-8" class="cls-5" d="M150.71,195.35a7,7,0,0,0-6.3,4.86,6.76,6.76,0,0,0-.3,2,6.92,6.92,0,0,0-12.71,1.2,6.77,6.77,0,0,0-.31,2,6.91,6.91,0,1,0,.82,3.31,6.83,6.83,0,0,0,2,2.3,6.92,6.92,0,0,0,11.06-5.49,6.91,6.91,0,1,0,5.79-10.16"/><path id="Fill-10" class="cls-5" d="M156.16,247.46l-.13.09q-11.84-.13-23.6-.14A18.65,18.65,0,0,1,127,240.9h0s0,0,0,0a14.72,14.72,0,0,1-1.34-3.91s0,0,0,0l0,0a9.68,9.68,0,0,1-.14-1.22A6,6,0,0,1,135.77,231a8.75,8.75,0,0,1,1.46,2.26c1.4,2.76,3.81,5.06,7.06,5.16a7,7,0,0,0,6.86-5c.51-1.79,0-3.55-.47-5.28-.29-1.18-.58-2.35-.88-3.52s-.63-2.59-.94-3.89a9.84,9.84,0,0,1-.39-5,6.49,6.49,0,0,1,11.42-2.23,11.85,11.85,0,0,1,1.66,4.47c.32,1.27.63,2.55.94,3.83a43.38,43.38,0,0,1,1.69,8.47,20.47,20.47,0,0,1-8,17.15"/><path id="Fill-12" class="cls-6" d="M202.46,216.89c-1,8.77.5,24,1,34.11-10.58-.22-22.46.16-33,0a327,327,0,0,0-15.79-66,360.9,360.9,0,0,0-14.12-33.75l17.76-37.35c34-6,55.24-.91,55.24-.91l11.58,28.11c-17.36,4.84-32,20.3-32,20.3,2.44,20.26,9.34,55.49,9.34,55.49"/><path id="Fill-14" class="cls-7" d="M140.05,153.48c5.15,12,10.52,23.9,14.88,36.2A321.93,321.93,0,0,1,165.48,225c1.59,6.94,3.87,19,4.81,26,.19,1.47,2.53,1.49,2.34,0-3.32-24.95-11.75-54.49-21.53-77.64-3-7-6-14-9-21-.6-1.38-2.61-.19-2,1.18"/><path id="Fill-16" class="cls-8" d="M376.52,250.28c-4.8,5.23-12.35.7-19,2.72-9.43,2.85-18.14-1.13-28-1-42.56.57-84.94-1.14-128-2,.14-9.44-.12-23.51,1-33.11a.44.44,0,0,1,0-.1c-.41-2.09-6.95-35.76-9.32-55.37v0l.38-.39c2.39-2.42,15.94-15.52,31.67-19.91l-.76-1.83c24.69-11.26,57.06-15.55,92.22-7.68,37.14,8.33,51.68,39.45,57.07,57.48,2.57,12.6,3.56,32,2.82,46.21"/><path id="Fill-18" class="cls-9" d="M295.09,128.21c-6,25.6-16.81,73.17-21.29,105.45-.83,6-1.76,12.65-2.3,17.34-16.19-.21-32.78.34-49,0,2-21.24,8.79-73.66,23.44-107.3a78.39,78.39,0,0,1,7.47-13.56,149.72,149.72,0,0,1,41.68-1.93"/><path id="Fill-20" class="cls-10" d="M337,131.78s6.65-3,8.87,5.43c0,0,6.26-.64,7.62,8.78,0,0,6.91.62,7.68,9.73s-.89,10-3.77,9.33-3.55-5.54-3.55-5.54.22,3.21-3.55,2.32-4.77-6.09-4.77-6.09-.44,7-5.87,5.43-4.44-12.2-4.44-12.2-.33,7.1-5.1,6-4.77-5.21-4.44-9.21Z"/><path id="Fill-22" class="cls-11" d="M233.68,195.52s-5.56-7.37-6-13.48,3.92-10.28,8.63-2.36Z"/><path id="Fill-24" class="cls-11" d="M314.67,235.1,305.5,251c-6.34,0-11.64.06-18,0l-7.26-10.3c-17,.85-19.62-9.35-19.62-9.35l12.64-5.69,2.51-6.39a8.26,8.26,0,0,1,8.85-5.3c-4.58-.71-5.79-2.12-5.1-5.54s4.59-4.73,4.59-4.73a4.53,4.53,0,0,1-3.2-5c.41-4,6.11-4.73,6.11-4.73a7.14,7.14,0,0,1-4.62-2.78c-1.85-2.51-1.36-6,8.93-13.48s13.89-3.05,14,.42-2.22,18.06-2.22,18.06c5.83,3.47.14,11,.14,11a27.25,27.25,0,0,1-1.12,10.29,66.21,66.21,0,0,0-2.5,10.14Z"/><path id="Fill-26" class="cls-10" d="M79.53,120.36s25.37,41.55,66.94,31.32c35.71-8.79,9.54-102,9.54-102s-26.09-29.49-66-10-20.48,65.14-10.52,80.62"/><path id="Fill-28" class="cls-10" d="M77,114.23l12.88,37s3.29,10.07,17.93,13.85c10.75,2.77,27.45-1.37,30.09-11.69l.73-26.77Z"/><g id="Group-32"><g class="cls-12"><path id="Fill-30" class="cls-13" d="M75.61,100.36s7.07-11,3.67-23.39A25,25,0,0,0,89,52.87s5.51,6.47,25.15,8.35c14.75,1.4,17.63-6.94,34.1-4.77C158,57.73,163.9,62,166.4,64.27a1,1,0,0,0,1.67-.68c.2-3,.34-7.7-3.91-11.51,0,0,2.72.74,9,4.67,1,.62,2.2-.69,1.46-3.51C172,43.4,157.78,18.08,123.89,15.37,95.34,13.08,77.81,21.73,75,34.47c0,0-15.58,2.41-20.86,21.8s5.75,47.3,5.75,47.3Z"/></g></g><path id="Fill-33" class="cls-14" d="M107.11,85.58c-4.81,2.06-2.7,7.58,1.5,7.8a67.07,67.07,0,0,0,8.68-.23c1.77-.07,5.58-.49,5.89-3.67.39-4-9.85-6.56-16.07-3.9"/><path id="Fill-35" class="cls-13" d="M112.34,92.87c4.57,0,4.58-7.09,0-7.09s-4.57,7.09,0,7.09"/><path id="Fill-37" class="cls-14" d="M144.64,84.17c-4.1,2.17-1.75,7.32,2,7.34a54.94,54.94,0,0,0,7.69-.59c1.56-.14,4.91-.71,4.91-3.74,0-3.84-9.3-5.81-14.59-3"/><path id="Fill-39" class="cls-13" d="M149.34,90.75c4.19,0,4.2-6.53,0-6.53s-4.21,6.53,0,6.53"/><path id="Fill-41" class="cls-13" d="M136.7,89.21q2.42,6.45,4.63,13c.46,1.33,1.56,3.53.84,4.93-.6,1.17-2.18.53-2.66-.38a1.36,1.36,0,0,0-2.45.32,2.23,2.23,0,0,1-4.35.23,1.34,1.34,0,0,0-2.58.71,4.87,4.87,0,0,0,9.51-.23l-2.45.32a4.49,4.49,0,0,0,5.07,2.18c2.25-.64,3-3,2.69-5.11-.37-2.68-1.59-5.34-2.48-7.89-1-2.93-2.09-5.86-3.18-8.77-.6-1.61-3.19-.91-2.59.71"/><path id="Fill-43" class="cls-13" d="M113.3,110.36l0,.4c0,.24,0-.05,0,.1s-.09.47-.15.71-.13.46-.21.69-.07.2-.11.31c.09-.23-.08.15-.08.16a7.86,7.86,0,0,1-.71,1.18c-.08.11.07-.08-.07.1s-.17.2-.26.29-.34.35-.51.51l-.26.22c-.32.27.19-.12-.16.12-.18.12-.37.25-.56.36s-.43.23-.66.34.1,0-.11.05L109,116l-.65.19-.39.08s-.43,0-.18,0a8,8,0,0,1-1.47,0,1.36,1.36,0,0,0-1.35,1.34,1.38,1.38,0,0,0,1.35,1.34,9,9,0,0,0,9.63-8.66,1.34,1.34,0,0,0-2.68,0"/><path id="Fill-45" class="cls-13" d="M131.67,137.87a13.34,13.34,0,0,1-11.14-1.67c-1.45-.95-2.79,1.37-1.35,2.32a16,16,0,0,0,13.21,1.94,1.35,1.35,0,0,0-.72-2.59"/><path id="Fill-47" class="cls-13" d="M156.1,58.91c1.62,7.62,3,15.31,4.18,23a188.92,188.92,0,0,1,2.66,32.2c-.11,6.59-.47,12.78-2.5,19s-5.93,11.58-12.11,14.14c-4.59,1.91-9.67,2.23-14.58,1.9-7.69-.5-15.23-2.65-22.46-5.17-2.38-.83-3.4,2.94-1,3.76,11.24,3.92,24.4,7.49,36.27,4.24a24.79,24.79,0,0,0,16.27-14.18c2.88-6.52,3.72-13.71,4-20.77A173.5,173.5,0,0,0,164.93,87c-1.34-9.74-3-19.47-5.07-29.1-.53-2.45-4.29-1.41-3.76,1"/><path id="Fill-49" class="cls-13" d="M145.51,71.47a7.65,7.65,0,0,1,2.54-2.08c.27-.14.54-.28.82-.4-.39.16.43-.15.51-.17a8.31,8.31,0,0,1,.89-.25c.08,0,1-.17.5-.11a9.85,9.85,0,0,1,1.88,0l.47,0c-.23,0-.21,0,.08,0s.62.13.92.21.6.18.9.28.3.11.1,0l.43.2a11,11,0,0,1,1.61,1,2.38,2.38,0,0,0,3.24-.84,2.44,2.44,0,0,0-.85-3.24,13.18,13.18,0,0,0-17.38,2,2.37,2.37,0,1,0,3.34,3.35"/><path id="Fill-51" class="cls-13" d="M103.7,74.7c4.88-6.06,14.63-6.3,20.59-1.82a2.43,2.43,0,0,0,3.3-.86,2.47,2.47,0,0,0-.87-3.3c-7.52-5.66-20.33-5-26.43,2.58a2.48,2.48,0,0,0,0,3.4,2.42,2.42,0,0,0,3.41,0"/><path id="Fill-53" class="cls-13" d="M114.48,114.91s10.42,7.21,27.58,7.12c0,0-.06,12.15-13.24,12.63s-17.71-17.45-17.71-17.45Z"/><path id="Fill-55" class="cls-14" d="M135.69,121.72c-.82,4.8-5.2,5-10.65,2.57-4.4-1.93-6.93-6.07-7.85-7.83a52.76,52.76,0,0,0,18.5,5.26"/><path id="Fill-57" class="cls-13" d="M131.52,134.9l-.46.06.46-.06"/><path id="Fill-59" class="cls-15" d="M132,134.82l-.51.08.51-.08"/><path id="Fill-61" class="cls-15" d="M129.9,134.57a20.28,20.28,0,0,0-6.65-8.87c-3-2.22-7.5-3.12-10.27-3.41,2.26,5,6.75,11.83,14.41,12.34l.46,0h1a9.13,9.13,0,0,0,1.08-.08"/><path id="Fill-63" class="cls-13" d="M113.8,114.85a32.3,32.3,0,0,0,30.86,7.07,1.34,1.34,0,0,0-.71-2.59A29.56,29.56,0,0,1,115.69,113c-1.26-1.17-3.16.72-1.89,1.89"/><path id="Fill-65" class="cls-13" d="M127,95a13.91,13.91,0,0,1-7.65,7.3c-4.8,1.83-11.12,1.82-15.59-.85-5.28-3.15-6.83-11.16-3.86-16.41,3-5,8.56-6.3,14.09-6.3a18.51,18.51,0,0,1,7.52,1.31,11.05,11.05,0,0,1,5.85,6.11A11.53,11.53,0,0,1,127,95m3.52-6.76a14.13,14.13,0,0,0-5.11-9.1,16.23,16.23,0,0,0-8.61-3.08,35.25,35.25,0,0,0-10.91.5,15.45,15.45,0,0,0-9.65,6.84c-3.3,5.81-1.92,14.42,2.83,19.06a16.08,16.08,0,0,0,8.46,4,20.61,20.61,0,0,0,10.86-.83c3.55-1.19,8.27-4.2,9.91-7.67,1.53-3.28,2.74-6.18,2.22-9.74"/><path id="Fill-67" class="cls-13" d="M141.82,85.16a10.83,10.83,0,0,1,4.36-6.84A15,15,0,0,1,152.63,76c4.88-.73,10-.15,13.26,4.38,3.32,4.81,3,13-1.23,16.77-3.59,3.24-9.17,4.08-13.63,2.91a13.25,13.25,0,0,1-9.21-14.93M142.56,97c1.9,3.22,6.46,5.58,9.75,6.28a16.35,16.35,0,0,0,9.69-.62,13.89,13.89,0,0,0,6.93-5.1c3.58-5.22,3.65-13.93,0-19.25a13.66,13.66,0,0,0-9.41-5.5,28.14,28.14,0,0,0-9.69,1,13.76,13.76,0,0,0-7.19,4.19,14.88,14.88,0,0,0-3.3,9.69c0,3.6,1.46,6.32,3.25,9.36"/><path id="Fill-69" class="cls-16" d="M131.18,90.8a6.74,6.74,0,0,1,.91-.59,5.39,5.39,0,0,1,.48-.25l.24-.11c-.27.11-.3.12-.1.05a8.44,8.44,0,0,1,1-.31l.52-.1c.4-.08-.46,0,.06,0a8,8,0,0,1,1,0s.53.05.53,0c-.31,0-.35,0-.14,0l.26,0a7.14,7.14,0,0,1,1,.29,1.84,1.84,0,0,1,.25.09c.2.08.17.06-.09,0,.11,0,.38.18.49.24a2,2,0,1,0,2-3.4,9.85,9.85,0,0,0-10.4.69,2.12,2.12,0,0,0-.91,1.17,2,2,0,0,0,2.9,2.23"/><path id="Fill-71" class="cls-16" d="M128.18,95.63c0,.22.13.85.18,1.07.33.3,1.83.66,2.36-.28.82-1.45.3-3.91.09-5.78l-1.2-.53Z"/><polygon id="Fill-73" class="cls-16" points="95.59 87.1 64.21 93.32 70.17 97.46 96 93.19 95.59 87.1"/><path id="Fill-75" class="cls-10" d="M77.29,98.25S70.51,87.53,60,92.68s-1.65,29.78,12.36,28.72S86,109.56,86,109.56Z"/><path id="Fill-77" class="cls-13" d="M80.37,115.82a9,9,0,0,1-.78,1.22l.21-.27a8.87,8.87,0,0,1-1.5,1.5l.27-.21a8.17,8.17,0,0,1-1.6,1,1.31,1.31,0,0,0-.62.8,1.43,1.43,0,0,0,.14,1,1.33,1.33,0,0,0,.8.61,1.47,1.47,0,0,0,1-.13,9.49,9.49,0,0,0,4.36-4.18,1.34,1.34,0,1,0-2.31-1.35"/><path id="Fill-79" class="cls-13" d="M64.35,101c2.63-1.55,5.29,1,6.3,3.26a9.1,9.1,0,0,1-.46,8,1.37,1.37,0,0,0,2.37,1.39,11.89,11.89,0,0,0,.28-11.16C71,99,66.75,96.43,63,98.66A1.37,1.37,0,0,0,64.35,101"/><path id="Fill-81" class="cls-6" d="M131.5,250c-2.08,0-2.94,1-5,1-8.72,0-21.52-.11-32,0a414.41,414.41,0,0,1-41.75-1.18c-3.72-.34-8.83,2.71-12.25,2.18-6-.92-10.14,1.7-15-2-2-11.31-5.18-37.61-2.87-51.88,4.89-30.27,64.08-55.86,64.08-55.86,19,32.12,33.47,79.76,42.58,105.14"/><path id="Fill-83" class="cls-13" d="M71.94,206.33q4.19,13.23,7.48,26.73c.4,1.66,3,1,2.56-.7q-3.3-13.5-7.48-26.74c-.51-1.62-3.07-.92-2.56.71"/><path id="Fill-85" class="cls-13" d="M223.21,76.25s-10.82,7-17.9,25.41-8.93,39.06,15.55,40.05c0,0-18.73-20.26,2.35-65.46"/><path id="Fill-87" class="cls-11" d="M237.5,149.6s4.3,7.64,24.31,6.71S292,143.81,292,143.81s-7.65-14.94,2.11-27.33c0,0,7.31,7,16-5.17s5.21-26.4-2.33-29.6-17.51,4.4-16.25,13c0,0-5.27-6.34-1.94-18.37l3.32-12-12.19-8.68-25-10.07L229.19,58l-3,12.82s-14.31,23.34-13.64,44.66,14,33.73,24.95,34.12"/><path id="Fill-89" class="cls-13" d="M218.76,57.41c-2.76,11.94,4.46,18.84,4.46,18.84L226.27,72c0,3.09,1.35,1.93,7.28,2.5s11.2.92,11.2.92-.12-2.67,2-12.33a33,33,0,0,1,7.76-15c-4.5,5.08-5.93,17.78-5.32,23.13.64,5.52,4.93,4,12.78,5.21,5,.74,10.93,1.83,14.66,2.52a2.4,2.4,0,0,0,2.81-2.76,54.44,54.44,0,0,1,.41-15,19.75,19.75,0,0,0,6.6,17.55c-.92,6.68,3.32,13.52,4.67,15.5l.21.3.08.13.06.07.05.06c-1.26-8.55,8.7-16.13,16.25-12.94s11,17.44,2.33,29.6c-8,11.16-14.8,6.16-15.83,5.27a6.93,6.93,0,0,0-.65.57h0c-9,12.24-1.6,26.63-1.6,26.63,12.66,16.1,42.1,9.49,48.82-13.28s4.72-41.13-6.37-66-30.55-39.78-64-40.72S221.54,45.5,218.76,57.41"/><path id="Fill-91" class="cls-17" d="M314.71,91.62a23.14,23.14,0,0,1,.46,4.06c3.24,2.61-.49,4.67,3.27,6.83,4.14,2.39,5.27-5.88-3.73-10.89"/><path id="Fill-93" class="cls-17" d="M275.83,88.05s5.61,0,13.16.89l3.11.38a12.25,12.25,0,0,1,1.42-2.61c-1.81-.25-3.47-.46-5-.63-7-.84-10.9-1-10.9-1Z"/><path id="Fill-95" class="cls-14" d="M265.38,85.26c5.06,1.95,2,6-1.35,5.53a19.36,19.36,0,0,0-7.32.13c-1.37.36-4,.36-4.54-2.13-.69-3,6.78-6,13.21-3.53"/><path id="Fill-97" class="cls-14" d="M234.1,84.65c3.17,1.87,2.22,5.92-1.64,5.15a17.68,17.68,0,0,0-7.63,0c-1.59.31-2.79-.85-2.54-3,.31-2.79,7.16-4.82,11.81-2.08"/><path id="Fill-99" class="cls-13" d="M243.43,147.26c-.44.09-.39,0,0,0-.49,0-1,.1-1.46.13a28.3,28.3,0,0,1-4.88-.18,23.48,23.48,0,0,1-13.21-6.58c-12-12.16-10.13-31.86-5.4-46.76a116.88,116.88,0,0,1,10.74-23.71c1.52-2.6-2.52-5-4-2.36-8.67,14.79-15.77,32.31-15,49.74.68,14.85,8.52,30.69,24.21,33.92a26.84,26.84,0,0,0,10.22.31c2.95-.56,1.7-5.07-1.25-4.52"/><path id="Fill-101" class="cls-17" d="M228.56,81.18c4.51,3.68,6.42,5.8,5.43,8.4a7.27,7.27,0,0,1-4,3.68c-5.64,3.43-12-6.86-11.64-12.74s5.65-3,10.16.66m18.28,7.12a38.12,38.12,0,0,1,20.65-6c12.47-.07,2.28,10.1-3.27,12.62s-12.82,1.19-15.84-1.85-1.54-4.79-1.54-4.79M221.09,93c4.89,6,10.95,2.39,12.67.09a10.34,10.34,0,0,0,1.91-3.29,6.94,6.94,0,0,1,8.45.89s.33,6.42,3.65,4.9c0,0,7,8,18.78,1.66s16.92-16.82,10.83-18-23,.2-33.24,6.77c0,0-4.23-3-7.82-.58,0,0-6.74-9.34-16.32-12.24S216.18,87,221.09,93"/><path id="Fill-103" class="cls-13" d="M239.05,105.05l-.18.33-.11.16c-.09.13.2-.23.05-.07s-.17.18-.27.27-.24.14,0,0a.94.94,0,0,0-.12.09l-.33.18c-.24.13.3-.1,0,0l-.14,0c-.13,0-.26,0-.38.09.33-.09.16,0,0,0h-.2l-.19,0c-.24,0,.23,0,.07,0s-.26,0-.38-.09l-.19-.07c.1,0,.25.11.06,0a3.87,3.87,0,0,1-.34-.21c-.14-.09.27.19,0,0l-.06-.06.09.11c-.1-.24,0,0,0,.07s0-.14,0-.18c-.05-.22,0,0,0,.08a.59.59,0,0,1,0-.19c0-.15,0-.29,0-.44a1.33,1.33,0,0,0-2.65,0,3.18,3.18,0,0,0,.85,2.54,4.23,4.23,0,0,0,6.59-1.3,1.33,1.33,0,0,0-.47-1.82,1.34,1.34,0,0,0-1.81.48"/><path id="Fill-105" class="cls-13" d="M234,104.75c-.08.25.15-.28,0,0a2,2,0,0,1-.11.2c-.12.2.21-.22,0,0l-.12.14-.16.15c-.12.1.25-.17.06-.05l-.2.11c-.11.06-.27.08.05,0l-.47.14c-.24,0,.21,0,.06,0a1.92,1.92,0,0,1-.24,0h-.2c-.27,0,.29.06,0,0a3.33,3.33,0,0,0-.45-.13l.17.07-.14-.06-.17-.1a1.37,1.37,0,0,1-.2-.13c-.13-.08.21.2.05,0l-.33-.34c.24.24.09.1,0,0l-.12-.21s-.14-.25,0,0,0-.05,0-.1,0-.13-.05-.2l0-.15,0,.2a3.85,3.85,0,0,1,0-.48v-.07c0-.15,0-.11,0,.11a.85.85,0,0,0,0-.23,1.34,1.34,0,0,0-.92-1.63,1.35,1.35,0,0,0-1.63.93,4.31,4.31,0,0,0,.36,3,4.23,4.23,0,0,0,2.3,1.94,4.08,4.08,0,0,0,3.05-.16,3.67,3.67,0,0,0,1.9-2.15,1.33,1.33,0,0,0-.92-1.63,1.37,1.37,0,0,0-1.64.93"/><path id="Fill-107" class="cls-13" d="M231.41,103.43Q234,96.51,237,89.79a1.36,1.36,0,0,0-.48-1.81,1.34,1.34,0,0,0-1.81.47q-3.17,7-5.89,14.27a1.32,1.32,0,1,0,2.55.71"/><path id="Fill-109" class="cls-13" d="M272.24,78a14.3,14.3,0,0,0-10.05-4.37c-4,0-7.7,1.7-11.11,3.58-2.64,1.45-.29,5.49,2.36,4s5.42-2.89,8.45-2.94a9.57,9.57,0,0,1,7.05,3c2.09,2.17,5.39-1.14,3.3-3.31"/><path id="Fill-111" class="cls-13" d="M240.82,77.05a11.69,11.69,0,0,0-6.95-6.32c-3.42-1-6.63.51-9.44,2.36a2.34,2.34,0,1,0,2.36,4c.54-.36,1.09-.71,1.66-1,.27-.15.54-.3.81-.43,0,0,.44-.2.24-.12s.21-.08.25-.09c.32-.11.64-.21,1-.29l.44-.08c-.25,0-.14,0,.05,0l.88,0c-.24,0-.2,0,0,0s.35.07.52.12.28.1.41.13c.33.08-.26-.14,0,0s.52.26.76.41l.37.24.19.14.26.23.31.3c.2.21.39.42.57.64s.17.23,0,0c.09.11.17.23.25.35a13.32,13.32,0,0,1,1,1.68,2.36,2.36,0,0,0,3.2.84,2.39,2.39,0,0,0,.84-3.2"/><path id="Fill-113" class="cls-13" d="M263,91.33c3.54,0,3.54-5.49,0-5.49s-3.54,5.49,0,5.49"/><path id="Fill-115" class="cls-13" d="M232.17,90.53c3.54,0,3.54-5.5,0-5.5s-3.54,5.5,0,5.5"/><path id="Fill-117" class="cls-13" d="M272.05,114.25l-.37,0c.19,0,0,0-.08,0s-.44-.08-.66-.14-.44-.12-.66-.2l-.29-.1c-.37-.15.22.11-.14-.07a8.34,8.34,0,0,1-1.13-.63l-.26-.18c-.32-.23.19.16-.12-.09l-.51-.46a5.11,5.11,0,0,1-.45-.48c-.07-.08-.13-.16-.2-.23s.09.12-.05-.07a10.16,10.16,0,0,1-.69-1.14c0-.09-.08-.19-.13-.28s.06.16,0-.07-.17-.45-.24-.69-.11-.39-.15-.58-.05-.24-.07-.36c-.06-.29,0,.19,0-.13a1.35,1.35,0,0,0-1.33-1.32c-.64,0-1.41.58-1.32,1.32a9.48,9.48,0,0,0,8.9,8.6,1.33,1.33,0,0,0,1.32-1.32,1.35,1.35,0,0,0-1.32-1.33"/><path id="Fill-119" class="cls-13" d="M266,111.49s-10.52,7.21-27.26,6.68c0,0-.53,12.58,12.31,13.4s17.4-16.41,17.4-16.41Z"/><path id="Fill-121" class="cls-14" d="M244.92,118c.58,5,4.84,5.27,10.28,2.93,4.38-1.89,7.05-6.11,8-7.92a50,50,0,0,1-18.32,5"/><path id="Fill-123" class="cls-18" d="M250,131.46c.33,0,.69.09,1.05.11,8.77.56,13.67-7.3,15.9-12.33a19.16,19.16,0,0,0-10,3.2,21.69,21.69,0,0,0-6.92,9"/><path id="Fill-125" class="cls-13" d="M239.4,136.35a18.36,18.36,0,0,0,10,3.59,1.33,1.33,0,0,0,1.33-1.32,1.36,1.36,0,0,0-1.33-1.33,16,16,0,0,1-8.71-3.23,1.34,1.34,0,0,0-1.81.47,1.36,1.36,0,0,0,.47,1.82"/><path id="Fill-127" class="cls-13" d="M291.53,114.15a6.56,6.56,0,0,0,2.34,3,10.45,10.45,0,0,0,3.38,1.49,1.32,1.32,0,1,0,.7-2.55c-.5-.14-1-.34-1.47-.5.36.12,0,0-.11,0l-.35-.18a6,6,0,0,1-.69-.41c-.09-.07-.35-.31-.06,0-.08-.07-.18-.14-.26-.22a4.45,4.45,0,0,1-.48-.49l-.09-.11c-.11-.13.17.24,0,.06l-.18-.29a2.75,2.75,0,0,1-.17-.29l-.06-.14c-.13-.25.11.3,0,0a1.38,1.38,0,0,0-.61-.79,1.32,1.32,0,0,0-1.94,1.49"/><path id="Fill-129" class="cls-13" d="M306.62,89.62a6.94,6.94,0,0,0-7.17,1.87,10.92,10.92,0,0,0-2.89,6.23,12.06,12.06,0,0,0,.16,5.79,9.86,9.86,0,0,0,4.55,5.22,1.33,1.33,0,0,0,1.34-2.29,7.1,7.1,0,0,1-3.33-3.63,8.82,8.82,0,0,1-.2-4.18,9.19,9.19,0,0,1,1.86-4.85,4.48,4.48,0,0,1,5-1.61c1.62.56,2.31-2,.71-2.55"/><path id="Fill-131" class="cls-13" d="M263.88,110.9c-7.59,5.16-18.13,7-27.14,5.76-1.67-.23-2.39,2.32-.7,2.56,9.7,1.36,21-.45,29.17-6,1.41-1,.08-3.25-1.33-2.29"/><path id="Fill-133" class="cls-19" d="M296,159.94l-5.91,18.68c-9.1,6.89-9.48,10.18-7.7,12.58a7,7,0,0,0,3,2.34l-.28.91-3,4.17.37,4.19-.7,2.21-1.57,1.74-.52,4.85-1.27,4-4.25,13.45a6.57,6.57,0,0,1-7.57,4.46l-5.33-1.08-25.85-5.2a6.56,6.56,0,0,1-5.22-7.2l8.11-70.61a6.57,6.57,0,0,1,7.64-5.73l44.94,7.78a6.55,6.55,0,0,1,5.14,8.45"/><path id="Fill-135" class="cls-6" d="M240.51,219.42l24.63,5a5.2,5.2,0,0,0,6-3.53l17.29-54.62a5.21,5.21,0,0,0-4.07-6.69l-35.51-6.14a5.19,5.19,0,0,0-6,4.53l-6.42,55.8a5.2,5.2,0,0,0,4.14,5.69"/><path id="Fill-137" class="cls-20" d="M271,154.38l-18.29-3.13a1.39,1.39,0,0,1,.47-2.74l18.29,3.14a1.39,1.39,0,0,1-.47,2.73"/><path id="Fill-139" class="cls-20" d="M280.57,156l-4-.68a1.39,1.39,0,0,1,.47-2.74l4,.69a1.39,1.39,0,0,1-.47,2.73"/><path id="Fill-141" class="cls-20" d="M253.1,227.92l-4-.69a1.39,1.39,0,1,1,.47-2.73l4,.69a1.39,1.39,0,0,1-.47,2.73"/><path id="Fill-143" class="cls-13" d="M293.89,213.8l-8.73-1.15c-2.37-.32-5.26-1.07-7.3.61a6.55,6.55,0,0,0-1.54,7.05c1,2.25,3.6,3.13,5.8,3.72a55.77,55.77,0,0,0,9.53,1.41,1.33,1.33,0,1,0,0-2.65,51.45,51.45,0,0,1-8.82-1.32,9.41,9.41,0,0,1-3.36-1.36,2.79,2.79,0,0,1-.76-3.12c.25-1.08.72-2,1.9-2.11a16,16,0,0,1,3.9.33l9.38,1.24a1.33,1.33,0,0,0,1.33-1.32,1.36,1.36,0,0,0-1.33-1.33"/><path id="Fill-145" class="cls-13" d="M284,224.15a17.54,17.54,0,0,0,.33,4.16c.24,1.21.55,2.75,1.55,3.58a1.33,1.33,0,0,0,1.88-1.88l-.16-.13c-.09-.11-.09-.1,0,0a2.26,2.26,0,0,1-.16-.26,1.42,1.42,0,0,1-.08-.18c.06.16.07.17,0,0s-.07-.2-.1-.29a14.73,14.73,0,0,1-.43-1.74c0-.12-.05-.25-.07-.37s-.08-.56-.05-.28c0-.3-.06-.6-.08-.89a15.27,15.27,0,0,1,0-1.79,1.33,1.33,0,0,0-1.33-1.32,1.35,1.35,0,0,0-1.32,1.32"/><path id="Fill-147" class="cls-13" d="M296.79,204l-9.93-1.4c-1.52-.22-3.26-.71-4.79-.31a5,5,0,0,0-3.07,2.6,9.46,9.46,0,0,0-1,4.3,4.4,4.4,0,0,0,2.05,3.6,19,19,0,0,0,8.51,2.84,1.33,1.33,0,0,0,1.33-1.32,1.37,1.37,0,0,0-1.33-1.33,17.63,17.63,0,0,1-6.62-2.13,2.06,2.06,0,0,1-1.27-2.25,5.85,5.85,0,0,1,1-3c.71-.9,1.63-.86,2.67-.72l3.81.54,7.95,1.13a1.37,1.37,0,0,0,1.63-.93,1.34,1.34,0,0,0-.93-1.63"/><path id="Fill-149" class="cls-13" d="M285.91,202.18c-.65-.15-1.82-.2-2.31-.72s-.4-1.79-.22-2.49a4,4,0,0,1,1.33-2.24,4.57,4.57,0,0,1,2.74-.61c4.64-.09,9.35-.1,13.87,1,1.66.4,2.37-2.16.71-2.56a42.88,42.88,0,0,0-9.1-1.09c-1.53,0-3.07,0-4.61,0a11,11,0,0,0-4,.49,6.59,6.59,0,0,0-3.74,6.23,4.58,4.58,0,0,0,1.27,3.27,7.06,7.06,0,0,0,3.36,1.29c1.65.4,2.36-2.16.7-2.56"/><path id="Fill-151" class="cls-13" d="M297.05,186.69a17.91,17.91,0,0,1-6.13,3.81,18.84,18.84,0,0,1-3.6.92c-.89.13-2.28.48-2.86-.41-1.22-1.86.28-4.54,1.55-5.93,1.77-1.93,4.14-3.17,6.24-4.69a1.37,1.37,0,0,0,.48-1.82,1.32,1.32,0,0,0-1.81-.47c-3.88,2.8-9,5.35-9.47,10.71-.21,2.29.84,4.94,3.35,5.33a11.5,11.5,0,0,0,3.83-.27,18.44,18.44,0,0,0,3.34-1,20.83,20.83,0,0,0,6.95-4.36c1.24-1.17-.63-3.05-1.87-1.87"/><path id="Fill-153" class="cls-13" d="M299.52,229q18.36,8.39,37.13,15.83c1.58.63,2.27-1.93.7-2.55q-18.44-7.32-36.49-15.57c-1.54-.7-2.89,1.58-1.34,2.29"/><path id="Fill-155" class="cls-13" d="M325.53,213.26a187.56,187.56,0,0,0-.59,25.31c.08,1.7,2.73,1.71,2.65,0a187.56,187.56,0,0,1,.59-25.31c.15-1.7-2.5-1.69-2.65,0"/><path id="Fill-157" class="cls-13" d="M190.6,153.53c4.36,21.91,5.54,44.31,10.2,66.17.36,1.66,2.91,1,2.56-.71-4.66-21.85-5.84-44.26-10.2-66.16-.33-1.67-2.89-1-2.56.7"/><path id="Fill-159" class="cls-13" d="M202.5,210.92a117.88,117.88,0,0,0-2.91,39.21c.16,1.68,2.81,1.7,2.65,0a115.8,115.8,0,0,1,2.82-38.51c.4-1.65-2.15-2.36-2.56-.7"/><path id="Fill-161" class="cls-7" d="M86,143.74a276.76,276.76,0,0,1,17.24,34c6.2,14.21,11.9,28.72,16.93,43.39q4.27,12.44,7.69,25.15a1.17,1.17,0,0,0,2.26-.62,428.47,428.47,0,0,0-14.78-44.44C109.83,187,104,172.8,97.12,159.12c-2.83-5.62-5.79-11.19-9.07-16.56-.79-1.28-2.81-.11-2,1.18"/><path id="Fill-163" class="cls-20" d="M168.7,232.86a5.52,5.52,0,0,0-.54-1L156.5,215.2l-53.91,35.68c-2.87.05-5.8.1-8.77.12H92.59l-9.14-17.12,4.3-4.49,51.08-31.62a4.77,4.77,0,0,1,6.44,1.32l22.9,32.78a4.68,4.68,0,0,1,.53,1"/><path id="Fill-165" class="cls-20" d="M168.7,232.66a5.11,5.11,0,0,0-.54-1L156.5,215l-53.91,35.68c-2.87,0-5.8.1-8.77.12H92.59l-9.14-17.12,4.3-4.48,51.08-31.63a4.78,4.78,0,0,1,6.44,1.32l22.9,32.79a4.38,4.38,0,0,1,.53,1"/><path id="Fill-167" class="cls-19" d="M168.9,235.57a5.17,5.17,0,0,1-.42,1.07,5.07,5.07,0,0,1-.67,1,5.47,5.47,0,0,1-.93.79l-18.24,12.08h0q-12.81-.1-25.54-.07c-6.26,0-13.19.16-20.5.27L156.5,215l11.66,16.69a5.11,5.11,0,0,1,.54,1,2.24,2.24,0,0,1,.11.34,6.09,6.09,0,0,1,.17.71,5.28,5.28,0,0,1-.08,1.86"/><path id="Fill-169" class="cls-10" d="M83.45,243.69l3.46-7,10.26,3Zm27,3.91s3.8-2.3,2.33-6.14a7.79,7.79,0,0,0-5-4.71s2.46-6-6.94-8.31-17.08-6-21.25-5.13a2.15,2.15,0,0,0-.75.3c-4.19-7.5-13.07-2.14-10.75,2.57a59.65,59.65,0,0,1,3.61,10.64c-1.14,3.21-2.08,6.23-2.67,8.06a10.21,10.21,0,0,0-.12,5.78c8.26.24,16.71.23,24.92.14,6.76-.07,13.34-.21,19.51-.29a6.93,6.93,0,0,0-2.85-2.91Z"/><path id="Fill-171" class="cls-13" d="M84.21,245.56c6.26-1.95,12.53-3.9,18.92-5.39a21,21,0,0,1,4.64-.77,3.54,3.54,0,0,1,3.55,2.86c.68,2.44-2.14,4.49-3.91,5.57-1.45.89-.12,3.19,1.34,2.29,2.42-1.49,5.14-3.78,5.33-6.84a6.29,6.29,0,0,0-6.06-6.52,23.33,23.33,0,0,0-5.86.92q-3.1.73-6.17,1.59c-4.19,1.15-8.34,2.44-12.48,3.73-1.63.51-.93,3.07.7,2.56"/><path id="Fill-173" class="cls-13" d="M85.84,232.87c-1.09,2.34-2.21,4.66-3.36,7a1.33,1.33,0,0,0,2.29,1.34c1.14-2.32,2.27-4.65,3.36-7a1.35,1.35,0,0,0-.48-1.81,1.33,1.33,0,0,0-1.81.48"/><path id="Fill-175" class="cls-13" d="M86.72,234.81l11.16,2.76c1.65.41,2.36-2.15.7-2.56l-11.16-2.76c-1.65-.41-2.36,2.15-.7,2.56"/><path id="Fill-177" class="cls-13" d="M76.45,223.19a18.36,18.36,0,0,0-2.89,6.13c-.68,2.36-1.67,4.63-2.57,6.91a1.33,1.33,0,0,0,.93,1.63,1.36,1.36,0,0,0,1.63-.92c.87-2.21,1.84-4.41,2.5-6.69a17.07,17.07,0,0,1,2.69-5.72,1.33,1.33,0,0,0-.48-1.81,1.35,1.35,0,0,0-1.81.47"/><path id="Fill-179" class="cls-21" d="M122,218.13h0a2.54,2.54,0,0,0,3.32.56L142.41,208a2.52,2.52,0,0,0,.61-3.73l-.08-.09a2.51,2.51,0,0,0-3.3-.53l-17,10.81a2.52,2.52,0,0,0-.62,3.7"/><path id="Fill-181" class="cls-13" d="M336.41,148.34a55.51,55.51,0,0,0-.3-15.5,1.34,1.34,0,0,0-1.63-.93,1.35,1.35,0,0,0-.92,1.63,54,54,0,0,1,.2,14.8,1.33,1.33,0,0,0,2.65,0"/><path id="Fill-183" class="cls-13" d="M346.83,155q.33-8.11.1-16.24c-.05-1.7-2.71-1.71-2.66,0q.24,8.11-.09,16.24c-.07,1.7,2.58,1.7,2.65,0"/><path id="Fill-185" class="cls-13" d="M355.59,157.78a76.4,76.4,0,0,0-.27-10.26A1.37,1.37,0,0,0,354,146.2a1.35,1.35,0,0,0-1.33,1.32,74.79,74.79,0,0,1,.28,10.26,1.33,1.33,0,0,0,2.65,0"/><path id="Fill-255" class="cls-14" d="M223,151.19V147a1.89,1.89,0,0,0-.54-1.29,1.84,1.84,0,0,0-1.29-.54,1.87,1.87,0,0,0-1.84,1.83v4.24a1.89,1.89,0,0,0,.54,1.29,1.83,1.83,0,0,0,3.13-1.29"/><path id="Fill-257" class="cls-14" d="M223,163v-4.23a1.91,1.91,0,0,0-.54-1.3,1.83,1.83,0,0,0-1.29-.53,1.86,1.86,0,0,0-1.84,1.83V163a1.91,1.91,0,0,0,.54,1.3A1.84,1.84,0,0,0,223,163"/><path id="Fill-259" class="cls-14" d="M224.9,156.8h4.23A1.83,1.83,0,0,0,231,155a1.85,1.85,0,0,0-1.83-1.83H224.9a1.9,1.9,0,0,0-1.3.53,1.83,1.83,0,0,0,1.3,3.13"/><path id="Fill-261" class="cls-14" d="M213.1,156.8h4.24a1.84,1.84,0,0,0,1.83-1.83,1.86,1.86,0,0,0-1.83-1.83H213.1a1.83,1.83,0,0,0-1.83,1.83,1.86,1.86,0,0,0,1.83,1.83"/><path id="Fill-263" class="cls-14" d="M312.14,199.12v-4.23a1.91,1.91,0,0,0-.54-1.3,1.83,1.83,0,0,0-3.13,1.3v4.23a1.93,1.93,0,0,0,.54,1.3,1.89,1.89,0,0,0,1.29.53,1.86,1.86,0,0,0,1.84-1.83"/><path id="Fill-265" class="cls-14" d="M312.14,210.91v-4.23a1.93,1.93,0,0,0-.54-1.3,1.9,1.9,0,0,0-1.3-.53,1.86,1.86,0,0,0-1.83,1.83v4.23a1.91,1.91,0,0,0,.54,1.3,1.83,1.83,0,0,0,3.13-1.3"/><path id="Fill-267" class="cls-14" d="M314.08,204.73h4.24a1.83,1.83,0,0,0,0-3.66h-4.24a1.83,1.83,0,1,0,0,3.66"/><path id="Fill-269" class="cls-14" d="M302.29,204.73h4.23a1.9,1.9,0,0,0,1.3-.53,1.83,1.83,0,0,0-1.3-3.13h-4.23a1.81,1.81,0,0,0-1.83,1.83,1.86,1.86,0,0,0,1.83,1.83"/><path id="Fill-271" class="cls-14" d="M310,136v-4.23a1.91,1.91,0,0,0-.54-1.3,1.83,1.83,0,0,0-3.13,1.3V136a1.93,1.93,0,0,0,.54,1.3,1.9,1.9,0,0,0,1.3.53A1.86,1.86,0,0,0,310,136"/><path id="Fill-273" class="cls-14" d="M310,147.79v-4.24a1.89,1.89,0,0,0-.54-1.29,1.83,1.83,0,0,0-3.13,1.29v4.24a1.9,1.9,0,0,0,.54,1.29,1.83,1.83,0,0,0,3.13-1.29"/><path id="Fill-275" class="cls-14" d="M312,141.6h4.23a1.81,1.81,0,0,0,1.83-1.83,1.86,1.86,0,0,0-1.83-1.83H312a1.9,1.9,0,0,0-1.3.53,1.83,1.83,0,0,0,1.3,3.13"/><path id="Fill-277" class="cls-14" d="M300.19,141.6h4.24a1.83,1.83,0,0,0,0-3.66h-4.24a1.83,1.83,0,0,0,0,3.66"/><path id="Fill-271-2" data-name="Fill-271" class="cls-14" d="M383,48V43.76a1.91,1.91,0,0,0-.54-1.3,1.83,1.83,0,0,0-3.13,1.3V48a1.93,1.93,0,0,0,.54,1.3,1.9,1.9,0,0,0,1.3.53A1.86,1.86,0,0,0,383,48"/><path id="Fill-273-2" data-name="Fill-273" class="cls-14" d="M383,59.79V55.55a1.89,1.89,0,0,0-.54-1.29,1.83,1.83,0,0,0-3.13,1.29v4.24a1.9,1.9,0,0,0,.54,1.29A1.83,1.83,0,0,0,383,59.79"/><path id="Fill-275-2" data-name="Fill-275" class="cls-14" d="M385,53.6h4.23a1.81,1.81,0,0,0,1.83-1.83,1.86,1.86,0,0,0-1.83-1.83H385a1.9,1.9,0,0,0-1.3.53A1.83,1.83,0,0,0,385,53.6"/><path id="Fill-277-2" data-name="Fill-277" class="cls-14" d="M373.19,53.6h4.24a1.83,1.83,0,0,0,0-3.66h-4.24a1.83,1.83,0,1,0,0,3.66"/><path id="Fill-271-3" data-name="Fill-271" class="cls-14" d="M23,192v-4.23a1.91,1.91,0,0,0-.54-1.3,1.83,1.83,0,0,0-3.13,1.3V192a1.93,1.93,0,0,0,.54,1.3,1.9,1.9,0,0,0,1.3.53A1.86,1.86,0,0,0,23,192"/><path id="Fill-273-3" data-name="Fill-273" class="cls-14" d="M23,203.79v-4.24a1.89,1.89,0,0,0-.54-1.29,1.83,1.83,0,0,0-3.13,1.29v4.24a1.9,1.9,0,0,0,.54,1.29A1.83,1.83,0,0,0,23,203.79"/><path id="Fill-275-3" data-name="Fill-275" class="cls-14" d="M25,197.6h4.23a1.81,1.81,0,0,0,1.83-1.83,1.86,1.86,0,0,0-1.83-1.83H25a1.9,1.9,0,0,0-1.3.53A1.83,1.83,0,0,0,25,197.6"/><path id="Fill-277-3" data-name="Fill-277" class="cls-14" d="M13.19,197.6h4.24a1.83,1.83,0,1,0,0-3.66H13.19a1.83,1.83,0,1,0,0,3.66"/></g><path id="Fill-173-2" data-name="Fill-173" class="cls-1" d="M261.56,176.18a1.84,1.84,0,0,0-.33,0,1.94,1.94,0,0,0-.33-.07A14,14,0,0,0,251.71,202a2.73,2.73,0,0,0,.93.33,2.65,2.65,0,0,0,1.74-4.9,8.72,8.72,0,0,1,5.72-16.16l.33,0a1.94,1.94,0,0,0,.33.07,8.73,8.73,0,0,1,.61,17.14,2.64,2.64,0,0,0,.18,5.19,2.55,2.55,0,0,0,1,0,14,14,0,0,0-1-27.51"/><path id="Fill-175-2" data-name="Fill-175" class="cls-1" d="M264.42,190.81a5.35,5.35,0,1,0-6.1,4.48,5.35,5.35,0,0,0,6.1-4.48"/><path id="Fill-173-3" data-name="Fill-173" class="cls-1" d="M173.73,169.59l-.25.1-.26.07a11.32,11.32,0,0,0,2.65,22.08,2.09,2.09,0,0,0,.79-.09,2.14,2.14,0,0,0-.5-4.17,7,7,0,0,1-1.65-13.75l.25-.1.26-.07a7.05,7.05,0,0,1,6.59,12.19,2.13,2.13,0,0,0,2,3.69,2.1,2.1,0,0,0,.71-.37,11.33,11.33,0,0,0-10.58-19.58"/><path id="Fill-175-3" data-name="Fill-175" class="cls-1" d="M181.05,179.17a4.32,4.32,0,1,0-2.81,5.42,4.32,4.32,0,0,0,2.81-5.42"/><path class="cls-6" d="M56.5,96c2.06-2.89,11.1-10.94,14-13,31-22,61.62-35.18,96-45-2-5-2.07-5.23-3.61-7.45-10.3-14.78-24.59-24.54-43-25.7C102.71,3.76,84,10,70.68,20.8,56.76,32.07,49.46,50,50.54,67.67A106.87,106.87,0,0,0,56.5,96Z"/><path class="cls-22" d="M134.3,47.74c-1.88-3.73-4.13-7.26-6-11a1.53,1.53,0,0,0-2.06-.54,1.55,1.55,0,0,0-.54,2.06c1.88,3.73,4.13,7.26,6,11a1.53,1.53,0,0,0,2.06.54,1.55,1.55,0,0,0,.54-2.06Z"/><path class="cls-13" d="M126.56,36.34l28.3-11.13a13.06,13.06,0,0,0,2.54-1.46.74.74,0,0,0-.17-.52C155,19.76,150.15,16,146.5,14c-5.53-3-12.75-.58-17.32,3.72A15.49,15.49,0,0,0,125.84,35"/><path class="cls-22" d="M137.28,41.79a1.5,1.5,0,0,0,0-3,1.5,1.5,0,0,0,0,3Z"/><path class="cls-22" d="M143.71,39a1.5,1.5,0,0,0,0-3,1.5,1.5,0,0,0,0,3Z"/><path class="cls-22" d="M150.28,36.26a1.5,1.5,0,0,0,0-3,1.5,1.5,0,0,0,0,3Z"/><path class="cls-22" d="M156.1,33.87a1.5,1.5,0,0,0,0-3,1.5,1.5,0,0,0,0,3Z"/></svg>