<svg id="Layer_1" data-name="Layer 1" xmlns="http://www.w3.org/2000/svg" xmlns:xlink="http://www.w3.org/1999/xlink" viewBox="0 0 400 250"><defs><style>.cls-1{fill:none;}.cls-2{fill:#2d2d2d;}.cls-10,.cls-11,.cls-12,.cls-13,.cls-14,.cls-15,.cls-16,.cls-17,.cls-18,.cls-19,.cls-2,.cls-20,.cls-21,.cls-22,.cls-23,.cls-24,.cls-25,.cls-26,.cls-27,.cls-28,.cls-29,.cls-30,.cls-31,.cls-32,.cls-6,.cls-7,.cls-8,.cls-9{fill-rule:evenodd;}.cls-3{clip-path:url(#clip-path);}.cls-4{clip-path:url(#clip-path-2);}.cls-5,.cls-6{fill:#66cee6;}.cls-7{fill:#006880;}.cls-8{fill:#33bede;}.cls-9{fill:#a5d162;}.cls-10{fill:#d18070;}.cls-12{fill:#6db83f;}.cls-13{fill:#545454;}.cls-14{fill:#b3e7f3;}.cls-15{fill:#a5a5a5;}.cls-16{fill:#b1e5f1;}.cls-17{fill:#04ca17;}.cls-18{fill:#004656;}.cls-19{fill:#fff;}.cls-20{fill:#007a0e;}.cls-21{fill:#00aa13;}.cls-22{fill:#ee2737;}.cls-23{fill:#b4202d;}.cls-24{fill:#023138;}.cls-25{fill:#f8a9af;}.cls-26{fill:#02acd4;}.cls-27{fill:#0089a9;}.cls-28{fill:#ffd51c;}.cls-29{fill:#3a3a3a;}.cls-30{fill:#404040;}.cls-31{fill:#e6e6e6;}.cls-32{fill:#008bab;}.cls-33{clip-path:url(#clip-path-3);}.cls-34{clip-path:url(#clip-path-5);}</style><clipPath id="clip-path"><rect class="cls-1" x="-419.5" width="399" height="250"/></clipPath><clipPath id="clip-path-2"><rect class="cls-1" x="-223.4" y="150.77" width="223.9" height="335.38"/></clipPath><clipPath id="clip-path-3"><rect class="cls-1" x="181.39" y="147.7" width="13.32" height="5.86" transform="translate(-25.28 38.64) rotate(-11)"/></clipPath><clipPath id="clip-path-5"><rect class="cls-1" x="289.47" y="171.93" width="15.81" height="7.43" transform="translate(-16.45 31.43) rotate(-5.89)"/></clipPath></defs><title>Website Illustrations</title><path class="cls-2" d="M27.05,187c1.95,7.94,10,13.92,17.83,16.36s16.25,1.8,24.27.19a4.37,4.37,0,0,0,2.63-1.2,5.15,5.15,0,0,0,.83-2.64A17.47,17.47,0,0,1,77,190.56l-7-6c.09,14.94-24.49,19.53-34.1,11.73A41.46,41.46,0,0,1,27.5,187a.33.33,0,0,0-.26-.13C27.13,186.86,27,186.89,27.05,187Z"/><path class="cls-5" d="M375.18,102.48c3.34,14.34,11.68,50.68,15,65,.21.92,3.63-.47,3.41-1.39-3.34-14.33-11.68-50.67-15-65-.22-.92-1.63-.53-1.41.39Z"/><path class="cls-6" d="M397.11,256.62c1-18.11,13.15-42.45-6.61-103.62-9.17,19-26.41,40.27-40.49,57,10.95,9.46,21.58,19.23,32.52,28.69,1.54,1.34,12.74,18,14.28,19.29A2.89,2.89,0,0,0,397.11,256.62Z"/><g id="core_spot_hero_spot_hero_welcome_screen_transport_logistic" data-name="core/spot_hero/spot_hero_welcome_screen_transport_logistic"><path id="Fill-3" class="cls-7" d="M168.05,106.91c-.29-.57-25.64,84.4-25.64,84.4l217.47,3.17L358.15,102Z"/><polygon id="Fill-5" class="cls-8" points="153.07 111.81 126.28 191.88 149.04 191.88 168.05 106.91 153.07 111.81"/><path id="Fill-7" class="cls-6" d="M69.38,256.2q10.26.57,20.47,1.86c11.67,1.47,22.55,4.63,34.25,3.63,13.11-1.12,26.27-1.85,39.39-3,39.07-3.35,78.12-7.07,117.29-9.3,10.9-.62,21.81-1.15,32.73-1.22V197.36l-56.25.83-110.32,1.64-48.08.71c-17.28.25-28.69-1.77-43,8Q34.66,223.13,15,239.49c-4.43,3.69-9.1,8-9.5,13.54,13.32,4.29,27.84,3,41.93,2.77Q58.41,255.59,69.38,256.2Z"/><path id="Fill-9" class="cls-9" d="M128.44,195.34s.87-8.78,3.75-13.25,5.9-8.64,8.06-9.79,21.75-11.52,30.39-12.53,20.31-2.31,35.86,3.45,15.12,5.62,17.86,8.5,12.82,17.57,12.67,21.75-108.59,1.87-108.59,1.87"/><path id="Fill-11" class="cls-10" d="M222.57,146.11S216,132.67,215.69,131s.37-2.65,1.21-3,2.14,0,3.07,1.72,6.6,10.19,7.3,10.56.46-2.05.37-5,.05-10.37.65-11.77a2.08,2.08,0,0,1,3.58-.28c.75,1.35,1.72,14.61,1.72,14.61a2.3,2.3,0,0,1,2.61-1.59,4.29,4.29,0,0,1,3.3,2.66s2.56-.93,3.21,1.16.18,4.14.42,4.74a9.17,9.17,0,0,1,1.11,7.35c-1,4.65-2.09,6.28-2.09,7a16.63,16.63,0,0,0,1.26,3.3L230,167.6s-.05-6.56-1.45-7.3a31.91,31.91,0,0,1-6.65-5.58c-1-1.49.1-7.31.7-8.61"/><polygon id="Fill-13" class="cls-9" points="228.25 166.39 243.08 160.92 255.81 191.64 231.42 193.47 228.25 166.39"/><path id="Fill-15" class="cls-11" d="M227.1,167q2,12.42,3.3,24.92c.12,1.1,1.84,1.11,1.73,0q-1.35-12.72-3.37-25.37c-.17-1.1-1.83-.63-1.66.45"/><path id="Fill-17" class="cls-12" d="M194.19,157s4,6,3.67,9.61-4.64,16.09-6.59,15.77-7-10.37-7-10.37-1.19-1.3-1.94.11-4.54,8.31-6.27,8.85-9.07-14.15-9.39-16.2,3.56-7.45,5.07-8.21,22.47.44,22.47.44"/><path id="Fill-19" class="cls-13" d="M156.28,142.85l28.29,46.44-13-1.73s-10.47-30.67-22.46-45.79Z"/><path id="Fill-21" class="cls-14" d="M150,143.29l7.09.43a1.29,1.29,0,0,0,1.32-.92c.72-2.42,2.41-8.55,1.38-9.82-1.3-1.58-6-2.16-8.15-.86-1.69,1-2.54,7-2.84,9.73a1.29,1.29,0,0,0,1.2,1.44"/><path id="Fill-23" class="cls-11" d="M199.05,140.58s6,.75,6.59-11S201,112,186.74,109.36s-20.85.76-27.12,8.32S154,129.78,154.76,134s10.48,26.14,14,22.14c0,0,2.27,3.78,4.87,1.4s7.12-24,7.12-24Z"/><path id="Fill-25" class="cls-10" d="M198.29,121.75s5.33,24.34,3.75,29.66-8.36,8.07-8.36,8.07l.29,5.62-8.35,7.63-1.87,6.34L181,172.44l-9.51-8.93V148.68s-2.15,2.73-5.47-.72a8.53,8.53,0,0,1-2.45-8.5c.44-1.87,3.75-3,5.33-1.73s3.6,1.59,3.75-.57-2.16-8.79.86-13.11,15-10.66,24.77-2.3"/><path id="Fill-27" class="cls-11" d="M171.5,148.68s.36-.58,1.16.93,2.23,9.29-1.23,8.5-1.94-5.62-1.94-5.62Z"/><path id="Fill-29" class="cls-11" d="M188.26,135.87c.53,1.5,1.07,3,1.54,4.53.18.6.68,1.63.34,2.25a.43.43,0,0,1-.82-.22.87.87,0,0,0-1.73,0,2.17,2.17,0,0,0,2.6,2.13,2.45,2.45,0,0,0,1.7-3,18.45,18.45,0,0,0-.9-3.12c-.34-1-.71-2-1.07-3.05a.88.88,0,0,0-1.06-.6.86.86,0,0,0-.6,1.06"/><path id="Fill-31" class="cls-11" d="M164.88,137s1.66-1.29,4.54,1.15,3.88,3.75,5.18,2.24-.5-6.7-.5-6.7,12.6-5,15.12-14.19c0,0,7.13,7.35,12.1,5.62s-3.39-14.26-14-11.66-25.93,7.12-22.47,23.54"/><path id="Fill-47" class="cls-10" d="M144,173.31l-2.48,1.29s-1.73,5.73-.87,9.18,8.64-3.24,8.64-3.24l6.59-11.34Z"/><path id="Fill-49" class="cls-11" d="M206.18,191.88s-.33-16.95-24.09-24.3-40.07,9.29-42,17.5l8-1.08s3.56-9.4,20.3-11.13,27.11,8.75,29.49,15.77,8.32,3.24,8.32,3.24"/><path id="Fill-51" class="cls-10" d="M142.62,176.34s5.21,3.4,6.89,2.47,1.44-1.86,1.21-2.52l-4.42-2.18s3,.09,3.95,0c0,0,2.84,5.35,3.91,5.58s2.56.46,3.07-.88c0,0,2.14,2.18,4.14.93,0,0,.93-.1-.42-2.7s-3-8.51-3.82-8.88,2.05.74,2.05.74,4.37,4.84,6.88,4.19a1.33,1.33,0,0,0,1.07-1.31c0-1.07-3.81-5.25-5.62-6.14a24.94,24.94,0,0,0-8.66-1.67,3.37,3.37,0,0,0-3.44,2.14,4.4,4.4,0,0,0-3.81,2.14s-2,1.91-2.23,3.63c0,0-2.51,2.23-2,3.44s1.25,1,1.25,1"/><path id="Fill-53" class="cls-2" d="M95.22,201.07H257.16V189s-49.58,1.08-54.65,0-15.56-9.4-22.15-10.26-30.24,0-33.48.86-16.31,7.78-17.72,8c-1.08.17-29.1.4-34.88.5.25,4.42.75,8.86,1.13,13.1"/><path id="Fill-55" class="cls-6" d="M361.67,90.8c-14.49-2.21-121-1.87-183.19-1.32-18.58,4.87-36.06,10.69-39.81,14-4.38,3.83-7.7,9.49-11.08,14.16-17.43,24.06-33.22,49.27-52,72.32a24.33,24.33,0,0,0-4.4,6.77c-.92,2.54-.85,5.62.88,7.7,2.06,2.46,17.85,2.54,20.62.37,4.14-3.25,2-8.34,3.64-12.81,1.7-4.74,5-8.69,7.82-12.8q7.38-10.86,14.63-21.84c6.79-10.24,13.14-21,20.51-30.83,3.46-4.61,9.22-12.39,18.15-12.39s182.91.58,186.94,1.44S338.57,240,338.57,240l16.85-3.66s11-110.09,11-123c0-6.75,9.51-9.58,12.73-11.28A26.73,26.73,0,0,0,361.67,90.8"/><path id="Fill-79" class="cls-15" d="M265.4,202.64c.72,2.06,1.51,4.13,2.36,6.19,7.22-5.08,7.33-17.7,7.33-17.7l-4.1-1.08c-.48,7.4-3.81,11.11-5.59,12.59"/><path id="Fill-81" class="cls-11" d="M260.28,188.92A89.46,89.46,0,0,0,266,210.78c.57,1.47,3,.83,2.39-.66a87.07,87.07,0,0,1-5.6-21.2c-.18-1.56-2.66-1.58-2.48,0"/><path id="Fill-83" class="cls-15" d="M328.23,198.8s-17.6,4.75-26-10.91l5.4-5.4L321.11,187Z"/><path id="Fill-111" class="cls-16" d="M351,128.54c-1.21,1.62-2.38,3.29-3.59,4.92l-.51.67-.23.3-.08.11-1,1.27a27.27,27.27,0,0,1-1.91,2.12,1.55,1.55,0,1,0,2.19,2.19,43.83,43.83,0,0,0,4.13-5c1.25-1.67,2.44-3.37,3.68-5a1.55,1.55,0,0,0-.55-2.12,1.59,1.59,0,0,0-2.12.56"/><path id="Fill-113" class="cls-16" d="M358.23,137.54a117.13,117.13,0,0,1-10.59,7.24,1.55,1.55,0,0,0,1.56,2.67,117.13,117.13,0,0,0,10.59-7.24,1.59,1.59,0,0,0,.55-2.11,1.55,1.55,0,0,0-2.11-.56"/><path id="Fill-135" class="cls-11" d="M289.24,224.36s-2,4.11-.14,6,4.82,3.17,8.49.86-8.35-6.91-8.35-6.91"/><path id="Fill-179" class="cls-17" d="M362.64,125.25a4.12,4.12,0,0,0,1.8,2.48,39.64,39.64,0,0,0,.09-6.7"/><path id="Fill-181" class="cls-18" d="M293.69,164.56s.64,14.83-11.5,20.32a11.33,11.33,0,0,0,5-.51c3.07-.89,9.84-8.82,10.35-17.25a17.1,17.1,0,0,1-3.83-2.56"/><path id="Fill-213" class="cls-11" d="M185.08,161c7.38,1.2,15.88-.7,18.65-8.48,1.09-3.07.68-6.29.44-9.47a78.09,78.09,0,0,0-1-9.15c-.34-1.67-2.89-1-2.56.71a65.79,65.79,0,0,1,.89,7.8c.21,2.65.7,5.55.07,8.17-1.7,7.12-9.36,8.9-15.75,7.86-1.67-.28-2.39,2.28-.71,2.56"/><path id="Fill-219" class="cls-19" d="M333.7,207.43c5.36-1.71,10.74-3.27,16-5.28a1.27,1.27,0,0,0,.86-1.52,1.24,1.24,0,0,0-1.52-.87c-5.26,2-10.64,3.58-16,5.28-1.51.48-.86,2.87.66,2.39"/><path id="Fill-63" class="cls-18" d="M295.73,247.21l-2.49,8.63c22.75-.12,45.31-.26,63.44-.4l2.38-10.13-35-8.57Z"/><path id="Fill-67" class="cls-20" d="M288,166.51s-18.46,1.66-23.22,6.78-27,29.52-29.64,32.26-13.33,7.38-16.07,9.4,7.14,9.29,12.26,8.34,19.29-8.69,25.83-10.72,23.1-9.4,28.81-9.4,6.55-34.52,2-36.66"/><path id="Fill-69" class="cls-11" d="M236.37,219.72c-2.19-6.72-6.67-8.46-10.07-8.73a76.4,76.4,0,0,0-7.19,4c-2.74,2,7.14,9.29,12.26,8.34a31.29,31.29,0,0,0,5.42-1.85,12.3,12.3,0,0,0-.42-1.72"/><path id="Fill-71" class="cls-11" d="M264.82,173.29c-3.68,4-17.82,19.44-25.26,27.53l2.17,17.23,2.51.06a131.46,131.46,0,0,1,13-5.54c4.07-1.26,12-4.59,18.82-6.93-14.5-10-10.06-27-6.6-35.17a13.32,13.32,0,0,0-4.61,2.82"/><path id="Fill-73" class="cls-15" d="M241.33,219.44c1.42-.64,2.87-1.31,4.32-2l-5-17.83-3.13,3.4Z"/><path id="Fill-75" class="cls-21" d="M290.54,171s-13.34,7.14-8.81,25.71,17.62,42.38,26.42,47.14,23.57,5.24,32.15,5.48,41.9-4.76,44.28-10.24-26.19-45-34.05-53.09-36.66-26.19-60-15"/><path id="Fill-77" class="cls-20" d="M308.93,197c1.33,9.16,2.67,18.33,4.77,27.36,1.81,7.74,4.23,15.49,9.26,21.79.82,1,2.26-.43,1.44-1.45-5-6.25-7.2-14.15-8.94-21.81-2-8.73-3.27-17.59-4.55-26.43-.19-1.3-2.17-.75-2,.54"/><path id="Fill-85" class="cls-20" d="M329.82,161.51s12.26-2.27,20.36,4.4,28.09,19.05,39.64,35.83,4.64,25.83,1.66,27.26-34.28,8.69-48.8,7.5c0,0-4.77.95-7.15-17.86,0,0-.59-3.21,2.5-3.92s18.45-5.24,18.45-5.24-17.61-26.9-20.23-32-6.43-16-6.43-16"/><path id="Fill-87" class="cls-11" d="M389.82,201.74c-11.09-16.11-30-28.16-38.61-35,2.05,6.23,6.92,23.93,0,34.7l5.23,8,2-.83,4.28.35s15.72,12,19.71,22.45a69,69,0,0,0,9-2.45c3-1.43,9.88-10.47-1.66-27.26"/><path id="Fill-89" class="cls-11" d="M350.11,236.52c1.38-1.21,2.09-3.35,2.21-8.23.22-9-5.88-13.21-9.64-14.82-2.08.58-3.81,1.05-4.65,1.25-3.09.71-2.5,3.92-2.5,3.92,2.38,18.81,7.15,17.86,7.15,17.86a57.07,57.07,0,0,0,7.43,0"/><path id="Fill-91" class="cls-22" d="M297.26,255.73c0-3-.34-5.9-1.41-7.56-2.85-4.45-46.82,1.58-51,1-3-.46-8.19,4.29-10.79,6.91,20-.07,42.2-.18,63.15-.3"/><path id="Fill-93" class="cls-23" d="M278.83,234.2s-9,11.81-3,15.51c5.39-1.57,10.62-2.77,13.83-2.7a31.63,31.63,0,0,1,6-3.61c6-2.69,9.89-4.76,9.89-6.9s-26.71-2.3-26.71-2.3"/><path id="Fill-95" class="cls-19" d="M227.18,192.14a69.6,69.6,0,0,0,4.27,6.61,8.14,8.14,0,0,1,1.55,3.38c.26,2.4.35,4.82.53,7.23.12,1.61,2.65,1.63,2.53,0-.17-2.46-.28-4.92-.54-7.37a9.79,9.79,0,0,0-1.68-4.21,76.27,76.27,0,0,1-4.47-6.92c-.72-1.46-2.91-.18-2.19,1.28"/><path id="Fill-97" class="cls-2" d="M232.39,214.48s-.27-5.39.32-6.29,3.66-1.54,4.66-.63,1,4.24,1,4.24Z"/><path id="Fill-99" class="cls-2" d="M227.21,218.29s-24.05,3.45-26.19,4.88-2.62,6.78.12,8S226,227.57,226,227.57Z"/><path id="Fill-105" class="cls-24" d="M281.48,164.61a52.54,52.54,0,0,0,.68-16.14l-7.38.8c.24,11.52,4,15.51,6.7,15.34"/><path id="Fill-129" class="cls-11" d="M223.87,228.76s-6.66,2.15-7.73,3.22-1.55,4.4-.12,5.12,8.33,0,10.47-4.41-2.62-3.93-2.62-3.93"/><path id="Fill-131" class="cls-25" d="M227.21,218.29s-1.31-3.45-3.81-4a10.34,10.34,0,0,0-8.34,1.43s-4.28-.36-6.78.59-3,2-3.93,3.93-2.38,6.31-2.26,8.69,3.57,6.19,5.24,6.43,2.38-1.55,2.38-1.55,1.9,2.86,3.45,2.5a4.14,4.14,0,0,0,3-2.62s2.73,1.67,4.4-.59l.36-1.31s2.5,2.14,3.93-.12,3.09-9.17,3.09-9.17Z"/><path id="Fill-133" class="cls-11" d="M222.85,218.8c-.06,1.49-.11,3-.17,4.45a1,1,0,0,0,.95.95,1,1,0,0,0,1-.95c.06-1.48.12-3,.17-4.45a1,1,0,0,0-.95-1,1,1,0,0,0-1,1"/><path id="Fill-137" class="cls-11" d="M282.32,140.91s-7.26,13-3.57,36.43,22.26,32.5,33.93,33.57,16.78-3.93,13.69-10.6-15.6-11.54-18.33-13.69-20-23.09-16.19-35.23-9.53-10.48-9.53-10.48"/><path id="Fill-139" class="cls-25" d="M281.25,143.57s.36,25.44,3.33,34.28c3.26,9.67,12.38,9.49,21.91,4.73l7.46,4.8,10.47-9s-5.55-37.93-12.22-39.05-30.95,4.29-30.95,4.29"/><path id="Fill-141" class="cls-11" d="M292.57,161.06c-.41,1.12-.81,2.24-1.19,3.37a20.5,20.5,0,0,0-1,3.44c-.2,1.4.33,2.95,1.87,3.28a2.4,2.4,0,0,0,2.87-2.35,1,1,0,0,0-1.9,0,.47.47,0,0,1-.9.24c-.37-.69.16-1.8.37-2.47.51-1.69,1.11-3.34,1.7-5a.95.95,0,0,0-1.83-.51"/><path id="Fill-147" class="cls-11" d="M316.73,140.32s-7.26,19.41.47,34.76c7.62,15.11,16.45,24,35.23,21.47a16.4,16.4,0,0,0,6.8-2.49c3-2,5.88-5.36,2.61-10.29-5.77-8.72-20.95-10.72-25.24-15.72s-5.71-8.21-7.5-16.66-12.37-11.07-12.37-11.07"/><path id="Fill-149" class="cls-18" d="M275.61,140.37c3-5.75,7.42-12.35,12.56-14.57h0c8.88-3.82,19.84-5.32,28.72-1.36,18.2,8.11,17.28,25.21,16.65,32-.66,7-5.41,11.92-13.15,10.3-7.42-1.55-4.93-19.48-4.84-21.44,0-.09,0-.13,0-.13l-9.61.57s-17.59,1-26.61,3.08l-4.32.41c0,.13,0,.26,0,.39l-.25,0a27.89,27.89,0,0,1,.85-9.24"/><path id="Fill-151" class="cls-17" d="M325.57,135.33a4.64,4.64,0,0,1,4.53.6,25.4,25.4,0,0,0-3.62-4.89c-3.07-.5-6.39.27-7.6,2.88-1.69,3.67-.87,9.5,1.75,14.41s6.91,5.64,9.41,5.24a2.7,2.7,0,0,0,2.21-3.75c-.4-1.21-1-1.72-3-1.51a5.91,5.91,0,0,1-6.13-4.62c-1.07-3.71-.52-7.05,2.42-8.36"/><path id="Fill-153" class="cls-24" d="M314.32,165.65c3.54,3.4,9.62,1.28,10.35,1.26-.26-.51-10.42,1-8.85-21.77a10.29,10.29,0,0,1-.26-2l-5.4.57c-.09,2-.42,17.56,4.16,22"/><path id="Fill-155" class="cls-17" d="M281.42,148.35c3.95-.76,8.93-1.35,13.37-1.78-.52-5-.17-12.19,4.67-17.71a20.16,20.16,0,0,1,10.29-6.44c-6.24-1-13,.18-19,2.35-8.59,6.84-9.7,17.13-9.37,23.58"/><path id="Fill-157" class="cls-26" d="M288.18,125.8c1.07.13,2.21.3,3.46.5a78.44,78.44,0,0,1,26.13,9.89c10.17,5.3,9.23,15.78,4.1,15s-5-5.94-5-5.94h-1.3L275,149.58l-.25,0c0-.31-2-17.09,13.42-23.81"/><path id="Fill-159" class="cls-27" d="M278.63,149.17l14.28-1.53c-.65-5,1.42-12.93,6.55-18.78.18-.21.38-.42.57-.62a74.68,74.68,0,0,0-8.39-1.94c-.78-.13-1.52-.24-2.23-.34-7.56,7-11.16,17.16-10.78,23.21"/><path id="Fill-161" class="cls-16" d="M269.7,150l5.06-.35c0-.26.19-17.2,13.42-23.81-11.19-1.36-13.83.44-17.47,6.72-3.16,5.46-2.9,11.85-2.95,15.66A1.74,1.74,0,0,0,269.7,150"/><path id="Fill-163" class="cls-17" d="M331.24,140.61c.67,1.91,0,3.86-1.4,4.36s-3.14-.63-3.8-2.54,0-3.86,1.4-4.36,3.14.64,3.8,2.54"/><path id="Fill-185" class="cls-22" d="M302.92,215.07c-1.78-.78-11.56-.29-19.05-4.12-13.14-6.71-22.24-9.95-26.43-9-6.38,1.49-14.29,6.78-24.57,9.93a11.47,11.47,0,0,0-6.3,4.83c-2.62,4.1-6.16,10.29-5.08,12.14,1.67,2.86,21.43,15.72,22.86,24.05a21,21,0,0,0,.73,3.06L265,255.9c7.34-2.59,14.16-5.59,14.16-5.59s-1.43-5.95,7.14-8.57,17.38-1.19,19.29-5.24,1.66-19.52-2.62-21.43"/><path id="Fill-187" class="cls-28" d="M239.35,217.42a4.74,4.74,0,0,0-6.07,2.69c-2.15,4.29-8.33,15.3-5.48,21.48s17,4,29.64,2.28,16.07-2.15,14.88-9.67,3.69-5.9,6.55-13.42-2-6.85-8.45-5-17.26,3.09-31.07,1.61"/><path id="Fill-189" class="cls-19" d="M300.26,191.71a81.42,81.42,0,0,0-8.07,8.44c-1.22,1.52-1.41,3-1.61,4.94s-.41,4-.62,6.07c-.17,1.62,2.37,1.61,2.53,0,.19-1.79.37-3.57.55-5.36a15.33,15.33,0,0,1,.34-2.71,5.13,5.13,0,0,1,1.2-1.86,104.77,104.77,0,0,1,7.47-7.73c1.19-1.12-.6-2.91-1.79-1.79"/><path id="Fill-191" class="cls-29" d="M290.13,216.58c-1.27-.14-2.15-1-2-2,.22-1.79.72-5.34,1.31-5.8a5,5,0,0,1,4.2-.19c.88.63,1.75,4.67,1.67,6.1-.06,1-2.9,2.19-5.15,1.93"/><path id="Fill-193" class="cls-29" d="M298.46,193.86l1.3,1.8A1,1,0,0,0,301,196l3.71-1.68s16.79.65,20.12-.48,10.89-10.18,11.73-14.17-2.21-5.29-6.19-5.59-16.73-.77-20.6,1.61-6.78,5.53-7.62,8.39a53.82,53.82,0,0,1-3.74,8.71,1,1,0,0,0,.06,1.09"/><path id="Fill-195" class="cls-29" d="M228.42,194a.74.74,0,0,1-.94.22l-2.73-1.48s-12.64,0-15.1-1.07-7.82-8.54-8.3-11.77,1.85-4.18,4.86-4.29,12.59-.05,15.41,2,4.9,4.68,5.42,7a31.76,31.76,0,0,0,2.88,6.59,1.24,1.24,0,0,1-.2,1.49Z"/><path id="Fill-197" class="cls-15" d="M364.46,207.22l-5.95,1.43a75.72,75.72,0,0,1,21.82,23.28c2-.43,3.75-.85,5.3-1.23-7.53-18-21.17-23.48-21.17-23.48"/><path id="Fill-199" class="cls-23" d="M296.42,225.46c-.7,5.17,1.35,9.72,4.6,10.16s6.45-3.38,7.15-8.55-1.35-9.72-4.59-10.17-6.45,3.39-7.16,8.56"/><path id="Fill-201" class="cls-30" d="M319.46,223.4l-14.23-1.91a5,5,0,1,0-1,10l14.67,1Z"/><path id="Fill-203" class="cls-25" d="M339.41,217.08l-5.07-.58a100.45,100.45,0,0,0-15.55-.08s-3.41-1.9-5-1.11-7,8.18-7.54,9.84,4.68,8.1,7.06,9.37c0,0,.8,2.54,2.15,2.62a10.38,10.38,0,0,0,3.09-.48s.4,2,1.59,1.9a15.48,15.48,0,0,0,4-1.66,2.74,2.74,0,0,0,3.17,2.14c2.7-.32,6.59-3.09,7.3-5.32V231.5a12.05,12.05,0,0,0,9.64-.12c3.4-8.75-1.92-12.45-4.81-14.3"/><path id="Fill-205" class="cls-30" d="M331.29,225.6s-.79,6.8-.76,8a43.18,43.18,0,0,0,7.37.52c2.16-.25,4.46-7.86.24-8.3a41.88,41.88,0,0,0-6.85-.22"/><path id="Fill-207" class="cls-11" d="M335,229.25c-.73,2.28-.14,4.5,1.32,4.94s3.22-1,3.94-3.33.14-4.5-1.32-4.94-3.22,1-3.94,3.33"/><path id="Fill-209" class="cls-18" d="M370.23,255.2c6.27-.06,12.89,0,18.94-1.91,4.14-1.27,4.48-5.59,3.55-9.21-1.16-4.46-5.51-7.56-9.09-10.2a49,49,0,0,1-18.81,6.91c-11.19,1.66-27.14-1.19-31.91,7.85a38.63,38.63,0,0,0-2.7,6.88c17.05-.12,31.33-.24,40-.32"/><path id="Fill-217" class="cls-11" d="M339.8,216.56l35.81-10.77c1.68-.51,1-3.14-.72-2.63l-35.82,10.77c-1.67.51-1,3.14.73,2.63"/><path id="Fill-221" class="cls-11" d="M348.89,236.71c7.38-.81,14.72-1.9,22-3.09,3.57-.59,7.15-1.17,10.72-1.79A30.32,30.32,0,0,0,391,228.9c1.54-.85.16-3.2-1.38-2.36a28.29,28.29,0,0,1-8.91,2.69c-3.5.61-7,1.18-10.51,1.76-7.08,1.15-14.18,2.21-21.31,3-1.73.19-1.75,2.92,0,2.73"/><path id="Fill-223" class="cls-19" d="M292.79,159.25c-.59,1.05-2.49,1.43-3.1,1.52a16.88,16.88,0,0,1-3.69.11,4.33,4.33,0,0,1-1.91-.49,1.73,1.73,0,0,1,0-3.15,7.92,7.92,0,0,1,2-.68c1.78-.39,5.42-.58,6.5.57a1.9,1.9,0,0,1,.21,2.12"/><path id="Fill-225" class="cls-11" d="M289.53,160.42c-2.31.6-3.24-3-.93-3.6a1.86,1.86,0,0,1,.93,3.6"/><path id="Fill-227" class="cls-19" d="M307.57,157.38c-.54,1.07-2.42,1.54-3,1.66a16.9,16.9,0,0,1-3.69.27,4.4,4.4,0,0,1-1.93-.4,1.73,1.73,0,0,1-.12-3.14,8,8,0,0,1,1.94-.78c1.77-.47,5.39-.82,6.52.27a1.9,1.9,0,0,1,.31,2.12"/><path id="Fill-229" class="cls-11" d="M304.48,158.62a1.86,1.86,0,0,1-1.09-3.55,1.86,1.86,0,0,1,1.09,3.55"/><path id="Fill-231" class="cls-11" d="M299.43,152.12a14.61,14.61,0,0,1,1.92-1.19l.24-.11c.2-.1-.2.05,0,0l.51-.16c.18-.05.36-.08.55-.12s-.21,0,0,0l.29,0a7.85,7.85,0,0,1,1,0l.25,0c-.14,0-.18,0,0,0l.49.11.47.14s.36.14.17.06l.1,0c.15.07.28.15.42.23l.19.13c.18.11-.25-.22,0,0a1.46,1.46,0,0,0,2.06-2.07,7.23,7.23,0,0,0-5-1.64,9.49,9.49,0,0,0-5.1,2,1.49,1.49,0,0,0-.53,2,1.47,1.47,0,0,0,2,.53"/><path id="Fill-233" class="cls-11" d="M285,153.6l.33-.32.18-.15c-.09.08-.15.1,0,0a8.92,8.92,0,0,1,.85-.49c.18-.1-.22.07,0,0l.22-.08a3.81,3.81,0,0,1,.45-.13l.22,0,.1,0h.34l.43,0c.25,0-.06,0-.06,0l.22,0a8.93,8.93,0,0,1,.89.23,2.41,2.41,0,0,1,.43.16c-.15-.1-.13,0,0,0l.2.1a5.52,5.52,0,0,1,.77.48,1.47,1.47,0,0,0,2-.53,1.5,1.5,0,0,0-.52-2,7.51,7.51,0,0,0-4.48-1.42,6.75,6.75,0,0,0-4.61,2.1A1.46,1.46,0,1,0,285,153.6"/><path id="Fill-235" class="cls-11" d="M314.71,221.89a44,44,0,0,0-1.19,12c0,1.22,1.94,1.23,1.9,0a42.32,42.32,0,0,1,1.12-11.49,1,1,0,0,0-1.83-.5"/><path id="Fill-237" class="cls-11" d="M318.9,225.93a33.3,33.3,0,0,0-1,8.67,1,1,0,0,0,1.9,0,31.54,31.54,0,0,1,.91-8.16c.29-1.19-1.54-1.7-1.83-.51"/><path id="Fill-239" class="cls-11" d="M324.66,227.14a27.18,27.18,0,0,0-1.07,8.65c.05,1.22,2,1.22,1.9,0a25.51,25.51,0,0,1,1-8.15,1,1,0,0,0-1.83-.5"/><path id="Fill-241" class="cls-11" d="M313.92,224.57a8.77,8.77,0,0,1-.91.81l.2-.15a8.49,8.49,0,0,1-1.49.91,1,1,0,0,0-.44.57.93.93,0,0,0,.1.73.92.92,0,0,0,.56.44,1.07,1.07,0,0,0,.74-.1,8.66,8.66,0,0,0,2.58-1.87,1,1,0,0,0,.28-.67.93.93,0,0,0-.28-.67,1,1,0,0,0-1.34,0"/><path id="Fill-243" class="cls-11" d="M312.4,226.25c-.19,1.71.69,3.25,1,4.87a1,1,0,0,0,1.17.66,1,1,0,0,0,.66-1.17c-.17-.77-.45-1.5-.69-2.26a8.26,8.26,0,0,1-.27-1.09.78.78,0,0,1,0-.16c0,.13,0,.13,0,0a1.64,1.64,0,0,0,0-.23,4.5,4.5,0,0,1,0-.64,1,1,0,0,0-.95-.95,1,1,0,0,0-1,.95"/><path id="Fill-245" class="cls-11" d="M331.72,224.53a9.19,9.19,0,0,0-2.31,4.36,21.43,21.43,0,0,0-.87,5.21c-.05,1.22,1.85,1.22,1.9,0a18.91,18.91,0,0,1,.76-4.55,7.64,7.64,0,0,1,1.86-3.68c.92-.81-.43-2.15-1.34-1.34"/><path id="Fill-247" class="cls-11" d="M329.61,233.8a4.31,4.31,0,0,0,3.18,1.2,1,1,0,0,0,.68-.28,1,1,0,0,0,.28-.67,1,1,0,0,0-.28-.67,1,1,0,0,0-.68-.28,4.56,4.56,0,0,1-.64,0l.25,0a3.64,3.64,0,0,1-.86-.23l.23.09a3.62,3.62,0,0,1-.74-.42l.2.14a3.11,3.11,0,0,1-.28-.23.95.95,0,1,0-1.34,1.34"/><path id="Fill-249" class="cls-11" d="M217.87,219.27a31.86,31.86,0,0,0-1.37,3.38,5.79,5.79,0,0,0-.4,3.68,12.79,12.79,0,0,0,1.7,3,32.55,32.55,0,0,0,2.23,2.88c.8.93,2.14-.42,1.34-1.34a28.89,28.89,0,0,1-1.81-2.32A14.26,14.26,0,0,1,218,226a4,4,0,0,1,.33-2.84,27.57,27.57,0,0,1,1.18-2.93,1,1,0,0,0-.34-1.3,1,1,0,0,0-1.3.34"/><path id="Fill-251" class="cls-11" d="M211.81,220.79c-1,2.25-1.73,4.47-1.09,6.93a16.82,16.82,0,0,0,3.65,6.06,1,1,0,0,0,1.34,0,1,1,0,0,0,0-1.35,14.86,14.86,0,0,1-3.1-5c-.58-2,0-3.82.84-5.66a1,1,0,0,0-.34-1.3,1,1,0,0,0-1.3.34"/><path id="Fill-253" class="cls-11" d="M206.74,223c-.2.86-.39,1.73-.55,2.6a9.27,9.27,0,0,0-.25,2.57,7.82,7.82,0,0,0,.73,2.41c.35.84.71,1.68,1.07,2.52a.94.94,0,0,0,1.3.34,1,1,0,0,0,.34-1.3l-.93-2.18a6,6,0,0,1-.62-2,9,9,0,0,1,.26-2.24c.14-.75.31-1.5.49-2.25.28-1.18-1.55-1.69-1.84-.5"/><path id="Fill-255" class="cls-11" d="M244.49,251.93c5.84,4.37,12.85,4.07,19.63,2.45,7.36-1.76,14.67-3.84,22-5.77a1,1,0,0,0-.5-1.84c-6.88,1.82-13.75,3.69-20.64,5.44a35.48,35.48,0,0,1-10.23,1.45,16.66,16.66,0,0,1-9.29-3.37c-1-.73-1.93.92-1,1.64"/><path id="Fill-257" class="cls-11" d="M275.46,237.77,291,233.85a1,1,0,0,0-.51-1.84L275,235.93a1,1,0,0,0,.51,1.84"/><path id="Fill-273" class="cls-11" d="M234.86,151.43A6,6,0,0,0,232,150a6,6,0,0,0,1.41-1.26,4.39,4.39,0,0,0,.72-4.84c-1-1.78-3.1-1.22-4.71-.77l-6.48,1.82a.86.86,0,0,0,.46,1.66l5-1.4,2.33-.65c.51-.13,1.26-.38,1.73,0,1,.78.11,2.61-.52,3.3a8.61,8.61,0,0,1-3.65,2c-.88.3-.8,1.74.23,1.69,1.8-.08,3.74-.16,5.16,1.16a4.78,4.78,0,0,1,1.51,4.1.85.85,0,0,0,.86.86.87.87,0,0,0,.86-.86,6.35,6.35,0,0,0-2-5.32"/><path id="Fill-275" class="cls-11" d="M224,137.48l3.17,4.18a1,1,0,0,0,.52.4.9.9,0,0,0,.66-.09.87.87,0,0,0,.31-1.18l-3.17-4.18a1,1,0,0,0-.52-.4.9.9,0,0,0-.66.09.87.87,0,0,0-.31,1.18"/><path id="Fill-277" class="cls-11" d="M233,138.84l-1,3.67a.86.86,0,1,0,1.66.46l1-3.67a.87.87,0,0,0-.6-1.06.89.89,0,0,0-1.07.6"/><path id="Fill-279" class="cls-11" d="M232.57,148.57a2.79,2.79,0,0,0,3.91,1.09,4.4,4.4,0,0,0,1.46-2.27c.41-1,.76-2,1.07-3.08.56-1.9,1.3-4.21.66-6.18-.54-1.64-2.32-3-4.08-2.37-1,.36-.59,2,.46,1.66s2,.78,2.1,1.78a11.49,11.49,0,0,1-.74,4.44,19.34,19.34,0,0,1-1.5,4.12,1,1,0,0,1-1.85-.06c-.47-1-1.95-.13-1.49.87"/><path id="Fill-281" class="cls-11" d="M237.09,145.65c-.15,1.55-.24,4,1.4,4.88s3.34-.16,4.2-1.52a11.19,11.19,0,0,0,1.17-5.16,7.81,7.81,0,0,0-1.06-5.17,2.67,2.67,0,0,0-2.15-1.14,2.15,2.15,0,0,0-2,1.2.9.9,0,0,0,.31,1.18.87.87,0,0,0,1.18-.31.59.59,0,0,1,.92-.22,2.46,2.46,0,0,1,.86,1.54,12.29,12.29,0,0,1,0,4.87c-.18,1.18-.53,3-1.94,3.26-.73.16-1-.27-1.11-.93a9,9,0,0,1-.05-2.48.87.87,0,0,0-.86-.86.89.89,0,0,0-.87.86"/><path id="Fill-283" class="cls-11" d="M242.4,145.16c1,2.49,1.87,5.07,1.24,7.78a7,7,0,0,1-4.2,5.07c-1,.39-.59,2.06.46,1.67a8.75,8.75,0,0,0,5.28-5.82c.92-3.15.1-6.22-1.12-9.15a.89.89,0,0,0-1.06-.61.87.87,0,0,0-.6,1.06"/><path id="Fill-285" class="cls-11" d="M148.38,170.9l2.79.53a3.4,3.4,0,0,1,2.12.8,8.6,8.6,0,0,1,1.08,2c.44.92.87,1.84,1.3,2.76a.87.87,0,0,0,1.18.31.88.88,0,0,0,.31-1.18l-1.4-3a7.94,7.94,0,0,0-1.33-2.22,4.37,4.37,0,0,0-2.51-1.11l-3.08-.58a.89.89,0,0,0-1.07.6.88.88,0,0,0,.61,1.06"/><path id="Fill-287" class="cls-11" d="M144,173.14q2.58,1.29,5.09,2.73a.86.86,0,1,0,.87-1.48c-1.67-1-3.36-1.87-5.09-2.74a.86.86,0,0,0-.87,1.49"/><path id="Fill-289" class="cls-11" d="M150.81,166.6q3.36.72,6.64,1.71a.86.86,0,0,0,.46-1.66q-3.28-1-6.64-1.71a.86.86,0,1,0-.46,1.66"/><path id="Fill-291" class="cls-11" d="M166.19,141.05l.12.08c-.07,0-.07-.06,0,0l.21.2.09.1.07.09c-.06-.09,0,0,0,0l.08.12.14.26s.07.15,0,.06,0,0,0,.06a3,3,0,0,1,.15.59c0-.18,0,.07,0,.14a1.41,1.41,0,0,1,0,.29s0,.1,0,.15,0-.1,0,0l-.06.29c0,.09-.06.18-.1.28.05-.12,0,0,0,0a.83.83,0,0,1-.07.13,1.28,1.28,0,0,1-.15.25s-.1.15,0,.07-.07.08-.07.08a.89.89,0,0,0,0,1.22.87.87,0,0,0,1.22,0,4.15,4.15,0,0,0,1-3.31,4.1,4.1,0,0,0-1.75-2.71.87.87,0,0,0-1.18.31.89.89,0,0,0,.31,1.18"/><path id="Fill-293" class="cls-11" d="M196.56,130.69c.25-.5.52-1,.82-1.47a.5.5,0,0,0-.18-.67.49.49,0,0,0-.66.17c-.3.48-.57,1-.83,1.48a.49.49,0,0,0,.85.49"/><path id="Fill-295" class="cls-11" d="M197.82,131.45a6.47,6.47,0,0,1,.57-.47l-.1.08.46-.34a.59.59,0,0,0,.23-.29.55.55,0,0,0,0-.38.49.49,0,0,0-.29-.22.46.46,0,0,0-.38,0,11.82,11.82,0,0,0-1.13.88.49.49,0,0,0-.14.34.48.48,0,0,0,.49.49.54.54,0,0,0,.34-.14"/><path id="Fill-297" class="cls-19" d="M198.1,131.42a3,3,0,0,0-1.87-1.59,7.41,7.41,0,0,0-3.61,0c-2.49.61-2.91,1.83-2.93,2.45a1.46,1.46,0,0,0,1.13,1.54c.46.06,1.24-.3,2.9-.54s3.36,0,3.83-.21a1.24,1.24,0,0,0,.55-1.68"/><path id="Fill-299" class="cls-11" d="M193.19,133.23a1.5,1.5,0,1,0-1.5-1.5,1.52,1.52,0,0,0,1.5,1.5"/><path id="Fill-301" class="cls-11" d="M178.78,132.51c-.39-.45-.8-.87-1.23-1.28a.48.48,0,0,0-.36-.15.51.51,0,0,0-.36.87c.43.41.84.84,1.23,1.28a.53.53,0,0,0,.36.15.51.51,0,0,0,.36-.15.51.51,0,0,0,.15-.36.49.49,0,0,0-.15-.36"/><path id="Fill-303" class="cls-11" d="M177.49,133.46a11.42,11.42,0,0,0-1.39-.6.48.48,0,0,0-.39,0,.51.51,0,0,0-.24.3.55.55,0,0,0,.05.4.61.61,0,0,0,.31.24q.27.09.54.21l-.12-.05.72.33a.55.55,0,0,0,.4,0,.52.52,0,0,0,.3-.23.51.51,0,0,0,.05-.4.47.47,0,0,0-.23-.3"/><path id="Fill-305" class="cls-19" d="M176.75,134.45a3.42,3.42,0,0,1,1.61-2.31,8.76,8.76,0,0,1,4-1c2.93,0,3.76,1.19,3.95,1.87a1.68,1.68,0,0,1-.8,2c-.49.19-1.46,0-3.37.24s-3.73,1-4.3.87a1.4,1.4,0,0,1-1.1-1.69"/><path id="Fill-307" class="cls-11" d="M180.47,135.18a1.5,1.5,0,1,0-1.5-1.5,1.52,1.52,0,0,0,1.5,1.5"/><path id="Fill-309" class="cls-31" d="M170.05,146.66l-.13-.11-.11-.14a1,1,0,0,0,.24.25m1.29-1a.93.93,0,0,0-.1-.25s0,0,0,0l-.13-.16,0,0v0l-.17-.12a.92.92,0,0,0-.49-.14,1,1,0,0,0-.45.13h0l-.17.13-.08.1a.64.64,0,0,0-.1.13,1.57,1.57,0,0,0-.1.26,1.24,1.24,0,0,0,0,.27.92.92,0,0,0,0,.29.88.88,0,0,0,.1.27,1,1,0,0,0,.14.18l0,0a.9.9,0,0,0,.4.23.87.87,0,0,0,.48,0,.81.81,0,0,0,.4-.23l.07-.09h0a.69.69,0,0,0,.2-.35c0-.1,0-.2,0-.29a1.08,1.08,0,0,0,0-.31"/><path id="Fill-311" class="cls-11" d="M190.38,128a6.37,6.37,0,0,1,.66-.45l.39-.21.18-.08c.16-.08-.19.06,0,0a7.41,7.41,0,0,1,.76-.24,2.59,2.59,0,0,1,.4-.09l.19,0c.19,0-.3,0,0,0a5.35,5.35,0,0,1,.8,0l.4,0a.68.68,0,0,1,.2,0c-.07,0-.19,0,0,0a8.09,8.09,0,0,1,.82.19l.38.14c.17,0-.18-.09,0,0l.22.11a1.28,1.28,0,0,0,1.7-.45,1.25,1.25,0,0,0-.45-1.69,7.56,7.56,0,0,0-7.85.65,1.35,1.35,0,0,0-.57.74,1.29,1.29,0,0,0,.12,1,1.25,1.25,0,0,0,1.7.44"/><path id="Fill-313" class="cls-11" d="M184.22,126.93a13.17,13.17,0,0,0-3.86-.23,1.34,1.34,0,0,0-.87.36,1.28,1.28,0,0,0-.37.88,1.23,1.23,0,0,0,.37.87,1.21,1.21,0,0,0,.87.37,11.78,11.78,0,0,1,2.72,0l-.33,0,.81.14a1.3,1.3,0,0,0,.95-.12,1.28,1.28,0,0,0,.57-.74,1.26,1.26,0,0,0-.86-1.53"/><path id="Fill-331" class="cls-32" d="M362.61,101.34c2.42-.75,4.8-1.6,7.14-2.57a1.36,1.36,0,0,0,.92-1.63,1.34,1.34,0,0,0-1.63-.93q-3.51,1.46-7.14,2.57a1.33,1.33,0,0,0,.71,2.56"/><path id="Fill-333" class="cls-32" d="M251.37,106.65c15.72,0,31.44.11,47.16.36a1.33,1.33,0,0,0,0-2.65Q275,104,251.37,104a1.33,1.33,0,0,0,0,2.66"/><path id="Fill-335" class="cls-32" d="M152.49,104.24a24.7,24.7,0,0,0-19.16,9.25c-1.56,2-2.91,4.13-4.33,6.2l-15.24,22.19-4.32,6.28c-1,1.41,1.33,2.74,2.29,1.34q5.4-7.84,10.79-15.71c3.83-5.58,7.71-11.13,11.5-16.74a22.32,22.32,0,0,1,18.47-10.15,1.33,1.33,0,0,0,0-2.66"/><path id="Fill-337" class="cls-32" d="M216.34,104.05q-23.07.09-46.13.18a1.33,1.33,0,0,0,0,2.65q23.07-.06,46.13-.17a1.33,1.33,0,0,0,0-2.66"/><path d="M184.13,142.06a2.68,2.68,0,0,0,.5,1.88,2.43,2.43,0,0,0,1.89,1,2.75,2.75,0,0,0,2.64-2.78.73.73,0,0,0-.73-.73.75.75,0,0,0-.73.73s0,.24,0,.13,0,.09,0,.12a2.81,2.81,0,0,1-.1.31c0,.16.06-.1,0,0l-.09.17s-.06.13-.1.15l0-.06-.07.08a.66.66,0,0,1-.22.22c.08-.06.09-.07,0,0l-.07,0a.35.35,0,0,1-.17.09l.08,0-.1,0-.16,0c-.16,0,.13,0,0,0h-.19s-.2,0-.09,0l-.11,0-.16-.05c.17.09,0,0,0,0a.67.67,0,0,1-.14-.09c.08.06.09.07,0,0l-.06,0-.12-.13c-.1-.11.07.11,0,0s-.11-.18-.16-.27,0,.13,0,0a1.21,1.21,0,0,1,0-.18.45.45,0,0,1,0-.16c0,.1,0,.12,0,.06a.22.22,0,0,1,0-.08,2.41,2.41,0,0,1,0-.38.73.73,0,0,0-.73-.73.75.75,0,0,0-.73.73Z"/><path d="M293.51,168.91a2.6,2.6,0,0,0,2.25,1.89,2.35,2.35,0,0,0,2.41-1.63,2.66,2.66,0,0,0-.16-1.84.73.73,0,1,0-1.26.74c-.09-.2,0,0,0,.05l0,.14s0,.07,0,.1,0-.13,0-.08,0,.11,0,.17,0,.1,0,.15,0,.06,0-.06a.36.36,0,0,1,0,.1l0,.14h0s-.15.25-.16.29c.08-.16,0,0,0,0a.63.63,0,0,0-.12.1l0,0,0,0-.16.09c-.12.06.15-.05,0,0l-.16.05s-.13,0-.15,0,.14,0,.08,0h-.24a2.54,2.54,0,0,0-.31-.09s.16.08,0,0l-.14-.08s-.16-.14,0,0l-.1-.09-.13-.13,0,0c-.05-.06,0,0,0,.05s-.16-.25-.17-.28l0-.06s0,0,0,.07a.58.58,0,0,0-.06-.17.75.75,0,0,0-.9-.52.73.73,0,0,0-.51.9Z"/></g><g id="Artwork_52" data-name="Artwork 52"><g class="cls-33"><g class="cls-33"><path d="M194.36,149.51a5,5,0,0,1-1.85,1.11,16.44,16.44,0,0,1-2.27.68,10.14,10.14,0,0,1-4.52,0,7,7,0,0,1-2.13-.93.53.53,0,1,1,.59-.87,6.62,6.62,0,0,0,3.45,1,11.66,11.66,0,0,0,4.17-.72,4.78,4.78,0,0,0,1.86-1.06.53.53,0,0,1,.7.8"/><path d="M185,148.92A2.47,2.47,0,0,1,184,150.6a2.89,2.89,0,0,1-1,.44,6.11,6.11,0,0,1-1.21.08.53.53,0,0,1-.48-.57.54.54,0,0,1,.56-.49h.61c.17,0,0,0,.05,0a1.52,1.52,0,0,0,.21,0l.19,0c.08,0-.08,0,0,0l.1,0a2.21,2.21,0,0,0,.34-.18c-.09.06,0,0,.06-.05l.15-.12.07-.08s0,0,0,0l.11-.15a1.4,1.4,0,0,0,.1-.16c.05-.09,0,.05,0,0l0-.07.06-.18a.19.19,0,0,0,0-.08c0,.12,0,0,0,0a.55.55,0,0,1,.56-.49.53.53,0,0,1,.49.57"/></g></g></g><g id="Artwork_46" data-name="Artwork 46"><g class="cls-34"><g class="cls-34"><path d="M289.64,175.62a9.12,9.12,0,0,0,5.28,1.19,10.87,10.87,0,0,0,5.17-1.18,8.58,8.58,0,0,0,2.31-1.79.72.72,0,0,0-.1-1,.73.73,0,0,0-1,.1,7.49,7.49,0,0,1-3.66,2.13,12.59,12.59,0,0,1-4.86.17,5.06,5.06,0,0,1-2.25-.72.73.73,0,0,0-1,.1.71.71,0,0,0,.11,1"/><path d="M300.24,172.53a3.17,3.17,0,0,0,2.94,2,5.75,5.75,0,0,0,1.3-.19.73.73,0,0,0,.63-.78.71.71,0,0,0-.78-.63,7.71,7.71,0,0,1-1.17.19c-.08,0-.12,0,0,0h-.09l-.24,0-.11,0c-.14,0,0,0,0,0s-.19-.07-.22-.08l-.2-.1s-.08,0-.1-.06.11.08,0,0a1.33,1.33,0,0,1-.19-.14c-.05,0-.1-.12-.16-.15.1,0,.07.08,0,0l-.07-.09a1.33,1.33,0,0,1-.14-.19s0-.06,0-.08,0,.09,0,0a2.44,2.44,0,0,1-.1-.24.71.71,0,0,0-.92-.4.73.73,0,0,0-.41.92"/><path d="M293.22,179.33a5.93,5.93,0,0,0,2.93.17,8.24,8.24,0,0,0,2.79-.82.73.73,0,0,0,.4-.92.71.71,0,0,0-.92-.41,6.65,6.65,0,0,1-2.33.72,4.74,4.74,0,0,1-2.28,0,.71.71,0,1,0-.59,1.29"/></g></g></g><ellipse class="cls-5" cx="49" cy="186" rx="21.5" ry="14"/></svg>