<?xml version="1.0" encoding="UTF-8"?>
<svg width="598px" height="546px" viewBox="0 0 598 546" version="1.1" xmlns="http://www.w3.org/2000/svg" xmlns:xlink="http://www.w3.org/1999/xlink">
    <!-- Generator: Sketch 62 (91390) - https://sketch.com -->
    <title>Kingsly Copy 12</title>
    <desc>Created with Sketch.</desc>
    <defs>
        <rect id="path-1" x="0" y="0" width="598" height="546" rx="52"></rect>
    </defs>
    <g id="Page-1-Copy" stroke="none" stroke-width="1" fill="none" fill-rule="evenodd">
        <g id="Kingsly-Copy-12">
            <mask id="mask-2" fill="white">
                <use xlink:href="#path-1"></use>
            </mask>
            <use id="Mask" fill="#E2AB0F" xlink:href="#path-1"></use>
            <g id="Heimdall" mask="url(#mask-2)" fill-rule="nonzero">
                <g transform="translate(-23.000000, -38.000000)">
                    <path d="M629.408742,424.111562 C629.545274,431.667977 630.07642,439.212049 631,446.712812 L631,508 L22,508 L22,4 L631,4 L631,361.721875 C631,362.292812 631,362.86375 631,363.415 C630.463032,383.68 629.932613,403.912188 629.408742,424.111562 Z" id="Path" stroke="none" fill="#33BEDE"></path>
                    <path d="M123,508 L23,508 L23,417.149247 C23.9171215,409.354498 25.344084,401.628686 27.2716535,394.021805 L27.2716535,394.021805 C27.5284278,386.225263 33.966046,380.073915 41.7401575,380.19669 C43.8592968,380.566902 46.0064571,380.751931 48.1574803,380.749695 C56.0314961,379.900438 59.4370079,368.445343 67.2716535,368.010839 C72.015748,367.754087 76.0314961,372.099123 77.1141732,376.740412 C78.1968504,381.3817 77.1141732,386.24024 76.2283465,390.921029 C72.2200636,410.623297 69.8627507,430.627649 69.1811024,450.724525 C68.8760714,452.552567 69.3710375,454.423827 70.5393701,455.859568 C71.9874162,456.8124 73.7793236,457.079549 75.4409449,456.590324 C84.4900628,454.845523 92.1958821,448.935494 96.2480315,440.632191 C102.468504,458.407339 108.695538,476.182486 114.929134,493.957634 C115.65748,495.833899 121.858268,504.701723 123,508 Z" id="Path" stroke="none" fill="#80424B"></path>
                    <path d="M121.891391,504.105596 L22.1036349,504.105596 L25.0501238,507.052798 L25.0501238,429.757512 C25.0501238,425.611781 24.9519075,421.446402 25.0501238,417.300671 C25.3148691,413.492122 25.8664451,409.708971 26.7001575,405.983416 C27.2894553,402.643253 27.9573261,399.322739 28.8019862,396.041521 C29.469857,393.349743 29.4502138,390.716909 30.9627447,388.280555 C32.5381796,385.800574 34.9949705,384.010193 37.8378854,383.270312 C41.373672,382.366503 44.9487451,384.056232 48.5238183,383.270312 C53.5328493,382.307559 56.8329168,378.083236 60.1919141,374.644834 C61.6270763,372.860691 63.5631173,371.546875 65.7509564,370.872415 C68.4402674,370.627934 70.9966696,372.086848 72.1546588,374.526946 C73.733997,377.780419 74.1433239,381.479132 73.3136111,384.999337 C72.7243133,388.92894 71.7617936,392.858542 71.034993,396.788145 C68.0254062,413.314283 66.1614025,430.028728 65.4563075,446.811988 C65.3188047,450.014614 64.7884367,453.806681 66.8706221,456.537755 C68.9528076,459.268829 72.5278807,459.347421 75.6511589,458.738332 C82.0610644,457.42303 87.9070857,454.156152 92.3872156,449.385878 C94.5779072,447.048394 96.4114198,444.400082 97.8283983,441.526672 L92.4461453,440.819344 C97.3569601,454.848026 102.28087,468.876707 107.217876,482.905389 C108.966126,487.895985 110.321511,493.161652 113.110854,497.680695 C115.421529,500.854452 117.433715,504.235217 119.121691,507.779774 C120.437789,511.296769 126.134334,509.744576 124.798593,506.227581 C123.145355,502.487153 121.125308,498.919953 118.768112,495.578358 C118.257388,494.772789 117.72702,493.967221 117.255581,493.142004 C117.098435,492.88658 116.960933,492.631156 116.82343,492.375732 C116.332348,491.471923 117.000219,492.98482 116.587711,491.845235 C115.271612,488.367537 114.11266,484.830894 112.875135,481.333548 C107.938129,467.304866 103.014219,453.282734 98.1034039,439.267151 C97.3373168,437.066573 93.9193898,436.123469 92.721151,438.559822 C89.8683307,444.416786 84.9801708,449.033723 78.9708697,451.547159 C77.5075702,452.159422 75.9877649,452.626661 74.4332768,452.942168 C72.7046701,453.276185 71.3492852,453.551257 71.1921391,451.468567 C71.1001515,447.531977 71.2707718,443.593633 71.7028639,439.679759 C72.8759032,422.881292 75.1462728,406.177566 78.4994315,389.675564 C79.8744596,382.661223 80.6012602,375.096738 75.6511589,369.280926 C71.9479617,364.709008 65.4010446,363.651433 60.4472765,366.824924 C56.243619,369.477406 53.7489251,374.192929 49.5059812,376.648931 C46.6380654,378.33866 43.6130035,377.081187 40.5290118,376.982947 C37.3472946,376.9283 34.2216389,377.824493 31.5520425,379.556837 C28.9809524,381.20617 26.8664931,383.476554 25.4037024,386.15857 C24.2950967,388.822576 23.5230492,391.6145 23.1054411,394.46968 C21.4165587,401.462312 20.1375676,408.547669 19.2750056,415.689534 C19.0392276,418.781759 19,421.885833 19.1571461,424.983045 L19.1571461,471.332709 C19.1571461,483.121517 18.8035674,494.792437 19.1571461,506.483006 C19.166986,506.672809 19.166986,506.862995 19.1571461,507.052798 C19.1783051,508.671645 20.4851794,509.978836 22.1036349,510 L121.891391,510 C122.94407,510 123.916785,509.438266 124.443125,508.526399 C124.969464,507.614531 124.969464,506.491064 124.443125,505.579197 C123.916785,504.667329 122.94407,504.105596 121.891391,504.105596 Z" id="Path" stroke="none" fill="#80424B"></path>
                    <path d="M631.954455,445.92837 L631.954455,507 L463,507 C468.898561,449.695075 497.349288,385.97498 466.539137,337.007813 C473.958765,340.29963 482.438691,340.249607 489.818792,336.870485 C481.848319,334.539547 475.475796,328.545747 472.67364,320.744279 L470.707453,316.957956 C476.29112,310.750683 485.032887,308.4391 492.964691,311.072479 C500.74755,313.901918 506.03495,321.155966 506.334763,329.415548 C517.266763,317.644595 540.035209,320.744279 547.369087,334.889042 C548.45049,336.988195 549.512231,339.499332 551.81267,340.205589 C555.863015,341.441539 558.53703,336.281938 561.643605,333.476527 C567.148929,328.297308 576.861893,330.416079 582.072289,335.889573 C587.282685,341.363066 589.130901,349.014186 590.80216,356.292559 C598.665376,350.467247 608.336859,347.597944 618.112498,348.190219 C623.008304,348.504111 628.415318,350.152045 630.676433,354.350351 C631.670422,356.483256 632.116403,358.829578 631.974117,361.177504 C631.974117,361.746434 631.974117,362.315363 631.974117,362.864674 C631.436692,383.032241 630.912376,403.193269 630.401167,423.347757 C630.522705,430.896556 631.04118,438.433791 631.954455,445.92837 L631.954455,445.92837 Z" id="Path" stroke="none" fill="#80424B"></path>
                    <path d="M629.077468,445.5121 L629.077468,506.893364 L632.028896,503.935706 L469.877445,503.935706 C467.66339,503.777958 465.44095,503.777958 463.226895,503.935706 L462.951428,503.935706 L465.902856,506.893364 C468.382055,483.350405 474.18653,460.339826 478.456263,437.092633 C482.548909,414.772174 485.598718,391.741876 481.860243,369.105933 C479.896531,356.85936 475.543883,345.120596 469.051046,334.560487 L464.919047,338.602619 C473.291489,342.324351 482.853719,342.274106 491.186755,338.464595 C493.626602,337.360403 492.701821,333.732342 490.478412,333.06194 C485.393537,331.542178 480.978734,328.328429 477.964358,323.952353 C476.16132,320.877769 474.557673,317.690051 473.163369,314.408976 L472.69114,317.977884 C477.474106,312.639734 484.93336,310.603202 491.757365,312.772405 C498.463337,315.169781 503.037401,321.416758 503.307286,328.546582 C503.326867,329.732893 504.047438,330.794322 505.141345,331.248224 C506.235253,331.702127 507.493675,331.461853 508.344389,330.63666 C517.06094,321.546791 533.451203,322.394653 541.911963,331.445087 C544.253429,333.949237 545.158534,337.360403 547.401619,339.864553 C549.815615,342.705481 553.957192,343.312845 557.082303,341.284229 C560.092759,339.411046 561.666854,335.960445 564.559253,334.00839 C567.659996,332.270861 571.401141,332.117092 574.633461,333.594318 C583.645154,337.084355 585.98662,347.968537 587.914886,356.348568 C588.157282,357.233589 588.795919,357.955707 589.643551,358.303197 C590.491183,358.650687 591.451762,358.584176 592.243647,358.123163 C598.660248,353.276455 606.40829,350.523123 614.438385,350.236074 C617.985337,349.934168 621.551105,350.530847 624.807736,351.971234 C628.546211,353.943006 629.038116,357.373889 628.998763,361.25828 C628.802001,380.325316 628.014954,399.412069 627.523049,418.43967 C627.444506,427.472862 627.937398,436.501962 628.998763,445.472664 C629.372611,449.238749 635.295143,449.278184 634.901619,445.472664 C633.852854,436.82422 633.353385,428.117746 633.406229,419.405838 C633.655461,408.797704 633.924368,398.176425 634.212953,387.542002 C634.350686,382.159064 634.508095,376.756408 634.645829,371.373471 C635.019493,366.523556 635.019493,361.65199 634.645829,356.802075 C633.465257,347.988254 625.181583,344.65596 617.232404,344.301041 C607.198638,343.918147 597.330693,346.948017 589.233191,352.897967 L593.561952,354.672562 C591.594333,345.937611 589.075781,336.256211 581.520126,330.63666 C575.145042,325.924125 565.602091,324.721344 559.443445,330.419765 C557.908702,331.839441 554.091522,338.306854 551.750056,335.802703 C550.673433,334.270998 549.744478,332.640244 548.975714,330.932426 C548.018504,329.418646 546.90385,328.010821 545.650438,326.732552 C540.43411,321.694155 533.582416,318.705521 526.3481,318.313085 C518.164795,317.624369 510.09273,320.573071 504.271419,326.377633 L509.308523,328.467711 C508.923681,318.999528 502.938978,310.674635 494.098831,307.310597 C485.074019,304.194903 475.064636,306.743195 468.61817,313.797727 C467.707245,314.769274 467.524518,316.218256 468.165617,317.386352 C469.817985,321.352985 471.861319,325.144436 474.265235,328.704324 C478.025757,333.498681 483.173181,337.011002 489.002698,338.760361 L488.314032,333.357706 C481.848721,336.215105 474.491892,336.265063 467.988532,333.49573 C465.509332,332.411255 462.243085,334.777382 463.954913,337.537862 C488.510794,377.150763 474.560378,426.504217 466.13897,468.818445 C463.640094,481.437786 461.337981,494.096563 460,506.893364 C460.021194,508.517954 461.330259,509.829782 462.951428,509.851022 L611.11311,509.851022 C617.960423,509.851022 624.88644,510.186223 631.753429,509.851022 L632.048572,509.851022 C633.669741,509.829782 634.978806,508.517954 635,506.893364 L635,445.5121 C635,443.873185 633.674196,442.544583 632.038734,442.544583 C630.403272,442.544583 629.077468,443.873185 629.077468,445.5121 Z" id="Path" stroke="none" fill="#80424B"></path>
                    <path d="M94.1212857,413.541247 C94.1212857,413.541247 90.3100609,452.833573 125.416548,507.135569 L462.572418,508 C462.572418,508 505.045963,399.49424 467.503435,342.382843 L443.457358,317 L94.1212857,413.541247 Z" id="Path" stroke="none" fill="#F09A00"></path>
                    <path d="M67.0801685,308.760291 L86.5784563,308.755007 C88.0641018,308.753147 89.2687821,309.957175 89.2691847,311.442821 C89.2691848,311.443307 89.2691848,311.443793 89.2677273,311.444278 L89.2624438,330.942566 C89.2605831,332.427642 88.0567912,333.631434 86.5717149,333.633295 L67.0734271,333.638578 C65.5877816,333.640438 64.3831013,332.436411 64.3826987,330.950765 C64.3826986,330.950279 64.3826986,330.949793 64.3841561,330.949307 L64.3894397,311.45102 C64.3913003,309.965943 65.5950922,308.762151 67.0801685,308.760291 Z" id="Rectangle" stroke="none" fill="#FFFFFF" transform="translate(76.825942, 321.196793) rotate(-45.000000) translate(-76.825942, -321.196793) "></path>
                    <path d="M165,401.652538 L183.096614,426.157568 C183.096614,426.157568 303.977262,440.039824 367,355.096908 L361.086074,328 L165,401.652538 Z" id="Path" stroke="#000000" stroke-width="1" fill="#F08800"></path>
                    <path d="M258.582504,115.523292 C212.20057,120.264482 166.93743,132.711653 124.661927,152.350882 C109.194435,159.535796 93.5500587,168.212659 84.0966103,182.386177 C78.8007807,190.661429 75.3860095,199.995911 74.0928572,209.732037 C69.9066108,237.019004 78.1611812,265.051946 91.7812222,289.060551 C105.401263,313.069156 124.190238,333.701245 142.880943,354.097762 C153.100888,365.326644 163.595984,376.751834 176.940873,384.015271 C211.059764,402.586114 253.590455,389.335249 288.122074,371.687059 C307.107586,362.009019 326.05379,350.524936 338.180147,333.033794 C353.745908,310.576031 355.868512,281.659698 355.986434,254.353099 C356.160936,224.19185 354.651808,194.044338 351.466074,164.050905 C350.188581,151.977895 348.518013,139.551528 342.445008,129.009728 C333.364981,113.304999 315.145965,103.960685 296.946603,103.077294 C278.74724,102.193903 260.783723,108.966567 245.709305,119.096118" id="Path" stroke="none" fill="#A95631"></path>
                    <path d="M393.999718,183.951264 C404.610846,174.329477 418.393566,165.724627 433.311793,166.81979 C444.901808,167.680275 457.607753,175.933108 459.232704,188.175463 C459.702569,191.793411 465.38011,192.086758 465.106022,188.175463 C464.831934,184.264167 469.217345,181.311139 472.01696,179.159927 C475.288904,176.663585 478.751717,174.427296 482.373577,172.471612 C489.631447,168.438021 497.696235,166.066635 505.984316,165.529062 C520.569722,164.805472 535.742461,171.708909 542.300999,185.085539 C542.766459,185.866123 543.565725,186.389221 544.468019,186.503795 C545.370312,186.618368 546.275176,186.311662 546.921343,185.672234 C569.517973,162.339895 600.564938,149.074675 633.063341,148.866943 C634.685213,148.866943 636,147.553583 636,145.933472 C636,144.31336 634.685213,143 633.063341,143 C599.036007,143.234588 566.529937,157.116414 542.849175,181.526261 L547.449941,182.132511 C541.576623,170.163947 529.301388,162.3218 516.360511,160.190144 C501.540172,157.745584 486.563211,162.497808 474.170509,170.555077 C468.297191,174.349033 458.723683,180.098638 459.311015,188.155906 L465.184333,188.155906 C463.22656,173.234314 449.835395,162.98672 435.40661,161.148411 C418.276099,158.977642 402.124475,168.736324 389.927551,179.785734 C387.127936,182.328076 391.297992,186.474049 394.078029,183.931707 L393.999718,183.951264 Z" id="Path" stroke="none" fill="#FFFFFF"></path>
                    <path d="M400.467245,204.61601 C413.515798,195.982155 431.971859,190.849043 446.489844,199.069889 C457.657525,205.442028 465.416124,220.703694 459.342473,232.995629 C458.10815,235.513017 460.713942,238.659752 463.378512,237.027383 C477.191169,228.570532 495.255382,226.367817 508.813338,236.555373 C514.890591,241.12961 518.980797,247.876353 520.23572,255.39645 C521.783521,263.912303 520.353275,272.80183 519.001398,281.239014 C518.729573,282.385028 519.153593,283.584434 520.08427,284.302088 C521.014947,285.019743 522.278722,285.121811 523.31173,284.562753 C568.356152,264.002009 621.597685,278.306599 650.388179,318.70483 C652.562938,321.772897 657.656967,318.822833 655.462616,315.735099 C632.410809,283.284412 593.730417,265.817156 554.248165,270.028769 C542.524017,271.358413 531.083844,274.544663 520.353275,279.468975 L524.663607,282.812381 C526.955921,268.53407 529.111087,252.387385 520.137758,239.859445 C511.888302,228.815788 498.579647,222.781802 484.871399,223.870096 C476.192429,224.526987 467.79875,227.272582 460.400464,231.874604 L464.318948,235.808023 C470.00075,224.263438 466.591669,210.870146 458.441221,201.410273 C449.095636,190.514702 434.440505,187.367967 420.764994,189.747686 C412.386048,191.307124 404.416443,194.580757 397.35205,199.364895 C394.19767,201.449607 397.136533,206.563052 400.310506,204.458673 L400.467245,204.61601 Z" id="Path" stroke="none" fill="#FFFFFF"></path>
                    <path d="M309.946579,163.019574 C309.078063,164.886529 307.814767,165.442643 305.071045,166.117924 C302.30828,166.729788 299.504239,167.134742 296.681969,167.329459 C289.60674,167.71492 282.568143,168.610978 275.620454,170.010724 C268.621416,171.70235 262.209091,175.271557 257.065792,180.33856 C251.55861,185.740812 246.722555,191.977236 241.66937,197.836297 C239.443543,200.196632 239.443543,203.897121 241.66937,206.257455 C243.981341,208.580848 247.726737,208.580848 250.038707,206.257455 C255.190587,200.299089 260.06612,193.903775 265.829909,188.382355 C270.525509,184.10864 276.42112,181.402762 282.706756,180.636478 C289.457495,179.464666 296.366145,179.36536 303.136623,178.431882 C309.907101,177.498405 317.190793,175.571866 320.250338,168.958079 C321.805044,166.1052 320.868287,162.526977 318.118526,160.814978 C315.29987,159.15758 311.679791,160.108182 310.025535,162.940129 L309.946579,163.019574 Z" id="Path" stroke="none" fill="#000000"></path>
                    <path d="M4.86166316,321.885718 C15.5301378,312.386781 34.278413,311.344454 43.6721617,323.164043 C44.5200655,323.987094 45.7743288,324.226743 46.8646216,323.774019 C47.9549143,323.321295 48.6731041,322.262621 48.6926204,321.07939 C46.9472265,304.89383 52.4775755,287.646278 67.4605067,279.425666 C74.3788973,275.695815 82.4915436,274.875186 90.0133483,277.144348 C98.3284829,279.543665 105.702281,284.578299 112.703468,289.416266 C115.841255,291.559919 118.78293,286.466286 115.684365,284.322634 C103.66272,276.102021 90.1898488,267.743744 75.0108059,270.556058 C61.3810451,273.073375 50.653737,283.614638 45.7509454,296.279888 C42.8217614,304.201983 41.8134585,312.709123 42.8092704,321.099056 L48.0062295,319.073403 C36.5336971,304.638165 13.7259104,306.368821 0.939429855,317.795078 C-1.88457813,320.332061 2.29260035,324.4817 5.11660833,321.964384 L4.86166316,321.885718 Z" id="Path" stroke="none" fill="#FFFFFF"></path>
                    <path d="M112.263703,227.708564 C118.960975,232.165712 126.827298,229.254512 133.445312,226.28308 C139.389636,223.592729 144.997115,220.259906 151.040512,217.770327 C156.775538,215.170495 163.16442,214.434058 169.329216,215.662217 C176.878508,217.38886 184.289098,220.199674 191.679875,222.548712 C199.070651,224.89775 202.122071,213.273024 194.830367,210.944064 C187.538662,208.615103 180.623432,206.025139 173.351542,204.238264 C166.217722,202.414143 158.726675,202.608591 151.694387,204.800427 C145.256781,207.068254 139.014037,209.868419 133.029209,213.172638 C130.35542,214.596046 127.603308,215.862991 124.786413,216.967238 C122.269983,217.870714 120.030954,218.493108 118.267471,217.308551 C116.426221,216.050625 114.046516,215.93752 112.097141,217.015282 C110.147766,218.093044 108.953823,220.181932 109.001369,222.431553 C109.048916,224.681173 110.330022,226.716353 112.323147,227.708564 L112.263703,227.708564 Z" id="Path" stroke="none" fill="#000000"></path>
                    <path d="M225.661181,280.202294 C224.966274,284.485962 224.387185,288.94567 226.278876,293.014176 C227.703792,296.339908 230.788364,298.628075 234.347516,299 C237.90074,299.03231 241.211314,297.176846 243.072457,294.109543 C245.504631,290.47136 245.523934,285.83561 245.427419,281.610623 L240.485859,283.683996 C244.114817,287.967664 248.88265,292.446932 254.905176,291.390685 C259.846735,290.53004 263.128239,285.83561 263.842449,281.04338 C264.730386,275.077542 261.738426,269.757188 258.051559,265.39528 C254.364693,261.033372 249.288012,256.886626 247.473533,251.018589 C246.373264,247.419526 240.794707,249.062576 241.894976,252.583398 C243.532677,257.153011 246.172748,261.28626 249.616163,264.671555 C252.762546,268.133697 256.488019,271.65452 257.819924,276.40763 C258.688557,279.47857 258.032256,283.860038 254.924479,285.444408 C250.890158,287.40042 246.797929,282.393028 244.539482,279.713291 C243.69891,278.913078 242.473657,278.686104 241.408059,279.133206 C240.342462,279.580308 239.634197,280.618545 239.597923,281.786664 C239.597923,285.170566 239.983982,293.131537 234.926605,293.327138 C233.2153,293.162188 231.772984,291.963578 231.278344,290.295318 C230.544889,287.560863 230.544889,284.6776 231.278344,281.943145 C231.857433,278.246282 226.278876,276.661912 225.699787,280.378335 L225.661181,280.202294 Z" id="Path" stroke="none" fill="#000000"></path>
                    <path d="M295.67171,4 C296.398098,4.78611714 297.124486,5.5918872 297.831242,6.39765727 C334.327321,48.1011714 351.996214,102.461171 373.473734,153.558785 C394.671812,203.996033 420.293791,252.453212 450.038936,298.361562 C458.834118,311.941735 468.355688,325.639826 482,334.287115 C458.4038,336.45579 434.738619,330.941613 414.524462,318.564772 C411.16834,346.405987 402.899138,373.429181 390.102126,398.375315 C365.051562,353.016356 340.216952,313.337093 324.393477,266.4059 C323.158765,263.259416 322.391499,259.948729 322.116153,256.579436 C321.939464,251.685857 323.824146,247.00846 325.473243,242.409675 C329.519488,231.044555 332.297953,219.266392 333.75799,207.289892 C335.878257,189.838091 334.582538,170.49961 322.999598,157.292842 C308.825219,141.118482 283.028636,139.605206 263.514325,148.6259 C256.230815,151.986551 249.300683,156.801518 245.315366,163.778308 C240.250283,172.681085 240.701822,183.608113 241.820852,193.807983 C243.728753,211.191749 247.097782,228.383474 251.89212,245.20039 C243.739995,251.81705 234.151547,256.427887 223.896742,258.662646 C205.010658,236.80859 196.038787,204.45987 169.849562,192.510889 C147.80271,182.507549 119.630642,192.668113 106.418237,212.949935 C93.2058317,233.231757 94.3052294,261.020998 106.418237,282.010325 C117.019573,300.759219 140.715521,315.046898 160.03351,305.456269 C174.993173,352.819826 180.529426,402.581041 185.987151,451.949197 C156.305433,448.94674 130.423692,430.452986 117.942281,403.327852 C110.08944,426.125249 90.7518188,444.834837 69.9417896,457 C80.1501659,420.658981 80.1501659,382.203709 69.9417896,345.86269 C65.1908207,329.079089 61.1269753,312.609935 55.9441001,295.944252 C48.4642689,272.065944 42.2408922,244.59115 36.8224318,220.182213 C29.7745068,187.912104 38.3341037,158.865076 36.8224318,126.752191 C36.2334687,114.547722 38.7856421,101.360607 39.8065114,89.1757918 C42.6139022,52.4248156 72.1405851,21.6876356 105.907802,4" id="Path" stroke="none" fill="#F09A00"></path>
                    <path d="M293.572877,6.09035333 C326.253191,41.6881356 343.830643,88.2738584 361.624131,132.382872 C380.847623,180.753957 403.830935,227.542029 430.362771,272.316948 C437.727625,284.621869 445.249597,296.907134 453.419675,308.700987 C460.902367,319.531677 469.425958,329.73336 480.600897,336.907955 L482.073868,331.404156 C459.008105,333.541443 435.866822,328.200816 416.065134,316.170428 C415.152057,315.66067 414.039064,315.666157 413.131048,316.184893 C412.223032,316.703629 411.65234,317.660006 411.626582,318.706107 C408.284995,346.055686 400.161272,372.603477 387.626977,397.135235 L392.713636,397.135235 C377.551856,369.734181 361.486654,342.804882 347.680007,314.578258 C340.844638,300.792903 334.779746,286.638124 329.513366,272.179353 C328.177873,268.444633 326.744181,264.709913 325.7622,260.857254 C324.83655,257.069288 324.999953,253.09656 326.233551,249.397559 C328.452827,241.967431 331.300571,234.812493 333.146694,227.264426 C339.038578,202.79218 342.612987,169.061758 320.73446,150.997505 C302.096469,135.626182 272.322818,137.434573 253.252755,151.174412 C247.637203,155.017416 243.278721,160.432578 240.722683,166.7423 C238.438833,173.434893 237.621634,180.541219 238.32665,187.578108 C239.497987,203.338979 242.047808,218.966708 245.94682,234.281769 C246.90916,238.213054 247.910781,242.144339 249.069518,246.075623 L249.815823,243.205786 C242.001607,249.433882 232.863938,253.784715 223.105951,255.923491 L225.973335,256.670435 C213.148668,241.672585 205.50886,223.057952 193.076985,207.745598 C187.26552,200.234331 179.789002,194.178013 171.237738,190.054817 C162.405186,186.144658 152.629334,184.881517 143.094174,186.418379 C123.04878,189.550672 106.116645,202.98261 98.4926167,221.799941 C90.2439799,242.163995 93.170282,267.009714 104.796932,285.427782 C116.423582,303.845851 140.148233,318.411261 161.49649,308.130951 L157.175776,306.361873 C168.723867,343.119384 174.713949,381.292158 179.309618,419.464932 C180.625472,430.334934 181.823488,441.224592 183.021504,452.094594 L185.967446,449.146131 C157.340128,446.095677 132.439925,428.166527 120.449702,401.970715 C119.310605,399.454693 115.814754,400.51614 115.068449,402.678346 C107.212604,425.224264 88.5746129,442.71848 68.404732,454.59096 L72.7254465,457.912895 C81.681071,425.820852 82.8593181,392.053708 76.1623785,359.414559 C74.4537323,351.158861 72.0576997,343.099728 69.8580632,334.961969 C67.5405891,326.509707 65.3016734,318.018132 62.9056408,309.585527 C58.3885301,293.565542 53.4000688,277.722465 49.3543089,261.584541 C47.3772546,253.604033 45.4787589,245.610421 43.6588215,237.603705 C41.8519773,229.741136 39.8487369,221.878566 38.5328829,213.799777 C35.7833373,197.327694 37.0402725,180.560765 38.3561264,164.010057 C39.0238732,155.675733 39.69162,147.321754 39.8487369,138.948117 C40.0058538,130.574481 39.3577466,122.55466 40.0254934,114.338276 C40.6932402,106.121891 41.9894546,97.9055058 42.6572014,89.6694645 C43.1843246,83.2478156 44.5036639,76.9161684 46.5851236,70.8189547 C55.2265527,45.2852611 76.0052616,25.216053 98.5318959,11.5351825 C101.438558,9.79231302 104.3845,8.13462133 107.369721,6.56210748 C110.728095,4.7930294 107.742874,-0.297984193 104.40414,1.47109389 C80.5616515,14.0118918 58.4278094,32.7051502 46.113773,57.0791149 C43.0976097,62.8939157 40.7330382,69.0246508 39.0631525,75.3595885 C37.606209,82.2484221 36.6284286,89.2301021 36.1368504,96.2543662 C35.2137886,104.490408 33.9568535,112.726449 33.7604574,121.041116 C33.5640613,129.355783 34.1139704,137.847358 33.7604574,146.279963 C32.8766749,162.869984 30.6377591,179.420693 31.050191,196.050026 C31.4626228,212.67936 35.6065808,229.053161 39.3970259,245.309023 C43.1874709,261.564885 47.2528704,277.58487 51.9860168,293.486916 C57.0530366,310.214532 61.5112284,327.0994 66.2247351,343.925298 C70.9045675,360.148488 73.6599812,376.866658 74.4340927,393.734674 C75.0833142,410.711046 73.6053859,427.701959 70.0348197,444.310651 C69.1575837,448.34677 68.1625101,452.343576 67.0495988,456.301069 C66.757873,457.450416 67.1776805,458.663254 68.1172884,459.385662 C69.0568962,460.108069 70.335961,460.201391 71.3703133,459.623004 C92.9738859,446.924955 112.318903,428.172727 120.744296,404.172235 L115.363043,404.879866 C128.398428,432.891438 155.241947,451.933394 185.967446,454.964432 C186.750363,454.969709 187.502742,454.660763 188.05636,454.106671 C188.609978,453.552579 188.91866,452.799555 188.913388,452.015969 C184.651592,413.410754 180.370157,374.667944 171.571611,336.77036 C169.110113,325.99864 166.20345,315.325202 162.851623,304.750046 C162.596366,303.877303 161.957875,303.168416 161.116932,302.824099 C160.27599,302.479783 159.324147,302.537522 158.530909,302.980968 C141.444447,311.21701 121.824475,299.167622 111.847553,285.290188 C100.050843,268.511439 96.6450534,247.225166 102.616935,227.598586 C108.377304,209.732509 123.303974,196.355357 141.680122,192.590496 C150.362779,190.705795 159.411581,191.486768 167.643689,194.831328 C175.437847,198.385108 182.291865,203.716835 187.656453,210.399215 C200.854272,225.947446 208.53336,245.348336 221.809737,260.857254 C222.55555,261.614927 223.653152,261.908372 224.67712,261.623854 C235.406179,259.193185 245.432377,254.32376 253.979421,247.392604 C254.736848,246.654544 255.030673,245.561182 254.745365,244.542422 C250.44345,229.491539 247.292015,214.134858 245.318352,198.605362 C243.668625,185.474871 241.90106,170.182174 252.094018,159.901864 C260.323015,151.62651 272.794168,147.243128 284.244062,146.397902 C295.360082,145.552675 307.124209,147.852477 316.060232,154.850164 C337.369211,171.51881 332.891379,204.718509 327.019136,227.578929 C325.055174,234.891119 322.109233,241.869149 320.184551,249.200995 C318.22059,256.886656 320.184551,263.609153 322.77698,270.82306 C327.622759,284.579857 333.20857,298.06421 339.509928,311.21701 C353.945043,341.684465 371.326099,370.61872 387.626977,400.083699 C388.162842,400.978058 389.128355,401.525342 390.170306,401.525342 C391.212258,401.525342 392.17777,400.978058 392.713636,400.083699 C405.69798,374.647846 414.10135,347.120552 417.538105,318.765076 L413.119192,321.320411 C433.826136,333.874484 458.00092,339.47395 482.113147,337.301083 C483.421078,337.266216 484.551628,336.377588 484.895507,335.114111 C485.239386,333.850634 484.715325,332.510902 483.605758,331.816941 C473.668114,325.428604 465.930107,316.32768 459.233,306.735345 C452.005623,296.396067 445.347795,285.60469 438.788164,274.83297 C425.053529,252.267397 412.300875,229.131787 400.530201,205.42614 C389.099947,182.408469 378.749872,158.899387 369.106823,135.075802 C360.131521,112.903357 351.431173,90.57366 341.081097,68.9712509 C329.572285,44.9904147 315.883476,21.5992712 297.873952,1.92319162 C295.301163,-0.868020464 291.157205,3.29914124 293.710355,6.09035333 L293.572877,6.09035333 Z" id="Path" stroke="none" fill="#F09A00"></path>
                    <path d="M22,101.371893 C33.7946216,103.175766 45.0978006,98.156294 56.1847449,93.7054337 C57.2629965,93.1331777 58.4899544,92.9007216 59.7034737,93.038785 C60.7781503,93.4078983 61.7165577,94.0911114 62.396579,94.9995164 C71.0867949,105.558785 75.8877277,118.769028 76,132.429879 C76.037654,146.023603 72.3610057,159.370671 65.3648921,171.03668 C64.7563921,172.192748 63.9591872,173.23971 63.0059678,174.134636 C61.6061803,175.129652 60.0008889,175.7996 58.3077768,176.095367 C47.8703457,178.737163 36.9238722,178.62906 26.5409293,175.78165 C25.3834124,175.557393 24.3093897,175.021758 23.4350123,174.232673 C22.5469132,172.962417 22.1298913,171.423391 22.2555501,169.879849 C21.7641076,145.370706 23.4153546,127.390799 22.923912,102.764013" id="Path" stroke="none" fill="#FFDD47"></path>
                    <path d="M21.1619776,105.044638 C28.7124342,105.936291 36.3669513,105.067677 43.5250934,102.50693 C47.0882307,101.326601 50.5726247,99.9298775 54.0570186,98.5724987 C55.2972266,98.0610226 58.1123019,96.3298728 59.3525099,96.979054 C60.5927179,97.6282352 61.7935543,99.8118445 62.5809879,100.913485 C70.7256269,112.66069 74.3279688,126.962182 72.7191963,141.162718 C71.9381014,148.550157 69.9913452,155.767402 66.9512447,162.546352 C65.6436687,166.03975 63.8831728,169.346652 61.7148109,172.38243 C59.6084259,174.979155 54.7263372,175.274237 51.6553459,175.746369 C43.8155723,176.914649 35.8203342,176.486391 28.1504513,174.487351 C26.5165264,173.897186 25.4141193,173.897186 25.197575,171.92997 C25.0563178,169.96611 25.0168934,167.996258 25.07946,166.028323 C25.07946,162.093892 25.07946,158.159461 25.07946,154.225029 C25.2960043,137.306975 26.1031238,120.408592 25.7881503,103.470866 C25.7881503,99.6741394 19.8823979,99.6741394 19.8823979,103.470866 C20.1973713,120.408592 19.3902518,137.306975 19.1737076,154.225029 C19.1737076,158.631593 19.1737076,163.038156 19.1737076,167.444719 C19.1737076,171.005379 18.8193624,175.313581 21.7919245,177.831617 C24.7644865,180.349653 30.040292,180.821785 33.7609161,181.333261 C37.9703648,181.945947 42.2305166,182.137059 46.4779696,181.903754 C50.9716427,181.696232 55.4283148,180.990258 59.7659126,179.798833 C63.367508,178.884819 66.4140092,176.490762 68.152081,173.208661 C72.364777,165.991429 75.439054,158.16842 77.2666256,150.015188 C80.9182525,134.255455 78.7584256,117.708293 71.1837006,103.411849 C69.2368256,99.6169756 66.7576328,96.1193718 63.8211959,93.0249505 C59.8840276,89.2085522 55.5531425,91.6478996 51.2616291,93.3593772 C42.2455137,96.979054 32.5797656,100.736436 22.7368449,99.3790571 C21.1685045,99.0055022 19.5781198,99.9075254 19.0949642,101.444634 C18.691638,103.006413 19.6091798,104.604445 21.1619776,105.044638 L21.1619776,105.044638 Z" id="Path" stroke="none" fill="#FFDD47"></path>
                    <path d="M414,4 C389.316698,31.1230754 362.740746,56.1219361 331.472601,75.5152301 C330.053114,76.4003196 325.558072,80.0390208 323.941434,80 C322.324796,79.9603462 319.05209,76.6560121 317.632603,75.4955614 C299.573573,60.7244014 291.82554,40.2099941 292.002976,16.9223064 L309.115681,4 L414,4 Z" id="Path" stroke="none" fill="#FFDD47"></path>
                    <path d="M411.832388,1.97446494 C393.706296,21.9980771 374.357335,41.1151083 352.661252,57.4729805 C347.401596,61.4146364 341.997299,65.2446121 336.448361,68.9629075 C334.081516,70.5198616 331.635776,71.958566 329.288654,73.5746449 C327.617497,75.0438529 325.752688,76.2772451 323.746291,77.240385 C323.549054,77.240385 324.614134,77.4965926 324.002699,77.240385 C323.486927,77.004309 323.013755,76.6846683 322.602316,76.2943875 C321.675301,75.5454729 320.827182,74.6783086 319.939615,73.9096857 C317.710835,71.9388577 315.50178,70.0665712 313.450513,67.9972018 C309.588463,63.9748822 306.272733,59.4623924 303.588658,54.5758634 C297.563549,43.033138 294.589845,30.1436014 294.949672,17.130132 L293.490117,19.5739587 L303.943684,11.6906468 L309.584666,7.41395012 C310.117206,7.00007625 311.162563,6.58620238 309.801627,6.88182657 C308.085664,7.27599217 309.131021,7.01978453 309.367705,7.07890937 C311.378565,7.32532995 313.412025,7.32532995 315.422885,7.07890937 L414.041443,7.07890937 C415.675409,7.07890937 417,5.75535477 417,4.12266742 C417,2.48998008 415.675409,1.16642547 414.041443,1.16642547 L320.629945,1.16642547 C316.862716,1.16642547 312.858802,0.791968159 309.111297,1.16642547 C308.053631,1.31370738 307.07156,1.79744812 306.31053,2.54600505 L301.379602,6.25116162 L291.142996,13.9176824 C290.926035,14.0753486 290.709074,14.2330149 290.53156,14.3906811 C288.559189,15.9673435 289.032558,18.1549625 289.09173,20.4214147 C289.189465,24.4539188 289.545218,28.4760485 290.15681,32.4631736 C291.285348,40.0176211 293.546054,47.3591652 296.862872,54.2408226 C300.284176,61.246378 304.857853,67.628527 310.393338,73.1213545 C312.878526,75.5848895 315.580674,77.9104665 318.282823,80.1966269 C320.984971,82.4827873 323.410988,83.9017835 326.685124,82.3448294 C329.116372,80.9573135 331.461218,79.4238254 333.706765,77.7528002 C337.651508,75.2958347 341.510781,72.7468972 345.284584,70.1059877 C352.819042,64.8832936 360.116815,59.3058505 367.177904,53.491908 C381.075057,41.8912546 394.248813,29.4517954 406.625328,16.2432594 C409.820569,12.8928519 412.963214,9.50302777 416.053262,6.07378711 C418.656792,3.35404451 414.475365,-0.843819053 411.832388,1.97446494 Z" id="Path" stroke="none" fill="#FFDD47"></path>
                    <path d="M355.447442,70.0668967 L464.492841,7.35220369 L460.461406,3.42271165 C443.486711,36.9631849 423.82943,69.0797706 401.681118,99.4594972 C399.930885,101.83684 403.333023,105.098318 405.614225,103.388989 C447.954125,74.7429922 496.665658,58.6320749 541.621074,35.0747701 C554.539558,28.4094092 567.019695,20.9282097 578.985593,12.6766654 L575.327803,8.0398648 C549.310299,40.5957064 515.701897,65.6069232 487.422856,95.9818967 C479.282705,104.64527 471.721392,113.833896 464.787824,123.488341 C464.335768,124.277848 464.271184,125.230903 464.612602,126.074081 C464.95402,126.917259 465.663705,127.557374 466.538056,127.810782 C489.825795,135.484392 514.151704,139.552652 538.671244,139.874323 C559.260471,140.389787 579.858842,139.319105 600.283369,136.671787 C611.197742,135.217875 622.033452,133.292424 632.869163,131.445562 C636.605615,130.816844 635.012706,125.11908 631.29592,125.767446 C613.670052,129.079864 595.880427,131.454006 578.002316,132.879827 C554.403673,134.373034 530.805029,134.844573 507.36371,131.504505 C493.992179,129.637793 480.824554,126.526512 468.032637,122.211256 L469.802535,126.533697 C493.814155,92.877598 526.832591,67.5913167 555.740929,38.572018 C564.132511,30.2063835 572.062859,21.3913243 579.496897,12.1658314 C581.463451,9.78848876 578.906931,5.44640005 575.917769,7.5486783 C534.030177,36.7251567 485.357975,52.9932538 440.225569,76.1969043 C427.295336,82.7973218 414.772208,90.1652009 402.723391,98.2610021 L406.754826,102.308379 C428.90913,71.9288118 448.57296,39.8122719 465.55478,6.27159338 C466.120029,5.11835771 465.87852,3.73271227 464.95637,2.83824392 C464.03422,1.94377558 462.640769,1.74354029 461.503679,2.34210134 L352.45828,64.9782045 C351.548437,65.511676 350.992572,66.4895736 351,67.5435327 C351.007578,68.5974919 351.577309,69.5673912 352.494656,70.0878788 C353.412002,70.6083665 354.537598,70.6003682 355.447442,70.0668967 Z" id="Path" stroke="none" fill="#CA3953"></path>
                    <path d="M158.10155,299.727049 C142.300914,301.536108 126.666941,295.162743 116.594855,282.806377 C105.587662,269.57606 101.833877,251.399097 104.864276,234.556943 C106.50342,223.723942 111.052373,213.544363 118.022075,205.112618 C120.524598,202.285963 116.379794,198.104869 113.877271,200.951154 C88.6174255,229.512149 93.5442684,281.37342 128.325433,300.041122 C137.499218,304.873285 147.904401,306.835518 158.199305,305.674803 C161.913988,305.282212 161.95309,299.393347 158.199305,299.785938 L158.10155,299.727049 Z" id="Path" stroke="none" fill="#D3C651"></path>
                    <path d="M27.705169,138.978426 C40.8048122,136.839766 53.9631981,135.523668 67.1803268,134.187005 C70.9202847,133.796289 70.9594465,127.627077 67.1803268,128.017794 C53.4736748,129.416149 39.7670228,130.835067 26.0603708,133.055983 C24.5525065,133.568552 23.6915965,135.232159 24.1022777,136.839766 C24.6067974,138.41916 26.1901918,139.318021 27.72475,138.89617 L27.705169,138.978426 Z" id="Path" stroke="none" fill="#FFD301"></path>
                    <path d="M258.528178,37.5751295 C255.109069,48.3803972 257.977977,59.9911485 261.731137,70.6785406 C266.80085,85.0790155 275.879175,94.6858808 288.671359,103.035406 C290.233449,104.30159 292.182055,104.9949 294.193023,105 C295.804037,104.654672 297.283196,103.85732 298.457085,102.701425 L323,82.8393782 C315.459903,80.382238 308.913399,75.5595071 304.33245,69.0872193 C300.260633,63.2730895 296.8964,56.9945006 294.310924,50.3842832 C290.105812,38.3216753 290.066512,26.8091537 289.575261,14 C279.095233,20.9415659 268.870656,28.269502 258.901529,35.9838083" id="Path" stroke="none" fill="#FFDD47"></path>
                    <path d="M255.559317,36.6977891 C253.01439,45.2837348 253.869175,54.2832238 256.083843,62.8297845 C257.937037,70.5384358 260.97918,77.9021893 265.097933,84.6491144 C268.969934,90.6611126 273.794377,95.9840038 279.376716,100.403143 C282.231532,102.860489 285.315524,105.030334 288.585075,106.881988 C292.0613,108.784003 296.347762,108.221047 299.231025,105.483818 C307.662307,98.8080478 315.860466,91.8368901 324.155759,85.0035801 C324.882548,84.2601406 325.166963,83.1823488 324.903406,82.1703743 C324.639848,81.1583998 323.867674,80.3633614 322.873583,80.080446 C310.751187,76.5751746 303.446666,65.0944261 298.415095,54.2044537 C292.58702,41.6603082 292.470458,27.5210673 291.965358,13.9332174 C291.951258,12.8801352 291.388683,11.913173 290.486356,11.3910857 C289.584029,10.8689984 288.476575,10.869681 287.574875,11.3928803 C276.993681,18.4821933 266.69094,25.9784853 256.666651,33.8817565 C253.713759,36.2054757 257.851693,40.3606008 260.785157,38.0565741 C270.420908,30.4946402 280.328635,23.3068646 290.50834,16.4932471 L286.137283,13.9332174 C286.700664,28.978315 287.069775,44.2006453 293.772062,57.9854206 C299.600137,70.0372527 307.934284,81.8921594 321.319429,85.771589 L320.173241,80.7106072 L301.037728,96.4646361 C299.444721,97.784036 297.851714,99.1034359 296.23928,100.403143 C294.626846,101.702851 293.558365,102.589015 291.654528,101.702851 C288.788919,100.15286 286.098581,98.2907571 283.631211,96.1495555 C278.777918,92.4064273 274.513646,87.9377734 270.984288,82.8964787 C267.259579,77.1727887 264.440988,70.8937515 262.630714,64.2870321 C260.124642,55.7995491 258.745331,46.8985228 261.27083,38.2534995 C262.33931,34.6103803 256.724932,33.0546699 255.637024,36.6780966 L255.559317,36.6977891 Z" id="Path" stroke="none" fill="#FFDD47"></path>
                    <path d="M157.084805,306.656271 C165.157917,342.463952 171.027497,378.742013 176.214569,415.059272 C177.644589,424.989517 179.022608,434.945895 180.348626,444.928405 C180.826493,446.454277 182.424266,447.322318 183.956176,446.888322 C185.444505,446.383776 186.294565,444.811733 185.906202,443.282075 C181.050636,407.278402 175.844064,371.313928 168.99947,335.643442 C167.101443,325.438808 165.008415,315.260306 162.720383,305.107937 C161.881871,301.423293 156.246294,302.971628 157.084805,306.656271 Z" id="Path" stroke="none" fill="#D3C651"></path>
                    <path d="M318.444383,53.5957094 C340.059298,40.7894276 359.473422,24.7766873 378.985795,9.0767723 C381.933284,6.71103168 377.7282,2.58564927 374.820012,4.93183832 L373.680316,5.85076236 L377.8461,9.99569634 L382.99438,5.85076236 C385.941868,3.48502174 381.756434,-0.659912243 378.828596,1.70582838 L373.680316,5.85076236 C370.732828,8.21650298 374.918261,12.3418854 377.8461,9.99569634 L378.985795,9.0767723 L374.820012,4.93183832 C355.700637,20.3189281 336.659862,35.97974 315.457595,48.5318514 C314.052215,49.3525022 313.581545,51.1513544 314.406324,52.5497002 C315.231103,53.9480459 317.039004,54.4163602 318.444383,53.5957094 Z" id="Path" stroke="none" fill="#FFD301"></path>
                    <path d="M266.199736,38.0661001 C261.31161,61.1404391 271.653166,84.7707588 291.882943,96.751889 C293.241732,97.3493373 294.830717,96.8358933 295.587971,95.5546939 C296.345225,94.2734944 296.033321,92.6262435 294.860706,91.7138065 C276.879724,81.1185058 267.626765,60.1844816 271.861404,39.6798609 C272.703797,35.9800191 267.042129,34.4056183 266.199736,38.1251401 L266.199736,38.0661001 Z" id="Path" stroke="none" fill="#FFD301"></path>
                    <path d="M328.447918,82.6145591 C354.881197,64.4937523 379.601087,43.9844784 402.297477,21.3440253 C408.031078,15.6398664 413.686135,9.83736004 419.321558,4.05452314 C421.442205,1.87120717 418.104149,-1.47261009 415.983503,0.710705886 C395.444646,21.8554326 374.375628,42.410074 351.028879,60.3880091 C342.899733,66.6822533 334.554595,72.6814549 326.052373,78.4642918 C323.578285,80.1755394 325.914924,84.3651458 328.447918,82.5555505 L328.447918,82.6145591 Z" id="Path" stroke="none" fill="#000000"></path>
                    <path d="M168.720506,231.24448 C155.051486,232.899199 144.623977,237.357208 132.888148,244.657441 C130.279335,246.028049 128.112937,248.106812 126.639453,250.653365 C125.389714,253.281449 125.936475,256.999701 128.59217,258.342944 C129.820526,258.875367 131.163936,259.089653 132.497604,258.965897 C141.245777,258.732289 149.661987,255.695393 157.882926,252.677963 L181.998982,243.898217 C184.398128,243.277588 186.538039,241.914426 188.110986,240.004759 C190.727627,235.975031 187.193209,229.453489 182.389525,229.044676 C177.731721,228.803653 173.075022,229.539808 168.720506,231.205545" id="Path" stroke="none" fill="#D3D4D4"></path>
                    <path d="M168.816326,228.457842 C157.950114,229.790007 147.443791,233.165272 137.866679,238.400738 C133.316414,240.876789 127.687423,243.526939 124.745441,247.918062 C122.215337,251.670828 122.23495,257.377353 126.137979,260.240288 C130.531339,263.451418 138.219717,261.497658 143.06418,260.395041 C149.143185,258.829479 155.11721,256.891297 160.951429,254.591795 L179.289781,247.976094 C183.957725,246.293153 189.978981,244.822997 191.665717,239.542043 C192.873946,234.798447 190.733707,229.84144 186.42899,227.413258 C181.094197,224.434258 173.405818,226.832933 168.031798,228.515875 C164.44258,229.637836 166.070477,235.228296 169.600855,234.106335 C173.131233,232.984375 178.779838,230.933894 182.839772,232.17192 C185.095292,232.848965 187.076226,236.137472 185.840594,238.323361 C184.683799,239.71614 183.089749,240.689396 181.309942,241.089575 L174.15112,243.662348 L159.833476,248.846581 C151.046757,251.999678 141.887388,255.791132 132.37498,255.945886 C130.629405,255.945886 129.060348,255.945886 128.824989,253.876061 C128.828389,252.032749 129.743515,250.30703 131.276641,249.252808 C134.547214,246.710054 138.100432,244.542472 141.867774,242.791861 C150.225434,238.320552 159.347975,235.408858 168.7771,234.203056 C172.483997,233.758141 172.523223,227.93555 168.7771,228.39981 L168.816326,228.457842 Z" id="Path" stroke="none" fill="#D3D4D4"></path>
                    <path d="M301.763071,190.363609 C287.964742,192.065075 274.699339,196.813265 262.896422,204.275455 C260.287105,205.669317 258.118376,207.784362 256.640221,210.376792 C255.388981,213.079665 255.936398,216.855737 258.595284,218.326418 C259.823403,218.8759 261.169946,219.094911 262.50541,218.962388 C271.283642,218.7239 279.709963,215.603671 287.921226,212.543065 L311.98805,203.579862 C314.397173,202.950103 316.546992,201.558138 318.126947,199.605049 C320.746732,195.491118 317.071213,189.668017 312.398613,188.415951 C307.726013,187.163885 302.857907,188.972425 298.380813,190.741216" id="Path" stroke="none" fill="#D3D4D4"></path>
                    <path d="M301.868106,188.3388 C290.103828,189.734304 278.682472,193.172517 268.13199,198.494508 C263.603784,200.777124 258.330678,203.349904 255.174656,207.450875 C252.351878,211.164963 251.979428,216.929536 255.841145,220.12133 C259.702862,223.313124 267.406693,221.688211 272.170131,220.682312 C278.094446,219.275274 283.911168,217.458887 289.577261,215.24659 L308.356575,208.456774 C312.943589,206.793172 319.118416,205.477766 321.274704,200.603026 C323.430993,195.728287 320.490599,190.40863 316.256433,187.816506 C310.512864,184.295861 303.357906,186.597821 297.614337,188.803061 C294.12507,190.137811 295.654075,195.747631 299.162944,194.393536 C303.083469,192.904033 308.356575,190.524695 312.512331,192.459116 C314.923454,193.523047 317.550206,196.98566 315.178288,199.28762 C313.617266,200.459028 311.8292,201.301772 309.924785,201.763679 L302.769827,204.355802 L288.910772,209.365952 C280.38363,212.44168 270.856755,216.58134 261.584714,216.155768 C256.821276,215.942981 259.369617,211.048897 261.584714,209.211198 C265.00465,206.648537 268.714837,204.486826 272.640594,202.769577 C281.807563,198.332523 291.658179,195.430024 301.789696,194.18075 C305.494592,193.716489 305.533797,187.913227 301.789696,188.377488 L301.868106,188.3388 Z" id="Path" stroke="none" fill="#D3D4D4"></path>
                    <path d="M194.89771,250.957906 C194.947181,251.83143 194.947181,252.70706 194.89771,253.580583 C194.799289,254.487675 194.89771,253.265073 194.89771,253.797497 L194.779605,254.507394 C194.779605,254.94122 194.622132,255.355327 194.504028,255.789154 C194.307934,256.634736 194.051379,257.465093 193.736348,258.273795 C193.736348,258.510428 193.559191,258.727341 193.480454,258.963973 C193.598559,258.668183 193.480454,258.963973 193.480454,258.963973 C193.480454,258.963973 193.067088,259.851345 192.850563,260.265452 C192.435637,261.037069 191.982333,261.787348 191.49236,262.513461 L191.15773,262.986726 C190.626259,263.736062 191.334887,262.769813 191.000257,263.18392 C190.665627,263.598027 190.449102,263.874098 190.173524,264.189608 C189.563397,264.89145 188.905701,265.550325 188.205114,266.161545 L187.772064,266.536214 C187.653959,266.536214 187.240593,266.950321 187.575223,266.713688 L186.374492,267.541902 C185.031568,268.392969 184.601878,270.156142 185.402239,271.531407 C186.2026,272.906671 187.945907,273.400692 189.346792,272.64922 C196.649317,267.864154 201.03558,259.6994 200.999783,250.957906 C200.999783,249.3243 199.677851,248 198.047167,248 C196.416482,248 195.094551,249.3243 195.094551,250.957906 L194.89771,250.957906 Z" id="Path" stroke="none" fill="#000000"></path>
                    <path d="M175.598861,262.44402 C175.330034,262.955186 175.0312,263.449251 174.703996,263.923505 C174.551679,264.176575 174.361282,264.429645 174.189925,264.663248 C174.018568,264.896851 174.5136,264.254443 174.304163,264.546446 L174.037608,264.857917 C173.320125,265.760502 172.530427,266.600477 171.676688,267.369148 L171.067419,267.894755 L171.067419,267.894755 C171.448212,267.602751 171.067419,267.894755 171.067419,267.894755 C170.614323,268.243569 170.144063,268.568442 169.658483,268.868101 C169.180722,269.183846 168.684793,269.469879 168.173389,269.724645 L167.449881,270.094516 L167.011969,270.308652 L167.392762,270.13345 L167.088127,270.250251 C166.384844,270.48705 165.780804,270.960539 165.374557,271.593468 C165.007634,272.283559 164.905792,273.088811 165.088962,273.85163 C165.301364,274.580887 165.769048,275.2046 166.402699,275.603652 C167.071334,275.998298 167.866477,276.103425 168.611301,275.895656 C173.648189,273.873836 177.873206,270.177986 180.606295,265.40299 C181.405459,264.0107 180.949406,262.219637 179.587672,261.40254 C178.225938,260.585443 176.474184,261.051729 175.67502,262.44402 L175.598861,262.44402 Z" id="Path" stroke="none" fill="#000000"></path>
                    <path d="M260.293535,235.328193 C266.895996,244.325493 281.136215,245.766619 289.145118,237.743052 C289.88487,237.002065 290.171914,235.923907 289.898124,234.914712 C289.624335,233.905517 288.831305,233.118604 287.817763,232.850396 C286.804221,232.582189 285.724147,232.873433 284.984395,233.614421 C282.251773,236.26091 278.477013,237.553434 274.690025,237.139338 C273.830822,237.085753 272.979663,236.942147 272.150617,236.710895 C271.263125,236.502724 270.403973,236.188875 269.591675,235.77611 C269.142395,235.542414 268.693115,235.308718 268.263369,235.036072 L267.638284,234.60763 C267.638284,234.60763 267.091335,234.198661 267.384343,234.432357 C266.952896,234.086551 266.548061,233.708982 266.173241,233.302826 C265.875777,233.012997 265.601468,232.700453 265.352817,232.368042 C264.510838,231.073184 262.820712,230.626659 261.446035,231.335884 C260.059042,232.155551 259.589235,233.933669 260.391204,235.328193 L260.293535,235.328193 Z" id="Path" stroke="none" fill="#000000"></path>
                    <path d="M279.173914,230.401796 C281.759003,231.117438 284.469099,231.19209 287.08688,230.619767 C289.680281,230.032939 292.104457,228.817776 294.162899,227.072782 C294.705424,226.521008 295.007801,225.762147 295,224.972333 C295,223.330759 293.722411,222 292.146614,222 C291.399882,222.047768 290.690027,222.354724 290.130329,222.871884 C290.777062,222.35668 290.130329,222.871884 289.940114,223.010593 L289.293381,223.42672 C288.836863,223.704138 288.380346,223.941925 287.923829,224.179711 C287.467312,224.417498 287.676549,224.298605 288.076001,224.179711 L287.714592,224.31842 L286.972751,224.576022 C286.517232,224.729247 286.053603,224.854954 285.584178,224.952518 C285.366822,225.016111 285.143701,225.055957 284.918423,225.071411 L285.089617,225.071411 L284.709186,225.071411 C284.196,225.101117 283.681627,225.101117 283.16844,225.071411 L282.407578,225.071411 L282.008126,225.071411 L282.198341,225.071411 C281.687278,225.015685 281.183468,224.902744 280.695638,224.734547 C279.702445,224.414848 278.62094,224.683153 277.872678,225.434882 C277.124416,226.186611 276.827819,227.302792 277.098496,228.348354 C277.369174,229.393917 278.164288,230.203385 279.173914,230.461242 L279.173914,230.401796 Z" id="Path" stroke="none" fill="#000000"></path>
                    <path d="M240.60846,330.823787 C253.195299,326.442215 265.509993,321.317362 277.487339,315.476363 C280.919316,313.793097 277.903937,308.664087 274.47196,310.32755 C262.96898,315.965513 251.129824,320.892574 239.021418,325.08088 C235.430736,326.328477 237.037616,332.071384 240.60846,330.823787 L240.60846,330.823787 Z" id="Path" stroke="none" fill="#000000"></path>
                    <path d="M283.946305,192.883713 C278.892952,194.950291 274.854329,199.960766 276.295244,205.439145 C277.838388,210.242294 282.647677,213.370957 287.863161,212.964606 C290.657537,212.76445 293.343432,211.841504 295.635989,210.293652 C298.015788,208.926201 299.802697,206.780456 300.669047,204.249889 C302.211436,198.868989 298.152518,193.020186 292.85563,191.343529 C287.558742,189.666871 282.20097,194.443394 280.232395,198.829997 C279.56871,200.119423 279.188741,201.5264 279.116192,202.963152 C279.148024,204.544803 279.88752,206.036637 281.145651,207.057314 C283.191658,208.871834 285.914718,209.814124 288.695239,209.66978 C291.508885,209.464137 294.050672,207.978787 295.534516,205.673097 C296.86212,203.416848 296.86212,200.657334 295.534516,198.401085 C294.060217,195.814564 291.023132,194.430484 288.005223,194.969787 C285.182774,195.378671 282.833856,197.2666 281.916846,199.863286 C281.371565,201.614369 281.862114,203.511761 283.196869,204.814283 C284.531624,206.116805 286.498791,206.617777 288.329936,206.121506 C291.698838,205.224689 295.412748,201.033047 292.388854,197.894189 C291.680786,197.143049 290.6833,196.703371 289.628777,196.677585 C288.574253,196.651799 287.554774,197.042156 286.807842,197.757716 C285.705533,199.024501 285.159649,200.653651 285.285748,202.300287 C285.345771,204.174915 286.712209,205.775731 288.61406,206.19949 C290.691606,206.720927 292.818854,205.538281 293.383289,203.548032 C293.673311,202.53807 293.380425,201.45619 292.614956,200.709926 C291.849488,199.963661 290.727732,199.666388 289.672241,199.930085 C288.61675,200.193783 287.78788,200.978389 287.497858,201.988351 C287.822431,200.934594 288.936005,200.297834 290.054976,200.52615 C290.515491,200.676679 290.904404,200.981102 291.150884,201.383975 C291.292946,202.163815 291.35383,202.358775 291.35383,201.968855 C291.35383,201.578935 291.35383,201.793391 291.35383,201.968855 L291.475598,201.559439 C291.475598,201.442463 291.475598,201.305991 291.61766,201.169519 C291.477898,201.545354 291.214244,201.867087 290.86676,202.085831 L289.344666,202.495247 C288.411115,202.495247 287.315207,201.189015 287.457269,200.545646 C287.554218,200.290487 287.635535,200.030095 287.700804,199.765806 L287.700804,199.765806 L287.396385,200.058246 C287.297848,200.159357 287.189073,200.25079 287.071672,200.33119 C287.558742,199.960766 286.544012,200.62363 286.848431,200.467662 C287.15285,200.311694 286.726664,200.467662 286.686074,200.467662 C286.117826,200.62363 286.686074,200.467662 286.848431,200.467662 C287.18113,200.520221 287.479516,200.695005 287.680509,200.955062 C287.680509,200.955062 288.025517,201.559439 287.680509,200.955062 C287.680509,200.955062 287.781982,201.500951 287.680509,201.150023 C287.579036,200.799094 287.680509,201.286495 287.680509,201.344983 C287.579036,201.773895 287.558742,201.500951 287.680509,201.344983 C287.802277,201.189015 288.005223,201.072039 287.680509,201.344983 L288.066107,200.974558 C287.63992,201.325487 288.329936,200.857582 288.492293,200.779598 C288.65465,200.701614 288.492293,200.779598 288.492293,200.779598 L289.040247,200.62363 C289.202604,200.62363 289.567906,200.62363 289.040247,200.62363 C289.182127,200.633391 289.324553,200.633391 289.466433,200.62363 C289.770852,200.62363 289.466433,200.62363 289.36496,200.62363 C289.263487,200.62363 290.11586,200.857582 289.791147,200.62363 C289.466433,200.389678 290.339101,201.111031 289.791147,200.62363 L290.11586,200.955062 C290.11586,200.955062 289.933209,200.565142 290.11586,200.838086 C290.298511,201.111031 290.460868,201.637423 290.298511,201.072039 C290.341699,201.186328 290.375625,201.303653 290.399984,201.422967 C290.501457,201.754399 290.399984,201.851879 290.399984,201.422967 C290.399984,201.598431 290.399984,202.300287 290.399984,201.968855 C290.399984,201.637423 290.095566,202.690208 290.399984,201.968855 C290.399984,202.085831 289.953503,202.768192 290.11586,202.514743 C290.278217,202.261295 290.11586,202.514743 290.11586,202.514743 C290.11586,202.514743 289.811441,202.807184 289.669379,202.943656 C289.527317,203.080128 289.669379,202.943656 289.791147,202.943656 C289.912914,202.943656 289.507022,203.138616 289.344666,203.2166 L288.999658,203.392064 C288.634355,203.587024 289.446139,203.392064 288.999658,203.392064 C288.553177,203.392064 288.066107,203.587024 288.65465,203.528536 C288.262879,203.557807 287.869334,203.557807 287.477563,203.528536 C288.005223,203.528536 287.193439,203.528536 287.010788,203.41156 C286.828137,203.294584 286.056942,203.041136 286.503423,203.255592 C286.197246,203.107979 285.899196,202.945296 285.610461,202.768192 C285.326337,202.612223 285.610461,202.768192 285.610461,202.768192 L285.082802,202.319783 C284.818972,202.085831 285.082802,202.319783 285.082802,202.319783 C284.798678,202.124823 284.94074,202.027343 285.082802,202.319783 C285.224864,202.612223 285.184275,202.768192 285.082802,202.319783 C284.981329,201.871375 284.961034,202.612223 285.082802,202.319783 C285.204569,202.027343 285.265453,201.695911 285.366926,201.403471 L285.508988,201.033047 C285.508988,200.72111 285.326337,201.325487 285.508988,200.857582 C285.786158,200.286833 286.111982,199.739079 286.483129,199.219917 C286.545677,199.102469 286.620474,198.991422 286.706369,198.888485 C286.990493,198.518061 286.442539,199.180925 286.706369,198.888485 C286.970199,198.596045 287.213734,198.362093 287.477563,198.108645 C287.741393,197.855197 287.944339,197.679732 288.187874,197.465276 C288.431409,197.25082 288.573471,197.172836 288.309642,197.3483 C288.045812,197.523764 288.512588,197.231324 288.573471,197.192332 C288.634355,197.15334 289.162014,196.821908 289.466433,196.646444 C289.466433,196.646444 289.933209,196.451484 289.689674,196.646444 C289.446139,196.841404 290.197038,196.509972 290.217333,196.509972 C289.669379,196.509972 290.805876,196.509972 290.521752,196.509972 C290.237628,196.509972 291.333535,196.821908 290.826171,196.509972 C291.113903,196.63354 291.391984,196.776883 291.658249,196.938884 L292.165614,197.270316 C291.8409,197.036364 292.165614,197.270316 292.348265,197.426284 C292.816966,197.827543 293.251318,198.264362 293.647119,198.732517 C293.322405,198.342597 293.910948,199.180925 293.971832,199.278405 C294.032716,199.375885 294.113894,199.512358 294.174778,199.64883 C294.235662,199.785302 294.418313,200.292198 294.174778,199.824294 C294.276251,200.097238 294.357429,200.389678 294.438608,200.662622 C294.519786,200.935566 294.438608,200.896574 294.438608,200.760102 C294.448738,200.948438 294.448738,201.137151 294.438608,201.325487 C294.438608,201.481455 294.438608,202.183311 294.438608,201.715407 C294.377821,202.095029 294.275791,202.467487 294.134189,202.82668 C294.31684,202.417263 294.134189,202.82668 294.134189,202.82668 L293.82977,203.294584 C294.0936,202.943656 293.687708,203.470048 293.586235,203.567528 L292.85563,204.249889 L292.409149,204.600817 C291.982962,204.912753 292.957103,204.249889 292.165614,204.756785 C291.6174,205.129351 291.040756,205.461723 290.440574,205.751081 C290.318806,205.751081 289.507022,206.160498 289.912914,206.00453 C289.527826,206.148395 289.134885,206.272052 288.735828,206.374954 C288.395616,206.471365 288.050072,206.54947 287.700804,206.608906 C287.193439,206.608906 288.106696,206.608906 287.700804,206.608906 L287.254323,206.608906 C286.896072,206.628383 286.536961,206.628383 286.17871,206.608906 L285.853996,206.608906 L285.610461,206.608906 C285.232077,206.519113 284.859392,206.408453 284.494259,206.277474 C285.062507,206.472434 284.18984,206.121506 284.047778,206.024026 C283.905716,205.926546 283.114227,205.419649 283.581002,205.790073 C283.316293,205.577714 283.065514,205.349825 282.830102,205.107713 C282.736778,205.021673 282.648688,204.93054 282.566273,204.834769 C282.322738,204.620313 282.789513,205.205193 282.566273,204.834769 C282.343032,204.464345 282.221265,204.269385 282.079203,203.976944 C282.079203,204.09392 282.261854,204.522833 282.079203,203.976944 C282.079203,203.820976 281.97773,203.665008 281.93714,203.50904 C281.896551,203.353072 281.93714,203.177608 281.835667,203.02164 C281.835667,203.353072 281.835667,203.197104 281.835667,203.02164 L281.835667,202.768192 C281.835667,203.080128 281.835667,202.768192 281.835667,202.651216 C281.835667,202.534239 282.038613,201.890871 282.180676,201.520447 C282.018319,201.910367 282.180676,201.520447 282.180676,201.403471 L282.485094,200.877078 C282.606862,200.72111 282.708335,200.545646 282.850397,200.389678 C282.606862,200.701614 282.850397,200.389678 283.033048,200.214214 C283.302228,199.939598 283.586774,199.679266 283.885421,199.434374 C284.128956,199.219917 283.885421,199.434374 283.885421,199.434374 C283.885421,199.434374 284.291313,199.161429 284.494259,199.024957 C285.201204,198.601141 285.940711,198.229643 286.706369,197.913685 C288.097312,197.103885 288.579926,195.386761 287.802277,194.014482 C286.933887,192.711159 285.176584,192.255357 283.743359,192.961698 L283.946305,192.883713 Z" id="Path" stroke="none" fill="#000000"></path>
                    <path d="M153.627871,234.391442 C151.30589,235.335358 149.279722,236.863147 147.754391,238.820212 C146.43749,240.504209 145.563459,242.479366 145.209217,244.571862 C144.704187,247.078574 145.12026,249.679419 146.383913,251.914801 C148.137149,254.500974 151.437754,255.622809 154.450158,254.656421 C155.730533,254.292203 156.975373,253.817427 158.170028,253.23768 C159.291346,252.781504 160.366359,252.223051 161.380864,251.569702 C165.381403,249.423356 167.073355,244.659893 165.296517,240.545707 C164.889915,239.230829 164.224843,238.006429 163.33869,236.94134 C161.380864,234.736541 157.641415,234.621508 154.900458,235.196673 C152.100854,235.954262 149.860775,238.011671 148.909509,240.699085 C148.442391,241.931032 148.15886,243.222428 148.067643,244.533518 C147.892065,245.818924 147.998864,247.126228 148.380896,248.367951 C149.358669,250.987154 152.003622,252.643241 154.841723,252.413277 C157.682628,252.12874 160.174731,250.434211 161.439598,247.926991 C163.033291,245.477891 163.153061,242.37716 161.752851,239.817165 C160.253995,237.400374 157.317414,236.227789 154.520172,236.929135 C151.722931,237.630481 149.723131,240.040755 149.594748,242.865539 C149.202901,245.826573 151.072499,248.62569 153.999858,249.460764 C155.64433,249.853287 157.381101,249.441794 158.660451,248.35653 C159.939801,247.271266 160.603363,245.646574 160.441107,243.996697 C159.990807,240.66074 155.389915,237.401472 152.609801,240.469019 C150.299566,242.942228 151.846249,248.367951 155.624854,248.406295 C159.403459,248.444639 161.498333,242.424579 157.58268,240.603224 C155.757188,239.703131 153.531806,240.329344 152.472753,242.041136 C151.829321,243.266429 152.156883,244.76602 153.255884,245.626331 C154.423752,246.557985 156.125804,246.45798 157.171537,245.396265 L157.719728,244.763584 C158.797938,243.630471 158.766123,241.864715 157.647765,240.769555 C156.529408,239.674394 154.72625,239.643239 153.569136,240.699085 L153.001366,241.331766 L157.621837,244.8211 C157.208796,245.610635 156.296568,246.019578 155.416363,245.809792 C154.536158,245.600005 153.917871,244.826283 153.921545,243.93918 C153.928733,243.703031 153.99603,243.472378 154.117327,243.268155 C153.784497,243.84332 154.64594,242.827195 154.665519,242.808023 C155.091975,242.4664 155.654644,242.334702 156.192762,242.450557 C156.730879,242.566413 157.185251,242.917077 157.426054,243.40236 C157.093224,242.884711 157.426054,243.804975 157.426054,243.40236 C157.426054,243.40236 157.289006,242.9614 157.289006,242.9614 L157.289006,243.344843 C157.269249,243.22419 157.269249,243.101225 157.289006,242.980572 C157.523945,243.248982 156.525454,244.456829 156.721237,244.265107 C156.246533,244.706496 155.57797,244.886358 154.939614,244.744411 C154.802567,244.744411 154.293532,244.322624 154.469736,244.514345 C154.64594,244.706067 154.861301,245.031994 154.469736,244.514345 C154.469736,244.514345 154.704675,244.916961 154.743832,244.936133 C154.782988,244.955305 154.587206,244.341796 154.587206,244.322624 C154.587206,243.67077 154.587206,243.920008 154.587206,244.130902 C154.76341,243.747459 154.782988,243.689942 154.587206,243.958353 L154.802567,243.689942 C154.391423,244.169246 155.21371,243.498221 154.802567,243.689942 C154.391423,243.881664 155.487806,243.555737 154.802567,243.689942 C154.920036,243.689942 155.468228,243.689942 154.978771,243.689942 C155.683589,243.689942 155.292023,243.689942 155.135397,243.689942 C155.801058,243.958353 155.33118,243.689942 155.135397,243.689942 C154.939614,243.689942 155.448649,244.035041 155.135397,243.689942 C154.822145,243.344843 154.743832,243.689942 155.135397,243.689942 L155.017927,243.517393 C154.861301,243.22981 154.88088,243.268155 155.017927,243.632426 C155.017927,243.632426 155.017927,243.268155 154.900458,243.268155 C154.782988,243.268155 154.900458,243.920008 154.900458,243.459876 C154.900458,243.344843 155.037506,242.846367 154.900458,243.287327 C154.76341,243.728287 154.900458,243.287327 154.900458,243.114777 C154.900458,242.635473 154.900458,243.364015 154.900458,243.268155 C154.938933,243.144227 154.998506,243.027554 155.076662,242.923056 C155.131692,242.804634 155.20426,242.694809 155.292023,242.597129 C155.017927,242.923056 154.978771,242.980572 155.194132,242.750506 L155.33118,242.616301 C155.703167,242.194513 154.978771,242.731334 155.33118,242.616301 C155.683589,242.501268 155.703167,242.347891 155.742323,242.386235 L155.566119,242.386235 C155.350758,242.386235 155.350758,242.386235 155.566119,242.386235 L155.761902,242.386235 L155.370336,242.386235 L155.840215,242.386235 C156.173045,242.386235 155.194132,242.175341 155.722745,242.386235 L156.094732,242.501268 C156.094732,242.501268 155.448649,242.25203 156.094732,242.501268 C156.740815,242.750506 155.898949,242.501268 155.977262,242.386235 L156.251358,242.654645 L156.388406,242.788851 C156.56461,242.980572 156.56461,242.980572 156.388406,242.788851 L156.270936,242.654645 L156.466719,242.980572 C156.466719,242.980572 156.270936,242.271202 156.466719,242.808023 C156.466719,242.942228 156.466719,243.057261 156.466719,243.191466 C156.466719,242.597129 156.466719,243.191466 156.466719,243.306499 C156.466719,243.421532 156.584189,242.942228 156.466719,243.440704 C156.389622,243.858095 156.25802,244.264041 156.075154,244.648551 C156.075154,244.648551 156.34925,244.092558 156.075154,244.648551 C156.017924,244.786361 155.952553,244.920794 155.879371,245.051166 L155.585697,245.53047 C155.585697,245.664675 155.252867,246.124807 155.585697,245.53047 C155.585697,245.53047 154.920036,246.335701 154.802567,246.316529 C154.685097,246.297357 155.409493,245.933086 154.802567,246.316529 L154.411001,246.527423 C153.901966,246.853349 154.724254,246.527423 154.411001,246.527423 C154.097749,246.527423 153.941123,246.661628 153.941123,246.642456 C153.941123,246.623284 154.724254,246.642456 154.136906,246.642456 L153.74534,246.642456 C153.157992,246.642456 154.156484,246.815005 153.86281,246.642456 L153.569136,246.642456 C153.334197,246.642456 153.334197,246.642456 153.569136,246.642456 C153.804075,246.642456 153.86281,246.757489 153.569136,246.642456 C153.275462,246.527423 153.706184,246.642456 153.569136,246.642456 C153.432088,246.642456 153.275462,246.41239 153.29504,246.374045 C153.314618,246.335701 153.706184,246.872522 153.432088,246.508251 C153.157992,246.143979 153.432088,246.815005 153.432088,246.508251 C153.432088,246.201496 153.138414,245.97143 153.432088,246.508251 C153.275462,246.23984 153.432088,245.607159 153.432088,245.300404 C153.432088,244.993649 153.432088,244.629378 153.432088,244.303452 C153.432088,243.498221 153.432088,244.648551 153.432088,244.188419 C153.432088,243.728287 153.432088,243.785803 153.569136,243.574909 C153.706184,243.364015 153.74534,242.923056 153.843232,242.616301 C154.058592,241.887759 153.667027,242.884711 153.843232,242.482096 C154.019436,242.07948 154.039014,242.098653 154.156484,241.906931 C154.244798,241.743607 154.349749,241.589445 154.469736,241.446799 C154.469736,241.446799 154.058592,241.887759 154.469736,241.446799 C154.650214,241.215205 154.868512,241.014391 155.115819,240.852462 C154.548049,241.140044 154.998349,240.852462 155.115819,240.852462 C155.268315,240.750693 155.432619,240.667027 155.605275,240.603224 C155.605275,240.603224 154.978771,240.775773 155.507384,240.603224 C155.605275,240.603224 156.34925,240.488191 155.78148,240.603224 C156.56461,240.603224 157.347741,240.603224 158.130872,240.603224 C158.60075,240.603224 158.130872,240.603224 158.130872,240.603224 C158.130872,240.603224 158.522437,240.603224 158.581172,240.718257 C157.70015,240.488191 158.914002,240.83329 158.404967,240.603224 C157.895932,240.373158 158.874846,241.005839 158.404967,240.603224 C157.935089,240.200608 158.404967,240.756601 158.542015,240.83329 L158.757376,241.197561 C159.031472,241.734381 158.757376,241.197561 158.757376,241.197561 C158.832704,241.322011 158.885681,241.45819 158.914002,241.600176 C159.070628,242.002792 159.227254,242.405407 159.344724,242.827195 C159.462194,243.248982 159.344724,243.172294 159.481772,243.344843 C159.61882,243.517393 159.481772,244.169246 159.481772,243.632426 C159.472015,243.804843 159.472015,243.977657 159.481772,244.150074 C159.481772,244.801928 159.599242,243.785803 159.481772,244.150074 C159.426892,244.326642 159.381152,244.50581 159.344724,244.686895 C159.344724,244.878616 159.344724,245.127855 159.344724,244.686895 C159.344724,244.955305 159.031472,245.223715 158.914002,245.453781 C158.561593,246.067291 159.188098,245.185371 158.914002,245.453781 L158.444124,245.933086 L158.03298,246.316529 C158.03298,246.316529 157.641415,246.623284 158.03298,246.316529 C157.719728,246.546595 157.386898,246.738316 157.054067,246.94921 C156.33894,247.355287 155.600238,247.720178 154.841723,248.042024 L154.371845,248.252918 L154.019436,248.406295 C154.43058,248.214573 153.686605,248.521328 153.686605,248.521328 L153.236305,248.693877 L152.296549,248.98146 L151.689622,249.096493 C151.474261,249.096493 151.532996,249.096493 151.885405,249.096493 L151.532996,249.096493 C151.344243,249.115602 151.15398,249.115602 150.965227,249.096493 L151.298057,249.096493 L150.867335,248.962288 C150.867335,248.962288 151.356792,249.269042 150.867335,248.962288 C150.377879,248.655533 151.161009,249.384075 150.867335,248.866427 C150.573661,248.348778 150.867335,248.962288 150.867335,248.866427 C150.867335,248.770566 150.534505,248.329606 150.534505,248.310434 C150.534505,248.291262 150.710709,248.847255 150.534505,248.310434 C150.3583,247.773613 150.397457,247.907819 150.3583,247.696925 C150.319144,247.486031 150.3583,247.332654 150.240831,247.160104 C150.123361,246.987555 150.240831,247.006727 150.240831,247.409342 C150.240831,247.294309 150.240831,247.198448 150.240831,247.083415 C150.211284,246.706918 150.211284,246.328755 150.240831,245.952258 C150.240831,245.818053 150.240831,245.683847 150.240831,245.549642 C150.240831,244.955305 150.103783,246.124807 150.240831,245.549642 C150.240831,245.223715 150.377879,244.878616 150.456192,244.55269 C150.534505,244.226763 150.671553,243.900836 150.789022,243.555737 C150.906492,243.210638 150.573661,243.958353 150.789022,243.555737 L151.082696,242.980572 C151.239322,242.69299 151.415527,242.386235 151.611309,242.098653 L151.904983,241.676865 C152.237814,241.197561 151.532996,242.060308 151.904983,241.676865 C152.349847,241.141838 152.863086,240.665018 153.432088,240.258125 C152.84474,240.603224 153.216727,240.411502 153.334197,240.258125 L153.86281,239.913026 L154.31311,239.663788 C154.469736,239.663788 155.21371,239.261172 154.489314,239.663788 C155.210586,239.436576 155.827353,238.968327 156.23178,238.340908 C156.841875,237.331646 156.764976,236.060701 156.037446,235.12905 C155.309916,234.197398 154.077538,233.791727 152.923053,234.10386 L153.627871,234.391442 Z" id="Path" stroke="none" fill="#000000"></path>
                    <path d="M178,352.476646 C181.153026,348.116507 187.853207,347.745015 192.700985,350.228144 C197.548763,352.711273 200.800321,357.266934 203.913934,361.646626 C205.161802,357.96947 207.88986,354.969884 211.448787,353.361819 C215.007714,351.753753 219.079194,351.681035 222.694147,353.160973 C228.428713,355.839624 233.729739,362.604683 239.503718,360.004241 C237.868085,355.565893 242.361148,350.892919 247.070981,350.228144 C251.780814,349.563369 256.431527,351.26441 261.062535,352.398438 C265.693542,353.532465 271.093099,353.806196 274.679667,350.697397 C278.955958,346.943375 278.620949,340.021898 282.404581,335.720415 C287.646487,329.639682 298.386483,331.22341 303.746627,325.240438 C309.106772,319.257467 307.116424,308.640625 314.013669,305.082125 C318.920566,302.54034 326.251352,305.082125 329.581736,300.800194 C330.685295,299.353332 331.394726,297.143934 333.207716,297.007069 C335.020706,296.870203 336.045439,298.747214 336.695751,300.350494 L347.593398,327.352076 C349.226797,330.639673 350.050754,334.264857 349.997581,337.929813 C349.642865,341.546969 346.903674,345.242334 343.238281,345.359647 C341.481399,345.12057 339.710564,344.996471 337.937255,344.988156 C333.12889,345.809348 333.109184,352.457094 332.872707,357.286486 C332.05819,368.723417 323.531896,378.156922 312.161266,380.201659 C306.742002,381.042403 300.672427,380.201659 296.297603,383.50598 C292.592797,386.301944 291.351293,391.189993 288.94711,395.237297 C283.942169,402.983212 274.574622,406.777577 265.535891,404.720112 C262.421857,403.638205 259.251049,402.724431 256.037399,401.982805 C248.765732,401.024747 242.045845,405.443543 235.385077,408.474133 C228.724309,411.504724 219.619946,412.677855 215.107177,406.968614 C213.589784,405.013395 212.781821,402.530266 210.870298,401.005195 C207.382263,398.189679 202.258596,399.968928 198.021717,401.454895 C193.784838,402.940862 187.991152,403.410115 185.823446,399.499676 C185.263663,398.334548 184.935795,397.073173 184.857832,395.784759 C183.025136,381.355239 179.832696,366.906166 178,352.476646" id="Path" stroke="none" fill="#000000"></path>
                    <path d="M180.102201,354.102027 C182.79286,350.982214 187.271839,350.161651 190.880168,352.127469 C195.406914,354.2205 198.463937,358.742238 201.266208,362.730845 C201.885265,363.724877 203.022508,364.264172 204.177249,364.111298 C205.33199,363.958425 206.292381,363.141428 206.635595,362.020004 C207.626893,359.184585 209.704558,356.867723 212.403986,355.587508 C215.103414,354.307294 218.199421,354.170523 220.999685,355.207779 C227.211713,357.853687 232.385137,365.475481 239.94931,362.414916 C241.497751,361.964238 242.40954,360.354265 242.006922,358.781729 C241.125088,355.760655 244.123323,353.213476 246.827613,352.601363 C250.746873,351.67332 255.136445,353.430677 258.97732,354.417956 C265.228541,356.037094 272.851503,356.392514 277.378249,350.942734 C281.297509,346.184049 280.827198,338.246326 286.431741,334.968559 C291.507183,331.986977 297.817193,332.065959 302.696672,328.590737 C307.576152,325.115515 308.928297,319.191841 310.535193,313.544605 C310.937227,311.179826 312.036618,308.991817 313.690198,307.26551 C315.845791,305.488408 319.000796,305.705609 321.528719,305.508153 C324.481162,305.526719 327.360756,304.584933 329.73957,302.822754 C330.720476,301.858218 331.564551,300.761864 332.247897,299.564734 C332.409224,299.237149 332.620856,298.937276 332.874979,298.676183 C332.44386,299.011857 332.247897,298.676183 332.463456,299.209313 C332.835786,300.236083 333.404079,301.183871 333.815601,302.289624 C337.127376,310.622259 340.458748,318.954894 343.750927,327.287529 C345.142264,330.782496 347.219472,335.304234 345.455805,339.016403 C343.496175,343.281449 339.753281,340.694778 336.20635,341.44511 C330.209882,342.728572 329.386837,349.580289 329.112489,354.694394 C329.056918,361.066602 326.415759,367.138313 321.803068,371.497883 C319.560246,373.624383 316.885738,375.234574 313.964546,376.217077 C310.652465,377.036571 307.262257,377.493366 303.852854,377.579522 C300.370105,377.69254 296.983333,378.757263 294.054703,380.659832 C291.408973,382.828596 289.34693,385.632881 288.058234,388.814757 C286.803726,391.907459 284.982158,394.734311 282.688847,397.147392 C280.42772,399.248298 277.699314,400.771864 274.732748,401.590148 C271.662993,402.467694 268.417088,402.508577 265.326523,401.708621 C261.603225,400.721342 258.173872,399.042968 254.254611,398.845512 C246.41609,398.430855 239.870925,403.229031 232.973026,406.151377 C227.819199,408.32339 220.039467,409.784563 216.512132,404.176819 C214.552502,401.17549 213.102375,398.253144 209.516252,396.969682 C206.220212,396.130139 202.74605,396.351086 199.580926,397.60154 C196.739462,398.509837 193.83921,399.872282 190.782186,399.437879 C187.098081,398.904749 187.5292,394.461993 187.117678,391.539647 C185.922303,382.792355 184.315406,374.1043 182.86528,365.396499 C182.12062,360.914252 181.43475,356.432005 180.90565,351.910267 C180.435338,348.198098 174.556448,348.138861 175.026759,351.910267 C176.24173,361.407891 177.927012,370.826533 179.514312,380.264921 C180.356953,385.221061 181.140805,390.137711 181.787483,395.172834 C182.257795,398.786275 183.041647,402.261497 186.471,404.137327 C189.432405,405.499801 192.772631,405.77911 195.916418,404.927151 C199.384963,404.21631 202.755527,402.123278 206.380843,402.34048 C210.006159,402.557681 211.201534,407.533567 213.651072,409.942528 C216.065326,412.245628 219.19337,413.640262 222.508601,413.891644 C230.170755,414.701213 236.794306,410.811334 243.437452,407.652041 C247.180346,405.855193 251.275973,404.21631 255.58716,404.907405 C259.506421,405.578755 263.053351,407.553313 267.050997,408.046952 C274.199342,408.8216 281.334231,406.470718 286.6473,401.590148 C289.217047,399.104061 291.274758,396.131537 292.702558,392.842855 C294.250666,389.60458 295.739985,385.971393 299.267319,384.529966 C302.794654,383.088539 306.909877,383.424214 310.652771,382.95032 C314.16761,382.539614 317.565533,381.425198 320.646886,379.672553 C326.78103,376.135187 331.411674,370.450356 333.658831,363.698379 C334.555719,360.483806 335.03008,357.164539 335.069765,353.825589 C335.187342,352.028741 335.187342,348.09937 337.264551,347.349038 C339.008622,346.697434 341.438563,347.882169 343.339404,347.585985 C345.181541,347.290826 346.890563,346.436694 348.23848,345.137533 C350.943069,342.483281 352.305486,338.735332 351.942181,334.948814 C351.589448,330.288857 349.531836,325.964575 347.826958,321.679784 L342.418378,308.015842 L339.714088,301.183871 C339.066089,299.145133 338.156993,297.200248 337.009799,295.398416 C336.055595,293.981494 334.497902,293.096622 332.800817,293.007438 C331.103732,292.918254 329.463137,293.635051 328.367829,294.944268 C327.427207,296.010529 326.956895,297.590176 325.839906,298.478727 C324.659089,299.203061 323.303066,299.58564 321.920645,299.584479 C318.657024,299.554983 315.413601,300.103013 312.338053,301.203617 C306.459162,303.948252 305.322577,310.503785 303.735276,316.131276 C303.206792,319.058357 301.707462,321.717836 299.482879,323.674087 C296.767938,325.308231 293.790098,326.45097 290.684139,327.050582 C287.528255,327.808047 284.538561,329.146922 281.865802,330.999698 C279.232163,333.180481 277.290505,336.091127 276.280856,339.371824 C275.163867,342.452134 274.477996,346.480233 271.558147,348.435045 C268.638298,350.389858 264.581863,349.777745 261.407262,349.007667 C253.803896,347.171328 244.887579,344.051526 238.714743,350.982225 C236.311878,353.502143 235.41009,357.114244 236.343591,360.479849 L238.303221,356.846662 C234.619116,358.327581 231.209359,355.049815 228.367895,353.035765 C225.314068,350.555944 221.595551,349.050332 217.68791,348.711483 C210.100123,348.48024 203.262579,353.298163 200.874282,360.558831 L206.243669,359.847991 C202.324409,354.39821 198.28757,348.691738 191.840387,346.282777 C186.451403,344.308219 179.533908,345.19677 175.849804,349.9752 C174.764305,351.156214 174.764305,352.98025 175.849804,354.161263 C176.997432,355.316196 178.856591,355.316196 180.00422,354.161263 L180.102201,354.102027 Z" id="Path" stroke="none" fill="#000000"></path>
                    <path d="M227.109431,308.751765 C226.874486,310.992125 223.19368,312.648043 221.588222,313.700038 C219.394876,314.88864 217.140203,315.9616 214.83355,316.914468 C209.836971,318.759998 205.170179,321.390923 201.010948,324.707023 C197.013531,328.660201 193.991137,333.481318 192.180928,338.792068 C189.86435,344.683906 188.458302,350.890986 188.010653,357.201981 C187.716971,360.942407 193.590599,360.922926 193.88428,357.201981 C194.726167,346.11707 198.504867,332.324246 208.724978,326.304497 C213.228092,323.635547 218.259833,322.018592 222.899998,319.661343 C227.540164,317.304095 232.434853,314.264999 232.983059,308.790728 C233.355055,305.050301 227.481428,305.089264 227.109431,308.790728 L227.109431,308.751765 Z" id="Path" stroke="none" fill="#000000"></path>
                    <path d="M194.840164,318.860064 C188.225554,325.027055 181.610943,331.680401 177.916295,340.006812 C173.979692,348.095822 174.030899,357.502774 178.055341,365.550216 C179.862938,368.857435 185.007635,365.919846 183.200039,362.593173 C175.036059,347.613416 188.702282,332.59475 199.090995,322.945452 C201.871913,320.358039 197.640945,316.233743 194.860028,318.821155 L194.840164,318.860064 Z" id="Path" stroke="none" fill="#000000"></path>
                    <path d="M276.507811,296.516179 C283.920272,300.23781 292.162929,296.966692 300.010254,297.495555 C306.889018,297.946069 314.103813,301.569763 315.190974,308.934676 C315.675272,310.449933 317.281494,311.314973 318.828022,310.893429 C320.392655,310.437638 321.310808,308.834592 320.903511,307.269735 C319.737284,299.434721 312.482955,293.813099 304.971661,292.187334 C300.673736,291.352087 296.266806,291.219753 291.92573,291.795583 C287.972417,292.226509 283.267976,293.24506 279.492562,291.34507 C276.092713,289.640954 273.088196,294.714126 276.507811,296.418241 L276.507811,296.516179 Z" id="Path" stroke="none" fill="#000000"></path>
                    <path d="M294.079049,287.094938 C296.338351,287.254283 298.577659,287.373792 300.836961,287.572973 L302.036591,287.692481 C302.036591,287.692481 302.856338,287.792072 302.456461,287.692481 L302.736375,287.692481 C303.596109,287.831908 304.455843,287.991253 305.295584,288.210352 C306.076388,288.400962 306.844343,288.640455 307.594874,288.927403 C307.874787,288.927403 307.874787,289.046912 307.594874,288.927403 L308.174695,289.206257 C308.51459,289.38552 308.854485,289.564782 309.174386,289.763963 L309.694225,290.122489 C310.03412,290.381424 309.214374,289.664373 309.694225,290.122489 L310.493978,290.899295 C310.493978,290.899295 310.853867,291.357411 310.653929,291.078558 C310.453991,290.799705 310.813879,291.337493 310.853867,291.397247 C311.070931,291.763159 311.26459,292.142357 311.433688,292.532579 C312.282123,293.937692 314.099233,294.414533 315.532422,293.608156 C316.936553,292.748681 317.412427,290.940185 316.612088,289.505028 C314.71378,285.92288 311.313866,283.368003 307.334954,282.533694 C302.951688,281.583308 298.484412,281.069549 293.999074,281 C292.351734,281.021455 291.021537,282.346615 291,283.987715 C291.042036,285.620123 292.360459,286.933552 293.999074,286.97543 L294.079049,287.094938 Z" id="Path" stroke="none" fill="#000000"></path>
                    <path d="M257.478548,353.48104 C262.228474,350.613364 265.254798,345.624393 270.165059,342.953133 C272.992447,341.712722 276.167426,341.456312 279.163865,342.226393 C280.827341,342.540659 282.490817,342.933491 284.154293,343.28704 L286.980199,343.915572 L288.242837,344.190555 C288.743884,344.308404 289.405267,344.760162 288.80401,344.190555 L288.042419,342.894208 L288.042419,343.188832 L288.343047,340.930046 L288.242837,341.106821 L290.82824,339.653341 L290.60778,339.653341 L292.130963,340.046173 L291.910502,340.046173 L292.992764,341.106821 L292.892554,340.969329 L292.411549,344.544104 L292.551842,344.426254 C295.437873,341.892485 291.168952,337.748104 288.302963,340.262231 L288.16267,340.380081 C287.193297,341.320334 287.003096,342.78724 287.701707,343.935214 C288.303129,344.956321 289.414764,345.585373 290.617801,345.585373 C291.820837,345.585373 292.932472,344.956321 293.533894,343.935214 C295.077119,341.263954 292.491717,339.201584 290.106733,338.651618 C285.253111,337.224269 280.251471,336.334838 275.195572,336 C270.719913,336.046122 266.426316,337.743287 263.170442,340.753272 C260.224286,343.267399 257.81926,346.429699 254.452223,348.452786 C251.085187,350.475873 254.191679,355.54341 257.49859,353.539965 L257.478548,353.48104 Z" id="Path" stroke="none" fill="#000000"></path>
                    <path d="M268.197429,354.208005 C268.662513,353.431041 269.168039,352.654076 269.693786,351.935384 L270.057765,351.449782 L270.057765,351.313813 C270.361081,350.925331 270.704839,350.536849 271.048596,350.167791 C272.237341,348.844644 273.543104,347.622838 274.951258,346.516058 C274.951258,346.516058 275.537668,346.069304 275.19391,346.321817 L275.699436,345.972183 L276.710489,345.272916 C277.499109,344.787313 278.28773,344.321134 279.116793,343.87438 C279.932984,343.435225 280.777204,343.04597 281.644423,342.708934 C281.300666,342.825478 281.846634,342.708934 281.826413,342.708934 C281.826413,343.000295 280.451382,342.301027 280.390719,342.242755 C280.023217,341.953462 279.820585,341.513706 279.84475,341.057884 C279.84475,341.679456 280.087403,340.475161 279.84475,341.057884 C279.84475,341.213277 279.84475,341.36867 279.703203,341.524063 C279.864971,340.999612 279.804308,341.329822 279.703203,341.524063 C279.602098,341.718304 279.298782,342.145634 279.521214,341.834849 C279.743645,341.524063 279.319003,342.067938 279.278561,342.12621 C278.611267,342.88375 277.90353,343.621867 277.256457,344.321134 C276.609383,345.020402 275.982531,345.447733 275.234352,345.991608 C274.554542,346.528544 273.838502,347.021698 273.090922,347.46784 C272.302301,347.953442 271.51368,348.400197 270.684618,348.808103 L269.511797,349.371402 C269.16501,349.542463 268.807017,349.691696 268.440082,349.818157 L267.894113,350.012398 L267.611019,350.012398 L267.611019,350.012398 C267.166156,349.759884 268.480524,350.575697 268.237871,350.40088 C268.864724,350.867058 268.622071,350.73109 268.884945,351.197268 L268.884945,351.352661 C268.884945,351.022451 268.884945,351.022451 268.884945,351.352661 L269.046713,350.847634 C269.046713,350.983603 268.783839,351.294389 269.046713,350.847634 C269.309587,350.40088 269.329808,350.342608 269.491576,350.090094 C269.653344,349.837581 270.037544,349.293706 270.320639,348.905224 L270.320639,348.905224 L270.907049,348.264228 C271.250807,347.914594 271.614786,347.584384 271.978764,347.254175 L272.423627,346.885117 C272.888711,346.496634 272.221417,347.001661 272.767385,346.632603 C273.525397,346.094148 274.330503,345.619724 275.173689,345.214643 L275.861205,344.903858 C275.477005,345.05925 275.861205,344.903858 276.103857,344.903858 C276.618798,344.71654 277.145606,344.560834 277.681099,344.437679 L274.243521,340.144951 C273.919985,340.70825 273.596448,341.252125 273.232469,341.776576 L272.625838,342.611813 C272.28208,343.077992 272.787606,342.45642 272.362964,342.942023 C271.702528,343.787848 270.986598,344.592345 270.219534,345.350612 L269.410692,346.011032 C269.248923,346.127576 269.248923,346.127576 269.410692,346.011032 L269.046713,346.282969 C268.02526,347.014185 266.943189,347.663826 265.811346,348.22538 L264.982283,348.594438 L264.436315,348.808103 L263.587031,349.099465 L263.18261,349.216009 C263.506147,349.216009 263.506147,349.216009 263.18261,349.216009 L265.083388,351.449782 C264.962062,351.682871 265.083388,351.644023 265.083388,351.333237 L265.568693,350.556273 C266.214003,349.622212 266.952161,348.750516 267.772787,347.953442 C268.237871,347.487264 268.743397,347.040509 269.269144,346.593755 L269.997102,346.030456 C269.653344,346.282969 270.401523,345.739094 270.401523,345.758518 C271.516347,345.007828 272.700934,344.357598 273.940206,343.816108 L269.491576,340.533434 L269.248923,341.193853 C269.066934,341.660032 269.552239,340.61113 269.147818,341.407518 C268.958947,341.793046 268.749724,342.169067 268.520966,342.534117 C268.298534,342.903175 268.055882,343.252809 267.813229,343.602442 C267.570577,343.952076 267.813229,343.602442 267.651461,343.796684 L267.166156,344.321134 C266.86284,344.63192 266.559525,344.942706 266.215767,345.234067 L265.669799,345.680822 C265.912451,345.486581 265.669799,345.680822 265.669799,345.680822 C264.862747,346.22549 264.002714,346.693852 263.101726,347.079358 C261.673243,347.90342 261.196317,349.675431 262.030011,351.0613 C262.889171,352.367762 264.647281,352.823744 266.074219,352.110201 C270.480679,350.111846 273.826889,346.447367 275.315237,341.990242 C275.639414,340.858875 275.215214,339.651805 274.243521,338.940657 C273.264013,338.230618 271.941735,338.139349 270.866607,338.707567 C268.340266,339.855729 266.025081,341.390838 264.011673,343.252809 C262.974366,344.252358 262.014669,345.32355 261.140285,346.457786 C260.202224,347.529504 259.51286,348.781052 259.11818,350.128942 C258.843764,351.195371 259.052198,352.323549 259.691876,353.234145 C260.331554,354.144741 261.342669,354.752619 262.474874,354.907273 C264.005035,355.023651 265.538655,354.72767 266.903282,354.052612 C269.540963,353.018782 271.991201,351.589533 274.162637,349.818157 C276.47287,347.906769 278.404665,345.610225 279.864971,343.039143 C280.452401,342.013775 280.35385,340.751892 279.613733,339.822191 C278.873617,338.89249 277.631674,338.470506 276.447615,338.746416 C271.497157,340.028074 267.243713,343.078535 264.557641,347.273599 C263.000621,349.721036 262.212,353.372768 265.204715,355.218058 C268.197429,357.063349 271.149702,355.218058 273.63689,354.033188 C275.996346,352.856681 278.202342,351.415724 280.208729,349.74046 C282.221559,348.246653 283.922921,346.401465 285.223548,344.30171 C286.578358,341.737728 286.355927,338.027724 282.979012,337.095367 C281.315087,336.822416 279.604607,337.139984 278.166404,337.988876 C277.034494,338.490209 275.933953,339.054464 274.870374,339.678773 C269.983092,342.568668 265.913099,346.57166 263.020842,351.333237 C262.172091,352.722466 262.656441,354.50959 264.102668,355.324891 C265.548895,356.140191 267.409341,355.67493 268.258092,354.285701 L268.197429,354.208005 Z" id="Path" stroke="none" fill="#000000"></path>
                    <path d="M239.001341,307.818492 C239.127951,308.355874 239.227799,308.900158 239.300457,309.449016 L239.300457,308.643819 C239.450163,309.866454 239.450163,311.10496 239.300457,312.327595 L239.300457,311.522398 C239.300457,311.743827 239.300457,311.965256 239.300457,312.166555 C239.109143,312.954615 239.209691,313.791887 239.580878,314.501626 C239.951323,315.175547 240.546273,315.672211 241.24471,315.890591 C241.975891,316.107731 242.757463,315.998907 243.413299,315.588642 C244.048246,315.191434 244.511843,314.540321 244.703236,313.776949 C245.159242,311.269011 245.088983,308.683042 244.497594,306.208098 C244.29309,305.456973 243.832271,304.816953 243.207657,304.416535 C242.550416,304.012063 241.773456,303.896669 241.039068,304.094456 C240.341495,304.31466 239.747106,304.810856 239.375236,305.483421 C239.004049,306.19316 238.903501,307.030432 239.094815,307.818492 L239.001341,307.818492 Z" id="Path" stroke="none" fill="#000000"></path>
                    <path d="M251.191692,303.773497 L252.83247,308.846074 C253.037318,309.587902 253.473958,310.22315 254.063054,310.636395 C255.318386,311.398635 256.889175,310.925584 257.629962,309.562202 C258.00146,308.867414 258.098311,308.032013 257.89748,307.254677 L256.256702,302.182101 C256.051855,301.440273 255.615215,300.805025 255.026119,300.39178 C254.400525,300.007848 253.668102,299.901291 252.975147,300.093393 C252.302229,300.304692 251.727686,300.796002 251.370038,301.465972 C250.99854,302.16076 250.901689,302.996162 251.10252,303.773497 L251.191692,303.773497 Z" id="Path" stroke="none" fill="#000000"></path>
                    <path d="M261.411847,298.438986 C262.072165,299.450719 262.827908,300.399117 263.669076,301.271632 C264.514272,302.140249 265.446016,302.923314 266.450305,303.60906 C267.168412,303.978594 267.995077,304.090664 268.78815,303.925999 C269.168247,303.828272 269.520088,303.645193 269.815995,303.391164 C270.136211,303.179065 270.399065,302.893518 270.581841,302.559198 C271.00165,301.867335 271.111096,301.035451 270.884148,300.261388 L270.581841,299.548274 C270.315515,299.108086 269.941391,298.740369 269.493534,298.478604 C269.372611,298.37956 269.231534,298.300325 269.110611,298.181473 L269.715226,298.656882 C268.671124,297.86846 267.736155,296.949502 266.933997,295.92328 L267.417689,296.53735 C267.135535,296.180793 266.873535,295.824236 266.631689,295.447871 C266.224445,294.783426 265.576415,294.295111 264.817844,294.08107 C264.422269,293.972977 264.00419,293.972977 263.608614,294.08107 C263.21319,294.099585 262.830204,294.22278 262.500154,294.437627 C261.816894,294.820553 261.3166,295.454809 261.109539,296.200602 C260.892141,296.975353 261.001094,297.803497 261.411847,298.498412 L261.411847,298.438986 Z" id="Path" stroke="none" fill="#000000"></path>
                    <path d="M29.7656202,96.8582346 C38.0474342,122.470526 37.1299666,150.249404 27.1769983,175.235941 C26.0648497,178.030957 30.5134443,179.145054 31.6255929,176.486857 C41.8195254,150.688775 42.7364365,122.047502 34.2142148,95.6268641 C33.2746409,92.7732119 28.8260463,93.9850368 29.7656202,96.8582346 L29.7656202,96.8582346 Z" id="Path" stroke="none" fill="#000000"></path>
                    <path d="M32.3602451,99 C40.7981214,98.0877539 48.331237,94.3417221 56.2183894,91.5661649 C57.4835999,91.2247285 58.242623,89.950534 57.9295671,88.6935602 C57.5761803,87.4652861 56.286582,86.7467419 55.0382669,87.0825724 C47.5444886,89.6834442 40.2277288,93.4877045 32.3602451,94.3611316 C31.0740239,94.4014561 30.040863,95.4210007 30,96.6902705 C30.0213054,97.9646365 31.0687267,98.98964 32.3602451,99 L32.3602451,99 Z" id="Path" stroke="none" fill="#000000"></path>
                    <path d="M72.1801297,460.301912 C91.15001,444.68113 107.028511,425.707314 119.008758,404.34463 L113.60166,403.640765 C118.890355,417.698517 129.783487,428.784393 142.53161,436.566014 C155.615209,444.562705 171.047146,447.847409 185.393717,452.83312 C189.005027,454.084436 190.544274,448.414411 186.972432,447.163095 C173.533622,442.509764 159.187051,439.342371 146.774406,432.264616 C134.934044,425.40193 124.17905,415.03947 119.304768,402.096172 C118.959142,400.985753 117.992006,400.176774 116.829155,400.0254 C115.666304,399.874027 114.521073,400.40803 113.897669,401.392307 C102.150431,422.299043 86.5861048,440.862204 67.9965354,456.137376 C65.056179,458.542249 69.2792412,462.667681 72.1801297,460.28236 L72.1801297,460.301912 Z" id="Path" stroke="none" fill="#000000"></path>
                    <path d="M415.985461,322.925944 C416.365042,336.130688 411.250692,349.00188 403.519234,359.65593 C396.866585,368.858047 389.075193,377.196853 381.743294,385.84959 C379.286009,388.733835 383.501351,392.932669 385.978614,390.009182 C393.789984,380.807065 402.080824,371.918879 409.093076,362.088899 C417.084247,350.767744 422.378398,336.837034 421.978839,322.847462 C421.858972,319.060663 415.865594,319.041042 415.985461,322.847462 L415.985461,322.925944 Z" id="Path" stroke="none" fill="#000000"></path>
                    <path d="M416.040142,326.944233 C434.233553,343.115903 459.295707,344.135209 482.198001,342.371026 C485.914516,342.076996 485.953433,336.196389 482.198001,336.490419 C460.930195,338.136989 436.996617,337.842959 420.067988,322.769001 C417.266008,320.279544 413.121413,324.415572 415.942851,326.924631 L416.040142,326.944233 Z" id="Path" stroke="none" fill="#000000"></path>
                    <path d="M290.705092,19.7414171 C286.915482,42.9216868 298.673302,65.8459893 319.439077,75.7642643 C322.137742,77.0193993 324.525769,72.9153073 321.788274,71.6203268 C302.841969,62.7982087 291.960425,42.0877208 295.189923,20.996552 C295.675294,17.9882128 291.190463,16.6932323 290.705092,19.7414171 L290.705092,19.7414171 Z" id="Path" stroke="none" fill="#000000"></path>
                    <path d="M317.131478,256.905296 C323.126458,275.022999 331.437681,292.507769 339.126048,309.873865 C346.814415,327.23996 354.872603,344.764288 363.728823,361.715022 C368.731128,371.268352 374.005932,380.683228 379.611628,389.880534 C381.18823,392.471603 385.217323,390.098104 383.640721,387.487256 C364.059715,355.346135 348.858159,320.772177 333.909637,286.237778 C329.549651,276.150411 325.092345,266.082822 321.647178,255.63943 C320.693431,252.751674 316.177732,253.997761 317.131478,256.905296 Z" id="Path" stroke="none" fill="#000000"></path>
                    <path d="M160,304.869124 C170.331673,341.736299 177.545179,379.407912 181.564196,417.485379 C182.714286,428.208869 183.622596,438.958513 184.289126,449.734312 C184.485164,452.735581 189.190079,452.774814 188.994041,449.734312 C186.646738,411.244184 181.165633,373.009783 172.605253,335.411453 C170.200518,324.740273 167.527865,314.141019 164.587293,303.613691 C164.192784,302.422968 162.934399,301.751018 161.726246,302.085955 C160.518092,302.420892 159.784698,303.645024 160.058811,304.869124 L160,304.869124 Z" id="Path" stroke="none" fill="#000000"></path>
                    <path d="M71.447869,461.729439 C81.3518923,456.506261 89.9912528,449.092995 96.7371416,440.029208 C104.518456,429.616277 111.424373,418.368721 118.602636,407.478861 C120.275618,404.935244 116.229335,402.550604 114.556352,405.074348 C107.806062,415.467408 101.191944,426.218164 93.8775085,436.154167 C87.3700385,445.150984 78.9146971,452.48932 69.1718345,457.596062 C66.5067342,459.006975 68.8605819,463.12048 71.5256822,461.709567 L71.447869,461.729439 Z" id="Path" stroke="none" fill="#000000"></path>
                </g>
            </g>
            <rect id="Rectangle" fill="#33BEDE" mask="url(#mask-2)" x="-34" y="444" width="663" height="102" rx="38"></rect>
        </g>
    </g>
</svg>