<svg xmlns="http://www.w3.org/2000/svg" viewBox="0 0 310 256"><defs><style>.cls-1{fill:#33bede;}.cls-2{fill:#80424b;}.cls-3{fill:#ffdd47;}.cls-4{fill:#f09a00;}.cls-5{fill:#fff;}.cls-6{fill:#f08800;stroke:#000;stroke-miterlimit:10;}.cls-7{fill:#a95631;}.cls-8{fill:#d3c651;}.cls-9{fill:#ca3953;}.cls-10{fill:#ffd301;}.cls-11{fill:#d3d4d4;}</style></defs><g id="Layer_2" data-name="Layer 2"><path class="cls-1" d="M309.12,213.39a110,110,0,0,0,.81,11.48V256H-.07V0h310V181.7c0,.29,0,.58,0,.86Q309.52,198,309.12,213.39Z"/><path class="cls-2" d="M50.73,256H-.07V210A90.66,90.66,0,0,1,2.1,198.29v0a7.24,7.24,0,0,1,7.35-7,18.89,18.89,0,0,0,3.26.28c4-.43,5.73-6.23,9.71-6.45,2.41-.13,4.45,2.07,5,4.42s0,4.81-.45,7.18A182.43,182.43,0,0,0,23.39,227a3.26,3.26,0,0,0,.69,2.6,3,3,0,0,0,2.49.37,14.9,14.9,0,0,0,10.57-8.08q4.74,13.5,9.49,27C47,249.84,50.15,254.33,50.73,256Z"/><path class="cls-2" d="M50.73,254.5H-.07l1.5,1.5V216.66c0-2.11-.05-4.23,0-6.34a38.64,38.64,0,0,1,.84-5.76c.3-1.7.64-3.39,1.07-5.06.34-1.37.33-2.71,1.1-3.95A5.91,5.91,0,0,1,7.94,193c1.8-.46,3.62.4,5.44,0,2.55-.49,4.23-2.64,5.94-4.39a5.84,5.84,0,0,1,2.83-1.92,3.28,3.28,0,0,1,3.26,1.86,8,8,0,0,1,.59,5.33c-.3,2-.79,4-1.16,6A185.54,185.54,0,0,0,22,225.34c-.07,1.63-.34,3.56.72,4.95s2.88,1.43,4.47,1.12a16.14,16.14,0,0,0,8.52-4.76,16.56,16.56,0,0,0,2.77-4l-2.74-.36q3.75,10.71,7.52,21.42c.89,2.54,1.58,5.22,3,7.52a32.4,32.4,0,0,1,3.06,5.14c.67,1.79,3.57,1,2.89-.79a31.48,31.48,0,0,0-3.07-5.42c-.26-.41-.53-.82-.77-1.24-.08-.13-.15-.26-.22-.39-.25-.46.09.31-.12-.27-.67-1.77-1.26-3.57-1.89-5.35q-3.77-10.71-7.52-21.41c-.39-1.12-2.13-1.6-2.74-.36a13.64,13.64,0,0,1-7,6.61,12.35,12.35,0,0,1-2.31.71c-.88.17-1.57.31-1.65-.75a45.07,45.07,0,0,1,.26-6,196.53,196.53,0,0,1,3.46-25.45c.7-3.57,1.07-7.42-1.45-10.38a5.88,5.88,0,0,0-7.74-1.25c-2.14,1.35-3.41,3.75-5.57,5-1.46.86-3,.22-4.57.17a8.14,8.14,0,0,0-4.57,1.31,9.26,9.26,0,0,0-3.13,3.36A17.66,17.66,0,0,0,.44,198.7a94,94,0,0,0-1.95,10.8,37.31,37.31,0,0,0-.06,4.73v23.59c0,6-.18,11.94,0,17.89a2.8,2.8,0,0,1,0,.29,1.52,1.52,0,0,0,1.5,1.5h50.8A1.5,1.5,0,0,0,50.73,254.5Z"/><path class="cls-3" d="M309.93,181.7v43.17a110,110,0,0,1-.81-11.48q.39-15.42.8-30.83C309.93,182.28,309.93,182,309.93,181.7Z"/><path class="cls-2" d="M308.43,181.7v43.17h3c-.32-3.22-.69-6.45-.79-9.69-.12-3.49.11-7,.2-10.49.2-7.65.57-15.33.59-23a1.5,1.5,0,0,0-3,0c0,7.66-.39,15.34-.59,23-.08,3.43-.31,6.89-.21,10.33.1,3.29.47,6.58.8,9.85.19,1.89,3,2,3,0V181.7A1.5,1.5,0,0,0,308.43,181.7Z"/><path class="cls-2" d="M309.93,224.87V256H224c3-29.21,17.47-61.69,1.8-86.65a14.38,14.38,0,0,0,11.84-.07,13.21,13.21,0,0,1-8.72-8.22l-1-1.93a10.68,10.68,0,0,1,11.32-3,10.35,10.35,0,0,1,6.8,9.35c5.56-6,17.14-4.42,20.87,2.79.55,1.07,1.09,2.35,2.26,2.71,2.06.63,3.42-2,5-3.43,2.8-2.64,7.74-1.56,10.39,1.23s3.59,6.69,4.44,10.4a21.15,21.15,0,0,1,13.89-4.13c2.49.16,5.24,1,6.39,3.14a7.22,7.22,0,0,1,.66,3.48c0,.29,0,.58,0,.86q-.41,15.42-.8,30.83A110,110,0,0,0,309.93,224.87Z"/><path class="cls-2" d="M308.43,224.87V256l1.5-1.5H227.52a23.83,23.83,0,0,0-3.38,0H224l1.5,1.5c1.26-11.94,4.21-23.61,6.38-35.4,2.08-11.32,3.63-23,1.73-34.48a47.88,47.88,0,0,0-6.51-17.52L225,170.65a16.27,16.27,0,0,0,13.35-.07c1.24-.56.77-2.4-.36-2.74a11.84,11.84,0,0,1-6.36-4.62,42.14,42.14,0,0,1-2.44-4.84l-.24,1.81a9.26,9.26,0,0,1,9.69-2.64,8.85,8.85,0,0,1,5.87,8,1.51,1.51,0,0,0,2.56,1.06c4.43-4.61,12.76-4.18,17.06.41,1.19,1.27,1.65,3,2.79,4.27a3.77,3.77,0,0,0,4.92.72c1.53-.95,2.33-2.7,3.8-3.69a5.67,5.67,0,0,1,5.12-.21c4.58,1.77,5.77,7.29,6.75,11.54a1.5,1.5,0,0,0,2.2.9,19.92,19.92,0,0,1,11.28-4,10.79,10.79,0,0,1,5.27.88c1.9,1,2.15,2.74,2.13,4.71-.1,9.67-.5,19.35-.75,29a108.42,108.42,0,0,0,.75,13.71c.19,1.91,3.2,1.93,3,0a104.33,104.33,0,0,1-.76-13.22q.19-8.07.41-16.16c.07-2.73.15-5.47.22-8.2a48,48,0,0,0,0-7.39c-.6-4.47-4.81-6.16-8.85-6.34a22.61,22.61,0,0,0-14.23,4.36l2.2.9c-1-4.43-2.28-9.34-6.12-12.19-3.24-2.39-8.09-3-11.22-.11-.78.72-2.72,4-3.91,2.73a15,15,0,0,1-1.41-2.47,12.86,12.86,0,0,0-1.69-2.13,15.33,15.33,0,0,0-9.81-4.27A14.22,14.22,0,0,0,245,164.45l2.56,1.06a12,12,0,0,0-7.73-10.73,12.18,12.18,0,0,0-12.95,3.29,1.56,1.56,0,0,0-.23,1.82,32.76,32.76,0,0,0,3.1,5.74,15,15,0,0,0,7.49,5.1l-.35-2.74a13,13,0,0,1-10.33.07c-1.26-.55-2.92.65-2.05,2.05,12.48,20.09,5.39,45.12,1.11,66.58-1.27,6.4-2.44,12.82-3.12,19.31a1.52,1.52,0,0,0,1.5,1.5h75.3c3.48,0,7,.17,10.49,0h.15a1.52,1.52,0,0,0,1.5-1.5V224.87A1.5,1.5,0,0,0,308.43,224.87Z"/><path class="cls-4" d="M36.39,208.36s-1.94,20,15.93,47.64l171.62.44s21.62-55.23,2.51-84.3l-12.24-12.92Z"/><rect class="cls-5" x="21.32" y="155.07" width="12.66" height="12.66" rx="2.69" transform="translate(-106.03 66.83) rotate(-45)"/><path class="cls-6" d="M72.82,202.25,82,214.73s61.32,7.07,93.29-36.19l-3-13.8Z"/><path class="cls-7" d="M120.56,56.65A213,213,0,0,0,52.42,75.41c-7.87,3.66-15.83,8.08-20.64,15.3a34.22,34.22,0,0,0-5.09,13.93c-2.13,13.9,2.07,28.18,9,40.41s16.49,22.74,26,33.13c5.2,5.72,10.54,11.54,17.33,15.24,17.36,9.46,39,2.71,56.57-6.28,9.66-4.93,19.3-10.78,25.47-19.69,7.92-11.44,9-26.17,9.06-40.08a413.38,413.38,0,0,0-2.3-46c-.65-6.15-1.5-12.48-4.59-17.85-4.62-8-13.89-12.76-23.15-13.21s-18.4,3-26.07,8.16"/><path class="cls-5" d="M188.86,91.42c5.42-4.92,12.46-9.32,20.08-8.76,5.92.44,12.41,4.66,13.24,10.92.24,1.85,3.14,2,3,0s2.1-3.51,3.53-4.61A40.24,40.24,0,0,1,234,85.55,28.62,28.62,0,0,1,246.06,82c7.45-.37,15.2,3.16,18.55,10a1.51,1.51,0,0,0,2.36.3,61.77,61.77,0,0,1,44-18.82,1.5,1.5,0,0,0,0-3,64.79,64.79,0,0,0-46.08,19.7l2.35.31c-3-6.12-9.27-10.13-15.88-11.22-7.57-1.25-15.22,1.18-21.55,5.3-3,1.94-7.89,4.88-7.59,9h3c-1-7.63-7.84-12.87-15.21-13.81-8.75-1.11-17,3.88-23.23,9.53-1.43,1.3.7,3.42,2.12,2.12Z"/><path class="cls-5" d="M192.31,102.14c6.66-4.39,16.08-7,23.49-2.82,5.7,3.24,9.66,11,6.56,17.25-.63,1.28.7,2.88,2.06,2.05,7.05-4.3,16.27-5.42,23.19-.24a15.09,15.09,0,0,1,5.83,9.58c.79,4.33.06,8.85-.63,13.14a1.52,1.52,0,0,0,2.2,1.69,52.85,52.85,0,0,1,64.86,17.36c1.11,1.56,3.71.06,2.59-1.51A56.16,56.16,0,0,0,270.8,135.4a57,57,0,0,0-17.3,4.8l2.2,1.7c1.17-7.26,2.27-15.47-2.31-21.84a20.48,20.48,0,0,0-18-8.13A27.66,27.66,0,0,0,222.9,116l2,2c2.9-5.87,1.16-12.68-3-17.49-4.77-5.54-12.25-7.14-19.23-5.93a31.7,31.7,0,0,0-11.95,4.89c-1.61,1.06-.11,3.66,1.51,2.59Z"/><path d="M146,81.05c-.44.94-1.08,1.22-2.47,1.56a29,29,0,0,1-4.25.61,75,75,0,0,0-10.67,1.35,20.17,20.17,0,0,0-9.4,5.2c-2.79,2.72-5.24,5.86-7.8,8.81a3.08,3.08,0,0,0,0,4.24,3,3,0,0,0,4.24,0c2.61-3,5.08-6.22,8-9a15.53,15.53,0,0,1,8.55-3.9c3.42-.59,6.92-.64,10.35-1.11s7.12-1.44,8.67-4.77a3.08,3.08,0,0,0-1.08-4.1,3,3,0,0,0-4.1,1.07Z"/><path class="cls-5" d="M-9,162c5.44-4.83,15-5.36,19.79.65a1.51,1.51,0,0,0,2.56-1.06c-.89-8.23,1.93-17,9.57-21.18a15.1,15.1,0,0,1,11.5-1.16c4.24,1.22,8,3.78,11.57,6.24,1.6,1.09,3.1-1.5,1.52-2.59-6.13-4.18-13-8.43-20.74-7-6.95,1.28-12.42,6.64-14.92,13.08a27.09,27.09,0,0,0-1.5,12.62L13,160.57c-5.85-7.34-17.48-6.46-24-.65-1.44,1.29.69,3.4,2.13,2.12Z"/><path d="M45.73,113.74c3.38,2.22,7.35.77,10.69-.71,3-1.34,5.83-3,8.88-4.24a15.35,15.35,0,0,1,9.23-1.05c3.81.86,7.55,2.26,11.28,3.43s5.27-4.62,1.59-5.78-7.17-2.45-10.84-3.34a20.29,20.29,0,0,0-10.93.28,62.77,62.77,0,0,0-9.42,4.17,39.89,39.89,0,0,1-4.16,1.89c-1.27.45-2.4.76-3.29.17a3,3,0,1,0-3,5.18Z"/><path d="M103.22,140.43c-.36,2.19-.66,4.47.32,6.55a5.13,5.13,0,0,0,4.18,3.06,5.25,5.25,0,0,0,4.52-2.5c1.26-1.86,1.27-4.23,1.22-6.39l-2.56,1.06c1.88,2.19,4.35,4.48,7.47,3.94,2.56-.44,4.26-2.84,4.63-5.29.46-3.05-1.09-5.77-3-8s-4.54-4.35-5.48-7.35c-.57-1.84-3.46-1-2.89.8a16.42,16.42,0,0,0,4,6.18c1.63,1.77,3.56,3.57,4.25,6,.45,1.57.11,3.81-1.5,4.62-2.09,1-4.21-1.56-5.38-2.93a1.52,1.52,0,0,0-2.56,1.06c0,1.73.2,5.8-2.42,5.9a2.19,2.19,0,0,1-1.89-1.55,8.14,8.14,0,0,1,0-4.27c.3-1.89-2.59-2.7-2.89-.8Z"/><path class="cls-4" d="M139.09,0c.37.4.74.81,1.1,1.22,18.59,21.22,27.59,48.88,38.53,74.88a471.21,471.21,0,0,0,39,73.68c4.48,6.91,9.33,13.88,16.28,18.28a56.05,56.05,0,0,1-34.37-8,120.5,120.5,0,0,1-12.44,40.61c-12.76-23.08-25.41-43.27-33.47-67.15a17.6,17.6,0,0,1-1.16-5c-.09-2.49.87-4.87,1.71-7.21a83.28,83.28,0,0,0,4.22-17.87c1.08-8.88.42-18.72-5.48-25.44-7.22-8.23-20.36-9-30.3-4.41-3.71,1.71-7.24,4.16-9.27,7.71-2.58,4.53-2.35,10.09-1.78,15.28a158.27,158.27,0,0,0,5.13,26.15,34.19,34.19,0,0,1-14.26,6.85C92.91,118.46,88.34,102,75,95.92c-11.23-5.09-25.58.08-32.31,10.4s-6.17,24.46,0,35.14C48.09,151,60.16,158.27,70,153.39c7.62,24.1,10.44,49.42,13.22,74.54a42.91,42.91,0,0,1-34.66-24.74c-4,11.6-13.85,21.12-24.45,27.31a104.45,104.45,0,0,0,0-56.55c-2.42-8.54-4.49-16.92-7.13-25.4C13.17,136.4,10,122.42,7.24,110c-3.59-16.42.77-31.2,0-47.54-.3-6.21,1-12.92,1.52-19.12C10.19,24.64,25.23,9,42.43,0"/><path class="cls-4" d="M138,1.06c16.64,18.11,25.59,41.81,34.65,64.25a506.65,506.65,0,0,0,35,71.19c3.75,6.26,7.58,12.51,11.74,18.51,3.81,5.51,8.15,10.7,13.84,14.35l.75-2.8a55,55,0,0,1-33.61-7.75,1.52,1.52,0,0,0-2.26,1.29A119.49,119.49,0,0,1,185.89,200h2.59c-7.72-13.94-15.9-27.64-22.93-42a211.39,211.39,0,0,1-9.25-21.57c-.68-1.9-1.41-3.8-1.91-5.76a10.52,10.52,0,0,1,.24-5.83c1.13-3.78,2.58-7.42,3.52-11.26,3-12.45,4.82-29.61-6.32-38.8-9.49-7.82-24.65-6.9-34.36.09a17.61,17.61,0,0,0-6.38,7.92,25.06,25.06,0,0,0-1.22,10.6,137.55,137.55,0,0,0,3.88,23.76c.49,2,1,4,1.59,6l.38-1.46a33.25,33.25,0,0,1-13.6,6.47l1.46.38c-6.53-7.63-10.42-17.1-16.75-24.89a31.18,31.18,0,0,0-11.12-9,25.43,25.43,0,0,0-14.33-1.85,29.4,29.4,0,0,0-22.71,18c-4.2,10.36-2.71,23,3.21,32.37s18,16.78,28.87,11.55l-2.2-.9c5.88,18.7,8.93,38.12,11.27,57.54.67,5.53,1.28,11.07,1.89,16.6l1.5-1.5a41.53,41.53,0,0,1-33.36-24c-.58-1.28-2.36-.74-2.74.36-4,11.47-13.49,20.37-23.76,26.41l2.2,1.69a106.58,106.58,0,0,0,1.75-50.11c-.87-4.2-2.09-8.3-3.21-12.44-1.18-4.3-2.32-8.62-3.54-12.91-2.3-8.15-4.84-16.21-6.9-24.42q-1.51-6.09-2.9-12.2c-.92-4-1.94-8-2.61-12.11-1.4-8.38-.76-16.91-.09-25.33.34-4.24.68-8.49.76-12.75s-.25-8.34.09-12.52,1-8.36,1.34-12.55a39.72,39.72,0,0,1,2-9.59C16.64,21,27.22,10.79,38.69,3.83q2.22-1.33,4.5-2.53c1.71-.9.19-3.49-1.51-2.59C29.54,5.09,18.27,14.6,12,27A45.22,45.22,0,0,0,8.41,36.3,77.47,77.47,0,0,0,6.92,46.93c-.47,4.19-1.11,8.38-1.21,12.61s.18,8.55,0,12.84C5.26,80.82,4.12,89.24,4.33,97.7s2.32,16.79,4.25,25.06,4,16.42,6.41,24.51c2.58,8.51,4.85,17.1,7.25,25.66a109.46,109.46,0,0,1,4.18,25.34A103.5,103.5,0,0,1,24.18,224q-.67,3.08-1.52,6.1a1.51,1.51,0,0,0,2.2,1.69c11-6.46,20.85-16,25.14-28.21l-2.74.36a44.47,44.47,0,0,0,35.95,25.48,1.49,1.49,0,0,0,1.5-1.5c-2.17-19.64-4.35-39.35-8.83-58.63Q74,161.07,71.44,153a1.52,1.52,0,0,0-2.2-.9c-8.7,4.19-18.69-1.94-23.77-9a33.86,33.86,0,0,1-4.7-29.35A26.48,26.48,0,0,1,60.66,95.94a22.48,22.48,0,0,1,13.22,1.14A27.92,27.92,0,0,1,84.07,105c6.72,7.91,10.63,17.78,17.39,25.67a1.49,1.49,0,0,0,1.46.39,36.5,36.5,0,0,0,14.92-7.24,1.47,1.47,0,0,0,.39-1.45A157,157,0,0,1,113.43,99c-.84-6.68-1.74-14.46,3.45-19.69,4.19-4.21,10.54-6.44,16.37-6.87,5.66-.43,11.65.74,16.2,4.3,10.85,8.48,8.57,25.37,5.58,37-1,3.72-2.5,7.27-3.48,11-1,3.91,0,7.33,1.32,11a205.76,205.76,0,0,0,8.52,20.55c7.35,15.5,16.2,30.22,24.5,45.21a1.51,1.51,0,0,0,2.59,0,123.66,123.66,0,0,0,12.64-41.37l-2.25,1.3A57.8,57.8,0,0,0,234,169.56a1.51,1.51,0,0,0,.76-2.79c-5.06-3.25-9-7.88-12.41-12.76-3.68-5.26-7.07-10.75-10.41-16.23q-10.49-17.22-19.48-35.31c-5.82-11.71-11.09-23.67-16-35.79-4.57-11.28-9-22.64-14.27-33.63-5.86-12.2-12.83-24.1-22-34.11-1.31-1.42-3.42.7-2.12,2.12Z"/><path class="cls-3" d="M-.47,49.56c6,.92,11.75-1.64,17.39-3.91a3.07,3.07,0,0,1,1.79-.34,2.88,2.88,0,0,1,1.37,1A30.48,30.48,0,0,1,27,65.4a38.15,38.15,0,0,1-5.41,19.69,6,6,0,0,1-1.2,1.58,5.86,5.86,0,0,1-2.39,1,31.62,31.62,0,0,1-16.16-.16,3.29,3.29,0,0,1-1.58-.79A3.4,3.4,0,0,1-.34,84.5C-.59,72,.25,62.83,0,50.27"/><path class="cls-3" d="M-.87,51a25,25,0,0,0,11.36-1.29c1.81-.6,3.58-1.31,5.35-2,.63-.26,2.06-1.14,2.69-.81s1.24,1.44,1.64,2a30,30,0,0,1,5.15,20.46,35.77,35.77,0,0,1-2.93,10.87,21.68,21.68,0,0,1-2.66,5c-1.07,1.32-3.55,1.47-5.11,1.71a29.86,29.86,0,0,1-11.94-.64C1.85,86,1.29,86,1.18,85a29,29,0,0,1-.06-3q0-3,0-6c.11-8.6.52-17.19.36-25.8,0-1.93-3-1.93-3,0,.16,8.61-.25,17.2-.36,25.8,0,2.24,0,4.48,0,6.72,0,1.81-.18,4,1.33,5.28s4.19,1.52,6.08,1.78a32.46,32.46,0,0,0,6.46.29,30.84,30.84,0,0,0,6.75-1.07A6.68,6.68,0,0,0,23,85.65a41.33,41.33,0,0,0,4.63-11.79,34.16,34.16,0,0,0-3.09-23.69,22.77,22.77,0,0,0-3.74-5.28c-2-1.94-4.2-.7-6.38.17C9.84,46.9,4.93,48.81-.07,48.12a1.56,1.56,0,0,0-1.85,1.05A1.51,1.51,0,0,0-.87,51Z"/><path class="cls-8" d="M148.54.08c-3.62,2.54-8.52,4.18-11.29,6.49"/><path class="cls-8" d="M147.78-1.21c-3.67,2.55-8.12,3.87-11.59,6.72a1.51,1.51,0,0,0,0,2.12,1.53,1.53,0,0,0,2.12,0l.2-.16.15-.11.58-.4c.41-.27.84-.52,1.27-.77,1-.54,1.93-1,2.91-1.52a48.17,48.17,0,0,0,5.87-3.29,1.54,1.54,0,0,0,.54-2,1.5,1.5,0,0,0-2.05-.54Z"/><path class="cls-3" d="M199.1,0c-12.52,13.79-26,26.5-41.86,36.36-.72.45-3,2.3-3.82,2.28s-2.48-1.7-3.2-2.29c-9.16-7.51-13.09-17.94-13-29.78L145.9,0Z"/><path class="cls-3" d="M198-1.06C188.81,9.1,179,18.8,168,27.1q-4,3-8.22,5.83c-1.2.79-2.44,1.52-3.63,2.34a12.35,12.35,0,0,1-2.81,1.86c-.1,0,.44.13.13,0a2.61,2.61,0,0,1-.71-.48c-.47-.38-.9-.82-1.35-1.21-1.13-1-2.25-1.95-3.29-3a32.25,32.25,0,0,1-5-6.81,38.77,38.77,0,0,1-4.38-19L138,7.87l5.3-4,2.86-2.17c.27-.21.8-.42.11-.27-.87.2-.34.07-.22.1a12.61,12.61,0,0,0,3.07,0h50a1.5,1.5,0,0,0,0-3H151.76c-1.91,0-3.94-.19-5.84,0a2.52,2.52,0,0,0-1.42.7L142,1.11,136.81,5c-.11.08-.22.16-.31.24-1,.8-.76,1.91-.73,3.06a48,48,0,0,0,.54,6.11,38.6,38.6,0,0,0,3.4,11.05,35.35,35.35,0,0,0,6.86,9.58c1.26,1.25,2.63,2.43,4,3.59s2.6,1.88,4.26,1.09a35.13,35.13,0,0,0,3.56-2.33q3-1.87,5.87-3.88c3.82-2.65,7.52-5.48,11.1-8.43a225.07,225.07,0,0,0,20-18.9q2.43-2.55,4.78-5.16C201.46-.36,199.34-2.49,198-1.06Z"/><path class="cls-9" d="M169.33,33.47,224.78,1.55l-2.05-2a355.42,355.42,0,0,1-29.89,48.88c-.89,1.21.84,2.87,2,2C216.37,35.85,241.14,27.65,264,15.66A174,174,0,0,0,283,4.26L281.14,1.9c-13.23,16.57-30.32,29.3-44.7,44.76a138,138,0,0,0-11.51,14,1.51,1.51,0,0,0,.89,2.2A122.23,122.23,0,0,0,262.5,69a203.83,203.83,0,0,0,31.33-1.63c5.55-.74,11.06-1.72,16.57-2.66,1.9-.32,1.09-3.22-.8-2.89a257.39,257.39,0,0,1-27.1,3.62c-12,.76-24,1-35.92-.7a110.18,110.18,0,0,1-20-4.73l.9,2.2c12.21-17.13,29-30,43.7-44.77A166.39,166.39,0,0,0,283.26,4c1-1.21-.3-3.42-1.82-2.35-21.3,14.85-46.05,23.13-69,34.94a185,185,0,0,0-19.07,11.23l2.05,2.06A355.53,355.53,0,0,0,225.32,1a1.51,1.51,0,0,0-2.06-2L167.81,30.88a1.5,1.5,0,0,0,1.52,2.59Z"/><path class="cls-8" d="M69.23,150.84A23.93,23.93,0,0,1,48,142.22c-5.63-6.74-7.55-16-6-24.58a30.71,30.71,0,0,1,6.73-15c1.28-1.44-.84-3.57-2.12-2.12C33.69,115.07,36.21,141.49,54,151a26.52,26.52,0,0,0,15.28,2.87c1.9-.2,1.92-3.2,0-3Z"/><path class="cls-10" d="M2.59,68.33C9.28,67.29,16,66.65,22.75,66c1.91-.19,1.93-3.19,0-3-7,.68-14,1.37-21,2.45a1.52,1.52,0,0,0-1,1.84,1.54,1.54,0,0,0,1.85,1Z"/><path class="cls-3" d="M120.19,17.05c-1.74,5.5-.28,11.41,1.63,16.85,2.58,7.33,7.2,12.22,13.71,16.47a4.48,4.48,0,0,0,2.81,1,4.41,4.41,0,0,0,2.17-1.17L153,40.09a18.76,18.76,0,0,1-9.5-7,45.47,45.47,0,0,1-5.1-9.52c-2.14-6.14-2.16-12-2.41-18.52q-8,5.3-15.61,11.19"/><path class="cls-3" d="M118.74,16.65c-1.31,4.36-.87,8.93.27,13.27A38.28,38.28,0,0,0,123.65,41,33.13,33.13,0,0,0,131,49a29.71,29.71,0,0,0,4.74,3.29,4.73,4.73,0,0,0,5.48-.71c4.34-3.39,8.56-6.93,12.83-10.4a1.5,1.5,0,0,0-.66-2.5c-6.24-1.78-10-7.61-12.59-13.14-3-6.37-3.06-13.55-3.32-20.45a1.51,1.51,0,0,0-2.26-1.29q-8.17,5.4-15.91,11.42c-1.52,1.18.61,3.29,2.12,2.12q7.44-5.76,15.3-10.95l-2.25-1.3c.29,7.64.48,15.37,3.93,22.37,3,6.12,7.29,12.14,14.18,14.11L152,39l-9.85,8c-.82.67-1.64,1.34-2.47,2s-1.38,1.11-2.36.66a23,23,0,0,1-4.13-2.82,31,31,0,0,1-6.51-6.73,33.39,33.39,0,0,1-4.3-9.45c-1.29-4.31-2-8.83-.7-13.22.55-1.85-2.34-2.64-2.9-.8Z"/><path class="cls-8" d="M68.55,153.79c4.14,18.27,7.15,36.78,9.81,55.31q1.1,7.6,2.12,15.24a1.51,1.51,0,0,0,1.85,1,1.54,1.54,0,0,0,1-1.84c-2.49-18.37-5.16-36.72-8.67-54.92Q73.2,160.77,71.44,153c-.43-1.88-3.32-1.09-2.89.79Z"/><path class="cls-10" d="M150.49,25.48c11-6.55,20.88-14.74,30.81-22.77,1.5-1.21-.64-3.32-2.12-2.12l-.58.47,2.12,2.12,2.62-2.12c1.5-1.21-.63-3.33-2.12-2.12L178.6,1.06c-1.5,1.21.63,3.32,2.12,2.12l.58-.47L179.18.59c-9.73,7.87-19.42,15.88-30.21,22.3a1.5,1.5,0,0,0,1.52,2.59Z"/><path class="cls-10" d="M123.69,17.74A27.88,27.88,0,0,0,136.8,47.56,1.5,1.5,0,0,0,138.32,45a24.81,24.81,0,0,1-11.74-26.44c.43-1.88-2.46-2.68-2.89-.79Z"/><path d="M155.61,40.3A267,267,0,0,0,193.22,9.15c2.92-2.9,5.8-5.85,8.67-8.79,1.08-1.11-.62-2.81-1.7-1.7C189.73,9.41,179,19.86,167.11,29c-4.14,3.2-8.39,6.25-12.72,9.19-1.26.87-.07,3,1.22,2.08Z"/><path class="cls-11" d="M74.2,115.87c-7,.85-12.34,3.14-18.35,6.89a8,8,0,0,0-3.2,3.08c-.64,1.35-.36,3.26,1,3.95a4.07,4.07,0,0,0,2,.32c4.48-.12,8.79-1.68,13-3.23L81,122.37a6,6,0,0,0,3.13-2c1.34-2.07-.47-5.42-2.93-5.63a17.07,17.07,0,0,0-7,1.11"/><path class="cls-11" d="M74.2,114.37a43.66,43.66,0,0,0-15.78,5.14c-2.32,1.28-5.19,2.65-6.69,4.92-1.29,1.94-1.28,4.89.71,6.37,2.24,1.66,6.16.65,8.63.08a77,77,0,0,0,9.12-3l9.35-3.42c2.38-.87,5.45-1.63,6.31-4.36a5.64,5.64,0,0,0-2.67-6.27c-2.72-1.54-6.64-.3-9.38.57-1.83.58-1,3.47.8,2.89s4.68-1.64,6.75-1c1.15.35,2.16,2.05,1.53,3.18a4.19,4.19,0,0,1-2.31,1.43l-3.65,1.33-7.3,2.68c-4.48,1.63-9.15,3.59-14,3.67-.89,0-1.69,0-1.81-1.07a2.92,2.92,0,0,1,1.25-2.39,28,28,0,0,1,5.4-3.34,39.4,39.4,0,0,1,13.72-4.44c1.89-.23,1.91-3.24,0-3Z"/><path class="cls-11" d="M142.21,94.88a48.76,48.76,0,0,0-19.88,7,8,8,0,0,0-3.2,3.07c-.64,1.36-.36,3.26,1,4a4,4,0,0,0,2,.32c4.49-.12,8.8-1.69,13-3.23l12.31-4.51a6,6,0,0,0,3.14-2c1.34-2.07-.54-5-2.93-5.63s-4.88.28-7.17,1.17"/><path class="cls-11" d="M142.21,93.38A51.25,51.25,0,0,0,125,98.63c-2.31,1.18-5,2.51-6.61,4.63-1.44,1.92-1.63,4.9.34,6.55s5.9.81,8.33.29a66.31,66.31,0,0,0,8.88-2.81l9.58-3.51c2.34-.86,5.49-1.54,6.59-4.06s-.4-5.27-2.56-6.61c-2.93-1.82-6.58-.63-9.51.51-1.78.69-1,3.59.79,2.89,2-.77,4.69-2,6.81-1,1.23.55,2.57,2.34,1.36,3.53a7.31,7.31,0,0,1-2.68,1.28l-3.65,1.34-7.07,2.59c-4.35,1.59-9.21,3.73-13.94,3.51-2.43-.11-1.13-2.64,0-3.59a28.27,28.27,0,0,1,5.64-3.33,47,47,0,0,1,14.87-4.44c1.89-.24,1.91-3.24,0-3Z"/><path d="M87.56,125.92a11.74,11.74,0,0,1,0,1.33c-.05.46,0-.16,0,.11l-.06.36c0,.22-.08.43-.14.65a9.18,9.18,0,0,1-.39,1.26c0,.12-.09.23-.13.35.06-.15,0,0,0,0s-.21.45-.32.66a13.29,13.29,0,0,1-.69,1.14l-.17.24c-.27.38.09-.11-.08.1s-.28.35-.42.51a10.27,10.27,0,0,1-1,1l-.22.19c-.06,0-.27.21-.1.09l-.61.42a1.5,1.5,0,0,0,1.51,2.59,13.08,13.08,0,0,0,5.92-11,1.5,1.5,0,0,0-3,0Z"/><path d="M78.37,131.67a7.39,7.39,0,0,1-.47.76c-.08.13-.18.26-.27.38s.17-.21.06-.06l-.14.16a10.77,10.77,0,0,1-1.24,1.29l-.32.27,0,0c.2-.15,0,0,0,0a8.73,8.73,0,0,1-.74.5,7.44,7.44,0,0,1-.78.44l-.38.19-.23.11.2-.09-.16.06a1.72,1.72,0,0,0-.9.69,1.62,1.62,0,0,0-.15,1.16,1.59,1.59,0,0,0,.69.9,1.52,1.52,0,0,0,1.16.15A12.66,12.66,0,0,0,81,133.19a1.5,1.5,0,0,0-2.59-1.52Z"/><path d="M121.08,117.65c3.38,4.62,10.67,5.36,14.77,1.24a1.5,1.5,0,0,0-2.13-2.12,6.54,6.54,0,0,1-5.27,1.81,6.28,6.28,0,0,1-1.3-.22,5.82,5.82,0,0,1-1.31-.48c-.23-.12-.46-.24-.68-.38l-.32-.22s-.28-.21-.13-.09a5.67,5.67,0,0,1-.62-.58,4.09,4.09,0,0,1-.42-.48,1.54,1.54,0,0,0-2-.53,1.51,1.51,0,0,0-.54,2.05Z"/><path d="M130.64,115.18a9,9,0,0,0,4.16.11,8.88,8.88,0,0,0,3.72-1.79,1.46,1.46,0,0,0,.44-1.06,1.5,1.5,0,0,0-1.5-1.5,1.76,1.76,0,0,0-1.06.44c.34-.26,0,0-.1.07l-.34.21c-.24.14-.48.26-.72.38s-.13.06.08,0l-.19.07-.39.13a6.54,6.54,0,0,1-.73.19,1.71,1.71,0,0,1-.35.06h.09l-.2,0a7.3,7.3,0,0,1-.81,0l-.4,0-.21,0h.1a3.76,3.76,0,0,1-.79-.17,1.5,1.5,0,1,0-.8,2.89Z"/><path d="M111.16,166.22a169.5,169.5,0,0,0,18.59-7.75c1.73-.85.21-3.44-1.52-2.6a157.69,157.69,0,0,1-17.87,7.45c-1.81.63-1,3.53.8,2.9Z"/><path d="M133,95.93c-2.49,1.06-4.48,3.63-3.77,6.44a5.5,5.5,0,0,0,5.7,3.86,7.65,7.65,0,0,0,3.83-1.37,5.68,5.68,0,0,0,2.48-3.1C142,99,140,96,137.39,95.14s-5.25,1.59-6.22,3.84a5.37,5.37,0,0,0-.55,2.12,2.82,2.82,0,0,0,1,2.1,5.08,5.08,0,0,0,3.72,1.34,4.35,4.35,0,0,0,3.37-2.05,3.79,3.79,0,0,0,0-3.73A3.5,3.5,0,0,0,135,97a3.76,3.76,0,0,0-3,2.51,2.57,2.57,0,0,0,3.16,3.21c1.66-.46,3.49-2.61,2-4.22a1.9,1.9,0,0,0-2.75-.07,3.26,3.26,0,0,0-.75,2.33,2.12,2.12,0,0,0,1.64,2,1.93,1.93,0,0,0,2.35-1.36,1.5,1.5,0,0,0-2.9-.8,1.08,1.08,0,0,1,1.26-.75,1,1,0,0,1,.54.44c.07.4.1.5.1.3s0-.09,0,0l.06-.21c0-.06,0-.13.07-.2a.94.94,0,0,1-.37.47l-.75.21c-.46,0-1-.67-.93-1a3.57,3.57,0,0,0,.12-.4l0,0-.15.15a1.07,1.07,0,0,1-.16.14c.24-.19-.26.15-.11.07s-.06,0-.08,0c-.28.08,0,0,.08,0a.64.64,0,0,1,.41.25s.17.31,0,0c0,0,.05.28,0,.1s0,.07,0,.1c-.05.22-.06.08,0,0s.16-.14,0,0l.19-.19c-.21.18.13-.06.21-.1s0,0,0,0l.27-.08c.08,0,.26,0,0,0a1.47,1.47,0,0,0,.21,0c.15,0,0,0-.05,0s.37.12.21,0,.27.25,0,0l.16.17s-.09-.2,0-.06.17.41.09.12a1.21,1.21,0,0,1,.05.18c.05.17,0,.22,0,0,0,.09,0,.45,0,.28s-.15.37,0,0c0,.06-.22.41-.14.28s0,0,0,0-.15.15-.22.22,0,0,.06,0-.14.1-.22.14l-.17.09c-.18.1.22,0,0,0s-.46.1-.17.07a3.74,3.74,0,0,1-.58,0c.26,0-.14,0-.23-.06s-.47-.19-.25-.08a4.91,4.91,0,0,1-.44-.25c-.14-.08,0,0,0,0l-.26-.23c-.13-.12,0,0,0,0-.14-.1-.07-.15,0,0s.05.23,0,0-.06.15,0,0,.09-.32.14-.47l.07-.19c0-.16-.09.15,0-.09a5.86,5.86,0,0,1,.48-.84,1,1,0,0,1,.11-.17c.14-.19-.13.15,0,0s.25-.27.38-.4.23-.22.35-.33.19-.15.06-.06.1-.06.13-.08.29-.19.44-.28c0,0,.23-.1.11,0s.25-.07.26-.07c-.27,0,.29,0,.15,0s.4.16.15,0a3.23,3.23,0,0,1,.41.22l.25.17c-.16-.12,0,0,.09.08a5.77,5.77,0,0,1,.64.67c-.16-.2.13.23.16.28s.07.12.1.19.12.33,0,.09c.05.14.09.29.13.43s0,.12,0,.05a2.81,2.81,0,0,1,0,.29c0,.08,0,.44,0,.2a2.82,2.82,0,0,1-.15.57c.09-.21,0,0,0,0l-.15.24c.13-.18-.07.09-.12.14l-.36.35-.22.18c-.21.16.27-.18-.12.08a6.59,6.59,0,0,1-.85.51c-.06,0-.46.21-.26.13a5.62,5.62,0,0,1-.58.19,4.7,4.7,0,0,1-.51.12c-.25,0,.2,0,0,0l-.22,0a4.69,4.69,0,0,1-.53,0l-.16,0-.12,0a5,5,0,0,1-.55-.17c.28.1-.15-.08-.22-.13s-.46-.31-.23-.12a4.12,4.12,0,0,1-.37-.35,1.66,1.66,0,0,1-.13-.14c-.12-.11.11.19,0,0s-.17-.29-.24-.44c0,.06.09.28,0,0,0-.08-.05-.16-.07-.24s0-.17-.05-.25c0,.17,0,.09,0,0V101c0,.16,0,0,0-.06s.1-.39.17-.58c-.08.2,0,0,0-.06l.15-.27c.06-.08.11-.17.18-.25-.12.16,0,0,.09-.09a5.33,5.33,0,0,1,.42-.4c.12-.11,0,0,0,0s.2-.14.3-.21a8.09,8.09,0,0,1,1.09-.57,1.5,1.5,0,0,0,.54-2,1.54,1.54,0,0,0-2-.54Z"/><path d="M66.89,117.14a7.29,7.29,0,0,0-3,2.31,6.75,6.75,0,0,0-1.3,3,5.65,5.65,0,0,0,.6,3.83,3.6,3.6,0,0,0,4.12,1.43,11.51,11.51,0,0,0,1.9-.74,9.89,9.89,0,0,0,1.64-.87,4.54,4.54,0,0,0,2-5.75,5.5,5.5,0,0,0-1-1.88c-1-1.15-2.91-1.21-4.31-.91a4.51,4.51,0,0,0-3.06,2.87,7.14,7.14,0,0,0-.43,2,4.75,4.75,0,0,0,.16,2,3.23,3.23,0,0,0,3.3,2.11,4.24,4.24,0,0,0,3.37-2.34,4.19,4.19,0,0,0,.16-4.23,3.35,3.35,0,0,0-6.21,1.59A3.16,3.16,0,0,0,67.08,125a2.67,2.67,0,0,0,3.29-2.85c-.23-1.74-2.58-3.44-4-1.84-1.18,1.29-.39,4.12,1.54,4.14s3-3.12,1-4.07a2,2,0,0,0-2.61.75A1.51,1.51,0,0,0,66.7,123a1.48,1.48,0,0,0,2-.12l.28-.33a1.5,1.5,0,0,0-2.12-2.12l-.29.33,2.36,1.82a1,1,0,0,1-1.89-.46.74.74,0,0,1,.1-.35c-.17.3.27-.23.28-.24a.92.92,0,0,1,1.41.31c-.17-.27,0,.21,0,0,0,0-.07-.23-.07-.23l0,.2a.6.6,0,0,1,0-.19c.12.14-.39.77-.29.67a1,1,0,0,1-.91.25c-.07,0-.33-.22-.24-.12s.2.27,0,0c0,0,.12.21.14.22s-.08-.31-.08-.32c0-.34,0-.21,0-.1.09-.2.1-.23,0-.09l.11-.14c-.21.25.21-.1,0,0s.35-.07,0,0c.06,0,.34,0,.09,0,.36,0,.16,0,.08,0,.34.14.1,0,0,0s.16.18,0,0-.2,0,0,0l-.06-.09c-.08-.15-.07-.13,0,.06,0,0,0-.19-.06-.19s0,.34,0,.1c0-.06.07-.32,0-.09s0,0,0-.09c0-.25,0,.13,0,.08a.6.6,0,0,1,.09-.18.69.69,0,0,1,.11-.17c-.14.17-.16.2-.05.08l.07-.07c.19-.22-.18.06,0,0s.19-.14.21-.12l-.09,0c-.11,0-.11,0,0,0l.1,0-.2,0h.24c.17,0-.33-.11-.06,0l.19.06s-.33-.13,0,0-.1,0-.06-.06l.14.14.07.07c.09.1.09.1,0,0l-.06-.07.1.17s-.1-.37,0-.09c0,.07,0,.13,0,.2,0-.31,0,0,0,.06s.06-.19,0,.07a2.58,2.58,0,0,1-.2.63s.14-.29,0,0a2,2,0,0,1-.1.21l-.15.25c0,.07-.17.31,0,0,0,0-.34.42-.4.41s.31-.2,0,0l-.2.11c-.26.17.16,0,0,0s-.24.07-.24.06.4,0,.1,0h-.2c-.3,0,.21.09.06,0l-.15,0c-.12,0-.12,0,0,0s.15.06,0,0,.07,0,0,0-.15-.12-.14-.14.21.26.07.07,0,.16,0,0-.15-.28,0,0c-.08-.14,0-.47,0-.63s0-.35,0-.52c0-.42,0,.18,0-.06s0-.21.07-.32.09-.34.14-.5c.11-.38-.09.14,0-.07s.1-.2.16-.3a1.43,1.43,0,0,1,.16-.24s-.21.23,0,0a1.38,1.38,0,0,1,.33-.31c-.29.15-.06,0,0,0a1.19,1.19,0,0,1,.25-.13s-.32.09-.05,0c.05,0,.43-.06.14,0,.4,0,.8,0,1.2,0,.24,0,0,0,0,0s.2,0,.23.06c-.45-.12.17.06-.09-.06s.24.21,0,0,0,.08.07.12l.11.19c.14.28,0,0,0,0a.66.66,0,0,1,.08.21c.08.21.16.42.22.64s0,.18.07.27,0,.43,0,.15a2.44,2.44,0,0,0,0,.27c0,.34.06-.19,0,0a2.86,2.86,0,0,0-.07.28c0,.1,0,.23,0,0,0,.14-.16.28-.22.4-.18.32.14-.14,0,0l-.24.25-.21.2s-.2.16,0,0c-.16.12-.33.22-.5.33a10.86,10.86,0,0,1-1.13.57l-.24.11-.18.08c.21-.1-.17.06-.17.06l-.23.09-.48.15-.31.06c-.11,0-.08,0,.1,0h-.18a1.41,1.41,0,0,1-.29,0l.17,0-.22-.07s.25.16,0,0,.15.22,0-.05,0,.05,0,0-.17-.28-.17-.29.09.28,0,0-.07-.21-.09-.32,0-.19-.06-.28,0-.08,0,.13c0-.06,0-.11,0-.17a3.85,3.85,0,0,1,0-.59c0-.07,0-.14,0-.21,0-.31-.07.3,0,0,0-.17.07-.35.11-.52s.11-.34.17-.52-.11.21,0,0l.15-.3c.08-.15.17-.31.27-.46l.15-.22c.17-.25-.19.2,0,0a4.2,4.2,0,0,1,.78-.74c-.3.18-.11.08-.05,0l.27-.18.23-.13c.08,0,.46-.21.09,0a1.65,1.65,0,0,0,.89-.69,1.5,1.5,0,0,0-1.69-2.21Z"/><path d="M79.11,177.28c1.6-2.23,5-2.42,7.46-1.15s4.11,3.6,5.69,5.84a7.17,7.17,0,0,1,9.53-4.34c2.91,1.37,5.6,4.83,8.53,3.5-.83-2.27,1.45-4.66,3.84-5s4.75.53,7.1,1.11,5.09.72,6.91-.87c2.17-1.92,2-5.46,3.92-7.66,2.66-3.11,8.11-2.3,10.83-5.36s1.71-8.49,5.21-10.31c2.49-1.3,6.21,0,7.9-2.19.56-.74.92-1.87,1.84-1.94s1.44.89,1.77,1.71l5.53,13.81a11.85,11.85,0,0,1,1.22,5.41c-.18,1.85-1.57,3.74-3.43,3.8a20.51,20.51,0,0,0-2.69-.19c-2.44.42-2.45,3.82-2.57,6.29a12.83,12.83,0,0,1-10.51,11.72c-2.75.43-5.83,0-8.05,1.69-1.88,1.43-2.51,3.93-3.73,6A11.15,11.15,0,0,1,123.53,204a46.37,46.37,0,0,0-4.82-1.4c-3.69-.49-7.1,1.77-10.48,3.32s-8,2.15-10.29-.77c-.77-1-1.18-2.27-2.15-3.05-1.77-1.44-4.37-.53-6.52.23s-5.09,1-6.19-1a5.13,5.13,0,0,1-.49-1.9c-.93-7.38-2.55-14.77-3.48-22.15"/><path d="M80.17,178.34a4.47,4.47,0,0,1,5.5-1c2.31,1.06,3.87,3.35,5.3,5.37a1.52,1.52,0,0,0,2.74-.36,5.69,5.69,0,0,1,7.33-3.45c3.17,1.34,5.81,5.2,9.67,3.65a1.52,1.52,0,0,0,1.05-1.84c-.45-1.53,1.08-2.82,2.46-3.13,2-.47,4.24.42,6.2.92,3.19.82,7.08,1,9.39-1.76,2-2.41,1.76-6.43,4.62-8.09,2.59-1.51,5.81-1.47,8.3-3.23s3.18-4.76,4-7.62a6.05,6.05,0,0,1,1.61-3.18c1.1-.9,2.71-.79,4-.89a7,7,0,0,0,4.19-1.36,7.6,7.6,0,0,0,1.28-1.65,1.76,1.76,0,0,1,.32-.45c-.22.17-.32,0-.21.27.19.52.48,1,.69,1.56,1.69,4.22,3.39,8.44,5.07,12.66.71,1.77,1.77,4.06.87,5.94-1,2.16-2.91.85-4.72,1.23-3.06.65-3.48,4.12-3.62,6.71a11.81,11.81,0,0,1-3.73,8.51,10.85,10.85,0,0,1-4,2.39,24.18,24.18,0,0,1-5.16.69,9.81,9.81,0,0,0-5,1.56,10.38,10.38,0,0,0-3.06,4.13,13.47,13.47,0,0,1-2.74,4.22,9.81,9.81,0,0,1-4.06,2.25,9.2,9.2,0,0,1-4.8.06c-1.9-.5-3.65-1.35-5.65-1.45-4-.21-7.34,2.22-10.86,3.7-2.63,1.1-6.6,1.84-8.4-1-1-1.52-1.74-3-3.57-3.65a8.31,8.31,0,0,0-5.07.32c-1.45.46-2.93,1.15-4.49.93-1.88-.27-1.66-2.52-1.87-4-.61-4.43-1.43-8.83-2.17-13.24-.38-2.27-.73-4.54-1-6.83-.24-1.88-3.24-1.91-3,0,.62,4.81,1.48,9.58,2.29,14.36.43,2.51.83,5,1.16,7.55.24,1.83.64,3.59,2.39,4.54a7.14,7.14,0,0,0,4.82.4c1.77-.36,3.49-1.42,5.34-1.31s2.46,2.63,3.71,3.85a7.38,7.38,0,0,0,4.52,2c3.91.41,7.29-1.56,10.68-3.16,1.91-.91,4-1.74,6.2-1.39,2,.34,3.81,1.34,5.85,1.59a12.81,12.81,0,0,0,10-3.27,13.82,13.82,0,0,0,3.09-4.43c.79-1.64,1.55-3.48,3.35-4.21s3.9-.56,5.81-.8a13.55,13.55,0,0,0,5.1-1.66,14.71,14.71,0,0,0,6.64-8.09,19.33,19.33,0,0,0,.72-5c.06-.91.06-2.9,1.12-3.28.89-.33,2.13.27,3.1.12a4.68,4.68,0,0,0,2.5-1.24,6.35,6.35,0,0,0,1.89-5.16c-.18-2.36-1.23-4.55-2.1-6.72L163,155l-1.38-3.46a12.47,12.47,0,0,0-1.38-2.93,2.77,2.77,0,0,0-4.41-.23c-.48.54-.72,1.34-1.29,1.79a3.84,3.84,0,0,1-2,.56,14.23,14.23,0,0,0-4.89.82c-3,1.39-3.58,4.71-4.39,7.56a6.65,6.65,0,0,1-2.17,3.82,13.83,13.83,0,0,1-4.49,1.71,13.43,13.43,0,0,0-4.5,2,8.9,8.9,0,0,0-2.85,4.24c-.57,1.56-.92,3.6-2.41,4.59s-3.56.68-5.18.29c-3.88-.93-8.43-2.51-11.58,1a5,5,0,0,0-1.21,4.81l1-1.84c-1.88.75-3.62-.91-5.07-1.93a10.06,10.06,0,0,0-5.45-2.19,8.76,8.76,0,0,0-8.58,6l2.74-.36c-2-2.76-4.06-5.65-7.35-6.87-2.75-1-6.28-.55-8.16,1.87a1.56,1.56,0,0,0,0,2.12,1.5,1.5,0,0,0,2.12,0Z"/><path d="M103.84,155.13c-.12,1.15-2,2-2.82,2.54a36.37,36.37,0,0,1-3.45,1.65,25.46,25.46,0,0,0-7.06,4A18.63,18.63,0,0,0,86,170.55,32.15,32.15,0,0,0,83.87,180c-.15,1.92,2.85,1.91,3,0,.43-5.69,2.36-12.77,7.58-15.86,2.3-1.37,4.87-2.2,7.24-3.41s4.87-2.77,5.15-5.58c.19-1.92-2.81-1.9-3,0Z"/><path d="M87.76,160c-3.33,3.17-6.66,6.59-8.52,10.87A15.09,15.09,0,0,0,79.31,184c.91,1.7,3.5.19,2.59-1.52-4.11-7.7,2.77-15.42,8-20.38,1.4-1.33-.73-3.45-2.13-2.12Z"/><path d="M129.69,149.21c3.75,1.9,7.92.23,11.89.5,3.48.23,7.13,2.08,7.68,5.84a1.51,1.51,0,0,0,1.84,1,1.53,1.53,0,0,0,1.05-1.85c-.59-4-4.26-6.87-8.06-7.7a20.3,20.3,0,0,0-6.6-.2c-2,.22-4.38.74-6.29-.23-1.72-.87-3.24,1.72-1.51,2.59Z"/><path d="M138.59,143.83c1.13.08,2.25.14,3.38.24l.6.06s.41.05.21,0l.14,0c.43.07.86.15,1.28.26a9.56,9.56,0,0,1,1.15.36c.14,0,.14.06,0,0l.29.14c.17.09.34.18.5.28l.26.18c.17.13-.24-.23,0,0l.4.39s.18.23.08.09.08.13.1.16a5.07,5.07,0,0,1,.29.57,1.52,1.52,0,0,0,2.05.54,1.54,1.54,0,0,0,.54-2.06,6.84,6.84,0,0,0-4.64-3.5,33.84,33.84,0,0,0-6.67-.77,1.52,1.52,0,0,0-1.5,1.5,1.54,1.54,0,0,0,1.5,1.5Z"/><path d="M119.81,177.76c2.37-1.46,3.88-4,6.33-5.36a6.78,6.78,0,0,1,4.49-.37c.83.16,1.66.36,2.49.54l1.41.32.63.14c.25.06.58.29.28,0l-.38-.66,0,.15.15-1.15-.05.09,1.29-.74h-.11l.76.2-.11,0,.54.54-.05-.07-.24,1.82.07-.06c1.44-1.29-.69-3.4-2.12-2.12l-.07.06a1.48,1.48,0,0,0-.23,1.81,1.68,1.68,0,0,0,2.91,0c.77-1.36-.52-2.41-1.71-2.69a33.82,33.82,0,0,0-7.44-1.35,8.88,8.88,0,0,0-6,2.42c-1.47,1.28-2.67,2.89-4.35,3.92s-.13,3.61,1.52,2.59Z"/><path d="M125,178.56c.23-.4.48-.8.74-1.17l.18-.25,0-.07c.15-.2.32-.4.49-.59a15.59,15.59,0,0,1,1.93-1.88s.29-.23.12-.1l.25-.18.5-.36c.39-.25.78-.49,1.19-.72a11,11,0,0,1,1.25-.6c-.17.06.1,0,.09,0,0,.15-.68-.21-.71-.24a.74.74,0,0,1-.27-.61c0,.32.12-.3,0,0,0,.08,0,.16-.07.24.08-.27.05-.1,0,0s-.2.32-.09.16-.1.12-.12.15c-.33.39-.68.77-1,1.13s-.63.58-1,.86a9.87,9.87,0,0,1-1.06.76c-.39.25-.78.48-1.19.69l-.58.29a4.45,4.45,0,0,1-.53.23l-.27.1-.14,0h0c-.22-.13.43.29.31.2.31.24.19.17.32.41v.08c0-.17,0-.17,0,0l.08-.26c0,.07-.13.23,0,0s.14-.26.22-.39.27-.41.41-.61l0,0,.29-.33c.17-.18.35-.35.53-.52l.22-.19c.23-.2-.1.06.17-.13a8.08,8.08,0,0,1,1.19-.73l.34-.16c-.19.08,0,0,.12,0a6.43,6.43,0,0,1,.78-.24l-1.7-2.21c-.16.29-.32.57-.5.84l-.3.43c-.17.24.08-.08-.13.17A12.8,12.8,0,0,1,126,174l-.4.34c-.08.06-.08.06,0,0l-.18.14a11.54,11.54,0,0,1-1.6,1l-.41.19-.27.11-.42.15-.2.06c.16,0,.16,0,0,0l.94,1.15c-.06.12,0,.1,0-.06l.24-.4a8.92,8.92,0,0,1,1.09-1.34c.23-.24.48-.47.74-.7l.36-.29c-.17.13.2-.15.2-.14a10.94,10.94,0,0,1,1.75-1l-2.2-1.69-.12.34c-.09.24.15-.3-.05.11a6.45,6.45,0,0,1-.31.58c-.11.19-.23.37-.35.55s0,0-.08.1l-.24.27c-.15.16-.3.32-.47.47l-.27.23c.12-.1,0,0,0,0a7.56,7.56,0,0,1-1.27.72,1.51,1.51,0,0,0-.53,2.05,1.53,1.53,0,0,0,2,.54,8.7,8.7,0,0,0,4.57-5.21,1.48,1.48,0,0,0-.53-1.57,1.54,1.54,0,0,0-1.67-.12,12.75,12.75,0,0,0-3.39,2.34,14.88,14.88,0,0,0-1.42,1.65,5.07,5.07,0,0,0-1,1.89,2,2,0,0,0,1.66,2.46,4.08,4.08,0,0,0,2.19-.44,13.32,13.32,0,0,0,3.59-2.18,12.52,12.52,0,0,0,2.82-3.49,1.52,1.52,0,0,0-1.69-2.21,9.94,9.94,0,0,0-5.88,4.39c-.77,1.26-1.16,3.14.32,4.09s2.94,0,4.17-.61a16.64,16.64,0,0,0,3.25-2.21,10,10,0,0,0,2.48-2.8c.67-1.32.56-3.23-1.11-3.71a3.44,3.44,0,0,0-2.38.46,15.87,15.87,0,0,0-1.63.87,17.26,17.26,0,0,0-5.86,6,1.5,1.5,0,0,0,2.59,1.52Z"/><path d="M110.3,154.46a7.73,7.73,0,0,1,.16.81l0-.4a7,7,0,0,1,0,1.83l0-.4c0,.11,0,.22,0,.32a1.56,1.56,0,0,0,.15,1.16,1.53,1.53,0,0,0,.89.69,1.51,1.51,0,0,0,1.16-.15,1.49,1.49,0,0,0,.69-.9,8.52,8.52,0,0,0-.11-3.76,1.54,1.54,0,0,0-.69-.89,1.57,1.57,0,0,0-1.16-.16,1.54,1.54,0,0,0-.89.69,1.56,1.56,0,0,0-.15,1.16Z"/><path d="M116,152.64l.92,2.55a1.63,1.63,0,0,0,.69.9,1.5,1.5,0,0,0,2-.54,1.47,1.47,0,0,0,.15-1.16l-.92-2.55a1.63,1.63,0,0,0-.69-.9,1.59,1.59,0,0,0-1.15-.15,1.53,1.53,0,0,0-.9.69,1.47,1.47,0,0,0-.15,1.16Z"/><path d="M121.82,150a9.67,9.67,0,0,0,1.12,1.43,9.07,9.07,0,0,0,1.38,1.18,1.73,1.73,0,0,0,1.16.16,1.26,1.26,0,0,0,.51-.27,1.18,1.18,0,0,0,.38-.42,1.47,1.47,0,0,0,.15-1.16l-.15-.36a1.55,1.55,0,0,0-.54-.54c-.06-.05-.13-.09-.19-.15l.3.24a7.51,7.51,0,0,1-1.38-1.38l.24.31c-.14-.18-.27-.36-.39-.55a1.55,1.55,0,0,0-.9-.69,1.12,1.12,0,0,0-.6,0,1.09,1.09,0,0,0-.55.18,1.47,1.47,0,0,0-.69.89,1.51,1.51,0,0,0,.15,1.16Z"/><path d="M3.47,47.17a58.18,58.18,0,0,1-1.35,40.1c-.58,1.43,1.74,2,2.32.64A60.31,60.31,0,0,0,5.79,46.54c-.49-1.46-2.81-.84-2.32.63Z"/><path d="M5,48.39c4.29-.47,8.12-2.4,12.13-3.83A1.23,1.23,0,0,0,18,43.08a1.2,1.2,0,0,0-1.47-.83C12.72,43.59,9,45.55,5,46a1.24,1.24,0,0,0-1.2,1.2A1.21,1.21,0,0,0,5,48.39Z"/><path d="M25.5,232.46a101,101,0,0,0,23.73-28.62l-2.74-.36c2.68,7.19,8.2,12.86,14.66,16.84,6.63,4.09,14.45,5.77,21.72,8.32,1.83.64,2.61-2.26.8-2.9-6.81-2.38-14.08-4-20.37-7.62-6-3.51-11.45-8.81-13.92-15.43a1.52,1.52,0,0,0-2.74-.36,98.83,98.83,0,0,1-23.26,28c-1.49,1.23.65,3.34,2.12,2.12Z"/><path d="M199.85,162.54c.19,6.73-2.37,13.29-6.24,18.72-3.33,4.69-7.23,8.94-10.9,13.35-1.23,1.47.88,3.61,2.12,2.12,3.91-4.69,8.06-9.22,11.57-14.23,4-5.77,6.65-12.87,6.45-20-.06-1.93-3.06-1.94-3,0Z"/><path d="M200.37,164.27c9.35,8.25,22.23,8.77,34,7.87,1.91-.15,1.93-3.15,0-3-10.93.84-23.23.69-31.93-7-1.44-1.27-3.57.84-2.12,2.12Z"/><path d="M136.76,8a26.23,26.23,0,0,0,14.8,28.12c1.39.63,2.62-1.43,1.21-2.08a23.84,23.84,0,0,1-13.7-25.41c.25-1.51-2.06-2.16-2.31-.63Z"/><path d="M149.72,128.8c3.08,9.16,7.35,18,11.3,26.78s8.09,17.64,12.64,26.21c2.57,4.83,5.28,9.59,8.16,14.24.81,1.31,2.88.11,2.07-1.21-10.06-16.25-17.87-33.73-25.55-51.19-2.24-5.1-4.53-10.19-6.3-15.47-.49-1.46-2.81-.83-2.32.64Z"/><path d="M69.66,153.34a348,348,0,0,1,11,57.41q.88,8.2,1.39,16.44c.1,1.53,2.5,1.55,2.4,0a361.49,361.49,0,0,0-8.36-58.28Q74.25,160.75,72,152.7a1.2,1.2,0,0,0-2.31.64Z"/><path d="M25,232.87a38.54,38.54,0,0,0,13-10.92c4-5.24,7.55-10.9,11.24-16.38.86-1.28-1.22-2.48-2.08-1.21C43.69,209.59,40.29,215,36.53,220a36.52,36.52,0,0,1-12.7,10.79c-1.37.71-.16,2.78,1.21,2.07Z"/><path d="M139.23,6.81c0,.29,0,0,0-.08l.06-.24c0-.1.07-.19.09-.28s-.09.17,0,0a5.42,5.42,0,0,1,.26-.48c0-.07.09-.14.14-.21s.22-.28.05-.07a7.38,7.38,0,0,1,.76-.82l.44-.38.2-.16.1-.07c1.46-1.07,3-2,4.57-2.95a1.24,1.24,0,0,0,.43-1.65A1.23,1.23,0,0,0,144.73-1C143,.07,141.25,1.05,139.66,2.3a9.05,9.05,0,0,0-1.86,1.9,5.72,5.72,0,0,0-1,2.61A1.2,1.2,0,0,0,138,8a1.23,1.23,0,0,0,1.2-1.2Z"/></g></svg>