<?xml version="1.0" encoding="UTF-8"?>
<svg width="598px" height="546px" viewBox="0 0 598 546" version="1.1" xmlns="http://www.w3.org/2000/svg" xmlns:xlink="http://www.w3.org/1999/xlink">
    <!-- Generator: Sketch 62 (91390) - https://sketch.com -->
    <title>Kingsly Copy 8</title>
    <desc>Created with Sketch.</desc>
    <defs>
        <rect id="path-1" x="0" y="0" width="598" height="546" rx="52"></rect>
    </defs>
    <g id="Page-1-Copy" stroke="none" stroke-width="1" fill="none" fill-rule="evenodd">
        <g id="Kingsly-Copy-8">
            <mask id="mask-2" fill="white">
                <use xlink:href="#path-1"></use>
            </mask>
            <use id="Mask" fill="#E2AB0F" xlink:href="#path-1"></use>
            <g id="Kingsly" mask="url(#mask-2)">
                <g transform="translate(-8.000000, 44.000000)">
                    <g id="Layer_1">
                        <path d="M617,3.52941176 L617,508.235294 L2.54502823,508.235294 L2.54502823,72.76875 C2.54502823,71.171829 2.54502823,66.8542279 2.30717469,60.9397059 L2.30717469,60.427114 C2.14860566,54.0591452 1.99003664,46.0745404 1.87110987,38.2082261 C1.67289859,23.6387868 1.69271972,9.44393382 2.54502823,6.52610294 L2.54502823,6.52610294 C2.84234515,5.50091912 3.17930433,4.45602022 3.53608463,3.52941176 L617,3.52941176 Z" id="Path" fill="#FFC41C" fill-rule="nonzero"></path>
                        <path d="M175.022923,167.647059 C176.516147,160.593092 180.837545,154.471695 186.966532,150.728556 C190.54998,148.99196 194.325215,147.688139 198.213431,146.844308 C206.872548,144.461702 215.750631,140.837739 221.065537,133.509725 C222.737643,131.187185 223.732944,127.403046 221.30441,125.881382 C220.396592,125.412912 219.373539,125.218235 218.358319,125.320769 C207.821529,125.444671 197.714005,129.538365 190.032059,136.793316 C182.467773,144.021221 176.356626,154.632826 175.739539,165.084256" id="Path" fill="#FFFFFF" fill-rule="nonzero"></path>
                        <path d="M179.052621,167.290035 C180.089221,162.725842 182.375759,158.545701 185.652674,155.224134 C189.188417,151.802165 193.745597,150.496674 198.381349,149.290084 C207.102848,146.936244 216.315422,143.632956 222.4244,136.571437 C224.938706,133.663752 227.354797,129.589038 225.802999,125.652785 C223.838697,120.687963 217.572575,121.696752 213.349327,122.211036 C203.711184,123.569906 194.778327,128.064047 187.911621,135.008804 C180.013747,142.706776 175.079571,152.973402 173.984723,163.986747 C173.70972,167.804319 179.602625,167.784539 179.877627,163.986747 C181.095494,147.173606 195.159894,132.20002 211.188595,128.560469 C213.126509,128.118857 215.097659,127.840969 217.0815,127.729702 C218.068003,127.541839 219.080735,127.541839 220.067238,127.729702 C220.79403,128.026405 220.185096,127.49234 220.322597,127.729702 C220.430637,128.063928 220.430637,128.424045 220.322597,128.758271 C219.75295,132.081339 215.745775,135.068144 213.152897,136.808799 C206.061768,141.575819 197.831344,142.624168 190.05271,145.610973 C181.565133,149.177074 175.334955,156.683345 173.356146,165.727402 C172.432924,169.426293 178.109756,171.008706 179.052621,167.290035 L179.052621,167.290035 Z" id="Path" fill="#FFFFFF" fill-rule="nonzero"></path>
                        <path d="M617,0.11661671 L617,0.48590296 C615.812908,7.34685275 614.6456,14.0911858 613.478292,21.0298801 C612.548403,26.4525571 611.499805,32.0307231 608.472719,36.5787748 C605.069345,41.1759472 600.300433,44.625082 594.821155,46.452323 C580.120993,52.0110528 525.930221,52.4386474 510.201245,52.1082334 C494.47227,51.7778194 477.002225,54.1490259 466.67452,65.8690052 C463.053888,69.9700262 460.560994,75.023417 456.425955,78.638535 C448.353726,85.7132821 436.166243,85.6161015 425.56155,83.5364369 C414.956857,81.4567722 404.352165,77.7056013 393.608977,79.0078213 C375.090335,81.1846665 361.775114,97.1028475 345.195389,105.518687 C335.771496,110.287918 325.262346,112.609625 314.667327,112.26302 C304.141773,111.91317 293.893208,108.939444 283.446794,107.501171 C249.072782,103.180278 214.681605,115.367741 191.031643,140.25103 C189.316954,142.078025 187.67481,143.95685 186.105209,145.887505 L185.630372,146.470588 L185.887576,145.751452 L188.42004,138.754449 L192.594648,127.092778 C210.875873,95.8394998 230.30462,63.4006182 261.18881,43.9644998 C279.529389,32.4194455 302.202855,5.09226302 323.550735,0.777444736 C324.975246,0.48590296 326.419542,0.233233421 327.863838,0 L617,0.11661671 Z" id="Path" fill="#E2AB0F" fill-rule="nonzero"></path>
                        <path d="M316.09359,2.50779789e-14 C306.924203,3.55674749 298.705422,9.79104645 291.100574,16.1252541 C280.287431,25.1170314 270.36548,35.3077124 258.581927,43.0406409 C245.767542,51.7277572 234.369426,62.3718809 224.795805,74.5917886 C215.086269,86.9804297 206.289419,100.070199 198.475901,113.755974 C196.495472,117.112905 194.515043,120.509798 192.534613,123.906692 C191.226009,125.957032 190.093061,128.116219 189.14808,130.36079 C187.781583,134.017446 186.553717,137.714066 185.187221,141.390703 L182.256186,149.68312 C181.226363,152.400635 185.385264,154.958296 187.16765,152.600453 C208.579807,125.337942 241.882215,110.404262 276.286964,112.636998 C286.367348,113.35634 296.091255,116.1338 306.092423,117.492557 C316.036785,118.971415 326.182433,118.207086 335.79886,115.254604 C344.314447,112.359494 352.307282,108.0877 359.464989,102.60617 C366.257861,97.6706838 372.85269,92.3355625 380.338713,88.4591074 C388.639167,84.1950244 398.130034,82.9055544 407.252745,84.8024513 C416.857827,86.5608433 426.185648,89.8378466 436.028381,90.0576456 C444.405597,90.2374812 453.079877,88.0594729 459.219207,82.0649546 C462.170006,78.6712292 464.889426,75.079608 467.358771,71.3147853 C469.767182,68.1105151 472.758035,65.3980211 476.171681,63.3220943 C488.588972,55.788983 503.343169,56.5083252 517.265586,56.5482887 C529.940333,56.5482887 542.61508,56.2685445 555.289827,55.7090561 C567.370445,55.1096043 579.94617,54.6500246 591.749528,51.7127106 C598.569071,50.1681127 604.730837,46.4896795 609.355543,41.202322 C614.524464,34.8281509 615.811742,26.3758802 617,18.3232441 L617,2.50779789e-14 L316.09359,2.50779789e-14 Z M329.005988,2.97727739 L350.968948,2.77746012 L392.557961,2.41778902 L445.950332,1.99817275 L503.006496,1.41870265 L555.725521,0.93914119 L596.126276,0.559488369 C602.067564,0.559488369 608.008852,0.559488369 613.950139,0.419616276 C613.534249,4.89552323 612.365796,9.49132054 611.633037,13.8673189 C610.801257,18.7828238 610.187324,23.8581826 608.900045,28.6338154 C606.74626,36.7376778 600.48656,43.0762888 592.462482,45.2785944 C581.867186,48.6754881 569.964807,48.9152688 558.973425,49.5347024 C545.962005,50.2740263 532.930781,50.5737522 519.899557,50.5737522 C506.551465,50.5737522 492.926112,49.7545014 480.290974,54.7299515 C472.627729,57.6550181 466.011365,62.8340366 461.298658,69.5963567 C458.803317,73.1131407 456.525823,76.9895959 453.020464,79.5872204 C449.562661,82.0559806 445.516319,83.5524721 441.296323,83.9232553 C432.067523,84.9423234 423.135787,82.2847536 414.223856,80.2266357 C404.638579,78.0286457 394.875063,76.829742 385.349199,79.9069281 C369.268114,85.1221589 357.742016,98.4899346 342.94821,106.082991 C334.065727,110.581734 324.204113,112.753136 314.271595,112.397217 C303.834733,112.037546 293.734545,109.000323 283.436313,107.561639 C266.629537,105.302486 249.532018,107.040558 233.509693,112.636998 C218.256405,117.851455 204.318423,126.369647 192.673244,137.594175 C193.258293,135.645676 193.966087,133.736866 194.792303,131.879401 C197.705873,126.196774 200.905131,120.667959 204.37758,115.314549 C208.338438,108.560725 212.477535,101.886828 216.83448,95.3328217 C225.297064,82.3682174 235.285178,70.4857716 246.580526,59.9451824 C252.216272,55.0401024 258.170847,50.5208079 264.404388,46.4175529 C269.86494,42.4662092 275.107672,38.2171028 280.109192,33.6891925 C290.803509,24.2777989 301.359197,13.927264 314.113161,7.3532757 C317.95854,5.25875118 322.131897,3.84615653 326.451235,3.17709466 C327.298598,3.06379305 328.151442,2.99708872 329.005988,2.97727739 Z" id="Shape" fill="#E2AB0F" fill-rule="nonzero"></path>
                        <path d="M505.621777,342.352941 C422.860323,331.113526 398.129535,248.744101 394.243553,233.572876 C401.995589,231.765832 463.075255,219.454105 488.922018,275.273887 C488.90209,275.353317 501.337232,292.391159 505.621777,342.352941 Z" id="Path" fill="#763280" fill-rule="nonzero"></path>
                        <path d="M320.276447,56.198574 C314.694016,73.1111823 301.56239,88.7077107 283.960846,92.1059467 C269.518044,94.8952503 252.631686,89.7684318 241.069498,98.7649179 C237.257556,102.077822 234.174205,106.129372 232.010464,110.668566 L229.904636,114.597162 C229.149717,115.991814 228.355064,117.366823 227.52068,118.702546 C226.487096,120.401359 225.310838,122.01121 224.004344,123.515076 C216.574347,131.961559 204.932693,135.300866 195.416734,141.193761 C187.470213,146.242008 180.55674,155.788497 181.967248,164.411767 C182.342889,166.225222 181.462765,168.066163 179.807068,168.93018 C178.151372,169.794197 176.117603,169.473856 174.815379,168.143933 C173.801378,167.093202 173.112116,165.77788 172.828748,164.352838 C172.01423,159.36352 174.37832,154.374202 174.278988,149.306313 C173.961128,134.986578 155.783461,128.74011 141.320792,128.34725 C126.858124,127.954391 109.534708,128.072248 101.886181,115.893599 C92.9860775,101.731008 92.1318265,101.80958 83.2118566,87.6469896 C75.1262714,74.8397648 52.9753438,77.6290684 38.6914722,72.345106 C31.4402717,69.6540173 16.4809457,55.5699986 4.91875751,45.7877931 C3.26985438,42.2913422 1.85934689,38.991321 0.647502418,35.9663017 L0.130978547,34.6109358 C-0.107417086,20.0358425 -0.087550783,5.89289487 0.766700235,2.9857334 L0.766700235,2.9857334 L0.766700235,0 L199.111867,0 C231.096614,0.412502641 262.803233,0.628575452 295.145574,0 L324.945028,0 L324.945028,0.216072812 C324.945028,1.17857897 324.945028,2.1803711 325.04436,3.12323428 C325.680082,20.1340575 325.441686,40.5431167 320.276447,56.198574 Z" id="Path" fill="#E2AB0F" fill-rule="nonzero"></path>
                        <path d="M505.837935,507.740446 L112.768721,508.235294 C111.819278,493.666954 107.170966,408.236309 122.658747,346.023956 C122.658747,346.023956 232.220461,346.261483 230.479816,249.805613 C233.150123,249.409735 235.899551,249.073238 238.747878,248.756535 L394.614697,233.139116 L395.405899,232.941176 C399.263009,248.063747 423.810055,330.16901 505.956615,341.37238 C508.508242,371.06329 513.868636,406.830939 508.864283,469.142263" id="Path" fill="#5F2A69" fill-rule="nonzero"></path>
                        <path d="M343.099419,507.086683 C343.402966,478.170049 342.998237,449.273098 341.21743,420.474571 C340.451992,413.031047 340.0805,405.554163 340.104425,398.073529 C340.363857,391.428431 342.692711,385.016823 346.782452,379.68814 C350.829741,374.274883 356.192399,370.377338 361.089618,365.771148 C365.824222,361.420102 369.844125,356.387862 373.008884,350.850243 C376.509789,344.472442 378.250123,337.937165 376.145533,330.831034 C374.040943,323.724904 369.244905,317.228996 364.206031,311.599208 L363.578701,316.146344 C376.186006,310.240973 388.914729,301.737238 396.786706,290.241449 C400.980978,284.068925 403.173467,276.81364 403.08024,269.415173 C402.958822,261.108284 399.903119,253.195086 397.009307,245.518103 C395.633229,241.994565 389.76466,243.549646 391.140738,247.092869 C393.832185,253.982469 396.76647,261.147653 397.070016,268.608105 C397.315157,275.465879 395.262643,282.215425 391.221684,287.839931 C383.875855,298.154646 372.057771,305.674153 360.603943,311.04804 C359.803412,311.516933 359.26745,312.316357 359.149118,313.218014 C359.030786,314.119671 359.343093,315.024431 359.99685,315.673915 C364.638497,320.433808 368.178311,326.105486 370.378146,332.307377 C372.260135,338.704863 370.054363,344.314966 366.634404,349.826645 C359.794486,360.889374 347.956166,367.345914 340.650809,377.975582 C336.871834,383.44255 334.651264,389.786739 334.21562,396.360971 C333.98664,403.135065 334.243591,409.916446 334.984605,416.655764 C335.915481,430.802409 336.556302,444.968739 336.907067,459.154753 C337.291559,475.11894 337.291559,491.083127 337.109431,507.047314 C337.109431,508.678038 338.468456,510 340.144898,510 C341.82134,510 343.180365,508.678038 343.180365,507.047314 L343.099419,507.086683 Z" id="Path" fill="#764095" fill-rule="nonzero"></path>
                        <path d="M398.09959,111.176471 C415.529386,142.062201 420.050127,178.574826 410.678627,212.773455 C408.834678,219.918159 405.970369,226.760227 402.173932,233.0889 C392.4232,248.681201 375.631371,258.206536 359.334001,266.684479 C352.70825,270.16261 348.159227,273.561692 338.645835,275.300757 C334.413266,276.064892 330.147732,276.631406 325.849235,277.000298 C311.470366,278.225549 297.012384,279.450799 282.613737,278.462694 C268.21509,277.474589 254.113118,275.024088 241.613194,267.810919 C241.613194,267.810919 237.934419,264.90589 228.757259,224.334287 C228.045238,221.192112 223.080869,227.259079 220.153672,228.662188 C215.105152,231.092299 209.208976,231.019751 204.221878,228.466158 C199.234781,225.912565 195.732401,221.172678 194.758256,215.658723 C194.326515,212.579932 194.379904,209.452582 194.916483,206.390295 C195.272499,201.706175 196.847468,197.196339 199.485284,193.307781 C203.398262,188.600815 209.42039,186.179086 215.505757,186.865335 C221.508428,187.589084 227.034792,190.494195 231.03177,195.027084" id="Path" fill="#A95631" fill-rule="nonzero"></path>
                        <path d="M214.342799,200.112693 C216.59185,201.839149 217.941295,204.456662 218.025386,207.25579 C218.109477,210.054918 216.919505,212.745748 214.777994,214.598969 C213.373502,215.878881 215.490131,217.934497 216.894622,216.654585 C219.580437,214.24839 221.072152,210.820146 220.984916,207.254313 C220.89768,203.68848 219.240037,200.334282 216.439646,198.057077 C215.851929,197.510386 214.930517,197.510386 214.342799,198.057077 C213.774941,198.629212 213.774941,199.540559 214.342799,200.112693 L214.342799,200.112693 Z" id="Path" fill="#000000" fill-rule="nonzero"></path>
                        <path d="M220.462296,227.202258 C223.035372,226.701075 225.669832,227.751239 227.069034,229.835875 C228.56091,232.209225 228.933164,235.056799 228.096749,237.697416 C227.178411,240.433307 224.953386,242.612749 222.077277,243.593572 C219.246183,244.646432 216.01767,244.011963 213.876532,241.981956 C212.763765,240.904261 212.031552,239.531993 211.779154,238.051186 C211.651079,236.206994 212.018863,234.362166 212.848817,232.685683 C213.080487,231.898731 212.587497,231.084792 211.747694,230.867702 C210.90789,230.650612 210.03929,231.112576 209.80762,231.899529 C208.917711,233.838505 208.515834,235.943355 208.633089,238.051186 C208.827391,239.900649 209.552128,241.666381 210.730466,243.161187 C213.252008,246.215029 217.418615,247.643839 221.448063,246.836458 C225.526714,245.955913 228.918978,243.316648 230.592628,239.721763 C232.094221,236.20359 231.90311,232.249412 230.068284,228.872836 C228.03902,225.341387 223.769387,223.484952 219.581398,224.313142 C218.741594,224.530232 218.248605,225.34417 218.480275,226.131123 C218.711944,226.918076 219.580545,227.380041 220.420349,227.162951 L220.462296,227.202258 Z" id="Path" fill="#000000" fill-rule="nonzero"></path>
                        <path d="M161.475089,371.299955 C156.940985,374.525931 152.347741,374.794762 146.551974,384.286576 C145.798564,385.42237 145.281383,386.711734 145.034035,388.070894 C144.422916,392.20676 148.188194,395.867002 152.012612,397.293876 C157.197261,399.237733 162.855034,398.906864 168.335385,398.555315 C187.280053,397.293876 207.131542,395.61885 223.060045,384.803559 C227.337874,381.908452 231.595989,377.669189 231.595989,372.39596 C231.40663,367.913985 228.622976,364.009668 224.577985,362.552597 C220.635286,361.105044 214.28754,361.828821 210.226561,363.297053 L161.475089,371.299955 Z" id="Path" fill="#050505" fill-rule="nonzero"></path>
                        <path d="M166.932808,395.294118 C162.476318,380.445471 157.513409,362.89356 153.056919,348.044914 C151.031242,341.634315 149.187875,334.837535 151.031242,328.369009 C153.056919,321.147431 159.721397,313.96447 166.325105,309.948191 C177.972749,302.861776 190.876313,300.834328 204.164755,297.20423 C206.534798,296.547723 209.249205,295.949142 211.315396,297.20423 C212.500075,298.007066 213.335828,299.195176 213.665181,300.544692 C214.56336,304.817948 213.022168,309.225202 209.613827,312.130112 C206.23334,314.947883 202.35009,317.164899 198.148494,318.675874 L177.891722,327.384248" id="Path" fill="#805939" fill-rule="nonzero"></path>
                        <path d="M208.25908,312.210763 C214.329607,311.750529 214.511723,319.014223 212.731035,322.856177 C210.927366,326.368467 208.74261,329.67627 206.215335,332.721194 C201.301843,339.023827 195.62766,344.70886 189.319034,349.649803 L190.391494,350.710343 C195.328856,346.408155 200.954211,341.545682 207.975788,341.845835 C212.022807,342.025926 216.798288,344.427147 215.665123,349.169559 C214.703598,352.366278 213.138106,355.353823 211.051522,357.974037 C209.250599,360.415278 206.822388,362.236205 204.980995,364.597405 C203.139601,366.958606 203.766889,369.159726 203.989475,371.660998 L205.891574,392.811754 L207.368736,392.611653 C206.663543,390.90556 206.33249,389.070906 206.397451,387.228915 C206.397451,386.268427 204.920289,386.268427 204.879819,387.228915 C204.80675,389.207016 205.158475,391.17797 205.911809,393.011856 C206.1951,393.732223 207.490146,393.732223 207.409206,392.811754 L206.296276,380.325404 L205.689223,373.581975 C205.386062,371.729782 205.243897,369.855314 205.264286,367.979125 C205.466637,365.477853 207.611557,364.177192 209.311304,362.496337 C210.444444,361.316426 211.492496,360.05937 212.447744,358.734424 C214.612199,356.006219 216.232763,352.896183 217.223225,349.569763 C218.761092,343.306577 212.265628,340.084939 206.822388,340.345071 C199.861517,340.685244 194.398042,345.307595 189.420209,349.649803 C188.671511,350.290129 189.743971,351.290638 190.492669,350.710343 C198.555702,344.334567 205.554828,336.744738 211.233638,328.218904 C213.520203,324.817174 216.191235,320.635047 215.280656,316.332859 C214.717465,312.962235 211.733194,310.514357 208.279315,310.589939 C207.30803,310.589939 207.30803,312.150732 208.279315,312.090702 L208.25908,312.210763 Z" id="Path" fill="#B88043" fill-rule="nonzero"></path>
                        <path d="M322.157851,196.547784 C321.101994,202.726144 321.659806,211.214172 329.907443,211.753094 C333.088938,211.8976 336.176141,210.687652 338.354299,208.442571 C340.61854,205.941006 341.845993,202.719229 341.800776,199.396374 L335.824227,199.396374 C335.834949,204.131812 339.788212,207.976956 344.689441,208.019132 C349.889039,207.845907 353.235907,203.130336 353.554656,198.395518 C353.933171,192.813822 350.247632,187.366856 347.837091,182.535802 L339.310547,165.598241 C337.637113,162.249223 332.477359,165.174802 334.150793,168.504573 C338.03555,176.203464 342.119525,183.902355 345.805064,191.71673 C347.139827,194.48833 348.733573,198.357023 346.462484,201.109377 C345.737569,201.969381 344.519007,202.275679 343.452192,201.866046 C342.385377,201.456413 341.716886,200.425528 341.800776,199.319385 C341.800776,197.724892 340.46288,196.4323 338.812501,196.4323 C337.162123,196.4323 335.824227,197.724892 335.824227,199.319385 C335.704696,202.360447 334.190637,205.998173 330.445333,205.940431 C326.700029,205.882689 327.516824,200.377982 327.91526,198.010573 C328.301834,196.509623 327.436963,194.97215 325.923077,194.469083 C324.363133,194.044073 322.736882,194.897977 322.25746,196.393806 L322.157851,196.547784 Z" id="Path" fill="#000000" fill-rule="nonzero"></path>
                        <path d="M221.011962,158.628681 C221.011962,158.628681 215.503102,178.967359 223.806603,192.329969 L234.462427,211.764706 L296.185785,186.611558 L399.547278,124.121706 L391.726305,91.6780759 L365.448641,86.4705882 L331.269583,92.0121411 L286.293963,110.759097 L251.954063,127.246199 L227.988511,144.087017 L221.011962,158.628681 Z" id="Path" fill="#A95631" fill-rule="nonzero"></path>
                        <path d="M323.201298,228.357098 C328.846668,232.50276 336.144674,233.935787 343.020556,232.24878 C349.896437,230.561774 355.598159,225.939247 358.504769,219.695345 C359.296107,218.280762 358.816755,216.516577 357.407884,215.658419 C355.956016,214.894221 354.137824,215.369471 353.284406,216.736239 C351.196554,221.624132 346.832589,225.26928 341.519472,226.563294 C336.206355,227.857309 330.571924,226.647279 326.329453,223.301142 C324.868806,222.494744 323.007813,222.965382 322.145037,224.359366 C321.345092,225.766809 321.827083,227.532095 323.241923,228.376694 L323.201298,228.357098 Z" id="Path" fill="#000000" fill-rule="nonzero"></path>
                        <path d="M176.790831,144.705882 C182.718999,141.807353 189.71585,142.329088 196.349752,142.097206 C202.242763,141.877176 208.089144,141.001748 213.771307,139.48853 C219.260927,138.172585 224.440407,135.871087 229.035332,132.705971 C233.650843,129.499335 236.958557,124.85384 238.391352,119.565972 C238.712889,118.516956 238.754488,117.407368 238.512335,116.338943 C237.8066,113.904179 235.003827,112.70612 232.463184,112.107091 C224.09071,110.299174 215.332342,111.139867 207.500354,114.503208 C199.697994,117.876197 192.832353,122.959771 187.4575,129.343678 C184.412761,132.841236 181.670479,137.073089 181.932609,141.556147 C181.932609,142.580294 183.283586,143.836324 183.787682,142.928118" id="Path" fill="#E2AB0F" fill-rule="nonzero"></path>
                        <path d="M177.918352,146.081012 C183.30085,143.509462 189.500691,144.087562 195.301828,143.828414 C201.544427,143.622264 207.740761,142.678794 213.761804,141.01765 C223.90881,138.186952 234.195362,132.704967 238.700712,122.677917 C240.833776,117.933508 241.77073,112.272112 236.886611,108.962986 C232.560677,106.032616 226.14155,105.693729 221.078014,105.952878 C209.861768,106.766143 199.264206,111.403297 191.055635,119.089708 C186.510414,123.076607 181.845582,128.139968 179.632777,133.901036 C178.675889,136.352979 177.818676,139.881384 179.034722,142.313392 C179.51054,143.543726 180.564135,144.459067 181.848922,144.758308 C183.133708,145.057549 184.483341,144.701947 185.45385,143.808479 C188.26471,141.157192 184.038452,136.931079 181.227592,139.562432 L180.928564,139.86145 L182.961952,138.984332 C186.07184,138.984332 183.699554,139.921253 184.437156,138.625511 C184.597559,138.105122 184.710979,137.571398 184.776054,137.030752 C185.056574,136.098387 185.430597,135.196754 185.892424,134.339595 C187.056506,132.254052 188.454331,130.307866 190.058876,128.538658 C192.814604,125.326886 195.931827,122.443888 199.348669,119.946892 C206.608967,114.569056 215.454154,111.763383 224.48693,111.973095 C226.899086,111.973095 233.99601,112.252177 234.454519,115.521434 C234.40552,117.49201 233.827111,119.413089 232.779964,121.083158 C231.843332,122.883503 230.655245,124.541398 229.251438,126.006977 C223.091467,132.505622 213.921285,135.296451 205.329223,136.851341 C195.242022,138.66538 184.237804,136.432717 174.788529,140.977781 C171.319808,142.652279 174.349955,147.815312 177.798741,146.140815 L177.918352,146.081012 Z" id="Path" fill="#E2AB0F" fill-rule="nonzero"></path>
                        <path d="M391.329592,150.383497 C385.390924,147.251525 371.534032,147.733366 363.457444,150.605885 C360.394199,151.536743 357.657762,153.227546 355.53922,155.498433 C353.414384,157.853906 352.979333,161.163134 354.430668,163.930665 C356.825931,167.748335 362.566643,167.859529 367.258191,167.525947 C374.721117,166.969975 382.302817,166.395471 389.251058,163.819471 C391.943255,162.818722 394.754224,161.3176 395.704411,158.741599 C396.872349,155.572562 394.556269,151.940216 391.329592,150.383497 Z" id="Path" fill="#FFFFFF" fill-rule="nonzero"></path>
                        <path d="M301.85718,165.165843 C295.343321,162.539017 281.387935,165.165843 273.764906,169.53688 C270.80121,171.034776 268.284562,173.34486 266.484712,176.219524 C264.696577,179.175615 264.759929,182.954998 266.646046,185.844212 C269.65089,189.773943 275.438746,189.059446 280.137597,187.945672 C287.558959,186.222475 295.121487,184.457248 301.756346,180.569547 C304.493094,179.300268 306.582794,176.878215 307.503868,173.907918 C308.229871,170.167318 305.325859,166.468748 301.85718,165.165843 Z" id="Path" fill="#FFFFFF" fill-rule="nonzero"></path>
                        <path d="M261.027147,164.657562 C265.030325,159.904393 269.847724,155.942858 275.241279,152.968729 C280.17513,150.294862 286.036008,150.106989 291.122991,152.459633 C295.550018,154.801473 299.480742,147.938865 295.093419,145.597026 C288.283104,142.196507 280.35635,142.054902 273.434735,145.210113 C266.630109,148.486085 260.57574,153.197676 255.66707,159.037148 C252.252502,162.763727 257.652284,168.384141 261.14626,164.657562 L261.027147,164.657562 Z" id="Path" fill="#000000" fill-rule="nonzero"></path>
                        <path d="M351.334736,138.361947 C359.99126,131.976165 372.706155,125.058234 383.121973,132.28025 C384.984936,133.249858 387.320238,132.665635 388.439838,130.949879 C389.472696,129.174427 388.856702,126.940808 387.0404,125.875462 C380.856651,121.964742 373.201332,120.773751 366.028836,122.60655 C358.431886,124.317027 351.914503,128.650237 345.836943,133.135489 C344.377179,134.601293 344.377179,136.896143 345.836943,138.361947 C347.381516,139.761704 349.810155,139.761704 351.354728,138.361947 L351.334736,138.361947 Z" id="Path" fill="#000000" fill-rule="nonzero"></path>
                        <polygon id="Path" fill="#9E5631" fill-rule="nonzero" points="395.161558 105.882353 399.547278 114.935811 387.17192 118.235294 390.527949 110.328607 390.489812 106.76758"></polygon>
                        <path d="M397.77937,108.534242 C378.698847,100.309452 358.152116,100.389499 336.575077,103.151107 C315.968905,105.772634 296.551551,114.277587 277.312519,122.162179 C270.887872,124.666684 264.615778,127.55342 258.529201,130.807213 C245.650343,137.951374 232.771486,148.817702 221.913619,158.823529 C211.788855,129.286328 199.207202,97.7479605 187.398281,68.7710851 C223.351037,35.5601573 268.309376,13.9573651 316.503873,6.7349568 C322.560218,5.77569023 328.681298,5.29411765 334.811664,5.29411765 C339.646189,5.29411765 344.4609,5.89446732 349.255798,6.41477033 L378.064811,9.59662336 C384.623121,42.0155033 392.568386,75.7751641 397.77937,108.534242 Z" id="Path" fill="#763280" fill-rule="nonzero"></path>
                        <path d="M168.974079,396.127236 C163.110167,383.641023 157.185594,370.922147 154.819809,357.350177 C152.454024,343.778206 153.990773,329.004147 162.058707,317.778188 C171.036559,305.291975 186.646696,299.048869 201.973749,296.819188 C204.350469,296.306726 206.821893,296.359979 209.172206,296.974296 C211.578804,297.714586 213.254538,299.808054 213.378046,302.228588 C213.23151,303.549937 212.745155,304.815735 211.962619,305.912408 C207.441196,313.196722 200.969252,319.188193 193.218322,323.265142 C196.764065,319.930887 201.010347,317.359704 205.674079,315.723004 C206.9409,315.177038 208.345701,314.995192 209.718157,315.199514 C213.762234,316.130163 213.944217,321.869168 212.589451,325.785651 C210.096567,333.097473 205.746759,339.700223 199.93149,344.999684 C204.784382,340.501545 214.227303,343.506767 215.501187,349.963147 C216.552647,355.314381 212.852316,360.258456 210.40565,365.144366 C206.832734,372.444622 205.886883,380.675264 207.716338,388.546321 C208.254058,389.861244 208.254058,391.322377 207.716338,392.6373 C206.905043,393.621089 205.719532,394.25571 204.420416,394.401657 C192.864293,397.247129 180.826146,397.81438 169.03474,396.06907" id="Path" fill="#805939" fill-rule="nonzero"></path>
                        <ellipse id="Oval" fill="#020202" fill-rule="nonzero" cx="286.749284" cy="177.823529" rx="4.41977077" ry="4.41176471"></ellipse>
                        <ellipse id="Oval" fill="#020202" fill-rule="nonzero" cx="373.912607" cy="159.705882" rx="4.41977077" ry="4.41176471"></ellipse>
                        <path d="M215.208573,137.443115 C252.236511,104.270966 299.059262,83.6206058 348.844639,78.5052503 C362.515687,77.1000204 376.287842,76.9166402 389.992468,77.9573552 C390.946159,77.9573552 390.946159,76.5680496 389.992468,76.4897789 C340.015763,72.9269599 290.182937,85.1039859 247.693701,111.261553 C235.756735,118.614833 224.530257,127.031629 214.155539,136.406027 C213.44027,137.051761 214.493305,138.088848 215.208573,137.443115 L215.208573,137.443115 Z" id="Path" fill="#B68E45" fill-rule="nonzero"></path>
                        <path d="M197.526818,95.0814679 C235.020649,59.3017093 283.194537,37.3963401 334.334836,32.8728679 C350.487713,31.3462444 366.736142,31.1756468 382.916377,32.3627941 C383.876012,32.3627941 383.876012,30.8937816 382.916377,30.8325727 C354.762498,28.6160032 326.442041,30.831825 298.948282,37.4023232 C274.352526,43.5253009 250.927583,53.785496 229.634619,67.7619155 C217.868891,75.5310685 206.772985,84.3088615 196.467221,94.0001115 C195.767487,94.6734089 196.827084,95.7547653 197.526818,95.0814679 L197.526818,95.0814679 Z" id="Path" fill="#B68E45" fill-rule="nonzero"></path>
                        <path d="M195.269592,87.8275708 C232.299937,52.9681016 279.897639,31.6291052 330.427409,27.2336339 C346.448666,25.7413406 362.564685,25.5745693 378.613075,26.7350005 C380.596024,26.8746178 380.596024,23.8828171 378.613075,23.7431998 C350.605696,21.5885646 322.435461,23.7816195 295.091254,30.24538 C270.633056,36.249318 247.338977,46.3062243 226.16394,60.0038243 C214.459018,67.6152456 203.420314,76.2162164 193.167666,85.713365 C191.759772,87.0297573 193.861698,89.1240178 195.269592,87.8275708 L195.269592,87.8275708 Z" id="Path" fill="#B68E45" fill-rule="nonzero"></path>
                        <path d="M542.942226,267.15059 L558.404719,267.20166 C559.883422,267.206544 561.080936,268.404057 561.08582,269.882761 L561.136889,285.345254 C561.141796,286.830891 559.941426,288.039217 558.455788,288.044123 C558.449865,288.044143 558.443942,288.044143 558.438019,288.044123 L542.975526,287.993054 C541.496823,287.98817 540.299309,286.790656 540.294426,285.311953 L540.243356,269.84946 C540.238449,268.363822 541.438819,267.155497 542.924457,267.15059 C542.93038,267.150571 542.936303,267.150571 542.942226,267.15059 Z" id="Rectangle" fill="#FFFFFF" fill-rule="nonzero" transform="translate(550.690123, 277.597357) rotate(-45.000000) translate(-550.690123, -277.597357) "></path>
                        <path d="M46.0774368,356.804413 L61.5399298,356.855482 C63.0186332,356.860366 64.2161468,358.05788 64.2210306,359.536583 L64.2721002,374.999076 C64.2770069,376.484714 63.0766372,377.693039 61.5909993,377.697946 C61.5850763,377.697965 61.5791533,377.697965 61.5732303,377.697946 L46.1107374,377.646876 C44.632034,377.641992 43.4345204,376.444479 43.4296365,374.965775 L43.378567,359.503282 C43.3736603,358.017645 44.57403,356.809319 46.0596679,356.804413 C46.0655908,356.804393 46.0715139,356.804393 46.0774368,356.804413 Z" id="Rectangle" fill="#FFFFFF" fill-rule="nonzero" transform="translate(53.825334, 367.251179) rotate(-45.000000) translate(-53.825334, -367.251179) "></path>
                        <path d="M221.172734,91.9432542 L233.882877,91.972358 C235.363722,91.9757488 236.563336,93.1753758 236.56671,94.6562207 L236.595873,107.452875 C236.599258,108.938518 235.397652,110.145613 233.91201,110.148999 C233.907913,110.149008 233.903817,110.149008 233.89972,110.148999 L221.189577,110.119895 C219.708732,110.116504 218.509118,108.916877 218.505744,107.436032 L218.476581,94.6393774 C218.473196,93.1537353 219.674802,91.9466398 221.160444,91.9432541 C221.164541,91.9432448 221.168637,91.9432448 221.172734,91.9432542 Z" id="Rectangle" fill="#FFFFFF" fill-rule="nonzero" transform="translate(227.536227, 101.046126) rotate(-68.120000) translate(-227.536227, -101.046126) "></path>
                        <path d="M252.814689,74.8511161 L265.524832,74.8802199 C267.005677,74.8836108 268.20529,76.0832377 268.208665,77.5640826 L268.237828,90.3607373 C268.241213,91.8463795 267.039607,93.053475 265.553965,93.0568606 C265.549868,93.0568699 265.545772,93.0568699 265.541675,93.0568605 L252.831532,93.0277568 C251.350687,93.0243659 250.151073,91.824739 250.147699,90.3438941 L250.118536,77.5472393 C250.115151,76.0615972 251.316757,74.8545017 252.802399,74.8511161 C252.806496,74.8511067 252.810592,74.8511067 252.814689,74.8511161 Z" id="Rectangle" fill="#FFFFFF" fill-rule="nonzero" transform="translate(259.178182, 83.953988) rotate(-68.120000) translate(-259.178182, -83.953988) "></path>
                        <path d="M285.859872,61.5505877 L298.576848,61.5840036 C300.056982,61.5878929 301.255897,62.7868201 301.25977,64.2669543 L301.293243,77.0567493 C301.297131,78.5423902 300.095933,79.749892 298.610292,79.7537802 C298.605589,79.7537925 298.600887,79.7537924 298.596184,79.7537801 L285.879208,79.7203641 C284.399074,79.7164748 283.200159,78.5175477 283.196286,77.0374135 L283.162813,64.2476185 C283.158925,62.7619776 284.360123,61.5544757 285.845764,61.5505876 C285.850466,61.5505753 285.855169,61.5505753 285.859872,61.5505877 Z" id="Rectangle" fill="#FFFFFF" fill-rule="nonzero" transform="translate(292.228028, 70.652184) rotate(-63.720000) translate(-292.228028, -70.652184) "></path>
                        <path d="M320.890449,51.7990013 L333.613878,51.8354544 C335.093512,51.8396936 336.291935,53.0381279 336.296161,54.5177618 L336.332664,67.3010823 C336.336907,68.7867222 335.135997,69.9945104 333.650357,69.9987528 C333.645228,69.9987675 333.640098,69.9987674 333.634969,69.9987527 L320.911539,69.9622996 C319.431905,69.9580604 318.233482,68.7596261 318.229257,67.2799922 L318.192753,54.4966717 C318.188511,53.0110318 319.389421,51.8032436 320.875061,51.7990012 C320.88019,51.7989865 320.88532,51.7989866 320.890449,51.7990013 Z" id="Rectangle" fill="#FFFFFF" fill-rule="nonzero" transform="translate(327.262709, 60.898877) rotate(-60.000000) translate(-327.262709, -60.898877) "></path>
                        <path d="M356.719189,46.2867488 L369.442619,46.323202 C370.922253,46.3274412 372.120675,47.5258755 372.124901,49.0055094 L372.161405,61.7888298 C372.165647,63.2744697 370.964737,64.482258 369.479097,64.4865004 C369.473968,64.486515 369.468838,64.486515 369.463709,64.4865003 L356.740279,64.4500472 C355.260645,64.445808 354.062222,63.2473737 354.057997,61.7677397 L354.021493,48.9844193 C354.017251,47.4987794 355.218161,46.2909911 356.703801,46.2867488 C356.70893,46.2867341 356.71406,46.2867341 356.719189,46.2867488 Z" id="Rectangle" fill="#FFFFFF" fill-rule="nonzero" transform="translate(363.091449, 55.386625) rotate(-60.000000) translate(-363.091449, -55.386625) "></path>
                        <path d="M225.635282,153.529412 C225.635282,153.529412 215.087914,167.058824 221.042701,189.71506 L232.115491,194.117647 L235.131805,178.035137 L225.635282,153.529412 Z" id="Path" fill="#A95631" fill-rule="nonzero"></path>
                        <path d="M318.223496,301.201955 L318.223496,505.268634 C318.223496,506.907075 319.410775,508.235294 320.875358,508.235294 C322.339941,508.235294 323.527221,506.907075 323.527221,505.268634 L323.527221,301.201955 C323.527221,299.563513 322.339941,298.235294 320.875358,298.235294 C319.410775,298.235294 318.223496,299.563513 318.223496,301.201955 Z" id="Path" fill="#764095" fill-rule="nonzero"></path>
                        <path d="M240.43553,266.360017 C244.920178,292.505215 273.336358,311.404178 299.218611,313.793477 C325.100864,316.182776 350.862453,305.137164 370.269115,288.157474 C374.20569,285.144491 377.274797,281.190888 379.17808,276.681005 C381.510902,269.904796 378.976975,262.580224 376.463159,255.882353 C348.308416,269.983134 315.146151,269.12142 283.552508,267.92677 C269.716463,267.397991 254.331907,266.869211 240.43553,266.360017 Z" id="Path" fill="#A95631" fill-rule="nonzero"></path>
                        <path d="M121.985673,347.647059 C128.439208,322.279727 138.35071,300.597915 153.408957,289.129687 C158.696432,285.091302 163.702445,280.778464 168.668248,276.387211 C177.212647,268.761329 195.507713,257.449931 231.575129,252.352941 C233.344322,347.882302 121.985673,347.647059 121.985673,347.647059 Z" id="Path" fill="#763280" fill-rule="nonzero"></path>
                        <line x1="181.210602" y1="169.411765" x2="181.210602" y2="337.058824" id="Path" stroke="#000000" stroke-width="4" stroke-linecap="round"></line>
                        <path d="M166.310815,391.839758 L156.16271,348.968416 C153.848942,339.181937 151.738136,328.121478 157.583444,319.7634 C160.111773,316.483213 163.28179,313.697757 166.919701,311.559744 C176.848796,305.130138 187.81886,300.291795 199.393637,297.237125 C203.980581,296.021054 210.231814,295.808724 212.099065,299.978112 C212.935821,302.711587 212.160306,305.661803 210.069444,307.6992 C208.003604,309.682497 206.090802,311.804863 204.345913,314.049795 C208.263081,310.575305 215.204385,314.918417 215.610309,319.995033 C216.016233,325.071648 212.525285,329.646393 209.196707,333.506937 L202.255403,341.652685 C205.624574,337.270968 213.925724,340.301495 215.346458,345.513229 C216.767193,350.724964 213.499503,356.187634 209.541742,360.106086 C208.163731,361.231936 207.068035,362.636742 206.334941,364.217565 C206.016784,365.316353 205.900065,366.45906 205.989906,367.595541 L206.274053,389.118075 C194.875223,395.547786 181.130151,397.036941 168.502805,393.210251" id="Path" fill="#9E5631" fill-rule="nonzero"></path>
                        <path d="M168.626173,393.258746 L161.422016,361.63809 C159.420861,352.388105 156.239025,342.760975 156.379106,333.213244 C156.300543,328.765796 157.630362,324.405931 160.1813,320.7476 C163.26465,317.160761 166.980707,314.160831 171.147628,311.89461 C179.420138,306.720441 188.377657,302.712127 197.762985,299.984759 C200.244417,299.270168 206.247881,297.46384 207.908839,300.540552 C209.029486,302.525527 206.88825,305.185394 205.587499,306.495478 C203.724388,308.326886 202.030008,310.319788 200.524578,312.450403 C198.523424,315.467566 202.74586,318.107583 205.227292,316.043208 C206.6281,314.891923 208.749324,316.261556 209.749901,317.313593 C211.357284,319.183754 211.724261,321.809273 210.690444,324.042659 C209.511881,326.945343 207.847526,329.62973 205.767603,331.98256 C203.546322,334.801225 201.285017,337.60004 199.043724,340.398855 C196.802431,343.19767 200.824751,347.604315 203.286172,344.626852 C205.287326,342.165483 209.069509,343.654214 210.590386,345.996485 C213.291945,350.125233 209.549786,355.822112 206.788192,358.859125 C205.063204,360.393613 203.638536,362.230708 202.585767,364.278107 C201.792614,366.975859 201.554425,369.804263 201.885363,372.595153 L202.125502,391.373019 L203.626368,388.792551 C193.061306,394.905827 180.379022,396.290753 168.72623,392.603704 C165.024094,391.432568 163.443182,397.188997 167.125307,398.340282 C180.336587,402.465531 194.689803,400.865201 206.648111,393.933637 C207.566575,393.402929 208.130764,392.427362 208.128966,391.373019 C208.128966,383.849963 207.78877,376.307057 207.848804,368.803851 C207.848804,365.389693 210.630409,363.682614 212.611552,361.181546 C214.666101,358.709627 216.154613,355.824402 216.97407,352.725551 C218.46253,347.59541 216.400133,342.102564 211.891137,339.18802 C207.888827,336.706801 202.185537,336.548003 199.043724,340.398855 L203.286172,344.626852 C206.548054,340.537803 210.030063,336.528153 213.031795,332.240607 C215.894596,328.630141 217.319079,324.101585 217.034104,319.516915 C216.133585,312.152657 207.028331,306.753524 200.884786,311.89461 L205.607511,315.507265 C208.449151,311.060921 213.512072,308.262106 214.032372,302.525527 C214.42518,298.158779 211.441624,294.198613 207.108377,293.335092 C202.385652,292.223506 197.562869,293.672537 193.100294,295.10172 C187.803609,296.800939 182.640051,298.884162 177.65138,301.334542 C172.519333,303.836427 167.606203,306.757816 162.962905,310.068433 C158.488241,312.967427 154.896981,317.023834 152.576912,321.799637 C148.294441,331.605414 150.875931,342.661727 153.137236,352.626302 L162.722766,394.787177 C163.583263,398.51893 169.3666,396.93095 168.526115,393.199196 L168.626173,393.258746 Z" id="Path" fill="#9E5631" fill-rule="nonzero"></path>
                        <path d="M224.849077,259.682229 C217.36621,284.627336 230.330034,318.764813 257.676512,324.225238 C264.149321,325.608484 270.887645,324.922025 276.957043,322.261056 L273.419687,317.64523 C263.701678,326.425122 258.376209,339.644064 260.786275,352.725514 C261.91479,358.840035 264.723488,364.510106 268.891095,369.087147 C272.914351,373.467272 278.181512,376.059992 283.390365,378.652712 C288.268805,381.068656 293.594274,383.739943 296.101521,388.90574 C297.453019,392.210036 298.114705,395.760792 298.045122,399.335545 C298.181175,403.263908 298.181175,407.015495 298.200611,410.865291 C298.200611,425.77343 297.636966,440.661927 297.015013,455.550424 C296.295881,472.756656 295.693364,489.943245 295.984904,507.149477 C295.984904,510.940347 301.81571,510.959989 301.81571,507.149477 C301.32981,477.509975 303.759312,447.949041 303.992544,418.329182 C303.992544,411.081351 304.322956,403.676386 303.701004,396.448198 C303.156795,390.064608 301.193757,384.073853 296.276445,379.772296 C292.136573,376.177843 287.102644,374.056527 282.301948,371.562016 C276.89764,369.076935 272.388771,364.959516 269.396431,359.776926 C262.282849,346.774044 267.064109,331.237367 277.501251,321.730727 C280.163986,319.314784 276.782118,315.838182 273.983332,317.095259 C261.952436,322.418191 247.783579,316.447079 239.737067,306.861872 C234.842155,300.635681 231.406689,293.369659 229.688646,285.609427 C227.768995,277.576298 228.030877,269.168433 230.446651,261.273216 C231.535068,257.63948 225.898622,256.087776 224.810205,259.70187 L224.849077,259.682229 Z" id="Path" fill="#764095" fill-rule="nonzero"></path>
                        <path d="M189.036946,320.899016 C192.269905,319.052474 195.666331,317.494232 199.185099,316.243156 C202.710144,314.973969 206.079103,313.323675 209.229275,311.322989 C210.326957,310.672212 210.703291,309.290214 210.081886,308.191973 C209.423314,307.109616 208.001246,306.739463 206.879395,307.358391 C203.960619,309.251011 200.827343,310.806563 197.542263,311.99392 C193.798728,313.332746 190.180699,314.985744 186.728657,316.934419 C185.655769,317.594762 185.312074,318.968128 185.951921,320.038175 C186.591768,321.108223 187.984451,321.489132 189.099332,320.899016 L189.036946,320.899016 Z" id="Path" fill="#000000" fill-rule="nonzero"></path>
                        <path d="M188.47569,349.329481 L208.727037,341.481879 C209.909961,341.115333 210.604712,339.898464 210.315772,338.699183 C209.96506,337.508984 208.723638,336.815517 207.520402,337.137671 L187.269056,345.005292 C186.090283,345.363073 185.400387,346.578125 185.700431,347.767969 C185.860021,348.341659 186.242232,348.828627 186.762822,349.121539 C187.283411,349.414451 187.899642,349.489262 188.47569,349.329481 L188.47569,349.329481 Z" id="Path" fill="#000000" fill-rule="nonzero"></path>
                        <path d="M301.809122,279.760363 C330.493254,282.914193 361.022216,277.197876 384.707454,260.186906 C391.018139,255.691735 396.741988,250.434464 401.747336,244.536026 C403.528347,242.660167 403.528347,239.729708 401.747336,237.853849 C399.882249,236.009501 396.867883,236.009501 395.002796,237.853849 C372.428424,264.75996 335.829375,274.044046 301.769448,270.298873 C299.144617,270.309674 297.019465,272.421387 297.008596,275.029618 C297.061283,277.620341 299.162237,279.708009 301.769448,279.760363 L301.809122,279.760363 Z" id="Path" fill="#000000" fill-rule="nonzero"></path>
                        <path d="M447.548684,429.018908 C450.50433,454.050181 450.42483,479.500672 447.312899,504.501948 C446.857047,508.239515 451.399845,509.861105 451.871416,506.083987 C455.103952,480.03295 455.178151,453.515891 452.091482,427.436869 C451.65135,423.679526 447.108552,425.28134 447.548684,429.018908 L447.548684,429.018908 Z" id="Path" fill="#000000" fill-rule="nonzero"></path>
                    </g>
                    <g id="Layer_2" transform="translate(85.000000, 107.000000)">
                        <path d="M59.533938,278.426459 L58.2765957,395.42817 L145.479364,395.42817 L146.574468,267.133697 C146.574468,267.133697 117.168884,293.595545 59.533938,278.426459 Z" id="Path" fill="#763280" fill-rule="nonzero"></path>
                        <path d="M1.50106383,105.904451 C11.1653596,105.224154 19.2317054,98.3046129 21.332766,88.8922527 C21.7565957,86.7657278 22.286383,84.0768163 24.4055319,83.6198771 C26.1925505,83.5045808 27.8092564,84.6706826 28.2553191,86.3966615 C28.6342397,88.0805352 28.8880466,89.7898922 29.0146809,91.5108659 C30.127234,97.398352 36.0785106,101.124164 41.9944681,102.618004 C43.8831702,102.914999 45.6881084,103.603562 47.2923404,104.639081 C48.9268604,105.783511 49.3699572,108.003805 48.2989362,109.682987 C47.6364195,110.335148 46.8049774,110.791458 45.897234,111.001081 C41.8708511,112.354324 37.597234,113.584545 34.5774468,116.572225 C30.71,120.38591 29.7740426,126.150374 27.3546809,131.000959 C27.1084677,131.604282 26.6912372,132.12331 26.1538298,132.494799 C24.8293617,133.268081 23.0987234,132.002711 22.6219149,130.526445 C22.4093528,128.998887 22.4093528,127.449462 22.6219149,125.921904 C22.6219149,121.563407 19.4431915,117.749722 15.7170213,115.377153 C11.8471958,113.326935 7.7758748,111.677976 3.56723404,110.456269 C2.45468085,110.034479 1.18319149,109.419368 0.953617021,108.259446 C0.724042553,107.099523 0.582765957,106.625009 1.50106383,105.834153" id="Path" fill="#FFFFFF" fill-rule="nonzero"></path>
                        <path d="M367.548723,22.8469609 C377.205795,22.1726283 385.267364,15.2581714 387.362766,5.85233692 C387.786596,3.72581209 388.316383,1.01932595 390.453191,0.579961316 C392.237959,0.459028318 393.852925,1.62924337 394.285319,3.3567458 C394.670081,5.03426304 394.929795,6.7377752 395.06234,8.45337555 C396.174894,14.3584362 402.12617,18.0842483 408.042128,19.5605135 C409.934725,19.8534731 411.741682,20.5488005 413.34,21.5991654 C414.97452,22.7435958 415.417617,24.9638896 414.346596,26.6430714 C413.681114,27.2819546 412.8592,27.7363762 411.962553,27.9611653 C407.918511,29.2968338 403.644894,30.5446293 400.625106,33.5147342 C396.775319,37.3284193 395.821702,43.0928833 393.40234,47.9434688 C393.16831,48.548748 392.755871,49.0694738 392.219149,49.4373086 C390.877021,50.2281649 389.146383,48.9452202 388.687234,47.468955 C388.483823,45.9466664 388.483823,44.4042769 388.687234,42.8819882 C388.687234,38.5234911 385.508511,34.6922315 381.78234,32.337237 C377.92007,30.2840478 373.854288,28.6349355 369.650213,27.4163531 C368.52,27.0121377 367.26617,26.3970272 367.036596,25.2371046 C366.807021,24.0771819 366.648085,23.6026681 367.584043,22.7942372" id="Path" fill="#FFFFFF" fill-rule="nonzero"></path>
                    </g>
                </g>
            </g>
            <rect id="Rectangle" fill="#FFC41C" mask="url(#mask-2)" x="-34" y="446" width="663" height="100" rx="38"></rect>
        </g>
    </g>
</svg>