<svg xmlns="http://www.w3.org/2000/svg" viewBox="0 0 310 256"><defs><style>.cls-1{fill:#ffc41c;}.cls-2{fill:#fff;}.cls-3{fill:#763280;}.cls-4{fill:#5f2a69;}.cls-5{fill:#764095;}.cls-6{fill:#a95631;}.cls-7{fill:#050505;}.cls-8{fill:#805939;}.cls-9{fill:#b88043;}.cls-10{fill:#9e5631;}.cls-11{fill:#020202;}.cls-12{fill:#b68e45;}.cls-13{fill:none;stroke:#000;stroke-linecap:round;stroke-miterlimit:10;stroke-width:4px;}</style></defs><g id="Layer_1" data-name="Layer 1"><path class="cls-1" d="M310,0V256H0V35.12c0-.81,0-3-.12-6v-.26c-.08-3.23-.16-7.28-.22-11.27C-.44,10.2-.43,3,0,1.52H0C.15,1,.32.47.5,0Z"/><path class="cls-2" d="M87.8,83.08a13.07,13.07,0,0,1,6-8.45,25.32,25.32,0,0,1,5.65-1.94c4.35-1.19,8.81-3,11.48-6.66.84-1.16,1.34-3.05.12-3.81a2.66,2.66,0,0,0-1.48-.28,21.15,21.15,0,0,0-14.23,5.73c-3.8,3.61-6.87,8.91-7.18,14.13"/><path class="cls-2" d="M89.25,83.47a12.66,12.66,0,0,1,3.36-6.1c1.8-1.73,4.12-2.39,6.48-3,4.44-1.19,9.13-2.86,12.24-6.43,1.28-1.47,2.51-3.53,1.72-5.52-1-2.51-4.19-2-6.34-1.74a22.72,22.72,0,0,0-12.95,6.47A23.67,23.67,0,0,0,86.67,81.8c-.14,1.93,2.86,1.92,3,0,.62-8.5,7.78-16.07,15.94-17.91a18.17,18.17,0,0,1,3-.42,4.09,4.09,0,0,1,1.52,0c.37.15.06-.12.13,0a.84.84,0,0,1,0,.52c-.29,1.68-2.33,3.19-3.65,4.07C103,70.47,98.81,71,94.85,72.51a14.37,14.37,0,0,0-8.5,10.17c-.47,1.87,2.42,2.67,2.9.79Z"/><path class="cls-2" d="M310,0l0,.19c-.6,3.53-1.19,7-1.78,10.57-.47,2.79-1,5.66-2.53,8a14.16,14.16,0,0,1-6.9,5.08c-7.43,2.86-34.82,3.08-42.77,2.91s-16.78,1.05-22,7.08c-1.83,2.11-3.09,4.71-5.18,6.57-4.08,3.64-10.24,3.59-15.6,2.52s-10.72-3-16.15-2.33c-9.36,1.12-16.09,9.31-24.47,13.64a31.41,31.41,0,0,1-15.43,3.47c-5.32-.18-10.5-1.71-15.78-2.45A54.45,54.45,0,0,0,94.7,72.1Q93.4,73.51,92.21,75l-.24.3.13-.37,1.28-3.6,2.11-6c9.24-16.08,19.06-32.77,34.67-42.77,9.27-5.94,20.73-20,31.52-22.22.72-.15,1.45-.28,2.18-.4Z"/><path class="cls-2" d="M158.1,0c-4.63,1.78-8.78,4.9-12.62,8.07-5.46,4.5-10.47,9.6-16.42,13.47A75.22,75.22,0,0,0,112,37.33a161.82,161.82,0,0,0-13.29,19.6c-1,1.68-2,3.38-3,5.08A21.47,21.47,0,0,0,94,65.24c-.69,1.83-1.31,3.68-2,5.52l-1.48,4.15C90,76.27,92.1,77.55,93,76.37a53.07,53.07,0,0,1,45-20c5.09.36,10,1.75,15.05,2.43a34.33,34.33,0,0,0,15-1.12A41.89,41.89,0,0,0,180,51.35c3.43-2.47,6.76-5.14,10.54-7.08a20.73,20.73,0,0,1,13.59-1.83c4.85.88,9.56,2.52,14.53,2.63,4.23.09,8.61-1,11.71-4a50,50,0,0,0,4.11-5.38,15.86,15.86,0,0,1,4.45-4c6.27-3.77,13.72-3.41,20.75-3.39q9.6,0,19.2-.42c6.1-.3,12.45-.53,18.41-2a16.75,16.75,0,0,0,8.89-5.26c2.61-3.19,3.26-7.42,3.86-11.45V0Zm6.52,1.49,11.09-.1,21-.18L223.67,1,252.48.71,279.1.47,299.5.28c3,0,6,0,9-.07-.21,2.24-.8,4.54-1.17,6.73-.42,2.46-.73,5-1.38,7.39a11.8,11.8,0,0,1-8.3,8.33c-5.35,1.7-11.36,1.82-16.91,2.13-6.57.37-13.15.52-19.73.52-6.74,0-13.62-.41-20,2.08a20.66,20.66,0,0,0-9.59,7.44c-1.26,1.76-2.41,3.7-4.18,5A12.06,12.06,0,0,1,221.32,42c-4.66.51-9.17-.82-13.67-1.85-4.84-1.1-9.77-1.7-14.58-.16-8.12,2.61-13.94,9.3-21.41,13.1a29.91,29.91,0,0,1-14.48,3.16c-5.27-.18-10.37-1.7-15.57-2.42a54.9,54.9,0,0,0-25.21,2.54A55.75,55.75,0,0,0,95.78,68.86,23.93,23.93,0,0,1,96.85,66a94.06,94.06,0,0,1,4.84-8.29c2-3.38,4.09-6.72,6.29-10A96.19,96.19,0,0,1,123,30a84.29,84.29,0,0,1,9-6.77,93.25,93.25,0,0,0,7.93-6.37c5.4-4.71,10.73-9.89,17.17-13.18a19.27,19.27,0,0,1,6.23-2.09A11.9,11.9,0,0,1,164.62,1.49Z"/><path class="cls-3" d="M254.39,171.83c-41.53-5.66-53.94-47.14-55.89-54.78,3.89-.91,34.54-7.11,47.51,21C246,138.09,252.24,146.67,254.39,171.83Z"/><path class="cls-2" d="M160.83,28.61c-2.81,8.61-9.42,16.55-18.28,18.28-7.27,1.42-15.77-1.19-21.59,3.39a18.66,18.66,0,0,0-4.56,6.06l-1.06,2c-.38.71-.78,1.41-1.2,2.09a18,18,0,0,1-1.77,2.45c-3.74,4.3-9.6,6-14.39,9-4,2.57-7.48,7.43-6.77,11.82a2.12,2.12,0,0,1-3.6,1.9,3.88,3.88,0,0,1-1-1.93c-.41-2.54.78-5.08.73-7.66-.16-7.29-9.31-10.47-16.59-10.67S54.75,65.2,50.9,59c-4.48-7.21-4.91-7.17-9.4-14.38-4.07-6.52-15.22-5.1-22.41-7.79-3.65-1.37-11.18-8.54-17-13.52-.83-1.78-1.54-3.46-2.15-5l-.26-.69C-.44,10.2-.43,3,0,1.52H0V0H99.84c16.1.21,32.06.32,48.34,0h15V.11c0,.49,0,1,.05,1.48C163.55,10.25,163.43,20.64,160.83,28.61Z"/><path class="cls-4" d="M254.36,255.88l-198.72.25c-.48-7.36-2.83-50.52,5-81.95,0,0,55.39.12,54.51-48.61,1.35-.2,2.74-.37,4.18-.53l78.8-7.89.4-.1c1.95,7.64,14.36,49.12,55.89,54.78,1.29,15,4,33.07,1.47,64.55"/><path class="cls-5" d="M171.58,256c.15-14.69-.05-29.37-.93-44a110.87,110.87,0,0,1-.55-11.38,16.67,16.67,0,0,1,3.3-9.34c2-2.75,4.65-4.73,7.07-7.07a31.45,31.45,0,0,0,5.89-7.58c1.73-3.24,2.59-6.56,1.55-10.17s-3.41-6.91-5.9-9.77L181.7,159c6.23-3,12.52-7.32,16.41-13.16a18.77,18.77,0,0,0,3.11-10.58c-.06-4.22-1.57-8.24-3-12.14-.68-1.79-3.58-1-2.9.8,1.33,3.5,2.78,7.14,2.93,10.93a16.08,16.08,0,0,1-2.89,9.77c-3.63,5.24-9.47,9.06-15.13,11.79a1.51,1.51,0,0,0-.3,2.35,23.34,23.34,0,0,1,5.13,8.45c.93,3.25-.16,6.1-1.85,8.9-3.38,5.62-9.23,8.9-12.84,14.3a18.92,18.92,0,0,0-3.18,9.34,74.06,74.06,0,0,0,.38,10.31q.69,10.78.95,21.59c.19,8.11.19,16.22.1,24.33a1.5,1.5,0,0,0,3,0Z"/><path class="cls-6" d="M200.32,54.48a68.07,68.07,0,0,1,6.36,51.41,38.88,38.88,0,0,1-4.3,10.28c-4.93,7.89-13.42,12.71-21.66,17-3.35,1.76-5.65,3.48-10.46,4.36q-3.21.58-6.47.86c-7.27.62-14.58,1.24-21.86.74s-14.41-1.74-20.73-5.39c0,0-1.86-1.47-6.5-22-.36-1.59-2.87,1.48-4.35,2.19a9.05,9.05,0,0,1-12.84-6.58,15.07,15.07,0,0,1,.08-4.69,13.64,13.64,0,0,1,2.31-6.62A9.19,9.19,0,0,1,108,92.78a12.45,12.45,0,0,1,7.85,4.13"/><path d="M106.67,100.2a4.86,4.86,0,0,1,.22,7.47c-.71.66.36,1.72,1.07,1.06a6.36,6.36,0,0,0-.23-9.59.77.77,0,0,0-1.06,0,.76.76,0,0,0,0,1.06Z"/><path d="M109.88,112.59a3,3,0,0,1,3.15,1.34,5.05,5.05,0,0,1,.49,4,4.69,4.69,0,0,1-2.87,3,3.62,3.62,0,0,1-3.91-.82,3.72,3.72,0,0,1-1-2,5.62,5.62,0,0,1,.51-2.73.75.75,0,0,0-1.45-.4,7,7,0,0,0-.56,3.13,5.24,5.24,0,0,0,1,2.6,5.11,5.11,0,0,0,5.11,1.87,6.3,6.3,0,0,0,4.36-3.62,6.69,6.69,0,0,0-.25-5.52,4.6,4.6,0,0,0-5-2.32.75.75,0,0,0,.4,1.45Z"/><path class="cls-7" d="M80.43,187.13c-2.3,1.56-4.63,1.69-7.57,6.28a4.77,4.77,0,0,0-.77,1.83c-.31,2,1.6,3.77,3.54,4.46,2.63.94,5.5.78,8.28.61,9.61-.61,19.68-1.42,27.76-6.65,2.17-1.4,4.33-3.45,4.33-6a5.28,5.28,0,0,0-3.56-4.76c-2-.7-5.22-.35-7.28.36Z"/><path class="cls-8" d="M83.15,199.36c-2.2-7.69-4.65-16.78-6.85-24.47-1-3.32-1.91-6.84-1-10.19,1-3.74,4.29-7.46,7.55-9.54,5.75-3.67,12.12-4.72,18.68-6.6,1.17-.34,2.51-.65,3.53,0a2.94,2.94,0,0,1,1.16,1.73,6.37,6.37,0,0,1-2,6,18.54,18.54,0,0,1-5.66,3.39l-10,4.51"/><path class="cls-9" d="M104.05,157c3-.23,3.09,3.4,2.21,5.32a27.14,27.14,0,0,1-3.22,4.93,48.8,48.8,0,0,1-8.35,8.46l.53.53c2.44-2.15,5.22-4.58,8.69-4.43,2,.09,4.36,1.29,3.8,3.66a13.19,13.19,0,0,1-2.28,4.4c-.89,1.22-2.09,2.13-3,3.31s-.6,2.28-.49,3.53l.94,10.57.73-.1a6.51,6.51,0,0,1-.48-2.69c0-.48-.73-.48-.75,0a7,7,0,0,0,.51,2.89c.14.36.78.36.74-.1l-.55-6.24-.3-3.37a16.42,16.42,0,0,1-.21-2.8c.1-1.25,1.16-1.9,2-2.74a17.39,17.39,0,0,0,1.55-1.88,13.68,13.68,0,0,0,2.36-4.58c.76-3.13-2.45-4.74-5.14-4.61-3.44.17-6.14,2.48-8.6,4.65-.37.32.16.82.53.53A48.67,48.67,0,0,0,105.52,165c1.13-1.7,2.45-3.79,2-5.94a3.43,3.43,0,0,0-3.46-2.87c-.48,0-.48.78,0,.75Z"/><path d="M161,98.2c-.53,3.21-.25,7.62,3.89,7.9a5.46,5.46,0,0,0,4.24-1.72,7,7,0,0,0,1.73-4.7h-3a4.49,4.49,0,0,0,4.45,4.48c2.61-.09,4.29-2.54,4.45-5,.19-2.9-1.66-5.73-2.87-8.24l-4.28-8.8c-.84-1.74-3.43-.22-2.59,1.51,1.95,4,4,8,5.85,12.06.67,1.44,1.47,3.45.33,4.88a1.32,1.32,0,0,1-2.34-.93,1.5,1.5,0,0,0-3,0c-.06,1.58-.82,3.47-2.7,3.44s-1.47-2.89-1.27-4.12a1.55,1.55,0,0,0-1-1.84,1.5,1.5,0,0,0-1.84,1Z"/><path class="cls-6" d="M110.61,78.26S107.87,88.61,112,95.41l5.3,9.89L148,92.5l51.41-31.8-3.89-16.51-13.07-2.65-17,2.82L143.08,53.9,126,62.29l-11.92,8.57Z"/><path d="M163.19,113.93a11.45,11.45,0,0,0,17.38-4.42,1.56,1.56,0,0,0-.54-2.06A1.52,1.52,0,0,0,178,108a8.52,8.52,0,0,1-13.27,3.35,1.52,1.52,0,0,0-2.06.54,1.54,1.54,0,0,0,.54,2.05Z"/><path class="cls-2" d="M88.71,72.05c2.94-1.5,6.41-1.23,9.7-1.35a37.76,37.76,0,0,0,8.64-1.35,22.2,22.2,0,0,0,7.57-3.51,12.18,12.18,0,0,0,4.64-6.8,3.38,3.38,0,0,0,.06-1.67c-.35-1.26-1.74-1.88-3-2.19a19.69,19.69,0,0,0-12.38,1.24A27.08,27.08,0,0,0,94,64.1c-1.51,1.81-2.87,4-2.74,6.32,0,.53.67,1.18.92.71"/><path class="cls-2" d="M89.47,73.34c2.7-1.29,5.81-1,8.72-1.13a39.75,39.75,0,0,0,9.26-1.41c5.09-1.42,10.25-4.17,12.51-9.2,1.07-2.38,1.54-5.22-.91-6.88-2.17-1.47-5.39-1.64-7.93-1.51A24.64,24.64,0,0,0,96.06,59.8c-2.28,2-4.62,4.54-5.73,7.43-.48,1.23-.91,3-.3,4.22a2,2,0,0,0,3.22.75c1.41-1.33-.71-3.45-2.12-2.13l-.15.15L92,69.78c1.56,0,.37.47.74-.18a4.57,4.57,0,0,0,.17-.8,7.25,7.25,0,0,1,.56-1.35,15.78,15.78,0,0,1,2.09-2.91,27.59,27.59,0,0,1,4.66-4.31,20.39,20.39,0,0,1,12.61-4c1.21,0,4.77.14,5,1.78a5.51,5.51,0,0,1-.84,2.79,10.73,10.73,0,0,1-1.77,2.47c-3.09,3.26-7.69,4.66-12,5.44-5.06.91-10.58-.21-15.32,2.07-1.74.84-.22,3.43,1.51,2.59Z"/><path class="cls-2" d="M196,73.94c-3-1.69-10-1.43-14.08.12a9,9,0,0,0-4,2.64,4.19,4.19,0,0,0-.56,4.55c1.21,2.06,4.11,2.12,6.48,1.94,3.77-.3,7.6-.61,11.11-2,1.36-.54,2.78-1.35,3.26-2.74C198.8,76.74,197.63,74.78,196,73.94Z"/><path class="cls-2" d="M150.74,81.62c-3.23-1.25-10.15,0-13.93,2.08a9,9,0,0,0-3.61,3.18,4.18,4.18,0,0,0,.08,4.58c1.49,1.87,4.36,1.53,6.69,1,3.68-.82,7.43-1.66,10.72-3.51a5.23,5.23,0,0,0,2.85-3.17C153.9,84,152.46,82.24,150.74,81.62Z"/><path d="M129.41,81.24a25.28,25.28,0,0,1,7.16-5.74,9.11,9.11,0,0,1,8-.25c2.23,1.15,4.21-2.22,2-3.37a12.93,12.93,0,0,0-10.91-.19,26.92,26.92,0,0,0-8.95,6.79c-1.72,1.83,1,4.59,2.76,2.76Z"/><path d="M176.65,69.06c4.33-3.36,10.69-7,15.9-3.2a2,2,0,0,0,2.66-.7,2,2,0,0,0-.7-2.67A12.92,12.92,0,0,0,184,60.77c-3.8.9-7.06,3.18-10.1,5.54a2,2,0,0,0,0,2.75,2,2,0,0,0,2.76,0Z"/><polygon class="cls-10" points="198.92 51.62 201.22 56.12 194.73 57.76 196.49 53.83 196.47 52.06 198.92 51.62"/><path class="cls-3" d="M199.37,53.17c-9.63-4.11-20-4.07-30.89-2.69-10.4,1.31-20.2,5.56-29.91,9.5a88,88,0,0,0-9.48,4.32c-6.5,3.57-13,9-18.48,14-5.11-14.76-11.46-30.52-17.42-45a123.38,123.38,0,0,1,65.16-31,59.63,59.63,0,0,1,9.24-.72c2.44,0,4.87.3,7.29.56l14.54,1.59C192.73,19.93,196.74,36.8,199.37,53.17Z"/><path class="cls-8" d="M84.17,199.28c-2.9-6.44-5.83-13-7-20s-.41-14.62,3.58-20.41c4.44-6.44,12.16-9.66,19.74-10.81a7.38,7.38,0,0,1,3.56.08,3,3,0,0,1,2.08,2.71,4.14,4.14,0,0,1-.7,1.9,24.5,24.5,0,0,1-9.27,8.95,17.28,17.28,0,0,1,6.16-3.89,3.55,3.55,0,0,1,2-.27c2,.48,2.09,3.44,1.42,5.46a23.93,23.93,0,0,1-6.26,9.91c2.4-2.32,7.07-.77,7.7,2.56.52,2.76-1.31,5.31-2.52,7.83a18.79,18.79,0,0,0-1.33,12.07,2.89,2.89,0,0,1,0,2.11,2.44,2.44,0,0,1-1.63.91,43.61,43.61,0,0,1-17.5.86"/><circle class="cls-11" cx="142.77" cy="87" r="2.75"/><circle class="cls-11" cx="187.09" cy="78.99" r="2.75"/><path class="cls-12" d="M108.2,68a118.18,118.18,0,0,1,67.26-30.12,114.62,114.62,0,0,1,20.71-.28c.48,0,.48-.71,0-.75a118.92,118.92,0,0,0-71.62,17.77,115.81,115.81,0,0,0-16.88,12.85c-.36.33.17.86.53.53Z"/><path class="cls-12" d="M99.22,46.83a114.69,114.69,0,0,1,68.43-30.49,148.24,148.24,0,0,1,24.3-.25c.48,0,.48-.72,0-.75a137.74,137.74,0,0,0-42,3.22,114.06,114.06,0,0,0-34.67,14.88A123.44,123.44,0,0,0,98.69,46.3c-.35.33.18.86.53.53Z"/><path class="cls-12" d="M97.89,42.87a114.14,114.14,0,0,1,68.16-30.38,148.25,148.25,0,0,1,24.3-.25c1,.07,1-1.43,0-1.5A138.08,138.08,0,0,0,148.23,14a114.41,114.41,0,0,0-34.76,14.92A123.71,123.71,0,0,0,96.83,41.81c-.71.66.35,1.71,1.06,1.06Z"/><rect class="cls-2" x="271.29" y="133.8" width="10.54" height="10.54" rx="2.69" transform="translate(-17.33 236.29) rotate(-45)"/><rect class="cls-2" x="20.86" y="204.66" width="10.54" height="10.54" rx="2.69" transform="translate(-140.79 79.96) rotate(-45)"/><rect class="cls-2" x="109.1" y="44.92" width="9.17" height="9.17" rx="2.69" transform="translate(25.38 136.54) rotate(-68.12)"/><rect class="cls-2" x="125.05" y="36.25" width="9.17" height="9.17" rx="2.69" transform="translate(43.43 145.9) rotate(-68.12)"/><rect class="cls-2" x="141.7" y="29.49" width="9.17" height="9.17" rx="2.69" transform="translate(50.97 150.15) rotate(-63.72)"/><rect class="cls-2" x="159.37" y="24.54" width="9.17" height="9.17" rx="2.69" transform="translate(56.75 156.55) rotate(-60)"/><rect class="cls-2" x="177.42" y="21.75" width="9.17" height="9.17" rx="2.69" transform="translate(68.2 170.78) rotate(-60)"/><path class="cls-6" d="M112.89,76.42s-5.42,6.73-2.36,18l5.69,2.19,1.55-8Z"/><path class="cls-5" d="M159.37,151.11V254.29a1.5,1.5,0,0,0,3,0V151.11a1.5,1.5,0,0,0-3,0Z"/><path class="cls-6" d="M121.09,133.2c2.23,13.35,16.36,23,29.23,24.22S176,153,185.65,144.33a14.43,14.43,0,0,0,4.43-5.86c1.16-3.46-.1-7.2-1.35-10.62-14,7.2-30.49,6.76-46.2,6.15C135.65,133.73,128,133.46,121.09,133.2Z"/><path class="cls-3" d="M60.61,174.18c3.21-12.94,8.14-24,15.63-29.85,2.63-2.06,5.12-4.26,7.59-6.5,4.25-3.89,13.35-9.66,31.29-12.26C116,174.3,60.61,174.18,60.61,174.18Z"/><line class="cls-13" x1="89.33" y1="84.71" x2="89.33" y2="169.78"/><path class="cls-10" d="M82.92,198l-5-22.21c-1.14-5.07-2.18-10.8.7-15.13a16.38,16.38,0,0,1,4.6-4.25,54.16,54.16,0,0,1,16-7.42c2.26-.63,5.34-.74,6.26,1.42a4.09,4.09,0,0,1-1,4,30.09,30.09,0,0,0-2.82,3.29c1.93-1.8,5.35.45,5.55,3.08s-1.52,5-3.16,7L100.63,172c1.66-2.27,5.75-.7,6.45,2s-.91,5.53-2.86,7.56a6,6,0,0,0-1.58,2.13,5.14,5.14,0,0,0-.17,1.75l.14,11.15A22.87,22.87,0,0,1,84,198.71"/><path class="cls-10" d="M84.37,197.56l-3.6-15.93c-1-4.66-2.59-9.51-2.52-14.32a10.71,10.71,0,0,1,1.9-6.28,19.56,19.56,0,0,1,5.48-4.46,52.73,52.73,0,0,1,13.3-6c1.24-.36,4.24-1.27,5.07.28.56,1-.51,2.34-1.16,3a22,22,0,0,0-2.53,3c-1,1.52,1.11,2.85,2.35,1.81.7-.58,1.76.11,2.26.64a3.18,3.18,0,0,1,.47,3.39,14,14,0,0,1-2.46,4c-1.11,1.42-2.24,2.83-3.36,4.24s.89,3.63,2.12,2.13c1-1.24,2.89-.49,3.65.69,1.35,2.08-.52,4.95-1.9,6.48a9.41,9.41,0,0,0-2.1,2.73,10.56,10.56,0,0,0-.35,4.19l.12,9.46.75-1.3a21.59,21.59,0,0,1-17.44,1.92c-1.85-.59-2.64,2.31-.8,2.89a24.54,24.54,0,0,0,19.75-2.22,1.49,1.49,0,0,0,.74-1.29c0-3.79-.17-7.59-.14-11.37,0-1.72,1.39-2.58,2.38-3.84a11.14,11.14,0,0,0,2.18-4.26,6.12,6.12,0,0,0-2.54-6.82c-2-1.25-4.85-1.33-6.42.61l2.12,2.13c1.63-2.06,3.37-4.08,4.87-6.24a9.43,9.43,0,0,0,2-6.41c-.45-3.71-5-6.43-8.07-3.84l2.36,1.82c1.42-2.24,3.95-3.65,4.21-6.54a4.33,4.33,0,0,0-3.46-4.63c-2.36-.56-4.77.17-7,.89a56.75,56.75,0,0,0-7.72,3.14,51.48,51.48,0,0,0-7.34,4.4,14.66,14.66,0,0,0-5.19,5.91c-2.14,4.94-.85,10.51.28,15.53l4.79,21.24c.43,1.88,3.32,1.08,2.9-.8Z"/><path class="cls-5" d="M111.71,129.59c-3.85,12.7,2.82,30.08,16.89,32.86a16.4,16.4,0,0,0,9.92-1l-1.82-2.35c-5,4.47-7.74,11.2-6.5,17.86a16.87,16.87,0,0,0,4.17,8.33c2.07,2.23,4.78,3.55,7.46,4.87,2.51,1.23,5.25,2.59,6.54,5.22a13.22,13.22,0,0,1,1,5.31c.07,2,.07,3.91.08,5.87,0,7.59-.29,15.17-.61,22.75-.37,8.76-.68,17.51-.53,26.27,0,1.93,3,1.94,3,0-.25-15.09,1-30.14,1.12-45.22,0-3.69.17-7.46-.15-11.14-.28-3.25-1.29-6.3-3.82-8.49-2.13-1.83-4.72-2.91-7.19-4.18a14.77,14.77,0,0,1-6.64-6c-3.66-6.62-1.2-14.53,4.17-19.37,1.37-1.23-.37-3-1.81-2.36-6.19,2.71-13.48-.33-17.62-5.21a26.8,26.8,0,0,1-5.17-10.82,23.37,23.37,0,0,1,.39-12.39c.56-1.85-2.34-2.64-2.9-.8Z"/><path d="M93.91,161.79a30,30,0,0,1,4.88-2.29,24.25,24.25,0,0,0,4.83-2.42,1.15,1.15,0,0,0,.41-1.54,1.14,1.14,0,0,0-1.54-.41A21.8,21.8,0,0,1,98,157.41a33.23,33.23,0,0,0-5.2,2.43,1.13,1.13,0,0,0,1.14,1.95Z"/><path d="M93.81,175.38l10.07-3.92a1.17,1.17,0,0,0,.79-1.39,1.14,1.14,0,0,0-1.39-.78l-10.07,3.93a1.15,1.15,0,0,0-.78,1.38,1.12,1.12,0,0,0,1.38.78Z"/><path d="M150.27,139.73c14.46,1.6,29.85-1.3,41.79-9.93a47.23,47.23,0,0,0,8.59-7.94,2.47,2.47,0,0,0,0-3.39,2.41,2.41,0,0,0-3.4,0c-11.38,13.65-29.83,18.36-47,16.46a2.41,2.41,0,0,0-2.4,2.4,2.45,2.45,0,0,0,2.4,2.4Z"/><path d="M223.45,216.24a126.54,126.54,0,0,1-.15,38.17c-.29,1.89,2.6,2.71,2.9.8a131.9,131.9,0,0,0,.14-39.77c-.28-1.9-3.17-1.09-2.89.8Z"/></g><g id="Layer_2" data-name="Layer 2"><path class="cls-3" d="M72.18,196.5l-.62,59.16h43l.54-64.87S100.6,204.17,72.18,196.5Z"/><path class="cls-2" d="M28.85,122.26a12.4,12.4,0,0,0,11.23-9.68c.24-1.21.54-2.74,1.74-3A2.11,2.11,0,0,1,44,111.16a20,20,0,0,1,.43,2.91c.63,3.35,4,5.47,7.35,6.32a7.73,7.73,0,0,1,3,1.15,2.12,2.12,0,0,1,.57,2.87,2.85,2.85,0,0,1-1.36.75c-2.28.77-4.7,1.47-6.41,3.17-2.19,2.17-2.72,5.45-4.09,8.21a1.91,1.91,0,0,1-.68.85c-.75.44-1.73-.28-2-1.12a9.55,9.55,0,0,1,0-2.62c0-2.48-1.8-4.65-3.91-6a36.23,36.23,0,0,0-6.88-2.8c-.63-.24-1.35-.59-1.48-1.25s-.21-.93.31-1.38"/><path class="cls-2" d="M236.13,75a12.38,12.38,0,0,0,11.22-9.67c.24-1.21.54-2.75,1.75-3a2.09,2.09,0,0,1,2.17,1.58,19.88,19.88,0,0,1,.44,2.9c.63,3.36,4,5.48,7.35,6.32a7.55,7.55,0,0,1,3,1.16,2.12,2.12,0,0,1,.57,2.87,3,3,0,0,1-1.35.75c-2.29.76-4.71,1.47-6.42,3.16-2.18,2.17-2.72,5.45-4.09,8.21a1.83,1.83,0,0,1-.67.85c-.76.45-1.74-.28-2-1.12a9.9,9.9,0,0,1,0-2.61c0-2.48-1.8-4.66-3.91-6a35.87,35.87,0,0,0-6.87-2.8c-.64-.23-1.35-.58-1.48-1.24s-.22-.93.31-1.39"/></g></svg>