<svg xmlns="http://www.w3.org/2000/svg" xmlns:xlink="http://www.w3.org/1999/xlink" viewBox="0 0 310 256"><defs><style>.cls-1{fill:#67236c;}.cls-2{fill:#33bede;}.cls-3{fill:#66cee6;}.cls-4{fill:#251d14;}.cls-5{fill:#802985;}.cls-6{fill:#ff6856;}.cls-7{clip-path:url(#clip-path);}.cls-8{fill:#f07083;}.cls-9{fill:#ee455d;}.cls-10{fill:#5f2a69;}.cls-11{opacity:0.77;}.cls-12{fill:#fff;}</style><clipPath id="clip-path"><path class="cls-1" d="M93.78,192.82,38.62,131.35l74,26.66,56.3,63L97.8,195.52A9.9,9.9,0,0,1,93.78,192.82Z"/></clipPath></defs><g id="Layer_1" data-name="Layer 1"><rect class="cls-2" x="-0.01" y="0.14" width="310" height="256"/><path class="cls-3" d="M310,158V169.9a6,6,0,0,1-1.35.5l-33.31,8a6.16,6.16,0,0,0-4.71,6.24l1.43,33.65a6.16,6.16,0,0,1-6.92,6.36l-35.55-4.51a6.15,6.15,0,0,0-6.26,3.32l-16.59,32.72H184.4l-17.63-16a6.14,6.14,0,0,0-5.78-1.37l-56,15.6a6.14,6.14,0,0,1-7.65-7.23l4.36-19.88a6.15,6.15,0,0,0-5.27-7.42L46,213.73a6.15,6.15,0,0,1-4.43-9.43l14.51-22.54a6.15,6.15,0,0,0-3.35-9.2L0,156.25V140.53l17.83-21a6.15,6.15,0,0,0-1.62-9.31L9.37,106.3a6.15,6.15,0,0,1,2.15-11.41l2-.29a6.15,6.15,0,0,0,4.34-9.27L.56,56.93A6.2,6.2,0,0,1,0,55.7a6.13,6.13,0,0,1,4.55-8l33.51-7.08a6.11,6.11,0,0,0,3.75-2.47L68.67.14H93.1l26.3,18a6.15,6.15,0,0,0,6.4.33L159.53.14h26.86L213.9,32.07a6.16,6.16,0,0,0,5.67,2L259,27.56A6.15,6.15,0,0,1,266,34.78l-6.65,34.56a6.15,6.15,0,0,0,4.27,7l41.22,12.38a6.14,6.14,0,0,1,3,9.8L288,122.51a6.16,6.16,0,0,0-.08,7.74Z"/></g><g id="Layer_2" data-name="Layer 2"><polygon class="cls-4" points="179.04 38.74 188.01 58.75 160.23 213.86 112.63 158.01 179.04 38.74"/><path class="cls-5" d="M38.62,131.35l74,26.66L179,38.74l-71-17.2a5.61,5.61,0,0,0-6.15,2.6Z"/><rect class="cls-6" x="97.43" y="67.02" width="1" height="78.63" transform="translate(-33.27 167.03) rotate(-72.18)"/><path class="cls-1" d="M93.78,192.82,38.62,131.35l74,26.66,56.3,63L97.8,195.52A9.9,9.9,0,0,1,93.78,192.82Z"/><g class="cls-7"><rect class="cls-1" x="73.51" y="94.36" width="53.06" height="53.06" transform="translate(-24.7 25.69) rotate(-13.04)"/><path class="cls-1" d="M171.59,77.08l12,51.69-26.18,6.07A27.13,27.13,0,0,1,176.16,97.7L172.29,81a44.42,44.42,0,0,0-32,57.82l-8.46,2-12-51.69Z"/><rect class="cls-1" x="174.23" y="73.72" width="26.76" height="26.48" transform="translate(-14.79 44.58) rotate(-13.04)"/><rect class="cls-1" x="200.31" y="67.74" width="26.29" height="26.48" transform="translate(-12.77 50.26) rotate(-13.04)"/><rect class="cls-1" x="179.88" y="96.56" width="53.06" height="26.57" transform="translate(-19.46 49.41) rotate(-13.04)"/><rect class="cls-1" x="180.21" y="99.57" width="26.76" height="26.48" transform="translate(-20.46 46.6) rotate(-13.04)"/><rect class="cls-1" x="206.29" y="93.58" width="26.29" height="26.48" transform="translate(-18.45 52.28) rotate(-13.04)"/><rect class="cls-1" x="185.86" y="122.4" width="53.06" height="26.57" transform="translate(-25.14 51.43) rotate(-13.04)"/><rect class="cls-1" x="137.17" y="134.08" width="53.06" height="53.06" transform="translate(-32.02 41.08) rotate(-13.04)"/><rect class="cls-1" x="188.86" y="122.1" width="53.06" height="53.06" transform="translate(-27.99 52.44) rotate(-13.04)"/><rect class="cls-1" x="45.77" y="209.71" width="53.06" height="53.06" transform="translate(-51.45 22.41) rotate(-13.04)"/><rect class="cls-1" x="97.46" y="197.74" width="53.06" height="53.06" transform="translate(-47.41 33.76) rotate(-13.04)"/><rect class="cls-1" x="149.14" y="185.77" width="53.06" height="53.06" transform="translate(-43.38 45.12) rotate(-13.04)"/><rect class="cls-1" x="200.83" y="173.79" width="53.06" height="53.06" transform="translate(-39.34 56.48) rotate(-13.04)"/><rect class="cls-1" x="109.43" y="249.43" width="53.06" height="53.06" transform="translate(-58.77 37.8) rotate(-13.04)"/><rect class="cls-1" x="161.12" y="237.46" width="53.06" height="53.06" transform="translate(-54.73 49.16) rotate(-13.04)"/><rect class="cls-1" x="212.81" y="225.48" width="53.06" height="53.06" transform="translate(-50.7 60.51) rotate(-13.04)"/><path class="cls-1" d="M74.11,126.9,22.59,138.83A26.44,26.44,0,1,1,74.11,126.9Z"/><path class="cls-1" d="M22.56,138.84A26.44,26.44,0,1,1,74.07,126.9Z"/><path class="cls-1" d="M104.23,256.17a26.44,26.44,0,1,1,11.94,51.51Z"/><path class="cls-1" d="M130,250.2a26.44,26.44,0,1,1,11.93,51.52Z"/><path class="cls-1" d="M155.84,244.21a26.44,26.44,0,0,1,11.93,51.52Z"/><path class="cls-1" d="M181.68,238.23a26.44,26.44,0,1,1,11.93,51.51Z"/><path class="cls-1" d="M74.27,126.86l10-2.31a16.13,16.13,0,1,0,31.43-7.28l10.13-2.35a26.44,26.44,0,0,1-51.52,11.94Z"/><path class="cls-1" d="M68.11,101.15l10-2.31a16.14,16.14,0,0,0,31.44-7.28l10.12-2.35a26.44,26.44,0,1,1-51.51,11.94Z"/><path class="cls-1" d="M182.49,110.39l3.67-.85a5.94,5.94,0,0,0,11.57-2.68l3.73-.87a9.74,9.74,0,0,1-19,4.4Z"/><path class="cls-1" d="M44.77,194.13l6.16-1.43a10,10,0,1,0,19.44-4.5l6.27-1.45a16.36,16.36,0,0,1-31.87,7.38Z"/><path class="cls-1" d="M212,208.39,218.2,207a10,10,0,0,0,19.44-4.5l6.27-1.45A16.36,16.36,0,0,1,212,208.39Z"/><path class="cls-1" d="M202.87,78.43l3.67-.85a5.94,5.94,0,1,0,11.57-2.68l3.73-.86a9.74,9.74,0,1,1-19,4.39Z"/><path class="cls-1" d="M172.29,81l3.87,16.73a27.13,27.13,0,0,0-18.78,37.14l-17,3.95a44.42,44.42,0,0,1,32-57.82Z"/><path class="cls-1" d="M188.4,150.52l3.94,17a44.43,44.43,0,0,1-52-28.75l17-3.95A27.12,27.12,0,0,0,188.4,150.52Z"/><path class="cls-1" d="M143.76,192.46a26.44,26.44,0,0,1-51.52,11.93Z"/><path class="cls-1" d="M198.5,75.7a13.15,13.15,0,1,1-25.83,1.13l23.91-5.53A13.21,13.21,0,0,1,198.5,75.7Z"/><rect class="cls-1" x="38.87" y="175.99" width="17.34" height="5.88" transform="translate(-39.15 15.34) rotate(-13.04)"/><circle class="cls-1" cx="199.29" cy="137.8" r="6.01"/><circle class="cls-1" cx="217.66" cy="133.54" r="6.01"/><circle class="cls-1" cx="204.56" cy="158.54" r="6.01"/><circle class="cls-1" cx="222.93" cy="154.29" r="6.01"/><circle class="cls-1" cx="210.86" cy="145.2" r="6.01"/><path class="cls-1" d="M195.85,149.56a6,6,0,0,1-4.5,7.21,6.13,6.13,0,0,1-1.27.16l-2.65-11.44a6.18,6.18,0,0,1,1.21-.42A6,6,0,0,1,195.85,149.56Z"/><path class="cls-1" d="M201,170.72a6,6,0,0,1-4.49,7.21,5.66,5.66,0,0,1-1.28.15l-2.65-11.44a6.18,6.18,0,0,1,1.21-.42A6,6,0,0,1,201,170.72Z"/><circle class="cls-1" cx="215.97" cy="167.25" r="6.01"/><path class="cls-1" d="M212.08,123.84a6,6,0,1,1-11.86,1l11.25-2.61A6.17,6.17,0,0,1,212.08,123.84Z"/><path class="cls-1" d="M191.46,128.62a6,6,0,0,1-4.49,7.21,6.08,6.08,0,0,1-1.74.14l-1.67-7.2-3.95.92v-.05l11.24-2.6A5.89,5.89,0,0,1,191.46,128.62Z"/><path class="cls-1" d="M52.45,268.16S49.69,227,92.24,204.39L104,256.23Z"/><path class="cls-1" d="M156,244.17S153.25,203,195.8,180.4l11.73,51.84Z"/><path class="cls-1" d="M207.41,232.13s41.19-2.76,63.77,39.78l-51.84,11.74Z"/></g><polygon class="cls-8" points="128.31 105.94 169.25 120.09 244.22 52.77 208.65 42.44 128.31 105.94"/><path class="cls-1" d="M128.31,105.94l11.37,111.71a4.41,4.41,0,0,0,2.77,3.66l35.76,14.12-9-115.34Z"/><path class="cls-9" d="M244,52.77V165.36a10.35,10.35,0,0,1-3,7.33l-62.74,62.74-9-115.34L193.9,97.88l.47-.42L218.53,75.7l.48-.43Z"/><polygon class="cls-6" points="77.45 145.33 76.49 144.99 140.96 29.51 141.97 29.76 77.45 145.33"/><rect class="cls-6" x="119.39" y="28.91" width="1" height="77.09" transform="matrix(0.29, -0.96, 0.96, 0.29, 20.12, 162.15)"/><polygon class="cls-6" points="127.22 206.05 76.3 144.89 77.57 145.11 128.85 206.64 127.22 206.05"/><rect class="cls-10" x="174.02" y="70.04" width="1" height="41.8" transform="translate(33.73 228.44) rotate(-71.85)"/><rect class="cls-10" x="199.92" y="49.97" width="1" height="38.95" transform="translate(74.27 239.97) rotate(-72.62)"/><polygon class="cls-10" points="224.13 189.51 223.16 190.48 218.53 75.7 218.51 75.29 219.01 75.27 219.51 75.25 224.13 189.51"/><polygon class="cls-10" points="200.84 212.8 199.89 213.75 193.9 97.88 193.88 97.48 194.37 97.46 194.88 97.43 200.84 212.8"/><polygon class="cls-10" points="172.38 160.47 172.27 159.19 243.99 90.25 243.99 91.63 172.38 160.47"/><polygon class="cls-10" points="175.44 199.55 175.22 198.34 244.01 128.71 243.99 130.15 175.44 199.55"/><polygon class="cls-6" points="172.38 160.36 132.52 147.27 132.41 146.18 172.29 159.28 172.38 160.36"/><polygon class="cls-6" points="175.41 199.45 136.51 186.55 136.43 185.47 175.33 198.37 175.41 199.45"/><g class="cls-11"><polygon class="cls-6" points="137.57 198.49 80.38 177.89 79.33 176.71 137.82 197.78 137.57 198.49"/></g><g class="cls-11"><polygon class="cls-6" points="134.09 183.13 61.65 157.04 60.63 155.88 134.34 182.43 134.09 183.13"/></g><path class="cls-12" d="M239.69,27.16a12.4,12.4,0,0,0,11.23-9.68c.23-1.21.53-2.74,1.74-3a2.11,2.11,0,0,1,2.18,1.58,20,20,0,0,1,.43,2.91c.63,3.35,4,5.47,7.35,6.32a7.73,7.73,0,0,1,3,1.15,2.12,2.12,0,0,1,.57,2.87,2.9,2.9,0,0,1-1.36.75c-2.28.77-4.7,1.47-6.41,3.17-2.19,2.17-2.72,5.45-4.09,8.21a1.91,1.91,0,0,1-.68.85c-.75.44-1.74-.28-2-1.12a9.55,9.55,0,0,1,0-2.62c0-2.48-1.81-4.65-3.91-6a36.23,36.23,0,0,0-6.88-2.8c-.63-.24-1.35-.59-1.48-1.25s-.21-.93.31-1.38"/><path class="cls-12" d="M58.33,215.37a12.4,12.4,0,0,0,11.22-9.68c.24-1.21.54-2.74,1.74-3a2.1,2.1,0,0,1,2.18,1.58,20,20,0,0,1,.44,2.91c.63,3.35,4,5.47,7.35,6.31a7.76,7.76,0,0,1,3,1.16,2.12,2.12,0,0,1,.57,2.87,2.94,2.94,0,0,1-1.36.75c-2.28.76-4.7,1.47-6.41,3.17-2.18,2.16-2.72,5.45-4.09,8.2a1.91,1.91,0,0,1-.67.86c-.76.44-1.74-.28-2-1.12a10,10,0,0,1,0-2.62c0-2.48-1.8-4.65-3.91-6A36.56,36.56,0,0,0,59.5,218c-.64-.23-1.35-.58-1.48-1.24s-.22-.93.31-1.38"/></g></svg>