<?xml version="1.0" encoding="UTF-8"?>
<svg width="598px" height="546px" viewBox="0 0 598 546" version="1.1" xmlns="http://www.w3.org/2000/svg" xmlns:xlink="http://www.w3.org/1999/xlink">
    <!-- Generator: Sketch 62 (91390) - https://sketch.com -->
    <title>Kingsly Copy 13</title>
    <desc>Created with Sketch.</desc>
    <defs>
        <rect id="path-1" x="0" y="0" width="598" height="546" rx="52"></rect>
        <polygon id="path-3" points="0 0.546869741 499.849631 0.546869741 499.849631 410.923565 0 410.923565"></polygon>
        <path d="M89.5625895,97.8172448 C91.3298297,99.7561477 93.5566168,101.232195 96.0446201,102.111779 L96.0446201,102.111779 L210.72335,142.655367 L119.941061,42.4495603 L0.620100437,0.0450078168 L89.5625895,97.8172448 Z" id="path-5"></path>
        <path d="M89.5625895,97.8172448 C91.3298297,99.7561477 93.5566168,101.232195 96.0446201,102.111779 L96.0446201,102.111779 L210.72335,142.655367 L119.941061,42.4495603 L0.620100437,0.0450078168 L89.5625895,97.8172448 Z" id="path-7"></path>
        <path d="M89.5625895,97.8172448 C91.3298297,99.7561477 93.5566168,101.232195 96.0446201,102.111779 L96.0446201,102.111779 L210.72335,142.655367 L119.941061,42.4495603 L0.620100437,0.0450078168 L89.5625895,97.8172448 Z" id="path-9"></path>
        <path d="M89.5625895,97.8172448 C91.3298297,99.7561477 93.5566168,101.232195 96.0446201,102.111779 L96.0446201,102.111779 L210.72335,142.655367 L119.941061,42.4495603 L0.620100437,0.0450078168 L89.5625895,97.8172448 Z" id="path-11"></path>
        <path d="M89.5625895,97.8172448 C91.3298297,99.7561477 93.5566168,101.232195 96.0446201,102.111779 L96.0446201,102.111779 L210.72335,142.655367 L119.941061,42.4495603 L0.620100437,0.0450078168 L89.5625895,97.8172448 Z" id="path-13"></path>
        <path d="M89.5625895,97.8172448 C91.3298297,99.7561477 93.5566168,101.232195 96.0446201,102.111779 L96.0446201,102.111779 L210.72335,142.655367 L119.941061,42.4495603 L0.620100437,0.0450078168 L89.5625895,97.8172448 Z" id="path-15"></path>
        <path d="M89.5625895,97.8172448 C91.3298297,99.7561477 93.5566168,101.232195 96.0446201,102.111779 L96.0446201,102.111779 L210.72335,142.655367 L119.941061,42.4495603 L0.620100437,0.0450078168 L89.5625895,97.8172448 Z" id="path-17"></path>
        <path d="M89.5625895,97.8172448 C91.3298297,99.7561477 93.5566168,101.232195 96.0446201,102.111779 L96.0446201,102.111779 L210.72335,142.655367 L119.941061,42.4495603 L0.620100437,0.0450078168 L89.5625895,97.8172448 Z" id="path-19"></path>
        <path d="M89.5625895,97.8172448 C91.3298297,99.7561477 93.5566168,101.232195 96.0446201,102.111779 L96.0446201,102.111779 L210.72335,142.655367 L119.941061,42.4495603 L0.620100437,0.0450078168 L89.5625895,97.8172448 Z" id="path-21"></path>
        <path d="M89.5625895,97.8172448 C91.3298297,99.7561477 93.5566168,101.232195 96.0446201,102.111779 L96.0446201,102.111779 L210.72335,142.655367 L119.941061,42.4495603 L0.620100437,0.0450078168 L89.5625895,97.8172448 Z" id="path-23"></path>
        <path d="M89.5625895,97.8172448 C91.3298297,99.7561477 93.5566168,101.232195 96.0446201,102.111779 L96.0446201,102.111779 L210.72335,142.655367 L119.941061,42.4495603 L0.620100437,0.0450078168 L89.5625895,97.8172448 Z" id="path-25"></path>
        <path d="M89.5625895,97.8172448 C91.3298297,99.7561477 93.5566168,101.232195 96.0446201,102.111779 L96.0446201,102.111779 L210.72335,142.655367 L119.941061,42.4495603 L0.620100437,0.0450078168 L89.5625895,97.8172448 Z" id="path-27"></path>
        <path d="M89.5625895,97.8172448 C91.3298297,99.7561477 93.5566168,101.232195 96.0446201,102.111779 L96.0446201,102.111779 L210.72335,142.655367 L119.941061,42.4495603 L0.620100437,0.0450078168 L89.5625895,97.8172448 Z" id="path-29"></path>
        <path d="M89.5625895,97.8172448 C91.3298297,99.7561477 93.5566168,101.232195 96.0446201,102.111779 L96.0446201,102.111779 L210.72335,142.655367 L119.941061,42.4495603 L0.620100437,0.0450078168 L89.5625895,97.8172448 Z" id="path-31"></path>
        <path d="M89.5625895,97.8172448 C91.3298297,99.7561477 93.5566168,101.232195 96.0446201,102.111779 L96.0446201,102.111779 L210.72335,142.655367 L119.941061,42.4495603 L0.620100437,0.0450078168 L89.5625895,97.8172448 Z" id="path-33"></path>
        <path d="M89.5625895,97.8172448 C91.3298297,99.7561477 93.5566168,101.232195 96.0446201,102.111779 L96.0446201,102.111779 L210.72335,142.655367 L119.941061,42.4495603 L0.620100437,0.0450078168 L89.5625895,97.8172448 Z" id="path-35"></path>
        <path d="M89.5625895,97.8172448 C91.3298297,99.7561477 93.5566168,101.232195 96.0446201,102.111779 L96.0446201,102.111779 L210.72335,142.655367 L119.941061,42.4495603 L0.620100437,0.0450078168 L89.5625895,97.8172448 Z" id="path-37"></path>
        <path d="M89.5625895,97.8172448 C91.3298297,99.7561477 93.5566168,101.232195 96.0446201,102.111779 L96.0446201,102.111779 L210.72335,142.655367 L119.941061,42.4495603 L0.620100437,0.0450078168" id="path-39"></path>
        <path d="M89.5625895,97.8172448 C91.3298297,99.7561477 93.5566168,101.232195 96.0446201,102.111779 L96.0446201,102.111779 L210.72335,142.655367 L119.941061,42.4495603 L0.620100437,0.0450078168 L89.5625895,97.8172448 Z" id="path-41"></path>
        <path d="M89.5625895,97.8172448 C91.3298297,99.7561477 93.5566168,101.232195 96.0446201,102.111779 L96.0446201,102.111779 L210.72335,142.655367 L119.941061,42.4495603 L0.620100437,0.0450078168 L89.5625895,97.8172448 Z" id="path-43"></path>
        <path d="M89.5625895,97.8172448 C91.3298297,99.7561477 93.5566168,101.232195 96.0446201,102.111779 L96.0446201,102.111779 L210.72335,142.655367 L119.941061,42.4495603 L0.620100437,0.0450078168 L89.5625895,97.8172448 Z" id="path-45"></path>
        <path d="M89.5625895,97.8172448 C91.3298297,99.7561477 93.5566168,101.232195 96.0446201,102.111779 L96.0446201,102.111779 L210.72335,142.655367 L119.941061,42.4495603 L0.620100437,0.0450078168 L89.5625895,97.8172448 Z" id="path-47"></path>
        <path d="M89.5625895,97.8172448 C91.3298297,99.7561477 93.5566168,101.232195 96.0446201,102.111779 L96.0446201,102.111779 L210.72335,142.655367 L119.941061,42.4495603 L0.620100437,0.0450078168 L89.5625895,97.8172448 Z" id="path-49"></path>
        <path d="M89.5625895,97.8172448 C91.3298297,99.7561477 93.5566168,101.232195 96.0446201,102.111779 L96.0446201,102.111779 L210.72335,142.655367 L119.941061,42.4495603 L0.620100437,0.0450078168 L89.5625895,97.8172448 Z" id="path-51"></path>
        <path d="M89.5625895,97.8172448 C91.3298297,99.7561477 93.5566168,101.232195 96.0446201,102.111779 L96.0446201,102.111779 L210.72335,142.655367 L119.941061,42.4495603 L0.620100437,0.0450078168 L89.5625895,97.8172448 Z" id="path-53"></path>
        <path d="M89.5625895,97.8172448 C91.3298297,99.7561477 93.5566168,101.232195 96.0446201,102.111779 L96.0446201,102.111779 L210.72335,142.655367 L119.941061,42.4495603 L0.620100437,0.0450078168 L89.5625895,97.8172448 Z" id="path-55"></path>
        <path d="M89.5625895,97.8172448 C91.3298297,99.7561477 93.5566168,101.232195 96.0446201,102.111779 L96.0446201,102.111779 L210.72335,142.655367 L119.941061,42.4495603 L0.620100437,0.0450078168" id="path-57"></path>
        <path d="M89.5625895,97.8172448 C91.3298297,99.7561477 93.5566168,101.232195 96.0446201,102.111779 L96.0446201,102.111779 L210.72335,142.655367 L119.941061,42.4495603 L0.620100437,0.0450078168" id="path-59"></path>
        <path d="M89.5625895,97.8172448 C91.3298297,99.7561477 93.5566168,101.232195 96.0446201,102.111779 L96.0446201,102.111779 L210.72335,142.655367 L119.941061,42.4495603 L0.620100437,0.0450078168 L89.5625895,97.8172448 Z" id="path-61"></path>
        <path d="M89.5625895,97.8172448 C91.3298297,99.7561477 93.5566168,101.232195 96.0446201,102.111779 L96.0446201,102.111779 L210.72335,142.655367 L119.941061,42.4495603 L0.620100437,0.0450078168 L89.5625895,97.8172448 Z" id="path-63"></path>
        <path d="M89.5625895,97.8172448 C91.3298297,99.7561477 93.5566168,101.232195 96.0446201,102.111779 L96.0446201,102.111779 L210.72335,142.655367 L119.941061,42.4495603 L0.620100437,0.0450078168" id="path-65"></path>
        <path d="M89.5625895,97.8172448 C91.3298297,99.7561477 93.5566168,101.232195 96.0446201,102.111779 L96.0446201,102.111779 L210.72335,142.655367 L119.941061,42.4495603 L0.620100437,0.0450078168 L89.5625895,97.8172448 Z" id="path-67"></path>
        <path d="M89.5625895,97.8172448 C91.3298297,99.7561477 93.5566168,101.232195 96.0446201,102.111779 L96.0446201,102.111779 L210.72335,142.655367 L119.941061,42.4495603 L0.620100437,0.0450078168" id="path-69"></path>
        <path d="M89.5625895,97.8172448 C91.3298297,99.7561477 93.5566168,101.232195 96.0446201,102.111779 L96.0446201,102.111779 L210.72335,142.655367 L119.941061,42.4495603 L0.620100437,0.0450078168 L89.5625895,97.8172448 Z" id="path-71"></path>
        <path d="M89.5625895,97.8172448 C91.3298297,99.7561477 93.5566168,101.232195 96.0446201,102.111779 L96.0446201,102.111779 L210.72335,142.655367 L119.941061,42.4495603 L0.620100437,0.0450078168" id="path-73"></path>
        <path d="M89.5625895,97.8172448 C91.3298297,99.7561477 93.5566168,101.232195 96.0446201,102.111779 L96.0446201,102.111779 L210.72335,142.655367 L119.941061,42.4495603 L0.620100437,0.0450078168" id="path-75"></path>
        <path d="M89.5625895,97.8172448 C91.3298297,99.7561477 93.5566168,101.232195 96.0446201,102.111779 L96.0446201,102.111779 L210.72335,142.655367 L119.941061,42.4495603 L0.620100437,0.0450078168" id="path-77"></path>
        <path d="M89.5625895,97.8172448 C91.3298297,99.7561477 93.5566168,101.232195 96.0446201,102.111779 L96.0446201,102.111779 L210.72335,142.655367 L119.941061,42.4495603 L0.620100437,0.0450078168" id="path-79"></path>
        <path d="M89.5625895,97.8172448 C91.3298297,99.7561477 93.5566168,101.232195 96.0446201,102.111779 L96.0446201,102.111779 L210.72335,142.655367 L119.941061,42.4495603 L0.620100437,0.0450078168" id="path-81"></path>
        <path d="M89.5625895,97.8172448 C91.3298297,99.7561477 93.5566168,101.232195 96.0446201,102.111779 L96.0446201,102.111779 L210.72335,142.655367 L119.941061,42.4495603 L0.620100437,0.0450078168" id="path-83"></path>
        <path d="M89.5625895,97.8172448 C91.3298297,99.7561477 93.5566168,101.232195 96.0446201,102.111779 L96.0446201,102.111779 L210.72335,142.655367 L119.941061,42.4495603 L0.620100437,0.0450078168" id="path-85"></path>
        <path d="M89.5625895,97.8172448 C91.3298297,99.7561477 93.5566168,101.232195 96.0446201,102.111779 L96.0446201,102.111779 L210.72335,142.655367 L119.941061,42.4495603 L0.620100437,0.0450078168" id="path-87"></path>
        <path d="M89.5625895,97.8172448 C91.3298297,99.7561477 93.5566168,101.232195 96.0446201,102.111779 L96.0446201,102.111779 L210.72335,142.655367 L119.941061,42.4495603 L0.620100437,0.0450078168" id="path-89"></path>
        <path d="M89.5625895,97.8172448 C91.3298297,99.7561477 93.5566168,101.232195 96.0446201,102.111779 L96.0446201,102.111779 L210.72335,142.655367 L119.941061,42.4495603 L0.620100437,0.0450078168" id="path-91"></path>
        <path d="M89.5625895,97.8172448 C91.3298297,99.7561477 93.5566168,101.232195 96.0446201,102.111779 L96.0446201,102.111779 L210.72335,142.655367 L119.941061,42.4495603 L0.620100437,0.0450078168 L89.5625895,97.8172448 Z" id="path-93"></path>
        <path d="M89.5625895,97.8172448 C91.3298297,99.7561477 93.5566168,101.232195 96.0446201,102.111779 L96.0446201,102.111779 L210.72335,142.655367 L119.941061,42.4495603 L0.620100437,0.0450078168 L89.5625895,97.8172448 Z" id="path-95"></path>
        <path d="M89.5625895,97.8172448 C91.3298297,99.7561477 93.5566168,101.232195 96.0446201,102.111779 L96.0446201,102.111779 L210.72335,142.655367 L119.941061,42.4495603 L0.620100437,0.0450078168 L89.5625895,97.8172448 Z" id="path-97"></path>
    </defs>
    <g id="Page-1-Copy" stroke="none" stroke-width="1" fill="none" fill-rule="evenodd">
        <g id="Kingsly-Copy-13">
            <mask id="mask-2" fill="white">
                <use xlink:href="#path-1"></use>
            </mask>
            <use id="Mask" fill="#33BEDE" xlink:href="#path-1"></use>
            <g id="Group-193" mask="url(#mask-2)">
                <g transform="translate(47.000000, 29.000000)">
                    <polygon id="Fill-1" fill="#33BEDE" points="1 411 500 411 500 1 1 1"></polygon>
                    <g id="Group-13" stroke-width="1" fill="none">
                        <g id="Group-4">
                            <mask id="mask-4" fill="white">
                                <use xlink:href="#path-3"></use>
                            </mask>
                            <g id="Clip-3"></g>
                            <path d="M499.850275,253.562278 L499.850275,272.635402 C499.159297,272.988014 498.429662,273.257282 497.675868,273.436794 L444.02437,286.259062 C439.421068,287.364983 436.244822,291.551453 436.438103,296.260431 L438.741364,350.194097 C438.962027,355.641958 434.701798,360.237139 429.225512,360.455117 C428.681105,360.477556 428.136697,360.455117 427.595511,360.3878 L370.336107,353.159247 C366.183794,352.635136 362.147449,354.765236 360.253298,358.480488 L333.532243,410.923565 L297.549821,410.923565 L269.153667,385.279029 C266.636186,383.003076 263.120088,382.172834 259.843981,383.083215 L169.646326,408.086638 C164.38587,409.54998 158.928912,406.491869 157.459978,401.257178 C157.023486,399.707286 156.978387,398.072447 157.324682,396.498513 L164.347214,364.635177 C165.516562,359.317141 162.132539,354.063216 156.786717,352.899596 C156.48069,352.832279 156.171441,352.779387 155.85897,352.742523 L74.6327608,342.885404 C69.2015734,342.22666 65.3359597,337.312526 65.997946,331.909543 C66.1767307,330.434982 66.6905352,329.019724 67.497482,327.771155 L90.8683386,291.644415 C93.8271438,287.065262 92.4951177,280.966671 87.8934267,278.022357 C87.1412427,277.53992 86.3278531,277.163265 85.4725861,276.898806 L0.541830197,250.757407 L0.541830197,225.56165 L29.2601192,191.903196 C32.8003771,187.751986 32.289794,181.533186 28.1197631,178.008665 C27.6623321,177.623997 27.1710771,177.279399 26.6508299,176.981281 L15.6338306,170.698369 C10.8936217,167.980049 9.26362126,161.953582 11.993711,157.236591 C13.4996874,154.635273 16.113811,152.859389 19.0967763,152.410609 L22.3181211,151.945802 C27.726759,151.133191 31.4506336,146.110067 30.6340227,140.72792 C30.4375207,139.439282 29.9865324,138.201933 29.3084393,137.087999 L1.44380674,91.5689465 C1.07174142,90.9470665 0.768935006,90.2851169 0.541830197,89.5975227 C-1.23635214,84.4686154 1.50340162,78.8749009 6.65755331,77.1070307 C7.05377873,76.9707941 7.45966817,76.860202 7.87038963,76.7752545 L61.8440219,65.4275471 C64.2890226,64.9194647 66.4489343,63.5026041 67.8840434,61.4686718 L111.146704,0.546869741 L150.495431,0.546869741 L192.856115,29.3969733 C195.921225,31.4805919 199.899586,31.6857482 203.164419,29.9258919 L257.492399,0.546869741 L300.75506,0.546869741 L345.064657,51.7237479 C347.342148,54.2978182 350.800262,55.5127282 354.19717,54.9293149 L417.705983,44.4951942 C423.109789,43.6473217 428.181796,47.3192987 429.032231,52.6966375 C429.211016,53.8153804 429.193298,54.9549595 428.98069,56.0672913 L418.269718,111.45949 C417.356467,116.396063 420.318493,121.226853 425.147289,122.678975 L491.539206,142.521435 C496.778723,144.056902 499.776185,149.527202 498.23316,154.741057 C497.856263,156.016872 497.221658,157.202932 496.371223,158.228714 L464.415483,196.67949 C461.440571,200.268123 461.387418,205.435497 464.286629,209.085035 L499.850275,253.562278 Z" id="Fill-2" fill="#66CEE6" mask="url(#mask-4)"></path>
                        </g>
                        <polygon id="Fill-5" fill="#251D14" points="288.916617 62.4146346 303.364349 94.4863331 258.619869 343.094087 181.951863 253.578626"></polygon>
                        <path d="M62.7461595,210.847456 L181.935917,253.577665 L288.852352,62.4152757 L174.494611,34.8457962 C170.630608,33.9161817 166.610369,35.6087212 164.588976,39.0146362 L62.7461595,210.847456 Z" id="Fill-7" fill="#802985"></path>
                        <polygon id="Fill-9" fill="#FF6856" points="97.7468762 152.241035 98.2397419 150.715185 218.811457 189.282965 218.318591 190.808815"></polygon>
                        <path d="M151.590205,309.371681 L62.7455152,210.846975 L181.935273,253.577184 L272.616129,354.552546 L158.065108,313.697594 C155.581451,312.811255 153.355502,311.325474 151.590205,309.371681" id="Fill-11" fill="#67236C"></path>
                    </g>
                    <g id="Group-155" stroke-width="1" fill="none" transform="translate(63.000000, 212.000000)">
                        <g id="Group-16">
                            <mask id="mask-6" fill="white">
                                <use xlink:href="#path-5"></use>
                            </mask>
                            <g id="Clip-15"></g>
                            <polygon id="Fill-14" fill="#67236C" mask="url(#mask-6)" points="48.324943 -48.1794342 131.673859 -67.2217186 150.979668 14.9963504 67.6291395 34.0402253"></polygon>
                        </g>
                        <g id="Group-19">
                            <mask id="mask-8" fill="white">
                                <use xlink:href="#path-7"></use>
                            </mask>
                            <g id="Clip-18"></g>
                            <path d="M215.02729,-86.2746598 L234.376635,-4.05977195 L192.162814,5.59656856 C182.615524,-16.2960143 192.867452,-41.6783042 215.061151,-51.0960594 C217.429833,-52.1012987 219.885588,-52.8981734 222.396165,-53.4771403 L216.156002,-80.0396319 C177.608881,-71.2771908 153.560871,-33.3500883 162.445445,4.67562948 C163.017863,7.12828589 163.722502,9.54754036 164.557748,11.9270306 L150.91646,15.1081673 L131.567115,-67.1083111 L215.02729,-86.2746598 Z" id="Fill-17" fill="#67236C" mask="url(#mask-8)"></path>
                        </g>
                        <g id="Group-22">
                            <mask id="mask-10" fill="white">
                                <use xlink:href="#path-9"></use>
                            </mask>
                            <g id="Clip-21"></g>
                            <polygon id="Fill-20" fill="#67236C" mask="url(#mask-10)" points="215.0131 -86.2630487 257.04794 -95.8669004 266.682301 -54.8350085 224.647462 -45.2311567"></polygon>
                        </g>
                        <g id="Group-25">
                            <mask id="mask-12" fill="white">
                                <use xlink:href="#path-11"></use>
                            </mask>
                            <g id="Clip-24"></g>
                            <polygon id="Fill-23" fill="#67236C" mask="url(#mask-12)" points="257.062613 -95.8546531 298.358953 -105.289905 307.993314 -64.2580126 266.696974 -54.8227611"></polygon>
                        </g>
                        <g id="Group-28">
                            <mask id="mask-14" fill="white">
                                <use xlink:href="#path-13"></use>
                            </mask>
                            <g id="Clip-27"></g>
                            <polygon id="Fill-26" fill="#67236C" mask="url(#mask-14)" points="224.667295 -45.2165235 308.016211 -64.2588079 317.684433 -23.0869459 234.333905 -4.04466155"></polygon>
                        </g>
                        <g id="Group-31">
                            <mask id="mask-16" fill="white">
                                <use xlink:href="#path-15"></use>
                            </mask>
                            <g id="Clip-30"></g>
                            <polygon id="Fill-29" fill="#67236C" mask="url(#mask-16)" points="224.668907 -45.1404943 266.703747 -54.7443461 276.338108 -13.7124541 234.303268 -4.10860239"></polygon>
                        </g>
                        <g id="Group-34">
                            <mask id="mask-18" fill="white">
                                <use xlink:href="#path-17"></use>
                            </mask>
                            <g id="Clip-33"></g>
                            <polygon id="Fill-32" fill="#67236C" mask="url(#mask-18)" points="266.697942 -54.7475272 307.995894 -64.1827787 317.630255 -23.1508868 276.332303 -13.7156353"></polygon>
                        </g>
                        <g id="Group-37">
                            <mask id="mask-20" fill="white">
                                <use xlink:href="#path-19"></use>
                            </mask>
                            <g id="Clip-36"></g>
                            <polygon id="Fill-35" fill="#67236C" mask="url(#mask-20)" points="234.304236 -4.10876145 317.653152 -23.1526364 327.321375 18.0192256 243.969234 37.0631005"></polygon>
                        </g>
                        <g id="Group-40">
                            <mask id="mask-22" fill="white">
                                <use xlink:href="#path-21"></use>
                            </mask>
                            <g id="Clip-39"></g>
                            <polygon id="Fill-38" fill="#67236C" mask="url(#mask-22)" points="150.973541 15.0012811 234.322457 -4.04259381 253.628266 78.1786564 170.277737 97.2193502"></polygon>
                        </g>
                        <g id="Group-43">
                            <mask id="mask-24" fill="white">
                                <use xlink:href="#path-23"></use>
                            </mask>
                            <g id="Clip-42"></g>
                            <polygon id="Fill-41" fill="#67236C" mask="url(#mask-24)" points="234.312137 -4.04513872 317.661053 -23.0874231 336.965249 59.1322365 253.616333 78.1745209"></polygon>
                        </g>
                        <g id="Group-46">
                            <mask id="mask-26" fill="white">
                                <use xlink:href="#path-25"></use>
                            </mask>
                            <g id="Clip-45"></g>
                            <polygon id="Fill-44" fill="#67236C" mask="url(#mask-26)" points="3.58280764 135.298988 86.9317236 116.256704 106.237533 198.476363 22.8870041 217.518648"></polygon>
                        </g>
                        <g id="Group-49">
                            <mask id="mask-28" fill="white">
                                <use xlink:href="#path-27"></use>
                            </mask>
                            <g id="Clip-48"></g>
                            <polygon id="Fill-47" fill="#67236C" mask="url(#mask-28)" points="86.9402695 116.254159 170.289185 97.2102839 189.593382 179.431534 106.244466 198.472228"></polygon>
                        </g>
                        <g id="Group-52">
                            <mask id="mask-30" fill="white">
                                <use xlink:href="#path-29"></use>
                            </mask>
                            <g id="Clip-51"></g>
                            <polygon id="Fill-50" fill="#67236C" mask="url(#mask-30)" points="170.265483 97.2277802 253.616011 78.1839052 272.920207 160.405155 189.569679 179.445849"></polygon>
                        </g>
                        <g id="Group-55">
                            <mask id="mask-32" fill="white">
                                <use xlink:href="#path-31"></use>
                            </mask>
                            <g id="Clip-54"></g>
                            <polygon id="Fill-53" fill="#67236C" mask="url(#mask-32)" points="253.618913 78.1813603 336.967829 59.1390759 356.273638 141.358736 272.92311 160.40102"></polygon>
                        </g>
                        <g id="Group-58">
                            <mask id="mask-34" fill="white">
                                <use xlink:href="#path-33"></use>
                            </mask>
                            <g id="Clip-57"></g>
                            <polygon id="Fill-56" fill="#67236C" mask="url(#mask-34)" points="106.231405 198.480499 189.580321 179.436624 208.88613 261.657874 125.535602 280.698568"></polygon>
                        </g>
                        <g id="Group-61">
                            <mask id="mask-36" fill="white">
                                <use xlink:href="#path-35"></use>
                            </mask>
                            <g id="Clip-60"></g>
                            <polygon id="Fill-59" fill="#67236C" mask="url(#mask-36)" points="189.588706 179.449667 272.937622 160.407382 292.243431 242.627042 208.892902 261.669326"></polygon>
                        </g>
                        <g id="Group-64">
                            <mask id="mask-38" fill="white">
                                <use xlink:href="#path-37"></use>
                            </mask>
                            <g id="Clip-63"></g>
                            <polygon id="Fill-62" fill="#67236C" mask="url(#mask-38)" points="272.92569 160.38925 356.276218 141.345375 375.580415 223.566625 292.231499 242.607319"></polygon>
                        </g>
                        <g id="Group-67">
                            <mask id="mask-40" fill="white">
                                <use xlink:href="#path-39"></use>
                            </mask>
                            <g id="Clip-66"></g>
                            <path d="M57.8461107,-7.03286232 L-25.2270771,11.9426182 C-30.5384723,-10.6863978 -16.248981,-33.2772402 6.69127991,-38.518163 C29.6315408,-43.7574952 52.5347155,-29.6618784 57.8461107,-7.03286232" id="Fill-65" fill="#67236C" mask="url(#mask-40)"></path>
                        </g>
                        <g id="Group-70">
                            <mask id="mask-42" fill="white">
                                <use xlink:href="#path-41"></use>
                            </mask>
                            <g id="Clip-69"></g>
                            <path d="M-25.2751279,11.9585239 C-30.8832131,-10.5989166 -16.8904118,-33.3710838 5.97728908,-38.90149 C28.84499,-44.4334867 51.9287585,-30.6305345 57.5368437,-8.07309403 C57.6239157,-7.72635013 57.704538,-7.38119679 57.7819354,-7.03286232 L-25.2751279,11.9585239 Z" id="Fill-68" fill="#67236C" mask="url(#mask-42)"></path>
                        </g>
                        <g id="Group-73">
                            <mask id="mask-44" fill="white">
                                <use xlink:href="#path-43"></use>
                            </mask>
                            <g id="Clip-72"></g>
                            <path d="M106.413128,198.579909 C129.280829,193.047913 152.36621,206.850865 157.972682,229.409896 C163.580768,251.967336 149.586354,274.737913 126.718653,280.268319 C126.368752,280.35421 126.017239,280.435329 125.665726,280.510086 L106.413128,198.579909 Z" id="Fill-71" fill="#67236C" mask="url(#mask-44)"></path>
                        </g>
                        <g id="Group-76">
                            <mask id="mask-46" fill="white">
                                <use xlink:href="#path-45"></use>
                            </mask>
                            <g id="Clip-75"></g>
                            <path d="M147.966007,189.084693 C170.906268,183.843771 193.809443,197.940978 199.120838,220.569994 C204.433846,243.19742 190.142742,265.791443 167.202481,271.030775 L147.966007,189.084693 Z" id="Fill-74" fill="#67236C" mask="url(#mask-46)"></path>
                        </g>
                        <g id="Group-79">
                            <mask id="mask-48" fill="white">
                                <use xlink:href="#path-47"></use>
                            </mask>
                            <g id="Clip-78"></g>
                            <path d="M189.631274,179.556871 C212.571535,174.317539 235.47471,188.413156 240.787718,211.042172 C246.099113,233.669597 231.808009,256.263621 208.867748,261.504543 L189.631274,179.556871 Z" id="Fill-77" fill="#67236C" mask="url(#mask-48)"></path>
                        </g>
                        <g id="Group-82">
                            <mask id="mask-50" fill="white">
                                <use xlink:href="#path-49"></use>
                            </mask>
                            <g id="Clip-81"></g>
                            <path d="M231.296703,170.046067 C254.149892,164.448857 277.273971,178.188187 282.944942,200.729722 C288.617525,223.272847 274.690834,246.083188 251.837645,251.677217 C251.405509,251.783785 250.970149,251.8824 250.534789,251.976244 L231.296703,170.046067 Z" id="Fill-80" fill="#67236C" mask="url(#mask-50)"></path>
                        </g>
                        <g id="Group-85">
                            <mask id="mask-52" fill="white">
                                <use xlink:href="#path-51"></use>
                            </mask>
                            <g id="Clip-84"></g>
                            <path d="M58.1044245,-7.09648506 L74.2288786,-10.770698 C77.4698939,3.03543539 91.4433459,11.6340479 105.43776,8.43541497 C119.432173,5.236782 128.149053,-8.54549283 124.908038,-22.3500356 L141.24211,-26.0878713 C146.558343,-3.45885522 132.272076,19.1367589 109.331815,24.3824533 C86.3915544,29.6249666 63.4851548,15.532531 58.1689223,-7.09648506 L58.1044245,-7.09648506 Z" id="Fill-83" fill="#67236C" mask="url(#mask-52)"></path>
                        </g>
                        <g id="Group-88">
                            <mask id="mask-54" fill="white">
                                <use xlink:href="#path-53"></use>
                            </mask>
                            <g id="Clip-87"></g>
                            <path d="M48.1714382,-47.9899976 L64.2958924,-51.6642105 C67.8529469,-37.9264716 82.0247297,-29.6332481 95.9514207,-33.1420419 C109.436302,-36.5394959 117.825855,-49.8016549 114.991176,-63.2435481 L131.309124,-66.9813838 C136.917209,-44.4239433 122.924408,-21.6517761 100.056707,-16.1213699 C77.1890059,-10.5893732 54.1036249,-24.3923254 48.4971522,-46.9497659 C48.4100801,-47.2949192 48.3294579,-47.6416631 48.2520605,-47.9899976 L48.1714382,-47.9899976 Z" id="Fill-86" fill="#67236C" mask="url(#mask-54)"></path>
                        </g>
                        <g id="Group-91">
                            <mask id="mask-56" fill="white">
                                <use xlink:href="#path-55"></use>
                            </mask>
                            <g id="Clip-90"></g>
                            <path d="M232.60359,-33.2926688 L238.521264,-34.6446519 C239.841857,-29.5914162 245.06618,-26.5534306 250.187307,-27.8561061 C255.131065,-29.1142457 258.204386,-33.9750226 257.177258,-38.9073751 L263.191679,-40.2911695 C265.1508,-31.9454574 259.879716,-23.6140603 251.420828,-21.6815197 C242.960327,-19.7489792 234.514338,-24.9469566 232.555216,-33.2926688 L232.60359,-33.2926688 Z" id="Fill-89" fill="#67236C" mask="url(#mask-56)"></path>
                        </g>
                        <g id="Group-94">
                            <mask id="mask-58" fill="white">
                                <use xlink:href="#path-57"></use>
                            </mask>
                            <g id="Clip-93"></g>
                            <path d="M10.5372847,99.9010484 L20.4699485,97.6265357 C21.8856755,106.298314 30.1607454,112.197732 38.9534103,110.801213 C47.7444627,109.404694 53.7250227,101.241898 52.3092956,92.5701189 C52.1915871,91.8591348 52.0271177,91.1576942 51.8158873,90.4689781 L61.9259201,88.1626539 C64.9250686,102.226459 55.7986275,116.02623 41.5429976,118.984688 C27.690479,121.858845 14.0088797,113.438376 10.5372847,99.9010484" id="Fill-92" fill="#67236C" mask="url(#mask-58)"></path>
                        </g>
                        <g id="Group-97">
                            <mask id="mask-60" fill="white">
                                <use xlink:href="#path-59"></use>
                            </mask>
                            <g id="Clip-96"></g>
                            <path d="M280.186531,122.582235 L290.183693,120.371345 C292.776505,128.777499 301.783625,133.517393 310.303787,130.961349 C318.016113,128.647072 322.811526,121.066423 321.529632,113.213787 L331.639665,110.907463 C334.908091,124.923552 326.039642,138.899876 311.830773,142.122367 C297.621904,145.34804 283.454958,136.599914 280.186531,122.582235" id="Fill-95" fill="#67236C" mask="url(#mask-60)"></path>
                        </g>
                        <g id="Group-100">
                            <mask id="mask-62" fill="white">
                                <use xlink:href="#path-61"></use>
                            </mask>
                            <g id="Clip-99"></g>
                            <path d="M265.465066,-84.1272335 L271.382741,-85.4792166 C272.446955,-80.3687205 277.511646,-77.076244 282.694045,-78.1276096 C287.87322,-79.1789753 291.210982,-84.17336 290.146768,-89.2838561 C290.114519,-89.4381412 290.079045,-89.5908358 290.038734,-89.7419398 L296.053156,-91.1098286 C298.009052,-82.765707 292.73313,-74.4359005 284.274242,-72.5081316 C275.813741,-70.5803628 267.372589,-75.7815213 265.416693,-84.1272335 L265.465066,-84.1272335 Z" id="Fill-98" fill="#67236C" mask="url(#mask-62)"></path>
                        </g>
                        <g id="Group-103">
                            <mask id="mask-64" fill="white">
                                <use xlink:href="#path-63"></use>
                            </mask>
                            <g id="Clip-102"></g>
                            <path d="M216.156324,-80.0397909 L222.396488,-53.4295823 C198.862847,-48.0311933 184.223455,-24.839116 189.694482,-1.62477085 C190.281412,0.862878067 191.09086,3.29644766 192.114763,5.64412655 L164.703191,11.9268716 C151.760091,-24.9456841 171.568983,-65.1870636 208.948693,-77.9545558 C211.359299,-78.7784702 213.815053,-79.4751392 216.301444,-80.0397909 L216.156324,-80.0397909 Z" id="Fill-101" fill="#67236C" mask="url(#mask-64)"></path>
                        </g>
                        <g id="Group-106">
                            <mask id="mask-66" fill="white">
                                <use xlink:href="#path-65"></use>
                            </mask>
                            <g id="Clip-105"></g>
                            <path d="M242.133465,30.5357261 L248.484887,57.5753882 C212.79502,65.7222793 176.624645,45.9960505 164.637726,11.8465479 L192.049298,5.56539342 C200.414664,24.750829 221.5119,35.2708481 242.133465,30.5357261" id="Fill-104" fill="#67236C" mask="url(#mask-66)"></path>
                        </g>
                        <g id="Group-109">
                            <mask id="mask-68" fill="white">
                                <use xlink:href="#path-67"></use>
                            </mask>
                            <g id="Clip-108"></g>
                            <path d="M170.152773,97.2449583 C175.464168,119.873974 161.174677,142.466407 138.234416,147.70574 C115.295767,152.946662 92.39098,138.849455 87.0795848,116.220439 L170.152773,97.2449583 Z" id="Fill-107" fill="#67236C" mask="url(#mask-68)"></path>
                        </g>
                        <g id="Group-112">
                            <mask id="mask-70" fill="white">
                                <use xlink:href="#path-69"></use>
                            </mask>
                            <g id="Clip-111"></g>
                            <path d="M258.418518,-88.4694851 C261.066154,-77.2178045 253.963332,-65.9788485 242.55528,-63.3671353 C231.148841,-60.7570126 219.755302,-67.7618757 217.109279,-79.0151468 C216.519124,-81.5250637 216.403028,-84.1208712 216.769053,-86.6721429 L255.322623,-95.4679859 C256.778661,-93.341396 257.828363,-90.9698586 258.418518,-88.4694851" id="Fill-110" fill="#67236C" mask="url(#mask-70)"></path>
                        </g>
                        <g id="Group-115">
                            <mask id="mask-72" fill="white">
                                <use xlink:href="#path-71"></use>
                            </mask>
                            <g id="Clip-114"></g>
                            <polygon id="Fill-113" fill="#67236C" mask="url(#mask-72)" points="0.308253493 74.2795371 27.5472939 68.0572337 29.687009 77.1664187 2.44796856 83.3919032"></polygon>
                        </g>
                        <g id="Group-118">
                            <mask id="mask-74" fill="white">
                                <use xlink:href="#path-73"></use>
                            </mask>
                            <g id="Clip-117"></g>
                            <path d="M259.69235,0.745335065 C265.044057,0.745335065 269.383147,5.02396395 269.383147,10.3046509 C269.383147,15.5837473 265.044057,19.8639667 259.69235,19.8639667 C254.340644,19.8639667 250.001553,15.5837473 250.001553,10.3046509 C250.001553,5.02396395 254.340644,0.745335065 259.69235,0.745335065" id="Fill-116" fill="#67236C" mask="url(#mask-74)"></path>
                        </g>
                        <g id="Group-121">
                            <mask id="mask-76" fill="white">
                                <use xlink:href="#path-75"></use>
                            </mask>
                            <g id="Clip-120"></g>
                            <path d="M289.313134,-6.03096331 C294.66484,-6.03096331 299.003931,-1.75074386 299.003931,3.52835252 C299.003931,8.80903947 294.66484,13.0876684 289.313134,13.0876684 C283.961427,13.0876684 279.622337,8.80903947 279.622337,3.52835252 C279.622337,-1.75074386 283.961427,-6.03096331 289.313134,-6.03096331" id="Fill-119" fill="#67236C" mask="url(#mask-76)"></path>
                        </g>
                        <g id="Group-124">
                            <mask id="mask-78" fill="white">
                                <use xlink:href="#path-77"></use>
                            </mask>
                            <g id="Clip-123"></g>
                            <path d="M268.189131,33.7340409 C273.540838,33.7340409 277.881541,38.0126698 277.881541,43.2933568 C277.881541,48.5724532 273.540838,52.8526726 268.189131,52.8526726 C262.839037,52.8526726 258.498334,48.5724532 258.498334,43.2933568 C258.498334,38.0126698 262.839037,33.7340409 268.189131,33.7340409" id="Fill-122" fill="#67236C" mask="url(#mask-78)"></path>
                        </g>
                        <g id="Group-127">
                            <mask id="mask-80" fill="white">
                                <use xlink:href="#path-79"></use>
                            </mask>
                            <g id="Clip-126"></g>
                            <path d="M297.810076,26.9741254 C303.161782,26.9741254 307.502485,31.2527543 307.502485,36.5334412 C307.502485,41.8125376 303.161782,46.0927571 297.810076,46.0927571 C292.45837,46.0927571 288.119279,41.8125376 288.119279,36.5334412 C288.119279,31.2527543 292.45837,26.9741254 297.810076,26.9741254" id="Fill-125" fill="#67236C" mask="url(#mask-80)"></path>
                        </g>
                        <g id="Group-130">
                            <mask id="mask-82" fill="white">
                                <use xlink:href="#path-81"></use>
                            </mask>
                            <g id="Clip-129"></g>
                            <path d="M278.348827,12.5160181 C283.700534,12.5160181 288.039624,16.794647 288.039624,22.0753339 C288.039624,27.3544303 283.700534,31.6346498 278.348827,31.6346498 C272.997121,31.6346498 268.656418,27.3544303 268.656418,22.0753339 C268.656418,16.794647 272.997121,12.5160181 278.348827,12.5160181" id="Fill-128" fill="#67236C" mask="url(#mask-82)"></path>
                        </g>
                        <g id="Group-133">
                            <mask id="mask-84" fill="white">
                                <use xlink:href="#path-83"></use>
                            </mask>
                            <g id="Clip-132"></g>
                            <path d="M254.144893,29.0089395 C255.359064,34.1432942 252.122886,39.2744677 246.921138,40.4705751 C246.90985,40.4721657 246.900176,40.4753468 246.888889,40.4769374 C246.218111,40.6328131 245.53121,40.7171132 244.841083,40.7314283 L240.568103,22.5369169 C241.193731,22.2474334 241.848384,22.0231633 242.519162,21.8688782 C247.724135,20.6695896 252.925884,23.8586792 254.141668,28.9898527 C254.143281,28.996215 254.143281,29.0025772 254.144893,29.0089395" id="Fill-131" fill="#67236C" mask="url(#mask-84)"></path>
                        </g>
                        <g id="Group-136">
                            <mask id="mask-86" fill="white">
                                <use xlink:href="#path-85"></use>
                            </mask>
                            <g id="Clip-135"></g>
                            <path d="M262.449632,62.665525 C263.665416,67.7998797 260.432463,72.9310532 255.227489,74.1303418 C255.222652,74.1303418 255.216202,74.1319323 255.209752,74.1335229 C254.534137,74.2909892 253.840786,74.3705176 253.145822,74.3721082 L248.872841,56.1760061 C249.49847,55.8865227 250.151511,55.6638431 250.8239,55.5079674 C256.028874,54.31186 261.229011,57.5025401 262.443182,62.6353042 C262.444795,62.6448477 262.448019,62.6559816 262.449632,62.665525" id="Fill-134" fill="#67236C" mask="url(#mask-86)"></path>
                        </g>
                        <g id="Group-139">
                            <mask id="mask-88" fill="white">
                                <use xlink:href="#path-87"></use>
                            </mask>
                            <g id="Clip-138"></g>
                            <path d="M286.587456,47.5878913 C291.939162,47.5878913 296.279865,51.8665202 296.279865,57.1472072 C296.279865,62.4263036 291.939162,66.706523 286.587456,66.706523 C281.23575,66.706523 276.896659,62.4263036 276.896659,57.1472072 C276.896659,51.8665202 281.23575,47.5878913 286.587456,47.5878913" id="Fill-137" fill="#67236C" mask="url(#mask-88)"></path>
                        </g>
                        <g id="Group-142">
                            <mask id="mask-90" fill="white">
                                <use xlink:href="#path-89"></use>
                            </mask>
                            <g id="Clip-141"></g>
                            <path d="M280.315527,-11.9000015 C281.439402,-6.74656002 278.116152,-1.67105639 272.891828,-0.562430239 C267.669118,0.546195907 262.523804,-2.73196548 261.39993,-7.88540696 C261.225786,-8.68069114 261.154838,-9.49506214 261.191924,-10.3094331 L279.331935,-14.4608166 C279.780195,-13.655989 280.110747,-12.7939009 280.315527,-11.9000015" id="Fill-140" fill="#67236C" mask="url(#mask-90)"></path>
                        </g>
                        <g id="Group-145">
                            <mask id="mask-92" fill="white">
                                <use xlink:href="#path-91"></use>
                            </mask>
                            <g id="Clip-144"></g>
                            <path d="M247.066741,-4.29676663 C248.282525,0.835997462 245.049572,5.96717099 239.844598,7.16645953 L239.826861,7.17123123 C238.906155,7.37800512 237.962875,7.45276183 237.022819,7.3939108 L234.328423,-4.05977195 L227.959263,-2.59485849 L227.959263,-2.67438691 L246.08315,-6.80986464 C246.531409,-6.0225333 246.863573,-5.1779415 247.066741,-4.29676663" id="Fill-143" fill="#67236C" mask="url(#mask-92)"></path>
                        </g>
                        <g id="Group-148">
                            <mask id="mask-94" fill="white">
                                <use xlink:href="#path-93"></use>
                            </mask>
                            <g id="Clip-147"></g>
                            <path d="M22.921188,217.651301 C22.921188,217.651301 18.4708386,152.183508 87.080391,116.219166 L106.042749,198.675821 L22.921188,217.651301 Z" id="Fill-146" fill="#67236C" mask="url(#mask-94)"></path>
                        </g>
                        <g id="Group-151">
                            <mask id="mask-96" fill="white">
                                <use xlink:href="#path-95"></use>
                            </mask>
                            <g id="Clip-150"></g>
                            <path d="M189.889588,179.493089 C189.889588,179.493089 185.455363,114.00939 254.064916,78.0625449 L272.9789,160.517609 L189.889588,179.493089 Z" id="Fill-149" fill="#67236C" mask="url(#mask-96)"></path>
                        </g>
                        <g id="Group-154">
                            <mask id="mask-98" fill="white">
                                <use xlink:href="#path-97"></use>
                            </mask>
                            <g id="Clip-153"></g>
                            <path d="M272.785568,160.342646 C272.785568,160.342646 339.200582,155.952677 375.611212,223.615455 L292.022042,242.290318 L272.785568,160.342646 Z" id="Fill-152" fill="#67236C" mask="url(#mask-98)"></path>
                        </g>
                    </g>
                    <g id="Group-192" stroke-width="1" fill="none" transform="translate(94.000000, 24.000000)">
                        <polygon id="Fill-156" fill="#F07083" points="113.575074 146.807711 179.39249 169.493281 299.918423 61.5644778 242.734117 45.0032102"></polygon>
                        <path d="M113.575074,146.807711 L131.854117,325.903472 C132.120988,328.53596 133.837964,330.799707 136.307322,331.771259 L193.797083,354.408732 L179.328184,169.493281 L113.575074,146.807711 Z" id="Fill-158" fill="#67236C"></path>
                        <path d="M299.564898,61.5644778 L299.564898,242.071073 C299.584031,246.47031 297.84937,250.698002 294.741772,253.822679 L193.877466,354.408732 L179.408567,169.493281 L219.021198,133.885754 L219.776796,133.212401 L258.617753,98.3263237 L259.389428,97.6369388 L299.564898,61.5644778 Z" id="Fill-160" fill="#EE455D"></path>
                        <polygon id="Fill-162" fill="#FF6856" points="31.8100364 209.958727 30.2666871 209.413632 133.912237 24.2737296 135.535969 24.6745347"></polygon>
                        <polygon id="Fill-164" fill="#FF6856" points="39.9227483 66.6138208 40.3889684 65.0747291 159.365122 100.916326 158.898901 102.455418"></polygon>
                        <polygon id="Fill-166" fill="#FF6856" points="111.823051 307.305794 29.9612325 209.252829 32.002955 209.60714 114.443529 308.251694"></polygon>
                        <polygon id="Fill-168" fill="#5F2A69" points="155.668478 113.070341 156.170067 111.547281 220.026144 132.422815 219.526163 133.945875"></polygon>
                        <polygon id="Fill-170" fill="#5F2A69" points="199.368735 79.7353789 199.849424 78.2043033 259.609194 96.8577737 259.128505 98.387246"></polygon>
                        <polygon id="Fill-172" fill="#5F2A69" points="267.620302 280.788527 266.060877 282.345254 258.617432 98.326003 258.585278 97.6686826 259.389106 97.6366182 260.192934 97.6045538"></polygon>
                        <polygon id="Fill-174" fill="#5F2A69" points="230.178006 318.127532 228.650733 319.650591 219.022484 133.885433 218.988723 133.244145 219.776475 133.212081 220.596379 133.163984"></polygon>
                        <polygon id="Fill-176" fill="#5F2A69" points="184.42413 234.230843 184.247288 232.180324 299.548341 121.652701 299.548341 123.865145"></polygon>
                        <polygon id="Fill-178" fill="#5F2A69" points="189.344521 296.884861 188.989229 294.944964 299.579851 183.312721 299.549305 185.622962"></polygon>
                        <polygon id="Fill-180" fill="#FF6856" points="184.42413 234.055611 120.342982 213.067852 120.16614 211.320342 184.279441 232.324133"></polygon>
                        <polygon id="Fill-182" fill="#FF6856" points="189.295809 296.72518 126.75801 276.043635 126.629397 274.312157 189.167196 294.993702"></polygon>
                        <polygon id="Fill-184" fill="#FF6856" points="128.461642 295.186248 36.5198239 262.158303 34.8317856 260.268106 128.863556 294.047962"></polygon>
                        <polygon id="Fill-186" fill="#FF6856" points="122.867001 270.56014 6.40843636 228.732118 4.76862775 226.872382 123.268915 269.437886"></polygon>
                        <path d="M292.636387,20.5063218 C301.433478,19.8858755 308.777248,13.5723932 310.68875,4.98714745 C311.060119,3.04725066 311.542415,0.594323314 313.487678,0.177485987 C315.113018,0.071673435 316.585631,1.13621184 316.99076,2.71057436 C317.336406,4.24645959 317.567908,5.80639312 317.682052,7.37594598 C318.696482,12.7467346 324.112674,16.1455621 329.499927,17.5082995 C331.218511,17.7792437 332.861535,18.4061029 334.322894,19.352003 C335.809975,20.3956996 336.213497,22.420567 335.239257,23.9532458 C334.633171,24.5448342 333.875966,24.9600683 333.052846,25.1556612 C329.385784,26.390141 325.495257,27.5123953 322.746167,30.2378701 C319.227009,33.7168586 318.374951,38.9754218 316.172463,43.4003104 C315.947391,43.950215 315.567985,44.423165 315.079257,44.7630478 C313.873516,45.4684648 312.281937,44.314146 311.863946,42.9674408 C311.66942,41.5742422 311.66942,40.1602018 311.863946,38.7670031 C311.863946,34.7910163 308.952482,31.3120279 305.578013,29.1476802 C302.054033,27.2767219 298.348387,25.7729011 294.517344,24.6586628 C293.504521,24.2738899 292.345401,23.7127628 292.136406,22.6546372 C291.929018,21.5965117 291.798798,21.1636422 292.636387,20.442193" id="Fill-188" fill="#FFFFFF"></path>
                        <path d="M1.07134163,322.24829 C9.86360957,321.619827 17.197734,315.309551 19.1092364,306.729115 C19.4950737,304.789218 19.9773703,302.336291 21.9065569,301.919454 C23.535112,301.807228 25.0109397,302.87337 25.4112459,304.450939 C25.7617148,305.986824 25.9980402,307.546758 26.1186144,309.117914 C27.1314373,314.488702 32.5492364,317.88753 37.9348823,319.234235 C39.6550737,319.511592 41.2980976,320.144864 42.7578488,321.093971 C44.2449301,322.137667 44.6484517,324.162535 43.6742124,325.69361 C43.0665187,326.285199 42.3109206,326.69883 41.487801,326.896026 C37.8223464,328.116077 33.9318201,329.254363 31.1827292,331.979838 C27.6780402,335.441191 26.8099062,340.71739 24.6074182,345.126246 C24.3903847,345.679357 24.015801,346.15872 23.530289,346.505016 C22.3084708,347.210433 20.7329684,346.056114 20.314978,344.709409 C20.1300976,343.31621 20.1300976,341.903773 20.314978,340.508971 C20.314978,336.532984 17.4211981,333.053996 14.029045,330.889648 C10.4970258,329.042738 6.78494928,327.559759 2.95229856,326.464759 C1.92339904,326.094416 0.781963636,325.534892 0.572968421,324.476766 C0.363973206,323.417037 0.219284211,322.985771 1.07134163,322.264322" id="Fill-190" fill="#FFFFFF"></path>
                    </g>
                </g>
            </g>
            <rect id="Rectangle" fill="#33BEDE" mask="url(#mask-2)" x="-34" y="435" width="663" height="111" rx="38"></rect>
        </g>
    </g>
</svg>