<?xml version="1.0" encoding="UTF-8"?>
<svg width="598px" height="546px" viewBox="0 0 598 546" version="1.1" xmlns="http://www.w3.org/2000/svg" xmlns:xlink="http://www.w3.org/1999/xlink">
    <!-- Generator: Sketch 62 (91390) - https://sketch.com -->
    <title>Kingsly Copy 9</title>
    <desc>Created with Sketch.</desc>
    <defs>
        <rect id="path-1" x="0" y="0" width="598" height="546" rx="52"></rect>
    </defs>
    <g id="Page-1-Copy" stroke="none" stroke-width="1" fill="none" fill-rule="evenodd">
        <g id="Kingsly-Copy-9">
            <mask id="mask-2" fill="white">
                <use xlink:href="#path-1"></use>
            </mask>
            <use id="Mask" fill="#93C061" xlink:href="#path-1"></use>
            <g id="Probed" mask="url(#mask-2)">
                <g transform="translate(63.000000, 34.000000)">
                    <rect id="Rectangle" stroke="none" fill="#93C061" fill-rule="nonzero" x="0" y="0" width="464" height="383"></rect>
                    <path d="M42.543472,138.101012 L18.2982683,98.2393432 C16.8498726,95.8475038 16.6506845,92.9034779 17.7637326,90.3388342 C18.8767806,87.7741906 21.1643292,85.9062941 23.9025366,85.3261975 L70.9993693,75.3907064 C73.143091,74.9257176 75.0290666,73.6630782 76.2739748,71.8594175 L120.328919,9.6428937 C123.006737,5.86918703 128.186974,4.87290006 132.076903,7.38346727 L132.076903,7.38346727 L185.347422,43.7736995 C188.022734,45.5956516 191.494256,45.7689777 194.338227,44.2225922 L261.364677,7.8922123 C264.934916,5.94393481 269.38338,6.75498434 272.033765,9.83741386 L318.201548,63.3304568 C320.171152,65.6176004 323.193355,66.7124219 326.173395,66.2183329 L381.616692,57.0010701 C384.406919,56.5392893 387.246929,57.4694121 389.221283,59.4916256 C391.195636,61.5138392 392.054698,64.3724583 391.521562,67.1460444 L382.171125,115.656379 C381.330273,120.000852 383.92068,124.275331 388.164995,125.546981 L446.050793,142.919127 C448.822459,143.75453 450.991443,145.919735 451.828892,148.687154 C452.66634,151.454574 452.061092,154.456871 450.216533,156.685169 L422.389992,190.292266 C419.780586,193.430671 419.73678,197.967406 422.285099,201.155469 L456.135479,243.755383 C457.965721,246.06637 458.489412,249.149799 457.524562,251.934139 C456.559712,254.718478 454.239546,256.81927 451.370353,257.506462 L404.558229,268.698852 C400.532215,269.650386 397.751817,273.325023 397.935003,277.452259 L399.942949,324.73562 C400.059802,327.282557 399.045279,329.751212 397.170445,331.481998 C395.29561,333.212784 392.751513,334.029332 390.217895,333.713474 L340.25899,327.279345 C336.637985,326.82513 333.120352,328.686131 331.462985,331.932866 L303.381705,387.296295 C302.158805,389.684869 299.893486,391.370107 297.251556,391.856694 C294.609627,392.343282 291.891288,391.575928 289.895498,389.780168 L251.939317,355.409953 C249.741592,353.420244 246.674579,352.696974 243.817623,353.494677 L165.163065,375.400639 C162.241139,376.216194 159.104915,375.442786 156.899126,373.362712 C154.693337,371.282638 153.740759,368.200278 154.389084,365.240702 L160.532801,337.349504 C161.071936,334.96591 160.574286,332.465818 159.163274,330.469288 C157.752261,328.472759 155.560062,327.166812 153.130371,326.875342 L82.162952,318.286529 C79.2101263,317.930333 76.6490009,316.081095 75.3850495,313.392604 C74.1210982,310.704114 74.3324233,307.555205 75.944312,305.059158 L96.3384543,273.412225 C97.7982812,271.142131 98.1115165,268.32113 97.1851529,265.786843 C96.2587894,263.252557 94.1993313,261.296355 91.6182817,260.49908 L15.0915479,236.917251 C12.3158107,236.063879 10.1559821,233.873738 9.34416375,231.089204 C8.53234543,228.30467 9.17739718,225.299133 11.0606704,223.091357 L42.5284873,186.117564 C44.1866683,184.164225 44.8909548,181.576659 44.45108,179.053912 C44.0112052,176.531165 42.4725596,174.333559 40.2508168,173.054788 L30.6606249,167.533408 C27.4657605,165.714089 25.7763672,162.073005 26.4521141,158.462967 C27.127861,154.852929 30.020293,152.067027 33.6575599,151.522903 L36.3997553,151.118899 C39.2637089,150.693308 41.7252487,148.866788 42.9595908,146.251347 C44.1939328,143.635907 44.0377867,140.577541 42.543472,138.101012 Z" id="Path" stroke="none" fill="#B0D77B" fill-rule="nonzero"></path>
                    <path d="M206.998787,358.17069 L206.998787,383.653073 C207.090061,390.374759 202.016803,395.902092 195.667348,395.998716 C189.317894,396.095341 184.096653,390.724666 184.005379,384.00298 C183.998207,383.86109 183.998207,383.718896 184.005379,383.577006 L184.005379,358.17069 C184.005379,351.449004 189.152629,346 195.502083,346 C201.851538,346 206.998787,351.449004 206.998787,358.17069 L206.998787,358.17069 Z" id="Path" stroke="none" fill="#BEBEBE" fill-rule="nonzero"></path>
                    <path d="M270.956875,357.219555 L270.956875,382.727877 C270.956875,383.094463 270.956875,383.46105 270.956875,383.812362 C270.457684,390.070883 265.574565,394.907971 259.664082,394.998704 C253.753598,395.089437 248.74101,390.40426 248.071875,384.163674 C248.071875,383.690167 248,383.216659 248,382.727877 L248,357.219555 C248,350.470881 253.148725,345 259.5,345 C265.851275,345 271,350.470881 271,357.219555 L270.956875,357.219555 Z" id="Path" stroke="none" fill="#BEBEBE" fill-rule="nonzero"></path>
                    <path d="M329.233427,201.520895 C330.359383,196.52891 335.70392,194.281763 340.312833,195.201736 C342.579758,195.654181 344.816657,196.13679 347.083582,196.619399 L350.371373,197.388557 C352.097839,197.81084 353.824304,198.233122 355.535757,198.70065 C356.601662,198.987199 357.68258,199.288829 358.748485,199.605541 C361.61592,200.450107 364.453328,201.37008 367.245699,202.425786 C368.296591,202.817906 369.332471,203.240189 370.36835,203.677553 C372.139854,204.401466 373.881333,205.185706 375.607799,206.030271 C378.097509,207.253001 380.504715,208.638447 382.813917,210.177691 C383.744707,210.80106 384.660484,211.449566 385.561249,212.123207 L385.561249,212.123207 C389.4263,214.989179 392.925551,218.322112 395.980095,222.046851 C396.730732,222.92158 397.481369,223.826471 398.096892,224.746444 C398.712414,225.666417 399.688243,227.023755 400.423868,228.200114 C401.564939,230.0302 402.602462,231.923418 403.531506,233.870767 C404.071965,234.971719 404.582398,236.087752 405.03278,237.218866 C406.452355,240.646406 407.616543,244.175136 408.515738,247.775934 C408.846018,248.997538 409.13126,250.234223 409.371464,251.470908 C409.851872,253.672811 410.227191,255.874713 410.542458,258.076616 C410.977828,261.092921 411.293095,264.109226 411.518287,267.200939 C411.638389,268.668874 411.728465,270.131782 411.788516,271.589663 C411.968669,275.390208 412.033724,279.195779 411.983682,283.006378 C411.983682,284.288308 411.983682,285.555156 411.893605,286.837086 C411.893605,288.571461 411.773503,290.305836 411.69844,292.040212 C411.608363,294.151626 411.473248,296.278121 411.323121,298.389534 C411.323121,298.932469 411.323121,299.475404 411.218032,300.018339 C411.112943,300.561274 411.218032,301.20978 411.082917,301.813041 C410.947802,302.416302 411.007853,302.959237 410.962815,303.532335 C410.197165,313.199592 409.056196,322.851769 407.614973,332.458701 C406.879348,337.465767 400.829212,339.758159 396.535566,338.77786 C394.240295,338.118408 392.29428,336.580457 391.115965,334.494707 C389.972131,332.363019 389.646297,329.883915 390.200188,327.527042 C390.350315,326.546743 390.500443,325.566444 390.635557,324.586144 L390.81571,323.289133 C390.812786,323.254004 390.812786,323.218691 390.81571,323.183562 C390.81571,323.183562 390.81571,323.108155 390.81571,323.06291 C390.809263,323.022954 390.809263,322.982215 390.81571,322.942258 L390.81571,322.942258 C390.8277,322.781614 390.8277,322.620293 390.81571,322.459649 C390.818692,322.409422 390.818692,322.359061 390.81571,322.308834 L390.950825,321.207883 L391.266093,318.628942 C391.686449,315.190354 392.046755,311.736684 392.362023,308.298097 C392.362023,307.604346 392.482125,306.910596 392.527163,306.216846 C392.572201,305.523096 392.677291,304.708694 392.737342,303.864128 C392.737342,303.864128 392.737342,303.713313 392.737342,303.637905 C392.737342,303.562498 392.737342,303.079889 392.737342,302.79334 C392.745362,302.637601 392.745362,302.481551 392.737342,302.325812 L392.872456,300.455703 C393.142686,296.836137 393.342856,293.211544 393.472966,289.581923 C393.472966,288.782602 393.54803,288.073771 393.578055,287.199042 C393.578055,286.867249 393.578055,286.535455 393.578055,286.203662 C393.653119,283.760454 393.698157,281.317247 393.698157,278.858959 L393.698157,278.557328 C393.698157,277.742926 393.698157,276.943605 393.698157,276.129202 C393.698157,275.902979 393.698157,275.676757 393.698157,275.450534 C393.698157,274.455153 393.698157,273.444691 393.608081,272.434229 C393.497987,269.991021 393.332847,267.547814 393.11266,265.104607 L393.11266,264.757732 C393.11266,264.576754 393.11266,264.380694 393.11266,264.199716 C393.11266,263.475802 392.94752,262.691563 392.872456,262.043057 L392.872456,262.043057 C392.872456,261.96765 392.872456,261.892242 392.872456,261.816834 C392.872456,261.741427 392.872456,261.560449 392.872456,261.424715 C392.872456,261.288981 392.767367,260.730965 392.707316,260.38409 C392.647265,260.037214 392.632252,259.931644 392.602227,259.705421 C392.055258,256.472235 391.318345,253.274391 390.395353,250.128652 C390.065073,248.997538 389.704767,247.881505 389.314436,246.765472 C389.179321,246.373352 389.044206,245.966151 388.894079,245.574031 C388.743951,245.181912 388.458709,244.533406 388.263543,244.065879 C388.245011,244.003039 388.219847,243.942368 388.18848,243.8849 C387.738097,242.859357 387.242677,241.848895 386.687205,240.868595 C386.296874,240.144682 385.906542,239.360443 385.486185,238.727019 C384.900688,237.716556 384.270153,236.721176 383.609592,235.710714 C383.414426,235.409083 383.219261,235.122534 383.009082,234.835985 L382.738853,234.458947 C382.39356,234.112072 382.108318,233.689789 381.808063,233.327833 C381.072438,232.453104 380.306788,231.608539 379.481087,230.794136 C378.655386,229.979734 377.664545,229.029598 376.703729,228.200114 C376.358436,227.898483 376.028156,227.627016 375.682862,227.355548 L375.682862,227.355548 L375.382607,227.114244 L375.382607,227.114244 C374.661996,226.586391 373.881333,226.073619 373.160721,225.606091 C372.184893,224.942504 371.194051,224.339243 370.158172,223.766145 L369.242394,223.238292 C368.131451,222.635031 367.005495,222.061933 365.879539,221.503916 L364.288188,220.764922 L363.897857,220.599025 L362.396582,219.980682 L362.396582,219.980682 L360.790218,219.377421 L359.198867,218.804323 L357.142121,218.125655 C355.896063,217.718453 354.634993,217.326334 353.373922,216.964377 C352.112851,216.602421 351.212087,216.361116 350.116156,216.074567 L349.996054,216.074567 C348.855086,215.772937 347.699104,215.486388 346.543123,215.21492 C345.387141,214.943453 344.351262,214.702148 343.255331,214.460844 C340.673139,213.872664 338.075934,213.329729 335.478729,212.801876 C330.584574,211.65568 328.21256,206.030271 329.233427,201.520895 Z" id="Path" stroke="none" fill="#BEBEBE" fill-rule="nonzero"></path>
                    <path d="M326,141.555326 L326,166 L139,166 L139,141.555326 C139.14805,91.0404612 180.093291,50.1314616 230.636436,50 L234.423437,50 C284.9432,50.1643057 325.852115,91.0637335 326,141.555326 Z" id="Path" stroke="none" fill="#FFFFFF" fill-rule="nonzero"></path>
                    <rect id="Rectangle" stroke="none" fill="#FFFFFF" fill-rule="nonzero" x="141" y="170" width="182" height="188"></rect>
                    <rect id="Rectangle" stroke="none" fill="#80A142" fill-rule="nonzero" x="176" y="189" width="114" height="78" rx="12"></rect>
                    <rect id="Rectangle" stroke="none" fill="#000000" fill-rule="nonzero" x="176" y="193" width="114" height="78" rx="12"></rect>
                    <circle id="Oval" stroke="none" fill="#FFFFFF" fill-rule="nonzero" cx="322" cy="208" r="22"></circle>
                    <rect id="Rectangle" stroke="none" fill="#80A142" fill-rule="nonzero" x="178" y="90" width="110" height="47" rx="12"></rect>
                    <path d="M129.767739,211.475689 C128.641972,216.470289 123.298328,218.718614 118.690186,217.798159 C116.42364,217.345476 114.187116,216.862614 111.92057,216.379753 L108.633329,215.610192 C106.907152,215.187688 105.180975,214.765184 103.469808,214.297412 C102.404081,214.010712 101.323344,213.708924 100.257618,213.392046 C97.390663,212.547038 94.5537286,211.626583 91.761825,210.570323 C90.7111085,210.177998 89.6754023,209.755494 88.6396962,209.3179 C86.8684885,208.593608 85.1273012,207.808958 83.4011243,206.96395 C80.9118299,205.740579 78.5050273,204.354407 76.1962116,202.814357 C75.2655771,202.190661 74.3499528,201.541816 73.4493387,200.867821 L73.4493387,200.867821 C69.5734939,197.997604 66.0646267,194.657743 63.0022154,190.923888 C62.2517036,190.048702 61.5011919,189.143336 60.8857723,188.222881 C60.2703527,187.302426 59.2946874,185.944377 58.5591859,184.767402 C57.4336543,182.935302 56.4113491,181.041113 55.497098,179.093777 C54.9567296,177.992249 54.4463816,176.875631 53.9960746,175.743924 C52.5672266,172.320317 51.3932014,168.794791 50.4836797,165.196415 C50.1534545,163.974171 49.8682601,162.736838 49.6280963,161.499505 C49.1477688,159.296448 48.7725129,157.093392 48.457298,154.890336 C48.0220012,151.87245 47.7067863,148.854565 47.4816327,145.836679 C47.3615509,144.378034 47.2714895,142.91436 47.2114485,141.445656 C47.0313257,137.64312 46.9662814,133.835554 47.0163155,130.022959 C47.0163155,128.740358 47.0163155,127.472846 47.1063769,126.190245 C47.1063769,124.45496 47.2264588,122.719676 47.3015099,120.984392 C47.3915713,118.871872 47.5266635,116.744263 47.6767658,114.631743 C47.6767658,114.088524 47.6767658,113.545304 47.7818374,113.002085 C47.8869091,112.458866 47.8568886,111.81002 47.9169296,111.206443 C47.9769705,110.602866 47.9919807,110.059647 48.0370114,109.486248 C48.8025334,99.8139254 49.9433112,90.1566918 51.3842938,80.5447265 C52.1197953,75.5350366 58.1689198,73.2414436 62.4618469,74.2222564 C64.7196421,74.8632116 66.6444739,76.3549893 67.8355109,78.3869384 C68.9791532,80.5197433 69.3049334,83.0001456 68.7511352,85.3582538 C68.6010329,86.3390666 68.4509306,87.3198794 68.3158384,88.3761393 L68.1357156,89.6738301 C68.1386394,89.7089774 68.1386394,89.7443088 68.1357156,89.7794561 C68.1357156,89.7794561 68.1357156,89.8549032 68.1357156,89.9001715 C68.1421615,89.9401491 68.1421615,89.9809093 68.1357156,90.0208869 L68.1357156,90.0208869 C68.1237281,90.1816153 68.1237281,90.3430203 68.1357156,90.5037486 C68.1327348,90.5540021 68.1327348,90.6043894 68.1357156,90.6546429 L68.0006235,91.7561711 L67.5052858,94.2761055 C67.0849992,97.7164949 66.7247536,101.171974 66.4095386,104.612363 C66.4095386,105.306477 66.2894568,106.000591 66.2444261,106.694704 C66.1993954,107.388818 66.0943237,108.203647 66.0342828,109.048655 C66.0342828,109.048655 66.0342828,109.199549 66.0342828,109.274996 C66.0342828,109.350444 66.0342828,109.833305 66.0342828,110.120004 C66.0262636,110.275824 66.0262636,110.431957 66.0342828,110.587777 L65.8991907,112.458866 C65.6290064,116.080328 65.42887,119.706821 65.2987813,123.338343 C65.2987813,124.138082 65.2987813,124.847286 65.1937096,125.722472 C65.1937096,126.05444 65.1937096,126.386407 65.1937096,126.718375 C65.1937096,129.162862 65.0736278,131.607349 65.0736278,134.066926 L65.0736278,134.368714 C65.0736278,135.183543 65.0736278,135.983283 65.0736278,136.798112 C65.0736278,137.024453 65.0736278,137.250795 65.0736278,137.477136 C65.0736278,138.473039 65.0736278,139.48403 65.1636892,140.495022 C65.2637574,142.939509 65.42887,145.383996 65.6590269,147.828484 L65.6590269,148.17554 C65.6590269,148.356614 65.6590269,148.552776 65.6590269,148.733849 C65.7340781,149.458142 65.8241395,150.242792 65.8991907,150.891637 L65.8991907,150.891637 C65.8991907,150.967084 65.8991907,151.042532 65.8991907,151.117979 C65.8991907,151.193426 65.8991907,151.374499 65.8991907,151.510304 C65.8991907,151.646109 66.0042623,152.204418 66.0643032,152.551474 C66.1243442,152.898531 66.0643032,153.004157 66.1693749,153.230499 C66.7162528,156.465378 67.4530416,159.664898 68.3758794,162.812285 C68.7061045,163.943992 69.0663502,165.06061 69.4566163,166.177227 C69.5917084,166.569552 69.7268005,166.976967 69.8769028,167.369292 C70.0270052,167.761617 70.3121996,168.410463 70.5073327,168.878235 C70.5014127,168.938446 70.5014127,168.999097 70.5073327,169.059308 C70.9576397,170.085389 71.4529775,171.096381 72.0083562,172.077193 C72.3986223,172.801486 72.7888884,173.586136 73.2091749,174.219892 C73.7945741,175.230884 74.4250039,176.226786 75.0854543,177.237778 C75.2805873,177.539566 75.4757204,177.826265 75.6858637,178.112964 L75.9560479,178.4902 C76.3012833,178.837257 76.5864777,179.259761 76.8866824,179.621907 C77.6221839,180.497094 78.3877059,181.342102 79.2132688,182.156931 C80.0388317,182.97176 81.0295072,183.922394 81.9901622,184.752313 C82.3353976,185.054101 82.6656228,185.325711 83.0108582,185.59732 C83.0108582,185.59732 83.0108582,185.59732 83.0108582,185.59732 L83.3110629,185.838751 L83.3110629,185.838751 C84.0315541,186.366881 84.8120863,186.879922 85.5325776,187.347694 C86.5082428,188.011629 87.4989183,188.615206 88.5346245,189.188604 L89.4502488,189.716734 C90.5610062,190.320311 91.6867738,190.89371 92.8125414,191.452018 L94.4036263,192.1914 L94.7938924,192.357384 L96.2949158,192.976051 L96.2949158,192.976051 L97.9010109,193.579628 L99.4920958,194.153026 L101.548498,194.83205 C102.794347,195.239465 104.055207,195.63179 105.316067,195.993936 C106.576927,196.356082 107.477541,196.597513 108.573288,196.884212 L108.69337,196.884212 C109.834147,197.186001 110.989936,197.4727 112.145724,197.74431 C113.301512,198.015919 114.337218,198.25735 115.432965,198.498781 C118.014725,199.087269 120.611496,199.630488 123.208267,200.158618 C128.416818,201.41104 130.788435,206.96395 129.767739,211.475689 Z" id="Path" stroke="none" fill="#BEBEBE" fill-rule="nonzero"></path>
                    <rect id="Rectangle" stroke="none" fill="#000000" fill-rule="nonzero" x="178" y="93" width="110" height="47" rx="12"></rect>
                    <path d="M196.176184,213.14286 C195.013497,222.382917 194.711942,231.711316 195.27542,241.007359 C195.560662,245.518611 196.056082,250.029863 196.776693,254.541115 C197.242088,257.548616 199.103667,260.029804 202.406468,260 C205.709269,259.969654 207.390695,257.277941 208.051255,254.33059 C208.706568,250.3082 209.04789,246.240769 209.072121,242.165247 C209.296676,237.81813 210.032379,233.512719 211.26398,229.338254 C211.459145,228.706679 211.744387,226.631503 212.840317,227.278116 C213.365762,227.593903 213.635991,229.007429 213.786119,229.503666 C214.088038,230.53236 214.308902,231.583198 214.446679,232.646505 C215.00215,236.676557 214.446679,240.781796 214.897061,244.826885 C215.257366,248.375737 216.068054,253.022326 219.23574,255.187727 C220.63409,256.213944 222.418451,256.557311 224.096896,256.123168 C225.77534,255.689024 227.170625,254.523214 227.898087,252.947139 C228.468419,251.507926 228.793214,249.982936 228.858902,248.435887 C229.144143,246.090036 229.504449,243.759223 229.969844,241.458484 C230.835243,237.117897 232.014344,232.846024 233.497836,228.676604 C233.720458,227.967965 234.022646,227.286919 234.3986,226.64654 C234.548727,226.40594 234.083332,226.34579 234.158396,226.64654 C234.23346,226.94729 234.3986,227.18789 234.473663,227.473603 C234.940414,229.666946 235.226617,231.894966 235.329389,234.135218 L236.935751,248.255437 C237.341095,251.834363 237.611324,256.059903 241.094278,258.074929 C242.674964,259.05059 244.641373,259.158128 246.318709,258.360641 C248.069598,257.202781 249.393252,255.501904 250.086905,253.518564 C252.10698,249.111363 253.365896,244.392803 253.810062,239.563758 C254.035253,237.458507 254.485635,236.120169 256.662481,235.578819 C258.698573,235.220305 260.766892,235.079165 262.832714,235.157769 L278.821274,234.766794 C281.718731,234.766794 281.733744,230.255542 278.821274,230.255542 L265.00956,230.601404 C261.526606,230.691629 257.503194,230.315692 254.260444,231.608917 C250.432197,233.112668 249.636523,236.420919 249.246192,240.150221 C248.838101,244.214383 247.70413,248.172002 245.898352,251.834363 C245.327869,252.992251 244.577232,255.23284 243.030921,253.954652 C241.484609,252.676464 241.634736,249.954675 241.439571,248.255437 L239.938298,234.872056 C239.683081,232.646505 239.45789,230.360804 239.187661,228.180366 C239.089967,226.552055 238.527175,224.986162 237.566286,223.669114 C235.314376,220.9774 231.756359,222.165363 230.240073,224.917227 C228.508397,228.619339 227.247481,232.524526 226.48689,236.541219 C225.557616,240.677798 224.836099,244.858466 224.325056,249.067462 C224.189942,250.029863 224.084853,251.759176 222.823783,251.849401 C220.902154,251.954664 220.211568,248.736637 219.821237,247.338149 C218.890447,243.47351 219.280779,239.413383 219.145664,235.473557 C219.025562,231.999893 218.680269,227.383378 216.428359,224.556327 C215.531585,223.446588 214.216786,222.757442 212.795306,222.652079 C211.373826,222.546716 209.972077,223.034505 208.921993,223.999939 C207.808572,225.279134 207.066117,226.839302 206.775173,228.511191 C206.165265,230.578594 205.688876,232.683186 205.348963,234.811906 C204.754275,238.902083 204.413332,243.025257 204.328097,247.157699 C204.328097,248.390774 204.328097,256.31554 201.941073,255.488478 C200.649978,255.022315 200.845144,251.849401 200.710029,250.766701 C200.394762,248.360699 200.154558,245.954698 199.959392,243.548697 C199.170485,233.415141 199.411929,223.227505 200.680004,213.14286 C201.025296,210.270696 196.521477,210.300771 196.176184,213.14286 L196.176184,213.14286 Z" id="Path" stroke="none" fill="#16886E" fill-rule="nonzero"></path>
                    <ellipse id="Oval" stroke="none" fill="#FFFFFF" fill-rule="nonzero" cx="203" cy="119.5" rx="11" ry="10.5"></ellipse>
                    <ellipse id="Oval" stroke="none" fill="#FFFFFF" fill-rule="nonzero" cx="263" cy="119.5" rx="11" ry="10.5"></ellipse>
                    <circle id="Oval" stroke="none" fill="#FFFFFF" fill-rule="nonzero" cx="141" cy="208" r="22"></circle>
                    <path d="M231.432789,53.4663577 C233.354638,47.1812841 237.426363,41.7531922 242.950095,38.112425 C248.98948,34.235515 256.510267,33.3646713 263.291382,35.7570758 C265.999586,36.7433783 267.160245,32.4743079 264.481802,31.5027263 C256.532474,28.7697259 247.754679,29.8009295 240.673418,34.2997035 C234.175126,38.5513451 229.380741,44.9136007 227.11752,52.2886831 C226.239586,55.0120556 230.539975,56.1602883 231.417909,53.4663577 L231.432789,53.4663577 Z" id="Path" stroke="none" fill="#FFFFFF" fill-rule="nonzero"></path>
                    <path d="M266,42 C269.865993,42 273,38.8659932 273,35 C273,31.1340068 269.865993,28 266,28 C262.134007,28 259,31.1340068 259,35 C259.042063,38.8484355 262.151565,41.9579368 266,42 Z" id="Path" stroke="none" fill="#48CD32" fill-rule="nonzero"></path>
                    <g id="Group" opacity="0.61" stroke="none" stroke-width="1" fill="none" fill-rule="evenodd" transform="translate(256.000000, 25.000000)">
                        <path d="M8.79715385,18.9774126 C13.6147762,18.9774126 17.5202308,14.8728343 17.5202308,9.80958042 C17.5202308,4.74632652 13.6147762,0.641748252 8.79715385,0.641748252 C3.97953149,0.641748252 0.0740769231,4.74632652 0.0740769231,9.80958042 C0.12135035,14.8521113 3.99924921,18.9277289 8.79715385,18.9774126 Z" id="Path" fill="#48CD32" fill-rule="nonzero"></path>
                    </g>
                    <rect id="Rectangle" stroke="none" fill="#FFFFFF" fill-rule="nonzero" x="134" y="182" width="7" height="51" rx="2.57"></rect>
                    <rect id="Rectangle" stroke="none" fill="#FFFFFF" fill-rule="nonzero" x="324" y="182" width="7" height="51" rx="2.57"></rect>
                    <path d="M133,190.121076 L133,227.878924 C133,228.498077 133.447715,229 134,229 C134.552285,229 135,228.498077 135,227.878924 L135,227.146487 C135,226.527334 134.552285,226.025411 134,226.025411 C133.447715,226.025411 133,226.527334 133,227.146487 L133,227.878924 C133,228.498077 133.447715,229 134,229 C134.552285,229 135,228.498077 135,227.878924 L135,190.121076 C135,189.501923 134.552285,189 134,189 C133.447715,189 133,189.501923 133,190.121076 L133,190.121076 Z" id="Path" stroke="none" fill="#000000" fill-rule="nonzero"></path>
                    <path d="M331,189.122754 L331,226.877246 C331,227.497326 331.447715,228 332,228 C332.552285,228 333,227.497326 333,226.877246 L333,226.143713 C333,225.523632 332.552285,225.020958 332,225.020958 C331.447715,225.020958 331,225.523632 331,226.143713 L331,226.877246 C331,227.497326 331.447715,228 332,228 C332.552285,228 333,227.497326 333,226.877246 L333,189.122754 C333,188.502674 332.552285,188 332,188 C331.447715,188 331,188.502674 331,189.122754 Z" id="Path" stroke="none" fill="#000000" fill-rule="nonzero"></path>
                    <circle id="Oval" stroke="none" fill="#000000" fill-rule="nonzero" cx="63" cy="79" r="19"></circle>
                    <circle id="Oval" stroke="#FFFFFF" stroke-width="2" fill="none" cx="62.5" cy="78.5" r="11.5"></circle>
                    <path d="M108,195.882793 L105.183099,205.204489 C104.394366,207.763092 103.605634,210.351621 103.014085,213 C102.014085,212.715711 101,212.416459 100,212.102244 C100.535211,209.633416 101.239437,207.194514 101.985915,204.770574 C102.985915,201.508728 104,198.261845 105,195 C105.957746,195.314214 106.971831,195.598504 108,195.882793 Z" id="Path" stroke="none" fill="#000000" fill-rule="nonzero"></path>
                    <path d="M99,194.147059 C96.2289699,199.352941 93.591543,204.637255 91.0877193,210 C90.048583,209.617647 89.0242915,209.205882 88,208.779412 C90.4642375,203.455882 93.0769231,198.196078 95.8380567,193 L97.4264507,193.588235 L99,194.147059 Z" id="Path" stroke="none" fill="#000000" fill-rule="nonzero"></path>
                    <path d="M88,188.758621 C85.5237207,190.94908 83.1629547,193.267495 80.9273084,195.704433 C79.2033399,197.596059 77.5383104,199.546798 75.9764244,201.615764 L75.6964637,202 C74.7829077,201.389163 73.8840864,200.753695 73,200.093596 L73,200.093596 C73.7514735,199.118227 74.4734774,198.157635 75.2691552,197.211823 C76.762279,195.389163 78.3192534,193.635468 79.9400786,191.950739 C81.5609037,190.26601 83.2750491,188.615764 85.0825147,187 C86.040275,187.591133 87.0127701,188.182266 88,188.758621 Z" id="Path" stroke="none" fill="#000000" fill-rule="nonzero"></path>
                    <path d="M75,176.873291 L63.0648536,190 C62.332636,189.154057 61.6004184,188.278943 61,187.389243 L73.1694561,174 C73.7405858,175.050137 74.3556485,176.012762 75,176.873291 Z" id="Path" stroke="none" fill="#000000" fill-rule="nonzero"></path>
                    <path d="M69,165.32216 C64.0191746,168.989588 59.4692363,173.24425 55.4423077,178 C54.9230769,176.912477 54.4326923,175.810056 54,174.692737 C58.1371091,169.88586 62.8310161,165.622931 67.9759615,162 C68.2788462,163.117318 68.625,164.27933 69,165.32216 Z" id="Path" stroke="none" fill="#000000" fill-rule="nonzero"></path>
                    <path d="M65.6086957,148 C65.6811594,148.704587 65.7681159,149.46789 65.8405797,150.099083 L65.8405797,150.099083 C65.8405797,150.172477 65.8405797,150.245872 65.8405797,150.319266 C65.8405797,150.392661 65.8405797,150.568807 65.8405797,150.700917 C65.8405797,150.833028 65.942029,151.376147 66,151.713761 C60.7922705,155.628135 55.7342995,159.723547 50.826087,164 C50.5072464,162.811009 50.2318841,161.607339 50,160.40367 C54.8309179,156.205505 59.8164251,152.207951 64.9565217,148.411009" id="Path" stroke="none" fill="#000000" fill-rule="nonzero"></path>
                    <path d="M66,110 C66,110 66,110.136986 66,110.205479 C66,110.273973 66,110.712329 66,110.972603 C65.9921047,111.114061 65.9921047,111.255802 66,111.39726 L65.8669951,113.09589 C59.955665,113.547945 53.8669951,114.191781 48,115 C48,114.506849 48,114.013699 48.1034483,113.520548 C48.2068966,113.027397 48.1773399,112.438356 48.2364532,111.890411 C54.1773399,111.054795 60.08867,110.438356 66,110 Z" id="Path" stroke="none" fill="#000000" fill-rule="nonzero"></path>
                    <path d="M65,135.309677 C65,136.145806 65,136.966452 65,137.802581 C65,138.034839 65,138.267097 65,138.499355 C58.6450878,139.027187 52.6892583,142.051224 48.2580101,147 C48.143339,145.503226 48.0573356,144.00129 48,142.494194 C52.7690562,138.108766 58.7099823,135.483157 64.9569983,135" id="Path" stroke="none" fill="#000000" fill-rule="nonzero"></path>
                    <path d="M65,123.260492 C65,124.076003 65,124.799192 64.8956089,125.691639 C64.8956089,126.030153 64.8956089,126.368667 64.8956089,126.707181 C58.7434782,125.848458 52.4851887,127 47,130 C47,128.692105 47,127.399596 47.089478,126.091701 C52.6919402,123.460361 58.890994,122.480444 65,123.260492 L65,123.260492 Z" id="Path" stroke="none" fill="#000000" fill-rule="nonzero"></path>
                    <path d="M65.0036966,124.98 C64.9979528,125.019794 64.9979528,125.060206 65.0036966,125.1 C64.9938391,125.033698 64.9938391,124.966302 65.0036966,124.9 L65.0036966,124.98 Z" id="Path" stroke="none" fill="#000000" fill-rule="nonzero"></path>
                    <circle id="Oval" stroke="none" fill="#000000" fill-rule="nonzero" cx="395" cy="334" r="19"></circle>
                    <circle id="Oval" stroke="#FFFFFF" stroke-width="2" fill="none" cx="395.5" cy="334.5" r="11.5"></circle>
                    <path d="M349,216.117207 L351.816901,206.795511 C352.605634,204.236908 353.394366,201.648379 353.985915,199 C354.985915,199.284289 356,199.583541 357,199.897756 C356.464789,202.366584 355.760563,204.805486 355.014085,207.229426 C354.014085,210.491272 353,213.738155 352,217 C351.042254,216.685786 350.028169,216.401496 349,216.117207 Z" id="Path" stroke="none" fill="#000000" fill-rule="nonzero"></path>
                    <path d="M358,219.852941 C360.77103,214.647059 363.408457,209.362745 365.912281,204 C366.951417,204.382353 367.975709,204.794118 369,205.220588 C366.535762,210.544118 363.923077,215.803922 361.161943,221 L359.573549,220.411765 L358,219.852941 Z" id="Path" stroke="none" fill="#000000" fill-rule="nonzero"></path>
                    <path d="M207,368 L207,371.658537 C200.675,371.886179 189.821875,372 184,372 L184,368.308943 C189.620625,368.292683 200.64625,368.211382 207,368 Z" id="Path" stroke="none" fill="#000000" fill-rule="nonzero"></path>
                    <path d="M207,380 L207,383.62753 C201.136372,383.838057 190.314528,383.967611 184.005379,384 C183.998207,383.848961 183.998207,383.697598 184.005379,383.546559 L184.005379,380.307692 C190.127697,380.323887 201.136372,380.226721 207,380 Z" id="Path" stroke="none" fill="#000000" fill-rule="nonzero"></path>
                    <path d="M271,368 L271,371.657143 C264.689375,371.869388 253.850625,371.983673 248,372 L248,368.293878 C253.635,368.310204 264.660625,368.212245 271,368 Z" id="Path" stroke="none" fill="#000000" fill-rule="nonzero"></path>
                    <path d="M271,380 L271,382.477733 C271,382.866397 271,383.255061 271,383.62753 C265.167188,383.838057 254.39449,383.967611 248.07201,384 C248.07201,383.497976 248,382.995951 248,382.477733 L248,380.323887 C254.120852,380.323887 265.152786,380.226721 271,380 Z" id="Path" stroke="none" fill="#000000" fill-rule="nonzero"></path>
                    <path d="M369,224.241379 C371.476279,222.05092 373.837045,219.732505 376.072692,217.295567 C377.79666,215.403941 379.46169,213.453202 381.023576,211.384236 L381.303536,211 C382.217092,211.610837 383.115914,212.246305 384,212.906404 L384,212.906404 C383.248527,213.881773 382.526523,214.842365 381.730845,215.788177 C380.247544,217.610837 378.69057,219.364532 377.059921,221.049261 C375.429273,222.73399 373.715128,224.384236 371.917485,226 C370.959725,225.394089 369.98723,224.802956 369,224.241379 Z" id="Path" stroke="none" fill="#000000" fill-rule="nonzero"></path>
                    <path d="M383,236.126709 L394.935146,223 C395.667364,223.845943 396.399582,224.721057 397,225.610757 L384.830544,239 C384.332636,238.008204 383.644351,237.045579 383,236.126709 Z" id="Path" stroke="none" fill="#000000" fill-rule="nonzero"></path>
                    <path d="M389,245.67784 C393.980825,242.010412 398.530764,237.75575 402.557692,233 C403.076923,234.087523 403.567308,235.189944 404,236.307263 C399.862891,241.11414 395.168984,245.377069 390.024038,249 C389.721154,247.882682 389.375,246.780261 389,245.67784 Z" id="Path" stroke="none" fill="#000000" fill-rule="nonzero"></path>
                    <path d="M393.391304,264 C393.391304,263.295413 393.231884,262.53211 393.15942,261.900917 L393.15942,261.900917 C393.15942,261.827523 393.15942,261.754128 393.15942,261.680734 C393.15942,261.607339 393.15942,261.431193 393.15942,261.299083 C393.15942,261.166972 393.057971,260.623853 393,260.286239 C398.207729,256.371865 403.2657,252.276453 408.173913,248 C408.492754,249.188991 408.768116,250.392661 409,251.59633 C404.169082,255.794495 399.183575,259.792049 394.043478,263.588991" id="Path" stroke="none" fill="#000000" fill-rule="nonzero"></path>
                    <path d="M393,304 C393,304 393,303.863014 393,303.794521 C393,303.726027 393,303.287671 393,303.027397 C393.007895,302.885939 393.007895,302.744198 393,302.60274 L393.133005,300.90411 C398.970443,300.452055 405.133005,299.808219 411,299 C411,299.493151 411,299.986301 410.896552,300.479452 C410.793103,300.972603 410.896552,301.561644 410.763547,302.109589 C404.926108,302.945205 398.955665,303.561644 393,304 Z" id="Path" stroke="none" fill="#000000" fill-rule="nonzero"></path>
                    <path d="M394,278.690323 C394,277.854194 394,277.033548 394,276.197419 C394,275.965161 394,275.732903 394,275.500645 C400.354912,274.972813 406.310742,271.948776 410.74199,267 C410.856661,268.507097 410.942664,270.009032 411,271.505806 C406.219328,275.900363 400.262012,278.526556 394,279" id="Path" stroke="none" fill="#000000" fill-rule="nonzero"></path>
                    <path d="M394,289.739508 C394,288.923997 394.074565,288.200808 394.104391,287.308361 C394.104391,286.969847 394.104391,286.631333 394.104391,286.292819 C400.256522,287.151542 406.514811,286 412,283 C412,284.307895 412,285.600404 411.910522,286.908299 C406.30806,289.539639 400.109006,290.519556 394,289.739508 Z" id="Path" stroke="none" fill="#000000" fill-rule="nonzero"></path>
                    <path d="M392.996303,288.02 L392.996303,287.9 C393.006161,287.966302 393.006161,288.033698 392.996303,288.1 L392.996303,288.02 Z" id="Path" stroke="none" fill="#000000" fill-rule="nonzero"></path>
                    <path d="M53.6020574,304.002504 C61.8207237,303.421733 68.6868442,297.535373 70.5001577,289.515678 C70.8616144,287.697311 71.3134353,285.383026 73.1357794,285.00733 C74.6578909,284.903922 76.03519,285.904559 76.4039503,287.381727 C76.7309675,288.816365 76.9524479,290.272936 77.0666209,291.739797 C78.0154447,296.789147 83.0908991,299.975046 88.1362321,301.237384 C89.7472038,301.499362 91.2858995,302.093026 92.6544407,302.980612 C94.0432305,303.963837 94.4143249,305.861545 93.4978396,307.293599 C92.9302939,307.8399 92.2293368,308.228471 91.4646458,308.420686 C88.0157465,309.562801 84.3710582,310.629776 81.7956793,313.169479 C78.5124477,316.430518 77.6991701,321.374673 75.6358548,325.507326 C75.4324721,326.026792 75.0818311,326.475886 74.6267883,326.799719 C73.4821754,327.460944 72.0062272,326.37894 71.6146492,325.101575 C71.4411735,323.799883 71.4411735,322.481003 71.6146492,321.179312 C71.6146492,317.45241 68.903724,314.191372 65.7259172,312.162615 C62.4320396,310.406956 58.9646002,308.996819 55.3792195,307.954823 C54.415335,307.609183 53.3460256,307.083209 53.1502366,306.091372 C52.9544475,305.099536 52.8189013,304.693784 53.6171181,304.017532" id="Path" stroke="none" fill="#FFFFFF" fill-rule="nonzero"></path>
                    <path d="M326.686377,60.0344692 C334.909103,59.4535668 341.772236,53.5450053 343.559893,45.507838 C343.905477,43.6920091 344.356239,41.395961 346.174312,41.0057829 C347.712648,40.9133001 349.094741,41.9390931 349.449848,43.4368926 C349.772247,44.8747439 349.988195,46.3343553 350.095939,47.8038861 C351.042539,52.831181 356.106097,56.0276402 361.139604,57.2882156 C362.746578,57.541818 364.282284,58.1297786 365.647222,59.0140034 C367.037929,59.9912268 367.414932,61.8871246 366.503669,63.3209695 C365.937643,63.8747211 365.231154,64.2638479 364.460216,64.4464833 C361.034426,65.6020107 357.398281,66.6524903 354.828938,69.2036548 C351.538377,72.4601414 350.742031,77.3823883 348.683552,81.5242791 C348.474066,82.0394535 348.119071,82.482649 347.661826,82.7998613 C346.534921,83.4601628 345.047407,82.3796695 344.656747,81.1190941 C344.450935,79.8181698 344.425655,78.4951192 344.58162,77.1872993 C344.58162,73.4656004 341.862024,70.2091138 338.706691,68.183189 C335.414106,66.4325181 331.950082,65.0244805 328.369221,63.9812709 C327.422621,63.6361133 326.340793,63.1108736 326.145462,62.1054146 C325.950132,61.0999556 325.829929,60.7097775 326.61125,60.0344692" id="Path" stroke="none" fill="#FFFFFF" fill-rule="nonzero"></path>
                </g>
            </g>
            <rect id="Rectangle" fill="#93C061" mask="url(#mask-2)" x="-34" y="459" width="663" height="87" rx="38"></rect>
        </g>
    </g>
</svg>