<svg xmlns="http://www.w3.org/2000/svg" viewBox="0 0 310 256"><defs><style>.cls-1{fill:#93c061;}.cls-2{fill:#b0d77b;}.cls-3{fill:#bebebe;}.cls-4{fill:#fff;}.cls-5{fill:#80a142;}.cls-6{fill:#16886e;}.cls-7{fill:#48cd32;}.cls-8{opacity:0.61;}.cls-9{fill:none;stroke:#fff;stroke-miterlimit:10;stroke-width:2px;}</style></defs><g id="Layer_2" data-name="Layer 2"><rect class="cls-1" width="310" height="256"/><path class="cls-2" d="M28.32,92.27,12.14,65.63A5.77,5.77,0,0,1,15.88,57l31.43-6.64A5.76,5.76,0,0,0,50.83,48L80.23,6.42a5.77,5.77,0,0,1,7.84-1.51h0l35.55,24.32a5.76,5.76,0,0,0,6,.3L174.35,5.25a5.75,5.75,0,0,1,7.12,1.3L212.28,42.3a5.77,5.77,0,0,0,5.32,1.93l37-6.16a5.77,5.77,0,0,1,6.61,6.78l-6.24,32.42a5.76,5.76,0,0,0,4,6.61L297.6,95.49a5.77,5.77,0,0,1,2.78,9.2l-18.57,22.46a5.75,5.75,0,0,0-.07,7.26l22.59,28.47a5.77,5.77,0,0,1-3.18,9.19l-31.24,7.48a5.75,5.75,0,0,0-4.42,5.85L266.83,217a5.78,5.78,0,0,1-6.49,6L227,218.7a5.78,5.78,0,0,0-5.87,3.11l-18.74,37a5.77,5.77,0,0,1-9,1.66L168.06,237.5a5.76,5.76,0,0,0-5.42-1.28l-52.49,14.64a5.77,5.77,0,0,1-7.19-6.79l4.1-18.64a5.77,5.77,0,0,0-4.94-7l-47.36-5.74a5.76,5.76,0,0,1-4.15-8.84l13.61-21.15a5.77,5.77,0,0,0-3.15-8.63L10,158.31a5.76,5.76,0,0,1-2.69-9.24l21-24.71a5.77,5.77,0,0,0-1.52-8.73l-6.4-3.69a5.76,5.76,0,0,1,2-10.7l1.83-.27A5.78,5.78,0,0,0,28.32,92.27Z"/><path class="cls-3" d="M139.42,239.71v16.75a8,8,0,0,1-16,.23,2.62,2.62,0,0,1,0-.28v-16.7a8,8,0,0,1,16,0Z"/><path class="cls-3" d="M181.53,238.77v16.7c0,.24,0,.48,0,.71a8,8,0,0,1-15.92.23c0-.31-.05-.62-.05-.94v-16.7a8,8,0,0,1,16,0Z"/><path class="cls-3" d="M219.78,134.83c.75-3.31,4.31-4.8,7.38-4.19,1.51.3,3,.62,4.51.94l2.19.51c1.15.28,2.3.56,3.44.87.71.19,1.43.39,2.14.6,1.91.56,3.8,1.17,5.66,1.87.7.26,1.39.54,2.08.83,1.18.48,2.34,1,3.49,1.56a42.22,42.22,0,0,1,4.8,2.75q.93.62,1.83,1.29h0a39,39,0,0,1,6.94,6.58c.5.58,1,1.18,1.41,1.79s1.06,1.51,1.55,2.29a38.12,38.12,0,0,1,2.07,3.76c.36.73.7,1.47,1,2.22a49.71,49.71,0,0,1,2.32,7c.22.81.41,1.63.57,2.45.32,1.46.57,2.92.78,4.38.29,2,.5,4,.65,6.05q.12,1.46.18,2.91.18,3.78.13,7.57c0,.85,0,1.69-.06,2.54,0,1.15-.08,2.3-.13,3.45-.06,1.4-.15,2.81-.25,4.21,0,.36,0,.72-.07,1.08s0,.79-.09,1.19-.05.76-.08,1.14c-.51,6.41-1.27,12.81-2.23,19.18-.49,3.32-4.52,4.84-7.38,4.19A6.07,6.07,0,0,1,261,223a6.56,6.56,0,0,1-.61-4.62c.1-.65.2-1.3.29-1.95l.12-.86a.42.42,0,0,1,0-.07.11.11,0,0,1,0,0s0-.05,0-.08a.25.25,0,0,1,0-.08h0a2.14,2.14,0,0,0,0-.32.84.84,0,0,0,0-.1l.09-.73.21-1.71c.28-2.28.52-4.57.73-6.85,0-.46.08-.92.11-1.38s.1-1,.14-1.56c0,0,0-.1,0-.15s0-.37,0-.56a3,3,0,0,0,0-.31l.09-1.24q.27-3.6.4-7.21c0-.53.05-1,.07-1.58,0-.22,0-.44,0-.66.05-1.62.08-3.24.08-4.87v-.2c0-.54,0-1.07,0-1.61,0-.15,0-.3,0-.45,0-.66,0-1.33-.06-2q-.11-2.43-.33-4.86l0-.23c0-.12,0-.25,0-.37,0-.48-.11-1-.16-1.43h0c0-.05,0-.1,0-.15s0-.17,0-.26-.07-.46-.11-.69-.05-.3-.07-.45a55.13,55.13,0,0,0-1.47-6.35c-.22-.75-.46-1.49-.72-2.23-.09-.26-.18-.53-.28-.79s-.29-.69-.42-1a.61.61,0,0,0-.05-.12c-.3-.68-.63-1.35-1-2-.26-.48-.52-1-.8-1.42-.39-.67-.81-1.33-1.25-2-.13-.2-.26-.39-.4-.58l-.18-.25c-.23-.23-.42-.51-.62-.75-.49-.58-1-1.14-1.55-1.68s-1.21-1.17-1.85-1.72c-.23-.2-.45-.38-.68-.56l0,0-.2-.16h0c-.48-.35-1-.69-1.48-1-.65-.44-1.31-.84-2-1.22l-.61-.35c-.74-.4-1.49-.78-2.24-1.15l-1.06-.49-.26-.11-1-.41h0l-1.07-.4-1.06-.38-1.37-.45c-.83-.27-1.67-.53-2.51-.77s-1.44-.4-2.17-.59l-.08,0c-.76-.2-1.53-.39-2.3-.57s-1.46-.34-2.19-.5c-1.72-.39-3.45-.75-5.18-1.1C220.68,141.55,219.1,137.82,219.78,134.83Z"/><path class="cls-4" d="M217.71,94.8v16.34H92.78V94.8A61.38,61.38,0,0,1,154,33.6h2.53A61.38,61.38,0,0,1,217.71,94.8Z"/><rect class="cls-4" x="94.07" y="113.5" width="122.35" height="125.26"/><rect class="cls-5" x="117.14" y="126.74" width="76.21" height="52.05" rx="12"/><rect x="117.14" y="129.26" width="76.21" height="52.05" rx="12"/><circle class="cls-4" cx="215.67" cy="138.6" r="14.6"/><rect class="cls-5" x="118.39" y="59.99" width="73.71" height="31.21" rx="12"/><path class="cls-3" d="M86.48,140.67c-.75,3.31-4.31,4.8-7.38,4.19-1.51-.3-3-.62-4.51-.94l-2.19-.51c-1.15-.28-2.3-.56-3.44-.87-.71-.19-1.43-.39-2.14-.6-1.91-.56-3.8-1.17-5.66-1.87-.7-.26-1.39-.54-2.08-.83-1.18-.48-2.34-1-3.49-1.56a42.22,42.22,0,0,1-4.8-2.75q-.93-.62-1.83-1.29h0A39,39,0,0,1,42,127.05c-.5-.58-1-1.18-1.41-1.79s-1.06-1.51-1.55-2.29A38.12,38.12,0,0,1,37,119.21c-.36-.73-.7-1.47-1-2.22A49.71,49.71,0,0,1,33.66,110c-.22-.81-.41-1.63-.57-2.45-.32-1.46-.57-2.92-.78-4.38-.29-2-.5-4-.65-6q-.12-1.45-.18-2.91-.18-3.78-.13-7.57c0-.85,0-1.69.06-2.54,0-1.15.08-2.3.13-3.45.06-1.4.15-2.81.25-4.21,0-.36,0-.72.07-1.08s.05-.79.09-1.19.05-.76.08-1.14c.51-6.41,1.27-12.81,2.23-19.18.49-3.32,4.52-4.84,7.38-4.19a6.07,6.07,0,0,1,3.58,2.76,6.56,6.56,0,0,1,.61,4.62c-.1.65-.2,1.3-.29,2l-.12.86a.42.42,0,0,1,0,.07.11.11,0,0,1,0,0s0,.05,0,.08a.25.25,0,0,1,0,.08h0a2.14,2.14,0,0,0,0,.32.84.84,0,0,0,0,.1l-.09.73L45,63c-.28,2.28-.52,4.57-.73,6.85,0,.46-.08.92-.11,1.38s-.1,1-.14,1.56c0,0,0,.1,0,.15s0,.37,0,.56a3,3,0,0,0,0,.31l-.09,1.24q-.27,3.6-.4,7.21c0,.53,0,1-.07,1.58,0,.22,0,.44,0,.66,0,1.62-.08,3.24-.08,4.87v.2c0,.54,0,1.07,0,1.61,0,.15,0,.3,0,.45,0,.66,0,1.33.06,2q.1,2.43.33,4.86l0,.23c0,.12,0,.25,0,.37.05.48.11,1,.16,1.43h0c0,.05,0,.1,0,.15s0,.17,0,.26.07.46.11.69,0,.3.07.45a55.13,55.13,0,0,0,1.47,6.35c.22.75.46,1.49.72,2.23.09.26.18.53.28.79s.29.69.42,1a.61.61,0,0,0,0,.12c.3.68.63,1.35,1,2,.26.48.52,1,.8,1.42.39.67.81,1.33,1.25,2,.13.2.26.39.4.58l.18.25c.23.23.42.51.62.75.49.58,1,1.14,1.55,1.68s1.21,1.17,1.85,1.72c.23.2.45.38.68.56,0,0,0,0,0,0l.2.16h0c.48.35,1,.69,1.48,1,.65.44,1.31.84,2,1.22l.61.35c.74.4,1.49.78,2.24,1.15l1.06.49.26.11,1,.41h0l1.07.4,1.06.38,1.37.45c.83.27,1.67.53,2.51.77s1.44.4,2.17.59l.08,0c.76.2,1.53.39,2.3.57s1.46.34,2.19.5c1.72.39,3.45.75,5.18,1.1C85.58,134,87.16,137.68,86.48,140.67Z"/><rect x="118.39" y="62.55" width="73.71" height="31.21" rx="12"/><path class="cls-6" d="M130.7,142.43a99.81,99.81,0,0,0-.6,18.53c.19,3,.52,6,1,9,.31,2,1.55,3.65,3.75,3.63s3.32-1.81,3.76-3.77a52.16,52.16,0,0,0,.68-8.09,36.81,36.81,0,0,1,1.46-8.53c.13-.42.32-1.8,1.05-1.37.35.21.53,1.15.63,1.48a13.63,13.63,0,0,1,.44,2.09c.37,2.68,0,5.41.3,8.1.24,2.36.78,5.45,2.89,6.89a3.85,3.85,0,0,0,5.77-1.49,9.19,9.19,0,0,0,.64-3c.19-1.56.43-3.11.74-4.64a60.77,60.77,0,0,1,2.35-8.5,6.53,6.53,0,0,1,.6-1.35c.1-.16-.21-.2-.16,0s.16.36.21.55a27.25,27.25,0,0,1,.57,4.43l1.07,9.39c.27,2.38.45,5.19,2.77,6.53a3.65,3.65,0,0,0,3.48.19,6.39,6.39,0,0,0,2.51-3.22,28.51,28.51,0,0,0,2.48-9.28c.15-1.4.45-2.29,1.9-2.65a19.47,19.47,0,0,1,4.11-.28l10.65-.26c1.93,0,1.94-3,0-3l-9.2.23c-2.32.06-5-.19-7.16.67-2.55,1-3.08,3.2-3.34,5.68a22.67,22.67,0,0,1-2.23,7.77c-.38.77-.88,2.26-1.91,1.41s-.93-2.66-1.06-3.79l-1-8.9c-.17-1.48-.32-3-.5-4.45a5.66,5.66,0,0,0-1.08-3c-1.5-1.79-3.87-1-4.88.83a32.49,32.49,0,0,0-2.5,7.73,84.31,84.31,0,0,0-1.44,8.33c-.09.64-.16,1.79-1,1.85-1.28.07-1.74-2.07-2-3-.62-2.57-.36-5.27-.45-7.89-.08-2.31-.31-5.38-1.81-7.26a3.44,3.44,0,0,0-5-.37,6.18,6.18,0,0,0-1.43,3,33.4,33.4,0,0,0-.95,4.19,66.5,66.5,0,0,0-.68,8.21c0,.82,0,6.09-1.59,5.54-.86-.31-.73-2.42-.82-3.14-.21-1.6-.37-3.2-.5-4.8a99.75,99.75,0,0,1,.48-20.22c.23-1.91-2.77-1.89-3,0Z"/><circle class="cls-4" cx="135.41" cy="79.47" r="7.1"/><circle class="cls-4" cx="175.54" cy="79.47" r="7.1"/><circle class="cls-4" cx="94.07" cy="138.93" r="14.6"/><path class="cls-4" d="M154.48,36.37a19.22,19.22,0,0,1,7.74-10.43,15.53,15.53,0,0,1,13.67-1.6c1.82.67,2.6-2.23.8-2.89a18.42,18.42,0,0,0-16,1.9,22.48,22.48,0,0,0-9.11,12.22c-.59,1.85,2.3,2.63,2.89.8Z"/><path class="cls-7" d="M177.67,27.92a4.5,4.5,0,1,0-4.5-4.5,4.55,4.55,0,0,0,4.5,4.5Z"/><g class="cls-8"><path class="cls-7" d="M177.67,29.42a6,6,0,1,0-6-6,6.06,6.06,0,0,0,6,6Z"/></g><rect class="cls-4" x="88.93" y="122.06" width="5.14" height="34.23" rx="2.57"/><rect class="cls-4" x="216.42" y="122.06" width="5.14" height="34.23" rx="2.57"/><path d="M88.06,126.74V152a.75.75,0,0,0,1.5,0v-.49a.75.75,0,0,0-1.5,0V152a.75.75,0,0,0,1.5,0V126.74a.75.75,0,0,0-1.5,0Z"/><path d="M221.68,126v25.22a.75.75,0,0,0,1.5,0v-.49a.75.75,0,0,0-1.5,0v.49a.75.75,0,0,0,1.5,0V126a.75.75,0,0,0-1.5,0Z"/><circle cx="41.94" cy="52.44" r="12.74"/><circle class="cls-9" cx="41.94" cy="52.44" r="7.57"/><path d="M72.54,131.1l-2,6.23c-.56,1.71-1.12,3.44-1.54,5.21-.71-.19-1.43-.39-2.14-.6.38-1.65.88-3.28,1.41-4.9.71-2.18,1.43-4.35,2.14-6.53C71.09,130.72,71.81,130.91,72.54,131.1Z"/><path d="M66.49,129.29q-2.8,5.31-5.33,10.78c-.7-.26-1.39-.54-2.08-.83q2.49-5.43,5.28-10.73l1.07.4Z"/><path d="M59.14,126a64.49,64.49,0,0,0-4.8,4.7c-1.17,1.28-2.3,2.6-3.36,4l-.19.26q-.93-.62-1.83-1.29h0c.51-.66,1-1.31,1.54-1.95q1.52-1.85,3.17-3.56t3.49-3.35C57.81,125.21,58.47,125.61,59.14,126Z"/><path d="M50.17,118l-8.15,9c-.5-.58-1-1.18-1.41-1.79l8.31-9.18C49.31,116.75,49.73,117.41,50.17,118Z"/><path d="M46.39,110.7a54.57,54.57,0,0,0-9.4,8.51c-.36-.73-.7-1.47-1-2.22a52.64,52.64,0,0,1,9.69-8.52C45.89,109.22,46.13,110,46.39,110.7Z"/><path d="M43.8,99.13c.05.48.11,1,.16,1.43h0c0,.05,0,.1,0,.15s0,.17,0,.26.07.46.11.69q-5.39,4-10.47,8.37c-.22-.81-.41-1.63-.57-2.45q5-4.29,10.32-8.17"/><path d="M44,72.83s0,.1,0,.15,0,.37,0,.56a3,3,0,0,0,0,.31l-.09,1.24c-4,.33-8.12.8-12.09,1.39,0-.36,0-.72.07-1.08s.05-.79.09-1.19C36,73.6,40,73.15,44,72.83Z"/><path d="M43.31,89.61c0,.54,0,1.07,0,1.61,0,.15,0,.3,0,.45a18.19,18.19,0,0,0-11.68,5.49q-.12-1.45-.18-2.91a20.51,20.51,0,0,1,11.83-4.84"/><path d="M43.48,82.3c0,.53,0,1-.07,1.58,0,.22,0,.44,0,.66a19.92,19.92,0,0,0-12,2.14c0-.85,0-1.69.06-2.54A22.36,22.36,0,0,1,43.48,82.3Z"/><path d="M44,83.73a.21.21,0,0,0,0,.06.34.34,0,0,1,0-.1Z"/><circle cx="264.31" cy="223.06" r="12.74"/><circle class="cls-9" cx="264.31" cy="223.06" r="7.57"/><path d="M233.72,144.4l2-6.23c.56-1.71,1.12-3.44,1.54-5.21.71.19,1.43.39,2.14.6-.38,1.65-.88,3.28-1.41,4.9-.71,2.18-1.43,4.35-2.14,6.53C235.17,144.78,234.45,144.59,233.72,144.4Z"/><path d="M239.77,146.21q2.8-5.31,5.33-10.78c.7.26,1.39.54,2.08.83q-2.49,5.43-5.28,10.73l-1.07-.4Z"/><path d="M139.42,245.75V248c-4.4.14-11.95.21-16,.21v-2.27C127.33,245.93,135,245.88,139.42,245.75Z"/><path d="M139.42,254.22v2.24c-4.08.13-11.61.21-16,.23a2.62,2.62,0,0,1,0-.28v-2C127.68,254.42,135.34,254.36,139.42,254.22Z"/><path d="M181.53,245.46v2.24c-4.39.13-11.93.2-16,.21v-2.27C169.45,245.65,177.12,245.59,181.53,245.46Z"/><path d="M181.53,253.94v1.53c0,.24,0,.48,0,.71-4.05.13-11.53.21-15.92.23,0-.31-.05-.62-.05-.94v-1.33C169.81,254.14,177.47,254.08,181.53,253.94Z"/><path d="M247.12,149.51a64.49,64.49,0,0,0,4.8-4.7c1.17-1.28,2.3-2.6,3.36-4l.19-.26q.93.62,1.83,1.29h0c-.51.66-1,1.31-1.54,1.95q-1.51,1.85-3.17,3.56t-3.49,3.35C248.45,150.29,247.79,149.89,247.12,149.51Z"/><path d="M256.09,157.46l8.15-9c.5.58,1,1.18,1.41,1.79l-8.31,9.18C257,158.75,256.53,158.09,256.09,157.46Z"/><path d="M259.87,164.8a54.57,54.57,0,0,0,9.4-8.51c.36.73.7,1.47,1,2.22a52.64,52.64,0,0,1-9.69,8.52C260.37,166.28,260.13,165.54,259.87,164.8Z"/><path d="M262.46,176.37c0-.48-.11-1-.16-1.43h0c0-.05,0-.1,0-.15s0-.17,0-.26-.07-.46-.11-.69q5.39-4,10.47-8.37c.22.81.41,1.63.57,2.45q-5,4.29-10.32,8.17"/><path d="M262.22,202.67s0-.1,0-.15,0-.37,0-.56a3,3,0,0,0,0-.31l.09-1.24c3.95-.33,8.12-.8,12.09-1.39,0,.36,0,.72-.07,1.08s0,.79-.09,1.19C270.29,201.9,266.25,202.35,262.22,202.67Z"/><path d="M263,185.89c0-.54,0-1.07,0-1.61,0-.15,0-.3,0-.45a18.19,18.19,0,0,0,11.68-5.49q.12,1.46.18,2.91A20.51,20.51,0,0,1,263,186.09"/><path d="M262.78,193.2c0-.53.05-1,.07-1.58,0-.22,0-.44,0-.66a19.92,19.92,0,0,0,12-2.14c0,.85,0,1.69-.06,2.54A22.36,22.36,0,0,1,262.78,193.2Z"/><path d="M262.31,191.77l0-.06a.34.34,0,0,1,0,.1Z"/><path class="cls-4" d="M35.72,202.64A12.4,12.4,0,0,0,46.94,193c.24-1.21.54-2.75,1.75-3a2.09,2.09,0,0,1,2.17,1.58,20.09,20.09,0,0,1,.44,2.9c.63,3.36,4,5.48,7.35,6.32a7.81,7.81,0,0,1,3,1.16,2.12,2.12,0,0,1,.56,2.87,3,3,0,0,1-1.35.75c-2.29.76-4.71,1.47-6.42,3.16-2.18,2.17-2.72,5.46-4.09,8.21a1.91,1.91,0,0,1-.67.86c-.76.44-1.74-.28-2-1.13a9.9,9.9,0,0,1,0-2.61c0-2.48-1.8-4.65-3.91-6a35.87,35.87,0,0,0-6.87-2.8c-.64-.23-1.35-.58-1.48-1.24s-.22-.93.31-1.38"/><path class="cls-4" d="M217.6,40.06a12.4,12.4,0,0,0,11.23-9.68c.23-1.21.53-2.74,1.74-3A2.11,2.11,0,0,1,232.75,29a20,20,0,0,1,.43,2.91c.63,3.35,4,5.48,7.35,6.32a7.73,7.73,0,0,1,3,1.15,2.12,2.12,0,0,1,.57,2.87,2.9,2.9,0,0,1-1.36.75c-2.28.77-4.7,1.47-6.41,3.17-2.19,2.17-2.72,5.45-4.09,8.21a1.91,1.91,0,0,1-.68.85c-.75.44-1.74-.28-2-1.12a9.55,9.55,0,0,1-.05-2.62c0-2.48-1.81-4.65-3.91-6a36.23,36.23,0,0,0-6.88-2.8c-.63-.23-1.35-.58-1.48-1.25s-.21-.93.31-1.38"/></g></svg>