<svg xmlns="http://www.w3.org/2000/svg" viewBox="0 0 310 256"><defs><style>.cls-1{fill:#006a81;}.cls-2{fill:#f08800;}.cls-3{fill:#338bab;}.cls-4{fill:#33bede;}.cls-5{opacity:0.24;}.cls-10,.cls-13,.cls-6{fill:#d1d5d6;}.cls-6{stroke:#000;stroke-width:2px;}.cls-12,.cls-6{stroke-miterlimit:10;}.cls-7{fill:#3b9ab8;}.cls-8{fill:#7e3118;}.cls-9{opacity:0.29;}.cls-11{fill:#fff;}.cls-12{fill:none;stroke:#7e3118;stroke-width:9px;}.cls-13{opacity:0.2;}.cls-14{fill:#bd325b;}</style></defs><g id="Layer_2" data-name="Layer 2"><rect class="cls-1" y="221.3" width="310" height="35.2"/><path class="cls-1" d="M310,196v24a36.26,36.26,0,0,1-36.15,36.15H36.14A36.25,36.25,0,0,1,0,220v-25.9S113.07,231.25,310,196Z"/><path class="cls-2" d="M310,.16V196C113.07,231.25,0,194.11,0,194.11V.16Z"/><path class="cls-3" d="M196.34,36.21c2.48-6.1,8.7-13.22,14.87-15.55a5.2,5.2,0,0,1,3.5-.36,4.92,4.92,0,0,1,2.6,3.18c2.47,6.83-1.14,16.41-4.67,22.76"/><path d="M197.78,36.61A30.07,30.07,0,0,1,205,26.5,23.74,23.74,0,0,1,209.7,23c1.61-.9,4.19-2.34,5.54-.4,2.13,3.06,1.51,7.84.73,11.24a45.63,45.63,0,0,1-4.62,11.63c-.93,1.69,1.66,3.2,2.59,1.51,3.55-6.44,6.75-14.39,5.37-21.87a10,10,0,0,0-2.14-4.9,5.21,5.21,0,0,0-5.5-1.31c-3.63,1-6.87,3.54-9.49,6.16a33.42,33.42,0,0,0-7.29,10.73c-.74,1.78,2.16,2.56,2.89.8Z"/><path class="cls-3" d="M94.7,43.19c-.3-5.21-.49-12.46,1.46-17.29s5.93-9.09,11-10.18a6.17,6.17,0,0,1,4.46.45,6.78,6.78,0,0,1,2.61,3.94c1,3.3,1.64,10.16,1,13.56"/><path d="M96.2,43.19c-.39-6.79-.78-14.38,3.23-20.24a13.64,13.64,0,0,1,7.81-5.71c1.91-.46,3.79-.28,4.85,1.55a12.76,12.76,0,0,1,1.3,4.1,29.23,29.23,0,0,1,.39,10.38c-.35,1.88,2.54,2.69,2.89.79a32.89,32.89,0,0,0-.25-11.15c-.58-3.65-1.92-8.09-6.12-8.78-4-.67-8.22,1.6-11,4.34A20.26,20.26,0,0,0,93.72,29a57,57,0,0,0-.52,14.24c.1,1.91,3.1,1.93,3,0Z"/><path class="cls-4" d="M57.27,256.5c0-.12,0-.23-.05-.34s0-.25,0-.37c-.09-.7-.17-1.41-.26-2.12-.81-6.76-1.45-13.91-2-21.09-.27-3.77-.51-7.55-.72-11.28-.31-5.59-.57-11.06-.79-16.23-.56-13-.88-24.18-1.37-30.38l-2.55-32.37c-.63-8-1.26-16.13-.73-24.18.71-10.81,3.51-21.4,7.08-31.68C60.57,72.88,66.94,59.32,78,49.61c6.87-6,15.28-10.33,24-13.63a134.12,134.12,0,0,1,77.2-5.12l.84.2a59.39,59.39,0,0,1,15.37,5.64c5.31,3,10.9,5.64,15.56,9.55,11.45,8.19,15.08,12.34,19.9,23.08s6.33,22.5,7.8,34.09c2.8,22,4.67,44,7.47,66,.58,4.58.89,19.47.84,35.81,0,5.29-.06,10.74-.15,16-.06,3.61-.14,7.16-.24,10.54-.19,6-.43,11.55-.75,16,0,0,0,0,0,0-.13,1.9-.28,3.61-.44,5.07-.14,1.28-.29,2.37-.45,3.25l-.06.34"/><path class="cls-4" d="M58.72,256.1c-1.47-10-2.09-20.11-2.72-30.16s-1.06-20.24-1.45-30.37c-.3-7.63-.54-15.26-1.14-22.87q-1.24-15.81-2.49-31.62c-.81-10.33-1.38-20.67.27-31A142.08,142.08,0,0,1,59,82.25a92.78,92.78,0,0,1,12.1-23A60.44,60.44,0,0,1,91.57,42.23c16.63-8.74,36-12.87,54.66-13.26a131,131,0,0,1,28.56,2.48,87.52,87.52,0,0,1,13.79,3.74,96.46,96.46,0,0,1,12.69,6.47,108.82,108.82,0,0,1,11.63,7.87,65.08,65.08,0,0,1,8,6.87c4.8,5,8,11.51,10.31,18,3.26,9.13,4.57,18.79,5.79,28.36,1.32,10.4,2.45,20.82,3.56,31.24s2.18,20.7,3.44,31a194.32,194.32,0,0,1,1.25,19.9c.38,19.67.35,39.44-.75,59.08a104.27,104.27,0,0,1-1.14,12.1c-.34,1.89,2.55,2.7,2.89.8a108.09,108.09,0,0,0,1.23-12.7c.28-4.89.46-9.79.59-14.69q.4-15.64.32-31.3c0-8.26-.06-16.54-.52-24.79-.19-3.39-.67-6.75-1.08-10.13-.64-5.33-1.23-10.67-1.81-16-1.16-10.68-2.25-21.36-3.47-32-1.15-10-2.17-20.16-4.22-30.06A75.79,75.79,0,0,0,228.24,61c-3.65-6-8.89-10.44-14.48-14.55A107.69,107.69,0,0,0,202,38.63,96.68,96.68,0,0,0,189,32.14c-9.06-3.32-18.92-4.92-28.5-5.73a135.15,135.15,0,0,0-57.63,7.65c-8.73,3.2-17.21,7.32-24.43,13.24A67,67,0,0,0,62.07,68,142.28,142.28,0,0,0,51.94,93.71a107.56,107.56,0,0,0-4.85,30.1c-.07,10.66,1.15,21.34,2,31.95.71,9,1.54,17.91,2,26.89.92,20,1.42,40,3.23,59.91.44,4.78.88,9.58,1.58,14.34.28,1.9,3.17,1.09,2.89-.8Z"/><path class="cls-5" d="M90,145.38s28.93,1.52,33.22-28.14Z"/><path d="M102.05,24.56a31.07,31.07,0,0,1,3.09,7.75.75.75,0,0,0,1.44-.4,32.14,32.14,0,0,0-3.24-8.11c-.47-.84-1.77-.08-1.29.76Z"/><path class="cls-5" d="M249.1,221.3q0,5.41-.27,10.3a132.76,132.76,0,0,1-2.54,19.88c-.09.46-.19.91-.3,1.36-.25,1.14-.51,2.25-.79,3.32l-.09.34H227.06c0-.11,0-.23,0-.34q.16-4.23.29-8.36.28-8.6.41-16.75.09-5,.12-9.75.06-7.2,0-14c0-.56,0-1.12,0-1.67a819.09,819.09,0,0,0-4.75-85.11s-3.47,10.07-23.87,13.18c0,0,20.4-12.35,23.25-18.47C220.25,96.6,218.12,87,218.12,87c2.45-29-26.48-49.07-38.13-55.91-2.91-1.7-4.74-2.59-4.74-2.59,13.77,2.07,24,8,32.68,13.79,23.62,15.61,28.32,21.43,34.85,81.22,5.41,49.53,5.18,62.3,5.81,81.6.08,2.54.18,5.19.31,8S249.09,218.67,249.1,221.3Z"/><path d="M108.39,23.54c-1,2.81-2.13,5.6-3.25,8.37a.75.75,0,0,0,.52.93.77.77,0,0,0,.92-.53q1.69-4.16,3.25-8.37a.75.75,0,0,0-.52-.92.76.76,0,0,0-.92.52Z"/><path d="M205,31.42c-.16,1.31-.32,2.62-.59,3.92A12.07,12.07,0,0,1,203.14,39a.75.75,0,0,0,1.3.76c1.44-2.49,1.72-5.57,2.05-8.36a.75.75,0,0,0-.75-.75.76.76,0,0,0-.75.75Z"/><path d="M209.54,33.23c-1.09.89-2.17,1.79-3.18,2.77a13.39,13.39,0,0,0-2.62,3.32.75.75,0,0,0,1.3.75A12.14,12.14,0,0,1,207.5,37c1-1,2-1.83,3.1-2.7a.75.75,0,0,0,0-1.06.76.76,0,0,0-1.06,0Z"/><circle class="cls-6" cx="83.38" cy="105.42" r="39.96"/><path class="cls-5" d="M77.53,65.46s29.35,8.05,34.37,34.87c0,0,5.52,19.2-20.21,45.05,0,0,36.65-9.28,30.88-47.78C122.57,97.6,116.49,64.85,77.53,65.46Z"/><path class="cls-7" d="M145.63,106.17a14.21,14.21,0,0,0-24.47,2.59,8.45,8.45,0,0,0-.69,5.6c1,3.54,5.38,5.42,8.89,4.33,1.5-.46,2.87-1.35,4.42-1.55,2.06-.26,4.08.72,6.15.79a7.23,7.23,0,0,0,6.79-4.45c1.06-2.68.36-5-1.29-7.58"/><path d="M146.93,105.41A15.72,15.72,0,0,0,120.34,107c-1.36,2.49-2.16,5.58-1.11,8.33a8.18,8.18,0,0,0,5.24,4.7,10,10,0,0,0,7.25-.69,6.9,6.9,0,0,1,4.51-.56,15.62,15.62,0,0,0,4.6.58,8.75,8.75,0,0,0,7-4.66c1.63-3.29.8-6.61-1.06-9.59-1-1.63-3.62-.12-2.59,1.52,1.3,2.07,2.19,4.36,1,6.71a5.75,5.75,0,0,1-4.65,3c-2.48.16-4.77-1.15-7.3-.69-2.1.38-3.86,1.81-6,1.77a5.92,5.92,0,0,1-4.54-2.19c-1.37-1.84-.84-4.37.1-6.29a13.14,13.14,0,0,1,9.29-7,13,13,0,0,1,12.37,4.92c1.14,1.53,3.75,0,2.59-1.51Z"/><path d="M126.35,119.51a27.44,27.44,0,0,0-.79,8.37,13.64,13.64,0,0,0,2.17,7.2,9,9,0,0,0,16-3.18,18.12,18.12,0,0,0,.07-5.88l-.79-7.94"/><path d="M124.9,119.12c-1.62,6.61-1.8,16.35,5.26,19.95a10.51,10.51,0,0,0,9.28.22,10.65,10.65,0,0,0,5.77-7.19,22,22,0,0,0,0-6.87l-.71-7.15c-.18-1.9-3.19-1.92-3,0,.35,3.49.86,7,1,10.5a8.25,8.25,0,0,1-3,7.17,7.37,7.37,0,0,1-7.1,1.05,8,8,0,0,1-4.92-5.88,23.3,23.3,0,0,1,.3-11c.46-1.87-2.43-2.67-2.9-.79Z"/><path d="M79.74,149.66l-.63,2.11a.75.75,0,1,0,1.44.4l.63-2.11a.76.76,0,0,0-.52-.92.77.77,0,0,0-.92.52Z"/><path d="M84.42,151.3l-.12.73,1.45.4,0-.26a.51.51,0,0,0,0-.3.49.49,0,0,0-.09-.28.74.74,0,0,0-1-.26.67.67,0,0,0-.35.44l-.11.73a.51.51,0,0,0,0,.3.57.57,0,0,0,.08.28.81.81,0,0,0,.45.34.74.74,0,0,0,.58-.07.75.75,0,0,0,.35-.45l.11-.73-1.45-.4,0,.26a.61.61,0,0,0,0,.3.49.49,0,0,0,.09.28.77.77,0,0,0,.45.34.75.75,0,0,0,.92-.52l.11-.73a.51.51,0,0,0,0-.3.71.71,0,0,0-.09-.28.77.77,0,0,0-.45-.34.73.73,0,0,0-.92.52Z"/><path d="M91,149.86a5.46,5.46,0,0,1,0,.7l0-.2c0,.16,0,.31-.07.47,0,.38,0,.76,0,1.14a.75.75,0,0,0,1.5,0,10.61,10.61,0,0,1,0-1.26l0,.2.06-.4c0-.22,0-.43,0-.65a.76.76,0,0,0-.75-.75.77.77,0,0,0-.75.75Z"/><path d="M186.71,140.13l-.21,1.47-.13.92a.89.89,0,0,0,.08.58.77.77,0,0,0,.45.34.78.78,0,0,0,.58-.08.72.72,0,0,0,.34-.44l.21-1.47.12-.92a.83.83,0,0,0-.07-.58.77.77,0,0,0-1-.27.73.73,0,0,0-.34.45Z"/><path d="M192.54,139.58l-.37,2.65a.81.81,0,0,0,.08.57.75.75,0,0,0,.45.35.78.78,0,0,0,.58-.08.71.71,0,0,0,.34-.45L194,140a.83.83,0,0,0-.07-.58.74.74,0,0,0-1-.27.75.75,0,0,0-.35.45Z"/><path d="M199.81,139c-.08,1.15-.09,2.3-.14,3.46a.76.76,0,0,0,.75.75.77.77,0,0,0,.75-.75c.05-1.16.06-2.31.14-3.46a.75.75,0,1,0-1.5,0Z"/><circle class="cls-6" cx="187.43" cy="94.4" r="39.96"/><path class="cls-5" d="M181,55.71s29.34,8,34.37,34.87c0,0,7.43,17.23-18.3,43.08,0,0,34.74-7.31,29-45.81C226,87.85,220.32,52.57,181,55.71Z"/><path class="cls-8" d="M246.72,256.16c-.07-1.13-.16-2.25-.28-3.37,0-.44-.09-.88-.15-1.31-.13-1.22-.3-2.43-.5-3.64,0,0,0,0,0,0A94.28,94.28,0,0,0,242,232.31a94.47,94.47,0,0,0-12.95-25.16c-.38-.53-.76-1.05-1.15-1.56a95,95,0,0,0-153.42,2,94.52,94.52,0,0,0-17.14,46.08c-.07.69-.13,1.38-.17,2.08,0,.12,0,.25,0,.37a2,2,0,0,0,0,.34H70c0-.12,0-.23,0-.34A81.88,81.88,0,0,1,89.73,209c.78-.9,1.58-1.79,2.4-2.65A81.84,81.84,0,0,1,149,180.58c1,0,2-.06,3-.06a82.05,82.05,0,0,1,81.68,73.31l0,.29q.11,1,.18,2c0,.11,0,.22,0,.34h12.9A2,2,0,0,0,246.72,256.16Z"/><path class="cls-8" d="M228.54,256.16l0,.34h5.28c0-.12,0-.23,0-.34q-.07-1-.18-2l0-.29a82.15,82.15,0,0,0-81.68-73.31c-1,0-2,0-3,.06a81.84,81.84,0,0,0-56.84,25.78c-.82.86-1.62,1.75-2.4,2.65a81.88,81.88,0,0,0-19.68,47.15c0,.11,0,.22,0,.34H75.3l0-.34a76.7,76.7,0,0,1,20.86-46.44l.21-.22A76.63,76.63,0,0,1,149,185.85c1,0,2-.06,3-.06a76.55,76.55,0,0,1,49.29,17.87A78.61,78.61,0,0,1,207,209a77.36,77.36,0,0,1,9.76,12.3,76.75,76.75,0,0,1,11.79,34.86Z"/><path class="cls-8" d="M161.31,153.82,161,182.15l-20.84-.22.29-28.33a10.42,10.42,0,0,1,20.84.22Z"/><path class="cls-9" d="M228.54,256.16l0,.34h5.28c0-.12,0-.23,0-.34q-.07-1-.18-2l0-.29a82.15,82.15,0,0,0-81.68-73.31c-1,0-2,0-3,.06a81.84,81.84,0,0,0-56.84,25.78c-.82.86-1.62,1.75-2.4,2.65a81.88,81.88,0,0,0-19.68,47.15c0,.11,0,.22,0,.34H75.3l0-.34a76.7,76.7,0,0,1,20.86-46.44l.21-.22A76.63,76.63,0,0,1,149,185.85c1,0,2-.06,3-.06a76.55,76.55,0,0,1,49.29,17.87A78.61,78.61,0,0,1,207,209a77.36,77.36,0,0,1,9.76,12.3,76.75,76.75,0,0,1,11.79,34.86Z"/><circle cx="86.7" cy="109.66" r="6.56"/><circle class="cls-10" cx="84.92" cy="108.8" r="2.55"/><circle cx="192.9" cy="100.33" r="6.56"/><circle class="cls-10" cx="191.11" cy="99.46" r="2.55"/><path d="M129.39,100.75h-.32a1.52,1.52,0,0,0-1.29,2.26,4.27,4.27,0,0,0,1.89,1.65,13.49,13.49,0,0,0,2.5,1,12.15,12.15,0,0,0,5.05.39c1.67-.24,3.9-1.57,3.33-3.58-.53-1.86-3.45-1.92-5-2-1,0-1.94,0-2.91,0h-2.79l.9.69-.05-.09v1.51l0-.08-1.3.74h.06l-1.29-.75,0,.06v-1.52l0,0a1.54,1.54,0,0,0,.54,2.05,1.5,1.5,0,0,0,2.05-.54l0,0a1.55,1.55,0,0,0,0-1.52,1.72,1.72,0,0,0-1.4-.8,1.46,1.46,0,0,0-1.29.74,1.67,1.67,0,0,0,.55,2.24,3,3,0,0,0,1.56.25l3,0c.95,0,1.91,0,2.86,0a6.51,6.51,0,0,1,1.05.11c.23,0,.47.1.7.16l.35.12q-.34-.09-.33-.54a.56.56,0,0,1-.2-.59c.07-.12.05-.11-.07,0,.11-.08.09-.08-.06,0l-.26.14c.24-.11-.21.06-.27.07l-.52.11c.28,0-.3,0-.35,0h-.68c-.31,0-.87-.05-1-.07a10.34,10.34,0,0,1-2.56-.7A9.85,9.85,0,0,1,131,102a3.15,3.15,0,0,1-.53-.33c.1.08.09.06,0-.05.08.11.08.09,0-.06l-1.3,2.25h.32a1.5,1.5,0,0,0,0-3Z"/><path d="M127.63,101.39a2.56,2.56,0,0,0-1.59.21,1.52,1.52,0,0,0-.69,1.69c.54,1.46,2,2.1,3.36,2.54a11.23,11.23,0,0,0,3.91.46,15.57,15.57,0,0,0,3.94-.73c1.34-.44,2.94-1,3.35-2.48a1.5,1.5,0,0,0-2.89-.8c0-.19.22-.14,0-.08a3.12,3.12,0,0,0-.49.21c-.42.16-.86.3-1.29.43a11.54,11.54,0,0,1-2.58.45,8.7,8.7,0,0,1-2.56-.2,9.07,9.07,0,0,1-1.08-.34,4.17,4.17,0,0,1-.67-.33c-.15-.11-.18-.12-.1-.06-.17-.19-.16-.14,0,.14l-.69,1.69-.08.07h-.79l.14,0a1.55,1.55,0,0,0,1.85-1,1.52,1.52,0,0,0-1.05-1.85Z"/><polygon class="cls-11" points="130.14 118.64 130.64 123.9 133.96 123.9 133.96 118.64 130.14 118.64"/><polygon class="cls-11" points="138.07 118.64 137.57 123.9 134.24 123.9 134.24 118.64 138.07 118.64"/><path class="cls-8" d="M233.85,180.53,215.72,202.3,199.7,189l18.14-21.77a10.41,10.41,0,0,1,18.36,5.74A10.33,10.33,0,0,1,233.85,180.53Z"/><path class="cls-8" d="M78.84,180.09l20.74,19.3-14.2,15.25-20.74-19.3a10.42,10.42,0,0,1,14.2-15.25Z"/><path class="cls-8" d="M40.15,231.23l28.22,2.56-1.88,20.75L38.27,252a10.44,10.44,0,0,1-9.42-11.32,10.45,10.45,0,0,1,11.3-9.44Z"/><path class="cls-8" d="M259.67,230.47l-28.18,2.92,2.15,20.73,28.18-2.92a10.42,10.42,0,0,0-2.15-20.73Z"/><path class="cls-8" d="M175.25,255.28c0,.3,0,.59,0,.88,0,.12,0,.23,0,.34h-49c0-.11,0-.22,0-.34,0-.29,0-.58,0-.88A24.53,24.53,0,0,1,149,230.84c.58-.05,1.17-.07,1.77-.07a24.53,24.53,0,0,1,24.51,24.51Z"/><polyline class="cls-12" points="150.87 256.5 151.19 256.16 151.73 255.6 168.31 238.2 184.41 221.3 195.41 209.75 201.22 203.66 204.86 199.84 206.25 198.38"/><polyline class="cls-12" points="152.81 256.5 152.4 256.16 151.73 255.6 148.97 253.33 132.1 239.38 110.21 221.3 96.19 209.72 95.88 209.46 92.13 206.36 85.92 201.23"/><polyline class="cls-12" points="148.97 256.5 148.97 256.16 148.97 253.33 148.97 230.84 148.97 221.3 148.97 211.19 148.97 185.85 148.97 180.58 148.97 175.46"/><line class="cls-12" x1="150.87" y1="256.5" x2="148.97" y2="256.5"/><path d="M239.5,179.45A10.15,10.15,0,0,1,229.17,183c-3.79-.9-7.94-3-11.7-.81-3,1.75-4.17,5.67-3.4,8.94.89,3.77,4.11,6.63,7.45,8.3a21.49,21.49,0,0,0,14,1.81c1.89-.39,1.09-3.28-.8-2.89a18.29,18.29,0,0,1-11-1.15c-2.95-1.29-6-3.56-6.82-6.87-.69-3,1.09-6.12,4.32-6.12,3.56,0,6.78,2.11,10.38,2.1a13,13,0,0,0,10-4.71c1.21-1.49-.9-3.62-2.12-2.13Z"/><path d="M58.63,192.56a13,13,0,0,0,8.63,4.63c3.67.43,6.85-1.3,10.37-1.9a4.88,4.88,0,0,1,4.36,1,5.3,5.3,0,0,1,1.43,3.91c-.08,3.31-2.94,5.84-5.64,7.31a18.27,18.27,0,0,1-12.27,1.79c-1.88-.38-2.69,2.51-.79,2.89,7.47,1.52,17.79-1,21-8.74,1.29-3.12.79-7.18-1.84-9.5-3.28-2.89-7.5-1.52-11.21-.43a11.87,11.87,0,0,1-6.49.44,10.34,10.34,0,0,1-5.43-3.53c-1.22-1.5-3.33.64-2.12,2.12Z"/><path class="cls-11" d="M48.13,78.9c-9.67,4.36-19.84,3.73-30.23,4.35-6,.35-10.67,1.19-17.9.94v-28a13.74,13.74,0,0,1,4.08,1.59c.29-5.44,4.14-10.07,8.46-13.39s10.3-5.9,15.39-3.71c3.57,1.54,5.91,5.14,6.9,8.9s.82,7.72.64,11.6c2.21-2.6,6.38-2.9,9.38-1.28s4.94,4.77,5.93,8C52.17,72.5,52.44,75.17,48.13,78.9Z"/><path class="cls-11" d="M310,115.89v22.58c-7.17,1.5-14.55,1.29-22.06,1.74-8.76.52-14.79,2.07-30.06-.28-2.15-.33-3.64-2.22-4.7-4.32a18.68,18.68,0,0,1-1.86-7.49,16.26,16.26,0,0,1,8-13.43,15.05,15.05,0,0,1,14.78,0c.28-5.45,4.13-10.08,8.46-13.4,5.47-4.2,13.29-7.09,18.95-1.18a11.81,11.81,0,0,1,2,2.85c2.43,4.76,2.21,10,2,15.13A6.75,6.75,0,0,1,310,115.89Z"/><path class="cls-13" d="M97.9,36.57s-53.82,30.34-41.77,130l2.33,65.56-5.69-.52-6-101.86S44.1,53.29,97.9,36.57Z"/><path class="cls-14" d="M127.77,137.46s7.23-4.39,15-.64C142.77,136.82,136.37,144.22,127.77,137.46Z"/><path class="cls-5" d="M95.72,33.41s11.21-5.56,19.76-5.86v2.23L95.22,36.73Z"/><path class="cls-13" d="M97.25,36.38s2.58-17.83,13.06-19.14c0,0-2.43-1.22-7.62,2.16C97,23.12,95.36,35,95.87,36.73"/><path class="cls-5" d="M198.29,33.05s7.36,2.31,15.8,9.56l-1.56,2.74L196.86,36Z"/><path class="cls-13" d="M201.07,34.34S209.19,22,214.72,22c0,0-.86-.69-4.1.5-4.88,1.8-10,9-10,9l-1.33,2Z"/></g></svg>