<?xml version="1.0" encoding="UTF-8"?>
<svg width="598px" height="546px" viewBox="0 0 598 546" version="1.1" xmlns="http://www.w3.org/2000/svg" xmlns:xlink="http://www.w3.org/1999/xlink">
    <!-- Generator: Sketch 62 (91390) - https://sketch.com -->
    <title>Kingsly Copy 14</title>
    <desc>Created with Sketch.</desc>
    <defs>
        <rect id="path-1" x="0" y="0" width="598" height="546" rx="52"></rect>
    </defs>
    <g id="Page-1-Copy" stroke="none" stroke-width="1" fill="none" fill-rule="evenodd">
        <g id="Kingsly-Copy-14">
            <mask id="mask-2" fill="white">
                <use xlink:href="#path-1"></use>
            </mask>
            <use id="Mask" fill="#33BEDE" xlink:href="#path-1"></use>
            <g id="Proctor" mask="url(#mask-2)">
                <g transform="translate(-31.000000, -24.000000)">
                    <rect id="Rectangle" stroke="none" fill="#006A81" fill-rule="nonzero" x="72" y="414" width="511" height="58"></rect>
                    <path d="M660,356.2361 L660,422.376309 C659.871407,477.32786 625.488433,521.833548 583.035484,522 L76.9432258,522 C34.4937544,521.833472 0.116907575,477.323402 0,422.376309 L0,351 C0,351 240.729677,453.379533 660,356.2361 Z" id="Path" stroke="none" fill="#006A81" fill-rule="nonzero"></path>
                    <path d="M635,0 L635,368.421653 C244.951548,434.735293 21,364.866113 21,364.866113 L21,0 L635,0 Z" id="Path" stroke="none" fill="#F08800" fill-rule="nonzero"></path>
                    <path d="M396,107.470611 C400.212198,97.4178419 410.776661,85.684118 421.256201,81.8442898 C423.1065,80.9823147 425.208439,80.7725398 427.200835,81.2510116 C429.389927,82.2896013 431.002746,84.2035853 431.616849,86.4916355 C435.812062,97.7474408 429.680597,113.535232 423.685009,124" id="Path" stroke="none" fill="#338BAB" fill-rule="nonzero"></path>
                    <path d="M398.962331,107.686394 C401.726698,101.362939 405.781114,95.6862902 410.866028,91.0198485 C413.200786,88.7839739 415.803591,86.8459385 418.614972,85.2500255 C421.269397,83.7663567 425.523073,81.3924867 427.748833,84.5906171 C431.260589,89.635091 430.238388,97.5150207 428.952393,103.119992 C427.306021,109.830205 424.742908,116.281626 421.335346,122.292289 C419.802044,125.07829 424.072207,127.567556 425.605508,124.781556 C431.458434,114.165082 436.734311,101.059341 434.459089,88.7284045 C434.03809,85.7655209 432.818407,82.9731115 430.930846,80.6506523 C428.595664,78.2109085 425.047327,77.3658568 421.862933,78.4910899 C415.878111,80.1396108 410.536285,84.3268538 406.216661,88.6459785 C401.093306,93.7006755 397.010029,99.710071 394.197555,106.334607 C392.977508,109.268975 397.758771,110.554821 398.962331,107.653424 L398.962331,107.686394 Z" id="Path" stroke="none" fill="#000000" fill-rule="nonzero"></path>
                    <path d="M228.304987,119 C227.818692,110.158503 227.510705,97.8550764 230.671625,89.6584487 C233.832545,81.461821 240.284064,74.2324971 248.502456,72.3827406 C250.918547,71.6794063 253.498857,71.9519641 255.732048,73.1464016 C257.862658,74.7717963 259.364204,77.1448265 259.962818,79.8326776 C261.583803,85.432858 262.621233,97.0744452 261.583803,102.844328" id="Path" stroke="none" fill="#338BAB" fill-rule="nonzero"></path>
                    <path d="M230.362433,118.522195 C229.713893,107.230793 229.065353,94.6090356 235.733675,84.8641738 C238.757206,80.2184507 243.377192,76.8406689 248.721107,75.3687539 C251.89729,74.6037989 255.023586,74.9031291 256.786285,77.9463197 C257.887489,80.0803121 258.618472,82.3857504 258.948085,84.7643971 C260.193065,90.4333245 260.412713,96.279406 259.596625,102.025773 C259.014602,105.152111 263.820451,106.499097 264.402474,103.3395 C265.320439,97.1802861 265.179841,90.9095365 263.986743,84.797656 C263.022247,78.7279042 260.79393,71.3444253 253.809652,70.1969928 C247.157959,69.0828192 240.140422,72.8577059 235.517495,77.4141771 C230.738937,82.1888651 227.506012,88.2897902 226.238383,94.9249953 C224.960761,102.751198 224.670251,110.706797 225.373663,118.605342 C225.539955,121.781568 230.528725,121.814827 230.362433,118.605342 L230.362433,118.522195 Z" id="Path" stroke="none" fill="#000000" fill-rule="nonzero"></path>
                    <path d="M166.288568,472 C166.288568,471.801975 166.288568,471.620452 166.206152,471.438928 C166.123736,471.257405 166.206152,471.026376 166.206152,470.82835 C166.057803,469.673203 165.925937,468.501553 165.777589,467.329904 C164.442449,456.17448 163.387525,444.375474 162.480948,432.526962 C162.035902,426.305668 161.640305,420.067872 161.294158,413.912586 C160.783179,404.687909 160.354616,395.661256 159.991985,387.129667 C159.068926,365.676929 158.541464,347.227574 157.733787,336.996269 L153.530571,283.578951 C152.492129,270.377266 151.453687,256.961053 152.327297,243.676858 C153.497604,225.838081 158.1129,208.36235 163.997403,191.398185 C171.728024,168.988325 182.227823,146.611468 200.458242,130.587923 C211.782201,120.68666 225.644573,113.541247 240.017924,108.095552 C280.68474,92.8259268 324.943374,89.8872725 367.268232,99.646474 L368.65282,99.9765161 C377.486397,101.893104 386.012282,105.025254 393.9875,109.283704 C402.740079,114.234336 411.954188,118.590892 419.63536,125.043216 C438.508624,138.558441 444.492026,145.406815 452.436929,163.130077 C460.381831,180.853339 462.870795,200.259816 465.293825,219.385757 C469.909121,255.690391 472.99148,291.995025 477.606776,328.299659 C478.562801,335.857623 479.073781,360.429259 478.991365,387.393701 C478.991365,396.123315 478.892465,405.116963 478.744117,413.797071 C478.645217,419.754332 478.513352,425.612579 478.34852,431.190291 C478.035339,441.091555 477.639742,450.250224 477.11228,457.593661 C477.11228,457.593661 477.11228,457.593661 477.11228,457.593661 C476.897998,460.729061 476.65075,463.550922 476.387019,465.960229 C476.156254,468.072499 475.909006,469.871228 475.645275,471.323414 L475.546376,471.884485" id="Path" stroke="none" fill="#33BEDE" fill-rule="nonzero"></path>
                    <path d="M169.184332,470.89133 C166.760086,454.386921 165.737615,437.700963 164.698653,421.114031 C163.65969,404.527099 162.950557,387.709106 162.30739,370.990139 C161.812646,358.397274 161.41685,345.80441 160.427362,333.244554 C159.064068,315.848906 157.695276,298.453259 156.320987,281.057611 C154.985178,264.008556 154.045164,246.942996 156.766256,229.893941 C159.488134,214.184965 163.80374,198.794751 169.646093,183.962169 C174.485157,170.434521 181.2026,157.655807 189.60077,146.002027 C198.627473,134.24395 210.159863,124.647698 223.358805,117.911522 C250.784117,103.486668 282.728091,96.6703467 313.501171,96.0266747 C329.303393,95.6625596 345.097819,97.0351406 360.600805,100.119768 C368.336816,101.553571 375.942733,103.617999 383.342539,106.292417 C390.571861,109.330833 397.566819,112.900012 404.270213,116.970771 C410.936168,120.882656 417.342696,125.221344 423.44979,129.959741 C428.146738,133.375877 432.558943,137.167832 436.642965,141.29827 C444.55887,149.550475 449.83614,160.294846 453.645669,171.006208 C459.021887,186.074734 461.18227,202.017993 463.194229,217.812713 C465.371103,234.977299 467.234639,252.174894 469.065192,269.372489 C470.895745,286.570084 472.660332,303.536617 474.738257,320.536159 C475.986562,331.441565 476.674613,342.403918 476.79969,353.379934 C477.426366,385.844108 477.376892,418.473325 475.56283,450.887986 C475.324666,457.575684 474.696924,464.243787 473.682803,470.858321 C473.122093,473.977655 477.888127,475.314512 478.448837,472.178674 C479.536814,465.237877 480.214144,458.238819 480.477288,451.218074 C480.939049,443.147418 481.235895,435.060257 481.450284,426.973096 C481.890057,409.764499 482.065966,392.544898 481.978011,375.314294 C481.978011,361.681652 481.879063,348.016001 481.120455,334.399863 C480.807117,328.804868 480.015527,323.259386 479.339376,317.680896 C478.283922,308.884046 477.310926,300.070691 476.354421,291.27384 C474.44141,273.647131 472.64384,256.020422 470.631881,238.45973 C468.735362,221.95532 467.053233,205.18684 463.672482,188.847474 C461.020269,174.771448 455.97195,161.255901 448.747703,148.890299 C442.728317,138.987653 434.086787,131.659695 424.868057,124.876383 C418.692543,120.154184 412.21396,115.842766 405.47409,111.969934 C398.606374,107.866346 391.439837,104.285783 384.035181,101.258573 C369.093911,95.7791086 352.833323,93.138403 337.034496,91.8015459 C304.8143,89.0605668 272.383999,93.3688523 241.994165,104.427419 C227.597113,109.70883 213.612348,116.508647 201.705507,126.279258 C190.532433,135.763466 181.355598,147.376755 174.708974,160.443385 C167.777817,174.011683 162.182816,188.222972 158.003116,202.876223 C152.993553,218.971571 150.300383,235.698997 150.004754,252.554495 C149.889314,270.148196 151.901273,287.774906 153.303048,305.286084 C154.473942,320.140053 155.842734,334.845482 156.601342,349.666442 C158.118557,382.675261 158.94313,415.68408 161.928086,448.54436 C162.653711,456.433467 163.379335,464.355584 164.533738,472.211683 C164.995499,475.347521 169.761533,474.010664 169.299772,470.89133 L169.184332,470.89133 Z" id="Path" stroke="none" fill="#33BEDE" fill-rule="nonzero"></path>
                    <path d="M221,288.978069 C221,288.978069 268.897351,291.515619 276,242 L221,288.978069 Z" id="Path" stroke="none" fill="#000000" fill-rule="nonzero" opacity="0.24"></path>
                    <path d="M240.18017,87.9227086 C242.544809,92.0794742 244.333879,96.5338488 245.499003,101.165379 C245.732877,101.788929 246.408555,102.131089 247.054367,101.953007 C247.700178,101.774925 248.101284,101.135844 247.977683,100.481886 C246.762481,95.6322375 244.886154,90.9699355 242.400654,86.6240726 C241.591641,85.188738 239.353944,86.4873741 240.18017,87.9227086 L240.18017,87.9227086 Z" id="Path" stroke="none" fill="#000000" fill-rule="nonzero"></path>
                    <path d="M483,413.796491 C483,419.760146 482.852539,425.437193 482.557617,430.827632 C481.993073,441.875053 480.601884,452.863607 478.395938,463.699386 C478.248477,464.46 478.084631,465.204079 477.904401,465.948158 C477.494787,467.833158 477.068788,469.668553 476.61002,471.437807 L476.462559,472 L446.888422,472 C446.888422,471.818114 446.888422,471.619693 446.888422,471.437807 C447.063191,466.774912 447.221575,462.167135 447.363575,457.614474 C447.66942,448.134357 447.893342,438.902266 448.035342,429.918202 C448.133649,424.406506 448.199188,419.032602 448.231957,413.796491 C448.297495,405.859649 448.297495,398.143275 448.231957,390.647368 C448.231957,389.721404 448.231957,388.795439 448.231957,387.886009 C448.059868,340.871439 445.462129,293.897802 440.449289,247.155877 C440.449289,247.155877 434.763846,263.806711 401.339336,268.949123 C401.339336,268.949123 434.763846,248.528289 439.433446,238.408816 C435.730535,207.603947 432.240623,191.730263 432.240623,191.730263 C436.254841,143.778509 388.854299,110.592588 369.766283,99.2825877 C364.998375,96.4716228 362,95 362,95 C384.561544,98.4227632 401.322952,108.22807 415.544753,117.801886 C454.245091,143.613158 461.945836,153.236579 472.644956,252.099868 C481.509005,333.998158 481.13216,355.113465 482.164387,387.026184 C482.295464,391.226096 482.459309,395.607895 482.672309,400.254254 C482.885308,404.900614 482.983615,409.447763 483,413.796491 Z" id="Path" stroke="none" fill="#000000" fill-rule="nonzero" opacity="0.24"></path>
                    <path d="M252.527517,85.9383686 C250.841907,90.780014 248.937169,95.5871994 247.049287,100.359925 C246.956027,100.691261 246.996167,101.046954 247.160777,101.347885 C247.325387,101.648815 247.600818,101.870029 247.925803,101.96232 C248.598218,102.129117 249.280413,101.727394 249.476564,101.049127 C251.375684,96.2706582 253.20176,91.4634729 254.954794,86.6275708 C255.138261,85.942769 254.746861,85.2349293 254.078277,85.0424057 C253.409567,84.8647164 252.723482,85.2611067 252.527517,85.9383686 L252.527517,85.9383686 Z" id="Path" stroke="none" fill="#000000" fill-rule="nonzero"></path>
                    <path d="M410.410984,100.29916 C410.132969,102.50942 409.854954,104.719679 409.385803,106.913066 C408.997443,109.073423 408.252265,111.158687 407.179058,113.088295 C406.814392,113.693982 407.024438,114.472039 407.648209,114.826133 C408.271979,115.180227 409.073265,114.97627 409.437931,114.370583 C411.940067,110.169403 412.426594,104.972762 413,100.265416 C413,99.5665459 412.416539,99 411.696804,99 C410.980981,99.0090871 410.402967,99.5703447 410.393608,100.265416 L410.410984,100.29916 Z" id="Path" stroke="none" fill="#000000" fill-rule="nonzero"></path>
                    <path d="M417.861792,103.331981 C416.040035,104.771171 414.234992,106.226532 412.546942,107.811258 C410.802576,109.365075 409.324509,111.177229 408.16804,113.179923 C407.821895,113.760426 408.027672,114.502511 408.627657,114.837417 C409.227642,115.172322 409.994632,114.973226 410.340777,114.392723 C411.423195,112.532654 412.811921,110.855843 414.452265,109.428326 C416.123602,107.811258 417.794939,106.469092 419.633409,105.062243 C420.122197,104.588738 420.122197,103.821658 419.633409,103.348152 C419.140319,102.883949 418.354882,102.883949 417.861792,103.348152 L417.861792,103.331981 Z" id="Path" stroke="none" fill="#000000" fill-rule="nonzero"></path>
                    <ellipse id="Oval" stroke="#000000" stroke-width="2" fill="#D1D5D6" fill-rule="nonzero" cx="209.5" cy="222" rx="65.5" ry="66"></ellipse>
                    <path d="M200,156.0139 C200,156.0139 248.213583,169.308296 256.459995,213.600928 C256.459995,213.600928 265.527762,245.309301 223.260795,288 C223.260795,288 283.466172,272.674287 273.987726,209.092394 C273.987726,209.092394 264.00004,155.006499 200,156.0139 Z" id="Path" stroke="none" fill="#000000" fill-rule="nonzero" opacity="0.24"></path>
                    <path d="M312.398507,222.7029 C307.521561,215.892896 299.443633,212.244613 291.205447,213.131351 C282.96726,214.018089 275.819334,219.305246 272.452317,227.002609 C271.040516,229.878721 270.64287,233.160677 271.325922,236.299278 C272.958378,242.176101 280.108534,245.297126 285.838453,243.487596 C288.287137,242.723941 290.523601,241.246434 293.053907,240.91441 C296.416766,240.482779 299.714327,242.109696 303.09351,242.225905 C307.927393,242.304411 312.319592,239.377092 314.177884,234.838373 C315.908287,230.389253 314.765568,226.537776 312.072016,222.254668" id="Path" stroke="none" fill="#3B9AB8" fill-rule="nonzero"></path>
                    <path d="M315.102172,221.986147 C309.959756,214.640941 301.471496,210.508258 292.633594,211.046859 C283.795692,211.58546 275.851147,216.719593 271.604237,224.637004 C269.379446,228.788347 268.070745,233.940013 269.788415,238.52483 C271.340557,242.320224 274.490102,245.199302 278.360403,246.360698 C282.315114,247.510167 286.549547,247.099447 290.220502,245.210326 C292.505761,244.058961 295.106147,243.729891 297.598302,244.27669 C300.045478,244.978735 302.581754,245.304651 305.12333,245.24367 C309.99128,244.815527 314.308677,241.886329 316.57446,237.47449 C319.240938,231.989382 317.883161,226.454259 314.840432,221.485985 C313.204556,218.768439 308.918562,221.28592 310.603514,224.020138 C312.730152,227.471254 314.186082,231.289156 312.23939,235.20709 C310.709433,238.08993 307.840393,239.976373 304.632568,240.208708 C300.575596,240.475461 296.82944,238.291421 292.690675,239.058336 C289.255336,239.691874 286.376194,242.075978 282.87542,242.00929 C279.989661,241.980801 277.266718,240.642155 275.448545,238.358109 C273.207395,235.29045 274.074409,231.072419 275.612132,227.871384 C278.620523,221.783496 284.238023,217.469652 290.809418,216.200942 C298.520842,214.940855 306.289529,218.089922 311.0452,224.403595 C312.910099,226.95442 317.179734,224.403595 315.282118,221.886114 L315.102172,221.986147 Z" id="Path" stroke="none" fill="#000000" fill-rule="nonzero"></path>
                    <path d="M280.406037,246.420317 C279.246652,251.045755 278.800037,255.823981 279.081915,260.586786 C279.139573,264.912754 280.399855,269.135313 282.71906,272.772997 C286.184977,277.547023 292.075946,279.86115 297.825542,278.707219 C303.575137,277.553289 308.142065,273.140286 309.536722,267.390754 C310.112187,264.101976 310.151818,260.740362 309.654049,257.438682 L308.329927,244" id="Path" stroke="none" fill="#000000" fill-rule="nonzero"></path>
                    <path d="M278.548873,244.083245 C275.836953,254.999378 275.535628,271.084572 287.354243,277.029819 C292.194845,279.522554 297.934292,279.656784 302.889194,277.39314 C307.768541,275.086189 311.321878,270.718064 312.548317,265.519161 C313.150561,261.760658 313.150561,257.932152 312.548317,254.173649 L311.359759,242.365729 C311.058435,239.22796 306.01962,239.194931 306.337685,242.365729 C306.923593,248.129315 307.777346,253.92593 308.011709,259.706031 C308.445226,264.232426 306.561483,268.673878 302.989635,271.546981 C299.599969,274.11761 295.102851,274.773711 291.104059,273.281011 C286.86283,271.637269 283.759851,267.978824 282.867857,263.570441 C281.562624,257.562394 281.734829,251.333344 283.370064,245.40441 C284.140116,242.316185 279.302184,240.995019 278.515392,244.099759 L278.548873,244.083245 Z" id="Path" stroke="none" fill="#000000" fill-rule="nonzero"></path>
                    <path d="M203.948499,294.888397 L203.066049,298.34338 C202.927598,298.778075 203.010472,299.266873 203.280289,299.606974 C203.550106,299.947075 203.960822,300.080443 204.342035,299.951746 C204.723248,299.823048 205.009906,299.454246 205.083077,298.998352 L205.965526,295.54337 C206.109979,294.893773 205.787734,294.227297 205.237155,294.036933 C204.682491,293.876995 204.117357,294.250401 203.948499,294.888397 L203.948499,294.888397 Z" id="Path" stroke="none" fill="#000000" fill-rule="nonzero"></path>
                    <path d="M212.41938,297.816599 L212.211901,298.897478 L214.718939,299.489741 L214.718939,299.10477 C214.770942,298.960053 214.770942,298.80529 214.718939,298.660573 C214.717865,298.511993 214.663548,298.367278 214.56333,298.245989 C214.204328,297.737302 213.4372,297.566497 212.834338,297.861018 C212.530836,297.991693 212.309606,298.229865 212.229191,298.512508 L212.039002,299.593387 C211.986999,299.738104 211.986999,299.892867 212.039002,300.037584 C212.042414,300.183704 212.090076,300.326561 212.177321,300.452168 C212.357872,300.694378 212.63397,300.873023 212.955368,300.955592 C213.292091,301.040285 213.654657,301.002812 213.958183,300.851946 C214.254445,300.706717 214.471887,300.467303 214.56333,300.18565 L214.753519,299.10477 L212.246481,298.512508 L212.246481,298.897478 C212.203302,299.043235 212.203302,299.195918 212.246481,299.341676 C212.247555,299.490255 212.301872,299.63497 212.40209,299.75626 C212.577758,300.002296 212.855774,300.182182 213.180137,300.259683 C213.867317,300.420842 214.577616,300.077032 214.770809,299.489741 L214.960998,298.408862 C215.013001,298.264144 215.013001,298.109381 214.960998,297.964664 C214.943486,297.818683 214.89048,297.677459 214.805389,297.55008 C214.629721,297.304044 214.351705,297.124158 214.027342,297.046657 C213.697016,296.960735 213.340009,296.994435 213.039467,297.139908 C212.738925,297.285382 212.521081,297.529929 212.43667,297.816599 L212.41938,297.816599 Z" id="Path" stroke="none" fill="#000000" fill-rule="nonzero"></path>
                    <path d="M222.134615,295.246537 C222.163409,295.63395 222.163409,296.02256 222.134615,296.409972 L222.134615,296.077562 C222.134615,296.34349 222.134615,296.592798 222,296.858726 C222,297.490305 222,298.121884 222,298.753463 C222,299.441906 222.645743,300 223.442308,300 C224.238872,300 224.884615,299.441906 224.884615,298.753463 C224.836614,298.056018 224.836614,297.356724 224.884615,296.65928 L224.884615,296.99169 L225,296.32687 C225,295.961219 225,295.612188 225,295.246537 C224.989643,294.561836 224.349927,294.008951 223.557692,294 C222.769653,294.017472 222.135601,294.565462 222.115385,295.246537 L222.134615,295.246537 Z" id="Path" stroke="none" fill="#000000" fill-rule="nonzero"></path>
                    <path d="M380.588776,278.967989 L380.242832,281.627731 L380.028677,283.292332 C379.963591,283.648453 380.010035,284.018282 380.160465,284.341754 C380.327838,284.642408 380.592726,284.862228 380.901773,284.956933 C381.225291,285.046782 381.567944,284.994872 381.857237,284.812185 C382.133467,284.639899 382.335232,284.353114 382.417336,284.016071 L382.76328,281.356329 L382.960962,279.691728 C383.039584,279.338131 382.998606,278.965206 382.845647,278.642306 C382.493203,278.037525 381.779984,277.826019 381.198296,278.153782 C380.919824,278.331811 380.718046,278.625132 380.638197,278.967989 L380.588776,278.967989 Z" id="Path" stroke="none" fill="#000000" fill-rule="nonzero"></path>
                    <path d="M389.624689,277.891999 L389.032341,282.39592 C388.961873,282.724598 389.007445,283.069301 389.160416,283.364688 C389.317443,283.655913 389.576306,283.869657 389.880839,283.959545 C390.195243,284.043945 390.528243,283.995183 390.809385,283.823578 C391.082514,283.659362 391.279519,283.382552 391.353704,283.058761 L391.962062,278.605828 C392.038469,278.27368 391.998645,277.923376 391.849996,277.620064 C391.522945,277.03001 390.811404,276.826056 390.249056,277.161174 C389.974735,277.327877 389.773397,277.602692 389.688726,277.925991 L389.624689,277.891999 Z" id="Path" stroke="none" fill="#000000" fill-rule="nonzero"></path>
                    <path d="M401.256098,278.058468 C401.109756,279.681452 401.091463,281.304435 401,282.941532 C401.009852,283.52293 401.618362,283.992399 402.371951,284 C403.121549,283.985164 403.724673,283.519851 403.743902,282.941532 C403.835366,281.304435 403.853659,279.681452 404,278.058468 C404,277.473892 403.385757,277 402.628049,277 C401.870341,277 401.256098,277.473892 401.256098,278.058468 L401.256098,278.058468 Z" id="Path" stroke="none" fill="#000000" fill-rule="nonzero"></path>
                    <ellipse id="Oval" stroke="#000000" stroke-width="2" fill="#D1D5D6" fill-rule="nonzero" cx="381.5" cy="203" rx="65.5" ry="66"></ellipse>
                    <path d="M371,141.324014 C371,141.324014 419.140122,154.427387 427.393183,198.438339 C427.393183,198.438339 439.584086,226.659728 397.367136,269 C397.367136,269 454.367402,257.026793 444.949396,193.966813 C444.834543,193.966813 435.514983,136.180941 371,141.324014 Z" id="Path" stroke="none" fill="#000000" fill-rule="nonzero" opacity="0.24"></path>
                    <path d="M478.933965,470.506995 C478.818405,468.650008 478.669826,466.809455 478.471722,464.968902 C478.471722,464.245828 478.323144,463.522753 478.224092,462.816113 C478.009479,460.811224 477.728832,458.82277 477.398658,456.834315 C477.398658,456.834315 477.398658,456.834315 477.398658,456.834315 C476.042643,448.166251 473.949524,439.628489 471.141869,431.313076 C466.141376,416.540556 458.934298,402.601991 449.763129,389.966367 C449.135799,389.095391 448.508469,388.240849 447.864631,387.40274 C417.811682,347.544283 370.448136,324.363682 320.387995,325.0133 C270.327854,325.662918 223.587435,350.064683 194.588473,390.689442 C178.61139,413.004812 168.849181,439.130498 166.292597,466.415051 C166.177036,467.548963 166.077984,468.682875 166.011949,469.833221 C166.011949,470.030423 166.011949,470.244059 166.011949,470.441261 C165.996017,470.62717 165.996017,470.814091 166.011949,471 L187.192585,471 C187.192585,470.802798 187.192585,470.622029 187.192585,470.441261 C189.476416,441.83248 200.889255,414.699975 219.764209,393.006566 C221.051886,391.527551 222.37258,390.064968 223.726292,388.651686 C248.169707,362.739838 281.923906,347.514149 317.611151,346.302534 C319.262019,346.302534 320.912887,346.203933 322.563755,346.203933 C391.848848,346.122551 450.026414,398.100724 457.406647,466.677987 L457.406647,467.154559 C457.527711,468.250126 457.626763,469.345693 457.703804,470.441261 C457.703804,470.622029 457.703804,470.802798 457.703804,471 L479,471 C478.990529,470.834241 478.968454,470.669434 478.933965,470.506995 Z" id="Path" stroke="none" fill="#7E3118" fill-rule="nonzero"></path>
                    <path d="M449.263402,471.374835 L449.263402,471.934193 L458,471.934193 C458,471.736773 458,471.555804 458,471.374835 C457.922783,470.278056 457.823503,469.181276 457.702161,468.084496 L457.702161,467.607397 C450.232539,398.991119 391.964744,346.994109 322.54964,347 C320.894981,347 319.240322,347 317.585664,347.09871 C281.831458,348.328869 248.019579,363.576432 223.534864,389.511187 C222.178044,390.926033 220.854317,392.390234 219.563683,393.870887 C200.665624,415.612283 189.255375,442.79257 187,471.440642 C187,471.621611 187,471.80258 187,472 L195.703505,472 L195.703505,471.440642 C198.124695,442.808971 210.3012,415.856235 230.219685,395.038958 L230.567163,394.67702 C253.377373,370.897761 284.624313,356.913437 317.65185,355.702948 C319.306509,355.702948 320.961167,355.604238 322.615826,355.604238 C352.434865,355.553367 381.315946,365.964105 404.173953,385.003422 C407.467919,387.774208 410.621184,390.706235 413.622054,393.788629 C419.681547,399.971782 425.092569,406.751893 429.771523,414.024217 C440.85579,431.285253 447.551042,450.967868 449.279949,471.374835 L449.263402,471.374835 Z" id="Path" stroke="none" fill="#7E3118" fill-rule="nonzero"></path>
                    <path d="M339,302.342966 L338.47234,349 L303,348.637679 L303.493617,301.980645 C303.597024,292.502981 311.621605,284.900924 321.417021,285.000976 C331.212437,285.101028 339.069364,292.865301 338.965957,302.342966 L339,302.342966 Z" id="Path" stroke="none" fill="#7E3118" fill-rule="nonzero"></path>
                    <path d="M449.263402,471.374835 L449.263402,471.934193 L458,471.934193 C458,471.736773 458,471.555804 458,471.374835 C457.922783,470.278056 457.823503,469.181276 457.702161,468.084496 L457.702161,467.607397 C450.232539,398.991119 391.964744,346.994109 322.54964,347 C320.894981,347 319.240322,347 317.585664,347.09871 C281.831458,348.328869 248.019579,363.576432 223.534864,389.511187 C222.178044,390.926033 220.854317,392.390234 219.563683,393.870887 C200.665624,415.612283 189.255375,442.79257 187,471.440642 C187,471.621611 187,471.80258 187,472 L195.703505,472 L195.703505,471.440642 C198.124695,442.808971 210.3012,415.856235 230.219685,395.038958 L230.567163,394.67702 C253.377373,370.897761 284.624313,356.913437 317.65185,355.702948 C319.306509,355.702948 320.961167,355.604238 322.615826,355.604238 C352.434865,355.553367 381.315946,365.964105 404.173953,385.003422 C407.467919,387.774208 410.621184,390.706235 413.622054,393.788629 C419.681547,399.971782 425.092569,406.751893 429.771523,414.024217 C440.85579,431.285253 447.551042,450.967868 449.279949,471.374835 L449.263402,471.374835 Z" id="Path" stroke="none" fill="#000000" fill-rule="nonzero" opacity="0.29"></path>
                    <circle id="Oval" stroke="none" fill="#000000" fill-rule="nonzero" cx="215.5" cy="228.5" r="10.5"></circle>
                    <circle id="Oval" stroke="none" fill="#D1D5D6" fill-rule="nonzero" cx="213" cy="228" r="4"></circle>
                    <circle id="Oval" stroke="none" fill="#000000" fill-rule="nonzero" cx="390.5" cy="213.5" r="10.5"></circle>
                    <circle id="Oval" stroke="none" fill="#D1D5D6" fill-rule="nonzero" cx="387" cy="212" r="4"></circle>
                    <path d="M286.899883,213.892892 L286.385078,213.892892 C285.528905,213.914982 284.746165,214.404401 284.32161,215.183106 C283.897055,215.961811 283.892564,216.916302 284.309772,217.699348 C285.034617,218.923561 286.093872,219.891711 287.350337,220.478398 C288.633968,221.178842 289.981315,221.743076 291.372249,222.16267 C294.006189,222.976717 296.774418,223.200535 299.496511,222.819536 C302.183148,222.415311 305.770693,220.175228 304.853697,216.789841 C304.001052,213.657094 299.303459,213.556037 296.809874,213.421295 C295.201109,213.421295 293.68887,213.421295 292.128368,213.421295 L287.639915,213.421295 L289.087803,214.583444 L289.007365,214.431859 L289.007365,216.975111 L289.007365,216.840369 L286.915971,218.08673 L287.012496,218.08673 L284.93719,216.823526 L284.93719,216.924582 L284.93719,214.364488 L284.93719,214.364488 C284.303633,215.574138 284.68537,217.091342 285.805923,217.817247 C286.956653,218.518566 288.432504,218.111559 289.103891,216.90774 L289.103891,216.90774 C289.530988,216.112948 289.530988,215.142437 289.103891,214.347645 C288.613184,213.535082 287.769418,213.0303 286.85162,213.000227 C285.994434,212.988052 285.198995,213.465767 284.776313,214.246589 C284.06114,215.549703 284.450811,217.211214 285.661134,218.01936 C286.44673,218.391956 287.31334,218.537354 288.170807,218.440428 L292.997101,218.440428 C294.525428,218.440428 296.069842,218.440428 297.598168,218.440428 C298.165098,218.454204 298.730023,218.516164 299.287371,218.625698 C299.657387,218.625698 300.043491,218.794125 300.413507,218.895181 L300.976574,219.097294 C300.611921,218.996238 300.434957,218.693069 300.445682,218.187787 C300.156102,217.955334 300.029057,217.562958 300.123929,217.194066 C300.236543,216.991953 300.204367,217.008796 300.011316,217.194066 C300.18828,217.059324 300.156104,217.059324 299.91479,217.194066 L299.496511,217.429864 C299.882614,217.244594 299.15867,217.530921 299.062144,217.547763 L298.225587,217.733033 C298.676041,217.733033 297.742957,217.733033 297.662519,217.733033 L296.568559,217.733033 C296.069842,217.733033 295.168934,217.64882 294.959794,217.615134 C293.544307,217.408984 292.160095,217.012724 290.841356,216.436143 C290.3849,216.311306 289.933997,216.16519 289.489994,215.998232 C289.1889,215.842981 288.903282,215.656796 288.637349,215.442423 C288.798225,215.577164 288.782138,215.543479 288.637349,215.358209 C288.76605,215.543479 288.76605,215.509793 288.637349,215.257153 L286.545955,219.046766 L287.060759,219.046766 C288.393504,219.046766 289.473906,217.915654 289.473906,216.520357 C289.473906,215.12506 288.393504,213.993948 287.060759,213.993948 L286.899883,213.892892 Z" id="Path" stroke="none" fill="#000000" fill-rule="nonzero"></path>
                    <path d="M282.656944,215.26343 C281.811218,215.102849 280.936375,215.218614 280.16126,215.593676 C279.250385,216.13958 278.808992,217.222732 279.078228,218.251373 C279.925818,220.547371 282.217452,221.553836 284.352125,222.245781 C286.339377,222.847109 288.417025,223.092004 290.48931,222.969177 C292.591482,222.854984 294.670115,222.469123 296.673582,221.821178 C298.776863,221.129234 301.288243,220.248577 301.931784,217.921127 C302.234937,216.682243 301.500209,215.426336 300.273205,215.086034 C299.046201,214.745732 297.771463,215.444327 297.395604,216.663045 C297.395604,216.364251 297.740919,216.442881 297.395604,216.537237 C297.130299,216.625133 296.87299,216.735619 296.626494,216.867484 C295.967257,217.1191 295.276627,217.339264 294.601694,217.543702 C293.283004,217.93279 291.92439,218.170209 290.552094,218.251373 C289.204537,218.346238 287.850389,218.240244 286.533886,217.936853 C285.958263,217.79417 285.3921,217.615594 284.838705,217.402168 C284.473371,217.261045 284.121413,217.087363 283.787065,216.88321 C283.551623,216.710223 283.504534,216.694497 283.630103,216.788853 C283.363269,216.490059 283.378965,216.568689 283.630103,217.009018 L282.547071,219.666714 L282.421502,219.776796 L281.181508,219.776796 L281.401254,219.776796 C282.630367,220.091241 283.894343,219.40671 284.305037,218.204195 C284.637317,216.946673 283.904916,215.653795 282.656944,215.294882 L282.656944,215.26343 Z" id="Path" stroke="none" fill="#000000" fill-rule="nonzero"></path>
                    <polygon id="Path" stroke="none" fill="#FFFFFF" fill-rule="nonzero" points="287 244 287.78534 252 293 252 293 244"></polygon>
                    <polygon id="Path" stroke="none" fill="#FFFFFF" fill-rule="nonzero" points="299 244 298.21671 252 293 252 293 244"></polygon>
                    <path d="M458.070013,346.099589 L428.302829,382 L402,360.067273 L431.783603,324.166863 C436.214172,318.83577 443.406118,316.710723 450.005093,318.782852 C456.604068,320.854981 461.310155,326.716101 461.928418,333.632566 C462.341713,338.137985 460.953508,342.623461 458.070013,346.099589 Z" id="Path" stroke="none" fill="#7E3118" fill-rule="nonzero"></path>
                    <path d="M203.2875,345.399676 L237,377.017223 L213.918153,402 L180.205653,370.382453 C173.532079,363.923377 173.236501,353.262158 179.541791,346.437589 C185.847081,339.613019 196.419628,339.150899 203.2875,345.399676 L203.2875,345.399676 Z" id="Path" stroke="none" fill="#7E3118" fill-rule="nonzero"></path>
                    <path d="M137.921235,430.047249 L185,434.215376 L181.86364,468 L134.784875,463.864436 C125.242626,462.987399 118.219602,454.750712 119.06971,445.433499 C119.960251,436.125866 128.378082,429.262666 137.921235,430.063531 L137.921235,430.047249 Z" id="Path" stroke="none" fill="#7E3118" fill-rule="nonzero"></path>
                    <path d="M500.876202,429.092823 L454,433.896584 L457.576431,468 L504.452633,463.196239 C513.974975,462.219518 520.893747,453.793421 519.906143,444.376023 C518.918539,434.958625 510.398544,428.116103 500.876202,429.092823 Z" id="Path" stroke="none" fill="#7E3118" fill-rule="nonzero"></path>
                    <path d="M359.95105,470.00855 C359.95105,470.498251 359.95105,470.971628 359.95105,471.445006 C359.95105,471.640886 359.95105,471.820443 359.95105,472 L280,472 C280,471.820443 280,471.640886 280,471.445006 C280,470.971628 280,470.498251 280,470.00855 C280.021649,449.037658 296.213246,431.635989 317.120131,430.114264 C318.06649,430.032647 319.029166,430 320.008158,430 C342.087585,430.018002 359.982005,447.919899 360,470.00855 L359.95105,470.00855 Z" id="Path" stroke="none" fill="#7E3118" fill-rule="nonzero"></path>
                    <polyline id="Path" stroke="#7E3118" stroke-width="9" fill="none" points="321 472 321.525822 471.438403 322.413146 470.513421 349.657277 441.772884 376.112676 413.858224 394.187793 394.780454 403.734742 384.721266 409.715962 378.411562 412 376"></polyline>
                    <polyline id="Path" stroke="#7E3118" stroke-width="9" fill="none" points="324 471 323.325759 470.440203 322.22395 469.518183 317.685155 465.780713 289.942592 442.812557 253.944685 413.044509 230.888922 393.978469 230.37913 393.550389 224.212289 388.446354 214 380"></polyline>
                    <polyline id="Path" stroke="#7E3118" stroke-width="9" fill="none" points="318 472 318 471.433613 318 466.719274 318 429.254442 318 413.36229 318 396.520607 318 354.308119 318 345.529121 318 337"></polyline>
                    <line x1="322" y1="472" x2="319" y2="472" id="Path" stroke="#7E3118" stroke-width="9" fill="none"></line>
                    <path d="M467.885216,343.812722 C463.77589,348.983697 457.039934,351.299195 450.620879,349.747372 C444.286723,348.242813 437.350905,344.732175 431.066887,348.393269 C426.053043,351.318801 424.097643,357.871992 425.38453,363.338556 C426.871971,369.640988 432.253497,374.422142 437.835577,377.213935 C445.071747,380.829202 453.316083,381.895365 461.233516,380.239771 C464.392238,379.587795 463.055213,374.756489 459.896491,375.408464 C453.716956,376.680707 447.295242,376.009165 441.512396,373.485972 C436.582115,371.329437 431.484707,367.534605 430.114256,362.001171 C428.961072,356.985973 431.935953,351.770168 437.334192,351.770168 C443.283954,351.770168 448.66548,355.297524 454.682093,355.280806 C461.146692,355.273946 467.272484,352.38792 471.394907,347.406947 C473.417158,344.916066 469.890754,341.355276 467.85179,343.846157 L467.885216,343.812722 Z" id="Path" stroke="none" fill="#000000" fill-rule="nonzero"></path>
                    <path d="M168.604834,366.421733 C172.218459,370.79134 177.391617,373.573463 183.021828,374.17519 C189.152809,374.895274 194.465213,371.998194 200.345609,370.993426 C202.900789,370.337637 205.614592,370.961577 207.629281,372.668039 C209.283215,374.432609 210.146189,376.797923 210.018192,379.215775 C209.884547,384.758743 205.106725,388.995513 200.596194,391.457194 C194.321096,394.821167 187.07063,395.881457 180.098336,394.454751 C176.95767,393.818398 175.60451,398.658028 178.778588,399.294381 C191.257724,401.839793 208.497976,397.619769 213.860496,384.658266 C216.015528,379.433474 215.180244,372.634547 210.786653,368.749445 C205.307193,363.909814 198.2574,366.204034 192.059596,368.029362 C188.584555,369.282199 184.829548,369.537392 181.217616,368.766191 C177.640406,367.820328 174.460643,365.748183 172.146437,362.854808 C170.108345,360.342889 166.583448,363.92656 168.604834,366.404987 L168.604834,366.421733 Z" id="Path" stroke="none" fill="#000000" fill-rule="nonzero"></path>
                    <path d="M101.076951,128.220835 C84.9883554,135.394557 68.0678776,134.357987 50.7813719,135.378103 C40.7987891,135.953976 33.0290122,137.336069 21,136.924732 L21,90.8549592 C23.3895852,91.3625267 25.6814016,92.2457757 27.7881563,93.4710642 C28.2706478,84.5203656 34.6761384,76.9023996 41.8635979,71.4398409 C49.0510575,65.9772822 59.000365,61.7322818 67.4689227,65.3355961 C73.4085594,67.8694336 77.3017667,73.79269 78.9488928,79.9792023 C80.596019,86.1657146 80.3131791,92.6812966 80.0137017,99.0652508 C83.6906196,94.7873434 90.6285146,94.2937387 95.619806,96.9592041 C100.611097,99.6246695 103.838799,104.807519 105.485925,110.121996 C107.798557,117.690602 108.247773,122.083683 101.076951,128.220835 Z" id="Path" stroke="none" fill="#FFFFFF" fill-rule="nonzero"></path>
                    <path d="M642,224.494369 L642,279.379601 C624.527096,283.025653 606.542434,282.515206 588.240968,283.609021 C566.89332,284.872986 552.198534,288.640573 514.986367,282.928425 C509.746933,282.126294 506.115883,277.532268 503.53272,272.427796 C500.767755,266.740008 499.223905,260.539039 499,254.221844 C499.484201,240.733984 506.835246,228.425042 518.495569,221.577528 C529.674789,215.292376 543.334413,215.292376 554.513633,221.577528 C555.195978,208.330207 564.578221,197.07606 575.130198,189.006132 C588.460293,178.797188 607.517212,171.772461 621.310327,186.137905 C623.26917,188.19421 624.911646,190.52874 626.184219,193.065403 C632.105999,204.635541 631.56987,217.372415 631.058112,229.841912 C633.884644,226.728049 637.800885,224.814095 642,224.494369 L642,224.494369 Z" id="Path" stroke="none" fill="#FFFFFF" fill-rule="nonzero"></path>
                    <path d="M234,107 C234,107 144.566142,156.956433 164.589888,321.051953 L168.461699,429 L159.006503,428.143792 L149.036173,260.425854 C149.036173,260.425854 144.599377,134.530374 234,107 Z" id="Path" stroke="none" fill="#D1D5D6" fill-rule="nonzero" opacity="0.2"></path>
                    <path d="M284,275.016178 C284,275.016178 295.086,268.873326 307,274.120637 C307,274.120637 297.186667,284.47533 284,275.016178 Z" id="Path" stroke="none" fill="#BD325B" fill-rule="nonzero"></path>
                    <path d="M228.839092,104.575163 C228.839092,104.575163 247.65153,95.4901961 262,95 L262,98.6437908 L228,110 L228.839092,104.575163 Z" id="Path" stroke="none" fill="#000000" fill-rule="nonzero" opacity="0.24"></path>
                    <path d="M233.323763,108.413838 C233.323763,108.413838 237.408349,78.5530457 254,76.3591232 C254,76.3591232 250.15289,74.3159283 241.936223,79.9765831 C232.92797,86.206653 230.331566,106.102683 231.138984,109" id="Path" stroke="none" fill="#D1D5D6" fill-rule="nonzero" opacity="0.2"></path>
                    <path d="M399.406849,102 C399.406849,102 411.794544,105.756098 426,117.544715 L423.374347,122 L397,106.796748 L399.406849,102 Z" id="Path" stroke="none" fill="#000000" fill-rule="nonzero" opacity="0.24"></path>
                    <path d="M404.883992,105 C404.883992,105 418.040181,85.3173291 427,85.3173291 C427,85.3173291 425.60661,84.2167584 420.357097,86.1148441 C412.450421,88.9858982 404.154893,100.470115 404.154893,100.470115 L402,103.660175 L404.883992,105 Z" id="Path" stroke="none" fill="#D1D5D6" fill-rule="nonzero" opacity="0.2"></path>
                </g>
            </g>
            <rect id="Rectangle" fill="#006A81" mask="url(#mask-2)" x="-34" y="433" width="663" height="113" rx="38"></rect>
        </g>
    </g>
</svg>