<svg xmlns="http://www.w3.org/2000/svg" xmlns:xlink="http://www.w3.org/1999/xlink" viewBox="0 0 310 256"><defs><style>.cls-1{fill:#f08800;}.cls-2{fill:#f09a00;}.cls-3{fill:#009713;}.cls-4{fill:#772580;}.cls-5{fill:#008b13;}.cls-6{opacity:0.22;}.cls-7{fill:#808942;}.cls-8{fill:#fff;}.cls-9{fill:#020202;}.cls-10{fill:#802804;}.cls-11{fill:#2d382e;}.cls-12{fill:#803680;}.cls-13{fill:#79b57b;}.cls-14{fill:#0c6d0f;}.cls-15{fill:none;stroke:#000;stroke-linecap:round;stroke-miterlimit:10;stroke-width:3px;}</style></defs><g id="Layer_2" data-name="Layer 2"><image width="3677" height="3679" transform="translate(289.32 -316.02) scale(0.19)" xlink:href="../../Gojek/logos/Copy%20of%20Gojek_Logo_Brandmark-2.png"/><rect class="cls-1" x="-0.07" width="310" height="256"/><path class="cls-2" d="M309.93,165.26V175.5a6.13,6.13,0,0,1-2.22,1l-33.3,8a6.15,6.15,0,0,0-4.71,6.24l1.43,33.64a6.15,6.15,0,0,1-6.92,6.36l-35.56-4.5a6.14,6.14,0,0,0-6.25,3.31l-13.65,26.91H177.07l-11.22-10.18a6.16,6.16,0,0,0-5.78-1.36l-41.4,11.54H96.59a6.18,6.18,0,0,1-.14-3.18l4.37-19.87A6.16,6.16,0,0,0,95.55,226l-50.48-6.12a6.15,6.15,0,0,1-4.43-9.43l14.51-22.55a6.15,6.15,0,0,0-3.36-9.2l-51.86-16v-17l17-20a6.14,6.14,0,0,0-1.62-9.3l-6.83-3.93A6.15,6.15,0,0,1,10.6,101l1.94-.29a6.15,6.15,0,0,0,4.34-9.27L-.07,63.54v-7.3a6.08,6.08,0,0,1,3.69-2.39l33.51-7.07a6.14,6.14,0,0,0,3.75-2.47L71.87.45H83.66l34.82,23.81a6.15,6.15,0,0,0,6.4.32L169.31.45h11.15L213,38.2a6.17,6.17,0,0,0,5.67,2L258,33.68a6.15,6.15,0,0,1,7,7.23l-6.65,34.56a6.15,6.15,0,0,0,4.27,7L303.93,94.9a6.14,6.14,0,0,1,3,9.8l-19.8,23.94a6.14,6.14,0,0,0-.08,7.74Z"/><path class="cls-3" d="M206.68,206.68c-.64-.1-.78.88-.61,1.51,1.53,5.84,3.72,11.67,7.75,16.16S224,231.76,230,230.58a17.63,17.63,0,0,0,10.54-7.34,37.65,37.65,0,0,0,5.21-12c2.36-8.58,3.41-17.44,4.46-26.27,1-8.41,2-16.83,2.2-25.29.15-6.14-.11-12.28-.37-18.42-.39-9.39-1.49-26.78-1.88-36.17l-27-1L206.68,206.68"/><path class="cls-3" d="M97.82,204.34a5.48,5.48,0,0,0,.51,1.31,5.45,5.45,0,0,1,0,2.54c-1.53,5.84-3.72,11.67-7.75,16.16s-10.22,7.41-16.14,6.23a17.61,17.61,0,0,1-10.53-7.34,37.45,37.45,0,0,1-5.22-12c-2.36-8.58-3.41-17.44-4.45-26.27-1-8.41-2-16.83-2.2-25.29-.15-6.14.1-12.28.36-18.42.4-9.39,1.49-26.78,1.89-36.17l23.31-9Z"/><path class="cls-3" d="M173.3,205.81H186.9a12,12,0,0,1,12,12V233a12,12,0,0,1-12,12H178a16.66,16.66,0,0,1-16.66-16.66V217.81a12,12,0,0,1,12-12Z"/><path class="cls-3" d="M122.83,205.81h14.05a12,12,0,0,1,12,12v14.68A12.49,12.49,0,0,1,136.39,245H122.83a12,12,0,0,1-12-12V217.81A12,12,0,0,1,122.83,205.81Z"/><path class="cls-4" d="M97.83,53.17C83.62,48.89,73.66,33.53,75.56,18.81a56.36,56.36,0,0,0-12.88,31,38,38,0,0,0,1.65,16A23.19,23.19,0,0,0,74.18,78.2a.13.13,0,0,0,.12,0"/><path class="cls-4" d="M206.14,53.17c14.21-4.28,24.16-19.64,22.26-34.36a56.29,56.29,0,0,1,12.88,31,38,38,0,0,1-1.65,16,23.15,23.15,0,0,1-9.85,12.41.11.11,0,0,1-.11,0"/><path class="cls-5" d="M232.28,176.94c-15.66,28.93-45.41,48.46-79.53,48.46S88.89,205.88,73.23,177C74.75,178.75,148,264.44,232.28,176.94Z"/><path class="cls-6" d="M232.28,176.94c-15.66,28.93-45.41,48.46-79.53,48.46S88.89,205.88,73.23,177C74.75,178.75,148,264.44,232.28,176.94Z"/><path class="cls-3" d="M244.06,130.12a97.92,97.92,0,0,1-11.77,46.81h0c-84.24,87.5-157.53,1.81-159,0l0,0a97.92,97.92,0,0,1-11.77-46.81c0-52.62,40.88-95.28,91.31-95.28S244.06,77.5,244.06,130.12Z"/><path class="cls-3" d="M80.17,76.1A21.12,21.12,0,0,0,61.32,59.22c-5.74-.37-11.25,1.7-16,5A26.75,26.75,0,0,0,33.74,85.9,19.57,19.57,0,0,0,35,93.23c1.25,3.22,2.57,6.53,5,9,4,4,11.39,4.73,17,4,6.79-.93,13.61-3.76,15-9.26"/><path class="cls-3" d="M225.82,77a21.12,21.12,0,0,1,18.85-16.89c5.74-.37,11.25,1.7,16.05,5a26.74,26.74,0,0,1,11.53,21.69A19.64,19.64,0,0,1,271,94.15c-1.25,3.21-2.56,6.53-5,9-4,4-11.39,4.72-17,4-6.79-.93-13.61-3.76-15-9.25"/><path class="cls-7" d="M95.9,177.93c-3,4-2.38,10.22,2.36,12.6a6.61,6.61,0,0,0,6.57-.2,6.39,6.39,0,0,0,3-5.93,1.51,1.51,0,0,0-1.3-1.47,1.48,1.48,0,0,0-1.64,1.07c-.93,4.38,3,8.86,7.54,8.05,4.19-.75,6.33-5.71,4.67-9.41a1.51,1.51,0,0,0-2.05-.53,1.54,1.54,0,0,0-.54,2,3.84,3.84,0,0,1-2.64,5c-2.3.45-4.56-2.08-4.09-4.31l-3-.4a3.44,3.44,0,0,1-1.65,3.41,3.66,3.66,0,0,1-3.92-.15c-3-1.82-2.63-5.72-.79-8.22a1.5,1.5,0,0,0-2.59-1.51Z"/><path class="cls-3" d="M232.29,176.93h0c-84.24,87.5-157.53,1.81-159,0l0,0Z"/><ellipse class="cls-8" cx="124.61" cy="104.06" rx="22.82" ry="21.33"/><ellipse class="cls-8" cx="180.91" cy="104.06" rx="22.82" ry="21.33"/><circle class="cls-9" cx="125.44" cy="105.65" r="6.45"/><circle class="cls-9" cx="180.1" cy="105.65" r="6.45"/><path class="cls-10" d="M123.44,150.16l23.49,2.52h20.68l21.55-3.32-2.56,6.19L177.68,167s-2.74,4.24-15.46,7.33c0,0-17.05,4.23-31.72-12C130.5,162.39,122.82,153.43,123.44,150.16Z"/><path d="M67.58,73.76a13.12,13.12,0,0,0-14.68-.1,12.86,12.86,0,0,0-5.21,13.59,10.06,10.06,0,0,0,4.69,6.28c1.69.94,3.21-1.65,1.52-2.59-4.49-2.5-4.4-8.75-1.68-12.5a10.06,10.06,0,0,1,13.84-2.09,1.52,1.52,0,0,0,2.06-.54,1.53,1.53,0,0,0-.54-2Z"/><path d="M244.14,76.35A10.05,10.05,0,0,1,258,78.44c2.72,3.75,2.82,10-1.67,12.5-1.69.94-.18,3.53,1.51,2.59,4.32-2.4,5.94-7.93,4.68-12.52a13,13,0,0,0-19.87-7.25,1.53,1.53,0,0,0-.54,2,1.5,1.5,0,0,0,2,.54Z"/><path class="cls-11" d="M60.69,113.46a54.89,54.89,0,0,0,6,44.52c1,1.63,3.62.13,2.59-1.51a52,52,0,0,1-5.65-42.21c.56-1.85-2.34-2.64-2.89-.8Z"/><path class="cls-11" d="M238.85,115.77a51.9,51.9,0,0,1-4,42.4,1.5,1.5,0,0,0,2.6,1.51A54.94,54.94,0,0,0,241.75,115c-.63-1.81-3.53-1-2.9.8Z"/><path class="cls-3" d="M133.78,36.39a122.16,122.16,0,0,1,24.81-11.46,3.31,3.31,0,0,1,4.16,2,6.59,6.59,0,0,1,.21,3.73,104.38,104.38,0,0,1,11-.86,3.06,3.06,0,0,1,1.8.32c.57.35.85,1,1.3,1.51,1.13,1.23,3,1.18,4.71,1.38,3.79.46,7.79,3.49,6.44,7.73a6.13,6.13,0,0,1-2.06,2.91c-2.44,2-5.57,2.3-8.58,2.48a127.42,127.42,0,0,1-40.18-4c-2.28-.61-5.14-2.37-4.24-4.55"/><path class="cls-12" d="M69,34.93a29,29,0,0,0-1.68,13,28.69,28.69,0,0,0,1.32,6.35,9.71,9.71,0,0,0,3,5,1.51,1.51,0,0,0,2-.54,1.53,1.53,0,0,0-.54-2.05c-1.16-.89-1.61-3-2-4.36a25.84,25.84,0,0,1-1-5.59,26.91,26.91,0,0,1,1.66-11c.68-1.81-2.22-2.59-2.89-.79Z"/><path class="cls-12" d="M73.16,30l.71-.7a1.21,1.21,0,0,0,.31-.49,1.11,1.11,0,0,0,.13-.57,1.15,1.15,0,0,0-.13-.58,1.11,1.11,0,0,0-.31-.48l-.31-.24a1.5,1.5,0,0,0-.75-.2l-.4.05a1.39,1.39,0,0,0-.66.39l-.71.7a1.24,1.24,0,0,0-.31.48,1.36,1.36,0,0,0,0,1.16A1.24,1.24,0,0,0,71,30l.31.24a1.5,1.5,0,0,0,.75.2l.4-.05a1.39,1.39,0,0,0,.66-.39Z"/><path class="cls-12" d="M232.69,36.59a27.8,27.8,0,0,1-1.77,19.64c-.64,1.3,1.3,2.44,1.94,1.14a30.19,30.19,0,0,0,2-21.38,1.13,1.13,0,0,0-2.17.6Z"/><path class="cls-12" d="M230.41,28.65l.35,1.41a1,1,0,0,0,.26.51,1.12,1.12,0,0,0,.42.39,1.16,1.16,0,0,0,.56.18,1.22,1.22,0,0,0,.6,0L233,31a1.55,1.55,0,0,0,.54-.54l.15-.36a1.51,1.51,0,0,0,0-.79l-.35-1.41a1.14,1.14,0,0,0-.27-.51,1.34,1.34,0,0,0-1-.57,1.22,1.22,0,0,0-.6,0l-.35.15a1.4,1.4,0,0,0-.54.54l-.15.36a1.33,1.33,0,0,0,0,.79Z"/><ellipse class="cls-13" cx="77.54" cy="217.83" rx="6.16" ry="4.62"/><ellipse class="cls-13" cx="229.2" cy="217.83" rx="6.16" ry="4.62"/><path class="cls-14" d="M208,168.28c-.78,2.72,2.09,5.29,4.76,4.69a4.82,4.82,0,0,0,2.67-2.32,17.32,17.32,0,0,0,1-1.79,7.76,7.76,0,0,0,.37-.77c.24-.71.14-.13,0-.18a2.5,2.5,0,0,1-.47,0c-.12.18,1.44,1.35,1.61,1.46a3.69,3.69,0,0,0,1.9.61,5.72,5.72,0,0,0,3.53-1.8,17.46,17.46,0,0,0,5.19-15.92c-.35-1.89-3.24-1.09-2.89.8a14.49,14.49,0,0,1-2.87,11.34,7.7,7.7,0,0,1-2.65,2.43c-1,.42-1.76-1.37-2.71-1.71-1.53-.54-2.73.35-3.37,1.69-.29.61-.6,1.23-.94,1.82-.21.36-.59,1.16-1,1.36a1,1,0,0,1-.69-.1,1.69,1.69,0,0,1-.51-.45.36.36,0,0,1-.1-.27c0,.19,0,.16.06-.12a1.5,1.5,0,0,0-2.89-.79Z"/><path class="cls-8" d="M165.62,153.22c.38,1.13.76,3.77,1.13,4.91a5.18,5.18,0,0,0,1,1.92,4.16,4.16,0,0,0,1.54,1,4.31,4.31,0,0,0,3.49.2c1.35-.65,1.89-2.28,2.11-3.76a18.51,18.51,0,0,0,.12-4.82"/><path class="cls-8" d="M138,153.22c.37,1.13.75,3.77,1.13,4.91a5.32,5.32,0,0,0,.95,1.92,5.29,5.29,0,0,0,5,1.19c1.35-.65,1.88-2.28,2.11-3.76a19,19,0,0,0,.11-4.82"/><path class="cls-14" d="M85.08,145.25a27.94,27.94,0,0,0-2,6.55c-.36,2.18-.59,4.48.41,6.53a4.9,4.9,0,0,0,4.45,2.88,3.89,3.89,0,0,0,3.73-3.9l-2.94.4c.44,3.17,1.18,7,4.22,8.68,2.48,1.42,6.14,1.16,7.6-1.58.91-1.7-1.68-3.22-2.59-1.51-.75,1.42-2.83,1.09-3.92.23-1.85-1.47-2.12-4.46-2.42-6.61-.23-1.68-3-1.28-3,.39,0,.83-.9,1.08-1.53.74a3.18,3.18,0,0,1-1.37-2.8,20,20,0,0,1,1.93-8.48,1.55,1.55,0,0,0-.54-2.06,1.52,1.52,0,0,0-2,.54Z"/><path class="cls-8" d="M146.8,172.82l1-3.45a5.13,5.13,0,0,1,.86-2,4.29,4.29,0,0,1,1.5-1.05,4.36,4.36,0,0,1,3.48-.37c1.37.59,2,2.2,2.28,3.67a19.35,19.35,0,0,1,.33,4.8"/><path d="M120.44,151a40.43,40.43,0,0,0,24.45,23.72,37.7,37.7,0,0,0,17.62,1.89,30.56,30.56,0,0,0,17.68-8.68c5-5,8.55-11.33,11.41-17.77.78-1.75-1.81-3.28-2.59-1.51-4.81,10.83-11.86,21.72-24.17,24.52-10.93,2.49-22.7-1.07-31.12-8.29a35.78,35.78,0,0,1-10.39-14.67c-.66-1.8-3.56-1-2.89.79Z"/><path class="cls-15" d="M107.38,135.54s2.6,9.08,17.49,13.79c5.59,1.77,12.92,2.92,22.49,2.73,3.93-.07,7.87,0,11.79.28,11,.72,35.28.21,44.57-16.8"/><path class="cls-8" d="M252.9,27.68A12.39,12.39,0,0,0,264.12,18c.24-1.21.54-2.74,1.74-3A2.12,2.12,0,0,1,268,16.58a20.23,20.23,0,0,1,.44,2.91c.63,3.36,4,5.48,7.35,6.32a7.75,7.75,0,0,1,3,1.15,2.12,2.12,0,0,1,.57,2.87,2.85,2.85,0,0,1-1.36.75c-2.28.77-4.7,1.47-6.41,3.17-2.18,2.17-2.72,5.45-4.09,8.21a1.89,1.89,0,0,1-.67.85c-.76.44-1.74-.28-2-1.12a10,10,0,0,1,0-2.62c0-2.48-1.8-4.65-3.91-6a35.87,35.87,0,0,0-6.87-2.8c-.64-.23-1.35-.58-1.48-1.25s-.25-.76.31-1.38"/><path class="cls-8" d="M16.3,195.7A12.39,12.39,0,0,0,27.52,186c.24-1.21.54-2.74,1.75-3a2.1,2.1,0,0,1,2.17,1.58,20.23,20.23,0,0,1,.44,2.91c.63,3.36,4,5.48,7.35,6.32a7.79,7.79,0,0,1,3,1.15,2.12,2.12,0,0,1,.56,2.87,2.87,2.87,0,0,1-1.35.75c-2.29.77-4.71,1.47-6.41,3.17-2.19,2.17-2.73,5.45-4.1,8.21a1.83,1.83,0,0,1-.67.85c-.76.44-1.74-.28-2-1.12a9.55,9.55,0,0,1-.06-2.62c0-2.48-1.8-4.65-3.9-6a36.23,36.23,0,0,0-6.88-2.8c-.64-.23-1.35-.58-1.48-1.25s-.22-.93.31-1.38"/></g></svg>