<?xml version="1.0" encoding="UTF-8"?>
<svg width="598px" height="546px" viewBox="0 0 598 546" version="1.1" xmlns="http://www.w3.org/2000/svg" xmlns:xlink="http://www.w3.org/1999/xlink">
    <!-- Generator: Sketch 62 (91390) - https://sketch.com -->
    <title>Kingsly Copy 10</title>
    <desc>Created with Sketch.</desc>
    <defs>
        <rect id="path-1" x="0" y="0" width="598" height="546" rx="52"></rect>
    </defs>
    <g id="Page-1-Copy" stroke="none" stroke-width="1" fill="none" fill-rule="evenodd">
        <g id="Kingsly-Copy-10">
            <mask id="mask-2" fill="white">
                <use xlink:href="#path-1"></use>
            </mask>
            <use id="Mask" fill="#F08800" xlink:href="#path-1"></use>
            <g id="Statsd-docker" mask="url(#mask-2)">
                <g transform="translate(52.000000, 20.000000)">
                    <rect id="Rectangle" stroke="none" fill="#F08800" fill-rule="nonzero" x="0" y="0" width="498" height="412"></rect>
                    <path d="M498,266.230733 L498,282.710089 C496.930601,283.48002 495.717909,284.02725 494.433677,284.319402 L440.938839,297.193899 C436.344105,298.298007 433.172966,302.506741 433.372452,307.236006 L435.669677,361.373267 C435.792271,364.285919 434.626816,367.104573 432.484227,369.07728 C430.341637,371.049988 427.439865,371.976078 424.553032,371.608492 L367.427613,364.366587 C363.293591,363.839085 359.274705,365.971277 357.38729,369.69341 L335.459226,413 L284.566839,413 L266.542452,396.617202 C264.025762,394.342782 260.52217,393.516939 257.257161,394.428538 L190.750065,413 L155.279613,413 C154.759875,411.343065 154.682335,409.578668 155.05471,407.882387 L162.074903,375.905355 C162.659502,373.184251 162.075248,370.342295 160.464926,368.074035 C158.854605,365.805775 156.366581,364.320193 153.608903,363.980352 L72.5152258,354.131362 C69.1400288,353.71952 66.2133928,351.597936 64.7676659,348.514983 C63.3219389,345.432031 63.5602909,341.82096 65.3986452,338.955549 L88.7082581,302.66556 C90.3773244,300.062511 90.7353135,296.827343 89.6758595,293.921292 C88.6164055,291.015241 86.2614067,288.772668 83.3105806,287.859888 L0,262.110894 L0,234.752588 L27.3096774,202.566345 C29.2071187,200.329637 30.0136856,197.363615 29.510856,194.471861 C29.0080264,191.580107 27.2478562,189.061991 24.7072258,187.599742 L13.7351613,181.275146 C10.0185693,179.213599 8.03364717,175.002692 8.80577978,170.817724 C9.57791238,166.632757 12.9342043,163.410824 17.1408387,162.816335 L20.2573548,162.349635 C23.5243258,161.855248 26.3283468,159.757572 27.7292852,156.759917 C29.1302237,153.762261 28.9426128,150.261478 27.2293548,147.431311 L0,102.531503 L0,90.7835241 C1.42785939,88.8056061 3.54213663,87.4337577 5.92780645,86.9372681 L59.76,75.5594313 C62.1970306,75.0439283 64.3491488,73.6238757 65.7841935,71.5844303 L115.568129,1 L134.508194,1 L190.444839,39.317722 C193.504878,41.4057293 197.473442,41.6045108 200.726129,39.8327018 L272.100774,1 L290.01271,1 L342.286645,61.7515331 C344.560338,64.3340348 348.007323,65.5520675 351.395226,64.9701574 L414.576968,54.4774423 C417.754967,53.9745875 420.978337,55.0534767 423.216316,57.3691059 C425.454296,59.6847351 426.426533,62.9470246 425.822129,66.112769 L415.139226,121.730596 C414.228881,126.687609 417.182499,131.538228 421.998774,132.995781 L488.36129,152.999531 C491.540432,153.93718 494.037047,156.411522 495.00712,159.58607 C495.977194,162.760618 495.291048,166.21101 493.180645,168.77079 L461.372903,207.297723 C458.394022,210.896481 458.340395,216.094127 461.244387,219.753799 L498,266.230733 Z" id="Path" stroke="none" fill="#F09A00" fill-rule="nonzero"></path>
                    <path d="M332.092173,333.111621 C331.058815,332.950678 330.832768,334.527921 331.107254,335.541863 C333.577625,344.940946 337.113645,354.323934 343.620569,361.550283 C350.127493,368.776632 360.057414,373.476174 369.745142,371.577044 C376.706239,369.912377 382.782546,365.694469 386.763251,359.763814 C390.676484,353.864728 393.523513,347.328349 395.175428,340.45063 C398.985934,326.641705 400.681287,312.382138 402.376639,298.170854 C403.991261,284.635531 405.605882,271.084115 405.928806,257.468321 C406.170999,247.586409 405.751198,237.704497 405.331396,227.822585 C404.701694,212.710019 402.925611,184.721998 402.295908,169.609432 L358.701132,168 L332.092173,333.111621" id="Path" stroke="none" fill="#009713" fill-rule="nonzero"></path>
                    <path d="M156.935085,329.321055 C157.117488,330.056587 157.394044,330.765608 157.757927,331.430622 C158.080691,332.775027 158.080691,334.176521 157.757927,335.520926 C155.289401,344.925406 151.75602,354.313783 145.253955,361.544282 C138.75189,368.774781 128.764847,373.477021 119.213427,371.576801 C112.262136,369.910439 106.195698,365.68981 102.22416,359.756787 C98.3022799,353.858634 95.4514222,347.317366 93.8021298,340.432513 C89.9944688,326.615657 88.3003823,312.347901 86.62243,298.128456 C85.0090144,284.585361 83.3955987,271.026162 83.0729156,257.402549 C82.8309032,247.514962 83.2342571,237.627375 83.6537452,227.739788 C84.2991115,212.618544 86.0577346,184.61445 86.7031008,169.493206 L124.31182,155 L156.935085,329.321055 Z" id="Path" stroke="none" fill="#009713" fill-rule="nonzero"></path>
                    <path d="M279.105431,331 L300.830671,331 C311.417599,331 320,339.636712 320,350.290635 L320,374.709365 C320,385.363288 311.417599,394 300.830671,394 L286.613419,394 C271.915233,394 260,382.009365 260,367.218168 L260,350.290635 C260,339.636712 268.582401,331 279.169329,331 L279.105431,331 Z" id="Path" stroke="none" fill="#009713" fill-rule="nonzero"></path>
                    <path d="M196.553211,331 L219.446763,331 C230.245703,331 239,339.636712 239,350.290635 L239,373.889513 C239.008626,379.220187 236.868262,384.335454 233.050652,388.107829 C229.233042,391.880204 224.05158,394 218.64834,394 L196.553211,394 C185.754271,394 177,385.363288 177,374.709365 L177,350.290635 C177,339.636712 185.754271,331 196.553211,331 L196.553211,331 Z" id="Path" stroke="none" fill="#009713" fill-rule="nonzero"></path>
                    <path d="M158,84.9485379 C135.107681,78.1039587 119.062115,53.5402351 122.123016,30 C110.294267,44.0492497 103.056579,61.3415582 101.373328,79.5752233 C100.409959,88.1948684 101.316311,96.9193608 104.031479,105.162435 C106.816325,113.410124 112.433163,120.423614 119.899835,124.976533 C119.960421,125.007822 120.03257,125.007822 120.093155,124.976533" id="Path" stroke="none" fill="#772580" fill-rule="nonzero"></path>
                    <path d="M331,85.5081967 C353.898791,78.5939044 369.932779,53.7799958 366.871012,30 C378.709297,44.1885795 385.949869,61.6590334 387.626567,80.0801542 C388.590208,88.7875915 387.683599,97.6009442 384.967664,105.927976 C382.193545,114.274306 376.573222,121.373063 369.094822,125.976192 C369.039977,126.007936 368.972406,126.007936 368.917562,125.976192" id="Path" stroke="none" fill="#772580" fill-rule="nonzero"></path>
                    <path d="M373,285 C347.794341,331.565002 299.910028,363 244.991952,363 C190.073876,363 142.205659,331.581098 117,285.096574 C119.446526,287.913331 237.346558,425.837804 373,285 Z" id="Path" stroke="none" fill="#008B13" fill-rule="nonzero"></path>
                    <path d="M373,285 C347.794341,331.565002 299.910028,363 244.991952,363 C190.073876,363 142.205659,331.581098 117,285.096574 C119.446526,287.913331 237.346558,425.837804 373,285 Z" id="Path" stroke="none" fill="#000000" fill-rule="nonzero" opacity="0.22"></path>
                    <path d="M391,209.385761 C391.070046,235.692193 384.575317,261.59809 372.107151,284.742473 L372.107151,284.742473 C236.891725,425.603662 119.252377,287.656287 116.892849,284.742473 L116.892849,284.742473 C104.424683,261.59809 97.9299538,235.692193 98,209.385761 C98,124.675867 163.617933,56 244.564205,56 C325.510477,56 391,124.675867 391,209.385761 Z" id="Path" stroke="none" fill="#009713" fill-rule="nonzero"></path>
                    <path d="M129,122.546617 C126.020956,107.596147 113.625969,96.4098766 98.553754,95.0693813 C89.2825894,94.4670959 80.3829175,97.8366384 72.7107866,103.208373 C61.1652918,111.218003 54.1925184,124.374324 54.0069389,138.49904 C53.9222708,142.570836 54.6131227,146.621223 56.0420726,150.430801 C58.0610544,155.672312 60.1930992,161.060324 64.1179999,165.080986 C70.5787417,171.592179 82.5149623,172.780472 91.5761528,171.592179 C102.543262,170.078327 113.558827,165.471658 115.803935,156.518767" id="Path" stroke="none" fill="#009713" fill-rule="nonzero"></path>
                    <path d="M363,123.54776 C365.972686,108.599105 378.368971,97.4110176 393.445801,96.0693432 C402.71683,95.4673885 411.616372,98.8350808 419.369149,104.203866 C430.890522,112.228512 437.832717,125.382973 437.991965,139.491425 C438.083129,143.570624 437.397799,147.629662 435.973013,151.449173 C433.954061,156.671536 431.838199,162.072859 427.897204,166.091313 C421.436556,172.598931 409.50051,173.770303 400.439452,172.598931 C389.472503,171.08591 378.457099,166.48177 376.212024,157.550065" id="Path" stroke="none" fill="#009713" fill-rule="nonzero"></path>
                    <path d="M153.948167,286.123693 C149.116461,292.560655 150.115014,302.570131 157.749109,306.400123 C161.083441,308.176901 165.110552,308.054411 168.330546,306.078275 C171.600113,304.050168 173.464036,300.368851 173.162252,296.535479 C173.14215,295.339539 172.253999,294.336073 171.068513,294.169895 C169.879572,293.996671 168.747458,294.734697 168.42718,295.891783 C166.929351,302.940256 173.258886,310.149654 180.570868,308.846169 C187.319151,307.639239 190.765768,299.657406 188.092224,293.703216 C187.408944,292.566394 185.939664,292.186844 184.790558,292.850318 C183.713881,293.5389 183.337342,294.932337 183.920851,296.068799 C184.500711,297.698022 184.370851,299.49547 183.562811,301.024587 C182.754771,302.553704 181.34248,303.674588 179.66895,304.115002 C175.964642,304.83916 172.324756,300.767782 173.081724,297.179175 L168.250017,296.535479 C168.542758,298.731141 167.497392,300.889783 165.592579,302.022989 C163.618999,303.171354 161.15913,303.077304 159.27915,301.781603 C154.447443,298.852785 155.043354,292.576747 158.0068,288.553646 C158.620561,287.408376 158.217072,285.983165 157.093832,285.328844 C155.970593,284.674522 154.530531,285.025808 153.835427,286.123693 L153.948167,286.123693 Z" id="Path" stroke="none" fill="#808942" fill-rule="nonzero"></path>
                    <path d="M373,285 L373,285 C237.368302,425.28773 119.366792,287.901952 117,285 L117,285 L373,285 Z" id="Path" stroke="none" fill="#009713" fill-rule="nonzero"></path>
                    <ellipse id="Oval" stroke="none" fill="#FFFFFF" fill-rule="nonzero" cx="199.5" cy="168" rx="36.5" ry="34"></ellipse>
                    <ellipse id="Oval" stroke="none" fill="#FFFFFF" fill-rule="nonzero" cx="290.5" cy="168" rx="36.5" ry="34"></ellipse>
                    <circle id="Oval" stroke="none" fill="#020202" fill-rule="nonzero" cx="201.5" cy="170.5" r="10.5"></circle>
                    <circle id="Oval" stroke="none" fill="#020202" fill-rule="nonzero" cx="288.5" cy="170.5" r="10.5"></circle>
                    <path d="M198.057414,241.28796 L235.92399,245.345032 L269.260762,245.345032 L304,240 L299.873204,249.965588 L285.4939,268.39951 C285.4939,268.39951 281.076939,275.225696 260.571922,280.20044 C260.571922,280.20044 233.086817,287.010526 209.438343,260.881045 C209.438343,260.977642 197.057956,246.552495 198.057414,241.28796 Z" id="Path" stroke="none" fill="#802804" fill-rule="nonzero"></path>
                    <path d="M107.843212,117.711377 C100.680924,112.822464 91.2569556,112.758489 84.0284999,117.549709 C76.9236021,122.427121 73.5642413,131.1597 75.5765484,139.520358 C76.6310457,143.790503 79.3757663,147.453099 83.184927,149.673093 C85.926539,151.19277 88.3923674,147.005575 85.6507555,145.485898 C78.366828,141.444204 78.512831,131.339969 82.9253662,125.277428 C88.2676467,118.296831 98.2049192,116.801348 105.377383,121.898572 C106.543917,122.563829 108.030182,122.175565 108.71923,121.025566 C109.315163,119.884726 108.934338,118.479112 107.843212,117.792211 L107.843212,117.711377 Z" id="Path" stroke="none" fill="#000000" fill-rule="nonzero"></path>
                    <path d="M392.567151,121.869867 C399.729814,116.73712 409.67902,118.236618 415.008844,125.252175 C419.412986,131.320908 419.574903,141.435465 412.304831,145.481287 C409.568434,147.002516 412.01338,151.193988 414.749777,149.672759 C421.744591,145.78877 424.367646,136.83941 422.327492,129.41128 C420.510018,122.867199 415.643588,117.602526 409.260179,115.274611 C402.876771,112.946696 395.76161,113.841895 390.154588,117.678395 C389.065537,118.365997 388.685436,119.773047 389.280236,120.915053 C389.952785,122.024217 391.37888,122.409062 392.518576,121.78895 L392.567151,121.869867 Z" id="Path" stroke="none" fill="#000000" fill-rule="nonzero"></path>
                    <path d="M97.4595834,181.695752 C90.6443436,206.036808 93.9937236,232.294455 106.664835,253.860823 C108.199044,256.502985 112.21867,254.071548 110.638435,251.413176 C98.6369211,230.959424 95.4825238,206.061063 101.970157,182.992518 C102.829314,179.993745 98.3801085,178.713188 97.5362938,181.695752 L97.4595834,181.695752 Z" id="Path" stroke="none" fill="#2D382E" fill-rule="nonzero"></path>
                    <path d="M383.74091,186.88868 C391.428435,209.583216 389.093365,234.506515 377.326471,255.353006 C376.657806,256.512331 377.049095,257.997966 378.200439,258.671266 C379.351783,259.344565 380.827191,258.950565 381.495856,257.791241 C393.890869,235.828082 396.399052,209.585664 388.391377,185.645342 C387.381103,182.722691 382.730636,184.030618 383.74091,186.937122 L383.74091,186.88868 Z" id="Path" stroke="none" fill="#2D382E" fill-rule="nonzero"></path>
                    <path d="M215.282784,58.8480452 C227.815965,51.1743732 241.161776,44.9458438 255.069743,40.2793548 C257.7951,39.3563978 260.752418,40.792937 261.740994,43.519964 C262.427907,45.4595423 262.544864,47.5584764 262.077764,49.5637 C267.929447,48.7853128 273.817781,48.3201759 279.718093,48.1702381 C280.710105,48.0418275 281.717267,48.2227363 282.604692,48.6887356 C283.518781,49.2558422 283.967808,50.3090401 284.689458,51.1353955 C286.501601,53.1283701 289.500456,53.0473549 292.242726,53.3714158 C298.320621,54.1167559 304.735285,59.0262787 302.570336,65.8963701 C301.955839,67.7640572 300.806011,69.405181 299.266784,70.6114564 C295.353838,73.8520656 290.334363,74.3381569 285.507328,74.6298118 C263.824469,75.9434954 242.072982,73.7556245 221.072019,68.1485935 C217.41566,67.1602077 212.829175,64.3084716 214.272474,60.7762077" id="Path" stroke="none" fill="#009713" fill-rule="nonzero"></path>
                    <path d="M110.013013,55.6073725 C107.460167,62.2692872 106.51051,69.4107314 107.23681,76.4844701 C107.564942,79.9528886 108.296717,83.3739626 109.418113,86.6821293 C110.185108,89.7890484 111.915658,92.5920147 114.375618,94.7117823 C115.539813,95.3184783 116.988843,94.9382661 117.680621,93.8445798 C118.340414,92.6922828 117.946578,91.2393017 116.78827,90.5524221 C114.871368,89.1231438 114.127742,85.7346303 113.483267,83.5505647 C112.594731,80.6262683 112.040552,77.6157091 111.830765,74.5734127 C111.469071,68.5635952 112.403418,62.546632 114.573918,56.9081763 C115.697619,54.0014419 110.905364,52.748816 109.798188,55.6394911 L110.013013,55.6073725 Z" id="Path" stroke="none" fill="#803680" fill-rule="nonzero"></path>
                    <path d="M117.138995,47.2864853 L118.286974,46.1513508 C118.515792,45.9311428 118.687807,45.6584491 118.788204,45.3567566 C118.939366,45.0730225 119.011948,44.7538431 118.998397,44.4324327 C119.011724,44.1058627 118.939238,43.7815152 118.788204,43.4918926 C118.691717,43.1930101 118.518915,42.9246593 118.286974,42.7135147 L117.785744,42.3243257 C117.4169,42.1113803 116.998679,41.9995272 116.57309,42 L115.926341,42.0810825 C115.518552,42.1874009 115.148776,42.4065471 114.859205,42.7135147 L113.711226,43.8486492 C113.48601,44.0654359 113.314377,44.3319712 113.209996,44.6270272 C112.930001,45.2226125 112.930001,45.912522 113.209996,46.5081074 C113.2955,46.7971061 113.444698,47.0631257 113.646552,47.2864853 L114.147782,47.6756743 C114.516626,47.8886197 114.934847,48.0004728 115.360436,48 L116.007185,47.9189175 C116.414973,47.8125991 116.78475,47.5934529 117.07432,47.2864853 L117.138995,47.2864853 Z" id="Path" stroke="none" fill="#803680" fill-rule="nonzero"></path>
                    <path d="M373.939904,59.1777169 C376.774421,69.8477544 375.799011,81.2410989 371.197915,91.2057217 C370.206461,93.3257017 373.211806,95.1847611 374.203259,93.0647811 C379.260122,82.2353754 380.362685,69.8280756 377.301552,58.1992646 C376.984403,57.3039299 376.069729,56.8123304 375.194822,57.0669839 C374.319914,57.3216374 373.77507,58.2380493 373.939904,59.1777169 L373.939904,59.1777169 Z" id="Path" stroke="none" fill="#803680" fill-rule="nonzero"></path>
                    <path d="M371.059316,45.3993066 L371.578205,47.9659058 C371.630268,48.3148614 371.764245,48.6375327 371.963666,48.8942502 C372.11756,49.1931912 372.332142,49.4378387 372.586333,49.6041606 C372.83555,49.7991445 373.121483,49.9119895 373.416556,49.9318115 C373.708441,50.0227295 374.014195,50.0227295 374.30608,49.9318115 L374.899096,49.6769719 C375.228545,49.4364278 375.503755,49.0985212 375.699668,48.694019 L375.922049,48.0387171 C376.025984,47.5678693 376.025984,47.0715413 375.922049,46.6006934 L375.40316,44.0340942 C375.336783,43.6876172 375.198939,43.367927 375.002874,43.1057498 C374.661007,42.5036383 374.116486,42.1225534 373.520333,42.0681885 C373.228448,41.9772705 372.922694,41.9772705 372.630809,42.0681885 L372.11192,42.3412309 C371.77603,42.5714602 371.49886,42.9117733 371.311348,43.3241838 L371.088967,43.9794857 C370.970344,44.4477634 370.970344,44.9492318 371.088967,45.4175094 L371.059316,45.3993066 Z" id="Path" stroke="none" fill="#803680" fill-rule="nonzero"></path>
                    <ellipse id="Oval" stroke="none" fill="#79B57B" fill-rule="nonzero" cx="124.5" cy="351.5" rx="9.5" ry="7.5"></ellipse>
                    <ellipse id="Oval" stroke="none" fill="#79B57B" fill-rule="nonzero" cx="368.5" cy="351.5" rx="9.5" ry="7.5"></ellipse>
                    <path d="M334.210851,271.137671 C332.947288,275.613576 337.596552,279.842649 341.921825,278.855317 C343.787762,278.18553 345.333714,276.821002 346.247098,275.037633 C346.843871,274.089143 347.384803,273.105573 347.86705,272.092092 C348.089597,271.681233 348.289694,271.258234 348.466433,270.825015 C348.855221,269.656672 348.693226,270.611094 348.466433,270.528816 C348.213203,270.553103 347.958284,270.553103 347.705055,270.528816 C347.510661,270.825015 350.037786,272.750313 350.313178,272.931324 C351.22892,273.54672 352.293834,273.894016 353.391088,273.935112 C355.583763,273.671393 357.611667,272.620992 359.10952,270.973115 C366.120278,264.264423 369.288395,254.392844 367.517073,244.775903 C366.95009,241.665807 362.268427,242.98225 362.835411,246.092346 C363.936004,252.69983 362.248533,259.472769 358.186147,264.752923 C357.085885,266.411269 355.614826,267.78152 353.893273,268.751618 C352.273321,269.442751 351.042157,266.49721 349.503202,265.937721 C347.024675,265.049123 345.080732,266.513665 344.043962,268.718707 C343.574176,269.722495 343.071991,270.742738 342.521207,271.713614 C342.181017,272.306014 341.565435,273.622456 340.901255,273.951567 C340.521297,274.034703 340.124578,273.976299 339.783487,273.787012 C339.461539,273.599603 339.180456,273.347669 338.957312,273.046513 C338.844823,272.92775 338.786123,272.766755 338.795317,272.602213 C338.795317,272.914868 338.795317,272.865502 338.892514,272.404747 C339.168961,271.121218 338.407135,269.842667 337.159462,269.496218 C335.91179,269.149768 334.61562,269.856862 334.210851,271.10476 L334.210851,271.137671 Z" id="Path" stroke="none" fill="#0C6D0F" fill-rule="nonzero"></path>
                    <path d="M266,245.869391 C266.600421,247.655594 267.200841,251.828669 267.785461,253.630679 C268.092603,254.742373 268.631045,255.776609 269.365516,256.665643 C270.048797,257.367285 270.880141,257.907343 271.798799,258.246354 C273.509782,259.126218 275.512935,259.24106 277.313189,258.562496 C279.446262,257.535034 280.299492,254.958476 280.647103,252.619025 C281.04208,250.098482 281.105823,247.537083 280.83671,245" id="Path" stroke="none" fill="#FFFFFF" fill-rule="nonzero"></path>
                    <path d="M222,245.893256 C222.590209,247.695719 223.196369,251.906784 223.80253,253.725198 C224.094772,254.83825 224.610356,255.880235 225.317931,256.787791 C227.469855,258.75625 230.485731,259.474002 233.293726,258.68596 C235.447191,257.649145 236.292626,255.049131 236.659512,252.688383 C237.04425,250.143437 237.103214,247.559848 236.83498,245" id="Path" stroke="none" fill="#FFFFFF" fill-rule="nonzero"></path>
                    <path d="M135.723864,234.167243 C134.21845,237.578287 133.134331,241.163377 132.495931,244.841738 C131.914904,248.394471 131.543691,252.142767 133.157658,255.483639 C134.434703,258.333484 137.242005,260.16805 140.339807,260.177157 C143.71225,260.036995 146.371433,257.229521 146.359901,253.821351 L141.61484,254.473229 C142.324985,259.639358 143.51932,265.881086 148.425778,268.618972 C152.428414,270.933137 158.33553,270.509417 160.69192,266.044055 C162.16063,263.273576 157.980457,260.796441 156.511748,263.583218 C155.301273,265.897383 151.944224,265.359584 150.185001,263.958047 C147.199163,261.562397 146.763392,256.689613 146.279203,253.185771 C145.90799,250.447885 141.437304,251.099763 141.437304,253.821351 C141.437304,255.173997 139.984734,255.581421 138.967936,255.027325 C137.492496,254.00036 136.654366,252.270702 136.756802,250.464182 C136.778635,245.682636 137.842093,240.9645 139.871757,236.644378 C140.509074,235.469037 140.126591,233.995716 139.000215,233.287209 C137.862205,232.680133 136.453047,233.064313 135.772283,234.167243 L135.723864,234.167243 Z" id="Path" stroke="none" fill="#0C6D0F" fill-rule="nonzero"></path>
                    <path d="M237,278.417548 L238.582222,272.849134 C238.804171,271.686197 239.268188,270.58539 239.942933,269.621069 C240.605272,268.888515 241.414819,268.310439 242.316266,267.926334 C243.989359,266.95163 245.985802,266.735097 247.822399,267.329142 C249.990044,268.281422 250.986844,270.880014 251.429866,273.252643 C251.919191,275.80288 252.094591,278.405445 251.951999,281" id="Path" stroke="none" fill="#FFFFFF" fill-rule="nonzero"></path>
                    <path d="M193.160668,243.179703 C200.019434,261.546048 214.426646,275.877495 232.538437,282.350393 C241.62147,285.687918 251.349454,286.757842 260.916199,285.471498 C271.69034,284.046542 281.702,279.00669 289.390594,271.137535 C297.443308,262.880645 303.160734,252.427421 307.766886,241.792546 C309.02311,238.902634 304.851804,236.376025 303.595581,239.298965 C295.84887,257.18339 284.494544,275.166898 264.668764,279.790757 C247.065532,283.902689 228.109444,278.023782 214.548675,266.100832 C207.051054,259.617338 201.291424,251.278924 197.815136,241.875115 C196.752178,238.902634 192.081604,240.223736 193.160668,243.179703 L193.160668,243.179703 Z" id="Path" stroke="none" fill="#000000" fill-rule="nonzero"></path>
                    <path d="M172,218 C172,218 176.156114,232.964581 199.957858,240.727045 C208.893502,243.644149 220.610546,245.539443 235.908242,245.226307 C242.190367,245.110942 248.488478,245.226307 254.754619,245.68777 C272.338177,246.874389 311.149886,246.033867 326,218" id="Path" stroke="#000000" stroke-width="3" fill="none" stroke-linecap="round"></path>
                    <path d="M406.693103,44.4215514 C415.331363,43.7965575 422.53913,37.4556084 424.411564,28.8339412 C424.790568,26.8854899 425.264324,24.4217457 427.159347,24.0030703 C428.732396,23.935345 430.139166,24.9944459 430.538804,26.5473289 C430.881682,28.0900366 431.113911,29.6561615 431.233645,31.2332738 C432.228532,36.6438492 437.550387,40.0576647 442.840658,41.4103085 C444.529363,41.6833617 446.143223,42.3141933 447.578215,43.2621424 C449.039864,44.310739 449.436098,46.3451072 448.478351,47.8836756 C447.885903,48.4812253 447.142397,48.8993236 446.330658,49.0913933 C442.730115,50.3313169 438.908487,51.4585201 436.208079,54.1960136 C432.765455,57.6903436 431.912695,62.9720958 429.749211,67.4164971 C429.534919,67.9681643 429.167152,68.4439238 428.691157,68.7852439 C427.490976,69.4937716 425.943374,68.3343626 425.532786,66.9817187 C425.351334,65.5814843 425.351334,64.1629925 425.532786,62.7627581 C425.532786,58.7692381 422.690252,55.2749081 419.35817,53.1010162 C415.904383,51.2197595 412.268608,49.7087426 408.509166,48.5922033 C407.498487,48.2218366 406.377266,47.658235 406.171972,46.5793404 C405.966677,45.5004459 405.777175,45.3555198 406.661519,44.3571398" id="Path" stroke="none" fill="#FFFFFF" fill-rule="nonzero"></path>
                    <path d="M26.7246012,315.455897 C35.3550491,314.827072 42.5514249,308.471048 44.4080247,299.837443 C44.7862798,297.889162 45.2590986,295.425633 47.1661345,295.006994 C48.7571062,294.902829 50.1946912,295.972189 50.5861905,297.55103 C50.9283914,299.093604 51.1601605,300.659592 51.2796581,302.236567 C52.2725776,307.64667 57.5839089,311.060188 62.863719,312.412714 C64.5486011,312.687585 66.1589073,313.31822 67.5919071,314.264386 C69.0452396,315.317859 69.4335802,317.35115 68.4745022,318.885517 C67.8865965,319.4791 67.1507252,319.896759 66.3468176,320.093129 C62.737634,321.332945 58.9235622,322.46005 56.2442556,325.197304 C52.7926783,328.69133 51.9416045,333.972621 49.7823986,338.416635 C49.573534,338.97118 49.2054446,339.448259 48.7264366,339.785263 C47.5286289,340.493729 45.9840874,339.334421 45.5743111,337.981895 C45.3531844,336.586818 45.3213636,335.167258 45.4797474,333.763302 C45.4797474,329.77013 42.6428345,326.276105 39.3331028,324.102402 C35.8794026,322.224032 32.2458739,320.713287 28.4897915,319.593983 C27.4811113,319.223648 26.3621068,318.660096 26.1572187,317.581295 C25.9523305,316.502495 25.8104849,316.083856 26.6457981,315.359288" id="Path" stroke="none" fill="#FFFFFF" fill-rule="nonzero"></path>
                </g>
            </g>
            <rect id="Rectangle" fill="#F08800" mask="url(#mask-2)" x="-34" y="433" width="663" height="113" rx="38"></rect>
        </g>
    </g>
</svg>