<?xml version="1.0" encoding="UTF-8"?>
<svg width="598px" height="546px" viewBox="0 0 598 546" version="1.1" xmlns="http://www.w3.org/2000/svg" xmlns:xlink="http://www.w3.org/1999/xlink">
    <!-- Generator: Sketch 62 (91390) - https://sketch.com -->
    <title>Kingsly Copy 11</title>
    <desc>Created with Sketch.</desc>
    <defs>
        <rect id="path-1" x="0" y="0" width="598" height="546" rx="52"></rect>
    </defs>
    <g id="Page-1-Copy" stroke="none" stroke-width="1" fill="none" fill-rule="evenodd">
        <g id="Kingsly-Copy-11">
            <mask id="mask-2" fill="white">
                <use xlink:href="#path-1"></use>
            </mask>
            <use id="Mask" fill="#93C061" xlink:href="#path-1"></use>
            <g id="Statsd-docker" mask="url(#mask-2)">
                <g transform="translate(2.000000, -21.000000)">
                    <rect id="Rectangle" stroke="none" fill="#F08800" fill-rule="nonzero" x="0" y="0" width="598" height="494"></rect>
                    <path d="M598,319.019374 L598,338.778602 C596.715863,339.701772 595.259658,340.357917 593.717548,340.708215 L529.480774,356.145112 C523.963403,357.468969 520.15549,362.515365 520.395032,368.185891 L523.153548,433.098043 C523.30076,436.590398 521.901277,439.970046 519.328449,442.33538 C516.75562,444.700713 513.271163,445.811122 509.804645,445.370376 L441.208258,436.687122 C436.244112,436.054631 431.41822,438.611191 429.151806,443.074138 L402.820516,495 L341.708774,495 L320.065032,475.356549 C317.042984,472.629452 312.835859,471.639243 308.915226,472.732276 L229.05329,495 L186.460258,495 C185.836155,493.013286 185.743045,490.897723 186.190194,488.863833 L194.620065,450.522441 C195.322053,447.259757 194.620479,443.85217 192.686799,441.13246 C190.75312,438.412749 187.765493,436.631494 184.454065,436.224015 L87.0765161,424.414788 C83.0235687,423.920978 79.5092548,421.377137 77.7732212,417.680587 C76.0371877,413.984037 76.3234015,409.654258 78.5309032,406.218546 L106.521161,362.705793 C108.525382,359.584661 108.955256,355.705601 107.68306,352.221161 C106.410864,348.736721 103.582974,346.047811 100.039613,344.953361 L0,314.079567 L0,281.276161 L32.7935484,242.683919 C35.072002,240.00204 36.0405301,236.445694 35.4367307,232.978396 C34.8329313,229.511099 32.7193133,226.491804 29.6685161,224.738526 L16.4932258,217.15515 C12.0303302,214.683296 9.64682934,209.634296 10.5740086,204.616398 C11.501188,199.5985 15.531434,195.735309 20.5827742,195.022499 L24.3250968,194.462912 C28.2480859,193.870127 31.6151634,191.354953 33.2974148,187.760677 C34.9796662,184.166401 34.7543824,179.96886 32.6970968,176.575407 L0,122.739229 L0,108.65306 C1.71457814,106.281479 4.25340905,104.636593 7.11812903,104.041287 L71.76,90.3989297 C74.6863942,89.7808266 77.2706646,88.0781422 78.993871,85.6327878 L138.774581,1 L161.517871,1 L228.686774,46.9440647 C232.36128,49.4476463 237.126743,49.6859911 241.032581,47.5615406 L326.739484,1 L348.248194,1 L411.018903,73.8428577 C413.749161,76.9393524 417.888311,78.3998091 421.956516,77.7020819 L497.825355,65.1210109 C501.641507,64.5180733 505.512139,65.8116929 508.199512,68.5881998 C510.886886,71.3647067 512.054351,75.2762868 511.328581,79.0721066 L498.500516,145.759502 C497.407371,151.703104 500.954085,157.519137 506.737484,159.266786 L586.425806,183.251865 C590.24333,184.376134 593.241274,187.342941 594.406141,191.149317 C595.571008,194.955693 594.747082,199.092813 592.212903,202.162064 L554.018065,248.356978 C550.441014,252.671994 550.376619,258.904124 553.863742,263.292176 L598,319.019374 Z" id="Path" stroke="none" fill="#F09A00" fill-rule="nonzero"></path>
                    <path d="M398.310608,399.486449 C397.070578,399.293948 396.799322,401.180455 397.128705,402.393209 C400.09315,413.635249 404.336374,424.858038 412.144683,433.501319 C419.952992,442.144599 431.868897,447.765619 443.494171,445.494111 C451.847486,443.503039 459.139055,438.45809 463.915901,431.364561 C468.611781,424.308793 472.028215,416.49077 474.010514,408.26448 C478.583121,391.747921 480.617544,374.692361 482.651967,357.694551 C484.589513,341.505243 486.527058,325.296686 486.914567,309.011129 C487.205199,297.191587 486.701437,285.372045 486.197676,273.552503 C485.442033,255.476689 483.310733,222.000821 482.55509,203.925007 L430.241359,202 L398.310608,399.486449" id="Path" stroke="none" fill="#009713" fill-rule="nonzero"></path>
                    <path d="M188.722102,394.863937 C188.940986,395.745219 189.272852,396.594738 189.709512,397.391528 C190.096829,399.002337 190.096829,400.681546 189.709512,402.292354 C186.747281,413.560395 182.507225,424.809141 174.704746,433.472412 C166.902268,442.135683 154.917817,447.769703 143.456112,445.492941 C135.114563,443.496378 127.834837,438.439403 123.068991,431.330712 C118.362736,424.263801 114.941707,416.426337 112.962556,408.177204 C108.393363,391.622446 106.360459,374.527439 104.346916,357.490316 C102.410817,341.263566 100.474718,325.017521 100.087499,308.694298 C99.7970839,296.84742 100.281109,285.000541 100.784494,273.153663 C101.558934,255.036043 103.669281,221.482751 104.443721,203.365131 L149.574184,186 L188.722102,394.863937 Z" id="Path" stroke="none" fill="#009713" fill-rule="nonzero"></path>
                    <path d="M334.926518,397 L360.996805,397 C373.701119,397 384,407.41889 384,420.271243 L384,449.728757 C384,462.58111 373.701119,473 360.996805,473 L343.936102,473 C326.29828,473 312,458.535107 312,440.691758 L312,420.271243 C312,407.41889 322.298881,397 335.003195,397 L334.926518,397 Z" id="Path" stroke="none" fill="#009713" fill-rule="nonzero"></path>
                    <path d="M236.337704,397 L263.662265,397 C276.551323,397 287,407.41889 287,420.271243 L287,448.73973 C287.010296,455.170384 284.455668,461.341182 279.899166,465.891984 C275.342664,470.442786 269.158337,473 262.709309,473 L236.337704,473 C223.448646,473 213,462.58111 213,449.728757 L213,420.271243 C213,407.41889 223.448646,397 236.337704,397 L236.337704,397 Z" id="Path" stroke="none" fill="#009713" fill-rule="nonzero"></path>
                    <path d="M189,101.938245 C161.689865,93.7247504 142.547786,64.2482821 146.199387,36 C132.087898,52.8590997 123.453463,73.6098698 121.445374,95.490268 C120.296092,105.833842 121.377354,116.303233 124.616501,126.194922 C127.938774,136.092149 134.639563,144.508337 143.547172,149.971839 C143.619449,150.009387 143.705522,150.009387 143.777799,149.971839" id="Path" stroke="none" fill="#772580" fill-rule="nonzero"></path>
                    <path d="M398,102.494194 C425.317856,94.211448 444.446122,64.4864533 440.793488,36 C454.916354,52.9967359 463.55423,73.9248838 465.554501,95.9918513 C466.704107,106.422636 465.62254,116.980298 462.382476,126.955388 C459.073001,136.953595 452.368054,145.457315 443.446454,150.97148 C443.381025,151.009507 443.300414,151.009507 443.234986,150.97148" id="Path" stroke="none" fill="#772580" fill-rule="nonzero"></path>
                    <path d="M448,341 C417.772902,397.116797 360.349135,435 294.490349,435 C228.631562,435 171.227098,397.136195 141,341.116385 C143.93392,344.510937 285.321848,510.72761 448,341 Z" id="Path" stroke="none" fill="#008B13" fill-rule="nonzero"></path>
                    <path d="M448,341 C417.772902,397.116797 360.349135,435 294.490349,435 C228.631562,435 171.227098,397.136195 141,341.116385 C143.93392,344.510937 285.321848,510.72761 448,341 Z" id="Path" stroke="none" fill="#000000" fill-rule="nonzero" opacity="0.22"></path>
                    <path d="M470,250.852796 C470.084151,282.384478 462.28161,313.436067 447.302789,341.177621 L447.302789,341.177621 C284.859683,510.018088 143.531866,344.670207 140.697211,341.177621 L140.697211,341.177621 C125.71839,313.436067 117.915849,282.384478 118,250.852796 C118,149.316963 196.8311,67 294.077133,67 C391.323167,67 470,149.316963 470,250.852796 Z" id="Path" stroke="none" fill="#009713" fill-rule="nonzero"></path>
                    <path d="M155,146.912841 C151.425147,129.049942 136.551163,115.684528 118.464505,114.082897 C107.339107,113.363283 96.659501,117.38923 87.4529439,123.807406 C73.5983502,133.377354 65.2310221,149.096595 65.0083267,165.972879 C64.906725,170.837882 65.7357472,175.677305 67.4504871,180.22901 C69.8732653,186.491594 72.4317191,192.929219 77.1415999,197.733126 C84.8944901,205.512734 99.2179548,206.932512 110.091383,205.512734 C123.251915,203.703975 136.470592,198.199903 139.164722,187.502943" id="Path" stroke="none" fill="#009713" fill-rule="nonzero"></path>
                    <path d="M436,147.914207 C439.567224,130.053476 454.442766,116.685891 472.534961,115.082852 C483.660196,114.363633 494.339646,118.387369 503.642979,124.802021 C517.468627,134.38991 525.79926,150.106928 525.990358,166.96378 C526.099755,171.837629 525.277359,176.687388 523.567615,181.25096 C521.144873,187.490667 518.605838,193.944195 513.876644,198.745465 C506.123867,206.520801 491.800612,207.920362 480.927342,206.520801 C467.767003,204.713036 454.548519,199.211985 451.854429,188.540337" id="Path" stroke="none" fill="#009713" fill-rule="nonzero"></path>
                    <path d="M184.568834,343.357795 C178.719926,351.135791 179.928701,363.230575 189.169974,367.858483 C193.206271,370.005422 198.081195,369.857413 201.979082,367.469583 C205.936979,365.018953 208.193307,360.570695 207.827989,355.938704 C207.803656,354.49361 206.728525,353.281088 205.293463,353.08029 C203.854219,352.870978 202.483765,353.762759 202.09606,355.160904 C200.282899,363.67781 207.944967,372.389165 216.796314,370.814121 C224.965288,369.355747 229.137509,359.711032 225.901113,352.516385 C225.073985,351.142726 223.295383,350.684104 221.90436,351.485801 C220.601014,352.317837 220.145204,354.001574 220.851557,355.374799 C221.553492,357.343444 221.396293,359.51536 220.418139,361.363043 C219.439985,363.210726 217.730371,364.565127 215.704518,365.097294 C211.220356,365.972318 206.814179,361.052736 207.730507,356.716503 L201.8816,355.938704 C202.235971,358.591795 200.970527,361.200154 198.664701,362.569445 C196.27563,363.957053 193.297894,363.843409 191.022128,362.27777 C185.173221,358.738782 185.894586,351.155236 189.481916,346.293989 C190.224889,344.910121 189.736456,343.187991 188.376745,342.397353 C187.017034,341.606714 185.273801,342.031184 184.432359,343.357795 L184.568834,343.357795 Z" id="Path" stroke="none" fill="#808942" fill-rule="nonzero"></path>
                    <path d="M448,341 L448,341 C285.347925,510.235992 143.838302,344.500767 141,341 L141,341 L448,341 Z" id="Path" stroke="none" fill="#009713" fill-rule="nonzero"></path>
                    <ellipse id="Oval" stroke="none" fill="#FFFFFF" fill-rule="nonzero" cx="240" cy="201" rx="44" ry="41"></ellipse>
                    <ellipse id="Oval" stroke="none" fill="#FFFFFF" fill-rule="nonzero" cx="349" cy="201" rx="44" ry="41"></ellipse>
                    <circle id="Oval" stroke="none" fill="#020202" fill-rule="nonzero" cx="241.5" cy="204.5" r="12.5"></circle>
                    <circle id="Oval" stroke="none" fill="#020202" fill-rule="nonzero" cx="346.5" cy="204.5" r="12.5"></circle>
                    <path d="M238.068788,289.539269 L283.437233,294.387966 L323.37846,294.387966 L365,288 L360.055631,299.910092 L342.827597,321.940877 C342.827597,321.940877 337.535578,330.099002 312.968247,336.044428 C312.968247,336.044428 280.037979,344.183312 251.70443,312.955396 C251.70443,313.070841 236.871324,295.83103 238.068788,289.539269 Z" id="Path" stroke="none" fill="#802804" fill-rule="nonzero"></path>
                    <path d="M129.605049,141.433034 C120.968174,135.593499 109.603976,135.517084 100.887309,141.239931 C92.3196379,147.065728 88.268644,157.496309 90.6952496,167.48265 C91.9668492,172.5831 95.2766593,176.957869 99.8700591,179.609528 C103.176121,181.424697 106.14962,176.423326 102.843558,174.608156 C94.0599985,169.780577 94.2360609,157.71163 99.5570592,150.470261 C105.999221,142.132326 117.982403,140.346055 126.63155,146.434405 C128.038252,147.229018 129.830513,146.765258 130.661424,145.391648 C131.38005,144.028978 130.920819,142.35005 129.605049,141.529585 L129.605049,141.433034 Z" id="Path" stroke="none" fill="#000000" fill-rule="nonzero"></path>
                    <path d="M471.301564,146.400119 C479.938893,140.269338 491.936465,142.060405 498.363607,150.440097 C503.674484,157.688863 503.869736,169.770138 495.102884,174.602648 C491.803112,176.419672 494.751429,181.426153 498.051202,179.609129 C506.486124,174.969919 509.64922,164.280407 507.189034,155.407918 C504.997375,147.591376 499.129032,141.303017 491.431392,138.522452 C483.733753,135.741886 475.153706,136.811152 468.392297,141.393638 C467.07903,142.214941 466.620673,143.895584 467.337932,145.259646 C468.148947,146.584481 469.868649,147.044158 471.242989,146.303469 L471.301564,146.400119 Z" id="Path" stroke="none" fill="#000000" fill-rule="nonzero"></path>
                    <path d="M117.273603,218.034902 C108.854777,247.244169 112.992247,278.753346 128.644796,304.632988 C130.539995,307.803582 135.505416,304.885857 133.553361,301.695811 C118.727961,277.151309 114.831353,247.273276 122.845488,219.591022 C123.906799,215.992494 118.410722,214.455826 117.368363,218.034902 L117.273603,218.034902 Z" id="Path" stroke="none" fill="#2D382E" fill-rule="nonzero"></path>
                    <path d="M461.00483,223.466416 C470.133766,250.699859 467.360871,280.607818 453.387685,305.623608 C452.593645,307.014797 453.0583,308.797559 454.425521,309.605519 C455.792742,310.413479 457.54479,309.940678 458.338829,308.549489 C473.057906,282.193698 476.036374,250.702797 466.527261,221.974411 C465.32756,218.467229 459.80513,220.036741 461.00483,223.524547 L461.00483,223.466416 Z" id="Path" stroke="none" fill="#2D382E" fill-rule="nonzero"></path>
                    <path d="M258.542224,70.6176543 C273.610205,61.4092478 289.655169,53.9350125 306.375983,48.3352258 C309.652535,47.2276773 313.207964,48.9515244 314.396476,52.2239568 C315.222316,54.5514508 315.362927,57.0701716 314.801357,59.47644 C321.836526,58.5423754 328.915759,57.984211 336.009392,57.8042857 C337.202036,57.650193 338.412894,57.8672835 339.479798,58.4264827 C340.57876,59.1070106 341.118601,60.3708482 341.986202,61.3624746 C344.164846,63.7540441 347.770212,63.6568258 351.067097,64.0456989 C358.374229,64.9401071 366.086242,70.8315345 363.483438,79.0756441 C362.74466,81.3168687 361.362283,83.2862172 359.511751,84.7337477 C354.807423,88.6224787 348.772773,89.2057883 342.969484,89.5557741 C316.901328,91.1321945 290.750663,88.5067494 265.502315,81.7783122 C261.106468,80.5922492 255.592379,77.170166 257.327582,72.9314492" id="Path" stroke="none" fill="#009713" fill-rule="nonzero"></path>
                    <path d="M132.560834,66.9210061 C129.543834,74.8828067 128.421511,83.4177034 129.279867,91.8716838 C129.667659,96.0168669 130.532484,100.105467 131.857769,104.05913 C132.764219,107.772277 134.809415,111.122164 137.716639,113.655545 C139.092506,114.38062 140.804996,113.92622 141.622552,112.619132 C142.402307,111.241997 141.936865,109.505507 140.567956,108.684602 C138.302526,106.97644 137.423696,102.926753 136.662043,100.316529 C135.611955,96.8216378 134.957016,93.2236523 134.709086,89.5877371 C134.28163,82.4052723 135.385857,75.2142675 137.950994,68.4756253 C139.279004,65.0017232 133.61543,63.5046826 132.306949,66.9593918 L132.560834,66.9210061 Z" id="Path" stroke="none" fill="#803680" fill-rule="nonzero"></path>
                    <path d="M140.828827,57.1675662 L142.168136,55.8432426 C142.43509,55.5863332 142.635775,55.2681906 142.752905,54.916216 C142.92926,54.5851929 143.013939,54.2128169 142.99813,53.8378382 C143.013678,53.4568398 142.929111,53.0784344 142.752905,52.7405414 C142.640337,52.3918452 142.438734,52.0787692 142.168136,51.8324338 L141.583367,51.3783799 C141.15305,51.1299437 140.665125,50.9994484 140.168605,51 L139.414064,51.0945963 C138.938311,51.2186344 138.506905,51.474305 138.169073,51.8324338 L136.829764,53.1567574 C136.567011,53.4096752 136.366773,53.720633 136.244996,54.0648651 C135.918335,54.7597146 135.918335,55.564609 136.244996,56.2594586 C136.34475,56.5966238 136.518814,56.9069799 136.75431,57.1675662 L137.339079,57.6216201 C137.769397,57.8700563 138.257321,58.0005516 138.753842,58 L139.508382,57.9054037 C139.984135,57.7813656 140.415541,57.525695 140.753373,57.1675662 L140.828827,57.1675662 Z" id="Path" stroke="none" fill="#803680" fill-rule="nonzero"></path>
                    <path d="M448.67488,70.5897173 C452.218026,83.2784106 450.998764,96.8272527 445.247394,108.677075 C444.008077,111.198132 447.764757,113.408905 449.004074,110.887848 C455.325152,98.0096356 456.703356,83.2550088 452.87694,69.4261525 C452.480504,68.3614302 451.337162,67.7768253 450.243527,68.0796565 C449.149892,68.3824877 448.468837,69.4722748 448.67488,70.5897173 L448.67488,70.5897173 Z" id="Path" stroke="none" fill="#803680" fill-rule="nonzero"></path>
                    <path d="M445.071179,54.8242199 L445.693846,57.711644 C445.756321,58.104219 445.917094,58.4672243 446.156399,58.7560314 C446.341072,59.0923401 446.59857,59.3675685 446.903599,59.5546806 C447.20266,59.7740376 447.54578,59.9009882 447.899867,59.923288 C448.250129,60.0255707 448.617034,60.0255707 448.967296,59.923288 L449.678915,59.6365934 C450.074254,59.3659813 450.404506,58.9858363 450.639602,58.5307714 L450.906459,57.7935567 C451.03118,57.2638529 451.03118,56.7054839 450.906459,56.1757801 L450.283792,53.288356 C450.20414,52.8985694 450.038726,52.5389178 449.803449,52.2439686 C449.393208,51.5665931 448.739783,51.1378726 448.0244,51.076712 C447.674138,50.9744293 447.307233,50.9744293 446.956971,51.076712 L446.334304,51.3838848 C445.931236,51.6428927 445.598632,52.0257449 445.373618,52.4897068 L445.10676,53.2269215 C444.964413,53.7537338 444.964413,54.3178857 445.10676,54.8446981 L445.071179,54.8242199 Z" id="Path" stroke="none" fill="#803680" fill-rule="nonzero"></path>
                    <ellipse id="Oval" stroke="none" fill="#79B57B" fill-rule="nonzero" cx="149.5" cy="421" rx="11.5" ry="9"></ellipse>
                    <ellipse id="Oval" stroke="none" fill="#79B57B" fill-rule="nonzero" cx="442.5" cy="421" rx="11.5" ry="9"></ellipse>
                    <path d="M401.254262,324.608884 C399.730553,329.955105 405.337018,335.006497 410.552789,333.827184 C412.802889,333.02716 414.667125,331.397308 415.768559,329.267172 C416.488197,328.134254 417.140497,326.959435 417.722031,325.748887 C417.990396,325.25814 418.23169,324.75289 418.444816,324.235435 C418.913649,322.839914 418.718302,323.979917 418.444816,323.881641 C418.139451,323.910651 417.832049,323.910651 417.526684,323.881641 C417.292267,324.235435 420.339684,326.535096 420.671774,326.751304 C421.776051,327.48636 423.060211,327.901186 424.383371,327.950272 C427.027479,327.635275 429.472893,326.38063 431.279127,324.412332 C439.733277,316.399172 443.553653,304.608119 441.417647,293.121218 C440.733932,289.40638 435.088398,290.978798 435.772113,294.693635 C437.099298,302.585908 435.064407,310.675808 430.165648,316.982658 C428.838861,318.96346 427.064938,320.600149 424.988947,321.758877 C423.035475,322.584396 421.550836,319.066112 419.695038,318.397834 C416.706226,317.336452 414.362059,319.085767 413.111837,321.719567 C412.54533,322.918535 411.939754,324.137159 411.275573,325.296817 C410.865344,326.004405 410.123025,327.576823 409.322101,327.969927 C408.863917,328.069228 408.385521,327.999468 407.974206,327.773375 C407.585974,327.549526 407.24702,327.248605 406.977935,326.88889 C406.842287,326.747035 406.771501,326.554736 406.782588,326.358199 C406.782588,326.731648 406.782588,326.672683 406.899796,326.122337 C407.233159,324.589232 406.314486,323.062075 404.80994,322.64826 C403.305394,322.234446 401.742365,323.07903 401.254262,324.569574 L401.254262,324.608884 Z" id="Path" stroke="none" fill="#0C6D0F" fill-rule="nonzero"></path>
                    <path d="M320,295.055689 C320.720505,297.224649 321.44101,302.291956 322.142554,304.48011 C322.511124,305.830024 323.157254,307.085883 324.038619,308.165424 C324.858557,309.017417 325.856169,309.673202 326.958559,310.084858 C329.011738,311.153265 331.415522,311.292715 333.575827,310.468745 C336.135515,309.221113 337.15939,306.092435 337.576524,303.251673 C338.050496,300.191014 338.126987,297.080743 337.804052,294" id="Path" stroke="none" fill="#FFFFFF" fill-rule="nonzero"></path>
                    <path d="M267,295.084668 C267.708251,297.273374 268.435643,302.386809 269.163036,304.594884 C269.513726,305.946446 270.132427,307.211713 270.981517,308.313746 C273.563826,310.704018 277.182877,311.575574 280.552472,310.618666 C283.136629,309.359676 284.151151,306.202517 284.591415,303.335894 C285.0531,300.245602 285.123857,297.108386 284.801976,294" id="Path" stroke="none" fill="#FFFFFF" fill-rule="nonzero"></path>
                    <path d="M163.494318,280.388073 C161.67744,284.44445 160.36902,288.7078 159.598538,293.082067 C158.897297,297.306938 158.449283,301.764371 160.397173,305.737301 C161.938434,309.126305 165.326558,311.307951 169.065284,311.318782 C173.135474,311.152102 176.344833,307.813485 176.330915,303.760526 L170.604118,304.535732 C171.461189,310.679237 172.902628,318.101832 178.824214,321.357696 C183.654982,324.109676 190.78426,323.605793 193.62818,318.295633 C195.40076,315.001009 190.355724,312.055227 188.583144,315.369232 C187.122227,318.121212 183.070615,317.481667 180.947415,315.814975 C177.343818,312.966094 176.817887,307.171431 176.23352,303.0047 C175.785506,299.748836 170.38985,300.524042 170.38985,303.760526 C170.38985,305.369078 168.636748,305.853581 167.409578,305.194657 C165.628874,303.973401 164.617339,301.916511 164.740968,299.768216 C164.767318,294.082053 166.050801,288.471298 168.500396,283.333855 C169.269572,281.936153 168.807955,280.184095 167.448535,279.341545 C166.075075,278.619618 164.374367,279.07648 163.552755,280.388073 L163.494318,280.388073 Z" id="Path" stroke="none" fill="#0C6D0F" fill-rule="nonzero"></path>
                    <path d="M284,333.864165 L285.898667,327.10252 C286.165005,325.690381 286.721826,324.353688 287.53152,323.182726 C288.326327,322.293196 289.297783,321.591247 290.37952,321.124835 C292.387231,319.941265 294.782962,319.678332 296.986879,320.399673 C299.588052,321.556012 300.784212,324.711446 301.315839,327.592495 C301.903029,330.689211 302.113509,333.849469 301.942399,337" id="Path" stroke="none" fill="#FFFFFF" fill-rule="nonzero"></path>
                    <path d="M232.192801,291.150898 C240.423321,312.960932 257.711975,329.979526 279.446124,337.666092 C290.345764,341.629402 302.019344,342.899937 313.499439,341.372404 C326.428408,339.680269 338.4424,333.695444 347.668713,324.350823 C357.331969,314.545766 364.192881,302.132562 369.720264,289.503648 C371.227732,286.071878 366.222165,283.07153 364.714697,286.54252 C355.418644,307.780276 341.793453,329.135692 318.002516,334.626524 C296.878638,339.509443 274.131333,332.528242 257.85841,318.369738 C248.861264,310.670589 241.949709,300.768723 237.778163,289.601699 C236.502613,286.071878 230.897925,287.640687 232.192801,291.150898 L232.192801,291.150898 Z" id="Path" stroke="none" fill="#000000" fill-rule="nonzero"></path>
                    <path d="M207,261 C207,261 211.992734,278.636827 240.585738,287.785446 C251.320116,291.223461 265.395786,293.4572 283.772888,293.088148 C291.319597,292.952181 298.88551,293.088148 306.413016,293.632015 C327.536122,295.03053 374.160577,294.039915 392,261" id="Path" stroke="#000000" stroke-width="3" fill="none" stroke-linecap="round"></path>
                    <path d="M487.838171,53.5058617 C498.284439,52.7558689 507.000808,45.1467301 509.265147,34.8007294 C509.723478,32.4625879 510.296392,29.5060949 512.588047,29.0036843 C514.490339,28.922414 516.191549,30.1933351 516.674832,32.0567947 C517.089476,33.9080439 517.370311,35.7873938 517.515106,37.6799285 C518.718225,44.1726191 525.153956,48.2691976 531.551494,49.8923702 C533.593648,50.220034 535.545293,50.9770319 537.280632,52.1145709 C539.048208,53.3728869 539.527374,55.8141287 538.369168,57.6604107 C537.65272,58.3774704 536.753596,58.8791883 535.771959,59.109672 C531.417814,60.5975802 526.796309,61.9502241 523.530701,65.2352163 C519.367527,69.4284123 518.336282,75.766515 515.719976,81.0997965 C515.460832,81.7617971 515.016091,82.3327085 514.440468,82.7422926 C512.989087,83.5925259 511.117568,82.2012351 510.621043,80.5780624 C510.401614,78.8977812 510.401614,77.195591 510.621043,75.5153097 C510.621043,70.7230857 507.18356,66.5298898 503.154066,63.9212195 C498.977393,61.6637114 494.580642,59.8504911 490.03434,58.510644 C488.812124,58.0662039 487.456228,57.3898819 487.207966,56.0952085 C486.959703,54.8005351 486.730537,54.6266238 487.799976,53.4285678" id="Path" stroke="none" fill="#FFFFFF" fill-rule="nonzero"></path>
                    <path d="M31.8762619,377.547077 C42.3130826,376.792487 51.0156767,369.165258 53.2608671,358.804932 C53.7182918,356.466994 54.2900727,353.510759 56.5962556,353.008392 C58.5202214,352.883395 60.2586964,354.166626 60.7321374,356.061236 C61.1459617,357.912324 61.4262406,359.79151 61.5707494,361.68388 C62.7714892,368.176004 69.1944945,372.272226 75.5793811,373.895257 C77.6169129,374.225102 79.56426,374.981864 81.29719,376.117264 C83.0547084,377.381431 83.5243296,379.821379 82.3645143,381.66262 C81.6535585,382.374919 80.7636677,382.876111 79.7915003,383.111755 C75.4269062,384.599534 70.8145404,385.952059 67.5744487,389.236765 C63.4004482,393.429596 62.3712426,399.767146 59.7601099,405.099962 C59.5075295,405.765416 59.0623981,406.337911 58.4831326,406.742315 C57.034621,407.592474 55.1668034,406.201305 54.67126,404.578274 C54.4038509,402.904182 54.3653699,401.200709 54.5569038,399.515962 C54.5569038,394.724156 51.1262185,390.531326 47.1237523,387.922883 C42.9471846,385.668838 38.5531498,383.855945 34.0109106,382.512779 C32.7911114,382.068378 31.4378966,381.392115 31.1901249,380.097554 C30.9423532,378.802994 30.7708189,378.300627 31.7809651,377.431146" id="Path" stroke="none" fill="#FFFFFF" fill-rule="nonzero"></path>
                </g>
            </g>
            <g id="Ziggurat" mask="url(#mask-2)">
                <g transform="translate(0.000000, -42.000000)">
                    <g id="Layer_1">
                        <path d="M226.234516,358.099219 L225.176226,359.516445 C222.570544,363.027239 217.894708,364.290771 213.874484,362.570469 L148.919419,335.044336 C144.290788,332.916125 142.163982,327.518089 144.097614,322.806133 C146.031245,318.094178 151.337518,315.744354 156.127774,317.478711 L222.121161,343.587617 C224.875324,344.671437 226.965446,346.97844 227.772377,349.82523 C228.579308,352.67202 228.010525,355.732185 226.234516,358.099219 Z M0,0 L0,510.800391 C0,510.910632 0.0893986258,511 0.199677419,511 L618.241226,511 L618.600645,483.254297 L618.960065,454.530508 L618.960065,452.055352 C618.723001,450.463314 618.622796,448.853902 618.660548,447.244766 C618.660548,447.005234 618.660548,446.785664 618.660548,446.546133 C618.82029,444.550039 618.920129,442.454141 618.920129,440.378203 L618.920129,0 L0,0 Z" id="Shape" fill="#33BEDE" fill-rule="nonzero"></path>
                    </g>
                    <g id="Layer_2" transform="translate(7.000000, 29.000000)">
                        <path d="M363.599041,78.3652485 C344.21642,86.8798278 323.935532,85.4441142 303.175567,86.500959 C285.689289,87.39828 273.612579,90.3694095 243.171285,85.4241738 C237.182834,84.4470909 233.749455,77.2485824 231.69342,71.465847 C230.432518,67.7972096 229.996331,63.8960938 230.415884,60.0399595 C231.434026,49.6021805 237.443092,40.3009154 246.544779,35.074495 C255.756197,30.0034321 266.955665,30.1321129 276.047883,35.4134829 C276.706612,24.565869 284.471638,15.4730161 293.154892,8.85278109 C301.838146,2.2325461 313.815049,-2.73263014 323.935532,1.73403443 C331.041827,4.86468773 335.652935,12.0831367 337.569239,19.6804546 C339.485543,27.2777725 339.066352,35.074495 338.64716,42.8313366 C343.098576,37.6667557 351.422523,37.1483035 357.391013,40.4384806 C363.359503,43.7286576 367.152188,50.0298451 369.068493,56.5503778 C371.763296,65.6831116 372.242372,70.9673353 363.599041,78.3652485 Z" id="Path" fill="#FFFFFF" fill-rule="nonzero"></path>
                        <path d="M612,246.543146 L612,348.000241 L598.026947,354.121964 L595.791259,355.099047 L570.839378,366.086245 L479.335842,405.967178 L441.269254,422.577587 L383.840006,447.642754 L59.6651762,309.794307 L59.6651762,221.657443 C59.6898846,219.75146 60.6223939,217.971338 62.1759214,216.864533 C63.7294488,215.757728 65.7179964,215.456754 67.5300089,216.054172 L383.840006,326.205311 L612,246.543146 Z" id="Path" fill="#D98C17" fill-rule="nonzero"></path>
                        <polygon id="Path" fill="#F09A00" fill-rule="nonzero" points="611.261424 180.919069 612 246.543146 383.840006 326.16543 64.7154368 215.735125 177.717513 183.531271 266.087092 161.935745 266.107054 161.935745 339.665197 143.949444 383.859967 133.141711 463.206947 133.221473 455.042692 147.977418"></polygon>
                        <path d="M569.681611,145.544681 L569.342265,204.169654 L556.546941,208.157747 L531.595061,215.715184 L498.778348,225.685418 L473.826467,233.262795 L439.352949,243.7116 L414.620646,251.229156 L383.840006,260.40177 L280.898528,230.112201 L250.417311,221.158932 L223.389434,213.182745 L192.908217,204.209535 L177.717513,199.74287 L177.717513,145.604503 C177.717513,144.484412 178.239991,143.428146 179.124236,142.739396 C180.00848,142.050645 181.16039,141.80572 182.248774,142.07504 L266.087092,162.872947 L266.087092,162.872947 L383.859967,192.06579 L569.681611,145.544681 Z" id="Path" fill="#D98C17" fill-rule="nonzero"></path>
                        <polygon id="Path" fill="#FFA10E" fill-rule="nonzero" points="569.681611 145.544681 569.681611 145.544681 383.859967 192.06579 266.107054 162.872947 266.087092 162.872947 181.13093 141.975338 383.859967 97.5878585 414.860184 115.673862"></polygon>
                        <polygon id="Path" fill="#D98C17" fill-rule="nonzero" points="493.268972 74.6563217 493.268972 137.847661 381.843855 162.713423 344.056728 154.278606 335.533166 152.384261 307.72679 146.162836 300.540649 144.567598 270.418739 137.847661 270.418739 74.6563217 381.843855 93.9387531"></polygon>
                        <polygon id="Path" fill="#FFA10E" fill-rule="nonzero" points="270.418739 74.6563217 381.843855 60.2194237 493.268972 74.6563217 381.843855 93.9387531"></polygon>
                        <path d="M356.712322,436.017462 L357.530743,383.653796 C357.633119,374.689289 352.264015,366.56484 343.971649,363.136376 C335.679282,359.707911 326.132938,361.665593 319.863385,368.080291 C315.709293,372.200104 313.373899,377.80632 313.375894,383.653796 L313.375894,417.113899" id="Path" fill="#80800D" fill-rule="nonzero"></path>
                        <path d="M335.892473,115.394695 L335.533166,152.384261 L307.72679,146.162836 L307.72679,115.394695 C307.617716,109.9195 309.049364,104.52366 311.858821,99.8211908 C314.413894,95.8330975 317.847273,93.3405391 321.839574,93.3405391 C329.544714,93.3405391 335.892473,103.250951 335.892473,115.394695 Z" id="Path" fill="#80800D" fill-rule="nonzero"></path>
                        <path d="M124.939295,338.169591 L125.75777,285.805925 C125.777323,276.893602 120.396682,268.855444 112.144219,265.468674 C103.891756,262.081904 94.4083024,264.019911 88.1502428,270.372004 C83.9961512,274.491816 81.6607574,280.098033 81.6627526,285.945508 L81.6627526,319.405612" id="Path" fill="#80800D" fill-rule="nonzero"></path>
                        <path d="M436.019378,424.8508 L435.200956,372.487134 C435.098581,363.522627 440.467685,355.398179 448.760051,351.969714 C457.052417,348.54125 466.598761,350.498932 472.868315,356.91363 C477.022407,361.033442 479.357801,366.639659 479.355805,372.487134 L479.355805,405.967178" id="Path"></path>
                        <path d="M511.533749,392.008851 L510.695366,339.625245 C510.59299,330.660738 515.962094,322.536289 524.25446,319.107825 C532.546827,315.67936 542.093171,317.637042 548.362724,324.05174 C552.516816,328.171553 554.85221,333.777769 554.850214,339.625245 L554.850214,373.085348" id="Path"></path>
                        <path d="M611.261424,286.44402 L611.261424,348.259467 L584.173663,360.104104 L583.33528,307.740439 C583.368182,295.573905 593.233334,285.71915 605.412704,285.685772 C607.387653,285.672769 609.355265,285.927685 611.261424,286.44402 L611.261424,286.44402 Z" id="Path"></path>
                        <path d="M133.802203,174.478299 C114.499428,183.172342 94.1985786,181.916093 73.4585757,183.152402 C55.9722979,184.189306 43.9355108,187.280078 13.4542938,182.594069 C7.46584246,181.656867 3.97257921,174.498239 1.83669825,168.755385 C0.548829291,165.092763 0.0853633377,161.191497 0.479315961,157.329497 C1.43159714,146.886368 7.38106654,137.548116 16.4485194,132.26433 C25.6087262,127.120021 36.7914159,127.120021 45.9516227,132.26433 C46.5105449,121.416716 54.2156855,112.18428 62.8390554,105.564045 C71.4624252,98.9438103 83.3994048,93.7991698 93.5598105,98.1661321 C100.686068,101.236964 105.35706,108.415532 107.333248,115.933088 C109.309437,123.450644 108.970092,131.307188 108.610785,139.06403 C113.022277,133.859568 121.346224,133.261354 127.334676,136.51165 C133.323127,139.761946 137.195659,146.003312 139.171848,152.464023 C141.866651,161.7164 142.405611,167.040505 133.802203,174.478299 Z" id="Path" fill="#FFFFFF" fill-rule="nonzero"></path>
                        <path d="M612,50.8673447 L612,136.770876 C607.029585,136.611352 602.019248,136.392007 597.00891,136.332186 C579.502671,136.0929 567.266269,138.326232 537.124397,131.40689 C531.135946,130.050939 528.241528,122.653025 526.5448,116.770588 C525.525319,113.027207 525.348078,109.104789 526.025801,105.284879 C527.687536,94.9213688 534.271214,86.0037564 543.691732,81.3563185 C553.211326,76.8862681 564.380803,77.7340721 573.11499,83.5896508 C574.472372,72.8018583 582.816281,64.1476956 591.898765,58.1655556 C597.85978,54.047217 604.782979,51.5335924 612,50.8673447 Z" id="Path" fill="#FFFFFF" fill-rule="nonzero"></path>
                        <path d="M379.568244,327.700846 L379.568244,443.854065 C379.568244,445.505988 380.908804,446.845135 382.56247,446.845135 C384.216135,446.845135 385.556695,445.505988 385.556695,443.854065 L385.556695,327.800548 C385.556695,326.148626 384.216135,324.809478 382.56247,324.809478 C380.908804,324.809478 379.568244,326.148626 379.568244,327.800548 L379.568244,327.700846 Z" id="Path" fill="#050505" fill-rule="nonzero"></path>
                        <path d="M380.246935,195.934241 L380.246935,258.068736 C380.246935,259.720658 381.587496,261.059806 383.241161,261.059806 C384.894826,261.059806 386.235386,259.720658 386.235386,258.068736 L386.235386,195.934241 C386.235386,194.282319 384.894826,192.943171 383.241161,192.943171 C381.587496,192.943171 380.246935,194.282319 380.246935,195.934241 L380.246935,195.934241 Z" id="Path" fill="#050505" fill-rule="nonzero"></path>
                        <path d="M378.98936,98.8839889 L378.98936,158.844973 C378.98936,160.496895 380.329921,161.836043 381.983586,161.836043 C383.637251,161.836043 384.977812,160.496895 384.977812,158.844973 L384.977812,98.8839889 C384.977812,97.2320665 383.637251,95.8929189 381.983586,95.8929189 C380.329921,95.8929189 378.98936,97.2320665 378.98936,98.8839889 L378.98936,98.8839889 Z" id="Path" fill="#050505" fill-rule="nonzero"></path>
                        <path d="M452.747119,337.252329 L466.281019,332.187451 C467.993825,331.555578 469.907611,331.79927 471.406965,332.840164 C472.90632,333.881057 473.802195,335.58791 473.806506,337.411853 L473.806506,409.057951 L449.094163,419.925505 L449.094163,342.476732 C449.099682,340.143944 450.556468,338.06047 452.747119,337.252329 Z" id="Path" fill="#80800D" fill-rule="nonzero"></path>
                        <path d="M515.406281,314.041626 L531.555138,308.059486 C532.91336,307.529775 534.446208,307.708018 535.646313,308.535218 C536.846418,309.362417 537.557273,310.730698 537.543783,312.187163 L537.543783,381.240999 L512.591709,392.148435 L512.591709,318.229124 C512.564286,316.383651 513.685952,314.714845 515.406281,314.041626 L515.406281,314.041626 Z" id="Path" fill="#80800D" fill-rule="nonzero"></path>
                        <path d="M595.791259,292.705327 L595.791259,355.079107 L570.839378,366.086245 L570.839378,298.687467 C570.840647,296.846948 571.986822,295.201056 573.713835,294.55979 L589.862692,288.57765 C591.213955,288.083297 592.721658,288.278386 593.902237,289.100347 C595.082816,289.922307 595.787867,291.267815 595.791259,292.705327 Z" id="Path" fill="#80800D" fill-rule="nonzero"></path>
                        <path d="M502.770649,182.035736 L502.770649,224.269644 L477.818755,231.847022 L477.818755,185.983948 C477.814208,184.141606 478.962474,182.492713 480.693225,181.856271 L498.059733,177.150321 C500.954152,176.113417 502.770649,178.964904 502.770649,182.035736 Z" id="Path" fill="#80800D" fill-rule="nonzero"></path>
                        <path d="M552.534679,168.675623 L552.534679,209.234532 L527.582785,216.81191 L527.582785,172.663716 C527.578238,170.821374 528.726505,169.172481 530.457255,168.53604 L547.823764,163.830089 C550.718182,162.793185 552.534679,165.644672 552.534679,168.675623 Z" id="Path" fill="#80800D" fill-rule="nonzero"></path>
                        <path d="M446.040053,196.33305 L446.040053,241.438386 L421.088159,249.015764 L421.088159,200.301203 C421.083613,198.458861 422.231879,196.809968 423.96263,196.173527 L441.309177,191.467576 C444.203595,190.410732 446.040053,193.262218 446.040053,196.33305 Z" id="Path" fill="#80800D" fill-rule="nonzero"></path>
                        <path d="M475.143927,102.872082 L475.143927,141.078017 C475.144414,141.438775 474.896473,141.752503 474.545081,141.835754 L451.130237,147.080097 C450.901319,147.128027 450.662959,147.070602 450.481078,146.923704 C450.299197,146.776806 450.193069,146.556003 450.192046,146.322359 L450.192046,106.301843 C450.19667,105.141135 451.04116,104.154123 452.188197,103.968808 L472.389239,100.459286 C473.088891,100.345924 473.802668,100.550593 474.335612,101.017392 C474.868556,101.484192 475.164983,102.164346 475.143927,102.872082 L475.143927,102.872082 Z" id="Path" fill="#80800D" fill-rule="nonzero"></path>
                        <path d="M425.260127,111.286959 L425.260127,153.042297 L400.408054,158.705389 L400.408054,114.497374 C400.409639,113.327605 401.250971,112.327476 402.404205,112.124459 L422.485478,108.854222 C423.191777,108.733354 423.914953,108.937452 424.453519,109.409652 C424.992086,109.881853 425.288482,110.571687 425.260127,111.286959 Z" id="Path" fill="#80800D" fill-rule="nonzero"></path>
                        <polygon id="Path" fill="#FFA10E" fill-rule="nonzero" points="187.778111 258.587188 92.3221972 373.623741 177.238436 414.16271 273.852117 288.378245"></polygon>
                        <path d="M612,425.329372 L611.640693,454.023703 L611.281386,454.502275 L383.840006,447.642754 L612,347.94042 L611.7405,417.293363 C611.7405,417.532649 611.7405,417.751994 611.7405,417.99128 C611.591946,420.439973 611.678843,422.897254 612,425.329372 Z" id="Path" fill="#606060" fill-rule="nonzero" opacity="0.29"></path>
                        <path d="M342.719307,201.657155 L342.719307,248.43749 L312.23809,239.46428 L312.23809,196.432753 C312.237764,194.949098 312.920668,193.547763 314.089875,192.63285 C315.259082,191.717936 316.784609,191.391156 318.226541,191.746743 L339.04639,196.971145 C341.195793,197.51581 342.705592,199.442054 342.719307,201.657155 Z" id="Path" fill="#80800D" fill-rule="nonzero"></path>
                        <path d="M280.898532,185.465496 L280.898532,230.172023 L250.417311,221.218753 L250.417311,180.241094 C250.416985,178.757439 251.099889,177.356104 252.269096,176.441191 C253.438303,175.526277 254.96383,175.199497 256.405763,175.555084 L277.245573,180.779486 C279.395234,181.319312 280.901297,183.251289 280.898532,185.465496 Z" id="Path" fill="#80800D" fill-rule="nonzero"></path>
                        <path d="M223.389434,170.948836 L223.389434,213.262507 L192.908213,204.289297 L192.908213,165.724434 C192.906162,164.241455 193.589621,162.840593 194.760188,161.928513 C195.930755,161.016433 197.457298,160.69531 198.896669,161.058364 L219.716518,166.282767 C221.87101,166.806662 223.387941,168.733769 223.389434,170.948836 L223.389434,170.948836 Z" id="Path" fill="#80800D" fill-rule="nonzero"></path>
                        <path d="M356.712322,436.017462 L357.530743,383.653796 C357.633119,374.689289 352.264015,366.56484 343.971649,363.136376 C335.679282,359.707911 326.132938,361.665593 319.863385,368.080291 C315.709293,372.200104 313.373899,377.80632 313.375894,383.653796 L313.375894,417.113899" id="Path" fill="#D98C17" fill-rule="nonzero"></path>
                        <path d="M335.892473,115.394695 L335.533166,152.384261 L307.72679,146.162836 L307.72679,115.394695 C307.617716,109.9195 309.049364,104.52366 311.858821,99.8211908 C314.413894,95.8330975 317.847273,93.3405391 321.839574,93.3405391 C329.544714,93.3405391 335.892473,103.250951 335.892473,115.394695 Z" id="Path" fill="#D98C17" fill-rule="nonzero"></path>
                        <path d="M124.939295,338.169591 L125.75777,285.805925 C125.777323,276.893602 120.396682,268.855444 112.144219,265.468674 C103.891756,262.081904 94.4083024,264.019911 88.1502428,270.372004 C83.9961512,274.491816 81.6607574,280.098033 81.6627526,285.945508 L81.6627526,319.405612" id="Path" fill="#D98C17" fill-rule="nonzero"></path>
                        <path d="M452.747119,337.252329 L466.281019,332.187451 C467.993825,331.555578 469.907611,331.79927 471.406965,332.840164 C472.90632,333.881057 473.802195,335.58791 473.806506,337.411853 L473.806506,409.057951 L449.094163,419.925505 L449.094163,342.476732 C449.099682,340.143944 450.556468,338.06047 452.747119,337.252329 Z" id="Path" fill="#D98C17" fill-rule="nonzero"></path>
                        <path d="M515.406281,314.041626 L531.555138,308.059486 C532.91336,307.529775 534.446208,307.708018 535.646313,308.535218 C536.846418,309.362417 537.557273,310.730698 537.543783,312.187163 L537.543783,381.240999 L512.591709,392.148435 L512.591709,318.229124 C512.564286,316.383651 513.685952,314.714845 515.406281,314.041626 L515.406281,314.041626 Z" id="Path" fill="#D98C17" fill-rule="nonzero"></path>
                        <path d="M595.791259,292.705327 L595.791259,355.079107 L570.839378,366.086245 L570.839378,298.687467 C570.840647,296.846948 571.986822,295.201056 573.713835,294.55979 L589.862692,288.57765 C591.213955,288.083297 592.721658,288.278386 593.902237,289.100347 C595.082816,289.922307 595.787867,291.267815 595.791259,292.705327 Z" id="Path" fill="#D98C17" fill-rule="nonzero"></path>
                        <path d="M502.770649,182.035736 L502.770649,224.269644 L477.818755,231.847022 L477.818755,185.983948 C477.814208,184.141606 478.962474,182.492713 480.693225,181.856271 L498.059733,177.150321 C500.954152,176.113417 502.770649,178.964904 502.770649,182.035736 Z" id="Path" fill="#D98C17" fill-rule="nonzero"></path>
                        <path d="M552.534679,168.675623 L552.534679,209.234532 L527.582785,216.81191 L527.582785,172.663716 C527.578238,170.821374 528.726505,169.172481 530.457255,168.53604 L547.823764,163.830089 C550.718182,162.793185 552.534679,165.644672 552.534679,168.675623 Z" id="Path" fill="#D98C17" fill-rule="nonzero"></path>
                        <path d="M446.040053,196.33305 L446.040053,241.438386 L421.088159,249.015764 L421.088159,200.301203 C421.083613,198.458861 422.231879,196.809968 423.96263,196.173527 L441.309177,191.467576 C444.203595,190.410732 446.040053,193.262218 446.040053,196.33305 Z" id="Path" fill="#D98C17" fill-rule="nonzero"></path>
                        <path d="M475.143927,102.872082 L475.143927,141.078017 C475.144414,141.438775 474.896473,141.752503 474.545081,141.835754 L451.130237,147.080097 C450.901319,147.128027 450.662959,147.070602 450.481078,146.923704 C450.299197,146.776806 450.193069,146.556003 450.192046,146.322359 L450.192046,106.301843 C450.19667,105.141135 451.04116,104.154123 452.188197,103.968808 L472.389239,100.459286 C473.088891,100.345924 473.802668,100.550593 474.335612,101.017392 C474.868556,101.484192 475.164983,102.164346 475.143927,102.872082 L475.143927,102.872082 Z" id="Path" fill="#D98C17" fill-rule="nonzero"></path>
                        <path d="M425.260127,111.286959 L425.260127,153.042297 L400.408054,158.705389 L400.408054,114.497374 C400.409639,113.327605 401.250971,112.327476 402.404205,112.124459 L422.485478,108.854222 C423.191777,108.733354 423.914953,108.937452 424.453519,109.409652 C424.992086,109.881853 425.288482,110.571687 425.260127,111.286959 Z" id="Path" fill="#D98C17" fill-rule="nonzero"></path>
                        <path d="M342.719307,201.657155 L342.719307,248.43749 L312.23809,239.46428 L312.23809,196.432753 C312.237764,194.949098 312.920668,193.547763 314.089875,192.63285 C315.259082,191.717936 316.784609,191.391156 318.226541,191.746743 L339.04639,196.971145 C341.195793,197.51581 342.705592,199.442054 342.719307,201.657155 Z" id="Path" fill="#D98C17" fill-rule="nonzero"></path>
                        <path d="M280.898532,185.465496 L280.898532,230.172023 L250.417311,221.218753 L250.417311,180.241094 C250.416985,178.757439 251.099889,177.356104 252.269096,176.441191 C253.438303,175.526277 254.96383,175.199497 256.405763,175.555084 L277.245573,180.779486 C279.395234,181.319312 280.901297,183.251289 280.898532,185.465496 Z" id="Path" fill="#D98C17" fill-rule="nonzero"></path>
                        <path d="M223.389434,170.948836 L223.389434,213.262507 L192.908213,204.289297 L192.908213,165.724434 C192.906162,164.241455 193.589621,162.840593 194.760188,161.928513 C195.930755,161.016433 197.457298,160.69531 198.896669,161.058364 L219.716518,166.282767 C221.87101,166.806662 223.387941,168.733769 223.389434,170.948836 L223.389434,170.948836 Z" id="Path" fill="#D98C17" fill-rule="nonzero"></path>
                        <g id="Group" opacity="0.39" transform="translate(81.023986, 92.901849)" fill="#000000" fill-rule="nonzero">
                            <path d="M275.688336,343.115613 L276.506757,290.751947 C276.609133,281.78744 271.240029,273.662991 262.947663,270.234527 C254.655296,266.806062 245.108953,268.763744 238.839399,275.178442 C234.685307,279.298255 232.349913,284.904471 232.351909,290.751947 L232.351909,324.21205" id="Path"></path>
                            <path d="M254.868487,22.4928466 L254.50918,59.4824126 L226.702804,53.2609869 L226.702804,22.4928466 C226.59373,17.017651 228.025378,11.621811 230.834836,6.91934199 C233.389908,2.93124863 236.823287,0.43869027 240.815588,0.43869027 C248.520728,0.43869027 254.868487,10.3491023 254.868487,22.4928466 Z" id="Path"></path>
                            <path d="M43.9153094,245.267742 L44.7337845,192.904076 C44.7533372,183.991753 39.372696,175.953595 31.1202331,172.566825 C22.8677701,169.180055 13.3843166,171.118062 7.12625703,177.470155 C2.97216542,181.589967 0.636771583,187.196184 0.638766858,193.043659 L0.638766858,226.503763" id="Path"></path>
                            <path d="M371.723133,244.350481 L385.257033,239.285602 C386.969839,238.653729 388.883625,238.897421 390.38298,239.938315 C391.882334,240.979209 392.778209,242.686061 392.78252,244.510004 L392.78252,316.156102 L368.070178,327.023656 L368.070178,249.574883 C368.075696,247.242095 369.532482,245.158621 371.723133,244.350481 Z" id="Path"></path>
                            <path d="M434.382295,221.139777 L450.531152,215.157637 C451.889375,214.627926 453.422222,214.806169 454.622327,215.633369 C455.822432,216.460569 456.533288,217.828849 456.519797,219.285314 L456.519797,288.339151 L431.567723,299.246586 L431.567723,225.327275 C431.5403,223.481802 432.661966,221.812996 434.382295,221.139777 L434.382295,221.139777 Z" id="Path"></path>
                            <path d="M514.767273,199.803478 L514.767273,262.177258 L489.815392,273.184396 L489.815392,205.785618 C489.816661,203.945099 490.962837,202.299208 492.689849,201.657941 L508.838706,195.675801 C510.189969,195.181448 511.697672,195.376537 512.878252,196.198498 C514.058831,197.020459 514.763881,198.365966 514.767273,199.803478 Z" id="Path"></path>
                            <path d="M421.746663,89.1338868 L421.746663,131.367796 L396.794769,138.945173 L396.794769,93.0820992 C396.790222,91.2397573 397.938489,89.5908643 399.669239,88.9544226 L417.035748,84.2484724 C419.930166,83.2115681 421.746663,86.0630549 421.746663,89.1338868 Z" id="Path"></path>
                            <path d="M471.510693,75.773774 L471.510693,116.332684 L446.558799,123.910061 L446.558799,79.7618674 C446.554253,77.9195255 447.702519,76.2706324 449.433269,75.6341907 L466.799778,70.9282406 C469.694196,69.8913363 471.510693,72.742823 471.510693,75.773774 Z" id="Path"></path>
                            <path d="M365.016068,103.431202 L365.016068,148.536537 L340.064174,156.113915 L340.064174,107.399354 C340.059627,105.557013 341.207893,103.908119 342.938644,103.271678 L360.285191,98.5657276 C363.179609,97.5088829 365.016068,100.36037 365.016068,103.431202 Z" id="Path"></path>
                            <path d="M394.119941,9.97023342 L394.119941,48.1761679 C394.120428,48.5369264 393.872487,48.8506539 393.521096,48.9339056 L370.106251,54.1782484 C369.877333,54.2261779 369.638974,54.168753 369.457092,54.0218549 C369.275211,53.8749569 369.169083,53.6541539 369.16806,53.4205107 L369.16806,13.3999937 C369.172684,12.2392867 370.017175,11.2522743 371.164211,11.0669591 L391.365253,7.55743693 C392.064905,7.44407468 392.778682,7.6487444 393.311626,8.11554358 C393.84457,8.58234277 394.140997,9.26249743 394.119941,9.97023342 L394.119941,9.97023342 Z" id="Path"></path>
                            <path d="M344.236142,18.3851104 L344.236142,60.140448 L319.384069,65.8035406 L319.384069,21.5955256 C319.385654,20.4257563 320.226985,19.425627 321.380219,19.22261 L341.461492,15.9523735 C342.167791,15.8315049 342.890967,16.035603 343.429533,16.5078035 C343.9681,16.980004 344.264496,17.6698386 344.236142,18.3851104 Z" id="Path"></path>
                            <path d="M261.695321,108.755306 L261.695321,155.535641 L231.214104,146.562431 L231.214104,103.530904 C231.213778,102.047249 231.896682,100.645914 233.065889,99.7310009 C234.235096,98.8160873 235.760623,98.4893074 237.202556,98.8448941 L258.022405,104.069296 C260.171808,104.613962 261.681606,106.540205 261.695321,108.755306 Z" id="Path"></path>
                            <path d="M199.874546,92.5636471 L199.874546,137.270174 L169.393325,128.316904 L169.393325,87.3392448 C169.392999,85.8555899 170.075903,84.4542554 171.24511,83.5393418 C172.414317,82.6244282 173.939844,82.2976483 175.381777,82.6532351 L196.221587,87.8776374 C198.371249,88.4174634 199.877311,90.3494399 199.874546,92.5636471 Z" id="Path"></path>
                            <path d="M142.365449,78.0469872 L142.365449,120.360658 L111.884227,111.387448 L111.884227,72.8225849 C111.882176,71.3396059 112.565635,69.9387442 113.736202,69.0266641 C114.906769,68.1145839 116.433313,67.7934609 117.872683,68.1565157 L138.692532,73.380918 C140.847024,73.9048131 142.363955,75.8319201 142.365449,78.0469872 L142.365449,78.0469872 Z" id="Path"></path>
                        </g>
                        <polygon id="Path" fill="#000000" fill-rule="nonzero" points="273.852117 288.378245 260.158525 395.019862 177.238436 414.16271"></polygon>
                    </g>
                </g>
            </g>
            <rect id="Rectangle" fill="#33BEDE" mask="url(#mask-2)" x="-34" y="459" width="663" height="87" rx="38"></rect>
        </g>
    </g>
</svg>