<svg xmlns="http://www.w3.org/2000/svg" xmlns:xlink="http://www.w3.org/1999/xlink" viewBox="0 0 310 256"><defs><style>.cls-1{fill:#33bede;}.cls-2{fill:#fff;}.cls-3{fill:#d98c17;}.cls-4{fill:#f09a00;}.cls-5{fill:#ffa10e;}.cls-6{fill:#80800d;}.cls-7{fill:none;}.cls-8{fill:#050505;}.cls-9{fill:#606060;opacity:0.29;}.cls-10{opacity:0.39;}</style></defs><g id="Layer_1" data-name="Layer 1"><path class="cls-1" d="M113.3,179.4l-.53.71a4.73,4.73,0,0,1-5.66,1.53L74.58,167.85a4.76,4.76,0,0,1,3.61-8.8l33.05,13.08A4.75,4.75,0,0,1,113.3,179.4ZM0,0V255.9a.1.1,0,0,0,.1.1H309.62l.18-13.9.18-14.39,0-1.24a14.12,14.12,0,0,1-.15-2.41c0-.12,0-.23,0-.35.08-1,.13-2.05.13-3.09V0Z"/></g><g id="Layer_2" data-name="Layer 2"><image width="3677" height="3679" transform="translate(289.32 -639.15) scale(0.19)" xlink:href="../../Gojek/logos/Copy%20of%20Gojek_Logo_Brandmark-2.png"/><path class="cls-2" d="M185.56,53.71c-9.71,4.27-19.87,3.55-30.27,4.08-8.76.45-14.81,1.94-30.06-.54-3-.49-4.72-4.1-5.75-7a13.24,13.24,0,0,1-.64-5.73A16.26,16.26,0,0,1,126.92,32a15,15,0,0,1,14.78.17c.33-5.44,4.22-10,8.57-13.32s10.35-5.81,15.42-3.57c3.56,1.57,5.87,5.19,6.83,9s.75,7.72.54,11.61c2.23-2.59,6.4-2.85,9.39-1.2s4.89,4.81,5.85,8.08C189.65,47.35,189.89,50,185.56,53.71Z"/><path class="cls-3" d="M310,138.05v50.88L303,192l-1.12.49L289.38,198l-45.84,20-19.07,8.33L195.7,238.9,33.3,169.77v-44.2a3,3,0,0,1,3.94-2.81L195.7,178Z"/><polygon class="cls-4" points="309.63 105.14 310 138.05 195.7 177.98 35.83 122.6 92.44 106.45 136.71 95.62 136.72 95.62 173.57 86.6 195.71 81.18 235.46 81.22 231.37 88.62 309.63 105.14"/><path class="cls-3" d="M288.8,87.4l-.17,29.4-6.41,2-12.5,3.79-16.44,5-12.5,3.8-17.27,5.24-12.39,3.77L195.7,145l-51.57-15.19-15.27-4.49-13.54-4-15.27-4.5-7.61-2.24V87.43a1.83,1.83,0,0,1,2.27-1.77l42,10.43h0l59,14.64Z"/><polygon class="cls-5" points="288.8 87.4 288.8 87.4 195.71 110.73 136.72 96.09 136.71 96.09 94.15 85.61 195.71 63.35 211.24 72.42 288.8 87.4"/><polygon class="cls-3" points="250.52 51.85 250.52 83.54 194.7 96.01 175.77 91.78 171.5 90.83 157.57 87.71 153.97 86.91 138.88 83.54 138.88 51.85 194.7 61.52 250.52 51.85"/><polygon class="cls-5" points="138.88 51.85 194.7 44.61 250.52 51.85 194.7 61.52 138.88 51.85"/><path class="cls-6" d="M182.11,233.07l.41-26.26A11,11,0,0,0,163.65,199a11,11,0,0,0-3.25,7.81v16.78"/><path class="cls-6" d="M171.68,72.28l-.18,18.55-13.93-3.12V72.28a14.67,14.67,0,0,1,2.07-7.81c1.28-2,3-3.25,5-3.25C168.5,61.22,171.68,66.19,171.68,72.28Z"/><path class="cls-6" d="M66,184l.41-26.26A11,11,0,0,0,47.57,150a11,11,0,0,0-3.25,7.81v16.78"/><path class="cls-7" d="M221.84,227.47l-.41-26.26a11,11,0,0,1,18.87-7.81,11,11,0,0,1,3.25,7.81V218"/><path class="cls-7" d="M259.67,211l-.42-26.27a11,11,0,0,1,18.87-7.81,11,11,0,0,1,3.25,7.81v16.78"/><path class="cls-7" d="M309.63,158.06v31L296.06,195l-.42-26.26a11.09,11.09,0,0,1,11.06-11.06A10.91,10.91,0,0,1,309.63,158.06Z"/><path class="cls-2" d="M70.44,101.91c-9.67,4.36-19.84,3.73-30.23,4.35-8.76.52-14.79,2.07-30.06-.28-3-.47-4.75-4.06-5.82-6.94a13.24,13.24,0,0,1-.68-5.73,16.26,16.26,0,0,1,8-12.57,15.08,15.08,0,0,1,14.78,0c.28-5.44,4.14-10.07,8.46-13.39s10.3-5.9,15.39-3.71c3.57,1.54,5.91,5.14,6.9,8.91s.82,7.71.64,11.6c2.21-2.61,6.38-2.91,9.38-1.28s4.94,4.76,5.93,8C74.48,95.51,74.75,98.18,70.44,101.91Z"/><path class="cls-2" d="M310,39.92V83c-2.49-.08-5-.19-7.51-.22-8.77-.12-14.9,1-30-2.47-3-.68-4.45-4.39-5.3-7.34a13.18,13.18,0,0,1-.26-5.76,16.25,16.25,0,0,1,8.85-12,15,15,0,0,1,14.74,1.12c.68-5.41,4.86-9.75,9.41-12.75A21.12,21.12,0,0,1,310,39.92Z"/><path class="cls-8" d="M193.56,178.75V237a1.5,1.5,0,0,0,3,0v-58.2a1.5,1.5,0,0,0-3,0Z"/><path class="cls-8" d="M193.9,112.67v31.16a1.5,1.5,0,0,0,3,0V112.67a1.5,1.5,0,0,0-3,0Z"/><path class="cls-8" d="M193.27,64V94.07a1.5,1.5,0,0,0,3,0V64a1.5,1.5,0,0,0-3,0Z"/><path class="cls-6" d="M230.22,183.54,237,181a2.8,2.8,0,0,1,3.77,2.62v35.93L228.39,225V186.16A2.8,2.8,0,0,1,230.22,183.54Z"/><path class="cls-6" d="M261.61,171.9l8.09-3a2.2,2.2,0,0,1,3,2.07v34.63l-12.5,5.47V174A2.22,2.22,0,0,1,261.61,171.9Z"/><path class="cls-6" d="M301.88,161.2v31.28L289.38,198V164.2a2.21,2.21,0,0,1,1.44-2.07l8.09-3A2.21,2.21,0,0,1,301.88,161.2Z"/><path class="cls-6" d="M255.28,105.7v21.18l-12.5,3.8v-23a2.2,2.2,0,0,1,1.44-2.07l8.7-2.36C254.37,102.73,255.28,104.16,255.28,105.7Z"/><path class="cls-6" d="M280.21,99v20.34l-12.5,3.8V101a2.2,2.2,0,0,1,1.44-2.07l8.7-2.36C279.3,96.05,280.21,97.48,280.21,99Z"/><path class="cls-6" d="M226.86,112.87v22.62l-12.5,3.8V114.86a2.2,2.2,0,0,1,1.44-2.07l8.69-2.36C225.94,109.9,226.86,111.33,226.86,112.87Z"/><path class="cls-6" d="M241.44,66V85.16a.39.39,0,0,1-.3.38l-11.73,2.63a.39.39,0,0,1-.47-.38V67.72a1.19,1.19,0,0,1,1-1.17l10.12-1.76A1.19,1.19,0,0,1,241.44,66Z"/><path class="cls-6" d="M216.45,70.22V91.16L204,94V71.83a1.21,1.21,0,0,1,1-1.19L215.06,69A1.19,1.19,0,0,1,216.45,70.22Z"/><polygon class="cls-5" points="97.48 144.09 49.66 201.78 92.2 222.11 140.6 159.03 97.48 144.09"/><path class="cls-9" d="M310,227.71l-.18,14.39-.18.24L195.7,238.9l114.3-50-.13,34.78c0,.12,0,.23,0,.35A19.24,19.24,0,0,0,310,227.71Z"/><path class="cls-6" d="M175.1,115.54V139l-15.27-4.5V112.92a2.42,2.42,0,0,1,3-2.35l10.43,2.62A2.44,2.44,0,0,1,175.1,115.54Z"/><path class="cls-6" d="M144.13,107.42v22.42l-15.27-4.49V104.8a2.42,2.42,0,0,1,3-2.35l10.44,2.62A2.42,2.42,0,0,1,144.13,107.42Z"/><path class="cls-6" d="M115.32,100.14v21.22l-15.27-4.5V97.52a2.41,2.41,0,0,1,3-2.34l10.43,2.62A2.41,2.41,0,0,1,115.32,100.14Z"/><path class="cls-3" d="M182.11,233.07l.41-26.26A11,11,0,0,0,163.65,199a11,11,0,0,0-3.25,7.81v16.78"/><path class="cls-3" d="M171.68,72.28l-.18,18.55-13.93-3.12V72.28a14.67,14.67,0,0,1,2.07-7.81c1.28-2,3-3.25,5-3.25C168.5,61.22,171.68,66.19,171.68,72.28Z"/><path class="cls-3" d="M66,184l.41-26.26A11,11,0,0,0,47.57,150a11,11,0,0,0-3.25,7.81v16.78"/><path class="cls-3" d="M230.22,183.54,237,181a2.8,2.8,0,0,1,3.77,2.62v35.93L228.39,225V186.16A2.8,2.8,0,0,1,230.22,183.54Z"/><path class="cls-3" d="M261.61,171.9l8.09-3a2.2,2.2,0,0,1,3,2.07v34.63l-12.5,5.47V174A2.22,2.22,0,0,1,261.61,171.9Z"/><path class="cls-3" d="M301.88,161.2v31.28L289.38,198V164.2a2.21,2.21,0,0,1,1.44-2.07l8.09-3A2.21,2.21,0,0,1,301.88,161.2Z"/><path class="cls-3" d="M255.28,105.7v21.18l-12.5,3.8v-23a2.2,2.2,0,0,1,1.44-2.07l8.7-2.36C254.37,102.73,255.28,104.16,255.28,105.7Z"/><path class="cls-3" d="M280.21,99v20.34l-12.5,3.8V101a2.2,2.2,0,0,1,1.44-2.07l8.7-2.36C279.3,96.05,280.21,97.48,280.21,99Z"/><path class="cls-3" d="M226.86,112.87v22.62l-12.5,3.8V114.86a2.2,2.2,0,0,1,1.44-2.07l8.69-2.36C225.94,109.9,226.86,111.33,226.86,112.87Z"/><path class="cls-3" d="M241.44,66V85.16a.39.39,0,0,1-.3.38l-11.73,2.63a.39.39,0,0,1-.47-.38V67.72a1.19,1.19,0,0,1,1-1.17l10.12-1.76A1.19,1.19,0,0,1,241.44,66Z"/><path class="cls-3" d="M216.45,70.22V91.16L204,94V71.83a1.21,1.21,0,0,1,1-1.19L215.06,69A1.19,1.19,0,0,1,216.45,70.22Z"/><path class="cls-3" d="M175.1,115.54V139l-15.27-4.5V112.92a2.42,2.42,0,0,1,3-2.35l10.43,2.62A2.44,2.44,0,0,1,175.1,115.54Z"/><path class="cls-3" d="M144.13,107.42v22.42l-15.27-4.49V104.8a2.42,2.42,0,0,1,3-2.35l10.44,2.62A2.42,2.42,0,0,1,144.13,107.42Z"/><path class="cls-3" d="M115.32,100.14v21.22l-15.27-4.5V97.52a2.41,2.41,0,0,1,3-2.34l10.43,2.62A2.41,2.41,0,0,1,115.32,100.14Z"/><g class="cls-10"><path d="M182.11,233.07l.41-26.26A11,11,0,0,0,163.65,199a11,11,0,0,0-3.25,7.81v16.78"/><path d="M171.68,72.28l-.18,18.55-13.93-3.12V72.28a14.67,14.67,0,0,1,2.07-7.81c1.28-2,3-3.25,5-3.25C168.5,61.22,171.68,66.19,171.68,72.28Z"/><path d="M66,184l.41-26.26A11,11,0,0,0,47.57,150a11,11,0,0,0-3.25,7.81v16.78"/><path d="M230.22,183.54,237,181a2.8,2.8,0,0,1,3.77,2.62v35.93L228.39,225V186.16A2.8,2.8,0,0,1,230.22,183.54Z"/><path d="M261.61,171.9l8.09-3a2.2,2.2,0,0,1,3,2.07v34.63l-12.5,5.47V174A2.22,2.22,0,0,1,261.61,171.9Z"/><path d="M301.88,161.2v31.28L289.38,198V164.2a2.21,2.21,0,0,1,1.44-2.07l8.09-3A2.21,2.21,0,0,1,301.88,161.2Z"/><path d="M255.28,105.7v21.18l-12.5,3.8v-23a2.2,2.2,0,0,1,1.44-2.07l8.7-2.36C254.37,102.73,255.28,104.16,255.28,105.7Z"/><path d="M280.21,99v20.34l-12.5,3.8V101a2.2,2.2,0,0,1,1.44-2.07l8.7-2.36C279.3,96.05,280.21,97.48,280.21,99Z"/><path d="M226.86,112.87v22.62l-12.5,3.8V114.86a2.2,2.2,0,0,1,1.44-2.07l8.69-2.36C225.94,109.9,226.86,111.33,226.86,112.87Z"/><path d="M241.44,66V85.16a.39.39,0,0,1-.3.38l-11.73,2.63a.39.39,0,0,1-.47-.38V67.72a1.19,1.19,0,0,1,1-1.17l10.12-1.76A1.19,1.19,0,0,1,241.44,66Z"/><path d="M216.45,70.22V91.16L204,94V71.83a1.21,1.21,0,0,1,1-1.19L215.06,69A1.19,1.19,0,0,1,216.45,70.22Z"/><path d="M175.1,115.54V139l-15.27-4.5V112.92a2.42,2.42,0,0,1,3-2.35l10.43,2.62A2.44,2.44,0,0,1,175.1,115.54Z"/><path d="M144.13,107.42v22.42l-15.27-4.49V104.8a2.42,2.42,0,0,1,3-2.35l10.44,2.62A2.42,2.42,0,0,1,144.13,107.42Z"/><path d="M115.32,100.14v21.22l-15.27-4.5V97.52a2.41,2.41,0,0,1,3-2.34l10.43,2.62A2.41,2.41,0,0,1,115.32,100.14Z"/></g><polygon points="140.6 159.03 133.74 212.51 92.2 222.11 140.6 159.03"/></g></svg>