<?xml version="1.0" encoding="UTF-8"?>
<svg width="111px" height="103px" viewBox="0 0 111 103" version="1.1" xmlns="http://www.w3.org/2000/svg" xmlns:xlink="http://www.w3.org/1999/xlink">
    <!-- Generator: Sketch 62 (91390) - https://sketch.com -->
    <title>Group 117 Copy</title>
    <desc>Created with Sketch.</desc>
    <defs>
        <polygon id="path-1" points="0.504575326 0.00604743162 25.03176 0.00604743162 25.03176 15.9133295 0.504575326 15.9133295"></polygon>
        <polygon id="path-3" points="0 0.35509244 20.4947405 0.35509244 20.4947405 13.967047 0 13.967047"></polygon>
    </defs>
    <g id="Page-1" stroke="none" stroke-width="1" fill="none" fill-rule="evenodd">
        <g id="Job-description_part-1" transform="translate(-42.000000, -1948.000000)">
            <g id="Group-117-Copy" transform="translate(42.000000, 1948.000000)">
                <polygon id="Fill-1" fill="#FFA300" points="85.320663 78 94 88.5768948 89.2618878 93 79 83.4476351"></polygon>
                <g id="Group-116">
                    <g id="Group-4" transform="translate(85.767929, 85.955120)">
                        <mask id="mask-2" fill="white">
                            <use xlink:href="#path-1"></use>
                        </mask>
                        <g id="Clip-3"></g>
                        <path d="M0.504575326,8.18148629 L6.59929635,3.00101751 C6.59929635,3.00101751 8.86928755,5.46849564 9.88134911,4.81328086 C11.5067813,3.76174606 12.5635462,1.37816425 16.6887237,0.237071428 C20.8133813,-0.902991995 25.0321239,2.54705095 25.0321239,2.54705095 L8.15767364,15.9133295 L0.504575326,8.18148629 Z" id="Fill-2" fill="#006880" mask="url(#mask-2)"></path>
                    </g>
                    <path d="M58.5943621,74.6895437 C56.4959067,80.6472115 55.2364177,87.0979632 52.7714994,92.8801178 C51.4511931,95.9765609 49.4421443,98.8753587 46.6034858,100.719534 C42.7766767,103.205026 37.7595128,103.498921 33.3983435,102.124153 C31.8342484,101.630555 17.1866455,91.719981 19.0371535,90.4136691 C19.0449506,90.4080073 30.0310426,82.6519732 30.0310426,82.6519732 L36.2219277,89.4614716 L41.1600812,74.1696954 L58.5943621,74.6895437 Z" id="Fill-5" fill="#000000"></path>
                    <path d="M56.5446125,17.5079257 C56.2805513,17.5079257 56.0227277,17.5300578 55.7680229,17.5614546 C55.5133182,17.5300578 55.2554946,17.5079257 54.9914333,17.5079257 C37.0638569,17.5079257 22.4796703,31.94993 22.4796703,49.7009491 C22.4796703,63.0095811 30.5558904,74.7663887 43.0551366,79.6534777 C43.7943002,79.9422251 44.5563353,80.0791357 45.3048554,80.0791357 C47.7484616,80.0791357 50.0579581,78.6230456 51.010242,76.2363756 C52.253617,73.1172856 50.7082349,69.5905522 47.5587326,68.3588719 C39.7730838,65.3149283 34.7429247,57.9907285 34.7429247,49.7009491 C34.7429247,38.6451648 43.8260083,29.6512739 54.9914333,29.6512739 C55.2554946,29.6512739 55.5133182,29.6291417 55.7680229,29.5967156 C56.0227277,29.6291417 56.2805513,29.6512739 56.5446125,29.6512739 C67.7095177,29.6512739 76.7931211,38.6451648 76.7931211,49.7009491 C76.7931211,57.9907285 71.7619224,65.3149283 63.9767934,68.3588719 C60.8267713,69.5900375 59.281909,73.1172856 60.5252841,76.2363756 C61.4770482,78.6230456 63.7865446,80.0791357 66.2306707,80.0791357 C66.9791908,80.0791357 67.7417456,79.9422251 68.4809092,79.6534777 C80.9801555,74.7663887 89.0568954,63.0095811 89.0568954,49.7009491 C89.0568954,31.94993 74.4716691,17.5079257 56.5446125,17.5079257" id="Fill-7" fill="#01AC10"></path>
                    <path d="M27.8151632,43.9436545 L28.4082614,48.1719259 C28.4082614,48.1719259 29.6303245,49.3171363 30.4599343,50.7444031 C31.289544,52.1706404 34.2186488,54.3385624 33.6770113,55.7601674 C33.134854,57.1817725 31.6809577,56.1209731 30.3741663,54.4981198 L31.2671924,61.1964428 C31.2671924,61.1964428 31.7537305,62.9284127 30.7302332,63.1780429 C29.7072557,63.427673 29.1926481,62.2361394 29.1926481,62.2361394 L29.3491096,63.9156098 C29.3491096,63.9156098 29.3574265,65.0711143 28.2419236,65.1617017 C27.1264207,65.2517745 26.9392907,63.7164204 26.9392907,63.7164204 C26.9392907,63.7164204 26.764636,64.5425161 25.6943562,64.0890642 C24.6245962,63.6350976 24.6204378,61.8058491 24.6204378,61.8058491 C24.6204378,61.8058491 24.2290242,62.7575319 23.4165679,62.3766529 C22.6051514,61.9962886 22.5562896,61.3189417 22.0432415,58.0130151 C21.5307131,54.7070885 20.6693952,51.8463786 22.4793584,48.7936851 L21.7687841,44.673501 L27.8151632,43.9436545 Z" id="Fill-9" fill="#FCA6AE"></path>
                    <path d="M29.7339737,61.1308698 C29.5276109,60.1395551 29.3487977,59.1441227 29.1980541,58.142514 C29.0847365,57.3884765 27.9266095,57.7091355 28.0394074,58.4590553 C28.1896312,59.4601493 28.3684443,60.4555817 28.575327,61.4468964 C28.7317885,62.1963016 29.8904352,61.8792455 29.7339737,61.1308698" id="Fill-11" fill="#000000"></path>
                    <path d="M27.4420987,62.7593848 C27.2024683,61.332118 27.0013035,59.8945573 26.8406836,58.4564818 C26.7564751,57.7034737 25.5536448,57.6952385 25.638893,58.4564818 C25.8114684,60.000071 26.0261482,61.5436603 26.2834519,63.0754114 C26.4097647,63.8289341 27.5673719,63.5098193 27.4420987,62.7593848" id="Fill-13" fill="#000000"></path>
                    <path d="M25.1059882,60.8614237 C24.9464079,59.9154027 24.8133377,58.9662934 24.7072973,58.0130666 C24.6241284,57.2605733 23.421818,57.2518233 23.5060265,58.0130666 C23.6235026,59.0718072 23.7700878,60.1269449 23.9473415,61.1774503 C24.0746939,61.930973 25.232301,61.6113435 25.1059882,60.8614237" id="Fill-15" fill="#000000"></path>
                    <path d="M76.7931211,49.7008462 C76.7931211,51.555315 76.5430946,53.3624313 76.0622744,55.081019 C74.8308548,54.2822026 74.1140429,53.7546337 74.1140429,53.7546337 L70.160921,60.0365634 C67.9933316,58.6890753 64.01266,58.660252 60.7498401,58.4564303 C56.3803539,58.1826092 53.2287724,58.9006175 46.4026849,59.4528921 L35.6531044,55.6935136 C35.0589666,53.7922069 34.7434445,51.7792101 34.7434445,49.7008462 C34.7434445,45.8385275 35.8511503,42.23253 37.7713123,39.1690278 L38.3940395,38.2353596 L38.3888414,38.2302126 L31.1682214,32.8968775 L30.0262084,45.1050781 L22.729177,45.6753671 L19.6586851,45.9136738 C19.6586851,45.9136738 12.2582123,20.705662 19.035958,14.8818166 C25.0968916,9.67406865 51.0066033,20.4081647 51.0066033,20.4081647 C51.0066033,20.4081647 66.1755713,31.2251276 68.5952665,33.597386 C73.5666875,37.2538241 76.7931211,43.1106105 76.7931211,49.7008462" id="Fill-17" fill="#FFC41C"></path>
                    <path d="M67.200576,32.400551 C65.777868,34.0573745 61.1193699,38.7797592 55.8443824,36.782718 C49.4954764,34.3728865 48.2427448,22.4261541 48.2427448,22.4261541 L51.007591,20.4080103 C51.007591,20.4080103 62.7203713,28.7590392 67.200576,32.400551" id="Fill-19" fill="#FFC41C"></path>
                    <path d="M39.2524465,56.9539142 L35.6486341,55.6934107 C35.0591745,53.7874717 34.7431327,51.7744748 34.7431327,49.7007432 C34.7431327,45.4508544 36.08735,41.508757 38.3703364,38.2630505 L38.3890494,38.2440065 C38.2008797,38.6042975 33.5309459,47.7860543 39.2524465,56.9539142" id="Fill-21" fill="#FFC41C"></path>
                    <path d="M51.8668297,17.3259788 C51.8668297,17.3259788 58.083705,9.87001544 71.3922886,8.26569143 C71.3922886,8.26569143 68.5780609,-1.61760331 58.5369755,0.723258294 C48.4958902,3.06411989 45.6062906,14.6546789 50.7289751,18.4392777 L51.8668297,17.3259788 Z" id="Fill-23" fill="#FFA300"></path>
                    <path d="M71.3925485,8.26491938 C58.0818857,9.87130219 51.8650104,17.3257214 51.8650104,17.3257214 L50.7281954,18.4415939 C49.4920976,17.5264549 48.7191467,16.1578641 48.4072633,14.5700105 C49.8699963,12.6594392 52.8604381,9.75034738 58.6193647,7.22367861 C63.2700657,5.18700549 66.8780366,4.52355549 69.3642669,4.38355673 C70.8451932,6.33581883 71.3925485,8.26491938 71.3925485,8.26491938" id="Fill-25" fill="#FF7A03"></path>
                    <path d="M69.6519274,25.8305945 C67.3923323,31.9720107 62.199474,31.738851 62.199474,31.738851 C62.199474,31.738851 58.9169015,32.7147247 55.2278409,29.0155663 C51.5393001,25.3164079 52.1713838,22.579741 52.1713838,22.579741 C50.8458794,21.9209233 50.0963197,19.950132 50.3884505,18.1661772 C50.4544658,17.7595631 50.5724617,17.3580961 50.7564729,16.9890553 C51.5912807,15.2750999 52.8601263,15.8217127 53.1954009,16.0034022 C53.2515399,16.0363431 53.2801292,16.0553871 53.2801292,16.0553871 C53.2801292,16.0553871 54.2090219,18.5722765 55.3411585,18.3247052 C56.3131951,18.1100747 55.6057396,15.083631 55.3884608,14.247756 C56.7607477,13.262103 58.5488791,12.1647598 60.7611718,11.1698422 C63.6616873,14.906059 68.0057029,12.4164487 68.0057029,12.4164487 C68.363849,14.4392249 71.5902826,16.3775901 71.5902826,16.3775901 C71.5902826,16.3775901 71.9115224,19.693296 69.6519274,25.8305945" id="Fill-27" fill="#FCA6AE"></path>
                    <path d="M74.8306989,12.029136 C74.8306989,12.029136 76.3402144,15.6438834 71.5907504,16.3773328 C71.5907504,16.3773328 68.3643168,14.4394823 68.005651,12.4167061 C68.005651,12.4167061 63.6616353,14.9063164 60.7611199,11.1695848 L60.7652783,11.1649525 C62.8876447,10.2122403 65.4019445,9.34805683 68.3222126,8.75975323 L68.326371,8.75512091 C68.3970646,8.65218065 69.2791748,7.36800086 70.8027251,6.77506494 C71.5808741,6.47139116 72.5196431,6.34528934 73.6044774,6.6438161 C76.9010847,7.55020512 77.3117312,10.8473818 74.8306989,12.029136" id="Fill-29" fill="#000000"></path>
                    <path d="M61.0370327,21.0997688 C60.8296303,21.7436602 61.2730245,22.6186524 61.9253805,22.8240182 C62.7388763,23.0803395 63.2711573,22.3355667 63.3959107,21.6407199 C63.4962331,21.0791808 62.6286775,20.8377859 62.5267956,21.4034426 C62.4992459,21.557853 62.4410277,22.0308635 62.1899616,21.9737317 C61.9825591,21.9263791 61.8515681,21.5038094 61.9056279,21.3370461 C62.0823618,20.7888892 61.212727,20.5536707 61.0370327,21.0997688" id="Fill-31" fill="#000000"></path>
                    <path d="M62.5832465,21.4727214 C62.536464,22.1685976 62.9756998,22.8629297 63.7179822,22.9205762 C64.0283062,22.9447672 64.3641006,22.8341064 64.5761813,22.6019761 C64.8334851,22.3209492 64.8833864,21.952423 64.9031391,21.5885292 C64.9338076,21.0141225 64.0329844,21.0161813 64.0017961,21.5885292 C63.9929594,21.7573512 64.0106328,22.0641132 63.7632053,22.0322017 C63.5017431,21.9982315 63.4705547,21.6755137 63.4840697,21.4727214 C63.5230551,20.8998588 62.6211923,20.9024323 62.5832465,21.4727214" id="Fill-33" fill="#000000"></path>
                    <path d="M64.8690918,21.8371299 C64.9928055,20.5405973 65.0323108,19.2692851 64.9891669,17.9681201 C64.9704539,17.3952576 64.0696307,17.392684 64.0883437,17.9681201 C64.1314876,19.2692851 64.0919824,20.5405973 63.9682686,21.8371299 C63.913689,22.4079337 64.815032,22.4048455 64.8690918,21.8371299" id="Fill-35" fill="#000000"></path>
                    <path d="M58.0395215,22.252288 C58.0395215,22.252288 58.0982596,25.064616 60.6052821,26.7446011 C63.1123047,28.4240715 65.2601416,26.188209 65.4010089,24.247785 C65.4010089,24.247785 60.3765677,24.0748454 58.6170256,21.8369241 L58.0395215,22.252288 Z" id="Fill-37" fill="#000000"></path>
                    <path d="M64.3787072,24.1628593 C64.1520719,25.4753477 63.020455,25.7460806 60.7322707,24.5880026 C59.3838948,23.9060234 58.5958695,22.9533112 58.1431188,22.178171 L58.6192608,21.8369241 C59.8787498,23.4391893 62.8125328,23.9806551 64.3787072,24.1628593" id="Fill-39" fill="#FFFFFF"></path>
                    <path d="M61.8218352,27.278192 C61.4304216,27.1942957 61.020295,27.0259883 60.6049703,26.7459908 C59.3454812,25.9003366 58.7045609,24.7654202 58.3786427,23.8502812 C58.9639439,23.9995446 60.0108324,24.3500562 60.817051,25.2090927 C61.4683674,25.9096012 61.7230722,26.7084176 61.8218352,27.278192" id="Fill-41" fill="#FF8C8B"></path>
                    <path d="M56.166402,22.3739634 C56.6929651,23.0266047 57.6343331,22.9591788 58.3282736,22.6076378 C58.9925852,22.2715379 59.3736027,21.5607353 59.3548897,20.8344918 C59.3398153,20.2611145 58.4389922,20.2590557 58.4535467,20.8344918 C58.463423,21.2061061 58.3230755,21.5525001 58.0013158,21.7640424 C57.6416103,22.000805 57.0952946,22.1047746 56.8036837,21.7424249 C56.4413791,21.29412 55.8077361,21.9292615 56.166402,22.3739634" id="Fill-43" fill="#000000"></path>
                    <path d="M58.3258305,31.1052537 C61.7066463,33.5315557 66.1748955,32.1490679 68.5982294,29.0222574 C71.3443625,25.4785388 71.9712481,20.6949048 72.2680571,16.3775901 C72.327315,15.5180389 70.9753005,15.5216418 70.9165625,16.3775901 C70.6909668,19.658811 70.2735629,23.0306194 68.8217458,26.0333869 C67.0788375,29.6373255 62.9125954,32.7517832 59.0078155,29.9497492 C58.3024392,29.4432831 57.6272117,30.6039346 58.3258305,31.1052537" id="Fill-45" fill="#000000"></path>
                    <path d="M58.1913048,14.4775187 C58.8223488,13.4928951 60.7284761,13.6462761 61.3574409,14.5789149 C61.8382611,15.2917762 63.0093832,14.6221498 62.5244045,13.9036267 C61.3184555,12.1140103 58.225612,11.9261443 57.0243411,13.8022306 C56.5570359,14.5310476 57.7260787,15.2037623 58.1913048,14.4775187" id="Fill-47" fill="#000000"></path>
                    <path d="M66.2371163,15.8773519 C66.9383341,15.0805942 69.0305517,14.9529483 69.3450341,16.1928638 C69.5571148,17.0277093 70.8607873,16.6741095 70.6481868,15.8372052 C70.0878364,13.6275924 66.6623173,13.3604624 65.2811937,14.9308162 C64.7120065,15.5777957 65.6642904,16.5284491 66.2371163,15.8773519" id="Fill-49" fill="#000000"></path>
                    <path d="M55.3410026,18.3247052 C54.2088659,18.5722765 53.2799733,16.0553871 53.2799733,16.0553871 C53.2799733,16.0553871 53.251384,16.0363431 53.1952449,16.0034022 C53.7472785,15.504142 54.4781252,14.8967944 55.3883049,14.247756 C55.6055837,15.083631 56.3130391,18.1100747 55.3410026,18.3247052" id="Fill-51" fill="#000000"></path>
                    <path d="M91.9665074,35.3500469 L91.0204611,31.1855985 C91.0204611,31.1855985 89.7058727,30.1448725 88.7598264,28.791208 C87.8132604,27.4375435 84.7115802,25.518737 85.1326227,24.0575 C85.5526257,22.5962629 87.0907306,23.533534 88.5300724,25.043153 L87.0777354,18.4415939 C87.0777354,18.4415939 86.4466914,16.7554323 87.445238,16.4224206 C88.4443044,16.0888941 89.0566355,17.2346193 89.0566355,17.2346193 L88.7598264,15.5736781 C88.7598264,15.5736781 88.6548257,14.4233207 89.7583731,14.2411164 C90.8624402,14.0589121 91.1779622,15.5736781 91.1779622,15.5736781 C91.1779622,15.5736781 91.2834828,14.7357444 92.3875499,15.1001529 C93.4916171,15.4645614 93.6485984,17.2866041 93.6485984,17.2866041 C93.6485984,17.2866041 93.8066193,16.4018325 94.6476648,16.7137415 C95.4887103,17.0261652 95.5417305,17.9660098 96.3302757,21.2184075 C97.1188208,24.4702904 97.9598663,28.5832687 96.2777753,30.4053113 L97.4359022,34.2259392 L91.9665074,35.3500469 Z" id="Fill-53" fill="#FCA6AE"></path>
                    <path d="M52.3566945,18.227684 C52.60932,18.450035 52.7881332,18.7192238 52.8089254,19.0620148 C52.8271186,19.371865 52.7132812,19.8016406 52.3395409,19.8134788 C51.5681494,19.8381844 51.5650305,21.0276592 52.3395409,21.0034682 C54.270099,20.9406747 54.4031693,18.4371674 53.2060569,17.386662 C52.6290726,16.8801959 51.7765914,17.7186444 52.3566945,18.227684" id="Fill-55" fill="#000000"></path>
                    <path d="M90.9680127,26.5559116 C91.7279686,26.4524567 92.3647305,27.0505396 92.834115,27.5539175 C93.3648365,28.1242066 94.1746937,27.2914198 93.6839972,26.7134102 C93.668403,26.6953957 93.6538484,26.6778958 93.6392939,26.660396 C93.1408003,26.0736365 92.2945567,26.9192908 92.7894117,27.5019327 C92.8039662,27.5194325 92.8195604,27.5369323 92.834115,27.5539175 C93.117409,27.2744347 93.4007031,26.9939225 93.6839972,26.7134102 C92.8673825,25.8373886 91.8865093,25.2398204 90.6483323,25.4086424 C90.3244934,25.4529067 90.1545169,25.8595207 90.2288491,26.1405477 C90.3203349,26.4843682 90.6483323,26.5996612 90.9680127,26.5559116" id="Fill-57" fill="#000000"></path>
                    <path d="M88.5948401,18.3337639 C88.8848917,19.3044906 89.1463539,20.2819084 89.3802664,21.2670468 C89.5570004,22.0118196 90.7156471,21.6968224 90.5383934,20.9510201 C90.3044809,19.9653671 90.0430186,18.9879493 89.7534869,18.0172226 C89.5351685,17.2848026 88.3749624,17.5961969 88.5948401,18.3337639" id="Fill-59" fill="#000000"></path>
                    <path d="M90.742625,16.5217579 C91.114286,17.9757892 91.4464418,19.444232 91.7380528,20.9162778 C91.8861974,21.6667123 93.0448442,21.3491416 92.8966996,20.6002512 C92.6050886,19.1276907 92.272413,17.6597626 91.9012718,16.2057313 C91.7110229,15.463532 90.5523762,15.7780145 90.742625,16.5217579" id="Fill-61" fill="#000000"></path>
                    <path d="M93.2299469,18.2206326 C93.4810131,19.2016533 93.7050493,20.1883357 93.9004962,21.182224 C94.048121,21.9326585 95.2067678,21.6150878 95.059143,20.8656827 C94.863696,19.8723091 94.6401796,18.8856267 94.3885937,17.904606 C94.197825,17.1629214 93.0391783,17.4774039 93.2299469,18.2206326" id="Fill-63" fill="#000000"></path>
                    <path d="M99.9148553,62.2783964 C91.7783377,64.4689652 80.5333825,57.9770375 76.0620145,55.0813279 C76.5428347,53.3627402 76.793381,51.5551091 76.793381,49.7006403 C76.793381,43.1109193 71.0734398,35.1829749 66.1020188,31.5265367 L88.8414359,45.4250164 L89.0566355,34.433055 L99.8296072,32.8966716 C99.8296072,32.8966716 110.281859,59.4856271 99.9148553,62.2783964" id="Fill-65" fill="#FFC41C"></path>
                    <path d="M41.3514216,78.9287782 C35.7193276,79.2834074 33.7809724,77.9101843 31.3945448,76.168435 C27.5219928,73.3380925 27.3379816,66.9207964 27.3327836,66.6963867 C30.6158759,71.9463401 35.4313553,76.2338021 41.3514216,78.9287782" id="Fill-67" fill="#000000"></path>
                    <path d="M87.3400293,78.7483239 L75.3184845,89.6919034 L62.7189158,74.6286546 C59.7378305,75.3991625 52.5442404,77.0884122 50.2711303,77.5696579 C50.5679394,77.1681909 50.8179659,76.719886 51.0108138,76.2334933 C52.2515898,73.1185209 50.7093265,69.5923022 47.5587846,68.3590778 C41.7192881,66.0753481 37.4314114,61.386419 35.6489979,55.6933077 L46.4027368,59.4532009 C60.2020169,58.4562244 67.9725913,56.8513857 72.538564,62.0354574 C74.5762021,64.352128 87.3400293,78.7483239 87.3400293,78.7483239" id="Fill-69" fill="#000000"></path>
                    <path d="M68.2544299,49.7491251 C68.2544299,42.9622735 62.6982275,37.4611458 55.8440705,37.4611458 C48.9904332,37.4611458 43.4342308,42.9622735 43.4342308,49.7491251 C43.4342308,56.5359767 48.9904332,62.0371044 55.8440705,62.0371044 C62.6982275,62.0371044 68.2544299,56.5359767 68.2544299,49.7491251" id="Fill-71" fill="#01AC10"></path>
                    <path d="M88.2405406,46.614697 C88.1963571,48.6822522 88.1303418,50.7405428 87.9442514,52.8014069 C87.8751173,53.5636796 89.0769079,53.5590472 89.1455222,52.8014069 C89.3321324,50.7405428 89.3981478,48.6822522 89.4423312,46.614697 C89.458965,45.8488215 88.2571744,45.8488215 88.2405406,46.614697" id="Fill-73" fill="#000000"></path>
                    <path d="M31.7847629,23.3400063 C31.3787947,26.0638057 31.0118119,28.7922374 30.6848542,31.5263308 C30.5938882,32.2850006 31.7961986,32.2783094 31.886125,31.5263308 C32.2006074,28.8982659 32.5530356,26.2748332 32.9434096,23.6565476 C33.0551678,22.9076572 31.8975607,22.5844248 31.7847629,23.3400063" id="Fill-75" fill="#000000"></path>
                    <polygon id="Fill-77" fill="#FFA300" points="21.5739609 88.6206555 15.5520127 80.0791871 19.974519 76.9235534 26.9539492 84.8195863"></polygon>
                    <g id="Group-81" transform="translate(0.000000, 69.999379)">
                        <mask id="mask-4" fill="white">
                            <use xlink:href="#path-3"></use>
                        </mask>
                        <g id="Clip-80"></g>
                        <path d="M20.4947405,6.86657883 L15.5373542,10.8256614 C15.5373542,10.8256614 13.973259,9.28773384 12.5333974,10.0798592 C11.093016,10.8724992 9.96919626,12.8520405 6.46414689,13.8037232 C2.95909752,14.7543766 -0.000155941689,11.2446283 -0.000155941689,11.2446283 L15.1880448,0.35509244 L20.4947405,6.86657883 Z" id="Fill-79" fill="#006880" mask="url(#mask-4)"></path>
                    </g>
                    <path d="M74.9078381,11.6330733 C74.6983564,10.7534488 74.2611998,9.72507555 73.3993621,9.28912353 C72.7308921,8.95096477 71.8196728,9.11052217 71.4854378,9.83007462 C71.0571179,10.7549929 71.9470252,11.1410189 72.7184167,11.2429297 C73.7273595,11.3767521 74.6973168,11.0200641 75.493659,10.4188929 C75.9490087,10.0755871 75.5009363,9.30044696 75.0388291,9.64889975 C74.66197,9.93250018 74.2617197,10.1728657 73.8006521,10.2958793 C73.442506,10.3916138 72.6997037,10.4991863 72.3805431,10.2495562 C72.129477,10.2047772 72.1747,10.1286014 72.5162123,10.0225729 C72.6326488,10.0261758 72.7485655,10.0297787 72.8644821,10.0333816 C73.132182,10.1038957 73.35154,10.3540406 73.5007242,10.5691857 C73.7736222,10.9624175 73.929044,11.4102077 74.0392428,11.8703506 C74.1723131,12.4293163 75.0414281,12.1925537 74.9078381,11.6330733" id="Fill-82" fill="#000000"></path>
                    <path d="M50.1977858,13.240537 C50.1577607,14.0058979 50.550214,14.6585392 50.9743754,15.2664014 C51.3018529,15.735809 52.0831208,15.289563 51.7525244,14.8160378 C51.4198488,14.3389096 51.0674206,13.8458258 51.0986089,13.240537 C51.1287577,12.6671598 50.2279345,12.6687039 50.1977858,13.240537" id="Fill-84" fill="#FFFFFF"></path>
                    <path d="M54.3298247,10.3483274 C54.6702974,10.9958216 55.0107701,11.6433159 55.350723,12.2908102 C55.6184229,12.8003645 56.3965719,12.3500008 56.128872,11.8404465 C55.7889191,11.1929522 55.4479266,10.545458 55.1079737,9.89796372 C54.839754,9.38840942 54.0621248,9.83928777 54.3298247,10.3483274" id="Fill-86" fill="#FFFFFF"></path>
                    <path d="M60.7101269,7.48983066 C60.9783466,8.05600211 61.2871112,8.5979826 61.6384998,9.11731623 C61.9592199,9.59238555 62.7404877,9.14613951 62.4166488,8.66695258 C62.0652602,8.14761895 61.7564957,7.60563846 61.488276,7.03946701 C61.2424079,6.51961867 60.4652985,6.97204113 60.7101269,7.48983066" id="Fill-88" fill="#FFFFFF"></path>
                    <path d="M67.069637,5.7763385 C67.40907,6.3625833 67.7485031,6.9483134 68.0879362,7.5340435 C68.3764283,8.03227438 69.155617,7.58345483 68.8660852,7.08367985 C68.5266521,6.49794975 68.1872191,5.91221965 67.847786,5.32597484 C67.5592939,4.82825867 66.7801052,5.27707822 67.069637,5.7763385" id="Fill-90" fill="#FFFFFF"></path>
                    <path d="M19.0536314,38.3895126 C19.4325697,40.3798626 19.8525726,42.3244042 20.6738655,44.1881377 C20.9821103,44.8876168 22.0175631,44.2828427 21.7113976,43.5874812 C20.9363674,41.8297762 20.5688648,39.9480282 20.2122781,38.073486 C20.0693316,37.3220221 18.9117244,37.6401075 19.0536314,38.3895126" id="Fill-92" fill="#FFFFFF"></path>
                    <path d="M22.6932584,38.2060216 C22.614248,39.9616678 22.6688275,41.7090788 22.8585566,43.4564897 C22.9406859,44.2094978 24.1424765,44.2182477 24.0598274,43.4564897 C23.8706182,41.7090788 23.8155188,39.9616678 23.895049,38.2060216 C23.9293562,37.4406607 22.7275656,37.4422048 22.6932584,38.2060216" id="Fill-94" fill="#FFFFFF"></path>
                    <path d="M25.1897289,37.9185094 C25.1445058,39.7904781 25.2864128,41.6398 25.5956971,43.4865483 C25.7214901,44.240071 26.879617,43.9204415 26.7543439,43.1705217 C26.4627329,41.4287724 26.3483757,39.6823909 26.3915195,37.9185094 C26.4097127,37.1526339 25.2079221,37.1531486 25.1897289,37.9185094" id="Fill-96" fill="#FFFFFF"></path>
                    <path d="M28.355813,37.7556579 L28.355813,43.1275956 C28.355813,43.8929565 29.5576037,43.8945006 29.5576037,43.1275956 L29.5576037,37.7556579 C29.5576037,36.9902971 28.355813,36.988753 28.355813,37.7556579" id="Fill-98" fill="#FFFFFF"></path>
                    <path d="M91.1086202,41.248524 L91.1086202,35.806587 C91.1086202,35.0407114 89.9068295,35.039682 89.9068295,35.806587 L89.9068295,41.248524 C89.9068295,42.0138849 91.1086202,42.015429 91.1086202,41.248524" id="Fill-100" fill="#FFFFFF"></path>
                    <path d="M94.0035737,41.0328642 C93.9729051,39.2767033 93.7956514,37.5390716 93.481169,35.8101899 C93.3444601,35.0576966 92.1863332,35.3768114 92.3230421,36.1262165 C92.6177719,37.7516433 92.7737135,39.3827317 92.801783,41.0328642 C92.815298,41.7977103 94.0165688,41.8002838 94.0035737,41.0328642" id="Fill-102" fill="#FFFFFF"></path>
                    <path d="M96.99807,41.3012809 C96.7833902,39.5049733 96.5692303,37.7086657 96.3550704,35.9113287 C96.2656638,35.1603795 95.0628336,35.1516295 95.1532798,35.9113287 C95.3674397,37.7086657 95.5821194,39.5049733 95.7962793,41.3012809 C95.8856859,42.0522301 97.0885161,42.0614948 96.99807,41.3012809" id="Fill-104" fill="#FFFFFF"></path>
                    <path d="M97.8534101,35.116321 C98.0940801,36.932702 98.5198009,38.6811424 99.1778749,40.3950978 C99.4497332,41.1038415 100.612019,40.7965648 100.336522,40.0790712 C99.7205519,38.473203 99.2807964,36.8204971 99.0552007,35.116321 C98.9553981,34.36846 97.7530876,34.358166 97.8534101,35.116321" id="Fill-106" fill="#FFFFFF"></path>
                    <path d="M59.2065891,16.9213206 C59.4540166,16.5373534 59.9551093,16.4102222 60.3933054,16.4750745 C60.8341006,16.5404416 61.0207108,16.8719093 61.1875684,17.2497 C61.4194017,17.7741807 62.1959913,17.3207288 61.9657174,16.7993364 C61.6600717,16.1070631 61.1439047,15.6083175 60.3506813,15.5728031 C59.5782502,15.5378034 58.8515619,15.8126539 58.4289599,16.4709569 C58.1165567,16.956835 58.8957454,17.4046251 59.2065891,16.9213206" id="Fill-108" fill="#000000"></path>
                    <path d="M66.9137992,18.5795338 C67.5853881,17.8532903 68.7274011,18.027774 69.0481211,19.0000448 C69.2274541,19.5435694 70.0981285,19.3109244 69.9172362,18.7627675 C69.3979503,17.1888109 67.4289266,16.7024181 66.2765175,17.9479953 C65.8856237,18.3715945 66.521346,19.0041624 66.9137992,18.5795338" id="Fill-110" fill="#000000"></path>
                    <path d="M37.5016372,38.665444 C34.9353568,43.9133386 33.2563846,51.8057687 36.2125192,57.2543968 C36.5784624,57.9291703 37.6159944,57.3290285 37.2500513,56.6537404 C34.5226311,51.627682 36.1839299,44.0826754 38.5391692,39.2655857 C38.8749637,38.5794889 37.838991,37.9752295 37.5016372,38.665444" id="Fill-112" fill="#000000"></path>
                    <path d="M63.95387,41.2525387 C69.3494525,47.0820458 68.8280874,55.3244728 62.5815832,60.3057521 C61.9796482,60.7854538 62.8347285,61.6228728 63.4314654,61.1467741 C70.2081714,55.7424102 70.5881493,46.6610202 64.8032324,40.411002 C64.2797881,39.84586 63.4319852,40.6884261 63.95387,41.2525387" id="Fill-114" fill="#000000"></path>
                </g>
            </g>
        </g>
    </g>
</svg>