<svg xmlns="http://www.w3.org/2000/svg" xmlns:xlink="http://www.w3.org/1999/xlink" width="266" height="432" viewBox="0 0 266 432">
    <defs>
        <path id="vtgimwt35a" d="M0 0.031L254.689 0.031 254.689 243.948 0 243.948z"/>
        <path id="p074yirj3c" d="M0.013 0.612L140.357 0.612 140.357 42.517 0.013 42.517z"/>
        <path id="fnciyloj6e" d="M0.203 0.623L56.859 0.623 56.859 37.452 0.203 37.452z"/>
        <path id="3gu05utcdg" d="M0.688 0.255L8.719 0.255 8.719 8.3 0.688 8.3z"/>
    </defs>
    <g fill="none" fill-rule="evenodd">
        <g>
            <g>
                <g>
                    <g transform="translate(-223 -5630) translate(223 5631)">
                        <mask id="zofedwto9b" fill="#fff">
                            <use xlink:href="#vtgimwt35a"/>
                        </mask>
                        <path fill="#08A94B" d="M135.867.426c-1.01-.045-2.012-.014-2.98.06-.974-.143-1.948-.285-2.958-.33C61.416-2.908 3.174 50.43.128 119.023c-2.298 51.458 26.546 98.257 73.475 119.304 2.763 1.234 5.65 1.897 8.524 2.02 9.325.415 18.397-4.813 22.445-13.88 5.293-11.85.004-25.728-11.814-31.03-29.225-13.1-47.195-42.271-45.767-74.304 1.909-42.741 38.167-75.947 80.833-74.032 1.026.044 1.995.001 2.992-.076.961.159 1.949.285 2.945.347 42.664 1.899 75.837 38.222 73.926 80.949-1.412 32.031-21.91 59.485-52.183 69.92-12.258 4.225-18.764 17.586-14.563 29.848 3.242 9.391 11.814 15.434 21.138 15.832 2.876.138 5.804-.256 8.681-1.25 48.615-16.745 81.501-60.83 83.803-112.257C257.621 61.788 204.363 3.492 135.867.426" mask="url(#zofedwto9b)"/>
                    </g>
                    <path fill="#08A94B" d="M174.982 127.944c1.663-26.217-18.195-48.794-44.375-50.475-26.177-1.65-48.737 18.238-50.4 44.454-1.65 26.2 18.21 48.792 44.374 50.46 26.178 1.665 48.738-18.223 50.401-44.44" transform="translate(-223 -5630) translate(223 5631)"/>
                    <path stroke="#000" stroke-linecap="round" stroke-width="2" d="M92.094 54.763s-42.75 15.049-44.623 73.445c0 0-.51 37.924 30.938 58.904M192.459 81.481c9.14 11.725 17.667 30.527 14.294 58.386 0 0-4.964 35.29-38.208 50.456" transform="translate(-223 -5630) translate(223 5631)"/>
                    <path stroke="#000" stroke-linecap="round" stroke-width="2" d="M243.425 69.43C208.324.948 130.515.948 130.515.948S79.933-4.428 37.8 35.189c0 0-23.005 25.43-24.672 33.09M101.483 164.577s-38.326-26.153-12.374-67.493c0 0 25.94-39.498 72.407-5.532" transform="translate(-223 -5630) translate(223 5631)"/>
                    <path fill="#FFF" d="M106.36 195.742h-3.184c-.497 0-1.021.217-1.373.571-.339.337-.593.89-.57 1.376.023.503.188 1.027.57 1.378.38.35.847.57 1.373.57h3.184c.498 0 1.023-.217 1.375-.57.338-.339.593-.892.569-1.378-.02-.503-.187-1.025-.57-1.376-.379-.349-.846-.571-1.374-.571M93.897 195.742h-3.184c-.498 0-1.023.217-1.375.571-.338.337-.592.89-.57 1.376.024.503.188 1.027.57 1.378.38.35.847.57 1.375.57h3.184c.497 0 1.022-.217 1.373-.57.339-.339.593-.892.57-1.378-.021-.503-.187-1.025-.57-1.376-.38-.349-.846-.571-1.373-.571M96.52 189.243v3.172c0 .5.218 1.023.569 1.376.337.338.893.593 1.376.571.503-.022 1.025-.187 1.375-.571.35-.38.57-.848.57-1.376v-3.172c0-.498-.217-1.023-.57-1.376-.338-.337-.89-.593-1.375-.57-.503.023-1.023.188-1.376.57-.347.381-.57.85-.57 1.376M96.52 202.247v3.172c0 .5.218 1.023.569 1.376.337.338.893.593 1.376.571.503-.022 1.025-.188 1.375-.571.35-.38.57-.847.57-1.376v-3.172c0-.497-.217-1.023-.57-1.377-.338-.337-.89-.592-1.375-.57-.503.023-1.023.189-1.376.57-.347.383-.57.85-.57 1.377" transform="translate(-223 -5630) translate(223 5631)"/>
                </g>
                <g>
                    <g transform="translate(-223 -5630) translate(223 5631) translate(31 46) translate(10.613 342.416)">
                        <mask id="mrcl1vra2d" fill="#fff">
                            <use xlink:href="#p074yirj3c"/>
                        </mask>
                        <path fill="#000" d="M140.357 21.565c0 11.571-31.417 20.952-70.171 20.952-38.755 0-70.173-9.38-70.173-20.952C.013 9.993 31.431.612 70.186.612c38.754 0 70.17 9.381 70.17 20.953" mask="url(#mrcl1vra2d)"/>
                    </g>
                    <g transform="translate(-223 -5630) translate(223 5631) translate(31 46) translate(0 249.79)">
                        <mask id="0nmo3j8ymf" fill="#fff">
                            <use xlink:href="#fnciyloj6e"/>
                        </mask>
                        <path fill="#FD9EA8" d="M56.859 12.317L22.408 7.339s-3.097-3.892-6.079-5.053C14.513 1.576 12.357.976 11.2.672c-.529-.139-1.088.02-1.459.424-.954 1.037-2.215 2.91-2.687 5.502-.677 3.722-.497 6.802-.497 6.802s-3.99 6.675-5.505 11.945c-1.514 5.27-1.003 9.78 1.53 10.947 3.412 1.57 17.225-12.607 17.225-12.607s6.79 1.327 16.729 6.635c3.252 1.737 15.569 7.132 15.569 7.132l4.754-25.135z" mask="url(#0nmo3j8ymf)"/>
                    </g>
                    <path fill="#E66504" d="M124.594 108.23s6.574 2.546 13.543 9.333c7.687 7.482 12.39 15.536 11.755 15.47l14.35 25.336.107 15.97-27.504 15.622-10.624-59.944-1.627-21.788z" transform="translate(-223 -5630) translate(223 5631) translate(31 46)"/>
                    <path fill="#FD9EA8" d="M69.796 316.612l-.998 35.099s-1.698 5.676-1.914 8.49c-.146 1.895.019 4.132.14 5.395.063.64.48 1.188 1.082 1.413 1.01.378 2.761.895 5.017 1.028 3.77.221 5.766-.445 5.766-.445s7.57 3.799 12.975 4.666c5.406.867 8.984.999 9.831-1.66 1.144-3.583-15.708-19.998-15.708-19.998s2.43-10.14 3.327-13.329c.998-3.554 5.247-17.997 5.247-17.997l-24.765-2.662z" transform="translate(-223 -5630) translate(223 5631) translate(31 46)"/>
                    <path fill="#000" d="M94.56 319.274L93.276 323.924 69.546 325.635 69.735 314.608z" transform="translate(-223 -5630) translate(223 5631) translate(31 46)"/>
                    <path fill="#004656" d="M30.542 224.129s3.57 7.661 7.65 17.874c4.08 10.215 6.967 16.325 6.967 16.325l-1.966.03c-.289.002-1.739-.118-1.739.622 0 1.81-.092 7.559.777 14.482.771 6.145 2.065 12.517 2.627 14.613.123.453.405.84.8 1.094 2.64 1.701 13.26 8.337 20.111 9.48v20.002c0 .633.38 1.2.964 1.441 2.131.879 7.677 2.896 15.434 3.74 7.564.824 12.654-.458 14.714-1.145.641-.214 1.141-.716 1.364-1.356 1.852-5.352 10.93-31.63 15.625-46.331 5.248-16.424 12.9-36.79 14.649-49.49 1.75-12.702.219-30.22.219-30.22l-94.892.656-3.304 28.183z" transform="translate(-223 -5630) translate(223 5631) translate(31 46)"/>
                    <path fill="#000" d="M125.69 203.211L96.862 215.393 98.011 203.872z" transform="translate(-223 -5630) translate(223 5631) translate(31 46)"/>
                    <path fill="#E66504" d="M35.09 106.105S48.752 94.87 89.068 98.55c41.02 3.743 36.872 12.347 36.872 12.347s5.975 13.57 10.698 32.707c4.126 16.716 3.46 56.573 3.17 66.707-.29 10.135-1.66 21.618-7.965 22.158-6.306.54-6.667-3.79-6.667-8.482v-20.57s-11.711 4.33-24.685 4.15c0 0-2.929 17.484-5.043 22.737-2.663 6.61-7.296 9.28-9.558 10.23-.739.309-1.526.458-2.327.44-4.105-.099-19.865-.925-31.996-3.73-10.934-2.527-22.428-8.476-26.994-10.997-1.362-.75-2.26-2.126-2.408-3.677-.294-3.118-.394-8.997 1.501-16.904 1.46-6.09 6.224-15.912 7.1-20.566 3.243-17.233.38-75.969 4.324-78.996" transform="translate(-223 -5630) translate(223 5631) translate(31 46)"/>
                    <path fill="#F8BB21" d="M116.249 112.84c-.095 3.311-.347 6.618-.758 9.905-.065.524.494.976.973.976.582 0 .91-.451.975-.976.411-3.287.664-6.594.758-9.905.036-1.256-1.912-1.255-1.948 0" transform="translate(-223 -5630) translate(223 5631) translate(31 46)"/>
                    <path fill="#F8BB21" d="M117.066 123.905c2.122.202 4.42 1.432 5.614 3.226 1.44 2.16 1.333 5.472 1.308 7.967-.053 5.234-.367 10.48-.578 15.71-.05 1.257 1.9 1.255 1.95 0 .124-3.063.233-6.128.348-9.191.117-3.077.366-6.184.162-9.261-.173-2.623-.542-5.383-2.422-7.358-1.66-1.74-4.004-2.818-6.382-3.045-1.248-.12-1.24 1.835 0 1.952" transform="translate(-223 -5630) translate(223 5631) translate(31 46)"/>
                    <path fill="#AADEEA" d="M102.967 107.987L70.05 97.843c-.669.016-1.329.037-1.974.062 2.868 3.726 14.11 18.783 20.74 34.365 7.646 17.966 9.41 22.412 11.604 38.548 1.573 11.57.691 28.296.074 36.75 12.971.18 24.68-4.151 24.68-4.151s.034-32.915-2.535-46.9c-5.395-29.387-19.673-48.53-19.673-48.53" transform="translate(-223 -5630) translate(223 5631) translate(31 46)"/>
                    <path fill="#010101" d="M124.93 78.415s4.49 5.172 5.346 15.677c.857 10.505-1.272 21.314-13.922 18.157 0 0 12.593-7.557 8.576-33.834" transform="translate(-223 -5630) translate(223 5631) translate(31 46)"/>
                    <path fill="#FD9EA8" d="M106.674 113.796s-12.325 3.894-23.042-.508c-9.863-4.05-13.34-9.73-13.34-9.73S85.86 96.185 82.727 88.39c0 0-4.776 2.477-7.387-5.037-2.612-7.512 1.281-14.286 5.612-14.79 4.33-.504 8.287 4.871 6.363 9.057 0 0 3.641-2.46 3.74-9.109l.096-6.65 7.525-2.614 14.278-1.41 11.65 10.347-.382 7.008s3.821 14.08.293 24.884c-3.529 10.805-12.179 15.162-17.84 13.72" transform="translate(-223 -5630) translate(223 5631) translate(31 46)"/>
                    <path fill="#010101" d="M130.018 69.446c-.371 6.518-5.088 8.97-5.088 8.97l-.921-2.656c-.46 1.583-.973.788-4.086.192-3.116-.596-5.863-1.207-5.863-1.207s.465-1.345.845-6.596c.322-4.407-1.21-7.871-1.716-8.861 1.542 3.271.372 9.98-.74 12.626-1.153 2.73-3.119 1.316-7.306.752-2.64-.36-5.854-.701-7.865-.902-.884-.088-1.392-1.022-1.018-1.83 1.234-2.672 1.805-6.009 2.036-7.76-.95 5.997-5.989 7.984-5.989 7.984-.528 3.557-3.718 6.422-4.7 7.23-.062.053-.116.093-.154.125l-.061.053c-.017.013-.03.02-.039.026l-.038.026c1.922-4.189-2.035-9.556-6.364-9.052-4.332.503-8.224 7.278-5.613 14.791 2.4 6.9 6.636 5.37 7.3 5.067.07.1.153.23.242.388l.006.006c2.747 7.604-.487 11.526-3.164 13.861-8.219 7.17-22.917-1.447-22.95-14.097-.027-12.65 3.735-21.745 13.108-32.782 9.365-11.031 21.545-15.776 38.777-11.249 17.24 4.53 21.725 18.384 21.361 24.895" transform="translate(-223 -5630) translate(223 5631) translate(31 46)"/>
                    <path fill="#AD222E" d="M75.905 72.588c-.33.622-.61 1.291-.838 2.007-2.05.846-.452 2.461-2.692 3.005-2.475.598-1.816-3.797 3.53-5.012M96.296 76.58s-2.873-.816-6.857-1.516c-.531-.091-1.077-.184-1.645-.272-.045-.522-.156-1.042-.331-1.545.958.141 1.837.28 2.639.423 3.708.62 5.715 1.131 5.715 1.131l.48 1.778z" transform="translate(-223 -5630) translate(223 5631) translate(31 46)"/>
                    <path fill="#FFF" d="M102.05 76.716c-2.873.238-1.911 2.788-.137 3.028 1.774.242 3.074.772 3.72 1.161.646.39 1.966.78 2.636-.406.795-1.409-2.564-4.086-6.219-3.783M118.117 81.083c-1.899.48-2.017 2.694.07 2.88 2.086.187 3.14.72 3.903 1.116.763.394 1.55-.016 1.749-1.164.254-1.477-2.939-3.536-5.722-2.832" transform="translate(-223 -5630) translate(223 5631) translate(31 46)"/>
                    <path fill="#000" d="M102.682 113.905c5.023 2.55 11.328 1.525 15.659-1.886 7.402-5.83 9.241-16.022 8.865-24.93-.19-4.494-.903-8.978-1.991-13.339-.408-1.631-2.927-.94-2.518.695 1.818 7.284 2.742 15.18 1.232 22.602-1.492 7.35-6.463 15.689-14.881 15.653-1.252-.005-2.48-.194-3.678-.552-.398-.117-.789-.253-1.173-.408-.015-.005.075.044-.196-.095-1.496-.759-2.82 1.498-1.32 2.26" transform="translate(-223 -5630) translate(223 5631) translate(31 46)"/>
                    <path fill="#AD222E" d="M126.75 81.32c-.67 3.07-5.48 7.371-7.85 4.775 0 0-1.35-1.004-1.467-2.475-.113-1.476 1.178-2.275 4.029-3.483 2.854-1.208 5.967-1.886 5.289 1.184m-17.19 1.943c-1.998 1.103-5.903.703-8.367-1.423-2.455-2.12-6.14-8.848.22-6.949 6.36 1.9 9.649 6.15 9.649 6.15s.488 1.112-1.503 2.222m17.464-5.907c-5.327.051-10.168 3.815-10.168 3.815-1.47-1.77-4.076-.872-4.076-.872-4.267-4.896-12.67-8.137-15.965-8.436-3.287-.308-2.25 5.817 2.841 10.827 5.09 5.01 9.838 1.964 9.838 1.964 1.468 1.272 2.597-1.963 2.597-1.963 2.673-1.31 4.447.81 4.447.81s-.042.549.486 1.972c.535 1.43 3.083 4.213 6.486 1.845 3.41-2.359 8.84-10.006 3.514-9.962" transform="translate(-223 -5630) translate(223 5631) translate(31 46)"/>
                    <path fill="#000" d="M111.144 91.146c.14.874.881 1.645 1.749 1.817.502.099 1.026.065 1.49-.17.467-.235.685-.712.814-1.193.101-.373-.126-.821-.516-.91-.39-.09-.803.116-.911.517-.024.09-.053.178-.081.267-.028.072-.018.05.03-.067-.011.024-.023.048-.036.07-.013.024-.025.045-.04.066.075-.092.094-.117.057-.074-.013.015-.026.03-.04.042-.055.05-.037.035.054-.041-.025.016-.052.032-.078.042.101-.04.125-.05.072-.032-.103.03-.203.059-.31.072.066-.008.13-.016.196-.026-.14.015-.28.015-.42-.005l.196.028c-.085-.015-.167-.032-.25-.058-.032-.01-.065-.023-.098-.035-.085-.03.152.08.041.015-.041-.025-.19-.08-.21-.13.012.029.141.117.041.03-.029-.028-.059-.055-.086-.083-.022-.026-.043-.051-.067-.076-.098-.104.093.146.02.025-.04-.063-.08-.123-.114-.19-.061-.12-.004.035.018.05-.015-.01-.035-.096-.04-.112-.025-.076-.042-.154-.053-.234-.028-.171-.197-.358-.34-.442-.159-.093-.394-.132-.57-.075-.18.058-.353.169-.443.34-.098.188-.108.365-.075.572" transform="translate(-223 -5630) translate(223 5631) translate(31 46)"/>
                    <path fill="#000" d="M113.742 91.374c.034.55.27 1.078.701 1.431.446.361 1.018.565 1.595.506.553-.056 1.088-.28 1.46-.704.367-.415.57-.915.597-1.47.019-.386-.353-.76-.74-.74-.416.017-.72.325-.74.74 0 .022-.002.044-.003.065-.006.06 0 .03.014-.09-.014.032-.014.074-.022.107-.015.071-.04.138-.064.206-.029.086.076-.153.014-.037-.02.037-.04.076-.064.112-.018.031-.04.06-.06.09-.047.073.113-.121.022-.032-.031.032-.143.114-.154.152.09-.066.111-.082.064-.05-.017.014-.035.026-.053.037-.031.022-.064.04-.098.06-.019.01-.094.031-.103.05.016-.032.162-.06.026-.016-.036.012-.072.023-.11.032-.022.005-.045.01-.068.013-.057.012-.03.009.082-.008-.064-.014-.16.013-.228.01-.021 0-.168-.018-.04.001.127.024-.01-.003-.037-.008-.046-.01-.09-.022-.133-.036l-.044-.015c-.057-.022-.058-.021-.001 0 .056.024.055.023-.006-.005l-.045-.025c-.037-.02-.072-.047-.107-.07-.086-.05.118.11.026.018-.033-.03-.064-.061-.095-.092-.09-.092.066.102.018.03l-.06-.094c-.02-.034-.038-.085-.061-.117.018.026.053.15.027.055-.013-.043-.024-.085-.035-.127-.034-.139.015.174.005.02-.023-.385-.324-.758-.74-.74-.38.017-.766.326-.74.74" transform="translate(-223 -5630) translate(223 5631) translate(31 46)"/>
                    <path fill="#000" d="M118.129 91.1c-.208-2.74-.505-5.473-.883-8.195-.055-.396-.56-.613-.91-.517-.428.118-.573.513-.517.913.36 2.589.632 5.191.83 7.799.03.4.317.741.739.741.377 0 .77-.34.74-.741M100.886 74.201c1.305-.748 2.787-.875 4.206-.375 1.377.482 2.56 1.617 3.637 2.698 1.189 1.193 3.036-.657 1.846-1.85-1.423-1.43-2.985-2.79-4.936-3.422-2.005-.65-4.255-.351-6.072.69-.612.35-.821 1.183-.468 1.79.358.616 1.172.822 1.787.47M117.598 78.02c.219-.236.45-.457.692-.67.072-.063.123-.102.017-.02.08-.06.162-.118.245-.174.134-.09.268-.173.41-.25.069-.037.145-.068.213-.109.163-.1-.163.05.026-.016.159-.058.318-.112.481-.153.082-.022.168-.033.247-.055.19-.054-.167-.002.029-.006.19-.004.374-.016.565-.006.108.006.156.035.026.002.082.021.164.035.246.057.072.02.143.045.215.067.123.04.105.052-.002-.005.131.07.265.134.392.213.064.038.125.082.187.122.1.064.107.073.007-.002.512.393.945.89 1.361 1.382.444.523 1.397.493 1.847 0 .51-.557.475-1.292 0-1.85-1.132-1.334-2.461-2.47-4.279-2.602-1.843-.134-3.562.918-4.773 2.225-.464.503-.533 1.36 0 1.85.506.464 1.352.536 1.848 0M102.78 80.238c1.88 0 1.885-2.927 0-2.927-1.88 0-1.884 2.927 0 2.927M119.123 84.143c1.504 0 1.508-2.341 0-2.341-1.505 0-1.507 2.34 0 2.34M93.919 91.938c1.23.257 2.513.093 3.616-.521.954-.531 1.746-1.4 2.175-2.406.157-.37.11-.795-.267-1.015-.31-.182-.853-.104-1.01.266-.091.21-.193.412-.312.607-.054.086-.111.17-.17.252-.134.197.041-.044-.044.061-.032.041-.064.08-.097.118-.325.373-.569.575-.956.8-.767.445-1.713.582-2.542.408-.378-.078-.819.111-.911.518-.084.372.112.828.518.912" transform="translate(-223 -5630) translate(223 5631) translate(31 46)"/>
                    <path fill="#000" d="M97.84 90.047s4.295 5.26 12.922 7.495c0 0-1.606 6.516-8.29 5.013-6.683-1.502-6.43-11-6.43-11l1.797-1.508z" transform="translate(-223 -5630) translate(223 5631) translate(31 46)"/>
                    <path fill="#FFF" d="M107.607 96.53c-1.04 2.464-3.258 1.967-5.687-.043-1.956-1.62-2.69-4.18-2.923-5.25 1.465 1.373 4.334 3.648 8.61 5.292" transform="translate(-223 -5630) translate(223 5631) translate(31 46)"/>
                    <path fill="#FD405A" d="M103.027 102.653c-.178-.02-.361-.057-.552-.101-4.56-1.025-5.893-5.777-6.276-8.684 1.307.46 3.296 1.401 4.639 3.139 1.633 2.106 2.074 4.557 2.19 5.646" transform="translate(-223 -5630) translate(223 5631) translate(31 46)"/>
                    <path fill="#000" d="M107.317 105.332c-1.583.596-3.273.727-4.907.344-.387-.09-.8.12-.91.518-.102.376.127.82.518.912 1.881.441 3.88.338 5.692-.343.375-.142.63-.502.517-.912-.1-.36-.534-.66-.91-.519M83.14 87.811c.135-.174-.003-.003-.036.03-.042.047-.086.09-.133.133-.022.021-.046.042-.07.062-.061.05-.048.04.038-.028-.003-.004-.098.071-.115.081-.105.07-.214.133-.328.188-.029.015-.057.026-.085.04.105-.043.119-.049.046-.018-.052.018-.104.038-.156.055-.126.043-.255.078-.385.106-.073.016-.145.029-.216.043-.154.028.15-.016-.049.007-.283.03-.568.038-.853.034-.388-.005-.757.345-.74.741.019.407.326.736.74.741.664.01 1.36-.042 1.986-.273.295-.11.588-.241.846-.425.314-.221.556-.463.789-.769.107-.141.12-.407.074-.57-.048-.172-.18-.358-.34-.444-.172-.09-.38-.136-.57-.074-.196.063-.319.179-.442.34M80.327 74.22c1.147-.056 1.942.717 2.34 1.735.329.845.258 1.733.13 2.615-.104.725-.297 1.466-.736 2.065-.531.726-1.367 1.094-2.214 1.312-.923.238-.532 1.668.393 1.43 1.202-.31 2.296-.896 3.04-1.913.621-.847.869-1.877 1-2.9.164-1.292.127-2.473-.473-3.662-.663-1.32-1.97-2.237-3.48-2.164-.948.045-.954 1.527 0 1.482M97.951 91.065c1.685 2.052 3.923 3.64 6.26 4.862 2.36 1.234 4.924 2.17 7.566 2.556.932.136 1.334-1.292.394-1.43-4.862-.71-10.018-3.194-13.174-7.035-.605-.738-1.647.316-1.046 1.047" transform="translate(-223 -5630) translate(223 5631) translate(31 46)"/>
                    <path fill="#FD9EA8" d="M99.927 188.712c-3.828-1.87-6.808-3.541-6.808-3.541s1.526 2.06-.084 3.587c-1.611 1.528-5.647.535-5.647.535s.925 1.364-.413 3.554c-1.337 2.179-5.833.754-5.833.754s-1.194 2.5-4.495 2.022c-3.302-.477-12.555-5.922-12.677-10.507l-20.703-4.288c6.387-5.521 8.75-14.406 15.295-20.426l12.383 6.2s5.65-2.211 11.655.73c0 0 4.292 1.222 7.897-3.856 3.025-4.264 6.874.711 4.849 4.95-2.02 4.237-6.01 5.107-6.01 5.107s10.163 8.016 13.556 10.223c3.397 2.196.858 6.832-2.965 4.956" transform="translate(-223 -5630) translate(223 5631) translate(31 46)"/>
                    <path fill="#000" d="M85.672 180.932c2.22 1.47 4.48 2.877 6.778 4.22.846.495 1.611-.82.767-1.314-2.298-1.343-4.559-2.75-6.778-4.219-.818-.54-1.58.776-.767 1.313M81.787 186.874c1.672.862 3.297 1.814 4.869 2.847.333.22.855.078 1.039-.272.202-.38.083-.807-.271-1.04-1.573-1.035-3.198-1.985-4.87-2.848-.354-.183-.84-.103-1.04.272-.185.35-.104.847.273 1.041M78.19 192.8l2.387 1.305c.348.192.844.098 1.04-.272.188-.355.099-.837-.273-1.041l-2.387-1.305c-.35-.19-.845-.097-1.04.272-.187.357-.099.838.273 1.041" transform="translate(-223 -5630) translate(223 5631) translate(31 46)"/>
                    <path fill="#004656" d="M86.154 349.906c.39-1.624 1.398-5.786 2.23-9.08-7.034 2.21-14.658.556-19.25-.929l-.337 11.813s-1.697 5.677-1.913 8.492c-.156 2.034.044 4.465.167 5.658.049.472.351.872.792 1.048.952.378 2.814.984 5.28 1.13 3.77.221 5.766-.445 5.766-.445s7.57 3.798 12.976 4.665c5.405.867 8.983 1 9.83-1.66 1.025-3.213-12.41-16.737-15.205-19.503-.314-.311-.44-.759-.336-1.189M32.979 258.656l-10.521-1.937s-3.148-3.484-6.129-4.645c-1.819-.707-3.977-1.31-5.132-1.612-.534-.142-1.095.028-1.468.436-.953 1.039-2.205 2.907-2.674 5.49-.679 3.721-.498 6.8-.498 6.8s-3.99 6.677-5.504 11.946c-1.515 5.27-1.004 9.781 1.529 10.947 2.941 1.353 13.663-9.016 16.572-11.908.444-.443 1.064-.414 1.685-.339 1.797.22 5.012 1.584 9.932 3.455-.782-6.196.862-13.677 2.208-18.633" transform="translate(-223 -5630) translate(223 5631) translate(31 46)"/>
                    <path fill="#F8BB21" d="M57.783 103.193c-1.086 6.147-1.65 12.54 3.112 17.328 2.235 2.245 5.046 3.724 7.8 5.222 3.303 1.795 6.622 3.562 9.915 5.374 1.1.606 2.085-1.08.984-1.685-2.944-1.62-5.907-3.203-8.863-4.805-2.6-1.406-5.344-2.724-7.591-4.678-2.242-1.95-3.744-4.392-4.118-7.372-.372-2.952.128-5.96.64-8.864.218-1.229-1.66-1.757-1.879-.52" transform="translate(-223 -5630) translate(223 5631) translate(31 46)"/>
                    <path fill="#F8BB21" d="M78.22 129.821c-.403 2.77-.786 5.603-.216 8.38.585 2.848 2.37 4.962 4.47 6.864 4.754 4.305 9.224 8.81 13.246 13.815.787.98 2.158-.41 1.378-1.38-3.636-4.526-7.618-8.762-11.933-12.643-1.983-1.785-4.185-3.522-5.026-6.168-.85-2.683-.436-5.622-.04-8.348.176-1.23-1.701-1.76-1.88-.52" transform="translate(-223 -5630) translate(223 5631) translate(31 46)"/>
                    <path fill="#0387AA" d="M44.904 259.34c2.409 5.943 5.302 11.668 8.69 17.111.663 1.064 2.35.085 1.684-.985-3.297-5.295-6.151-10.86-8.495-16.644-.466-1.149-2.351-.647-1.879.518" transform="translate(-223 -5630) translate(223 5631) translate(31 46)"/>
                    <path fill="#000" d="M72.79 364.621c1.828 1.357 3.858 2.412 6.005 3.16.378.131.81-.15.91-.519.113-.407-.137-.78-.516-.91-2.027-.706-3.927-1.731-5.653-3.011-.32-.238-.824-.053-1.01.266-.222.377-.057.776.264 1.014M9.8 256.628c-.662.867-1.294 1.755-1.844 2.697-.55.942-1.027 1.926-1.51 2.904-.177.36-.097.803.266 1.014.326.193.834.095 1.013-.266.48-.979.96-1.963 1.51-2.905.55-.942 1.181-1.83 1.844-2.696.243-.318.048-.829-.265-1.014-.382-.224-.769-.053-1.013.266" transform="translate(-223 -5630) translate(223 5631) translate(31 46)"/>
                    <path fill="#E66504" d="M32.506 107.273c-.753.503-21.83 13.039-20.962 37.782.83 23.618 12.943 30.202 26.119 34.218 13.173 4.017 20.047 4.877 20.047 4.877l8.307-22.088s-19.763-8.892-20.049-13.482c-.286-4.59 4.809-17.31-.262-30.49-4.718-12.26-7.978-13.598-7.978-13.598s-3.784 1.823-5.222 2.781" transform="translate(-223 -5630) translate(223 5631) translate(31 46)"/>
                    <path fill="#000" d="M128.01 124.443c2.681 3.73 4.144 8.07 5.451 12.43 1.469 4.899 2.506 9.921 3.245 14.982 1.498 10.268 1.76 20.67 2.028 31.029.025.952 1.504.955 1.48 0-.418-16.224-.961-32.606-5.882-48.203-1.22-3.866-2.66-7.671-5.043-10.985-.551-.768-1.836-.029-1.278.747M31.449 178.64c10.354 3.46 21.243 5.7 32.02 7.358.932.144 1.333-1.284.393-1.43-10.777-1.66-21.664-3.899-32.02-7.36-.906-.3-1.293 1.13-.393 1.432M70.84 165.42c-3.37-1.952-6.659-4.057-9.922-6.184-3.704-2.419-7.474-4.849-10.872-7.696-1.275-1.069-2.124-1.88-2.564-3.546-.918-3.48.073-7.2.282-10.713.323-5.446.443-11.12-.757-16.479-1.234-5.505-3.986-11.036-8.574-14.459-.764-.57-1.501.718-.746 1.282 9.136 6.816 9.354 20.33 8.537 30.536-.27 3.382-1.055 6.87-.17 10.227.426 1.615 1.148 2.621 2.36 3.697 3.14 2.788 6.738 5.114 10.23 7.426 3.754 2.484 7.552 4.932 11.448 7.19.826.478 1.573-.803.747-1.28M92.589 323.392c-3.077 8.686-5.78 17.5-8.098 26.419-.24.924 1.187 1.317 1.427.394 2.32-8.92 5.02-17.733 8.098-26.419.32-.9-1.11-1.289-1.427-.394M92.92 249.305c.17-.509 11.234-11.251 11.234-11.251l-11.537 2.836.303 8.415z" transform="translate(-223 -5630) translate(223 5631) translate(31 46)"/>
                    <path fill="#0387AA" d="M92.913 241.707c1.946-.662 3.9-1.314 5.9-1.803 1.97-.482 3.973-.78 5.988-.994.523-.055.975-.409.975-.976 0-.484-.447-1.031-.975-.976-2.13.227-4.252.524-6.337 1.023-2.059.493-4.069 1.163-6.07 1.844-1.18.404-.673 2.289.519 1.882" transform="translate(-223 -5630) translate(223 5631) translate(31 46)"/>
                    <path fill="#0387AA" d="M91.27 240.94c.628 10.672.911 21.364.83 32.055-.068 8.658.857 21.765-9.52 24.987-5.351 1.662-11.43 1.226-16.752-.3-1.207-.347-1.724 1.536-.519 1.882 4.984 1.43 10.286 1.796 15.4.875 4.704-.849 8.547-3.367 10.732-7.69 2.29-4.533 2.45-9.688 2.54-14.664.108-5.853.107-11.709-.001-17.562-.12-6.532-.377-13.062-.76-19.584-.073-1.25-2.023-1.257-1.95 0" transform="translate(-223 -5630) translate(223 5631) translate(31 46)"/>
                    <path fill="#000" d="M139.978 184.879l-15.012-13.497s-3.813 26.671 14.907 36.308c.115-5.072.228-13.488.105-22.811" transform="translate(-223 -5630) translate(223 5631) translate(31 46)"/>
                    <path fill="#FD9EA8" d="M164.144 95s-6.924-4.012-4.837-11.649c2.09-7.636 9.893-2.977 10.773-.906.878 2.07 1.429 12.555-1.65 13.978-3.077 1.424-4.286-1.423-4.286-1.423" transform="translate(-223 -5630) translate(223 5631) translate(31 46)"/>
                    <path fill="#FDA300" d="M188.654 87.663c.271-7.248 6.718-19.411 8.602-21.713 1.885-2.3 3.527-3.217 3.447-5.947-.173-5.774-11.576-4.988-16.097-3.682-4.612 1.332-7.88 4.258-7.88 4.258s-6.906-5.008-13.884-4.223c-6.978.784-11.495 5.43-10.599 7.326.785 1.658 3.81 5.018 5.461 6.785 3.51 3.756 7.83 12.53 8.07 15.22 3.232 36.15 21.928 27.41 22.88 1.976" transform="translate(-223 -5630) translate(223 5631) translate(31 46)"/>
                    <path fill="#000" d="M178.37 61.596s5.822-4.637 12.903-4.55c3.957.049 5.631.95 5.432 2.695-.183 1.602-4.953 4.749-11.257 4.214-6.306-.535-7.078-2.359-7.078-2.359" transform="translate(-223 -5630) translate(223 5631) translate(31 46)"/>
                    <path fill="#000" d="M195.718 58.84c.486 1.848-1.817 3.41-3.301 3.903-1.61.535-3.343.712-5.03.74-1.853.03-3.735-.144-5.517-.673-2.038-.605-3.77-1.802-5.53-2.953-.45-.295-.866.426-.42.718 1.996 1.307 3.96 2.609 6.303 3.194 2.165.54 4.45.657 6.669.472 1.745-.146 3.678-.41 5.194-1.35 1.409-.873 2.906-2.482 2.434-4.273-.137-.517-.939-.297-.802.222" transform="translate(-223 -5630) translate(223 5631) translate(31 46)"/>
                    <path fill="#B3D570" d="M179.895 39.503h-4.346V35.15c0-.432-.35-.782-.781-.782h-4.439c-.431 0-.78.35-.78.782v4.353h-4.346c-.432 0-.78.35-.78.781v4.447c0 .43.348.78.78.78h4.346v4.354c0 .432.349.782.78.782h4.439c.432 0 .78-.35.78-.782v-4.353h4.347c.43 0 .78-.35.78-.781v-4.447c0-.432-.35-.78-.78-.78" transform="translate(-223 -5630) translate(223 5631) translate(31 46)"/>
                    <path fill="#9ACB51" d="M191.025 22.713h-2.991v-2.997c0-.298-.241-.538-.538-.538h-3.055c-.296 0-.537.24-.537.538v2.997h-2.99c-.298 0-.54.239-.54.536v3.06c0 .298.242.538.54.538h2.99v2.998c0 .295.24.538.537.538h3.055c.297 0 .538-.243.538-.538v-2.998h2.99c.298 0 .538-.24.538-.537v-3.06c0-.298-.24-.537-.537-.537" transform="translate(-223 -5630) translate(223 5631) translate(31 46)"/>
                    <g transform="translate(-223 -5630) translate(223 5631) translate(31 46) translate(164.5)">
                        <mask id="ukb2i6bpqh" fill="#fff">
                            <use xlink:href="#3gu05utcdg"/>
                        </mask>
                        <path fill="#B3D570" d="M8.334 2.793H6.186V.64c0-.213-.174-.386-.386-.386H3.607c-.214 0-.385.173-.385.386v2.152H1.074c-.213 0-.386.173-.386.386v2.198c0 .214.173.385.386.385h2.148v2.151c0 .214.171.387.385.387H5.8c.212 0 .386-.173.386-.387v-2.15h2.148c.213 0 .385-.172.385-.386V3.179c0-.213-.172-.386-.385-.386" mask="url(#ukb2i6bpqh)"/>
                    </g>
                    <path fill="#FDA300" d="M166.574 89.78c-2.66 5.704-2.115 11.773-12.224 22.368-9.887 10.363-35.262 34.612-32.207 57.92 3.057 23.31 12.225 41.439 58.302 43.559 46.076 2.118 56.303-34.962 53.599-52.975-4.702-31.316-37.489-48.3-42.316-61.925-5.172-14.597-11.753-37.67-25.154-8.946" transform="translate(-223 -5630) translate(223 5631) translate(31 46)"/>
                    <path fill="#000" d="M195.154 134.4c-2.997-3.408-6.708-6.084-11.277-6.79-4.932-.764-10.38.243-14.728 2.719-3.607 2.054-6.247 5.756-6.903 9.872-.68 4.273.769 8.272 3.561 11.505 6.266 7.252 16.26 7.99 24 12.843 2.72 1.706 5.705 4.421 5.23 7.971-.519 3.861-4.157 6.6-7.701 7.521-4.098 1.065-8.759 1.006-12.83-.126-2.013-.56-3.98-1.298-5.845-2.242-1.414-.716-3.279-1.718-4.16-2.864-.674-.88-1.768-1.35-2.812-.739-.864.506-1.417 1.93-.737 2.816 2.237 2.917 5.745 4.562 9.09 5.869 3.573 1.395 7.213 2.105 11.049 2.092 4.316-.018 8.88-.63 12.466-3.221 3.406-2.46 6.046-6.432 5.573-10.8-.975-9.037-11.83-12.17-18.878-14.908-6.775-2.63-17.099-8.258-13.342-17.214 1.96-4.667 7.238-6.71 11.966-7.158 2.69-.257 5.518.01 7.952 1.258 2.133 1.098 3.846 2.719 5.42 4.508 1.75 1.993 4.648-.928 2.906-2.911" transform="translate(-223 -5630) translate(223 5631) translate(31 46)"/>
                    <path fill="#000" d="M178.32 124.317c2.8 16.813 3.191 34.023 1.236 50.952-.555 4.812-1.327 9.598-2.272 14.35-.516 2.587 3.447 3.694 3.964 1.093 3.428-17.246 4.466-34.949 2.946-52.472-.436-5.029-1.082-10.04-1.91-15.016-.185-1.099-1.54-1.71-2.529-1.44-1.163.32-1.62 1.433-1.436 2.533M138.13 184.21c-.254 1.635.462 3.35 1.923 4.191 1.478.853 3.368.604 4.647-.488.305-.26.268-.78 0-1.048-.3-.302-.741-.26-1.045 0-.112.096.015 0-.097.077-.063.045-.128.088-.196.127-.066.04-.134.077-.203.112-.02.01-.212.091-.108.052-.133.052-.27.094-.408.127-.167.042-.235.054-.303.06-.598.044-1.069-.028-1.54-.298-.45-.26-.76-.617-1.01-1.12-.014-.029-.073-.157-.035-.067-.029-.071-.054-.143-.078-.216-.047-.147-.08-.294-.11-.445-.045-.221-.003.118-.014-.106-.005-.077-.01-.152-.012-.228 0-.066.001-.128.005-.192.002-.028.03-.27.01-.145.062-.395-.1-.798-.516-.912-.352-.097-.85.12-.91.518M141.292 191.113c1.483 3.274 5.98 3.873 8.285 1.127-.413-.11-.824-.22-1.238-.328.543 1.44 1.188 3.074 2.615 3.856 1.21.665 2.857.652 3.817-.44.628-.714-.416-1.765-1.046-1.047-.593.673-1.63.545-2.3.035-.874-.665-1.285-1.81-1.657-2.797-.179-.472-.847-.795-1.238-.328-1.73 2.063-4.853 1.618-5.96-.826-.391-.869-1.668-.116-1.278.748M211.154 147.42c.063.022.125.044.187.068-.1-.04-.018-.006.032.02.109.054.213.11.316.174.057.034.111.07.165.107.013.01.154.116.083.06-.072-.057.063.056.077.066.048.043.099.087.145.133.08.076.154.154.227.237.044.05.087.1.128.15-.066-.08-.009-.01.023.035.139.2.263.407.37.626l.067.15c-.062-.145.019.056.024.069.036.104.071.21.1.315.033.116.058.234.081.352.013.066.024.14.01.031.008.065.014.13.019.197.017.239.014.48-.016.719.014-.109.005-.036-.008.03-.01.054-.022.109-.034.16-.03.129-.068.255-.113.381-.132.378.152.811.518.91.409.114.777-.137.91-.517.828-2.356-.601-5.096-2.916-5.903-.379-.13-.81.15-.912.518-.111.409.139.78.517.912M214.88 184.68c.647 1.063.71 2.442.084 3.531-.593 1.038-1.742 1.692-2.901 1.723-.951.025-.955 1.508 0 1.482 1.694-.045 3.33-.973 4.181-2.455.882-1.538.833-3.52-.086-5.027-.495-.814-1.776-.07-1.278.747" transform="translate(-223 -5630) translate(223 5631) translate(31 46)"/>
                    <path fill="#000" d="M214.851 184.245c1.747.867 3.61-.635 4.527-2.046.892-1.371 1.191-3.102.8-4.689-.229-.926-1.657-.534-1.428.392.275 1.115.074 2.32-.517 3.333-.274.47-.662.928-1.063 1.237-.24.183-.505.355-.789.456-.28.099-.559.148-.782.037-.358-.179-.801-.096-1.013.265-.191.328-.094.837.265 1.015" transform="translate(-223 -5630) translate(223 5631) translate(31 46)"/>
                    <path fill="#B93A14" d="M165.83 96.665c8.764 3.084 16.497 2.892 24.89-.705 1.905-.817 2.223-5.408 1.109-7.09-1.3-1.964-3.433-2.31-5.42-1.317-.419.202-.44.217-.065.047-.223.099-.448.198-.674.291-.34.142-.682.276-1.025.4-.805.293-1.623.544-2.453.753-.474.12-.952.214-1.43.316-.93.197.462-.026-.403.062-.912.095-1.817.19-2.735.212-.855.022-1.71 0-2.562-.066-.183-.013-.365-.028-.548-.046.445.052.43.05-.04-.012-.42-.07-.843-.13-1.263-.213-.84-.162-1.67-.366-2.49-.614-.41-.125-.817-.257-1.219-.403-.23-.083-.46-.17-.687-.26.383.152.362.137-.066-.045-1.891-.831-3.582-.46-4.59 1.63-.871 1.802-1.108 5.846.914 6.737l.757.323z" transform="translate(-223 -5630) translate(223 5631) translate(31 46)"/>
                    <path fill="#FD9EA8" d="M192.177 85.696s1.76-3.17.219-5.536c-1.55-2.381-7.113-.738-9.28.387-2.167 1.123-6.036 3.431-5.023 6.46.69 2.06 3.347 1.741 3.347 1.741s-2.123.397-2.953 2.098c-1.287 2.634.918 4.012 2.708 4.166 2.07.179 3.743-.619 3.743-.619s-2.726 1.6-2.36 3.481c.407 2.089 4.07 2.94 5.858 1.78 0 0-2.766.928-1.22 3.945 1.142 2.227 8.136.85 8.705-1.702.57-2.552-1.79-3.482-1.79-3.482s1.872-1.47 1.22-3.79c-.65-2.32-1.952-2.32-1.952-2.32s2.116-1.392 1.546-4.177c-.57-2.786-2.768-2.432-2.768-2.432M163.203 79.334c1.711-.445 5.668.634 6.547 3.387.879 2.752-.77 4.512-3.407 4.403-2.638-.11-4.793-.34-5.387-3.192-.545-2.622 1.226-4.335 2.247-4.598" transform="translate(-223 -5630) translate(223 5631) translate(31 46)"/>
                    <path fill="#000" d="M162.39 86.733c1.03.704 2.484.935 3.699 1.01 1.467.093 3.144-.184 4.155-1.359 1.008-1.17 1.138-2.91.567-4.312-.62-1.52-1.832-2.523-3.315-3.14-1.468-.614-3.129-.96-4.722-.925-.976.02-.979 1.542 0 1.522 1.161-.026 2.323.189 3.427.541 1.094.348 2.144.854 2.798 1.815.631.932.9 2.219.31 3.216-.58.978-1.844 1.16-2.881 1.137-.665-.016-1.32-.115-1.963-.286-.528-.14-.89-.248-1.307-.532-.81-.552-1.571.764-.767 1.313M179.845 89.795c3.201-2.425 7.136-3.645 11.146-3.428.975.054.972-1.467 0-1.52-4.244-.23-8.522 1.067-11.913 3.635-.769.582-.013 1.903.767 1.313M183.67 95.585c2.425-1.536 5.203-2.428 8.071-2.557.974-.045.979-1.567 0-1.522-3.13.141-6.186 1.086-8.838 2.767-.823.522-.062 1.838.767 1.312M187.24 101.225c1.722-.895 3.558-1.533 5.46-1.92.403-.083.634-.56.53-.937-.115-.417-.53-.613-.934-.532-2.027.415-3.987 1.12-5.823 2.077-.363.189-.472.697-.272 1.04.216.37.674.463 1.04.272" transform="translate(-223 -5630) translate(223 5631) translate(31 46)"/>
                </g>
            </g>
        </g>
    </g>
</svg>
