<svg xmlns="http://www.w3.org/2000/svg" width="16" height="16" viewBox="0 0 16 16">
    <g fill="none" fill-rule="evenodd">
        <g fill="#FFF">
            <g>
                <g>
                    <path d="M9.41 8l3.29-3.29c.19-.18.3-.43.3-.71 0-.55-.45-1-1-1-.28 0-.53.11-.71.29L8 6.59l-3.29-3.3C4.53 3.11 4.28 3 4 3c-.55 0-1 .45-1 1 0 .28.11.53.29.71L6.59 8 3.3 11.29c-.19.18-.3.43-.3.71 0 .55.45 1 1 1 .28 0 .53-.11.71-.29L8 9.41l3.29 3.29c.18.19.43.3.71.3.55 0 1-.45 1-1 0-.28-.11-.53-.29-.71L9.41 8z" transform="translate(-324 -114) translate(324 114)"/>
                </g>
            </g>
        </g>
    </g>
</svg>
