<?xml version="1.0" encoding="UTF-8"?>
<svg width="194px" height="32px" viewBox="0 0 194 32" version="1.1" xmlns="http://www.w3.org/2000/svg" xmlns:xlink="http://www.w3.org/1999/xlink">
    <!-- Generator: Sketch 62 (91390) - https://sketch.com -->
    <title>Gojek logo</title>
    <desc>Created with Sketch.</desc>
    <defs>
        <polygon id="path-1" points="0.6401 0.1899 14.034 0.1899 14.034 18.8409 0.6401 18.8409"></polygon>
        <polygon id="path-3" points="0 0.683099572 31.2777 0.683099572 31.2777 30.9761 0 30.9761"></polygon>
        <polygon id="path-5" points="0.8525 0.3841 10.2575 0.3841 10.2575 27 0.8525 27"></polygon>
        <polygon id="path-7" points="0.092 0.3735 19.953 0.3735 19.953 27 0.092 27"></polygon>
    </defs>
    <g id="Page-1-Copy" stroke="none" stroke-width="1" fill="none" fill-rule="evenodd">
        <g id="About-Us" transform="translate(-157.000000, -56.000000)">
            <g id="Menu-bar-Copy" transform="translate(157.000000, 55.000000)">
                <g id="Gojek-logo">
                    <path d="M140.6582,12.4404 L140.6582,21.0754 C140.6582,21.9904 141.0392,22.3204 142.1312,22.3204 L144.2392,22.3204 L144.2392,24.1484 L142.1052,24.1484 C139.5912,24.1484 138.5752,23.2594 138.5752,21.0494 L138.5752,12.4404 L135.6542,12.4404 L135.6542,10.6874 L138.5752,10.6874 L138.5752,7.6664 L140.6582,7.6664 L140.6582,10.6874 L144.9752,10.6874 L144.9752,12.4404 L140.6582,12.4404 Z" id="Fill-1" fill="#FFFFFF"></path>
                    <path d="M135.71,12.3848 L138.631,12.3848 L138.631,21.0498 C138.631,23.2398 139.605,24.0938 142.106,24.0938 L144.184,24.0938 L144.184,22.3748 L142.131,22.3748 C141.017,22.3748 140.603,22.0228 140.603,21.0748 L140.603,12.3848 L144.92,12.3848 L144.92,10.7428 L140.603,10.7428 L140.603,7.7208 L138.631,7.7208 L138.631,10.7428 L135.71,10.7428 L135.71,12.3848 Z M144.294,24.2038 L142.106,24.2038 C139.559,24.2038 138.521,23.2898 138.521,21.0498 L138.521,12.4948 L135.6,12.4948 L135.6,10.6328 L138.521,10.6328 L138.521,7.6108 L140.713,7.6108 L140.713,10.6328 L145.03,10.6328 L145.03,12.4948 L140.713,12.4948 L140.713,21.0748 C140.713,21.9648 141.07,22.2648 142.131,22.2648 L144.294,22.2648 L144.294,24.2038 Z" id="Fill-3" fill="#FFFFFF"></path>
                    <path d="M158.2588,16.4785 C158.0808,14.0145 155.9728,12.0845 153.3828,12.0845 C150.5638,12.0845 148.5068,13.9895 148.3538,16.4785 L158.2588,16.4785 Z M146.2208,17.4945 C146.2208,13.1765 149.1658,10.3065 153.3828,10.3065 C157.3698,10.3065 160.3928,13.2275 160.3928,17.3925 L160.3928,18.1555 L148.3288,18.1555 C148.3538,20.8725 150.6138,22.7515 153.4078,22.7515 C155.5158,22.7515 157.1928,21.8125 158.3348,19.8815 L159.9858,20.9735 C158.5638,23.3355 156.2778,24.5295 153.4078,24.5295 C149.0908,24.5295 146.2208,21.7615 146.2208,17.4945 L146.2208,17.4945 Z" id="Fill-5" fill="#FFFFFF"></path>
                    <path d="M148.4131,16.4238 L158.1991,16.4238 C157.9941,14.0168 155.8901,12.1398 153.3831,12.1398 C150.6761,12.1398 148.5961,13.9378 148.4131,16.4238 L148.4131,16.4238 Z M158.3181,16.5338 L148.2951,16.5338 L148.2991,16.4758 C148.4571,13.8998 150.5951,12.0288 153.3831,12.0288 C155.9681,12.0288 158.1351,13.9818 158.3141,16.4748 L158.3181,16.5338 Z M153.3831,10.3618 C149.1321,10.3618 146.2751,13.2288 146.2751,17.4938 C146.2751,21.7348 149.0751,24.4748 153.4081,24.4748 C156.2711,24.4748 158.5181,23.2698 159.9111,20.9898 L158.3521,19.9598 C157.2161,21.8498 155.5521,22.8068 153.4081,22.8068 C150.5061,22.8068 148.2981,20.8068 148.2731,18.1548 L148.2731,18.0998 L160.3371,18.0998 L160.3371,17.3928 C160.3371,13.3188 157.4121,10.3618 153.3831,10.3618 L153.3831,10.3618 Z M153.4081,24.5848 C151.2701,24.5848 149.4541,23.9158 148.1561,22.6518 C146.8531,21.3818 146.1651,19.5988 146.1651,17.4938 C146.1651,15.3708 146.8621,13.5548 148.1821,12.2418 C149.4901,10.9408 151.2891,10.2518 153.3831,10.2518 C157.4761,10.2518 160.4471,13.2548 160.4471,17.3928 L160.4471,18.2098 L148.3851,18.2098 C148.4381,20.7718 150.5881,22.6958 153.4081,22.6958 C155.5291,22.6958 157.1711,21.7398 158.2871,19.8538 L158.3161,19.8038 L158.3651,19.8358 L160.0601,20.9568 L160.0331,21.0018 C158.6221,23.3458 156.3311,24.5848 153.4081,24.5848 L153.4081,24.5848 Z" id="Fill-7" fill="#FFFFFF"></path>
                    <path d="M162.832,17.418 C162.832,13.329 165.904,10.307 170.019,10.307 C173.346,10.307 176.089,12.187 176.851,15.158 L174.845,15.666 C174.158,13.278 172.355,12.136 170.019,12.136 C167.099,12.136 164.914,14.192 164.914,17.418 C164.914,20.644 167.099,22.701 170.019,22.701 C172.355,22.701 174.158,21.559 174.845,19.171 L176.851,19.679 C176.089,22.65 173.346,24.529 170.019,24.529 C165.904,24.529 162.832,21.532 162.832,17.418" id="Fill-9" fill="#FFFFFF"></path>
                    <path d="M170.0186,10.3623 C168.0406,10.3623 166.2316,11.0753 164.9206,12.3683 C163.6096,13.6643 162.8866,15.4583 162.8866,17.4183 C162.8866,19.3883 163.6096,21.1843 164.9206,22.4773 C166.2286,23.7643 168.0396,24.4743 170.0186,24.4743 C173.3666,24.4743 176.0156,22.6093 176.7836,19.7183 L174.8826,19.2373 C174.2096,21.5073 172.4856,22.7563 170.0186,22.7563 C166.9816,22.7563 164.8596,20.5613 164.8596,17.4183 C164.8596,14.2753 166.9816,12.0803 170.0186,12.0803 C172.4856,12.0803 174.2096,13.3303 174.8826,15.5993 L176.7836,15.1183 C176.0156,12.2263 173.3666,10.3623 170.0186,10.3623 M170.0186,24.5853 C168.0096,24.5853 166.1706,23.8643 164.8436,22.5553 C163.5106,21.2433 162.7766,19.4183 162.7766,17.4183 C162.7766,13.3333 165.8896,10.2523 170.0186,10.2523 C173.4396,10.2523 176.1426,12.1723 176.9046,15.1433 L176.9176,15.1983 L176.8646,15.2113 L174.8066,15.7323 L174.7906,15.6803 C174.1446,13.4303 172.4506,12.1903 170.0186,12.1903 C167.0456,12.1903 164.9696,14.3403 164.9696,17.4183 C164.9696,20.4963 167.0456,22.6453 170.0186,22.6453 C172.4506,22.6453 174.1446,21.4063 174.7906,19.1553 L174.8066,19.1033 L174.8586,19.1173 L176.9176,19.6383 L176.9046,19.6923 C176.1426,22.6643 173.4396,24.5853 170.0186,24.5853" id="Fill-11" fill="#FFFFFF"></path>
                    <path d="M179.6963,5.6084 L181.7783,5.6084 L181.7783,12.3644 L181.8293,12.3644 C182.8963,11.0434 184.6233,10.3064 186.6043,10.3064 C190.4143,10.3064 192.9783,12.6184 192.9783,16.0464 L192.9783,24.1484 L190.8963,24.1484 L190.8963,16.4534 C190.8963,13.7604 189.2193,12.1354 186.4773,12.1354 C183.7343,12.1354 181.7783,13.9634 181.7783,16.5544 L181.7783,24.1484 L179.6963,24.1484 L179.6963,5.6084 Z" id="Fill-13" fill="#FFFFFF"></path>
                    <g id="Group-17" transform="translate(179.000000, 5.362800)">
                        <mask id="mask-2" fill="white">
                            <use xlink:href="#path-1"></use>
                        </mask>
                        <g id="Clip-16"></g>
                        <path d="M11.9521,18.7309 L13.9241,18.7309 L13.9241,10.6839 C13.9241,7.2839 11.3841,4.9999 7.6041,4.9999 C5.6421,4.9999 3.9181,5.7419 2.8721,7.0359 L2.8551,7.0559 L2.7231,7.0559 L2.7231,0.3009 L0.7521,0.3009 L0.7521,18.7309 L2.7231,18.7309 L2.7231,11.1919 C2.7231,8.5569 4.6791,6.7169 7.4771,6.7169 C10.2371,6.7169 11.9521,8.3929 11.9521,11.0899 L11.9521,18.7309 Z M14.0341,18.8409 L11.8411,18.8409 L11.8411,11.0899 C11.8411,8.4209 10.2101,6.8279 7.4771,6.8279 C4.7431,6.8279 2.8341,8.6229 2.8341,11.1919 L2.8341,18.8409 L0.6401,18.8409 L0.6401,0.1899 L2.8341,0.1899 L2.8341,6.9089 C3.9041,5.6249 5.6381,4.8889 7.6041,4.8889 C11.4501,4.8889 14.0341,7.2179 14.0341,10.6839 L14.0341,18.8409 Z" id="Fill-15" fill="#FFFFFF" mask="url(#mask-2)"></path>
                    </g>
                    <path d="M9.7754,16.6846 C9.7754,13.4466 12.4024,10.8196 15.6414,10.8196 C18.8794,10.8196 21.5064,13.4466 21.5064,16.6846 C21.5064,19.9236 18.8814,22.5496 15.6414,22.5496 C12.4004,22.5496 9.7754,19.9236 9.7754,16.6846" id="Fill-18" fill="#FFFFFF"></path>
                    <g id="Group-22" transform="translate(0.000000, 0.362800)">
                        <mask id="mask-4" fill="white">
                            <use xlink:href="#path-3"></use>
                        </mask>
                        <g id="Clip-21"></g>
                        <path d="M15.6387,0.683099572 C7.0017,0.683099572 -0.0003,7.6851 -0.0003,16.3221 C-0.0003,22.8061 3.9147,28.3401 9.6007,30.7481 C9.9597,30.8961 10.3437,30.9741 10.7327,30.9761 C12.3517,30.9761 13.6647,29.6621 13.6647,28.0431 C13.6647,26.8621 12.9537,25.7961 11.8667,25.3381 L11.8667,25.3361 C8.3427,23.8601 5.8657,20.3791 5.8657,16.3201 C5.8657,10.9211 10.2407,6.5441 15.6417,6.5441 C21.0417,6.5441 25.4167,10.9211 25.4167,16.3201 C25.4167,20.3791 22.9397,23.8601 19.4157,25.3361 L19.4157,25.3381 C17.9227,25.9661 17.2217,27.6851 17.8497,29.1771 C18.3047,30.2631 19.3677,30.9721 20.5447,30.9741 C20.9337,30.9721 21.3187,30.8941 21.6767,30.7461 C27.3607,28.3381 31.2777,22.8011 31.2777,16.3201 C31.2777,7.68309957 24.2767,0.6811 15.6387,0.683099572" id="Fill-20" fill="#FFFFFF" mask="url(#mask-4)"></path>
                    </g>
                    <path d="M61.8564,14.9502 C61.8564,9.7552 65.9664,5.7432 71.6894,5.7432 C77.4444,5.7432 81.5224,9.7552 81.5224,14.9502 C81.5224,20.1462 77.4444,24.1602 71.6894,24.1602 C65.9664,24.1602 61.8564,20.1462 61.8564,14.9502 M76.6554,14.9502 C76.6554,12.1212 74.7134,10.0182 71.6894,10.0182 C68.6654,10.0182 66.7234,12.1242 66.7234,14.9502 C66.7234,17.7772 68.6654,19.8852 71.6894,19.8852 C74.7134,19.8852 76.6554,17.7792 76.6554,14.9502" id="Fill-23" fill="#FFFFFF"></path>
                    <g id="Group-27" transform="translate(79.000000, 5.362800)">
                        <mask id="mask-6" fill="white">
                            <use xlink:href="#path-5"></use>
                        </mask>
                        <g id="Clip-26"></g>
                        <path d="M0.8525,22.5581 L3.4845,22.5581 C4.8985,22.5581 5.3905,22.0321 5.3905,20.7831 L5.3905,0.3841 L10.2575,0.3841 L10.2575,20.8491 C10.2575,25.1581 8.5145,27.0001 3.8765,27.0001 L0.8525,27.0001 L0.8525,22.5581 Z" id="Fill-25" fill="#FFFFFF" mask="url(#mask-6)"></path>
                    </g>
                    <g id="Group-30" transform="translate(39.000000, 5.362800)">
                        <mask id="mask-8" fill="white">
                            <use xlink:href="#path-7"></use>
                        </mask>
                        <g id="Clip-29"></g>
                        <path d="M15.252,0.3735 L15.252,2.4295 L15.186,2.4295 C13.927,1.1045 11.841,0.3775 9.358,0.3775 C4.029,0.3775 0.092,4.3505 0.092,9.4795 C0.092,14.8095 4.131,18.7145 9.524,18.7145 C11.939,18.7145 13.959,17.9535 15.186,16.5965 L15.252,16.5965 L15.252,18.3695 C15.252,20.7525 13.2,22.5075 10.486,22.5075 C7.749,22.5075 6.157,21.7345 4.773,20.4145 L1.605,23.4645 C3.728,25.7195 6.93,27.0005 10.587,27.0005 C16.148,27.0005 19.953,23.2695 19.953,18.3055 L19.953,0.3755 L15.252,0.3735 Z M15.054,10.5395 C15.054,12.6905 12.869,14.4135 10.088,14.4135 C6.943,14.4135 4.991,12.5595 4.991,9.4815 C4.991,6.6365 7.077,4.6815 10.286,4.6815 C12.834,4.6815 15.052,6.4685 15.052,8.4875 L15.054,10.5395 Z" id="Fill-28" fill="#FFFFFF" mask="url(#mask-8)"></path>
                    </g>
                    <path d="M102.1992,20.2109 C99.2802,20.2109 96.9892,18.3249 96.9272,16.4939 L111.0682,16.4939 L111.0682,15.1139 C111.0682,9.8859 107.4502,5.7399 101.5952,5.7399 C96.0712,5.7399 92.1242,9.6209 92.1242,14.9819 C92.1242,20.5079 96.2872,24.1579 102.4062,24.1579 C106.1552,24.1579 108.8442,22.3609 110.2472,20.6389 L106.9482,18.3269 C105.4832,19.6979 104.1512,20.2129 102.1992,20.2109 M101.6952,9.6879 C104.2922,9.6879 106.1022,11.0349 106.3322,13.0759 L96.9912,13.0759 C97.2562,11.0349 99.0662,9.6879 101.6952,9.6879" id="Fill-31" fill="#FFFFFF"></path>
                    <polygon id="Fill-33" fill="#FFFFFF" points="113.9365 1 118.6335 1 118.6615 13.076 118.7255 13.076 126.5895 5.699 132.8875 5.699 124.7365 13.416 132.8555 24.145 127.2315 24.145 121.6565 16.391 121.5935 16.391 118.6335 19.192 118.6335 24.158 113.9365 24.158"></polygon>
                </g>
            </g>
        </g>
    </g>
</svg>