<svg viewBox="0 0 400 190" xmlns="http://www.w3.org/2000/svg"><g fill-rule="evenodd"><path d="m173.75 51.73c-3.1-.37-6.2-.74-9.3-1.07-12.11-1.28-24.14-1-36.28-.17s-24.17 1.87-36.17 2.92c-8.12.71-16.27.77-23.92 3.78a49.14 49.14 0 0 0 -18.39 12.62 6.58 6.58 0 0 0 -1.69 2.69 7.18 7.18 0 0 0 .13 3.09l2.37 12.57a23.41 23.41 0 0 0 2.06 6.84c3.14 5.8 9.22 8.16 15.31 8.76 6.67.65 13.36 1.14 20.06 1.36a145.25 145.25 0 0 0 28-1.32c5.79-.94 12.21-2.35 17-5.94a11.65 11.65 0 0 0 3.38-3.61c.12-.22 1.16-3.36.92-3.33l.42-9.33-6-1.37c.06-2.9 1.72-7.79 4.6-9.31 13.38-7 44.89-10.35 48.18-10.73 3-.34 7.31-2.62 7.4-5.24l.33-5.22-18.81-.6z" fill="#20552a"/><path d="m403 195.5c11.92-7.46 8.53-38.34 9-66 .32-18.62-1.65-28.4-2-51-4.06.3 2.8-9.33-2-8l-47.53 14.5-20.2 5.38s-.06 8.93 0 9.35c.38 2 2.72 4.51 11 5.87 16.7 2.74 21.5 17 5.21 25.82-8.79 4.75-30.94 14.45-48.25 25.59l-1.34-4-21.75 12.7v16.63a10.24 10.24 0 0 0 .66 4.22c.35.94 11.71 17.13 12.2 18 19.63-.4 55.31.31 60 0 11.8-.79 30.13 3 35 0" fill="#20552a"/><path d="m174.43 42.48c-9.45-1.16-19.38-.06-28.81.71-30.92 2.53-64.85 1.44-91.62 19.31-2.72 1.82-6 7-6.5 10.51a8.53 8.53 0 0 0 1 4.78c2.95 6.13 9.5 9.78 16 10.46 8.13.84 16.24 1.7 24.39 2.17 10.6.61 21.4.92 31.94-.52 3.92-.54 18.82-2.56 16.73-9.73a4.38 4.38 0 0 0 -1.81-2.34 6.6 6.6 0 0 1 -.58-.41c-4.74-3.6-3.85-11 1.42-13.77 13.38-7 44.84-8.36 48.12-8.73 5.91-.68 17.27-9.06-10.28-12.44" fill="#b3d570"/><path d="m400 156.5c.37-21.75.68-53.39 0-86-27 1-51.26 6.78-58.83 17.22 0 0-5.5 6.56 10.1 9.12 16.7 2.75 21.5 13 5.21 21.83s-78.48 29.64-70.68 50.16c3.45 9.08 13.79 20.23 24.2 24.67 8.27-.24 13.31 1.18 16 1 11.8-.79 36.13 3 41 0 11.92-7.46 36.53 14.66 37-13" fill="#b3d570"/><path d="m210.17 74.67c17.49-9.39 181-9.72 203.17-10.24-.09-1.24-.2-2.45-.32-3.63-11.79-.59-131.61-4.2-189.6 2.37-12.65 1.43-23.27 4.64-32.54 7.22l3.3-3.14-21.46 2.21-2.16 1.76.21 6.8a3.18 3.18 0 0 0 .56 1.82c3.17 5.06 18.2 6.25 32.06 8.86 22.47 4.24 42.67 3.91 37.13 11.08-6 7.73-42.36 17.2-58.14 21.22-12.91 3.28-82.27 18.85-115.87 36.79 7.9 24.79 21.36 34.49 27.49 35.71 7 1.39 23.74-.59 41 0 15.82-10.12 41.42-24.39 70.44-34.52 73.56-25.65 101.56-39.41 100.37-53.12v-9.71l-11.81-1.29c-28.19-10.34-94.24-14.63-83.87-20.19" fill="#20552a"/><path d="m211.78 67.78c20.25-5.93 166.64-5.56 191.4-5.42 0-.18 0-.35-.06-.54-.06-.68 19.87-1.36 19.8-2-27-.33-195.16-1.86-241.81 5.66 0 0-12.34 2.06-10.3 6.39 2.55 5.42 17.76 6.33 31.6 9 15 2.93 43.27 3.82 38.55 12.38s-42.36 16.48-58.25 20c-11.79 2.75-161.71 39.25-179.71 77.25 2.91 40.12 87.72.55 95 2 2.49.49 4-.38 8 0 17.83-12.81 54.58-33.65 100.62-47.66 80.49-24.49 109.17-40.35 96.5-55.09s-114-15.33-91.34-22" fill="#b3d570"/><path d="m170.48 134.72s12.55 4.7-12.76 12-68.17 24.53-76.72 17.33c-2.53-2.12-6.4-5.87 14.69-12.36 0 0 51.66-18.26 74.83-17" fill="#20552a"/><path d="m82.58 159.37 18.67-6.18a2 2 0 0 1 1.26 3.85l-18.61 6.25a2.07 2.07 0 0 1 -1.3-3.93z" fill="#fff"/><path d="m130.46 143.6c4.78-1.36 13.64-4 18.47-5.25a1.91 1.91 0 0 1 .94 3.71c-4.77 1.24-13.58 4-18.31 5.35a2 2 0 0 1 -1.12-3.8z" fill="#fff"/><path d="m178.85 130.43c4.8-1.09 11.27-2.56 16-3.88a1.68 1.68 0 0 1 .92 3.24c-4.77 1.41-11.27 3-16.1 4.19a1.82 1.82 0 1 1 -.87-3.54" fill="#fff"/><path d="m219.23 119.56c4.67-1.57 10.52-3.72 15.07-5.58a1.45 1.45 0 0 1 1.11 2.67c-4.59 1.95-10.47 4.19-15.17 5.84a1.54 1.54 0 0 1 -2-.94 1.56 1.56 0 0 1 1-2" fill="#fff"/><path d="m254.68 104.93c2.16-1.15 4.27-2.37 6.3-3.7a37.33 37.33 0 0 0 5.63-4.44 1.22 1.22 0 0 1 1.73 1.73 39.5 39.5 0 0 1 -6 4.84c-2.09 1.42-4.25 2.71-6.45 3.93a1.33 1.33 0 0 1 -1.81-.52 1.35 1.35 0 0 1 .52-1.82" fill="#fff"/><path d="m265.13 87.29a26.13 26.13 0 0 0 -3.37-1.13l-.43-.12-.42-.09-.91-.17-1.82-.35-7.28-1.37a1 1 0 0 1 .36-2l7.34 1.28 1.83.32.92.16c.15 0 .32.06.49.1l.47.12a28 28 0 0 1 3.69 1.19 1.13 1.13 0 0 1 .61 1.46 1.11 1.11 0 0 1 -1.45.61" fill="#fff"/><path d="m236.31 81.16-14.56-3a.72.72 0 0 1 -.55-.85.71.71 0 0 1 .83-.55l14.59 2.74a.86.86 0 0 1 -.31 1.69" fill="#fff"/><path d="m207.24 74.87c-2.41-.58-4.83-1.16-7.22-1.86-1.19-.35-2.38-.73-3.56-1.18a17.71 17.71 0 0 1 -1.75-.75 6.15 6.15 0 0 1 -1.66-1.08.41.41 0 0 1 0-.59.41.41 0 0 1 .57 0 9.51 9.51 0 0 0 3.15 1.59c1.15.41 2.33.76 3.52 1.08 2.37.65 4.78 1.18 7.2 1.72a.55.55 0 0 1 .43.67.56.56 0 0 1 -.67.43" fill="#fff"/><path d="m206.09 64.78 7.45-.89a.19.19 0 0 1 .22.17.2.2 0 0 1 -.17.23l-7.42 1a.27.27 0 0 1 -.31-.23.27.27 0 0 1 .23-.31" fill="#fff"/><path d="m118.63 136c-.41 0-17.35 2.2-18.73 4.31s-1.23 7.9 4.07 7.66 22.8-4.89 22.8-4.89z" fill="#2d2d2d"/><g fill="#98999a"><path d="m93.22 134.2a19.23 19.23 0 0 0 2.78 3.8c.33.35.86-.18.53-.53a18.36 18.36 0 0 1 -2.62-3.68c-.23-.42-.88 0-.65.38"/><path d="m90.42 137a49.45 49.45 0 0 0 4.32 2.84.38.38 0 0 0 .38-.65 45.27 45.27 0 0 1 -4.32-2.84.37.37 0 0 0 -.51.13.39.39 0 0 0 .13.52"/><path d="m100.73 132.06c0 1.84-.11 3.69-.16 5.54 0 .48.73.48.75 0 .05-1.85.11-3.7.16-5.54 0-.48-.73-.48-.75 0"/><path d="m104.63 132.36a64.21 64.21 0 0 0 -2.35 6.43.37.37 0 0 0 .72.2 63 63 0 0 1 2.27-6.25c.19-.44-.45-.82-.64-.38"/><path d="m109.88 136.86a41.82 41.82 0 0 0 -4.47 2.29.38.38 0 0 0 .38.65 40.05 40.05 0 0 1 4.47-2.29.37.37 0 0 0 .14-.51.39.39 0 0 0 -.52-.14"/><path d="m106.17 142 5.7.12a.38.38 0 0 0 0-.75l-5.7-.12a.38.38 0 0 0 0 .75"/><path d="m100.08 148.08q-.7 4-1.43 8.07c-.08.47.64.67.73.2q.7-4 1.43-8.07c.08-.47-.64-.68-.73-.2"/><path d="m97.69 147.91a63 63 0 0 1 -3.69 7.09c-.25.41.4.79.65.38a64.67 64.67 0 0 0 3.73-7.09c.19-.44-.46-.82-.65-.38"/><path d="m95.8 146.06c-2.26 1.07-4.53 2.1-6.83 3.07-.44.18-.25.91.2.72 2.36-1 4.69-2 7-3.14.44-.21.06-.85-.37-.65"/><path d="m88.66 143.58a35 35 0 0 0 7.59-.24c.48-.07.27-.79-.2-.72a35.13 35.13 0 0 1 -7.39.21c-.48 0-.48.72 0 .75"/></g><path d="m157 94 3.27.1a1.25 1.25 0 0 1 .87.4l2.85 3a.6.6 0 0 1 -.37 1l-2.1.23z"/><path d="m163.47 119.68c-.12 1.77-.4 3.52-.51 5.29 0 .49.72.48.75 0 .11-1.77.39-3.52.51-5.29 0-.48-.72-.48-.75 0" fill="#98999a"/><path d="m168.43 122.33-3.33 2.78a.37.37 0 0 0 0 .53.39.39 0 0 0 .53 0l3.33-2.78a.38.38 0 0 0 0-.53.39.39 0 0 0 -.53 0" fill="#98999a"/><path d="m166.64 130.43a22.79 22.79 0 0 1 3.1 1.71.38.38 0 0 0 .38-.65 22.79 22.79 0 0 0 -3.1-1.71.38.38 0 0 0 -.38.65" fill="#98999a"/><path d="m165.39 131.82 2.58 3.52a.39.39 0 0 0 .52.14.37.37 0 0 0 .13-.51l-2.62-3.52a.37.37 0 1 0 -.65.37" fill="#98999a"/><path d="m162.45 132.47c0 1.95.06 3.9.08 5.86a.38.38 0 0 0 .75 0c0-2-.05-3.91-.08-5.86a.38.38 0 0 0 -.75 0" fill="#98999a"/><path d="m161 131.06-3.33 4a.38.38 0 0 0 0 .53.37.37 0 0 0 .53 0l3.33-4a.37.37 0 0 0 -.53-.53" fill="#98999a"/><path d="m159.49 128-4 .66a.37.37 0 0 0 -.26.46.39.39 0 0 0 .46.26l4-.66a.37.37 0 0 0 .26-.46.39.39 0 0 0 -.46-.26" fill="#98999a"/><path d="m157 125.21 3 1.71c.42.24.8-.41.38-.64l-3-1.71a.37.37 0 0 0 -.38.64" fill="#98999a"/><path d="m160.79 124.16s-2.87.55-2.44 4.82 3.35 5.38 5.25 4.65 4.27-1.78 3.23-6.6-6-2.87-6-2.87" fill="#98999a"/><path d="m162.25 124.28s-2.87.55-2.44 4.83 3.36 5.37 5.25 4.64 4.28-1.77 3.24-6.6-6.05-2.87-6.05-2.87" fill="#e8e8e8"/><path d="m160.06 130.46a4.46 4.46 0 0 0 2.73 3.3l2.61-3.95-1.08-1.07z" fill="#545454"/><path d="m166.3 137.54c-5 2.56-10.87-.31-10.93-5.2s-.29-12.32 7-13.37a7.43 7.43 0 0 1 7.33 4.52c1.89 4.22 1.13 11.75-3.36 14m4.59-20c-4.06-5.23-11.55-2-11.55-2-9.28 4.4-7.86 15.77-5.86 22.6 1.65 5.62 11.6 6.59 16.73 1.59s5.5-16 .68-22.24"/><path d="m166.11 136.93c-4.65 2.38-10.09-.28-10.15-4.82s-.27-11.44 6.47-12.41a6.89 6.89 0 0 1 6.8 4.19c1.74 3.92 1.05 10.91-3.12 13m2.58-16.18c-2.9-3.75-8.27-1.4-8.27-1.4-6.66 3.15-5.64 11.31-4.2 16.2 1.18 4 8.32 4.73 12 1.14s3.94-11.47.48-15.94" fill="#98999a"/><path d="m139.76 84.36-1.87-3.69.49-.27 1.94 3.77z" fill="#98999a"/><path d="m140.34 83.88-.76.33-.12 1.49 1.48.48.59-1.15z" fill="#333334"/><path d="m138.71 80.59-.91.48a1.3 1.3 0 0 0 -1.16-.2c-1.07.19-3.77.79-5.77-.11s-1.31-3.49 2-4.57 4.43 1.21 5 2.38.9 2 .9 2" fill="#333334"/><path d="m133.82 76.84a2.63 2.63 0 0 1 2.57 1.16 1.42 1.42 0 0 1 .24.84c-.07 1.06-2.62 2-4.35 1.66s-2.4-1.21-1.55-2.14a5.53 5.53 0 0 1 3.09-1.5" fill="#b3e7f3"/><path d="m155.01 86.58 2.12-4.38-.55-.37-2.2 4.46z" fill="#98999a"/><path d="m154.36 85.93.85.49.13 1.83-1.65.42-.65-1.46z" fill="#333334"/><path d="m162.52 115.12s1.71-1.59 9 2.2c0 0 2.1.79 1.46-2.08-.49-2.2-3.17-5.49-8.79-5.86-5.95-.39-1.71 5.74-1.71 5.74" fill="#b6202d"/><path d="m151.5 92s-10.72 3-12.19 3.61 1.94 5.62 3.18 7.32c3.54 4.89 4 22-1.35 28.71s11.36 7.57 15 5c0 0-2.2-10.51 0-16.13s7.45-9 8.67-13.68-13.31-14.83-13.31-14.83" fill="#6d0716"/><path d="m87 113.29-5.23 8.55a2.42 2.42 0 0 0 -.23.52l-3.54 12.24a2.15 2.15 0 0 0 3.89 1.74l6-9.6a2.16 2.16 0 0 1 .39-.46l9.43-8.47z" fill="#2d2d2d"/><path d="m85.89 108.85s-.82 4.56 2.6 6.51 19.39 5 19.39 5z" fill="#b6202d"/><path d="m87 104c-2.8.17-2.88 2.8-2.25 5.54a.43.43 0 0 1 0 .11c1 3.91 30.17 12.14 31.39 18.57s.33 11.32 7.74 10.18 14.33-3.09 15-4.23a17.57 17.57 0 0 1 0-10.18c1.71-5.3 8.72-18-.24-19.87-8.54-1.79-38.62-.91-51.64-.12" fill="#ee2737"/><path d="m138.79 133.93s-17.51 5.13-18.79 6.07c-.22.17-.12.8.27 1 2.29 1.4 7.7 5.73 9.61 5.07 3.75-1.31 25.49-6.52 27-7.9 1.92-1.72-1.14-2-4.07-2.2-4.11-.29-9.12-1.47-10.43-3.58-.38-.64-.28-.91-1.26-.86a24 24 0 0 0 -2.69.61l.25 1.41z" fill="#2d2d2d"/><path d="m124.9 138.21 8.35-.24a5.82 5.82 0 0 0 5.45-4.34l-8.43-6.42z" fill="#ee2737"/><path d="m135.34 132.7s-2 2.06-1.76 4 3.18 1.42 6.15 1 9.41-1.33 10.23-1.72 1.46-1.54.3-2.06-3.23-.56-5.68-1c-1.52-.3-1.46-.56-1.8-1.89s-7.44 1.72-7.44 1.72"/><path d="m85.76 104.06s1.49 3.31 2.74 3.76a61.21 61.21 0 0 0 8.3 2.25c.55 0 1.59-1.24.58-1.92l-7.5-1.54a10.25 10.25 0 0 1 -2.88-3.85l5.32 1.52 1.79-.32s-6-2.33-7.91-2.19-.39 2.29-.39 2.29" fill="#98999a"/><path d="m92.33 102.57a2.18 2.18 0 0 0 -2.2 2.37 2 2 0 0 0 .08.33c.4 1.3 29.07 5.13 35 5.78s17.43-1.39 17.92-2.85-1.22-5.13-5-5.62-19.87 0-21.58-.16c-1.51-.15-18.78.09-24.18.15" fill="#2d2d2d"/><path d="m109.18 122s11.92 4.29 13 6.64c2.2 4.64 2.77 12.74 2.77 12.74l-5-1-3.85-2.38s-.61-8-1.22-9.83c-.34-1-3.27-4.39-5.7-6.15" fill="#6d0716"/><path d="m154.09 136.25 4 1.1s-1.22-10.38.49-14.9 8.79-10.26 10.38-13 .37-5.86-5-10.26-8.79-7.08-9.77-7.08-2.32 2.68-1.46 3.42 10.14 6.71 9.4 8.3-6.72-1.22-8.55.49 3.91 8.18 2.08 10.63-6.6 13-1.59 21.25" fill="#ee2737"/><path d="m137.5 86.66s3.18-1.83 5-2.93a7.12 7.12 0 0 1 7.5.27 23 23 0 0 1 5.25 4c.86 1 3.3 3.55.73 5.87s-10.98 1.13-11.88 1.22-3.06 1.59-5.13.24-4.4-6.11-1.47-8.67" fill="#ee2737"/><path d="m138.72 88.86s2.81-3.79 6-3.79 5.25 1.22 5.62 4.28-5.5 4.15-9.41 3.17-2.2-3.66-2.2-3.66" fill="#b3e7f3"/><path d="m158.41 115s7 11.65 7.49 13.8c.45 1.83-1.67 2-2.24 1.22-1.07-1.37-8.19-13.92-8.19-13.92z" fill="#ee2737"/><path d="m156.31 81.77 1 .77s.43-.37 1.34 0c1.2.44 4.28 1.71 6.72 1s2-4.15-1.83-6.1-5.25.73-6 2.07-1.22 2.32-1.22 2.32" fill="#333334"/><path d="m162.09 77.93a2.84 2.84 0 0 0 -3.18 1 1.9 1.9 0 0 0 -.37 1c0 1.36 2.9 3.07 5 3s3.07-1.09 2.13-2.48a7.2 7.2 0 0 0 -3.6-2.52" fill="#b3e7f3"/><path d="m154.09 136.25 4.03 1.1-.85 1.59-27.65 8.02-9.37-5.94z" fill="#3a3a3a"/><path d="m164 99.24c-1.5-1.24-2.83-2.24-4-3.24h-.17s-1.46.74.82 2.12c2.09 1.27 5.76 4.81 7.8 5.69a21.8 21.8 0 0 0 -4.45-4.57" fill="#ffd51c"/><path d="m107.72 153.44a12.19 12.19 0 0 1 -15-.67 12.33 12.33 0 0 1 -3.5-14.54c2.22-5.52 7.89-8.51 14.66-6.37s8.88 8.27 8.74 13.16a11.93 11.93 0 0 1 -5 8.42m2.52-24.39a16.79 16.79 0 0 0 -13.52-2.85c-6.6 2-13.84 7.65-13.6 17.75s6.98 16.37 15.33 16.85 15.14-4.07 17.83-11.31a17.43 17.43 0 0 0 -5.94-20.44"/><path d="m94.52 153.46a11.29 11.29 0 0 1 -5.12-12.9 11.42 11.42 0 0 1 11-8.5c5.51-.22 10.2 3.43 11 10s-3.62 10.66-7.81 12.41a11.06 11.06 0 0 1 -9-1m18.49-7.7a12.51 12.51 0 0 0 -2.2-10.07c-3.4-3.87-9.45-7.08-16.25-3.82s-9 9.66-6.81 15.52a13.18 13.18 0 0 0 25.18-1.64" fill="#98999a"/><path d="m97.76 136.86s-3.76.29-3.83 5.83 3.53 7.38 6.07 6.72 5.74-1.66 5.1-8-7.34-4.55-7.34-4.55" fill="#98999a"/><path d="m99.62 137.22s-3.76.29-3.83 5.84 3.54 7.38 6.07 6.71 5.74-1.65 5.11-8-7.35-4.56-7.35-4.56" fill="#e8e8e8"/><path d="m100.7 142.34-4.84 2a6.12 6.12 0 0 0 2.68 4.9l3.55-5.49z" fill="#545454"/><path d="m103.08 143.34s.13-1-1.27-1.29-2.07.5-2 1.18.11 1.54 1.75 1.73 1.56-1.62 1.56-1.62" fill="#3a3a3a"/><path d="m166.36 128.81s.09-.6-.78-.8-1.28.31-1.26.73.06 1 1.08 1.07 1-1 1-1" fill="#6d0716"/><path d="m127.7 143.4a4.95 4.95 0 1 1 -5-5.13 5 5 0 0 1 5 5.13" fill="#2d2d2d"/><path d="m119.15 142.48-20.38 4.15a1.61 1.61 0 0 0 -1 .65l-1.68 2.36a1.61 1.61 0 0 0 .74 2.46l6.28 2.39a1.52 1.52 0 0 0 1.07 0l24.87-8-5-4.88z" fill="#3a3a3a"/><path d="m128.72 144.05a4.76 4.76 0 1 1 -4.76-5 4.86 4.86 0 0 1 4.76 5" fill="#3a3a3a"/><path d="m101.91 149.32 15.39-3.54c.47-.11.27-.84-.2-.73l-15.39 3.55c-.47.11-.27.83.2.72" fill="#2d2d2d"/><path d="m105 112.9c5.6.81 11.11 2.22 16.66 3.31a11 11 0 0 1 3.68 1.1 6.52 6.52 0 0 1 2.44 2.66c.47.93.88 1.88 1.32 2.83l1.61 3.44c.28.59 1.14.08.87-.5-.95-2-1.88-4.08-2.86-6.11a7.51 7.51 0 0 0 -5.11-4.07c-2.91-.63-5.84-1.18-8.75-1.8-3.18-.68-6.37-1.36-9.6-1.82-.63-.09-.9.87-.26 1" fill="#b6202d"/><path d="m85.17 112.61 8.48 3.09a1.71 1.71 0 0 1 .72 2.61l-3 4.12a1.43 1.43 0 0 1 -1.85.46l-7.5-4a1.6 1.6 0 0 1 -.45-2.19l2-3.45a1.33 1.33 0 0 1 1.57-.67"/><path d="m84.73 114.38c-.06-.29-.39-.27-.61-.21a2.21 2.21 0 0 0 -.91.68 7 7 0 0 0 -.55.76 2.06 2.06 0 0 0 -.38.82.48.48 0 0 0 .33.55 1 1 0 0 0 .74-.2 1.94 1.94 0 0 0 .61-.63c.1-.17.17-.41 0-.54s-.35 0-.5 0-.33.52 0 .53a1.17 1.17 0 0 1 -.35.28.6.6 0 0 1 -.21.08.35.35 0 0 1 -.14 0 1.57 1.57 0 0 1 .24-.5l.35-.51a2.65 2.65 0 0 1 .62-.63l.14-.08h.06.07a2.49 2.49 0 0 1 -.15.28.27.27 0 0 0 .05.36.22.22 0 0 0 .32-.09 1.32 1.32 0 0 0 .29-.89" fill="#e8e8e8"/><path d="m85.07 117.14a.63.63 0 0 1 -.35.11.33.33 0 0 1 0-.06 3.71 3.71 0 0 1 .33-.54 5.66 5.66 0 0 1 .34-.47 1.77 1.77 0 0 1 .44-.38.77.77 0 0 1 .23-.1h.06.09a.3.3 0 0 1 0 .08 5.08 5.08 0 0 1 -.38.53 3.07 3.07 0 0 1 -.75.81m1.19-.54a2.15 2.15 0 0 0 .49-.79.46.46 0 0 0 -.18-.53.23.23 0 0 0 -.14-.15 1.06 1.06 0 0 0 -.69.13 2 2 0 0 0 -.59.47 5.72 5.72 0 0 0 -.48.65 3.1 3.1 0 0 0 -.41.73.56.56 0 0 0 .19.64.75.75 0 0 0 .68 0 3.16 3.16 0 0 0 1.13-1.11" fill="#e8e8e8"/><path d="m88.24 115.9a4 4 0 0 0 -.85-.31.29.29 0 0 0 -.34.2.28.28 0 0 0 .16.36c.11 0 .22.06.33.09-.62.54-1.24 1.06-1.85 1.56a.32.32 0 0 0 0 .4.24.24 0 0 0 .36 0q1.11-.89 2.25-1.86a.31.31 0 0 0 0-.47" fill="#e8e8e8"/><path d="m89.61 117a.32.32 0 0 0 0-.57 6.31 6.31 0 0 0 -.68-.26c-.35-.12-.54.45-.19.57-.22.11-.43.23-.65.32s-.18.39 0 .52a1.06 1.06 0 0 1 .15.15s0 0 0 0a.14.14 0 0 1 0 .06.78.78 0 0 1 -.32.35 1.24 1.24 0 0 1 -.5.22.72.72 0 0 1 -.25 0 .26.26 0 0 0 -.34-.12.35.35 0 0 0 0 .57.83.83 0 0 0 .4.16 1.54 1.54 0 0 0 1-.25 1.41 1.41 0 0 0 .68-.76.74.74 0 0 0 -.07-.57 9 9 0 0 0 1-.44" fill="#e8e8e8"/><path d="m92.71 118a.36.36 0 0 0 -.41-.26l-1 .29-.3.09c.11-.14.23-.28.33-.43.25-.33-.3-.69-.54-.36-.67.9-1.33 1.78-2 2.63a.33.33 0 0 0 .08.44.28.28 0 0 0 .42-.05c.26-.34.52-.69.79-1a2.45 2.45 0 0 1 0 .38 1.55 1.55 0 0 0 .06.85.35.35 0 0 0 .43.18.33.33 0 0 0 .14-.44s0 0 0 0 0 0 0-.08v-.11a2.58 2.58 0 0 1 0-.39 1.56 1.56 0 0 0 -.06-.77l.21-.08s.13 0 .07 0h.09l.45-.13.94-.27a.33.33 0 0 0 .26-.4" fill="#e8e8e8"/><path d="m133.67 99.73s13.44 4.76 16.49 8.43-4.15 17.22-7 23.45c0 0-4.44 2.52-7.94.73 0 0 4.52-16.61 6-19.17a87.35 87.35 0 0 0 -9.89-2.69c-3.67-.61-19.1-1-20.65-6.19-.12-.43-1-3.34 0-4.24 4-3.4 23-.32 23-.32" fill="#006880"/><path d="m124.65 68.14c-.17.06-4.49 2.81-8.79 1.78s-4.55 5.11.41 6.13 12 .11 12.38-4.69-4-3.22-4-3.22"/><path d="m124.54 70.07s-10.6 4-15.87 21.82c0 0-1.75 5.81-.4 8.3.8 1.48 16 4.47 20.31 2.33 3.07-1.54 2.44-3.06 3.2-7.88s3-16.2 1.2-18.21-7.15-6-8.44-6.36" fill="#00a713"/><path d="m133 76.43-.52-.54-.14-.13c-.2-.19-.41-.39-.64-.59l-7.18 5.43c0 .17-6.49 13.68-10.1 21.65 5 1 11.6 1.58 14.18.28 3.07-1.54 2.44-3.06 3.2-7.88s3-16.2 1.2-18.21" fill="#007a0e"/><path d="m117.94 76.14c1.37.47 1.63 2.55.56 4.61a4.8 4.8 0 0 1 -3.22 2.69 1.52 1.52 0 0 0 -1.08 1.21.83.83 0 0 0 .29 1 .51.51 0 0 0 .3.06c1.83-.19 3.93-1.8 5.24-4.29 1.78-3.37 1.31-6.75-1-7.44h-.1a29.94 29.94 0 0 0 -2.09 2.19 1.86 1.86 0 0 1 1 0" fill="#e8e8e8"/><path d="m112.09 84.27a.48.48 0 0 0 .2.2c.35.19.88-.13 1.17-.7a1.26 1.26 0 0 0 .09-1.15 2.87 2.87 0 0 1 -.32-1.4c-.46.79-.92 1.63-1.37 2.52a3.25 3.25 0 0 0 .23.54" fill="#e8e8e8"/><path d="m115 81.89c.76.34 1.89-.34 2.52-1.55s.48-2.45-.31-2.74-1.88.43-2.48 1.59-.47 2.36.27 2.7" fill="#e8e8e8"/><path d="m140.51 63.88s2.59 8.91.13 10.81-8.79 1.26-10.52-1.06-3.58-7.67-.77-11.13 10.53-.9 11.16 1.38" fill="#f8a9af"/><path d="m134.52 65.29s3 2.76 2 6-7.33 9.25-14.68 9.5-6.06-5.41-3-6 6.28-1.08 9.24-4.46a22.78 22.78 0 0 1 6.44-5.06"/><path d="m141.28 62.71a4.19 4.19 0 0 0 0-.5 7.48 7.48 0 0 0 -5.14-6c-4.71-1.84-11.24-2-13.41 5.51-1.34 4.62-.43 7.55 1.23 9.24a9.07 9.07 0 0 0 3.49 2.11c2.08.7 7.37 1.75 9.68-.8a5 5 0 0 0 .38-6.19c-.57-.87-.57-1.61.67-1.73.62-.06 1.4-.1 2-.13a1.16 1.16 0 0 0 1.1-1.15z"/><path d="m129.28 66.62a1.67 1.67 0 1 1 1.49 1.84 1.67 1.67 0 0 1 -1.49-1.84m2.11-4.28a4.48 4.48 0 0 1 .84 8.74.91.91 0 0 1 -.33 0 .84.84 0 0 1 -.15-1.64 2.79 2.79 0 1 0 -2.14-.22.84.84 0 0 1 -.48 1.58 1.19 1.19 0 0 1 -.32-.1 4.48 4.48 0 0 1 2.58-8.39" fill="#00a713"/><path d="m136.36 56.13c-4.7-1.84-11.49-2-13.66 5.57-1.24 4.28-.55 7.11.88 8.84 0-.48-.12-1-.22-1.65a14.24 14.24 0 0 1 .2-5.63 7.1 7.1 0 0 1 3.44-4.62c6.52-3.28 10.89 3 10.89 3l3.17-.19a7.12 7.12 0 0 0 -4.74-5.29" fill="#00a713"/><path d="m133.3 64.5 6.7-7.5s5.6 2.87 4.51 8l-9.07 1.46s.11 1.32-1.54 1.4-1.71-2.47-.56-3.33" fill="#b3e7f3"/><path d="m128 76.72a3.67 3.67 0 0 1 5.29 1.55c2.12 3.58 5.21 10.67 6.92 11.73s9.69-1 11.08-1.14 2.2 5.21 2 6.35-12.29 3.26-14.73 2.93-10.26-5.62-12.56-10.34-2.12-8.55 2-11.08" fill="#007a0e"/><path d="m142.35 90.29a4.37 4.37 0 0 1 -2.17-.29c-1.71-1.06-4.8-8.15-6.92-11.73a3.66 3.66 0 0 0 -5.26-1.54c-4.07 2.52-4.23 6.35-2 11.07s10.09 10 12.54 10.34a10.25 10.25 0 0 0 1.91 0z"/><path d="m142.18 97.94 1.46-7.75a13.47 13.47 0 0 1 -2.22.09l-2.06 7.89a27.19 27.19 0 0 0 2.82-.23" fill="#a5a5a5"/><path d="m150.85 89.25a18.1 18.1 0 0 1 3.79-1.31c2-.43 2.9-.43 3.91 1s.95 3.66-.18 4.43a2.28 2.28 0 0 1 -2.36.06c-.39-.09-1.74 1.25-3.14-.43l-1.44 1.34z" fill="#f8a9af"/><path d="m153.21 95.21c.25-1.14-.56-6.52-2-6.35-.35 0-1.15.2-2.15.41a23.59 23.59 0 0 1 1.56 7.06c1.47-.4 2.48-.8 2.54-1.12"/><path d="m158.46 91.75a1.31 1.31 0 1 1 -1.31-1.3 1.31 1.31 0 0 1 1.31 1.3"/><path d="m127.89 73.64a14.44 14.44 0 0 0 7.77 0 .37.37 0 0 0 -.2-.72 13.7 13.7 0 0 1 -7.38 0 .37.37 0 0 0 -.19.72" fill="#98999a"/><path d="m85 79.93v-3a1.14 1.14 0 0 0 -1.12-1.13 1.16 1.16 0 0 0 -1.13 1.13v3a1.13 1.13 0 0 0 2.25 0" fill="#fff"/><path d="m80.92 72.92c-.48 0-1 0-1.44 0s-1 0-1.43.09a1.2 1.2 0 0 0 -.8.33 1.16 1.16 0 0 0 -.33.79 1.2 1.2 0 0 0 .33.8 1.14 1.14 0 0 0 .8.33c.47 0 1-.08 1.43-.09s1 0 1.44 0a1.13 1.13 0 0 0 0-2.25" fill="#fff"/><path d="m89.54 73c-1 0-1.92-.11-2.89-.14a1.12 1.12 0 0 0 -1.12 1.14 1.15 1.15 0 0 0 1.12 1.13c1 0 1.93.1 2.89.14a1.13 1.13 0 0 0 1.13-1.12 1.16 1.16 0 0 0 -1.13-1.15" fill="#fff"/><path d="m85 70.4c0-.76-.09-1.52-.13-2.29a1.13 1.13 0 0 0 -2.25 0c0 .77.1 1.53.13 2.29a1.2 1.2 0 0 0 .33.8 1.18 1.18 0 0 0 .8.33 1.13 1.13 0 0 0 1.12-1.13" fill="#fff"/><path d="m355.22 136v3a1.13 1.13 0 1 0 2.25 0v-3a1.13 1.13 0 0 0 -2.25 0" fill="#fff"/><path d="m359.27 143h1.44s1-.05 1.44-.09a1.11 1.11 0 0 0 1.12-1.12 1.11 1.11 0 0 0 -.33-.79 1.14 1.14 0 0 0 -.79-.34c-.48 0-1 .08-1.44.09s-1 0-1.44 0a1.12 1.12 0 0 0 -1.12 1.12 1.15 1.15 0 0 0 1.12 1.13" fill="#fff"/><path d="m350.65 142.93c1 0 1.93.11 2.89.15a1.13 1.13 0 1 0 0-2.25c-1 0-1.92-.11-2.89-.15a1.12 1.12 0 0 0 -1.12 1.12 1.15 1.15 0 0 0 1.12 1.13" fill="#fff"/><path d="m355.22 145.54c0 .76.1 1.53.13 2.29a1.17 1.17 0 0 0 .33.79 1.07 1.07 0 0 0 .79.33 1.09 1.09 0 0 0 .8-.33 1.11 1.11 0 0 0 .33-.79c0-.76-.1-1.53-.13-2.29a1.13 1.13 0 0 0 -.33-.79 1.07 1.07 0 0 0 -.79-.33 1.09 1.09 0 0 0 -.8.33 1.11 1.11 0 0 0 -.33.79" fill="#fff"/></g></svg>