<svg xmlns="http://www.w3.org/2000/svg" xmlns:xlink="http://www.w3.org/1999/xlink" width="194" height="32" viewBox="0 0 194 32">
    <defs>
        <path id="0tdp53twaa" d="M0.64 0.19L14.034 0.19 14.034 18.841 0.64 18.841z"/>
        <path id="skxdlopgfc" d="M0 0.683L31.278 0.683 31.278 30.976 0 30.976z"/>
        <path id="a5371fvvde" d="M0.853 0.384L10.258 0.384 10.258 27 0.853 27z"/>
        <path id="cph1rc5fjg" d="M0.092 0.373L19.953 0.373 19.953 27 0.092 27z"/>
    </defs>
    <g fill="none" fill-rule="evenodd">
        <g>
            <g>
                <g>
                    <path fill="#000" d="M140.658 12.44v8.635c0 .915.381 1.245 1.473 1.245h2.108v1.828h-2.134c-2.514 0-3.53-.889-3.53-3.099V12.44h-2.92v-1.753h2.92v-3.02h2.083v3.02h4.317v1.753h-4.317z" transform="translate(-172 -61) translate(172 60)"/>
                    <path fill="#000" d="M135.71 12.385h2.921v8.665c0 2.19.974 3.044 3.475 3.044h2.078v-1.72h-2.053c-1.114 0-1.528-.351-1.528-1.3v-8.69h4.317v-1.641h-4.317V7.72h-1.972v3.022h-2.921v1.642zm8.584 11.819h-2.188c-2.547 0-3.585-.914-3.585-3.154v-8.555H135.6v-1.862h2.921V7.61h2.192v3.022h4.317v1.862h-4.317v8.58c0 .89.357 1.19 1.418 1.19h2.163v1.939zM158.259 16.479c-.178-2.464-2.286-4.394-4.876-4.394-2.82 0-4.876 1.904-5.03 4.393h9.906zm-12.038 1.015c0-4.317 2.945-7.188 7.162-7.188 3.987 0 7.01 2.921 7.01 7.086v.764h-12.064c.025 2.716 2.285 4.596 5.079 4.596 2.108 0 3.785-.94 4.927-2.87l1.65 1.091c-1.421 2.363-3.707 3.556-6.577 3.556-4.317 0-7.187-2.767-7.187-7.035z" transform="translate(-172 -61) translate(172 60)"/>
                    <path fill="#000" d="M148.413 16.424h9.786c-.205-2.407-2.309-4.284-4.816-4.284-2.707 0-4.787 1.798-4.97 4.284zm9.905.11h-10.023l.004-.058c.158-2.576 2.296-4.447 5.084-4.447 2.585 0 4.752 1.953 4.931 4.446l.004.059zm-4.935-6.172c-4.25 0-7.108 2.867-7.108 7.132 0 4.24 2.8 6.98 7.133 6.98 2.863 0 5.11-1.204 6.503-3.484l-1.559-1.03c-1.136 1.89-2.8 2.847-4.944 2.847-2.902 0-5.11-2-5.135-4.652V18.1h12.064v-.707c0-4.074-2.925-7.031-6.954-7.031zm.025 14.223c-2.138 0-3.954-.67-5.252-1.933-1.303-1.27-1.99-3.053-1.99-5.158 0-2.123.696-3.94 2.016-5.252 1.308-1.301 3.107-1.99 5.201-1.99 4.093 0 7.064 3.003 7.064 7.14v.818h-12.062c.053 2.562 2.203 4.486 5.023 4.486 2.121 0 3.763-.956 4.88-2.842l.028-.05.05.032 1.694 1.12-.027.046c-1.41 2.344-3.702 3.583-6.625 3.583zM162.832 17.418c0-4.089 3.072-7.111 7.187-7.111 3.327 0 6.07 1.88 6.832 4.851l-2.006.508c-.687-2.388-2.49-3.53-4.826-3.53-2.92 0-5.105 2.056-5.105 5.282s2.185 5.283 5.105 5.283c2.336 0 4.139-1.142 4.826-3.53l2.006.508c-.762 2.971-3.505 4.85-6.832 4.85-4.115 0-7.187-2.997-7.187-7.111" transform="translate(-172 -61) translate(172 60)"/>
                    <path fill="#000" d="M170.019 10.362c-1.978 0-3.787.713-5.098 2.006-1.311 1.296-2.034 3.09-2.034 5.05 0 1.97.723 3.766 2.034 5.06 1.308 1.286 3.119 1.996 5.098 1.996 3.348 0 5.997-1.865 6.765-4.756l-1.901-.48c-.673 2.27-2.397 3.518-4.864 3.518-3.037 0-5.16-2.195-5.16-5.338 0-3.143 2.123-5.338 5.16-5.338 2.467 0 4.19 1.25 4.864 3.52l1.9-.482c-.767-2.892-3.416-4.756-6.764-4.756m0 14.223c-2.01 0-3.848-.72-5.175-2.03-1.333-1.312-2.067-3.137-2.067-5.137 0-4.085 3.113-7.166 7.242-7.166 3.42 0 6.124 1.92 6.886 4.891l.013.055-.053.013-2.058.521-.016-.052c-.646-2.25-2.34-3.49-4.772-3.49-2.973 0-5.05 2.15-5.05 5.228s2.077 5.227 5.05 5.227c2.432 0 4.126-1.239 4.772-3.49l.016-.052.052.014 2.059.521-.013.054c-.762 2.972-3.465 4.893-6.886 4.893M179.696 5.608h2.082v6.756h.051c1.067-1.32 2.794-2.058 4.775-2.058 3.81 0 6.374 2.312 6.374 5.74v8.102h-2.082v-7.695c0-2.693-1.677-4.318-4.419-4.318-2.743 0-4.699 1.828-4.699 4.42v7.593h-2.082V5.608z" transform="translate(-172 -61) translate(172 60)"/>
                    <g transform="translate(-172 -61) translate(172 60) translate(179 5.363)">
                        <mask id="8milehui8b" fill="#fff">
                            <use xlink:href="#0tdp53twaa"/>
                        </mask>
                        <path fill="#000" d="M11.952 18.73h1.972v-8.046c0-3.4-2.54-5.684-6.32-5.684-1.962 0-3.686.742-4.732 2.036l-.017.02h-.132V.3H.753v18.43h1.97v-7.54c0-2.634 1.956-4.474 4.754-4.474 2.76 0 4.475 1.676 4.475 4.373v7.64zm2.082.11h-2.193v-7.75c0-2.67-1.63-4.262-4.364-4.262s-4.643 1.795-4.643 4.364v7.649H.64V.19h2.194v6.719c1.07-1.284 2.804-2.02 4.77-2.02 3.846 0 6.43 2.329 6.43 5.795v8.157z" mask="url(#8milehui8b)"/>
                    </g>
                    <path fill="#00AA13" d="M9.775 16.685c0-3.238 2.627-5.865 5.866-5.865 3.238 0 5.865 2.627 5.865 5.865 0 3.239-2.625 5.865-5.865 5.865s-5.866-2.626-5.866-5.865" transform="translate(-172 -61) translate(172 60)"/>
                    <g transform="translate(-172 -61) translate(172 60) translate(0 .363)">
                        <mask id="ef4sjm437d" fill="#fff">
                            <use xlink:href="#skxdlopgfc"/>
                        </mask>
                        <path fill="#00AA13" d="M15.639.683c-8.637 0-15.64 7.002-15.64 15.64 0 6.483 3.916 12.017 9.602 14.425.359.148.743.226 1.132.228 1.619 0 2.932-1.314 2.932-2.933 0-1.18-.711-2.247-1.798-2.705v-.002C8.343 23.86 5.866 20.38 5.866 16.32c0-5.399 4.375-9.776 9.776-9.776 5.4 0 9.775 4.377 9.775 9.776 0 4.06-2.477 7.54-6.001 9.016v.002c-1.493.628-2.194 2.347-1.566 3.84.455 1.085 1.518 1.794 2.695 1.796.389-.002.774-.08 1.132-.228 5.684-2.408 9.6-7.945 9.6-14.426 0-8.637-7-15.639-15.638-15.637" mask="url(#ef4sjm437d)"/>
                    </g>
                    <path fill="#000" d="M61.856 14.95c0-5.195 4.11-9.207 9.833-9.207 5.755 0 9.833 4.012 9.833 9.207 0 5.196-4.078 9.21-9.833 9.21-5.723 0-9.833-4.014-9.833-9.21m14.8 0c0-2.829-1.943-4.932-4.967-4.932-3.024 0-4.966 2.106-4.966 4.932 0 2.827 1.942 4.935 4.966 4.935s4.966-2.106 4.966-4.935" transform="translate(-172 -61) translate(172 60)"/>
                    <g transform="translate(-172 -61) translate(172 60) translate(79 5.363)">
                        <mask id="csvokn3lvf" fill="#fff">
                            <use xlink:href="#a5371fvvde"/>
                        </mask>
                        <path fill="#000" d="M.853 22.558h2.631c1.415 0 1.907-.526 1.907-1.775V.384h4.867V20.85c0 4.31-1.743 6.151-6.381 6.151H.853v-4.442z" mask="url(#csvokn3lvf)"/>
                    </g>
                    <g transform="translate(-172 -61) translate(172 60) translate(39 5.363)">
                        <mask id="ur3mup795h" fill="#fff">
                            <use xlink:href="#cph1rc5fjg"/>
                        </mask>
                        <path fill="#000" d="M15.252.373V2.43h-.066C13.927 1.103 11.841.377 9.358.377 4.029.377.092 4.351.092 9.48c0 5.33 4.039 9.235 9.432 9.235 2.415 0 4.435-.762 5.662-2.119h.066v1.773c0 2.384-2.052 4.139-4.766 4.139-2.737 0-4.329-.773-5.713-2.093l-3.168 3.05C3.728 25.72 6.93 27 10.587 27c5.561 0 9.366-3.73 9.366-8.695V.375L15.252.373zm-.198 10.167c0 2.15-2.185 3.874-4.966 3.874-3.145 0-5.097-1.854-5.097-4.932 0-2.845 2.086-4.8 5.295-4.8 2.548 0 4.766 1.786 4.766 3.806l.002 2.052z" mask="url(#ur3mup795h)"/>
                    </g>
                    <path fill="#000" d="M102.2 20.21c-2.92 0-5.21-1.885-5.273-3.716h14.141v-1.38c0-5.228-3.618-9.374-9.473-9.374-5.524 0-9.47 3.88-9.47 9.242 0 5.526 4.162 9.176 10.281 9.176 3.75 0 6.438-1.797 7.841-3.52l-3.299-2.311c-1.465 1.37-2.797 1.886-4.749 1.884m-.504-10.523c2.597 0 4.407 1.347 4.637 3.388h-9.34c.264-2.041 2.074-3.388 4.703-3.388M113.936 1L118.633 1 118.662 13.076 118.725 13.076 126.59 5.699 132.887 5.699 124.737 13.416 132.856 24.145 127.231 24.145 121.656 16.391 121.594 16.391 118.633 19.192 118.633 24.158 113.936 24.158z" transform="translate(-172 -61) translate(172 60)"/>
                </g>
            </g>
        </g>
    </g>
</svg>
