<svg id="Layer_1" data-name="Layer 1" xmlns="http://www.w3.org/2000/svg" viewBox="0 0 332.97 437.47"><defs><style>.cls-1{fill:#33bede;}.cls-2{fill:#66cee6;}.cls-3{fill:#2d2d2d;}.cls-4{fill:#545454;}.cls-5{fill:#e7e7e7;}.cls-6{fill:#860f59;}.cls-7{fill:#df1995;}.cls-8{fill:#ed7f32;}.cls-9{fill:#f4bd48;}.cls-10{fill:#fff;}.cls-11{font-size:20px;fill:#fcfafa;stroke:#f9f9f9;font-family:MaisonNeueMono-Regular, Maison Neue Mono;letter-spacing:0.13em;}.cls-11,.cls-12{stroke-miterlimit:10;}.cls-12{fill:#ea1b34;stroke:#020202;stroke-width:3px;}.cls-13{fill:#f7f7f7;}</style></defs><rect class="cls-1" x="-0.03" width="333" height="439"/><path class="cls-2" d="M331.56,434.94c0,.85,0,1.69,0,2.53H1.44c0-.84,0-1.68,0-2.53a165.07,165.07,0,0,1,330.14,0Z"/><path class="cls-3" d="M79,468.89s-14.84-1.54-7.42-42.36,47-270,47-270l86.87-26.32s47-19.84,45.86,20.55L217.18,465.88s-1.69,15.87-27.77,11.6q-16.35-2.67-32.92-3.72Z"/><path class="cls-4" d="M70.68,464.37S55.84,462.83,63.26,422s47-270,47-270l87.68-23s51.45-13.94,45,17.23L208.9,461.36s-1.69,15.87-27.77,11.6q-16.35-2.67-32.92-3.72Z"/><path class="cls-5" d="M79.76,454.27a12.58,12.58,0,0,1-11.19-8.54c-1.88-5.69-2.65-15.28.28-31.41,7-38.26,44.05-253.11,44.05-253.11l82.2-21.56S246.6,123,237.33,155.8l-32,295.41s-1.58,14.88-26,10.87q-15.33-2.5-30.86-3.49Z"/><path class="cls-6" d="M137.95,123.9h29.46a0,0,0,0,1,0,0v29.78a12,12,0,0,1-12,12h-5.46a12,12,0,0,1-12-12V123.9A0,0,0,0,1,137.95,123.9Z"/><path class="cls-7" d="M166.91,123.9h27.75a0,0,0,0,1,0,0v29.78a12,12,0,0,1-12,12h-3.75a12,12,0,0,1-12-12V123.9A0,0,0,0,1,166.91,123.9Z"/><polygon class="cls-7" points="194.66 123.9 243.66 140.39 237.49 211.05 194.66 151.25 194.66 123.9"/><polygon class="cls-6" points="55.19 126.01 112.03 142.9 100.29 209.63 55.19 153.35 55.19 126.01"/><path class="cls-7" d="M55.19,123.9H82.94a0,0,0,0,1,0,0v29.78a12,12,0,0,1-12,12H67.19a12,12,0,0,1-12-12V123.9a0,0,0,0,1,0,0Z"/><path class="cls-6" d="M82.94,123.9h27.75a0,0,0,0,1,0,0v29.78a12,12,0,0,1-12,12H94.94a12,12,0,0,1-12-12V123.9A0,0,0,0,1,82.94,123.9Z"/><path class="cls-7" d="M110.69,123.9h27.75a0,0,0,0,1,0,0v29.78a12,12,0,0,1-12,12h-3.75a12,12,0,0,1-12-12V123.9A0,0,0,0,1,110.69,123.9Z"/><path class="cls-8" d="M292.49,222.33h0c-.61,5.43-6.9,11-15.56,13.3s-17,.52-20.17-4h0a3.51,3.51,0,0,1-.85-1.57,16.71,16.71,0,0,1-.47-2.07l-1.91-5.25,4-1.12c2.62-3.6,7.49-6.77,13.48-8.35,5.7-1.51,11.22-1.27,15.23.33l3.77-1.05,1.19,4.72Z"/><ellipse class="cls-9" cx="272.09" cy="218.77" rx="18.95" ry="11.56" transform="translate(-46.9 76.86) rotate(-14.82)"/><path class="cls-8" d="M257,225.22a10.37,10.37,0,0,0,8.32,4.46,19.58,19.58,0,0,0,5.23-.53,15.61,15.61,0,0,0,4.67-2,1.5,1.5,0,0,0-1.52-2.59,12.54,12.54,0,0,1-3.53,1.57,18.17,18.17,0,0,1-4.28.53,7.4,7.4,0,0,1-6.3-3,1.54,1.54,0,0,0-2.05-.54,1.53,1.53,0,0,0-.54,2.06Z"/><path class="cls-8" d="M44.94,445.73h0c-4.47,3.14-12.82,2.14-20.27-2.82S13,430.54,14.26,425.19h0a3.47,3.47,0,0,1,.62-1.68,16.25,16.25,0,0,1,1.23-1.72l2.66-4.91,3.5,2.25c4.43-.43,10,1.11,15.2,4.55,4.9,3.26,8.38,7.54,9.85,11.62l3.29,2.12-2.75,4Z"/><ellipse class="cls-9" cx="34.08" cy="428.11" rx="11.56" ry="18.95" transform="translate(-341.29 219.45) rotate(-56.38)"/><path class="cls-8" d="M19.22,421.18a10.52,10.52,0,0,0,2.56,9.54A20.78,20.78,0,0,0,25.5,434a15.77,15.77,0,0,0,4.42,2.06c1.84.59,2.63-2.31.8-2.9a12.06,12.06,0,0,1-3.53-1.63,18.6,18.6,0,0,1-3-2.61,7.52,7.52,0,0,1-2.07-7c.46-1.87-2.43-2.67-2.9-.79Z"/><path class="cls-8" d="M304.76,353h0c-.84,7.45-9.47,15.12-21.35,18.26s-23.35.71-27.69-5.46h0a4.81,4.81,0,0,1-1.17-2.17,23.17,23.17,0,0,1-.65-2.83l-2.62-7.21,5.51-1.54c3.6-4.94,10.27-9.29,18.51-11.47,7.82-2.07,15.39-1.74,20.9.47l5.18-1.45,1.63,6.48Z"/><ellipse class="cls-9" cx="276.77" cy="348.1" rx="26.02" ry="15.87" transform="translate(-79.82 82.35) rotate(-14.82)"/><path class="cls-8" d="M257.55,356.81a13.64,13.64,0,0,0,10.93,5.85,26.37,26.37,0,0,0,7-.71,20.78,20.78,0,0,0,6.28-2.63,1.5,1.5,0,0,0-1.52-2.59,17.67,17.67,0,0,1-5,2.2,24.88,24.88,0,0,1-6,.75c-3.62,0-7-1.32-9.12-4.39-1.09-1.58-3.69-.08-2.59,1.52Z"/><path class="cls-8" d="M66.81,304.53h0c-5.95,4.54-17.46,3.61-27.95-2.8S22.19,285.36,23.64,278h0a5,5,0,0,1,.76-2.35,23,23,0,0,1,1.6-2.42l3.39-6.88,4.92,2.92c6.06-.83,13.82,1,21.09,5.43,6.9,4.22,11.9,9.91,14.12,15.42l4.63,2.74-3.56,5.66Z"/><ellipse class="cls-9" cx="50.98" cy="280.92" rx="15.87" ry="26.02" transform="translate(-215.32 177.95) rotate(-58.57)"/><path class="cls-8" d="M31.39,273.08a13.8,13.8,0,0,0,3.73,12.37,27.08,27.08,0,0,0,5,4.17,20.79,20.79,0,0,0,6.23,2.69,1.5,1.5,0,0,0,.8-2.89A17.74,17.74,0,0,1,42,287.27a26,26,0,0,1-4.36-3.52c-2.6-2.66-4.14-6.11-3.36-9.87.4-1.89-2.49-2.69-2.89-.8Z"/><path class="cls-10" d="M266.05,123a8.73,8.73,0,0,0,7.91-6.81c.17-.86.38-1.94,1.23-2.12a1.48,1.48,0,0,1,1.53,1.12,15.2,15.2,0,0,1,.31,2c.44,2.37,2.84,3.86,5.17,4.45a5.46,5.46,0,0,1,2.14.82,1.5,1.5,0,0,1,.4,2,2.16,2.16,0,0,1-1,.53,11.16,11.16,0,0,0-4.52,2.23c-1.53,1.53-1.91,3.84-2.88,5.78a1.33,1.33,0,0,1-.47.6c-.54.31-1.23-.2-1.4-.79a7.07,7.07,0,0,1,0-1.84,5.33,5.33,0,0,0-2.75-4.2,25,25,0,0,0-4.84-2c-.45-.16-.95-.41-1-.87s-.18-.54.21-1"/><path class="cls-10" d="M30.34,375a8.73,8.73,0,0,0,7.91-6.82c.17-.85.38-1.93,1.23-2.11A1.49,1.49,0,0,1,41,367.15a14.09,14.09,0,0,1,.31,2.05c.44,2.36,2.84,3.86,5.17,4.45a5.44,5.44,0,0,1,2.14.81,1.5,1.5,0,0,1,.4,2,2,2,0,0,1-1,.52,11.18,11.18,0,0,0-4.51,2.23c-1.54,1.53-1.92,3.84-2.89,5.79a1.33,1.33,0,0,1-.47.6c-.53.31-1.23-.2-1.4-.79a6.73,6.73,0,0,1,0-1.85,5.34,5.34,0,0,0-2.76-4.2,25.58,25.58,0,0,0-4.84-2c-.45-.16-1-.41-1-.88s-.17-.53.21-1"/><path class="cls-10" d="M285.75,331.59a3.51,3.51,0,0,0,3.17-2.73c.06-.34.15-.78.49-.85a.58.58,0,0,1,.61.45,5.4,5.4,0,0,1,.13.82,2.61,2.61,0,0,0,2.07,1.78,2.3,2.3,0,0,1,.86.33.6.6,0,0,1,.16.81.92.92,0,0,1-.39.21,4.72,4.72,0,0,0-1.81.89,8.38,8.38,0,0,0-1.15,2.32.51.51,0,0,1-.19.24c-.22.13-.49-.08-.56-.31a3,3,0,0,1,0-.74,2.14,2.14,0,0,0-1.1-1.69,10.25,10.25,0,0,0-1.94-.79c-.18-.06-.38-.16-.42-.35s-.07-.21.09-.39"/><rect class="cls-6" x="110.75" y="262.93" width="86.51" height="40.76" rx="12" transform="translate(23.45 -11.54) rotate(4.65)"/><rect class="cls-7" x="107.46" y="258.16" width="86.51" height="40.76" rx="12" transform="translate(23.05 -11.29) rotate(4.65)"/><path d="M117.05,256.63a204.39,204.39,0,0,1,15.36-20.72q4.11-4.93,8.39-9.71a113.79,113.79,0,0,1,8.22-8.78c2.53-2.28,5.8-4.4,9.37-3.74s6.14,3.42,8.3,6a116.79,116.79,0,0,1,13,20.45,182.23,182.23,0,0,1,10.8,25.53c.62,1.82,3.52,1,2.9-.79-5.58-16.34-13-32.4-23.65-46.1-2.25-2.9-4.86-5.8-8.29-7.28a11.68,11.68,0,0,0-10.68.83c-3.45,2-6.12,5.07-8.77,8-3.06,3.36-6.07,6.75-9,10.21a221.48,221.48,0,0,0-18.56,24.56c-1,1.63,1.55,3.13,2.59,1.51Z"/><circle cx="157.92" cy="212.85" r="5.24"/><text class="cls-11" transform="translate(121.12 282.17) rotate(5.62)">OPEN</text><path class="cls-12" d="M167.78,340.42c-1,10.34-12.25,39.09-22.59,38.09s-15.87-31.37-14.86-41.72a18.81,18.81,0,1,1,37.45,3.63Z"/><circle class="cls-13" cx="148.73" cy="341.91" r="7.32"/></svg>