<svg xmlns="http://www.w3.org/2000/svg" width="59" height="59" viewBox="0 0 59 59">
    <g fill="none" fill-rule="evenodd">
        <g>
            <g transform="translate(-1261 -890) translate(1261 890)">
                <circle cx="29.5" cy="29.5" r="29.5" fill="#00AA13"/>
                <path fill="#FFF" d="M39.417 33c-1.612 0-2.917-1.307-2.917-2.917 0-1.61 1.305-2.916 2.917-2.916 1.612 0 2.916 1.306 2.916 2.916 0 1.61-1.304 2.917-2.916 2.917m-9.334 0c-1.612 0-2.916-1.307-2.916-2.917 0-1.61 1.304-2.916 2.916-2.916 1.612 0 2.917 1.306 2.917 2.916C33 31.693 31.695 33 30.083 33m-10.5 0c-1.612 0-2.916-1.307-2.916-2.917 0-1.61 1.304-2.916 2.916-2.916 1.612 0 2.917 1.306 2.917 2.916 0 1.61-1.305 2.917-2.917 2.917M29.5 12C19.835 12 12 19.837 12 29.5c0 3.407.989 6.578 2.674 9.268l-2.643 7.257c-.164.559.347 1.082.933.956l8.085-2.158C23.557 46.207 26.434 47 29.5 47 39.165 47 47 39.163 47 29.5S39.165 12 29.5 12"/>
            </g>
        </g>
    </g>
</svg>
