<svg id="Layer_1" data-name="Layer 1" xmlns="http://www.w3.org/2000/svg" xmlns:xlink="http://www.w3.org/1999/xlink" viewBox="0 0 500 315"><defs><style>.cls-1{fill:none;}.cls-2{clip-path:url(#clip-path);}.cls-3{fill:#ccf28b;}.cls-10,.cls-11,.cls-12,.cls-13,.cls-14,.cls-15,.cls-16,.cls-17,.cls-18,.cls-19,.cls-20,.cls-21,.cls-22,.cls-23,.cls-24,.cls-25,.cls-26,.cls-27,.cls-28,.cls-29,.cls-30,.cls-31,.cls-4,.cls-5,.cls-6,.cls-7,.cls-8,.cls-9{fill-rule:evenodd;}.cls-5{fill:#023138;}.cls-6{fill:#00520a;}.cls-7{fill:#00660c;}.cls-8{fill:#f09a00;}.cls-9{fill:#f8a9af;}.cls-10{fill:#007a0e;}.cls-11{fill:#a5a5a5;}.cls-12{fill:#004656;}.cls-13{fill:#00aa13;}.cls-14{fill:#ffd51c;}.cls-15{fill:#ffb31c;}.cls-16{fill:#00cc18;}.cls-17{fill:#04ca17;}.cls-18{fill:#f07600;}.cls-19{fill:#02acd4;}.cls-20{fill:#66cee6;}.cls-21{fill:#b3e7f3;}.cls-22{fill:#ffe985;}.cls-23{fill:#0089a9;}.cls-24{fill:#b1e5f1;}.cls-25,.cls-34{fill:#fff;}.cls-26{fill:#f08800;}.cls-27{fill:#f06400;}.cls-28{fill:#772583;}.cls-29{fill:#c05000;}.cls-30{fill:#5f1e69;}.cls-31{fill:#e8e8e8;}.cls-32{clip-path:url(#clip-path-2);}.cls-33{fill:#ff2c59;}.cls-35{clip-path:url(#clip-path-4);}.cls-36{clip-path:url(#clip-path-6);}</style><clipPath id="clip-path"><rect class="cls-1" x="-1" width="500" height="315"/></clipPath><clipPath id="clip-path-2"><rect class="cls-1" x="235.07" y="82.93" width="24.13" height="30.27" transform="translate(120.54 331.87) rotate(-83.21)"/></clipPath><clipPath id="clip-path-4"><rect class="cls-1" x="407.61" y="140.11" width="11.76" height="25.02" transform="translate(176.4 524.18) rotate(-77.72)"/></clipPath><clipPath id="clip-path-6"><rect class="cls-1" x="118.76" y="187" width="27.04" height="16"/></clipPath></defs><g class="cls-2"><ellipse class="cls-3" cx="258.5" cy="332" rx="213" ry="191.5"/></g><g id="core_spot_hero_spot_hero_welcome_screen_main_page" data-name="core/spot_hero/spot_hero_welcome_screen_main_page"><path id="Fill-3" class="cls-4" d="M77.73,251.83s-5-11.25-7.6-12.74-3.46.1-3.16,1.29,3,7.5,3,7.5S64,237.22,61.64,236.13a2.56,2.56,0,0,0-3.46,1.29l4.25,10.76S57.2,239,55,239s-3,.49-3.16,1.18,4.74,11.65,5.93,13,18.46,6.61,18.46,6.61Z"/><path id="Fill-5" class="cls-5" d="M463.37,324.28a21.86,21.86,0,0,0-2.63-4.37l-47.82-57.09-28.17-10.66-87.13,7.5-9.74,59.25c16.15.16,32,.28,47.05.31,13.47-11.58,26.66-23,26.66-23l2.89.13,22.78,22.51c25-.46,43.93-1.46,52.31-3.29,5.31-1.16,9.87,5.13,14.43,3.4"/><path id="Fill-7" class="cls-6" d="M367.64,260.19c-.53.52-39.48,13.82-69.1,7.23s10.27-19.34,10.27-19.34Z"/><path id="Fill-9" class="cls-7" d="M295.25,257.82s48.18,21.32,104.51,1.84c0,0,28.16-28.43,36.32-49,0,0,14.22,25.8,22.64,28.16s19.74,1.58,21.85-7.63-.53-50-.53-50L459,185.17s-4-11.85-21.58-21.06-56.86-16.59-69.5-10.27-56.06,43.43-56.06,43.43Z"/><path id="Fill-11" class="cls-5" d="M437.58,137.71a70.8,70.8,0,0,1-1.19-21.77l10,1c-.13,15.56-5.08,21-8.79,20.82"/><path id="Fill-13" class="cls-8" d="M430.55,262.55s1.06,2.24,0,2.77-31.19,5.66-58,5.53c0,0-14.74,2.23-17.9,2.1s-15.79-6.45-13.69-8.95,58.18-9.74,66.86-8.95,22.77,7.5,22.77,7.5"/><path id="Fill-15" class="cls-4" d="M442.74,108.11s-1.86,35.54.91,52.31c3.75,22.71,2,43.63-17.57,56.66,0,0-5.73,3.55-5.53-8.09.23-13.43-6.12-42.65-6.32-51.53s16.39-52.12,16.39-52.12Z"/><path id="Fill-17" class="cls-4" d="M480.57,231.23c.79-3.46.91-11.36.76-19.88l-26.23,9.78,1.24-40.9a43,43,0,0,0-7.06-8c-.71,6.36-3.43,27.08-10.57,43,4.51,7.51,13.82,21.88,20,23.62,8.42,2.37,19.74,1.58,21.85-7.63"/><path id="Fill-19" class="cls-5" d="M110.91,317.05c27-.13,66.26.43,108.5,1l.3-36.29s-59.49,10.79-60.28,11.32c-.47.32-27.17,13.46-48.52,24"/><path id="Fill-21" class="cls-9" d="M66.87,145.32s-7-17.47-11.35-19.74-7.41-.1-7.41-.1-4.54-3.26-7.1-2a12.28,12.28,0,0,1-3.66,1.39S25.8,122.22,24.13,122s-2.67,2.57-.4,4.15a49.84,49.84,0,0,0,7.8,3.65A18.38,18.38,0,0,1,38,138.51c1.77,5.53,4.14,11.55,15.1,11.45l3.85,2.86Z"/><path id="Fill-23" class="cls-7" d="M111.39,183.13s-21.62.09-23.3-.4S65.78,143,65.78,143l-15.69,9.28S61.24,195,67.86,206.32s36.22,9.58,42.15,8.1,1.38-31.29,1.38-31.29"/><path id="Fill-25" class="cls-4" d="M108.86,183.13c-5.76,0-19.45,0-20.77-.4-.54-.16-3-4.33-6.17-9.9L62.34,193.21a84.22,84.22,0,0,0,5.52,13.11c3.38,5.82,12.8,8.18,22,8.91-1.39-12.94,12.66-26.63,19-32.1"/><path id="Fill-27" class="cls-9" d="M98.75,253.6l-7.7.1s-3.75-6.31-12.83-3.55c0,0-5.23-5.33-8.49-4.74s-1.58,3.65-.89,4.64,5,5.43,5,5.43a16,16,0,0,1-7.7-.59c-3.65-1.38-15-7.9-18.66-7.41s-3.35,2.37-2.47,3.06,22.61,13.82,25.08,15.9,13.62,4.24,23.29,2.37,11.45-1.09,11.45-1.09Z"/><path id="Fill-29" class="cls-10" d="M123.63,189.44s-11.26,60.22,14,97.73,80.75-18.56,80.75-18.56-6.51-59.43-11.84-63.18S182.06,196,182.06,196Z"/><path id="Fill-31" class="cls-11" d="M155.29,206.81s1.83,10.16,5,10.94l-4.43,9.12s-4.68-7.55-5.47-14.33Z"/><path id="Fill-33" class="cls-7" d="M138.21,216.43a172.65,172.65,0,0,0,31.35,76.26c1.27,1.75,4.22.06,2.92-1.71a170.64,170.64,0,0,1-31-75.45c-.32-2.16-3.59-1.24-3.27.9"/><path id="Fill-35" class="cls-7" d="M131.25,275.6a79.44,79.44,0,0,0,5.52,10.18l17.65-22.44,43.18,6.59,1.84-12.11L151,254.92Z"/><path id="Fill-37" class="cls-10" d="M187.2,204.45s-16.68-8.2-25.57,9.08-18.75,37.11-19,37.31S99.74,253,97.67,253.6c0,0-.3,22.12.19,23.89s44.92,2.17,57.26-.59S191,238.6,194.4,230.11s5.53-20.43-7.2-25.66"/><path id="Fill-39" class="cls-4" d="M196.12,213.06c-15.08,9.87-33.83,11.83-40.49,12.22-6.83,13.43-12.82,25.41-13,25.56s-3.67.26-8.78.54l12.54,26.67a70.89,70.89,0,0,0,8.78-1.15c12.34-2.76,35.83-38.3,39.28-46.79,2.11-5.17,3.68-11.62,1.72-17.05"/><path id="Fill-41" class="cls-12" d="M303,248.08l-109.11.39s-11.37,41.73-11.4,69.09c40.67.52,87.37,1.27,130,1.56Z"/><path id="Fill-43" class="cls-4" d="M298,72.37c-.59,0,1.43,11.85,10.66,26.85,4.74,7.7,6.32,14.61,7.31,24.28s-24.29-15-24.29-15l-2.76-43.24Z"/><path id="Fill-45" class="cls-5" d="M110.11,179.17a72.74,72.74,0,0,0,4.65-21.83l-10.24-.62c-2.33,15.76,1.8,22.06,5.59,22.45"/><path id="Fill-47" class="cls-4" d="M113.16,144.63s-12.63,51.53-13.62,71.27,11.25,31,19.15,31.19,9.87-7.9,10.27-15.6,5.13-30,5.13-30Z"/><path id="Fill-49" class="cls-9" d="M113.66,153.91s-3,41.26,2.37,50.24,17.37,7.4,23.19,6.91l-.29,3.46s17-3.85,19.64-18-.69-42.74-.69-42.74Z"/><path id="Fill-51" class="cls-4" d="M129.06,174.87c-.81,1.39-1.64,2.78-2.42,4.19a29.78,29.78,0,0,0-2.21,4.41c-.64,1.88-.11,4.06,1.88,4.81a3.24,3.24,0,0,0,4.26-2.37,1.37,1.37,0,0,0-.93-1.64,1.34,1.34,0,0,0-1.64.93c-.07.35-.21.57-.45.62a.57.57,0,0,1-.66-.32c-.43-.92.59-2.34,1-3.11,1.1-2.1,2.29-4.13,3.48-6.18a1.33,1.33,0,0,0-2.3-1.34"/><path id="Fill-57" class="cls-7" d="M133,211.26s-3.85-.69-3.36,6.32c0,0,.1,2.36,5.53,3s21.22-2.56,23.29-20.53h-1.18A27.31,27.31,0,0,1,133,211.26"/><path id="Fill-59" class="cls-9" d="M440.82,113s-3.16,36.85-7.77,44.88-12.76,9.48-25.93,6.84l-5.52,3.43s-7.9-4.08-11.06-15.67-1.71-30.92-1.71-30.92l3.95-18Z"/><path id="Fill-61" class="cls-4" d="M419.16,133c.54,2.32,1.09,4.65,1.52,7,.16.9.61,2.34.06,3.07s-1.1.12-1-.57a1.34,1.34,0,0,0-1.33-1.33,1.36,1.36,0,0,0-1.34,1.33,3.23,3.23,0,0,0,3.5,3.47c2.09-.2,3.15-2.13,3.09-4.08a29,29,0,0,0-.82-4.87c-.33-1.58-.71-3.15-1.08-4.73s-3-1-2.57.71"/><path id="Fill-67" class="cls-6" d="M394,156.57s10.16,9.77,23.39,9.48c0,0,4.64,7.7-1.28,11.35s-21.72-3.85-26.65-14.61,4.54-6.22,4.54-6.22"/><path id="Fill-69" class="cls-13" d="M409.1,187.8s5-14.88,11.58-16.32c0,0,4.87,7.24,1.45,22.11s-13-5.79-13-5.79"/><path id="Fill-71" class="cls-14" d="M413.71,188.32s.84-4.6,2.81-5.52-.42-2.37,2-2.9,1-2.5,3.09-3.55.14-2.37,2.26-2.77,1.83-2.1,3.52-2.63,1.27-2,2.67-1.45,1,1.19,1.41,2.5,1.27,3,1,4.35,1.41,2.76,1.27,4.74.28,2.63-.43,3.94,1.27,2.37.14,3.69-.7,3.55-1.69,3.95-15.21.65-15.21.65Z"/><path id="Fill-73" class="cls-15" d="M428.18,181.3a6.26,6.26,0,0,0-2.65.67A3.15,3.15,0,0,0,424,184.4a4.54,4.54,0,0,0,.15,1.32l.12.56c.06.24,0-.2,0,0a1.29,1.29,0,0,1,0,.28c0,.25,0,0,0-.07s0,.17-.06.23c-.05.26.13-.24,0,0a2.39,2.39,0,0,1-.13.21c-.13.22.21-.2,0,0,0,0-.17.14-.17.17s.26-.19,0-.05-.37.18,0,0a1.44,1.44,0,0,0-.8.61,1.33,1.33,0,0,0-.13,1,1.35,1.35,0,0,0,1.64.93,3.3,3.3,0,0,0,1.89-1.7,3.18,3.18,0,0,0,.32-1.39,5.94,5.94,0,0,0-.2-1.33c0-.16-.05-.35-.1-.51.09.27,0,.13,0,0v-.09c0-.12,0-.12,0,0s0,.12,0,0,0-.11,0,0-.05.12,0,0a.43.43,0,0,0,0-.07l.09-.13a1.71,1.71,0,0,1-.11.14s.14-.14.17-.17c.19-.17-.24.14,0,0l.18-.1c.26-.14-.14,0,0,0l.23-.08a5.57,5.57,0,0,0,.6-.13l-.16,0,.2,0,.31,0a1.5,1.5,0,0,0,.94-.39,1.38,1.38,0,0,0,.39-1,1.35,1.35,0,0,0-1.33-1.33"/><path id="Fill-75" class="cls-16" d="M425.29,189.25s7.11-6.59,9.87-5.53c0,0,.66,7-2.37,10.13s-7.5-4.6-7.5-4.6"/><path id="Fill-77" class="cls-17" d="M392.52,177.4s.92-9.48,5.92-7.63-5,10.39-5,10.39,6.71-7.24,11.32-5.26-.66,5.92-8.95,6.45-3.42-3.42-3.42-3.42Z"/><path id="Fill-79" class="cls-4" d="M391.73,121.13s8.68,29.82-1.58,48.37S348.69,163,348.69,163s20.14-15.4,24.48-36.53,18.56-5.33,18.56-5.33"/><path id="Fill-81" class="cls-17" d="M361.94,173.14s-2.14-12.09,4-14.23,1.39,6.64-4,14.23"/><path id="Fill-83" class="cls-17" d="M362.15,172.71s-.53-10.37-3.42-10.59-4.28,2.46-2.14,5.35a27.08,27.08,0,0,0,5.56,5.24"/><path id="Fill-85" class="cls-18" d="M369.86,195.39s4.06-23.53-3.43-24.39-10.05,4.5-10.05,10.06,2.35,18.61,2.35,18.61Z"/><path id="Fill-87" class="cls-19" d="M378.1,174.9a7.4,7.4,0,0,1-1.64,5.4c-2,2.23-8.16,7-6.71,13s32.11-4.48,32.11-4.48,2.63-5-4.74-8.22-7.83-8.56-7.83-8.56Z"/><path id="Fill-89" class="cls-20" d="M376.53,168.91l-1.78.86s1.38,6.25,2.56,6.71,9.61,0,12.64-3.55c0,0,1.32-.2-1.18-7.05Z"/><path id="Fill-91" class="cls-21" d="M377,166.91s-3.95,2.39-1.48,3.54c2.21,1,9.28-.11,11.75-1.72s2.36-4.07-1.09-4a21.1,21.1,0,0,0-9.18,2.14"/><path id="Fill-93" class="cls-22" d="M344,195.56l58.24-11.25a4.33,4.33,0,0,1,2.57-.4c1.58.2-1.78,74-2.77,75.81s-59.75,8.1-59.75,8.1S338.82,208,344,195.56"/><polygon id="Fill-95" class="cls-10" points="350.53 239.13 333.55 216.23 313.81 224.91 313.02 230.57 335.53 260.45 349.48 253.08 350.53 239.13"/><path id="Fill-97" class="cls-9" d="M354.87,245.84a4.64,4.64,0,0,0,3.69,1c3.67-.41,20.27-2.37,22.77-2a2.9,2.9,0,0,1,.92,5.4c-2.5,1.71-11.19,3.81-11.19,3.81l14.35,7.24s7-.53,8.42-.13-.52,3.16-3.81,4.61l-3.3,1.44s.27,3.29-4.47,3.95l-3.82-.26s-1.58,2.5-5.66,2.24-9.21.52-12.1-.53-7.51-1.19-16.06-12.64L340.13,254l11.32-12Z"/><path id="Fill-99" class="cls-4" d="M350.4,238.86l7.24,7.51L340.4,267l-6.72-8.95s9.22-15,16.72-19.22"/><path id="Fill-101" class="cls-4" d="M381.88,260.87c1.31.8,2.73,1.37,4,2.18a1.35,1.35,0,0,0,1.82-.48,1.37,1.37,0,0,0-.47-1.83c-1.31-.8-2.74-1.37-4-2.18a1.36,1.36,0,0,0-1.83.48,1.37,1.37,0,0,0,.48,1.83"/><path id="Fill-103" class="cls-4" d="M373.27,268l10.26.88a1.34,1.34,0,0,0,0-2.67l-10.26-.88a1.34,1.34,0,0,0,0,2.67"/><path id="Fill-105" class="cls-4" d="M369.32,271.73c2.34.08,4.67.21,7,.38a1.34,1.34,0,0,0,1.33-1.34,1.36,1.36,0,0,0-1.33-1.33c-2.34-.17-4.67-.29-7-.38a1.33,1.33,0,0,0-1.33,1.33,1.36,1.36,0,0,0,1.33,1.34"/><path id="Fill-107" class="cls-9" d="M456.61,188.46s-.26-7.11-1.31-8.56-8.43-10.13-6.45-16.06c0,0,3.42-5.92,4.08-7.37s3.55-25.93,4.73-28a2.81,2.81,0,0,1,4.74-.53c1.19,1.45-.13,17.38-.13,17.38s8-13.3,10-15.67,4.08-2.1,5.14,0-7.5,17.51-7.5,17.51,3.29-2.24,5.13-.4.26,5.27.26,5.27,4.74-2.24,6.06.39-2.5,7.24-2.5,7.24,3.94,7.5-.27,12c0,0-4.21,3.82-4.47,4.47s1.58,11.06,1.58,11.06Z"/><path id="Fill-109" class="cls-4" d="M161.73,165.36s-15.2,23.49-4.54,35.93,27.44-2.37,27.44-2.37l14,2.76a26.6,26.6,0,0,0-19.74-19.74Z"/><path id="Fill-111" class="cls-12" d="M445.1,104.89c-4.17-7.71-10.23-16.55-17.21-19.46h0c-12.05-5-26.87-6.84-38.8-1.35-24.43,11.25-22.91,34.33-21.94,43.42,1,9.46,7.51,16,17.93,13.69,10-2.22,6.33-26.39,6.17-29,0-.12,0-.18,0-.18l13,.62s23.77,1,36,3.71l5.83.48a4.55,4.55,0,0,1,0,.53l.33,0a37.21,37.21,0,0,0-1.29-12.46"/><path id="Fill-113" class="cls-17" d="M377.56,98.93a6.22,6.22,0,0,0-6.1.88,34.07,34.07,0,0,1,4.8-6.66c4.14-.73,8.64.26,10.3,3.76,2.36,4.93,1.34,12.81-2.11,19.49s-9.24,7.73-12.62,7.22-3.56-3.37-3-5,1.29-2.34,4-2.09,6.83-1.32,8.2-6.35.58-9.52-3.41-11.24"/><path id="Fill-115" class="cls-5" d="M393.26,139.66c-4.72,4.66-13,1.9-14,1.89.35-.69,14.09,1.11,11.58-29.55a13.72,13.72,0,0,0,.33-2.74l7.3.68c.15,2.65.86,23.7-5.25,29.72"/><path id="Fill-117" class="cls-17" d="M437.39,115.76c-5.35-1-12.09-1.67-18.09-2.17.62-6.74,0-16.47-6.59-23.83-4-4.5-9.32-7.59-14-8.53,8.41-1.46,17.56,0,25.64,2.85,11.71,9.1,13.38,23,13.05,31.68"/><path id="Fill-119" class="cls-19" d="M427.88,85.43c-1.44.19-3,.44-4.66.73C404,89.56,388.11,100,388.11,100c-13.64,7.33-12.19,21.46-5.29,20.35s6.67-8.1,6.67-8.1l1.75,0,54.82,5.16.33,0c0-.42,2.48-23.11-18.51-31.92"/><path id="Fill-121" class="cls-23" d="M441.17,116.83,421.85,115c.81-6.74-2.12-17.42-9.14-25.23-.26-.29-.53-.57-.79-.83a101.07,101.07,0,0,1,11.3-2.77c1-.18,2-.35,3-.49,10.33,9.34,15.35,23,14.95,31.16"/><path id="Fill-123" class="cls-24" d="M453.24,117.74l-6.85-.39c0-.35-.54-23.21-18.51-31.92,15.09-2,18.67.36,23.7,8.78,4.36,7.31,4.11,16,4.24,21.09a2.37,2.37,0,0,1-2.58,2.44"/><path id="Fill-125" class="cls-17" d="M370,106.15c-.87,2.59,0,5.21,2,5.87s4.23-.92,5.1-3.5,0-5.21-2-5.86-4.24.91-5.1,3.49"/><path id="Fill-127" class="cls-12" d="M107.7,144.79c5.43-7.13,13-15.12,20.49-17h0c13-3.16,28.26-2.66,39.45,4.78C190.57,147.85,185.38,171,183,180c-2.52,9.42-10.12,15-20.3,11-9.75-3.83-2.22-27.68-1.65-30.34a1.08,1.08,0,0,0,.05-.17l-13.23-1.44s-24.2-2.7-37-1.94l-6-.43c0,.17-.09.34-.12.53l-.34,0a38,38,0,0,1,3.28-12.4"/><path id="Fill-129" class="cls-17" d="M176.94,149.45a6.37,6.37,0,0,1,6,1.85,34.49,34.49,0,0,0-3.8-7.48c-4.07-1.4-8.77-1.11-11,2.16-3.16,4.62-3.38,12.75-.95,20.05s8.12,9.28,11.62,9.3,4.13-2.85,3.87-4.59-.94-2.57-3.69-2.74-6.71-2.42-7.3-7.72.92-9.72,5.23-10.83"/><path id="Fill-131" class="cls-5" d="M154.61,188.16c4,5.46,12.82,4,13.83,4.12-.24-.76-14.43-1.1-7-31.72a14.11,14.11,0,0,1,.11-2.82l-7.5-.46c-.57,2.65-4.61,23.83.6,30.88"/><path id="Fill-133" class="cls-17" d="M113.77,157c5.57-.13,12.49.22,18.64.66.44-6.91,2.59-16.66,10.44-23.06,4.81-3.9,10.63-6.2,15.52-6.4-8.28-2.81-17.77-2.76-26.38-1.17-13.28,7.34-17.17,21.1-18.22,30"/><path id="Fill-135" class="cls-19" d="M128.19,127.83c1.43.43,2.95.92,4.6,1.49,18.9,6.47,33.33,19.5,33.33,19.5,12.63,9.56,8.93,23.63,2.12,21.41s-5.46-9.25-5.46-9.25l-1.76-.32-56.26-3.45-.34,0c.08-.42,1.15-23.77,23.77-29.36"/><path id="Fill-137" class="cls-23" d="M109.79,157.48l19.82,1.21c.25-6.95,4.91-17.29,13.24-24.08.31-.25.62-.48.93-.71a100.62,100.62,0,0,0-11-4.58c-1-.36-2-.69-3-1-11.92,7.81-19.16,20.8-20,29.14"/><path id="Fill-139" class="cls-24" d="M97.43,156.49l7,.7c.08-.36,4.22-23.39,23.77-29.36-14.93-4.43-18.94-2.59-25.35,5.13-5.57,6.71-6.68,15.49-7.63,20.66a2.41,2.41,0,0,0,2.22,2.87"/><path id="Fill-141" class="cls-17" d="M183.46,158c.46,2.75-.84,5.26-2.92,5.61s-4.13-1.59-4.6-4.34.84-5.27,2.92-5.62,4.13,1.6,4.6,4.35"/><path id="Fill-143" class="cls-13" d="M171.53,72.63s-40.79,18-49.75,28.3-8.42,22.38-4.47,28.43,49,22.11,79.76,29.48c0,0,2.37,20.53.26,29.75s-9.21,25-5.79,42.64c2,10.38,1.05,23.58,4,16.32,0,0,92.39,11.32,109.24-1.84v-2.37s27.38,2.63,42.64-16.59,12.11-60.27,1.85-82.39-29.22-28.69-47.39-34-72.65-6.32-74-6.32S206,108.57,206,108.57l-46.33.79,15.79-9.22s6.85-9.74-3.95-27.51"/><path id="Fill-145" class="cls-4" d="M304.87,146.72q3.78,12.47,7.55,24.92c.63,2.09,3.91,1.2,3.27-.9q-3.76-12.47-7.55-24.93c-.63-2.08-3.9-1.19-3.27.91"/><path id="Fill-147" class="cls-10" d="M250.07,122.17c-7.91,14-12.72,29.46-16.91,44.93-4.11,15.22-8.12,30.55-10.15,46.2a117.41,117.41,0,0,0-.79,26.09c.2,2.16,3.6,2.18,3.39,0-1.43-15.48,1.07-31,4.45-46.12a438.12,438.12,0,0,1,12.16-44.65A144.08,144.08,0,0,1,253,123.88c1.07-1.9-1.86-3.62-2.93-1.71"/><path id="Fill-149" class="cls-25" d="M265.4,154.85a4.49,4.49,0,1,1,4.49,4.52,4.5,4.5,0,0,1-4.49-4.52m4.48-12A12,12,0,0,1,274.5,166a2.31,2.31,0,0,1-.86.17,2.26,2.26,0,0,1-.87-4.34h0a7.48,7.48,0,1,0-5.77,0h0a2.29,2.29,0,0,1,1.38,2.09,2.25,2.25,0,0,1-2.25,2.25,2.31,2.31,0,0,1-.86-.17,12,12,0,0,1,4.61-23.14"/><path id="Fill-151" class="cls-4" d="M306.57,236.76s5-26.59,5.79-26.85-78.7-26.32-78.7-26.32l-40,18a81.72,81.72,0,0,0-2.92,16.59L233.92,196Z"/><path id="Fill-153" class="cls-11" d="M197.13,159.37c.15,1.38.55,5.35.82,10.09,13-11.67,26.23-39.84,26.23-39.84l-7.11-9.74a120.75,120.75,0,0,1-17.9,34Z"/><path id="Fill-155" class="cls-11" d="M292.36,117.78s1.05,32.9,15.79,45L296,166s-13.68-13.43-11.32-49Z"/><path id="Fill-157" class="cls-4" d="M214.44,106.92l-1,0c-4.08.87-7.43,1.61-7.43,1.61l-46.33.78c-16,5.44-29-6.49-33.9-12a28.68,28.68,0,0,0-4,3.61c-8.94,10.27-8.42,22.38-4.47,28.43,2.87,4.41,27.48,14.1,52.54,21.9,9.94-28.23,44.59-44.34,44.59-44.34"/><path id="Fill-159" class="cls-4" d="M344.46,136.06c-1.21,7.12-6.63,20.91-29.33,33.64l2,32.18L354,214.08c7.19-21.11,3.55-51.7-4.81-69.72a57.22,57.22,0,0,0-4.76-8.3"/><path id="Fill-161" class="cls-4" d="M304.73,243.34s-4.61-.79-4-7.7S306.44,225,313,222.22s9.67.78,9.87,4.93-1.38,13.82-9.48,16.39c0,0-6.38,1-8.62-.2"/><path id="Fill-163" class="cls-4" d="M166.45,105.41l9-5.27s6.84-9.74-3.95-27.51c0,0-4.25,1.89-10.31,4.78-2.51,6.81-5.75,18.82-.28,25a8.88,8.88,0,0,0,5.51,3"/><path id="Fill-165" class="cls-5" d="M223.11,74.43a81.87,81.87,0,0,0,5.23-24.56l-11.53-.7c-2.62,17.73,2,24.81,6.3,25.26"/><path id="Fill-167" class="cls-4" d="M224.51,43.55S216.22,83.62,204,110.87c-9.63,21.42,9.28,62.19,19,58.44s24.68-44.62,26.26-63S235,40.78,235,40.78Z"/><path id="Fill-169" class="cls-9" d="M228.1,45.21s-6.47,37.17-1.62,53.34,19.94,12.91,19.94,12.91l.4,6.45s20.07,1.65,29.77-9.67c0,0,11.31-53.33,1.61-63s-50.1,0-50.1,0"/><polygon id="Fill-171" class="cls-4" points="259.98 108.04 252.61 120.94 246.82 117.91 246.42 111.46 259.98 108.04"/><path id="Fill-173" class="cls-4" d="M241.79,72.07c-.67,1.86-1.34,3.72-2,5.59a32.78,32.78,0,0,0-1.64,5.7c-.32,2.2.51,4.64,2.93,5.15a3.72,3.72,0,0,0,4.44-3.66,1.33,1.33,0,0,0-2.66,0,1,1,0,0,1-2,.49c-.64-1.24.22-3.06.59-4.27.85-2.79,1.84-5.54,2.82-8.29a1.33,1.33,0,0,0-2.57-.71"/><path id="Fill-177" class="cls-10" d="M245.37,113s-5.79.53-5.92,8.69,5.53,7.76,8.82,7.63,22.77-2.9,28.82-14.61L275,106.46s-12.89,9.74-28.16,9.08l-.26-2.9Z"/><path id="Fill-179" class="cls-4" d="M285.12,57s-18.76,24.28-13.43,51.33,29.81,10.07,33,3-13.22-32.37-15.2-48S285.12,57,285.12,57"/><path id="Fill-181" class="cls-12" d="M220.4,35.74c6.11-8,14.58-17,23-19.08h0c14.61-3.56,31.8-3,44.39,5.38,25.8,17.14,20,43.14,17.24,53.31-2.83,10.59-11.39,16.88-22.84,12.38-11-4.3-2.5-31.14-1.86-34.13a1.22,1.22,0,0,0,.05-.19l-14.88-1.62s-27.23-3-41.6-2.18l-6.72-.49c0,.19-.1.39-.14.59l-.39,0a43.11,43.11,0,0,1,3.7-13.95"/><path id="Fill-183" class="cls-17" d="M298.3,41a7.18,7.18,0,0,1,6.79,2.09,38.61,38.61,0,0,0-4.27-8.42c-4.58-1.58-9.87-1.25-12.4,2.43-3.55,5.19-3.8,14.34-1.07,22.55s9.14,10.45,13.08,10.47,4.65-3.2,4.36-5.16-1.06-2.9-4.16-3.09-7.54-2.72-8.21-8.68,1-10.94,5.88-12.19"/><path id="Fill-185" class="cls-5" d="M273.19,84.54c4.54,6.14,14.41,4.47,15.55,4.63-.27-.85-16.23-1.24-7.92-35.68a15.36,15.36,0,0,1,.12-3.18l-8.43-.52c-.64,3-5.2,26.81.68,34.75"/><path id="Fill-187" class="cls-17" d="M227.23,49.49c6.27-.14,14.05.25,21,.74.5-7.77,2.91-18.74,11.75-25.94,5.41-4.4,11.95-7,17.46-7.21-9.31-3.16-20-3.1-29.68-1.32C232.78,24,228.41,39.5,227.23,49.49"/><path id="Fill-189" class="cls-19" d="M243.45,16.66c1.61.48,3.32,1,5.18,1.67,21.27,7.29,37.5,21.94,37.5,21.94,14.21,10.76,10.05,26.59,2.39,24.09S282.37,54,282.37,54l-2-.36-63.3-3.89-.39,0c.1-.47,1.3-26.74,26.75-33"/><path id="Fill-191" class="cls-23" d="M222.75,50l22.3,1.36c.28-7.82,5.52-19.45,14.9-27.09.34-.28.7-.55,1.05-.81a115.17,115.17,0,0,0-12.37-5.15c-1.16-.4-2.27-.77-3.33-1.09C231.88,26,223.74,40.64,222.75,50"/><path id="Fill-193" class="cls-24" d="M208.85,48.91l7.85.78c.09-.4,4.76-26.32,26.75-33-16.8-5-21.31-2.92-28.52,5.77-6.27,7.55-7.52,17.43-8.59,23.25a2.72,2.72,0,0,0,2.51,3.23"/><path id="Fill-196" class="cls-17" d="M305.64,50.55c.52,3.1-.94,5.93-3.28,6.33s-4.65-1.8-5.18-4.89.95-5.93,3.28-6.32,4.65,1.79,5.18,4.88"/><path id="Fill-198" class="cls-9" d="M171.53,72.63s21.24-11.49,30.1-14.21c8.46-2.61,15.42-6.54,27.81-7.4a3.21,3.21,0,0,1,3.37,2.18,5,5,0,0,1-3.1,5.85l-4.09.8s3.87,3.63-1.88,5.87-8,3-8,3,3.22,2.51.39,4.48c-2.15,1.51-6.52,3.8-9.25,6.62S196.57,90.56,185,89.68c0,0-2.55-1.24-5.47-2.5l-9.68,5.53s-2.09-13.16,1.71-20.08"/><path id="Fill-200" class="cls-10" d="M192.82,243.6s72.43,6.85,110.86.27c0,0,3.5,0,3.47,4.65a5.38,5.38,0,0,1-4.52,5.23c-9.19,1.55-34.85,5.05-68.44,2.75-42.39-2.9-42.91-1.31-42.91-6.58s1.54-6.32,1.54-6.32"/><polygon id="Fill-202" class="cls-14" points="220.5 160.95 354.21 162.53 355.27 221.49 221.06 221.75 220.5 160.95"/><polygon id="Fill-204" class="cls-26" points="297.82 221.6 297.82 208.93 293.92 212.09 290.24 209.43 287.3 212.29 284.3 209.33 281.4 211.56 278.31 209.43 278.31 221.64 297.82 221.6"/><polygon id="Fill-206" class="cls-15" points="220.5 160.95 212.6 163.58 213.12 222.81 221.06 221.75 220.5 160.95"/><polygon id="Fill-208" class="cls-26" points="213.13 222.81 221.06 221.75 355.27 221.49 347.63 223.99 213.65 223.79 213.13 222.81"/><polygon id="Fill-210" class="cls-27" points="295.95 223.91 297.82 221.6 287.86 221.62 278.31 221.64 276.64 223.89 295.95 223.91"/><path id="Fill-212" class="cls-4" d="M266.46,224.19s-5.43-2.86-7.2-.3,5.23,5.93,7.2,6.62,11.35,3.75,11.35,3.75Z"/><path id="Fill-214" class="cls-9" d="M273.17,222.91s-7-3-8.78,0,16.09,14.31,18.75,16.18,14.61,2.77,19.75,1.29c0,0,9.77,0,11.35-7.9a4.62,4.62,0,0,0-1.58-3.55s9.77-4.74,7.3-6.52-8.39-1.08-17.17,1.78c0,0-4.74,1.48-7.21,1.28s-4.93-.59-12.44-3.26-10.36-1.18-10,.7"/><path id="Fill-216" class="cls-11" d="M154.42,112.84l3.76-2.76c-13.13-.78-23.29-12-27-16.57a60.78,60.78,0,0,0-7.64,5.63c8.17,14,30.83,13.7,30.83,13.7"/><path id="Fill-218" class="cls-11" d="M61.28,190.15c1,2.84,1.92,5.53,2.86,7.94l19.91-21.52c-1.16-2-2.49-4.37-3.9-6.9Z"/><path id="Fill-220" class="cls-11" d="M141.39,278.39c3.79-.22,7.22-.5,10-.86l-12.68-26.42-10,.54Z"/><path id="Fill-222" class="cls-4" d="M109,252.74c-6,.36-10.64.68-11.28.87,0,0-.3,22.11.19,23.88.16.57,4.79,1,11.4,1.22Z"/><path id="Fill-224" class="cls-4" d="M65.78,143l-15.69,9.28s.89,3.42,2.32,8.59c4.26-2.3,13.28-7.12,17.79-9.53-2.6-4.87-4.42-8.34-4.42-8.34"/><path id="Fill-226" class="cls-12" d="M276.43,82.64s3.06,4.44,7.21,5.52c0,0-13.72,31.59-40.18,24.68l3.75-1.48s23.6-2,29.22-28.72"/><path id="Fill-228" class="cls-12" d="M159,188.06s3.45,3.36,6.21,4.05c0,0-13.72,22.9-30.3,19.35l3.45-2.28s16.59-7,20.64-21.12"/><path id="Fill-230" class="cls-12" d="M391.63,136a11.27,11.27,0,0,1-6.52,5.82s.79,23.79,25.67,24l1.08-.1a46.54,46.54,0,0,0-5-3c-1.77-.79-11.48-2.66-15.23-26.75"/><path id="Fill-232" class="cls-4" d="M480,181.22l-24.55,4.47-.69,11.06,25.82-5.15c-.3-6.1-.58-10.38-.58-10.38"/><path id="Fill-234" class="cls-11" d="M481.24,207.44l-26.73,10.83v6.51l26.86-10.4c0-2.26-.07-4.59-.13-6.94"/><path id="Fill-236" class="cls-15" d="M39.53,143.58c-.73-.07-8.56-2.7-9.22-4.61s1.19-6.45,1.19-6.45l9.28,5.26s-.53,5.86-1.25,5.8M29.18,128.33c-3.45.12-3.11,8.39-3.45,9.66s-16.55,14.25-17,16.43S5.84,202,6.19,204s17.24,9.2,19.65,9.77S37.8,189,37.8,189l9-53.1s-14.14-7.7-17.58-7.59"/><path id="Fill-238" class="cls-18" d="M42.45,147.49s3-11.45,4.31-11.57,6.21,13,6.21,13L68.25,159a5,5,0,0,1,2.26,4.15c.07,10.34.31,47.24-.19,48.52-.57,1.5-43.44,3.22-45.28,2s1.38-51,1.38-51.34,16-14.79,16-14.79"/><path id="Fill-240" class="cls-9" d="M36.47,126.47s-6.82,4.54-6.42,6a29,29,0,0,0,4.14,7.1c1.58,2,2.47-.39,2.47-.39s2.07,2.86,3.75,2.47.89-2.57.89-2.57l-1.77-3.45,6.21-3.76Z"/><path id="Fill-242" class="cls-25" d="M27.54,258.77,29,263.61a10.67,10.67,0,0,0,7.25,7.25L41,272.27a1.52,1.52,0,0,1,0,2.92L36.2,276.6A10.65,10.65,0,0,0,29,283.85l-1.41,4.83a1.52,1.52,0,0,1-2.92,0l-1.41-4.83A10.69,10.69,0,0,0,16,276.6l-4.84-1.41a1.52,1.52,0,0,1,0-2.92L16,270.86a10.71,10.71,0,0,0,7.25-7.25l1.41-4.84a1.52,1.52,0,0,1,2.92,0"/><path id="Fill-244" class="cls-25" d="M343.93,83.92l1.14,3.92A8.68,8.68,0,0,0,351,93.72l3.92,1.15a1.23,1.23,0,0,1,0,2.36L351,98.38a8.66,8.66,0,0,0-5.88,5.88l-1.14,3.92a1.24,1.24,0,0,1-2.37,0l-1.15-3.92a8.64,8.64,0,0,0-5.88-5.88l-3.92-1.15a1.23,1.23,0,0,1,0-2.36l3.92-1.15a8.66,8.66,0,0,0,5.88-5.88l1.15-3.92a1.24,1.24,0,0,1,2.37,0"/><path id="Fill-246" class="cls-25" d="M469.65,259.26l.92,3.12a6.89,6.89,0,0,0,4.68,4.69l3.13.91a1,1,0,0,1,0,1.88l-3.13.91a6.91,6.91,0,0,0-4.68,4.69l-.92,3.12a1,1,0,0,1-1.88,0l-.91-3.12a6.92,6.92,0,0,0-4.69-4.69l-3.12-.91a1,1,0,0,1,0-1.88l3.12-.91a6.9,6.9,0,0,0,4.69-4.69l.91-3.12a1,1,0,0,1,1.88,0"/><path id="Fill-248" class="cls-25" d="M83.15,66.83l1.68,5.76a12.67,12.67,0,0,0,8.63,8.62l5.75,1.69a1.81,1.81,0,0,1,0,3.47l-5.75,1.68a12.7,12.7,0,0,0-8.63,8.63l-1.68,5.75a1.81,1.81,0,0,1-3.47,0L78,96.68a12.7,12.7,0,0,0-8.63-8.63l-5.75-1.68a1.81,1.81,0,0,1,0-3.47l5.75-1.69A12.67,12.67,0,0,0,78,72.59l1.69-5.76a1.81,1.81,0,0,1,3.47,0"/><path id="Fill-250" class="cls-4" d="M228.79,110.66c10.26,6.54,22.85,2.85,33.12-1.42,2.13-.89,1.2-4.41-1-3.51-9.33,3.88-20.92,7.78-30.32,1.79-2-1.26-3.81,1.89-1.84,3.14"/><path id="Fill-252" class="cls-4" d="M142.54,206.36a45.47,45.47,0,0,1-13.92,3.56c-4.28.32-8.74-.38-11.77-3.66-1.59-1.73-4.15.85-2.57,2.57,3.39,3.68,8.45,5,13.32,4.79a46.45,46.45,0,0,0,15.9-3.76,1.86,1.86,0,0,0,1.27-2.23,1.82,1.82,0,0,0-2.23-1.27"/><path id="Fill-254" class="cls-4" d="M405.37,165.68c9.13,2.84,19.55,5.22,27.8-1.16a1.83,1.83,0,0,0,0-2.57,1.88,1.88,0,0,0-2.58,0c-7,5.42-16.68,2.58-24.26.23-2.24-.7-3.2,2.81-1,3.5"/><path id="Fill-256" class="cls-25" d="M452.55,186c.28,12.71.56,25.46-.27,38.16-.14,2.18,3.26,2.17,3.4,0,.82-12.7.55-25.45.26-38.16-.05-2.19-3.44-2.19-3.39,0"/><path id="Fill-258" class="cls-4" d="M98.62,254.94q25.62-.42,51.11-3.24c2.14-.24,2.17-3.64,0-3.4q-25.47,2.82-51.11,3.25c-2.18,0-2.19,3.43,0,3.39"/><path id="Fill-260" class="cls-25" d="M143.37,252.67h11.85a1.7,1.7,0,0,0,0-3.39H143.37a1.7,1.7,0,1,0,0,3.39"/><path id="Fill-262" class="cls-25" d="M86.69,183a21.16,21.16,0,0,0-3.75,4.48,1.71,1.71,0,0,0,.61,2.33,1.74,1.74,0,0,0,2.32-.61c.34-.54.7-1.06,1.09-1.57l-.27.35a18.91,18.91,0,0,1,2.4-2.58,1.71,1.71,0,0,0,0-2.4,1.73,1.73,0,0,0-2.4,0"/><path id="Fill-264" class="cls-4" d="M171.68,99.3l-14,8.1c-4.38,2.54-8.95,4.9-13,8-1.71,1.31,0,4.26,1.72,2.93,4-3.07,8.6-5.43,13-8l13.95-8.1a1.7,1.7,0,0,0-1.71-2.93"/><path id="Fill-266" class="cls-25" d="M153.29,110a25.62,25.62,0,0,0-9.24,8.82,1.71,1.71,0,0,0,.61,2.32,1.73,1.73,0,0,0,2.32-.61c.26-.42.53-.82.81-1.22l.46-.62c-.14.19-.06.08,0,0l.22-.27a23.9,23.9,0,0,1,2-2.15c.34-.32.68-.63,1-.93l.6-.49c.15-.13-.21.16,0,0a2.55,2.55,0,0,1,.28-.21A23.31,23.31,0,0,1,155,112.9a1.73,1.73,0,0,0,.61-2.32,1.75,1.75,0,0,0-2.33-.61"/><path id="Fill-268" class="cls-4" d="M160.42,212.87q-3.54,8.52-7.6,16.81a1.74,1.74,0,0,0,.61,2.32,1.7,1.7,0,0,0,2.32-.61q4.25-8.69,7.95-17.62a1.69,1.69,0,0,0-1.19-2.08,1.74,1.74,0,0,0-2.09,1.18"/><path id="Fill-270" class="cls-4" d="M196.47,148.63c-.88,14.62-1.2,29.42-2.91,44-1.17,10.06-4.32,19.78-4.65,29.95A80.65,80.65,0,0,0,191.18,243c.49,2.13,3.76,1.22,3.27-.9a76.91,76.91,0,0,1-.52-32.6c1-4.91,2.09-9.79,2.75-14.75,1-7.11,1.27-14.28,1.7-21.43q.74-12.36,1.49-24.72c.13-2.19-3.26-2.18-3.4,0"/><polygon id="Fill-272" class="cls-26" points="285.89 182.7 288.82 179.84 291.83 182.8 294.73 180.56 297.82 182.7 297.82 161.86 278.31 161.63 278.31 183.19 282.21 180.03 285.89 182.7"/><path id="Fill-274" class="cls-15" d="M347.44,179.77H324.93a1.64,1.64,0,0,1-1.64-1.64v-9.75a1.64,1.64,0,0,1,1.64-1.64h22.51a1.64,1.64,0,0,1,1.64,1.64v9.75a1.64,1.64,0,0,1-1.64,1.64"/><path id="Fill-276" class="cls-4" d="M224.46,283.09a86,86,0,0,0,15.21,8.25,1.7,1.7,0,0,0,2.08-1.18,1.74,1.74,0,0,0-1.18-2.09,82.26,82.26,0,0,1-14.4-7.91,1.71,1.71,0,0,0-2.32.6,1.74,1.74,0,0,0,.61,2.33"/><path id="Fill-278" class="cls-4" d="M235.54,289.15q1.2,12.6,1.16,25.26a1.7,1.7,0,0,0,3.39,0q0-12.65-1.15-25.26c-.21-2.15-3.6-2.18-3.4,0"/><path id="Fill-280" class="cls-4" d="M379.85,287l-18.19,7.23a1.76,1.76,0,0,0-1.19,2.09,1.71,1.71,0,0,0,2.09,1.18l18.19-7.23a1.75,1.75,0,0,0,1.19-2.09,1.71,1.71,0,0,0-2.09-1.18"/><path id="Fill-282" class="cls-4" d="M360.56,294.9q-11.42,9.38-22.64,19c-1.66,1.42.75,3.82,2.4,2.4q11.22-9.62,22.64-19a1.7,1.7,0,0,0-2.4-2.4"/><path id="Fill-284" class="cls-25" d="M201.8,264.05a35.78,35.78,0,0,1-10,10,1.7,1.7,0,1,0,1.71,2.93,39.68,39.68,0,0,0,11.17-11.19,1.71,1.71,0,0,0-.61-2.32,1.74,1.74,0,0,0-2.32.61"/><path id="Fill-286" class="cls-25" d="M281.12,268.07a43.9,43.9,0,0,0,16.18,17.78c1.86,1.16,3.57-1.78,1.72-2.93a40.57,40.57,0,0,1-15-16.57c-1-2-3.9-.24-2.93,1.72"/><path id="Fill-288" class="cls-4" d="M314.21,317.71c-2.69-19.87-5.65-39.7-7.65-59.65-.22-2.15-3.62-2.18-3.4,0,2,20.25,5,40.39,7.78,60.55.29,2.16,3.56,1.24,3.27-.9"/><path id="Fill-290" class="cls-4" d="M190.5,254.14c-4.35,20-8.22,40.08-10.33,60.47-.22,2.17,3.17,2.15,3.39,0,2.08-20.09,5.92-39.85,10.21-59.57.46-2.13-2.81-3-3.27-.9"/><path id="Fill-292" class="cls-4" d="M78.73,250.84a11.68,11.68,0,0,1,8.15.44c2.05.94,4.07,3.05,3.73,5.5a1.38,1.38,0,0,0,.93,1.64,1.34,1.34,0,0,0,1.64-.93,8.19,8.19,0,0,0-4.55-8.31A14.31,14.31,0,0,0,78,248.27c-1.62.53-.93,3.11.71,2.57"/><path id="Fill-294" class="cls-4" d="M58,133.79a42.17,42.17,0,0,0-3-4,8.38,8.38,0,0,0-3.62-2.75,3.54,3.54,0,0,0-3.92,1.15,4.15,4.15,0,0,0-.29,4,30.7,30.7,0,0,0,2.42,4.2,16.28,16.28,0,0,1,1.3,2.14c.23.54-.08,1.18-.15,1.74-.38,3,1.13,6.22,4.28,6.87,1.67.35,2.39-2.22.71-2.57-2.31-.48-2.6-2.85-2.19-4.8a4.09,4.09,0,0,0-.7-3.19c-.65-1.08-1.31-2.15-2-3.22a7.05,7.05,0,0,1-1.42-2.89c-.07-1.13,1-1.08,1.71-.63a10.06,10.06,0,0,1,2.35,2.3c.77.94,1.46,1.95,2.15,2.95,1,1.41,3.28.07,2.3-1.34"/><path id="Fill-296" class="cls-4" d="M39,135.78a6.69,6.69,0,0,1,1.25,2.28c.13.4.53,1.45.14,1.82-.19.19-.77.2-.83.3.18.17.22.19.12,0a2,2,0,0,1-.14-.25c-.13-.22-.25-.44-.37-.67-.5-.93-1-1.86-1.46-2.81a17.19,17.19,0,0,1-1.26-2.72c-.21-.78.54-1.2,1.09-1.64a24.34,24.34,0,0,1,4.94-3,1.35,1.35,0,0,0,.48-1.83,1.37,1.37,0,0,0-1.83-.47,27.09,27.09,0,0,0-5.38,3.39,4.87,4.87,0,0,0-1.94,2.47A5,5,0,0,0,34.5,136c.46,1,1,2,1.45,3a21.8,21.8,0,0,0,1.57,2.84c1.45,1.94,4.79.81,5.48-1.28a5.55,5.55,0,0,0-.28-3.41,10.31,10.31,0,0,0-1.86-3.23,1.34,1.34,0,0,0-1.89,0,1.36,1.36,0,0,0,0,1.88"/><path id="Fill-298" class="cls-4" d="M36.17,138.52a1.35,1.35,0,0,1-2.22-.2c-.54-.77-1-1.59-1.5-2.39s-1-1.42-1.33-2.18c-.62-1.27.35-2.41,1.18-3.36a12.33,12.33,0,0,1,3.51-2.79c1.51-.82.17-3.12-1.34-2.31a14.88,14.88,0,0,0-4.75,4.07,6.82,6.82,0,0,0-1.43,2.76,4.66,4.66,0,0,0,.64,3.17c.54,1,1.18,1.92,1.78,2.88A9.13,9.13,0,0,0,32.84,141a4,4,0,0,0,5.22-.56c1.15-1.27-.73-3.16-1.89-1.88"/><path id="Fill-300" class="cls-4" d="M41.51,135.7l3.42-2a1.33,1.33,0,1,0-1.34-2.3l-3.43,2a1.33,1.33,0,0,0-.48,1.82,1.36,1.36,0,0,0,1.83.48"/><path id="Fill-302" class="cls-4" d="M30.82,136a.72.72,0,0,1-.75-.31,3,3,0,0,1-.53-1.06,7,7,0,0,1-.59-3.18c.31-2,2.18-3.28,3.78-4.25a1.33,1.33,0,0,0-1.34-2.3c-2.52,1.52-5,3.66-5.13,6.82a10.58,10.58,0,0,0,1.07,4.54,3.68,3.68,0,0,0,3.49,2.41,1.36,1.36,0,0,0,1.33-1.33A1.34,1.34,0,0,0,30.82,136"/><path id="Fill-304" class="cls-4" d="M204.57,71.71c5.2-1.34,10.48-2.38,15.73-3.54a32.16,32.16,0,0,0,5.2-1.39c3-1.21,5.65-4.07,4-7.44-.75-1.55-3.05-.2-2.3,1.34,1.13,2.35-2.66,3.73-4.3,4.15s-3.48.81-5.22,1.19c-4.62,1-9.26,1.94-13.84,3.12a1.33,1.33,0,0,0,.71,2.57"/><path id="Fill-306" class="cls-4" d="M205.91,59.94c2.56-.49,5.13-.95,7.7-1.36,1.1-.18,2.21-.35,3.31-.51,1.69-.23,1.83,1.17,1.15,2.34-1,1.81-4.15,2-6,2.4a51,51,0,0,1-7.89.91,1.37,1.37,0,0,0-1.29,1c-1.68,5.79-7.51,10.26-13.28,11.91a1.33,1.33,0,0,0,.71,2.57c6.61-1.89,13.15-6.9,15.14-13.77l-1.28,1A55.08,55.08,0,0,0,215,64.91c2.8-.69,5.53-1.81,6.08-5a4.48,4.48,0,0,0-.83-3.63c-1-1.14-2.37-1-3.71-.84-3.78.54-7.54,1.19-11.29,1.91-1.68.32-1,2.89.71,2.57"/><path id="Fill-308" class="cls-4" d="M222.25,51.79a11.68,11.68,0,0,1,.4,1.13c0,.2.1.41.14.62a2.87,2.87,0,0,1,.05.31c0-.14,0-.1,0,0s0,.41,0,.62,0,.2,0,.31,0,.33,0,.07c0,.19-.07.37-.11.55s-.07.2-.1.3.07-.12,0,0a3.23,3.23,0,0,1-.22.41l-.14.22c-.09.16.2-.23,0,0l-.32.34-.2.17c.13-.11.1-.07,0,0s-.26.16-.39.24c-.28.15.16,0,0,0l-.24.08a2.27,2.27,0,0,0-.25.06c-.16.05.32,0,0,0a2.9,2.9,0,0,1-.51,0A1.33,1.33,0,0,0,219,58.63,1.36,1.36,0,0,0,220.34,60a4.87,4.87,0,0,0,4.56-2.78,7.46,7.46,0,0,0-.08-6.1,1.37,1.37,0,0,0-1.64-.93,1.34,1.34,0,0,0-.93,1.64"/><path id="Fill-310" class="cls-4" d="M224.87,53.32c.89-.18,1.78-.42,2.68-.53a4.92,4.92,0,0,1,.95,0c-.1,0-.06,0,.11,0l.3.1c-.11,0,.23.15.05,0,0,0,.34.39.21.2,0,0,.23.47.15.25,0,.12.07.25.1.37s0,.18,0,0a2.26,2.26,0,0,1,0,.26,2.44,2.44,0,0,1,0,.27c0-.13,0-.12,0,0s-.07.26-.1.39-.06.17,0,0a1.34,1.34,0,0,1-.12.24,3.31,3.31,0,0,1-.25.39,8.69,8.69,0,0,1-3.79,2.22,43.33,43.33,0,0,1-5.34,1.53,1.34,1.34,0,1,0,.71,2.58,47.83,47.83,0,0,0,5-1.41A15.08,15.08,0,0,0,230,58.07a5.25,5.25,0,0,0,2.08-4,3.84,3.84,0,0,0-2.35-3.72c-1.76-.71-3.83,0-5.6.35a1.33,1.33,0,1,0,.71,2.57"/><path id="Fill-312" class="cls-4" d="M215.58,69.37c.73,3.9-4.76,5.42-7.3,6.9-3.09,1.79-5.57,4.38-8.31,6.62a20.36,20.36,0,0,1-10.63,4.69c-3.47.37-9.31,0-9.72-4.57-.15-1.7-2.82-1.71-2.66,0,.4,4.48,4.28,6.83,8.45,7.25a21.45,21.45,0,0,0,14.12-3.72c4.07-2.8,7.25-6.62,11.73-8.83,3.68-1.81,7.78-4.3,6.89-9-.31-1.68-2.88-1-2.57.71"/><path id="Fill-314" class="cls-4" d="M274.44,225.85a49.63,49.63,0,0,0,8.94,6.15,1.36,1.36,0,0,0,1.83-.48,1.35,1.35,0,0,0-.48-1.82,46.51,46.51,0,0,1-8.4-5.74,1.38,1.38,0,0,0-1.89,0,1.36,1.36,0,0,0,0,1.89"/><path id="Fill-316" class="cls-4" d="M294.37,226.34l6.05,1.84a1.33,1.33,0,0,0,1.64-.93,1.35,1.35,0,0,0-.93-1.64l-6.05-1.84a1.34,1.34,0,0,0-1.64.93,1.36,1.36,0,0,0,.93,1.64"/><path id="Fill-318" class="cls-4" d="M469.38,153.24a2.63,2.63,0,0,0-2.91-1.18l-4.38.69-8.93,1.41a1.34,1.34,0,0,0-.93,1.64,1.36,1.36,0,0,0,1.64.93l6.46-1,3.23-.51a33.45,33.45,0,0,1,3.43-.53l.13,0a1.5,1.5,0,0,1,.19.38,3,3,0,0,1,.19,1.08,3,3,0,0,1-.71,1.91,5.18,5.18,0,0,1-2.2,1.27c-1,.39-2.11.75-3.16,1.11a1.36,1.36,0,0,0-.59,2.23c2.05,2.57,3.63,6.65,1.08,9.45-1.15,1.27.72,3.16,1.88,1.89,3.14-3.45,2.3-8,.09-11.57,1.88-.6,3.83-1.3,5.05-2.81a5.62,5.62,0,0,0,.44-6.34"/><path id="Fill-320" class="cls-4" d="M467.55,148.18l-2.45,3.57a1.31,1.31,0,0,0,.48,1.82,1.31,1.31,0,0,0,1,.14,1.47,1.47,0,0,0,.8-.61l2.45-3.57a1.31,1.31,0,0,0-.48-1.82,1.33,1.33,0,0,0-1-.14,1.5,1.5,0,0,0-.79.61"/><path id="Fill-322" class="cls-4" d="M473.57,147.18c1.84,1.81.21,4.6-1,6.21-.92,1.19-1.89,2.33-2.84,3.49-.48.59-.94,1.21-1.47,1.75-.27.26-.71.73-1.11.64-1.68-.37-2.39,2.2-.71,2.57,2,.44,3.39-.89,4.56-2.31,1.29-1.59,2.63-3.16,3.87-4.79a9.78,9.78,0,0,0,2.16-4.8,5.61,5.61,0,0,0-1.53-4.65c-1.22-1.2-3.11.68-1.89,1.89"/><path id="Fill-324" class="cls-4" d="M476.87,151.78a3.85,3.85,0,0,1,2.52-.15,1.32,1.32,0,0,1,.78,1.48,4.13,4.13,0,0,1-.93,2c-.65.85-1.39,1.64-2.1,2.45a17,17,0,0,1-2.07,2.24,2.4,2.4,0,0,1-1.87.66,1,1,0,0,1-.78-.89,4.54,4.54,0,0,1,.84-2.56c.82-1.5-1.48-2.85-2.31-1.34-1.05,1.91-1.88,4.3-.32,6.21,1.4,1.71,4,1.51,5.69.31a13.74,13.74,0,0,0,2.27-2.24c.75-.86,1.51-1.71,2.24-2.59,1.33-1.59,2.54-3.65,1.8-5.8A4,4,0,0,0,480,149a6.49,6.49,0,0,0-3.85.18c-1.63.5-.94,3.08.71,2.57"/><path id="Fill-326" class="cls-4" d="M476.86,160c1.07,3,2.46,6.61,1.05,9.7s-4.59,4.49-7.47,5.61a1.38,1.38,0,0,0-.93,1.64,1.34,1.34,0,0,0,1.64.93c3.54-1.38,7.34-3.21,9.06-6.83,1.82-3.83.58-8-.78-11.76-.58-1.6-3.15-.91-2.57.71"/><path id="Fill-328" class="cls-4" d="M461.47,140.28q-.08,3-.4,6a1.34,1.34,0,0,0,1.33,1.33,1.39,1.39,0,0,0,1.34-1.33q.33-3,.39-6a1.33,1.33,0,0,0-2.66,0"/><path id="Fill-330" class="cls-4" d="M243.12,57.7c-4.05-3.76-11.08-4.85-15.34-.85a1.84,1.84,0,0,0,0,2.57,1.87,1.87,0,0,0,2.58,0,6.14,6.14,0,0,1,5-1.45,9.88,9.88,0,0,1,5.22,2.3,1.85,1.85,0,0,0,2.57,0,1.84,1.84,0,0,0,0-2.57"/><path id="Fill-332" class="cls-4" d="M254,60.67c3.56-2.18,8.12-3.17,11.1-.21,1.66,1.65,4.24-.92,2.57-2.57A10.45,10.45,0,0,0,260.35,55a15.73,15.73,0,0,0-8.15,2.58,1.86,1.86,0,0,0-.66,2.49,1.84,1.84,0,0,0,2.49.65"/><path id="Fill-334" class="cls-25" d="M241.61,68.94c-1,1.31-3.57,1.52-4.41,1.54a21.94,21.94,0,0,1-5-.45,5.89,5.89,0,0,1-2.49-1,2.59,2.59,0,0,1-1.07-2.39,2.56,2.56,0,0,1,1.61-1.83,10.41,10.41,0,0,1,2.76-.61c2.46-.24,7.37.1,8.64,1.81a2.55,2.55,0,0,1-.06,2.89"/><path id="Fill-336" class="cls-4" d="M236.68,69.94c-3.21.43-3.88-4.55-.67-5s3.88,4.54.67,5"/><path id="Fill-338" class="cls-25" d="M265.36,69.19c-.89,1.36-3.5,1.69-4.34,1.74a22.51,22.51,0,0,1-5-.22,5.87,5.87,0,0,1-2.53-.86,2.34,2.34,0,0,1,.35-4.23,10.2,10.2,0,0,1,2.73-.73c2.44-.35,7.36-.24,8.71,1.41a2.57,2.57,0,0,1,.07,2.89"/><path id="Fill-340" class="cls-4" d="M260.48,70.41c-3.19.58-4.09-4.37-.9-4.94s4.08,4.36.9,4.94"/><path id="Fill-342" class="cls-25" d="M128.35,173.24c-.8,1.18-3.07,1.43-3.81,1.46a19.8,19.8,0,0,1-4.35-.26,5.15,5.15,0,0,1-2.19-.78,2,2,0,0,1,.36-3.69,8.92,8.92,0,0,1,2.39-.6c2.14-.28,6.43-.1,7.58,1.35a2.23,2.23,0,0,1,0,2.52"/><path id="Fill-344" class="cls-4" d="M124.07,174.24c-2.78.46-3.5-3.87-.71-4.32s3.5,3.86.71,4.32"/><path id="Fill-346" class="cls-25" d="M149.07,172.86c-.75,1.21-3,1.56-3.74,1.63a19.27,19.27,0,0,1-4.36-.07,5.14,5.14,0,0,1-2.23-.68,2,2,0,0,1,.19-3.7,8.88,8.88,0,0,1,2.37-.71c2.12-.37,6.41-.39,7.63,1a2.24,2.24,0,0,1,.14,2.52"/><path id="Fill-348" class="cls-4" d="M144.84,174.05c-2.76.58-3.67-3.7-.91-4.29s3.67,3.7.91,4.29"/><path id="Fill-350" class="cls-25" d="M413.11,129.16c-1,1.06-3.27,1-4,.92a19.77,19.77,0,0,1-4.31-.89,5.31,5.31,0,0,1-2.09-1.09,2.3,2.3,0,0,1-.7-2.2,2.26,2.26,0,0,1,1.59-1.44,9.38,9.38,0,0,1,2.48-.26c2.17,0,6.44.82,7.38,2.44a2.26,2.26,0,0,1-.34,2.52"/><path id="Fill-352" class="cls-4" d="M407.05,129.07c-2.85.06-2.95-4.36-.1-4.42s2.95,4.36.1,4.42"/><path id="Fill-354" class="cls-25" d="M434,132.13c-.94,1.08-3.25,1.06-4,1a19.86,19.86,0,0,1-4.33-.77,5.18,5.18,0,0,1-2.11-1.05,2.06,2.06,0,0,1,.8-3.66,9.29,9.29,0,0,1,2.47-.31c2.17,0,6.46.66,7.44,2.25a2.24,2.24,0,0,1-.28,2.53"/><path id="Fill-356" class="cls-4" d="M428.05,132.27c-2.84.14-3.05-4.28-.2-4.42s3,4.29.2,4.42"/><path id="Fill-358" class="cls-4" d="M404,119.6c.3-.26-.2.12-.08.06s.15-.1.23-.15a2.84,2.84,0,0,0,.55-.28c0,.09-.43.15-.05,0l.31-.11q.33-.11.66-.18c.26-.06.51-.11.77-.15.48-.09-.3,0,.08,0l.39,0a11.34,11.34,0,0,1,1.65,0c.29,0,.58,0,.87.07-.3,0-.18,0,0,0l.39.08a6.69,6.69,0,0,1,.77.2l.37.12.24.09-.14-.06c.24.13.49.24.73.38l.31.2c.11.08.33.32,0,0,.17.17.36.32.53.5s.16.23,0,0c.08.14.18.27.26.41a1.82,1.82,0,1,0,3.14-1.84c-1.52-2.6-4.55-3.64-7.42-3.82-2.43-.16-5.33.25-7.21,1.92A1.82,1.82,0,1,0,404,119.6"/><path id="Fill-360" class="cls-4" d="M426.6,122.11a4.78,4.78,0,0,1,.45-.23c.26-.14-.45.15-.14.06l.23-.09a8,8,0,0,1,1.17-.29,1,1,0,0,1,.3,0q-.48.06-.18,0h.1a6.27,6.27,0,0,1,.74,0c.46,0,.92,0,1.37,0,.18,0-.45-.08,0,0l.39.07c.22,0,.44.1.65.16l.32.1c.06,0,.48.22.2.07s.14.07.19.09l.3.16c.11.07.46.38.56.37l-.1-.08.12.11a3.71,3.71,0,0,1,.29.27l.23.25c.27.29-.21-.33,0,0a6.65,6.65,0,0,1,.43.73,1.83,1.83,0,0,0,2.49.65,1.86,1.86,0,0,0,.65-2.49,8,8,0,0,0-6.27-4,9.89,9.89,0,0,0-6.28,1,1.82,1.82,0,1,0,1.83,3.14"/><path id="Fill-362" class="cls-4" d="M118.79,166.64a3.85,3.85,0,0,1,.3-.27c.12-.11.3-.17-.18.13l.18-.13.34-.23c.31-.2.64-.38,1-.55l.31-.14c.37-.18-.4.14,0,0,.22-.08.43-.16.66-.23s.46-.14.7-.19l.33-.07c.06,0,.52-.08.25,0s.13,0,.18,0l.44,0a5.76,5.76,0,0,1,.83,0c.18,0,.32,0,.06,0,.16,0,.32,0,.47.09a8.31,8.31,0,0,1,.89.25c.1,0,.37.15.14,0a4.44,4.44,0,0,1,.49.24,9.2,9.2,0,0,1,1,.61A1.82,1.82,0,1,0,129,163a10,10,0,0,0-8.47-1.34,11.75,11.75,0,0,0-2.84,1.29,5.73,5.73,0,0,0-1.46,1.12,1.86,1.86,0,0,0,0,2.57,1.83,1.83,0,0,0,2.57,0"/><path id="Fill-364" class="cls-4" d="M139.86,166c.07-.07.43-.37.16-.16s.17-.11.26-.16a3.72,3.72,0,0,1,.48-.27l.23-.11c.3-.14.15,0,0,0,.12,0,.43-.16.55-.2l.64-.19.69-.14c.06,0,.43-.07.14,0s.16,0,.22,0a9.89,9.89,0,0,1,1.44,0l.41,0c-.24,0-.21,0,0,0s.52.11.77.19.47.15.7.24c-.39-.15,0,0,.11.06s.27.14.41.21.44.28.66.43c.41.29-.24-.23.14.12l.38.34a1.84,1.84,0,0,0,2.57,0,1.85,1.85,0,0,0,0-2.57,9.8,9.8,0,0,0-7.6-2.69,9.48,9.48,0,0,0-5.91,2.33,1.83,1.83,0,0,0,0,2.57,1.84,1.84,0,0,0,2.57,0"/><path id="Fill-366" class="cls-4" d="M207.59,242.78a69.62,69.62,0,0,1-10-.37c-3.11-.34-6.69-1.64-9,1.29a8.37,8.37,0,0,0-.45,8.68c1.79,2.74,5.06,3.2,8.08,3.37,2.18.12,2.17-3.27,0-3.39-1.73-.1-4.51-.14-5.35-2-.57-1.26-.55-4.58,1.12-5.12,1-.32,2.53.22,3.55.35,1.32.18,2.64.33,4,.44a69.62,69.62,0,0,0,8,.19c2.18-.07,2.19-3.47,0-3.4"/><path id="Fill-368" class="cls-15" d="M64.1,177.23c-.14-.26-.27-.28-.48-.09-.48.45-1,.9-1.43,1.36l-2.53,2.42a2.16,2.16,0,0,1-.37.29.44.44,0,0,1-.56-.1.45.45,0,0,1-.12-.55,1.37,1.37,0,0,1,.2-.29q1.75-2.09,3.53-4.15c.36-.42.36-.46,0-.85l-.19-.19c-.19-.18-.25-.19-.45,0l-.95.81-3.32,2.83a1.86,1.86,0,0,1-.28.21.46.46,0,0,1-.68-.1.44.44,0,0,1,0-.65c.31-.34.63-.67,1-1,1-1,2-2.06,3-3.1.29-.3.28-.36-.09-.54a6,6,0,0,0-.59-.23h-.24a3.33,3.33,0,0,0-1.37.77l-.3.25a27.87,27.87,0,0,0-3.53,3.51,4.29,4.29,0,0,0-1,2.47,4,4,0,0,0,.37,1.9c.12.27.1.34-.11.54l-.12.12-3.66,3.48-.75.71-1.89-1.8h0l-2.58-2.45c-.25-.23-.26-.3-.13-.6a4.58,4.58,0,0,0,.37-1.83,4.31,4.31,0,0,0-.45-1.66A8,8,0,0,0,41.89,176a9,9,0,0,0-4.41-1.68,3,3,0,0,0-3.22,2.2,3.92,3.92,0,0,0,0,1.77A8.68,8.68,0,0,0,37.9,184a4.08,4.08,0,0,0,4.13.49c.37-.16.42-.15.7.15l3.09,3.22.08.08,1,1-7.49,7.11c-.36.33-.71.67-1.06,1a.67.67,0,0,0-.21.73,3,3,0,0,0,2.12,2,.43.43,0,0,0,.4-.06,7.68,7.68,0,0,0,.67-.61l7.64-8,.82.86a1.05,1.05,0,0,0,.2.26l5.88,6.24c.37.39.75.76,1.14,1.12a1,1,0,0,0,.74.25,3.26,3.26,0,0,0,.51-.21,3.34,3.34,0,0,0,1.37-1.53.87.87,0,0,0-.23-1.19l-3.93-3.73-3.29-3.13L51,189c1.43-1.5,2.85-3,4.28-4.52a.54.54,0,0,1,.63-.15,3.8,3.8,0,0,0,3.3-.29,8.38,8.38,0,0,0,1.31-1,31.08,31.08,0,0,0,2.87-3,4.92,4.92,0,0,0,1-1.74V178c-.11-.25-.21-.5-.34-.73"/><path id="Fill-370" class="cls-15" d="M434.17,191.42l-29.41-7.51c1.58.2-1.78,74-2.77,75.82,0,0,23.69,3,28,5.33s3.55-20.34,2-31.2,2.17-42.44,2.17-42.44"/><path id="Fill-372" class="cls-28" d="M402.78,176.87s7.51-2.5,8.69.27a2.5,2.5,0,0,1-1.71,3.55s5.26,2,2.63,4.74c0,0,5.53,3,2.5,5.92a6.46,6.46,0,0,1-2.37.4,6.53,6.53,0,0,1,2.5,4.6c.13,2.9-2.1,5.79-4.34,4.21a6.46,6.46,0,0,1-2.63-3.81s-3.29,4.08-5.4-.66a5.66,5.66,0,0,1,.26-4.74s-1.71,1.84-3.29-.79-.39-4.34,1.32-5.92c0,0-.79-2.9-2.63-3.69s4.47-4.08,4.47-4.08"/><path id="Fill-374" class="cls-29" d="M363.79,182.67A19.29,19.29,0,0,0,370,180a1.33,1.33,0,1,0-1.35-2.3,18.8,18.8,0,0,1-2.79,1.51l.07,0-.19.08-.39.15-.74.26c-.51.17-1,.31-1.56.43a1.33,1.33,0,1,0,.71,2.57"/><path id="Fill-376" class="cls-29" d="M365.62,188.54a44.67,44.67,0,0,0,5.07-2.21,1.36,1.36,0,0,0,.48-1.83,1.38,1.38,0,0,0-1.83-.48c-.75.39-1.52.76-2.3,1.1l-.28.13-.17.07.11,0-.57.24-1.22.46a1.47,1.47,0,0,0-.8.61,1.42,1.42,0,0,0-.13,1,1.35,1.35,0,0,0,1.64.93"/><path id="Fill-378" class="cls-30" d="M409.3,186.87c.21.52.42,1,.62,1.57.05.14.09.27.13.4a1.61,1.61,0,0,1,.1.35h0v.23h0l0,.11-.13.25-.06.06s-.15.15-.2.2l-.12.07-.24.14-.15.05-.29.07h0a1.93,1.93,0,0,1-.34,0h-.13a2.42,2.42,0,0,0-.28-.06l-.16-.05-.23-.12-.09-.06-.17-.16s0,0,0,0a2.32,2.32,0,0,0-.14-.23.41.41,0,0,1-.05-.09c0-.08-.07-.17-.08-.24l0-.13a1.49,1.49,0,0,1,0-.21v-.08c0-.08,0-.19.06-.25a1.32,1.32,0,0,0-.28-1.2,9.82,9.82,0,0,0,.22-1.32,10.62,10.62,0,0,0,2.15.63s0,.05,0,.08m4-2.42c-.66,0-1.32,0-2-.06-.33,0-.65,0-1-.08h-.07l-.28-.05a3.73,3.73,0,0,1-.46-.09,8.67,8.67,0,0,1-.84-.22l-.41-.15-.09,0-.1,0a6.93,6.93,0,0,1-.76-.41l-.36-.24c.21.15-.17-.16-.2-.19a1.36,1.36,0,0,0-1.89,0,1.45,1.45,0,0,0-.35,1.11,1,1,0,0,0-.09.53,7.26,7.26,0,0,1,0,1.4c0,.11,0,.22,0,.33h0c0,.23-.09.46-.15.68a5.16,5.16,0,0,1-.2.67,2.6,2.6,0,0,0-.1.25c.1-.36,0,0,0,.08a7.34,7.34,0,0,1-.72,1.2,1.32,1.32,0,0,0-.13,1,1.31,1.31,0,0,0,.61.79,1.26,1.26,0,0,0,1.25,0,4.08,4.08,0,0,0,2.27,1.89,6.8,6.8,0,0,0,.45,6.54A1.34,1.34,0,0,0,410,198a4.24,4.24,0,0,1-.36-.61l0-.11v0l0,0c-.05-.13,0-.06,0,0,0-.09-.07-.19-.09-.27a4.34,4.34,0,0,1-.17-.69s0,0,0-.08h0c0-.14,0-.27,0-.4a5.46,5.46,0,0,1,0-.7s0-.07,0-.09,0-.23.07-.35.13-.42.21-.63a.67.67,0,0,1,.06-.12,3.9,3.9,0,0,1,.19-.35,1.39,1.39,0,0,0,.15-.75,5.69,5.69,0,0,0,.77-.32,3.77,3.77,0,0,0,2-2.47,5.26,5.26,0,0,0-.49-3l1.06,0a1.35,1.35,0,0,0,1.34-1.33,1.37,1.37,0,0,0-1.34-1.34"/><path id="Fill-380" class="cls-30" d="M409.6,197.32l0,0A.05.05,0,0,1,409.6,197.32Z"/><path id="Fill-382" class="cls-30" d="M404.86,181.74l.77-.16h.14l.43,0H407l.32,0,.21,0a6.45,6.45,0,0,1,1.43.33l.4.14.16.06-.08,0a4.19,4.19,0,0,1,.76.39,1.33,1.33,0,1,0,1.35-2.3,10,10,0,0,0-5.3-1.27,7.9,7.9,0,0,0,.79-1.66,1.34,1.34,0,1,0-2.58-.71,3.52,3.52,0,0,1-.15.42s0,0,0,0a1.51,1.51,0,0,1-.09.18,5.05,5.05,0,0,1-.25.45l-.11.17-.05.06s-.11.15-.11.16l-.14.15-.32.33c-.07.07-.25.28-.35.3l.07-.05-.08.06a1.64,1.64,0,0,1-.22.14,4.23,4.23,0,0,1-.42.25l-.2.1-.06,0a8.1,8.1,0,0,1-1,.28l-.12,0-.2,0-.5,0-.51,0h0l-.28-.05a1.33,1.33,0,0,0-.71,2.57,7.35,7.35,0,0,0,5-.74,1.33,1.33,0,0,0,1.26.34"/><path id="Fill-384" class="cls-15" d="M426.29,172.81a3.44,3.44,0,0,0-.38,1.58,3.93,3.93,0,0,0,.41,1.57l-.14-.32a1.9,1.9,0,0,1,.14.4l-.05-.35a1.34,1.34,0,0,1,0,.2l.05-.36a.42.42,0,0,1,0,.12c.05-.1.09-.21.14-.31-.1.18.13-.15.19-.19s0-.05,0,0l.32-.14a7.63,7.63,0,0,1-1.35.24,3.3,3.3,0,0,0-1.55.56,2,2,0,0,0-.8,1.68,1.82,1.82,0,0,0,1.33,1.7,1.34,1.34,0,0,0,.71-2.58l-.09,0,.32.14c-.17-.08.24.22.14.12s.22.31.13.14c0,.11.09.22.13.32a1,1,0,0,1-.05-.18c0,.12,0,.24.05.36a.6.6,0,0,1,0-.19c0,.12,0,.23-.05.35a.74.74,0,0,1,0-.14c-.05.11-.09.22-.14.32a.56.56,0,0,1,0-.08c.07-.17-.2.23-.09.12s-.24.14-.11.09l.14-.08-.32.14c.68-.27,1.44-.2,2.13-.41a1.88,1.88,0,0,0,1.35-1.32,2.62,2.62,0,0,0-.32-1.79c.05.11.09.21.13.32a2.64,2.64,0,0,1-.15-.55c0,.11,0,.23,0,.35a2.09,2.09,0,0,1,0-.5l0,.35a2.64,2.64,0,0,1,.15-.55c0,.1-.08.21-.13.32l0-.07a1.47,1.47,0,0,0,.14-1,1.36,1.36,0,0,0-.62-.79,1.34,1.34,0,0,0-1.82.48"/><path id="Fill-386" class="cls-25" d="M18.41,184.42s1.73,2.41,1.59,3.47.86,1.83,1.52.74,2.38-.48,1.69-1.48-1.68,0-2.38-1l-2.21-3.22Z"/><path id="Fill-388" class="cls-29" d="M18.64,180a2.9,2.9,0,0,0,1.23,2.59.94.94,0,0,1,.19,1.39c-.95,1.54-2.35,2.58-3.3,1s-1.11-.88-3.72-2.18-5.44-6.15-2.92-9.36,7.15-3.1,8.22.4a16.41,16.41,0,0,1,.3,6.2"/><path id="Fill-390" class="cls-18" d="M20.82,173.2c.67.61-.18,2-.6,2.67a16.79,16.79,0,0,1-3,3.33c-1.23,1.14-2.51,2.24-3.81,3.3-1.1.88-2.32,1.92-3.8,1.83-1.72-.1-1.71,2.56,0,2.67,2.1.13,3.82-1.13,5.39-2.38s3.13-2.59,4.6-4a15.17,15.17,0,0,0,3.43-4.38c.74-1.57,1.07-3.62-.36-4.92-1.26-1.16-3.15.72-1.88,1.88"/><polygon id="Fill-392" class="cls-31" points="19.36 199.74 22.53 201.62 21.4 202.22 21.84 203.97 17.74 202.55 19.36 199.74"/><polygon id="Fill-394" class="cls-31" points="11.97 197.95 11.41 200.3 8.08 199.18 9.33 198.37 8.38 197.26 11.97 197.95"/><polygon id="Fill-396" class="cls-25" points="10.29 196 20.23 198.19 19.43 202.26 10.32 199 10.29 196"/><path id="Fill-398" class="cls-4" d="M18.32,159.6A30.6,30.6,0,0,0,26,162.36a1.33,1.33,0,0,0,.71-2.57,29.56,29.56,0,0,1-3.71-1c-.3-.1-.6-.22-.89-.33l-.44-.18c-.15-.06-.17-.07-.06,0l-.18-.08q-.9-.39-1.77-.84a1.33,1.33,0,1,0-1.35,2.3"/></g><g id="Artwork_60" data-name="Artwork 60"><g class="cls-32"><g class="cls-32"><path d="M257.5,91.73c-1.39.67-7.32,3.39-11.87,3.16-4-.2-9.92-2.58-9.92-2.58v0a15,15,0,0,0,.28,3.84c.68,3.29,2.78,7.59,9.08,8.17,7.28.67,10.66-6.18,12-10.11a22,22,0,0,0,.74-2.66l-.3.15"/><path d="M255.84,92.49c1.27,0,1.65-.06,1.71.13.17-.65.25-1,.25-1l-.3.15a39.61,39.61,0,0,1-6.91,2.55,15.3,15.3,0,0,1,2-.26c1.1-.36,2.42-1.18,3.25-1.53"/><path class="cls-33" d="M247.08,94.32l-.45.57a18.92,18.92,0,0,0,4-.61,20.49,20.49,0,0,1-3.51,0"/><path class="cls-33" d="M257.06,94.24c.22-.64.38-1.19.49-1.62-.06-.19-.44-.17-1.71-.13-.83.35-2.15,1.17-3.25,1.53a15.3,15.3,0,0,0-2,.26,18.92,18.92,0,0,1-4,.61l-2.51,3.22a4.46,4.46,0,0,0-.69,2.86,3.43,3.43,0,0,0,1.61,2.39,7.34,7.34,0,0,0,3.33.74c5-1.28,7.58-6.58,8.69-9.86"/><path class="cls-34" d="M248.65,94.79a13.74,13.74,0,0,1-1.91.06,33.61,33.61,0,0,1-8.36-2,5.68,5.68,0,0,0,4.69,4.45,18.49,18.49,0,0,0,2.34.25c4.12.17,6.8-1.41,8.32-3.91a24.65,24.65,0,0,1-5.08,1.15"/><path class="cls-34" d="M244.09,101c-1.74.25-3.53,1.35-3.57,1.94a11.15,11.15,0,0,0,4.55,1.37,9.39,9.39,0,0,0,7.57-2.66,24.86,24.86,0,0,0-8.55-.65"/><path d="M257.06,87.64A4.66,4.66,0,0,0,257,93a6,6,0,0,0,4.52,2.44,1.11,1.11,0,0,0,.27-2.21,4.78,4.78,0,0,1-.53-.06l-.26,0c-.28,0,.23.08-.05,0a6.17,6.17,0,0,1-.93-.36l-.14-.08-.12-.08c-.13-.09-.26-.18-.38-.28l-.19-.16c-.21-.18.15.17,0,0s-.22-.24-.32-.37l-.13-.2c-.13-.17.07.18,0,0a4.17,4.17,0,0,1-.19-.44s0-.08,0-.13c0,.13,0,.15,0,.08a1.6,1.6,0,0,1-.05-.21,1.3,1.3,0,0,1-.06-.51v0a2.11,2.11,0,0,1,0-.25c0-.09,0-.17,0-.25,0-.28-.08.22,0,0s.12-.32.19-.48.14-.23.05-.1.1-.14.12-.16a1.12,1.12,0,1,0-1.78-1.35"/><path d="M256.53,90a19.39,19.39,0,0,1-17.34,1.77,18.91,18.91,0,0,1-4.6-2.47c-1.14-.83-2.45.92-1.32,1.75a22.12,22.12,0,0,0,19.63,3.1,19.92,19.92,0,0,0,5-2.44,1.11,1.11,0,0,0,.18-1.53,1.12,1.12,0,0,0-1.54-.18"/><path d="M251.19,106.29a5.73,5.73,0,0,1-.63.47l-.15.11-.07,0-.07,0-.16.09a6.43,6.43,0,0,1-.71.32l-.35.13-.18.06c-.21.07.13,0,0,0a8.54,8.54,0,0,1-1.5.25h-.19c-.18,0,0,0,0,0s-.3,0-.37,0a5.71,5.71,0,0,1-.82-.09,1.17,1.17,0,1,0-.28,2.33,8.69,8.69,0,0,0,6.9-1.9,1.18,1.18,0,1,0-1.45-1.85"/></g></g></g><path d="M243.54,84.49c-.25,1.85,1.56,3.34,3.21,3.67,1.83.36,4.09-.18,4.95-2a3.28,3.28,0,0,0-.06-3.09,1,1,0,1,0-1.72,1,1,1,0,0,1,.08.15c0-.11,0-.12,0,0l.06.24c.06.24,0-.17,0,.07s0,.2,0,.3,0,.06,0,0l0,.16a1.83,1.83,0,0,1-.08.25c-.07.21.07-.09,0,.08s-.11.2-.18.3c.1-.14,0,0-.06.07a1.54,1.54,0,0,1-.19.17c-.09.08-.1.09,0,0l-.12.08-.29.17c-.18.09.09,0-.12,0l-.27.08a2.33,2.33,0,0,1-.38.08h-.12a4.42,4.42,0,0,1-.63,0h-.14c.1,0,.09,0,0,0l-.26,0-.26-.07-.16-.06c.1,0,.09,0,0,0a4.31,4.31,0,0,1-.47-.26l-.15-.1c.08.06.09.07,0,0l-.22-.2-.17-.19c.14.16,0,0,0-.07s-.14-.36-.07-.13c0-.08-.05-.16-.07-.23-.06-.23,0,.17,0-.06s0-.23,0-.34a1,1,0,0,0-1-1,1,1,0,0,0-1,1Z"/><path d="M128.11,185.57a2.89,2.89,0,0,0,3.93,2.25,3.45,3.45,0,0,0,1.94-1.6,3.55,3.55,0,0,0,.32-2.52,1,1,0,0,0-1.23-.7,1,1,0,0,0-.69,1.23s0,.18,0,.19c0-.16,0-.18,0-.07v.26s0,.29,0,.12,0,.06,0,.09a1.33,1.33,0,0,0,0,.19l-.07.18c0,.07,0,0,0-.09l0,.09a1.4,1.4,0,0,1-.1.16.41.41,0,0,1,0,.09l0-.05s-.24.25-.27.28.18-.11,0,0l-.16.11-.17.09c-.17.1.2-.07,0,0l-.37.11-.09,0,.1,0h-.37l-.36-.09.07,0,0,0-.16-.09c-.19-.12,0,0,0,0s-.11-.09-.14-.12l-.08-.09.07.09-.09-.15c0-.08.08.23,0,0s0,.2,0,0a1,1,0,0,0-2,0Z"/><path d="M413.78,139.06a3.6,3.6,0,0,0,0,3.78,3.43,3.43,0,0,0,1.63,1.33,3.54,3.54,0,0,0,2,.16,3.3,3.3,0,0,0,1.89-1,1,1,0,1,0-1.41-1.41,2.39,2.39,0,0,1-.23.22c-.13.11.18-.12,0,0l-.15.1-.14.08-.07,0s.21-.08.11-.05l-.32.11-.16,0-.08,0,.14,0s-.32,0-.35,0h-.24l.14,0a1.87,1.87,0,0,1-.34-.08l-.15-.05c-.16-.05.2.1,0,0l-.29-.17c-.19-.13.13.12,0,0l-.12-.11-.11-.11-.05-.06c-.08-.09.12.17.06.07a2.33,2.33,0,0,1-.17-.26l-.07-.15c-.05-.09.05.13.05.12l0-.1a1.71,1.71,0,0,1-.09-.3l0-.16c0-.16,0,.25,0,0s0-.25,0-.37,0-.06,0-.08,0,.1,0,.1,0-.16,0-.18a1.21,1.21,0,0,1,0-.18s.09-.24,0-.08,0,0,0-.07l.1-.18a1,1,0,0,0-.35-1.37,1,1,0,0,0-1.37.36Z"/><g id="Artwork_46" data-name="Artwork 46"><g class="cls-35"><g class="cls-35"><path d="M425.67,154c-2.53,1.39-5.74,1.24-8.53.94a17.29,17.29,0,0,1-7.92-2.78,13.46,13.46,0,0,1-3.31-3.21,1.14,1.14,0,0,1,.33-1.56,1.16,1.16,0,0,1,1.56.34,11.88,11.88,0,0,0,5.37,4,19.77,19.77,0,0,0,7.62,1.13,7.92,7.92,0,0,0,3.67-.75,1.16,1.16,0,0,1,1.55.34,1.14,1.14,0,0,1-.34,1.56"/><path d="M409.53,147.21a5,5,0,0,1-2.92,2.48,4.82,4.82,0,0,1-2.06.22,9.31,9.31,0,0,1-2-.53,1.13,1.13,0,1,1,.48-2.2,10.47,10.47,0,0,0,1.82.51c.11,0,.19,0,0,0H405a2.3,2.3,0,0,0,.37,0l.19,0c.22,0,0,0,0,0s.31-.08.36-.09l.32-.12s.14,0,.17-.07-.19.09,0,0l.32-.2c.09,0,.18-.16.28-.19-.17.06-.12.1,0,0a1.59,1.59,0,0,0,.13-.13l.25-.27a.62.62,0,0,1,.09-.12c-.15.11-.08.13,0,0a2.12,2.12,0,0,0,.21-.36,1.13,1.13,0,0,1,2,1.05"/><path d="M419.38,159.15a9.33,9.33,0,0,1-4.63-.25,12.85,12.85,0,0,1-4.25-1.78,1.17,1.17,0,0,1-.48-1.52,1.14,1.14,0,0,1,1.52-.48,10.65,10.65,0,0,0,3.54,1.55,7.56,7.56,0,0,0,3.6.34,1.15,1.15,0,0,1,1.42.72,1.14,1.14,0,0,1-.72,1.42"/></g></g></g><g id="Artwork_61" data-name="Artwork 61"><g class="cls-36"><g class="cls-36"><path d="M139.34,188.07a6.77,6.77,0,0,0,.47,2.51,6.13,6.13,0,0,0,1.39,2.22,3.52,3.52,0,0,0,2.62,1l.56,0a1.64,1.64,0,0,0,1.09-.37,1.11,1.11,0,0,0-1.34-1.74,1.07,1.07,0,0,0-.49,1.21v0a1.07,1.07,0,0,0,2.07-.57v0c-.16.41-.33.81-.49,1.21h0l-.54.15h0l-.92-.53V192l0,0,.39-.39c.38-.08.49-.12.33-.09h-.13l-.2,0a3.25,3.25,0,0,1-.44,0h-.25s-.26,0-.09,0-.06,0-.09,0a1.55,1.55,0,0,1-.23-.06c-.25-.07.18.11,0,0l-.15-.08s-.14-.08-.14-.1l.08.06-.08-.07a2.29,2.29,0,0,1-.27-.27s-.11-.1-.11-.14l.06.08-.06-.09a4.5,4.5,0,0,1-.43-.73l-.09-.18c-.09-.2,0,0,0,0a3,3,0,0,0-.15-.45,5.51,5.51,0,0,1-.2-.8c0-.15,0-.1,0,0a1.79,1.79,0,0,1,0-.24c0-.15,0-.31,0-.47a1.07,1.07,0,0,0-2.14,0"/><path d="M121.55,192.4s-1.11,7.7,5.62,10,13.76-3.18,15.54-9.91c0,0-.32-2.22-3.1-.38s-11.27,4.69-18.06.24"/><path class="cls-34" d="M138.54,191.68c-1.12,3.78-6.39,6.65-10.58,6.06-2.91-.41-3.7-2.81-3.86-4.72,5.64,2,11.67.19,14.44-1.34"/><path class="cls-33" d="M140.35,197.44c-2.54,3.46-6.5,5.82-10.62,5.53a10,10,0,0,1,4.76-4.81,7.54,7.54,0,0,1,5.86-.72"/><path d="M119.07,192a16,16,0,0,0,8.4,3.36,25.41,25.41,0,0,0,9.72-1.08,10.1,10.1,0,0,0,4.43-2.28,1.07,1.07,0,0,0-1.51-1.52,7.16,7.16,0,0,1-3.13,1.62,30.15,30.15,0,0,1-4.4,1,17.39,17.39,0,0,1-8.21-.59,12.22,12.22,0,0,1-3.78-2,1.1,1.1,0,0,0-1.52,0,1.07,1.07,0,0,0,0,1.51"/></g></g></g></svg>