<svg id="Layer_1" data-name="Layer 1" xmlns="http://www.w3.org/2000/svg" xmlns:xlink="http://www.w3.org/1999/xlink" viewBox="0 0 500 315"><defs><style>.cls-1{fill:none;}.cls-2{clip-path:url(#clip-path);}.cls-3{fill:#a9deec;}.cls-4{fill:#555554;}.cls-5{fill:#a3a3a3;}.cls-6{fill:#fff;}.cls-7{fill:#bce37b;}.cls-8{fill:#0a0e0f;}.cls-9{fill:#4ecfdf;}.cls-10{fill:#f6cd97;}.cls-11{fill:#282525;}.cls-12{fill:#fbfbfb;}.cls-13{fill:#520202;}.cls-14{fill:#de0018;}.cls-15{fill:#fbcf00;}.cls-16{fill:#dc1a2d;}.cls-17{fill:#1278c1;}</style><clipPath id="clip-path"><rect class="cls-1" y="1" width="500" height="315"/></clipPath></defs><g class="cls-2"><ellipse class="cls-3" cx="249.5" cy="333" rx="213" ry="191.5"/></g><rect class="cls-4" x="117.88" y="49.56" width="264.12" height="191.19" rx="12"/><path class="cls-4" d="M286.43,266.16h-73c-8.7,0-14.57-6.15-11.14-11.68l11.85-19.12c1.91-3.09,6.29-5.08,11.14-5.08h49.27c4.85,0,9.23,2,11.14,5.08l11.86,19.12C301,260,295.13,266.16,286.43,266.16Z"/><circle class="cls-5" cx="356.03" cy="226.38" r="4.42"/><rect class="cls-6" x="130" y="63" width="239" height="148"/><path class="cls-7" d="M187,119.74l60,6.16a2,2,0,0,0,2-2,2,2,0,0,0-2-2l-60-6.16a2,2,0,0,0-2,2,2,2,0,0,0,2,2Z"/><path class="cls-7" d="M245.66,125.7q6.21,28.87,11.66,57.9c.47,2.53,4.32,1.46,3.85-1.06q-5.44-29-11.65-57.91c-.54-2.51-4.4-1.45-3.86,1.07Z"/><path d="M118.11,101.64V215.2c0,3.91-.12,7.83,0,11.74.13,3.16.66,6.44,2.71,9s5.23,3.49,8.36,3.87c3.75.46,7.59.44,11.37.59q6.36.27,12.72.5,12.62.48,25.22.84,25.33.75,50.68,1.07l6.25.07a1.5,1.5,0,0,0,0-3q-49.45-.54-98.87-2.65c-3.36-.14-7,0-10.25-1.08s-4.57-3.77-5-6.92a78.41,78.41,0,0,1-.21-10.51v-117a1.5,1.5,0,0,0-3,0Z"/><path class="cls-7" d="M248.42,126.48q47.68-11.94,94.75-26.23,13.17-4,26.28-8.18c2.44-.78,1.4-4.65-1.06-3.86Q321.55,103.15,274,115.75q-13.31,3.52-26.66,6.87c-2.49.62-1.43,4.48,1.07,3.86Z"/><circle class="cls-7" cx="166.34" cy="114.29" r="45.99"/><path d="M156.8,67.76a40.65,40.65,0,0,0-28.73,14.69A45.08,45.08,0,0,0,118.5,110c-.32,20.93,13.36,40,32.72,47.46a52.34,52.34,0,0,0,39.33-.93c1.77-.76.24-3.34-1.51-2.59a48.64,48.64,0,0,1-57.27-14.32c-11.78-14.54-14-36.22-3.65-52.18A37.54,37.54,0,0,1,156.8,70.76c1.92-.13,1.93-3.14,0-3Z"/><g id="_3QQDfZ.tif" data-name="3QQDfZ.tif"><path class="cls-8" d="M149.31,140c-3.33-3.26-4.29-7.37-4.53-11.75a88.58,88.58,0,0,1,.49-11.51c0-.36,0-.72.08-1.15-.66.28-1.16.68-1.78.87a1.65,1.65,0,0,1-2.34-1.08c-.25-.55-.69-1-.4-1.7a3.51,3.51,0,0,1,1.7-1.76,5.47,5.47,0,0,1,2.25-.66c.5,0,.64-.16.61-.69-.11-2.51-.37-5-.56-7.51a39.25,39.25,0,0,1,.42-11.4c.07-.33,0-.46-.28-.62-2.6-1.42-3.46-3.55-2.45-6A5.22,5.22,0,0,1,149,81.93a2.76,2.76,0,0,0,2.86-.45,21.85,21.85,0,0,1,9-3.15,32.53,32.53,0,0,1,14.32.68,13.82,13.82,0,0,1,4.8,2.37.82.82,0,0,0,1,.08,5.23,5.23,0,0,1,7.69,4.9,4.32,4.32,0,0,1-2.55,3.79c-.5.26-.56.5-.44,1a55.32,55.32,0,0,1,1.14,12.18c0,2.34.06,4.68.06,7,0,.5.15.66.65.73a4.61,4.61,0,0,1,3.18,1.67,1.54,1.54,0,0,1,.09,2.13,2.21,2.21,0,0,0-.12.27,1.54,1.54,0,0,1-2.19,1.09,13.51,13.51,0,0,1-1.29-.5c.07,1.28.14,2.52.19,3.76a41,41,0,0,1-1,12.4,16.75,16.75,0,0,1-3.63,7.25c-.27.29-.25.43.05.67a7.4,7.4,0,0,1,1.82,2.12c1.07,2,0,3.17-1.63,3.82a1.9,1.9,0,0,1-2.07-.64c-.66-.66-1.28-1.36-1.91-2.06a1,1,0,0,0-1.33-.22,26.79,26.79,0,0,1-11,2.42,29.29,29.29,0,0,1-12-1.87,1.54,1.54,0,0,0-1.21.15,5.92,5.92,0,0,0-1.69,1.16,10.67,10.67,0,0,1-1.84,1.36,2.12,2.12,0,0,1-1.41.3,2.68,2.68,0,0,1-1.64-4.27,7.48,7.48,0,0,1,1.73-1.59Zm36.52-32.63a86.28,86.28,0,0,0-.75-14.13,22.21,22.21,0,0,0-1.9-6.5,13.06,13.06,0,0,0-8.55-6.86,32.13,32.13,0,0,0-15.56-.22,19,19,0,0,0-7.43,3.11c-3.57,2.65-5,6.43-5.7,10.64A48.6,48.6,0,0,0,146,105.3a70.23,70.23,0,0,1,.13,13.13,60.37,60.37,0,0,0-.22,11.72c.67,6.22,3.84,10.49,9.78,12.55a30.43,30.43,0,0,0,18.87.32,14.86,14.86,0,0,0,11-11.54,41.2,41.2,0,0,0,.9-10.79C186.29,116.11,185.76,111.55,185.83,107.39Zm-4.56-24.92c.2.22.41.43.6.65.44.48.77,1,1.58,1a1.48,1.48,0,0,1,1.1,1.93,1.64,1.64,0,0,0,0,1.45,8,8,0,0,1,.47,1.4c.12.61.38.53.79.28A3.65,3.65,0,0,0,187,83.85,4.06,4.06,0,0,0,181.27,82.47Zm-35.69,7.77c.21-.61.38-1.17.6-1.71.12-.3,0-.43-.21-.61-.77-.68-.9-1.24-.5-2a1.48,1.48,0,0,1,1.92-.77c.24,0,.44.16.65-.11.47-.62,1-1.22,1.52-1.87a4.41,4.41,0,0,0-6.41,4.16A3.54,3.54,0,0,0,145.58,90.24Zm7.43,52.4a17.75,17.75,0,0,1-2.65-1.72c-.17-.13-.31-.21-.52,0a8.8,8.8,0,0,0-2.16,1.87,1.34,1.34,0,0,0-.24,1.46c.31-.5.57-.9.82-1.31.17-.26.38-.39.68-.22a.47.47,0,0,1,.18.7c-.2.34-.43.66-.62,1s-.4.49-.12.8a.69.69,0,0,0,.94.09,9.94,9.94,0,0,0,1.11-.71A16.11,16.11,0,0,1,153,142.64Zm30.9,1.3a1,1,0,0,0,.11-1,6.07,6.07,0,0,0-2.09-2.61c-.18-.15-.3,0-.44.07-.6.46-1.21.92-1.83,1.36-.22.15-.25.23,0,.44.66.69,1.3,1.41,2,2.1a1.38,1.38,0,0,0,1,.52c.34,0,.65-.09.44-.58a4.3,4.3,0,0,0-.63-1.15.46.46,0,0,1,.06-.72c.27-.22.5-.11.71.11A4.72,4.72,0,0,1,183.91,143.94Zm-42.19-29.57c.46-.24.78-.65,1.15-.19s0,.59-.23.82-.44.13-.32.4.4.26.65.21a12.58,12.58,0,0,0,2.25-1.08c.13,0,.14-.19.14-.32,0-.63.39-1.47,0-1.84s-1.25,0-1.88.23a3.07,3.07,0,0,0-1.08.62A1.73,1.73,0,0,0,141.72,114.37Zm48.51-.21a2.66,2.66,0,0,0-1.91-1.86c-1.35-.51-1.38-.48-1.31.91,0,.29,0,.58,0,.88a.54.54,0,0,0,.26.49,5.43,5.43,0,0,0,1.44.73c.28.07.62.19.81-.12s-.23-.35-.37-.5-.38-.48-.14-.78.5-.23.76,0Z"/><path class="cls-9" d="M185.83,107.39c-.07,4.16.46,8.72.59,13.3a41.2,41.2,0,0,1-.9,10.79,14.86,14.86,0,0,1-11,11.54,30.43,30.43,0,0,1-18.87-.32c-5.94-2.06-9.11-6.33-9.78-12.55a60.37,60.37,0,0,1,.22-11.72A70.23,70.23,0,0,0,146,105.3a48.6,48.6,0,0,1-.07-11.87c.65-4.21,2.13-8,5.7-10.64a19,19,0,0,1,7.43-3.11,32.13,32.13,0,0,1,15.56.22,13.06,13.06,0,0,1,8.55,6.86,22.21,22.21,0,0,1,1.9,6.5A86.28,86.28,0,0,1,185.83,107.39Zm-17.14-8.28a2.35,2.35,0,0,0,2.49-1.44,2.3,2.3,0,0,0-.79-2.64,7.53,7.53,0,0,0-2-1.29c0-.38-.28-.65-.33-1,.2-.21.3,0,.41.12a7.47,7.47,0,0,0,6.48,1,6,6,0,0,0,4.8-6.23,6.13,6.13,0,0,0-5.06-6.06,7.37,7.37,0,0,0-6.58,1.82,6,6,0,0,0-.52,8.66c.09.1.35.15.19.39-.25.07-.41-.14-.6-.22a3.37,3.37,0,0,0-4.46,1.63,3,3,0,0,0-2.44,2.46A2.25,2.25,0,0,0,162,99a5.63,5.63,0,0,0,.52,2.8,1.53,1.53,0,0,0,2.41.61.62.62,0,0,1,1,0,1.57,1.57,0,0,0,1.92.13,1.51,1.51,0,0,0,.93-1.52C168.7,100.39,168.7,99.75,168.69,99.11Zm-12-4.27a7.41,7.41,0,0,0,5.54-2.19,6,6,0,0,0,1.3-6.31,5.69,5.69,0,0,0-4.82-4A7,7,0,0,0,151.39,85a5.93,5.93,0,0,0-.38,6.51A6.19,6.19,0,0,0,156.71,94.84Z"/><path class="cls-9" d="M181.27,82.47A4.06,4.06,0,0,1,187,83.85a3.65,3.65,0,0,1-1.14,5.32c-.41.25-.67.33-.79-.28a8,8,0,0,0-.47-1.4,1.64,1.64,0,0,1,0-1.45,1.48,1.48,0,0,0-1.1-1.93c-.81,0-1.14-.51-1.58-1C181.68,82.9,181.47,82.69,181.27,82.47Z"/><path class="cls-9" d="M145.58,90.24a3.54,3.54,0,0,1-2.43-2.91,4.41,4.41,0,0,1,6.41-4.16c-.54.65-1.05,1.25-1.52,1.87-.21.27-.41.16-.65.11a1.48,1.48,0,0,0-1.92.77c-.4.76-.27,1.32.5,2,.2.18.33.31.21.61C146,89.07,145.79,89.63,145.58,90.24Z"/><path class="cls-10" d="M153,142.64a16.11,16.11,0,0,0-2.58,1.91,9.94,9.94,0,0,1-1.11.71.69.69,0,0,1-.94-.09c-.28-.31,0-.55.12-.8s.42-.66.62-1a.47.47,0,0,0-.18-.7c-.3-.17-.51,0-.68.22-.25.41-.51.81-.82,1.31a1.34,1.34,0,0,1,.24-1.46,8.8,8.8,0,0,1,2.16-1.87c.21-.16.35-.08.52,0A17.75,17.75,0,0,0,153,142.64Z"/><path class="cls-10" d="M183.91,143.94a4.72,4.72,0,0,0-.81-1.42c-.21-.22-.44-.33-.71-.11a.46.46,0,0,0-.06.72,4.3,4.3,0,0,1,.63,1.15c.21.49-.1.58-.44.58a1.38,1.38,0,0,1-1-.52c-.66-.69-1.3-1.41-2-2.1-.2-.21-.17-.29,0-.44.62-.44,1.23-.9,1.83-1.36.14-.11.26-.22.44-.07A6.07,6.07,0,0,1,184,143,1,1,0,0,1,183.91,143.94Z"/><path class="cls-10" d="M141.72,114.37a1.73,1.73,0,0,1,.66-1.15,3.07,3.07,0,0,1,1.08-.62c.63-.2,1.41-.65,1.88-.23s0,1.21,0,1.84c0,.13,0,.27-.14.32a12.58,12.58,0,0,1-2.25,1.08c-.25,0-.52.06-.65-.21s.2-.28.32-.4.49-.49.23-.82S142.18,114.13,141.72,114.37Z"/><path class="cls-10" d="M190.23,114.16l-.42-.27c-.26-.21-.53-.27-.76,0s-.07.53.14.78.58.15.37.5-.53.19-.81.12a5.43,5.43,0,0,1-1.44-.73.54.54,0,0,1-.26-.49c0-.3,0-.59,0-.88-.07-1.39,0-1.42,1.31-.91A2.66,2.66,0,0,1,190.23,114.16Z"/><path class="cls-8" d="M167.81,92.46c.16-.24-.1-.29-.19-.39a6,6,0,0,1,.52-8.66,7.37,7.37,0,0,1,6.58-1.82,6.13,6.13,0,0,1,5.06,6.06,6,6,0,0,1-4.8,6.23,7.47,7.47,0,0,1-6.48-1c-.11-.08-.21-.33-.41-.12h0v-.16H168c.09-.2,0-.23-.15-.16Zm5.23.76A7.11,7.11,0,0,0,174.4,93a5.32,5.32,0,0,0,.5-10.39,6.39,6.39,0,0,0-6,1.4,5.06,5.06,0,0,0,.16,8A6.41,6.41,0,0,0,173,93.22Z"/><path class="cls-8" d="M156.71,94.84a6.19,6.19,0,0,1-5.7-3.33,5.93,5.93,0,0,1,.38-6.51,7,7,0,0,1,7.34-2.71,5.69,5.69,0,0,1,4.82,4,6,6,0,0,1-1.3,6.31A7.41,7.41,0,0,1,156.71,94.84Zm.57-11.76c-.22,0-.56,0-.9.06a5.7,5.7,0,0,0-5,3.92,5.29,5.29,0,0,0,4.39,6.75,6.28,6.28,0,0,0,6.75-3.24C164.15,86.93,161.57,83.17,157.28,83.08Z"/><path class="cls-11" d="M162,99a2.25,2.25,0,0,1-1.67-2.64,3,3,0,0,1,2.44-2.46l.18.91a2.27,2.27,0,0,0-1.54,1.38,1.43,1.43,0,0,0,.23,1.52,1.09,1.09,0,0,0,1.28.27,6.36,6.36,0,0,0,.85-.25,4.71,4.71,0,0,1,4.26.13,3.19,3.19,0,0,0,.48.19,1.26,1.26,0,0,0,1.66-.55c.4-.63.1-1.12-.32-1.59a8.71,8.71,0,0,0-1.6-1.16l.19-1a7.53,7.53,0,0,1,2,1.29,2.3,2.3,0,0,1,.79,2.64,2.35,2.35,0,0,1-2.49,1.44,2.66,2.66,0,0,0-1-.3,4.56,4.56,0,0,0-1.57-.57c-.37,0-.78-.18-1.11.16L163,99Z"/><path class="cls-8" d="M162.93,94.78l-.18-.91a3.37,3.37,0,0,1,4.46-1.63c.19.08.35.29.6.22h0c-.05.15,0,.17.15.16h0c0,.11,0,.17.16.15h0c0,.35.37.62.33,1l-.19,1a.5.5,0,0,0-.41.06A4.59,4.59,0,0,1,162.93,94.78Z"/><path class="cls-8" d="M167.66,98.81a2.66,2.66,0,0,1,1,.3c0,.64,0,1.28,0,1.92a1.51,1.51,0,0,1-.93,1.52,1.57,1.57,0,0,1-1.92-.13.62.62,0,0,0-1,0,1.53,1.53,0,0,1-2.41-.61A5.63,5.63,0,0,1,162,99l1,0a3.87,3.87,0,0,0,.22,2c.15.35.33.82.8.7a1,1,0,0,0,.85-1c0-.76.05-1.51.09-2.27.33-.34.74-.14,1.11-.16a15.74,15.74,0,0,0-.08,2.66.86.86,0,0,0,.9.87.77.77,0,0,0,.84-.9C167.71,100.19,167.69,99.5,167.66,98.81Z"/><path class="cls-12" d="M173,93.22a6.41,6.41,0,0,1-4-1.18,5.06,5.06,0,0,1-.16-8,6.39,6.39,0,0,1,6-1.4A5.32,5.32,0,0,1,174.4,93,7.11,7.11,0,0,1,173,93.22Zm-1.4-4.92a2,2,0,0,0-1.87-2,1.93,1.93,0,0,0-1.86,2,1.87,1.87,0,1,0,3.73,0Z"/><path class="cls-9" d="M168,92.61c-.11,0-.2,0-.15-.16S168,92.41,168,92.61Z"/><path class="cls-9" d="M168.1,92.75c-.12,0-.17,0-.16-.15h.17Z"/><path class="cls-12" d="M157.28,83.08c4.29.09,6.87,3.85,5.27,7.49a6.28,6.28,0,0,1-6.75,3.24,5.29,5.29,0,0,1-4.39-6.75,5.7,5.7,0,0,1,5-3.92C156.72,83.1,157.06,83.09,157.28,83.08Zm-1.41,5.71a1.9,1.9,0,1,0-3.78.06,1.9,1.9,0,1,0,3.78-.06Z"/><path class="cls-10" d="M162.93,94.78a4.59,4.59,0,0,0,4.89,0,.5.5,0,0,1,.41-.06,8.71,8.71,0,0,1,1.6,1.16c.42.47.72,1,.32,1.59a1.26,1.26,0,0,1-1.66.55,3.19,3.19,0,0,1-.48-.19,4.71,4.71,0,0,0-4.26-.13,6.36,6.36,0,0,1-.85.25,1.09,1.09,0,0,1-1.28-.27,1.43,1.43,0,0,1-.23-1.52A2.27,2.27,0,0,1,162.93,94.78Z"/><path class="cls-12" d="M167.66,98.81c0,.69.05,1.38.09,2.06a.77.77,0,0,1-.84.9.86.86,0,0,1-.9-.87,15.74,15.74,0,0,1,.08-2.66A4.56,4.56,0,0,1,167.66,98.81Z"/><path class="cls-12" d="M165,98.4c0,.76-.11,1.51-.09,2.27a1,1,0,0,1-.85,1c-.47.12-.65-.35-.8-.7a3.87,3.87,0,0,1-.22-2Z"/><path class="cls-8" d="M171.64,88.3a1.87,1.87,0,1,1-3.73,0,1.93,1.93,0,0,1,1.86-2A2,2,0,0,1,171.64,88.3Zm-1,1a.49.49,0,0,0,.43-.52c0-.31-.16-.54-.49-.51s-.4.26-.39.54A.48.48,0,0,0,170.62,89.28Z"/><path class="cls-8" d="M155.87,88.79a1.9,1.9,0,1,1-3.78.06,1.9,1.9,0,1,1,3.78-.06Zm-1.05,0a.48.48,0,0,0-.43.56c0,.26.16.48.45.47s.44-.25.43-.56A.45.45,0,0,0,154.82,88.75Z"/><path class="cls-12" d="M170.62,89.28a.48.48,0,0,1-.45-.49c0-.28.11-.51.39-.54s.48.2.49.51A.49.49,0,0,1,170.62,89.28Z"/><path class="cls-12" d="M154.82,88.75a.45.45,0,0,1,.45.47c0,.31-.1.54-.43.56s-.43-.21-.45-.47A.48.48,0,0,1,154.82,88.75Z"/></g><circle class="cls-7" cx="263" cy="204.01" r="48.92"/><path d="M258.67,153.5a49.52,49.52,0,0,0-32,16.7A51.54,51.54,0,0,0,214,204.13c-.1,12.22,3.49,25.14,11.08,34.86,6.56,8.41,16.59,13.27,27,14.79a59.82,59.82,0,0,0,34.83-5.5c1.73-.86.21-3.45-1.52-2.59-17,8.43-41.33,8.57-55.41-5.63-8-8.07-12.06-20.14-12.85-31.3-.84-11.84,2-23.63,9.08-33.24,7.62-10.36,19.58-17.78,32.47-19,1.91-.18,1.93-3.18,0-3Z"/><g id="GQJpfW.tif"><path class="cls-13" d="M270.07,230.64c-.15,0-.39,0-.62,0q-9.58-.55-19.18-1.11a2,2,0,0,1-1.44-.74c-3.08-3.48-6.18-6.94-9.26-10.43a1.9,1.9,0,0,0-1.08-.63c-2.72-.54-5.43-1.11-8.14-1.66-.61-.13-1.14-.32-1.31-1a1.4,1.4,0,0,1,.63-1.45l36.58-32.58c.42-.37.82-.72,1.44-.56a1.24,1.24,0,0,1,.91,1.5c-.3,2.53-.59,5.07-.91,7.6a1.05,1.05,0,0,0,.3,1c.69.72,1.36,1.46,2,2.23.33.4.51.34.85,0,2.39-2.16,4.81-4.29,7.21-6.45a1.35,1.35,0,0,1,1.58-.4,1.37,1.37,0,0,1,.71,1.47,60.45,60.45,0,0,1-2,13.9,1,1,0,0,0,.27,1.09c1.5,1.64,3,3.31,4.44,5,.35.41.48.35.74-.09,1.22-2.12,2.48-4.21,3.72-6.32a1.41,1.41,0,0,1,1.25-.88,1.39,1.39,0,0,1,1.24,1c.38.85.83,1.67,1.21,2.52a.72.72,0,0,0,.73.48c1.49.05,3,.15,4.47.21a1.27,1.27,0,0,1,.84,2.32l-26.4,23.53A1.79,1.79,0,0,1,270.07,230.64Zm-29.71-15.06,1.86,2.08c2.56,2.87,5.14,5.72,7.66,8.63a2.37,2.37,0,0,0,1.81.87q8.55.47,17.09,1a1.28,1.28,0,0,0,1-.37c1.24-1.14,2.52-2.25,3.78-3.37l9.88-8.8c.27-.23.48-.42.06-.74a31.6,31.6,0,0,0-8.13-4.66c-.34-.12-.53-.12-.72.25-.3.59-.66,1.16-1,1.73a22.2,22.2,0,0,1-6,6.32,1.27,1.27,0,0,1-1.89-.2,1.24,1.24,0,0,1,.46-1.79,22.73,22.73,0,0,0,7.53-9.73,52.29,52.29,0,0,0,3.85-16c0-.19.13-.42-.1-.61-.12.09-.25.17-.36.27l-12.6,11.21L258,207.57a1.27,1.27,0,0,1-2.22-.5,15.23,15.23,0,0,0-1.92-3.29c-1.14-1.43-2.47-2.6-4.43-2.57a6.16,6.16,0,0,0-4,1.7c-3.06,2.68-6.07,5.41-9.1,8.13l-3.5,3,1.65.35C236.43,214.78,238.37,215.28,240.36,215.58Zm53.11-8.91c-1,0-1.83-.11-2.66-.13a1.37,1.37,0,0,1-1.35-.83c-.18-.41-.4-.81-.59-1.22-.07-.14-.11-.31-.27-.34s-.23.16-.31.28c-1,1.66-1.94,3.33-2.93,5a.57.57,0,0,0,.1.79c.43.46.85.92,1.26,1.39.56.63.56.65,1.2.08l4.15-3.73C292.5,207.56,292.92,207.17,293.47,206.67Z"/><path class="cls-14" d="M236.31,211c3-2.72,6-5.45,9.1-8.13a6.16,6.16,0,0,1,4-1.7c2,0,3.29,1.14,4.43,2.57a15.23,15.23,0,0,1,1.92,3.29,1.27,1.27,0,0,0,2.22.5l6.63-5.92,12.6-11.21c.11-.1.24-.18.36-.27.23.19.12.42.1.61a52.29,52.29,0,0,1-3.85,16,22.73,22.73,0,0,1-7.53,9.73,1.24,1.24,0,0,0-.46,1.79,1.27,1.27,0,0,0,1.89.2,22.2,22.2,0,0,0,6-6.32c.36-.57.72-1.14,1-1.73.19-.37.38-.37.72-.25a31.6,31.6,0,0,1,8.13,4.66c.42.32.21.51-.06.74l-9.88,8.8c-1.26,1.12-2.54,2.23-3.78,3.37a1.28,1.28,0,0,1-1,.37q-8.53-.53-17.09-1a2.37,2.37,0,0,1-1.81-.87c-2.52-2.91-5.1-5.76-7.66-8.63l-1.86-2.08Zm5.51.73a2.88,2.88,0,0,0,3.65,2,2.93,2.93,0,1,0-1.69-5.61A2.84,2.84,0,0,0,241.82,211.77Z"/><path class="cls-14" d="M293.47,206.67c-.55.5-1,.89-1.4,1.27l-4.15,3.73c-.64.57-.64.55-1.2-.08-.41-.47-.83-.93-1.26-1.39a.57.57,0,0,1-.1-.79c1-1.65,2-3.32,2.93-5,.08-.12.12-.32.31-.28s.2.2.27.34c.19.41.41.81.59,1.22a1.37,1.37,0,0,0,1.35.83C291.64,206.56,292.47,206.62,293.47,206.67Z"/><path class="cls-15" d="M236.31,211l4.05,4.54c-2-.3-3.93-.8-5.9-1.17l-1.65-.35Z"/><path class="cls-13" d="M241.82,211.77a2.84,2.84,0,0,1,2-3.61,2.93,2.93,0,1,1,1.69,5.61A2.88,2.88,0,0,1,241.82,211.77Z"/></g><circle class="cls-7" cx="338.56" cy="81.34" r="40.44"/><path d="M315,46.44c-11.92,10-18.45,26-15.69,41.43,2.72,15.17,14,28.19,29.23,31.67a37,37,0,0,0,25.25-3c1.71-.89.2-3.48-1.51-2.59-12.82,6.64-29.22,3.79-39.41-6.3a38.69,38.69,0,0,1-9.31-39,43.53,43.53,0,0,1,13.56-20c1.48-1.24-.65-3.35-2.12-2.12Z"/><g id="Iad9yY.tif"><path class="cls-16" d="M344.34,47.66a4.94,4.94,0,0,1,1.4,3.45,8.9,8.9,0,0,1-1.43,5A22,22,0,0,1,339,62,22,22,0,0,0,335.75,65c-2.11,2.6-2.34,5-.65,7.92.86,1.48,1.88,2.88,2.82,4.32.16.26.43.5.33,1-2.38-2.23-4.79-4.36-6.38-7.22a5.27,5.27,0,0,1,.62-6.47,32.28,32.28,0,0,1,4.84-4.36A35.77,35.77,0,0,0,342,56.05a9.1,9.1,0,0,0,2.55-6.84C344.5,48.69,344.4,48.17,344.34,47.66Z"/><path class="cls-17" d="M356.27,96.26c.84.4,1,.89.45,1.48a4.85,4.85,0,0,1-1.86,1.15,28.19,28.19,0,0,1-6.88,1.77,89.56,89.56,0,0,1-28-.43,5.69,5.69,0,0,1-1.8-.55c-.85-.44-.94-1-.29-1.68l.06,0a11.88,11.88,0,0,1,8-2.39s.06.07.14.15a3.13,3.13,0,0,1-1.06.24,10.69,10.69,0,0,0-3.35,1.17c-.28.15-.62.33-.6.72s.4.49.69.61a21.29,21.29,0,0,0,5.63,1.16,91.64,91.64,0,0,0,14.25.28,61.69,61.69,0,0,0,12.11-1.48,7.6,7.6,0,0,0,1.55-.58A1.38,1.38,0,0,0,356.27,96.26Z"/><path class="cls-16" d="M341.13,80a4.6,4.6,0,0,0,1-3.72,4.5,4.5,0,0,0-1-1.84,11.73,11.73,0,0,1-1.8-2.71,5.93,5.93,0,0,1,.86-6.73A13.73,13.73,0,0,1,344,61.9a29.35,29.35,0,0,1,5.68-2.5,1.33,1.33,0,0,1,.59,0c-.09.35-.4.44-.65.59a37.85,37.85,0,0,0-5.2,3.68,10.35,10.35,0,0,0-1.79,1.95,3.62,3.62,0,0,0-.25,4,23.46,23.46,0,0,0,1.75,2.66,4.08,4.08,0,0,1-.12,5.37A8.27,8.27,0,0,1,341.13,80Z"/><path class="cls-17" d="M330.57,91.52c-.37.9.15,1.15.8,1.28a29.32,29.32,0,0,0,7.24.52,36.18,36.18,0,0,0,5.18-.68,1.49,1.49,0,0,1,1.09.16c.81.45,1.66.84,2.56,1.29a21,21,0,0,1-5,1.5,25.41,25.41,0,0,1-10.91-.23,7,7,0,0,1-2.68-1.2c-.81-.65-.79-1.31,0-1.92A4.36,4.36,0,0,1,330.57,91.52Z"/><path class="cls-17" d="M331.06,78.82c-1.08.41-2.21.67-3.26,1.15a7.26,7.26,0,0,0-1.21.62c-.59.4-.55.74.12,1a9.34,9.34,0,0,0,3.05.51A92.23,92.23,0,0,0,347,81.26l2.63-.35a2.48,2.48,0,0,1,.33,0,9.49,9.49,0,0,1-4.72,1.79,71.06,71.06,0,0,1-18.31.59,14.39,14.39,0,0,1-4-.82c-.38-.15-.84-.29-.87-.76s.41-.68.77-.85A16.76,16.76,0,0,1,331.06,78.82Z"/><path class="cls-17" d="M329.27,85.2c-.54,1.36-.35,1.75.9,2a39.88,39.88,0,0,0,10.58.23c1.68-.18,3.35-.48,5-.74a.66.66,0,0,1,.63.11,8.07,8.07,0,0,0,2,1.23,22.33,22.33,0,0,1-3.91,1,41,41,0,0,1-12.84.48,12.39,12.39,0,0,1-4-1.05c-.5-.25-1.05-.52-1.06-1.17s.49-.92.95-1.19S328.59,85.52,329.27,85.2Z"/><path class="cls-17" d="M325.81,102.76c1.61.14,3.22.29,4.83.41a84.67,84.67,0,0,0,12.13,0,60.73,60.73,0,0,0,11.38-1.7,14.56,14.56,0,0,0,4.74-1.94c.11-.08.23-.16.34-.08s.08.29,0,.41a4.08,4.08,0,0,1-1.46,1.4,16.76,16.76,0,0,1-5.94,2,79.43,79.43,0,0,1-22.68.45c-.82-.1-1.63-.31-2.45-.49-.31-.07-.61-.19-.91-.28Z"/><path class="cls-17" d="M350.65,89a23.56,23.56,0,0,0,3.46-2.19,9,9,0,0,0,2.52-2.8,3.29,3.29,0,0,0-.09-3.79,3.49,3.49,0,0,0-3.76-1.37.93.93,0,0,1-.73,0c1.2-1.13,4.44-1.16,6.11.34a3.9,3.9,0,0,1,.64,5.22,8.86,8.86,0,0,1-3.2,2.85,20.65,20.65,0,0,1-4.27,1.76A.72.72,0,0,1,350.65,89Z"/></g></svg>