<svg id="Layer_1" data-name="Layer 1" xmlns="http://www.w3.org/2000/svg" xmlns:xlink="http://www.w3.org/1999/xlink" viewBox="0 0 500 315"><defs><style>.cls-1{fill:#fff;}.cls-1,.cls-10,.cls-11,.cls-12,.cls-13,.cls-14,.cls-15,.cls-16,.cls-17,.cls-18,.cls-19,.cls-20,.cls-21,.cls-5,.cls-7,.cls-8,.cls-9{fill-rule:evenodd;}.cls-2{fill:none;}.cls-3{clip-path:url(#clip-path);}.cls-4{fill:#ccf28b;}.cls-5{fill:#e8e8e8;}.cls-6{mask:url(#mask);}.cls-7{fill:#a4a5a5;}.cls-8{fill:#b21477;}.cls-9{fill:#00aa13;}.cls-10{fill:#007a0e;}.cls-11{fill:#008bab;}.cls-13{fill:#006880;}.cls-14{fill:#004656;}.cls-15{fill:#f7a8ae;}.cls-16{fill:#b3e7f3;}.cls-17{fill:#00aed6;}.cls-18{fill:#ffc41c;}.cls-19{fill:#f09a00;}.cls-20{fill:#33bede;}.cls-21{fill:#ee2737;}</style><clipPath id="clip-path"><rect class="cls-2" width="500" height="316"/></clipPath><mask id="mask" x="44.37" y="248.31" width="12.29" height="6.4" maskUnits="userSpaceOnUse"><g id="mask-2"><polygon id="path-1" class="cls-1" points="56.66 254.72 44.37 254.72 44.37 248.31 56.66 248.31 56.66 254.72"/></g></mask></defs><g class="cls-3"><ellipse class="cls-4" cx="244" cy="319.5" rx="213" ry="191.5"/><g id="driver_spot_hero_spot_hero_focus_on_orders" data-name="driver/spot_hero/spot_hero_focus_on_orders"><path id="Fill-3" class="cls-5" d="M127.38,281.87c.07-3.34-2.15-5.19-5.07-5.71-1.52-8.14-5.06-16.14-11.39-21.65a27.9,27.9,0,0,0-10.43-5.81,27.33,27.33,0,0,0-11.09-.62c1.52-7.94.23-16.69-5.32-22.85a19.52,19.52,0,0,0-19.58-5.86,25.24,25.24,0,0,0-.1-5.21,18.19,18.19,0,0,0-7.89-12.59c-10.09-7.29-27.55-2.67-32.57,8.68-3.66,8.27-2.12,18,1.56,26.29-7.13-2.16-15.12,1-20.16,6.52S-2.15,256-3.3,263.32c-1.54,9.86.26,22,9.26,26.31A39.54,39.54,0,0,0,.13,315.29a9.67,9.67,0,0,0,1.28,4.26,10,10,0,0,0,4.85,3.31,51.08,51.08,0,0,0,15.12,3.51c7.51.58,15.13-.5,22.55.79,4.82.85,9.41,2.67,14.17,3.79,29.18,6.81,50.42-14.58,64.51-37.28C124.76,290.22,127.29,286.06,127.38,281.87Z"/><g id="Group-7"><g class="cls-6"><path id="Fill-5" class="cls-7" d="M53.9,254a1.5,1.5,0,0,0,2,.53,1.49,1.49,0,0,0,.54-2,9.27,9.27,0,0,0-4.76-3.74,9.13,9.13,0,0,0-6.62.4,1.51,1.51,0,0,0-.53,2,1.53,1.53,0,0,0,2,.53c-.11.05-.08,0,.09,0l.31-.11.62-.17.4-.08c.21,0,.43-.05.64-.06a5.38,5.38,0,0,1,2.27.35l.27.09,0,0,.51.26c.17.1.33.19.49.3s.48.35.29.19a6.87,6.87,0,0,1,.83.79s.39.45.23.25c.12.15.22.31.33.47"/></g></g><path id="Fill-8" class="cls-7" d="M55.11,280.47c-1.38,1.33.71,3.42,2.09,2.1a7,7,0,0,1,8.39-.55c2.86,1.78,4.3,5.06,4.88,8.26a1.5,1.5,0,0,0,2.18.89c3.12-1.52,7-1.89,10.12-.14a8.24,8.24,0,0,1,4.29,7.49c-.07,1.91,2.89,1.9,3,0a11.21,11.21,0,0,0-5.76-10A13.66,13.66,0,0,0,73,287.87c-1-3.65-3.18-7.13-6.64-8.84a9.89,9.89,0,0,0-11.2,1.44"/><path id="Fill-10" class="cls-8" d="M355.1,301.2q13.92-.07,27.85.69c1.9.1,1.9-2.86,0-3q-13.92-.78-27.85-.69a1.48,1.48,0,0,0,0,3"/><path id="Fill-12" class="cls-9" d="M208.23,164s-26.63-3.53-59.92,51.24c-15.65,25.74-50.44,98.56-48,98.78,20.4,1.92,115.52-.6,204,1.31l9.39.2,3.32-50.81,56.63,38.5,26.56-74.11s-5-53.29-99.11-61.75c-59.07-5.33-65.45-3.36-92.9-3.36"/><path id="Fill-14" class="cls-10" d="M251.15,201.71a2.2,2.2,0,0,0,2.64-1.5,2.16,2.16,0,0,0-1.5-2.63,55.08,55.08,0,0,1-14.63-4.42,53.06,53.06,0,0,1-6.34-3.53c-.65-.42-1.3-.86-1.93-1.33l-.48-.36c-.19-.13.44.35.18.14a2.2,2.2,0,0,0-3,0,2.15,2.15,0,0,0,0,3c7.12,5.69,16.16,9.15,25.09,10.6"/><path id="Fill-16" class="cls-11" d="M340.37,259.37s-12.18.29-16.76,10.86c-3.8,8.75-13.49,31-19.65,45.11h.38c38,.82,74,1.25,101.2,1.58a304.5,304.5,0,0,0,41-1.8c-7.36-13.53-25.72-53-33.4-56.9-15.24-7.82-72.79,1.14-72.79,1.14"/><path id="Fill-18" class="cls-12" d="M324.29,166.24c41.44,8.75,60.36,28.55,68.94,43.6a166,166,0,0,1-22.09-4c-32.3-7.87-43.45-29.92-46.85-39.59"/><path id="Fill-20" class="cls-13" d="M368.86,204.94l-52.17,13.84,4.81-47.42a8,8,0,0,1,7.74-7.22L368.88,163a9.63,9.63,0,0,1,7.12,2.84l4.61,4.63Z"/><path id="Fill-22" class="cls-14" d="M371,205.34A4.09,4.09,0,0,1,368,208l-41.49,9.66a4.08,4.08,0,0,1-5-4.45l4.81-40.35a4.08,4.08,0,0,1,4.05-3.6h47.35a4.08,4.08,0,0,1,3.85,5.42L371,205.34"/><path id="Fill-24" class="cls-12" d="M332,178.31a3.33,3.33,0,1,1,3.33,3.33,3.33,3.33,0,0,1-3.33-3.33"/><path id="Fill-26" class="cls-12" d="M341.52,178a2.71,2.71,0,0,1,2.61-2.5l11.31-.36a2.7,2.7,0,0,1,2.7,3.41l-.1.36a2.71,2.71,0,0,1-2.61,2H344.22a2.72,2.72,0,0,1-2.7-2.91h0"/><path id="Fill-28" class="cls-7" d="M382.83,205.43s16.3.53,33.31,1.06c12.71.4,34.61-1.21,44.86-2.05a5.59,5.59,0,0,1,6.14,4.81,5.34,5.34,0,0,1-3.91,5.6c-6.19,1.87-18.18,5.63-30.37,10.16A134.5,134.5,0,0,0,401,242.72Z"/><path id="Fill-30" class="cls-15" d="M415.3,218.39c-5.11-8.85-10.75-11.08-10.75-11.08s.38-.47,1.05-1.15c1.81-1.77,5.74-4.9,10.21-3.95,6.17,1.3,8.79,1.79,13.9-.67,4.27-2.06,11.36-.61,15.94,4a14.71,14.71,0,0,1,2.39,3.1,27.19,27.19,0,0,1,3.71,9.79c.45,4.15-1.3,7.54-7.76,7.82,0,0-3.15,9.6-13,7.14,0,0-4.2,8.85-10.61,8.61s-10.29-5.58-10.29-5.58v0c1.94-1.22,4.15-2.53,6.55-3.87v0c.24-.33,3.56-5.57-1.38-14.15"/><path id="Fill-32" class="cls-12" d="M429.17,228.72a2.16,2.16,0,0,0,2.14,2.14,2.19,2.19,0,0,0,2.14-2.14c.25-3.4-.77-6.82-1.92-10-1-2.83-2.51-5.59-5.25-7.09a2.14,2.14,0,0,0-2.16,3.7,5.36,5.36,0,0,1,2.07,2,12.07,12.07,0,0,1,1.36,3,21,21,0,0,1,1.62,8.43"/><path id="Fill-34" class="cls-11" d="M428.13,221c-1.23-11.69-9.81-20.46-19.16-19.59s-15.92,11-14.69,22.74,9.81,20.46,19.16,19.58S429.36,232.7,428.13,221"/><path id="Fill-36" class="cls-14" d="M401,242.72A76.38,76.38,0,0,0,402,219l13.35-.61A14.76,14.76,0,0,1,418,225.7,8.14,8.14,0,0,1,414.5,233L401,242.72"/><path id="Fill-38" class="cls-12" d="M327.48,264.39c3.83-3.45,7.67-4.13,12.89-5,0,0,4.72-1,11.94-2.23l21.58,6.67-11.62,4.43-39.57,4.09s1.83-5.28,4.78-7.94"/><path id="Fill-40" class="cls-10" d="M262.11,314.31c-.85,2.62,3.28,3.74,4.13,1.13a124.55,124.55,0,0,0,4.95-24.19,237,237,0,0,0,.27-49.74c-1.35-14.27-3.5-29-9-42.4-1-2.52-5.17-1.41-4.12,1.14a112.84,112.84,0,0,1,6,21.2,234.7,234.7,0,0,1,3.93,48.21c-.23,15-1.51,30.34-6.17,44.65"/><path id="Fill-42" class="cls-15" d="M259.82,182.76c26.44,14.12,33.12,7.69,43.84-11.08s9-51.91,9-51.91c-17-5.08-65.18-5.22-65.18-5.22L244,176.71c6.4,6.18,15.85,6,15.85,6"/><path id="Fill-44" class="cls-12" d="M314.49,119c-.15-2.75-4.43-2.75-4.28,0A114.8,114.8,0,0,1,309,143.6a117.6,117.6,0,0,1-5.48,21.23c-2.26,6.27-5,12.78-10,17.33a18.54,18.54,0,0,1-7.93,4.3c-3.49.86-7.12.33-10.56-.52a54.46,54.46,0,0,1-18.48-8.5c-2.25-1.6-4.39,2.11-2.16,3.69a55,55,0,0,0,23.12,9.67A22.54,22.54,0,0,0,296.74,185c5.47-5,8.43-12.17,10.91-19a119.74,119.74,0,0,0,6.84-47"/><path id="Fill-46" class="cls-12" d="M261.92,145.57a1.43,1.43,0,0,0-2.75.76c.61,2.13-.4,4.44-1.48,6.26s-2.71,3.31-4.86,3.29a1.43,1.43,0,0,0,0,2.85c3.11,0,5.66-2,7.22-4.54s2.71-5.68,1.87-8.62"/><path id="Fill-48" class="cls-12" d="M274.44,163.34a1.43,1.43,0,0,0,0-2.86,16.48,16.48,0,0,1-6-1.09,14.71,14.71,0,0,1-4-2.39,17.58,17.58,0,0,1-1.51-1.48c-.2-.22-.39-.45-.57-.68s.08.13-.14-.18l-.26-.36a12.64,12.64,0,0,1-.74-1.21c-.08-.15-.14-.31-.22-.46s.13.38,0,.06l-.07-.18c-.57-1.74-3.32-1-2.75.76a9.09,9.09,0,0,0,1.11,2.2,17.94,17.94,0,0,0,15.05,7.87"/><path id="Fill-50" class="cls-1" d="M253.21,126.89a3.64,3.64,0,0,1,.77-4.21,7.3,7.3,0,0,1,4-1.76,19.56,19.56,0,0,1,6.11-.11,21.15,21.15,0,0,1,4.54.78,5.46,5.46,0,0,1,3.2,2.29,3.58,3.58,0,0,1,0,3.9c-1.05,1.39-3,1.44-4.72,1.35q-4.77-.23-9.49-.48c-1.64-.08-3.52-.3-4.39-1.76"/><path id="Fill-52" class="cls-1" d="M289.21,128.83a3.39,3.39,0,0,1,.77-4.05,7.47,7.47,0,0,1,4-1.71,20.86,20.86,0,0,1,6.11-.1,21.85,21.85,0,0,1,4.55.76,5.44,5.44,0,0,1,3.19,2.21,3.33,3.33,0,0,1,0,3.75c-1,1.34-3,1.39-4.72,1.31-3.17-.15-6.33-.3-9.49-.47-1.63-.07-3.52-.29-4.38-1.7"/><path id="Fill-54" class="cls-12" d="M301,131.24c4.14,0,4.13-6.42,0-6.42s-4.13,6.42,0,6.42"/><path id="Fill-56" class="cls-12" d="M268.21,128.27a3.15,3.15,0,0,0,.82-1.41l.12-.86a3.18,3.18,0,0,0-.44-1.62c-.17-.21-.34-.43-.5-.65a2.47,2.47,0,0,0-1-.66,2.89,2.89,0,0,0-2.48,0,2.4,2.4,0,0,0-1,.66,1.14,1.14,0,0,0-.11.11,3.26,3.26,0,0,0-.83,1.41c0,.29-.07.57-.11.86a3.18,3.18,0,0,0,.44,1.62l.5.65a2.4,2.4,0,0,0,1,.66,2.89,2.89,0,0,0,2.48,0,2.47,2.47,0,0,0,1-.66l.11-.11"/><path id="Fill-58" class="cls-12" d="M312.35,119c.49,11.87-2.15,28.74-8,50.11C297.48,194.29,274.44,188,274.44,188a68.49,68.49,0,0,1,17.83,27.11c1.64,4.77,4.87,18.79,6.86,22.55,5,9.42,10.06-.36,13.6-24.23,5-33.42,3.94-94.34,3.94-94.34Z"/><path id="Fill-60" class="cls-16" d="M307.71,222.59s6.18-18.43,22.6-22.32,24-.59,24-.59Z"/><path id="Fill-62" class="cls-17" d="M285.65,256.74c20.06-2.75,37.64.71,66.61,8.19s44.66-5.67,50.94-23.05-2.66-39.11-26.8-42.06-39.28-2.82-57.72,13.51C301.91,228.18,284,229.09,284,229.09Z"/><path id="Fill-64" class="cls-12" d="M308.48,239.31c-1.3-12.36-11-21.58-21.57-20.59s-18.14,11.8-16.84,24.16,11,21.58,21.57,20.59,18.15-11.81,16.84-24.16"/><path id="Fill-66" class="cls-12" d="M228.59,114.85,204.78,131.3s-1.86,19.23-4.45,27.16-.26,9.37,2.59,23.5,5.19,37.29,13.74,54.1,18.41,4.63,23.86-25.1,6.92-96.41,6.92-96.41Z"/><path id="Fill-68" class="cls-10" d="M151.61,295.3c-2.73-9.05-8.71-45.88-8.38-70.86.29-22,12.18-32.68,24.82-32.91,6.62-.12,13.2,1.32,19.08,8.18,7.59,8.84,14,43.59,14,43.59L245,232.87,263.86,256l-9,12.63S230.62,300,209.47,315.42c-11.29,8.21-29.89,11.87-43.64,2.05-6.13-4.38-11.1-11.82-14.22-22.17"/><path id="Fill-70" class="cls-12" d="M226.46,267.08c-10.94-11-10-27.43-10-27.43L245,232.88,263.86,256l-9,12.63a23.46,23.46,0,0,1-28.44-1.57"/><path id="Fill-72" class="cls-13" d="M316.46,158.77c.52-21.74.22-38.41.22-38.41l10.2,1.34a109,109,0,0,1,.12,17.66c-.94,12.3-6.37,17.33-10.54,19.41"/><path id="Fill-74" class="cls-15" d="M286.32,221.22c-6.4-7.65-17.62-.8-21.11,1.94s-5.23-1.46-11.43.72-5.43,6.74-10,7.47-10.74-.73-14.43,2.74-1.74,12.07-1.74,12.07,7.36-2.24,9.11,5.78-4.07,10.74-4.07,10.74a7.08,7.08,0,0,0,5.43,3.31c4.07.57,7.75-3.12,7.75-3.12s1.16,1.45,6.2,1.82,7.63-4.37,7.63-4.37a12.64,12.64,0,0,0,8.85,4.19c5.62.18,8.33-6.56,8.33-6.56s4.27,4,8.92,1.42,11.44-14.36,8.48-22.19a111,111,0,0,0-7.92-16"/><path id="Fill-76" class="cls-12" d="M275.83,252.53c-.76,2.65,3.37,3.78,4.13,1.14a26.44,26.44,0,0,0-3.72-22.24,2.14,2.14,0,0,0-3.7,2.17,22.25,22.25,0,0,1,3.29,18.93"/><path id="Fill-78" class="cls-12" d="M259.69,255.53a2.18,2.18,0,0,0,1.5,2.63,2.15,2.15,0,0,0,2.63-1.49,23.15,23.15,0,0,0-3.74-17.24,2.19,2.19,0,0,0-2.94-.76,2.16,2.16,0,0,0-.76,2.93,18.86,18.86,0,0,1,3.31,13.93"/><path id="Fill-80" class="cls-12" d="M246.48,243.66a2.2,2.2,0,0,0-3,0,2.15,2.15,0,0,0,0,3,8.27,8.27,0,0,1,1.16,1.13c-.25-.3.11.14.15.21.16.23.29.46.42.69a4.84,4.84,0,0,1,.36.72c-.17-.38.07.21.08.24a10.37,10.37,0,0,1,.4,1.45c0,.07.11.71.07.36,0,.33.06.66.07,1a14.24,14.24,0,0,1,0,1.73,23.38,23.38,0,0,1-.53,3.37,2.18,2.18,0,0,0,1.49,2.63,2.15,2.15,0,0,0,2.63-1.49,21.44,21.44,0,0,0,.43-8.73,11,11,0,0,0-3.67-6.33"/><path id="Fill-82" class="cls-18" d="M346,244.35c-12.89-28.44,12.69-44.32,32.38-41.91C391.13,204,409.7,222,398.52,244.35s-46.06,14.24-52.52,0"/><path id="Fill-84" class="cls-16" d="M329.54,225.29c.17-3.77,3.66-17.86,21.44-23.74a87.74,87.74,0,0,1,33.59-4.14C367.64,198.52,359,213.07,356,219.72a6.48,6.48,0,0,1-5.35,3.64l-21.09,1.93"/><path id="Fill-86" class="cls-12" d="M370.13,202.33a29.11,29.11,0,0,1,14.44-4.93c19-1.24,33.34,10.6,37.65,19.12a2.76,2.76,0,0,1-2.43,3.94l-19.35,1.36c-3.78-10.94-14.07-18.4-22.06-19.38a34,34,0,0,0-8.07,0l-.18-.11"/><path id="Fill-88" class="cls-7" d="M206,257.31c-1.31-6.53,5.92-7.57,5.92-7.57l15.73-3.58s7.38-2.24,9.12,5.78-4.07,10.75-4.07,10.75-15.78,3.23-15.91,3.24c-2.93-1-9.17-7.23-10.79-8.62"/><path id="Fill-90" class="cls-12" d="M204.91,256c1-5.07,5.87-6.43,7.76-6.43h0c4.51.29,8.44,4.47,8.1,10.2-.5,8.32-9.55,7.4-12.84,4.84a8.34,8.34,0,0,1-3.06-8.61"/><path id="Fill-92" class="cls-10" d="M258.21,199.14a2.14,2.14,0,0,0,4.13,1.14,27.3,27.3,0,0,0,.7-6.56c0-2.05.11-4.28-1-6.07a2.19,2.19,0,0,0-2.93-.77,2.15,2.15,0,0,0-.77,2.93c.07.11.34.74.18.26,0,.17.11.33.15.5s.11.7.08.4,0,.35,0,.41c0,.85,0,1.7,0,2.55s0,1.8-.12,2.7c0,.28-.05.55-.08.83.05-.38,0,.16-.05.25-.08.48-.18,1-.3,1.43"/><path id="Fill-94" class="cls-12" d="M396.32,257.75c1.27-1.33-.75-3.35-2-2a33.07,33.07,0,0,1-17.11,9.1,56.78,56.78,0,0,1-19.52,1.25c-1.8-.25-2.57,2.5-.76,2.75a60.59,60.59,0,0,0,21-1.25,35.77,35.77,0,0,0,18.37-9.83"/><path id="Fill-96" class="cls-19" d="M376.18,207.38c-2.3-1.54-4.44,2.17-2.16,3.69a31.13,31.13,0,0,1,11.21,13.38c2.22,5.09,3.7,12.31,1.21,17.55-1.18,2.48,2.51,4.65,3.69,2.16,3.06-6.44,1.87-14.54-.79-20.92a35.56,35.56,0,0,0-13.16-15.86"/><path id="Fill-98" class="cls-19" d="M365.84,223.2c-2-1.87-5.06,1.15-3,3a26.73,26.73,0,0,1,8.65,21.51,2.16,2.16,0,0,0,2.14,2.14,2.19,2.19,0,0,0,2.14-2.14,30.82,30.82,0,0,0-9.9-24.53"/><path id="Fill-100" class="cls-12" d="M306.69,119.66a2.16,2.16,0,0,0,1.49-2.63,2.19,2.19,0,0,0-2.63-1.5c-1,.16-1.46.21-2.67.34l-3.25.28c-2.21.19-4.43.39-6.62.74a2.14,2.14,0,1,0,1.14,4.13c1-.16,1.45-.21,2.67-.33s2.16-.2,3.25-.29c2.21-.19,4.42-.38,6.62-.74"/><path id="Fill-102" class="cls-12" d="M271.14,119.28c1.19.13,2.09-1.09,2.14-2.15a2.21,2.21,0,0,0-2.14-2.14c-.08,0-.88-.11-.42,0l-.82-.13q-.79-.12-1.59-.27c-1.1-.19-2.2-.41-3.29-.63-2.26-.44-4.52-.88-6.82-1.14a2.17,2.17,0,0,0-2.14,2.14,2.21,2.21,0,0,0,2.14,2.15c.08,0,.89.11.43,0l.81.13q.81.12,1.59.27c1.1.19,2.2.41,3.29.63,2.26.44,4.53.87,6.82,1.14"/><path id="Fill-104" class="cls-10" d="M277,198.68a2.48,2.48,0,0,0,1.28-1,2.12,2.12,0,0,0-.76-2.92,2.13,2.13,0,0,0-1.65-.22,30.84,30.84,0,0,1-4,1.34c-.68.17-1.36.32-2.05.45-.35.07-.71.13-1.07.18-.11,0-.62.14,0,0-.2,0-.41.05-.61.07a2.22,2.22,0,0,0-2.15,2.15,2.2,2.2,0,0,0,.63,1.51,2.12,2.12,0,0,0,1.52.62,33.25,33.25,0,0,0,8.94-2.2"/><path id="Fill-106" class="cls-14" d="M199.56,118.83c-2.55-16.77,2.31-37.23,25.16-50.07s63.67-10.51,81.69,5.13,22.14,45,20.59,65.47c-.94,12.3-6.37,17.33-10.54,19.41.52-21.74.22-38.4.22-38.4l-4.05-.6C290.05,115,244,114.55,244,114.55c0,.43,1.71,35.86-12.78,37.08-15,1.26-29.1-16-31.63-32.8"/><path id="Fill-108" class="cls-9" d="M199.56,118.83c-2.27-15,1.36-32.9,18.43-45.7a14.24,14.24,0,0,1,12.07,5.74c8.54,11.5,0,22.66-7.53,20.78S215.9,90.27,207.91,93s-6.66,16.65-2.8,19.6c3.12,2.39,2.39,13.17-3.12,15.22a42.37,42.37,0,0,1-2.43-9"/><path id="Fill-110" class="cls-9" d="M249.77,61.16c18.52-2.26,39.09,1,52.18,9.43A47.71,47.71,0,0,1,307,82.24c4.27,15,4.61,27.41,3.41,37.08-8.81-1.66-20.48-2.74-31.58-3.45a71.78,71.78,0,0,0-2.12-27.55c-4.08-14.91-15.93-22.89-27-27.16"/><path id="Fill-112" class="cls-17" d="M215.47,125.13c-7.15,3.88-15.39-7.49-7.43-24.3s36.32-54.09,59.13-56.9,28.61,2.53,43.46,15.76C318,66.23,327,74.53,331.17,82.63,326.68,79,320,74.83,312,74.72c-20.64-.25-68.49,10.86-92.42,32.57v0c.15.76,2.81,14-4.14,17.81"/><path id="Fill-114" class="cls-13" d="M307.44,74.83c1.65-.09,3.18-.12,4.58-.11a29.5,29.5,0,0,1,16.88,5.45,7.88,7.88,0,0,1,2.71,3.33c3.17,7.55,2.36,15.91-6.65,25.25-2.74-12.81-8.16-25.28-17.52-33.92"/><path id="Fill-116" class="cls-13" d="M221.76,150.06c3.75-2.68,8.24-11,8-35.37l14.22-.14c0,.43,1.71,35.86-12.77,37.08a20.21,20.21,0,0,1-9.44-1.57"/><path id="Fill-118" class="cls-20" d="M234.57,64.48c10.33-10.59,22.06-19.25,32.61-20.55,22.83-2.8,28.6,2.53,43.45,15.76,7.35,6.54,16.36,14.84,20.54,23C326.68,79,320,74.83,312,74.72c-1.4,0-2.93,0-4.58.11-.34-.33-.68-.63-1-.94-15.65-13.58-48.51-17.12-71.84-9.41"/><path id="Fill-120" class="cls-12" d="M326.23,271.56c.76-1.66-1.7-3.11-2.46-1.44-5.56,12.19-10.83,24.53-16.73,36.57-.8,1.65,1.66,3.09,2.47,1.44,5.89-12,11.16-24.38,16.72-36.57"/><path id="Fill-122" class="cls-12" d="M329.11,132.4c-.09-1.83-2.94-1.84-2.85,0a35.39,35.39,0,0,1-3.4,16.14c-2,4.41-5.24,8.32-10.27,9-1.82.26-1,3,.76,2.76,5.51-.77,9.51-5.1,11.78-9.93a38.37,38.37,0,0,0,4-18"/><path id="Fill-124" class="cls-12" d="M273.48,147a1.44,1.44,0,0,0-1.43,1.43,5.61,5.61,0,0,0,5.43,5.54,5.47,5.47,0,0,0,3.75-1.44,4.21,4.21,0,0,0,.87-1.22,6.4,6.4,0,0,0,5.26,1.06,4.9,4.9,0,0,0,3.27-2.86,6.56,6.56,0,0,0-.43-4.7q-2.65-6.57-4.83-13.32c-.56-1.75-3.31-1-2.75.75q2.17,6.75,4.83,13.33a12.25,12.25,0,0,1,.56,1.78s0,.23,0,.26a1.82,1.82,0,0,1,0,.33,2.17,2.17,0,0,0,0,.26c0,.1-.05.21-.08.31l0,.06,0,0-.16.28,0,0,0,0a2.5,2.5,0,0,0-.23.23l0,0-.08,0a2.82,2.82,0,0,1-.29.18l-.18.09-.2.07-.39.1h-.75s-.19,0-.23,0-.25-.06-.38-.09l-.36-.12-.07,0-.06,0a7.08,7.08,0,0,1-.66-.38l-.18-.13c-.09-.08-.18-.15-.27-.24l-.16-.17s-.13-.19-.15-.22a.83.83,0,0,1-.07-.13h0c0-.09-.07-.43,0-.09a1.46,1.46,0,0,0-1.42-1.43,1.41,1.41,0,0,0-1.06.49,1.54,1.54,0,0,0-.55,1.09c0,.32,0,.64-.06,1,0-.28,0,.14,0,.17s-.06.27-.1.4,0,.15-.08.23h0l-.18.32s0,0,0,0h0c-.08.07-.14.15-.22.22l-.15.13.13-.09a1.23,1.23,0,0,1-.31.19,3.3,3.3,0,0,1-.32.18h-.05a6.29,6.29,0,0,1-.62.17h-.41a1,1,0,0,1-.38,0l.17,0-.21,0-.31-.07-.14-.05c-.22-.11-.42-.23-.63-.36l0,0,0,0-.24-.23-.13-.15-.17-.22a3.54,3.54,0,0,1-.19-.33,1.26,1.26,0,0,1-.07-.16,3.27,3.27,0,0,1-.17-.53l0-.15c0-.12,0-.23,0-.34a1.45,1.45,0,0,0-1.42-1.43"/><path id="Fill-126" class="cls-12" d="M151.61,295.3c3.12,10.35,8.09,17.79,14.22,22.17a31.07,31.07,0,0,0,10.88,4.93c.55-11.2,2-28.11,5.78-39.91,7.72-24.09,18.68-39.19,18.68-39.19h0c0-.06-6.46-34.76-14-43.59-5.88-6.86-12.46-8.3-19.08-8.18-12.64.23-24.53,10.88-24.82,32.91-.33,25,5.65,61.81,8.38,70.86"/><path id="Fill-128" class="cls-7" d="M200.53,240.09c-6.77,5.12-16.62,15.19-25.12,34.49-6.65,15.08-11.4,29.24-12.43,40.51a28.42,28.42,0,0,0,2.84,2.38,31.55,31.55,0,0,0,12,5.16,163.78,163.78,0,0,1,6.55-43.69c5.87-20.15,19.21-36.21,19.21-36.21l-2.39.57s-.22-1.2-.64-3.21"/><path id="Fill-130" class="cls-12" d="M189.29,203.56a1.43,1.43,0,0,0-2.46,1.44c3.74,6.32,6.1,13.65,8.54,20.54a182.62,182.62,0,0,1,7,23.3c.37,1.8,3.12,1,2.75-.76A182.57,182.57,0,0,0,198,224.32c-2.48-7-4.89-14.37-8.67-20.76"/><path id="Fill-132" class="cls-1" d="M399,172.29c5.75,12.76,37.94,19.34,46.76-4.16s-16.32-43.36-34.9-35.42-17.61,26.82-17.61,26.82-8.38,9.34-6.28,10.72,12,2,12,2"/><path id="Fill-134" class="cls-1" d="M379.57,125.25c9.85,6.07,34.93-4.35,30.08-24.51s-31.25-22.12-40.29-8.08.37,26.52.37,26.52-1.41,10.27.66,10.24,9.18-4.17,9.18-4.17"/><path id="Fill-136" class="cls-1" d="M433.13,108s2,9.4,3.57,11.21,9.39-7.43,9.39-7.43,18-1.68,23.23-20.43c5.87-20.85-17.95-41.31-38.52-28.55-24.05,14.92-10.63,41.43,2.33,45.2"/><path id="Fill-138" class="cls-9" d="M438.1,93.54a4.7,4.7,0,1,1-4.7-4.69,4.71,4.71,0,0,1,4.7,4.69"/><path id="Fill-140" class="cls-9" d="M459.69,93.81a4.69,4.69,0,0,1-9.37.31,1.62,1.62,0,0,1,0-.31,4.7,4.7,0,0,1,4.7-4.69h.2a4.69,4.69,0,0,1,4.49,4.68"/><path id="Fill-142" class="cls-9" d="M456.41,86.55a1.74,1.74,0,0,1-.64.22h0a2,2,0,0,1-.35,0l-.17,0a5.87,5.87,0,0,0-.59,0h0a5.42,5.42,0,0,0-1.36.16,5.81,5.81,0,0,0-2.9,1.62l0,0a1.73,1.73,0,0,0-.23.24,6.43,6.43,0,0,0-1.82,4.52,6.67,6.67,0,0,0,.29,2,30.65,30.65,0,0,1-3.5.19,46.2,46.2,0,0,1-5.3-.36,6.49,6.49,0,0,0,.25-1.78,2.11,2.11,0,0,0,0-.36s0,0,0,0a5.67,5.67,0,0,0-.39-2.09,6.06,6.06,0,0,0-3.61-3.6.88.88,0,0,0-.27-.1l-.16,0-.23-.07-.17,0a6.2,6.2,0,0,0-1.74-.26,6.59,6.59,0,0,0-3.3.88,1.24,1.24,0,0,1-1.42-.11,1.26,1.26,0,0,1-.22-1.71l1.15-1.62-.1-.09a1.71,1.71,0,0,1,.47-2.92,28.45,28.45,0,0,1,14.31-.56,1.42,1.42,0,0,1,1,1.32,11.9,11.9,0,0,1-.09,1.69,2.59,2.59,0,0,1-2.64,2.35,4.09,4.09,0,0,0,.1,3.29c1,2,4.8,2.16,5.93-1.13.94-2.72,1.31-5.45-.94-12.79a4.69,4.69,0,0,1-2.45-.19.8.8,0,0,1-.66-.84.86.86,0,0,1,.09-.47,1,1,0,0,1,1-.47,4.12,4.12,0,0,0,1.5.09l-.28-.75a1.22,1.22,0,0,1,1.51-1.6,4.18,4.18,0,0,1,3.29,2.63c.85,2.64-.75,2.07-1.32,1.88.76.38,4.9,2.45,6.87,8.94a1.84,1.84,0,0,1-.88,2"/><path id="Fill-144" class="cls-21" d="M387.7,103.77a42.12,42.12,0,0,0-.5-8,1.54,1.54,0,0,0-1.75-1.35,1.65,1.65,0,0,0-1.24,1.9,29.89,29.89,0,0,1,.47,5.21,1.09,1.09,0,0,1-1,1.13,1.08,1.08,0,0,1-1-1.12V95.26a1.69,1.69,0,0,0-1.26-1.72,1.57,1.57,0,0,0-1.77,1.63v6.38a1.09,1.09,0,0,1-1.05,1.12,1.08,1.08,0,0,1-1-1.13,29.89,29.89,0,0,1,.47-5.21,1.65,1.65,0,0,0-1.25-1.9A1.53,1.53,0,0,0,375,95.79a41.49,41.49,0,0,0-.51,7.45,7.38,7.38,0,0,0,3.24,6.06,3.31,3.31,0,0,1,1.53,2.62l.16,3.75a1.69,1.69,0,1,0,3.38,0l.17-3.63a3.21,3.21,0,0,1,1.56-2.59,7,7,0,0,0,3.2-5.69"/><path id="Fill-146" class="cls-21" d="M396.58,93.52c-4.13,0-6.2,6.2-6.2,10.29a6.42,6.42,0,0,0,2.87,5.26,3,3,0,0,1,1.39,2.39l.2,4.22a1.74,1.74,0,1,0,3.48,0l.2-4.22a3.06,3.06,0,0,1,1.39-2.39,6.42,6.42,0,0,0,2.87-5.26c0-4.09-2.07-10.29-6.2-10.29"/><path id="Fill-148" class="cls-9" d="M434.43,151.48A3.3,3.3,0,0,0,433,149c-.79-.56-1.6-1.11-2.43-1.64-3.28,1.51-7.48,3.66-10.87,5.44a3.61,3.61,0,0,0-1.95,3.11c0,1.7-.07,3.41-.07,5.12l-2.56-4.23-2.56,1.67c0-1.62.06-3.24.14-4.86a3.65,3.65,0,0,1,1.94-3c3.57-1.87,7.95-4.19,11.35-5.85-1.14-.59-2.3-1.16-3.48-1.68a3.33,3.33,0,0,0-2.59,0,57.64,57.64,0,0,0-10.63,5.69,3.23,3.23,0,0,0-1.42,2.38,74.13,74.13,0,0,0-.23,11.15,3.29,3.29,0,0,0,1.19,2.33,51.54,51.54,0,0,0,10.52,7,3.39,3.39,0,0,0,2.95,0A71.44,71.44,0,0,0,433,165a3.28,3.28,0,0,0,1.34-2.37,73.45,73.45,0,0,0,.06-11.1"/></g></g></svg>