<svg id="Layer_1" data-name="Layer 1" xmlns="http://www.w3.org/2000/svg" xmlns:xlink="http://www.w3.org/1999/xlink" viewBox="0 0 500 315"><defs><style>.cls-1,.cls-5{fill:none;}.cls-2{clip-path:url(#clip-path);}.cls-3{fill:#fdd086;}.cls-4{fill:#fff;}.cls-5{stroke:#ff8f1c;stroke-miterlimit:10;}.cls-6{fill:#ff8f1c;}.cls-7{fill:#4ecfdf;}</style><clipPath id="clip-path"><rect class="cls-1" y="1" width="500" height="315"/></clipPath></defs><g class="cls-2"><ellipse class="cls-3" cx="249.5" cy="333" rx="213" ry="191.5"/></g><rect class="cls-4" x="130" y="58" width="239" height="173" rx="12"/><line class="cls-5" x1="130" y1="86" x2="369" y2="86"/><circle class="cls-6" cx="313.5" cy="74.5" r="4.5"/><circle class="cls-6" cx="326.5" cy="74.5" r="4.5"/><path d="M128.11,92.64V206.2c0,3.91-.12,7.83,0,11.74.13,3.16.66,6.44,2.71,9s5.23,3.49,8.36,3.87c3.75.46,7.59.44,11.37.59q6.36.27,12.72.5,12.62.48,25.22.84,25.33.75,50.68,1.07l6.25.07a1.5,1.5,0,0,0,0-3q-49.45-.54-98.87-2.65c-3.36-.14-7,0-10.25-1.08s-4.57-3.77-5-6.92a78.41,78.41,0,0,1-.21-10.51v-117a1.5,1.5,0,0,0-3,0Z"/><circle class="cls-6" cx="340.5" cy="74.5" r="4.5"/><circle class="cls-7" cx="137" cy="101" r="43"/><circle class="cls-7" cx="284" cy="243" r="37"/><circle class="cls-7" cx="368.56" cy="156.34" r="24"/><path class="cls-4" d="M272.24,221.86a25.56,25.56,0,0,1,2.34,1.28c3,2,5.39,1.48,6.65-2,.9-2.48,2.37-3.38,4.94-2.84s5.05.48,5.26,4c.23,3.83,2.68,5,5.88,3.54,3-1.35,4.51-.11,6.25,2s2.18,3.85.25,6.1c-2.49,2.92-1.54,5.43,1.81,6.59s2.89,3.46,2.81,6-1.3,4-3.85,4.27c-3.77.38-5,2.55-3.62,5.84,1.25,3,.1,4.57-2.08,6.33s-3.84,1.94-6.12.15c-2.88-2.27-5.34-1.54-6.53,2-1,2.9-3,3-5.53,2.74s-4.31-.95-4.66-4c-.45-4-3-4.93-6.46-3.35-2.88,1.32-4.23-.41-5.75-2.34s-2.14-3.57-.37-5.74c2.47-3,2-5.49-1.83-6.92-2.12-.8-3.48-2-2.78-4.46.63-2.22-.13-5.2,3.56-5.61,4.34-.48,5.67-2.69,3.83-6.89C265.11,226.07,269,221.64,272.24,221.86Zm21.32,21.47A9.91,9.91,0,0,0,284,233.24c-5.44-.17-10.42,4.64-10.34,10a10.29,10.29,0,0,0,10,9.82A9.83,9.83,0,0,0,293.56,243.33Z"/><path class="cls-4" d="M126.9,114.73l17.24-29.37a2.27,2.27,0,0,1,3.14-.8h0a2.27,2.27,0,0,1,.79,3.1l-17.21,29.39a2.3,2.3,0,0,1-3.1.83l0,0A2.28,2.28,0,0,1,126.9,114.73Z"/><path class="cls-4" d="M153.63,106.35l7.36-4.2a1.08,1.08,0,0,0,0-1.86l-7.36-4.2a3,3,0,0,1-1.06-4.2h0a3,3,0,0,1,4.1-1l12,7.16a3.68,3.68,0,0,1,1.78,3.15h0a3.64,3.64,0,0,1-1.78,3.14l-12,7.2a3,3,0,0,1-4.11-1h0A3,3,0,0,1,153.63,106.35Z"/><path class="cls-4" d="M123,96.08l-7.36,4.21a1.07,1.07,0,0,0,0,1.85l7.36,4.21a3,3,0,0,1,1.06,4.19h0a3,3,0,0,1-4.1,1l-12-7.16a3.66,3.66,0,0,1-1.78-3.15h0a3.65,3.65,0,0,1,1.78-3.14l12-7.2a3,3,0,0,1,4.1,1h0A3,3,0,0,1,123,96.08Z"/><path class="cls-6" d="M235.68,158.55H221.57l-1.81,4.37H212l13.15-29.4h6.93l13.15,29.4h-7.73Zm-2.6-6.34-4.41-10.71h-.09l-4.41,10.71Z"/><path class="cls-6" d="M247.48,133.52h15.8c6.42,0,11.09,3.69,11.09,10.12s-4.58,10.08-11.09,10.08H255v9.2h-7.48Zm15.17,13.82c2.26,0,4.24-1.18,4.24-3.78s-1.77-3.66-4.16-3.66H255v7.44Z"/><path class="cls-6" d="M277.51,133.52H285v29.4h-7.48Z"/><path class="cls-4" d="M382.92,149.35v.51a1.66,1.66,0,0,1-.81,1.42l-6.3,3.79a1.66,1.66,0,0,1-2.26-.54l0-.06a1.66,1.66,0,0,1,.57-2.31l1.65-1H357.87a1.66,1.66,0,0,1-1.66-1.66h0a1.66,1.66,0,0,1,1.66-1.66h17.59l-1.39-.82a1.67,1.67,0,0,1-.56-2.31l0-.06a1.66,1.66,0,0,1,2.26-.54l6.3,3.79A1.66,1.66,0,0,1,382.92,149.35Z"/><path class="cls-4" d="M356.21,161.35v.51a1.66,1.66,0,0,0,.81,1.42l6.3,3.79a1.66,1.66,0,0,0,2.26-.54l0-.06a1.66,1.66,0,0,0-.57-2.31l-1.65-1h17.86a1.66,1.66,0,0,0,1.66-1.66h0a1.66,1.66,0,0,0-1.66-1.66H363.67l1.39-.82a1.67,1.67,0,0,0,.56-2.31l0-.06a1.66,1.66,0,0,0-2.26-.54l-6.3,3.79A1.66,1.66,0,0,0,356.21,161.35Z"/><path d="M280.73,204.43A37.79,37.79,0,0,0,256.45,217a39.31,39.31,0,0,0-9.89,25.91c-.13,9.43,2.64,19.41,8.52,26.89,5,6.41,12.72,10.11,20.68,11.25a45.73,45.73,0,0,0,26.5-4.21c1.73-.86.21-3.45-1.52-2.6-12.69,6.28-30.84,6.43-41.38-4.12-6-6-9.06-15-9.68-23.34a37.36,37.36,0,0,1,6.66-24.91C262,214,271,208.38,280.73,207.43c1.9-.18,1.92-3.18,0-3Z"/><path d="M128.08,57.39a38.2,38.2,0,0,0-27,13.85,42.31,42.31,0,0,0-8.9,25.59c-.38,19.79,12.63,37.81,31,44.77a49.1,49.1,0,0,0,36.51-1c1.77-.76.25-3.35-1.51-2.59a45.4,45.4,0,0,1-53.38-13.32c-11-13.57-13.1-33.83-3.44-48.74a35,35,0,0,1,26.73-15.55c1.91-.13,1.93-3.13,0-3Z"/><path d="M354.82,135.19a27.19,27.19,0,0,0-9.45,25.29c1.68,9.15,8.58,17,17.74,19.12a22.75,22.75,0,0,0,15.47-1.85c1.72-.88.21-3.47-1.51-2.59a19.89,19.89,0,0,1-22.67-3.66,22.37,22.37,0,0,1-5.35-22.56,25.4,25.4,0,0,1,7.89-11.63c1.48-1.24-.65-3.35-2.12-2.12Z"/></svg>