<?xml version="1.0" encoding="UTF-8"?>
<svg width="114px" height="26px" viewBox="0 0 114 26" version="1.1" xmlns="http://www.w3.org/2000/svg" xmlns:xlink="http://www.w3.org/1999/xlink">
    <!-- Generator: Sketch 62 (91390) - https://sketch.com -->
    <title>Group 17</title>
    <desc>Created with Sketch.</desc>
    <defs>
        <polygon id="path-1" points="0.0002 0.0001 24.0002 0.0001 24.0002 24 0.0002 24"></polygon>
        <polygon id="path-3" points="0 25.954 113.399 25.954 113.399 0 0 0"></polygon>
    </defs>
    <g id="Page-1-Copy" stroke="none" stroke-width="1" fill="none" fill-rule="evenodd">
        <g id="Group-38" transform="translate(-313.000000, -196.000000)">
            <g id="Group-17" transform="translate(313.000000, 196.000000)">
                <g id="Group-3" transform="translate(0.000000, 1.954000)">
                    <mask id="mask-2" fill="white">
                        <use xlink:href="#path-1"></use>
                    </mask>
                    <g id="Clip-2"></g>
                    <path d="M24.0002,12.0001 C24.0002,18.6271 18.6272,24.0001 12.0002,24.0001 C5.3722,24.0001 0.0002,18.6271 0.0002,12.0001 C0.0002,5.3721 5.3722,0.0001 12.0002,0.0001 C18.6272,0.0001 24.0002,5.3721 24.0002,12.0001" id="Fill-1" fill="#FFFFFF" mask="url(#mask-2)"></path>
                </g>
                <path d="M15.7502,11.4541 L8.2502,11.4541 C7.9742,11.4541 7.7502,11.2301 7.7502,10.9541 C7.7502,10.6781 7.9742,10.4541 8.2502,10.4541 L15.7502,10.4541 C16.0262,10.4541 16.2502,10.6781 16.2502,10.9541 C16.2502,11.2301 16.0262,11.4541 15.7502,11.4541 M12.7502,13.9281 L8.2502,13.9281 C7.9872,13.9281 7.7752,13.7161 7.7752,13.4541 C7.7752,13.1911 7.9872,12.9791 8.2502,12.9791 L12.7502,12.9791 C13.0122,12.9791 13.2242,13.1911 13.2242,13.4541 C13.2242,13.7161 13.0122,13.9281 12.7502,13.9281 M18.2542,9.8811 C18.0812,8.5081 17.1422,7.4021 15.8422,7.2201 C14.5712,7.0381 13.2852,6.9541 12.0002,6.9541 C10.7142,6.9541 9.4292,7.0381 8.1442,7.2201 C6.8572,7.4021 5.9042,8.5081 5.7462,9.8811 C5.3552,13.1151 5.3552,17.4981 6.2952,20.1161 C6.3962,20.3961 6.7422,20.4801 6.9302,20.2841 C7.4502,19.7801 7.9272,19.2481 8.3892,18.7161 C8.5772,18.5061 8.8952,18.5611 9.0102,18.8281 C9.2842,19.4721 9.5732,20.1161 9.9202,20.7461 C10.0502,20.9981 10.3962,21.0261 10.5562,20.8021 C10.9752,20.2271 11.3792,19.6401 11.7402,19.0521 C11.7982,18.9541 11.8982,18.8841 12.0002,18.8841 C12.1012,18.8841 12.2022,18.9541 12.2602,19.0521 C12.6212,19.6401 13.0112,20.2271 13.4442,20.8021 C13.6042,21.0261 13.9502,20.9981 14.0802,20.7461 C14.4272,20.1161 14.7152,19.4721 14.9902,18.8281 C15.0912,18.5611 15.4232,18.5061 15.6102,18.7161 C16.0732,19.2481 16.5502,19.7801 17.0692,20.2841 C17.2582,20.4801 17.6042,20.3961 17.7052,20.1161 C18.6442,17.4981 18.6442,13.1001 18.2542,9.8811" id="Fill-4" fill="#00AED6"></path>
                <path d="M41.4475,13.4023 L41.4475,11.8403 C41.4475,10.3033 39.7605,8.9433 37.8205,8.9433 C35.3765,8.9433 33.7895,10.4293 33.7895,12.5963 C33.7895,14.9393 35.2755,16.3503 37.6695,16.3503 C39.7855,16.3503 41.4475,15.0403 41.4475,13.4023 M30.8165,22.1443 L33.4865,19.9273 C34.8725,21.5653 36.0065,22.1193 37.9705,22.1193 C40.0375,22.1193 41.5985,20.7843 41.5985,18.9693 L41.5985,18.0123 L41.5485,18.0123 C40.6165,19.0463 39.0795,19.6253 37.2405,19.6253 C33.1345,19.6253 30.0605,16.6523 30.0605,12.5963 C30.0605,8.6913 33.0585,5.6693 37.1145,5.6693 C39.0045,5.6693 40.5915,6.2223 41.5485,7.2303 L41.5985,7.2303 L41.5985,5.9213 L45.1765,5.9213 L45.1765,18.9203 C45.1765,22.6983 42.2035,25.3183 37.9705,25.3183 C34.8975,25.3183 32.4035,24.2103 30.8165,22.1443" id="Fill-6" fill="#FFFFFF"></path>
                <path d="M58.3528,12.5967 C58.3528,10.4297 56.8668,8.8177 54.5478,8.8177 C52.2308,8.8177 50.7448,10.4297 50.7448,12.5967 C50.7448,14.7627 52.2308,16.3747 54.5478,16.3747 C56.8668,16.3747 58.3528,14.7627 58.3528,12.5967 M47.0158,12.5967 C47.0158,8.6167 50.1648,5.5427 54.5478,5.5427 C58.9568,5.5427 62.0818,8.6167 62.0818,12.5967 C62.0818,16.5767 58.9568,19.6507 54.5478,19.6507 C50.1648,19.6507 47.0158,16.5767 47.0158,12.5967" id="Fill-8" fill="#FFFFFF"></path>
                <path d="M75.6096,12.5967 C75.6096,10.3547 73.9976,8.8177 71.6296,8.8177 C69.5636,8.8177 67.8256,10.1277 67.8256,11.7147 L67.8256,13.4027 C67.8256,15.0397 69.5126,16.3507 71.6296,16.3507 C74.0476,16.3507 75.6096,14.8647 75.6096,12.5967 M67.5986,17.9627 L67.5476,17.9627 L67.5476,19.2727 L64.0966,19.2727 L64.0966,0.8817 L67.8256,0.8817 L67.8256,6.9787 L67.8756,6.9787 C68.9086,6.0467 70.4456,5.5427 72.2086,5.5427 C76.2906,5.5427 79.3386,8.5657 79.3386,12.5967 C79.3386,16.7287 76.3396,19.6507 72.1076,19.6507 C70.1686,19.6507 68.6056,19.0717 67.5986,17.9627" id="Fill-10" fill="#FFFFFF"></path>
                <mask id="mask-4" fill="white">
                    <use xlink:href="#path-3"></use>
                </mask>
                <g id="Clip-13"></g>
                <path d="M81.303,19.273 L85.032,19.273 L85.032,5.921 L81.303,5.921 L81.303,19.273 Z M81.228,3.729 L85.082,3.729 L85.082,0 L81.228,0 L81.228,3.729 Z" id="Fill-12" fill="#FFFFFF" mask="url(#mask-4)"></path>
                <polygon id="Fill-14" fill="#FFFFFF" mask="url(#mask-4)" points="87.526 19.273 91.255 19.273 91.255 0.882 87.526 0.882"></polygon>
                <polygon id="Fill-15" fill="#FFFFFF" mask="url(#mask-4)" points="93.748 19.273 97.477 19.273 97.477 0.882 93.748 0.882"></polygon>
                <path d="M99.2151,14.9394 L102.7171,14.1084 C103.2461,15.8214 104.5811,16.6774 106.7471,16.6774 C108.6881,16.6774 109.7961,16.2494 109.7961,15.5184 C109.7961,14.7384 108.9401,14.3844 106.4951,14.0064 C101.6341,13.2524 99.8701,12.0424 99.8701,9.6734 C99.8701,7.2054 102.3141,5.5434 106.0171,5.5434 C109.3931,5.5434 112.3911,7.2304 113.1211,9.5734 L109.7201,10.6064 C109.2171,9.3214 107.7801,8.5154 105.9921,8.5154 C104.4301,8.5154 103.4471,8.9684 103.4471,9.6734 C103.4471,10.3544 104.1781,10.6564 107.1011,11.1354 C111.5601,11.8404 113.3991,13.0494 113.3991,15.4934 C113.3991,17.9874 110.7531,19.6504 106.7231,19.6504 C102.7921,19.6504 99.8701,17.8364 99.2151,14.9394" id="Fill-16" fill="#FFFFFF" mask="url(#mask-4)"></path>
            </g>
        </g>
    </g>
</svg>