<?xml version="1.0" encoding="UTF-8"?>
<svg width="178px" height="26px" viewBox="0 0 178 26" version="1.1" xmlns="http://www.w3.org/2000/svg" xmlns:xlink="http://www.w3.org/1999/xlink">
    <!-- Generator: Sketch 62 (91390) - https://sketch.com -->
    <title>Group 21</title>
    <desc>Created with Sketch.</desc>
    <defs>
        <polygon id="path-1" points="0 25.9619 177.642 25.9619 177.642 -0.0001 0 -0.0001"></polygon>
    </defs>
    <g id="Page-1-Copy" stroke="none" stroke-width="1" fill="none" fill-rule="evenodd">
        <g id="Group-38" transform="translate(-798.000000, -337.000000)">
            <g id="Group-21" transform="translate(798.000000, 337.000000)">
                <path d="M41.4734,13.4023 L41.4734,11.8403 C41.4734,10.3033 39.7864,8.9433 37.8464,8.9433 C35.4024,8.9433 33.8154,10.4293 33.8154,12.5963 C33.8154,14.9393 35.3014,16.3503 37.6954,16.3503 C39.8114,16.3503 41.4734,15.0403 41.4734,13.4023 M30.8424,22.1443 L33.5124,19.9273 C34.8984,21.5653 36.0324,22.1193 37.9964,22.1193 C40.0634,22.1193 41.6244,20.7843 41.6244,18.9693 L41.6244,18.0123 L41.5744,18.0123 C40.6424,19.0463 39.1054,19.6253 37.2664,19.6253 C33.1604,19.6253 30.0864,16.6523 30.0864,12.5963 C30.0864,8.6913 33.0844,5.6693 37.1404,5.6693 C39.0304,5.6693 40.6174,6.2223 41.5744,7.2303 L41.6244,7.2303 L41.6244,5.9213 L45.2024,5.9213 L45.2024,18.9203 C45.2024,22.6983 42.2294,25.3183 37.9964,25.3183 C34.9234,25.3183 32.4294,24.2103 30.8424,22.1443" id="Fill-1" fill="#FFFFFF"></path>
                <path d="M58.3787,12.5967 C58.3787,10.4297 56.8927,8.8177 54.5737,8.8177 C52.2567,8.8177 50.7707,10.4297 50.7707,12.5967 C50.7707,14.7627 52.2567,16.3747 54.5737,16.3747 C56.8927,16.3747 58.3787,14.7627 58.3787,12.5967 M47.0417,12.5967 C47.0417,8.6167 50.1907,5.5427 54.5737,5.5427 C58.9827,5.5427 62.1077,8.6167 62.1077,12.5967 C62.1077,16.5767 58.9827,19.6507 54.5737,19.6507 C50.1907,19.6507 47.0417,16.5767 47.0417,12.5967" id="Fill-3" fill="#FFFFFF"></path>
                <mask id="mask-2" fill="white">
                    <use xlink:href="#path-1"></use>
                </mask>
                <g id="Clip-6"></g>
                <path d="M64.097,19.2729 L67.826,19.2729 L67.826,5.9209 L64.097,5.9209 L64.097,19.2729 Z M64.022,3.7289 L67.876,3.7289 L67.876,-0.0001 L64.022,-0.0001 L64.022,3.7289 Z" id="Fill-5" fill="#FFFFFF" mask="url(#mask-2)"></path>
                <path d="M70.3445,5.9209 L73.9475,5.9209 L73.9475,7.1809 L73.9965,7.1809 C75.1055,6.1219 76.7425,5.5429 78.5065,5.5429 C82.3355,5.5429 84.9055,8.0369 84.9055,11.6639 L84.9055,19.2729 L81.1765,19.2729 L81.1765,12.1429 C81.1765,10.1029 79.8665,8.8679 77.7005,8.8679 C75.5335,8.8679 74.0735,10.2029 74.0735,12.1429 L74.0735,19.2729 L70.3445,19.2729 L70.3445,5.9209 Z" id="Fill-7" fill="#FFFFFF" mask="url(#mask-2)"></path>
                <polygon id="Fill-8" fill="#FFFFFF" mask="url(#mask-2)" points="84.9822 5.9209 89.0882 5.9209 93.2702 14.9399 93.3212 14.9399 97.5032 5.9209 101.6342 5.9209 94.9832 19.2729 91.5832 19.2729"></polygon>
                <path d="M112.2156,11.1601 C112.0396,9.5981 110.6536,8.5651 108.6636,8.5651 C106.6486,8.5651 105.2626,9.5981 105.0616,11.1601 L112.2156,11.1601 Z M101.3326,12.6221 C101.3326,8.5151 104.3566,5.5431 108.5886,5.5431 C113.0716,5.5431 115.8436,8.7171 115.8436,12.7221 L115.8436,13.7801 L105.0106,13.7801 C105.1366,15.5181 106.5476,16.6271 108.7896,16.6271 C110.4526,16.6271 111.6116,15.9721 112.8966,14.6371 L115.2136,16.9551 C113.6776,18.6421 111.6876,19.6501 108.8156,19.6501 C104.1296,19.6501 101.3326,16.8541 101.3326,12.6221 L101.3326,12.6221 Z" id="Fill-9" fill="#FFFFFF" mask="url(#mask-2)"></path>
                <path d="M116.8005,14.9394 L120.3025,14.1084 C120.8315,15.8214 122.1665,16.6774 124.3325,16.6774 C126.2735,16.6774 127.3815,16.2494 127.3815,15.5184 C127.3815,14.7384 126.5255,14.3844 124.0805,14.0064 C119.2195,13.2524 117.4555,12.0424 117.4555,9.6734 C117.4555,7.2054 119.8995,5.5434 123.6025,5.5434 C126.9785,5.5434 129.9765,7.2304 130.7065,9.5734 L127.3055,10.6064 C126.8015,9.3214 125.3655,8.5154 123.5765,8.5154 C122.0155,8.5154 121.0325,8.9684 121.0325,9.6734 C121.0325,10.3544 121.7635,10.6564 124.6865,11.1354 C129.1455,11.8404 130.9845,13.0494 130.9845,15.4934 C130.9845,17.9874 128.3385,19.6504 124.3085,19.6504 C120.3775,19.6504 117.4555,17.8364 116.8005,14.9394" id="Fill-10" fill="#FFFFFF" mask="url(#mask-2)"></path>
                <path d="M138.2156,9.0947 L138.2156,14.7387 C138.2156,15.5697 138.4916,15.8217 139.5756,15.8217 L142.0196,15.8217 L142.0196,19.2727 L139.1976,19.2727 C135.7966,19.2727 134.4866,17.9117 134.4866,14.9647 L134.4866,9.0947 L131.3376,9.0947 L131.3376,5.9207 L134.4866,5.9207 L134.4866,2.5707 L138.2156,2.5707 L138.2156,5.9207 L142.5236,5.9207 L142.5236,9.0947 L138.2156,9.0947 Z" id="Fill-11" fill="#FFFFFF" mask="url(#mask-2)"></path>
                <path d="M152.8015,14.3096 L152.8015,12.7226 L152.7515,12.7226 C152.4235,13.2016 151.7185,13.4786 149.9055,13.8056 C147.7125,14.2086 146.9325,14.6366 146.9325,15.4176 C146.9325,16.2246 147.5865,16.5776 148.9975,16.5776 C151.1645,16.5776 152.8015,15.5946 152.8015,14.3096 M143.4555,15.6696 C143.4555,13.2016 145.0685,11.8916 149.3245,11.3116 C151.8195,10.9586 152.4995,10.6066 152.4995,9.9516 C152.4995,9.0696 151.5675,8.5406 150.1315,8.5406 C148.4185,8.5406 147.1335,9.4726 146.8065,10.9336 L143.2795,10.2036 C143.8085,7.4316 146.5545,5.5426 150.0305,5.5426 C153.9355,5.5426 156.3545,7.5336 156.3545,10.7826 L156.3545,19.2726 L153.0035,19.2726 L153.0035,17.8116 L152.9525,17.8116 C152.1475,18.9456 150.4335,19.6506 148.4435,19.6506 C145.4705,19.6506 143.4555,18.0386 143.4555,15.6696" id="Fill-12" fill="#FFFFFF" mask="url(#mask-2)"></path>
                <path d="M157.9656,14.9394 L161.4676,14.1084 C161.9966,15.8214 163.3316,16.6774 165.4976,16.6774 C167.4386,16.6774 168.5466,16.2494 168.5466,15.5184 C168.5466,14.7384 167.6906,14.3844 165.2456,14.0064 C160.3846,13.2524 158.6206,12.0424 158.6206,9.6734 C158.6206,7.2054 161.0646,5.5434 164.7676,5.5434 C168.1436,5.5434 171.1416,7.2304 171.8716,9.5734 L168.4706,10.6064 C167.9676,9.3214 166.5306,8.5154 164.7426,8.5154 C163.1806,8.5154 162.1976,8.9684 162.1976,9.6734 C162.1976,10.3544 162.9286,10.6564 165.8516,11.1354 C170.3106,11.8404 172.1496,13.0494 172.1496,15.4934 C172.1496,17.9874 169.5036,19.6504 165.4736,19.6504 C161.5426,19.6504 158.6206,17.8364 157.9656,14.9394" id="Fill-13" fill="#FFFFFF" mask="url(#mask-2)"></path>
                <path d="M173.863,19.2729 L177.592,19.2729 L177.592,5.9209 L173.863,5.9209 L173.863,19.2729 Z M173.788,3.7289 L177.642,3.7289 L177.642,-0.0001 L173.788,-0.0001 L173.788,3.7289 Z" id="Fill-14" fill="#FFFFFF" mask="url(#mask-2)"></path>
                <path d="M23.9998,13.9619 C23.9998,20.5889 18.6278,25.9619 11.9998,25.9619 C5.3728,25.9619 -0.0002,20.5889 -0.0002,13.9619 C-0.0002,7.3349 5.3728,1.9619 11.9998,1.9619 C18.6278,1.9619 23.9998,7.3349 23.9998,13.9619" id="Fill-15" fill="#FFFFFF" mask="url(#mask-2)"></path>
                <path d="M7.7087,8.2344 C7.8837,8.2004 8.0677,8.1714 8.2577,8.1364 C7.8497,8.8064 7.6217,9.5884 7.6217,10.3884 L7.6217,11.8354 L4.9627,11.8354 L5.0397,11.0394 C5.1667,9.6414 6.2537,8.4964 7.7087,8.2344" id="Fill-16" fill="#03ACD4" mask="url(#mask-2)"></path>
                <path d="M15.8806,10.3887 L15.8806,11.8347 L8.5926,11.8347 L8.5926,10.3887 C8.5926,9.4617 8.9846,8.5597 9.6646,7.9387 C10.4416,7.8457 11.2516,7.7877 12.0326,7.7877 C12.9796,7.7877 13.9636,7.8747 14.8766,8.0007 C15.5066,8.6217 15.8806,9.4917 15.8806,10.3887" id="Fill-17" fill="#03ACD4" mask="url(#mask-2)"></path>
                <path d="M16.8513,11.8349 L16.8513,10.3889 C16.8513,9.6219 16.6423,8.8699 16.2643,8.2199 C16.2743,8.2199 16.2883,8.2249 16.2973,8.2249 C17.7443,8.4959 18.8303,9.6419 18.9613,11.0339 L19.0353,11.8349 L16.8513,11.8349 Z" id="Fill-18" fill="#03ACD4" mask="url(#mask-2)"></path>
                <path d="M19.0251,13.0039 C19.0101,14.9309 18.5691,16.8959 17.8841,18.8859 C17.6861,19.4629 17.1911,19.8849 16.5891,19.9869 C15.7501,20.1329 14.3031,20.2879 11.9891,20.2879 C9.6741,20.2879 8.2281,20.1329 7.3881,19.9869 C6.7871,19.8849 6.2921,19.4629 6.0931,18.8859 C5.4091,16.8959 4.9671,14.9309 4.9531,13.0039 L10.0471,13.0039 L10.0471,14.4749 C10.0471,15.5469 10.9171,16.4149 11.9891,16.4149 C13.0611,16.4149 13.9301,15.5469 13.9301,14.4749 L13.9301,13.0039 L19.0251,13.0039 Z" id="Fill-19" fill="#03ACD4" mask="url(#mask-2)"></path>
                <path d="M12.9832,14.4658 C12.9832,15.0158 12.5382,15.4608 11.9882,15.4608 C11.4382,15.4608 10.9932,15.0158 10.9932,14.4658 C10.9932,13.9158 11.4382,13.4708 11.9882,13.4708 C12.5382,13.4708 12.9832,13.9158 12.9832,14.4658" id="Fill-20" fill="#03ACD4" mask="url(#mask-2)"></path>
            </g>
        </g>
    </g>
</svg>