<?xml version="1.0" encoding="UTF-8"?>
<svg width="110px" height="24px" viewBox="0 0 110 24" version="1.1" xmlns="http://www.w3.org/2000/svg" xmlns:xlink="http://www.w3.org/1999/xlink">
    <!-- Generator: Sketch 62 (91390) - https://sketch.com -->
    <title>Group 22</title>
    <desc>Created with Sketch.</desc>
    <defs>
        <polygon id="path-1" points="0 0 23.9997 0 23.9997 24 0 24"></polygon>
        <polygon id="path-3" points="0 0 23.9997 0 23.9997 24 0 24"></polygon>
        <polygon id="path-5" points="0.5963 0.9669 16.946 0.9669 16.946 19.9859 0.5963 19.9859"></polygon>
    </defs>
    <g id="Page-1-Copy" stroke="none" stroke-width="1" fill="none" fill-rule="evenodd">
        <g id="Group-38" transform="translate(-85.000000, -198.000000)">
            <g id="Group-22" transform="translate(85.000000, 198.000000)">
                <g id="Group-3">
                    <mask id="mask-2" fill="white">
                        <use xlink:href="#path-1"></use>
                    </mask>
                    <g id="Clip-2"></g>
                    <path d="M11.9997,0 C18.6277,0 23.9997,5.373 23.9997,12 C23.9997,18.627 18.6277,24 11.9997,24 C5.3727,24 -0.0003,18.627 -0.0003,12 C-0.0003,5.373 5.3727,0 11.9997,0" id="Fill-1" fill="#FFFFFF" mask="url(#mask-2)"></path>
                </g>
                <path d="M16.4997,13.3066 L16.4997,13.7506 C16.4997,14.0266 16.2737,14.2506 15.9997,14.2506 C15.7247,14.2506 15.4997,14.0266 15.4997,13.7506 L15.4997,13.3066 C15.3447,13.1706 15.2497,12.9716 15.2497,12.7506 C15.2497,12.3356 15.5847,12.0006 15.9997,12.0006 C16.4147,12.0006 16.7497,12.3356 16.7497,12.7506 C16.7497,12.9716 16.6547,13.1706 16.4997,13.3066 M18.9897,11.6256 C18.8847,10.0966 17.6347,8.9516 16.0797,9.0006 L8.4997,9.0006 C8.2247,9.0006 7.9997,8.7766 7.9997,8.5006 C7.9997,8.2266 8.2247,8.0006 8.4997,8.0006 L16.1797,8.0006 C16.1297,7.0166 15.3797,5.9466 14.4297,5.7956 C12.1747,5.4016 9.9197,5.4016 7.6647,5.7956 C6.4147,5.9956 5.4647,7.2316 5.2647,8.4656 C4.9097,10.8356 4.9097,13.2056 5.2647,15.5716 C5.4647,16.8566 6.6997,18.0966 7.9997,18.2416 C10.8047,18.5856 13.6087,18.5856 16.3647,18.2416 C17.6147,18.0966 18.4347,16.9556 18.6847,15.7216 C18.9347,14.3406 19.0397,12.9556 18.9897,11.6256" id="Fill-4" fill="#FFFFFF"></path>
                <g id="Group-8">
                    <mask id="mask-4" fill="white">
                        <use xlink:href="#path-3"></use>
                    </mask>
                    <g id="Clip-7"></g>
                    <path d="M11.9997,0 C18.6277,0 23.9997,5.373 23.9997,12 C23.9997,18.627 18.6277,24 11.9997,24 C5.3727,24 -0.0003,18.627 -0.0003,12 C-0.0003,5.373 5.3727,0 11.9997,0" id="Fill-6" fill="#FFFFFF" mask="url(#mask-4)"></path>
                </g>
                <path d="M16.4997,13.3066 L16.4997,13.7506 C16.4997,14.0266 16.2737,14.2506 15.9997,14.2506 C15.7247,14.2506 15.4997,14.0266 15.4997,13.7506 L15.4997,13.3066 C15.3447,13.1706 15.2497,12.9716 15.2497,12.7506 C15.2497,12.3356 15.5847,12.0006 15.9997,12.0006 C16.4147,12.0006 16.7497,12.3356 16.7497,12.7506 C16.7497,12.9716 16.6547,13.1706 16.4997,13.3066 M18.9897,11.6256 C18.8847,10.0966 17.6347,8.9516 16.0797,9.0006 L8.4997,9.0006 C8.2247,9.0006 7.9997,8.7766 7.9997,8.5006 C7.9997,8.2266 8.2247,8.0006 8.4997,8.0006 L16.1797,8.0006 C16.1297,7.0166 15.3797,5.9466 14.4297,5.7956 C12.1747,5.4016 9.9197,5.4016 7.6647,5.7956 C6.4147,5.9956 5.4647,7.2316 5.2647,8.4656 C4.9097,10.8356 4.9097,13.2056 5.2647,15.5716 C5.4647,16.8566 6.6997,18.0966 7.9997,18.2416 C10.8047,18.5856 13.6087,18.5856 16.3647,18.2416 C17.6147,18.0966 18.4347,16.9556 18.6847,15.7216 C18.9347,14.3406 19.0397,12.9556 18.9897,11.6256" id="Fill-9" fill="#00AED6"></path>
                <path d="M41.447,11.4482 L41.447,9.8862 C41.447,8.3492 39.76,6.9892 37.82,6.9892 C35.376,6.9892 33.789,8.4752 33.789,10.6422 C33.789,12.9852 35.275,14.3962 37.669,14.3962 C39.785,14.3962 41.447,13.0862 41.447,11.4482 M30.816,20.1902 L33.486,17.9732 C34.872,19.6112 36.006,20.1652 37.97,20.1652 C40.037,20.1652 41.598,18.8302 41.598,17.0152 L41.598,16.0582 L41.548,16.0582 C40.616,17.0922 39.079,17.6712 37.24,17.6712 C33.134,17.6712 30.06,14.6982 30.06,10.6422 C30.06,6.7372 33.058,3.7152 37.114,3.7152 C39.004,3.7152 40.591,4.2682 41.548,5.2762 L41.598,5.2762 L41.598,3.9672 L45.176,3.9672 L45.176,16.9662 C45.176,20.7442 42.203,23.3642 37.97,23.3642 C34.897,23.3642 32.403,22.2562 30.816,20.1902" id="Fill-11" fill="#FFFFFF"></path>
                <path d="M58.3522,10.6426 C58.3522,8.4756 56.8662,6.8636 54.5472,6.8636 C52.2302,6.8636 50.7442,8.4756 50.7442,10.6426 C50.7442,12.8086 52.2302,14.4206 54.5472,14.4206 C56.8662,14.4206 58.3522,12.8086 58.3522,10.6426 M47.0152,10.6426 C47.0152,6.6626 50.1642,3.5886 54.5472,3.5886 C58.9562,3.5886 62.0812,6.6626 62.0812,10.6426 C62.0812,14.6226 58.9562,17.6966 54.5472,17.6966 C50.1642,17.6966 47.0152,14.6226 47.0152,10.6426" id="Fill-13" fill="#FFFFFF"></path>
                <path d="M75.2312,10.6426 C75.2312,8.4006 73.6942,6.8886 71.4532,6.8886 C69.4872,6.8886 67.8252,8.2236 67.8252,9.7866 L67.8252,11.4736 C67.8252,13.0856 69.4122,14.4206 71.4772,14.4206 C73.6692,14.4206 75.2312,12.8846 75.2312,10.6426 L75.2312,10.6426 Z M64.0962,3.9666 L67.6732,3.9666 L67.6732,5.1506 L67.7242,5.1506 C68.7562,4.0926 70.3192,3.5886 72.0322,3.5886 C75.9872,3.5886 78.9602,6.6366 78.9602,10.6426 C78.9602,14.6726 76.0122,17.6966 72.0572,17.6966 C70.3942,17.6966 68.7312,17.1176 67.8752,16.2856 L67.8252,16.2856 L67.8252,22.9866 L64.0962,22.9866 L64.0962,3.9666 Z" id="Fill-15" fill="#FFFFFF"></path>
                <path d="M89.4646,12.3555 L89.4646,10.7685 L89.4146,10.7685 C89.0866,11.2475 88.3816,11.5245 86.5686,11.8515 C84.3756,12.2545 83.5956,12.6825 83.5956,13.4635 C83.5956,14.2705 84.2496,14.6235 85.6606,14.6235 C87.8276,14.6235 89.4646,13.6405 89.4646,12.3555 M80.1186,13.7155 C80.1186,11.2475 81.7316,9.9375 85.9876,9.3575 C88.4826,9.0045 89.1626,8.6525 89.1626,7.9975 C89.1626,7.1155 88.2306,6.5865 86.7946,6.5865 C85.0816,6.5865 83.7966,7.5185 83.4696,8.9795 L79.9426,8.2495 C80.4716,5.4775 83.2176,3.5885 86.6936,3.5885 C90.5986,3.5885 93.0176,5.5795 93.0176,8.8285 L93.0176,17.3185 L89.6666,17.3185 L89.6666,15.8575 L89.6156,15.8575 C88.8106,16.9915 87.0966,17.6965 85.1066,17.6965 C82.1336,17.6965 80.1186,16.0845 80.1186,13.7155" id="Fill-17" fill="#FFFFFF"></path>
                <g id="Group-21" transform="translate(93.000000, 3.000000)">
                    <mask id="mask-6" fill="white">
                        <use xlink:href="#path-5"></use>
                    </mask>
                    <g id="Clip-20"></g>
                    <polygon id="Fill-19" fill="#FFFFFF" mask="url(#mask-6)" points="6.7683 13.5879 0.5963 0.9669 4.7033 0.9669 8.7583 9.6829 8.8093 9.6829 12.8143 0.9669 16.9463 0.9669 7.7013 19.9859 3.5943 19.9859"></polygon>
                </g>
            </g>
        </g>
    </g>
</svg>