<?xml version="1.0" encoding="UTF-8"?>
<svg width="117px" height="26px" viewBox="0 0 117 26" version="1.1" xmlns="http://www.w3.org/2000/svg" xmlns:xlink="http://www.w3.org/1999/xlink">
    <!-- Generator: Sketch 62 (91390) - https://sketch.com -->
    <title>Group 14</title>
    <desc>Created with Sketch.</desc>
    <defs>
        <polygon id="path-1" points="0 25.9541 116.901 25.9541 116.901 0.0001 0 0.0001"></polygon>
    </defs>
    <g id="Page-1-Copy" stroke="none" stroke-width="1" fill="none" fill-rule="evenodd">
        <g id="Group-38" transform="translate(-531.000000, -337.000000)">
            <g id="Group-14" transform="translate(531.000000, 337.000000)">
                <path d="M41.4734,11.8403 C41.4734,10.3283 39.7604,8.9433 37.8464,8.9433 C35.4274,8.9433 33.8154,10.4043 33.8154,12.5963 C33.8154,14.9393 35.3014,16.3503 37.6954,16.3503 C39.7864,16.3503 41.4734,15.0393 41.4734,13.4023 L41.4734,11.8403 Z M33.5124,19.9273 C34.8984,21.5653 36.0574,22.1183 37.9964,22.1183 C40.0874,22.1183 41.6244,20.7833 41.6244,18.9693 L41.6244,18.0123 L41.5744,18.0123 C40.6424,19.0453 39.1054,19.6243 37.2664,19.6243 C33.2364,19.7003 30.0114,16.5763 30.0864,12.5963 C30.0864,8.7163 33.1354,5.6683 37.1404,5.6683 C39.0304,5.6683 40.6424,6.2223 41.5744,7.2303 L41.6244,7.2303 L41.6244,5.9203 L45.2024,5.9203 L45.2024,18.9193 C45.2024,22.6973 42.2034,25.3183 37.9964,25.3183 C34.9494,25.3183 32.4294,24.2353 30.8424,22.1443 L33.5124,19.9273 Z" id="Fill-1" fill="#FFFFFF"></path>
                <path d="M54.574,8.8169 C52.282,8.8169 50.77,10.4049 50.77,12.5959 C50.77,14.7879 52.282,16.3749 54.574,16.3749 C56.867,16.3749 58.379,14.7879 58.379,12.5959 C58.379,10.4049 56.867,8.8169 54.574,8.8169 M54.574,5.5429 C58.932,5.5429 62.107,8.6409 62.107,12.5959 C62.107,16.5509 58.932,19.6499 54.574,19.6499 C50.317,19.7249 46.967,16.5009 47.042,12.5959 C46.967,8.6909 50.317,5.4659 54.574,5.5429" id="Fill-3" fill="#FFFFFF"></path>
                <path d="M74.9803,11.8403 C74.9803,10.3283 73.2673,8.9433 71.3533,8.9433 C68.9343,8.9433 67.3223,10.4043 67.3223,12.5963 C67.3223,14.9393 68.8083,16.3503 71.2023,16.3503 C73.2933,16.3503 74.9803,15.0393 74.9803,13.4023 L74.9803,11.8403 Z M67.0193,19.9273 C68.4053,21.5653 69.5643,22.1183 71.5033,22.1183 C73.5943,22.1183 75.1313,20.7833 75.1313,18.9693 L75.1313,18.0123 L75.0813,18.0123 C74.1493,19.0453 72.6123,19.6243 70.7733,19.6243 C66.7433,19.7003 63.5183,16.5763 63.5933,12.5963 C63.5933,8.7163 66.6423,5.6683 70.6473,5.6683 C72.5373,5.6683 74.1493,6.2223 75.0813,7.2303 L75.1313,7.2303 L75.1313,5.9203 L78.7093,5.9203 L78.7093,18.9193 C78.7093,22.6973 75.7103,25.3183 71.5033,25.3183 C68.4563,25.3183 65.9363,24.2353 64.3493,22.1443 L67.0193,19.9273 Z" id="Fill-5" fill="#FFFFFF"></path>
                <mask id="mask-2" fill="white">
                    <use xlink:href="#path-1"></use>
                </mask>
                <g id="Clip-8"></g>
                <path d="M81.052,19.2721 L84.781,19.2721 L84.781,5.9201 L81.052,5.9201 L81.052,19.2721 Z M80.976,3.7281 L84.83,3.7281 L84.83,-0.0009 L80.976,-0.0009 L80.976,3.7281 Z" id="Fill-7" fill="#FFFFFF" mask="url(#mask-2)"></path>
                <polygon id="Fill-9" fill="#FFFFFF" mask="url(#mask-2)" points="86.0398 5.9204 90.1458 5.9204 94.3278 14.9394 94.3788 14.9394 98.5608 5.9204 102.6918 5.9204 96.0408 19.2724 92.6408 19.2724"></polygon>
                <path d="M113.2732,11.1597 C113.0972,9.5727 111.7112,8.5647 109.7212,8.5647 C107.7062,8.5647 106.3202,9.5727 106.1192,11.1597 L113.2732,11.1597 Z M109.6462,5.5427 C114.0802,5.5427 116.9012,8.6667 116.9012,12.7217 L116.9012,13.7797 L106.0682,13.7797 C106.1942,15.5177 107.6302,16.6267 109.8472,16.6267 C111.4602,16.6267 112.6192,16.0217 113.9542,14.6367 L116.2712,16.9547 C114.6592,18.6927 112.6692,19.6497 109.8732,19.6497 C105.2112,19.6497 102.3902,16.8537 102.3902,12.6217 C102.3902,8.5147 105.4392,5.5427 109.6462,5.5427 L109.6462,5.5427 Z" id="Fill-10" fill="#FFFFFF" mask="url(#mask-2)"></path>
                <path d="M23.9998,13.9536 C23.9998,20.5816 18.6278,25.9536 11.9998,25.9536 C5.3728,25.9536 -0.0002,20.5816 -0.0002,13.9536 C-0.0002,7.3266 5.3728,1.9536 11.9998,1.9536 C18.6278,1.9536 23.9998,7.3266 23.9998,13.9536" id="Fill-11" fill="#FFFFFF" mask="url(#mask-2)"></path>
                <path d="M16.7508,16.3735 C16.3768,16.4955 14.3698,17.4575 13.6858,17.5635 C13.5288,17.5945 13.3428,17.5945 13.1408,17.5945 C12.6578,17.5945 12.0978,17.5335 11.4758,17.4575 C11.4288,17.4575 11.3818,17.4415 11.3358,17.4415 C11.1798,17.4265 11.0558,17.2895 11.0708,17.1215 C11.0868,16.9535 11.2418,16.8155 11.4128,16.8475 C11.4598,16.8475 11.5068,16.8615 11.5538,16.8615 C12.3468,16.9535 13.1088,17.0295 13.5918,16.9695 C14.4788,16.8315 14.7428,16.3125 14.6958,15.8705 C14.6648,15.5045 14.4008,15.1535 13.9648,15.1685 C13.3428,15.1995 12.6108,15.1225 11.9108,15.0615 C11.1028,14.9855 10.2618,14.9095 9.6708,14.9855 C9.4618,15.0155 7.4728,15.6155 7.4728,15.6155 L7.1188,15.5845 C6.9528,15.5695 6.7848,15.5795 6.6218,15.6145 C5.7188,15.8055 4.6218,18.2205 6.6388,19.1865 L7.7718,19.4855 C8.4168,19.7155 9.1358,19.9525 9.7998,20.1355 C9.8068,20.1385 9.8138,20.1405 9.8218,20.1435 L9.8218,20.1425 C10.3838,20.2965 10.9068,20.4125 11.3048,20.4465 C13.0628,20.5845 16.5178,18.6315 17.5128,17.9905 C18.5088,17.3505 17.8398,16.0085 16.7508,16.3735" id="Fill-12" fill="#00AED6" mask="url(#mask-2)"></path>
                <path d="M11.9998,13.9536 C11.4338,13.9536 8.4998,11.7036 8.4998,9.7996 C8.4998,8.7806 9.3168,7.9536 10.3238,7.9536 C11.0748,7.9536 11.7208,8.4136 11.9998,9.0706 C12.2788,8.4136 12.9248,7.9536 13.6758,7.9536 C14.6838,7.9536 15.4998,8.7806 15.4998,9.7996 C15.4998,11.6936 12.5658,13.9536 11.9998,13.9536" id="Fill-13" fill="#00AED6" mask="url(#mask-2)"></path>
            </g>
        </g>
    </g>
</svg>