<?xml version="1.0" encoding="UTF-8"?>
<svg width="146px" height="26px" viewBox="0 0 146 26" version="1.1" xmlns="http://www.w3.org/2000/svg" xmlns:xlink="http://www.w3.org/1999/xlink">
    <!-- Generator: Sketch 62 (91390) - https://sketch.com -->
    <title>Group 19</title>
    <desc>Created with Sketch.</desc>
    <defs>
        <polygon id="path-1" points="0 0 23.9997 0 23.9997 24 0 24"></polygon>
        <polygon id="path-3" points="0 25.9541 145.072 25.9541 145.072 0.0001 0 0.0001"></polygon>
    </defs>
    <g id="Page-1-Copy" stroke="none" stroke-width="1" fill="none" fill-rule="evenodd">
        <g id="Group-38" transform="translate(-531.000000, -196.000000)">
            <g id="Group-19" transform="translate(531.000000, 196.000000)">
                <g id="Group-3" transform="translate(0.000000, 1.954100)">
                    <mask id="mask-2" fill="white">
                        <use xlink:href="#path-1"></use>
                    </mask>
                    <g id="Clip-2"></g>
                    <path d="M23.9997,12 C23.9997,18.627 18.6277,24 11.9997,24 C5.3727,24 -0.0003,18.627 -0.0003,12 C-0.0003,5.373 5.3727,0 11.9997,0 C18.6277,0 23.9997,5.373 23.9997,12" id="Fill-1" fill="#FFFFFF" mask="url(#mask-2)"></path>
                </g>
                <path d="M18.2292,11.5811 C17.7812,12.4351 17.0572,13.5921 16.0612,14.5591 C16.5382,13.3781 16.8212,11.9691 16.8282,10.5681 L17.7232,10.6801 C17.9392,10.7071 18.1212,10.8301 18.2222,11.0191 C18.2792,11.1251 18.3562,11.3381 18.2292,11.5811 M12.0002,13.4541 C11.1712,13.4541 10.5002,12.7821 10.5002,11.9541 C10.5002,11.1261 11.1712,10.4541 12.0002,10.4541 C12.8292,10.4541 13.5002,11.1261 13.5002,11.9541 C13.5002,12.7821 12.8292,13.4541 12.0002,13.4541 M5.7712,11.5811 C5.6442,11.3381 5.7202,11.1251 5.7772,11.0191 C5.8782,10.8301 6.0612,10.7071 6.2762,10.6801 L7.1722,10.5681 C7.1792,11.9691 7.4612,13.3781 7.9392,14.5591 C6.9422,13.5921 6.2182,12.4351 5.7712,11.5811 M19.7312,10.2401 C19.3722,9.5721 18.7022,9.1161 17.9382,9.0211 L16.6882,8.8661 C16.6422,8.5961 16.5882,8.3291 16.5172,8.0691 C15.0452,7.6611 13.5232,7.4561 12.0002,7.4541 C10.4772,7.4561 8.9542,7.6611 7.4832,8.0691 C7.4122,8.3291 7.3582,8.5961 7.3112,8.8661 L6.0622,9.0211 C5.2982,9.1161 4.6282,9.5721 4.2692,10.2401 C3.9152,10.8991 3.9102,11.6861 4.2552,12.3451 C5.1942,14.1371 7.1812,17.0641 10.3822,17.8561 C10.8332,17.9671 11.1462,18.3651 11.1462,18.8201 C11.1112,18.8211 8.3622,19.1541 8.3622,20.1261 L8.3622,21.1871 C9.5642,21.3661 10.7822,21.4551 12.0002,21.4541 C13.2182,21.4551 14.4362,21.3661 15.6382,21.1871 L15.6382,20.1261 C15.6382,19.1541 12.8892,18.8211 12.8542,18.8201 C12.8542,18.3651 13.1672,17.9671 13.6172,17.8561 C16.8192,17.0641 18.8062,14.1371 19.7452,12.3451 C20.0892,11.6861 20.0842,10.8991 19.7312,10.2401" id="Fill-4" fill="#00AED6"></path>
                <path d="M41.402,13.4023 L41.402,11.8403 C41.402,10.3033 39.715,8.9433 37.775,8.9433 C35.331,8.9433 33.744,10.4293 33.744,12.5963 C33.744,14.9393 35.23,16.3503 37.624,16.3503 C39.74,16.3503 41.402,15.0403 41.402,13.4023 M30.771,22.1443 L33.441,19.9273 C34.827,21.5653 35.961,22.1193 37.925,22.1193 C39.992,22.1193 41.553,20.7843 41.553,18.9693 L41.553,18.0123 L41.503,18.0123 C40.571,19.0463 39.034,19.6253 37.195,19.6253 C33.089,19.6253 30.015,16.6523 30.015,12.5963 C30.015,8.6913 33.013,5.6693 37.069,5.6693 C38.959,5.6693 40.546,6.2223 41.503,7.2303 L41.553,7.2303 L41.553,5.9213 L45.131,5.9213 L45.131,18.9203 C45.131,22.6983 42.158,25.3183 37.925,25.3183 C34.852,25.3183 32.358,24.2103 30.771,22.1443" id="Fill-6" fill="#FFFFFF"></path>
                <path d="M58.3073,12.5967 C58.3073,10.4297 56.8213,8.8177 54.5023,8.8177 C52.1853,8.8177 50.6993,10.4297 50.6993,12.5967 C50.6993,14.7627 52.1853,16.3747 54.5023,16.3747 C56.8213,16.3747 58.3073,14.7627 58.3073,12.5967 M46.9703,12.5967 C46.9703,8.6167 50.1193,5.5427 54.5023,5.5427 C58.9113,5.5427 62.0363,8.6167 62.0363,12.5967 C62.0363,16.5767 58.9113,19.6507 54.5023,19.6507 C50.1193,19.6507 46.9703,16.5767 46.9703,12.5967" id="Fill-8" fill="#FFFFFF"></path>
                <path d="M75.1862,12.5967 C75.1862,10.3547 73.6492,8.8427 71.4082,8.8427 C69.4422,8.8427 67.7802,10.1777 67.7802,11.7407 L67.7802,13.4277 C67.7802,15.0397 69.3672,16.3747 71.4322,16.3747 C73.6242,16.3747 75.1862,14.8387 75.1862,12.5967 L75.1862,12.5967 Z M64.0512,5.9207 L67.6282,5.9207 L67.6282,7.1047 L67.6792,7.1047 C68.7112,6.0467 70.2742,5.5427 71.9872,5.5427 C75.9422,5.5427 78.9152,8.5907 78.9152,12.5967 C78.9152,16.6267 75.9672,19.6507 72.0122,19.6507 C70.3492,19.6507 68.6862,19.0717 67.8302,18.2397 L67.7802,18.2397 L67.7802,24.9407 L64.0512,24.9407 L64.0512,5.9207 Z" id="Fill-10" fill="#FFFFFF"></path>
                <path d="M91.7126,12.5967 C91.7126,10.4297 90.2266,8.8177 87.9076,8.8177 C85.5906,8.8177 84.1046,10.4297 84.1046,12.5967 C84.1046,14.7627 85.5906,16.3747 87.9076,16.3747 C90.2266,16.3747 91.7126,14.7627 91.7126,12.5967 M80.3756,12.5967 C80.3756,8.6167 83.5246,5.5427 87.9076,5.5427 C92.3166,5.5427 95.4416,8.6167 95.4416,12.5967 C95.4416,16.5767 92.3166,19.6507 87.9076,19.6507 C83.5246,19.6507 80.3756,16.5767 80.3756,12.5967" id="Fill-12" fill="#FFFFFF"></path>
                <mask id="mask-4" fill="white">
                    <use xlink:href="#path-3"></use>
                </mask>
                <g id="Clip-15"></g>
                <path d="M97.431,19.2731 L101.16,19.2731 L101.16,5.9211 L97.431,5.9211 L97.431,19.2731 Z M97.356,3.7291 L101.21,3.7291 L101.21,0.0001 L97.356,0.0001 L97.356,3.7291 Z" id="Fill-14" fill="#FFFFFF" mask="url(#mask-4)"></path>
                <path d="M103.6794,5.9209 L107.2824,5.9209 L107.2824,7.1809 L107.3314,7.1809 C108.4404,6.1219 110.0774,5.5429 111.8414,5.5429 C115.6704,5.5429 118.2404,8.0369 118.2404,11.6639 L118.2404,19.2729 L114.5114,19.2729 L114.5114,12.1429 C114.5114,10.1029 113.2014,8.8679 111.0354,8.8679 C108.8684,8.8679 107.4084,10.2029 107.4084,12.1429 L107.4084,19.2729 L103.6794,19.2729 L103.6794,5.9209 Z" id="Fill-16" fill="#FFFFFF" mask="url(#mask-4)"></path>
                <path d="M126.1012,9.0947 L126.1012,14.7387 C126.1012,15.5697 126.3772,15.8217 127.4612,15.8217 L129.9052,15.8217 L129.9052,19.2727 L127.0832,19.2727 C123.6822,19.2727 122.3722,17.9117 122.3722,14.9647 L122.3722,9.0947 L119.2232,9.0947 L119.2232,5.9207 L122.3722,5.9207 L122.3722,2.5707 L126.1012,2.5707 L126.1012,5.9207 L130.4092,5.9207 L130.4092,9.0947 L126.1012,9.0947 Z" id="Fill-17" fill="#FFFFFF" mask="url(#mask-4)"></path>
                <path d="M130.8884,14.9395 L134.3904,14.1085 C134.9194,15.8215 136.2544,16.6775 138.4204,16.6775 C140.3614,16.6775 141.4694,16.2495 141.4694,15.5185 C141.4694,14.7385 140.6134,14.3845 138.1684,14.0065 C133.3074,13.2525 131.5434,12.0425 131.5434,9.6735 C131.5434,7.2055 133.9874,5.5435 137.6904,5.5435 C141.0664,5.5435 144.0644,7.2305 144.7944,9.5735 L141.3934,10.6065 C140.8904,9.3215 139.4534,8.5155 137.6654,8.5155 C136.1034,8.5155 135.1204,8.9685 135.1204,9.6735 C135.1204,10.3545 135.8514,10.6565 138.7744,11.1355 C143.2334,11.8405 145.0724,13.0495 145.0724,15.4935 C145.0724,17.9875 142.4264,19.6505 138.3964,19.6505 C134.4654,19.6505 131.5434,17.8365 130.8884,14.9395" id="Fill-18" fill="#FFFFFF" mask="url(#mask-4)"></path>
            </g>
        </g>
    </g>
</svg>