<?xml version="1.0" encoding="UTF-8"?>
<svg width="120px" height="24px" viewBox="0 0 120 24" version="1.1" xmlns="http://www.w3.org/2000/svg" xmlns:xlink="http://www.w3.org/1999/xlink">
    <!-- Generator: Sketch 62 (91390) - https://sketch.com -->
    <title>Group 18</title>
    <desc>Created with Sketch.</desc>
    <defs>
        <polygon id="path-1" points="0.2882 0.5891 14.799 0.5891 14.799 14.6961 0.2882 14.6961"></polygon>
    </defs>
    <g id="Page-1-Copy" stroke="none" stroke-width="1" fill="none" fill-rule="evenodd">
        <g id="Group-38" transform="translate(-313.000000, -339.000000)">
            <g id="Group-18" transform="translate(313.000000, 339.000000)">
                <path d="M24.0003,12 C24.0003,18.627 18.6273,24 12.0003,24 C5.3723,24 0.0003,18.627 0.0003,12 C0.0003,5.373 5.3723,0 12.0003,0 C18.6273,0 24.0003,5.373 24.0003,12" id="Fill-1" fill="#FFFFFF"></path>
                <path d="M14.0003,12.5 L13.0003,12.5 L13.0003,13.5 C13.0003,14.053 12.5523,14.5 12.0003,14.5 C11.4473,14.5 11.0003,14.053 11.0003,13.5 L11.0003,12.5 L10.0003,12.5 C9.4473,12.5 9.0003,12.053 9.0003,11.5 C9.0003,10.947 9.4473,10.5 10.0003,10.5 L11.0003,10.5 L11.0003,9.5 C11.0003,8.947 11.4473,8.5 12.0003,8.5 C12.5523,8.5 13.0003,8.947 13.0003,9.5 L13.0003,10.5 L14.0003,10.5 C14.5523,10.5 15.0003,10.947 15.0003,11.5 C15.0003,12.053 14.5523,12.5 14.0003,12.5 L14.0003,12.5 Z M18.9813,8.57 L18.9813,8.56 C18.9773,8.415 18.9723,8.265 18.9673,8.095 C18.9523,7.265 18.2313,6.58 17.3273,6.535 C15.4373,6.44 13.9783,5.875 12.7283,4.765 L12.7173,4.755 C12.3083,4.415 11.6923,4.415 11.2873,4.755 L11.2723,4.765 C10.0223,5.875 8.5633,6.44 6.6733,6.535 C5.7683,6.58 5.0483,7.265 5.0333,8.095 C5.0283,8.26 5.0223,8.415 5.0183,8.56 L5.0183,8.585 C4.9783,10.345 4.9333,12.535 5.7373,14.52 C6.1783,15.615 6.8483,16.56 7.7233,17.345 C8.7233,18.23 10.0273,18.94 11.6073,19.44 C11.6623,19.455 11.7123,19.47 11.7683,19.48 C11.8483,19.495 11.9223,19.5 12.0023,19.5 C12.0773,19.5 12.1523,19.495 12.2323,19.48 C12.2873,19.47 12.3373,19.455 12.3933,19.44 C13.9723,18.935 15.2773,18.23 16.2723,17.34 C17.1523,16.56 17.8173,15.61 18.2623,14.52 C19.0663,12.525 19.0213,10.335 18.9813,8.57 L18.9813,8.57 Z" id="Fill-3" fill="#00AED6"></path>
                <path d="M41.474,11.4482 L41.474,9.8862 C41.474,8.3492 39.787,6.9892 37.847,6.9892 C35.403,6.9892 33.816,8.4752 33.816,10.6422 C33.816,12.9852 35.302,14.3962 37.696,14.3962 C39.812,14.3962 41.474,13.0862 41.474,11.4482 M30.843,20.1902 L33.513,17.9732 C34.899,19.6112 36.033,20.1652 37.997,20.1652 C40.064,20.1652 41.625,18.8302 41.625,17.0152 L41.625,16.0582 L41.575,16.0582 C40.643,17.0922 39.106,17.6712 37.267,17.6712 C33.161,17.6712 30.087,14.6982 30.087,10.6422 C30.087,6.7372 33.085,3.7152 37.141,3.7152 C39.031,3.7152 40.618,4.2682 41.575,5.2762 L41.625,5.2762 L41.625,3.9672 L45.203,3.9672 L45.203,16.9662 C45.203,20.7442 42.23,23.3642 37.997,23.3642 C34.924,23.3642 32.43,22.2562 30.843,20.1902" id="Fill-5" fill="#FFFFFF"></path>
                <path d="M58.3793,10.6426 C58.3793,8.4756 56.8933,6.8636 54.5743,6.8636 C52.2573,6.8636 50.7713,8.4756 50.7713,10.6426 C50.7713,12.8086 52.2573,14.4206 54.5743,14.4206 C56.8933,14.4206 58.3793,12.8086 58.3793,10.6426 M47.0423,10.6426 C47.0423,6.6626 50.1913,3.5886 54.5743,3.5886 C58.9833,3.5886 62.1083,6.6626 62.1083,10.6426 C62.1083,14.6226 58.9833,17.6966 54.5743,17.6966 C50.1913,17.6966 47.0423,14.6226 47.0423,10.6426" id="Fill-7" fill="#FFFFFF"></path>
                <path d="M63.0902,12.9854 L66.5922,12.1544 C67.1212,13.8674 68.4562,14.7234 70.6222,14.7234 C72.5632,14.7234 73.6712,14.2954 73.6712,13.5644 C73.6712,12.7844 72.8152,12.4304 70.3702,12.0524 C65.5092,11.2984 63.7452,10.0884 63.7452,7.7194 C63.7452,5.2514 66.1892,3.5894 69.8922,3.5894 C73.2682,3.5894 76.2662,5.2764 76.9962,7.6194 L73.5952,8.6524 C73.0912,7.3674 71.6552,6.5614 69.8662,6.5614 C68.3052,6.5614 67.3222,7.0144 67.3222,7.7194 C67.3222,8.4004 68.0532,8.7024 70.9762,9.1814 C75.4352,9.8864 77.2742,11.0954 77.2742,13.5394 C77.2742,16.0334 74.6282,17.6964 70.5982,17.6964 C66.6672,17.6964 63.7452,15.8824 63.0902,12.9854" id="Fill-9" fill="#FFFFFF"></path>
                <path d="M78.7601,11.5996 L78.7601,3.9666 L82.4891,3.9666 L82.4891,11.0456 C82.4891,13.1366 83.6221,14.3206 85.7631,14.3206 C87.8291,14.3206 89.2391,12.9596 89.2391,11.0456 L89.2391,3.9666 L92.9681,3.9666 L92.9681,17.3186 L89.3651,17.3186 L89.3651,16.0586 L89.3161,16.0586 C88.2071,17.1176 86.6701,17.6966 84.8061,17.6966 C81.0021,17.6966 78.7601,15.4536 78.7601,11.5996" id="Fill-11" fill="#FFFFFF"></path>
                <path d="M95.4886,3.9668 L98.9906,3.9668 L98.9906,5.2508 L99.0406,5.2508 C100.0226,4.2428 101.3586,3.7148 102.9706,3.7148 C103.7016,3.7148 104.4066,3.8408 105.1626,4.0678 L104.3816,7.4178 C103.6506,7.2158 103.1726,7.1408 102.4416,7.1408 C100.4516,7.1408 99.2176,8.4508 99.2176,11.2218 L99.2176,17.3188 L95.4886,17.3188 L95.4886,3.9668 Z" id="Fill-13" fill="#FFFFFF"></path>
                <g id="Group-17" transform="translate(105.000000, 3.000000)">
                    <mask id="mask-2" fill="white">
                        <use xlink:href="#path-1"></use>
                    </mask>
                    <g id="Clip-16"></g>
                    <path d="M11.1712,6.2061 C10.9952,4.6441 9.6092,3.6111 7.6192,3.6111 C5.6042,3.6111 4.2182,4.6441 4.0172,6.2061 L11.1712,6.2061 Z M0.2882,7.6681 C0.2882,3.5611 3.3122,0.5891 7.5442,0.5891 C12.0272,0.5891 14.7992,3.7631 14.7992,7.7681 L14.7992,8.8261 L3.9662,8.8261 C4.0922,10.5641 5.5032,11.6731 7.7452,11.6731 C9.4082,11.6731 10.5672,11.0181 11.8522,9.6831 L14.1692,12.0011 C12.6332,13.6881 10.6432,14.6961 7.7712,14.6961 C3.0852,14.6961 0.2882,11.9001 0.2882,7.6681 L0.2882,7.6681 Z" id="Fill-15" fill="#FFFFFF" mask="url(#mask-2)"></path>
                </g>
            </g>
        </g>
    </g>
</svg>