<?xml version="1.0" encoding="UTF-8"?>
<svg width="132px" height="26px" viewBox="0 0 132 26" version="1.1" xmlns="http://www.w3.org/2000/svg" xmlns:xlink="http://www.w3.org/1999/xlink">
    <!-- Generator: Sketch 62 (91390) - https://sketch.com -->
    <title>Group 19</title>
    <desc>Created with Sketch.</desc>
    <defs>
        <polygon id="path-1" points="0 25.0723 131.362 25.0723 131.362 0.0003 0 0.0003"></polygon>
    </defs>
    <g id="Page-1-Copy" stroke="none" stroke-width="1" fill="none" fill-rule="evenodd">
        <g id="Group-38" transform="translate(-85.000000, -337.000000)">
            <g id="Group-19" transform="translate(85.000000, 337.000000)">
                <path d="M24.0001,13.0723 C24.0001,19.6993 18.6271,25.0723 12.0001,25.0723 C5.3721,25.0723 0.0001,19.6993 0.0001,13.0723 C0.0001,6.4453 5.3721,1.0723 12.0001,1.0723 C18.6271,1.0723 24.0001,6.4453 24.0001,13.0723" id="Fill-1" fill="#FFFFFF"></path>
                <path d="M13.3458,11.0723 L12.1028,11.0723 C12.0458,11.0723 11.9998,11.0283 11.9998,10.9743 L11.9998,9.2133 C11.9998,9.0643 11.8208,9.0173 11.7618,9.1503 L10.5128,11.8683 C10.4688,11.9653 10.5428,12.0723 10.6538,12.0723 L11.8978,12.0723 C11.9538,12.0723 11.9998,12.1163 11.9998,12.1703 L11.9998,13.9313 C11.9998,14.0803 12.1788,14.1273 12.2388,13.9943 L13.4878,11.2763 C13.5318,11.1793 13.4568,11.0723 13.3458,11.0723" id="Fill-3" fill="#00AED6"></path>
                <path d="M15.7999,15.0206 C15.7999,15.1486 15.7779,15.2776 15.7319,15.3946 C15.5609,15.9576 15.0469,16.3906 14.4529,16.4146 C12.8209,16.4966 11.1779,16.4966 9.5459,16.4146 C8.9529,16.3906 8.4399,15.9576 8.2679,15.3946 C8.2229,15.2776 8.1989,15.1486 8.1989,15.0196 C8.1429,12.9816 8.1769,10.9316 8.2909,8.8816 C8.3019,8.7526 8.3249,8.6356 8.3599,8.5186 C8.4499,8.2376 8.6219,7.9796 8.8499,7.7916 C8.9529,7.6866 9.0779,7.6166 9.2039,7.5576 C9.3409,7.4876 9.4779,7.4526 9.6259,7.4406 C9.8089,7.4286 10.0029,7.4056 10.1859,7.4056 C11.3609,7.3116 12.5249,7.3116 13.6889,7.3936 C13.9169,7.4056 14.1459,7.4166 14.3739,7.4406 C14.5229,7.4526 14.6589,7.4876 14.7959,7.5576 C14.9219,7.6166 15.0469,7.6866 15.1499,7.7916 C15.3779,7.9796 15.5489,8.2376 15.6409,8.5186 C15.6749,8.6356 15.6969,8.7526 15.7089,8.8816 C15.8229,10.9316 15.8579,12.9816 15.7999,15.0206 M11.9999,19.5726 C11.4469,19.5726 10.9999,19.1246 10.9999,18.5726 C10.9999,18.0196 11.4469,17.5726 11.9999,17.5726 C12.5519,17.5726 12.9999,18.0196 12.9999,18.5726 C12.9999,19.1246 12.5519,19.5726 11.9999,19.5726 M17.1599,7.4586 C17.0829,6.7996 16.4749,6.1086 15.8339,5.9716 C13.2809,5.4386 10.7179,5.4386 8.1649,5.9716 C7.5249,6.1086 6.9169,6.7996 6.8399,7.4586 C6.3869,11.2016 6.3869,14.9436 6.8399,18.6866 C6.9169,19.3446 7.5249,20.0366 8.1659,20.1716 C10.7179,20.7056 13.2809,20.7056 15.8339,20.1726 C16.4749,20.0366 17.0829,19.3446 17.1599,18.6866 C17.6129,14.9436 17.6129,11.2016 17.1599,7.4586" id="Fill-5" fill="#00AED6"></path>
                <path d="M41.4738,12.5206 L41.4738,10.9586 C41.4738,9.4216 39.7868,8.0616 37.8468,8.0616 C35.4028,8.0616 33.8158,9.5476 33.8158,11.7146 C33.8158,14.0576 35.3018,15.4686 37.6958,15.4686 C39.8118,15.4686 41.4738,14.1586 41.4738,12.5206 M30.8428,21.2626 L33.5128,19.0456 C34.8988,20.6836 36.0328,21.2376 37.9968,21.2376 C40.0638,21.2376 41.6248,19.9026 41.6248,18.0876 L41.6248,17.1306 L41.5748,17.1306 C40.6428,18.1646 39.1058,18.7436 37.2668,18.7436 C33.1608,18.7436 30.0868,15.7706 30.0868,11.7146 C30.0868,7.8096 33.0848,4.7876 37.1408,4.7876 C39.0308,4.7876 40.6178,5.3406 41.5748,6.3486 L41.6248,6.3486 L41.6248,5.0396 L45.2028,5.0396 L45.2028,18.0386 C45.2028,21.8166 42.2298,24.4366 37.9968,24.4366 C34.9238,24.4366 32.4298,23.3286 30.8428,21.2626" id="Fill-7" fill="#FFFFFF"></path>
                <path d="M58.379,11.7149 C58.379,9.5479 56.893,7.9359 54.574,7.9359 C52.257,7.9359 50.771,9.5479 50.771,11.7149 C50.771,13.8809 52.257,15.4929 54.574,15.4929 C56.893,15.4929 58.379,13.8809 58.379,11.7149 M47.042,11.7149 C47.042,7.7349 50.191,4.6609 54.574,4.6609 C58.983,4.6609 62.108,7.7349 62.108,11.7149 C62.108,15.6949 58.983,18.7689 54.574,18.7689 C50.191,18.7689 47.042,15.6949 47.042,11.7149" id="Fill-9" fill="#FFFFFF"></path>
                <path d="M75.2579,11.7149 C75.2579,9.4729 73.7209,7.9609 71.4799,7.9609 C69.5139,7.9609 67.8519,9.2959 67.8519,10.8589 L67.8519,12.5459 C67.8519,14.1579 69.4389,15.4929 71.5039,15.4929 C73.6959,15.4929 75.2579,13.9569 75.2579,11.7149 L75.2579,11.7149 Z M64.1229,5.0389 L67.6999,5.0389 L67.6999,6.2229 L67.7509,6.2229 C68.7829,5.1649 70.3459,4.6609 72.0589,4.6609 C76.0139,4.6609 78.9869,7.7089 78.9869,11.7149 C78.9869,15.7449 76.0389,18.7689 72.0839,18.7689 C70.4209,18.7689 68.7579,18.1899 67.9019,17.3579 L67.8519,17.3579 L67.8519,24.0589 L64.1229,24.0589 L64.1229,5.0389 Z" id="Fill-11" fill="#FFFFFF"></path>
                <path d="M80.7247,12.6719 L80.7247,5.0389 L84.4537,5.0389 L84.4537,12.1179 C84.4537,14.2089 85.5867,15.3929 87.7277,15.3929 C89.7937,15.3929 91.2037,14.0319 91.2037,12.1179 L91.2037,5.0389 L94.9327,5.0389 L94.9327,18.3909 L91.3297,18.3909 L91.3297,17.1309 L91.2807,17.1309 C90.1717,18.1899 88.6347,18.7689 86.7707,18.7689 C82.9667,18.7689 80.7247,16.5259 80.7247,12.6719" id="Fill-13" fill="#FFFFFF"></path>
                <mask id="mask-2" fill="white">
                    <use xlink:href="#path-1"></use>
                </mask>
                <g id="Clip-16"></g>
                <polygon id="Fill-15" fill="#FFFFFF" mask="url(#mask-2)" points="97.428 18.3913 101.157 18.3913 101.157 0.0003 97.428 0.0003"></polygon>
                <path d="M102.8937,14.0577 L106.3957,13.2267 C106.9247,14.9397 108.2597,15.7957 110.4257,15.7957 C112.3667,15.7957 113.4747,15.3677 113.4747,14.6367 C113.4747,13.8567 112.6187,13.5027 110.1737,13.1247 C105.3127,12.3707 103.5487,11.1607 103.5487,8.7917 C103.5487,6.3237 105.9927,4.6617 109.6957,4.6617 C113.0717,4.6617 116.0697,6.3487 116.7997,8.6917 L113.3987,9.7247 C112.8957,8.4397 111.4587,7.6337 109.6707,7.6337 C108.1087,7.6337 107.1257,8.0867 107.1257,8.7917 C107.1257,9.4727 107.8567,9.7747 110.7797,10.2537 C115.2387,10.9587 117.0777,12.1677 117.0777,14.6117 C117.0777,17.1057 114.4317,18.7687 110.4017,18.7687 C106.4707,18.7687 103.5487,16.9547 102.8937,14.0577" id="Fill-17" fill="#FFFFFF" mask="url(#mask-2)"></path>
                <path d="M127.8097,13.4278 L127.8097,11.8408 L127.7597,11.8408 C127.4317,12.3198 126.7267,12.5968 124.9137,12.9238 C122.7207,13.3268 121.9407,13.7548 121.9407,14.5358 C121.9407,15.3428 122.5947,15.6958 124.0057,15.6958 C126.1727,15.6958 127.8097,14.7128 127.8097,13.4278 M118.4637,14.7878 C118.4637,12.3198 120.0767,11.0098 124.3327,10.4298 C126.8277,10.0768 127.5077,9.7248 127.5077,9.0698 C127.5077,8.1878 126.5757,7.6588 125.1397,7.6588 C123.4267,7.6588 122.1417,8.5908 121.8147,10.0518 L118.2877,9.3218 C118.8167,6.5498 121.5627,4.6608 125.0387,4.6608 C128.9437,4.6608 131.3627,6.6518 131.3627,9.9008 L131.3627,18.3908 L128.0117,18.3908 L128.0117,16.9298 L127.9607,16.9298 C127.1557,18.0638 125.4417,18.7688 123.4517,18.7688 C120.4787,18.7688 118.4637,17.1568 118.4637,14.7878" id="Fill-18" fill="#FFFFFF" mask="url(#mask-2)"></path>
            </g>
        </g>
    </g>
</svg>