<?xml version="1.0" encoding="UTF-8"?>
<svg width="135px" height="25px" viewBox="0 0 135 25" version="1.1" xmlns="http://www.w3.org/2000/svg" xmlns:xlink="http://www.w3.org/1999/xlink">
    <!-- Generator: Sketch 62 (91390) - https://sketch.com -->
    <title>Group 20</title>
    <desc>Created with Sketch.</desc>
    <defs>
        <polygon id="path-1" points="0 -0.0004 23.9999 -0.0004 23.9999 23.9996 0 23.9996"></polygon>
        <polygon id="path-3" points="0 24.4418 135.02 24.4418 135.02 -0.0002 0 -0.0002"></polygon>
    </defs>
    <g id="Page-1-Copy" stroke="none" stroke-width="1" fill="none" fill-rule="evenodd">
        <g id="Group-38" transform="translate(-798.000000, -197.000000)">
            <g id="Group-20" transform="translate(798.000000, 197.000000)">
                <g id="Group-3" transform="translate(0.000000, 0.441800)">
                    <mask id="mask-2" fill="white">
                        <use xlink:href="#path-1"></use>
                    </mask>
                    <g id="Clip-2"></g>
                    <path d="M11.9999,-0.0004 C18.6279,-0.0004 23.9999,5.3726 23.9999,11.9996 C23.9999,18.6276 18.6279,23.9996 11.9999,23.9996 C5.3729,23.9996 -0.0001,18.6276 -0.0001,11.9996 C-0.0001,5.3726 5.3729,-0.0004 11.9999,-0.0004" id="Fill-1" fill="#FFFFFF" mask="url(#mask-2)"></path>
                </g>
                <path d="M15.9999,14.1914 C15.9999,14.8804 16.5609,15.4414 17.2499,15.4414 L19.2979,15.4414 C19.4189,14.6014 19.4859,13.7644 19.4959,12.9414 L17.2499,12.9414 C16.5609,12.9414 15.9999,13.5024 15.9999,14.1914" id="Fill-4" fill="#FFFFFF"></path>
                <path d="M17.2499,16.4414 C16.0099,16.4414 14.9999,15.4324 14.9999,14.1914 C14.9999,12.9514 16.0099,11.9414 17.2499,11.9414 L19.4679,11.9414 C19.3089,10.4754 18.0919,9.3934 16.5819,9.4414 L8.9999,9.4414 C8.7239,9.4414 8.4999,9.2174 8.4999,8.9414 C8.4999,8.6664 8.7239,8.4414 8.9999,8.4414 L16.6829,8.4414 C16.6329,7.4554 15.8809,6.3854 14.9299,6.2384 C12.6759,5.8424 10.4209,5.8424 8.1669,6.2384 C6.9149,6.4354 5.9639,7.6724 5.7629,8.9064 C5.4119,11.2754 5.4119,13.6444 5.7629,16.0134 C5.8629,16.6544 6.2209,17.2844 6.7159,17.7714 C6.8639,17.7484 7.0089,17.7204 7.1409,17.6844 C7.7029,17.5784 8.2099,17.3644 8.6599,17.0444 C9.1099,16.7764 9.5039,16.4024 9.8419,15.9754 C10.0659,15.7084 10.2349,15.4404 10.3479,15.1204 L9.6729,14.7994 C9.3919,14.6924 9.3919,14.3184 9.6729,14.1584 L12.0359,12.9824 C12.2619,12.8764 12.5429,12.9824 12.5429,13.2504 L12.9929,15.7084 C13.0489,15.9754 12.7679,16.1884 12.4859,16.0824 L11.8669,15.8144 C11.8119,15.8684 11.8119,15.9754 11.7549,16.0284 C11.5859,16.3494 11.4169,16.6164 11.1919,16.8834 C10.7419,17.4184 10.1799,17.8984 9.5609,18.2724 C9.2859,18.4464 8.9949,18.5854 8.6969,18.7044 C11.4369,19.0254 14.1749,19.0204 16.8649,18.6824 C18.0209,18.5454 18.8029,17.5624 19.1129,16.4414 L17.2499,16.4414 Z" id="Fill-6" fill="#00AED6"></path>
                <path d="M41.1522,11.7148 C41.1522,9.4728 39.6152,7.9608 37.3742,7.9608 C35.4082,7.9608 33.7462,9.2958 33.7462,10.8588 L33.7462,12.5458 C33.7462,14.1578 35.3332,15.4928 37.3982,15.4928 C39.5902,15.4928 41.1522,13.9568 41.1522,11.7148 L41.1522,11.7148 Z M30.0172,5.0388 L33.5942,5.0388 L33.5942,6.2228 L33.6452,6.2228 C34.6772,5.1648 36.2402,4.6608 37.9532,4.6608 C41.9082,4.6608 44.8812,7.7088 44.8812,11.7148 C44.8812,15.7448 41.9332,18.7688 37.9782,18.7688 C36.3152,18.7688 34.6522,18.1898 33.7962,17.3578 L33.7462,17.3578 L33.7462,24.0588 L30.0172,24.0588 L30.0172,5.0388 Z" id="Fill-8" fill="#FFFFFF"></path>
                <path d="M55.3856,13.4277 L55.3856,11.8407 L55.3356,11.8407 C55.0076,12.3197 54.3026,12.5967 52.4896,12.9237 C50.2966,13.3267 49.5166,13.7547 49.5166,14.5357 C49.5166,15.3427 50.1706,15.6957 51.5816,15.6957 C53.7486,15.6957 55.3856,14.7127 55.3856,13.4277 M46.0396,14.7877 C46.0396,12.3197 47.6526,11.0097 51.9086,10.4297 C54.4036,10.0767 55.0836,9.7247 55.0836,9.0697 C55.0836,8.1877 54.1516,7.6587 52.7156,7.6587 C51.0026,7.6587 49.7176,8.5907 49.3906,10.0517 L45.8636,9.3217 C46.3926,6.5497 49.1386,4.6607 52.6146,4.6607 C56.5196,4.6607 58.9386,6.6517 58.9386,9.9007 L58.9386,18.3907 L55.5876,18.3907 L55.5876,16.9297 L55.5366,16.9297 C54.7316,18.0637 53.0176,18.7687 51.0276,18.7687 C48.0546,18.7687 46.0396,17.1567 46.0396,14.7877" id="Fill-10" fill="#FFFFFF"></path>
                <polygon id="Fill-12" fill="#FFFFFF" points="65.6903 17.6601 59.5183 5.0391 63.6253 5.0391 67.6803 13.7551 67.7313 13.7551 71.7363 5.0391 75.8683 5.0391 66.6233 24.0581 62.5163 24.0581"></polygon>
                <mask id="mask-4" fill="white">
                    <use xlink:href="#path-3"></use>
                </mask>
                <g id="Clip-15"></g>
                <polygon id="Fill-14" fill="#FFFFFF" mask="url(#mask-4)" points="77.102 18.3908 80.831 18.3908 80.831 -0.0002 77.102 -0.0002"></polygon>
                <path d="M92.3436,13.4277 L92.3436,11.8407 L92.2936,11.8407 C91.9656,12.3197 91.2606,12.5967 89.4476,12.9237 C87.2546,13.3267 86.4746,13.7547 86.4746,14.5357 C86.4746,15.3427 87.1286,15.6957 88.5396,15.6957 C90.7066,15.6957 92.3436,14.7127 92.3436,13.4277 M82.9976,14.7877 C82.9976,12.3197 84.6106,11.0097 88.8666,10.4297 C91.3616,10.0767 92.0416,9.7247 92.0416,9.0697 C92.0416,8.1877 91.1096,7.6587 89.6736,7.6587 C87.9606,7.6587 86.6756,8.5907 86.3486,10.0517 L82.8216,9.3217 C83.3506,6.5497 86.0966,4.6607 89.5726,4.6607 C93.4776,4.6607 95.8966,6.6517 95.8966,9.9007 L95.8966,18.3907 L92.5456,18.3907 L92.5456,16.9297 L92.4946,16.9297 C91.6896,18.0637 89.9756,18.7687 87.9856,18.7687 C85.0126,18.7687 82.9976,17.1567 82.9976,14.7877" id="Fill-16" fill="#FFFFFF" mask="url(#mask-4)"></path>
                <path d="M103.7821,8.2129 L103.7821,13.8569 C103.7821,14.6879 104.0581,14.9399 105.1421,14.9399 L107.5861,14.9399 L107.5861,18.3909 L104.7641,18.3909 C101.3631,18.3909 100.0531,17.0299 100.0531,14.0829 L100.0531,8.2129 L96.9041,8.2129 L96.9041,5.0389 L100.0531,5.0389 L100.0531,1.6889 L103.7821,1.6889 L103.7821,5.0389 L108.0901,5.0389 L108.0901,8.2129 L103.7821,8.2129 Z" id="Fill-17" fill="#FFFFFF" mask="url(#mask-4)"></path>
                <path d="M119.7284,10.2783 C119.5524,8.7163 118.1664,7.6833 116.1764,7.6833 C114.1614,7.6833 112.7754,8.7163 112.5744,10.2783 L119.7284,10.2783 Z M108.8454,11.7403 C108.8454,7.6333 111.8694,4.6613 116.1014,4.6613 C120.5844,4.6613 123.3564,7.8353 123.3564,11.8403 L123.3564,12.8983 L112.5234,12.8983 C112.6494,14.6363 114.0604,15.7453 116.3024,15.7453 C117.9654,15.7453 119.1244,15.0903 120.4094,13.7553 L122.7264,16.0733 C121.1904,17.7603 119.2004,18.7683 116.3284,18.7683 C111.6424,18.7683 108.8454,15.9723 108.8454,11.7403 L108.8454,11.7403 Z" id="Fill-18" fill="#FFFFFF" mask="url(#mask-4)"></path>
                <path d="M125.3466,5.039 L128.8486,5.039 L128.8486,6.323 L128.8986,6.323 C129.8806,5.315 131.2166,4.787 132.8286,4.787 C133.5596,4.787 134.2646,4.913 135.0206,5.14 L134.2396,8.49 C133.5086,8.288 133.0306,8.213 132.2996,8.213 C130.3096,8.213 129.0756,9.523 129.0756,12.294 L129.0756,18.391 L125.3466,18.391 L125.3466,5.039 Z" id="Fill-19" fill="#FFFFFF" mask="url(#mask-4)"></path>
            </g>
        </g>
    </g>
</svg>