<?xml version="1.0" encoding="utf-8"?>
<!-- Generator: Adobe Illustrator 23.0.4, SVG Export Plug-In . SVG Version: 6.00 Build 0)  -->
<svg version="1.1" id="Layer_1" xmlns="http://www.w3.org/2000/svg" xmlns:xlink="http://www.w3.org/1999/xlink" x="0px" y="0px"
	 viewBox="0 0 7172.9 3679.2" style="enable-background:new 0 0 7172.9 3679.2;" xml:space="preserve">
<style type="text/css">
	.st0{fill:#00AA13;}
</style>
<title>Gojek_LogoArtboard 3</title>
<path class="st0" d="M1120.8,1922.9c0-140.8,114.2-255,255-255s255,114.2,255,255s-114.1,255-255,255S1120.8,2063.7,1120.8,1922.9"
	/>
<path class="st0" d="M1375.7,1243c-375.5,0-679.9,304.4-679.9,679.9c0,281.9,170.2,522.5,417.4,627.2c15.6,6.4,32.3,9.8,49.2,9.9
	c70.4,0,127.5-57.1,127.5-127.5c0-51.4-30.9-97.7-78.2-117.6v-0.1c-153.2-64.2-260.9-215.5-260.9-392c0-234.7,190.2-425,425-425
	s425,190.3,425,425c0,176.5-107.7,327.8-260.9,392v0.1c-64.9,27.3-95.4,102-68.1,166.9c19.8,47.2,66,78,117.2,78.1
	c16.9-0.1,33.6-3.5,49.2-9.9c247.1-104.7,417.4-345.4,417.4-627.2C2055.6,1547.3,1751.2,1242.9,1375.7,1243"/>
<path d="M4028.4,1847.5c0-123-84.4-214.4-215.9-214.4s-215.9,91.5-215.9,214.4S3681,2062,3812.5,2062S4028.4,1970.5,4028.4,1847.5
	 M3385,1847.5c0-225.9,178.7-400.3,427.5-400.3c250.2,0,427.5,174.4,427.5,400.3s-177.3,400.4-427.5,400.4
	C3563.7,2247.9,3385,2073.4,3385,1847.5"/>
<path d="M4167.4,2411.4h114.4c61.5,0,82.9-22.9,82.9-77.2v-886.8h211.6v889.7c0,187.3-75.8,267.4-277.4,267.4h-131.5V2411.4z"/>
<path d="M3045.8,1888.9c0,93.5-95,168.4-215.9,168.4c-136.7,0-221.6-80.6-221.6-214.4c0-123.7,90.7-208.7,230.2-208.7
	c110.8,0,207.2,77.7,207.2,165.5L3045.8,1888.9z M3054.4,1446.9v89.4h-2.9c-54.7-57.6-145.4-89.2-253.3-89.2
	c-231.7,0-402.9,172.7-402.9,395.7c0,231.7,175.6,401.5,410.1,401.5c105,0,192.8-33.1,246.1-92.1h2.9v77.1
	c0,103.6-89.2,179.9-207.2,179.9c-119,0-188.2-33.6-248.4-91l-137.7,132.6c92.3,98,231.5,153.7,390.5,153.7
	c241.8,0,407.2-162.2,407.2-378v-779.5L3054.4,1446.9z"/>
<path d="M5117,1618.7c112.9,0,191.6,58.6,201.6,147.3h-406.1C4924,1677.3,5002.7,1618.7,5117,1618.7 M5138.9,2076.2
	c-126.9,0-226.5-82-229.2-161.6h614.8v-60c0-227.3-157.3-407.5-411.8-407.5c-240.2,0-411.8,168.7-411.8,401.8
	c0,240.2,181,398.9,447,398.9c163,0,279.9-78.1,340.9-153l-143.4-100.5C5281.7,2053.9,5223.8,2076.3,5138.9,2076.2"/>
<polygon points="5649.2,1241 5853.4,1241 5854.6,1766 5857.4,1766 6199.3,1445.3 6473.1,1445.3 6118.7,1780.8 6471.7,2247.2 
	6227.2,2247.2 5984.8,1910.1 5982.1,1910.1 5853.4,2031.9 5853.4,2247.8 5649.2,2247.8 "/>
</svg>
