<?xml version="1.0" encoding="utf-8"?>
<!-- Generator: Adobe Illustrator 23.0.4, SVG Export Plug-In . SVG Version: 6.00 Build 0)  -->
<svg version="1.1" id="Layer_1" xmlns="http://www.w3.org/2000/svg" xmlns:xlink="http://www.w3.org/1999/xlink" x="0px" y="0px"
	 viewBox="0 0 3955.7 3679.2" style="enable-background:new 0 0 3955.7 3679.2;" xml:space="preserve">
<style type="text/css">
	.st0{fill:#00AA13;}
</style>
<title>Gojek_LogoArtboard 2</title>
<path class="st0" d="M1636.9,1335.4c0-168.1,136.3-304.4,304.4-304.4s304.4,136.3,304.4,304.4s-136.3,304.4-304.4,304.4
	S1636.9,1503.6,1636.9,1335.4"/>
<path class="st0" d="M1941.3,523.8c-448.3,0-811.7,363.4-811.7,811.7c0,336.5,203.2,623.8,498.3,748.8c18.6,7.7,38.6,11.7,58.8,11.8
	c84,0,152.2-68.1,152.2-152.2c0-61.4-36.8-116.7-93.4-140.4v-0.1c-182.9-76.6-311.4-257.2-311.4-467.9
	c0-280.2,227.1-507.3,507.3-507.3s507.3,227.1,507.3,507.3c0,210.7-128.5,391.3-311.4,467.9v0.1c-77.5,32.5-114,121.7-81.5,199.2
	c23.7,56.6,79,93.4,140.4,93.4c20.2-0.1,40.1-4.1,58.8-11.8c295-125,498.3-412.3,498.3-748.8C2753,887.1,2389.6,523.7,1941.3,523.8"
	/>
<path d="M1694.5,2715.5c0-71.5-49-124.6-125.5-124.6s-125.5,53.2-125.5,124.6s49,124.6,125.5,124.6S1694.5,2787,1694.5,2715.5
	 M1320.6,2715.5c0-131.3,103.9-232.7,248.5-232.7c145.4,0,248.5,101.4,248.5,232.7s-103,232.7-248.5,232.7
	C1424.4,2948.2,1320.6,2846.8,1320.6,2715.5"/>
<path d="M1775.3,3043.3h66.5c35.7,0,48.2-13.3,48.2-44.9V2483h123v517.1c0,108.9-44.1,155.4-161.2,155.4h-76.4V3043.3z"/>
<path d="M1123.4,2739.6c0,54.4-55.2,97.9-125.5,97.9c-79.5,0-128.8-46.8-128.8-124.6c0-71.9,52.7-121.3,133.8-121.3
	c64.4,0,120.4,45.2,120.4,96.2V2739.6z M1128.4,2482.7v52h-1.7c-31.8-33.4-84.5-51.9-147.2-51.9c-134.6,0-234.2,100.4-234.2,230
	c0,134.7,102,233.3,238.4,233.3c61.1,0,112.1-19.2,143-53.5h1.7v44.8c0,60.2-51.9,104.5-120.4,104.5c-69.2,0-109.4-19.5-144.3-52.9
	l-80.1,77.1c53.7,57,134.5,89.3,226.9,89.3c140.5,0,236.7-94.3,236.7-219.7v-453L1128.4,2482.7z"/>
<path d="M2327.2,2582.6c65.6,0,111.3,34.1,117.2,85.6h-236C2215,2616.6,2260.7,2582.6,2327.2,2582.6 M2339.9,2848.5
	c-73.7,0-131.7-47.7-133.2-93.9H2564v-34.9c0-132.1-91.4-236.8-239.4-236.8c-139.6,0-239.3,98.1-239.3,233.5
	c0,139.6,105.2,231.8,259.8,231.8c94.8,0,162.7-45.4,198.1-88.9l-83.3-58.4C2422.8,2835.5,2389.2,2848.5,2339.9,2848.5"/>
<polygon points="2636.5,2363 2755.2,2363 2755.8,2668.2 2757.4,2668.2 2956.2,2481.8 3115.3,2481.8 2909.4,2676.8 3114.5,2947.9 
	2972.4,2947.9 2831.5,2751.9 2829.9,2751.9 2755.2,2822.7 2755.2,2948.2 2636.5,2948.2 "/>
</svg>
