<?xml version="1.0" encoding="UTF-8"?>
<svg width="24px" height="24px" viewBox="0 0 24 24" version="1.1" xmlns="http://www.w3.org/2000/svg" xmlns:xlink="http://www.w3.org/1999/xlink">
    <!-- Generator: Sketch 62 (91390) - https://sketch.com -->
    <title>navigation/16/ic_search</title>
    <desc>Created with Sketch.</desc>
    <g id="Page-1-Copy" stroke="none" stroke-width="1" fill="none" fill-rule="evenodd">
        <g id="Blogs-(Landing)" transform="translate(-1201.000000, -750.000000)" fill="#00aa13">
            <g id="Group-10" transform="translate(216.000000, 740.000000)">
                <path d="M1003.153,26.1165361 L1008.57823,31.5417662 C1009.14059,32.1041212 1009.14059,33.0158788 1008.57823,33.5782338 C1008.01588,34.1405887 1007.10412,34.1405887 1006.54177,33.5782338 L1001.11654,28.1530036 C999.433744,29.4133972 997.343962,30.16 995.08,30.16 C989.51351,30.16 985,25.64649 985,20.08 C985,14.51351 989.51351,10 995.08,10 C1000.64649,10 1005.16,14.51351 1005.16,20.08 C1005.16,22.3439615 1004.4134,24.4337442 1003.153,26.1165361 L1003.153,26.1165361 Z M1003,20 C1003,15.5823223 999.417678,12 995,12 C990.582322,12 987,15.5823223 987,20 C987,24.4176777 990.582322,28 995,28 C999.417678,28 1003,24.4176777 1003,20 Z" id="navigation/16/ic_search"></path>
            </g>
        </g>
    </g>
</svg>
