<?xml version="1.0" encoding="UTF-8"?>
<svg width="169px" height="26px" viewBox="0 0 169 26" version="1.1" xmlns="http://www.w3.org/2000/svg" xmlns:xlink="http://www.w3.org/1999/xlink">
    <!-- Generator: Sketch 62 (91390) - https://sketch.com -->
    <title>Group 23 Copy 2</title>
    <desc>Created with Sketch.</desc>
    <defs>
        <polygon id="path-1" points="0 25.9512 168.244 25.9512 168.244 0.0002 0 0.0002"></polygon>
    </defs>
    <g id="Page-1-Copy" stroke="none" stroke-width="1" fill="none" fill-rule="evenodd">
        <g id="Home-Page-Copy-9" transform="translate(-252.000000, -1445.000000)">
            <g id="Rectangle-Copy-27" transform="translate(731.000000, 1260.000000) rotate(-90.000000) translate(-731.000000, -1260.000000) translate(185.000000, 503.000000)">
                <g id="Group-10" transform="translate(170.000000, 201.000000)">
                    <g id="Group-23-Copy-2" transform="translate(178.000000, 161.500000) rotate(90.000000) translate(-178.000000, -161.500000) translate(93.500000, 148.500000)">
                        <path d="M12,1.9512 C18.627,1.9512 24,7.3242 24,13.9512 C24,20.5782 18.627,25.9512 12,25.9512 C5.373,25.9512 0,20.5782 0,13.9512 C0,7.3242 5.373,1.9512 12,1.9512" id="Fill-1" fill="#FFFFFF"></path>
                        <path d="M16.751,15.9512 C15.785,15.9512 15.001,16.7342 15.001,17.7012 C15.001,18.6682 15.785,19.4512 16.751,19.4512 C17.718,19.4512 18.501,18.6682 18.501,17.7012 C18.501,16.7342 17.718,15.9512 16.751,15.9512" id="Fill-3" fill="#00AED6"></path>
                        <path d="M7.251,15.9512 C6.285,15.9512 5.501,16.7342 5.501,17.7012 C5.501,18.6682 6.285,19.4512 7.251,19.4512 C8.218,19.4512 9.001,18.6682 9.001,17.7012 C9.001,16.7342 8.218,15.9512 7.251,15.9512" id="Fill-5" fill="#00AED6"></path>
                        <path d="M11.5,11.9512 L11.5,9.4512 L12.943,9.4502 C13.267,9.4502 13.586,9.5542 13.831,9.7642 C13.953,9.8712 14.063,9.9932 14.15,10.1322 L14.786,11.1442 L15.25,11.9512 L11.5,11.9512 Z M10,11.9512 L6.25,11.9512 L7.026,10.4452 L7.167,10.1722 C7.168,10.1692 7.17,10.1662 7.172,10.1622 C7.421,9.7042 7.932,9.4502 8.454,9.4502 L10,9.4512 L10,11.9512 Z M21.487,14.4382 C21.426,13.6142 20.82,12.9222 19.989,12.7252 C19.061,12.5462 18.122,12.4122 17.18,12.3262 L15.486,9.6552 C14.944,8.7892 14.03,8.2112 13,8.0622 L13,7.4522 C13,7.1762 12.775,6.9512 12.499,6.9512 L11.001,6.9512 C10.725,6.9512 10.5,7.1762 10.5,7.4522 L10.5,7.9552 C9.871,7.9602 9.243,7.9842 8.615,8.0342 C7.438,8.1262 6.391,8.7932 5.838,9.8022 L4.412,12.3762 C4.107,12.4222 3.805,12.4822 3.506,12.5582 C3.067,12.6832 2.733,13.0292 2.636,13.4612 C2.511,14.1902 2.472,14.9312 2.521,15.6702 C2.575,16.5802 3.021,17.1242 4.244,17.4082 C4.342,17.4302 4.429,17.4532 4.513,17.4742 C4.631,16.0652 5.811,14.9582 7.251,14.9582 C8.771,14.9582 10.001,16.1882 10.001,17.7062 C10.001,17.7822 10.002,17.8742 9.996,17.9492 C10.588,17.9562 11.245,17.9422 12,17.9422 C12.735,17.9422 13.401,17.9532 14.013,17.9452 C14.005,17.8622 14,17.7782 14,17.6922 C14,16.1762 15.231,14.9452 16.75,14.9452 C18.205,14.9452 19.394,16.0762 19.49,17.5062 L19.739,17.4552 C20.57,17.3102 21.4,16.7222 21.472,15.9842 C21.493,15.6352 21.514,14.7022 21.487,14.4382 L21.487,14.4382 Z" id="Fill-7" fill="#00AED6"></path>
                        <path d="M41.1973,13.4024 L41.1973,11.8404 C41.1973,10.3034 39.5103,8.9434 37.5703,8.9434 C35.1253,8.9434 33.5393,10.4294 33.5393,12.5964 C33.5393,14.9394 35.0253,16.3504 37.4183,16.3504 C39.5353,16.3504 41.1973,15.0404 41.1973,13.4024 M30.5663,22.1444 L33.2363,19.9274 C34.6213,21.5654 35.7563,22.1194 37.7203,22.1194 C39.7873,22.1194 41.3473,20.7844 41.3473,18.9694 L41.3473,18.0124 L41.2973,18.0124 C40.3653,19.0464 38.8283,19.6254 36.9903,19.6254 C32.8833,19.6254 29.8103,16.6524 29.8103,12.5964 C29.8103,8.6914 32.8083,5.6694 36.8633,5.6694 C38.7543,5.6694 40.3403,6.2224 41.2973,7.2304 L41.3473,7.2304 L41.3473,5.9214 L44.9263,5.9214 L44.9263,18.9204 C44.9263,22.6984 41.9533,25.3184 37.7203,25.3184 C34.6463,25.3184 32.1523,24.2104 30.5663,22.1444" id="Fill-9" fill="#FFFFFF"></path>
                        <path d="M58.1016,12.5967 C58.1016,10.4297 56.6156,8.8177 54.2966,8.8177 C51.9806,8.8177 50.4946,10.4297 50.4946,12.5967 C50.4946,14.7627 51.9806,16.3747 54.2966,16.3747 C56.6156,16.3747 58.1016,14.7627 58.1016,12.5967 M46.7656,12.5967 C46.7656,8.6167 49.9136,5.5427 54.2966,5.5427 C58.7066,5.5427 61.8306,8.6167 61.8306,12.5967 C61.8306,16.5767 58.7066,19.6507 54.2966,19.6507 C49.9136,19.6507 46.7656,16.5767 46.7656,12.5967" id="Fill-11" fill="#FFFFFF"></path>
                        <path d="M75.3594,12.5967 C75.3594,10.3547 73.7464,8.8177 71.3794,8.8177 C69.3124,8.8177 67.5744,10.1277 67.5744,11.7147 L67.5744,13.4027 C67.5744,15.0397 69.2614,16.3507 71.3794,16.3507 C73.7974,16.3507 75.3594,14.8647 75.3594,12.5967 M67.3474,17.9627 L67.2964,17.9627 L67.2964,19.2727 L63.8454,19.2727 L63.8454,0.8817 L67.5744,0.8817 L67.5744,6.9787 L67.6254,6.9787 C68.6584,6.0467 70.1954,5.5427 71.9574,5.5427 C76.0394,5.5427 79.0884,8.5657 79.0884,12.5967 C79.0884,16.7287 76.0894,19.6507 71.8574,19.6507 C69.9184,19.6507 68.3554,19.0717 67.3474,17.9627" id="Fill-13" fill="#FFFFFF"></path>
                        <mask id="mask-2" fill="white">
                            <use xlink:href="#path-1"></use>
                        </mask>
                        <g id="Clip-16"></g>
                        <polygon id="Fill-15" fill="#FFFFFF" mask="url(#mask-2)" points="81.053 19.2732 84.782 19.2732 84.782 0.8822 81.053 0.8822"></polygon>
                        <path d="M87.0488,13.5537 L87.0488,5.9207 L90.7778,5.9207 L90.7778,12.9997 C90.7778,15.0907 91.9098,16.2747 94.0508,16.2747 C96.1168,16.2747 97.5278,14.9137 97.5278,12.9997 L97.5278,5.9207 L101.2558,5.9207 L101.2558,19.2727 L97.6538,19.2727 L97.6538,18.0127 L97.6038,18.0127 C96.4958,19.0717 94.9588,19.6507 93.0938,19.6507 C89.2908,19.6507 87.0488,17.4077 87.0488,13.5537" id="Fill-17" fill="#FFFFFF" mask="url(#mask-2)"></path>
                        <path d="M114.1289,11.1602 C113.9529,9.5982 112.5679,8.5652 110.5779,8.5652 C108.5629,8.5652 107.1759,9.5982 106.9749,11.1602 L114.1289,11.1602 Z M103.2459,12.6222 C103.2459,8.5152 106.2699,5.5432 110.5019,5.5432 C114.9859,5.5432 117.7579,8.7172 117.7579,12.7222 L117.7579,13.7802 L106.9239,13.7802 C107.0509,15.5182 108.4609,16.6272 110.7029,16.6272 C112.3669,16.6272 113.5249,15.9722 114.8109,14.6372 L117.1269,16.9552 C115.5919,18.6422 113.6019,19.6502 110.7289,19.6502 C106.0429,19.6502 103.2459,16.8542 103.2459,12.6222 L103.2459,12.6222 Z" id="Fill-18" fill="#FFFFFF" mask="url(#mask-2)"></path>
                        <path d="M131.2617,12.5967 C131.2617,10.3547 129.6487,8.8177 127.2817,8.8177 C125.2147,8.8177 123.4767,10.1277 123.4767,11.7147 L123.4767,13.4027 C123.4767,15.0397 125.1637,16.3507 127.2817,16.3507 C129.6997,16.3507 131.2617,14.8647 131.2617,12.5967 M123.2497,17.9627 L123.1987,17.9627 L123.1987,19.2727 L119.7477,19.2727 L119.7477,0.8817 L123.4767,0.8817 L123.4767,6.9787 L123.5277,6.9787 C124.5607,6.0467 126.0977,5.5427 127.8597,5.5427 C131.9417,5.5427 134.9907,8.5657 134.9907,12.5967 C134.9907,16.7287 131.9917,19.6507 127.7597,19.6507 C125.8207,19.6507 124.2577,19.0717 123.2497,17.9627" id="Fill-19" fill="#FFFFFF" mask="url(#mask-2)"></path>
                        <path d="M136.955,19.2732 L140.684,19.2732 L140.684,5.9212 L136.955,5.9212 L136.955,19.2732 Z M136.879,3.7292 L140.734,3.7292 L140.734,0.0002 L136.879,0.0002 L136.879,3.7292 Z" id="Fill-20" fill="#FFFFFF" mask="url(#mask-2)"></path>
                        <path d="M143.2031,5.9209 L146.7051,5.9209 L146.7051,7.2049 L146.7541,7.2049 C147.7361,6.1969 149.0721,5.6689 150.6851,5.6689 C151.4161,5.6689 152.1211,5.7949 152.8771,6.0219 L152.0961,9.3719 C151.3651,9.1699 150.8871,9.0949 150.1561,9.0949 C148.1661,9.0949 146.9321,10.4049 146.9321,13.1759 L146.9321,19.2729 L143.2031,19.2729 L143.2031,5.9209 Z" id="Fill-21" fill="#FFFFFF" mask="url(#mask-2)"></path>
                        <path d="M164.5156,13.4024 L164.5156,11.7154 C164.5156,10.1284 162.7776,8.8174 160.7106,8.8174 C158.3436,8.8174 156.7306,10.3544 156.7306,12.5964 C156.7306,14.8644 158.2926,16.3504 160.7106,16.3504 C162.8286,16.3504 164.5156,15.0404 164.5156,13.4024 M153.0016,12.5964 C153.0016,8.5654 156.0506,5.5434 160.1326,5.5434 C161.8946,5.5434 163.4316,6.0474 164.4646,6.9784 L164.5156,6.9784 L164.5156,0.8814 L168.2446,0.8814 L168.2446,19.2724 L164.7926,19.2724 L164.7926,17.9634 L164.7426,17.9634 C163.7346,19.0714 162.1716,19.6504 160.2326,19.6504 C155.9996,19.6504 153.0016,16.7284 153.0016,12.5964" id="Fill-22" fill="#FFFFFF" mask="url(#mask-2)"></path>
                    </g>
                </g>
            </g>
        </g>
    </g>
</svg>