<?xml version="1.0" encoding="UTF-8"?>
<svg width="112px" height="26px" viewBox="0 0 112 26" version="1.1" xmlns="http://www.w3.org/2000/svg" xmlns:xlink="http://www.w3.org/1999/xlink">
    <!-- Generator: Sketch 62 (91390) - https://sketch.com -->
    <title>Group 20 Copy 8</title>
    <desc>Created with Sketch.</desc>
    <defs>
        <polygon id="path-1" points="0.0603 0.931 15.3013 0.931 15.3013 19.6995 0.0603 19.6995"></polygon>
    </defs>
    <g id="Page-1-Copy" stroke="none" stroke-width="1" fill="none" fill-rule="evenodd">
        <g id="Home-Page-Copy-9" transform="translate(-1027.000000, -1306.000000)">
            <g id="Rectangle-Copy-27" transform="translate(731.000000, 1260.000000) rotate(-90.000000) translate(-731.000000, -1260.000000) translate(185.000000, 503.000000)">
                <g id="Group-10" transform="translate(170.000000, 201.000000)">
                    <g id="Group-20-Copy-8" transform="translate(317.500000, 908.000000) rotate(90.000000) translate(-317.500000, -908.000000) translate(261.500000, 894.500000)">
                        <path d="M24,14.0693 C24,20.6963 18.627,26.0693 12,26.0693 C5.372,26.0693 0,20.6963 0,14.0693 C0,7.4423 5.372,2.0693 12,2.0693 C18.627,2.0693 24,7.4423 24,14.0693" id="Fill-1" fill="#FFFFFF"></path>
                        <path d="M18,18.5693 C18,19.3943 17.33,20.0693 16.5,20.0693 C15.675,20.0693 15,19.3943 15,18.5693 C15,17.7393 15.675,17.0693 16.5,17.0693 C17.33,17.0693 18,17.7393 18,18.5693" id="Fill-3" fill="#00AA13"></path>
                        <path d="M9,18.5693 C9,19.3943 8.325,20.0693 7.5,20.0693 C6.67,20.0693 6,19.3943 6,18.5693 C6,17.7393 6.67,17.0693 7.5,17.0693 C8.325,17.0693 9,17.7393 9,18.5693" id="Fill-5" fill="#00AA13"></path>
                        <path d="M18.4502,14.0722 L14.9872,14.0722 L14.9872,11.0562 L16.1252,11.0562 C16.9222,11.0562 17.6412,11.4272 18.0132,12.0262 L18.8922,13.4322 C19.0762,13.7172 18.8282,14.0722 18.4502,14.0722 M20.3442,13.6682 L18.9132,11.3232 C18.3352,10.3572 17.2252,9.7472 16.0372,9.7212 L14.8902,9.6922 L14.8902,9.3022 C14.8902,8.8352 14.4782,8.5102 13.9692,8.4012 C11.9982,7.9982 7.4242,7.9482 4.9282,8.3282 C4.3762,8.4162 3.9532,8.8202 3.8502,9.3182 C3.3852,11.9632 3.3852,14.6032 3.8402,17.2492 C3.9262,17.7212 4.3112,18.0872 4.8152,18.2102 L5.0752,18.2792 C5.2242,17.0352 6.2992,16.0692 7.6212,16.0692 C9.0222,16.0692 9.9812,17.1582 10.0062,18.5202 C10.7562,18.5402 11.6282,18.5692 12.1532,18.5692 C12.6132,18.5692 13.3662,18.5482 13.9942,18.5202 C14.0172,17.1562 14.9762,16.0692 16.3872,16.0692 C17.7052,16.0692 18.7872,17.0392 18.9332,18.2882 L19.2452,18.2392 C19.8402,18.1602 20.1782,17.6482 20.2472,17.0822 C20.3442,16.0922 20.5142,14.8012 20.4992,14.2152 C20.4992,14.0172 20.4452,13.8352 20.3442,13.6682" id="Fill-7" fill="#00AA13"></path>
                        <path d="M41.4102,13.5205 L41.4102,11.9585 C41.4102,10.4215 39.7232,9.0615 37.7832,9.0615 C35.3402,9.0615 33.7522,10.5475 33.7522,12.7145 C33.7522,15.0575 35.2382,16.4685 37.6332,16.4685 C39.7482,16.4685 41.4102,15.1585 41.4102,13.5205 M30.7792,22.2625 L33.4492,20.0455 C34.8362,21.6835 35.9692,22.2375 37.9332,22.2375 C40.0002,22.2375 41.5622,20.9025 41.5622,19.0875 L41.5622,18.1305 L41.5122,18.1305 C40.5802,19.1645 39.0432,19.7435 37.2032,19.7435 C33.0972,19.7435 30.0232,16.7705 30.0232,12.7145 C30.0232,8.8095 33.0212,5.7875 37.0782,5.7875 C38.9672,5.7875 40.5552,6.3405 41.5122,7.3485 L41.5622,7.3485 L41.5622,6.0395 L45.1392,6.0395 L45.1392,19.0385 C45.1392,22.8165 42.1662,25.4365 37.9332,25.4365 C34.8612,25.4365 32.3672,24.3285 30.7792,22.2625" id="Fill-9" fill="#FFFFFF"></path>
                        <path d="M58.3165,12.7148 C58.3165,10.5478 56.8305,8.9358 54.5115,8.9358 C52.1935,8.9358 50.7075,10.5478 50.7075,12.7148 C50.7075,14.8808 52.1935,16.4928 54.5115,16.4928 C56.8305,16.4928 58.3165,14.8808 58.3165,12.7148 M46.9785,12.7148 C46.9785,8.7348 50.1285,5.6608 54.5115,5.6608 C58.9205,5.6608 62.0455,8.7348 62.0455,12.7148 C62.0455,16.6948 58.9205,19.7688 54.5115,19.7688 C50.1285,19.7688 46.9785,16.6948 46.9785,12.7148" id="Fill-11" fill="#FFFFFF"></path>
                        <g id="Group-15" transform="translate(64.000000, 0.069300)">
                            <mask id="mask-2" fill="white">
                                <use xlink:href="#path-1"></use>
                            </mask>
                            <g id="Clip-14"></g>
                            <path d="M11.5723,12.6455 C11.5723,10.4035 9.9613,8.8665 7.5923,8.8665 C5.5273,8.8665 3.7893,10.1765 3.7893,11.7635 L3.7893,13.4515 C3.7893,15.0885 5.4763,16.3995 7.5923,16.3995 C10.0113,16.3995 11.5723,14.9135 11.5723,12.6455 M3.5623,18.0115 L3.5113,18.0115 L3.5113,19.3215 L0.0603,19.3215 L0.0603,0.9305 L3.7893,0.9305 L3.7893,7.0275 L3.8383,7.0275 C4.8713,6.0955 6.4083,5.5915 8.1723,5.5915 C12.2543,5.5915 15.3013,8.6145 15.3013,12.6455 C15.3013,16.7775 12.3023,19.6995 8.0703,19.6995 C6.1313,19.6995 4.5683,19.1205 3.5623,18.0115" id="Fill-13" fill="#FFFFFF" mask="url(#mask-2)"></path>
                        </g>
                        <path d="M92.0997,12.7148 C92.0997,10.5478 90.6137,8.9358 88.2947,8.9358 C85.9767,8.9358 84.4907,10.5478 84.4907,12.7148 C84.4907,14.8808 85.9767,16.4928 88.2947,16.4928 C90.6137,16.4928 92.0997,14.8808 92.0997,12.7148 M80.7617,12.7148 C80.7617,8.7348 83.9117,5.6608 88.2947,5.6608 C92.7037,5.6608 95.8287,8.7348 95.8287,12.7148 C95.8287,16.6948 92.7037,19.7688 88.2947,19.7688 C83.9117,19.7688 80.7617,16.6948 80.7617,12.7148" id="Fill-16" fill="#FFFFFF"></path>
                        <polygon id="Fill-18" fill="#FFFFFF" points="101.0176 12.6386 95.3496 6.0386 100.0356 6.0386 103.4126 10.3466 103.4606 10.3466 106.8886 6.0386 111.5746 6.0386 105.9066 12.6386 111.7246 19.3906 107.0386 19.3906 103.4606 14.9066 103.4126 14.9066 99.8846 19.3906 95.1996 19.3906"></polygon>
                    </g>
                </g>
            </g>
        </g>
    </g>
</svg>