<?xml version="1.0" encoding="UTF-8"?>
<svg width="104px" height="24px" viewBox="0 0 104 24" version="1.1" xmlns="http://www.w3.org/2000/svg" xmlns:xlink="http://www.w3.org/1999/xlink">
    <!-- Generator: Sketch 62 (91390) - https://sketch.com -->
    <title>Group 20 Copy 6</title>
    <desc>Created with Sketch.</desc>
    <defs>
        <polygon id="path-1" points="0 0 23.9998 0 23.9998 24 0 24"></polygon>
    </defs>
    <g id="Page-1-Copy" stroke="none" stroke-width="1" fill="none" fill-rule="evenodd">
        <g id="Home-Page-Copy-9" transform="translate(-500.000000, -1305.000000)">
            <g id="Rectangle-Copy-27" transform="translate(731.000000, 1260.000000) rotate(-90.000000) translate(-731.000000, -1260.000000) translate(185.000000, 503.000000)">
                <g id="Group-10" transform="translate(170.000000, 201.000000)">
                    <g id="Group-20-Copy-6" transform="translate(319.000000, 377.000000) rotate(90.000000) translate(-319.000000, -377.000000) translate(267.000000, 365.000000)">
                        <g id="Group-3">
                            <mask id="mask-2" fill="white">
                                <use xlink:href="#path-1"></use>
                            </mask>
                            <g id="Clip-2"></g>
                            <path d="M11.9998,0 C18.6278,0 23.9998,5.373 23.9998,12 C23.9998,18.627 18.6278,24 11.9998,24 C5.3728,24 -0.0002,18.627 -0.0002,12 C-0.0002,5.373 5.3728,0 11.9998,0" id="Fill-1" fill="#FFFFFF" mask="url(#mask-2)"></path>
                        </g>
                        <path d="M16.7517,14 C15.7847,14 15.0017,14.783 15.0017,15.75 C15.0017,16.717 15.7847,17.5 16.7517,17.5 C17.7177,17.5 18.5017,16.717 18.5017,15.75 C18.5017,14.783 17.7177,14 16.7517,14" id="Fill-4" fill="#00AA13"></path>
                        <path d="M7.2517,14 C6.2847,14 5.5017,14.783 5.5017,15.75 C5.5017,16.717 6.2847,17.5 7.2517,17.5 C8.2177,17.5 9.0017,16.717 9.0017,15.75 C9.0017,14.783 8.2177,14 7.2517,14" id="Fill-6" fill="#00AA13"></path>
                        <path d="M11.4998,10 L11.4998,7.5 L12.9428,7.499 C13.2668,7.499 13.5868,7.603 13.8308,7.813 C13.9528,7.92 14.0628,8.042 14.1508,8.181 L14.7858,9.193 L15.2498,10 L11.4998,10 Z M7.0258,8.494 L7.1668,8.221 C7.1688,8.218 7.1698,8.215 7.1718,8.211 C7.4208,7.753 7.9318,7.499 8.4538,7.499 L9.9998,7.5 L9.9998,10 L6.2498,10 L7.0258,8.494 Z M21.4878,12.487 C21.4258,11.663 20.8198,10.971 19.9888,10.774 C19.0608,10.595 18.1228,10.461 17.1798,10.375 L15.4868,7.704 C14.9098,6.784 13.9168,6.183 12.8088,6.083 C11.4138,5.973 10.0118,5.973 8.6158,6.083 C7.4378,6.175 6.3908,6.842 5.8378,7.851 L4.4118,10.425 C4.1068,10.471 3.8048,10.531 3.5058,10.607 C3.0668,10.732 2.7338,11.078 2.6358,11.51 C2.5108,12.239 2.4718,12.98 2.5208,13.719 C2.5748,14.629 3.0208,15.173 4.2448,15.457 C4.3418,15.479 4.4298,15.502 4.5138,15.523 C4.6308,14.114 5.8108,13.007 7.2518,13.007 C8.7708,13.007 10.0018,14.237 10.0018,15.755 C10.0018,15.831 10.0018,15.923 9.9958,15.998 C10.5878,16.005 11.2458,15.991 11.9998,15.991 C12.7358,15.991 13.4018,16.002 14.0128,15.994 C14.0048,15.911 13.9998,15.827 13.9998,15.741 C13.9998,14.225 15.2308,12.994 16.7498,12.994 C18.2058,12.994 19.3938,14.125 19.4898,15.555 L19.7388,15.504 C20.5708,15.359 21.3998,14.771 21.4718,14.033 C21.4928,13.684 21.5148,12.751 21.4878,12.487 L21.4878,12.487 Z" id="Fill-8" fill="#00AA13"></path>
                        <path d="M41.2712,11.4512 L41.2712,9.8892 C41.2712,8.3522 39.5842,6.9922 37.6442,6.9922 C35.2002,6.9922 33.6132,8.4782 33.6132,10.6452 C33.6132,12.9882 35.0992,14.3992 37.4932,14.3992 C39.6092,14.3992 41.2712,13.0892 41.2712,11.4512 M30.6402,20.1932 L33.3102,17.9762 C34.6962,19.6142 35.8302,20.1682 37.7942,20.1682 C39.8612,20.1682 41.4222,18.8332 41.4222,17.0182 L41.4222,16.0612 L41.3722,16.0612 C40.4402,17.0952 38.9032,17.6742 37.0642,17.6742 C32.9582,17.6742 29.8842,14.7012 29.8842,10.6452 C29.8842,6.7402 32.8822,3.7182 36.9382,3.7182 C38.8282,3.7182 40.4152,4.2712 41.3722,5.2792 L41.4222,5.2792 L41.4222,3.9702 L45.0002,3.9702 L45.0002,16.9692 C45.0002,20.7472 42.0272,23.3672 37.7942,23.3672 C34.7212,23.3672 32.2272,22.2592 30.6402,20.1932" id="Fill-10" fill="#FFFFFF"></path>
                        <path d="M58.1765,10.6455 C58.1765,8.4785 56.6905,6.8665 54.3715,6.8665 C52.0545,6.8665 50.5685,8.4785 50.5685,10.6455 C50.5685,12.8115 52.0545,14.4235 54.3715,14.4235 C56.6905,14.4235 58.1765,12.8115 58.1765,10.6455 M46.8395,10.6455 C46.8395,6.6655 49.9885,3.5915 54.3715,3.5915 C58.7805,3.5915 61.9055,6.6655 61.9055,10.6455 C61.9055,14.6255 58.7805,17.6995 54.3715,17.6995 C49.9885,17.6995 46.8395,14.6255 46.8395,10.6455" id="Fill-12" fill="#FFFFFF"></path>
                        <path d="M63.3914,10.6455 C63.3914,6.6145 66.5904,3.5915 70.7734,3.5915 C74.1734,3.5915 76.8444,5.4565 77.6244,8.2775 L74.1484,9.2855 C73.6694,7.8245 72.5114,6.8665 70.7734,6.8665 C68.6314,6.8665 67.1204,8.4035 67.1204,10.6455 C67.1204,12.8875 68.6314,14.4235 70.7734,14.4235 C72.5114,14.4235 73.6204,13.5675 74.1484,12.0055 L77.6244,13.0135 C76.8444,15.8345 74.1734,17.6995 70.7734,17.6995 C66.5904,17.6995 63.3914,14.6755 63.3914,10.6455" id="Fill-14" fill="#FFFFFF"></path>
                        <path d="M88.0037,12.3584 L88.0037,10.7714 L87.9537,10.7714 C87.6257,11.2504 86.9207,11.5274 85.1077,11.8544 C82.9147,12.2574 82.1347,12.6854 82.1347,13.4664 C82.1347,14.2734 82.7887,14.6264 84.1997,14.6264 C86.3667,14.6264 88.0037,13.6434 88.0037,12.3584 M78.6577,13.7184 C78.6577,11.2504 80.2707,9.9404 84.5267,9.3604 C87.0217,9.0074 87.7017,8.6554 87.7017,8.0004 C87.7017,7.1184 86.7697,6.5894 85.3337,6.5894 C83.6207,6.5894 82.3357,7.5214 82.0087,8.9824 L78.4817,8.2524 C79.0107,5.4804 81.7567,3.5914 85.2327,3.5914 C89.1377,3.5914 91.5567,5.5824 91.5567,8.8314 L91.5567,17.3214 L88.2057,17.3214 L88.2057,15.8604 L88.1547,15.8604 C87.3497,16.9944 85.6357,17.6994 83.6457,17.6994 C80.6727,17.6994 78.6577,16.0874 78.6577,13.7184" id="Fill-16" fill="#FFFFFF"></path>
                        <path d="M93.95,3.9697 L97.452,3.9697 L97.452,5.2537 L97.502,5.2537 C98.484,4.2457 99.82,3.7177 101.432,3.7177 C102.163,3.7177 102.868,3.8437 103.624,4.0707 L102.843,7.4207 C102.112,7.2187 101.634,7.1437 100.903,7.1437 C98.913,7.1437 97.679,8.4537 97.679,11.2247 L97.679,17.3217 L93.95,17.3217 L93.95,3.9697 Z" id="Fill-18" fill="#FFFFFF"></path>
                    </g>
                </g>
            </g>
        </g>
    </g>
</svg>