<?xml version="1.0" encoding="UTF-8"?>
<svg width="113px" height="26px" viewBox="0 0 113 26" version="1.1" xmlns="http://www.w3.org/2000/svg" xmlns:xlink="http://www.w3.org/1999/xlink">
    <!-- Generator: Sketch 62 (91390) - https://sketch.com -->
    <title>Group 20 Copy 7</title>
    <desc>Created with Sketch.</desc>
    <defs>
        <polygon id="path-1" points="0 0 23.9998 0 23.9998 24 0 24"></polygon>
        <polygon id="path-3" points="0 25.9541 112.554 25.9541 112.554 0.0001 0 0.0001"></polygon>
    </defs>
    <g id="Page-1-Copy" stroke="none" stroke-width="1" fill="none" fill-rule="evenodd">
        <g id="Home-Page-Copy-9" transform="translate(-252.000000, -1305.000000)">
            <g id="Rectangle-Copy-27" transform="translate(731.000000, 1260.000000) rotate(-90.000000) translate(-731.000000, -1260.000000) translate(185.000000, 503.000000)">
                <g id="Group-10" transform="translate(170.000000, 201.000000)">
                    <g id="Group-20-Copy-7" transform="translate(318.000000, 133.500000) rotate(90.000000) translate(-318.000000, -133.500000) translate(261.500000, 120.500000)">
                        <g id="Group-3" transform="translate(0.000000, 1.954100)">
                            <mask id="mask-2" fill="white">
                                <use xlink:href="#path-1"></use>
                            </mask>
                            <g id="Clip-2"></g>
                            <path d="M23.9998,12 C23.9998,18.627 18.6278,24 11.9998,24 C5.3728,24 -0.0002,18.627 -0.0002,12 C-0.0002,5.372 5.3728,0 11.9998,0 C18.6278,0 23.9998,5.372 23.9998,12 Z" id="Fill-1" fill="#FFFFFF" mask="url(#mask-2)"></path>
                        </g>
                        <path d="M6.4998,20.4541 C5.1198,20.4541 3.9998,19.3341 3.9998,17.9541 C3.9998,16.5741 5.1198,15.4541 6.4998,15.4541 C7.8798,15.4541 8.9998,16.5741 8.9998,17.9541 C8.9998,19.3341 7.8798,20.4541 6.4998,20.4541 Z" id="Fill-4" fill="#00AA13"></path>
                        <path d="M17.9998,20.5977 C16.6748,20.5977 15.5898,19.5677 15.5098,18.2627 C15.4998,18.2077 15.4998,18.1527 15.4998,18.0977 C15.4998,16.7177 16.6198,15.5977 17.9998,15.5977 C18.0348,15.5977 18.0698,15.5977 18.1048,15.6027 C19.4358,15.6577 20.4998,16.7527 20.4998,18.0977 C20.4998,19.4777 19.3798,20.5977 17.9998,20.5977 Z" id="Fill-6" fill="#00AA13"></path>
                        <path d="M18.7527,14.2305 C18.6477,14.2915 18.5367,14.3315 18.4107,14.3455 L18.4057,14.3455 C18.3467,14.3505 18.2857,14.3505 18.2207,14.3455 C18.1907,14.3405 18.1607,14.3405 18.1307,14.3355 C18.0207,14.3215 17.9207,14.3155 17.8157,14.3105 L17.7947,14.3105 C17.5547,14.3105 17.3237,14.3315 17.0677,14.3965 C16.4727,14.5265 15.9407,14.8325 15.5247,15.2575 C15.5207,15.2625 15.5147,15.2675 15.5097,15.2775 C15.4647,15.3175 15.4197,15.3625 15.3847,15.4085 C14.7777,16.0295 14.4167,16.8755 14.4167,17.8125 C14.4167,18.1725 14.4727,18.5235 14.5727,18.8535 C14.0167,18.9185 13.3957,18.9545 12.7077,18.9545 C11.6907,18.9545 10.7187,18.8585 9.8867,18.7635 C9.9717,18.4625 10.0177,18.1425 10.0177,17.8125 C10.0177,17.7475 10.0177,17.6865 10.0077,17.6225 C10.0127,17.6165 10.0127,17.6165 10.0077,17.6115 C10.0077,17.2515 9.9467,16.8805 9.8017,16.5005 C9.4957,15.6325 8.7787,14.9175 7.8767,14.5815 C7.8317,14.5565 7.7867,14.5415 7.7367,14.5315 C7.7117,14.5165 7.6817,14.5055 7.6507,14.5015 C7.6067,14.4915 7.5657,14.4765 7.5257,14.4655 C7.4957,14.4605 7.4657,14.4565 7.4367,14.4465 C7.1407,14.3615 6.8347,14.3055 6.5087,14.3055 C5.8677,14.3055 5.2697,14.4755 4.7527,14.7755 C4.5127,14.9155 4.2127,14.8915 3.9967,14.7155 C3.7227,14.4915 3.6687,14.0925 3.8767,13.8045 C4.1117,13.4765 4.3917,13.0865 4.4887,12.9435 L4.4397,12.8935 C3.8877,12.4425 4.0377,11.5905 4.6897,11.3405 C5.9927,10.8395 9.3307,10.3375 12.3077,11.0405 C12.6077,11.1405 12.8577,11.3905 12.8577,11.7415 C12.8577,11.9925 12.8577,12.2925 12.8087,12.6425 C12.7587,12.9935 12.6077,13.2935 12.3567,13.5445 C12.1067,13.7455 11.7557,13.8955 11.4047,13.8955 C11.4047,13.8955 11.0047,14.7965 11.4547,15.6485 C12.0067,16.7005 14.0117,16.8005 14.6117,15.0465 C15.1137,13.5945 15.3147,12.1415 14.1107,8.2355 C14.1107,8.2355 13.4597,8.3855 12.8087,8.1345 C12.5587,8.0845 12.4577,7.8845 12.4577,7.6845 C12.4577,7.5845 12.4577,7.5345 12.5077,7.4335 C12.6577,7.2335 12.8577,7.1325 13.0597,7.1835 C13.3097,7.2335 13.6597,7.2835 13.8607,7.2335 L13.7107,6.8335 C13.5107,6.3325 13.9607,5.8315 14.5127,5.9815 C15.1637,6.1315 15.9657,6.4825 16.2667,7.3835 C16.7177,8.7865 15.8647,8.4855 15.5647,8.3855 C15.9657,8.5855 18.1707,9.6875 19.2237,13.1435 C19.3287,13.5995 19.1127,14.0305 18.7527,14.2305" id="Fill-8" fill="#00AA13"></path>
                        <path d="M41.4099,13.4024 L41.4099,11.8404 C41.4099,10.3034 39.7229,8.9434 37.7829,8.9434 C35.3399,8.9434 33.7519,10.4294 33.7519,12.5964 C33.7519,14.9394 35.2379,16.3504 37.6329,16.3504 C39.7479,16.3504 41.4099,15.0404 41.4099,13.4024 M30.7789,22.1444 L33.4489,19.9274 C34.8359,21.5654 35.9689,22.1194 37.9329,22.1194 C39.9999,22.1194 41.5619,20.7844 41.5619,18.9694 L41.5619,18.0124 L41.5119,18.0124 C40.5799,19.0464 39.0429,19.6254 37.2029,19.6254 C33.0969,19.6254 30.0229,16.6524 30.0229,12.5964 C30.0229,8.6914 33.0209,5.6694 37.0779,5.6694 C38.9669,5.6694 40.5549,6.2224 41.5119,7.2304 L41.5619,7.2304 L41.5619,5.9214 L45.1389,5.9214 L45.1389,18.9204 C45.1389,22.6984 42.1659,25.3184 37.9329,25.3184 C34.8609,25.3184 32.3669,24.2104 30.7789,22.1444" id="Fill-10" fill="#FFFFFF"></path>
                        <path d="M58.3162,12.5967 C58.3162,10.4297 56.8302,8.8177 54.5112,8.8177 C52.1932,8.8177 50.7072,10.4297 50.7072,12.5967 C50.7072,14.7627 52.1932,16.3747 54.5112,16.3747 C56.8302,16.3747 58.3162,14.7627 58.3162,12.5967 M46.9782,12.5967 C46.9782,8.6167 50.1282,5.5427 54.5112,5.5427 C58.9202,5.5427 62.0452,8.6167 62.0452,12.5967 C62.0452,16.5767 58.9202,19.6507 54.5112,19.6507 C50.1282,19.6507 46.9782,16.5767 46.9782,12.5967" id="Fill-12" fill="#FFFFFF"></path>
                        <path d="M64.0603,5.9209 L67.5623,5.9209 L67.5623,7.2049 L67.6113,7.2049 C68.5933,6.1969 69.9293,5.6689 71.5423,5.6689 C72.2733,5.6689 72.9783,5.7949 73.7343,6.0219 L72.9533,9.3719 C72.2223,9.1699 71.7443,9.0949 71.0133,9.0949 C69.0233,9.0949 67.7893,10.4049 67.7893,13.1759 L67.7893,19.2729 L64.0603,19.2729 L64.0603,5.9209 Z" id="Fill-14" fill="#FFFFFF"></path>
                        <mask id="mask-4" fill="white">
                            <use xlink:href="#path-3"></use>
                        </mask>
                        <g id="Clip-17"></g>
                        <path d="M75.094,19.2731 L78.823,19.2731 L78.823,5.9211 L75.094,5.9211 L75.094,19.2731 Z M75.019,3.7291 L78.873,3.7291 L78.873,0.0001 L75.019,0.0001 L75.019,3.7291 Z" id="Fill-16" fill="#FFFFFF" mask="url(#mask-4)"></path>
                        <path d="M92.3259,13.4024 L92.3259,11.7154 C92.3259,10.1284 90.5879,8.8174 88.5209,8.8174 C86.1539,8.8174 84.5409,10.3544 84.5409,12.5964 C84.5409,14.8644 86.1029,16.3504 88.5209,16.3504 C90.6389,16.3504 92.3259,15.0404 92.3259,13.4024 M80.8119,12.5964 C80.8119,8.5654 83.8609,5.5434 87.9429,5.5434 C89.7049,5.5434 91.2419,6.0474 92.2749,6.9784 L92.3259,6.9784 L92.3259,0.8814 L96.0549,0.8814 L96.0549,19.2724 L92.6029,19.2724 L92.6029,17.9634 L92.5529,17.9634 C91.5449,19.0714 89.9819,19.6504 88.0429,19.6504 C83.8099,19.6504 80.8119,16.7284 80.8119,12.5964" id="Fill-18" fill="#FFFFFF" mask="url(#mask-4)"></path>
                        <path d="M108.9275,11.1602 C108.7515,9.5982 107.3655,8.5652 105.3745,8.5652 C103.3595,8.5652 101.9745,9.5982 101.7735,11.1602 L108.9275,11.1602 Z M98.0445,12.6222 C98.0445,8.5152 101.0685,5.5432 105.3005,5.5432 C109.7825,5.5432 112.5545,8.7172 112.5545,12.7222 L112.5545,13.7802 L101.7225,13.7802 C101.8475,15.5182 103.2595,16.6272 105.5015,16.6272 C107.1635,16.6272 108.3225,15.9722 109.6075,14.6372 L111.9255,16.9552 C110.3885,18.6422 108.3985,19.6502 105.5275,19.6502 C100.8415,19.6502 98.0445,16.8542 98.0445,12.6222 L98.0445,12.6222 Z" id="Fill-19" fill="#FFFFFF" mask="url(#mask-4)"></path>
                    </g>
                </g>
            </g>
        </g>
    </g>
</svg>