<?xml version="1.0" encoding="UTF-8"?>
<svg width="127px" height="26px" viewBox="0 0 127 26" version="1.1" xmlns="http://www.w3.org/2000/svg" xmlns:xlink="http://www.w3.org/1999/xlink">
    <!-- Generator: Sketch 62 (91390) - https://sketch.com -->
    <title>Group 18 Copy 2</title>
    <desc>Created with Sketch.</desc>
    <defs>
        <polygon id="path-1" points="0.322 0.928 15.563 0.928 15.563 19.6962 0.322 19.6962"></polygon>
    </defs>
    <g id="Page-1-Copy" stroke="none" stroke-width="1" fill="none" fill-rule="evenodd">
        <g id="Home-Page-Copy-9" transform="translate(-756.000000, -1306.000000)">
            <g id="Rectangle-Copy-27" transform="translate(731.000000, 1260.000000) rotate(-90.000000) translate(-731.000000, -1260.000000) translate(185.000000, 503.000000)">
                <g id="Group-10" transform="translate(170.000000, 201.000000)">
                    <g id="Group-18-Copy-2" transform="translate(317.500000, 644.500000) rotate(90.000000) translate(-317.500000, -644.500000) translate(254.000000, 631.000000)">
                        <path d="M24,14.0723 C24,20.6993 18.627,26.0723 12,26.0723 C5.372,26.0723 0,20.6993 0,14.0723 C0,7.4453 5.372,2.0723 12,2.0723 C18.627,2.0723 24,7.4453 24,14.0723" id="Fill-1" fill="#FFFFFF"></path>
                        <path d="M18.4151,11.2354 C18.3831,10.7634 18.1281,10.3374 17.7421,10.0594 C17.3641,9.7894 16.9761,9.5254 16.5781,9.2704 C14.9981,9.9944 12.9791,11.0284 11.3511,11.8824 C10.7891,12.1774 10.4291,12.7494 10.4141,13.3794 C10.3941,14.1994 10.3821,15.0194 10.3811,15.8394 L9.1481,13.8074 L7.9151,14.6124 C7.9231,13.8344 7.9461,13.0554 7.9871,12.2774 C8.0191,11.6624 8.3721,11.1074 8.9201,10.8194 C10.6341,9.9184 12.7411,8.8054 14.3771,8.0064 C13.8261,7.7194 13.2691,7.4454 12.7001,7.1984 C12.3051,7.0264 11.8541,7.0344 11.4551,7.1974 C9.5951,7.9594 7.9871,8.8344 6.3461,9.9344 C5.9581,10.1944 5.7061,10.6164 5.6621,11.0784 C5.4921,12.8634 5.4561,14.6494 5.5541,16.4384 C5.5771,16.8724 5.7851,17.2794 6.1221,17.5574 C7.7601,18.9054 9.4221,20.0874 11.1821,20.9184 C11.6331,21.1304 12.1551,21.1234 12.6021,20.9024 C14.4851,19.9684 16.0601,18.9374 17.7421,17.7114 C18.1101,17.4424 18.3481,17.0264 18.3841,16.5744 C18.5271,14.7974 18.5381,13.0164 18.4151,11.2354" id="Fill-3" fill="#00AA13"></path>
                        <path d="M41.4102,13.5205 L41.4102,11.9585 C41.4102,10.4215 39.7232,9.0615 37.7832,9.0615 C35.3402,9.0615 33.7522,10.5475 33.7522,12.7145 C33.7522,15.0575 35.2382,16.4685 37.6332,16.4685 C39.7482,16.4685 41.4102,15.1585 41.4102,13.5205 M30.7792,22.2625 L33.4492,20.0455 C34.8362,21.6835 35.9692,22.2375 37.9332,22.2375 C40.0002,22.2375 41.5622,20.9025 41.5622,19.0875 L41.5622,18.1305 L41.5122,18.1305 C40.5802,19.1645 39.0432,19.7435 37.2032,19.7435 C33.0972,19.7435 30.0232,16.7705 30.0232,12.7145 C30.0232,8.8095 33.0212,5.7875 37.0782,5.7875 C38.9672,5.7875 40.5552,6.3405 41.5122,7.3485 L41.5622,7.3485 L41.5622,6.0395 L45.1392,6.0395 L45.1392,19.0385 C45.1392,22.8165 42.1662,25.4365 37.9332,25.4365 C34.8612,25.4365 32.3672,24.3285 30.7792,22.2625" id="Fill-5" fill="#FFFFFF"></path>
                        <path d="M58.3165,12.7149 C58.3165,10.5479 56.8305,8.9359 54.5115,8.9359 C52.1935,8.9359 50.7075,10.5479 50.7075,12.7149 C50.7075,14.8809 52.1935,16.4929 54.5115,16.4929 C56.8305,16.4929 58.3165,14.8809 58.3165,12.7149 M46.9785,12.7149 C46.9785,8.7349 50.1285,5.6609 54.5115,5.6609 C58.9205,5.6609 62.0455,8.7349 62.0455,12.7149 C62.0455,16.6949 58.9205,19.7689 54.5115,19.7689 C50.1285,19.7689 46.9785,16.6949 46.9785,12.7149" id="Fill-7" fill="#FFFFFF"></path>
                        <path d="M63.0274,15.0577 L66.5294,14.2267 C67.0584,15.9397 68.3924,16.7957 70.5584,16.7957 C72.5004,16.7957 73.6074,16.3677 73.6074,15.6367 C73.6074,14.8567 72.7524,14.5027 70.3064,14.1247 C65.4454,13.3707 63.6814,12.1607 63.6814,9.7917 C63.6814,7.3237 66.1254,5.6617 69.8284,5.6617 C73.2054,5.6617 76.2034,7.3487 76.9334,9.6917 L73.5314,10.7247 C73.0274,9.4397 71.5914,8.6337 69.8024,8.6337 C68.2424,8.6337 67.2594,9.0867 67.2594,9.7917 C67.2594,10.4727 67.9904,10.7747 70.9124,11.2537 C75.3714,11.9587 77.2114,13.1677 77.2114,15.6117 C77.2114,18.1057 74.5644,19.7687 70.5354,19.7687 C66.6034,19.7687 63.6814,17.9547 63.0274,15.0577" id="Fill-9" fill="#FFFFFF"></path>
                        <path d="M89.3028,11.2784 C89.1268,9.7164 87.7408,8.6834 85.7498,8.6834 C83.7348,8.6834 82.3498,9.7164 82.1488,11.2784 L89.3028,11.2784 Z M78.4198,12.7404 C78.4198,8.6334 81.4438,5.6614 85.6758,5.6614 C90.1578,5.6614 92.9298,8.8354 92.9298,12.8404 L92.9298,13.8984 L82.0978,13.8984 C82.2228,15.6364 83.6348,16.7454 85.8768,16.7454 C87.5388,16.7454 88.6978,16.0904 89.9828,14.7554 L92.3008,17.0734 C90.7638,18.7604 88.7738,19.7684 85.9028,19.7684 C81.2168,19.7684 78.4198,16.9724 78.4198,12.7404 L78.4198,12.7404 Z" id="Fill-11" fill="#FFFFFF"></path>
                        <path d="M94.9219,6.0391 L98.5239,6.0391 L98.5239,7.2991 L98.5739,7.2991 C99.6819,6.2401 101.3199,5.6611 103.0839,5.6611 C106.9119,5.6611 109.4829,8.1551 109.4829,11.7821 L109.4829,19.3911 L105.7539,19.3911 L105.7539,12.2611 C105.7539,10.2211 104.4429,8.9861 102.2769,8.9861 C100.1109,8.9861 98.6509,10.3211 98.6509,12.2611 L98.6509,19.3911 L94.9219,19.3911 L94.9219,6.0391 Z" id="Fill-13" fill="#FFFFFF"></path>
                        <g id="Group-17" transform="translate(111.000000, 0.072300)">
                            <mask id="mask-2" fill="white">
                                <use xlink:href="#path-1"></use>
                            </mask>
                            <g id="Clip-16"></g>
                            <path d="M11.834,13.4482 L11.834,11.7612 C11.834,10.1742 10.096,8.8632 8.031,8.8632 C5.662,8.8632 4.051,10.4002 4.051,12.6422 C4.051,14.9102 5.611,16.3962 8.031,16.3962 C10.147,16.3962 11.834,15.0862 11.834,13.4482 M0.322,12.6422 C0.322,8.6112 3.371,5.5892 7.451,5.5892 C9.215,5.5892 10.752,6.0932 11.785,7.0242 L11.834,7.0242 L11.834,0.9272 L15.563,0.9272 L15.563,19.3182 L12.111,19.3182 L12.111,18.0092 L12.061,18.0092 C11.055,19.1172 9.492,19.6962 7.553,19.6962 C3.32,19.6962 0.322,16.7742 0.322,12.6422" id="Fill-15" fill="#FFFFFF" mask="url(#mask-2)"></path>
                        </g>
                    </g>
                </g>
            </g>
        </g>
    </g>
</svg>