<?xml version="1.0" encoding="UTF-8"?>
<svg width="149px" height="26px" viewBox="0 0 149 26" version="1.1" xmlns="http://www.w3.org/2000/svg" xmlns:xlink="http://www.w3.org/1999/xlink">
    <!-- Generator: Sketch 62 (91390) - https://sketch.com -->
    <title>Group 25</title>
    <desc>Created with Sketch.</desc>
    <defs>
        <polygon id="path-1" points="0 25.9507 148.769 25.9507 148.769 -0.0003 0 -0.0003"></polygon>
    </defs>
    <g id="Page-1-Copy" stroke="none" stroke-width="1" fill="none" fill-rule="evenodd">
        <g id="Home-Page-Copy-9" transform="translate(-500.000000, -1445.000000)">
            <g id="Rectangle-Copy-27" transform="translate(731.000000, 1260.000000) rotate(-90.000000) translate(-731.000000, -1260.000000) translate(185.000000, 503.000000)">
                <g id="Group-10" transform="translate(170.000000, 201.000000)">
                    <g id="Group-25" transform="translate(178.000000, 399.500000) rotate(-270.000000) translate(-178.000000, -399.500000) translate(103.500000, 386.500000)">
                        <path d="M41.1952,13.4024 L41.1952,11.8404 C41.1952,10.3034 39.5082,8.9434 37.5682,8.9434 C35.1242,8.9434 33.5372,10.4294 33.5372,12.5964 C33.5372,14.9394 35.0232,16.3504 37.4172,16.3504 C39.5332,16.3504 41.1952,15.0404 41.1952,13.4024 M30.5642,22.1444 L33.2342,19.9274 C34.6202,21.5654 35.7542,22.1194 37.7182,22.1194 C39.7852,22.1194 41.3462,20.7844 41.3462,18.9694 L41.3462,18.0124 L41.2962,18.0124 C40.3642,19.0464 38.8272,19.6254 36.9882,19.6254 C32.8822,19.6254 29.8082,16.6524 29.8082,12.5964 C29.8082,8.6914 32.8062,5.6694 36.8622,5.6694 C38.7522,5.6694 40.3392,6.2224 41.2962,7.2304 L41.3462,7.2304 L41.3462,5.9214 L44.9242,5.9214 L44.9242,18.9204 C44.9242,22.6984 41.9512,25.3184 37.7182,25.3184 C34.6452,25.3184 32.1512,24.2104 30.5642,22.1444" id="Fill-1" fill="#FFFFFF"></path>
                        <path d="M58.1005,12.5967 C58.1005,10.4297 56.6145,8.8177 54.2955,8.8177 C51.9785,8.8177 50.4925,10.4297 50.4925,12.5967 C50.4925,14.7627 51.9785,16.3747 54.2955,16.3747 C56.6145,16.3747 58.1005,14.7627 58.1005,12.5967 M46.7635,12.5967 C46.7635,8.6167 49.9125,5.5427 54.2955,5.5427 C58.7045,5.5427 61.8295,8.6167 61.8295,12.5967 C61.8295,16.5767 58.7045,19.6507 54.2955,19.6507 C49.9125,19.6507 46.7635,16.5767 46.7635,12.5967" id="Fill-3" fill="#FFFFFF"></path>
                        <path d="M69.0849,9.0948 L69.0849,14.7388 C69.0849,15.5698 69.3609,15.8218 70.4449,15.8218 L72.8889,15.8218 L72.8889,19.2728 L70.0669,19.2728 C66.6659,19.2728 65.3559,17.9118 65.3559,14.9648 L65.3559,9.0948 L62.2069,9.0948 L62.2069,5.9208 L65.3559,5.9208 L65.3559,2.5708 L69.0849,2.5708 L69.0849,5.9208 L73.3929,5.9208 L73.3929,9.0948 L69.0849,9.0948 Z" id="Fill-5" fill="#FFFFFF"></path>
                        <path d="M75.1562,5.9209 L78.6582,5.9209 L78.6582,7.2049 L78.7082,7.2049 C79.6902,6.1969 81.0262,5.6689 82.6382,5.6689 C83.3692,5.6689 84.0742,5.7949 84.8302,6.0219 L84.0492,9.3719 C83.3182,9.1699 82.8402,9.0949 82.1092,9.0949 C80.1192,9.0949 78.8852,10.4049 78.8852,13.1759 L78.8852,19.2729 L75.1562,19.2729 L75.1562,5.9209 Z" id="Fill-7" fill="#FFFFFF"></path>
                        <path d="M94.4784,14.3096 L94.4784,12.7226 L94.4284,12.7226 C94.1004,13.2016 93.3954,13.4786 91.5824,13.8056 C89.3894,14.2086 88.6094,14.6366 88.6094,15.4176 C88.6094,16.2246 89.2634,16.5776 90.6744,16.5776 C92.8414,16.5776 94.4784,15.5946 94.4784,14.3096 M85.1324,15.6696 C85.1324,13.2016 86.7454,11.8916 91.0014,11.3116 C93.4964,10.9586 94.1764,10.6066 94.1764,9.9516 C94.1764,9.0696 93.2444,8.5406 91.8084,8.5406 C90.0954,8.5406 88.8104,9.4726 88.4834,10.9336 L84.9564,10.2036 C85.4854,7.4316 88.2314,5.5426 91.7074,5.5426 C95.6124,5.5426 98.0314,7.5336 98.0314,10.7826 L98.0314,19.2726 L94.6804,19.2726 L94.6804,17.8116 L94.6294,17.8116 C93.8244,18.9456 92.1104,19.6506 90.1204,19.6506 C87.1474,19.6506 85.1324,18.0386 85.1324,15.6696" id="Fill-9" fill="#FFFFFF"></path>
                        <path d="M100.4247,5.9209 L104.0277,5.9209 L104.0277,7.1809 L104.0767,7.1809 C105.1857,6.1219 106.8227,5.5429 108.5867,5.5429 C112.4157,5.5429 114.9857,8.0369 114.9857,11.6639 L114.9857,19.2729 L111.2577,19.2729 L111.2577,12.1429 C111.2577,10.1029 109.9467,8.8679 107.7807,8.8679 C105.6137,8.8679 104.1537,10.2029 104.1537,12.1429 L104.1537,19.2729 L100.4247,19.2729 L100.4247,5.9209 Z" id="Fill-11" fill="#FFFFFF"></path>
                        <path d="M116.5732,14.9395 L120.0752,14.1085 C120.6042,15.8215 121.9392,16.6775 124.1052,16.6775 C126.0462,16.6775 127.1542,16.2495 127.1542,15.5185 C127.1542,14.7385 126.2982,14.3845 123.8532,14.0065 C118.9922,13.2525 117.2282,12.0425 117.2282,9.6735 C117.2282,7.2055 119.6722,5.5435 123.3752,5.5435 C126.7512,5.5435 129.7492,7.2305 130.4792,9.5735 L127.0782,10.6065 C126.5742,9.3215 125.1382,8.5155 123.3492,8.5155 C121.7882,8.5155 120.8052,8.9685 120.8052,9.6735 C120.8052,10.3545 121.5362,10.6565 124.4592,11.1355 C128.9182,11.8405 130.7572,13.0495 130.7572,15.4935 C130.7572,17.9875 128.1112,19.6505 124.0812,19.6505 C120.1502,19.6505 117.2282,17.8365 116.5732,14.9395" id="Fill-13" fill="#FFFFFF"></path>
                        <mask id="mask-2" fill="white">
                            <use xlink:href="#path-1"></use>
                        </mask>
                        <g id="Clip-16"></g>
                        <path d="M132.47,19.2727 L136.199,19.2727 L136.199,5.9207 L132.47,5.9207 L132.47,19.2727 Z M132.394,3.7287 L136.248,3.7287 L136.248,-0.0003 L132.394,-0.0003 L132.394,3.7287 Z" id="Fill-15" fill="#FFFFFF" mask="url(#mask-2)"></path>
                        <path d="M144.4618,9.0948 L144.4618,14.7388 C144.4618,15.5698 144.7378,15.8218 145.8218,15.8218 L148.2658,15.8218 L148.2658,19.2728 L145.4438,19.2728 C142.0428,19.2728 140.7328,17.9118 140.7328,14.9648 L140.7328,9.0948 L137.5838,9.0948 L137.5838,5.9208 L140.7328,5.9208 L140.7328,2.5708 L144.4618,2.5708 L144.4618,5.9208 L148.7698,5.9208 L148.7698,9.0948 L144.4618,9.0948 Z" id="Fill-17" fill="#FFFFFF" mask="url(#mask-2)"></path>
                        <path d="M11.9999,25.9502 C18.6279,25.9502 23.9999,20.5782 23.9999,13.9502 C23.9999,7.3232 18.6279,1.9502 11.9999,1.9502 C5.3729,1.9502 -0.0001,7.3232 -0.0001,13.9502 C-0.0001,20.5782 5.3729,25.9502 11.9999,25.9502" id="Fill-18" fill="#FFFFFF" mask="url(#mask-2)"></path>
                        <path d="M16.8163,14.0323 C16.6923,14.5703 16.1553,14.9903 15.4943,15.0453 C13.1653,15.2423 10.8363,15.2423 8.5063,15.0453 C7.8453,14.9903 7.3083,14.5703 7.1843,14.0323 C6.9383,12.9723 6.9383,11.9143 7.1843,10.8543 C7.3083,10.3153 7.8453,9.8963 8.5063,9.8413 C10.8363,9.6433 13.1653,9.6433 15.4943,9.8413 C16.1553,9.8963 16.6923,10.3153 16.8163,10.8543 C17.0613,11.9143 17.0613,12.9723 16.8163,14.0323 M18.2893,10.6053 C18.1073,9.2923 16.9763,8.2543 15.5803,8.0953 C13.1933,7.8263 10.8063,7.8263 8.4203,8.0953 C7.0233,8.2543 5.8923,9.2923 5.7113,10.6053 C5.4293,12.6303 5.4293,14.6563 5.7113,16.6813 C5.8923,17.9943 7.0233,19.0343 8.4203,19.1913 C10.8063,19.4613 13.1933,19.4613 15.5803,19.1913 C16.9763,19.0343 18.1073,17.9943 18.2893,16.6813 C18.5703,14.6563 18.5703,12.6303 18.2893,10.6053" id="Fill-19" fill="#00AA13" mask="url(#mask-2)"></path>
                        <path d="M13.4999,6.9434 C14.0529,6.9434 14.4999,6.4954 14.4999,5.9434 C14.4999,5.3904 14.0529,4.9434 13.4999,4.9434 C12.9479,4.9434 12.4999,5.3904 12.4999,5.9434 C12.4999,6.4954 12.9479,6.9434 13.4999,6.9434" id="Fill-20" fill="#00AA13" mask="url(#mask-2)"></path>
                        <path d="M10.4999,6.9434 C11.0529,6.9434 11.4999,6.4954 11.4999,5.9434 C11.4999,5.3904 11.0529,4.9434 10.4999,4.9434 C9.9479,4.9434 9.4999,5.3904 9.4999,5.9434 C9.4999,6.4954 9.9479,6.9434 10.4999,6.9434" id="Fill-21" fill="#00AA13" mask="url(#mask-2)"></path>
                        <path d="M15.9999,15.9434 C16.5529,15.9434 16.9999,16.3914 16.9999,16.9434 C16.9999,17.4954 16.5529,17.9434 15.9999,17.9434 C15.4469,17.9434 14.9999,17.4954 14.9999,16.9434 C14.9999,16.3914 15.4469,15.9434 15.9999,15.9434" id="Fill-22" fill="#FFFFFF" mask="url(#mask-2)"></path>
                        <path d="M7.9999,15.9434 C8.5529,15.9434 8.9999,16.3914 8.9999,16.9434 C8.9999,17.4954 8.5529,17.9434 7.9999,17.9434 C7.4469,17.9434 6.9999,17.4954 6.9999,16.9434 C6.9999,16.3914 7.4469,15.9434 7.9999,15.9434" id="Fill-23" fill="#FFFFFF" mask="url(#mask-2)"></path>
                        <path d="M16.4999,21.9502 L7.4999,21.9502 C7.0859,21.9502 6.7499,21.6152 6.7499,21.2002 C6.7499,20.7862 7.0859,20.4502 7.4999,20.4502 L16.4999,20.4502 C16.9139,20.4502 17.2499,20.7862 17.2499,21.2002 C17.2499,21.6152 16.9139,21.9502 16.4999,21.9502" id="Fill-24" fill="#00AA13" mask="url(#mask-2)"></path>
                    </g>
                </g>
            </g>
        </g>
    </g>
</svg>