<?xml version="1.0" encoding="UTF-8"?>
<svg width="347px" height="304px" viewBox="0 0 347 304" version="1.1" xmlns="http://www.w3.org/2000/svg" xmlns:xlink="http://www.w3.org/1999/xlink">
    <!-- Generator: Sketch 62 (91390) - https://sketch.com -->
    <title>Group 99</title>
    <desc>Created with Sketch.</desc>
    <defs>
        <path d="M34,152.809619 C34,216.167398 72.425435,270.243217 128.235593,293.775015 C131.75782,295.213042 135.527835,295.977625 139.343352,296 C155.237502,296 168.129125,283.166359 168.129125,267.344242 C168.129125,255.791455 161.15265,245.385269 150.473588,240.912923 L150.473588,240.890548 C115.886146,226.461161 91.5709972,192.456051 91.5709972,152.787244 C91.5709972,100.037575 134.512009,57.2673223 187.522476,57.2673223 C240.532944,57.2673223 283.473956,100.037575 283.473956,152.787244 C283.473956,192.456051 259.158807,226.461161 224.571365,240.890548 L224.571365,240.912923 C209.918903,247.048687 203.032882,263.837857 209.196367,278.423872 C213.666442,289.032527 224.097166,295.954704 235.656648,295.977079 C239.472165,295.954704 243.24218,295.190666 246.763859,293.752639 C302.55154,270.220842 341,216.122647 341,152.787244 C341,68.3922486 272.276291,-0.0223644018 187.5,0 C102.723709,0 34,68.414624 34,152.809619 Z" id="path-1"></path>
        <filter x="-1.6%" y="-1.7%" width="104.6%" height="104.7%" filterUnits="objectBoundingBox" id="filter-2">
            <feOffset dx="2" dy="2" in="SourceAlpha" result="shadowOffsetOuter1"></feOffset>
            <feGaussianBlur stdDeviation="2" in="shadowOffsetOuter1" result="shadowBlurOuter1"></feGaussianBlur>
            <feColorMatrix values="0 0 0 0 0   0 0 0 0 0   0 0 0 0 0  0 0 0 0.5 0" type="matrix" in="shadowBlurOuter1"></feColorMatrix>
        </filter>
        <path d="M130,152.5 C130,120.750902 155.974823,95 188,95 C220.024625,95 246,120.750902 246,152.5 C246,184.249098 220.047821,210 188,210 C155.952179,210 130,184.249098 130,152.5" id="path-3"></path>
        <filter x="-4.3%" y="-4.3%" width="112.1%" height="112.2%" filterUnits="objectBoundingBox" id="filter-4">
            <feOffset dx="2" dy="2" in="SourceAlpha" result="shadowOffsetOuter1"></feOffset>
            <feGaussianBlur stdDeviation="2" in="shadowOffsetOuter1" result="shadowBlurOuter1"></feGaussianBlur>
            <feColorMatrix values="0 0 0 0 0   0 0 0 0 0   0 0 0 0 0  0 0 0 0.5 0" type="matrix" in="shadowBlurOuter1"></feColorMatrix>
        </filter>
    </defs>
    <g id="Page-1-Copy" stroke="none" stroke-width="1" fill="none" fill-rule="evenodd">
        <g id="Join-Us-(Landing)-Copy-4" transform="translate(-322.000000, -262.000000)">
            <g id="Group-99" transform="translate(498.500000, 412.000000) scale(-1, 1) translate(-498.500000, -412.000000) translate(328.000000, 264.000000)">
                <g id="Fill-11">
                    <use fill="black" fill-opacity="1" filter="url(#filter-2)" xlink:href="#path-1"></use>
                    <use fill="#00AA13" fill-rule="evenodd" xlink:href="#path-1"></use>
                </g>
                <path d="M86.8613294,64.3951104 L83.6225173,70.852249 C82.7115404,72.6678807 80.4529431,73.3159917 78.7324549,72.2552973 L2.23504133,25.0941987 L86.8613294,64.3951104 Z" id="Fill-13" fill="#D2D2D2" transform="translate(44.548185, 48.930401) rotate(-4.000000) translate(-44.548185, -48.930401) "></path>
                <path d="M84.0762341,41.0901885 L64.1870136,30.5457599 C63.5802495,30.2236688 62.9156687,30.0304547 62.232253,29.9771769 L1.12887657,25.1914564 L84.0762341,41.0901885 Z" id="Fill-15" fill="#FFFFFF" transform="translate(42.602555, 33.140822) rotate(-4.000000) translate(-42.602555, -33.140822) "></path>
                <polygon id="Fill-17" fill="#D2D2D2" transform="translate(42.835865, 36.477148) rotate(-4.000000) translate(-42.835865, -36.477148) " points="81.5543762 47.7709872 84.3095549 41.2407815 1.3621752 25.1833087"></polygon>
                <polygon id="Fill-19" fill="#004656" points="175 154 221 151.458908 204.470908 104"></polygon>
                <path d="M275.883,166.402 C275.615,166.473 275.366,166.545 275.099,166.598 C275.366,166.545 275.633,166.473 275.901,166.42 L275.883,166.402 Z" id="Fill-21" fill="#000000"></path>
                <path d="M271.66322,167.304 C271.1161,167.482 270.557755,167.642 270,167.785 C270.410635,167.678 270.810635,167.571 271.22127,167.447 C271.484195,167.375 271.737075,167.304 272,167.215 C271.884786,167.251 271.779025,167.286 271.66322,167.304" id="Fill-23" fill="#000000"></path>
                <path d="M270.861702,167.4375 C270.586074,167.4905 270.293037,167.5445 270,167.5805 C270.327853,167.5445 270.672147,167.4905 271,167.4195 C270.947776,167.4195 270.913926,167.4375 270.861702,167.4375" id="Fill-25" fill="#000000"></path>
                <path d="M163,166.994952 C189.881721,167.062651 215.898338,166.43494 244.334156,165.981624 L244.344093,165.981624 C248.357139,165.913924 252.409934,165.855973 256.531187,165.798564 C260.799845,165.740613 265.108252,165.653416 269.357035,165.219596 C270.911131,165.065241 272.465227,164.862142 274,164.582137 L245.858992,106.55109 L240.753938,96.0235249 L239.327924,93.0712791 L238.245853,93.0328257 L224.829284,92.5497211 L210.813159,92.0482021 L210.183792,92.0287046 L209.849233,92.0097487 L209.46554,92 L208.649018,93.8717596 L204.527765,103.251138 L203.888461,104.708576 L203.878523,104.717783 L202.344302,108.220292 C202.344302,108.220292 202.934472,109.832085 203.839326,112.379758 C203.95747,112.717173 204.085,113.064336 204.213082,113.440746 C204.360486,113.865359 204.517828,114.309468 204.685107,114.782282 C204.793314,115.090993 204.911459,115.409452 205.019666,115.727911 C205.75724,117.841223 206.583699,120.243748 207.429481,122.732928 L207.429481,122.742677 C207.685092,123.505245 207.940704,124.277021 208.206253,125.049339 C208.727965,126.602639 209.239188,128.165689 209.711214,129.690284 C210.193177,131.205132 210.655817,132.682067 211.068771,134.071263 C211.275248,134.766133 211.471787,135.431755 211.649004,136.078422 C212.170164,137.940433 212.61293,139.513231 212.986686,140.83527 C213.055695,141.076822 213.124153,141.317833 213.183225,141.539888 C213.252234,141.810145 213.331181,142.070653 213.400191,142.311664 C213.527721,142.765522 213.645865,143.180385 213.754072,143.566002 C213.813144,143.788057 213.872217,144.000363 213.931289,144.193172 C214.058819,144.637281 214.167026,145.02344 214.255358,145.370604 C214.324367,145.621363 214.393377,145.853167 214.462387,146.055724 C214.501584,146.219828 214.540782,146.374183 214.580531,146.509041 C214.629666,146.673687 214.668863,146.818293 214.708061,146.943402 C214.717998,147.001353 214.737873,147.068511 214.757196,147.117255 C214.796945,147.291107 214.836143,147.425965 214.865403,147.532118 C214.885277,147.599276 214.905152,147.64802 214.914538,147.696222 C214.953735,147.840828 214.983547,147.917735 214.993484,147.95673 L215.003422,147.995184 C215.003422,147.995184 200.022819,148.284938 187.1379,150.571561 C182.190188,151.440283 177.55716,152.617173 174.193356,154.171015 C173.435907,154.527928 172.728144,154.904338 172.059027,155.309453 C166.511208,158.619152 164.072133,163.405246 163,166.994952" id="Fill-27" fill="#000000"></path>
                <path d="M275.883,166.402 C275.615,166.473 275.366,166.545 275.099,166.598 C275.366,166.545 275.633,166.473 275.901,166.42 L275.883,166.402 Z" id="Fill-29" fill="#FFC41C"></path>
                <path d="M272,167.2595 C271.342096,167.4375 270.670693,167.5975 270,167.7405 C270.493783,167.6335 270.974778,167.5265 271.468561,167.4025 C271.645471,167.3665 271.82238,167.3135 272,167.2595" id="Fill-31" fill="#FFC41C"></path>
                <path d="M202.269005,106.317549 C201.51064,110.182533 202.579864,115.380063 202.74101,118.275526 C203.149319,125.610262 203.803158,132.932988 204.776566,140.214771 C206.717394,154.737941 209.91799,169.120813 214.873226,182.919572 C217.870213,191.264225 221.586912,199.519897 227.431172,206.177715 C233.274888,212.836078 241.525448,217.776489 250.368328,217.992666 C260.246679,218.234501 267.180307,212.471962 271.608552,204.199913 C273.33597,200.972542 277.849688,185.835779 282.13312,185.771908 C286.342512,185.713497 274.152588,174.586928 268.507038,163.801001 C267.791137,162.433517 271.572076,163.441252 273.085541,163.159021 L245.335241,104.666742 L240.301066,94.055504 L238.89485,91.0792477 L237.827803,91.0404887 L224.597509,90.5540903 L210.775983,90.0485853 L210.155354,90.0289328 L209.82544,90.0092803 L209.447074,90 L208.641889,91.8866364 L204.577855,101.340563 L203.947427,102.809038 L203.937627,102.818864 C203.056225,103.696129 202.542844,104.919494 202.269005,106.317549" id="Fill-33" fill="#B3E7F3"></path>
                <path d="M236,93.8093917 L236.873384,95.6972397 L236.873384,95.7065233 L237.413393,96.9035619 L239.563515,101.592874 C239.563515,101.592874 268.711381,165.213951 268.711381,165.223781 L279.160023,180 C280.711725,179.844363 280.565151,173.50257 282.097016,173.220239 C283.893376,172.908966 283.840477,168.298291 285.597713,167.772949 C288.935857,166.780695 287.428237,162.33385 290.324454,160.417059 C293.809722,158.121278 294.619737,153.703922 296.583059,150.045636 C299.823119,144.003649 300,136.862374 300,130.032372 C300,128.52406 300,126.996634 299.98953,125.459379 L299.98953,124.369374 C299.98953,123.455213 299.980163,122.530675 299.980163,121.606137 C299.901366,107.129178 299.646238,91.6785318 299.44952,76.1699999 C289.465397,69.4273737 276.143681,66.284601 266.13917,68.9408037 L266.129802,68.9408037 L259.738398,74.2144363 L252.718819,80.0128655 L250.55933,81.793679 L250.362613,81.9585994 L250.176364,82.1142363 L237.659153,92.4376028 L236,93.8093917 Z" id="Fill-35" fill="#4AC9E3"></path>
                <path d="M290.384,160.5625 C290.402,160.5625 290.402,160.5805 290.402,160.5805 C290.473,160.5275 290.545,160.4735 290.616,160.4195 C290.545,160.4735 290.473,160.5095 290.384,160.5625" id="Fill-37" fill="#004656"></path>
                <path d="M284.002312,141.514248 C283.901408,148.104893 287.122954,154.120778 289.829778,158 C293.415258,155.739674 296.465041,152.808348 298.48538,149.206559 C301.818033,143.257882 302,136.226893 302,129.501833 C302,128.016814 302,126.513515 301.989796,125 C294.829042,128.074344 284.103216,133.956352 284.002312,141.514248" id="Fill-39" fill="#004656"></path>
                <path d="M201.919802,105.680137 C199.622127,111.338319 199.037722,117.735901 199.926368,123.753141 C201.616109,135.19774 207.746891,145.44402 213.852503,155.280493 C221.466186,167.545798 229.250595,179.731434 237.907234,191.298811 C244.196156,199.703958 259.76552,211.582921 257.835561,223.25998 C256.717639,230.021532 250.263464,234.391357 244.387127,237.944842 C241.891914,239.454199 239.339793,240.986476 236.49328,241.628198 C234.067013,242.174972 231.536232,242.045645 229.071662,241.707868 C219.998607,240.464258 211.401612,236.264685 204.694085,230.070098 C198.676025,224.512867 195.183821,217.143971 189.866171,210.988672 C177.817465,197.042119 170.528816,179.011679 169.756176,160.600351 C169.100635,144.971459 172.92444,129.683073 174.422662,114.215703 C175.100091,107.218416 175.453579,102.047529 177.781898,95.5942879 C178.207069,94.4150681 182.853309,79.3482289 185.109945,80.9230685 C185.075471,80.8990585 145.860679,53.5270792 133.61334,30.2018813 C121.36053,6.86686102 143.326615,-1.70526519 154.070806,4.00966751 C154.070806,4.00966751 173.649474,-2.65748113 182.483952,8.29545777 C182.483952,8.29545777 202.778353,6.18148381 203.01693,23.0719939 C203.255507,39.9625039 189.169044,37.0103617 189.169044,37.0103617 C189.169044,37.0103617 206.327465,39.4490167 205.627054,52.0870231 C195.420757,66.2704024 197.06125,82.5535678 212.819944,91.309589 C210.803527,96.505032 204.318162,99.7736701 201.919802,105.680137 Z" id="Fill-41" fill="#4AC9E3"></path>
                <path d="M162,124.950694 C167.153525,135.358183 175.835149,142 175.835149,142 L184.716851,125.581023 C186.575427,122.145188 186.419443,117.962196 184.219687,114.728501 C179.830647,108.276325 176.848767,100 176.848767,100 C159.05505,108.065491 162.416691,124.156263 162.416691,124.156263 C162.264015,124.416545 162.125118,124.676827 162,124.950694" id="Fill-43" fill="#004656"></path>
                <path d="M197.21091,76 C197.21091,76 192.236362,87.7343141 197.21091,96.0021796 C202.185458,104.269513 209.221846,104.947373 212,91.9403426 C212,91.9403426 198.952839,87.7343141 197.21091,76" id="Fill-45" fill="#004656"></path>
                <path d="M212,39.6804454 C212,39.6804454 225.636429,40.6382171 250.68496,55.6888377 C250.68496,55.6888377 261.586262,61.7091957 266.496017,69 C266.496017,69 266.515344,68.9808007 266.544612,68.9413049 C266.554552,68.9221056 266.574431,68.9023577 266.594311,68.8732845 C266.938342,68.4135979 268.158188,66.7421601 269.447061,63.9961089 C269.644202,63.5660441 269.850731,63.1069061 270.04732,62.6280202 C270.0672,62.5983984 270.076587,62.5594512 270.096467,62.520504 C270.185374,62.3153456 270.263789,62.1003132 270.352143,61.8754069 C270.46093,61.6214274 270.558672,61.3575739 270.647579,61.0937204 C270.735933,60.8490662 270.82484,60.6049605 270.913195,60.350981 C270.952402,60.2527902 270.982222,60.1551479 271.011489,60.0575057 C271.158931,59.617567 271.306373,59.1683029 271.444427,58.689417 C271.464307,58.630722 271.474247,58.5720269 271.493574,58.5133319 C271.572541,58.2494784 271.641016,57.9757509 271.719983,57.6921495 C271.887304,57.047601 272.044686,56.3734306 272.192128,55.6795123 C273.018796,51.633393 273.353439,46.7562173 272.506891,41.185672 C269.899878,23.9940531 243.483507,14.083913 229.965253,19.4690478 C225.301786,21.3357702 221.720663,24.3166016 219.024743,27.4246971 C218.828154,27.6589288 218.631013,27.8843837 218.444364,28.1186154 C218.139541,28.4801111 217.844105,28.8514808 217.578489,29.2129766 C217.401228,29.4477568 217.223966,29.692411 217.057197,29.9266427 C216.643587,30.4932969 216.269736,31.0506257 215.925706,31.5980806 C215.758384,31.8520601 215.601002,32.1060397 215.453008,32.3506939 C215.354714,32.5064826 215.256419,32.6633685 215.178005,32.8098319 C215.099038,32.9370959 215.020623,33.0736854 214.951596,33.2004009 C214.174628,34.5394163 213.574369,35.7709155 213.121551,36.7873823 C213.043137,36.9634674 212.97411,37.1198048 212.905082,37.286016 C212.737761,37.6771336 212.600259,38.0188815 212.482085,38.3216821 C212.432938,38.4489462 212.38379,38.5762103 212.344583,38.6837264 C212.108234,39.3189496 212,39.6804454 212,39.6804454" id="Fill-47" fill="#66256D"></path>
                <path d="M213.469105,36.6119252 L214.25398,39.2175417 C218.55692,39.9641008 231.067048,42.9862245 250.681297,54.8534158 C250.681297,54.8534158 253.559715,56.4520202 257,59 C254.683451,52.7996984 245.651682,33.918766 219.710028,26.5950914 C218.566167,26.2655831 217.394022,25.965437 216.191962,25.6941092 C216.191962,25.6941092 199.737336,20.8792648 213.469105,36.6119252" id="Fill-49" fill="#B478B4"></path>
                <path d="M271,62 C270.672493,62.7000802 270.328427,63.3712911 270,64 C270.328427,63.3712911 270.672493,62.7145148 271,62" id="Fill-51" fill="#006880"></path>
                <path d="M219.982873,28 C219.644148,28.3383399 219.305423,28.6624506 219,29 C219.321598,28.6624506 219.661275,28.3383399 220,28 L219.982873,28 Z" id="Fill-53" fill="#006880"></path>
                <path d="M250.238843,55 C250.238843,55 261.106481,60.8921668 266,68.0413365 C266,68.0413365 260.128218,84.3399169 248.383553,80.3797402 C236.639439,76.4195635 243.425661,56.249479 250.238843,55" id="Fill-55" fill="#000000"></path>
                <path d="M250.951377,55.0646265 C250.951377,55.0646265 246.279264,64.4271755 248.49849,66.7707016 C250.717716,69.1142277 253.988414,63.3624366 259.011017,66.6485455 C264.03362,69.9341042 258.777357,80.0114314 251.769188,79.65982 C251.769188,79.65982 246.785529,95.9472988 234.034578,97.705356 C221.283628,99.462863 217.475401,92.7838962 217.475401,92.7838962 C217.475401,92.7838962 204.56045,91.1265352 200.657881,82.5222343 C196.755312,73.9184837 195.068679,64.5597864 210.74587,42.2299831 L212.523554,39 C212.523554,39 226.072571,39.9607411 250.951377,55.0646265" id="Fill-57" fill="#A95631"></path>
                <path d="M213.917331,40.1106315 C211.369929,44.4576579 209.079668,48.9593807 206.868896,53.4993618 C204.454866,58.4574115 201.327563,63.7575678 200.258454,69.2329358 C199.15787,74.8702084 201.466803,83.0325266 205.78485,86.7629849 C210.540356,90.8715902 217.051569,92.1662722 223.061838,91.7210347 C225.651919,91.5291889 225.640182,95.7220732 223.061838,95.9133645 C216.587435,96.3929791 210.01007,94.8953619 204.591439,91.0678718 C199.733503,87.636826 197.456045,81.9640675 196.333588,76.1094436 C194.996668,69.1364584 197.922313,62.9785407 200.777537,56.8588813 C203.766134,50.4531165 206.86943,44.0778475 210.434726,37.994783 C211.783382,35.6942967 215.272922,37.7985014 213.917331,40.1106315" id="Fill-59" fill="#000000"></path>
                <path d="M214.140119,35.7441161 C214.140119,35.7441161 216.531239,38.7375406 215.891105,41.3392971 C215.250971,43.9410535 209.538554,44.5685703 207,35 L214.140119,35.7441161 Z" id="Fill-61" fill="#783200"></path>
                <path d="M210.214106,61.646483 C211.783642,60.2217054 213.364189,58.8076244 214.939521,57.3887299 C216.285334,56.1757436 218.352739,58.0797257 217.005187,59.2948513 C215.761962,60.4153126 214.518157,61.5357739 213.274353,62.6562353 C212.711569,63.1637855 212.086768,63.6488731 211.57267,64.1997443 C210.867886,64.6286751 210.837168,65.0966482 211.480515,65.6047333 C212.008523,65.5790616 212.500017,65.4405416 212.954997,65.1902428 C213.148581,65.1030661 213.338687,65.06028 213.522418,65.0474441 C214.702468,64.5051302 216.169995,66.1277935 215.128468,67.300133 C214.660157,67.826937 214.682182,68.7901594 215.375954,69.167212 C216.090011,69.5560308 217.003448,68.4082933 217.480453,67.9970118 C218.853507,66.8139758 220.92381,68.7163533 219.546119,69.9031331 C218.647172,70.6775618 217.733155,71.5894408 216.507897,71.9017794 C215.363203,72.1937946 214.206337,71.8071151 213.342165,71.1064925 C212.341209,70.2946261 211.909993,69.219625 211.938393,68.134997 C209.955028,68.2740519 208.014554,67.5638024 208,65.2624444 C207.990211,63.7510249 209.118677,62.6412601 210.214106,61.646483" id="Fill-63" fill="#000000"></path>
                <path d="M219.093881,74.0519127 C223.291289,76.4234626 230.477095,75.0986391 233.309582,70.9779471 C232.736981,69.2856383 232.968352,67.4178634 233.706296,65.7277617 C234.421492,64.0900791 236.831187,65.5048426 236.120985,67.1314897 C235.159437,69.3341949 236.443905,72.8010278 239.303024,71.7736137 C240.998633,71.1644487 241.72881,73.8510648 240.046518,74.4552638 C238.265463,75.0958802 236.320729,74.630178 234.939718,73.4239872 C230.961475,78.0423847 222.85407,79.374933 217.682354,76.4538105 C216.117134,75.5693073 217.524778,73.166306 219.093881,74.0519127" id="Fill-65" fill="#000000"></path>
                <path d="M236.981524,52.4911716 C236.981524,52.4911716 244.903417,54.6143417 244.998822,57.9384909 C245.094228,61.2620483 239.37367,60.0060218 234.892844,58.0858758 C230.412019,56.1657297 231.158014,50.2750721 236.981524,52.4911716" id="Fill-67" fill="#FFFFFF"></path>
                <path d="M213.598188,47.36838 C213.598188,47.36838 220.910925,48.9604813 220.998915,51.4535807 C221.086905,53.9466801 215.806315,53.0045577 211.670192,51.5641359 C207.53407,50.1242482 208.223024,45.7063137 213.598188,47.36838" id="Fill-69" fill="#FFFFFF"></path>
                <path d="M234,58 C231.335525,58 231.331143,54 234,54 C236.664475,54 236.668857,58 234,58" id="Fill-71" fill="#000000"></path>
                <path d="M212,52 C209.335525,52 209.331143,48 212,48 C214.664475,48 214.668857,52 212,52" id="Fill-73" fill="#000000"></path>
                <path d="M200.246859,21 C200.246859,21 214.574012,27.4995084 226.517175,28.8756943 C238.460338,30.2524487 244.361469,36.4319271 232.62399,37.9684123 C220.885971,39.5048974 210.464113,39.6265429 205.968758,36.230132 C201.472864,32.8342895 198.107422,32.8342895 198.107422,32.8342895 C198.107422,32.8342895 194.524959,27.4551703 200.246859,21" id="Fill-75" fill="#A95631"></path>
                <path d="M219.346916,32.2120896 C221.978245,31.9826486 224.663581,31.7866804 227.253708,32.4847411 C229.702414,33.1444602 231.622739,34.721335 233.528587,36.4527934 C234.918859,37.7156321 232.924484,39.8755428 231.544233,38.621833 C227.755365,35.1796085 224.093441,34.8661811 219.346916,35.280027 C217.546299,35.4364364 217.555764,32.3684991 219.346916,32.2120896" id="Fill-77" fill="#000000"></path>
                <path d="M259,78 C259,78 258.159,98.5299488 250.778441,103.499016 C244.412501,107.784592 239.915163,102.168522 237.262688,95.7687507 C236.574314,94.1082195 237.282561,92.2129593 238.876254,91.3486553 C242.113322,89.5917272 247.424896,86.1187173 250.340134,81.01513 L259,78 Z" id="Fill-79" fill="#004656"></path>
                <path d="M155.318853,27.4312412 C160.246786,32.7552072 169.770663,37.1502506 176.256891,32.1395259 C176.732166,31.7722775 177.517802,31.9439633 177.908187,32.3635134 C180.358635,34.9990614 183.209202,36.2054101 186.684276,36.1309371 C188.438845,36.0934164 188.438304,38.9586368 186.684276,38.9961575 C182.837201,39.0791579 179.587598,37.8176651 176.802997,35.196898 C169.388389,40.0160395 158.92694,35.4373719 153.391801,29.4573613 C152.167658,28.1350394 154.093088,26.1066452 155.318853,27.4312412" id="Fill-81" fill="#000000"></path>
                <path d="M289.111372,116.7127 C290.737833,120.685172 295.32763,124.859096 300,125 C300,124.052152 299.990114,123.094685 299.990114,122.136652 C296.70579,121.935199 293.079543,118.749299 291.939798,115.956686 C291.245485,114.262444 288.407173,115.008838 289.111372,116.7127" id="Fill-83" fill="#000000"></path>
                <path d="M186.402214,148.965809 C175.473763,147.13736 162.282496,138.428402 161.013873,126.921676 C160.730678,124.349603 164.87397,124.369298 165.155521,126.921676 C166.213802,136.523301 178.71872,143.615131 187.503221,145.084811 C190.124274,145.523426 189.013408,149.402295 186.402214,148.965809" id="Fill-85" fill="#000000"></path>
                <path d="M92.1114523,45.0922778 C92.1114523,45.0922778 116.645123,64.7914447 124.456521,77.001703 C125.716089,78.9708081 123.654064,81.3885924 121.536852,80.4255684 C98.738389,70.0526409 11.8857059,30.7112246 2.51012528,23.7679238 L92.1114523,45.0922778 Z" id="Fill-87" fill="#FFFFFF" transform="translate(63.675499, 52.205950) rotate(-4.000000) translate(-63.675499, -52.205950) "></path>
                <path d="M167.042214,121.52417 C168.853634,123.335265 170.664503,125.145808 172.475923,126.956903 C174.098872,128.579446 171.58151,131.099542 169.958011,129.475896 L164.524301,124.043163 C162.900801,122.420069 165.418714,119.900524 167.042214,121.52417" id="Fill-89" fill="#FFFFFF"></path>
                <path d="M273.673062,47.484521 C273.720185,52.7978356 272.522909,57.7723744 270.080684,62.4081375 C266.4625,68.2 265.698673,69.5213274 261.510705,75.7094554 C261.501938,75.7192908 261.492623,75.7280334 261.483855,75.7378688 C260.680009,77.0749401 259.259334,78.1178637 258.925,78.5315091 C258.768436,78.7252133 258.679543,79.273651 258.658321,80.176822 C258.648864,81.9210098 258.648864,82.8278993 258.658321,82.8974907 C258.495114,85.5757496 258.509971,85.2856975 258.0875,87.5800833 C268.168732,98.7487535 275.785419,111.886876 279.903283,126.527998 L279.922461,126.667879 C282.252904,134.924717 283.50114,143.633439 283.50114,152.633398 C283.50114,154.667145 283.433742,156.685593 283.30826,158.688194 C283.142779,162.21474 282.739486,165.676809 282.08797,169.071123 C276.435839,201.570642 254.317731,228.436649 224.625275,240.845129 L224.625275,240.867532 C209.979597,247.010847 203.096764,263.820679 209.257395,278.424644 C213.725949,289.046355 224.151296,295.977051 235.705424,296 C239.519175,295.977051 243.287445,295.212073 246.80804,293.772277 C302.569343,270.210972 341,216.046747 341,152.633398 C341,101.209977 315.546505,55.7309775 276.529539,28 C276.446798,34.7318012 275.492812,41.225913 273.673062,47.484521 Z" id="Fill-91" fill="#00AA13"></path>
                <g id="Fill-93">
                    <use fill="black" fill-opacity="1" filter="url(#filter-4)" xlink:href="#path-3"></use>
                    <use fill="#00AA13" fill-rule="evenodd" xlink:href="#path-3"></use>
                </g>
                <path d="M97.3163913,78.1835356 C117.955873,88.7920832 137.13894,101.971412 154.505606,117.417095 C155.984519,118.732044 153.813617,120.903921 152.341838,119.595601 C135.16669,104.320089 116.181177,91.3341345 95.7721756,80.8438218 C94.017784,79.9421423 95.5641948,77.282961 97.3163913,78.1835356" id="Fill-95" fill="#2D2E2D"></path>
                <path d="M137.790528,86.1259049 C142.562697,88.2177536 146.711474,91.6512511 150.975257,94.7024847 C155.756562,98.1239469 160.538404,101.544836 165.320246,104.966871 C166.913656,106.106786 165.414829,108.876049 163.807984,107.725819 C159.460904,104.615555 155.113823,101.505291 150.766743,98.3950276 C146.353562,95.2366225 141.932857,91.3721469 136.994092,89.2075133 C135.234623,88.4361082 136.005264,85.3430377 137.790528,86.1259049" id="Fill-97" fill="#2D2E2D"></path>
            </g>
        </g>
    </g>
</svg>