<svg viewBox="0 0 483 516" xmlns="http://www.w3.org/2000/svg"><path d="m0 0h483v516h-483z" fill="#ff7480"/><path d="m383.31 56.09-74.85 68c-.74-27.12.66-54.26-.44-81.37a295.08 295.08 0 0 0 -4.54-42.72h72.92c6.08 18.05 9.23 37.23 6.91 56.09z" fill="#d8d27e"/><path d="m383.28 112.1c-9.46 39.76-26.84 84.15-48.2 119-7.76 12.64-16.59 25.19-29.13 33.11a111.56 111.56 0 0 1 -13.05 6.71c-5.12 2.35-9.21 9-14.32 11.32l-25.39-27.08c3.86-9 9.4-21.21 10.35-30.94.48-4.94.18-10 .83-14.88a72.65 72.65 0 0 1 3-12.14q3.9-12.52 8.49-24.81c5.74-15.37 12.32-30.55 15.52-46.65s2.74-33.54-5.07-48" fill="#ffbf1c"/><path d="m162.79 76.88a12.42 12.42 0 0 0 9.7 5.42c4.63.4 9.12-1.42 13.3-3.2 9-3.85 17.4-8.75 25.89-13.6 8.31-4.75 17.13-9.26 26.77-10.4a34.31 34.31 0 0 1 13.78 1.06 45.81 45.81 0 0 1 11.77 5.57 129 129 0 0 1 11.88 9c3.66 3 7.26 6.19 9.43 10.47.87 1.72 3.46.21 2.59-1.51a32 32 0 0 0 -8-9.52c-3.28-2.81-6.67-5.54-10.15-8.09-7.1-5.21-15.12-9.43-24.05-10.1-19.7-1.48-36.1 12.31-52.73 20.59-4.87 2.43-10 5.07-15.31 6.34-4.27 1-9.63.56-12.21-3.49-1-1.62-3.63-.12-2.59 1.51z" fill="#db9a42"/><path d="m252.7 266.84c-.07-1.91-3.26-9.52.49-11.69a6.46 6.46 0 0 1 6.67.35c2 1.29 3.59 3.16 5.66 4.35 1.46.84 3.13 1.31 4.51 2.29a14.71 14.71 0 0 1 3.66 4.53c2.1 3.48 4.24 7 5.12 11a6.85 6.85 0 0 1 -.23 4.56c-1.4 2.76-5.25 3.06-8.27 2.38a23.79 23.79 0 0 1 -17.61-17.77z" fill="#0a0b09"/><path d="m383.47 111.27s-3.18-25.62-24.82-38.75c0 0-20.07-10.46-32 20l22.83 22.78 25 6.67z" fill="#ffbf1c"/><path d="m275.51 264.22a22.9 22.9 0 0 0 9.35-4c2.59-1.73 5.08-3.61 7.52-5.54a131.63 131.63 0 0 0 13.91-12.8 163.6 163.6 0 0 0 22.5-30.51c14.08-24.33 22.42-51.43 28.82-78.65 1.91-8.12 3.66-16.27 5.36-24.43 1.74-8.32 3.7-16.65 4.7-25.1.23-1.91-2.78-1.9-3 0-.88 7.4-2.59 14.7-4.11 22-1.47 7.09-3 14.17-4.57 21.22a430.73 430.73 0 0 1 -11.38 41.8c-8.15 24.34-19.67 47.93-36.65 67.39a136.6 136.6 0 0 1 -14.89 14.67q-4 3.39-8.33 6.4c-3.06 2.15-6.25 4.17-10 4.69-1.91.27-1.1 3.16.79 2.9z" fill="#0a0b09"/><rect fill="#0099c1" height="57.54" rx="12" transform="matrix(.94937066 .31415816 -.31415816 .94937066 63.49 -95.63)" width="30.21" x="313.4" y="120.44"/><rect fill="none" height="45.71" rx="11.92" stroke="#ffbf1c" stroke-miterlimit="10" stroke-width=".5" transform="matrix(.94937066 .31415816 -.31415816 .94937066 63.49 -95.63)" width="23.84" x="316.58" y="126.35"/><path d="m164.68 74.26c2.9 3.65 8 4.89 12.66 4.29s8.88-2.76 13-4.88l21.66-11.09c6.4-3.28 12.9-6.59 19.94-8.06 12-2.5 24.69.62 35 7.1s18.49 16.07 24.66 26.62a89.72 89.72 0 0 0 -26.53-36.58c-5.39-4.42-11.42-8.27-18.16-10-15.73-4.14-31.94 3.48-46.35 11.05-12.36 6.5-24.87 13.29-35.41 22.54" fill="#db9a42"/><path d="m163.62 75.32a14.55 14.55 0 0 0 10.76 4.86c4.75.2 9.3-1.57 13.51-3.59 9.64-4.65 19-9.81 28.6-14.59a70.44 70.44 0 0 1 14.33-5.67 40.88 40.88 0 0 1 14-.95 51.76 51.76 0 0 1 25.68 10.44c8.21 6.18 14.71 14.37 19.88 23.18.83 1.41 3.38.47 2.74-1.16a92.27 92.27 0 0 0 -15-25.36c-6.35-7.64-14.14-14.85-23.08-19.34-9.67-4.86-20.31-5.09-30.64-2.27-10.63 2.9-20.45 8.27-30.11 13.45-10.61 5.68-21.09 11.88-30.21 19.87-1.45 1.28.68 3.39 2.13 2.13 7.79-6.83 16.63-12.32 25.68-17.27s18.48-10.24 28.36-13.73c9.7-3.41 20.17-4.84 30-1.08 9 3.44 16.7 10.24 23.09 17.25a88.17 88.17 0 0 1 16.9 27.15l2.76-1.16c-9.28-15.81-23.27-29.78-41.64-34a46.76 46.76 0 0 0 -28.26 2.28c-4.81 1.93-9.39 4.34-14 6.7l-14.59 7.46c-5 2.59-10.16 5.71-15.77 6.92-4.6 1-9.84.2-13-3.6-1.23-1.5-3.34.64-2.12 2.12z" fill="#db9a42"/><path d="m302.1 155.1a231 231 0 0 0 -3.45-48.76c-1.38-7.72-3-15.43-6.3-22.59a96.43 96.43 0 0 0 -11.42-18.53c-8.66-11.22-20.23-20.53-34.23-23.87a45.71 45.71 0 0 0 -21.75.22 137.32 137.32 0 0 0 -20.95 7.32 168 168 0 0 0 -37.46 22.23q-2.13 1.68-4.22 3.43c-1.49 1.24.65 3.35 2.12 2.12a165.9 165.9 0 0 1 35.56-22.67 163.63 163.63 0 0 1 19.67-7.76c7.06-2.26 14.17-3.74 21.59-2.83 13.9 1.71 25.9 10.1 34.81 20.54a98.11 98.11 0 0 1 11.54 17 75.17 75.17 0 0 1 7.22 21.18 227 227 0 0 1 4.29 53c-.07 1.93 2.93 1.93 3 0z" fill="#ffd4a2"/><path d="m327.79 88.16s-9.07 6.27-19.73 46.39-5.22-8.84-5.22-8.84l5.8-40.78z" fill="#d8d27e"/><path d="m306.56 44.15 1.82 37.85-7.18 67.71s-3.66-73-24.84-89.7c0 0-22.74-25.38-48.38-19.28 6.32-1.54 15.2-8.54 21.55-9.94a66 66 0 0 1 9.34-1.57 68.46 68.46 0 0 1 10.71.37c9.38.81 19.17 1.76 27.12 6.81a59.51 59.51 0 0 1 5.68 4.29l4.18 3.43" fill="#ffd4a2"/><path d="m305.06 44.15 1 21.55.62 13a25.84 25.84 0 0 1 .11 3.83l-2 19-3.16 29.84-1.27 12c-.22 2-.63 4.08-.65 6.09a2.66 2.66 0 0 1 0 .28h3c-.26-5.14-.74-10.29-1.28-15.41a311.47 311.47 0 0 0 -5.17-33.42c-2.4-11.07-5.43-22.5-11.11-32.39a42.08 42.08 0 0 0 -4.07-5.93 45.51 45.51 0 0 0 -3.69-3.66c-2.23-2.11-4.35-4.29-6.74-6.25-10.35-8.49-23.47-15.31-37.22-14.27a38.33 38.33 0 0 0 -5.84.9l.8 2.89c4.45-1.13 8.48-3.72 12.46-5.91a55.26 55.26 0 0 1 6.45-3.2 39.58 39.58 0 0 1 7.29-1.78c6.11-1.09 12.24-.48 18.38.11a70.16 70.16 0 0 1 16.19 3.06c6.36 2.21 11.23 6.53 16.35 10.74 1.48 1.21 3.62-.9 2.12-2.13-4.73-3.88-9.29-8-15-10.46a58.81 58.81 0 0 0 -16.3-3.85c-6.19-.73-12.66-1.59-18.88-.9a43 43 0 0 0 -15.14 4.22c-4.81 2.46-9.46 5.87-14.74 7.21-1.88.48-1.08 3.33.8 2.89 13.71-3.19 27.39 2.82 38.15 11a71.22 71.22 0 0 1 8.32 7.39c.76.8 1.64 1.47 2.42 2.26a30.54 30.54 0 0 1 3.92 4.93c5.92 9.11 9 20.06 11.41 30.53a286.78 286.78 0 0 1 5.52 33.21c.67 6 1.11 12 1.57 17.94v.26a1.5 1.5 0 0 0 3 0l1.59-15 3.18-29.72 2.28-21.5a17.94 17.94 0 0 0 .09-2.84l-.54-11.21-1.19-24.8v-.51c-.09-1.92-3.09-1.93-3 0z" fill="#ffd4a2"/><path d="m343.28 71.73c3.48-1.61 9.86-1.75 13.32-.11a44.63 44.63 0 0 1 17.24 14.14c8.44 11.58 10.77 26.39 12.71 40.59 1.74 12.78 3.37 25.66 2.63 38.54-.55 9.69-2.45 19.37-1.63 29s5 19.78 13.46 24.51a24.61 24.61 0 0 0 9.37 2.85 30.17 30.17 0 0 0 26.89-11.82c5.26-7.11 7.06-16.15 8.37-24.9 2.81-18.76 4-37.91 1.38-56.7s-9.31-37.27-21-52.18a37.6 37.6 0 0 0 -19.91-14.41c-11.36-3.93-24.41-5.23-35.07.35z" fill="#ffd4a2"/><path d="m344 73a16.79 16.79 0 0 1 9.62-.76c3.46.7 6.77 3 9.59 5a45.15 45.15 0 0 1 14.44 18.21c3.24 7.18 4.9 15 6.16 22.76 1.42 8.73 2.59 17.56 3.36 26.38a146.6 146.6 0 0 1 -.16 27.79c-.86 8.6-2 17.34-.42 25.93 1.22 6.74 4.15 13.52 9.26 18.22 5.7 5.24 13.72 7.11 21.29 6.13a32 32 0 0 0 19-9.54c5.41-5.7 8.11-13.29 9.68-20.86a214.21 214.21 0 0 0 3.5-26.33 186.83 186.83 0 0 0 .28-27.69c-1.15-16.55-5-33-12.5-47.85a85.54 85.54 0 0 0 -13.72-20.06 36.57 36.57 0 0 0 -9.74-7.52 59.28 59.28 0 0 0 -11.64-4.34c-7.59-2.07-15.71-2.86-23.45-1.16-3.86.84-7.32 2.63-11 4l-22.86 8.33-1.84.67c-1.8.66-1 3.56.8 2.89l19-6.92c2.82-1 5.64-2 8.44-3.08a69.57 69.57 0 0 1 7.05-2.68 38.1 38.1 0 0 1 11.36-1.06 55.43 55.43 0 0 1 23.19 6.31c7.14 3.86 12.34 10.61 16.68 17.31 8.69 13.38 13.79 28.85 16.08 44.58 2.61 17.93 1.61 36.26-.93 54.13-1.11 7.77-2.31 15.86-6 22.88a28.58 28.58 0 0 1 -16 13.75c-7 2.38-15.26 2.21-21.66-1.8-5.78-3.64-9.16-10.06-10.76-16.53-2-8.18-1.14-16.73-.29-25a155.58 155.58 0 0 0 .7-27c-.62-8.84-1.82-17.66-3.1-26.43a117.24 117.24 0 0 0 -5.1-22.68 51.79 51.79 0 0 0 -11.91-19.49 46.7 46.7 0 0 0 -9-7 21.52 21.52 0 0 0 -9.62-3.49 19.54 19.54 0 0 0 -9.26 1.42c-1.76.79-.24 3.38 1.48 2.58z" fill="#ffd4a2"/><path d="m308.34 139.08c3.33-14.52 7.16-29.08 13.66-42.61a96.4 96.4 0 0 1 11.49-18.77 38.77 38.77 0 0 1 7.51-7.7 17 17 0 0 1 4.33-2.27 14.65 14.65 0 0 1 4.24-.8c6.08-.29 12.2 2.43 16.76 6.6 5.17 4.74 8.34 11.27 10.57 17.82 2.56 7.56 4.25 15.44 6 23.21 1.93 8.43 3.69 16.92 4.84 25.5a143.67 143.67 0 0 1 1.26 25.72c-.4 8.68-1.66 17.28-2.54 25.9q-.35 3.27-.59 6.55a3 3 0 1 0 6 0c.67-9.06 2.05-18 2.78-27.11a141.43 141.43 0 0 0 -.43-27.06 253.38 253.38 0 0 0 -4.58-27.06c-1.8-8.17-3.61-16.43-6.05-24.44-2.31-7.57-5.52-15-10.82-21a31.36 31.36 0 0 0 -18.31-10.28 23.44 23.44 0 0 0 -10.72.71 26.11 26.11 0 0 0 -10 6.45 83.39 83.39 0 0 0 -13.79 18.92c-7.67 13.82-12.3 29.12-16 44.41-.46 1.91-.91 3.81-1.35 5.72a3.07 3.07 0 0 0 2.1 3.69 3 3 0 0 0 3.69-2.09z" fill="#ffbf1c"/><path d="m303.64 156.44c2.81-12.21 5.93-24.35 9.77-36.28 4-12.27 8.44-24.35 15.33-35.3.74-1.19 1.52-2.35 2.33-3.49.93-1.3 1.23-1.7 2.22-2.88a30.47 30.47 0 0 1 8-7.23c5.41-3.05 12-2.33 17.48.47 13.34 6.8 17.25 22.53 20.51 36 4.13 17 8 34.33 8.4 52q.06 3.27 0 6.53c-.12 3.87 5.88 3.86 6 0 .54-18.47-3.06-36.76-7.28-54.65-3.59-15.22-7.05-32.68-20.46-42.48-5.91-4.32-13.42-6.63-20.72-5.46-7.75 1.24-13.48 7.07-18.06 13-8 10.45-13 23.17-17.35 35.49a387 387 0 0 0 -11 38.67l-.93 4a3.07 3.07 0 0 0 2.09 3.69 3 3 0 0 0 3.69-2.09z" fill="#ffbf1c"/><path d="m261.43 251.59a411.24 411.24 0 0 0 28.23-57.51c8.08-19.9 15-40.22 21.75-60.61 6.13-18.64 11.28-39.23 24.8-54.14 3-3.3 6.54-6.4 11.08-7.15a18.67 18.67 0 0 1 6.06 0 17.86 17.86 0 0 1 6 2.43 44.89 44.89 0 0 1 18.74 21.24c3.92 8.89 5.52 18.66 6.87 28.21 1.57 11.18 3.09 22.44 3.13 33.75s-2.46 22.6-1.95 34c.38 8.61 2.93 17.63 9.09 23.93 6.61 6.78 16.76 8.56 25.74 6.35a31.73 31.73 0 0 0 20.45-16.09c4.71-9 5.83-19.64 7-29.6a207.65 207.65 0 0 0 1.57-34c-.89-20.46-5.71-41.08-16.47-58.68-5.16-8.44-11.6-17-20.72-21.37-8.79-4.22-19.19-6.64-29-5.79a36 36 0 0 0 -13.43 3.79c-1.72.89-.2 3.48 1.51 2.59 8.71-4.48 19-4.21 28.25-1.88a51.54 51.54 0 0 1 14.07 5.47 41.73 41.73 0 0 1 10.84 10.24c12.3 15.68 18.87 35.34 21.09 55a178.43 178.43 0 0 1 .37 33.49c-.43 5.62-1.07 11.21-1.87 16.79a108.46 108.46 0 0 1 -2.84 14.62 35.57 35.57 0 0 1 -6.28 12.83 28.75 28.75 0 0 1 -10.27 7.88c-8.12 3.76-18.8 3.78-26-2-6.65-5.3-9.57-14.17-10.11-22.4-.75-11.18 1.77-22.28 1.88-33.45s-1.35-22.44-2.87-33.56c-1.3-9.53-2.72-19.17-6.14-28.2a49.85 49.85 0 0 0 -16.42-22.59c-3.32-2.5-7.31-5.18-11.48-5.89a19.79 19.79 0 0 0 -12 1.43c-4.24 2.13-7.6 5.74-10.52 9.39a78 78 0 0 0 -7.88 12.07c-4.57 8.61-7.81 17.85-10.86 27.09-6.58 20-13.08 40-20.53 59.71a469.4 469.4 0 0 1 -25.92 57.78q-3.66 6.77-7.63 13.35a1.5 1.5 0 0 0 2.6 1.51z" fill="#0a0b09"/><path d="m195.88 56c15.56-8.15 31.27-16.82 48.31-21.46a62.78 62.78 0 0 1 13.4-2.32c1.92-.09 1.93-3.09 0-3-8.65.44-17.1 3-25.14 6a254.13 254.13 0 0 0 -25.45 11.59c-4.24 2.16-8.44 4.38-12.65 6.59-1.71.89-.2 3.48 1.51 2.59z" fill="#ffd4a2"/><path d="m220.24 44.39q7.31-2.64 14.79-4.74a1.5 1.5 0 0 0 -.8-2.89q-7.48 2.1-14.79 4.74a1.54 1.54 0 0 0 -1.05 1.84 1.51 1.51 0 0 0 1.85 1z" fill="#ffd4a2"/><path d="m165.06 76.82a135.58 135.58 0 0 1 36.19-22.82c13.52-5.76 29-10.43 43.79-8.2a39.48 39.48 0 0 1 19.35 8.2 60.72 60.72 0 0 1 7.52 7.69c2.47 2.9 4.88 5.86 7.15 8.91a74.17 74.17 0 0 1 10.86 19.77 93.69 93.69 0 0 1 4.6 21.54 246.3 246.3 0 0 1 .82 27.17c0 4.63-.11 9.27-.07 13.9 0 1.55-.43 4.29 1.51 4.93a1.88 1.88 0 0 0 2.21-2.72 1.5 1.5 0 0 0 -2.59 1.52l.09.15-.15-1.15 2-.25c0-.33 0-.66 0-1 0-.49 0-1 0-1.49 0-1 0-2 0-3q0-3.23 0-6.45c0-4.14.09-8.28.08-12.42a180.64 180.64 0 0 0 -1.42-23.22 89.26 89.26 0 0 0 -5.32-21.24 80.58 80.58 0 0 0 -11.17-19c-4.5-5.87-9.2-12-15.09-16.59a42.19 42.19 0 0 0 -18.78-8c-14.7-2.49-29.8 1.49-43.41 6.91a138.9 138.9 0 0 0 -40.29 24.74c-1.45 1.28.67 3.39 2.12 2.12z" fill="#e6c84b"/><path d="m297.93 157.81a98.54 98.54 0 0 0 1.3-16.36 132.35 132.35 0 0 0 -1.35-16.39c-1.35-10.15-2.67-20.38-5.23-30.31a89.31 89.31 0 0 0 -4.89-14.24 88.35 88.35 0 0 0 -7.67-13.43c-5-7.44-10.86-14.8-18.84-19.22a40.6 40.6 0 0 0 -10.5-3.69 50.59 50.59 0 0 0 -11-1.8 1.5 1.5 0 0 0 0 3 44.08 44.08 0 0 1 9.12 1.43 49.14 49.14 0 0 1 8.35 2.38c8 3.41 14.06 10.43 19 17.43a100 100 0 0 1 7.52 12.39 77.87 77.87 0 0 1 5.2 13.54c2.72 9.42 4.08 19.16 5.43 28.85a168.2 168.2 0 0 1 1.81 17.61 92.74 92.74 0 0 1 -1.18 18c-.3 1.88 2.59 2.7 2.9.79z" fill="#e6c84b"/><text font-family="MyriadPro-Regular, Myriad Pro" font-size="10.95" transform="matrix(.28217402 -.95936324 .95936324 .28217402 326.87 169.46)"><tspan letter-spacing="-.01em">U</tspan><tspan x="7.02" y="0">sabili</tspan><tspan letter-spacing=".01em" x="30.58" y="0">t</tspan><tspan x="34.3" y="0">y</tspan></text><path d="m173.1 239.05c-12.4-24.12-26.7-47.24-38.78-71.53s-22-50.05-24.84-77c-1.75-16.58-.85-33.66-5.91-49.55-2.36-7.42-7-15.22-14.59-16.81-5.54-1.16-11.33 1.38-15.41 5.31s-6.73 9.05-9.25 14.12c-4.83 9.71-9.43 19.67-11.48 30.32a130.14 130.14 0 0 0 -1.76 19.83c-.75 21.06-1.22 42.25 1.76 63.12s9.62 41.55 21.94 58.65" fill="#d8d27e"/><path d="m101.77 264.6c27.42 30.3 64 60.85 99.52 81.1 12.88 7.35 26.66 14.09 41.47 15a112.33 112.33 0 0 0 14.67-.4c5.61-.4 12.38 3.43 18 3l9.21-36c-7.7-6-18.44-14.07-24-22.14-2.8-4.1-5-8.63-7.88-12.64a73 73 0 0 0 -8.45-9.21q-9.45-9.11-19.39-17.66c-12.39-10.65-25.47-20.78-36.02-33.35s-18.54-28.08-18.64-44.49" fill="#ffbf1c"/><path d="m275.08 127.56c-.25 3.95-3.59 6.89-7.07 8.25-4.35 1.7-9.27 1.89-13.87 2.21-10.28.7-20.52-.07-30.8.13-9 .16-18.05 1.35-26.16 5.33-7.8 3.85-13.49 10.4-17.62 17.94a128.71 128.71 0 0 0 -6 13.16c-2.05 5-4 10.18-3.82 15.68.06 1.93 3.06 1.93 3 0-.15-4.83 1.5-9.39 3.28-13.81 1.64-4.08 3.3-8.16 5.33-12.06 4-7.71 9.41-14.42 17.32-18.31 8.22-4.05 17.58-4.91 26.61-5 10.29 0 20.51.58 30.78-.25 5-.4 10.31-.75 14.84-3.11a12.7 12.7 0 0 0 7.15-10.2c.13-1.93-2.87-1.92-3 0z" fill="#db9a42"/><path d="m290.7 337.38c-.86-1.7-1.72-9.92-6.06-10a6.46 6.46 0 0 0 -5.67 3.52c-1.14 2.09-1.63 4.5-2.87 6.54-.88 1.44-2.11 2.65-2.85 4.17a14.64 14.64 0 0 0 -1 5.74c-.18 4.05-.34 8.2.8 12.1a6.82 6.82 0 0 0 2.4 3.89c2.55 1.74 6.07.16 8.39-1.89a23.79 23.79 0 0 0 6.86-24.07z" fill="#0a0b09"/><path d="m101.19 264s-9.54-24 3.11-45.91c0 0 12.56-18.83 37.67 2.16l-9.05 31-18.73 17.9z" fill="#ffbf1c"/><path d="m268.7 343.16c-3.29 1.25-6.75 1.13-10.19.79-3.25-.33-6.48-.81-9.69-1.41a132.33 132.33 0 0 1 -18.39-4.84 164.28 164.28 0 0 1 -35-17c-23-14.58-42.53-33.93-60.63-54.15-5.18-5.8-10.27-11.68-15.33-17.6-5.24-6.12-10.7-12.14-15.38-18.71-1.11-1.56-3.72-.06-2.59 1.52 4.26 6 9.16 11.48 13.92 17.05q6.83 8 13.77 15.93c9.37 10.62 19 21 29.35 30.71 19.56 18.36 41.78 34.3 67.06 43.72a136.15 136.15 0 0 0 21.13 6q5.5 1.08 11.09 1.68c3.89.42 7.91.59 11.64-.83 1.78-.68 1-3.58-.8-2.89z" fill="#0a0b09"/><rect fill="#0099c1" height="57.54" rx="12" transform="matrix(-.68097653 .73230524 -.73230524 -.68097653 480.08 332.39)" width="30.21" x="152.53" y="241.99"/><rect fill="none" height="45.71" rx="11.92" stroke="#ffbf1c" stroke-miterlimit="10" stroke-width=".5" transform="matrix(-.68097653 .73230524 -.73230524 -.68097653 480.08 332.39)" width="23.84" x="155.72" y="247.9"/><path d="m275.16 126.21c-.78 4.59-4.69 8.16-9 9.86s-9.11 1.85-13.77 2l-24.34.71c-7.18.21-14.47.44-21.35 2.53-11.69 3.56-21.34 12.43-27.3 23.09s-8.47 23-8.8 35.2a89.7 89.7 0 0 1 5.64-44.83c2.6-6.47 6-12.74 11.09-17.54 11.77-11.23 29.67-12.34 45.91-12.64 14.06-.25 28.27-.35 42 2.72" fill="#db9a42"/><path d="m273.71 125.81c-.78 4.13-4 7.18-7.82 8.74-4.72 2-10 1.9-15 2l-16.64.49c-5.35.15-10.73.2-16.07.65a53.21 53.21 0 0 0 -14.44 3 45.09 45.09 0 0 0 -11.36 6.34 54.79 54.79 0 0 0 -16.2 20.29c-4.74 10.06-6.77 21.16-7.09 32.23h3a88.9 88.9 0 0 1 1.6-31.81c2.28-9.66 6-19.88 12.66-27.4 12.52-14.08 33.39-14.1 50.75-14.35 12.63-.18 25.37 0 37.75 2.72 1.88.42 2.69-2.47.8-2.89-11.39-2.52-23.08-3-34.71-2.87-9.83.07-19.77.11-29.49 1.76-9.09 1.54-18.07 4.79-24.91 11.15-7.5 7-11.77 17-14.58 26.66a91.38 91.38 0 0 0 -2.87 37c.24 1.86 3 2 3 0 .54-18.54 6.43-37.83 21.5-49.7a41.92 41.92 0 0 1 11.13-6.34 52.92 52.92 0 0 1 14.64-2.9c5.36-.39 10.76-.44 16.13-.6l16.39-.48c5.42-.16 11-.3 16-2.64 4.2-2 7.82-5.66 8.7-10.32.36-1.89-2.53-2.7-2.89-.8z" fill="#db9a42"/><path d="m196.23 261.73a226.87 226.87 0 0 1 -18.81-39.8c-2.5-7-4.93-14.14-6.1-21.49a82.67 82.67 0 0 1 .07-22.44c1.6-13.45 6.3-26.92 15.87-36.81a41.44 41.44 0 0 1 15.16-10.19c7.1-2.66 14.86-3.82 22.34-4.72a166 166 0 0 1 51.78 1.91c1.88.37 2.69-2.52.79-2.89a168.33 168.33 0 0 0 -47.78-2.52 138.73 138.73 0 0 0 -23 3.77 45.65 45.65 0 0 0 -18 9.33c-10.53 9-16.55 22-19.09 35.41a99.4 99.4 0 0 0 -1.69 22.9c.35 7.72 2.34 15.12 4.73 22.43a230.62 230.62 0 0 0 21.19 46.6 1.5 1.5 0 0 0 2.59-1.52z" fill="#ffd4a2"/><path d="m138.88 216.91s11 1.13 39.62 31.16.32-10.26.32-10.26l-24.7-32.95z" fill="#d8d27e"/><path d="m136.3 168.12 16.64 34.07 38.89 55.9s-31.91-65.73-21.41-90.58c0 0 7.72-33.21 33.13-40.2-6.27 1.7-17.43-.16-23.67 1.67a65.24 65.24 0 0 0 -8.94 3.12 68.62 68.62 0 0 0 -9.22 5.47c-7.83 5.23-15.95 10.78-20.49 19a58.27 58.27 0 0 0 -2.91 6.5l-2 5" fill="#ffd4a2"/><path d="m135 168.87 9.46 19.39 5.73 11.74a26.6 26.6 0 0 0 1.75 3.4l10.9 15.67 17.16 24.61c3.47 5 6.87 10 10.39 14.93.06.08.11.16.16.24a1.5 1.5 0 0 0 2.59-1.52c-2.4-4.95-4.58-10-6.69-15.08a291.3 291.3 0 0 1 -11.92-33.79 143.66 143.66 0 0 1 -3.94-18.09 58.68 58.68 0 0 1 -.44-15.77 55.82 55.82 0 0 1 2.1-8.06 71.26 71.26 0 0 1 3.61-9.92c4.84-10.82 12.33-21.2 23.41-26.19a34.1 34.1 0 0 1 4.7-1.67 1.51 1.51 0 0 0 -.8-2.9c-4.66 1.22-9.73.69-14.51.73a44.72 44.72 0 0 0 -7.4.54 47.28 47.28 0 0 0 -8.3 2.52c-5.75 2.19-10.81 5.77-15.84 9.24a68.2 68.2 0 0 0 -12.65 10.63 34.85 34.85 0 0 0 -5.27 7.8c-1.64 3.37-2.93 6.92-4.32 10.4-.72 1.79 2.18 2.57 2.89.8 2.25-5.62 4.23-11.41 8.17-16.12a59.7 59.7 0 0 1 11.86-10.34c4.83-3.38 9.79-7.05 15.3-9.26a52.54 52.54 0 0 1 8.2-2.63 34.06 34.06 0 0 1 6.61-.57c5.3-.08 10.87.5 16.06-.84l-.8-2.9c-12.68 3.56-21.92 13.69-27.87 25a80 80 0 0 0 -5.3 12.63c-.34 1.06-.64 2.12-.93 3.18s-.83 2.31-1.15 3.5a45.79 45.79 0 0 0 -.91 15.35 115.84 115.84 0 0 0 3.14 18.2 263.11 263.11 0 0 0 11.85 35.55q2.63 6.53 5.49 13a59.37 59.37 0 0 0 2.92 6.33 2.55 2.55 0 0 1 .13.29l2.59-1.52-8.62-12.37-17.08-24.54-12.34-17.75a17.73 17.73 0 0 1 -1.45-2.45l-4.93-10.08-10.89-22.32-.22-.45c-.85-1.73-3.44-.22-2.59 1.51z" fill="#ffd4a2"/><path d="m117.39 210c-3.82.26-9.48 3.21-11.73 6.32a44.61 44.61 0 0 0 -8.3 20.68c-1.82 14.21 3.26 28.31 8.4 41.69 4.62 12 9.39 24.12 16.24 35 5.15 8.23 11.47 15.8 15.41 24.67s5.15 19.74 0 28a24.42 24.42 0 0 1 -6.84 7 30.14 30.14 0 0 1 -29.25 2.58c-8-3.7-14-10.75-19.33-17.79-11.49-15.09-21.77-31.3-28.49-49s-9.79-37.15-6.69-55.91a44.23 44.23 0 0 1 4.19-13.57 43.12 43.12 0 0 1 6.33-8.67c8.07-8.92 18.88-16.34 30.9-16.58z" fill="#ffd4a2"/><path d="m117.39 208.46a19.67 19.67 0 0 0 -9.29 3.54c-2.95 2-4.88 4.88-6.62 8a46.92 46.92 0 0 0 -6 23.07c0 8.72 2.2 17.3 5 25.51s6 16.26 9.31 24.21a148.66 148.66 0 0 0 11.51 22.61c4.39 6.87 9.51 13.3 13.28 20.56 3.43 6.58 5.69 14.3 4.44 21.76s-6.41 13.45-13.3 16.69a28.88 28.88 0 0 1 -21.27 1.17c-7.2-2.43-12.83-7.94-17.59-13.67a221.82 221.82 0 0 1 -14.38-19.69 190.18 190.18 0 0 1 -12.37-21.56c-7.38-15.19-12.32-31.76-13-48.72a80.78 80.78 0 0 1 2.58-25.06c2.28-7.9 7.48-14.22 13.5-19.65 5.5-4.94 12-9 19.29-10.6 2.16-.47 4.32-.47 6.48-.79l3.38-.52 23.66-3.64 1.81-.28c1.9-.29 1.1-3.18-.8-2.89l-20.33 3.13c-2.86.44-5.77 1.1-8.66 1.34a43.19 43.19 0 0 0 -8 1.18 41.58 41.58 0 0 0 -10.33 4.54 61.2 61.2 0 0 0 -17.09 15.7c-5.15 6.89-7 15.2-7.94 23.6-1.9 17.19 1.12 34.73 7.14 50.85 5.9 15.83 14.59 30.46 24.47 44.11 4.62 6.37 9.33 13 15.25 18.2 5.76 5.11 12.67 8.45 20.43 8.86a31.36 31.36 0 0 0 20.83-6.46 24.79 24.79 0 0 0 9.55-19.56c.24-16.86-12.13-29.44-20.24-43a167.22 167.22 0 0 1 -11.27-23.49c-3.31-8.2-6.63-16.48-9.13-25s-4.1-17.51-2.69-26.41a43.17 43.17 0 0 1 3.43-11.39c1.52-3.28 3.39-7 6.21-9.35a16.8 16.8 0 0 1 8.76-3.9c1.9-.17 1.92-3.17-.01-3z" fill="#ffd4a2"/><path d="m184.71 248c-10.44-11.71-21.43-23.08-34.28-32.19a100.93 100.93 0 0 0 -20.54-11.3 38.48 38.48 0 0 0 -12.72-3.2 21.91 21.91 0 0 0 -10.72 2.4c-6.37 3.19-10.94 9.25-13.56 15.74-3.19 7.92-2.81 16.81-1.39 25.08 1.5 8.57 4.06 17.03 6.5 25.47 2.35 8.18 4.92 16.3 8 24.23a147.64 147.64 0 0 0 11.29 23.17c4.54 7.44 9.81 14.41 14.76 21.57 1.23 1.8 2.45 3.6 3.64 5.43a3 3 0 1 0 5.18-3c-4.58-7.05-9.66-13.76-14.36-20.72a144.07 144.07 0 0 1 -12-21.61c-6.63-14.85-11-30.75-15.06-46.47-2.06-8-3.88-16.52-2.58-24.82a26.8 26.8 0 0 1 8.64-16.2 17.71 17.71 0 0 1 7.51-3.88c3.33-.78 7.18-.16 10.68.94a82.9 82.9 0 0 1 20 9.84c12.46 8.1 23.09 18.69 33.06 29.62q1.89 2.08 3.77 4.18a3 3 0 0 0 4.24-4.24z" fill="#ffbf1c"/><path d="m197.18 260.92c-8.84-9.92-18-19.62-27.71-28.67-9.94-9.25-20.69-18.43-32.92-24.51-6.79-3.38-14.57-6.23-22.23-4.68-6.86 1.4-12.55 6.34-16.21 12.13-9.39 14.81-4.11 33.05.19 48.63 4.48 16.33 9.48 32.66 17.37 47.71 1 1.88 2 3.73 3.09 5.56 2 3.33 7.15.31 5.18-3-8.2-13.95-13.44-29.31-17.88-44.8-2.28-7.94-4.69-15.95-6.18-24.08-1.37-7.47-1.72-15.49 1.16-22.66 2.15-5.36 6.31-10.48 11.8-12.77a16.35 16.35 0 0 1 9-.92 37.63 37.63 0 0 1 6.07 1.67c.77.28 1.53.57 2.29.87l.42.17c-.07 0-.34-.14 0 0l1 .43c11.63 5.28 21.72 13.63 31.1 22.13a388.79 388.79 0 0 1 27.54 28c.93 1 1.85 2.05 2.77 3.08a3 3 0 0 0 4.24-4.24z" fill="#ffbf1c"/><path d="m277.24 325.63a404.29 404.29 0 0 1 -51-35.67c-16.17-13.1-31.6-27.08-46.83-41.26-7.35-6.84-14.55-13.88-22.19-20.41-7.28-6.22-15.12-12-23.92-15.88-4.62-2-9.59-3.88-14.71-3.91a19.25 19.25 0 0 0 -11.59 4.26c-3.55 2.72-5.86 7.09-7.65 11.1a47 47 0 0 0 -3.78 14.14c-1.16 10.74 1.54 21.49 5 31.56s7.39 20.1 11.84 29.79a134.91 134.91 0 0 0 7.37 14c2.61 4.3 5.56 8.38 8.39 12.54 5.43 8 10.57 16.66 10.94 26.57a23.08 23.08 0 0 1 -3 12.84 24.21 24.21 0 0 1 -10.42 9.08 28.65 28.65 0 0 1 -26-.79c-8.37-4.69-14.26-12.87-19.84-20.46a222.71 222.71 0 0 1 -16.55-25.81c-9.92-18.32-16.58-38.83-16.38-59.86.1-10.12 1.22-21.42 7-30a57.53 57.53 0 0 1 9.7-10.68 49.07 49.07 0 0 1 11.57-7.66 32.53 32.53 0 0 1 12.86-3.12c1.93 0 1.94-3 0-3-9.47.25-18.09 4.62-25.26 10.57a64.06 64.06 0 0 0 -10.1 10.52 37.27 37.27 0 0 0 -6.48 13.77c-5.12 20.57-1.56 43 6 62.52 7.41 19.18 18.78 37 31.73 52.91 5.88 7.22 13 13.91 22.4 16a31.69 31.69 0 0 0 26.13-5.59 24.52 24.52 0 0 0 8.21-11 28.91 28.91 0 0 0 1.18-13.66c-1.34-9.93-6.73-18.43-12.3-26.52-3-4.29-5.94-8.56-8.55-13.09a151 151 0 0 1 -7.19-14.4c-2.18-4.94-4.16-10-6.1-15s-3.92-10.19-5.55-15.39c-3.22-10.25-5.21-21.2-2.67-31.82a43.47 43.47 0 0 1 5.85-13.64 15.3 15.3 0 0 1 4.26-4.62 19.17 19.17 0 0 1 5.83-2.72c4.82-1.28 10.15.59 14.61 2.37a73.85 73.85 0 0 1 12.78 6.8c8.23 5.4 15.54 12.06 22.72 18.77 15.43 14.41 30.84 28.86 46.92 42.55a472.69 472.69 0 0 0 50.16 37.82q6.48 4.15 13.13 8a1.5 1.5 0 0 0 1.51-2.59z" fill="#0a0b09"/><path d="m239.06 122.21c-17.94.36-36.31.33-53.84 4.63a65.75 65.75 0 0 0 -13.22 4.63c-1.74.84-.22 3.43 1.51 2.59 7.56-3.68 16-5.38 24.31-6.54a250.43 250.43 0 0 1 27.36-2c4.62-.14 9.25-.21 13.87-.31 1.93 0 1.93-3 0-3z" fill="#ffd4a2"/><path d="m211.34 123.87q-7.68 1.2-15.25 3c-1.88.44-1.08 3.34.8 2.9q7.58-1.77 15.25-3a1.53 1.53 0 0 0 1.05-1.85 1.54 1.54 0 0 0 -1.85-1z" fill="#ffd4a2"/><path d="m276.88 125.75a138 138 0 0 0 -46.25-2.36c-14.18 1.69-29.12 5.11-40.79 13.76a44.37 44.37 0 0 0 -12.64 14c-3.61 6.53-4.93 14-6.19 21.29-1.31 7.5-2.18 15.13-1.55 22.75a84.16 84.16 0 0 0 4.9 21.58 165.09 165.09 0 0 0 10.47 22.63c2 3.74 4.1 7.43 6.18 11.14 1.08 1.92 2.16 3.84 3.22 5.77.53 1 1.06 1.93 1.58 2.9l.67 1.24.44.84c.31.92 1 .8 2-.37l.44 1.06v-.18c.07-1.93-2.93-1.93-3 0a1.88 1.88 0 0 0 2.8 1.63c1.87-1 .56-3.21-.12-4.49-1.78-3.33-3.62-6.63-5.47-9.92-3.77-6.71-7.57-13.42-10.94-20.35-6.58-13.56-11.23-28.15-10.27-43.37a124.23 124.23 0 0 1 3.78-23.15 38.67 38.67 0 0 1 9.5-17.43c10-10.47 24.39-15 38.3-17.4a134.82 134.82 0 0 1 52.11 1.29c1.88.41 2.69-2.48.8-2.9z" fill="#e6c84b"/><path d="m200.72 261.48a103.49 103.49 0 0 1 -14.48-26.17c-3.7-9.39-7.41-18.87-10-28.62a89.35 89.35 0 0 1 -2.84-14.84 85.82 85.82 0 0 1 .11-15.54c.74-8.65 2.17-17.67 6.87-25.15a37.94 37.94 0 0 1 7-7.76 47.82 47.82 0 0 1 8.18-6.42c1.69-.94.18-3.53-1.51-2.59a46.79 46.79 0 0 0 -7.69 5.91 53.81 53.81 0 0 0 -6.42 6.3c-5.81 7.22-8 16.59-9 25.6a102.36 102.36 0 0 0 -.81 15.25 83 83 0 0 0 2.05 15.55c2.31 10.2 6.12 20 9.85 29.75a148 148 0 0 0 7.21 16.54 97.45 97.45 0 0 0 9.36 14.33c1.18 1.52 3.29-.62 2.12-2.12z" fill="#e6c84b"/><text font-family="MyriadPro-Regular, Myriad Pro" font-size="10.95" transform="matrix(.77 .64 -.64 .77 150.92 260.57)"><tspan letter-spacing=".01em">I</tspan><tspan letter-spacing="0em" x="2.73" y="0">n</tspan><tspan x="8.76" y="0">tuiti</tspan><tspan letter-spacing="-.01em" x="27.17" y="0">v</tspan><tspan x="32.33" y="0">e</tspan></text><g fill="#914a2e"><path d="m370.24 115.67v3a1.54 1.54 0 0 0 .44 1.06 1.52 1.52 0 0 0 1.06.44 1.5 1.5 0 0 0 1.06-.44 1.54 1.54 0 0 0 .44-1.06v-3a1.5 1.5 0 0 0 -1.5-1.5 1.56 1.56 0 0 0 -1.06.44 1.58 1.58 0 0 0 -.44 1.06z"/><path d="m364.42 139.26-.94 3.08a1.56 1.56 0 0 0 .15 1.16 1.52 1.52 0 0 0 .9.69 1.54 1.54 0 0 0 1.15-.15 1.58 1.58 0 0 0 .69-.9l.94-3.08a1.56 1.56 0 0 0 -.15-1.16 1.52 1.52 0 0 0 -.9-.69 1.54 1.54 0 0 0 -1.15.15 1.58 1.58 0 0 0 -.69.9z"/><path d="m118.48 236.86.15.19-.24-.31a5.45 5.45 0 0 1 .65 1.12l-.15-.36a5.12 5.12 0 0 1 .31 1.08 1.14 1.14 0 0 0 .27.51 1.21 1.21 0 0 0 .42.39 1.52 1.52 0 0 0 1.16.15 1.5 1.5 0 0 0 .89-.69l.16-.36a1.55 1.55 0 0 0 0-.8 6.5 6.5 0 0 0 -1.5-3 1.11 1.11 0 0 0 -.49-.31 1 1 0 0 0 -.57-.13 1.5 1.5 0 0 0 -1.06.44 1.46 1.46 0 0 0 -.44 1.06v.4a1.49 1.49 0 0 0 .39.66z"/><path d="m123.82 275.12 1.17.39a1.22 1.22 0 0 0 .6 0 1.09 1.09 0 0 0 .55-.18 1 1 0 0 0 .42-.39 1 1 0 0 0 .27-.51l.06-.4a1.42 1.42 0 0 0 -.21-.75l-.23-.31a1.57 1.57 0 0 0 -.66-.38l-1.18-.39a1 1 0 0 0 -.59 0 1.12 1.12 0 0 0 -.56.18 1 1 0 0 0 -.42.38 1.06 1.06 0 0 0 -.27.51l-.06.4a1.55 1.55 0 0 0 .21.76l.23.3a1.47 1.47 0 0 0 .67.39z"/><path d="m244.6 295.56 1.4 2.06a1.13 1.13 0 0 0 .39.42 1 1 0 0 0 .51.27 1.22 1.22 0 0 0 .6 0 1.16 1.16 0 0 0 .56-.18 1.52 1.52 0 0 0 .69-.9 1.5 1.5 0 0 0 -.16-1.15l-1.4-2.06a1.13 1.13 0 0 0 -.39-.42 1 1 0 0 0 -.51-.27 1.12 1.12 0 0 0 -.6 0 1.09 1.09 0 0 0 -.55.18 1.5 1.5 0 0 0 -.54 2.05z"/><path d="m266.36 337.72 1.82.61a1.22 1.22 0 0 0 .6 0 1.12 1.12 0 0 0 .56-.18 1.31 1.31 0 0 0 .42-.39 1.14 1.14 0 0 0 .27-.51 1.49 1.49 0 0 0 -.15-1.15l-.24-.31a1.51 1.51 0 0 0 -.66-.38l-1.82-.61a1.22 1.22 0 0 0 -.6 0 1.16 1.16 0 0 0 -.56.18 1.12 1.12 0 0 0 -.42.39 1.14 1.14 0 0 0 -.27.51 1.54 1.54 0 0 0 .16 1.15l.23.31a1.57 1.57 0 0 0 .66.38z"/><path d="m270.43 251.25-1.24 1.8a1.12 1.12 0 0 0 -.18.56 1.08 1.08 0 0 0 0 .59 1.14 1.14 0 0 0 .27.51 1.12 1.12 0 0 0 .42.39 1.52 1.52 0 0 0 1.16.15l.36-.15a1.55 1.55 0 0 0 .54-.54l1.24-1.79a1.16 1.16 0 0 0 .18-.56 1.11 1.11 0 0 0 0-.6 1.14 1.14 0 0 0 -.27-.51 1.31 1.31 0 0 0 -.42-.39 1.56 1.56 0 0 0 -1.16-.15l-.36.15a1.74 1.74 0 0 0 -.54.54z"/><path d="m272.89 201.49-1.89 3.59a1.54 1.54 0 0 0 -.15 1.15 1.49 1.49 0 0 0 .69.9 1.52 1.52 0 0 0 2.05-.54l1.92-3.59a1.54 1.54 0 0 0 .15-1.15 1.5 1.5 0 0 0 -2.74-.36z"/></g><path d="m219.18 184.12c-3.56 5.52 1.16 13.91 7.86 13a9 9 0 0 0 7.27-6.5 7.58 7.58 0 0 0 -3.35-8.29c-2.75-1.83-6.77-2.14-9.48-.07a1.54 1.54 0 0 0 -.54 2.05 1.51 1.51 0 0 0 2.05.54 6.2 6.2 0 0 1 .73-.49l.39-.19c-.28.12.15-.06.17-.06a5.91 5.91 0 0 1 .69-.19s.49-.09.17 0a5.48 5.48 0 0 1 .57-.05 6.37 6.37 0 0 1 2.78.55c.24.12.48.24.71.38l.31.2s.39.29.16.11a7.12 7.12 0 0 1 .64.58 2.09 2.09 0 0 1 .2.22l.19.21c-.09-.11-.08-.1 0 0a6.36 6.36 0 0 1 .45.74s.19.45.08.17c0 .09.07.18.1.27a4.07 4.07 0 0 1 .22 1.69 6.56 6.56 0 0 1 -.36 1.5 6.85 6.85 0 0 1 -1 1.55 6.18 6.18 0 0 1 -2.83 1.94 4.38 4.38 0 0 1 -3.2-.14c.27.11-.17-.09-.18-.1s-.26-.14-.38-.22-.25-.16-.37-.24c0 0 .19.15 0 0a7.45 7.45 0 0 1 -.65-.61c-.1-.1-.2-.22-.29-.33s0 .08-.13-.17a8.24 8.24 0 0 1 -.54-.9c-.07-.13-.13-.26-.19-.4.1.23-.06-.15-.08-.2a7.25 7.25 0 0 1 -.29-1l-.09-.44c.05.28 0-.13 0-.19a4.92 4.92 0 0 1 .79-3.35 1.51 1.51 0 0 0 -.54-2 1.53 1.53 0 0 0 -2 .54z" fill="#fff"/><path d="m11.94 358.47c-3.56 5.52 1.17 13.91 7.87 13a9 9 0 0 0 7.27-6.5 7.59 7.59 0 0 0 -3.35-8.29c-2.75-1.83-6.77-2.14-9.49-.08a1.57 1.57 0 0 0 -.54 2.06 1.53 1.53 0 0 0 2.06.54 5.17 5.17 0 0 1 .73-.49l.38-.19c-.27.12.16-.06.18-.06a5 5 0 0 1 .69-.19s.49-.09.16-.05h.58a6.25 6.25 0 0 1 2.78.55 6.94 6.94 0 0 1 .71.38l.3.2s.39.29.17.11c.22.18.44.38.64.58l.2.21.18.22a6.87 6.87 0 0 1 .44.74s.2.45.09.17l.09.27a3.77 3.77 0 0 1 .22 1.69 6.08 6.08 0 0 1 -.36 1.5 6.31 6.31 0 0 1 -3.78 3.49 4.44 4.44 0 0 1 -3.2-.14c.27.11-.16-.09-.17-.1s-.26-.14-.38-.22l-.37-.24c.05 0 .19.15-.05 0a7.34 7.34 0 0 1 -.64-.61l-.29-.33c-.21-.25 0 .07-.13-.17a8.24 8.24 0 0 1 -.54-.9l-.2-.4c.11.23-.06-.15-.07-.2a9 9 0 0 1 -.3-1c0-.14-.06-.29-.08-.44.05.28 0-.13 0-.19a4.86 4.86 0 0 1 .78-3.35 1.52 1.52 0 0 0 -.53-2.05 1.54 1.54 0 0 0 -2.06.54z" fill="#fff"/><path d="m125.64 52.05a12.39 12.39 0 0 0 11.23-9.68c.24-1.21.54-2.74 1.74-3a2.11 2.11 0 0 1 2.18 1.63 20 20 0 0 1 .44 2.91c.63 3.35 4 5.47 7.34 6.32a7.73 7.73 0 0 1 3 1.15 2.12 2.12 0 0 1 .57 2.87 2.85 2.85 0 0 1 -1.36.75c-2.28.77-4.7 1.47-6.41 3.17-2.18 2.17-2.72 5.45-4.09 8.21a2 2 0 0 1 -.67.85c-.76.44-1.74-.28-2-1.12a9.55 9.55 0 0 1 -.05-2.62c0-2.48-1.8-4.65-3.91-6a35.87 35.87 0 0 0 -6.87-2.8c-.64-.24-1.36-.59-1.48-1.25s-.22-.93.3-1.38" fill="#fff"/><path d="m330 299.32a12.37 12.37 0 0 0 11.22-9.67c.24-1.21.54-2.75 1.75-3a2.1 2.1 0 0 1 2.18 1.58 21.57 21.57 0 0 1 .43 2.9c.63 3.36 4 5.48 7.35 6.32a7.6 7.6 0 0 1 3 1.16 2.11 2.11 0 0 1 .56 2.87 3 3 0 0 1 -1.35.75c-2.28.76-4.7 1.47-6.41 3.16-2.19 2.17-2.72 5.45-4.1 8.21a1.91 1.91 0 0 1 -.67.86c-.76.44-1.74-.29-2-1.13a9.49 9.49 0 0 1 -.05-2.61c0-2.48-1.81-4.66-3.91-6a36.23 36.23 0 0 0 -6.88-2.8c-.63-.23-1.35-.58-1.48-1.24s-.21-.93.31-1.39" fill="#fff"/><path d="m461.13 315.93v.05.07c-.13-.05-.02-.22 0-.12z" fill="#ffbf1c"/><path d="m469.7 265.31a17.84 17.84 0 0 0 -7.37-2.46 13.41 13.41 0 0 0 -12.45 6.56c-2.5 4-3.33 9-3.4 13.66v2.7a16.1 16.1 0 0 0 -9.8-1.42c-5.73 1.18-8.32 6.58-9 11.89-.71 5.68.21 11.71 1.14 17.32a100.72 100.72 0 0 0 4.84 18.14q1.66 4.49 3.71 8.82a3 3 0 0 0 4.1 1.07 3.07 3.07 0 0 0 1.08-4.1 96 96 0 0 1 -8.55-30.37 70 70 0 0 1 -.48-7.38 16.81 16.81 0 0 1 .76-5.71 6.9 6.9 0 0 1 .92-1.92 4.74 4.74 0 0 1 1.37-1.34c1.77-1.07 3.9-.73 5.8-.14a21 21 0 0 1 4.81 2.24c.41 2.83 1 5.63 1.65 8.36a82.16 82.16 0 0 0 2.67 8.82c1 2.85 2.05 6 3.79 8.53s4.34 4 7.33 3.31c2.45-.59 4-2.92 4.65-5.21 1.38-5-.91-10.28-3.33-14.61a40.29 40.29 0 0 0 -10.83-12.3l-.28-.21c-.19-1.77-.32-3.55-.35-5.33a30.29 30.29 0 0 1 .37-5.51 20.57 20.57 0 0 1 1.48-5 13.31 13.31 0 0 1 1.26-2.12c.09-.09.44-.5.53-.59s.89-.82.76-.73a6.63 6.63 0 0 1 4.53-1.51 10.71 10.71 0 0 1 5.21 1.63 20.9 20.9 0 0 1 2.4 1.66 42.62 42.62 0 0 0 2.67 15.17 43.28 43.28 0 0 0 4 8.27c1.65 2.55 3.9 4.9 7 5.3h.24v-6.12l-.26-.17c-1.75-1.2-2.8-3.58-3.73-5.43a37.8 37.8 0 0 1 -3.25-9.42c.17.24.33.49.49.73q2.21 3.33 4.1 6.86c.91 1.71 1.88 3.46 2.65 5.27v-12.71a58.93 58.93 0 0 0 -6.08-8.4c-.59-.67-1.2-1.32-1.85-1.94a17.83 17.83 0 0 1 2-7.55 8.61 8.61 0 0 1 5.89-4.26v-6.09a15.4 15.4 0 0 0 -6.7 2.56c-3.73 2.69-5.61 6.79-6.49 11.18zm-8.6 50.77h.07s0 0 0 0zm.13.07h.07zm-1-8a24.63 24.63 0 0 1 1.14 3.22 7.15 7.15 0 0 1 .24 1s0 .93 0 1.12-.08.82-.06.82c-.07.34-.17.67-.24 1a.5.5 0 0 0 0 .12s0 0 0 0l-.22.4s0 0 0 0l-.08.08-.16-.11a5.88 5.88 0 0 1 -1.32-2 61.24 61.24 0 0 1 -2.81-7.05 81.06 81.06 0 0 1 -2.26-7.81 33.58 33.58 0 0 1 5.82 9.21z" fill="#ffbf1c"/><path d="m0 163.85c-.65-.55-1.31-1.08-2-1.59h-.05c.08.7.18 1.39.29 2.08.41 2.61.94 5.2 1.6 7.75a.8.8 0 0 1 .15.17 35.25 35.25 0 0 1 5.55 8.7 27.1 27.1 0 0 1 1 2.66c.12.4.22.8.33 1.2v.13s0 0 0 0c0 .28 0 .55.05.83a9 9 0 0 1 0 1 0 0 0 0 0 0 0c0 .11-.1.62-.14.75a6.21 6.21 0 0 1 -.2.61s0 0 0 0l-.07.14-.14-.08a2.74 2.74 0 0 1 -.45-.45 10.12 10.12 0 0 1 -.74-1.19 53.79 53.79 0 0 1 -2.88-6.56c-.88-2.4-1.65-4.85-2.3-7.32v17.14a12.7 12.7 0 0 0 1 1.47c1.67 2.26 4.43 3.84 7.29 3a6.91 6.91 0 0 0 4.39-5.2c1.22-5-1.11-10.13-3.56-14.4a40.83 40.83 0 0 0 -9.12-10.84zm6.6 24.63h.07c.11.18-.05.02-.07 0z" fill="#020202"/><path d="m59.16 147.43c-6.08-9.08-13.25-19.38-24.69-21.72-4.86-1-10.31-.64-14.39 2.44-3.43 2.58-5.14 6.39-5.93 10.45a17.61 17.61 0 0 0 -7.54-2.48 12.21 12.21 0 0 0 -6.61 1.36v7.82l.21-.3a.73.73 0 0 1 .09-.13s0 0 0 0l.35-.39a6.64 6.64 0 0 1 .86-.82c.13-.08.61-.43.73-.5l.51-.28.38-.17a8.9 8.9 0 0 1 2.24-.43 10.43 10.43 0 0 1 5.63 1.4 19.89 19.89 0 0 1 2.59 1.79 42.63 42.63 0 0 0 3.08 15.53c2 5 5.28 12.73 11.6 13a5.78 5.78 0 0 0 6.26-5.12c.26-3.12-1.84-6.42-3.22-9.11a71.37 71.37 0 0 0 -10-15.23c-.54-.6-1.11-1.2-1.7-1.77a17.82 17.82 0 0 1 1.56-6.67 7.92 7.92 0 0 1 3.6-3.83 11.19 11.19 0 0 1 4.74-1.08c8.67-.15 15.51 6.6 20.49 13.43 1.39 1.91 2.71 3.86 4 5.82a3 3 0 0 0 5.18-3zm-30.6 20.91a.87.87 0 0 1 0 .13c-.03-.02-.03-.07 0-.13zm.25-.32c.09-.16.48.08 0 0zm-8.13-14.43a75.76 75.76 0 0 1 7.52 13.56s.16.49.27.86h-.19.07c-.41-.05 0 .11-.48-.18-1.73-1-2.77-3.14-3.68-4.82a39.17 39.17 0 0 1 -3.69-9.69z" fill="#020202"/><path d="m442.05 371.55s0 0 0 0z" fill="#fff"/><path d="m483 350.7v6l-.21-.06a8.77 8.77 0 0 0 -.89 0h-.11c-.14 0-.29.07-.11 0l-.18.05-.54.18a3.23 3.23 0 0 0 -.41.22l-.16.1s0 0 0 0h-.06l-.11.09-.38.37-.1.12s0 0 0 0a1.74 1.74 0 0 1 -.11.18l-.16.29a.06.06 0 0 0 0 0v.07c-.07.24-.14.47-.19.7v.06s0 0 0 0a1.48 1.48 0 0 0 0 .21v.45q-.3 6.3-.58 12.6a18 18 0 0 1 -.59 5 9.3 9.3 0 0 1 -8.58 6.21 10.49 10.49 0 0 1 -5.6-1.78q-3.1-1.84-6.26-3.59c-4.21-2.34-8.49-4.53-12.81-6.66a3.73 3.73 0 0 0 -1.76-.44h-.23l-.31.06-.24.07-.16.06a2.8 2.8 0 0 0 -1.29 1 0 0 0 0 1 0 0 .21.21 0 0 1 -.05.09c-.08.12-.15.25-.22.37a1.52 1.52 0 0 0 -.11.2l-.14.42-.09.36v.26s0 .37 0 .55c0 .11.21.7.19.7a7.91 7.91 0 0 0 .77 1.25l4.09 6.05q4.06 6.08 8 12.2a13.93 13.93 0 0 1 2.57 5.41 9.43 9.43 0 0 1 -.92 5.79c-2.18 4.3-6.75 4.79-10.91 5.66l-13 2.73-1.41.3-.82.21h-.13l-.27.15-.37.22c-.15.15-.49.52-.52.52-.12.18-.23.37-.34.55a1.73 1.73 0 0 1 -.11.17.65.65 0 0 1 0 .11c-.05.28-.14.55-.2.83a3.84 3.84 0 0 1 0 .48v.32c.08.26.14.53.22.79a.66.66 0 0 1 0 .13s0 0 0 0a.7.7 0 0 1 .12.15l.29.45.06.05c.08.07.39.34.49.44l.61.34c.31.15.63.26 1 .38 2.29.91 4.59 1.79 6.89 2.66s4.62 1.71 6.93 2.53a43.94 43.94 0 0 1 6.63 2.47 9.26 9.26 0 0 1 4.42 9.77c-.4 2.11-1.68 3.74-2.86 5.46s-2.37 3.44-3.54 5.17a6.61 6.61 0 0 0 -.37.55 4.91 4.91 0 0 0 -.28.5 1.24 1.24 0 0 0 -.06.2c0 .14-.07.29-.12.43a.64.64 0 0 1 0 .07v.89s.15.61.19.74a.64.64 0 0 0 0 .07v.07l.25.44a.47.47 0 0 1 .06.1s0 0 0 0l.18.21a4.57 4.57 0 0 0 .45.43h.06c.09.06.54.28.59.33.22.07.63.18.68.21.35.06.71.07 1.07.11l5.34.52 13.66 1.34c1 .1 1.95.18 2.92.29a9.3 9.3 0 0 1 8.35 7.17 13.8 13.8 0 0 1 -.31 5.47c-.39 1.95-.78 3.89-1.16 5.84l-2.49 12.48c-.06.3-.13.6-.18.9a3.33 3.33 0 0 0 .84 2.56 3.22 3.22 0 0 0 2.78 1 23.22 23.22 0 0 0 2.41.13v6.14c-2.59.58-5.16.78-7.71-.69a9.31 9.31 0 0 1 -4.37-9.94c.21-1.16.46-2.31.69-3.46l2.76-13.89c.22-1.11.51-2.23.67-3.36a3.34 3.34 0 0 0 -2.63-3.56c-3.51-.58-7.15-.7-10.69-1.05q-5.93-.57-11.86-1.16a9.57 9.57 0 0 1 -6.85-3.34 9.23 9.23 0 0 1 -.71-10.69c.92-1.47 2-2.88 2.94-4.31l1.89-2.74c.16-.25.33-.49.5-.74l.06-.08c.05-.09.43-.81.44-.78.07-.25.21-.86.21-.72a4.13 4.13 0 0 0 0-.93c0-.06-.16-.56-.19-.66a.09.09 0 0 1 0-.05 0 0 0 0 1 0 0c-.09-.18-.19-.35-.29-.52a2.8 2.8 0 0 0 -1.11-1 24.24 24.24 0 0 0 -2.64-1q-7.11-2.54-14.11-5.25c-2.14-.83-4.42-1.49-6.23-2.94a8.85 8.85 0 0 1 -2.74-3.89 9.38 9.38 0 0 1 1.68-9.15c2.57-3.08 7.08-3.38 10.76-4.15l12.78-2.69c.4-.08.81-.16 1.21-.27a3.25 3.25 0 0 0 1.95-1.72 2.93 2.93 0 0 0 .28-1.6 4.14 4.14 0 0 0 -.59-1.53c-1.3-2.15-2.73-4.23-4.11-6.33q-4.07-6.21-8.24-12.36c-1.26-1.86-2.48-3.57-2.79-5.85a9 9 0 0 1 1.09-5.62 9.23 9.23 0 0 1 9.71-4.55c2.23.4 4.36 1.78 6.36 2.78 2.22 1.12 4.43 2.27 6.61 3.45s4.36 2.4 6.52 3.64c1.11.64 2.2 1.32 3.31 1.95l.44.23.11.05c.12 0 .69.15.69.17h.7a5.2 5.2 0 0 0 .86-.23c.09-.08.6-.34.69-.39l.09-.07.05-.05h.05a2.73 2.73 0 0 0 .25-.23 3.19 3.19 0 0 0 .85-2c.21-4.05.38-8.09.57-12.13a40.39 40.39 0 0 1 .31-4.67 9.08 9.08 0 0 1 9.78-7.37z" fill="#fff"/></svg>