<svg viewBox="0 0 332.97 439.5" xmlns="http://www.w3.org/2000/svg"><path d="m-.03.5h333v439h-333z" fill="#ef525f"/><path d="m331.32 437v2.53h-330.12c0-.84 0-1.68 0-2.53a165.07 165.07 0 0 1 330.14 0z" fill="#d93e40"/><path d="m144.21 399.51-26.54-10.81-23.42-4.71-2.7-95.53 30.6-41.72 22.06 46.45z" fill="#f2af3e"/><path d="m121.57 222.43s-6.22 29.33-10 38.78l12.28-11z" fill="#f2af3e"/><g fill="#f7d248"><path d="m124 260.16c-1.89-5.49-2.46-8.87-2.41-11 1.05 5.76 2.2 10.26 2.41 11z"/><path d="m244.8 375.89-100.59 23.63-5.08-100.93-8.76-22.95c-3-6.4-5-11.43-6.35-15.37a.06.06 0 0 1 0 0 .14.14 0 0 0 0-.06c-.19-.74-1.34-5.24-2.41-11-2-10.5-3.63-25.11 1.37-28.31 6-4.67 60.9-7.59 76.1-9.75a3.8 3.8 0 0 1 4.3 3.25l5.09 17.45 34.3 47.15z"/><path d="m124 260.27a.12.12 0 0 1 0 0 .06.06 0 0 0 0 0z"/></g><path d="m91.55 288.46s24.16-34.6 28.13-58.28v34.47z" fill="#f2af3e"/><path d="m161.46 295.35c14.83-2.38 29.61-5.12 44.42-7.66 3.61-.62 7.23-1.24 10.85-1.82 1.9-.31 1.09-3.2-.8-2.89-14.84 2.38-29.61 5.12-44.42 7.66-3.62.62-7.23 1.24-10.85 1.82-1.9.3-1.1 3.19.8 2.89z"/><path d="m227.6 283.06 10.34-1.58a1.51 1.51 0 0 0 1.05-1.84 1.54 1.54 0 0 0 -1.85-1.05l-10.33 1.58a1.5 1.5 0 0 0 -1.05 1.84 1.53 1.53 0 0 0 1.84 1.05z"/><path d="m222.76 383.08c4.68-1.19 9.34-2.5 14-3.95 2.31-.72 4.61-1.46 6.89-2.26.92-.33 1.76-.62 2.15-1.6a8.91 8.91 0 0 0 .14-3.34l-.56-30c0-1.93-3-1.94-3 0l.52 27.73.07 3.47v1l.33-.34a7.31 7.31 0 0 1 -1.83.62q-3.21 1.08-6.44 2.09-6.47 2-13 3.65c-1.87.48-1.08 3.37.8 2.9z"/><path d="m116.17 274.36v114.34a1.5 1.5 0 0 0 3 0v-114.34a1.5 1.5 0 0 0 -3 0z" fill="#020202" opacity=".81"/><circle cx="201.19" cy="333.98" fill="#d93e40" r="26.02"/><rect fill="#ef525f" height="10.2" rx="5.1" transform="matrix(.99220196 -.12464058 .12464058 .99220196 -26.97 22.5)" width="47.82" x="142.35" y="221.57"/><circle cx="201.19" cy="333.98" fill="#ec2737" opacity=".99" r="24.46"/><path d="m200 332.66a48.19 48.19 0 0 0 -1.62-9.07 1.75 1.75 0 0 0 -2.1-1.33h-.07a1.9 1.9 0 0 0 -1.18 2.34 34 34 0 0 1 1.22 5.9 1.19 1.19 0 0 1 -2.34.47 1.23 1.23 0 0 1 0-.2l-.83-7.19a2 2 0 0 0 -1.67-1.8 1.81 1.81 0 0 0 -1.84 1.77 1.84 1.84 0 0 0 0 .33l.84 7.29a1.26 1.26 0 0 1 -1.05 1.42 1.24 1.24 0 0 1 -1.33-1.15 35.51 35.51 0 0 1 -.15-6 1.88 1.88 0 0 0 -1.67-2 1.74 1.74 0 0 0 -1.82 1.66v.11a48.49 48.49 0 0 0 .38 8.6 8.51 8.51 0 0 0 4.51 6.5 3.81 3.81 0 0 1 2.08 2.79l.68 4.28a2 2 0 0 0 2.16 1.79 2 2 0 0 0 1.71-2.23l-.29-4.17a3.71 3.71 0 0 1 1.45-3.16 8.06 8.06 0 0 0 2.93-6.95z" fill="#fff"/><path d="m208.8 319.78c-4.73.54-6.28 7.9-5.75 12.58a7.4 7.4 0 0 0 4 5.64 3.55 3.55 0 0 1 1.91 2.55l.77 4.8a2 2 0 0 0 4-.43l-.32-4.85a3.53 3.53 0 0 1 1.28-2.91 7.41 7.41 0 0 0 2.59-6.39c-.58-4.71-3.76-11.53-8.48-10.99z" fill="#fff"/><path d="m95.75 384c0-24.82-1.76-49.59-2.54-74.38-.22-6.85-.37-13.69-.37-20.54a1.5 1.5 0 0 0 -3 0c0 24.81 1.76 49.59 2.55 74.38.21 6.84.36 13.69.36 20.54a1.5 1.5 0 0 0 3 0z" fill="#020202"/><path d="m190.13 210.12a8.72 8.72 0 0 0 7.9-6.82c.17-.85.38-1.93 1.23-2.11a1.48 1.48 0 0 1 1.53 1.11 12.84 12.84 0 0 1 .31 2c.45 2.36 2.85 3.86 5.18 4.45a5.46 5.46 0 0 1 2.13.81 1.5 1.5 0 0 1 .4 2 2 2 0 0 1 -1 .52 11.24 11.24 0 0 0 -4.51 2.23c-1.54 1.53-1.92 3.84-2.88 5.79a1.35 1.35 0 0 1 -.48.6c-.53.31-1.22-.2-1.4-.79a6.73 6.73 0 0 1 0-1.85 5.36 5.36 0 0 0 -2.75-4.2 26 26 0 0 0 -4.85-2c-.44-.16-.95-.41-1-.88s-.17-.53.22-1" fill="#fff"/><path d="m132.76 373.24a8.72 8.72 0 0 0 7.9-6.82c.17-.85.38-1.93 1.23-2.11a1.49 1.49 0 0 1 1.54 1.11 13.87 13.87 0 0 1 .3 2.05c.45 2.36 2.85 3.85 5.18 4.45a5.46 5.46 0 0 1 2.13.81 1.49 1.49 0 0 1 .4 2 2.08 2.08 0 0 1 -.95.53 11.22 11.22 0 0 0 -4.52 2.23c-1.54 1.53-1.92 3.84-2.88 5.78a1.35 1.35 0 0 1 -.48.6c-.53.31-1.22-.2-1.39-.79a6.65 6.65 0 0 1 0-1.84 5.33 5.33 0 0 0 -2.75-4.2 26 26 0 0 0 -4.85-2c-.44-.17-1-.41-1-.88s-.17-.54.22-1" fill="#fff"/><path d="m309.88 307.23c0 14.78-21.73 26.16-25.73 39.54-4.18 14 7.51 35.47-.34 47.2-8.05 12-32.37 9.26-43.53 18.09s-14.31 33.22-27.9 38c-13.26 4.68-30.77-12.22-45.51-12.22s-32.26 16.9-45.51 12.22c-13.59-4.8-16.67-29.13-27.91-38s-35.45-6.06-43.53-18.06c-7.85-11.72 3.85-33.19-.33-47.19-4-13.38-25.74-24.76-25.74-39.54s21.74-26.16 25.74-39.55c4.18-14-7.52-35.47.33-47.19 8.06-12 32.38-9.26 43.53-18.09s14.32-33.22 27.91-38c13.25-4.68 30.76 12.21 45.51 12.21s32.25-16.89 45.51-12.21c13.59 4.8 16.66 29.13 27.9 38s35.48 6.06 43.53 18.09c7.85 11.72-3.84 33.2.34 47.19 4 13.35 25.73 24.73 25.73 39.51z" fill="none" stroke="#f7d248" stroke-miterlimit="10" stroke-width="3.5"/><path d="m299.58 307.23c0 13.63-21.57 23.91-25.25 36.26-3.86 12.91 8.31 33.37 1.07 44.19-7.43 11.1-31 7.51-41.28 15.65s-12.47 32-25 36.41c-12.24 4.32-28.65-12.74-42.25-12.74s-30 17.09-42.25 12.77c-12.53-4.42-14.63-28.21-25-36.41s-33.85-4.55-41.29-15.65c-7.24-10.82 4.94-31.28 1.08-44.19-3.69-12.35-25.26-22.63-25.26-36.26s21.57-23.95 25.26-36.26c3.86-12.91-8.32-33.38-1.08-44.19 7.44-11.11 31-7.51 41.29-15.66s12.47-32 25-36.41c12.23-4.32 28.65 12.77 42.25 12.77s30-17.09 42.24-12.77c12.54 4.43 14.64 28.21 25 36.41s33.85 4.55 41.28 15.66c7.24 10.81-4.93 31.28-1.07 44.19 3.68 12.31 25.26 22.59 25.26 36.23z" fill="none" stroke="#f7d248" stroke-miterlimit="10" stroke-width="3.5"/><path d="m318.37 307.23c0 15.72-21.88 28-26.13 42.24-4.45 14.89 6.85 37.2-1.5 49.67-8.57 12.8-33.51 10.71-45.38 20.1s-15.84 34.24-30.29 39.34c-14.1 5-32.52-11.75-48.2-11.75s-34.1 16.73-48.2 11.75c-14.46-5.1-18.34-29.88-30.29-39.34s-36.81-7.3-45.39-20.1c-8.35-12.47 2.95-34.78-1.49-49.66-4.26-14.24-26.13-26.48-26.13-42.25s21.87-28 26.13-42.25c4.44-14.89-6.86-37.2 1.49-49.67 8.58-12.8 33.52-10.71 45.39-20.1s15.83-34.23 30.29-39.34c14.1-5 32.51 11.75 48.2 11.75s34.1-16.73 48.2-11.75c14.45 5.11 18.34 29.88 30.29 39.34s36.81 7.3 45.38 20.1c8.35 12.47-2.95 34.78 1.5 49.67 4.25 14.23 26.13 26.53 26.13 42.25z" fill="none" stroke="#f7d248" stroke-miterlimit="10" stroke-width="3.5"/><path d="m325.68 312.61-11.37 20.88c-2.33 4.28-11.38 3.87-20.22-.94s-14.09-12.18-11.76-16.47l11.37-20.88z"/><ellipse cx="309.69" cy="303.9" fill="#fafafa" rx="8.84" ry="18.21" transform="matrix(.47807879 -.87831695 .87831695 .47807879 -105.29 430.62)"/><ellipse cx="309.69" cy="303.9" fill="#86bd41" rx="5.02" ry="10.34" transform="matrix(.47807879 -.87831695 .87831695 .47807879 -105.29 430.62)"/><path d="m62.33 203.06 11.86 20.61c2.44 4.23-2.65 11.73-11.37 16.74s-17.75 5.65-20.19 1.42l-11.86-20.6z"/><ellipse cx="46.55" cy="212.14" fill="#fafafa" rx="18.21" ry="8.84" transform="matrix(.86672269 -.49879031 .49879031 .86672269 -99.62 51.5)"/><ellipse cx="46.55" cy="212.14" fill="#86bd41" rx="10.34" ry="5.02" transform="matrix(.86672269 -.49879031 .49879031 .86672269 -99.62 51.5)"/></svg>