<svg viewBox="0 0 333.5 440.93" xmlns="http://www.w3.org/2000/svg"><path d="m.5 0h333v440.5h-333z" fill="#a3cf62"/><path d="m331.32 437.74v2.53h-330.12c0-.84 0-1.68 0-2.53a165.07 165.07 0 0 1 330.14 0z" fill="#86bd41"/><path d="m114.63 216.25v-81.17a4.29 4.29 0 0 1 7.71-2.58l47 62.34a4.3 4.3 0 0 0 5.64 1.09l114.09-68.88a.57.57 0 0 1 .77.8l-41.34 78.23a3.71 3.71 0 0 1 -4.85 1.63 24.32 24.32 0 0 1 -3.91-2.07h40.76a4.29 4.29 0 0 1 4.19 5.18l-8.69 41.07c0 .21.15-1.17.4-2.58a3.72 3.72 0 0 1 3.31-3l54.22-5.1a.57.57 0 0 1 .54.94l-42.68 47.72c-.23.26 3.44-4.13 5.68-6.59a3.72 3.72 0 0 1 3.69-1.09l32.84 8.59a.56.56 0 0 1 .35 1l-41.69 32.62a4.3 4.3 0 0 0 -1.48 4.59l16.82 57.41a4.29 4.29 0 0 1 -5.37 5.31l-50.33-15.36a4.28 4.28 0 0 0 -5.45 3.27l-13.34 67.51a4.3 4.3 0 0 1 -6.28 2.93l-88.3-48.78a4.33 4.33 0 0 0 -3.45-.31l-116.18 39.3a.57.57 0 0 1 -.65-.86l38.83-69.87a3.71 3.71 0 0 1 6.72.47c0 .13.06.2 0 .18l-53.53-25.57a4.29 4.29 0 0 1 -.65-7.35l26-18.66a4.28 4.28 0 0 0 -.83-7.42l-45.93-19.54a4.28 4.28 0 0 1 .08-7.92l57.07-22.89a4.29 4.29 0 0 0 1.16-7.27l-44.27-37a4.29 4.29 0 0 1 3.2-7.57l103.37 11.49a4.29 4.29 0 0 0 4.76-4.24z" fill="#faf8f8"/><path d="m121.3 230.89v-81.46a.48.48 0 0 1 .86-.29l47.08 62.42a.47.47 0 0 0 .63.12l98.82-59.68a.48.48 0 0 1 .65.67l-42.73 65a.48.48 0 0 0 .41.74h38.3a.48.48 0 0 1 .47.58l-8.14 38.5a.48.48 0 0 0 .56.57l48.38-9.63a.48.48 0 0 1 .45.79l-36.04 40.33a.48.48 0 0 0 .36.8h35.24a.48.48 0 0 1 .3.85l-36.9 28.88a.48.48 0 0 0 -.17.51l16.49 56.13a.48.48 0 0 1 -.6.59l-51.44-15.68a.47.47 0 0 0 -.61.36l-12.77 64.67a.49.49 0 0 1 -.71.33l-79.58-44a.46.46 0 0 0 -.38 0l-99.46 33.65a.48.48 0 0 1 -.55-.72l38.69-57.78a.49.49 0 0 0 -.19-.7l-50-23.9a.48.48 0 0 1 -.07-.82l30.75-22.12a.48.48 0 0 0 -.1-.83l-50.94-21.66a.48.48 0 0 1 0-.89l60.16-24.12a.48.48 0 0 0 .13-.82l-49.42-41.28a.47.47 0 0 1 .36-.84l101.18 11.24a.48.48 0 0 0 .53-.51z" fill="#ea1b34" stroke="#020202" stroke-miterlimit="10" stroke-width="3"/><g fill="#d61335"><circle cx="203.12" cy="236.54" r="6.65"/><circle cx="221.64" cy="249.84" r="6.65"/><circle cx="242.94" cy="243.19" r="6.65"/><circle cx="215.96" cy="206" r="6.65"/><circle cx="249.59" cy="271.81" r="6.65"/><circle cx="190.48" cy="215.75" r="6.65"/><circle cx="236.29" cy="340.65" r="6.65"/><circle cx="260.59" cy="303.5" r="6.65"/><circle cx="198.31" cy="376.58" r="6.65"/><circle cx="82.84" cy="337.37" r="6.65"/><circle cx="132.24" cy="209.11" r="6.65"/><circle cx="140.69" cy="190.08" r="6.65"/><circle cx="93.51" cy="258.18" r="6.65"/><circle cx="73.52" cy="290.95" r="6.65"/><circle cx="183.92" cy="390.85" r="3.37"/><circle cx="219.33" cy="379.4" r="3.37"/><circle cx="249.59" cy="355.55" r="3.37"/><circle cx="260.59" cy="337.37" r="3.37"/><circle cx="283.9" cy="299.41" r="3.37"/><circle cx="269.25" cy="355.55" r="3.37"/><circle cx="275.4" cy="268.08" r="3.37"/><circle cx="222.7" cy="230.38" r="3.37"/><circle cx="128.96" cy="170.8" r="3.37"/><circle cx="254.86" cy="227.01" r="3.37"/><circle cx="233.01" cy="190.08" r="3.37"/><circle cx="86.21" cy="382.68" r="3.37"/><circle cx="68.12" cy="233.17" r="3.37"/><circle cx="93.51" cy="236.54" r="3.37"/><circle cx="77.49" cy="251.1" r="3.37"/><circle cx="34.81" cy="290.03" r="3.37"/><circle cx="59.76" cy="281.83" r="3.37"/><circle cx="64.75" cy="326.13" r="3.37"/><circle cx="48.08" cy="334" r="3.37"/><circle cx="68.12" cy="387.48" r="3.37"/><circle cx="58.22" cy="403.98" r="3.37"/><circle cx="204.96" cy="394.22" r="3.37"/><circle cx="215" cy="409.07" r="3.37"/><circle cx="109.3" cy="376.58" r="6.65"/><circle cx="93.51" cy="365.57" r="6.65"/><circle cx="173.9" cy="376.03" r="6.65"/></g><ellipse cx="176.39" cy="300.61" fill="#050505" rx="48.97" ry="30.65" transform="matrix(.93028958 -.36682598 .36682598 .93028958 -97.97 85.65)"/><path d="m304.85 371.5s-.91 16-17 9.31c0 0-10.44 4.79-15.17-2.64 0 0-4.46-6 1.45-13.08 0 0-6.42-11.71 7.8-15.36 0 0 5.41-13.21 18.37-4 0 0 5.54 3.15 4.41 10.83-.01-.03 8.98 7.44.14 14.94z" fill="#faf8f8"/><path d="m305.09 356.37c1.17-7.88-4.52-11.11-4.52-11.11-13.3-9.43-18.86 4.14-18.86 4.14-14.6 3.74-8 15.75-8 15.75-6.07 7.24-1.48 13.44-1.48 13.44 4.85 7.62 15.56 2.71 15.56 2.71 16.54 6.85 17.47-9.56 17.47-9.56 9.06-7.74-.17-15.37-.17-15.37zm-.24 15.13s-.91 16-17 9.31c0 0-10.44 4.79-15.17-2.64 0 0-4.46-6 1.45-13.08 0 0-6.42-11.71 7.8-15.36 0 0 5.41-13.21 18.37-4 0 0 5.54 3.15 4.41 10.83-.01-.03 8.98 7.44.14 14.94z"/><path d="m304.85 371.5s-.91 16-17 9.31c0 0-10.44 4.79-15.17-2.64 0 0-4.46-6 1.45-13.08 0 0-6.42-11.71 7.8-15.36 0 0 5.41-13.21 18.37-4 0 0 5.54 3.15 4.41 10.83-.01-.03 8.98 7.44.14 14.94z" fill="#faf8f8" stroke="#020202" stroke-miterlimit="10" stroke-width="2"/><path d="m277.1 362.15s9.12 3.4 12.79-6.67c0 0-1.9 9.8 6.54 12.25 0 0-8.71-1.63-12.12 7.08 0 0 1.23-8.81-7.21-12.66z" fill="#1a1a1a"/><path d="m279.16 150.61s-.8 14.09-15 8.21c0 0-9.21 4.21-13.37-2.33 0 0-3.94-5.33 1.27-11.54 0 0-5.66-10.32 6.88-13.54 0 0 4.77-11.65 16.2-3.55 0 0 4.89 2.78 3.89 9.55-.03 0 7.97 6.59.13 13.2z" fill="#faf8f8"/><path d="m279.37 137.27c1-7-4-9.8-4-9.8-11.73-8.31-16.62 3.65-16.62 3.65-12.88 3.3-7.07 13.89-7.07 13.89-5.35 6.38-1.3 11.84-1.3 11.84 4.27 6.73 13.72 2.4 13.72 2.4 14.58 6 15.4-8.43 15.4-8.43 8.01-6.82-.13-13.55-.13-13.55zm-.21 13.34s-.8 14.09-15 8.21c0 0-9.21 4.21-13.37-2.33 0 0-3.94-5.33 1.27-11.54 0 0-5.66-10.32 6.88-13.54 0 0 4.77-11.65 16.2-3.55 0 0 4.89 2.78 3.89 9.55-.03 0 7.97 6.59.13 13.2z" fill="#1a1a1a"/><path d="m279.16 150.61s-.8 14.09-15 8.21c0 0-9.21 4.21-13.37-2.33 0 0-3.94-5.33 1.27-11.54 0 0-5.66-10.32 6.88-13.54 0 0 4.77-11.65 16.2-3.55 0 0 4.89 2.78 3.89 9.55-.03 0 7.97 6.59.13 13.2z" fill="#faf8f8" stroke="#020202" stroke-miterlimit="10" stroke-width="2"/><path d="m254.69 142.36s8 3 11.28-5.88c0 0-1.68 8.64 5.76 10.8 0 0-7.68-1.44-10.68 6.24 0 0 1.08-7.8-6.36-11.16z" fill="#1a1a1a"/><ellipse cx="163.63" cy="236.63" fill="#050505" rx="56.08" ry="45.21"/><circle cx="227.04" cy="281.84" fill="#050505" r="41.7"/><ellipse cx="202.24" cy="329.84" fill="#050505" rx="41.7" ry="26.1" transform="matrix(.93028958 -.36682598 .36682598 .93028958 -106.89 97.17)"/><circle cx="138.49" cy="318.17" fill="#050505" r="41.7"/><circle cx="116.36" cy="272.5" fill="#050505" r="30.29"/><circle cx="224.75" cy="281.56" fill="#faf8f8" r="39.78"/><ellipse cx="201.1" cy="327.35" fill="#faf8f8" rx="39.78" ry="24.9" transform="matrix(.93028958 -.36682598 .36682598 .93028958 -106.05 96.57)"/><circle cx="140.28" cy="316.22" fill="#faf8f8" r="39.78"/><circle cx="119.17" cy="272.64" fill="#faf8f8" r="28.89"/><ellipse cx="163.63" cy="240.14" fill="#050505" rx="53.5" ry="43.12"/><ellipse cx="164.26" cy="238.43" fill="#faf8f8" rx="53.5" ry="43.12"/><path d="m163.63 283.26s16.08 14.15 14.26 26.51l-.95 6.45s9.76-11.21 21.47-14.68c0 0-16.45-9.76-11.8-22.45z" fill="#050505"/><path d="m78.66 224s-.91 16-17 9.31c0 0-10.44 4.79-15.16-2.64 0 0-4.47-6 1.45-13.08 0 0-6.42-11.71 7.8-15.36 0 0 5.41-13.21 18.37-4 0 0 5.54 3.15 4.41 10.83-.02-.06 8.97 7.39.13 14.94z" fill="#faf8f8"/><path d="m78.9 208.87c1.16-7.88-4.53-11.11-4.53-11.11-13.3-9.43-18.85 4.13-18.85 4.13-14.6 3.75-8 15.76-8 15.76-6.09 7.24-1.52 13.44-1.52 13.44 4.85 7.62 15.57 2.71 15.57 2.71 16.53 6.85 17.47-9.56 17.47-9.56 9.09-7.75-.14-15.37-.14-15.37zm-.24 15.13s-.91 16-17 9.31c0 0-10.44 4.79-15.16-2.64 0 0-4.47-6 1.45-13.08 0 0-6.42-11.71 7.8-15.36 0 0 5.41-13.21 18.37-4 0 0 5.54 3.15 4.41 10.83-.02-.06 8.97 7.39.13 14.94z" fill="#1a1a1a"/><path d="m78.66 224s-.91 16-17 9.31c0 0-10.44 4.79-15.16-2.64 0 0-4.47-6 1.45-13.08 0 0-6.42-11.71 7.8-15.36 0 0 5.41-13.21 18.37-4 0 0 5.54 3.15 4.41 10.83-.02-.06 8.97 7.39.13 14.94z" fill="#faf8f8" stroke="#020202" stroke-miterlimit="10" stroke-width="2"/><path d="m50.9 214.65s9.1 3.4 12.8-6.65c0 0-1.91 9.8 6.53 12.25 0 0-8.71-1.63-12.11 7.08 0-.02 1.22-8.87-7.22-12.68z" fill="#1a1a1a"/><path d="m170.2 339.22a39.59 39.59 0 0 1 9.85-26.51c1.27-1.44-.84-3.57-2.12-2.12a42.7 42.7 0 0 0 -10.73 28.63 1.5 1.5 0 0 0 3 0z"/></svg>