<svg xmlns="http://www.w3.org/2000/svg" viewBox="0 0 483 516"><defs><style>.cls-1{fill:#33b9d9;}.cls-2,.cls-7{fill:#fff;}.cls-3{fill:#066bcf;}.cls-4{fill:#4cb9d3;}.cls-5{fill:#aeaeae;}.cls-6,.cls-7{stroke:#020202;stroke-miterlimit:10;}.cls-8{fill:#cbcbcb;}</style></defs><g id="Layer_1" data-name="Layer 1"><rect class="cls-1" width="483" height="516"/><path class="cls-2" d="M255.9,37.82c-3.56,5.51,1.17,13.91,7.87,13a9.08,9.08,0,0,0,7.27-6.5,7.6,7.6,0,0,0-3.35-8.3c-2.75-1.83-6.77-2.13-9.49-.07a1.55,1.55,0,0,0-.54,2.05,1.51,1.51,0,0,0,2.06.54,5.11,5.11,0,0,1,.73-.48l.38-.2c-.27.13.16-.05.18-.06a7,7,0,0,1,.69-.19s.49-.08.16,0a3.77,3.77,0,0,1,.58,0,6.25,6.25,0,0,1,2.78.54c.24.12.48.25.71.39l.3.19s.39.29.17.12a7,7,0,0,1,.64.58l.2.21.18.22,0,0a6.87,6.87,0,0,1,.44.74s.2.44.09.17l.09.27a3.72,3.72,0,0,1,.22,1.68,6,6,0,0,1-.36,1.51,6.39,6.39,0,0,1-.95,1.55,6.2,6.2,0,0,1-2.83,1.94,4.44,4.44,0,0,1-3.2-.14c.27.11-.16-.1-.17-.1l-.39-.22L260,47c.05,0,.19.16,0,0a7.34,7.34,0,0,1-.64-.61l-.29-.33c-.21-.26,0,.07-.13-.18a7.27,7.27,0,0,1-.54-.89c-.07-.13-.14-.27-.2-.41.11.24-.06-.15-.07-.19a9,9,0,0,1-.3-1c0-.15-.06-.29-.08-.44,0,.28,0-.14,0-.2a4.85,4.85,0,0,1,.78-3.34,1.5,1.5,0,1,0-2.59-1.51Z"/><path class="cls-2" d="M421.78,316c-3.56,5.51,1.17,13.91,7.87,13a9.06,9.06,0,0,0,7.27-6.5,7.6,7.6,0,0,0-3.35-8.3c-2.75-1.83-6.77-2.13-9.49-.07a1.54,1.54,0,0,0-.53,2.05,1.5,1.5,0,0,0,2.05.54,6.13,6.13,0,0,1,.73-.48l.38-.2c-.27.13.16-.05.18-.06a7,7,0,0,1,.69-.19s.49-.08.17,0a5.27,5.27,0,0,1,.57,0,6.25,6.25,0,0,1,2.78.54c.24.12.48.25.71.39l.3.2s.39.29.17.11a5.88,5.88,0,0,1,.64.58l.2.21.18.22,0,0a6.87,6.87,0,0,1,.44.74s.2.44.09.17l.09.27a3.74,3.74,0,0,1,.22,1.68,6,6,0,0,1-.36,1.51,6.39,6.39,0,0,1-.95,1.55,6.2,6.2,0,0,1-2.83,1.94,4.44,4.44,0,0,1-3.2-.14c.27.11-.16-.1-.17-.1s-.26-.14-.38-.22l-.37-.25s.19.16-.05,0a7.34,7.34,0,0,1-.64-.61l-.29-.33c-.21-.26,0,.07-.13-.17a8.24,8.24,0,0,1-.54-.9c-.07-.13-.14-.27-.2-.41.11.24-.06-.15-.07-.19a9,9,0,0,1-.3-1c0-.15-.06-.29-.08-.44.05.28,0-.14,0-.2a4.85,4.85,0,0,1,.78-3.34,1.5,1.5,0,1,0-2.59-1.51Z"/><rect x="111.83" y="110.32" width="188.21" height="231.94" rx="33.6" transform="translate(-58.61 72.56) rotate(-17.53)"/><rect class="cls-2" x="101.52" y="113.59" width="188.21" height="232.43" rx="33.6" transform="translate(-60.14 69.62) rotate(-17.53)"/><rect class="cls-3" x="123.59" y="151.77" width="150.58" height="180.95" transform="translate(-63.74 71.17) rotate(-17.53)"/><rect class="cls-4" x="106.77" y="157.46" width="150.58" height="63.1" transform="translate(-48.48 63.63) rotate(-17.53)"/><path class="cls-2" d="M150.39,186.75H252.84A27.29,27.29,0,0,1,280.13,214V335.95a0,0,0,0,1,0,0H126.43a0,0,0,0,1,0,0V210.72A24,24,0,0,1,150.39,186.75Z" transform="translate(-69.29 73.39) rotate(-17.53)"/><rect class="cls-5" x="132.07" y="242.78" width="28.61" height="10.89" rx="5.45" transform="translate(-67.98 55.63) rotate(-17.53)"/><rect class="cls-5" x="162.87" y="233.05" width="28.61" height="10.89" rx="5.45" transform="translate(-63.62 64.46) rotate(-17.53)"/><rect class="cls-5" x="194.22" y="223.14" width="28.61" height="10.89" rx="5.45" transform="translate(-59.18 73.44) rotate(-17.53)"/><rect class="cls-5" x="225.37" y="213.3" width="28.61" height="10.89" rx="5.45" transform="translate(-54.77 82.37) rotate(-17.53)"/><rect class="cls-5" x="153.21" y="282.74" width="57.18" height="35.73" rx="12" transform="translate(-82.12 68.74) rotate(-17.53)"/><rect class="cls-5" x="220.17" y="261.58" width="57.18" height="35.73" rx="12" transform="translate(-72.63 87.93) rotate(-17.53)"/><rect class="cls-5" x="136.51" y="256.58" width="64" height="5.97" rx="2.99" transform="translate(-70.37 62.83) rotate(-17.53)"/><rect class="cls-5" x="138.48" y="258" width="126.45" height="5.97" rx="2.99" transform="translate(-69.26 72.9) rotate(-17.53)"/><rect class="cls-3" x="151.24" y="171.31" width="48.35" height="12.92" rx="6.46" transform="translate(-45.41 61.11) rotate(-17.53)"/><rect class="cls-3" x="231.74" y="151.68" width="11.59" height="12.92" rx="5.8" transform="translate(-36.61 78.91) rotate(-17.53)"/><rect class="cls-3" x="112.88" y="189.24" width="11.59" height="12.92" rx="5.8" transform="translate(-53.44 44.85) rotate(-17.53)"/><rect class="cls-6" x="219.08" y="137.9" width="188.21" height="231.94" rx="33.6" transform="translate(42.81 -45.19) rotate(8.86)"/><rect class="cls-7" x="208.28" y="136.22" width="188.21" height="232.43" rx="33.6" transform="translate(42.47 -43.54) rotate(8.86)"/><rect class="cls-3" x="224.48" y="174.55" width="150.58" height="180.95" transform="translate(44.37 -42.99) rotate(8.86)"/><rect class="cls-3" x="233.07" y="178.31" width="150.58" height="63.1" transform="translate(35.98 -44.97) rotate(8.86)"/><path class="cls-2" d="M241.49,209.74H348.7A27.29,27.29,0,0,1,376,237V358.93a0,0,0,0,1,0,0H217.53a0,0,0,0,1,0,0V233.7a24,24,0,0,1,24-24Z" transform="translate(47.31 -42.29) rotate(8.86)"/><rect class="cls-5" x="235.77" y="241.6" width="28.61" height="10.89" rx="5.45" transform="translate(41.01 -35.55) rotate(8.86)"/><rect class="cls-5" x="267.69" y="246.57" width="28.61" height="10.89" rx="5.45" transform="translate(42.16 -40.41) rotate(8.86)"/><rect class="cls-5" x="300.18" y="251.63" width="28.61" height="10.89" rx="5.45" transform="translate(43.32 -45.35) rotate(8.86)"/><rect class="cls-5" x="332.45" y="256.66" width="28.61" height="10.89" rx="5.45" transform="matrix(0.99, 0.15, -0.15, 0.99, 44.48, -50.26)"/><rect class="cls-5" x="232.87" y="264.05" width="64" height="5.97" rx="2.99" transform="translate(44.27 -37.59) rotate(8.86)"/><rect class="cls-5" x="230.99" y="276.09" width="64" height="5.97" rx="2.99" transform="translate(46.1 -37.16) rotate(8.86)"/><rect class="cls-5" x="228.84" y="289.91" width="64" height="5.97" rx="2.99" transform="translate(48.2 -36.66) rotate(8.86)"/><rect class="cls-5" x="221.02" y="316.64" width="126.45" height="5.97" rx="2.99" transform="translate(52.59 -39.95) rotate(8.86)"/><rect class="cls-2" x="283.23" y="190.38" width="48.35" height="12.92" rx="6.46" transform="translate(33.97 -44.98) rotate(8.86)"/><rect class="cls-2" x="365.98" y="200.41" width="11.59" height="12.92" rx="5.8" transform="translate(36.28 -54.77) rotate(8.86)"/><rect class="cls-2" x="242.81" y="181.22" width="11.59" height="12.92" rx="5.8" transform="translate(31.86 -36.03) rotate(8.86)"/><rect class="cls-8" x="307.41" y="281.84" width="42.99" height="18.77" rx="9.38" transform="translate(48.75 -47.16) rotate(8.86)"/><rect class="cls-5" x="331.48" y="283.7" width="18.77" height="18.77" rx="9.38" transform="translate(49.18 -48.98) rotate(8.86)"/></g><g id="Layer_2" data-name="Layer 2"><path class="cls-2" d="M38.5,340.42a12.39,12.39,0,0,0,11.22-9.68c.24-1.21.54-2.74,1.75-3a2.1,2.1,0,0,1,2.17,1.58,20,20,0,0,1,.44,2.91c.63,3.35,4,5.47,7.35,6.32a7.64,7.64,0,0,1,3,1.15,2.12,2.12,0,0,1,.56,2.87,2.87,2.87,0,0,1-1.35.75c-2.29.76-4.71,1.47-6.42,3.17-2.18,2.17-2.72,5.45-4.09,8.21a1.88,1.88,0,0,1-.67.85c-.76.44-1.74-.28-2-1.12a10,10,0,0,1,0-2.62c0-2.48-1.8-4.65-3.91-6a35.87,35.87,0,0,0-6.87-2.8c-.64-.24-1.35-.59-1.48-1.25s-.22-.93.31-1.38"/><path class="cls-2" d="M379.7,84.38a16.71,16.71,0,0,0,15.14-13.06c.32-1.63.73-3.7,2.35-4,1.3-.28,2.51.88,2.94,2.13a28.28,28.28,0,0,1,.59,3.92c.85,4.53,5.45,7.39,9.91,8.52a10.48,10.48,0,0,1,4.08,1.56c1.15.92,1.73,2.76.77,3.87a4,4,0,0,1-1.83,1c-3.08,1-6.35,2-8.65,4.27-2.95,2.92-3.67,7.35-5.52,11.07a2.59,2.59,0,0,1-.91,1.15c-1,.6-2.34-.38-2.68-1.51a13,13,0,0,1-.06-3.53c0-3.35-2.44-6.28-5.28-8s-6.13-2.63-9.27-3.78c-.86-.31-1.83-.78-2-1.68s-.29-1.25.42-1.86"/><path class="cls-3" d="M58.35,237.92c3.2-1.67,7.29-3.39,10.66-2.28,3.15,1,4.19,4.72,4.34,7.85a30.92,30.92,0,0,1-8.11,22c-.67.73-1.38,1.41-2.1,2.09a3.73,3.73,0,0,1-.36.32c.37-.3,0,0-.08.05a11,11,0,0,1-1.28.75s-.45.21-.19.1l-.34.13c-.38.13-.76.22-1.14.33l-.43.08c.53-.09.08,0,0,0h-.54s-.77-.1-.37,0-.11-.05-.2-.08c-.42-.14.44.24.06,0-.11-.07-.51-.18-.16-.09s0-.08,0-.08l.2.23-.12-.22c.47,0-.16.45,0,0-.06.15.15-.49.18-.57.81-1.86,2.69-3.48,4.06-4.94a77.28,77.28,0,0,1,21.17-16,27.93,27.93,0,0,1,10-3,19.14,19.14,0,0,1,2.73,0s.59.06.2,0l.65.11c.43.09.86.2,1.27.32a8.16,8.16,0,0,1,3.66,2.33c2.13,2.32,2.48,5.85,1.94,8.91a32.75,32.75,0,0,1-4.35,10.94,78.65,78.65,0,0,1-8.07,11.44,12.24,12.24,0,0,1-1.72,1.84c-.4.29-.58.1-.24.19s-.16-.16-.28-.32a1.67,1.67,0,0,1-.16-1.28,8.13,8.13,0,0,1,1.28-2.75,37.17,37.17,0,0,1,18-14.71c3.8-1.44,8.71-2.57,12.2-.93a12.82,12.82,0,0,1,6.18,6.76,18,18,0,0,1,1.26,9.8,38.79,38.79,0,0,1-4.63,12.78c-1.1,2.08-2.3,4.11-3.49,6.14-2,3.34,3.22,6.36,5.18,3,5.33-9.06,11-19.29,8.47-30.16a20.81,20.81,0,0,0-6.75-11.43c-4.44-3.59-9.86-4.35-15.37-3.18-10,2.14-19.1,8.82-25,17.07-1.67,2.33-3.18,4.87-3.34,7.8a7.25,7.25,0,0,0,3.9,6.77c3,1.41,5.89,0,7.94-2.23a79.58,79.58,0,0,0,5.44-6.84,62,62,0,0,0,7.8-13.74c1.73-4.46,2.68-9.64,1.34-14.33a14.28,14.28,0,0,0-9.74-9.73c-4.46-1.3-9.41-.59-13.74.87a56.51,56.51,0,0,0-13.41,7,86.66,86.66,0,0,0-12.58,10.27,66.37,66.37,0,0,0-5.43,5.94c-2,2.46-3.31,5.54-1.82,8.6,2.13,4.36,7.66,3.82,11.36,2.08a17.56,17.56,0,0,0,5.31-4.28A37.43,37.43,0,0,0,79.1,248.9c.61-4.79.47-10.38-2.4-14.49-3.29-4.72-8.84-5.84-14.21-4.54a32,32,0,0,0-7.17,2.87,3,3,0,0,0-1.08,4.1,3.06,3.06,0,0,0,4.11,1.08Z"/><path class="cls-3" d="M373.45,116.82a28.56,28.56,0,0,1-1,4.89c-.14.44-.28.87-.44,1.29a4.86,4.86,0,0,1-.36.81c-.17.34-.36.68-.55,1l-.35.54c-.07.09-.44.56-.21.28a5.3,5.3,0,0,1-3.8,2.21,9.61,9.61,0,0,1-5.16-1.23c-7-3.55-12.23-10.63-14.46-18-.29-1-.55-2-.75-3a9.42,9.42,0,0,1-.31-2.3,7.48,7.48,0,0,1,1-3.77c.26-.48.12-.19,0-.06.12-.14.24-.26.36-.39.28-.29.18,0,0,0l.11-.06c.19-.1.13-.09-.17,0l.11,0c.22-.06.15-.06-.2,0,0,0,.5.1.11,0s.35.16.17,0a4.14,4.14,0,0,1,.93,1.55c.37,1.06.64,2.17.92,3.25a78.09,78.09,0,0,1,2.29,14.49q.24,3.75.12,7.52c0,1.25-.1,2.5-.19,3.75-.05.54-.09,1.09-.15,1.64,0,.24,0,.48-.07.72s-.09.73,0,.35a35.55,35.55,0,0,1-1.16,5.28,20.22,20.22,0,0,1-1.9,4.51,11.93,11.93,0,0,1-2.82,3.59c-.15.13-.31.27-.47.39.33-.25-.07,0-.12.08-.34.22-.68.44-1,.63l-.55.28c.06,0,.34-.13,0,0a10.41,10.41,0,0,1-1.34.42,7.85,7.85,0,0,1-4.54-.25,13.18,13.18,0,0,1-4.15-2.5,30.56,30.56,0,0,1-6.92-9.57,78.34,78.34,0,0,1-5.21-13.39,12.46,12.46,0,0,1-.66-2.92s.16-.37.05-.2-.08.07.23,0c-.6,0,.88.12.28,0,.06,0,.53.18.17,0a3.78,3.78,0,0,1,.59.34,5.49,5.49,0,0,1,1.27,1.7,32.36,32.36,0,0,1,3.47,12.52,37.93,37.93,0,0,1-1.2,13.58c-1,3.62-2.8,7.26-6,9.06a13.24,13.24,0,0,1-9.53.89C302,154.93,297.17,148,293.52,141c-1-1.91-1.95-3.85-2.88-5.79a3,3,0,1,0-5.18,3c4.27,8.87,9.32,18.85,18.85,23a21.83,21.83,0,0,0,14.23,1.47,16.93,16.93,0,0,0,11-9.74c4.56-10.19,4.14-22.61-.13-32.8-1.05-2.51-2.4-5-4.84-6.45a7.2,7.2,0,0,0-7.44.13c-2.8,1.91-2.89,5.21-2.1,8.21a80.21,80.21,0,0,0,2.64,8.08c1.92,5,4.13,10.05,7.37,14.35,3,3.94,6.88,7.67,11.83,8.82a14.35,14.35,0,0,0,13-3.47c3.23-2.94,5.18-7.17,6.34-11.3a56.58,56.58,0,0,0,1.68-15.5,86.68,86.68,0,0,0-2-17.81c-1-4.57-2.27-12.16-8.37-12.18-5,0-7.36,5.68-7.46,10a23.55,23.55,0,0,0,1.22,7,39,39,0,0,0,2.93,7.11,36.65,36.65,0,0,0,9.37,11.34c4.3,3.43,9.86,6.5,15.54,5,4.78-1.27,7.66-5.51,9.06-10a35.78,35.78,0,0,0,1.25-6.65,3,3,0,0,0-3-3,3.06,3.06,0,0,0-3,3Z"/><path class="cls-2" d="M25.26,7.93h0s0-.08,0-.13S25.25,7.9,25.26,7.93Z"/><path class="cls-2" d="M166,14.27a9.31,9.31,0,0,1-10,4.36c-1.16-.21-2.31-.46-3.46-.69L138.7,15.18c-1.12-.22-2.24-.51-3.37-.67a3.32,3.32,0,0,0-3.55,2.63c-.58,3.51-.71,7.16-1.05,10.69-.39,4-.77,7.91-1.17,11.86a9.55,9.55,0,0,1-3.34,6.85,9.23,9.23,0,0,1-10.69.72c-1.47-.93-2.87-2-4.31-2.95-.91-.63-1.82-1.26-2.74-1.88l-.73-.5-.09-.06c-.08-.06-.78-.43-.78-.45-.22-.07-.72-.18-.72-.21a4.82,4.82,0,0,0-.93,0s-.56.16-.67.2l-.1,0h0a4.29,4.29,0,0,0-.5.29,2.64,2.64,0,0,0-1,1.11,23.78,23.78,0,0,0-1,2.63q-2.47,7.1-5.19,14.09c-.83,2.13-1.49,4.41-2.93,6.22a9,9,0,0,1-3.9,2.75,9.36,9.36,0,0,1-9.14-1.69c-3.08-2.57-3.38-7.08-4.16-10.75Q75.31,49.71,74,43.32c-.09-.41-.17-.82-.28-1.22a3.19,3.19,0,0,0-1.72-2,2.81,2.81,0,0,0-1.6-.27,4,4,0,0,0-1.53.58c-2.15,1.3-4.23,2.74-6.33,4.11q-6.21,4.08-12.36,8.24c-1.85,1.26-3.57,2.49-5.84,2.79a9.09,9.09,0,0,1-5.62-1.08,9.23,9.23,0,0,1-4.55-9.72c.4-2.23,1.77-4.36,2.78-6.36q1.68-3.33,3.45-6.61T44,25.32c.64-1.11,1.32-2.2,1.95-3.32.08-.14.17-.28.24-.43h0s0,0,0,0h0s0,0,0,0a.51.51,0,0,1,0-.09c0-.11.14-.62.17-.68h0c0-.2,0-.41,0-.61a.19.19,0,0,1,0-.08h0a5.24,5.24,0,0,0-.24-.86h0c-.08-.09-.34-.6-.39-.69l-.06-.09,0-.05a0,0,0,0,1,0,0h0l0,0L45.42,18a3.16,3.16,0,0,0-2-.85c-4-.2-8.09-.37-12.13-.56a42.92,42.92,0,0,1-4.67-.32,9.11,9.11,0,0,1-7.19-6.78,9.21,9.21,0,0,1,2.72-9L22.81,0h9c-1.78,1.56-3.56,3.12-5.31,4.71L26,5.26l-.17.19h0l-.14.22c-.06.11-.2.45-.26.55a0,0,0,0,0,0,0,4.5,4.5,0,0,0-.14.49s0,0,0,.06c0,.29,0,.57,0,.86h0a1.06,1.06,0,0,0,0,.19.43.43,0,0,0,0,0,0,0,0,0,0,0,0l0,.1c0,.13.19.52.19.57s.15.28.23.42l.15.23h0l0,0,.06.06.38.38.17.14h0l.18.11.28.17,0,0h0l.08,0,.7.19h.1l.2,0,.45,0,12.6.59a17.4,17.4,0,0,1,5,.59,9.28,9.28,0,0,1,6.2,8.57,10.49,10.49,0,0,1-1.78,5.6C49.4,27.92,48.21,30,47,32.11c-2.34,4.21-4.53,8.49-6.66,12.81a3.89,3.89,0,0,0-.44,1.77v.12a.1.1,0,0,0,0,0c0,.11.06.33.07.37l.06.24a.19.19,0,0,1,0,.07l0,0a.19.19,0,0,1,0,.07l0,.09a2.82,2.82,0,0,0,1,1.32h0l0,0,.06,0,.37.23a.74.74,0,0,1,.13.08h0a3,3,0,0,0,.48.16l.36.09h0l.26,0h.57c.1,0,.64-.19.7-.19a8.87,8.87,0,0,0,1.25-.76c2-1.37,4-2.74,6.05-4.09q6.06-4.06,12.2-8c1.71-1.1,3.35-2.26,5.41-2.57A9.4,9.4,0,0,1,75,35c4.3,2.17,4.79,6.74,5.67,10.91l2.73,13c.09.47.19.94.29,1.41.06.28.14.55.21.82a.25.25,0,0,1,0,.07,0,0,0,0,0,0,0c.05.1.1.2.16.3l.22.38,0,0h0a6.44,6.44,0,0,1,.52.51,6.42,6.42,0,0,0,.56.34l.16.11h0l.12,0,.81.21H87a1.38,1.38,0,0,0,.29,0h0l.8-.21.1,0a2.35,2.35,0,0,1,.19-.14l.42-.26s0,0,0,0l.06-.07.44-.48c.06-.12.3-.51.36-.63.15-.31.26-.63.39-1,.9-2.29,1.79-4.58,2.65-6.89s1.71-4.61,2.54-6.93a41.41,41.41,0,0,1,2.47-6.62,9.24,9.24,0,0,1,9.76-4.43c2.11.4,3.75,1.68,5.46,2.86l5.17,3.55c.19.12.37.25.56.36a3.9,3.9,0,0,0,.49.28l.2.06.44.12.07,0c.2,0,.76,0,.9,0h0l.72-.2.08,0,0,0h0c.15-.08.3-.16.44-.25l.17-.11,0,0,.22-.19c.14-.14.27-.26.4-.41v0s0,0,0,0l0-.06c.06-.09.3-.59.32-.59.06-.2.18-.62.22-.7h0c0-.35.07-.69.1-1,.18-1.78.35-3.56.53-5.34q.66-6.83,1.34-13.66c.09-1,.18-1.95.29-2.92A9.27,9.27,0,0,1,133,8.72a13.45,13.45,0,0,1,5.47.31l5.83,1.16,12.49,2.48c.29.06.59.14.9.18a3.36,3.36,0,0,0,2.56-.84,3.24,3.24,0,0,0,1-2.78c-.27-1.68-.89-3.35-1.3-5-.36-1.42-.73-2.83-1.14-4.23h6.31c.23,1,.43,1.91.67,2.86C166.69,6.72,168.14,10.5,166,14.27Z"/><path class="cls-2" d="M483,422.43V516h-2.44c0-3.38.05-6.77.07-10.15q.14-17.87.26-35.73l.21-29.53c0-3.73,0-7.45.08-11.18l-1.44-1.63c-2.67-3-5.3-6.08-8-9.07-.18-.2-.36-.39-.55-.58L471,418h0l-.24-.15c-.11-.06-.44-.2-.54-.26h0l-.49-.14-.05,0c-.29,0-.58,0-.87,0h0l-.19,0h.08l-.14,0-.13,0c-.13,0-.52.2-.57.2a4.1,4.1,0,0,0-.41.22l-.23.15,0,0h0l-.07.06-.37.38-.14.17v0l-.11.18s-.11.2-.17.29l0,0,0,0a.39.39,0,0,0,0,.06c-.07.23-.13.46-.19.7l0,.06h0s0,0,0,0,0,.13,0,.2,0,.3,0,.45q-.3,6.3-.59,12.6a17.75,17.75,0,0,1-.59,5,9.31,9.31,0,0,1-8.57,6.21,10.65,10.65,0,0,1-5.61-1.79c-2.07-1.22-4.15-2.42-6.26-3.59-4.2-2.34-8.49-4.53-12.8-6.66a3.89,3.89,0,0,0-1.77-.44h-.22l-.31.06-.24.06-.06,0-.06,0-.16.06a2.78,2.78,0,0,0-1.32,1.06l0,0,0,.06-.23.38-.1.16a3.68,3.68,0,0,0-.15.47l-.09.35v0c0,.07,0,.22,0,.26s0,.33,0,.49,0,0,0,0a.13.13,0,0,0,0,.06c0,.1.19.64.19.7a8,8,0,0,0,.76,1.25c1.37,2,2.74,4,4.09,6.05q4.06,6.06,8,12.2c1.1,1.71,2.26,3.35,2.57,5.41a9.52,9.52,0,0,1-.93,5.79c-2.17,4.29-6.74,4.78-10.91,5.66l-13,2.73-1.4.29-.82.22-.09,0a2.39,2.39,0,0,0-.32.16l-.39.24c-.16.15-.49.52-.52.52h0c-.12.18-.23.37-.34.56l-.1.16s0,.06,0,.13c-.06.27-.15.54-.21.81h0a.09.09,0,0,1,0,.05,4,4,0,0,1,0,.49c0,.09,0,.17,0,.26s0,0,0,0c.08.28.15.55.22.83a.58.58,0,0,1,0,.1l.14.18c.1.14.18.3.28.44l.07.06.48.44,0,0c.13.06.48.28.61.34.31.15.63.26,1,.39,2.29.9,4.58,1.79,6.89,2.65s4.61,1.71,6.93,2.54a42.4,42.4,0,0,1,6.62,2.47,9.25,9.25,0,0,1,4.43,9.77c-.4,2.1-1.69,3.74-2.86,5.45l-3.55,5.18c-.12.18-.25.36-.37.55a5.46,5.46,0,0,0-.27.48l0,0a1.42,1.42,0,0,1-.05.16c0,.15-.07.29-.11.44l0,.08h0c0,.2,0,.75,0,.88s.16.61.2.73a.31.31,0,0,1,0,.08l0,.07c.08.15.16.29.25.43l.08.13v0s0,0,0,0,.19.22.22.25a3.87,3.87,0,0,0,.41.4l.1.06c.09.06.59.3.59.32.2.06.62.18.7.22.34,0,.7.07,1,.1l2,.2h-11a9.06,9.06,0,0,1,.67-8.3c.93-1.47,2-2.87,2.95-4.3l1.88-2.75c.17-.24.34-.48.5-.73l.06-.09a8.33,8.33,0,0,1,.45-.77c.07-.22.18-.74.21-.74a4,4,0,0,0,0-.91s-.15-.57-.19-.68v-.06s0,0,0,0h0a4.4,4.4,0,0,0-.29-.51,2.6,2.6,0,0,0-1.11-1,24,24,0,0,0-2.63-1q-7.09-2.47-14.09-5.2c-2.13-.83-4.41-1.49-6.22-2.93a8.93,8.93,0,0,1-2.75-3.9,9.34,9.34,0,0,1,1.69-9.14c2.57-3.08,7.08-3.38,10.75-4.15l12.78-2.69c.41-.09.82-.17,1.22-.28a3.22,3.22,0,0,0,2-1.72,2.89,2.89,0,0,0,.27-1.6A4.25,4.25,0,0,0,436,461c-1.3-2.15-2.74-4.23-4.11-6.33q-4.08-6.21-8.24-12.35c-1.26-1.86-2.49-3.58-2.79-5.85a9.09,9.09,0,0,1,1.08-5.62,9.23,9.23,0,0,1,9.72-4.55c2.22.4,4.36,1.77,6.36,2.78q3.33,1.68,6.61,3.45t6.51,3.63c1.11.64,2.2,1.33,3.32,1.95.14.08.28.17.43.24h0l.14,0c.11,0,.62.14.68.17h.71a5.35,5.35,0,0,0,.87-.24c.09-.08.6-.34.69-.39l.09-.06.05,0h0l0,0,.21-.21a3.14,3.14,0,0,0,.85-2c.2-4,.37-8.08.56-12.13a38.43,38.43,0,0,1,.32-4.67,9.11,9.11,0,0,1,6.78-7.19,9.21,9.21,0,0,1,9,2.72c1,1.1,2,2.23,3,3.35Z"/></g></svg>