<svg id="Layer_1" data-name="Layer 1" xmlns="http://www.w3.org/2000/svg" viewBox="0 0 333.5 439.5"><defs><style>.cls-1{fill:#86bd41;}.cls-2{fill:#a3cf62;}.cls-3{fill:#c54621;}.cls-4{fill:#ed7f32;}.cls-5{fill:#f1a63b;}.cls-6{fill:#020202;}.cls-12,.cls-7{fill:#fff;}.cls-8{fill:#ffc21c;}.cls-9{fill:#f2f2f2;}.cls-10{fill:#f4bd48;}.cls-11{fill:#00add5;}.cls-12{fill-rule:evenodd;}</style></defs><rect class="cls-1" x="0.5" y="0.5" width="333" height="439"/><path class="cls-2" d="M331.82,437c0,.85,0,1.69,0,2.53H1.7c0-.84,0-1.68,0-2.53a165.07,165.07,0,0,1,330.14,0Z"/><path class="cls-3" d="M210.57,224.23q-3.34,12.38-6.66,24.79v0l-3-.26h-.12l-73.08-6.45h0l-4.79-.42,2.58-25.61Z"/><path class="cls-4" d="M293.31,293.81l-86.92-44.52-2.49-.22q3.32-12.45,6.67-24.84l74.41,38S302.62,266.13,293.31,293.81Z"/><path class="cls-4" d="M203.9,249.07c-7.15,26.89-14.11,54.16-20.34,83l-69.35-3.81,2.27-22.55a6.72,6.72,0,0,0,5.21,4.11l40.65,6a6.71,6.71,0,0,0,7.6-5.64l4.89-33a6.71,6.71,0,0,0-5.64-7.6l-40.65-6a6.71,6.71,0,0,0-7.6,5.63L118.5,285.7l4.42-43.77,4.79.42h0q17.49,2.35,35.11,3.75c4.13.33,8.27.62,12.4.91l25.57,1.79h.12Z"/><path class="cls-5" d="M174.83,277.22l-4.89,33a6.71,6.71,0,0,1-7.6,5.64l-40.65-6a6.72,6.72,0,0,1-5.21-4.11l2-20,2.44-16.47a6.71,6.71,0,0,1,7.6-5.63l40.65,6A6.71,6.71,0,0,1,174.83,277.22Z"/><path class="cls-5" d="M162.83,246.1q-17.61-1.4-35.11-3.75l73.08,6.45L175.23,247C171.1,246.72,167,246.43,162.83,246.1Z"/><path class="cls-5" d="M293.31,293.81c-.58,1.73-1.26,3.55-2.07,5.47,0,0-.21.78-.6,2.19-2.64,9.48-13.11,47.17-17.56,63.11a8.26,8.26,0,0,1-4.3,5.19c-3.85,1.86-10.93,2.86-22-4.17-18.26-11.57-63.19-33.5-63.19-33.5,6.23-28.87,13.19-56.14,20.34-83l2.49.22Z"/><path class="cls-6" d="M204.36,247.55c-1.45-.11-2.9-.27-4.35-.37a1.46,1.46,0,0,0-1.06.44,1.5,1.5,0,0,0-.44,1.06,1.54,1.54,0,0,0,1.5,1.5c1.45.1,2.9.26,4.35.37a1.5,1.5,0,0,0,1.06-.44,1.52,1.52,0,0,0,.44-1.06,1.54,1.54,0,0,0-1.5-1.5Z"/><path class="cls-6" d="M200,247.18c-2.68-.35-5.39-.51-8.07-.75l-18.06-1.62-40.55-3.63-7-.64-2.06-.19c-.23,0-1.44-.17-.57,0a1.57,1.57,0,0,0-1.85,1,1.5,1.5,0,0,0,1,1.84c2.76.38,5.55.54,8.31.79l18.09,1.63,40.77,3.65c3.31.3,6.65.49,9.95.92,1.91.24,1.89-2.76,0-3Z"/><path class="cls-6" d="M203.64,250.09l66.9,34.13,19,9.67c1.72.88,3.24-1.71,1.51-2.59l-66.76-34.06-19.09-9.74c-1.72-.88-3.24,1.71-1.52,2.59Z"/><path class="cls-6" d="M204.1,259l61.61,31.44L290,302.81c1.72.87,3.24-1.71,1.52-2.59l-79.32-40.47-6.54-3.34c-1.72-.87-3.24,1.71-1.52,2.59Z"/><path class="cls-5" d="M174.83,277.22l-4.89,33a6.77,6.77,0,0,1-7.71,5.62l-41.31-6.12a6.8,6.8,0,0,1-5.3-4.11,6.48,6.48,0,0,1-.45-3.5l4.89-33a6.78,6.78,0,0,1,7.71-5.62l41.31,6.12A6.77,6.77,0,0,1,174.83,277.22Z"/><circle class="cls-7" cx="149.29" cy="282.13" r="6.18"/><path class="cls-7" d="M147.53,287.4h0A11.57,11.57,0,0,1,159.1,299v1.64a0,0,0,0,1,0,0H136a0,0,0,0,1,0,0V299a11.57,11.57,0,0,1,11.57-11.57Z" transform="translate(44.67 -18.44) rotate(8.42)"/><path class="cls-6" d="M187.32,331.49C193.08,304,201,277,207.74,249.7c1.89-7.62,3.68-15.27,5.3-23a3.07,3.07,0,0,0-2.09-3.69,3,3,0,0,0-3.69,2.1C201.53,252.32,193.65,279,187,305.91c-2,8-3.81,15.95-5.49,24a3.08,3.08,0,0,0,2.1,3.69,3,3,0,0,0,3.69-2.09Z"/><path class="cls-8" d="M168,346.34a11.63,11.63,0,0,1-4.53,3.16c-9.75,3.86-19,7-28.79,10.53l-1.38.49c-2.72,1-5.37,1.87-8,2.72a328.51,328.51,0,0,1-40.95,10.21,25.13,25.13,0,0,1-4.26.24c-5.25.13-8.59-9.89-10.25-13.13-1-2.41-1.94-4.84-2.86-7.27-2.07-5.44-4-10.91-5.87-16.42q-.37-1.08-.72-2.16c-2.05-6.09-4-12.21-6-18.33l-5.63-17.57q-.89-2.74-1.76-5.49-2.37-7.41-4.75-14.83-2.61-8.1-5.21-16.23c-1.68-5.24-3.38-10.59-3.29-16.1a20.22,20.22,0,0,1,.31-3.28,17.83,17.83,0,0,1,3.38-8,13.46,13.46,0,0,1,2.38-2.39c.26-.2.54-.4.82-.58a19.41,19.41,0,0,1,6.93-2.54c2-.41,4-.67,6-1.07,4.43-.89,9.2-2.92,10.83-7.12a12.27,12.27,0,0,0,.21-7c-.21-1-.47-2-.73-3-.81-3-1.63-6-2.44-9q-3.11-11.46-6.19-22.93c-.46-2.07-1.21-2.65-.06-4a2.64,2.64,0,0,1,2.85-.73c1.92.62,2.85,2.37,3.72,4a9.26,9.26,0,0,1,10.39-4.42c-1-2.4,0-6.14,2.84-5.79a3.19,3.19,0,0,1,1.74.83c1.43,1.27,1.87,3.1,2.82,4.65,2.09,3.42,6.29,5,8.79,8.1a8.52,8.52,0,0,1,1.7,7.53,6.23,6.23,0,0,1-5.94,4.49,1.5,1.5,0,0,0-.94.13c-.4.27-.38.86-.33,1.33a74.93,74.93,0,0,0,5.09,19c.38.93.79,1.86,1.21,2.77a2.92,2.92,0,0,0,.78,1c2,1.61,4.88,1.06,7.28.43l.28-.07,14.31-3.8,1-.25a21.63,21.63,0,0,1,5.48-.85,9.68,9.68,0,0,1,2.45.31,13.39,13.39,0,0,1,6,3.83l0,0c.28.29.56.58.83.88a38.08,38.08,0,0,1,8.28,15.12c2.19,7.75,4.32,13.87,6.32,20.91q1.71,6,3.41,12.09c1.66,5.93,3.34,11.86,5.08,17.76,5.18,17.67,10.88,35.12,18.41,51.88a14.76,14.76,0,0,1,.86,4.08A7.2,7.2,0,0,1,168,346.34Z"/><path class="cls-4" d="M70.05,204.35c0,4.88-2.32,8.93-5.38,9.79a46.56,46.56,0,0,0-1.29-5c-1.2-4.86-2.64-9.07-3.75-13.9a16.25,16.25,0,0,1,3.84-.83C67.1,194.4,70.05,198.85,70.05,204.35Z"/><path class="cls-4" d="M101,218.69a8.84,8.84,0,1,1-14.17-7.05q.87,2.13,1.85,4.23a4.39,4.39,0,0,0,1.19,1.6c3,2.46,7.47,1.13,11.13.18C101,217.84,101,218.5,101,218.69Z"/><path class="cls-4" d="M51.25,234.06A6.87,6.87,0,0,1,45,240.9,6.87,6.87,0,0,1,38.33,246a6.8,6.8,0,0,1-4.53-1.71,21.25,21.25,0,0,1,3.69-9.41A13.13,13.13,0,0,1,40,232.34c.3-.23.88-.59,1.2-.79,2.35-1.54,5-2,7.8-2.56A6.85,6.85,0,0,1,51.25,234.06Z"/><path class="cls-4" d="M128.35,219.59c-.2,3.55-5,4.64-8.93,4.64s-7.36-3-7.36-6.73a6.21,6.21,0,0,1,.76-3,21.63,21.63,0,0,1,5.48-.85,9.68,9.68,0,0,1,2.45.31,13.39,13.39,0,0,1,6,3.83Z"/><path class="cls-4" d="M54.76,280.26a10.75,10.75,0,0,1-8.87,10.58c-.58-1.82-1.17-3.65-1.75-5.48q-2.39-7.41-4.76-14.83a10.78,10.78,0,0,1,15.38,9.73Z"/><path class="cls-6" d="M121.6,186.37l.28,10.36a2.25,2.25,0,1,0,4.5,0l-.28-10.36a2.25,2.25,0,0,0-4.5,0Z"/><path class="cls-6" d="M139.47,196.86q6.66-7.05,13.58-13.85a2.25,2.25,0,0,0-3.18-3.18q-6.92,6.78-13.58,13.85a2.25,2.25,0,0,0,3.18,3.18Z"/><path class="cls-6" d="M140.2,211.45c.76-.4,1.56-.73,2.36-1.08l1.68-.71c-.65.28,0,0,.11,0l.39-.17,1-.41c2.15-.9,4.32-1.76,6.46-2.7a2.26,2.26,0,0,0,.8-3.08,2.32,2.32,0,0,0-3.08-.81l-.43.19-.26.11.12-.05-1.44.6-3.63,1.51c-2.12.88-4.32,1.69-6.35,2.77a2.27,2.27,0,0,0-.81,3.08,2.3,2.3,0,0,0,3.08.8Z"/><circle class="cls-6" cx="76.8" cy="177.96" r="1.26"/><circle class="cls-6" cx="66.9" cy="181.92" r="1.26"/><path class="cls-4" d="M146.39,268.58a9,9,0,0,1-2.27.28,9.24,9.24,0,0,1-2.81-18C143,256.76,144.65,262.68,146.39,268.58Z"/><path class="cls-4" d="M82.36,342.14c0,6.34-5.58,11.46-12.46,11.46a13.06,13.06,0,0,1-2.89-.31c-2.07-5.44-4-10.91-5.87-16.42q-.37-1.08-.72-2.16a12.89,12.89,0,0,1,9.48-4C76.78,330.69,82.36,335.82,82.36,342.14Z"/><path class="cls-4" d="M161,316.59c0,6.33-5.58,11.46-12.46,11.46a13.06,13.06,0,0,1-2.89-.32c-2.07-5.43-4-10.91-5.87-16.41-.25-.72-.49-1.44-.73-2.16a12.89,12.89,0,0,1,9.49-4C155.43,305.14,161,310.26,161,316.59Z"/><path class="cls-4" d="M134.69,360l-1.38.49c-2.72,1-5.37,1.87-8,2.72a26.94,26.94,0,0,1-3,.18c-6,0-7.21-4.21-7.21-7.71s4.85-6.35,10.83-6.35,10.4,2.87,10.82,6.35A4.69,4.69,0,0,1,134.69,360Z"/><path class="cls-9" d="M150.9,343.46,91.76,361.79a7.88,7.88,0,0,1-9.62-5.57L47.34,251.68a7.87,7.87,0,0,1,5.57-9.61l59.48-15.86a7.89,7.89,0,0,1,9.62,5.57l34.45,102.06A7.88,7.88,0,0,1,150.9,343.46Z"/><path class="cls-4" d="M278.5,183.44h0c-.84,7.44-9.47,15.11-21.36,18.25s-23.35.71-27.69-5.46h0a4.87,4.87,0,0,1-1.17-2.16,24,24,0,0,1-.64-2.83L225,184l5.51-1.54c3.59-4.95,10.27-9.29,18.5-11.47,7.82-2.07,15.39-1.75,20.91.46l5.18-1.45,1.63,6.49Z"/><ellipse class="cls-10" cx="250.5" cy="178.55" rx="26.02" ry="15.87" transform="translate(-37.33 70) rotate(-14.82)"/><path class="cls-4" d="M230.28,188.26a13.67,13.67,0,0,0,10.94,5.86,27.31,27.31,0,0,0,7-.71,21.12,21.12,0,0,0,6.27-2.64,1.5,1.5,0,0,0-1.51-2.59,17.67,17.67,0,0,1-5,2.2,25,25,0,0,1-6,.76c-3.62,0-7-1.33-9.13-4.39-1.09-1.58-3.69-.09-2.59,1.51Z"/><path class="cls-4" d="M188.75,165.27h0c-6.68,3.38-17.83.37-27-7.84s-13.4-19.13-10.62-26.15h0a4.79,4.79,0,0,1,1.17-2.17,23.37,23.37,0,0,1,2-2.09l4.59-6.14,4.31,3.76c6.1.29,13.4,3.49,19.74,9.18,6,5.4,9.9,11.91,11.08,17.73l4.05,3.54L193.57,160Z"/><ellipse class="cls-10" cx="177.48" cy="139.18" rx="15.87" ry="26.02" transform="translate(-44.65 178.27) rotate(-48.09)"/><path class="cls-4" d="M158.16,127.87a13.72,13.72,0,0,0,1.55,12.65,28.48,28.48,0,0,0,4.1,4.93,20.82,20.82,0,0,0,5.57,3.75c1.72.85,3.25-1.74,1.51-2.59a17.88,17.88,0,0,1-4.72-3.06,25,25,0,0,1-3.68-4.27c-2.17-3.26-3-6.9-1.43-10.61a1.51,1.51,0,0,0-1.05-1.84,1.54,1.54,0,0,0-1.85,1Z"/><path class="cls-4" d="M203.9,376.83h0c-.61,5.42-6.9,11-15.55,13.3s-17,.51-20.17-4h0a3.56,3.56,0,0,1-.86-1.58,16.51,16.51,0,0,1-.46-2.06L165,377.27l4-1.12c2.62-3.6,7.48-6.77,13.48-8.36,5.7-1.51,11.21-1.27,15.23.34l3.77-1.06,1.19,4.73Z"/><ellipse class="cls-10" cx="183.51" cy="373.27" rx="18.95" ry="11.56" transform="translate(-89.36 59.34) rotate(-14.82)"/><path class="cls-4" d="M168.43,379.72a10.37,10.37,0,0,0,8.32,4.47,20.48,20.48,0,0,0,5.23-.53,15.32,15.32,0,0,0,4.66-2,1.5,1.5,0,0,0-1.51-2.59,12.48,12.48,0,0,1-3.54,1.57,17.13,17.13,0,0,1-4.28.53,7.38,7.38,0,0,1-6.29-3,1.54,1.54,0,0,0-2.05-.54,1.51,1.51,0,0,0-.54,2.05Z"/><path class="cls-4" d="M221.69,388.72h0c-4.46,3.14-12.81,2.14-20.26-2.82S189.74,373.53,191,368.18h0a3.6,3.6,0,0,1,.61-1.69,19.1,19.1,0,0,1,1.24-1.71l2.66-4.92,3.5,2.26c4.43-.43,10,1.11,15.19,4.54,4.91,3.27,8.39,7.55,9.85,11.62l3.3,2.13-2.75,4Z"/><ellipse class="cls-10" cx="210.82" cy="371.1" rx="11.56" ry="18.95" transform="translate(-214.93 341.18) rotate(-56.38)"/><path class="cls-4" d="M196,364.16a10.53,10.53,0,0,0,2.56,9.55,20.73,20.73,0,0,0,3.72,3.28,15.54,15.54,0,0,0,4.42,2.07c1.84.59,2.63-2.31.8-2.9a12.33,12.33,0,0,1-3.53-1.63,18.6,18.6,0,0,1-3-2.61,7.5,7.5,0,0,1-2.07-7c.46-1.87-2.43-2.67-2.9-.8Z"/><path class="cls-7" d="M282.05,268a8.12,8.12,0,0,0,7.35-6.34c.16-.79.36-1.8,1.14-2a1.37,1.37,0,0,1,1.43,1,13.4,13.4,0,0,1,.29,1.9c.41,2.2,2.64,3.59,4.81,4.14a5.08,5.08,0,0,1,2,.76,1.38,1.38,0,0,1,.37,1.88,1.9,1.9,0,0,1-.89.49,10.42,10.42,0,0,0-4.2,2.07c-1.43,1.42-1.78,3.57-2.68,5.37a1.17,1.17,0,0,1-.44.56c-.49.29-1.13-.18-1.3-.73a6.51,6.51,0,0,1,0-1.71,5,5,0,0,0-2.56-3.91,23.21,23.21,0,0,0-4.5-1.83c-.42-.16-.89-.38-1-.82s-.16-.5.2-.9"/><path class="cls-7" d="M66.88,372.86a8.13,8.13,0,0,0,7.35-6.34c.15-.79.35-1.8,1.14-2a1.37,1.37,0,0,1,1.42,1,13.4,13.4,0,0,1,.29,1.9c.41,2.2,2.65,3.59,4.81,4.14a5,5,0,0,1,2,.76,1.39,1.39,0,0,1,.38,1.88,2,2,0,0,1-.89.49,10.35,10.35,0,0,0-4.2,2.07c-1.43,1.42-1.78,3.57-2.68,5.37a1.23,1.23,0,0,1-.44.56c-.5.29-1.14-.18-1.3-.73a6.11,6.11,0,0,1,0-1.71,5,5,0,0,0-2.56-3.91,23,23,0,0,0-4.51-1.83c-.41-.16-.88-.38-1-.82s-.16-.5.2-.9"/><rect class="cls-11" x="86.41" y="302.05" width="39.89" height="11.15" rx="5.57" transform="translate(-87.24 45.97) rotate(-17.43)"/><path class="cls-6" d="M91.3,310.42l6.38,2.82a.78.78,0,0,0,1-.27.75.75,0,0,0-.27-1l-6.37-2.82a.78.78,0,0,0-1,.27.76.76,0,0,0,.26,1Z"/><path class="cls-6" d="M94.11,314.74l2.82-6.37a.78.78,0,0,0-.27-1,.76.76,0,0,0-1,.26L92.81,314a.78.78,0,0,0,.27,1,.75.75,0,0,0,1-.27Z"/><path class="cls-6" d="M96.81,314.24l-2.43-6.52a.78.78,0,0,0-.92-.53.76.76,0,0,0-.53.92l2.43,6.53a.78.78,0,0,0,.92.53.76.76,0,0,0,.53-.93Z"/><path class="cls-6" d="M98,309.52l-6.72,1.87a.75.75,0,0,0,.4,1.44L98.43,311a.75.75,0,0,0-.4-1.45Z"/><path class="cls-6" d="M101.78,307.15l6.37,2.81a.78.78,0,0,0,1-.27.75.75,0,0,0-.27-1l-6.37-2.82a.78.78,0,0,0-1,.27.77.77,0,0,0,.27,1Z"/><path class="cls-6" d="M104.59,311.47l2.81-6.37a.77.77,0,0,0-.27-1,.76.76,0,0,0-1,.27l-2.82,6.37a.78.78,0,0,0,.27,1,.76.76,0,0,0,1-.27Z"/><path class="cls-6" d="M107.28,311l-2.43-6.53a.75.75,0,1,0-1.44.4l2.43,6.53a.76.76,0,0,0,.92.52.75.75,0,0,0,.52-.92Z"/><path class="cls-6" d="M108.5,306.25l-6.71,1.86a.75.75,0,0,0,.4,1.45l6.71-1.86a.75.75,0,0,0-.4-1.45Z"/><path class="cls-6" d="M112.9,303.6l6.37,2.82a.79.79,0,0,0,1-.27.77.77,0,0,0-.27-1l-6.37-2.82a.79.79,0,0,0-1,.27.76.76,0,0,0,.27,1Z"/><path class="cls-6" d="M115.7,307.92l2.82-6.37a.77.77,0,0,0-.27-1,.75.75,0,0,0-1,.27l-2.81,6.37a.76.76,0,0,0,.27,1,.74.74,0,0,0,1-.27Z"/><path class="cls-6" d="M118.4,307.43,116,300.9a.78.78,0,0,0-.92-.53.74.74,0,0,0-.52.92l2.42,6.53a.79.79,0,0,0,.93.53.76.76,0,0,0,.52-.92Z"/><path class="cls-6" d="M119.62,302.71l-6.71,1.86a.75.75,0,0,0,.4,1.44l6.71-1.86a.75.75,0,0,0-.4-1.44Z"/><path d="M195.27,380.5l4.12,3.94-3.09-.9-.64-.18-.66-.19-2.87-.84A27.45,27.45,0,0,0,195.27,380.5Z"/><circle class="cls-11" cx="93.65" cy="273.08" r="24"/><path class="cls-12" d="M106.72,268.05a5.58,5.58,0,0,0-7.16-3.19l-14.42,4.67a1,1,0,1,1-.61-1.9l14.61-4.74c-.71-1.84-2.79-3.41-4.69-3.11A39,39,0,0,0,81.58,264c-2.26,1.15-3.3,4.09-2.92,6.56A47.7,47.7,0,0,0,83.05,284a6.74,6.74,0,0,0,6.85,3.39,68,68,0,0,0,15.91-5.16c2.29-1.05,3.14-3.72,2.86-6.23A38,38,0,0,0,106.72,268.05Zm-3.7,4.74.28.84a1,1,0,0,1-1.91.62l-.27-.85a1.44,1.44,0,0,1-.82-.9,1.5,1.5,0,1,1,2.85-.92,1.43,1.43,0,0,1-.13,1.21Z"/><path d="M192.13,382.33s3.83,3.86,7.26,2.11Z"/></svg>