<svg id="Layer_1" data-name="Layer 1" xmlns="http://www.w3.org/2000/svg" viewBox="0 0 333.34 439.38"><defs><style>.cls-1{fill:#ffbf0d;}.cls-2{fill:#50b6d7;}.cls-3{fill:#070707;}.cls-4{fill:#020202;}.cls-5{fill:#fff;}.cls-6{fill:#f59199;}.cls-7{fill:#ea1b34;stroke:#020202;stroke-miterlimit:10;stroke-width:3px;}.cls-8{fill:#f7f7f7;}.cls-9{fill:#f21650;}.cls-10{fill:#faf8f8;}</style></defs><rect class="cls-1" x="0.5" y="0.38" width="333" height="439"/><path class="cls-2" d="M214.19,353.63l-59.85,6.31c-2.87-14.24-4.14-18.71-13-23.78-9.42-5.39-20.17-3.35-28.49,3.82S101.22,354.81,100,365.72c-24.35,2.81-46.87,3.21-72.27,4.89,2.4-14.68,7.84-35.43,20.65-43,8.27-4.88,23.84-7.66,31-14.11,16.86-15.3,7.79-22,18.39-40,12.48-21.21,40.68-25.7,65.18-28l54.92-5.08c11.85-1.1,21.55,2.1,27.35,12.48,5.64,10.1,5.57,24.57,9.9,35.31,6.19,15.38,27.33,10.75,38.53,23,9.1,9.95,7.94,25.34,5.24,38.55-15.75,2.27-33.29,2.46-48.91,3.95"/><path class="cls-1" d="M200.63,356.59s2.34-27.69,29.71-30.43c0,0,23.66-2.9,24.93,28.53Z"/><circle class="cls-3" cx="129.38" cy="358.83" r="20.95"/><circle class="cls-3" cx="229.67" cy="351.41" r="20.95"/><path class="cls-3" d="M170.27,285.15c-17.5,2.08-37,4.82-54.57,5,1.34-5.08,2.69-10.22,5.1-14.89s6-8.93,10.73-11.18c3.94-1.87,8.39-2.25,12.73-2.6l26.2-2.13C170,268.11,170.61,274.74,170.27,285.15Z"/><path class="cls-3" d="M184.07,284.5c17.57-1.33,40.93-3.07,58.25-6.29-2.29-4.73-4.61-9.51-7.87-13.63s-7.59-7.61-12.69-8.9c-4.22-1.07-8.66-.59-13-.1l-26.46,3C183.44,267.29,182.84,275.06,184.07,284.5Z"/><path class="cls-4" d="M108.59,302.88c17.48-.66,34.91-2.27,52.31-4.05,18.15-1.87,36.28-4,54.43-5.94,9.21-1,18.42-1.92,27.65-2.69,1.91-.16,1.93-3.16,0-3-17,1.41-34,3.37-51,5.26-18.24,2-36.5,4.07-54.79,5.6-9.53.8-19.06,1.46-28.61,1.82-1.92.07-1.93,3.07,0,3Z"/><path class="cls-4" d="M43.94,330.84c-2.14,12.58-3.7,25.25-5.83,37.82-.32,1.89,2.57,2.7,2.89.8,2.14-12.58,3.7-25.24,5.83-37.82.32-1.89-2.57-2.7-2.89-.8Z"/><path class="cls-3" d="M174.92,257.21c.11,12.14.83,24.28,1.39,36.4.72,15.19,1.49,30.39,2.11,45.58.24,5.8.49,11.6.55,17.4a1.5,1.5,0,0,0,3,0c-.12-12.14-.83-24.28-1.4-36.4-.71-15.2-1.48-30.39-2.11-45.59-.23-5.79-.49-11.59-.54-17.39a1.5,1.5,0,0,0-3,0Z"/><path class="cls-4" d="M302.1,338.86c-.22,0,.21,0,.26,0s.47.05.25,0a3.59,3.59,0,0,1,.47.12s.44.16.26.08a3.28,3.28,0,0,1,1.28,1,3.7,3.7,0,0,1,.68,3c-.56,2.64-2.91,4.08-5.48,4.54a1.5,1.5,0,1,0,.8,2.89c3.88-.7,7.27-3.5,7.72-7.56a6.5,6.5,0,0,0-1.77-5.22A6.08,6.08,0,0,0,301.3,336a1.52,1.52,0,0,0-1.05,1.85,1.55,1.55,0,0,0,1.85,1.05Z"/><path class="cls-3" d="M165.23,306.7a40.84,40.84,0,0,0,7.88-.74,2.26,2.26,0,0,0,1.57-2.77,2.29,2.29,0,0,0-2.76-1.57c-.7.13-1.39.24-2.09.34l.6-.08a39.35,39.35,0,0,1-5.2.32,2.27,2.27,0,0,0-2.25,2.25,2.3,2.3,0,0,0,2.25,2.25Z"/><path class="cls-3" d="M236.13,299.8a40.84,40.84,0,0,0,7.88-.74,2.26,2.26,0,0,0,1.57-2.77,2.3,2.3,0,0,0-2.77-1.57c-.69.13-1.38.24-2.08.34l.6-.08a39.35,39.35,0,0,1-5.2.32,2.27,2.27,0,0,0-2.25,2.25,2.3,2.3,0,0,0,2.25,2.25Z"/><path class="cls-4" d="M92.17,366.14c1.26-12.41,8.62-23.93,19-30.8,11.28-7.49,28.4-10.23,38.95,0,6.2,6,6.68,14.71,6.9,22.86.05,1.92,3.05,1.93,3,0-.22-7.9-.67-16.25-5.75-22.72-4.78-6.08-12.29-9.31-19.89-9.78-14.72-.91-28.8,7.35-37.14,19.13a44.7,44.7,0,0,0-8,21.28c-.19,1.92,2.81,1.9,3,0Z"/><path class="cls-5" d="M279.11,309.23a9.72,9.72,0,0,0,8.81-7.6c.19-.95.43-2.15,1.37-2.35a1.64,1.64,0,0,1,1.71,1.24,17.17,17.17,0,0,1,.35,2.28c.49,2.63,3.17,4.3,5.77,5a6.08,6.08,0,0,1,2.37.9,1.67,1.67,0,0,1,.45,2.26,2.35,2.35,0,0,1-1.07.59c-1.79.6-3.69,1.15-5,2.48-1.72,1.71-2.14,4.28-3.21,6.45a1.53,1.53,0,0,1-.53.67c-.6.35-1.37-.22-1.56-.88a7.87,7.87,0,0,1,0-2.06,6,6,0,0,0-3.07-4.68,28.32,28.32,0,0,0-5.4-2.2c-.5-.18-1.06-.46-1.16-1s-.19-.6.24-1.08"/><path class="cls-6" d="M144.35,247c4.64-.93,4.1-.68,8.74-1.61,2.76-.55,5-.07,7.57-1.32,3.45-1.71,6.11-5.63,9.56-7.36s8.79-.75,11,2.41a9.09,9.09,0,0,1-.14,10c-2,2.87-4.59,4.88-5.8,8.15-.95,2.56-1.35,6.54,1.36,6.84a4.78,4.78,0,0,0,2.45-.52c4.53-2,8-5.85,10.58-10s4.61-8.73,7.22-12.91a147.31,147.31,0,0,1,22.86-27.95c8.5-7.87,16.34-15.48,24.62-23.08,1.81-1.66,3.19-1.59,4-3.89,1.71-4.63-.51-9.71-2.67-14.15-3.55-7.27-7.6-15.05-14.88-18.57a3.74,3.74,0,0,0-2.57-.49,4.09,4.09,0,0,0-1.88,1.45c-16.32,18.61-28.57,40.07-50.17,52.15-5.49,3.07-15.12,4.05-19.48,8.59a41.73,41.73,0,0,0-5.42,7.48c-5,8.25-3.46,15.85-7,24.83"/><path class="cls-6" d="M144.75,248.41c2.09-.41,4.19-.75,6.29-1.13,1.38-.25,2.74-.57,4.15-.69a21.26,21.26,0,0,0,4.69-.63c2.73-.86,4.84-2.9,6.91-4.8,1.86-1.71,3.82-3.54,6.45-3.79a7.78,7.78,0,0,1,6.33,2.08c1.81,2,2,5.18.93,7.54-1.11,2.57-3.51,4.47-5.08,6.74a12.88,12.88,0,0,0-2.37,7c0,2.12.86,4.35,3.17,4.74,2.82.48,5.9-1.71,8-3.37,5-4,8-9.79,10.9-15.34a129.15,129.15,0,0,1,23.08-30.57c4.87-4.84,10-9.43,15-14.15,2.55-2.41,5.09-4.81,7.66-7.2l3.86-3.59a37.15,37.15,0,0,1,3-2.28c2.27-1.7,2.91-4.79,2.77-7.49a25.45,25.45,0,0,0-2.8-9.34c-2.42-5.17-5-10.43-8.81-14.76a23.89,23.89,0,0,0-6.27-5.23,7.74,7.74,0,0,0-3.9-1.29c-1.59.06-2.66,1.15-3.64,2.27-3.9,4.46-7.58,9.1-11.23,13.76-7.21,9.18-14.35,18.51-22.93,26.47a81.67,81.67,0,0,1-14,10.58c-4.45,2.61-9.46,3.6-14.22,5.46a21,21,0,0,0-6.32,3.55,39.16,39.16,0,0,0-9.43,15.83,86.92,86.92,0,0,0-1.64,8.63,48,48,0,0,1-2.35,9.13c-.7,1.8,2.2,2.58,2.89.79,2.15-5.61,2.39-11.59,3.89-17.36a29.53,29.53,0,0,1,3.62-8.23c1.53-2.47,3.21-5.2,5.54-7,3.79-2.92,8.92-3.82,13.35-5.36a50.57,50.57,0,0,0,13.77-8c8.91-6.79,16.31-15.21,23.29-23.92,3.59-4.48,7.09-9,10.68-13.53,1.77-2.21,3.56-4.4,5.39-6.56.84-1,1.65-2.06,2.59-3,1.16-1.13,2.66,0,3.81.69,4.66,2.86,7.73,7.63,10.26,12.35,1.33,2.48,2.63,5,3.74,7.6,1.24,2.88,2.32,6.22,1.47,9.36a3.71,3.71,0,0,1-1.7,2.42,25.63,25.63,0,0,0-3.27,2.61q-3.69,3.4-7.35,6.85c-5,4.75-10,9.52-15.12,14.24a146,146,0,0,0-23.33,27.91c-3.46,5.38-5.86,11.43-9.66,16.59a23,23,0,0,1-6,5.85c-1,.65-2.48,1.64-3.73,1.64-.94,0-1-.89-1-1.67,0-5.57,5.47-8.35,7.34-13.1,2-5-.12-10.79-5.24-12.73a11.48,11.48,0,0,0-6.88-.38c-2.48.66-4.47,2.4-6.32,4.09-2.08,1.9-4.13,4.07-7,4.57-1.31.22-2.65.2-4,.37s-2.76.5-4.13.74c-2,.35-3.92.67-5.87,1.06s-1.09,3.27.8,2.89Z"/><path class="cls-3" d="M162.57,245.21c2.77-3.57,7.21-9.2,12.46-7.05a10.24,10.24,0,0,1,4.84,4.88,4.67,4.67,0,0,1,.67,3.19,9.33,9.33,0,0,1-1.66,3.48c-2.56,3.68-6.84,7.16-5.69,12.2a6,6,0,0,0,4.64,4.67c2.3.36,4.58-1.08,6.41-2.31,8.52-5.77,12.51-15.54,16.82-24.46a70.86,70.86,0,0,1,8.84-14.2c3.44-4.22,7.23-8.17,11-12.05a300.66,300.66,0,0,1,28.32-25.43c1.51-1.2-.62-3.31-2.12-2.12a300.45,300.45,0,0,0-25.37,22.46c-7.75,7.68-15.77,15.68-21,25.34-4.86,8.92-8,19.3-15.85,26.19a23.37,23.37,0,0,1-2.83,2.11,9,9,0,0,1-3.16,1.51c-2.69.4-3.19-3.2-2.6-5,.73-2.23,2.49-4,3.93-5.76a13.79,13.79,0,0,0,3.3-6.41c.41-2.7-1.07-5.32-2.7-7.37a11,11,0,0,0-6.14-4.13c-6.2-1.28-10.83,3.76-14.25,8.15-1.17,1.51.94,3.64,2.12,2.12Z"/><path class="cls-3" d="M152.11,246.86c1.87-4.23,3-8.72,5.54-12.66a33.31,33.31,0,0,1,3.1-4.35,32.65,32.65,0,0,1,4.54-4,1.5,1.5,0,0,0,0-2.12,1.54,1.54,0,0,0-2.12,0,32.65,32.65,0,0,0-4.54,4,35.27,35.27,0,0,0-3.39,4.68c-2.58,4.05-3.79,8.59-5.72,12.94a1.54,1.54,0,0,0,.53,2.05,1.52,1.52,0,0,0,2.06-.54Z"/><path class="cls-3" d="M144.53,247.82c2.78-7.75,3.72-16.17,7.16-23.68a27.26,27.26,0,0,1,7.07-9.57c2.8-2.38,6.41-3.75,9.82-5a94.37,94.37,0,0,0,10.85-4.4,48,48,0,0,0,10.15-7.73c3.25-3,6.24-6.36,9.25-9.64,3.21-3.49,6.59-6.83,9.77-10.36,7.37-8.2,13.87-17.15,21.62-25,1.36-1.38-.76-3.5-2.12-2.12-7,7.09-13,15.06-19.47,22.58-3.18,3.66-6.6,7.07-9.9,10.62-3.14,3.36-6.19,6.81-9.45,10.06a53.85,53.85,0,0,1-10.2,8.36c-3.3,2-7,3.17-10.6,4.5s-7.26,2.69-10.38,4.92a27.48,27.48,0,0,0-7.93,9.18c-4.5,8.21-5.41,17.81-8.54,26.54-.65,1.82,2.25,2.6,2.9.79Z"/><path class="cls-7" d="M312.57,248.42c-1.73,7.09-12.42,25.94-19.5,24.22s-7.9-23.39-6.17-30.48a13.21,13.21,0,0,1,25.67,6.26Z"/><circle class="cls-8" cx="299.18" cy="247.55" r="5.14"/><path class="cls-7" d="M88.58,156.22c3.3,9.85,4.77,40.69-5.08,44s-27.29-22.17-30.6-32a18.82,18.82,0,0,1,35.68-12Z"/><circle class="cls-8" cx="71.8" cy="165.35" r="7.32"/><path d="M196.2,354.76c2.54-11.08,7.19-22.78,18.06-28a42.72,42.72,0,0,1,19.78-4c6.53.24,13,2.38,17.23,7.61,4.79,6,6.23,14.07,7.2,21.45a1.56,1.56,0,0,0,1.5,1.5c.73,0,1.61-.7,1.5-1.5-1-7.22-2.27-14.81-6.25-21.06-3.88-6.07-10-9.57-17.08-10.62a44.61,44.61,0,0,0-21.85,2.56,30.94,30.94,0,0,0-15.12,11.64c-4,5.86-6.29,12.78-7.87,19.65-.43,1.88,2.46,2.68,2.9.79Z"/><path class="cls-9" d="M300.3,328.27a14.88,14.88,0,0,0,.08,3.2,1.06,1.06,0,0,0,.13.58,1,1,0,0,0,.31.48,1.5,1.5,0,0,0,2.12,0,1.42,1.42,0,0,0,.44-1.06,14.88,14.88,0,0,1-.08-3.2,1.5,1.5,0,0,0-1.5-1.5,1.54,1.54,0,0,0-1.06.44,1.68,1.68,0,0,0-.44,1.06Z"/><path class="cls-9" d="M301.07,329.62l.13.15-.23-.3a2.3,2.3,0,0,1,.25.43l-.15-.35a2.13,2.13,0,0,1,.14.51l-.06-.4a1.63,1.63,0,0,1,0,.54l.06-.4a2.13,2.13,0,0,1-.13.45l.15-.35a.35.35,0,0,1-.05.08l.24-.3-.07.07.3-.24a.05.05,0,0,1,0,0l.36-.15h0l.4,0h0l.4,0h0l.36.15h0a1.73,1.73,0,0,0-1.16-.16,1.57,1.57,0,0,0-.89.69,1.51,1.51,0,0,0,.54,2.06,2.9,2.9,0,0,0,.41.16,1.52,1.52,0,0,0,.82,0,1.66,1.66,0,0,0,.75-.43,2.2,2.2,0,0,0,.54-.92,3.7,3.7,0,0,0,.13-.74,2.23,2.23,0,0,0,0-.37,3.58,3.58,0,0,0-1-2.33,1.56,1.56,0,0,0-1.06-.44,1.54,1.54,0,0,0-1.06.44,1.47,1.47,0,0,0-.44,1.06,1.56,1.56,0,0,0,.44,1.06Z"/><path d="M36.66,347.48l3.27-.45,1.6-.21a14.56,14.56,0,0,0,1.61-.25h-.8l.09,0-.9-.69,0,0-.15-1.16v0l.38-.66L42,344l1.15-.15h0l1.05,1.85v0a1.53,1.53,0,0,0-1.05-1.85,1.52,1.52,0,0,0-1.84,1.05v0a1.51,1.51,0,0,0,1,1.85,1.61,1.61,0,0,0,1.92-1.09,1.55,1.55,0,0,0-1.1-1.91,4,4,0,0,0-1.61.12l-1.16.16-4.54.61a1.5,1.5,0,0,0-1,1.85,1.55,1.55,0,0,0,.69.9,1.82,1.82,0,0,0,1.15.15Z"/><path d="M32.67,361.31l4.21-.84,2-.41a7.74,7.74,0,0,1,1.91-.23l-.4-2.95L40,357A1.53,1.53,0,0,0,39,358.89a1.51,1.51,0,0,0,1.84,1l.43-.15a1.51,1.51,0,0,0-.4-2.95,22.59,22.59,0,0,0-4.6.72l-4.36.87a1.5,1.5,0,0,0-1.05,1.84,1.53,1.53,0,0,0,1.84,1.05Z"/><path class="cls-3" d="M90.85,297.25A17.13,17.13,0,0,0,104,289.52c2.85-4.44,4.19-9.66,5.32-14.82s2.14-10.4,4.42-15.16c-7,3-12.46,9.08-16,15.86s-5.41,14.33-6.84,21.85"/><path class="cls-3" d="M90.85,298.75a18.78,18.78,0,0,0,10.08-3.8,22.14,22.14,0,0,0,6.78-9.5c3.36-8.11,3.54-17.18,7.29-25.15a1.52,1.52,0,0,0-2.06-2.05c-15.13,6.67-20.66,23.64-23.54,38.6-.36,1.89,2.53,2.7,2.89.8C95,283.4,100,267.21,114.46,260.84l-2-2.06c-3.5,7.44-4,15.7-6.66,23.41-1.19,3.52-2.85,7-5.64,9.56a15.62,15.62,0,0,1-9.26,4c-1.92.15-1.93,3.15,0,3Z"/><path class="cls-5" d="M103.31,256.89a9.73,9.73,0,0,0,8.81-7.6c.19-.95.43-2.16,1.37-2.36a1.65,1.65,0,0,1,1.71,1.24,15.87,15.87,0,0,1,.34,2.28c.5,2.64,3.18,4.3,5.77,5a6.13,6.13,0,0,1,2.38.9,1.68,1.68,0,0,1,.45,2.26,2.33,2.33,0,0,1-1.07.58c-1.79.6-3.69,1.16-5,2.49-1.72,1.7-2.14,4.28-3.22,6.44a1.54,1.54,0,0,1-.52.68c-.6.34-1.37-.23-1.56-.89a7,7,0,0,1,0-2.05,5.94,5.94,0,0,0-3.07-4.68,28.58,28.58,0,0,0-5.4-2.2c-.5-.18-1.06-.46-1.16-1s-.19-.6.24-1.08"/><circle class="cls-10" cx="129.38" cy="358.33" r="7.36"/><circle class="cls-10" cx="229.67" cy="350.15" r="7.36"/><path class="cls-4" d="M286,419.54c-.15-4.69-.37-9.93,2.23-14.07,2.48-3.93,8-6.4,12.58-6.47,2.12,0,4.48.69,5.6,2.64a3.09,3.09,0,0,1-.81,4.1c-1.86,1.12-3.92-1.14-4.77-2.58a11.12,11.12,0,0,1-1.33-6.55c.43-5.37,4.41-9.72,8.71-12.56,2.08-1.39.13-4.76-2-3.37-5.37,3.56-9.85,8.75-10.58,15.36a14.84,14.84,0,0,0,1.81,9.09c1.54,2.63,4.36,5,7.6,4.76a6.4,6.4,0,0,0,5.59-5.54,7.78,7.78,0,0,0-3.8-7.65c-5.53-3.56-13.74-.77-18.48,2.94-6.16,4.82-6.51,12.7-6.28,19.9.08,2.51,4,2.52,3.9,0Z"/><path class="cls-4" d="M17.19,280.56c5.75-.93,12.51-1.85,17.06,2.64,3.24,3.2,7.88,11.51,3.13,15.3-1.34,1.07-4.14,1.06-4.62-1-.58-2.47,2.37-4.64,4.28-5.5,4.09-1.85,8.55-.87,12.26,1.17,3.94,2.15,8.17,5.7,8,10.59-.07,2.51,3.83,2.51,3.9,0,.17-6.15-4.59-10.91-9.59-13.76-5.37-3.05-12-4.12-17.55-.85-3.09,1.82-5.86,5.24-5.16,9,.64,3.48,4.35,5.35,7.65,4.81,3.53-.58,6-3.95,6.47-7.32.63-4.11-1.07-8.34-3.25-11.76a16.43,16.43,0,0,0-10.12-7.53c-4.47-1-9.07-.34-13.53.38a2,2,0,0,0-1.36,2.4,2,2,0,0,0,2.4,1.36Z"/></svg>